<svg width="240" height="161" viewBox="0 0 240 161" fill="none" xmlns="http://www.w3.org/2000/svg">
<path d="M105.545 44.1967C105.151 44.8583 104.966 45.6237 105.015 46.3924C105.044 46.7748 105.164 47.1449 105.363 47.4729C105.562 47.8008 105.835 48.0775 106.16 48.2805C105.866 47.8982 105.692 47.4364 105.662 46.9546C105.643 46.434 105.752 45.9168 105.98 45.4483C106.515 44.2156 107.499 43.232 108.732 42.6965C109.964 42.1609 111.354 42.1132 112.621 42.5631L113.989 42.4358L115.676 42.3085V42.701L115.984 42.4782L118.328 42.7859L119.029 42.4464L121.734 44.0588C122.211 43.8466 122.689 43.6026 123.145 43.3481L123.718 44.3133C124.491 44.3699 125.242 44.6018 125.913 44.9914C126.584 45.381 127.157 45.9181 127.59 46.5621C128.456 47.8856 129.236 49.264 129.924 50.6884C130.305 51.3779 130.889 52.1204 131.685 52.0992C131.69 52.0783 131.69 52.0565 131.685 52.0356C133.36 50.9877 134.736 49.5251 135.68 47.7894C136.624 46.0537 137.104 44.1038 137.074 42.1282L136.586 42.0433C138.192 39.3883 138.899 36.2856 138.601 33.1967L138.219 33.0906C139.125 29.3641 138.571 25.4324 136.671 22.1013C135.543 20.1217 134.111 18.3319 132.427 16.7975C131.582 16.0181 130.689 15.2918 129.754 14.623C128.699 13.8591 127.605 13.151 126.476 12.5015L125.107 12.9894C124.999 12.8883 124.886 12.7927 124.768 12.703C123.189 11.4029 121.312 10.5169 119.304 10.1254C117.279 9.69745 115.187 9.69745 113.162 10.1254C111.396 10.5153 109.695 11.1584 108.112 12.0348C105.339 13.6068 102.833 15.6081 100.686 17.9643C98.18 20.4907 96.1782 23.4715 94.788 26.7473C93.4073 30.0468 93.2013 33.7202 94.2045 37.1533C94.2453 37.1869 94.281 37.2262 94.3106 37.27C94.737 37.9048 95.0061 38.632 95.0956 39.3915C95.329 40.1446 97.2173 43.5178 97.9493 43.8148C98.696 44.0644 99.4751 44.2038 100.262 44.2285L100.676 43.3481C101.267 43.6028 101.893 43.7707 102.532 43.8466C103.969 44.0082 105.419 43.7151 106.68 43.0086C106.81 42.9062 106.953 42.8207 107.105 42.754C106.969 42.8489 106.828 42.934 106.68 43.0086C106.225 43.3239 105.839 43.728 105.545 44.1967Z" fill="#D1D0D1"/>
<path d="M51.6867 113.252L52.5567 111.746V111.65C50.45 105.621 47.4186 99.9565 43.5712 94.8588L41.9905 93.0343C42.9665 91.3053 43.9 89.555 44.8336 87.7942C39.1156 89.7354 34.4372 94.0314 30.9045 98.932C28.8015 101.735 27.2039 104.883 26.1837 108.235C25.5011 111.018 25.0855 113.859 24.9425 116.721C24.676 118.538 24.7407 120.389 25.1335 122.184C25.5225 123.422 26.1634 124.566 27.016 125.544C27.8686 126.523 28.9144 127.314 30.0877 127.869L30.2998 127.774C30.8576 129.125 31.6119 130.387 32.5383 131.518C34.1296 133.406 37.9486 133.417 40.3886 133.067C39.678 133.085 38.9754 132.913 38.3528 132.571C37.7302 132.228 37.21 131.725 36.8454 131.115C36.1876 129.619 37.0788 127.933 37.9062 126.554C39.54 123.987 41.2585 121.388 43.7409 119.627C45.0127 118.804 46.4849 118.343 47.9991 118.295C49.5132 118.246 51.0119 118.612 52.3339 119.351L52.4824 119.617C52.928 119.861 53.3947 120.083 53.8509 120.306L54.1055 119.765C54.1055 119.341 54.1055 118.917 54.1055 118.492C54.0732 117.557 53.9052 116.632 53.6069 115.745C53.2723 114.718 52.5943 113.838 51.6867 113.252ZM35.4026 102.825C35.3587 102.656 35.3776 102.477 35.4556 102.321C35.5336 102.165 35.6655 102.043 35.8269 101.976C36.1655 101.847 36.5346 101.822 36.8878 101.902C39.1646 102.186 41.348 102.98 43.2749 104.225C45.2019 105.47 46.8226 107.135 48.0162 109.094C42.5952 106.612 39.3065 104.957 36.0073 103.302C35.753 103.225 35.5372 103.054 35.4026 102.825Z" fill="#3773FF"/>
<path d="M35.8258 101.976C35.6644 102.042 35.5325 102.165 35.4545 102.321C35.3765 102.477 35.3576 102.656 35.4015 102.825C35.5258 103.046 35.7253 103.215 35.9638 103.302C39.263 104.957 42.5517 106.612 47.9727 109.094C46.7791 107.134 45.1584 105.47 43.2314 104.225C41.3045 102.979 39.1211 102.185 36.8443 101.902C36.5046 101.83 36.1514 101.855 35.8258 101.976Z" fill="#3773FF"/>
<path d="M64.1303 107.8L64.2046 107.863C64.0255 109.949 64.1506 112.05 64.5759 114.101L64.4274 114.228C65.6686 115.692 66.8886 117.145 68.098 118.609L70.2197 117.166C71.9701 118.588 73.7629 119.967 75.5982 121.282C77.4335 122.597 79.3112 123.859 81.2207 125.058C82.4938 125.854 83.788 126.628 85.0929 127.381L85.1883 129.874C86.4418 129.812 87.6983 129.894 88.9332 130.118H89.2726C89.4231 129.863 89.6212 129.64 89.8561 129.46C90.38 129.105 90.9614 128.843 91.5747 128.686L99.3402 126.183C101.356 125.27 103.34 124.337 105.408 123.637L105.228 123.138C105.345 120.592 106.395 118.206 107.106 115.766C108.417 111.188 108.585 106.358 107.594 101.7L105.96 101.913C104.479 97.6202 102.66 93.4525 100.518 89.4488C99.5857 87.6158 98.4658 85.8846 97.176 84.283C95.931 82.7449 94.3483 81.5144 92.5507 80.687L94.0465 77.77C89.6242 79.1249 85.029 79.8323 80.4039 79.8702C84.1593 76.0409 86.0688 70.769 87.1721 65.5289C87.6324 62.7063 88.2666 59.9147 89.0711 57.1702C89.4745 55.9716 90.0118 54.8222 90.673 53.744L90.4926 53.6379C87.6967 54.1901 85.0782 55.4173 82.8651 57.2127C82.6941 56.8773 82.4369 56.5934 82.12 56.3903C81.8031 56.1871 81.4378 56.0719 81.0616 56.0565C80.3099 56.049 79.5629 56.1746 78.855 56.4277C77.6244 56.799 76.4045 57.1596 75.2587 57.4142C71.9567 57.3903 68.6922 58.1157 65.711 59.5357C60.0036 63.418 55.5904 68.9658 51.9199 74.8423C49.3208 79.0853 47.0824 83.4238 44.7909 87.7834C43.8574 89.5443 42.9238 91.2945 41.9478 93.0235L43.5285 94.848C47.3845 99.9613 50.4197 105.644 52.5245 111.693L54.6463 110.929C54.5826 110.759 54.5083 110.6 54.4447 110.43L56.821 108.967L58.5714 107.45C59.5156 108.51 60.4386 109.571 61.3615 110.632L61.5843 110.441C62.4224 109.571 63.271 108.67 64.1303 107.8Z" fill="#3773FF"/>
<path d="M52.557 111.746L51.6871 113.252C52.5501 113.819 53.2026 114.654 53.5436 115.628C53.8419 116.515 54.0098 117.44 54.0421 118.375H54.2119C54.9905 117.71 55.4872 116.773 55.6016 115.755C55.6759 115.346 55.6973 114.929 55.6653 114.514C55.527 113.265 55.1941 112.044 54.6787 110.897L52.557 111.661V111.746Z" fill="#3773FF"/>
<path d="M54.4793 110.387C54.5429 110.557 54.6172 110.716 54.6808 110.886C55.1963 112.033 55.5291 113.253 55.6674 114.503C55.6994 114.918 55.678 115.335 55.6038 115.744H55.8796C56.7415 115.453 57.5277 114.974 58.181 114.341C58.8343 113.708 59.3383 112.937 59.6562 112.085C58.7015 111.024 57.7467 109.963 56.8237 108.902L54.4793 110.387Z" fill="#3773FF"/>
<path d="M63.6128 120.9V121.059C64.8965 121.197 66.1801 121.398 67.4531 121.664C66.4771 120.285 65.3951 118.874 64.2706 117.421L64.1539 117.516C64.3708 118.673 64.1796 119.869 63.6128 120.9Z" fill="#3773FF"/>
<path d="M70.2074 117.165L68.0857 118.608L71.1728 122.352L71.1091 122.564C71.7456 122.734 72.3821 122.935 73.0187 123.137L75.5859 121.238C73.7507 119.965 71.9578 118.586 70.2074 117.165Z" fill="#3773FF"/>
<path d="M75.5884 121.238L73.0317 123.095C73.5728 123.742 74.0926 124.389 74.5912 125.068L74.814 124.898C76.2992 125.418 77.7526 125.959 79.1423 126.616L81.2109 125.015C79.3014 123.848 77.4272 122.589 75.5884 121.238Z" fill="#3773FF"/>
<path d="M79.1412 126.659C79.608 126.857 80.0641 127.07 80.5097 127.296C80.7013 128.322 80.8183 129.361 80.8598 130.404C80.8548 130.443 80.8548 130.482 80.8598 130.52L81.3584 130.457C82.5972 130.115 83.8719 129.919 85.1562 129.873L85.0608 127.381C83.7559 126.628 82.4617 125.853 81.1887 125.058L79.1412 126.659Z" fill="#3773FF"/>
<path d="M95.7808 70.2593C95.94 67.862 96.1097 65.4117 96.237 63.2902H96.3218C95.2024 59.3742 94.7858 55.2908 95.0913 51.2294C94.7037 50.9116 94.3483 50.5563 94.0304 50.1687L93.8713 50.3172C92.5649 51.226 91.4777 52.4146 90.6887 53.7965C90.0275 54.8574 89.4866 55.9888 89.0762 57.1696C88.2721 59.9106 87.6379 62.6986 87.1773 65.5177C86.1164 70.7578 84.1644 76.0297 80.409 79.859C85.034 79.8462 89.6328 79.1638 94.0622 77.833L92.5664 80.7501C94.364 81.5775 95.9468 82.808 97.1918 84.346C98.4815 85.9476 99.6014 87.6789 100.533 89.5118C102.675 93.5155 104.495 97.6833 105.976 101.976L107.609 101.763C107.063 99.1806 106.171 96.6831 104.957 94.3383L104.83 94.1049C100.762 86.6058 97.7254 78.592 95.802 70.2805L95.7808 70.2593Z" fill="#3773FF"/>
<path d="M104.826 94.0843L104.954 94.3176C106.167 96.6625 107.059 99.16 107.606 101.743C108.597 106.408 108.426 111.246 107.107 115.83C106.397 118.269 105.346 120.656 105.23 123.202L105.41 123.7C105.76 123.573 106.11 123.467 106.471 123.361C107.049 123.185 107.649 123.092 108.253 123.085V122.905C110.345 122.447 112.38 121.76 114.321 120.858C116.021 116.727 116.781 112.271 116.549 107.81C116.358 103.143 115.605 98.4758 115.658 93.8191H115.594C114.13 95.09 112.267 95.8072 110.328 95.846C108.39 95.8847 106.499 95.2426 104.986 94.0312L104.826 94.0843Z" fill="#D1D0D1"/>
<path d="M126.062 3.4324V3.20964C124.591 1.86087 122.688 1.07962 120.694 1.00576C118.7 0.931904 116.744 1.57027 115.178 2.80656L115.019 2.59441C113.523 2.68447 112.047 2.98809 110.637 3.49605C109.928 3.74843 109.278 4.14563 108.73 4.66242C108.182 5.17921 107.748 5.8043 107.455 6.49796C106.85 8.18455 107.455 10.0303 107.975 11.7381L108.102 11.9714C109.684 11.0951 111.385 10.452 113.152 10.0621C115.177 9.63411 117.269 9.63411 119.294 10.0621C121.301 10.4536 123.179 11.3396 124.757 12.6397L124.906 12.4594C125.015 11.6908 125.338 10.9686 125.839 10.3757C126.34 9.78275 126.999 9.34316 127.738 9.10741C127.96 9.02425 128.186 8.9569 128.417 8.90586L128.491 9.26652C129.001 9.42972 129.46 9.71853 129.828 10.1063C130.196 10.494 130.461 10.9682 130.597 11.4851C130.734 12.002 130.737 12.5449 130.609 13.0637C130.48 13.5825 130.222 14.0605 129.86 14.4536L129.743 14.6127C130.679 15.2815 131.571 16.0078 132.417 16.7872L132.682 16.5008C133.924 15.171 134.676 13.4572 134.813 11.6424C134.95 9.82761 134.464 8.0204 133.435 6.51918C132.581 5.4074 131.452 4.5378 130.159 3.99641C128.866 3.45502 127.453 3.26061 126.062 3.4324Z" fill="#D1D0D1"/>
<path d="M108.272 122.904V123.084C108.836 123.078 109.384 123.278 109.811 123.646L110.426 123.731C111.115 123.816 111.805 123.933 112.548 124.071C113.264 123.074 113.879 122.008 114.383 120.888C112.426 121.783 110.377 122.459 108.272 122.904Z" fill="#D1D0D1"/>
<path d="M114.34 120.857C113.837 121.977 113.222 123.043 112.505 124.039C115.064 124.556 117.556 125.364 119.931 126.447L120.44 126.68C123.922 127.16 127.458 127.071 130.911 126.415L130.847 126.055C130.741 124.432 132.364 123.265 133.86 122.628C136.59 121.495 139.518 120.918 142.474 120.931V120.687C142.761 120.099 142.968 119.474 143.089 118.831C143.287 117.392 143.252 115.931 142.983 114.503V114.28L144.543 112.159C148.418 102.258 152.308 92.3864 156.212 82.5427L157.867 80.0075C157.697 79.1907 157.485 78.374 157.241 77.5784C155.493 71.9111 152.011 66.9349 147.285 63.3499C142.56 59.765 136.83 57.7519 130.9 57.5939L130.433 57.4136C129.536 59.6724 128.36 61.8105 126.933 63.7781L127.251 64.0008C128.97 71.1972 131.2 78.2619 133.924 85.1415C131.717 85.0036 129.786 83.7095 127.824 82.6912C125.861 81.6729 123.506 80.8985 121.459 81.8426C120.228 82.5516 119.198 83.5629 118.467 84.7809L117.056 85.5234C117.92 86.3413 118.731 87.2128 119.485 88.1328C118.004 88.9532 116.719 90.0861 115.719 91.453C115.666 92.2167 115.634 92.9698 115.634 93.7336C115.581 98.3903 116.335 103.058 116.526 107.725C116.784 112.21 116.038 116.697 114.34 120.857Z" fill="#3773FF"/>
<path d="M116.221 84.8123C116.518 85.0669 116.815 85.3427 117.101 85.6079L118.512 84.8654C119.243 83.6474 120.273 82.6361 121.504 81.9271C123.509 80.983 125.874 81.7574 127.869 82.7757C129.863 83.794 131.762 85.0881 133.969 85.226C131.235 78.3473 128.994 71.2825 127.264 64.0853L126.946 63.8625C126.85 64.0111 126.755 64.1489 126.649 64.2868C124.391 67.2654 121.908 70.0669 119.223 72.6668C119.301 76.9081 118.266 81.0957 116.221 84.8123Z" fill="#3773FF"/>
<path d="M124.887 12.4603L124.738 12.6406C124.856 12.7303 124.97 12.8259 125.078 12.927L126.446 12.4391C127.575 13.0886 128.67 13.7967 129.724 14.5606L129.841 14.4015C130.203 14.0084 130.461 13.5304 130.59 13.0116C130.719 12.4928 130.715 11.9499 130.578 11.433C130.442 10.9161 130.178 10.4419 129.81 10.0542C129.442 9.66642 128.982 9.37762 128.473 9.21441L128.398 8.85376C128.168 8.9048 127.941 8.97215 127.719 9.0553C126.972 9.29496 126.309 9.74256 125.808 10.3456C125.306 10.9487 124.987 11.6822 124.887 12.4603Z" fill="#D1D0D1"/>
<path d="M156.536 137.702C157.022 137.617 157.48 137.417 157.873 137.119C158.621 136.539 159.161 135.731 159.411 134.817C159.733 133.421 159.733 131.97 159.411 130.574C159.202 128.891 158.614 127.277 157.692 125.854C156.165 123.732 153.555 122.746 151.03 122.078C148.911 121.522 146.744 121.167 144.559 121.017C143.859 121.017 143.159 120.943 142.437 120.953C139.481 120.94 136.553 121.517 133.823 122.65C132.327 123.287 130.704 124.454 130.81 126.077L130.874 126.437C132.138 126.201 133.388 125.896 134.619 125.525V125.419C137.677 125.74 140.642 126.655 143.35 128.113C146.214 129.821 148.495 132.865 148.59 136.111C148.613 136.562 148.588 137.013 148.516 137.458L148.452 138.763C148.76 138.763 149.068 138.763 149.375 138.763C151.798 138.722 154.205 138.365 156.536 137.702Z" fill="#3773FF"/>
<path d="M142.603 135.888V136.281C144.207 137.771 146.283 138.653 148.469 138.774L148.48 137.469C148.552 137.024 148.577 136.572 148.554 136.122H148.31C146.432 136.09 144.523 135.952 142.603 135.888Z" fill="#3773FF"/>
<path d="M175.152 108.903L175.216 108.84C174.325 104.904 169.911 102.931 167.694 99.5583C165.986 96.9488 165.721 93.6817 164.968 90.6586C163.669 85.6655 161.01 81.1306 157.287 77.5583L157.118 77.6114C157.362 78.407 157.574 79.2237 157.743 80.0405L156.089 82.5757C152.206 92.476 148.316 102.348 144.419 112.192L142.86 114.313V114.536C144.148 116.034 145.604 117.379 147.199 118.546L147.347 118.8C150.719 116.848 154.529 115.781 158.425 115.697C162.32 115.614 166.173 116.517 169.625 118.323H171.269C171.499 117.444 171.783 116.579 172.118 115.735C174.303 115.597 176.468 115.459 178.621 115.342V115.141C178.168 112.742 176.951 110.554 175.152 108.903ZM152.651 112.913L151.59 112.245C151.974 108.585 153.158 105.054 155.059 101.903C155.552 100.94 156.283 100.118 157.181 99.5158C157.641 99.2301 158.178 99.0949 158.718 99.1291C159.258 99.1633 159.774 99.3653 160.194 99.7068C160.543 100.112 160.764 100.611 160.828 101.142C160.892 101.673 160.797 102.211 160.555 102.687C160.052 103.631 159.388 104.478 158.592 105.191C156.332 107.537 154.339 110.127 152.651 112.913Z" fill="#3773FF"/>
<path d="M144.54 120.762V121.027C146.726 121.177 148.893 121.532 151.012 122.088C153.537 122.756 156.146 123.753 157.674 125.864C158.596 127.287 159.184 128.901 159.392 130.584C159.714 131.98 159.714 133.431 159.392 134.827C159.143 135.741 158.603 136.549 157.854 137.129V137.182C160.934 136.912 163.913 135.955 166.574 134.382H166.903C166.848 133.792 166.913 133.196 167.094 132.632C167.661 131.191 168.611 129.933 169.842 128.993C170.621 128.966 171.401 128.994 172.176 129.078C170.553 125.734 170.25 121.901 171.327 118.343H169.683C166.231 116.537 162.378 115.634 158.482 115.718C154.587 115.801 150.776 116.869 147.405 118.821C146.4 119.391 145.442 120.04 144.54 120.762Z" fill="#3773FF"/>
<path d="M151.59 112.243L152.651 112.911C154.348 110.123 156.352 107.533 158.623 105.189C159.419 104.476 160.084 103.629 160.586 102.686C160.828 102.209 160.924 101.671 160.859 101.14C160.795 100.61 160.574 100.11 160.225 99.705C159.806 99.3635 159.29 99.1615 158.749 99.1273C158.209 99.093 157.672 99.2282 157.213 99.514C156.314 100.116 155.584 100.938 155.091 101.901C153.179 105.049 151.983 108.58 151.59 112.243Z" fill="#3773FF"/>
<path d="M132.312 8.80079C131.009 8.62851 129.686 8.67512 128.398 8.93869C128.167 8.98972 127.94 9.05707 127.719 9.14023C126.979 9.37599 126.321 9.81557 125.82 10.4085C125.319 11.0014 124.996 11.7236 124.887 12.4922" stroke="#1D1D1B" stroke-width="0.5" stroke-linecap="round" stroke-linejoin="round"/>
<path d="M128.473 9.26562C128.982 9.42883 129.442 9.71763 129.81 10.1054C130.178 10.4931 130.442 10.9673 130.578 11.4842C130.715 12.0011 130.719 12.544 130.59 13.0628C130.461 13.5816 130.203 14.0596 129.841 14.4527" stroke="#1D1D1B" stroke-width="0.5" stroke-linecap="round" stroke-linejoin="round"/>
<path d="M132.124 9.9563C132.402 10.3749 132.585 10.8486 132.662 11.3448C132.739 11.841 132.708 12.348 132.57 12.8309C132.419 13.3038 132.167 13.7382 131.832 14.1045C131.497 14.4707 131.086 14.76 130.629 14.9524" stroke="#1D1D1B" stroke-width="0.5" stroke-linecap="round" stroke-linejoin="round"/>
<path d="M122.031 3.35742C121.351 3.53532 120.722 3.86861 120.193 4.33103C119.664 4.79345 119.249 5.37239 118.982 6.02226C118.714 6.67213 118.601 7.37519 118.652 8.07608C118.703 8.77697 118.915 9.45657 119.273 10.0614V10.1356" stroke="#1D1D1B" stroke-width="0.5" stroke-linecap="round" stroke-linejoin="round"/>
<path d="M117.555 2.57227C117.081 3.0265 116.716 3.58231 116.488 4.19783C116.261 4.81336 116.175 5.47255 116.239 6.12577" stroke="#1D1D1B" stroke-width="0.5" stroke-linecap="round" stroke-linejoin="round"/>
<path d="M114.132 5.05493C113.819 5.80094 113.719 6.61901 113.842 7.41848C113.966 8.21795 114.308 8.96759 114.832 9.58433" stroke="#1D1D1B" stroke-width="0.5" stroke-linecap="round" stroke-linejoin="round"/>
<path d="M110.99 10.4126C110.501 10.159 110.091 9.7736 109.809 9.29979C109.526 8.82598 109.382 8.28265 109.392 7.73112C109.402 7.1796 109.566 6.64182 109.865 6.17848C110.164 5.71514 110.587 5.34467 111.086 5.10889" stroke="#1D1D1B" stroke-width="0.5" stroke-linecap="round" stroke-linejoin="round"/>
<path d="M238.273 69.5057C232.322 68.6677 232.142 68.6147 226.201 67.7131C226.196 67.6921 226.196 67.6703 226.201 67.6494" stroke="#1D1D1B" stroke-linecap="round" stroke-linejoin="round"/>
<path d="M226.027 67.5642C209.807 70.407 193.692 73.7802 177.907 77.8535C177.748 78.0441 177.661 78.2843 177.661 78.5323C177.661 78.7804 177.748 79.0206 177.907 79.2112C178.161 79.5605 178.542 79.7965 178.968 79.8689H179.137C179.712 79.8759 180.28 80.0023 180.803 80.2401C181.411 80.7046 181.918 81.287 182.296 81.9522C182.673 82.6175 182.912 83.352 182.999 84.1119C183.13 85.9154 182.547 87.6983 181.376 89.0762C180.877 89.1518 180.389 89.2871 179.923 89.4793C179.822 89.5246 179.729 89.5855 179.647 89.6596C179.487 89.815 179.371 90.0085 179.307 90.2218C179.148 90.7777 179.193 91.3723 179.435 91.8978" stroke="#1D1D1B" stroke-linecap="round" stroke-linejoin="round"/>
<path d="M176.309 92.7892C192.742 89.607 209.195 86.8384 225.798 84.6321C232.11 84.5578 229.734 84.1866 236.035 84.6321" stroke="#1D1D1B" stroke-linecap="round" stroke-linejoin="round"/>
<path d="M236.035 85.811C226.35 85.7262 221.735 86.0126 212.07 86.6172" stroke="#1D1D1B" stroke-linecap="round" stroke-linejoin="round"/>
<path d="M176.464 104.14L176.634 104.384C180.028 104.097 183.444 103.822 186.86 103.578C197.713 102.771 208.65 102.156 219.513 101.732C222.123 101.626 224.722 101.541 227.311 101.456H235.469" stroke="#1D1D1B" stroke-linecap="round" stroke-linejoin="round"/>
<path d="M176.496 104.266C176.496 104.266 176.496 104.266 176.496 104.204" stroke="#1D1D1B" stroke-linecap="round" stroke-linejoin="round"/>
<path d="M176.305 92.9597C176.319 93.4562 176.453 93.9418 176.695 94.3757C176.937 94.8095 177.28 95.1788 177.694 95.4525C178.819 97.0436 178.691 100.12 177.45 102.05C177.373 102.034 177.294 102.034 177.217 102.05C176.538 102.273 176.421 103.376 176.464 104.076" stroke="#1D1D1B" stroke-linecap="round" stroke-linejoin="round"/>
<path d="M186.898 103.959C184.777 106.685 184.777 111.724 186.432 114.779" stroke="#1D1D1B" stroke-linecap="round" stroke-linejoin="round"/>
<path d="M205.586 104.479C204.538 105.428 203.864 106.721 203.687 108.124C203.51 109.527 203.841 110.947 204.621 112.127" stroke="#1D1D1B" stroke-linecap="round" stroke-linejoin="round"/>
<path d="M236.746 114.1C228.312 113.994 220.176 114.004 212.113 114.1C203.563 114.238 195.086 114.513 186.44 114.927C183.894 115.047 181.327 115.182 178.738 115.33C176.617 115.447 174.421 115.585 172.235 115.723" stroke="#1D1D1B" stroke-linecap="round" stroke-linejoin="round"/>
<path d="M219.694 116.603C219.649 116.678 219.61 116.756 219.577 116.836C217.922 120.019 218.198 126.15 219.832 129.258" stroke="#1D1D1B" stroke-linecap="round" stroke-linejoin="round"/>
<path d="M172.235 115.754C171.899 116.599 171.616 117.463 171.386 118.343C170.308 121.9 170.611 125.733 172.235 129.077C188.254 130.478 205.015 131.252 221.098 131.294" stroke="#1D1D1B" stroke-linecap="round" stroke-linejoin="round"/>
<path d="M237.777 128.378C237.077 128.474 236.388 128.59 235.656 128.696C232.208 129.269 228.834 129.991 225.418 130.606C224.05 130.85 222.671 131.083 221.281 131.285" stroke="#1D1D1B" stroke-linecap="round" stroke-linejoin="round"/>
<path d="M172.88 129.142H172.19C171.415 129.059 170.635 129.03 169.856 129.057C168.626 129.997 167.676 131.255 167.109 132.696C166.893 133.348 166.839 134.044 166.952 134.722C167.065 135.4 167.341 136.041 167.756 136.589C167.966 136.876 168.204 137.143 168.467 137.384L222.57 140.333" stroke="#1D1D1B" stroke-linecap="round" stroke-linejoin="round"/>
<path d="M222.443 132.686L222.39 132.76C222.127 133.159 221.954 133.61 221.883 134.083C221.812 134.555 221.843 135.038 221.976 135.497C222.155 136.623 222.479 137.721 222.941 138.764" stroke="#1D1D1B" stroke-linecap="round" stroke-linejoin="round"/>
<path d="M238.273 137.002C234.369 137.872 230.434 138.625 226.509 139.441C225.204 139.707 223.899 139.993 222.594 140.279" stroke="#1D1D1B" stroke-linecap="round" stroke-linejoin="round"/>
<path d="M223.801 142.539C221.679 146.888 221.923 153.008 223.801 157.485" stroke="#1D1D1B" stroke-linecap="round" stroke-linejoin="round"/>
<path d="M219.906 116.996C220.925 120.907 221.052 124.996 220.278 128.962" stroke="#1D1D1B" stroke-width="0.5" stroke-linecap="round" stroke-linejoin="round"/>
<path d="M222.551 132.907C223.331 134.691 223.651 136.642 223.484 138.582" stroke="#1D1D1B" stroke-width="0.5" stroke-linecap="round" stroke-linejoin="round"/>
<path d="M223.973 142.453V142.527C224.249 147.336 224.337 152.145 224.238 156.954" stroke="#1D1D1B" stroke-width="0.5" stroke-linecap="round" stroke-linejoin="round"/>
<path d="M167.52 136.546C164.907 136.963 162.338 137.627 159.85 138.53C159.339 140.808 159.178 143.151 159.373 145.478C159.373 146.04 159.479 146.623 159.564 147.196C159.891 149.299 160.471 151.354 161.293 153.317C182.022 155.141 202.73 157.379 223.385 159.904C228.477 157.969 233.261 155.307 237.59 152.001" stroke="#1D1D1B" stroke-linecap="round" stroke-linejoin="round"/>
<path d="M130.902 57.5952C136.81 57.7794 142.512 59.8045 147.212 63.3876C151.912 66.9707 155.375 71.9326 157.116 77.5797C157.36 78.3753 157.572 79.192 157.742 80.0088" stroke="#1D1D1B" stroke-linecap="round" stroke-linejoin="round"/>
<path d="M157.282 77.5583C161.005 81.1306 163.664 85.6655 164.963 90.6586C165.716 93.6817 166.024 96.9488 167.689 99.5583C169.907 102.931 174.32 104.862 175.211 108.84" stroke="#1D1D1B" stroke-linecap="round" stroke-linejoin="round"/>
<path d="M173.018 107.45C173.783 107.853 174.495 108.348 175.14 108.924C176.982 110.565 178.238 112.763 178.715 115.183" stroke="#1D1D1B" stroke-linecap="round" stroke-linejoin="round"/>
<path d="M156.086 82.5752C152.203 92.4755 148.313 102.348 144.417 112.191" stroke="#1D1D1B" stroke-linecap="round" stroke-linejoin="round"/>
<path d="M149.668 71.4485C147.016 77.813 146.772 84.7821 146.411 91.6027C146.05 98.4233 145.467 105.509 142.274 111.566" stroke="#1D1D1B" stroke-linecap="round" stroke-linejoin="round"/>
<path d="M139.992 71.0442C139.522 83.198 139.784 95.3692 140.777 107.491" stroke="#1D1D1B" stroke-linecap="round" stroke-linejoin="round"/>
<path d="M135.444 61.1897C137.265 72.6085 138.258 84.1443 138.414 95.7064" stroke="#1D1D1B" stroke-linecap="round" stroke-linejoin="round"/>
<path d="M150.9 116.106C151.441 115.045 152.025 113.984 152.651 112.924C154.348 110.136 156.352 107.546 158.623 105.201C159.419 104.489 160.084 103.641 160.586 102.698C160.828 102.222 160.924 101.684 160.859 101.153C160.795 100.622 160.574 100.122 160.225 99.7174C159.806 99.3759 159.29 99.174 158.749 99.1397C158.209 99.1055 157.672 99.2407 157.213 99.5265C156.314 100.129 155.584 100.95 155.091 101.913C153.19 105.064 152.005 108.595 151.622 112.255" stroke="#1D1D1B" stroke-linecap="round" stroke-linejoin="round"/>
<path d="M169.41 109.687C167.003 109.453 164.574 109.745 162.292 110.544C160.009 111.343 157.928 112.628 156.192 114.312" stroke="#1D1D1B" stroke-linecap="round" stroke-linejoin="round"/>
<path d="M170.484 114.481C166.449 113.554 162.224 113.925 158.412 115.542" stroke="#1D1D1B" stroke-linecap="round" stroke-linejoin="round"/>
<path d="M169.699 118.322C166.247 116.516 162.394 115.613 158.499 115.696C154.604 115.779 150.793 116.847 147.421 118.799C146.412 119.375 145.451 120.032 144.546 120.761" stroke="#1D1D1B" stroke-linecap="round" stroke-linejoin="round"/>
<path d="M142.797 114.386C142.837 114.441 142.883 114.491 142.935 114.535C144.223 116.032 145.679 117.378 147.273 118.545" stroke="#1D1D1B" stroke-linecap="round" stroke-linejoin="round"/>
<path d="M130.795 126.086C130.688 124.463 132.312 123.297 133.807 122.66C136.537 121.526 139.466 120.949 142.422 120.963C143.132 120.963 143.832 120.963 144.543 121.027C146.729 121.176 148.895 121.532 151.014 122.087C153.539 122.756 156.149 123.753 157.677 125.864C158.599 127.287 159.186 128.901 159.395 130.584C159.717 131.98 159.717 133.431 159.395 134.827C159.146 135.741 158.606 136.548 157.857 137.129C157.464 137.427 157.006 137.627 156.52 137.712" stroke="#1D1D1B" stroke-linecap="round" stroke-linejoin="round"/>
<path d="M132.516 125.112C133.216 125.207 133.927 125.313 134.637 125.43C137.695 125.751 140.661 126.666 143.368 128.124C146.233 129.832 148.513 132.876 148.609 136.122C148.632 136.573 148.607 137.024 148.535 137.47" stroke="#1D1D1B" stroke-linecap="round" stroke-linejoin="round"/>
<path d="M166.633 134.412C163.972 135.986 160.992 136.942 157.913 137.213" stroke="#1D1D1B" stroke-linecap="round" stroke-linejoin="round"/>
<path d="M156.699 137.659H156.529C154.202 138.321 151.799 138.678 149.379 138.72C149.072 138.72 148.764 138.72 148.456 138.72C146.27 138.6 144.194 137.718 142.59 136.227" stroke="#1D1D1B" stroke-linecap="round" stroke-linejoin="round"/>
<path d="M148.352 136.089C146.431 135.994 144.522 135.909 142.602 135.845C140.936 135.782 139.281 135.739 137.626 135.718C133.935 135.633 130.253 135.612 126.562 135.654C123.252 135.654 119.708 135.707 116.812 134.222C116.414 134.021 116.031 133.79 115.667 133.533" stroke="#1D1D1B" stroke-linecap="round" stroke-linejoin="round"/>
<path d="M134.605 125.535C133.375 125.907 132.124 126.211 130.861 126.447C127.408 127.103 123.871 127.192 120.39 126.713L119.881 126.479C117.505 125.396 115.014 124.588 112.455 124.071C111.744 123.933 111.054 123.817 110.333 123.732L109.718 123.647C109.291 123.278 108.744 123.078 108.18 123.085C107.575 123.092 106.975 123.185 106.397 123.361C106.037 123.467 105.686 123.573 105.336 123.7C103.215 124.4 101.284 125.334 99.2683 126.246L99.0349 126.352C96.9831 128.3 94.7724 130.074 92.4258 131.656L91.0997 132.536C91.2001 132.994 91.4491 133.405 91.808 133.707C92.1668 134.008 92.6154 134.182 93.0835 134.202C94.0254 134.207 94.9518 133.962 95.7675 133.491C98.2799 132.161 100.675 130.621 102.928 128.887" stroke="#1D1D1B" stroke-linecap="round" stroke-linejoin="round"/>
<path d="M110.198 125.355C109.484 125.292 108.766 125.386 108.093 125.632C107.42 125.878 106.809 126.269 106.305 126.777L103.249 129.174C100.661 131.221 98.083 133.279 95.5475 135.454C95.8012 135.797 96.1347 136.073 96.5193 136.258C96.9038 136.442 97.3277 136.531 97.7541 136.514C98.6076 136.467 99.4419 136.243 100.205 135.857C100.714 135.623 101.266 135.379 101.711 135.104C102.898 134.471 104.042 133.762 105.138 132.982C106.708 131.921 108.225 130.627 109.763 129.386C110.648 129.08 111.567 128.885 112.5 128.803" stroke="#1D1D1B" stroke-linecap="round" stroke-linejoin="round"/>
<path d="M119.117 128.167C117.859 127.477 116.393 127.266 114.99 127.573" stroke="#1D1D1B" stroke-linecap="round" stroke-linejoin="round"/>
<path d="M113.77 128.092C113.462 128.42 113.154 128.749 112.825 129.078C111.34 130.641 109.784 132.133 108.158 133.554C107.213 134.403 106.237 135.22 105.251 136.015" stroke="#1D1D1B" stroke-linecap="round" stroke-linejoin="round"/>
<path d="M118.555 131.847C117.6 131.847 116.635 131.847 115.775 131.847C114.958 132.494 114.12 133.152 113.261 133.778C111.436 135.199 109.338 136.228 107.097 136.801C106.708 136.907 106.298 136.907 105.909 136.801C105.725 136.751 105.561 136.646 105.438 136.5C105.315 136.354 105.239 136.174 105.22 135.984V135.931" stroke="#1D1D1B" stroke-linecap="round" stroke-linejoin="round"/>
<path d="M116.715 134.456C115.561 134.604 114.388 134.413 113.341 133.904" stroke="#1D1D1B" stroke-linecap="round" stroke-linejoin="round"/>
<path d="M108.051 133.437C107.113 133.49 106.173 133.404 105.261 133.183" stroke="#1D1D1B" stroke-linecap="round" stroke-linejoin="round"/>
<path d="M92.341 131.412C91.2353 131.707 90.0603 131.594 89.0311 131.094C89.0054 130.759 89.0872 130.424 89.2645 130.139C89.4149 129.884 89.613 129.661 89.848 129.481C90.3718 129.126 90.9533 128.864 91.5666 128.707L99.332 126.204" stroke="#1D1D1B" stroke-linecap="round" stroke-linejoin="round"/>
<path d="M127.261 64.0862C128.98 71.2825 131.21 78.3473 133.934 85.2269C131.727 85.089 129.796 83.7949 127.834 82.7766C125.871 81.7582 123.516 80.9839 121.469 81.928C120.238 82.637 119.208 83.6483 118.477 84.8662" stroke="#1D1D1B" stroke-linecap="round" stroke-linejoin="round"/>
<path d="M121.705 70.8323C121.853 73.7882 121.995 76.7477 122.129 79.7107" stroke="#1D1D1B" stroke-linecap="round" stroke-linejoin="round"/>
<path d="M119.216 72.688C119.29 76.9221 118.255 81.102 116.214 84.8123C116.511 85.0669 116.808 85.3427 117.094 85.6079C117.958 86.4258 118.769 87.2973 119.523 88.2173C118.042 89.0377 116.757 90.1706 115.757 91.5375C115.704 92.3012 115.673 93.0544 115.673 93.8181C115.619 98.4748 116.373 103.142 116.564 107.809C116.796 112.27 116.035 116.726 114.336 120.857C113.832 121.976 113.217 123.042 112.501 124.039" stroke="#1D1D1B" stroke-linecap="round" stroke-linejoin="round"/>
<path d="M115.309 117.867C113.059 118.956 110.754 119.926 108.402 120.773" stroke="#1D1D1B" stroke-linecap="round" stroke-linejoin="round"/>
<path d="M114.469 120.794L114.341 120.858C112.4 121.761 110.365 122.447 108.273 122.905" stroke="#1D1D1B" stroke-linecap="round" stroke-linejoin="round"/>
<path d="M105.24 123.202C105.356 120.656 106.407 118.269 107.117 115.83C108.429 111.252 108.596 106.422 107.605 101.764C107.059 99.1811 106.167 96.6836 104.953 94.3388L104.826 94.1054C100.758 86.6063 97.7214 78.5925 95.798 70.281" stroke="#1D1D1B" stroke-linecap="round" stroke-linejoin="round"/>
<path d="M95.4354 75.0123C95.5309 73.5378 95.637 71.9149 95.7431 70.2601C95.9022 67.8628 96.0719 65.4125 96.1992 63.291" stroke="#1D1D1B" stroke-linecap="round" stroke-linejoin="round"/>
<path d="M105.973 101.976C104.492 97.684 102.672 93.5162 100.53 89.5126C99.5984 87.6796 98.4785 85.9484 97.1888 84.3467C95.9438 82.8087 94.361 81.5782 92.5634 80.7508L94.0593 77.8337C89.6304 79.1681 85.0315 79.8541 80.406 79.8704C84.1614 76.0411 86.071 70.7692 87.1743 65.5291C87.6345 62.7064 88.2687 59.9148 89.0732 57.1704C89.4766 55.9717 90.014 54.8223 90.6751 53.7442C91.4641 52.3623 92.5514 51.1737 93.8577 50.2649" stroke="#1D1D1B" stroke-linecap="round" stroke-linejoin="round"/>
<path d="M90.4922 53.6379C87.6963 54.1901 85.0778 55.4173 82.8646 57.2127C82.6936 56.8773 82.4365 56.5934 82.1196 56.3903C81.8026 56.1871 81.4374 56.0719 81.0612 56.0565C80.3095 56.049 79.5624 56.1746 78.8546 56.4277C77.624 56.799 76.404 57.1596 75.2583 57.4142C71.9562 57.3903 68.6918 58.1157 65.7106 59.5357C60.0032 63.418 55.59 68.9658 51.9194 74.8423C49.3203 79.0853 47.0819 83.4238 44.7905 87.7834C43.8569 89.5443 42.9234 91.2945 41.9474 93.0235" stroke="#1D1D1B" stroke-linecap="round" stroke-linejoin="round"/>
<path d="M69.0932 81.2805C69.8399 89.6242 68.802 98.0313 66.0485 105.943" stroke="#1D1D1B" stroke-linecap="round" stroke-linejoin="round"/>
<path d="M66.7969 67.6296C64.3868 79.8491 63.4537 92.3138 64.0174 104.756" stroke="#1D1D1B" stroke-linecap="round" stroke-linejoin="round"/>
<path d="M53.4407 82.1289C52.6467 90.8155 52.7071 99.5591 53.6211 108.234" stroke="#1D1D1B" stroke-linecap="round" stroke-linejoin="round"/>
<path d="M43.538 94.8586C47.3893 99.9693 50.4208 105.649 52.5234 111.693V111.788" stroke="#1D1D1B" stroke-linecap="round" stroke-linejoin="round"/>
<path d="M47.9727 109.093C46.7791 107.134 45.1584 105.469 43.2314 104.224C41.3045 102.979 39.1211 102.185 36.8443 101.901C36.4911 101.821 36.122 101.847 35.7834 101.976C35.622 102.042 35.4901 102.164 35.4121 102.32C35.3341 102.476 35.3152 102.655 35.3591 102.824C35.4833 103.045 35.6829 103.215 35.9213 103.302C39.21 104.956 42.5517 106.611 47.9727 109.093Z" stroke="#1D1D1B" stroke-linecap="round" stroke-linejoin="round"/>
<path d="M54.4771 110.387C54.5408 110.557 54.615 110.716 54.6787 110.886C55.1941 112.033 55.527 113.253 55.6653 114.503C55.6973 114.918 55.6759 115.335 55.6016 115.744C55.4872 116.762 54.9905 117.699 54.2119 118.364" stroke="#1D1D1B" stroke-linecap="round" stroke-linejoin="round"/>
<path d="M54.0625 119.649C54.0625 119.224 54.0625 118.8 54.0625 118.376C54.0302 117.441 53.8623 116.515 53.5639 115.629C53.2229 114.654 52.5705 113.819 51.7074 113.252C51.4226 113.076 51.1108 112.947 50.7844 112.871" stroke="#1D1D1B" stroke-linecap="round" stroke-linejoin="round"/>
<path d="M52.3008 119.234C50.9789 118.495 49.4801 118.129 47.9659 118.178C46.4518 118.226 44.9796 118.687 43.7078 119.51C41.2254 121.271 39.4644 123.87 37.8731 126.437C36.9926 127.816 36.1015 129.503 36.8122 130.998C37.1748 131.588 37.6839 132.074 38.29 132.408C38.896 132.743 39.5784 132.915 40.2706 132.908C40.3977 132.918 40.5254 132.918 40.6525 132.908" stroke="#1D1D1B" stroke-linecap="round" stroke-linejoin="round"/>
<path d="M47.3555 111.958C45.5189 111.247 43.5527 110.931 41.5857 111.032C39.6187 111.132 37.695 111.647 35.9406 112.542C34.1862 113.437 32.6405 114.693 31.4047 116.226C30.169 117.76 29.2709 119.537 28.7692 121.441" stroke="#1D1D1B" stroke-linecap="round" stroke-linejoin="round"/>
<path d="M40.2695 132.982C37.8296 133.332 34.0105 133.322 32.4192 131.434C31.4928 130.302 30.7385 129.041 30.1808 127.689C29.7564 126.766 29.3957 125.822 29.0457 124.878" stroke="#1D1D1B" stroke-linecap="round" stroke-linejoin="round"/>
<path d="M30.0041 127.784C28.8309 127.229 27.785 126.438 26.9324 125.459C26.0798 124.481 25.4389 123.337 25.05 122.099C24.6572 120.304 24.5924 118.453 24.8589 116.636C25.0019 113.774 25.4176 110.933 26.1002 108.15C27.1204 104.798 28.718 101.65 30.821 98.8471C34.3537 93.9464 39.032 89.6504 44.75 87.7092" stroke="#1D1D1B" stroke-linecap="round" stroke-linejoin="round"/>
<path d="M39.8672 109.03C37.896 108.316 35.7557 108.213 33.7249 108.733C31.7145 109.245 29.76 109.956 27.8901 110.854" stroke="#1D1D1B" stroke-linecap="round" stroke-linejoin="round"/>
<path d="M71.1836 122.353L68.0965 118.609C66.8871 117.145 65.6671 115.691 64.4259 114.228C63.4216 113.018 62.3997 111.813 61.3601 110.61C60.4371 109.55 59.5142 108.489 58.57 107.428L56.8514 108.934C57.7744 109.995 58.7291 111.056 59.6839 112.117C61.2221 113.846 62.7816 115.67 64.2456 117.495C65.3807 118.906 66.4628 120.316 67.4282 121.738L67.5342 121.886" stroke="#1D1D1B" stroke-linecap="round" stroke-linejoin="round"/>
<path d="M63.6099 121.059C64.8936 121.196 66.1772 121.398 67.4502 121.663C68.7232 121.928 69.9008 122.204 71.1208 122.565C71.7573 122.735 72.3938 122.936 73.0303 123.138C73.5714 123.785 74.0912 124.432 74.5898 125.111C76.553 127.753 78.2649 130.572 79.7031 133.533C79.5382 133.749 79.3308 133.93 79.0936 134.063C78.8564 134.196 78.5945 134.279 78.324 134.307C78.2959 134.313 78.2672 134.313 78.2391 134.307C77.7016 134.322 77.1783 134.133 76.7752 133.777C77.4824 134.517 78.1348 135.308 78.7271 136.142C78.5982 136.632 78.2986 137.059 77.8822 137.347C77.4659 137.635 76.9604 137.764 76.4569 137.712C75.9386 137.681 75.431 137.551 74.9611 137.33C74.5134 137.13 74.0777 136.903 73.6562 136.652C69.8753 134.509 65.9796 132.576 61.9868 130.86" stroke="#1D1D1B" stroke-linecap="round" stroke-linejoin="round"/>
<path d="M75.2812 132.102C73.7311 130.926 72.3341 129.561 71.1227 128.039C69.0382 127.724 66.9861 127.224 64.9909 126.543C68.4599 128.495 71.9289 130.479 75.2812 132.102Z" stroke="#1D1D1B" stroke-linecap="round" stroke-linejoin="round"/>
<path d="M74.8135 124.941C76.2987 125.461 77.7521 126.002 79.1418 126.66C79.6086 126.858 80.0647 127.07 80.5103 127.296C80.7019 128.322 80.8189 129.361 80.8604 130.404C80.8554 130.443 80.8554 130.482 80.8604 130.521C80.9646 131.566 81.3659 132.56 82.0167 133.385C82.0414 133.586 82.0122 133.791 81.9321 133.977C81.8519 134.163 81.7237 134.325 81.5606 134.446C81.2317 134.679 80.7755 134.721 80.0223 134.096C81.4014 135.835 82.7912 137.586 84.043 139.399C82.0486 137.893 80.1178 136.302 78.2401 134.647" stroke="#1D1D1B" stroke-linecap="round" stroke-linejoin="round"/>
<path d="M74.7852 137.724C74.6274 138.131 74.3631 138.489 74.0197 138.76C73.6763 139.03 73.2665 139.204 72.8332 139.262C71.9625 139.364 71.0799 139.263 70.2553 138.965C69.7037 138.795 69.1626 138.604 68.6322 138.392C66.3195 137.48 64.1341 136.27 61.8427 135.263" stroke="#1D1D1B" stroke-linecap="round" stroke-linejoin="round"/>
<path d="M68.5556 138.582C68.578 138.785 68.5455 138.991 68.4616 139.177C68.3776 139.364 68.2453 139.525 68.0782 139.643C67.7393 139.879 67.3512 140.035 66.9431 140.099C66.2872 140.24 65.6194 140.318 64.9487 140.332C63.0251 140.4 61.1138 140 59.3792 139.165C58.5104 138.754 57.6976 138.234 56.9604 137.617" stroke="#1D1D1B" stroke-linecap="round" stroke-linejoin="round"/>
<path d="M63.3555 121.101C62.8911 121.189 62.4499 121.373 62.0593 121.639C61.6688 121.905 61.3372 122.249 61.0852 122.649C60.8 123.049 60.5913 123.499 60.4699 123.975C59.9819 124.601 59.1333 124.813 58.5922 125.375C58.136 125.895 57.9001 126.573 57.9345 127.264C57.9345 127.942 58.1148 128.611 58.1148 129.279C57.6018 129.569 57.1996 130.021 56.9711 130.564C56.7426 131.108 56.7009 131.711 56.8524 132.281C57.1794 132.898 57.3881 133.571 57.4677 134.264C57.3905 134.634 57.2619 134.991 57.0858 135.325C56.9475 135.584 56.8305 135.854 56.7357 136.131L56.6721 136.407C56.6374 136.591 56.6411 136.781 56.6831 136.963C56.7251 137.146 56.8044 137.318 56.9161 137.468" stroke="#1D1D1B" stroke-linecap="round" stroke-linejoin="round"/>
<path d="M52.449 119.499C52.8945 119.743 53.3614 119.966 53.8175 120.189C56.0696 121.247 58.4421 122.027 60.8828 122.512" stroke="#1D1D1B" stroke-linecap="round" stroke-linejoin="round"/>
<path d="M44.5156 133.565C43.232 133.342 41.9483 133.13 40.6541 132.939L39.9964 132.843" stroke="#1D1D1B" stroke-linecap="round" stroke-linejoin="round"/>
<path d="M56.2461 135.973C52.3846 135.039 48.4948 134.237 44.5767 133.565" stroke="#1D1D1B" stroke-linecap="round" stroke-linejoin="round"/>
<path d="M237.59 71.2252C231.67 70.4191 232.02 70.4721 226.44 69.5811L225.984 69.5068C210.687 72.583 194.158 76.2744 178.946 79.7643" stroke="#1D1D1B" stroke-linecap="round" stroke-linejoin="round"/>
<path d="M226.421 69.8567C228.539 73.5754 229.236 77.9359 228.384 82.1295" stroke="#1D1D1B" stroke-width="0.5" stroke-linecap="round" stroke-linejoin="round"/>
<path d="M236.746 82.4051C231.251 81.9384 233.564 82.246 228.387 82.3415H228.238C212.007 84.3781 195.847 86.8532 179.757 89.7667" stroke="#1D1D1B" stroke-linecap="round" stroke-linejoin="round"/>
<path d="M235.469 87.762C213.795 88.0059 198.615 90.3926 177.408 94.869" stroke="#1D1D1B" stroke-linecap="round" stroke-linejoin="round"/>
<path d="M235.469 99.5049C213.191 99.6958 199.347 99.7595 177.122 102.104" stroke="#1D1D1B" stroke-linecap="round" stroke-linejoin="round"/>
<path d="M235.469 103.451C228.711 103.281 224.202 103.281 219.556 103.451C215.61 103.621 211.546 103.928 205.903 104.416H205.553" stroke="#1D1D1B" stroke-linecap="round" stroke-linejoin="round"/>
<path d="M236.746 111.829C227.092 111.829 220.473 112.285 212.102 112.392C209.928 112.392 207.626 112.392 205.122 112.392H204.804" stroke="#1D1D1B" stroke-linecap="round" stroke-linejoin="round"/>
<path d="M205.946 104.543C206.306 107.149 206.022 109.804 205.119 112.276" stroke="#1D1D1B" stroke-width="0.5" stroke-linecap="round" stroke-linejoin="round"/>
<path d="M231.478 116.126L236.719 115.936C236.623 116.01 236.199 116.01 235.34 116.01C233.844 116.073 232.592 116.126 231.478 116.126ZM231.478 116.126L219.968 116.572C223.794 116.225 227.636 116.077 231.478 116.126Z" stroke="#1D1D1B" stroke-linecap="round" stroke-linejoin="round"/>
<path d="M237.988 126.427L235.4 126.851C230.859 127.583 226.383 128.304 221.831 129.089L220.325 129.259L219.848 129.323" stroke="#1D1D1B" stroke-linecap="round" stroke-linejoin="round"/>
<path d="M222.446 132.684H222.52L225.702 132.101L227.039 131.868" stroke="#1D1D1B" stroke-linecap="round" stroke-linejoin="round"/>
<path d="M227.059 131.847C225.489 132.144 223.95 132.42 222.518 132.664" stroke="#1D1D1B" stroke-linecap="round" stroke-linejoin="round"/>
<path d="M227.058 131.846L228.023 131.666L229.965 131.305" stroke="#1D1D1B" stroke-linecap="round" stroke-linejoin="round"/>
<path d="M229.991 131.316L237.777 129.916C235.284 130.341 232.611 130.786 229.991 131.316Z" stroke="#1D1D1B" stroke-linecap="round" stroke-linejoin="round"/>
<path d="M222.939 138.763L223.502 138.657L226.239 138.127C230.397 137.278 234.535 136.292 238.672 135.549" stroke="#1D1D1B" stroke-linecap="round" stroke-linejoin="round"/>
<path d="M223.981 142.326L238.653 138.846L238.918 138.783" stroke="#1D1D1B" stroke-linecap="round" stroke-linejoin="round"/>
<path d="M223.799 157.485C223.969 157.411 224.149 157.347 224.319 157.262C228.621 155.343 232.802 153.161 236.837 150.728L238.078 150.018" stroke="#1D1D1B" stroke-linecap="round" stroke-linejoin="round"/>
<path d="M71.7878 106.389C77.173 113.639 83.299 120.308 90.0664 126.289" stroke="#1D1D1B" stroke-linecap="round" stroke-linejoin="round"/>
<path d="M85.0859 127.38C83.7811 126.627 82.4868 125.853 81.2138 125.057C79.3043 123.862 77.4301 122.603 75.5913 121.281C73.756 119.965 71.9632 118.586 70.2127 117.165" stroke="#1D1D1B" stroke-linecap="round" stroke-linejoin="round"/>
<path d="M137.626 135.93C143.425 138.883 149.626 140.967 156.032 142.114L156.53 142.199C156.754 143.096 156.889 144.013 156.934 144.936C156.934 145.19 156.934 145.456 156.934 145.721" stroke="#1D1D1B" stroke-linecap="round" stroke-linejoin="round"/>
<path d="M156.023 142.188C151.95 142.91 147.77 142.252 143.739 141.35C139.707 140.449 135.708 139.314 131.581 139.048C124.353 138.61 117.22 140.879 111.574 145.413" stroke="#1D1D1B" stroke-linecap="round" stroke-linejoin="round"/>
<path d="M111.25 145.7C108.053 141.972 103.511 139.661 98.6152 139.272C93.8519 138.943 89.1736 140.47 84.4846 141.393C78.4024 142.67 72.1509 142.931 65.9832 142.167H65.665C65.3158 143.391 64.8393 144.575 64.2434 145.7" stroke="#1D1D1B" stroke-linecap="round" stroke-linejoin="round"/>
<path d="M102.323 136.184C105.683 138.955 108.677 142.142 111.234 145.667" stroke="#1D1D1B" stroke-linecap="round" stroke-linejoin="round"/>
<path d="M107.11 148.151C108.272 147.396 109.655 147.056 111.035 147.185C112.285 147.263 113.464 147.791 114.355 148.67C111.928 148.819 109.491 148.644 107.11 148.151Z" stroke="#1D1D1B" stroke-linecap="round" stroke-linejoin="round"/>
<path d="M81.1016 147.757C74.9486 147.46 68.7921 147.237 62.632 147.089H62.5472" stroke="#1D1D1B" stroke-linecap="round" stroke-linejoin="round"/>
<path d="M114.531 150.133C111.883 150.716 109.12 150.483 106.607 149.465C99.902 148.914 93.1833 148.45 86.4504 148.076C84.6893 147.97 82.9177 147.885 81.1461 147.8" stroke="#1D1D1B" stroke-linecap="round" stroke-linejoin="round"/>
<path d="M56.61 137.851C58.7317 140.856 60.7367 143.946 62.625 147.122" stroke="#1D1D1B" stroke-linecap="round" stroke-linejoin="round"/>
<path d="M59.305 139.335C60.6658 141.559 62.1498 143.705 63.75 145.764" stroke="#1D1D1B" stroke-linecap="round" stroke-linejoin="round"/>
<path d="M64.9481 140.598C65.277 141.139 65.6164 141.659 65.9453 142.2" stroke="#1D1D1B" stroke-linecap="round" stroke-linejoin="round"/>
<path d="M106.863 148.128C92.7032 146.493 78.4604 145.679 64.2062 145.689H63.8456" stroke="#1D1D1B" stroke-linecap="round" stroke-linejoin="round"/>
<path d="M114.928 148.989L156.863 145.807" stroke="#1D1D1B" stroke-linecap="round" stroke-linejoin="round"/>
<path d="M114.831 150.378C129.524 149.795 144.195 148.702 158.825 147.196H159.016" stroke="#1D1D1B" stroke-linecap="round" stroke-linejoin="round"/>
<path d="M159.086 145.498L157.282 144.926" stroke="#1D1D1B" stroke-linecap="round" stroke-linejoin="round"/>
<path d="M64.7852 107.12C64.5624 107.342 64.3396 107.565 64.1274 107.799C63.2681 108.668 62.4195 109.538 61.5814 110.419" stroke="#1D1D1B" stroke-linecap="round" stroke-linejoin="round"/>
<path d="M59.6562 112.116C59.3383 112.968 58.8343 113.739 58.181 114.372C57.5277 115.005 56.7415 115.485 55.8796 115.776" stroke="#1D1D1B" stroke-linecap="round" stroke-linejoin="round"/>
<path d="M81.1172 147.757C71.0748 150.107 60.9056 151.877 50.66 153.061L50.5115 152.944C46.1129 149.563 41.0027 147.228 35.5678 146.114C30.1329 145 24.5159 145.138 19.142 146.516C22.176 144.575 25.7617 143.737 29.2837 142.92C38.0252 140.915 47.6577 137.754 56.622 137.828" stroke="#1D1D1B" stroke-linecap="round" stroke-linejoin="round"/>
<path d="M44.582 133.565C33.2096 134.53 14.9735 138.54 4.16342 143.016L3.43143 143.324" stroke="#1D1D1B" stroke-linecap="round" stroke-linejoin="round"/>
<path d="M18.1836 146.166C18.1052 145.619 17.8955 145.098 17.5722 144.649C17.2489 144.201 16.8217 143.837 16.3271 143.589C15.3352 143.097 14.2509 142.818 13.1445 142.772C10.191 142.505 7.2136 142.742 4.33943 143.472L3.43772 143.727" stroke="#1D1D1B" stroke-linecap="round" stroke-linejoin="round"/>
<path d="M50.222 153.327C50.2611 154.325 50.1647 155.324 49.9355 156.297L15.7972 147.556L3.06691 144.3" stroke="#1D1D1B" stroke-linecap="round" stroke-linejoin="round"/>
<path d="M19.2461 147.302H19.0021L18.0261 147.132L16.0105 146.782" stroke="#1D1D1B" stroke-linecap="round" stroke-linejoin="round"/>
<path d="M3.36479 143.801L3.00407 143.875C2.32512 143.992 1.66737 144.119 0.999034 144.257C5.55011 145.922 10.4088 147.333 15.2676 148.744C16.0842 148.767 16.8926 148.913 17.6651 149.179C28.6238 152.17 39.3809 154.875 50.3713 157.919L74.771 153.252C79.3149 152.495 83.789 151.367 88.1484 149.879" stroke="#1D1D1B" stroke-linecap="round" stroke-linejoin="round"/>
<path d="M50.69 156.488C62.5079 154.366 74.2834 152.022 86.112 149.317C86.1756 149.116 86.2499 148.904 86.3136 148.691L86.3984 148.448" stroke="#1D1D1B" stroke-linecap="round" stroke-linejoin="round"/>
<path d="M88.1589 149.762C88.2359 149.71 88.292 149.632 88.3172 149.543C88.3425 149.454 88.3352 149.358 88.2968 149.274C88.262 149.189 88.2087 149.112 88.1409 149.05C88.073 148.987 87.9922 148.941 87.9043 148.913C87.7316 148.846 87.5484 148.811 87.3633 148.807L86.3767 148.712" stroke="#1D1D1B" stroke-linecap="round" stroke-linejoin="round"/>
<path d="M115.594 93.8191C114.13 95.09 112.266 95.8072 110.328 95.846C108.39 95.8847 106.499 95.2426 104.985 94.0312" stroke="#1D1D1B" stroke-linecap="round" stroke-linejoin="round"/>
<path d="M131.75 52.0357C131.755 52.0566 131.755 52.0784 131.75 52.0993C131.547 53.9163 131.108 55.6992 130.445 57.403C129.548 59.6619 128.372 61.7999 126.945 63.7675C126.849 63.916 126.754 64.0539 126.647 64.1918C124.389 67.1704 121.907 69.9719 119.221 72.5717C118.691 73.0915 118.161 73.6325 117.651 74.1416C116.486 75.4068 115.196 76.5511 113.8 77.5573C112.387 78.5677 110.69 79.1026 108.952 79.0847C105.929 78.9256 103.489 76.5708 101.696 74.131C96.8533 67.5191 94.5116 59.4047 95.087 51.2295" stroke="#1D1D1B" stroke-linecap="round" stroke-linejoin="round"/>
<path d="M95.005 39.318C94.9154 38.5586 94.6464 37.8314 94.2199 37.1965C94.1903 37.1528 94.1546 37.1135 94.1138 37.0799C93.8911 36.8127 93.5884 36.6241 93.2503 36.542C92.9122 36.4598 92.5567 36.4885 92.2361 36.6237C91.4723 37.0374 91.3768 38.0664 91.3662 38.9362C91.2909 41.163 91.4724 43.3912 91.9073 45.5765C92.2426 47.2244 92.9704 48.7672 94.029 50.074C94.3469 50.4616 94.7022 50.8169 95.0898 51.1348" stroke="#1D1D1B" stroke-linecap="round" stroke-linejoin="round"/>
<path d="M134.094 50.5298C133.908 52.7629 132.934 54.8572 131.346 56.4382" stroke="#1D1D1B" stroke-linecap="round" stroke-linejoin="round"/>
<path d="M131.801 52.0456C133.476 50.9976 134.852 49.5351 135.796 47.7994C136.741 46.0637 137.221 44.1137 137.19 42.1382" stroke="#1D1D1B" stroke-linecap="round" stroke-linejoin="round"/>
<path d="M135.748 43.5183C136.108 43.0523 136.438 42.5633 136.735 42.0545C138.292 39.3791 138.947 36.2735 138.602 33.1973" stroke="#1D1D1B" stroke-linecap="round" stroke-linejoin="round"/>
<path d="M137.12 35.796C137.586 34.9576 137.942 34.0628 138.181 33.1336C139.086 29.4071 138.532 25.4753 136.632 22.1442C135.504 20.1647 134.072 18.3749 132.388 16.8405C131.543 16.061 130.65 15.3348 129.715 14.6659C128.66 13.9021 127.566 13.1939 126.437 12.5444" stroke="#1D1D1B" stroke-linecap="round" stroke-linejoin="round"/>
<path d="M126.531 14.581C126.107 13.9789 125.62 13.4242 125.078 12.9262C124.97 12.8251 124.856 12.7295 124.738 12.6398C123.16 11.3397 121.282 10.4537 119.275 10.0622C117.25 9.63422 115.158 9.63422 113.133 10.0622C111.366 10.4521 109.665 11.0952 108.083 11.9715C105.31 13.5435 102.804 15.5449 100.657 17.9011C98.1506 20.4275 96.1487 23.4083 94.7586 26.6841C93.3779 29.9836 93.1719 33.657 94.1751 37.09" stroke="#1D1D1B" stroke-linecap="round" stroke-linejoin="round"/>
<path d="M132.662 16.501C133.905 15.1712 134.657 13.4574 134.794 11.6426C134.931 9.8278 134.445 8.02058 133.416 6.51937C132.564 5.41093 131.438 4.54341 130.149 4.00217C128.86 3.46093 127.452 3.26463 126.064 3.43259C125.237 3.53461 124.434 3.77486 123.688 4.14329" stroke="#1D1D1B" stroke-linecap="round" stroke-linejoin="round"/>
<path d="M126.031 3.20964C124.56 1.86087 122.658 1.07962 120.663 1.00576C118.669 0.931904 116.713 1.57027 115.147 2.80656C114.834 3.04516 114.539 3.30759 114.266 3.59151" stroke="#1D1D1B" stroke-linecap="round" stroke-linejoin="round"/>
<path d="M114.988 2.59399C113.492 2.68406 112.017 2.98768 110.607 3.49563C109.897 3.74801 109.248 4.14522 108.7 4.66201C108.152 5.1788 107.718 5.80388 107.424 6.49755C106.82 8.18414 107.424 10.0298 107.944 11.7376" stroke="#1D1D1B" stroke-linecap="round" stroke-linejoin="round"/>
<path d="M127.008 40.6221C125.845 41.6897 124.559 42.6155 123.178 43.38C122.722 43.6346 122.245 43.8786 121.767 44.0907" stroke="#1D1D1B" stroke-width="0.5" stroke-linecap="round" stroke-linejoin="round"/>
<path d="M123.477 39.2544C122.186 40.5455 120.696 41.6201 119.063 42.4366L118.363 42.7761" stroke="#1D1D1B" stroke-width="0.5" stroke-linecap="round" stroke-linejoin="round"/>
<path d="M118.773 39.1057C118.138 40.4477 117.175 41.6079 115.973 42.4789L115.665 42.7016V42.3091L114.869 32.0093" stroke="#1D1D1B" stroke-width="0.5" stroke-linecap="round" stroke-linejoin="round"/>
<path d="M113.992 42.4362C112.823 40.3398 111.131 38.582 109.08 37.334" stroke="#1D1D1B" stroke-width="0.5" stroke-linecap="round" stroke-linejoin="round"/>
<path d="M106.586 42.9352C105.325 43.6417 103.874 43.9348 102.438 43.7732C101.798 43.6974 101.173 43.5294 100.581 43.2747C99.6981 42.8988 98.9031 42.3424 98.2476 41.6411" stroke="#1D1D1B" stroke-width="0.5" stroke-linecap="round" stroke-linejoin="round"/>
<path d="M106.587 42.935C106.718 42.8326 106.86 42.747 107.012 42.6804C106.877 42.7753 106.735 42.8604 106.587 42.935Z" stroke="#1D1D1B" stroke-width="0.5" stroke-linecap="round" stroke-linejoin="round"/>
<path d="M112.621 42.5636C111.355 42.1137 109.964 42.1613 108.732 42.6969C107.499 43.2325 106.515 44.216 105.98 45.4488C105.752 45.9173 105.643 46.4345 105.662 46.9551C105.692 47.4369 105.866 47.8987 106.16 48.281C105.829 48.0815 105.55 47.8064 105.345 47.4783C105.14 47.1501 105.016 46.7782 104.983 46.3929C104.934 45.6242 105.119 44.8588 105.513 44.1971C105.778 43.7088 106.139 43.2793 106.574 42.9348" stroke="#1D1D1B" stroke-width="0.5" stroke-linecap="round" stroke-linejoin="round"/>
<path d="M100.168 44.1554C99.3811 44.1307 98.602 43.9913 97.8553 43.7417C97.1233 43.4447 95.235 40.0715 95.0016 39.3184" stroke="#1D1D1B" stroke-width="0.5" stroke-linecap="round" stroke-linejoin="round"/>
<path d="M92.6988 38.7122C93.4884 39.4704 94.0866 40.4053 94.4444 41.4398C94.8022 42.4743 94.9093 43.579 94.7569 44.663" stroke="#1D1D1B" stroke-width="0.5" stroke-linecap="round" stroke-linejoin="round"/>
<path d="M94.6337 43.2844C94.2724 43.9791 94.1231 44.7646 94.2042 45.5433C94.2853 46.3221 94.5932 47.0599 95.0898 47.6653" stroke="#1D1D1B" stroke-width="0.5" stroke-linecap="round" stroke-linejoin="round"/>
<path d="M93.1137 39.8582C93.0589 41.3025 93.1477 42.7487 93.3789 44.1754" stroke="#1D1D1B" stroke-width="0.5" stroke-linecap="round" stroke-linejoin="round"/>
<path d="M123.652 44.3142H123.748C124.522 44.3708 125.272 44.6026 125.943 44.9922C126.614 45.3819 127.187 45.919 127.62 46.563C128.486 47.8865 129.266 49.2648 129.954 50.6893C130.336 51.3788 130.919 52.1213 131.715 52.1001" stroke="#1D1D1B" stroke-width="0.5" stroke-linecap="round" stroke-linejoin="round"/>
<path d="M126.828 55.2388C125.311 54.6554 123.646 55.2388 122.15 55.9813C120.654 56.7238 119.137 57.4876 117.524 57.2648" stroke="#1D1D1B" stroke-width="0.5" stroke-linecap="round" stroke-linejoin="round"/>
<path d="M112.125 56.0142C109.897 55.4732 108.115 53.8927 106.365 52.397C104.614 50.9014 102.63 49.48 100.339 49.3633" stroke="#1D1D1B" stroke-width="0.5" stroke-linecap="round" stroke-linejoin="round"/>
<path d="M109.367 56.289C107.341 54.6135 104.872 53.5632 102.259 53.2659" stroke="#1D1D1B" stroke-width="0.5" stroke-linecap="round" stroke-linejoin="round"/>
<path d="M108.685 56.0464C108.727 56.3654 108.675 56.6896 108.537 56.9798" stroke="#1D1D1B" stroke-width="0.5" stroke-linecap="round" stroke-linejoin="round"/>
<path d="M106.863 56.3958C106.714 55.9802 106.41 55.6382 106.015 55.4407C105.62 55.2432 105.164 55.2054 104.742 55.335C105.399 55.7063 106.046 56.067 106.863 56.3958Z" stroke="#1D1D1B" stroke-width="0.5" stroke-linecap="round" stroke-linejoin="round"/>
<path d="M122.242 59.5139C122.19 59.3149 122.068 59.1413 121.899 59.0245C121.729 58.9077 121.524 58.8555 121.319 58.8775C120.91 58.9313 120.522 59.0923 120.195 59.3442C120.84 59.6255 121.56 59.6852 122.242 59.5139Z" stroke="#1D1D1B" stroke-width="0.5" stroke-linecap="round" stroke-linejoin="round"/>
<path d="M126.203 58.9628C125.812 58.6155 125.355 58.3503 124.859 58.1827C124.364 58.0151 123.839 57.9485 123.318 57.9869C121.867 57.9587 120.418 58.1011 119 58.4112" stroke="#1D1D1B" stroke-width="0.5" stroke-linecap="round" stroke-linejoin="round"/>
<path d="M116.285 58.6543C115.999 59.662 115.702 60.6591 115.405 61.6562" stroke="#1D1D1B" stroke-width="0.5" stroke-linecap="round" stroke-linejoin="round"/>
<path d="M116.105 67.3742C116.111 67.6787 116.043 67.98 115.908 68.2531C115.774 68.5262 115.576 68.7632 115.331 68.9441C114.834 69.2941 114.287 69.566 113.708 69.7503C112.8 70.1961 111.772 70.3339 110.78 70.1428C110.089 69.8325 109.454 69.4095 108.902 68.8911C108.28 68.4972 107.73 67.9983 107.279 67.4166C107.174 67.2673 107.1 67.0986 107.061 66.9203C107.021 66.7421 107.018 66.5578 107.051 66.3782C107.083 66.1987 107.151 66.0273 107.25 65.8742C107.35 65.721 107.478 65.5891 107.629 65.4861" stroke="#1D1D1B" stroke-width="0.5" stroke-linecap="round" stroke-linejoin="round"/>
<path d="M103.38 70.7577C104.681 70.3762 106.061 70.3432 107.379 70.6622C108.695 70.9062 109.989 71.3093 111.325 71.4896C112.077 71.5525 112.824 71.6588 113.564 71.8078C114.296 71.9988 115.017 72.3806 115.07 73.155C114.009 72.5504 112.683 73.155 111.463 73.2292C108.663 73.4096 106.255 70.7895 103.38 70.7577Z" stroke="#1D1D1B" stroke-width="0.5" stroke-linecap="round" stroke-linejoin="round"/>
<path d="M111.852 75.0011C110.745 75.4262 109.533 75.4888 108.389 75.1799C107.245 74.8711 106.228 74.2067 105.486 73.2827" stroke="#1D1D1B" stroke-width="0.5" stroke-linecap="round" stroke-linejoin="round"/>
<path d="M64.2068 107.863C64.0277 109.949 64.1528 112.05 64.5781 114.1" stroke="#1D1D1B" stroke-linecap="round" stroke-linejoin="round"/>
<path d="M64.1427 117.559C64.3431 118.704 64.1447 119.883 63.5804 120.9" stroke="#1D1D1B" stroke-linecap="round" stroke-linejoin="round"/>
<path d="M88.9219 130.117C86.4129 129.68 83.8387 129.796 81.3792 130.456" stroke="#1D1D1B" stroke-linecap="round" stroke-linejoin="round"/>
<path d="M142.901 114.312V114.535C143.169 115.963 143.205 117.424 143.007 118.863C142.886 119.507 142.679 120.131 142.392 120.719" stroke="#222120" stroke-linecap="round" stroke-linejoin="round"/>
</svg>
