<svg width="376" height="252" viewBox="0 0 376 252" fill="none" xmlns="http://www.w3.org/2000/svg">
<path d="M165.416 68.9344C164.796 69.975 164.506 71.1787 164.582 72.3876C164.629 72.989 164.817 73.571 165.13 74.0868C165.442 74.6025 165.872 75.0376 166.384 75.357C165.92 74.7557 165.647 74.0295 165.6 73.2717C165.57 72.4531 165.742 71.6396 166.1 70.9029C166.942 68.9642 168.489 67.4174 170.428 66.5751C172.366 65.7328 174.553 65.6578 176.544 66.3653L178.697 66.1652L181.349 65.965V66.5822L181.833 66.2319L185.52 66.7157L186.621 66.1818L190.876 68.7175C191.627 68.3839 192.377 68.0002 193.095 67.5998L193.996 69.1179C195.213 69.2068 196.393 69.5715 197.448 70.1842C198.503 70.797 199.405 71.6417 200.085 72.6545C201.448 74.7359 202.674 76.9036 203.756 79.1438C204.356 80.2282 205.274 81.3959 206.525 81.3625C206.533 81.3296 206.533 81.2954 206.525 81.2625C209.16 79.6144 211.324 77.3143 212.809 74.5846C214.294 71.855 215.049 68.7883 215.001 65.6814L214.233 65.5479C216.76 61.3723 217.872 56.4929 217.403 51.635L216.802 51.4682C218.227 45.6077 217.355 39.4243 214.367 34.1856C212.593 31.0724 210.341 28.2576 207.693 25.8445C206.364 24.6187 204.96 23.4766 203.489 22.4247C201.83 21.2234 200.109 20.1097 198.333 19.0883L196.181 19.8556C196.011 19.6966 195.833 19.5463 195.647 19.4052C193.165 17.3605 190.212 15.9672 187.055 15.3515C183.87 14.6784 180.58 14.6784 177.395 15.3515C174.617 15.9647 171.943 16.9761 169.454 18.3542C165.093 20.8265 161.151 23.9739 157.775 27.6795C153.833 31.6527 150.685 36.3406 148.499 41.4923C146.328 46.6813 146.004 52.4583 147.581 57.8575C147.645 57.9103 147.702 57.9721 147.748 58.041C148.419 59.0393 148.842 60.183 148.983 61.3774C149.35 62.5618 152.32 67.8667 153.471 68.3338C154.645 68.7264 155.87 68.9456 157.108 68.9844L157.758 67.5998C158.689 68.0005 159.672 68.2646 160.678 68.3839C162.937 68.6379 165.219 68.177 167.201 67.066C167.406 66.9049 167.63 66.7704 167.869 66.6656C167.656 66.8148 167.433 66.9486 167.201 67.066C166.486 67.5618 165.879 68.1974 165.416 68.9344Z" fill="#D1D0D1"/>
<path d="M80.7157 177.536L82.0838 175.167V175.017C78.7707 165.535 74.0033 156.626 67.9525 148.609L65.4667 145.74C67.0016 143.021 68.4697 140.268 69.9379 137.499C60.9453 140.552 53.5878 147.308 48.0321 155.015C44.7247 159.423 42.2122 164.374 40.6077 169.645C39.5342 174.022 38.8806 178.491 38.6558 182.991C38.2366 185.85 38.3383 188.76 38.9561 191.582C39.5678 193.53 40.5758 195.329 41.9167 196.868C43.2575 198.407 44.9023 199.651 46.7475 200.524L47.0811 200.374C47.9582 202.499 49.1445 204.484 50.6014 206.263C53.104 209.232 59.1101 209.249 62.9474 208.698C61.8298 208.726 60.7249 208.457 59.7457 207.918C58.7666 207.378 57.9484 206.588 57.375 205.629C56.3407 203.277 57.7421 200.624 59.0434 198.455C61.6127 194.418 64.3155 190.331 68.2195 187.562C70.2196 186.267 72.5349 185.543 74.9162 185.467C77.2974 185.39 79.6544 185.965 81.7334 187.128L81.967 187.545C82.6677 187.929 83.4017 188.279 84.1191 188.63L84.5195 187.779C84.5195 187.112 84.5195 186.444 84.5195 185.777C84.4687 184.306 84.2046 182.851 83.7354 181.456C83.2093 179.841 82.1429 178.457 80.7157 177.536ZM55.106 161.138C55.037 160.872 55.0667 160.591 55.1894 160.345C55.3121 160.1 55.5195 159.907 55.7734 159.803C56.3058 159.6 56.8863 159.56 57.4417 159.686C61.0224 160.132 64.4562 161.381 67.4867 163.339C70.5171 165.298 73.066 167.915 74.943 170.997C66.4176 167.093 61.2456 164.491 56.057 161.888C55.6571 161.766 55.3177 161.498 55.106 161.138Z" fill="#3773FF"/>
<path d="M55.772 159.802C55.5182 159.906 55.3107 160.099 55.188 160.344C55.0653 160.59 55.0357 160.871 55.1046 161.137C55.3001 161.485 55.6139 161.751 55.9889 161.887C61.1776 164.49 66.3496 167.092 74.875 170.996C72.998 167.915 70.4491 165.297 67.4186 163.338C64.3881 161.38 60.9544 160.131 57.3737 159.685C56.8395 159.572 56.2841 159.613 55.772 159.802Z" fill="#3773FF"/>
<path d="M100.286 168.961L100.402 169.061C100.121 172.342 100.317 175.646 100.986 178.87L100.753 179.07C102.705 181.373 104.623 183.658 106.525 185.96L109.862 183.691C112.615 185.927 115.434 188.095 118.321 190.164C121.207 192.233 124.16 194.218 127.163 196.103C129.165 197.354 131.201 198.572 133.253 199.756L133.403 203.677C135.374 203.579 137.35 203.707 139.292 204.06H139.826C140.063 203.66 140.374 203.309 140.744 203.026C141.568 202.467 142.482 202.055 143.447 201.808L155.659 197.871C158.829 196.436 161.949 194.968 165.202 193.867L164.919 193.083C165.102 189.08 166.754 185.326 167.872 181.489C169.934 174.29 170.197 166.694 168.639 159.369L166.07 159.702C163.741 152.952 160.879 146.397 157.511 140.101C156.045 137.218 154.284 134.496 152.256 131.977C150.298 129.558 147.808 127.623 144.981 126.322L147.334 121.734C140.379 123.865 133.152 124.977 125.878 125.037C131.785 119.015 134.788 110.724 136.523 102.483C137.247 98.0437 138.244 93.6535 139.509 89.3374C140.144 87.4522 140.989 85.6447 142.028 83.9491L141.745 83.7822C137.348 84.6506 133.23 86.5805 129.749 89.4041C129.48 88.8767 129.076 88.4303 128.577 88.1107C128.079 87.7912 127.504 87.61 126.913 87.5858C125.731 87.574 124.556 87.7716 123.443 88.1696C121.507 88.7535 119.589 89.3207 117.787 89.7211C112.594 89.6835 107.46 90.8242 102.771 93.0575C93.7955 99.1631 86.855 107.888 81.0824 117.13C76.9949 123.803 73.4747 130.626 69.871 137.482C68.4028 140.251 66.9346 143.004 65.3997 145.723L67.8856 148.592C73.9499 156.634 78.7231 165.571 82.0334 175.083L85.3702 173.882C85.2701 173.615 85.1533 173.365 85.0532 173.098L88.7904 170.796L91.5432 168.411C93.0281 170.079 94.4796 171.747 95.9311 173.415L96.2814 173.115C97.5994 171.747 98.9341 170.329 100.286 168.961Z" fill="#3773FF"/>
<path d="M82.0851 175.167L80.717 177.536C82.0743 178.427 83.1004 179.74 83.6367 181.273C84.1059 182.667 84.37 184.123 84.4208 185.593H84.6878C85.9122 184.546 86.6934 183.074 86.8733 181.473C86.9901 180.829 87.0238 180.173 86.9734 179.521C86.756 177.556 86.2325 175.636 85.4219 173.833L82.0851 175.034V175.167Z" fill="#3773FF"/>
<path d="M85.1044 173.031C85.2045 173.298 85.3213 173.548 85.4214 173.815C86.232 175.619 86.7555 177.538 86.973 179.503C87.0233 180.156 86.9897 180.812 86.8729 181.455H87.3067C88.6622 180.998 89.8986 180.243 90.926 179.248C91.9534 178.252 92.746 177.04 93.2461 175.7C91.7446 174.032 90.2429 172.364 88.7914 170.695L85.1044 173.031Z" fill="#3773FF"/>
<path d="M99.4683 189.564V189.814C101.487 190.031 103.506 190.348 105.508 190.765C103.973 188.596 102.271 186.377 100.503 184.092L100.319 184.242C100.66 186.061 100.36 187.942 99.4683 189.564Z" fill="#3773FF"/>
<path d="M109.842 183.689L106.505 185.958L111.36 191.847L111.26 192.181C112.261 192.448 113.262 192.764 114.263 193.081L118.301 190.095C115.414 188.094 112.595 185.925 109.842 183.689Z" fill="#3773FF"/>
<path d="M118.302 190.096L114.281 193.015C115.132 194.033 115.95 195.05 116.734 196.118L117.084 195.851C119.42 196.668 121.706 197.519 123.891 198.554L127.145 196.035C124.141 194.199 121.194 192.22 118.302 190.096Z" fill="#3773FF"/>
<path d="M123.892 198.621C124.626 198.932 125.343 199.266 126.044 199.622C126.345 201.236 126.529 202.869 126.595 204.51C126.587 204.571 126.587 204.632 126.595 204.693L127.379 204.593C129.327 204.055 131.332 203.747 133.352 203.676L133.201 199.755C131.149 198.571 129.114 197.353 127.112 196.102L123.892 198.621Z" fill="#3773FF"/>
<path d="M150.058 109.922C150.308 106.152 150.575 102.298 150.775 98.9619H150.909C149.148 92.8034 148.493 86.3816 148.973 79.9944C148.364 79.4945 147.805 78.9357 147.305 78.3262L147.055 78.5597C145 79.9889 143.29 81.8582 142.049 84.0314C141.01 85.7 140.159 87.4793 139.514 89.3364C138.249 93.6471 137.252 98.0317 136.527 102.465C134.859 110.706 131.789 118.997 125.883 125.019C133.156 124.999 140.389 123.926 147.355 121.833L145.003 126.421C147.83 127.722 150.319 129.657 152.277 132.076C154.305 134.595 156.066 137.317 157.532 140.2C160.9 146.497 163.762 153.051 166.091 159.802L168.66 159.468C167.8 155.406 166.397 151.478 164.489 147.79L164.289 147.423C157.892 135.63 153.116 123.027 150.091 109.955L150.058 109.922Z" fill="#3773FF"/>
<path d="M164.285 147.391L164.485 147.758C166.394 151.446 167.796 155.374 168.656 159.436C170.215 166.773 169.946 174.381 167.872 181.589C166.754 185.426 165.103 189.18 164.919 193.184L165.203 193.968C165.753 193.767 166.304 193.601 166.871 193.434C167.78 193.157 168.724 193.011 169.674 193V192.716C172.964 191.996 176.164 190.917 179.217 189.497C181.89 183.001 183.086 175.992 182.721 168.978C182.421 161.638 181.236 154.298 181.319 146.974H181.219C178.917 148.973 175.986 150.101 172.938 150.162C169.889 150.223 166.916 149.213 164.536 147.308L164.285 147.391Z" fill="#D1D0D1"/>
<path d="M197.682 4.82537V4.47505C195.369 2.35387 192.376 1.12521 189.24 1.00906C186.104 0.892907 183.028 1.89685 180.565 3.84113L180.314 3.50749C177.962 3.64912 175.641 4.12662 173.424 4.92547C172.308 5.32238 171.287 5.94705 170.425 6.75979C169.563 7.57254 168.88 8.55559 168.419 9.6465C167.468 12.299 168.419 15.2016 169.236 17.8875L169.436 18.2545C171.925 16.8763 174.6 15.8649 177.378 15.2517C180.563 14.5786 183.853 14.5786 187.038 15.2517C190.194 15.8674 193.148 17.2607 195.63 19.3054L195.864 19.0218C196.035 17.8132 196.544 16.6774 197.332 15.7449C198.12 14.8124 199.155 14.1211 200.318 13.7503C200.666 13.6195 201.023 13.5136 201.386 13.4333L201.503 14.0005C202.303 14.2572 203.026 14.7114 203.605 15.3212C204.184 15.931 204.6 16.6768 204.814 17.4897C205.029 18.3025 205.035 19.1563 204.832 19.9723C204.63 20.7882 204.225 21.5399 203.655 22.1581L203.471 22.4083C204.942 23.4602 206.346 24.6023 207.676 25.8281L208.093 25.3777C210.047 23.2863 211.229 20.591 211.445 17.737C211.66 14.8829 210.896 12.0408 209.277 9.67987C207.935 7.9314 206.158 6.5638 204.125 5.71237C202.091 4.86094 199.87 4.55519 197.682 4.82537Z" fill="#D1D0D1"/>
<path d="M169.707 192.715V192.999C170.594 192.988 171.454 193.303 172.126 193.883L173.093 194.016C174.178 194.15 175.262 194.333 176.43 194.55C177.558 192.983 178.525 191.306 179.316 189.545C176.24 190.953 173.017 192.016 169.707 192.715Z" fill="#D1D0D1"/>
<path d="M179.249 189.496C178.458 191.257 177.491 192.933 176.363 194.5C180.388 195.313 184.306 196.584 188.042 198.287L188.843 198.654C194.318 199.409 199.879 199.268 205.31 198.237L205.209 197.67C205.043 195.118 207.595 193.283 209.948 192.282C214.241 190.499 218.846 189.591 223.495 189.613V189.229C223.946 188.303 224.272 187.321 224.463 186.31C224.774 184.047 224.718 181.748 224.296 179.503V179.153L226.748 175.817C232.843 160.247 238.961 144.721 245.1 129.24L247.703 125.253C247.436 123.969 247.103 122.684 246.719 121.433C243.969 112.52 238.493 104.694 231.061 99.0562C223.63 93.4182 214.618 90.2522 205.293 90.0038L204.559 89.7202C203.147 93.2727 201.298 96.6351 199.053 99.7295L199.554 100.08C202.258 111.397 205.765 122.508 210.048 133.327C206.578 133.11 203.541 131.075 200.455 129.474C197.368 127.872 193.664 126.654 190.444 128.139C188.508 129.254 186.889 130.845 185.739 132.76L183.521 133.928C184.879 135.214 186.155 136.585 187.341 138.032C185.011 139.322 182.99 141.103 181.418 143.253C181.335 144.454 181.285 145.639 181.285 146.84C181.201 154.163 182.386 161.503 182.686 168.843C183.093 175.898 181.919 182.954 179.249 189.496Z" fill="#3773FF"/>
<path d="M182.205 132.809C182.672 133.21 183.139 133.644 183.59 134.061L185.809 132.893C186.958 130.977 188.578 129.387 190.514 128.272C193.667 126.787 197.387 128.005 200.524 129.606C203.661 131.208 206.647 133.243 210.117 133.46C205.817 122.642 202.294 111.531 199.573 100.213L199.073 99.8623C198.922 100.096 198.772 100.313 198.605 100.53C195.054 105.214 191.15 109.62 186.927 113.708C187.049 120.379 185.421 126.964 182.205 132.809Z" fill="#3773FF"/>
<path d="M195.833 19.0232L195.599 19.3068C195.785 19.4479 195.963 19.5982 196.133 19.7572L198.286 18.9899C200.061 20.0113 201.782 21.125 203.441 22.3263L203.624 22.0761C204.194 21.4579 204.599 20.7062 204.802 19.8902C205.004 19.0743 204.998 18.2205 204.784 17.4076C204.569 16.5948 204.153 15.849 203.575 15.2392C202.996 14.6294 202.273 14.1752 201.472 13.9185L201.355 13.3513C200.992 13.4316 200.636 13.5375 200.288 13.6683C199.113 14.0452 198.07 14.7491 197.281 15.6975C196.492 16.646 195.99 17.7996 195.833 19.0232Z" fill="#D1D0D1"/>
<path d="M245.607 215.988C246.371 215.855 247.092 215.54 247.709 215.071C248.886 214.158 249.735 212.888 250.128 211.451C250.634 209.255 250.634 206.973 250.128 204.778C249.8 202.131 248.876 199.593 247.425 197.354C245.023 194.018 240.919 192.466 236.948 191.415C233.615 190.542 230.208 189.983 226.771 189.747C225.67 189.747 224.568 189.63 223.434 189.647C218.785 189.626 214.18 190.533 209.887 192.316C207.534 193.317 204.982 195.152 205.149 197.705L205.249 198.272C207.236 197.9 209.202 197.421 211.138 196.837V196.67C215.947 197.175 220.611 198.615 224.869 200.908C229.373 203.593 232.96 208.381 233.111 213.486C233.147 214.194 233.108 214.904 232.994 215.604L232.894 217.656C233.378 217.656 233.861 217.656 234.345 217.656C238.156 217.592 241.941 217.031 245.607 215.988Z" fill="#3773FF"/>
<path d="M223.698 213.135V213.752C226.221 216.096 229.485 217.483 232.924 217.673L232.94 215.621C233.054 214.921 233.093 214.211 233.057 213.502H232.673C229.72 213.452 226.717 213.235 223.698 213.135Z" fill="#3773FF"/>
<path d="M274.888 170.697L274.988 170.597C273.587 164.408 266.646 161.305 263.159 156C260.473 151.896 260.056 146.758 258.872 142.004C256.829 134.151 252.647 127.019 246.793 121.401L246.526 121.485C246.909 122.736 247.243 124.02 247.51 125.305L244.907 129.292C238.801 144.862 232.684 160.387 226.555 175.868L224.103 179.205V179.555C226.129 181.91 228.419 184.026 230.926 185.861L231.16 186.261C236.462 183.191 242.455 181.513 248.581 181.381C254.707 181.25 260.767 182.671 266.196 185.511H268.782C269.144 184.128 269.589 182.769 270.117 181.44C273.553 181.223 276.957 181.007 280.344 180.823V180.506C279.632 176.733 277.718 173.292 274.888 170.697ZM239.502 177.003L237.833 175.952C238.437 170.196 240.299 164.643 243.289 159.687C244.064 158.172 245.213 156.881 246.626 155.933C247.349 155.484 248.194 155.271 249.043 155.325C249.892 155.379 250.704 155.697 251.364 156.234C251.913 156.87 252.26 157.656 252.361 158.491C252.462 159.326 252.313 160.172 251.931 160.921C251.141 162.404 250.096 163.737 248.845 164.858C245.29 168.547 242.156 172.621 239.502 177.003Z" fill="#3773FF"/>
<path d="M226.746 189.346V189.763C230.183 189.999 233.59 190.558 236.923 191.432C240.894 192.483 244.998 194.051 247.4 197.37C248.851 199.609 249.775 202.147 250.103 204.794C250.609 206.989 250.609 209.271 250.103 211.467C249.71 212.904 248.861 214.174 247.684 215.087V215.17C252.527 214.745 257.213 213.24 261.398 210.766H261.915C261.828 209.838 261.931 208.901 262.215 208.014C263.107 205.748 264.601 203.769 266.537 202.292C267.762 202.249 268.988 202.294 270.207 202.425C267.654 197.166 267.178 191.138 268.872 185.543H266.286C260.857 182.703 254.798 181.282 248.672 181.414C242.546 181.545 236.553 183.224 231.25 186.294C229.67 187.19 228.164 188.211 226.746 189.346Z" fill="#3773FF"/>
<path d="M237.829 175.949L239.497 177C242.167 172.615 245.318 168.542 248.89 164.855C250.142 163.734 251.187 162.401 251.977 160.918C252.358 160.169 252.508 159.323 252.407 158.488C252.306 157.653 251.959 156.868 251.41 156.231C250.749 155.694 249.938 155.376 249.089 155.322C248.239 155.268 247.394 155.481 246.671 155.93C245.258 156.878 244.11 158.169 243.335 159.684C240.327 164.636 238.448 170.189 237.829 175.949Z" fill="#3773FF"/>
<path d="M207.512 13.268C205.462 12.9971 203.381 13.0704 201.355 13.4849C200.992 13.5652 200.636 13.6711 200.288 13.8019C199.124 14.1726 198.089 14.864 197.301 15.7964C196.513 16.7289 196.004 17.8647 195.833 19.0734" stroke="#1D1D1B" stroke-width="0.5" stroke-linecap="round" stroke-linejoin="round"/>
<path d="M201.472 13.9993C202.273 14.2559 202.996 14.7101 203.575 15.3199C204.153 15.9297 204.569 16.6755 204.784 17.4884C204.998 18.3013 205.004 19.1551 204.802 19.971C204.599 20.7869 204.194 21.5387 203.624 22.1568" stroke="#1D1D1B" stroke-width="0.5" stroke-linecap="round" stroke-linejoin="round"/>
<path d="M207.215 15.0854C207.651 15.7438 207.939 16.4888 208.06 17.2691C208.181 18.0495 208.132 18.8468 207.916 19.6063C207.678 20.3499 207.282 21.0332 206.755 21.6091C206.228 22.1851 205.582 22.6401 204.862 22.9427" stroke="#1D1D1B" stroke-width="0.5" stroke-linecap="round" stroke-linejoin="round"/>
<path d="M191.344 4.70752C190.275 4.9873 189.285 5.51144 188.453 6.23868C187.62 6.96592 186.968 7.8764 186.548 8.89843C186.127 9.92047 185.95 11.0261 186.029 12.1284C186.109 13.2307 186.443 14.2995 187.006 15.2506V15.3674" stroke="#1D1D1B" stroke-width="0.5" stroke-linecap="round" stroke-linejoin="round"/>
<path d="M184.305 3.47266C183.56 4.18702 182.986 5.06113 182.628 6.02914C182.27 6.99716 182.135 8.03385 182.236 9.06116" stroke="#1D1D1B" stroke-width="0.5" stroke-linecap="round" stroke-linejoin="round"/>
<path d="M178.918 7.37695C178.426 8.55018 178.269 9.83674 178.463 11.094C178.657 12.3514 179.196 13.5303 180.02 14.5002" stroke="#1D1D1B" stroke-width="0.5" stroke-linecap="round" stroke-linejoin="round"/>
<path d="M173.979 15.803C173.208 15.4042 172.565 14.798 172.12 14.0528C171.676 13.3077 171.449 12.4532 171.465 11.5858C171.48 10.7185 171.738 9.87272 172.209 9.14403C172.679 8.41535 173.345 7.83273 174.129 7.46191" stroke="#1D1D1B" stroke-width="0.5" stroke-linecap="round" stroke-linejoin="round"/>
<path d="M374.152 108.737C364.793 107.419 364.509 107.336 355.166 105.918C355.158 105.885 355.158 105.851 355.166 105.818" stroke="#1D1D1B" stroke-linecap="round" stroke-linejoin="round"/>
<path d="M354.895 105.684C329.385 110.154 304.042 115.459 279.217 121.865C278.967 122.165 278.83 122.543 278.83 122.933C278.83 123.323 278.967 123.701 279.217 124.001C279.617 124.55 280.215 124.921 280.885 125.035H281.152C282.056 125.046 282.948 125.245 283.771 125.619C284.727 126.349 285.525 127.265 286.119 128.311C286.712 129.357 287.089 130.513 287.225 131.708C287.431 134.544 286.514 137.348 284.672 139.515C283.888 139.634 283.12 139.847 282.387 140.149C282.228 140.22 282.082 140.316 281.953 140.432C281.702 140.677 281.519 140.981 281.419 141.317C281.168 142.191 281.239 143.126 281.619 143.952" stroke="#1D1D1B" stroke-linecap="round" stroke-linejoin="round"/>
<path d="M276.703 145.355C302.546 140.35 328.423 135.996 354.533 132.526C364.46 132.409 360.723 131.825 370.633 132.526" stroke="#1D1D1B" stroke-linecap="round" stroke-linejoin="round"/>
<path d="M370.633 134.38C355.4 134.246 348.143 134.697 332.944 135.648" stroke="#1D1D1B" stroke-linecap="round" stroke-linejoin="round"/>
<path d="M276.951 163.205L277.218 163.589C282.557 163.138 287.929 162.704 293.301 162.321C310.368 161.053 327.569 160.085 344.654 159.418C348.758 159.251 352.845 159.118 356.916 158.984H369.746" stroke="#1D1D1B" stroke-linecap="round" stroke-linejoin="round"/>
<path d="M277 163.405C277 163.405 277 163.405 277 163.306" stroke="#1D1D1B" stroke-linecap="round" stroke-linejoin="round"/>
<path d="M276.7 145.623C276.723 146.403 276.934 147.167 277.314 147.849C277.695 148.532 278.234 149.113 278.886 149.543C280.654 152.045 280.454 156.883 278.502 159.919C278.381 159.894 278.256 159.894 278.135 159.919C277.067 160.269 276.884 162.004 276.95 163.105" stroke="#1D1D1B" stroke-linecap="round" stroke-linejoin="round"/>
<path d="M293.355 162.921C290.019 167.208 290.019 175.132 292.621 179.937" stroke="#1D1D1B" stroke-linecap="round" stroke-linejoin="round"/>
<path d="M322.746 163.739C321.098 165.232 320.039 167.265 319.76 169.472C319.482 171.678 320.002 173.911 321.228 175.767" stroke="#1D1D1B" stroke-linecap="round" stroke-linejoin="round"/>
<path d="M371.75 178.869C358.486 178.702 345.69 178.719 333.01 178.869C319.563 179.086 306.233 179.52 292.635 180.17C288.631 180.359 284.594 180.571 280.523 180.804C277.186 180.988 273.733 181.204 270.296 181.421" stroke="#1D1D1B" stroke-linecap="round" stroke-linejoin="round"/>
<path d="M344.935 182.806C344.864 182.923 344.803 183.046 344.752 183.173C342.149 188.177 342.583 197.82 345.152 202.707" stroke="#1D1D1B" stroke-linecap="round" stroke-linejoin="round"/>
<path d="M270.295 181.471C269.768 182.8 269.322 184.159 268.96 185.542C267.266 191.137 267.742 197.165 270.295 202.424C295.488 204.626 321.848 205.844 347.141 205.91" stroke="#1D1D1B" stroke-linecap="round" stroke-linejoin="round"/>
<path d="M373.371 201.324C372.27 201.474 371.186 201.658 370.034 201.825C364.612 202.726 359.307 203.86 353.934 204.827C351.782 205.211 349.613 205.578 347.428 205.895" stroke="#1D1D1B" stroke-linecap="round" stroke-linejoin="round"/>
<path d="M271.31 202.526H270.226C269.007 202.394 267.78 202.349 266.555 202.392C264.62 203.87 263.125 205.848 262.234 208.114C261.895 209.141 261.81 210.234 261.988 211.301C262.165 212.367 262.599 213.375 263.252 214.236C263.583 214.689 263.957 215.108 264.37 215.488L349.457 220.125" stroke="#1D1D1B" stroke-linecap="round" stroke-linejoin="round"/>
<path d="M349.259 208.098L349.175 208.215C348.763 208.843 348.491 209.553 348.379 210.296C348.266 211.039 348.316 211.797 348.525 212.519C348.806 214.29 349.316 216.017 350.043 217.657" stroke="#1D1D1B" stroke-linecap="round" stroke-linejoin="round"/>
<path d="M374.152 214.886C368.013 216.254 361.823 217.439 355.65 218.723C353.598 219.14 351.546 219.591 349.494 220.041" stroke="#1D1D1B" stroke-linecap="round" stroke-linejoin="round"/>
<path d="M351.395 223.594C348.058 230.434 348.441 240.059 351.395 247.099" stroke="#1D1D1B" stroke-linecap="round" stroke-linejoin="round"/>
<path d="M345.267 183.424C346.869 189.574 347.069 196.005 345.851 202.242" stroke="#1D1D1B" stroke-width="0.5" stroke-linecap="round" stroke-linejoin="round"/>
<path d="M349.425 208.447C350.651 211.253 351.156 214.321 350.893 217.372" stroke="#1D1D1B" stroke-width="0.5" stroke-linecap="round" stroke-linejoin="round"/>
<path d="M351.662 223.459V223.576C352.096 231.139 352.235 238.701 352.079 246.264" stroke="#1D1D1B" stroke-width="0.5" stroke-linecap="round" stroke-linejoin="round"/>
<path d="M262.885 214.17C258.775 214.825 254.736 215.87 250.823 217.289C250.02 220.873 249.766 224.557 250.072 228.216C250.072 229.1 250.239 230.018 250.373 230.919C250.887 234.225 251.8 237.457 253.092 240.544C285.692 243.414 318.259 246.934 350.742 250.904C358.75 247.861 366.275 243.675 373.082 238.476" stroke="#1D1D1B" stroke-linecap="round" stroke-linejoin="round"/>
<path d="M205.294 90.0059C214.584 90.2955 223.552 93.4804 230.943 99.1154C238.335 104.75 243.781 112.554 246.52 121.435C246.903 122.686 247.237 123.971 247.504 125.255" stroke="#1D1D1B" stroke-linecap="round" stroke-linejoin="round"/>
<path d="M246.785 121.401C252.64 127.019 256.821 134.151 258.864 142.004C260.048 146.758 260.532 151.896 263.152 156C266.639 161.305 273.579 164.341 274.98 170.597" stroke="#1D1D1B" stroke-linecap="round" stroke-linejoin="round"/>
<path d="M271.529 168.411C272.732 169.045 273.852 169.824 274.866 170.73C277.764 173.31 279.738 176.766 280.488 180.572" stroke="#1D1D1B" stroke-linecap="round" stroke-linejoin="round"/>
<path d="M244.902 129.291C238.796 144.861 232.679 160.386 226.55 175.867" stroke="#1D1D1B" stroke-linecap="round" stroke-linejoin="round"/>
<path d="M234.809 111.792C230.638 121.802 230.254 132.762 229.687 143.488C229.119 154.215 228.202 165.359 223.18 174.884" stroke="#1D1D1B" stroke-linecap="round" stroke-linejoin="round"/>
<path d="M219.59 111.157C218.85 130.271 219.262 149.412 220.824 168.476" stroke="#1D1D1B" stroke-linecap="round" stroke-linejoin="round"/>
<path d="M212.434 95.6587C215.299 113.617 216.86 131.759 217.105 149.942" stroke="#1D1D1B" stroke-linecap="round" stroke-linejoin="round"/>
<path d="M236.745 182.024C237.595 180.356 238.513 178.688 239.497 177.019C242.167 172.635 245.318 168.561 248.89 164.875C250.142 163.754 251.187 162.421 251.977 160.938C252.358 160.188 252.508 159.342 252.407 158.508C252.306 157.673 251.959 156.887 251.41 156.25C250.749 155.713 249.938 155.396 249.089 155.342C248.239 155.288 247.394 155.5 246.671 155.95C245.258 156.897 244.11 158.189 243.335 159.703C240.345 164.659 238.482 170.212 237.879 175.968" stroke="#1D1D1B" stroke-linecap="round" stroke-linejoin="round"/>
<path d="M265.855 171.929C262.07 171.561 258.25 172.021 254.66 173.277C251.071 174.533 247.797 176.555 245.067 179.203" stroke="#1D1D1B" stroke-linecap="round" stroke-linejoin="round"/>
<path d="M267.543 179.469C261.197 178.011 254.552 178.595 248.557 181.138" stroke="#1D1D1B" stroke-linecap="round" stroke-linejoin="round"/>
<path d="M266.309 185.509C260.879 182.669 254.82 181.248 248.694 181.379C242.568 181.511 236.575 183.189 231.273 186.259C229.686 187.166 228.174 188.198 226.751 189.346" stroke="#1D1D1B" stroke-linecap="round" stroke-linejoin="round"/>
<path d="M223.999 179.32C224.062 179.405 224.135 179.484 224.215 179.553C226.242 181.908 228.532 184.024 231.039 185.859" stroke="#1D1D1B" stroke-linecap="round" stroke-linejoin="round"/>
<path d="M205.125 197.72C204.958 195.168 207.511 193.333 209.863 192.332C214.156 190.549 218.762 189.641 223.411 189.662C224.528 189.662 225.629 189.662 226.747 189.763C230.184 189.998 233.592 190.557 236.924 191.431C240.895 192.482 244.999 194.05 247.402 197.37C248.852 199.608 249.776 202.146 250.105 204.793C250.611 206.989 250.611 209.271 250.105 211.466C249.712 212.903 248.863 214.173 247.685 215.086C247.068 215.555 246.347 215.87 245.583 216.004" stroke="#1D1D1B" stroke-linecap="round" stroke-linejoin="round"/>
<path d="M207.83 196.188C208.931 196.338 210.049 196.504 211.167 196.688C215.976 197.193 220.64 198.632 224.897 200.925C229.402 203.611 232.989 208.399 233.139 213.504C233.176 214.212 233.136 214.922 233.022 215.622" stroke="#1D1D1B" stroke-linecap="round" stroke-linejoin="round"/>
<path d="M261.488 210.814C257.303 213.288 252.617 214.793 247.774 215.218" stroke="#1D1D1B" stroke-linecap="round" stroke-linejoin="round"/>
<path d="M245.867 215.92H245.6C241.94 216.962 238.16 217.522 234.355 217.588C233.872 217.588 233.388 217.588 232.904 217.588C229.465 217.399 226.201 216.012 223.678 213.668" stroke="#1D1D1B" stroke-linecap="round" stroke-linejoin="round"/>
<path d="M232.738 213.451C229.719 213.301 226.715 213.167 223.696 213.067C221.076 212.967 218.474 212.901 215.871 212.867C210.065 212.734 204.276 212.7 198.47 212.767C193.264 212.767 187.692 212.851 183.137 210.515C182.511 210.198 181.909 209.836 181.335 209.431" stroke="#1D1D1B" stroke-linecap="round" stroke-linejoin="round"/>
<path d="M211.117 196.853C209.181 197.437 207.215 197.916 205.228 198.288C199.798 199.319 194.236 199.459 188.761 198.705L187.96 198.338C184.224 196.634 180.306 195.364 176.281 194.551C175.164 194.334 174.079 194.151 172.945 194.017L171.977 193.884C171.305 193.304 170.445 192.99 169.558 193C168.608 193.011 167.664 193.157 166.755 193.433C166.188 193.6 165.637 193.767 165.087 193.967C161.75 195.068 158.713 196.536 155.543 197.971L155.176 198.138C151.95 201.202 148.473 203.992 144.782 206.479L142.697 207.863C142.855 208.583 143.246 209.231 143.811 209.704C144.375 210.178 145.08 210.452 145.817 210.483C147.298 210.491 148.755 210.106 150.038 209.365C153.989 207.273 157.756 204.851 161.299 202.125" stroke="#1D1D1B" stroke-linecap="round" stroke-linejoin="round"/>
<path d="M172.731 196.57C171.609 196.471 170.479 196.619 169.421 197.006C168.362 197.392 167.402 198.007 166.608 198.806L161.803 202.576C157.732 205.796 153.678 209.032 149.691 212.452C150.09 212.991 150.614 213.425 151.219 213.716C151.824 214.007 152.491 214.145 153.161 214.12C154.503 214.045 155.816 213.693 157.015 213.086C157.816 212.719 158.683 212.335 159.384 211.901C161.25 210.906 163.05 209.792 164.773 208.565C167.242 206.897 169.628 204.861 172.047 202.91C173.439 202.429 174.885 202.121 176.352 201.992" stroke="#1D1D1B" stroke-linecap="round" stroke-linejoin="round"/>
<path d="M186.758 200.991C184.778 199.906 182.473 199.574 180.268 200.057" stroke="#1D1D1B" stroke-linecap="round" stroke-linejoin="round"/>
<path d="M178.348 200.874C177.864 201.391 177.38 201.908 176.863 202.425C174.527 204.883 172.08 207.229 169.522 209.465C168.037 210.799 166.502 212.084 164.951 213.335" stroke="#1D1D1B" stroke-linecap="round" stroke-linejoin="round"/>
<path d="M185.875 206.78C184.373 206.78 182.855 206.78 181.504 206.78C180.219 207.798 178.901 208.832 177.55 209.816C174.68 212.051 171.38 213.669 167.856 214.571C167.245 214.737 166.6 214.737 165.988 214.571C165.698 214.491 165.44 214.326 165.246 214.097C165.053 213.867 164.933 213.585 164.903 213.286V213.203" stroke="#1D1D1B" stroke-linecap="round" stroke-linejoin="round"/>
<path d="M182.984 210.882C181.169 211.116 179.325 210.814 177.679 210.015" stroke="#1D1D1B" stroke-linecap="round" stroke-linejoin="round"/>
<path d="M169.355 209.281C167.881 209.364 166.403 209.229 164.968 208.88" stroke="#1D1D1B" stroke-linecap="round" stroke-linejoin="round"/>
<path d="M144.65 206.095C142.911 206.559 141.063 206.382 139.445 205.595C139.404 205.068 139.533 204.542 139.812 204.094C140.048 203.693 140.36 203.342 140.729 203.059C141.553 202.5 142.468 202.088 143.432 201.842L155.645 197.905" stroke="#1D1D1B" stroke-linecap="round" stroke-linejoin="round"/>
<path d="M199.568 100.214C202.273 111.531 205.78 122.642 210.062 133.461C206.592 133.244 203.556 131.209 200.469 129.608C197.383 128.006 193.679 126.788 190.459 128.273C188.523 129.388 186.904 130.979 185.754 132.894" stroke="#1D1D1B" stroke-linecap="round" stroke-linejoin="round"/>
<path d="M190.829 110.823C191.062 115.472 191.285 120.126 191.496 124.786" stroke="#1D1D1B" stroke-linecap="round" stroke-linejoin="round"/>
<path d="M186.919 113.742C187.035 120.401 185.408 126.974 182.197 132.809C182.664 133.21 183.131 133.643 183.582 134.06C184.94 135.347 186.216 136.717 187.402 138.164C185.073 139.454 183.052 141.236 181.48 143.386C181.396 144.587 181.346 145.771 181.346 146.972C181.263 154.296 182.447 161.636 182.748 168.976C183.113 175.991 181.917 182.999 179.244 189.495C178.452 191.256 177.485 192.933 176.358 194.5" stroke="#1D1D1B" stroke-linecap="round" stroke-linejoin="round"/>
<path d="M180.77 184.793C177.232 186.505 173.606 188.031 169.908 189.364" stroke="#1D1D1B" stroke-linecap="round" stroke-linejoin="round"/>
<path d="M179.449 189.397L179.249 189.497C176.196 190.917 172.995 191.997 169.706 192.717" stroke="#1D1D1B" stroke-linecap="round" stroke-linejoin="round"/>
<path d="M164.934 193.184C165.118 189.18 166.769 185.426 167.887 181.589C169.95 174.39 170.213 166.794 168.655 159.469C167.795 155.407 166.392 151.479 164.484 147.792L164.284 147.425C157.886 135.631 153.11 123.028 150.086 109.957" stroke="#1D1D1B" stroke-linecap="round" stroke-linejoin="round"/>
<path d="M149.518 117.397C149.668 115.078 149.835 112.526 150.001 109.924C150.252 106.153 150.519 102.3 150.719 98.9634" stroke="#1D1D1B" stroke-linecap="round" stroke-linejoin="round"/>
<path d="M166.086 159.803C163.758 153.052 160.896 146.498 157.527 140.201C156.061 137.319 154.3 134.596 152.272 132.077C150.314 129.658 147.825 127.723 144.998 126.422L147.35 121.834C140.385 123.933 133.152 125.012 125.878 125.037C131.784 119.015 134.787 110.724 136.522 102.483C137.246 98.044 138.243 93.6538 139.509 89.3376C140.143 87.4525 140.988 85.6449 142.028 83.9493C143.269 81.776 144.979 79.9067 147.033 78.4775" stroke="#1D1D1B" stroke-linecap="round" stroke-linejoin="round"/>
<path d="M141.742 83.7822C137.345 84.6506 133.227 86.5805 129.747 89.4041C129.478 88.8767 129.073 88.4303 128.575 88.1107C128.076 87.7912 127.502 87.61 126.91 87.5858C125.728 87.574 124.553 87.7716 123.44 88.1696C121.505 88.7535 119.586 89.3207 117.784 89.7211C112.591 89.6835 107.457 90.8242 102.769 93.0575C93.7929 99.1631 86.8524 107.888 81.0798 117.13C76.9923 123.803 73.4721 130.626 69.8684 137.482C68.4002 140.251 66.932 143.004 65.3971 145.723" stroke="#1D1D1B" stroke-linecap="round" stroke-linejoin="round"/>
<path d="M108.091 127.255C109.266 140.377 107.633 153.598 103.303 166.041" stroke="#1D1D1B" stroke-linecap="round" stroke-linejoin="round"/>
<path d="M104.477 105.787C100.686 125.004 99.2188 144.607 100.105 164.174" stroke="#1D1D1B" stroke-linecap="round" stroke-linejoin="round"/>
<path d="M83.4702 128.589C82.2215 142.251 82.3166 156.001 83.7539 169.644" stroke="#1D1D1B" stroke-linecap="round" stroke-linejoin="round"/>
<path d="M67.9001 148.609C73.957 156.646 78.7245 165.578 82.0312 175.083V175.234" stroke="#1D1D1B" stroke-linecap="round" stroke-linejoin="round"/>
<path d="M74.875 170.995C72.998 167.914 70.4491 165.296 67.4186 163.338C64.3881 161.379 60.9544 160.131 57.3737 159.685C56.8182 159.558 56.2377 159.599 55.7053 159.802C55.4515 159.906 55.244 160.098 55.1213 160.344C54.9986 160.589 54.969 160.871 55.0379 161.136C55.2334 161.484 55.5472 161.751 55.9222 161.887C61.0942 164.489 66.3496 167.092 74.875 170.995Z" stroke="#1D1D1B" stroke-linecap="round" stroke-linejoin="round"/>
<path d="M85.1049 173.031C85.205 173.298 85.3218 173.548 85.4219 173.815C86.2325 175.619 86.756 177.538 86.9734 179.503C87.0238 180.156 86.9901 180.812 86.8733 181.455C86.6934 183.056 85.9122 184.529 84.6878 185.576" stroke="#1D1D1B" stroke-linecap="round" stroke-linejoin="round"/>
<path d="M84.4531 187.596C84.4531 186.929 84.4531 186.261 84.4531 185.594C84.4023 184.123 84.1382 182.668 83.669 181.273C83.1328 179.741 82.1067 178.428 80.7494 177.537C80.3013 177.259 79.811 177.056 79.2978 176.936" stroke="#1D1D1B" stroke-linecap="round" stroke-linejoin="round"/>
<path d="M81.6797 186.944C79.6007 185.78 77.2437 185.206 74.8624 185.282C72.4811 185.359 70.1658 186.083 68.1657 187.378C64.2617 190.147 61.4922 194.234 58.9896 198.271C57.6049 200.44 56.2035 203.092 57.3213 205.445C57.8915 206.372 58.6921 207.136 59.6452 207.662C60.5983 208.188 61.6715 208.459 62.7602 208.447C62.9601 208.464 63.1609 208.464 63.3608 208.447" stroke="#1D1D1B" stroke-linecap="round" stroke-linejoin="round"/>
<path d="M73.9023 175.501C71.014 174.382 67.9219 173.886 64.8284 174.044C61.7349 174.202 58.7096 175.012 55.9504 176.419C53.1913 177.827 50.7605 179.801 48.8171 182.213C46.8736 184.625 45.4612 187.42 44.6723 190.415" stroke="#1D1D1B" stroke-linecap="round" stroke-linejoin="round"/>
<path d="M62.7617 208.565C58.9244 209.115 52.9182 209.099 50.4157 206.129C48.9587 204.35 47.7725 202.366 46.8954 200.241C46.2281 198.789 45.6608 197.305 45.1102 195.82" stroke="#1D1D1B" stroke-linecap="round" stroke-linejoin="round"/>
<path d="M46.6143 200.39C44.7691 199.518 43.1243 198.273 41.7834 196.734C40.4426 195.195 39.4347 193.396 38.8229 191.449C38.2052 188.626 38.1034 185.716 38.5226 182.857C38.7474 178.357 39.4011 173.888 40.4746 169.512C42.0791 164.24 44.5916 159.289 47.8989 154.881C53.4547 147.174 60.8121 140.418 69.8047 137.365" stroke="#1D1D1B" stroke-linecap="round" stroke-linejoin="round"/>
<path d="M62.1289 170.896C59.0289 169.774 55.6629 169.611 52.469 170.429C49.3074 171.235 46.2337 172.352 43.2929 173.765" stroke="#1D1D1B" stroke-linecap="round" stroke-linejoin="round"/>
<path d="M111.379 191.849L106.524 185.96C104.622 183.658 102.703 181.372 100.751 179.07C99.1719 177.168 97.5647 175.272 95.9297 173.382C94.4782 171.713 93.0267 170.045 91.5418 168.377L88.8391 170.746C90.2906 172.414 91.7921 174.082 93.2936 175.75C95.7128 178.47 98.1653 181.339 100.468 184.208C102.253 186.427 103.955 188.646 105.473 190.881L105.64 191.115" stroke="#1D1D1B" stroke-linecap="round" stroke-linejoin="round"/>
<path d="M99.468 189.813C101.487 190.03 103.505 190.347 105.508 190.764C107.51 191.181 109.361 191.615 111.28 192.182C112.281 192.449 113.282 192.766 114.283 193.083C115.134 194.1 115.952 195.118 116.736 196.186C119.823 200.341 122.515 204.775 124.777 209.431C124.518 209.771 124.192 210.055 123.819 210.264C123.446 210.474 123.034 210.605 122.608 210.649C122.564 210.657 122.519 210.657 122.475 210.649C121.63 210.673 120.807 210.375 120.173 209.815C121.285 210.979 122.311 212.222 123.242 213.535C123.04 214.305 122.568 214.977 121.914 215.429C121.259 215.882 120.464 216.086 119.672 216.004C118.857 215.955 118.059 215.751 117.32 215.403C116.616 215.087 115.93 214.731 115.268 214.336C109.321 210.966 103.195 207.926 96.9154 205.227" stroke="#1D1D1B" stroke-linecap="round" stroke-linejoin="round"/>
<path d="M117.82 207.18C115.382 205.331 113.185 203.185 111.28 200.791C108.002 200.296 104.775 199.509 101.637 198.438C107.093 201.508 112.548 204.628 117.82 207.18Z" stroke="#1D1D1B" stroke-linecap="round" stroke-linejoin="round"/>
<path d="M117.087 195.919C119.422 196.737 121.708 197.588 123.894 198.622C124.628 198.933 125.345 199.267 126.046 199.623C126.347 201.237 126.531 202.87 126.596 204.511C126.589 204.572 126.589 204.633 126.596 204.694C126.76 206.338 127.391 207.901 128.415 209.198C128.454 209.515 128.408 209.836 128.282 210.129C128.156 210.423 127.954 210.677 127.698 210.867C127.18 211.234 126.463 211.3 125.278 210.316C127.447 213.052 129.633 215.804 131.602 218.657C128.465 216.288 125.429 213.786 122.476 211.184" stroke="#1D1D1B" stroke-linecap="round" stroke-linejoin="round"/>
<path d="M117.039 216.022C116.791 216.663 116.375 217.226 115.835 217.651C115.295 218.077 114.651 218.349 113.969 218.441C112.6 218.602 111.212 218.442 109.915 217.973C109.048 217.707 108.197 217.406 107.362 217.073C103.725 215.638 100.288 213.736 96.6848 212.151" stroke="#1D1D1B" stroke-linecap="round" stroke-linejoin="round"/>
<path d="M107.243 217.372C107.278 217.691 107.227 218.015 107.095 218.308C106.963 218.601 106.755 218.854 106.492 219.04C105.959 219.411 105.349 219.656 104.707 219.757C103.676 219.978 102.625 220.101 101.571 220.124C98.5454 220.231 95.5395 219.601 92.8116 218.289C91.4453 217.642 90.1669 216.824 89.0076 215.854" stroke="#1D1D1B" stroke-linecap="round" stroke-linejoin="round"/>
<path d="M99.0664 189.879C98.3361 190.018 97.6422 190.307 97.028 190.726C96.4138 191.145 95.8924 191.685 95.496 192.315C95.0474 192.944 94.7193 193.651 94.5284 194.4C93.7609 195.384 92.4263 195.718 91.5754 196.602C90.8579 197.42 90.4869 198.485 90.541 199.571C90.541 200.639 90.8246 201.69 90.8246 202.741C90.0178 203.197 89.3852 203.908 89.0259 204.762C88.6666 205.617 88.601 206.566 88.8392 207.462C89.3535 208.432 89.6817 209.49 89.8069 210.581C89.6854 211.163 89.4832 211.724 89.2062 212.25C88.9888 212.657 88.8048 213.081 88.6557 213.517L88.5556 213.951C88.501 214.241 88.5069 214.538 88.5729 214.825C88.639 215.113 88.7637 215.383 88.9393 215.619" stroke="#1D1D1B" stroke-linecap="round" stroke-linejoin="round"/>
<path d="M81.916 187.36C82.6168 187.744 83.3509 188.094 84.0683 188.445C87.6101 190.109 91.3413 191.336 95.1797 192.098" stroke="#1D1D1B" stroke-linecap="round" stroke-linejoin="round"/>
<path d="M69.4375 209.481C67.4188 209.13 65.4 208.797 63.3646 208.496L62.3302 208.346" stroke="#1D1D1B" stroke-linecap="round" stroke-linejoin="round"/>
<path d="M87.8867 213.268C81.8138 211.8 75.6964 210.538 69.5345 209.481" stroke="#1D1D1B" stroke-linecap="round" stroke-linejoin="round"/>
<path d="M373.082 111.441C363.772 110.173 364.323 110.257 355.547 108.856L354.83 108.739C330.772 113.577 304.779 119.382 280.854 124.87" stroke="#1D1D1B" stroke-linecap="round" stroke-linejoin="round"/>
<path d="M355.516 109.289C358.847 115.137 359.944 121.995 358.603 128.59" stroke="#1D1D1B" stroke-width="0.5" stroke-linecap="round" stroke-linejoin="round"/>
<path d="M371.75 129.024C363.108 128.29 366.745 128.773 358.603 128.923H358.37C332.843 132.126 307.428 136.019 282.125 140.601" stroke="#1D1D1B" stroke-linecap="round" stroke-linejoin="round"/>
<path d="M369.746 137.448C335.661 137.832 311.787 141.585 278.436 148.625" stroke="#1D1D1B" stroke-linecap="round" stroke-linejoin="round"/>
<path d="M369.746 155.916C334.71 156.216 312.938 156.316 277.985 160.003" stroke="#1D1D1B" stroke-linecap="round" stroke-linejoin="round"/>
<path d="M369.746 162.122C359.119 161.855 352.028 161.855 344.72 162.122C338.514 162.389 332.124 162.873 323.248 163.64H322.698" stroke="#1D1D1B" stroke-linecap="round" stroke-linejoin="round"/>
<path d="M371.75 175.298C356.568 175.298 346.157 176.016 332.993 176.183C329.573 176.183 325.953 176.183 322.016 176.183H321.515" stroke="#1D1D1B" stroke-linecap="round" stroke-linejoin="round"/>
<path d="M323.313 163.839C323.879 167.938 323.432 172.113 322.011 176" stroke="#1D1D1B" stroke-width="0.5" stroke-linecap="round" stroke-linejoin="round"/>
<path d="M363.469 182.056L371.711 181.756C371.561 181.873 370.893 181.873 369.542 181.873C367.19 181.973 365.221 182.056 363.469 182.056ZM363.469 182.056L345.367 182.757C351.385 182.212 357.427 181.978 363.469 182.056Z" stroke="#1D1D1B" stroke-linecap="round" stroke-linejoin="round"/>
<path d="M373.703 198.255L369.632 198.923C362.492 200.074 355.451 201.208 348.294 202.443L345.925 202.709L345.174 202.81" stroke="#1D1D1B" stroke-linecap="round" stroke-linejoin="round"/>
<path d="M349.26 208.097H349.377L354.382 207.179L356.484 206.812" stroke="#1D1D1B" stroke-linecap="round" stroke-linejoin="round"/>
<path d="M356.52 206.78C354.05 207.247 351.631 207.681 349.379 208.065" stroke="#1D1D1B" stroke-linecap="round" stroke-linejoin="round"/>
<path d="M356.515 206.779L358.033 206.495L361.086 205.928" stroke="#1D1D1B" stroke-linecap="round" stroke-linejoin="round"/>
<path d="M361.125 205.945L373.371 203.743C369.45 204.41 365.246 205.111 361.125 205.945Z" stroke="#1D1D1B" stroke-linecap="round" stroke-linejoin="round"/>
<path d="M350.039 217.657L350.923 217.49L355.228 216.656C361.768 215.321 368.275 213.77 374.781 212.602" stroke="#1D1D1B" stroke-linecap="round" stroke-linejoin="round"/>
<path d="M351.677 223.259L374.751 217.787L375.168 217.687" stroke="#1D1D1B" stroke-linecap="round" stroke-linejoin="round"/>
<path d="M351.391 247.1C351.658 246.983 351.942 246.883 352.209 246.75C358.975 243.731 365.55 240.299 371.896 236.474L373.848 235.356" stroke="#1D1D1B" stroke-linecap="round" stroke-linejoin="round"/>
<path d="M112.328 166.743C120.797 178.144 130.431 188.633 141.074 198.038" stroke="#1D1D1B" stroke-linecap="round" stroke-linejoin="round"/>
<path d="M133.242 199.754C131.19 198.57 129.155 197.352 127.153 196.101C124.15 194.221 121.202 192.242 118.31 190.162C115.424 188.094 112.604 185.925 109.852 183.689" stroke="#1D1D1B" stroke-linecap="round" stroke-linejoin="round"/>
<path d="M215.87 213.201C224.989 217.845 234.743 221.122 244.816 222.927L245.6 223.06C245.952 224.471 246.165 225.912 246.234 227.364C246.234 227.765 246.234 228.182 246.234 228.599" stroke="#1D1D1B" stroke-linecap="round" stroke-linejoin="round"/>
<path d="M244.801 223.043C238.394 224.178 231.821 223.143 225.481 221.725C219.141 220.307 212.851 218.522 206.361 218.105C194.993 217.415 183.775 220.983 174.896 228.115" stroke="#1D1D1B" stroke-linecap="round" stroke-linejoin="round"/>
<path d="M174.391 228.565C169.363 222.703 162.219 219.068 154.52 218.456C147.029 217.939 139.672 220.341 132.297 221.792C122.732 223.8 112.9 224.211 103.201 223.01H102.7C102.151 224.935 101.402 226.797 100.465 228.565" stroke="#1D1D1B" stroke-linecap="round" stroke-linejoin="round"/>
<path d="M160.349 213.6C165.632 217.959 170.342 222.97 174.363 228.514" stroke="#1D1D1B" stroke-linecap="round" stroke-linejoin="round"/>
<path d="M167.875 232.42C169.702 231.233 171.878 230.698 174.048 230.902C176.013 231.024 177.868 231.854 179.27 233.237C175.452 233.471 171.62 233.196 167.875 232.42Z" stroke="#1D1D1B" stroke-linecap="round" stroke-linejoin="round"/>
<path d="M126.977 231.801C117.3 231.334 107.618 230.984 97.93 230.75H97.7966" stroke="#1D1D1B" stroke-linecap="round" stroke-linejoin="round"/>
<path d="M179.551 235.538C175.386 236.454 171.041 236.088 167.088 234.487C156.544 233.62 145.977 232.891 135.389 232.302C132.619 232.135 129.833 232.002 127.047 231.868" stroke="#1D1D1B" stroke-linecap="round" stroke-linejoin="round"/>
<path d="M88.4583 216.221C91.795 220.948 94.9483 225.808 97.918 230.802" stroke="#1D1D1B" stroke-linecap="round" stroke-linejoin="round"/>
<path d="M92.697 218.557C94.8371 222.054 97.1709 225.429 99.6875 228.666" stroke="#1D1D1B" stroke-linecap="round" stroke-linejoin="round"/>
<path d="M101.572 220.542C102.09 221.393 102.623 222.21 103.141 223.061" stroke="#1D1D1B" stroke-linecap="round" stroke-linejoin="round"/>
<path d="M167.488 232.385C145.219 229.814 122.82 228.532 100.403 228.548H99.8355" stroke="#1D1D1B" stroke-linecap="round" stroke-linejoin="round"/>
<path d="M180.17 233.738L246.121 228.733" stroke="#1D1D1B" stroke-linecap="round" stroke-linejoin="round"/>
<path d="M180.02 235.923C203.127 235.006 226.201 233.287 249.208 230.918H249.508" stroke="#1D1D1B" stroke-linecap="round" stroke-linejoin="round"/>
<path d="M249.621 228.248L246.785 227.348" stroke="#1D1D1B" stroke-linecap="round" stroke-linejoin="round"/>
<path d="M101.316 167.892C100.966 168.242 100.616 168.592 100.282 168.959C98.9306 170.327 97.5959 171.695 96.2779 173.08" stroke="#1D1D1B" stroke-linecap="round" stroke-linejoin="round"/>
<path d="M93.2461 175.75C92.746 177.09 91.9534 178.302 90.926 179.297C89.8986 180.293 88.6622 181.047 87.3067 181.505" stroke="#1D1D1B" stroke-linecap="round" stroke-linejoin="round"/>
<path d="M126.996 231.801C111.203 235.496 95.2099 238.281 79.0968 240.142L78.8634 239.958C71.9458 234.641 63.9091 230.968 55.3618 229.217C46.8145 227.465 37.9807 227.681 29.5293 229.849C34.3009 226.796 39.94 225.478 45.479 224.194C59.2265 221.041 74.3753 216.069 88.4731 216.186" stroke="#1D1D1B" stroke-linecap="round" stroke-linejoin="round"/>
<path d="M69.5391 209.481C51.654 211 22.9746 217.305 5.9738 224.345L4.82261 224.829" stroke="#1D1D1B" stroke-linecap="round" stroke-linejoin="round"/>
<path d="M28.0273 229.299C27.9041 228.438 27.5742 227.619 27.0658 226.913C26.5573 226.208 25.8855 225.635 25.1077 225.245C23.5477 224.471 21.8425 224.034 20.1025 223.961C15.4576 223.541 10.7751 223.913 6.255 225.062L4.83691 225.462" stroke="#1D1D1B" stroke-linecap="round" stroke-linejoin="round"/>
<path d="M78.4125 240.56C78.4739 242.13 78.3224 243.701 77.962 245.231L24.2735 231.485L4.25292 226.363" stroke="#1D1D1B" stroke-linecap="round" stroke-linejoin="round"/>
<path d="M29.6953 231.085H29.3116L27.7767 230.818L24.6068 230.268" stroke="#1D1D1B" stroke-linecap="round" stroke-linejoin="round"/>
<path d="M4.72162 225.579L4.15433 225.696C3.08657 225.879 2.05215 226.08 1.00107 226.296C8.15842 228.916 15.7996 231.134 23.4408 233.353C24.7251 233.389 25.9964 233.619 27.2114 234.037C44.4457 238.741 61.3632 242.995 78.6476 247.783L117.02 240.443C124.166 239.252 131.203 237.478 138.059 235.138" stroke="#1D1D1B" stroke-linecap="round" stroke-linejoin="round"/>
<path d="M79.147 245.532C97.7327 242.195 116.252 238.509 134.854 234.255C134.954 233.938 135.071 233.604 135.171 233.27L135.305 232.887" stroke="#1D1D1B" stroke-linecap="round" stroke-linejoin="round"/>
<path d="M138.075 234.954C138.196 234.872 138.285 234.75 138.324 234.61C138.364 234.469 138.353 234.319 138.292 234.186C138.237 234.052 138.154 233.932 138.047 233.834C137.94 233.736 137.813 233.662 137.675 233.619C137.403 233.514 137.115 233.458 136.824 233.452L135.272 233.302" stroke="#1D1D1B" stroke-linecap="round" stroke-linejoin="round"/>
<path d="M181.219 146.974C178.916 148.973 175.986 150.101 172.937 150.162C169.889 150.223 166.915 149.213 164.535 147.308" stroke="#1D1D1B" stroke-linecap="round" stroke-linejoin="round"/>
<path d="M206.627 81.2625C206.635 81.2954 206.635 81.3297 206.627 81.3626C206.308 84.2201 205.618 87.024 204.575 89.7036C203.163 93.2561 201.314 96.6185 199.069 99.7129C198.919 99.9464 198.769 100.163 198.602 100.38C195.051 105.064 191.147 109.47 186.923 113.559C186.089 114.376 185.255 115.227 184.454 116.028C182.621 118.018 180.592 119.817 178.398 121.4C176.176 122.989 173.505 123.83 170.773 123.802C166.019 123.552 162.181 119.848 159.362 116.011C151.746 105.613 148.063 92.8516 148.968 79.9946" stroke="#1D1D1B" stroke-linecap="round" stroke-linejoin="round"/>
<path d="M148.839 61.2617C148.698 60.0674 148.275 58.9237 147.605 57.9253C147.558 57.8565 147.502 57.7947 147.438 57.7418C147.087 57.3216 146.611 57.025 146.08 56.8959C145.548 56.7667 144.989 56.8118 144.485 57.0245C143.283 57.6751 143.133 59.2932 143.117 60.6612C142.998 64.1633 143.284 67.6674 143.968 71.1042C144.495 73.6959 145.639 76.1222 147.304 78.1774C147.804 78.7869 148.363 79.3457 148.973 79.8456" stroke="#1D1D1B" stroke-linecap="round" stroke-linejoin="round"/>
<path d="M210.316 78.894C210.025 82.406 208.493 85.6996 205.995 88.186" stroke="#1D1D1B" stroke-linecap="round" stroke-linejoin="round"/>
<path d="M206.71 81.2779C209.344 79.6298 211.509 77.3297 212.994 74.6C214.478 71.8704 215.233 68.8037 215.185 65.6968" stroke="#1D1D1B" stroke-linecap="round" stroke-linejoin="round"/>
<path d="M212.918 67.8674C213.484 67.1345 214.003 66.3655 214.469 65.5653C216.919 61.3578 217.948 56.4737 217.406 51.6357" stroke="#1D1D1B" stroke-linecap="round" stroke-linejoin="round"/>
<path d="M215.07 55.7229C215.803 54.4044 216.364 52.9971 216.738 51.5357C218.162 45.6751 217.291 39.4918 214.302 34.2531C212.529 31.1399 210.277 28.3251 207.629 25.912C206.299 24.6862 204.895 23.5441 203.424 22.4922C201.765 21.2909 200.045 20.1772 198.269 19.1558" stroke="#1D1D1B" stroke-linecap="round" stroke-linejoin="round"/>
<path d="M198.422 22.3584C197.755 21.4116 196.989 20.5391 196.136 19.756C195.966 19.597 195.788 19.4467 195.602 19.3056C193.12 17.2609 190.167 15.8676 187.01 15.2519C183.825 14.5788 180.535 14.5788 177.35 15.2519C174.572 15.8651 171.897 16.8764 169.409 18.2546C165.048 20.7269 161.106 23.8743 157.73 27.5799C153.788 31.5531 150.64 36.241 148.454 41.3927C146.283 46.5817 145.959 52.3587 147.536 57.7579" stroke="#1D1D1B" stroke-linecap="round" stroke-linejoin="round"/>
<path d="M208.066 25.378C210.02 23.2866 211.202 20.5913 211.417 17.7372C211.633 14.8832 210.868 12.041 209.25 9.6801C207.91 7.9369 206.14 6.57256 204.112 5.72137C202.085 4.87018 199.871 4.56146 197.688 4.82561C196.389 4.98605 195.125 5.36389 193.951 5.94331" stroke="#1D1D1B" stroke-linecap="round" stroke-linejoin="round"/>
<path d="M197.637 4.47505C195.324 2.35387 192.331 1.12521 189.195 1.00906C186.058 0.892907 182.983 1.89685 180.519 3.84113C180.026 4.21636 179.563 4.62908 179.134 5.0756" stroke="#1D1D1B" stroke-linecap="round" stroke-linejoin="round"/>
<path d="M180.266 3.50684C177.913 3.64847 175.593 4.12597 173.375 4.92482C172.259 5.32173 171.238 5.9464 170.376 6.75914C169.515 7.57189 168.831 8.55494 168.37 9.64585C167.419 12.2983 168.37 15.201 169.188 17.8868" stroke="#1D1D1B" stroke-linecap="round" stroke-linejoin="round"/>
<path d="M199.172 63.3125C197.343 64.9915 195.321 66.4475 193.149 67.6498C192.432 68.0502 191.681 68.4339 190.93 68.7675" stroke="#1D1D1B" stroke-width="0.5" stroke-linecap="round" stroke-linejoin="round"/>
<path d="M193.617 61.1616C191.588 63.1922 189.244 64.8821 186.677 66.1663L185.576 66.7001" stroke="#1D1D1B" stroke-width="0.5" stroke-linecap="round" stroke-linejoin="round"/>
<path d="M186.219 60.9279C185.22 63.0385 183.705 64.8631 181.814 66.2328L181.33 66.5831V65.9659L180.079 49.7676" stroke="#1D1D1B" stroke-width="0.5" stroke-linecap="round" stroke-linejoin="round"/>
<path d="M178.699 66.1657C176.861 62.8688 174.199 60.1043 170.975 58.1416" stroke="#1D1D1B" stroke-width="0.5" stroke-linecap="round" stroke-linejoin="round"/>
<path d="M167.055 66.9503C165.072 68.0613 162.79 68.5222 160.531 68.2681C159.525 68.1488 158.542 67.8847 157.612 67.4841C156.222 66.893 154.972 66.0179 153.941 64.915" stroke="#1D1D1B" stroke-width="0.5" stroke-linecap="round" stroke-linejoin="round"/>
<path d="M167.055 66.9502C167.26 66.7891 167.484 66.6546 167.723 66.5498C167.51 66.699 167.287 66.8328 167.055 66.9502Z" stroke="#1D1D1B" stroke-width="0.5" stroke-linecap="round" stroke-linejoin="round"/>
<path d="M176.547 66.366C174.555 65.6585 172.369 65.7334 170.43 66.5757C168.491 67.418 166.945 68.9648 166.103 70.9035C165.745 71.6403 165.573 72.4537 165.602 73.2724C165.65 74.0301 165.923 74.7564 166.386 75.3576C165.865 75.0439 165.426 74.6113 165.104 74.0952C164.782 73.5791 164.587 72.9942 164.535 72.3882C164.458 71.1794 164.749 69.9756 165.369 68.935C165.784 68.167 166.352 67.4916 167.037 66.9499" stroke="#1D1D1B" stroke-width="0.5" stroke-linecap="round" stroke-linejoin="round"/>
<path d="M156.961 68.8692C155.723 68.8304 154.498 68.6112 153.324 68.2186C152.173 67.7515 149.203 62.4466 148.836 61.2622" stroke="#1D1D1B" stroke-width="0.5" stroke-linecap="round" stroke-linejoin="round"/>
<path d="M145.216 60.3091C146.458 61.5016 147.399 62.9718 147.961 64.5987C148.524 66.2257 148.692 67.963 148.453 69.6677" stroke="#1D1D1B" stroke-width="0.5" stroke-linecap="round" stroke-linejoin="round"/>
<path d="M148.255 67.4995C147.687 68.592 147.452 69.8273 147.58 71.052C147.707 72.2768 148.192 73.4371 148.973 74.3892" stroke="#1D1D1B" stroke-width="0.5" stroke-linecap="round" stroke-linejoin="round"/>
<path d="M145.864 62.1113C145.778 64.3828 145.918 66.6571 146.281 68.9009" stroke="#1D1D1B" stroke-width="0.5" stroke-linecap="round" stroke-linejoin="round"/>
<path d="M193.895 69.1191H194.045C195.262 69.2081 196.442 69.5727 197.497 70.1855C198.552 70.7982 199.454 71.643 200.134 72.6557C201.497 74.7372 202.723 76.9048 203.805 79.1451C204.405 80.2294 205.323 81.3972 206.574 81.3638" stroke="#1D1D1B" stroke-width="0.5" stroke-linecap="round" stroke-linejoin="round"/>
<path d="M198.887 86.2998C196.501 85.3823 193.882 86.2998 191.529 87.4675C189.177 88.6353 186.791 89.8364 184.255 89.4861" stroke="#1D1D1B" stroke-width="0.5" stroke-linecap="round" stroke-linejoin="round"/>
<path d="M175.766 87.5193C172.262 86.6685 169.459 84.1828 166.706 81.8307C163.953 79.4785 160.834 77.2431 157.23 77.0596" stroke="#1D1D1B" stroke-width="0.5" stroke-linecap="round" stroke-linejoin="round"/>
<path d="M171.426 87.9517C168.24 85.3166 164.356 83.6648 160.248 83.1973" stroke="#1D1D1B" stroke-width="0.5" stroke-linecap="round" stroke-linejoin="round"/>
<path d="M170.357 87.5698C170.422 88.0715 170.341 88.5813 170.123 89.0378" stroke="#1D1D1B" stroke-width="0.5" stroke-linecap="round" stroke-linejoin="round"/>
<path d="M167.488 88.1194C167.253 87.4659 166.775 86.928 166.154 86.6173C165.533 86.3067 164.816 86.2472 164.152 86.4512C165.186 87.0351 166.204 87.6022 167.488 88.1194Z" stroke="#1D1D1B" stroke-width="0.5" stroke-linecap="round" stroke-linejoin="round"/>
<path d="M191.676 93.0233C191.594 92.7103 191.402 92.4372 191.136 92.2535C190.869 92.0699 190.546 91.9878 190.224 92.0224C189.58 92.1071 188.97 92.3603 188.456 92.7564C189.47 93.1988 190.602 93.2927 191.676 93.0233Z" stroke="#1D1D1B" stroke-width="0.5" stroke-linecap="round" stroke-linejoin="round"/>
<path d="M197.902 92.1563C197.287 91.6103 196.568 91.1931 195.789 90.9295C195.009 90.6659 194.185 90.5612 193.364 90.6216C191.083 90.5773 188.804 90.8012 186.574 91.2889" stroke="#1D1D1B" stroke-width="0.5" stroke-linecap="round" stroke-linejoin="round"/>
<path d="M182.305 91.6714C181.854 93.2562 181.387 94.8243 180.92 96.3924" stroke="#1D1D1B" stroke-width="0.5" stroke-linecap="round" stroke-linejoin="round"/>
<path d="M182.023 105.385C182.032 105.864 181.925 106.338 181.714 106.767C181.502 107.197 181.19 107.569 180.805 107.854C180.024 108.404 179.163 108.832 178.252 109.122C176.826 109.823 175.209 110.04 173.648 109.739C172.561 109.251 171.563 108.586 170.695 107.77C169.716 107.151 168.852 106.366 168.142 105.452C167.977 105.217 167.86 104.951 167.799 104.671C167.737 104.391 167.732 104.101 167.783 103.819C167.834 103.536 167.941 103.267 168.097 103.026C168.253 102.785 168.456 102.578 168.693 102.416" stroke="#1D1D1B" stroke-width="0.5" stroke-linecap="round" stroke-linejoin="round"/>
<path d="M162.013 110.706C164.06 110.106 166.229 110.054 168.303 110.556C170.371 110.94 172.407 111.573 174.509 111.857C175.691 111.956 176.866 112.123 178.029 112.358C179.18 112.658 180.315 113.258 180.398 114.476C178.73 113.525 176.645 114.476 174.726 114.593C170.321 114.877 166.534 110.756 162.013 110.706Z" stroke="#1D1D1B" stroke-width="0.5" stroke-linecap="round" stroke-linejoin="round"/>
<path d="M175.332 117.38C173.592 118.048 171.685 118.146 169.886 117.661C168.087 117.175 166.488 116.13 165.322 114.677" stroke="#1D1D1B" stroke-width="0.5" stroke-linecap="round" stroke-linejoin="round"/>
<path d="M100.404 169.061C100.123 172.342 100.319 175.646 100.988 178.87" stroke="#1D1D1B" stroke-linecap="round" stroke-linejoin="round"/>
<path d="M100.302 184.309C100.617 186.11 100.305 187.965 99.418 189.563" stroke="#1D1D1B" stroke-linecap="round" stroke-linejoin="round"/>
<path d="M139.273 204.059C135.328 203.371 131.279 203.553 127.411 204.593" stroke="#1D1D1B" stroke-linecap="round" stroke-linejoin="round"/>
<path d="M224.163 179.204V179.554C224.584 181.799 224.641 184.097 224.329 186.36C224.139 187.372 223.813 188.354 223.362 189.28" stroke="#222120" stroke-linecap="round" stroke-linejoin="round"/>
</svg>
