<svg width="226" height="152" viewBox="0 0 226 152" fill="none" xmlns="http://www.w3.org/2000/svg">
<path d="M126.721 41.7234C127.092 42.3472 127.267 43.0687 127.221 43.7934C127.193 44.1539 127.08 44.5028 126.893 44.812C126.705 45.1211 126.448 45.3819 126.141 45.5734C126.419 45.213 126.582 44.7776 126.611 44.3234C126.629 43.8326 126.526 43.345 126.311 42.9034C125.806 41.7412 124.879 40.814 123.717 40.3091C122.555 39.8042 121.245 39.7593 120.051 40.1834L118.761 40.0634L117.171 39.9434V40.3134L116.881 40.1034L114.671 40.3934L114.011 40.0734L111.461 41.5934C111.011 41.3934 110.561 41.1634 110.131 40.9234L109.591 41.8334C108.861 41.8867 108.154 42.1053 107.521 42.4726C106.889 42.8399 106.349 43.3463 105.941 43.9534C105.124 45.2011 104.389 46.5005 103.741 47.8434C103.381 48.4934 102.831 49.1934 102.081 49.1734C102.076 49.1536 102.076 49.1331 102.081 49.1134C100.502 48.1255 99.2045 46.7467 98.3145 45.1104C97.4245 43.4741 96.972 41.6358 97.0008 39.7734L97.4608 39.6934C95.9463 37.1904 95.28 34.2654 95.5608 31.3534L95.9208 31.2534C95.0671 27.7403 95.5895 24.0337 97.3808 20.8934C98.4436 19.0272 99.7935 17.3399 101.381 15.8934C102.178 15.1586 103.019 14.4739 103.901 13.8434C104.895 13.1232 105.927 12.4557 106.991 11.8434L108.281 12.3034C108.383 12.208 108.49 12.1179 108.601 12.0334C110.089 10.8077 111.859 9.97248 113.751 9.60337C115.66 9.19992 117.632 9.19992 119.541 9.60337C121.206 9.97096 122.809 10.5772 124.301 11.4034C126.915 12.8854 129.277 14.7721 131.301 16.9934C133.663 19.375 135.55 22.1852 136.861 25.2734C138.162 28.3839 138.356 31.8469 137.411 35.0834C137.372 35.1151 137.339 35.1521 137.311 35.1934C136.909 35.7918 136.655 36.4774 136.571 37.1934C136.351 37.9034 134.571 41.0834 133.881 41.3634C133.177 41.5987 132.443 41.7301 131.701 41.7534L131.311 40.9234C130.753 41.1635 130.164 41.3219 129.561 41.3934C128.207 41.5457 126.839 41.2694 125.651 40.6034C125.528 40.5068 125.394 40.4262 125.251 40.3634C125.378 40.4528 125.512 40.533 125.651 40.6034C126.08 40.9006 126.444 41.2816 126.721 41.7234Z" fill="#D1D0D1"/>
<path d="M177.491 106.823L176.671 105.403V105.313C178.657 99.6295 181.514 94.289 185.141 89.4832L186.631 87.7632C185.711 86.1332 184.831 84.4832 183.951 82.8232C189.341 84.6532 193.751 88.7032 197.081 93.3232C199.063 95.9653 200.569 98.9332 201.531 102.093C202.174 104.717 202.566 107.395 202.701 110.093C202.952 111.807 202.891 113.551 202.521 115.243C202.154 116.41 201.55 117.489 200.746 118.412C199.943 119.334 198.957 120.08 197.851 120.603L197.651 120.513C197.125 121.787 196.414 122.977 195.541 124.043C194.041 125.823 190.441 125.833 188.141 125.503C188.811 125.52 189.473 125.359 190.06 125.035C190.647 124.712 191.137 124.238 191.481 123.663C192.101 122.253 191.261 120.663 190.481 119.363C188.941 116.943 187.321 114.493 184.981 112.833C183.782 112.057 182.394 111.623 180.967 111.577C179.54 111.531 178.127 111.876 176.881 112.573L176.741 112.823C176.321 113.053 175.881 113.263 175.451 113.473L175.211 112.963C175.211 112.563 175.211 112.163 175.211 111.763C175.241 110.882 175.4 110.009 175.681 109.173C175.996 108.205 176.635 107.375 177.491 106.823ZM192.841 96.9932C192.882 96.8341 192.865 96.6653 192.791 96.5182C192.717 96.3711 192.593 96.2557 192.441 96.1932C192.122 96.0717 191.774 96.0474 191.441 96.1232C189.295 96.3904 187.237 97.139 185.42 98.313C183.604 99.487 182.076 101.056 180.951 102.903C186.061 100.563 189.161 99.0032 192.271 97.4432C192.511 97.37 192.714 97.2094 192.841 96.9932Z" fill="#A55DA1"/>
<path d="M192.44 96.1927C192.592 96.2551 192.717 96.3705 192.79 96.5176C192.864 96.6647 192.882 96.8335 192.84 96.9927C192.723 97.2012 192.535 97.3609 192.31 97.4427C189.2 99.0027 186.1 100.563 180.99 102.903C182.115 101.056 183.643 99.4864 185.459 98.3124C187.276 97.1384 189.334 96.3899 191.48 96.1227C191.8 96.0547 192.133 96.079 192.44 96.1927Z" fill="#A55DA1"/>
<path d="M165.76 101.683L165.69 101.743C165.859 103.71 165.741 105.69 165.34 107.623L165.48 107.743C164.31 109.123 163.16 110.493 162.02 111.873L160.02 110.513C158.37 111.853 156.68 113.153 154.95 114.393C153.22 115.633 151.45 116.823 149.65 117.953C148.45 118.703 147.23 119.433 146 120.143L145.91 122.493C144.728 122.434 143.544 122.512 142.38 122.723H142.06C141.918 122.483 141.731 122.272 141.51 122.103C141.016 121.768 140.468 121.521 139.89 121.373L132.57 119.013C130.67 118.153 128.8 117.273 126.85 116.613L127.02 116.143C126.91 113.743 125.92 111.493 125.25 109.193C124.014 104.877 123.856 100.324 124.79 95.9331L126.33 96.133C127.725 92.0865 129.441 88.1574 131.46 84.383C132.338 82.6551 133.394 81.023 134.61 79.5131C135.783 78.0631 137.275 76.9031 138.97 76.123L137.56 73.373C141.728 74.6504 146.06 75.3173 150.42 75.3531C146.88 71.743 145.08 66.7731 144.04 61.8331C143.606 59.172 143.008 56.5404 142.25 53.953C141.87 52.823 141.363 51.7395 140.74 50.7231L140.91 50.623C143.545 51.1436 146.014 52.3005 148.1 53.993C148.261 53.6769 148.503 53.4093 148.802 53.2177C149.101 53.0262 149.445 52.9176 149.8 52.9031C150.508 52.896 151.213 53.0145 151.88 53.2531C153.04 53.6031 154.19 53.9431 155.27 54.1831C158.382 54.1605 161.46 54.8443 164.27 56.1831C169.65 59.8431 173.81 65.0731 177.27 70.6131C179.72 74.6131 181.83 78.703 183.99 82.813C184.87 84.473 185.75 86.1231 186.67 87.7531L185.18 89.4731C181.545 94.2935 178.684 99.6512 176.7 105.353L174.7 104.633C174.76 104.473 174.83 104.323 174.89 104.163L172.65 102.783L171 101.353C170.11 102.353 169.24 103.353 168.37 104.353L168.16 104.173C167.37 103.353 166.57 102.503 165.76 101.683Z" fill="#A55DA1"/>
<path d="M176.67 105.404L177.49 106.824C176.677 107.358 176.062 108.145 175.74 109.064C175.459 109.9 175.301 110.772 175.27 111.654H175.11C174.376 111.026 173.908 110.143 173.8 109.184C173.73 108.798 173.71 108.404 173.74 108.014C173.87 106.835 174.184 105.685 174.67 104.604L176.67 105.324V105.404Z" fill="#A55DA1"/>
<path d="M174.86 104.123C174.8 104.283 174.73 104.433 174.67 104.593C174.185 105.674 173.871 106.824 173.74 108.003C173.71 108.394 173.73 108.787 173.8 109.173H173.54C172.728 108.898 171.987 108.446 171.371 107.849C170.755 107.253 170.28 106.526 169.98 105.723C170.88 104.723 171.781 103.723 172.651 102.723L174.86 104.123Z" fill="#A55DA1"/>
<path d="M166.251 114.033V114.183C165.041 114.313 163.831 114.503 162.631 114.753C163.551 113.453 164.571 112.123 165.631 110.753L165.741 110.843C165.536 111.933 165.717 113.061 166.251 114.033Z" fill="#A55DA1"/>
<path d="M160.031 110.513L162.031 111.873L159.121 115.403L159.181 115.603C158.581 115.763 157.981 115.953 157.381 116.143L154.961 114.353C156.691 113.153 158.381 111.853 160.031 110.513Z" fill="#A55DA1"/>
<path d="M154.96 114.354L157.37 116.104C156.86 116.714 156.37 117.324 155.9 117.964L155.69 117.804C154.29 118.294 152.92 118.804 151.61 119.424L149.66 117.914C151.46 116.814 153.227 115.627 154.96 114.354Z" fill="#A55DA1"/>
<path d="M151.609 119.463C151.169 119.65 150.739 119.85 150.319 120.063C150.139 121.031 150.029 122.01 149.989 122.993C149.994 123.03 149.994 123.067 149.989 123.103L149.519 123.043C148.352 122.721 147.15 122.536 145.939 122.493L146.029 120.143C147.259 119.433 148.479 118.703 149.679 117.953L151.609 119.463Z" fill="#A55DA1"/>
<path d="M135.929 66.2935C135.779 64.0335 135.619 61.7235 135.499 59.7235H135.419C136.475 56.0318 136.867 52.1823 136.579 48.3535C136.945 48.0539 137.28 47.7189 137.579 47.3535L137.729 47.4935C138.961 48.3502 139.986 49.4708 140.729 50.7735C141.353 51.7737 141.862 52.8403 142.249 53.9535C143.007 56.5375 143.605 59.1659 144.039 61.8235C145.039 66.7635 146.879 71.7335 150.419 75.3435C146.06 75.3314 141.725 74.6881 137.549 73.4335L138.959 76.1835C137.265 76.9635 135.773 78.1236 134.599 79.5735C133.384 81.0834 132.328 82.7155 131.449 84.4435C129.43 88.2179 127.715 92.147 126.319 96.1935L124.779 95.9935C125.295 93.5586 126.136 91.2041 127.279 88.9935L127.399 88.7735C131.234 81.7039 134.096 74.149 135.909 66.3135L135.929 66.2935Z" fill="#A55DA1"/>
<path d="M127.399 88.7529L127.279 88.9729C126.135 91.1835 125.295 93.538 124.779 95.9729C123.845 100.371 124.006 104.932 125.249 109.253C125.919 111.553 126.909 113.803 127.019 116.203L126.849 116.673C126.519 116.553 126.189 116.453 125.849 116.353C125.304 116.187 124.739 116.099 124.169 116.093V115.923C122.197 115.491 120.279 114.844 118.449 113.993C116.847 110.099 116.13 105.898 116.349 101.693C116.529 97.2929 117.239 92.8929 117.189 88.5029H117.249C118.629 89.701 120.386 90.3772 122.213 90.4137C124.04 90.4503 125.822 89.8449 127.249 88.7029L127.399 88.7529Z" fill="#D1D0D1"/>
<path d="M107.38 3.2931V3.0831C108.766 1.81157 110.56 1.07506 112.44 1.00543C114.32 0.935804 116.163 1.53761 117.64 2.7031L117.79 2.5031C119.2 2.588 120.591 2.87424 121.92 3.3531C122.589 3.59103 123.201 3.96548 123.717 4.45268C124.234 4.93987 124.643 5.52916 124.92 6.1831C125.49 7.7731 124.92 9.5131 124.43 11.1231L124.31 11.3431C122.818 10.5169 121.215 9.91068 119.55 9.5431C117.641 9.13964 115.669 9.13964 113.76 9.5431C111.868 9.91221 110.098 10.7474 108.61 11.9731L108.47 11.8031C108.367 11.0786 108.062 10.3977 107.59 9.83874C107.117 9.27977 106.497 8.86536 105.8 8.6431C105.591 8.56471 105.377 8.50122 105.16 8.4531L105.09 8.7931C104.61 8.94696 104.177 9.21922 103.83 9.58477C103.483 9.95031 103.234 10.3974 103.105 10.8846C102.976 11.3719 102.973 11.8837 103.094 12.3728C103.216 12.8619 103.458 13.3125 103.8 13.6831L103.91 13.8331C103.028 14.4636 102.187 15.1483 101.39 15.8831L101.14 15.6131C99.9686 14.3594 99.2598 12.7438 99.1308 11.0329C99.0017 9.32206 99.4599 7.61834 100.43 6.2031C101.235 5.15499 102.299 4.33519 103.518 3.82481C104.737 3.31442 106.068 3.13114 107.38 3.2931Z" fill="#D1D0D1"/>
<path d="M124.151 115.923V116.093C123.619 116.087 123.103 116.276 122.701 116.623L122.121 116.703C121.471 116.783 120.821 116.893 120.121 117.023C119.445 116.084 118.865 115.079 118.391 114.023C120.235 114.867 122.166 115.504 124.151 115.923Z" fill="#D1D0D1"/>
<path d="M118.43 113.993C118.905 115.048 119.485 116.053 120.16 116.993C117.748 117.48 115.4 118.241 113.16 119.263L112.68 119.483C109.399 119.935 106.065 119.85 102.81 119.233L102.87 118.893C102.97 117.363 101.44 116.263 100.03 115.663C97.4573 114.594 94.6966 114.05 91.9104 114.063V113.833C91.6399 113.278 91.4448 112.689 91.3304 112.083C91.1437 110.726 91.1775 109.348 91.4304 108.003V107.793L89.9604 105.793C86.3071 96.4593 82.6404 87.1526 78.9604 77.8726L77.4004 75.4826C77.5604 74.7126 77.7604 73.9426 77.9904 73.1926C79.6388 67.8499 82.9211 63.1586 87.3752 59.779C91.8294 56.3994 97.2312 54.5015 102.82 54.3526L103.26 54.1826C104.107 56.3121 105.215 58.3277 106.56 60.1826L106.26 60.3926C104.639 67.1768 102.538 73.837 99.9704 80.3226C102.05 80.1926 103.87 78.9726 105.72 78.0126C107.57 77.0526 109.79 76.3226 111.72 77.2126C112.881 77.881 113.851 78.8344 114.54 79.9826L115.87 80.6826C115.056 81.4537 114.291 82.2753 113.58 83.1426C114.977 83.916 116.188 84.9841 117.13 86.2726C117.18 86.9926 117.21 87.7026 117.21 88.4226C117.26 92.8126 116.55 97.2126 116.37 101.613C116.127 105.841 116.83 110.071 118.43 113.993Z" fill="#A55DA1"/>
<path d="M116.66 80.0127C116.38 80.2527 116.1 80.5127 115.83 80.7627L114.5 80.0627C113.811 78.9145 112.84 77.9611 111.68 77.2927C109.79 76.4027 107.56 77.1327 105.68 78.0927C103.8 79.0527 102.01 80.2727 99.9297 80.4027C102.507 73.9179 104.619 67.2577 106.25 60.4727L106.55 60.2627C106.64 60.4027 106.73 60.5327 106.83 60.6627C108.958 63.4707 111.298 66.1117 113.83 68.5627C113.756 72.5611 114.732 76.5089 116.66 80.0127Z" fill="#A55DA1"/>
<path d="M108.489 11.8033L108.63 11.9733C108.518 12.0579 108.412 12.148 108.309 12.2433L107.019 11.7833C105.955 12.3956 104.924 13.0632 103.929 13.7833L103.82 13.6333C103.478 13.2628 103.235 12.8121 103.114 12.323C102.992 11.8339 102.996 11.3221 103.125 10.8349C103.253 10.3476 103.502 9.90053 103.849 9.53499C104.196 9.16944 104.63 8.89718 105.109 8.74332L105.179 8.40332C105.397 8.45144 105.611 8.51493 105.82 8.59332C106.524 8.81926 107.149 9.24122 107.622 9.80975C108.095 10.3783 108.396 11.0698 108.489 11.8033Z" fill="#D1D0D1"/>
<path d="M78.6603 129.873C78.2024 129.793 77.7703 129.604 77.4003 129.323C76.6945 128.776 76.1857 128.014 75.9503 127.153C75.6468 125.837 75.6468 124.469 75.9503 123.153C76.1471 121.566 76.701 120.045 77.5703 118.703C79.0103 116.703 81.4703 115.773 83.8503 115.143C85.8478 114.619 87.8901 114.284 89.9503 114.143C90.6103 114.143 91.2703 114.073 91.9503 114.083C94.7365 114.07 97.4972 114.614 100.07 115.683C101.48 116.283 103.01 117.383 102.91 118.913L102.85 119.253C101.659 119.03 100.481 118.743 99.3203 118.393V118.293C96.4377 118.596 93.6421 119.459 91.0903 120.833C88.3903 122.443 86.2403 125.313 86.1503 128.373C86.1285 128.798 86.152 129.223 86.2203 129.643L86.2803 130.873C85.9903 130.873 85.7003 130.873 85.4103 130.873C83.1264 130.834 80.8573 130.498 78.6603 129.873Z" fill="#A55DA1"/>
<path d="M91.7897 128.163V128.533C90.2773 129.938 88.3209 130.769 86.2597 130.883L86.2497 129.653C86.1815 129.233 86.158 128.808 86.1797 128.383H86.4097C88.1797 128.353 89.9797 128.223 91.7897 128.163Z" fill="#A55DA1"/>
<path d="M61.1098 102.723L61.0498 102.663C61.8898 98.9529 66.0499 97.0928 68.1399 93.9128C69.7499 91.4529 69.9998 88.3729 70.7098 85.5229C71.9343 80.8157 74.4406 76.5405 77.9499 73.1729L78.1098 73.2229C77.8798 73.9729 77.6798 74.7429 77.5198 75.5129L79.0798 77.9029C82.7398 87.2362 86.4065 96.5429 90.0798 105.823L91.5498 107.823V108.033C90.335 109.445 88.9627 110.713 87.4598 111.813L87.3199 112.053C84.1416 110.213 80.5494 109.206 76.8777 109.128C73.206 109.049 69.574 109.9 66.3199 111.603H64.7698C64.5529 110.774 64.2858 109.959 63.9698 109.163C61.9098 109.033 59.8698 108.903 57.8398 108.793V108.603C58.2665 106.341 59.4137 104.278 61.1098 102.723ZM82.3199 106.503L83.3199 105.873C82.9582 102.422 81.8418 99.0937 80.0498 96.1228C79.5852 95.2151 78.8969 94.4407 78.0498 93.8728C77.6166 93.6034 77.1102 93.476 76.601 93.5083C76.0919 93.5405 75.6056 93.7309 75.2098 94.0528C74.8807 94.4346 74.6727 94.9057 74.6122 95.4061C74.5516 95.9065 74.6413 96.4136 74.8698 96.8629C75.3434 97.7519 75.9696 98.5507 76.7198 99.2229C78.8508 101.434 80.729 103.876 82.3199 106.503Z" fill="#A55DA1"/>
<path d="M89.9601 113.903V114.153C87.9 114.294 85.8576 114.629 83.8601 115.153C81.4801 115.783 79.0201 116.723 77.5801 118.713C76.7108 120.055 76.157 121.576 75.9601 123.163C75.6566 124.479 75.6566 125.847 75.9601 127.163C76.1956 128.024 76.7044 128.786 77.4102 129.333V129.383C74.5073 129.128 71.6985 128.226 69.1902 126.743H68.8802C68.9322 126.186 68.8709 125.625 68.7002 125.093C68.1659 123.735 67.2702 122.548 66.1101 121.663C65.3758 121.637 64.6407 121.664 63.9102 121.743C65.4403 118.59 65.7259 114.977 64.7101 111.623H66.2602C69.5143 109.92 73.1463 109.069 76.818 109.148C80.4898 109.226 84.0819 110.233 87.2602 112.073C88.2072 112.61 89.11 113.222 89.9601 113.903Z" fill="#A55DA1"/>
<path d="M83.3205 105.873L82.3205 106.503C80.7203 103.875 78.8319 101.433 76.6905 99.2234C75.9403 98.5513 75.3141 97.7525 74.8405 96.8634C74.612 96.4142 74.5223 95.9071 74.5828 95.4067C74.6434 94.9063 74.8514 94.4352 75.1805 94.0534C75.5763 93.7315 76.0626 93.5411 76.5717 93.5088C77.0809 93.4765 77.5873 93.604 78.0205 93.8734C78.8676 94.4413 79.5559 95.2156 80.0205 96.1234C81.823 99.0917 82.9497 102.421 83.3205 105.873Z" fill="#A55DA1"/>
<path d="M101.49 8.35282C102.719 8.19041 103.966 8.23434 105.18 8.48282C105.398 8.53093 105.612 8.59443 105.82 8.67282C106.517 8.89508 107.138 9.30949 107.61 9.86846C108.082 10.4274 108.387 11.1083 108.49 11.8328" stroke="#1D1D1B" stroke-width="0.5" stroke-linecap="round" stroke-linejoin="round"/>
<path d="M105.109 8.79297C104.63 8.94682 104.196 9.21909 103.849 9.58464C103.502 9.95018 103.253 10.3972 103.125 10.8845C102.996 11.3718 102.992 11.8836 103.114 12.3727C103.235 12.8618 103.478 13.3124 103.82 13.683" stroke="#1D1D1B" stroke-width="0.5" stroke-linecap="round" stroke-linejoin="round"/>
<path d="M101.671 9.44336C101.409 9.83801 101.236 10.2846 101.164 10.7524C101.091 11.2202 101.121 11.6981 101.251 12.1534C101.393 12.5991 101.63 13.0087 101.946 13.354C102.262 13.6992 102.649 13.9719 103.081 14.1534" stroke="#1D1D1B" stroke-width="0.5" stroke-linecap="round" stroke-linejoin="round"/>
<path d="M111.18 3.22266C111.821 3.39037 112.414 3.70457 112.913 4.1405C113.411 4.57644 113.802 5.12223 114.054 5.73488C114.306 6.34753 114.413 7.01033 114.365 7.67108C114.317 8.33183 114.117 8.97251 113.78 9.54266V9.61266" stroke="#1D1D1B" stroke-width="0.5" stroke-linecap="round" stroke-linejoin="round"/>
<path d="M115.4 2.4834C115.847 2.91162 116.191 3.4356 116.405 4.01587C116.62 4.59614 116.701 5.21758 116.64 5.8334" stroke="#1D1D1B" stroke-width="0.5" stroke-linecap="round" stroke-linejoin="round"/>
<path d="M118.631 4.82324C118.926 5.52653 119.02 6.29775 118.904 7.05144C118.787 7.80512 118.464 8.51183 117.971 9.09324" stroke="#1D1D1B" stroke-width="0.5" stroke-linecap="round" stroke-linejoin="round"/>
<path d="M121.59 9.87305C122.052 9.63399 122.438 9.27062 122.704 8.82394C122.97 8.37726 123.106 7.86505 123.097 7.34511C123.088 6.82517 122.933 6.31819 122.651 5.88138C122.369 5.44458 121.97 5.09533 121.5 4.87305" stroke="#1D1D1B" stroke-width="0.5" stroke-linecap="round" stroke-linejoin="round"/>
<path d="M1.60938 65.583C7.21938 64.793 7.38938 64.743 12.9894 63.893C12.9941 63.8733 12.9941 63.8527 12.9894 63.833" stroke="#1D1D1B" stroke-linecap="round" stroke-linejoin="round"/>
<path d="M13.1504 63.7529C28.4404 66.4329 43.6304 69.6129 58.5104 73.4529C58.6601 73.6326 58.742 73.8591 58.742 74.0929C58.742 74.3268 58.6601 74.5532 58.5104 74.7329C58.2708 75.0622 57.9119 75.2847 57.5104 75.3529H57.3504C56.8085 75.3595 56.2738 75.4787 55.7804 75.7029C55.2076 76.1408 54.7291 76.6898 54.3734 77.3169C54.0177 77.9441 53.7922 78.6366 53.7104 79.3529C53.5869 81.0532 54.1364 82.7339 55.2404 84.0329C55.7106 84.1042 56.1706 84.2318 56.6104 84.4129C56.7054 84.4557 56.7931 84.5131 56.8704 84.5829C57.0205 84.7294 57.1307 84.9119 57.1904 85.1129C57.3406 85.637 57.298 86.1975 57.0704 86.6929" stroke="#1D1D1B" stroke-linecap="round" stroke-linejoin="round"/>
<path d="M60.0207 87.5329C44.5307 84.5329 29.0207 81.9229 13.3707 79.8429C7.4207 79.7729 9.6607 79.4229 3.7207 79.8429" stroke="#1D1D1B" stroke-linecap="round" stroke-linejoin="round"/>
<path d="M3.7207 80.9532C12.8507 80.8732 17.2007 81.1432 26.3107 81.7132" stroke="#1D1D1B" stroke-linecap="round" stroke-linejoin="round"/>
<path d="M59.87 98.2331L59.71 98.4631C56.51 98.1931 53.29 97.9331 50.07 97.7031C39.84 96.9431 29.53 96.3631 19.29 95.9631C16.83 95.8631 14.38 95.7831 11.94 95.7031H4.25" stroke="#1D1D1B" stroke-linecap="round" stroke-linejoin="round"/>
<path d="M59.8398 98.353C59.8398 98.353 59.8398 98.353 59.8398 98.293" stroke="#1D1D1B" stroke-linecap="round" stroke-linejoin="round"/>
<path d="M60.0208 87.6934C60.0068 88.1614 59.8806 88.6192 59.6526 89.0282C59.4246 89.4372 59.1015 89.7854 58.7108 90.0434C57.6508 91.5434 57.7708 94.4434 58.9408 96.2634C59.0133 96.2483 59.0882 96.2483 59.1608 96.2634C59.8008 96.4734 59.9108 97.5134 59.8708 98.1734" stroke="#1D1D1B" stroke-linecap="round" stroke-linejoin="round"/>
<path d="M50.0391 98.0635C52.0391 100.633 52.0391 105.383 50.4791 108.263" stroke="#1D1D1B" stroke-linecap="round" stroke-linejoin="round"/>
<path d="M32.4199 98.5527C33.4078 99.4477 34.0426 100.667 34.2095 101.989C34.3765 103.312 34.0644 104.65 33.3299 105.763" stroke="#1D1D1B" stroke-linecap="round" stroke-linejoin="round"/>
<path d="M3.05078 107.623C11.0008 107.523 18.6708 107.533 26.2708 107.623C34.3308 107.753 42.3208 108.013 50.4708 108.403C52.8708 108.516 55.2908 108.643 57.7308 108.783C59.7308 108.893 61.8008 109.023 63.8608 109.153" stroke="#1D1D1B" stroke-linecap="round" stroke-linejoin="round"/>
<path d="M19.1202 109.983C19.1628 110.054 19.1996 110.127 19.2303 110.203C20.7903 113.203 20.5302 118.983 18.9902 121.913" stroke="#1D1D1B" stroke-linecap="round" stroke-linejoin="round"/>
<path d="M63.8608 109.184C64.1767 109.98 64.4439 110.795 64.6608 111.624C65.6765 114.977 65.3909 118.591 63.8608 121.744C48.7608 123.064 32.9608 123.794 17.8008 123.834" stroke="#1D1D1B" stroke-linecap="round" stroke-linejoin="round"/>
<path d="M2.08008 121.083C2.74008 121.173 3.39008 121.283 4.08008 121.383C7.33008 121.923 10.5101 122.603 13.7301 123.183C15.0201 123.413 16.3201 123.633 17.6301 123.823" stroke="#1D1D1B" stroke-linecap="round" stroke-linejoin="round"/>
<path d="M63.2502 121.803H63.9001C64.6307 121.724 65.3659 121.698 66.1002 121.723C67.2602 122.609 68.1559 123.795 68.6902 125.153C68.8934 125.769 68.9441 126.424 68.8378 127.063C68.7315 127.703 68.4715 128.307 68.0801 128.823C67.8818 129.095 67.6574 129.346 67.4102 129.573L16.4102 132.353" stroke="#1D1D1B" stroke-linecap="round" stroke-linejoin="round"/>
<path d="M16.5305 125.144L16.5805 125.214C16.8279 125.59 16.9909 126.015 17.0582 126.461C17.1255 126.906 17.0956 127.361 16.9706 127.794C16.8021 128.855 16.4962 129.891 16.0605 130.874" stroke="#1D1D1B" stroke-linecap="round" stroke-linejoin="round"/>
<path d="M1.60938 129.213C5.28938 130.033 8.9994 130.743 12.6994 131.513C13.9294 131.763 15.1594 132.033 16.3894 132.303" stroke="#1D1D1B" stroke-linecap="round" stroke-linejoin="round"/>
<path d="M15.25 134.433C17.25 138.533 17.02 144.303 15.25 148.523" stroke="#1D1D1B" stroke-linecap="round" stroke-linejoin="round"/>
<path d="M18.9207 110.354C17.9604 114.04 17.8407 117.895 18.5707 121.634" stroke="#1D1D1B" stroke-width="0.5" stroke-linecap="round" stroke-linejoin="round"/>
<path d="M16.4304 125.354C15.6953 127.035 15.3928 128.875 15.5504 130.704" stroke="#1D1D1B" stroke-width="0.5" stroke-linecap="round" stroke-linejoin="round"/>
<path d="M15.0897 134.354V134.424C14.8297 138.957 14.7464 143.49 14.8397 148.024" stroke="#1D1D1B" stroke-width="0.5" stroke-linecap="round" stroke-linejoin="round"/>
<path d="M68.3 128.783C70.7638 129.176 73.1847 129.802 75.53 130.653C76.0116 132.801 76.1634 135.01 75.98 137.203C75.98 137.733 75.88 138.283 75.8 138.823C75.4917 140.805 74.9444 142.743 74.17 144.593C54.63 146.313 35.11 148.423 15.64 150.803C10.8404 148.979 6.33029 146.47 2.25 143.353" stroke="#1D1D1B" stroke-linecap="round" stroke-linejoin="round"/>
<path d="M102.82 54.3535C97.2511 54.5271 91.8761 56.4363 87.4458 59.8142C83.0155 63.192 79.7513 67.8698 78.1095 73.1935C77.8795 73.9435 77.6795 74.7135 77.5195 75.4835" stroke="#1D1D1B" stroke-linecap="round" stroke-linejoin="round"/>
<path d="M77.9508 73.1729C74.4415 76.5405 71.9352 80.8157 70.7108 85.5229C70.0008 88.3728 69.7108 91.4528 68.1408 93.9128C66.0508 97.0928 61.8908 98.9128 61.0508 102.663" stroke="#1D1D1B" stroke-linecap="round" stroke-linejoin="round"/>
<path d="M63.12 101.354C62.3992 101.734 61.7275 102.2 61.12 102.744C59.3832 104.29 58.1997 106.362 57.75 108.644" stroke="#1D1D1B" stroke-linecap="round" stroke-linejoin="round"/>
<path d="M79.0801 77.9033C82.7401 87.2367 86.4067 96.5433 90.0801 105.823" stroke="#1D1D1B" stroke-linecap="round" stroke-linejoin="round"/>
<path d="M85.1309 67.4131C87.6309 73.4131 87.8609 79.9831 88.2009 86.4131C88.5409 92.8431 89.0909 99.5231 92.1009 105.233" stroke="#1D1D1B" stroke-linecap="round" stroke-linejoin="round"/>
<path d="M94.2498 67.0332C94.6933 78.491 94.4462 89.9651 93.5098 101.393" stroke="#1D1D1B" stroke-linecap="round" stroke-linejoin="round"/>
<path d="M98.5403 57.7432C96.8229 68.5081 95.8872 79.3831 95.7402 90.2832" stroke="#1D1D1B" stroke-linecap="round" stroke-linejoin="round"/>
<path d="M83.9705 109.513C83.4605 108.513 82.9105 107.513 82.3205 106.513C80.7203 103.885 78.8319 101.443 76.6905 99.2332C75.9403 98.5611 75.3141 97.7622 74.8405 96.8732C74.612 96.4239 74.5223 95.9168 74.5828 95.4164C74.6434 94.916 74.8514 94.445 75.1805 94.0632C75.5763 93.7412 76.0626 93.5508 76.5717 93.5186C77.0809 93.4863 77.5873 93.6138 78.0205 93.8832C78.8676 94.451 79.5559 95.2254 80.0205 96.1332C81.8125 99.104 82.9289 102.433 83.2905 105.883" stroke="#1D1D1B" stroke-linecap="round" stroke-linejoin="round"/>
<path d="M66.5195 103.463C68.7884 103.243 71.0781 103.518 73.2297 104.271C75.3813 105.024 77.3434 106.236 78.9796 107.823" stroke="#1D1D1B" stroke-linecap="round" stroke-linejoin="round"/>
<path d="M65.5098 107.983C69.3137 107.109 73.2966 107.459 76.8898 108.983" stroke="#1D1D1B" stroke-linecap="round" stroke-linejoin="round"/>
<path d="M66.25 111.603C69.5042 109.901 73.1361 109.049 76.8079 109.128C80.4796 109.207 84.0718 110.213 87.25 112.053C88.2011 112.597 89.1073 113.215 89.96 113.903" stroke="#1D1D1B" stroke-linecap="round" stroke-linejoin="round"/>
<path d="M91.6106 107.894C91.5726 107.945 91.529 107.992 91.4806 108.034C90.2658 109.445 88.8935 110.714 87.3906 111.814" stroke="#1D1D1B" stroke-linecap="round" stroke-linejoin="round"/>
<path d="M102.92 118.923C103.02 117.393 101.49 116.293 100.08 115.693C97.5069 114.624 94.7463 114.08 91.9601 114.093C91.2901 114.093 90.6301 114.093 89.9601 114.153C87.8999 114.294 85.8575 114.629 83.86 115.153C81.48 115.783 79.02 116.723 77.58 118.713C76.7107 120.055 76.1569 121.576 75.9601 123.163C75.6565 124.479 75.6565 125.847 75.9601 127.163C76.1955 128.024 76.7043 128.786 77.4101 129.333C77.7801 129.614 78.2122 129.803 78.6701 129.883" stroke="#1D1D1B" stroke-linecap="round" stroke-linejoin="round"/>
<path d="M101.301 118.003C100.641 118.093 99.9709 118.193 99.3009 118.303C96.4183 118.606 93.6227 119.469 91.0709 120.843C88.3709 122.453 86.2209 125.323 86.1309 128.383C86.1092 128.808 86.1326 129.233 86.2009 129.653" stroke="#1D1D1B" stroke-linecap="round" stroke-linejoin="round"/>
<path d="M69.1406 126.773C71.649 128.257 74.4578 129.159 77.3606 129.413" stroke="#1D1D1B" stroke-linecap="round" stroke-linejoin="round"/>
<path d="M78.5 129.833H78.66C80.8538 130.458 83.1195 130.794 85.4 130.833C85.69 130.833 85.98 130.833 86.27 130.833C88.3312 130.72 90.2876 129.888 91.8 128.483" stroke="#1D1D1B" stroke-linecap="round" stroke-linejoin="round"/>
<path d="M86.3691 128.353C88.1791 128.263 89.9792 128.183 91.7892 128.123C93.3592 128.063 94.9192 128.023 96.4792 128.003C99.9592 127.923 103.429 127.903 106.909 127.943C110.029 127.943 113.369 127.993 116.099 126.593C116.475 126.403 116.836 126.186 117.179 125.943" stroke="#1D1D1B" stroke-linecap="round" stroke-linejoin="round"/>
<path d="M99.3301 118.403C100.49 118.753 101.669 119.04 102.86 119.263C106.115 119.881 109.448 119.965 112.73 119.513L113.21 119.293C115.449 118.272 117.798 117.51 120.21 117.023C120.88 116.893 121.53 116.783 122.21 116.703L122.79 116.623C123.193 116.275 123.708 116.087 124.24 116.093C124.81 116.099 125.375 116.187 125.92 116.353C126.26 116.453 126.59 116.553 126.92 116.673C128.92 117.333 130.74 118.213 132.64 119.073L132.86 119.173C134.794 121.01 136.878 122.682 139.09 124.173L140.34 125.003C140.246 125.434 140.011 125.822 139.672 126.106C139.334 126.39 138.911 126.554 138.47 126.573C137.582 126.578 136.709 126.347 135.94 125.903C133.572 124.649 131.314 123.197 129.19 121.563" stroke="#1D1D1B" stroke-linecap="round" stroke-linejoin="round"/>
<path d="M122.34 118.233C123.012 118.173 123.69 118.262 124.324 118.494C124.959 118.725 125.534 119.094 126.01 119.573L128.89 121.833C131.33 123.763 133.76 125.703 136.15 127.753C135.911 128.076 135.596 128.336 135.234 128.511C134.871 128.685 134.472 128.768 134.07 128.753C133.265 128.708 132.479 128.497 131.76 128.133C131.28 127.913 130.76 127.683 130.34 127.423C129.221 126.826 128.142 126.158 127.11 125.423C125.63 124.423 124.2 123.203 122.75 122.033C121.916 121.745 121.049 121.56 120.17 121.483" stroke="#1D1D1B" stroke-linecap="round" stroke-linejoin="round"/>
<path d="M113.93 120.883C115.116 120.232 116.498 120.034 117.82 120.323" stroke="#1D1D1B" stroke-linecap="round" stroke-linejoin="round"/>
<path d="M118.971 120.813C119.261 121.123 119.551 121.433 119.861 121.743C121.261 123.217 122.727 124.623 124.261 125.963C125.151 126.763 126.071 127.533 127.001 128.283" stroke="#1D1D1B" stroke-linecap="round" stroke-linejoin="round"/>
<path d="M114.461 124.354C115.361 124.354 116.271 124.354 117.081 124.354C117.851 124.964 118.641 125.584 119.451 126.174C121.171 127.513 123.149 128.483 125.261 129.024C125.628 129.123 126.014 129.123 126.381 129.024C126.554 128.976 126.709 128.877 126.825 128.739C126.941 128.602 127.013 128.433 127.031 128.254V128.204" stroke="#1D1D1B" stroke-linecap="round" stroke-linejoin="round"/>
<path d="M116.189 126.813C117.277 126.953 118.383 126.772 119.369 126.293" stroke="#1D1D1B" stroke-linecap="round" stroke-linejoin="round"/>
<path d="M124.359 125.853C125.243 125.903 126.129 125.822 126.989 125.613" stroke="#1D1D1B" stroke-linecap="round" stroke-linejoin="round"/>
<path d="M139.17 123.943C140.212 124.221 141.32 124.115 142.29 123.643C142.314 123.327 142.237 123.012 142.07 122.743C141.928 122.503 141.742 122.293 141.52 122.123C141.026 121.788 140.478 121.541 139.9 121.393L132.58 119.033" stroke="#1D1D1B" stroke-linecap="round" stroke-linejoin="round"/>
<path d="M106.251 60.4727C104.63 67.2569 102.528 73.9171 99.9609 80.4027C102.041 80.2727 103.861 79.0527 105.711 78.0927C107.561 77.1327 109.781 76.4027 111.711 77.2927C112.871 77.961 113.842 78.9144 114.531 80.0627" stroke="#1D1D1B" stroke-linecap="round" stroke-linejoin="round"/>
<path d="M111.49 66.833C111.35 69.6197 111.217 72.4097 111.09 75.203" stroke="#1D1D1B" stroke-linecap="round" stroke-linejoin="round"/>
<path d="M113.829 68.583C113.759 72.5747 114.735 76.5152 116.659 80.013C116.379 80.253 116.099 80.513 115.829 80.763C115.015 81.534 114.25 82.3557 113.539 83.223C114.935 83.9964 116.147 85.0644 117.089 86.353C117.139 87.073 117.169 87.783 117.169 88.503C117.219 92.893 116.509 97.293 116.329 101.693C116.11 105.898 116.827 110.099 118.429 113.993C118.904 115.048 119.483 116.054 120.159 116.993" stroke="#1D1D1B" stroke-linecap="round" stroke-linejoin="round"/>
<path d="M117.52 111.173C119.64 112.199 121.813 113.114 124.03 113.913" stroke="#1D1D1B" stroke-linecap="round" stroke-linejoin="round"/>
<path d="M118.311 113.934L118.431 113.994C120.261 114.845 122.179 115.492 124.151 115.924" stroke="#1D1D1B" stroke-linecap="round" stroke-linejoin="round"/>
<path d="M127.01 116.203C126.9 113.803 125.91 111.553 125.24 109.253C124.004 104.938 123.846 100.385 124.78 95.9935C125.295 93.5585 126.136 91.204 127.28 88.9935L127.4 88.7735C131.234 81.7039 134.097 74.149 135.91 66.3135" stroke="#1D1D1B" stroke-linecap="round" stroke-linejoin="round"/>
<path d="M136.249 70.7727C136.159 69.3827 136.059 67.8527 135.959 66.2927C135.809 64.0327 135.649 61.7227 135.529 59.7227" stroke="#1D1D1B" stroke-linecap="round" stroke-linejoin="round"/>
<path d="M126.32 96.1934C127.716 92.1468 129.431 88.2177 131.45 84.4434C132.329 82.7154 133.385 81.0833 134.6 79.5734C135.774 78.1234 137.266 76.9634 138.96 76.1834L137.55 73.4334C141.725 74.6913 146.06 75.338 150.42 75.3534C146.88 71.7434 145.08 66.7734 144.04 61.8334C143.606 59.1723 143.009 56.5407 142.25 53.9534C141.87 52.8233 141.364 51.7398 140.74 50.7234C139.997 49.4206 138.972 48.3001 137.74 47.4434" stroke="#1D1D1B" stroke-linecap="round" stroke-linejoin="round"/>
<path d="M140.91 50.623C143.546 51.1436 146.014 52.3005 148.1 53.993C148.261 53.6769 148.504 53.4093 148.802 53.2177C149.101 53.0262 149.446 52.9176 149.8 52.9031C150.509 52.896 151.213 53.0145 151.88 53.2531C153.04 53.6031 154.19 53.9431 155.27 54.1831C158.383 54.1605 161.46 54.8443 164.27 56.1831C169.65 59.8431 173.81 65.0731 177.27 70.6131C179.72 74.6131 181.83 78.703 183.99 82.813C184.87 84.473 185.75 86.1231 186.67 87.7531" stroke="#1D1D1B" stroke-linecap="round" stroke-linejoin="round"/>
<path d="M161.081 76.6836C160.377 84.5494 161.355 92.475 163.951 99.9336" stroke="#1D1D1B" stroke-linecap="round" stroke-linejoin="round"/>
<path d="M163.25 63.8135C165.522 75.3331 166.401 87.084 165.87 98.8135" stroke="#1D1D1B" stroke-linecap="round" stroke-linejoin="round"/>
<path d="M175.84 77.4834C176.588 85.6725 176.531 93.9154 175.67 102.093" stroke="#1D1D1B" stroke-linecap="round" stroke-linejoin="round"/>
<path d="M185.169 89.4834C181.539 94.3014 178.681 99.6556 176.699 105.353V105.443" stroke="#1D1D1B" stroke-linecap="round" stroke-linejoin="round"/>
<path d="M180.99 102.903C182.115 101.056 183.643 99.4871 185.459 98.3131C187.276 97.1391 189.334 96.3905 191.48 96.1233C191.813 96.0475 192.161 96.0718 192.48 96.1933C192.632 96.2558 192.757 96.3712 192.83 96.5183C192.904 96.6654 192.922 96.8342 192.88 96.9933C192.763 97.2019 192.575 97.3615 192.35 97.4433C189.25 99.0033 186.1 100.563 180.99 102.903Z" stroke="#1D1D1B" stroke-linecap="round" stroke-linejoin="round"/>
<path d="M174.86 104.123C174.8 104.283 174.73 104.433 174.67 104.593C174.184 105.674 173.87 106.825 173.74 108.003C173.71 108.394 173.73 108.787 173.8 109.173C173.908 110.133 174.376 111.015 175.11 111.643" stroke="#1D1D1B" stroke-linecap="round" stroke-linejoin="round"/>
<path d="M175.25 112.853C175.25 112.453 175.25 112.053 175.25 111.653C175.28 110.771 175.439 109.899 175.72 109.063C176.041 108.144 176.656 107.357 177.47 106.823C177.739 106.656 178.032 106.535 178.34 106.463" stroke="#1D1D1B" stroke-linecap="round" stroke-linejoin="round"/>
<path d="M176.91 112.463C178.156 111.766 179.569 111.421 180.996 111.467C182.424 111.513 183.811 111.947 185.01 112.723C187.35 114.383 189.01 116.833 190.51 119.253C191.34 120.553 192.18 122.143 191.51 123.553C191.168 124.109 190.689 124.567 190.117 124.882C189.546 125.198 188.903 125.36 188.25 125.353C188.13 125.363 188.01 125.363 187.89 125.353" stroke="#1D1D1B" stroke-linecap="round" stroke-linejoin="round"/>
<path d="M181.57 105.603C183.302 104.932 185.155 104.634 187.009 104.729C188.863 104.824 190.677 105.309 192.33 106.153C193.984 106.997 195.441 108.18 196.606 109.626C197.771 111.072 198.617 112.747 199.09 114.543" stroke="#1D1D1B" stroke-linecap="round" stroke-linejoin="round"/>
<path d="M188.25 125.423C190.55 125.753 194.15 125.743 195.65 123.963C196.523 122.897 197.234 121.707 197.76 120.433C198.16 119.563 198.5 118.673 198.83 117.783" stroke="#1D1D1B" stroke-linecap="round" stroke-linejoin="round"/>
<path d="M197.929 120.523C199.035 120 200.021 119.254 200.825 118.331C201.628 117.409 202.233 116.33 202.599 115.163C202.97 113.471 203.031 111.727 202.779 110.013C202.645 107.315 202.253 104.637 201.609 102.013C200.648 98.8531 199.142 95.8853 197.159 93.2432C193.829 88.6232 189.419 84.5732 184.029 82.7432" stroke="#1D1D1B" stroke-linecap="round" stroke-linejoin="round"/>
<path d="M188.631 102.843C190.489 102.171 192.507 102.073 194.421 102.563C196.316 103.046 198.158 103.716 199.921 104.563" stroke="#1D1D1B" stroke-linecap="round" stroke-linejoin="round"/>
<path d="M159.109 115.403L162.019 111.873C163.159 110.493 164.309 109.123 165.479 107.743C166.426 106.603 167.389 105.466 168.369 104.333C169.239 103.333 170.109 102.333 170.999 101.333L172.619 102.753C171.749 103.753 170.849 104.753 169.949 105.753C168.499 107.383 167.029 109.103 165.649 110.823C164.579 112.153 163.559 113.483 162.649 114.823L162.549 114.963" stroke="#1D1D1B" stroke-linecap="round" stroke-linejoin="round"/>
<path d="M166.25 114.184C165.04 114.314 163.83 114.504 162.63 114.754C161.43 115.004 160.32 115.264 159.17 115.604C158.57 115.764 157.97 115.954 157.37 116.144C156.86 116.754 156.37 117.364 155.9 118.004C154.05 120.494 152.436 123.153 151.08 125.944C151.236 126.147 151.431 126.317 151.655 126.443C151.878 126.569 152.125 126.647 152.38 126.674C152.407 126.678 152.434 126.678 152.46 126.674C152.967 126.688 153.46 126.509 153.84 126.174C153.173 126.871 152.558 127.617 152 128.404C152.122 128.865 152.404 129.268 152.797 129.539C153.189 129.811 153.666 129.933 154.14 129.884C154.629 129.854 155.107 129.732 155.55 129.524C155.972 129.334 156.383 129.12 156.78 128.884C160.344 126.864 164.016 125.041 167.78 123.424" stroke="#1D1D1B" stroke-linecap="round" stroke-linejoin="round"/>
<path d="M155.25 124.594C156.711 123.485 158.028 122.199 159.17 120.764C161.135 120.467 163.069 119.995 164.95 119.354C161.68 121.194 158.41 123.064 155.25 124.594Z" stroke="#1D1D1B" stroke-linecap="round" stroke-linejoin="round"/>
<path d="M155.69 117.843C154.29 118.333 152.92 118.843 151.61 119.463C151.17 119.649 150.74 119.849 150.32 120.063C150.14 121.03 150.029 122.009 149.99 122.993C149.995 123.029 149.995 123.066 149.99 123.103C149.892 124.088 149.514 125.025 148.9 125.803C148.877 125.993 148.904 126.185 148.98 126.361C149.056 126.537 149.176 126.689 149.33 126.803C149.64 127.023 150.07 127.063 150.78 126.473C149.48 128.113 148.17 129.763 146.99 131.473C148.87 130.053 150.69 128.553 152.46 126.993" stroke="#1D1D1B" stroke-linecap="round" stroke-linejoin="round"/>
<path d="M155.721 129.893C155.869 130.278 156.119 130.615 156.442 130.87C156.766 131.125 157.152 131.289 157.561 131.343C158.381 131.44 159.213 131.344 159.991 131.063C160.511 130.903 161.021 130.723 161.521 130.523C163.701 129.663 165.761 128.523 167.921 127.573" stroke="#1D1D1B" stroke-linecap="round" stroke-linejoin="round"/>
<path d="M161.59 130.703C161.569 130.895 161.6 131.088 161.679 131.264C161.758 131.44 161.883 131.592 162.04 131.703C162.36 131.926 162.726 132.073 163.11 132.133C163.729 132.266 164.358 132.339 164.99 132.353C166.804 132.417 168.605 132.039 170.24 131.253C171.059 130.865 171.826 130.375 172.52 129.793" stroke="#1D1D1B" stroke-linecap="round" stroke-linejoin="round"/>
<path d="M166.49 114.223C166.928 114.306 167.344 114.479 167.712 114.73C168.08 114.981 168.393 115.306 168.63 115.683C168.899 116.06 169.096 116.484 169.21 116.933C169.67 117.523 170.47 117.723 170.98 118.253C171.41 118.743 171.633 119.381 171.6 120.033C171.6 120.673 171.43 121.303 171.43 121.933C171.914 122.206 172.293 122.632 172.508 123.145C172.724 123.657 172.763 124.226 172.62 124.763C172.312 125.344 172.115 125.979 172.04 126.633C172.113 126.981 172.234 127.318 172.4 127.633C172.531 127.877 172.641 128.131 172.73 128.393L172.79 128.653C172.823 128.826 172.819 129.005 172.78 129.177C172.74 129.349 172.665 129.511 172.56 129.653" stroke="#1D1D1B" stroke-linecap="round" stroke-linejoin="round"/>
<path d="M176.77 112.713C176.35 112.943 175.91 113.153 175.48 113.363C173.357 114.361 171.121 115.096 168.82 115.553" stroke="#1D1D1B" stroke-linecap="round" stroke-linejoin="round"/>
<path d="M184.25 125.973C185.46 125.763 186.67 125.563 187.89 125.383L188.51 125.293" stroke="#1D1D1B" stroke-linecap="round" stroke-linejoin="round"/>
<path d="M173.189 128.243C176.829 127.363 180.496 126.606 184.189 125.973" stroke="#1D1D1B" stroke-linecap="round" stroke-linejoin="round"/>
<path d="M2.25 67.203C7.83 66.443 7.50001 66.493 12.76 65.653L13.19 65.583C27.61 68.483 43.19 71.963 57.53 75.253" stroke="#1D1D1B" stroke-linecap="round" stroke-linejoin="round"/>
<path d="M12.7799 65.9131C10.7835 69.4188 10.1262 73.5296 10.9299 77.4831" stroke="#1D1D1B" stroke-width="0.5" stroke-linecap="round" stroke-linejoin="round"/>
<path d="M3.05078 77.743C8.23078 77.303 6.05079 77.593 10.9308 77.683H11.0708C26.3708 79.603 41.6041 81.9364 56.7708 84.683" stroke="#1D1D1B" stroke-linecap="round" stroke-linejoin="round"/>
<path d="M4.25 82.793C24.68 83.023 38.99 85.273 58.98 89.493" stroke="#1D1D1B" stroke-linecap="round" stroke-linejoin="round"/>
<path d="M4.25 93.8633C25.25 94.0433 38.3 94.1033 59.25 96.3133" stroke="#1D1D1B" stroke-linecap="round" stroke-linejoin="round"/>
<path d="M4.25 97.5829C10.62 97.4229 14.87 97.4229 19.25 97.5829C22.97 97.7429 26.8 98.0329 32.12 98.4929H32.45" stroke="#1D1D1B" stroke-linecap="round" stroke-linejoin="round"/>
<path d="M3.05078 105.483C12.1508 105.483 18.3908 105.913 26.2808 106.013C28.3308 106.013 30.5008 106.013 32.8608 106.013H33.1608" stroke="#1D1D1B" stroke-linecap="round" stroke-linejoin="round"/>
<path d="M32.0801 98.6133C31.741 101.071 32.0088 103.573 32.8601 105.903" stroke="#1D1D1B" stroke-width="0.5" stroke-linecap="round" stroke-linejoin="round"/>
<path d="M8.01031 109.534L3.07031 109.354C3.16031 109.424 3.5603 109.424 4.3703 109.424C5.7803 109.484 6.96031 109.534 8.01031 109.534ZM8.01031 109.534L18.8603 109.954C15.2533 109.627 11.6318 109.487 8.01031 109.534Z" stroke="#1D1D1B" stroke-linecap="round" stroke-linejoin="round"/>
<path d="M1.88086 119.243L4.32086 119.643C8.60086 120.333 12.8208 121.013 17.1108 121.753L18.5309 121.913L18.9809 121.973" stroke="#1D1D1B" stroke-linecap="round" stroke-linejoin="round"/>
<path d="M16.5292 125.143H16.4592L13.4592 124.593L12.1992 124.373" stroke="#1D1D1B" stroke-linecap="round" stroke-linejoin="round"/>
<path d="M12.1797 124.354C13.6597 124.634 15.1097 124.894 16.4597 125.124" stroke="#1D1D1B" stroke-linecap="round" stroke-linejoin="round"/>
<path d="M12.1794 124.353L11.2694 124.183L9.43945 123.843" stroke="#1D1D1B" stroke-linecap="round" stroke-linejoin="round"/>
<path d="M9.4201 123.853L2.08008 122.533C4.43008 122.933 6.9501 123.353 9.4201 123.853Z" stroke="#1D1D1B" stroke-linecap="round" stroke-linejoin="round"/>
<path d="M16.0605 130.873L15.5305 130.773L12.9505 130.273C9.03047 129.473 5.13047 128.543 1.23047 127.843" stroke="#1D1D1B" stroke-linecap="round" stroke-linejoin="round"/>
<path d="M15.08 134.234L1.25 130.954L1 130.894" stroke="#1D1D1B" stroke-linecap="round" stroke-linejoin="round"/>
<path d="M15.2491 148.523C15.0891 148.453 14.9191 148.393 14.7591 148.313C10.7033 146.504 6.76255 144.446 2.95905 142.153L1.78906 141.483" stroke="#1D1D1B" stroke-linecap="round" stroke-linejoin="round"/>
<path d="M158.541 100.354C153.464 107.188 147.69 113.475 141.311 119.114" stroke="#1D1D1B" stroke-linecap="round" stroke-linejoin="round"/>
<path d="M146.01 120.143C147.24 119.433 148.46 118.703 149.66 117.953C151.46 116.826 153.226 115.639 154.96 114.393C156.69 113.153 158.38 111.853 160.03 110.513" stroke="#1D1D1B" stroke-linecap="round" stroke-linejoin="round"/>
<path d="M96.4793 128.203C91.0133 130.987 85.1673 132.951 79.1293 134.033L78.6593 134.113C78.4483 134.959 78.321 135.823 78.2793 136.693C78.2793 136.933 78.2793 137.183 78.2793 137.433" stroke="#1D1D1B" stroke-linecap="round" stroke-linejoin="round"/>
<path d="M79.1406 134.103C82.9806 134.783 86.9206 134.163 90.7206 133.313C94.5206 132.463 98.2906 131.393 102.181 131.143C108.995 130.73 115.718 132.869 121.041 137.143" stroke="#1D1D1B" stroke-linecap="round" stroke-linejoin="round"/>
<path d="M121.34 137.414C124.353 133.899 128.635 131.721 133.25 131.354C137.74 131.044 142.15 132.484 146.57 133.354C152.303 134.557 158.196 134.804 164.01 134.084H164.31C164.639 135.237 165.088 136.353 165.65 137.414" stroke="#1D1D1B" stroke-linecap="round" stroke-linejoin="round"/>
<path d="M129.759 128.443C126.593 131.056 123.77 134.06 121.359 137.383" stroke="#1D1D1B" stroke-linecap="round" stroke-linejoin="round"/>
<path d="M125.25 139.723C124.154 139.012 122.851 138.691 121.55 138.813C120.372 138.887 119.26 139.384 118.42 140.213C120.708 140.354 123.005 140.189 125.25 139.723Z" stroke="#1D1D1B" stroke-linecap="round" stroke-linejoin="round"/>
<path d="M149.76 139.353C155.56 139.073 161.363 138.863 167.17 138.723H167.25" stroke="#1D1D1B" stroke-linecap="round" stroke-linejoin="round"/>
<path d="M118.25 141.594C120.747 142.143 123.351 141.923 125.72 140.964C132.04 140.444 138.373 140.007 144.72 139.654C146.38 139.554 148.05 139.474 149.72 139.394" stroke="#1D1D1B" stroke-linecap="round" stroke-linejoin="round"/>
<path d="M172.85 130.013C170.85 132.846 168.96 135.759 167.18 138.753" stroke="#1D1D1B" stroke-linecap="round" stroke-linejoin="round"/>
<path d="M170.309 131.413C169.026 133.51 167.628 135.533 166.119 137.473" stroke="#1D1D1B" stroke-linecap="round" stroke-linejoin="round"/>
<path d="M164.991 132.604C164.681 133.114 164.361 133.604 164.051 134.114" stroke="#1D1D1B" stroke-linecap="round" stroke-linejoin="round"/>
<path d="M125.48 139.703C138.828 138.162 152.254 137.394 165.69 137.403H166.03" stroke="#1D1D1B" stroke-linecap="round" stroke-linejoin="round"/>
<path d="M117.88 140.513L78.3496 137.513" stroke="#1D1D1B" stroke-linecap="round" stroke-linejoin="round"/>
<path d="M117.97 141.823C104.12 141.273 90.2903 140.243 76.5003 138.823H76.3203" stroke="#1D1D1B" stroke-linecap="round" stroke-linejoin="round"/>
<path d="M76.25 137.223L77.95 136.683" stroke="#1D1D1B" stroke-linecap="round" stroke-linejoin="round"/>
<path d="M165.141 101.043C165.351 101.253 165.561 101.463 165.761 101.683C166.571 102.503 167.371 103.323 168.161 104.153" stroke="#1D1D1B" stroke-linecap="round" stroke-linejoin="round"/>
<path d="M169.98 105.753C170.28 106.556 170.755 107.283 171.371 107.88C171.987 108.477 172.728 108.929 173.54 109.203" stroke="#1D1D1B" stroke-linecap="round" stroke-linejoin="round"/>
<path d="M149.75 139.353C159.216 141.569 168.802 143.238 178.46 144.353L178.6 144.243C182.746 141.056 187.563 138.855 192.686 137.805C197.81 136.755 203.104 136.884 208.17 138.183C205.31 136.353 201.93 135.563 198.61 134.793C190.37 132.903 181.29 129.923 172.84 129.993" stroke="#1D1D1B" stroke-linecap="round" stroke-linejoin="round"/>
<path d="M184.189 125.973C194.909 126.883 212.099 130.663 222.289 134.883L222.979 135.173" stroke="#1D1D1B" stroke-linecap="round" stroke-linejoin="round"/>
<path d="M209.07 137.853C209.144 137.337 209.342 136.846 209.647 136.423C209.951 136 210.354 135.657 210.82 135.423C211.755 134.959 212.777 134.697 213.82 134.653C216.604 134.401 219.411 134.624 222.12 135.313L222.97 135.553" stroke="#1D1D1B" stroke-linecap="round" stroke-linejoin="round"/>
<path d="M178.869 144.603C178.832 145.544 178.923 146.486 179.139 147.403L211.319 139.163L223.319 136.093" stroke="#1D1D1B" stroke-linecap="round" stroke-linejoin="round"/>
<path d="M208.07 138.923H208.3L209.22 138.763L211.12 138.433" stroke="#1D1D1B" stroke-linecap="round" stroke-linejoin="round"/>
<path d="M223.039 135.623L223.379 135.693C224.019 135.803 224.639 135.923 225.269 136.053C220.979 137.623 216.399 138.953 211.819 140.283C211.049 140.304 210.287 140.443 209.559 140.693C199.229 143.513 189.089 146.063 178.729 148.933L155.729 144.533C151.446 143.819 147.228 142.756 143.119 141.353" stroke="#1D1D1B" stroke-linecap="round" stroke-linejoin="round"/>
<path d="M178.43 147.583C167.29 145.583 156.19 143.373 145.04 140.823C144.98 140.633 144.91 140.433 144.85 140.233L144.77 140.003" stroke="#1D1D1B" stroke-linecap="round" stroke-linejoin="round"/>
<path d="M143.11 141.243C143.038 141.194 142.985 141.121 142.961 141.037C142.937 140.953 142.944 140.863 142.98 140.783C143.013 140.703 143.063 140.63 143.127 140.572C143.191 140.513 143.268 140.469 143.35 140.443C143.513 140.38 143.686 140.346 143.86 140.343L144.79 140.253" stroke="#1D1D1B" stroke-linecap="round" stroke-linejoin="round"/>
<path d="M117.25 88.5029C118.63 89.701 120.387 90.3772 122.214 90.4137C124.041 90.4503 125.823 89.8449 127.25 88.7029" stroke="#1D1D1B" stroke-linecap="round" stroke-linejoin="round"/>
<path d="M102.019 49.1135C102.014 49.1332 102.014 49.1538 102.019 49.1735C102.211 50.8865 102.624 52.5673 103.249 54.1735C104.095 56.303 105.204 58.3186 106.549 60.1735C106.639 60.3135 106.729 60.4435 106.829 60.5735C108.958 63.3815 111.298 66.0225 113.829 68.4735C114.329 68.9635 114.829 69.4735 115.309 69.9535C116.408 71.1462 117.624 72.225 118.939 73.1735C120.271 74.1261 121.872 74.6304 123.509 74.6135C126.359 74.4635 128.659 72.2435 130.349 69.9435C134.914 63.7103 137.122 56.0605 136.579 48.3535" stroke="#1D1D1B" stroke-linecap="round" stroke-linejoin="round"/>
<path d="M136.66 37.1232C136.744 36.4073 136.998 35.7217 137.4 35.1232C137.428 35.082 137.462 35.0449 137.5 35.0132C137.71 34.7613 137.995 34.5836 138.314 34.5061C138.633 34.4287 138.968 34.4557 139.27 34.5832C139.99 34.9732 140.08 35.9432 140.09 36.7632C140.161 38.8626 139.99 40.9631 139.58 43.0232C139.264 44.5768 138.578 46.0312 137.58 47.2632C137.28 47.6286 136.945 47.9636 136.58 48.2632" stroke="#1D1D1B" stroke-linecap="round" stroke-linejoin="round"/>
<path d="M99.8105 47.6934C99.9855 49.7986 100.904 51.7729 102.401 53.2634" stroke="#1D1D1B" stroke-linecap="round" stroke-linejoin="round"/>
<path d="M101.97 49.1232C100.391 48.1353 99.0936 46.7565 98.2036 45.1202C97.3137 43.4839 96.8612 41.6456 96.89 39.7832" stroke="#1D1D1B" stroke-linecap="round" stroke-linejoin="round"/>
<path d="M98.2492 41.0835C97.9096 40.6442 97.599 40.1832 97.3192 39.7035C95.8512 37.1813 95.2341 34.2536 95.5592 31.3535" stroke="#1D1D1B" stroke-linecap="round" stroke-linejoin="round"/>
<path d="M96.9591 33.8028C96.5197 33.0124 96.1836 32.1688 95.9591 31.2928C95.1054 27.7797 95.6277 24.0731 97.4191 20.9328C98.4819 19.0666 99.8318 17.3793 101.419 15.9328C102.216 15.198 103.058 14.5134 103.939 13.8828C104.933 13.1627 105.965 12.4951 107.029 11.8828" stroke="#1D1D1B" stroke-linecap="round" stroke-linejoin="round"/>
<path d="M106.939 13.8028C107.339 13.2353 107.798 12.7123 108.309 12.2428C108.412 12.1475 108.518 12.0574 108.629 11.9728C110.117 10.7471 111.887 9.91194 113.779 9.54283C115.688 9.13937 117.661 9.13937 119.569 9.54283C121.235 9.91041 122.838 10.5167 124.329 11.3428C126.943 12.8248 129.306 14.7115 131.329 16.9328C133.692 19.3145 135.579 22.1246 136.889 25.2128C138.191 28.3233 138.385 31.7863 137.439 35.0228" stroke="#1D1D1B" stroke-linecap="round" stroke-linejoin="round"/>
<path d="M101.159 15.6133C99.9881 14.3596 99.2794 12.7439 99.1503 11.0331C99.0212 9.32222 99.4795 7.61851 100.449 6.20327C101.252 5.15831 102.314 4.34047 103.529 3.83022C104.744 3.31998 106.071 3.13492 107.379 3.29327C108.158 3.38944 108.916 3.61593 109.619 3.96327" stroke="#1D1D1B" stroke-linecap="round" stroke-linejoin="round"/>
<path d="M107.41 3.0831C108.797 1.81157 110.59 1.07506 112.47 1.00543C114.35 0.935804 116.193 1.53761 117.67 2.7031C117.965 2.92803 118.243 3.17543 118.5 3.4431" stroke="#1D1D1B" stroke-linecap="round" stroke-linejoin="round"/>
<path d="M117.82 2.50293C119.23 2.58783 120.621 2.87407 121.95 3.35293C122.619 3.59086 123.231 3.96531 123.748 4.45251C124.264 4.9397 124.674 5.52899 124.95 6.18293C125.52 7.77293 124.95 9.51293 124.46 11.1229" stroke="#1D1D1B" stroke-linecap="round" stroke-linejoin="round"/>
<path d="M106.49 38.3535C107.586 39.36 108.798 40.2328 110.1 40.9535C110.53 41.1935 110.98 41.4235 111.43 41.6235" stroke="#1D1D1B" stroke-width="0.5" stroke-linecap="round" stroke-linejoin="round"/>
<path d="M109.82 37.0635C111.037 38.2807 112.441 39.2937 113.98 40.0635L114.64 40.3835" stroke="#1D1D1B" stroke-width="0.5" stroke-linecap="round" stroke-linejoin="round"/>
<path d="M114.25 36.9234C114.849 38.1886 115.757 39.2823 116.89 40.1034L117.18 40.3134V39.9434L117.93 30.2334" stroke="#1D1D1B" stroke-width="0.5" stroke-linecap="round" stroke-linejoin="round"/>
<path d="M118.76 40.0629C119.862 38.0866 121.457 36.4295 123.39 35.2529" stroke="#1D1D1B" stroke-width="0.5" stroke-linecap="round" stroke-linejoin="round"/>
<path d="M125.74 40.5335C126.929 41.1995 128.296 41.4758 129.65 41.3235C130.253 41.252 130.843 41.0937 131.4 40.8535C132.233 40.4991 132.982 39.9746 133.6 39.3135" stroke="#1D1D1B" stroke-width="0.5" stroke-linecap="round" stroke-linejoin="round"/>
<path d="M125.74 40.533C125.617 40.4364 125.483 40.3558 125.34 40.293C125.467 40.3824 125.601 40.4626 125.74 40.533Z" stroke="#1D1D1B" stroke-width="0.5" stroke-linecap="round" stroke-linejoin="round"/>
<path d="M120.051 40.183C121.245 39.7589 122.555 39.8038 123.717 40.3087C124.879 40.8136 125.806 41.7408 126.311 42.903C126.526 43.3446 126.629 43.8322 126.611 44.323C126.582 44.7772 126.419 45.2126 126.141 45.573C126.453 45.3849 126.717 45.1256 126.909 44.8163C127.102 44.5069 127.219 44.1562 127.251 43.793C127.297 43.0684 127.122 42.3468 126.751 41.723C126.502 41.2626 126.161 40.8577 125.751 40.533" stroke="#1D1D1B" stroke-width="0.5" stroke-linecap="round" stroke-linejoin="round"/>
<path d="M131.789 41.683C132.531 41.6598 133.265 41.5284 133.969 41.293C134.659 41.013 136.439 37.833 136.659 37.123" stroke="#1D1D1B" stroke-width="0.5" stroke-linecap="round" stroke-linejoin="round"/>
<path d="M138.83 36.5527C138.085 37.2676 137.521 38.1489 137.184 39.1242C136.847 40.0994 136.746 41.1408 136.89 42.1627" stroke="#1D1D1B" stroke-width="0.5" stroke-linecap="round" stroke-linejoin="round"/>
<path d="M137.01 40.8633C137.351 41.5182 137.491 42.2586 137.415 42.9928C137.338 43.727 137.048 44.4226 136.58 44.9933" stroke="#1D1D1B" stroke-width="0.5" stroke-linecap="round" stroke-linejoin="round"/>
<path d="M138.439 37.6328C138.491 38.9944 138.407 40.3578 138.189 41.7028" stroke="#1D1D1B" stroke-width="0.5" stroke-linecap="round" stroke-linejoin="round"/>
<path d="M109.651 41.833H109.561C108.831 41.8863 108.124 42.1049 107.491 42.4722C106.859 42.8395 106.319 43.3459 105.911 43.953C105.094 45.2007 104.359 46.5001 103.711 47.843C103.351 48.493 102.801 49.193 102.051 49.173" stroke="#1D1D1B" stroke-width="0.5" stroke-linecap="round" stroke-linejoin="round"/>
<path d="M106.66 52.1334C108.09 51.5834 109.66 52.1334 111.07 52.8334C112.48 53.5334 113.91 54.2534 115.43 54.0434" stroke="#1D1D1B" stroke-width="0.5" stroke-linecap="round" stroke-linejoin="round"/>
<path d="M120.52 52.8628C122.62 52.3528 124.3 50.8628 125.95 49.4528C127.6 48.0428 129.47 46.7028 131.63 46.5928" stroke="#1D1D1B" stroke-width="0.5" stroke-linecap="round" stroke-linejoin="round"/>
<path d="M123.119 53.1234C125.029 51.5439 127.357 50.5537 129.819 50.2734" stroke="#1D1D1B" stroke-width="0.5" stroke-linecap="round" stroke-linejoin="round"/>
<path d="M123.759 52.8936C123.72 53.1943 123.769 53.4999 123.899 53.7736" stroke="#1D1D1B" stroke-width="0.5" stroke-linecap="round" stroke-linejoin="round"/>
<path d="M125.48 53.2228C125.621 52.831 125.908 52.5086 126.28 52.3224C126.653 52.1362 127.082 52.1005 127.48 52.2228C126.86 52.5728 126.25 52.9128 125.48 53.2228Z" stroke="#1D1D1B" stroke-width="0.5" stroke-linecap="round" stroke-linejoin="round"/>
<path d="M110.98 56.1632C111.03 55.9756 111.144 55.8119 111.304 55.7018C111.464 55.5917 111.658 55.5425 111.85 55.5632C112.236 55.614 112.602 55.7658 112.91 56.0032C112.303 56.2685 111.624 56.3247 110.98 56.1632Z" stroke="#1D1D1B" stroke-width="0.5" stroke-linecap="round" stroke-linejoin="round"/>
<path d="M107.25 55.6428C107.619 55.3155 108.05 55.0654 108.517 54.9074C108.984 54.7494 109.478 54.6866 109.97 54.7228C111.338 54.6963 112.704 54.8305 114.04 55.1228" stroke="#1D1D1B" stroke-width="0.5" stroke-linecap="round" stroke-linejoin="round"/>
<path d="M116.6 55.3535C116.87 56.3035 117.15 57.2435 117.43 58.1835" stroke="#1D1D1B" stroke-width="0.5" stroke-linecap="round" stroke-linejoin="round"/>
<path d="M116.77 63.573C116.765 63.86 116.828 64.1441 116.955 64.4016C117.082 64.659 117.269 64.8824 117.5 65.053C117.968 65.3829 118.484 65.6392 119.03 65.813C119.885 66.2333 120.854 66.3632 121.79 66.183C122.441 65.8905 123.039 65.4917 123.56 65.003C124.146 64.6316 124.664 64.1613 125.09 63.613C125.189 63.4722 125.259 63.3131 125.296 63.1451C125.333 62.977 125.336 62.8033 125.305 62.634C125.274 62.4647 125.21 62.3032 125.117 62.1588C125.023 62.0145 124.902 61.8901 124.76 61.793" stroke="#1D1D1B" stroke-width="0.5" stroke-linecap="round" stroke-linejoin="round"/>
<path d="M128.76 66.7635C127.533 66.4038 126.233 66.3728 124.99 66.6735C123.75 66.9035 122.53 67.2835 121.27 67.4535C120.562 67.5128 119.857 67.6129 119.16 67.7535C118.47 67.9335 117.79 68.2935 117.74 69.0235C118.74 68.4535 119.99 69.0235 121.14 69.0935C123.78 69.2635 126.05 66.7935 128.76 66.7635Z" stroke="#1D1D1B" stroke-width="0.5" stroke-linecap="round" stroke-linejoin="round"/>
<path d="M120.779 70.7636C121.822 71.1643 122.965 71.2233 124.044 70.9321C125.122 70.641 126.08 70.0146 126.779 69.1436" stroke="#1D1D1B" stroke-width="0.5" stroke-linecap="round" stroke-linejoin="round"/>
<path d="M165.69 101.743C165.859 103.71 165.741 105.69 165.34 107.623" stroke="#1D1D1B" stroke-linecap="round" stroke-linejoin="round"/>
<path d="M165.749 110.883C165.56 111.963 165.748 113.074 166.279 114.033" stroke="#1D1D1B" stroke-linecap="round" stroke-linejoin="round"/>
<path d="M142.391 122.723C144.756 122.311 147.182 122.42 149.501 123.043" stroke="#1D1D1B" stroke-linecap="round" stroke-linejoin="round"/>
<path d="M91.5097 107.823V108.033C91.2568 109.379 91.223 110.757 91.4097 112.113C91.5241 112.72 91.7191 113.308 91.9896 113.863" stroke="#222120" stroke-linecap="round" stroke-linejoin="round"/>
</svg>
