<svg width="189" height="189" viewBox="0 0 189 189" fill="none" xmlns="http://www.w3.org/2000/svg">
<path d="M186.702 49.7369L186.766 49.4629L188.008 49.7461C177.968 52.1333 168.321 55.9444 159.36 61.0637V61.3195C156.26 62.1537 153.19 63.0672 150.151 64.0598L150.051 63.7492C152.457 61.3814 155.185 59.3641 158.154 57.757C161.038 56.1699 164.07 54.8666 167.207 53.8657C173.52 51.8379 180.125 50.7874 186.702 49.7369Z" fill="#D1D0D1"/>
<path d="M155.807 105.595L158.712 119.205C159.224 121.132 159.458 123.123 159.407 125.116H159.142C154.241 122.238 148.991 120.003 143.52 118.466L142.04 118.064C139.335 117.368 136.589 116.843 133.818 116.493C127.88 115.753 121.805 115.798 116.032 114.236L115.895 113.926C118.599 112.708 121.339 111.587 124.116 110.564C133.023 111.249 142.095 111.67 150.609 109.03C151.318 108.518 151.984 107.95 152.601 107.331C153.546 106.523 154.601 105.852 155.734 105.339L155.807 105.595Z" fill="#D1D0D1"/>
<path d="M115.818 137.529C113.047 133.091 111.271 128.105 110.611 122.914L110.099 122.987C109.551 125.874 109.085 128.87 109.771 131.72C110.456 134.57 112.584 137.283 115.48 137.776L115.818 137.529ZM143.517 118.447C145.084 120.653 146.163 123.168 146.681 125.824C147.2 128.479 147.145 131.215 146.522 133.848C145.821 136.377 144.568 138.718 142.852 140.704C141.137 142.69 139.002 144.27 136.601 145.33C134.646 147.385 130.207 148.783 125.639 148.555C124.298 148.494 122.968 148.283 121.674 147.924C115.919 146.308 111.223 141.877 108.61 136.488C105.864 130.798 105.292 124.301 107.003 118.219V118.173C108.154 117.561 109.314 116.977 110.474 116.41C111.278 116.009 112.091 115.616 112.904 115.241L112.995 115.442C113.272 120.937 115.708 126.101 119.773 129.809C123.838 133.518 129.203 135.472 134.701 135.246C137.534 135.255 140.287 134.305 142.512 132.551C144.631 130.724 145.792 127.6 144.796 124.979L142 118.183V118.009L143.517 118.447Z" fill="#3773FF"/>
<path d="M112.582 74.9481C112.316 77.1163 112.381 79.3121 112.774 81.4609C113.109 77.1633 114.329 72.9814 116.357 69.1774C118.385 65.3734 121.177 62.0295 124.558 59.3555C125.327 58.7374 126.125 58.1581 126.952 57.62C126.678 56.606 126.531 55.8844 126.385 55.1536L128.496 55.5373C128.496 54.5142 128.496 53.6099 128.496 52.7056C130.323 53.007 132.351 53.2628 133.858 52.2032C134.558 51.65 135.15 50.9717 135.603 50.2028L140.171 43.3976C141.035 42.775 142.1 42.4981 143.158 42.6211C143.965 42.7951 144.793 42.8475 145.615 42.7764C146.537 42.5466 147.334 41.9666 147.835 41.1596C148.333 40.3629 148.72 39.5025 148.986 38.6019C150.813 39.5154 152.96 40.4288 155.144 41.3423C153.643 40.0978 152.21 38.7745 150.85 37.3779C162.381 42.6296 174.421 46.6852 186.78 49.4811L186.716 49.7551C180.138 50.8056 173.533 51.8561 167.193 53.9114C164.057 54.9123 161.025 56.2155 158.14 57.8026L158.012 57.5652C158.539 56.6408 158.748 55.5688 158.606 54.5142C158.452 53.47 158.098 52.4652 157.565 51.5546C157.36 51.1521 157.085 50.79 156.751 50.4859C156.583 50.3387 156.385 50.2304 156.17 50.1688C155.955 50.1072 155.73 50.0939 155.509 50.1297C151.233 53.4632 146.38 55.9834 141.194 57.5652C137.601 61.4959 133.532 64.9633 129.08 67.8871C125.185 74.3098 120.565 80.2648 115.313 85.6354C113.476 86.9346 111.518 88.0542 109.467 88.9786L109.293 88.5859C109.366 83.7689 109.671 78.9673 110.207 74.1808C110.207 74.3635 110.207 74.5553 110.207 74.738L112.582 74.9481Z" fill="#D1D0D1"/>
<path d="M110.612 122.877C111.272 128.068 113.049 133.054 115.82 137.492L115.482 137.702C112.586 137.209 110.457 134.505 109.772 131.646C109.087 128.787 109.553 125.8 110.101 122.914L110.612 122.877Z" fill="#3773FF"/>
<path d="M96.7358 92.8977L96.4252 92.9616C90.4506 94.213 84.3573 94.9621 78.4101 96.3322C77.6858 95.9908 76.926 95.7305 76.1445 95.5558L76.1993 95.3183C76.9471 92.4426 77.9499 89.6394 79.1958 86.9419C80.4457 84.2292 82.3823 81.8897 84.8141 80.155C88.6692 77.5791 93.7302 77.3051 98.2066 78.5108C94.2662 75.7888 90.2527 73.1885 86.1661 70.71L86.3305 70.4451L101.641 72.7926L101.733 74.4551C102.308 79.7075 102.455 85.8001 103.03 91.0525L103.121 91.3631C101.029 91.9203 98.8917 92.4409 96.7358 92.8977Z" fill="#3773FF"/>
<path d="M101.74 74.3821L101.648 72.7196C102.489 72.1442 104.563 72.2629 105.485 72.7196H105.558C106.472 78.3556 107.385 83.9825 107.87 89.6641C106.326 90.2853 104.745 90.8333 103.128 91.3266L103.037 91.016C102.461 85.7272 102.315 79.6344 101.74 74.3821Z" fill="#3773FF"/>
<path d="M102.371 25.421C102.044 25.8395 101.687 26.2333 101.303 26.5994L101.138 26.1975C99.4827 22.8871 98.1342 19.432 97.1094 15.8755C106.358 12.9953 115.805 10.7941 125.374 9.28955C124.004 10.7032 122.779 12.2518 121.72 13.9116C121.72 14.076 121.638 14.1308 121.565 14.1674L124.616 13.1808L122.944 16.5606C123.958 16.8072 124.89 16.8255 125.758 17.1178C126.201 17.2444 126.609 17.4697 126.952 17.7766C127.296 18.0835 127.565 18.4641 127.74 18.8899C127.878 19.4158 127.961 19.9546 127.987 20.4976C128.204 21.6818 128.852 22.7442 129.804 23.4809C130.757 24.2175 131.948 24.5766 133.149 24.4893C130.408 25.284 129.166 28.408 129.613 31.057C130.061 33.706 131.778 35.944 133.532 37.981C131.88 38.5158 130.268 39.1691 128.709 39.9357C125.191 41.6491 121.958 43.8952 119.126 46.5948C119.126 52.9889 117.061 58.6614 115.207 64.2243C113.95 67.695 113.068 71.2901 112.576 74.9482L110.237 74.6925C110.237 74.5098 110.237 74.3179 110.237 74.1353C110.017 60.9386 108.431 47.8002 105.505 34.9301H105.34C105.34 34.2176 105.34 33.5051 105.34 32.7926L104.902 32.7104C105.987 32.0786 106.904 31.1953 107.577 30.135C108.249 29.0748 108.657 27.8685 108.766 26.6177C108.867 25.3587 108.636 24.0954 108.098 22.9529C107.56 21.8104 106.732 20.8286 105.697 20.1048C105.27 20.1805 104.888 20.4156 104.628 20.7625C104.535 20.8715 104.455 20.9911 104.39 21.1187C104.15 21.6368 103.954 22.1747 103.806 22.7264C103.486 23.7004 103.001 24.612 102.371 25.421Z" fill="#D1D0D1"/>
<path d="M60.6059 137.858C61.9671 138.223 63.3008 138.68 64.6529 139.045C69.3934 140.326 74.3772 140.414 79.1599 139.301C81.4912 138.841 83.6818 137.84 85.5547 136.378C86.4867 135.636 87.2346 134.688 87.7401 133.609C88.2456 132.53 88.495 131.349 88.4689 130.157L88.204 129.801C94.1714 125.49 100.442 121.617 106.968 118.209V118.255C105.257 124.337 105.829 130.834 108.576 136.524C111.18 141.877 115.884 146.344 121.603 147.961C122.897 148.319 124.227 148.531 125.568 148.591V148.755C128.017 157.876 129.797 167.163 130.894 176.542L130.538 176.88C124.198 178.525 118.479 182.005 112.221 183.95C107.343 185.467 102.172 184.955 97.111 185.832L91.5293 186.8C88.9622 187.248 86.3952 187.714 83.7916 187.887C79.7093 188.108 75.6159 188.004 71.5501 187.577C61.2332 186.73 50.9497 185.637 40.6998 184.297C39.6584 179.066 38.62 173.829 37.5846 168.586L37.7673 168.431C31.537 160.222 25.6355 151.767 20.0629 143.064L20.1542 142.937C18.8585 142.016 17.6367 140.996 16.5001 139.886C14.4832 137.982 13.0455 135.547 12.3526 132.861L12.3983 132.806C10.2583 130.972 8.36382 128.869 6.76172 126.549L8.5157 126.421C17.0727 131.473 27.1139 133.409 36.936 131.902C39.4208 133.099 41.4215 135.145 43.8241 136.524C46.8991 138.275 50.5005 138.865 53.9736 138.187V138.031C56.1107 138.575 58.35 138.575 60.4871 138.031L60.6059 137.858Z" fill="#3773FF"/>
<path d="M60.5754 137.949C58.5394 138.457 56.4133 138.484 54.3649 138.029C52.3166 137.574 50.402 136.649 48.7724 135.328C47.1691 133.976 45.9033 132.269 45.0755 130.342C44.2476 128.416 43.8807 126.323 44.0037 124.229C44.2138 121.096 45.5202 118.155 46.9453 115.35C49.6515 110.023 52.8345 104.95 56.4553 100.196C57.7232 99.0375 59.2157 98.1514 60.8403 97.593C62.8025 96.8901 64.8935 96.619 66.9702 96.7983C68.3017 96.0567 69.7563 95.5616 71.2638 95.3368C72.3397 95.1695 73.4324 95.1389 74.516 95.2455C75.0636 95.2997 75.6069 95.3913 76.1421 95.5195C76.9236 95.6942 77.6834 95.9546 78.4077 96.296C77.6708 96.4665 76.9308 96.6492 76.1878 96.844V96.7801C72.0002 99.3304 68.9276 103.365 67.5822 108.079C66.2688 112.806 66.2089 117.792 67.4086 122.548C68.3222 126.604 70.1493 130.706 73.5568 133.099C76.9643 135.492 81.0752 136.488 83.6606 133.227C85.1588 132.057 86.6813 130.916 88.2283 129.801L88.4932 130.158C88.5193 131.349 88.2699 132.53 87.7644 133.609C87.2589 134.688 86.511 135.636 85.579 136.378C83.706 137.84 81.5155 138.841 79.1842 139.301C74.4015 140.414 69.4177 140.326 64.6772 139.045C63.3251 138.68 61.9913 138.223 60.6302 137.858L60.5754 137.949ZM55.0941 121.708C56.0031 113.976 59.0318 106.645 63.8458 100.525L63.6905 100.406C60.5936 103.147 57.4876 106.024 55.4138 109.623C53.3401 113.222 52.4357 117.698 53.9613 121.553L55.0941 121.708Z" fill="#3773FF"/>
<path d="M74.5722 94.5603C74.0087 89.4539 74.7342 84.2878 76.6824 79.5341L76.6094 79.4336C76.9093 79.2555 77.1882 79.044 77.4407 78.8033C78.4819 77.6453 79.1392 76.1935 79.3226 74.6471H79.3774C81.1929 73.1574 82.5853 71.217 83.4153 69.0203L83.6619 69.1116L86.1833 70.6279C90.276 73.1064 94.2894 75.7067 98.2238 78.4288C93.7474 77.223 88.6864 77.5153 84.8312 80.073C82.3995 81.8077 80.4629 84.1471 79.213 86.8599C77.9671 89.5574 76.9643 92.3606 76.2165 95.2363L76.1617 95.4738C75.6266 95.3455 75.0833 95.2539 74.5356 95.1997L74.5722 94.5603Z" fill="#3773FF"/>
<path d="M63.8447 100.525C59.034 106.646 56.0084 113.977 55.1021 121.708L53.9602 121.553C52.4346 117.698 53.3481 113.213 55.4127 109.623C57.4773 106.033 60.5925 103.156 63.6894 100.406L63.8447 100.525Z" fill="#3773FF"/>
<path d="M18.3429 102.325C24.9805 101.709 31.5356 100.401 37.9018 98.4246C38.4682 98.2054 39.0438 97.9953 39.6102 97.8035V97.703C32.2617 97.4493 24.9648 99.0184 18.3703 102.27L18.3429 102.325ZM48.773 135.328C50.3142 136.594 52.1228 137.493 54.0624 137.959V138.114C50.5893 138.793 46.988 138.203 43.9129 136.452C41.5103 135.072 39.5097 133.026 37.0249 131.829C27.2027 133.337 17.1616 131.4 8.60455 126.349L6.85053 126.477C2.69559 120.541 0.652507 113.384 1.04836 106.15C1.44422 98.9158 4.25614 92.0238 9.03391 86.5772C9.4176 86.1479 9.80129 85.7186 10.2032 85.3167L12.7886 85.883C18.3704 84.9498 24.1029 85.6377 29.3054 87.8652C34.2253 89.9677 38.8477 92.7071 43.0542 96.0132L43.7302 96.5155C45.8975 95.9205 48.0965 95.4478 50.3169 95.0997C52.1694 94.7307 54.0687 94.6567 55.9443 94.8805C57.8352 95.1144 59.5678 96.054 60.7952 97.5112V97.5934C59.1707 98.1518 57.6781 99.0379 56.4102 100.197C52.8033 104.964 49.6356 110.049 46.9459 115.387C45.5208 118.192 44.2053 121.133 44.0043 124.266C43.887 126.353 44.2568 128.439 45.0844 130.359C45.9121 132.279 47.1748 133.98 48.773 135.328Z" fill="#3773FF"/>
<path d="M43.4096 95.5561C46.0664 92.9062 48.879 90.4172 51.8324 88.1024C53.3398 86.9788 55.176 85.8918 57.0031 86.3668C59.4971 87.0063 60.4654 90.1302 62.6031 91.5461L64.9418 90.7057C65.6864 91.5401 66.4763 92.3329 67.3079 93.0807L71.2543 95.2638V95.3369C69.7468 95.5617 68.2923 96.0568 66.9607 96.7984C64.884 96.6191 62.7931 96.8901 60.8308 97.5931V97.5109C59.6035 96.0537 57.8708 95.1141 55.9799 94.8802C54.1043 94.6564 52.2051 94.7304 50.3525 95.0994C48.1322 95.4475 45.9331 95.9202 43.7659 96.5152L43.0898 96.0129L43.4096 95.5561Z" fill="#3773FF"/>
<path d="M43.4077 95.5555L43.0697 96.0123C38.8633 92.7062 34.2408 89.9668 29.3209 87.8643C24.1184 85.6368 18.386 84.9489 12.8041 85.8821L10.2188 85.3158C16.2025 79.1591 24.3147 75.4323 32.2351 72.0068C32.2351 72.2809 32.3173 72.5549 32.3813 72.8289C32.9654 74.7446 33.8739 76.5458 35.0671 78.1543C38.5843 83.5718 41.3877 89.4205 43.4077 95.5555Z" fill="#3773FF"/>
<path d="M36.9062 66.0606C36.982 65.3609 37.2071 64.6856 37.5665 64.0805C37.9258 63.4753 38.411 62.9544 38.9891 62.553H40.3137C40.3852 64.8241 40.3059 67.0975 40.0762 69.3582L39.9483 69.4678C38.9252 68.3168 37.9111 67.1811 36.9062 66.0606Z" fill="#3773FF"/>
<path d="M52.8031 81.0325C55.5437 82.8594 58.5858 84.4305 61.0798 86.6502C61.9084 87.4011 62.6953 88.197 63.4367 89.0342L64.944 90.7241L62.6054 91.5645C60.4677 90.1487 59.4993 86.9973 57.0054 86.3852C55.1783 85.9103 53.3512 86.9973 51.8347 88.1208C48.8813 90.4356 46.0686 92.9246 43.4119 95.5745C41.3918 89.4395 38.5885 83.5909 35.0712 78.1734C33.878 76.5649 32.9695 74.7636 32.3854 72.8479C32.3215 72.5739 32.2758 72.2999 32.2392 72.0258C32.0872 70.3396 32.3312 68.6411 32.9518 67.0658C34.1485 63.8322 36.6882 60.9457 40.0226 60.0505H40.1779C40.251 60.8726 40.2967 61.6947 40.3149 62.526H38.9903C38.4122 62.9274 37.927 63.4483 37.5677 64.0535C37.2083 64.6586 36.9832 65.3339 36.9074 66.0336C37.9123 67.1602 38.9264 68.2807 39.9495 69.3951C43.748 73.7793 48.064 77.687 52.8031 81.0325Z" fill="#3773FF"/>
<path d="M39.611 97.8029C39.0446 97.9948 38.4691 98.2049 37.9027 98.4241C31.5364 100.401 24.9813 101.708 18.3438 102.325V102.279C24.9382 99.0269 32.2352 97.4579 39.5836 97.7116L39.611 97.8029Z" fill="#3773FF"/>
<path d="M40.6992 184.261C50.9613 185.607 61.2448 186.7 71.5495 187.541C75.6154 187.968 79.7087 188.072 83.791 187.851C86.3946 187.65 88.9616 187.212 91.5287 186.764L97.1104 185.796C102.144 184.883 107.342 185.431 112.22 183.914C118.478 181.969 124.197 178.488 130.537 176.844" stroke="#3773FF" stroke-linecap="round" stroke-linejoin="round"/>
<path d="M42.0062 41.2336C41.5453 39.927 40.8102 38.7341 39.8502 37.7351C39.3611 37.2453 38.7328 36.9185 38.0509 36.7991C37.3691 36.6798 36.6671 36.7738 36.0407 37.0683C35.1488 37.7316 34.5467 38.713 34.3598 39.8087C34.1324 40.6558 33.9765 41.5205 33.8939 42.3937C33.6493 44.825 33.9577 47.2801 34.7962 49.5754C35.6347 51.8707 36.9814 53.9466 38.7357 55.6478C38.6849 56.127 38.7342 56.6115 38.8805 57.0707C39.0267 57.5298 39.2667 57.9535 39.5853 58.3151C39.7471 58.4926 39.9278 58.6519 40.1243 58.7901C40.7129 59.221 41.4228 59.4544 42.1523 59.4569" stroke="#1D1D1B" stroke-linecap="round" stroke-linejoin="round"/>
<path d="M48.3144 8.74219C47.5653 9.05276 46.8162 9.36334 46.0671 9.70131C43.3265 10.9436 40.6315 12.4417 38.8136 14.8258C35.8629 18.6988 35.8446 23.9602 35.9725 28.8289V28.9751" stroke="#1D1D1B" stroke-linecap="round" stroke-linejoin="round"/>
<path d="M37.1986 27.6318C36.7488 27.9951 36.3301 28.3953 35.9471 28.8285C34.2851 30.6161 33.1906 32.8564 32.802 35.266C32.4133 37.6756 32.748 40.1463 33.7637 42.3658" stroke="#1D1D1B" stroke-linecap="round" stroke-linejoin="round"/>
<path d="M46.043 9.69185C48.2285 6.21953 51.501 3.56727 55.3508 2.14809C59.2007 0.728908 63.4118 0.622463 67.3285 1.84533" stroke="#1D1D1B" stroke-linecap="round" stroke-linejoin="round"/>
<path d="M61.5273 2.68549C63.4549 2.43886 65.3916 2.19224 67.3283 2.03695C69.5378 1.84055 71.7603 1.84055 73.9698 2.03695C78.1081 2.448 82.2739 3.86385 85.2338 6.83255C86.0393 7.73703 86.8997 8.59119 87.81 9.39021C88.2837 9.79905 88.8493 10.0873 89.4585 10.2305C90.0677 10.3736 90.7025 10.3674 91.3088 10.2123C90.9521 10.5745 90.5248 10.8595 90.0533 11.0497C89.5819 11.2398 89.0764 11.331 88.5682 11.3176" stroke="#1D1D1B" stroke-linecap="round" stroke-linejoin="round"/>
<path d="M79.1406 10.2674C80.6807 9.75484 82.3185 9.60603 83.9257 9.83267C85.5329 10.0593 87.0658 10.6552 88.404 11.5736C89.082 12.0158 89.7099 12.5304 90.2767 13.1082C91.6435 14.6097 92.6902 16.3737 93.353 18.2928C94.0158 20.2118 94.2808 22.2458 94.1319 24.2706C94.0405 26.0244 93.6934 27.7691 93.7573 29.5229C93.7427 30.4021 93.9133 31.2744 94.258 32.0833C94.6026 32.8923 95.1137 33.6196 95.758 34.2181" stroke="#1D1D1B" stroke-linecap="round" stroke-linejoin="round"/>
<path d="M49.4506 19.9136C48.5935 21.6043 48.2747 23.517 48.5371 25.3943C48.8337 27.2911 49.7264 29.0442 51.0858 30.4C50.9995 31.0201 50.7738 31.6126 50.4257 32.1331C50.0776 32.6536 49.6162 33.0885 49.076 33.4052C47.9908 34.0243 47.0027 34.7999 46.1436 35.7071C45.4346 36.8464 44.9422 38.1067 44.6911 39.4248C44.5637 40.0934 44.2906 40.7257 43.8911 41.2767C43.4916 41.8277 42.9756 42.2838 42.3798 42.6128L41.9961 41.2152" stroke="#1D1D1B" stroke-linecap="round" stroke-linejoin="round"/>
<path d="M42.3789 53.0898C42.9453 55.1451 42.6804 57.3374 42.5251 59.484C42.5251 59.5571 42.5251 59.6302 42.5251 59.7032C42.3698 61.9046 42.388 64.2705 43.5117 66.1522C45.284 69.1666 49.267 70.2261 51.2403 73.1035" stroke="#1D1D1B" stroke-linecap="round" stroke-linejoin="round"/>
<path d="M50.7109 70.5183C50.8414 71.3808 51.0462 72.2305 51.323 73.0577C51.7919 74.6702 52.7071 76.1174 53.9631 77.2322C55.8907 78.8581 58.5309 79.3148 61.0522 79.3787C63.5736 79.4427 66.1133 79.1778 68.8265 79.4792L69.3746 79.6254C70.6436 79.9971 71.954 80.2088 73.2754 80.2557C74.4406 80.2866 75.5926 80.0026 76.6099 79.4336C76.9098 79.2555 77.1887 79.044 77.4412 78.8033C78.4824 77.6453 79.1398 76.1935 79.3231 74.6471C79.387 74.3 79.451 73.9529 79.5058 73.6149" stroke="#1D1D1B" stroke-linecap="round" stroke-linejoin="round"/>
<path d="M79.375 74.6559C81.1905 73.1661 82.5829 71.2258 83.4129 69.029C83.6595 68.4353 83.8605 67.8324 84.0432 67.2021C84.5391 65.408 84.8784 63.5742 85.0572 61.7214C85.1669 60.6344 85.2582 59.5383 85.3404 58.4421" stroke="#1D1D1B" stroke-linecap="round" stroke-linejoin="round"/>
<path d="M84.1562 59.749C84.4889 59.28 84.794 58.792 85.0698 58.2875C86.1573 56.5094 86.8519 54.5192 87.107 52.4506L87.9566 48.0021C88.2855 46.2483 88.6235 44.5036 88.9523 42.7498" stroke="#1D1D1B" stroke-linecap="round" stroke-linejoin="round"/>
<path d="M95.8758 34.2267H95.7662C95.4403 34.3005 95.1025 34.3045 94.775 34.2384C94.4475 34.1723 94.1377 34.0376 93.866 33.8431C93.2813 33.4594 92.8155 32.9296 92.3496 32.5825C92.2397 34.8818 92.9092 37.1509 94.2497 39.0223C92.8309 38.5507 91.5675 37.7012 90.5955 36.5651C91.2017 37.4742 91.6205 38.495 91.8276 39.5677C92.0346 40.6405 92.0257 41.7438 91.8014 42.8131C91.6064 43.6927 91.2635 44.5328 90.7874 45.2977C90.1201 46.3974 89.1991 47.3214 88.1016 47.9924" stroke="#1D1D1B" stroke-linecap="round" stroke-linejoin="round"/>
<path d="M90.9503 45.4258C91.5622 46.2615 91.968 47.23 92.1346 48.2522C92.3013 49.2745 92.2242 50.3216 91.9095 51.3084C91.2539 53.2727 90.2274 55.0929 88.8857 56.6703C87.5472 58.2437 86.3576 59.9378 85.332 61.7308" stroke="#1D1D1B" stroke-linecap="round" stroke-linejoin="round"/>
<path d="M68.988 81.4521C68.184 83.7473 67.078 85.9252 65.6992 87.9285" stroke="#1D1D1B" stroke-linecap="round" stroke-linejoin="round"/>
<path d="M72.5156 21.2381L78.5724 17.7305C79.1933 17.251 79.9762 17.0316 80.7558 17.1185C83.4964 20.3886 84.2546 24.7823 85.3692 28.8837C86.575 33.297 88.2631 37.5641 90.4028 41.608" stroke="#1D1D1B" stroke-linecap="round" stroke-linejoin="round"/>
<path d="M89.0614 42.6765C88.6685 40.7308 88.2483 38.1093 87.8555 36.1819" stroke="#1D1D1B" stroke-linecap="round" stroke-linejoin="round"/>
<path d="M40.0951 58.9817C40.0951 59.3288 40.159 59.6759 40.1864 60.023C40.2595 60.8451 40.3052 61.6672 40.3235 62.4985C40.3949 64.7696 40.3156 67.043 40.0859 69.3036" stroke="#1D1D1B" stroke-linecap="round" stroke-linejoin="round"/>
<path d="M40.0226 60.0325C36.6882 60.9459 34.1485 63.8141 32.9518 67.0477C32.3312 68.623 32.0872 70.3215 32.2392 72.0078C32.2392 72.2818 32.3215 72.5559 32.3854 72.8299C32.9695 74.7455 33.878 76.5468 35.0712 78.1553C38.5885 83.5728 41.3918 89.4215 43.4119 95.5565C46.0686 92.9065 48.8813 90.4175 51.8347 88.1028C53.3421 86.9792 55.1783 85.8922 57.0054 86.3672C59.4993 87.0066 60.4677 90.1306 62.6054 91.5464C62.7494 91.6405 62.8989 91.7259 63.053 91.8022" stroke="#1D1D1B" stroke-linecap="round" stroke-linejoin="round"/>
<path d="M38.9891 62.5439C38.411 62.9454 37.9258 63.4663 37.5665 64.0715C37.2071 64.6766 36.982 65.3519 36.9062 66.0516C37.9111 67.1782 38.9252 68.2987 39.9483 69.4131C43.7479 73.7909 48.0638 77.6924 52.8019 81.0322C55.5425 82.8591 58.5846 84.4302 61.0786 86.6499C61.9072 87.4008 62.6941 88.1967 63.4355 89.034L64.9429 90.7238C65.6875 91.5582 66.4774 92.3511 67.3089 93.0988L71.2554 95.2819" stroke="#1D1D1B" stroke-linecap="round" stroke-linejoin="round"/>
<path d="M76.6824 79.5347C74.7342 84.2884 74.0087 89.4545 74.5722 94.5609" stroke="#1D1D1B" stroke-linecap="round" stroke-linejoin="round"/>
<path d="M76.1992 95.2909C76.947 92.4152 77.9497 89.612 79.1956 86.9145C80.4456 84.2018 82.3822 81.8623 84.8139 80.1276C88.6691 77.5517 93.7301 77.2777 98.2064 78.4834H98.2613" stroke="#1D1D1B" stroke-linecap="round" stroke-linejoin="round"/>
<path d="M83.6523 69.1206L86.1737 70.6369C90.2664 73.1154 94.2799 75.7157 98.2142 78.4378" stroke="#1D1D1B" stroke-linecap="round" stroke-linejoin="round"/>
<path d="M86.3359 70.3718L101.647 72.7194C102.487 72.1439 104.561 72.2627 105.484 72.7194" stroke="#1D1D1B" stroke-linecap="round" stroke-linejoin="round"/>
<path d="M101.738 74.3821C102.314 79.6344 102.46 85.7271 103.035 90.9795" stroke="#1D1D1B" stroke-linecap="round" stroke-linejoin="round"/>
<path d="M97.8477 83.0237C98.3904 86.1073 99.3879 89.0933 100.808 91.8841" stroke="#1D1D1B" stroke-linecap="round" stroke-linejoin="round"/>
<path d="M32.2548 71.9985C24.3344 75.424 16.2222 79.1508 10.2385 85.3075C9.8365 85.7094 9.45281 86.1387 9.06912 86.5681C6.24527 89.8155 4.09174 93.5893 2.73257 97.6724C1.37339 101.755 0.835395 106.067 1.14956 110.359C1.46373 114.651 2.62385 118.838 4.56314 122.679C6.50242 126.521 9.18255 129.941 12.4492 132.743C13.362 133.535 14.3231 134.271 15.3269 134.944" stroke="#1D1D1B" stroke-linecap="round" stroke-linejoin="round"/>
<path d="M12.4062 132.824C13.0991 135.509 14.5369 137.944 16.5537 139.848C17.6904 140.959 18.9122 141.979 20.2079 142.899C21.1214 143.594 22.1263 144.251 23.0947 144.909" stroke="#1D1D1B" stroke-linecap="round" stroke-linejoin="round"/>
<path d="M20.0977 143.028C25.6581 151.712 31.5596 160.167 37.8021 168.395C38.6852 169.576 39.5805 170.745 40.4879 171.902" stroke="#1D1D1B" stroke-linecap="round" stroke-linejoin="round"/>
<path d="M37.6172 168.549C38.6586 173.786 39.697 179.024 40.7324 184.261V184.416" stroke="#1D1D1B" stroke-linecap="round" stroke-linejoin="round"/>
<path d="M76.2737 96.7524L76.1641 96.8164C71.9941 99.3631 68.9327 103.383 67.5859 108.079C66.2725 112.805 66.2127 117.792 67.4124 122.548C68.3259 126.604 70.153 130.705 73.5605 133.099C76.968 135.492 81.079 136.487 83.6643 133.226" stroke="#1D1D1B" stroke-linecap="round" stroke-linejoin="round"/>
<path d="M65.5463 98.4883C64.9525 99.146 64.3861 99.8311 63.8563 100.525C59.0455 106.646 56.0199 113.977 55.1136 121.708C55.0527 122.317 54.9979 122.926 54.9492 123.535" stroke="#1D1D1B" stroke-linecap="round" stroke-linejoin="round"/>
<path d="M53.9719 121.553C52.4463 117.698 53.3598 113.213 55.4244 109.623C57.489 106.033 60.6042 103.156 63.7011 100.406" stroke="#1D1D1B" stroke-linecap="round" stroke-linejoin="round"/>
<path d="M78.4077 96.296C77.6834 95.9546 76.9236 95.6942 76.1421 95.5195C75.6069 95.3913 75.0636 95.2997 74.516 95.2455C73.4324 95.1389 72.3397 95.1695 71.2638 95.3368C69.7563 95.5616 68.3017 96.0567 66.9702 96.7983C64.8935 96.619 62.8025 96.8901 60.8403 97.593C59.2157 98.1514 57.7232 99.0375 56.4553 100.196C52.8326 104.962 49.6496 110.046 46.9453 115.387C45.5202 118.191 44.2047 121.133 44.0037 124.266C43.8807 126.359 44.2476 128.452 45.0755 130.379C45.9033 132.305 47.1691 134.012 48.7724 135.364C50.402 136.686 52.3166 137.611 54.3649 138.066C56.4133 138.521 58.5394 138.493 60.5754 137.986" stroke="#1D1D1B" stroke-linecap="round" stroke-linejoin="round"/>
<path d="M56.7383 137.31C58.0468 137.338 59.3459 137.538 60.6026 137.903C61.9638 138.269 63.2975 138.726 64.6496 139.091C69.3901 140.372 74.3739 140.459 79.1566 139.347C81.4879 138.887 83.6784 137.886 85.5514 136.424C86.4834 135.681 87.2313 134.734 87.7368 133.655C88.2423 132.576 88.4917 131.394 88.4656 130.203" stroke="#1D1D1B" stroke-linecap="round" stroke-linejoin="round"/>
<path d="M9.53516 116.447C16.7699 115.5 23.8145 113.438 30.4187 110.336C37.0172 107.237 43.4235 103.744 49.6031 99.8772" stroke="#1D1D1B" stroke-linecap="round" stroke-linejoin="round"/>
<path d="M19.4844 124.384C30.9427 118.721 41.6575 111.665 51.3852 103.375" stroke="#1D1D1B" stroke-linecap="round" stroke-linejoin="round"/>
<path d="M13.043 102.69C14.8152 102.617 16.5875 102.498 18.3415 102.334C24.9791 101.717 31.5342 100.41 37.9004 98.4331C38.4668 98.2139 39.0424 98.0038 39.6088 97.812C40.9669 97.3309 42.3463 96.9016 43.7471 96.524C45.9144 95.929 48.1134 95.4562 50.3337 95.1082C52.1863 94.7392 54.0855 94.6652 55.9612 94.8889C57.852 95.1229 59.5847 96.0625 60.8121 97.5197" stroke="#1D1D1B" stroke-linecap="round" stroke-linejoin="round"/>
<path d="M18.3359 102.279C24.9304 99.0269 32.2274 97.4579 39.5758 97.7116" stroke="#1D1D1B" stroke-linecap="round" stroke-linejoin="round"/>
<path d="M12.8047 85.8831C18.3866 84.9499 24.119 85.6379 29.3215 87.8653C34.2414 89.9678 38.8639 92.7073 43.0703 96.0133L43.7464 96.5157" stroke="#1D1D1B" stroke-linecap="round" stroke-linejoin="round"/>
<path d="M8.56641 126.349C17.1234 131.4 27.1646 133.337 36.9867 131.829" stroke="#1D1D1B" stroke-linecap="round" stroke-linejoin="round"/>
<path d="M31.4141 130.587C33.1471 130.621 34.8604 130.961 36.4751 131.591L36.9867 131.829C39.4715 133.026 41.4722 135.072 43.8748 136.451C46.9498 138.202 50.5511 138.792 54.0242 138.113" stroke="#1D1D1B" stroke-linecap="round" stroke-linejoin="round"/>
<path d="M37.1718 134.149C34.5945 139.014 31.127 143.352 26.9492 146.937" stroke="#1D1D1B" stroke-linecap="round" stroke-linejoin="round"/>
<path d="M40.2228 137.364L38.4688 154.72" stroke="#1D1D1B" stroke-linecap="round" stroke-linejoin="round"/>
<path d="M89.125 129.363C94.9808 145.714 100.197 163.763 102.609 180.964" stroke="#1D1D1B" stroke-linecap="round" stroke-linejoin="round"/>
<path d="M76.1992 96.8807C76.9422 96.6858 77.6822 96.5031 78.4191 96.3326C84.3663 94.9625 90.4596 94.2134 96.4342 92.962L96.7448 92.8981C98.8916 92.4413 101.029 91.9207 103.14 91.2904C104.757 90.7971 106.337 90.249 107.881 89.6279C108.42 89.4087 108.959 89.1712 109.48 88.9337C111.531 88.0092 113.489 86.8897 115.326 85.5905C120.572 80.2336 125.188 74.2941 129.084 67.8878C133.527 64.9713 137.59 61.5133 141.179 57.5933C146.366 56.0115 151.218 53.4913 155.495 50.1578C155.715 50.122 155.941 50.1353 156.156 50.1969C156.371 50.2585 156.569 50.3668 156.737 50.514C157.071 50.8181 157.346 51.1802 157.55 51.5828C158.084 52.4933 158.438 53.4981 158.592 54.5424C158.734 55.5969 158.525 56.669 157.998 57.5933" stroke="#1D1D1B" stroke-linecap="round" stroke-linejoin="round"/>
<path d="M125.246 80.6122C125.505 79.8186 125.956 79.1018 126.561 78.5261C127.165 77.9505 127.903 77.5342 128.708 77.3147" stroke="#1D1D1B" stroke-linecap="round" stroke-linejoin="round"/>
<path d="M127.211 80.2006C128.928 76.6068 131.2 73.3054 133.944 70.4176C139.222 68.0262 144.623 65.9132 150.123 64.0874C153.168 63.0765 156.237 62.163 159.331 61.347C160.094 61.3416 160.844 61.5351 161.509 61.9083C162.174 62.2815 162.73 62.8217 163.122 63.4754C163.509 64.137 163.752 64.873 163.834 65.635C163.915 66.397 163.835 67.1678 163.597 67.8965C163.098 69.423 162.067 70.7196 160.692 71.5503C159.642 72.1714 158.582 72.7834 157.522 73.3772C153.259 75.813 148.932 78.1393 144.541 80.3559" stroke="#1D1D1B" stroke-linecap="round" stroke-linejoin="round"/>
<path d="M143.197 77.8354C142.154 79.6654 140.949 81.3987 139.598 83.0147" stroke="#1D1D1B" stroke-linecap="round" stroke-linejoin="round"/>
<path d="M143.113 94.1312C144.876 92.4405 146.55 90.6599 148.129 88.7966" stroke="#1D1D1B" stroke-linecap="round" stroke-linejoin="round"/>
<path d="M157.585 73.3684C158.324 72.9692 159.11 72.6624 159.924 72.4549C160.749 72.2488 161.622 72.3562 162.372 72.7563C163.255 73.4274 163.896 74.3665 164.199 75.4328C164.948 77.2597 165.697 79.2875 165.003 81.1235C164.484 82.2558 163.642 83.2093 162.582 83.8639C162.336 84.0374 162.08 84.211 161.833 84.3663C157.659 86.91 153.291 89.1212 148.77 90.9796" stroke="#1D1D1B" stroke-linecap="round" stroke-linejoin="round"/>
<path d="M162.508 83.8638L162.591 83.9095C164.125 84.6661 165.321 85.9695 165.943 87.5633C166.526 89.2226 166.561 91.0251 166.044 92.706C165.523 93.0896 165.002 93.4733 164.473 93.8386C160.22 96.8456 155.652 99.3816 150.852 101.402" stroke="#1D1D1B" stroke-linecap="round" stroke-linejoin="round"/>
<path d="M150.633 99.3655L147.152 102.901" stroke="#1D1D1B" stroke-linecap="round" stroke-linejoin="round"/>
<path d="M164.591 94.0303C165.417 94.8631 165.974 95.9245 166.191 97.0774C166.407 98.2303 166.273 99.4217 165.805 100.498C165.414 101.22 164.88 101.855 164.236 102.365C163.593 102.875 162.852 103.25 162.06 103.466C160.516 104.005 158.863 104.197 157.3 104.69C156.745 104.864 156.202 105.074 155.674 105.321C154.541 105.833 153.486 106.504 152.541 107.312L152.312 107.513" stroke="#1D1D1B" stroke-linecap="round" stroke-linejoin="round"/>
<path d="M154.287 105.147C153.778 105.935 153.18 106.661 152.505 107.312C151.888 107.932 151.222 108.5 150.514 109.011C142.018 111.651 132.946 111.231 124.021 110.546L121.719 110.363" stroke="#1D1D1B" stroke-linecap="round" stroke-linejoin="round"/>
<path d="M83.6641 133.227C85.1623 132.058 86.6848 130.916 88.2318 129.801C94.1992 125.491 100.47 121.617 106.996 118.21C108.147 117.598 109.307 117.013 110.467 116.447C111.271 116.045 112.084 115.652 112.897 115.278C113.884 114.812 114.88 114.364 115.876 113.907C118.58 112.689 121.32 111.569 124.097 110.546L124.216 110.5" stroke="#1D1D1B" stroke-linecap="round" stroke-linejoin="round"/>
<path d="M150.02 63.7775C152.426 61.4096 155.154 59.3924 158.123 57.7853C161.007 56.1981 164.039 54.8949 167.176 53.894C173.516 51.8387 180.121 50.7883 186.698 49.7378" stroke="#1D1D1B" stroke-linecap="round" stroke-linejoin="round"/>
<path d="M121.565 14.1674C121.638 14.1674 121.693 14.076 121.72 13.9116C122.779 12.2518 124.004 10.7032 125.374 9.28955C115.805 10.7941 106.358 12.9953 97.1094 15.8755C98.1342 19.432 99.4827 22.8871 101.138 26.1975" stroke="#1D1D1B" stroke-linecap="round" stroke-linejoin="round"/>
<path d="M159.358 61.0641C168.319 55.9449 177.966 52.1337 188.007 49.7465L186.764 49.4633C174.405 46.6674 162.366 42.6118 150.835 37.3601C152.195 38.7567 153.628 40.08 155.128 41.3245C152.945 40.4111 150.771 39.4976 148.971 38.5842C148.705 39.4848 148.317 40.3451 147.82 41.1418C147.318 41.9489 146.522 42.5288 145.6 42.7586C144.778 42.8297 143.949 42.7773 143.143 42.6033C142.085 42.4803 141.019 42.7572 140.155 43.3798L135.588 50.185C135.135 50.9539 134.543 51.6322 133.843 52.1854C132.335 53.245 130.298 52.9892 128.48 52.6878C128.48 53.6012 128.48 54.5147 128.48 55.5195L126.37 55.1359C126.516 55.8666 126.662 56.5882 126.936 57.6022C126.11 58.1403 125.311 58.7196 124.543 59.3377C121.162 62.0118 118.369 65.3556 116.341 69.1596C114.313 72.9636 113.094 77.1456 112.758 81.4432C112.366 79.2943 112.301 77.0985 112.566 74.9303C113.067 71.2807 113.955 67.695 115.216 64.2338C117.043 58.6709 119.126 52.9619 119.135 46.6043C121.964 43.9022 125.193 41.653 128.709 39.9361C130.264 39.1698 131.873 38.5165 133.523 37.9813C131.769 35.9443 130.052 33.7063 129.604 31.0573C129.156 28.4083 130.417 25.2844 133.139 24.4897C131.938 24.577 130.747 24.2178 129.795 23.4812C128.842 22.7445 128.195 21.6822 127.978 20.4979C127.951 19.9549 127.869 19.4161 127.731 18.8902C127.556 18.4644 127.287 18.0838 126.943 17.7769C126.6 17.47 126.192 17.2448 125.749 17.1181C124.881 16.8258 123.922 16.8075 122.935 16.5609L124.607 13.1812L121.556 14.1677H121.483" stroke="#1D1D1B" stroke-linecap="round" stroke-linejoin="round"/>
<path d="M104.958 32.7106C106.043 32.0788 106.96 31.1955 107.633 30.1352C108.305 29.075 108.713 27.8687 108.822 26.6179C108.923 25.3589 108.692 24.0956 108.154 22.9531C107.616 21.8106 106.788 20.8288 105.753 20.105C105.326 20.1807 104.944 20.4158 104.684 20.7627C104.591 20.8717 104.511 20.9913 104.446 21.1189C104.206 21.637 104.01 22.1749 103.862 22.7266C103.534 23.7025 103.039 24.6142 102.4 25.4212C102.064 25.8407 101.698 26.2345 101.304 26.5996C100.317 27.5055 99.2026 28.2626 97.9967 28.8467C97.7227 30.6736 97.4121 32.5644 97.0284 34.4553C96.6995 36.0721 96.3158 37.7163 95.8682 39.4062C95.7281 39.936 95.5819 40.4657 95.4297 40.9955C97.4467 45.8851 100.031 50.5207 103.131 54.8069C103.414 55.2271 103.716 55.6381 104.044 56.04" stroke="#1D1D1B" stroke-linecap="round" stroke-linejoin="round"/>
<path d="M105.496 55.4644C106 56.2447 106.261 57.1572 106.245 58.0859" stroke="#1D1D1B" stroke-linecap="round" stroke-linejoin="round"/>
<path d="M105.368 32.793C105.368 33.5055 105.368 34.218 105.368 34.9305C105.323 36.5436 105.195 38.1534 104.984 39.7535" stroke="#1D1D1B" stroke-linecap="round" stroke-linejoin="round"/>
<path d="M105.504 34.9307C108.43 47.8008 110.016 60.9392 110.236 74.1359C110.236 74.3186 110.236 74.5104 110.236 74.6931" stroke="#1D1D1B" stroke-linecap="round" stroke-linejoin="round"/>
<path d="M111.351 66.2622C110.912 68.8747 110.538 71.5054 110.246 74.1361C109.697 78.9226 109.393 83.7243 109.332 88.5412" stroke="#1D1D1B" stroke-linecap="round" stroke-linejoin="round"/>
<path d="M103.129 54.8167C103.622 60.7997 104.618 66.7371 105.586 72.6746C106.5 78.3105 107.413 83.9374 107.898 89.6191" stroke="#1D1D1B" stroke-linecap="round" stroke-linejoin="round"/>
<path d="M121.197 54.1316C121.115 55.2643 121.024 56.4061 120.941 57.5388" stroke="#1D1D1B" stroke-linecap="round" stroke-linejoin="round"/>
<path d="M121.91 55.9033C122.33 54.9899 122.741 54.0764 123.153 53.163C124.98 49.2351 126.807 45.2982 128.68 41.2881C128.68 40.7949 128.68 40.3747 128.68 39.918" stroke="#1D1D1B" stroke-linecap="round" stroke-linejoin="round"/>
<path d="M123.227 53.1997C123.299 55.2051 123.684 57.1868 124.368 59.0732" stroke="#1D1D1B" stroke-linecap="round" stroke-linejoin="round"/>
<path d="M116.012 114.218C121.785 115.78 127.888 115.734 133.798 116.474C136.569 116.825 139.315 117.349 142.02 118.045L143.5 118.447C148.971 119.984 154.222 122.219 159.122 125.097" stroke="#1D1D1B" stroke-linecap="round" stroke-linejoin="round"/>
<path d="M155.801 105.595L158.706 119.205C159.218 121.132 159.451 123.122 159.4 125.115V125.161" stroke="#1D1D1B" stroke-linecap="round" stroke-linejoin="round"/>
<path d="M112.988 115.479C113.265 120.974 115.701 126.137 119.766 129.846C123.831 133.554 129.196 135.508 134.694 135.282C137.527 135.291 140.28 134.341 142.505 132.587C144.624 130.76 145.784 127.637 144.789 125.015L141.993 118.219" stroke="#1D1D1B" stroke-linecap="round" stroke-linejoin="round"/>
<path d="M110.437 116.447C110.27 118.577 110.319 120.72 110.583 122.841C111.243 128.031 113.019 133.017 115.79 137.456C116.11 137.977 116.448 138.479 116.804 138.972" stroke="#1D1D1B" stroke-linecap="round" stroke-linejoin="round"/>
<path d="M110.101 122.95C109.553 125.836 109.087 128.833 109.772 131.683C110.457 134.532 112.586 137.245 115.482 137.739" stroke="#1D1D1B" stroke-linecap="round" stroke-linejoin="round"/>
<path d="M107.01 118.255C105.3 124.337 105.871 130.834 108.618 136.524C111.222 141.877 115.926 146.344 121.645 147.96C122.939 148.319 124.269 148.53 125.61 148.591C130.178 148.819 134.645 147.422 136.573 145.366C138.973 144.306 141.108 142.726 142.824 140.74C144.539 138.754 145.793 136.413 146.494 133.884C147.117 131.251 147.171 128.515 146.653 125.86C146.134 123.204 145.055 120.689 143.488 118.483" stroke="#1D1D1B" stroke-linecap="round" stroke-linejoin="round"/>
<path d="M125.602 148.718C128.051 157.839 129.831 167.126 130.928 176.505" stroke="#1D1D1B" stroke-linecap="round" stroke-linejoin="round"/>
<path d="M94.293 89.2351L96.7413 92.8889" stroke="#1D1D1B" stroke-linecap="round" stroke-linejoin="round"/>
<path d="M53.5234 37.0498C53.7122 36.8709 53.937 36.7344 54.1827 36.6493C54.4285 36.5643 54.6896 36.5326 54.9486 36.5566C55.4682 36.6131 55.973 36.7648 56.4376 37.0042C58.1849 37.811 59.7415 38.9783 61.0053 40.4296C62.6192 41.8351 64.5935 42.762 66.7058 43.106" stroke="#1D1D1B" stroke-width="0.5" stroke-linecap="round" stroke-linejoin="round"/>
<path d="M69.7937 41.6074L67.1719 44.2473" stroke="#1D1D1B" stroke-width="0.5" stroke-linecap="round" stroke-linejoin="round"/>
<path d="M59.7656 30.4365C62.9876 33.006 65.8511 35.9952 68.2798 39.3244" stroke="#1D1D1B" stroke-width="0.5" stroke-linecap="round" stroke-linejoin="round"/>
<path d="M69.6289 32.7839C70.371 35.3255 70.7222 37.9651 70.6704 40.6122" stroke="#1D1D1B" stroke-width="0.5" stroke-linecap="round" stroke-linejoin="round"/>
<path d="M75.2284 36.8948C74.1221 38.7147 73.2649 40.6748 72.6797 42.7226" stroke="#1D1D1B" stroke-width="0.5" stroke-linecap="round" stroke-linejoin="round"/>
<path d="M72.2344 45.7371C72.2709 47.6736 72.3105 49.6101 72.3531 51.5466" stroke="#1D1D1B" stroke-width="0.5" stroke-linecap="round" stroke-linejoin="round"/>
<path d="M73.5547 43.8273C73.8568 44.1018 74.2195 44.301 74.6131 44.409C75.0068 44.5169 75.4204 44.5304 75.8203 44.4484L81.3929 40.5663C82.0412 40.0553 82.7783 39.6682 83.5671 39.4245C83.9613 39.3044 84.3807 39.2927 84.781 39.3908C85.1813 39.4889 85.5477 39.693 85.8418 39.9817" stroke="#1D1D1B" stroke-width="0.5" stroke-linecap="round" stroke-linejoin="round"/>
<path d="M63.2602 45.5906C63.1521 44.9119 62.8885 44.2673 62.49 43.7073C62.0915 43.1473 61.5689 42.687 60.963 42.3624C60.3571 42.0378 59.6843 41.8577 58.9973 41.8362C58.3102 41.8146 57.6275 41.9523 57.0025 42.2383C55.8663 42.605 54.8834 43.3372 54.207 44.3209C57.2217 44.595 60.1907 45.0517 63.2602 45.5906Z" stroke="#1D1D1B" stroke-width="0.5" stroke-linecap="round" stroke-linejoin="round"/>
<path d="M62.2227 48.3857C60.1356 50.319 57.562 51.6484 54.7773 52.2314" stroke="#1D1D1B" stroke-width="0.5" stroke-linecap="round" stroke-linejoin="round"/>
<path d="M76.1445 48.7051C76.6855 49.8185 77.4681 50.7973 78.4353 51.57C79.4025 52.3428 80.5299 52.89 81.7354 53.1719" stroke="#1D1D1B" stroke-width="0.5" stroke-linecap="round" stroke-linejoin="round"/>
<path d="M79.4218 46.3669C78.099 46.3283 76.7751 46.3679 75.457 46.4856C76.1347 45.6704 76.9146 44.9458 77.7774 44.3299C78.6575 43.7155 79.7404 43.4636 80.8013 43.6265C82.3726 43.9554 83.414 45.3986 84.1996 46.7505C82.9664 46.5769 81.7148 46.4582 80.4724 46.4034C80.1253 46.376 79.7781 46.3669 79.4218 46.3669Z" stroke="#1D1D1B" stroke-width="0.5" stroke-linecap="round" stroke-linejoin="round"/>
<path d="M66.9615 55.7119C66.6531 55.0364 66.2107 54.4306 65.6611 53.9313C65.1114 53.4319 64.466 53.0495 63.7641 52.8071C62.8414 53.581 62.1993 54.6371 61.937 55.8124C61.9327 55.8671 61.9327 55.9221 61.937 55.9768C61.8912 56.1279 61.8765 56.2868 61.8937 56.4438C61.911 56.6008 61.9599 56.7527 62.0375 56.8902C62.3223 57.1494 62.6938 57.2928 63.0789 57.2922C64.052 57.4349 64.9594 57.8679 65.6825 58.5345C66.724 59.4936 67.4639 60.9825 68.8616 61.2748C69.314 61.3389 69.775 61.2981 70.2091 61.1556C70.6431 61.013 71.0385 60.7725 71.3648 60.4527C72.0508 59.7102 72.6628 58.9026 73.1918 58.0412C73.6383 57.9863 74.0583 57.7997 74.3983 57.5053C74.7383 57.2108 74.983 56.8218 75.1011 56.3879C75.1933 55.9404 75.1474 55.4755 74.9696 55.0547C74.7918 54.6339 74.4905 54.277 74.1054 54.0311" stroke="#1D1D1B" stroke-width="0.5" stroke-linecap="round" stroke-linejoin="round"/>
<path d="M60.9133 55.5745C58.2562 58.5701 56.1556 62.0161 54.7104 65.7503C54.4297 66.4354 54.2126 67.1447 54.0618 67.8695C53.8102 68.9 53.8901 69.9836 54.2901 70.9661" stroke="#1D1D1B" stroke-width="0.5" stroke-linecap="round" stroke-linejoin="round"/>
<path d="M56.3359 68.1346C57.2699 66.8889 58.5385 65.9339 59.994 65.3809C61.4495 64.8278 63.0322 64.6994 64.5578 65.0106C67.5366 65.7875 70.6282 66.0379 73.6932 65.7505C74.3701 66.0598 74.9493 66.5485 75.368 67.1636C75.7867 67.7788 76.029 68.4968 76.0684 69.2399" stroke="#1D1D1B" stroke-width="0.5" stroke-linecap="round" stroke-linejoin="round"/>
<path d="M65.5078 68.5818C66.7178 68.7541 67.9404 68.8214 69.162 68.7827C69.8743 68.7662 70.585 68.7082 71.2905 68.6092" stroke="#1D1D1B" stroke-width="0.5" stroke-linecap="round" stroke-linejoin="round"/>
<path d="M69.1289 68.8013L71.1661 69.5412" stroke="#1D1D1B" stroke-width="0.5" stroke-linecap="round" stroke-linejoin="round"/>
<path d="M75.8164 56.6067C77.03 60.6969 77.6996 64.929 77.8079 69.194C77.8079 69.5137 77.8079 69.8426 77.8079 70.1623" stroke="#1D1D1B" stroke-width="0.5" stroke-linecap="round" stroke-linejoin="round"/>
<path d="M64.9805 76.5744C66.2462 76.4915 67.5149 76.6847 68.6986 77.1407" stroke="#1D1D1B" stroke-width="0.5" stroke-linecap="round" stroke-linejoin="round"/>
<path d="M35.8555 40.1001C36.1033 39.8617 36.4224 39.7112 36.764 39.6716C37.1056 39.632 37.4507 39.7055 37.7465 39.8809C37.9494 39.993 38.1367 40.1313 38.3038 40.292C38.626 40.6063 38.9083 40.9591 39.1442 41.3424C39.5096 41.8814 39.8477 42.4386 40.1583 42.9866C40.7879 44.0417 41.2995 45.1629 41.6839 46.3299C40.8027 47.5142 40.3807 48.9779 40.4963 50.4495C40.5438 51.078 40.6918 51.6948 40.9348 52.2764" stroke="#1D1D1B" stroke-width="0.5" stroke-linecap="round" stroke-linejoin="round"/>
<path d="M38.2144 40.3931C37.5835 40.8531 37.0713 41.4567 36.7202 42.1541C36.3691 42.8514 36.1892 43.6224 36.1955 44.4031C36.2251 45.9712 36.6935 47.4996 37.5475 48.8151" stroke="#1D1D1B" stroke-width="0.5" stroke-linecap="round" stroke-linejoin="round"/>
<path d="M39.7939 43.2246C39.2265 43.9839 38.8319 44.8581 38.6378 45.7859C38.4437 46.7136 38.4548 47.6726 38.6702 48.5957C38.8153 49.2841 39.0846 49.9403 39.465 50.5322" stroke="#1D1D1B" stroke-width="0.5" stroke-linecap="round" stroke-linejoin="round"/>
<path d="M39.3828 52.0393C39.5765 53.0443 40.0159 53.9857 40.6618 54.7797" stroke="#1D1D1B" stroke-width="0.5" stroke-linecap="round" stroke-linejoin="round"/>
<path d="M90.6019 48.2207C89.3078 49.235 88.2795 50.5484 87.6055 52.0481" stroke="#1D1D1B" stroke-width="0.5" stroke-linecap="round" stroke-linejoin="round"/>
<path d="M89.1279 49.9475C89.1011 52.2978 88.2435 54.5628 86.707 56.3417" stroke="#1D1D1B" stroke-width="0.5" stroke-linecap="round" stroke-linejoin="round"/>
<path d="M58.7515 45.051C58.6933 45.1082 58.6549 45.1824 58.6417 45.2629C58.6286 45.3433 58.6414 45.4259 58.6784 45.4986C58.7409 45.6319 58.8508 45.7373 58.9866 45.7942C59.1224 45.8511 59.2746 45.8555 59.4135 45.8065C59.5523 45.7576 59.6681 45.6588 59.7382 45.5293C59.8083 45.3998 59.8278 45.2489 59.7929 45.1058" stroke="#1D1D1B" stroke-width="0.5" stroke-linecap="round" stroke-linejoin="round"/>
<path d="M79.4246 46.4585C79.3822 46.5186 79.3594 46.5904 79.3594 46.664C79.3594 46.7376 79.3822 46.8094 79.4246 46.8695C79.4741 46.9482 79.5395 47.0157 79.6166 47.0676C79.6937 47.1195 79.7808 47.1547 79.8723 47.171C79.9624 47.1846 80.0546 47.1759 80.1406 47.1456C80.2266 47.1154 80.3038 47.0645 80.3656 46.9974C80.426 46.9286 80.4664 46.8445 80.4825 46.7544C80.4986 46.6642 80.4898 46.5714 80.4569 46.4859" stroke="#1D1D1B" stroke-width="0.5" stroke-linecap="round" stroke-linejoin="round"/>
<path d="M102.762 25.4489C102.861 25.6231 103.026 25.7507 103.219 25.8037C103.413 25.8568 103.619 25.831 103.794 25.7321C104.136 25.5095 104.406 25.1921 104.571 24.8186C104.964 24.2151 105.248 23.5473 105.411 22.8456C105.487 22.4941 105.477 22.1294 105.382 21.7826C105.286 21.4358 105.108 21.1173 104.863 20.8542" stroke="#1D1D1B" stroke-width="0.5" stroke-linecap="round" stroke-linejoin="round"/>
<path d="M49.3555 17.9957C50.0655 17.8231 50.8102 17.8589 51.5004 18.0986C52.1906 18.3384 52.7971 18.7721 53.2471 19.3476" stroke="#1D1D1B" stroke-width="0.5" stroke-linecap="round" stroke-linejoin="round"/>
<path d="M53.668 14.9077C54.7786 17.1907 56.6213 19.0364 58.9026 20.1509" stroke="#1D1D1B" stroke-width="0.5" stroke-linecap="round" stroke-linejoin="round"/>
<path d="M58.2266 14.5513C59.1401 15.7753 59.8618 17.1089 60.7297 18.3421C61.5612 19.6178 62.6856 20.6764 64.0093 21.4295" stroke="#1D1D1B" stroke-width="0.5" stroke-linecap="round" stroke-linejoin="round"/>
<path d="M68.4142 12.5969C67.8512 13.3104 67.4391 14.1308 67.2029 15.0084C66.9668 15.886 66.9115 16.8025 67.0406 17.7021C67.1696 18.6017 67.4801 19.4657 67.9534 20.2416C68.4267 21.0175 69.0528 21.6891 69.7937 22.2155" stroke="#1D1D1B" stroke-width="0.5" stroke-linecap="round" stroke-linejoin="round"/>
</svg>
