<svg width="265" height="265" viewBox="0 0 265 265" fill="none" xmlns="http://www.w3.org/2000/svg">
<path d="M262.031 69.5073L262.121 69.1221L263.867 69.5201C249.754 72.8757 236.193 78.2329 223.597 85.4288V85.7883C219.239 86.961 214.925 88.245 210.653 89.6403L210.512 89.2037C213.894 85.8753 217.729 83.0398 221.902 80.7807C225.957 78.5497 230.219 76.7178 234.628 75.3109C243.501 72.4605 252.785 70.9839 262.031 69.5073Z" fill="#D1D0D1"/>
<path d="M218.603 148.025L222.687 167.156C223.406 169.865 223.735 172.662 223.663 175.463H223.29C216.402 171.418 209.022 168.277 201.332 166.116L199.252 165.551C195.449 164.573 191.589 163.835 187.694 163.343C179.348 162.303 170.808 162.367 162.693 160.171L162.5 159.735C166.301 158.023 170.153 156.448 174.057 155.009C186.577 155.972 199.329 156.563 211.297 152.852C212.293 152.133 213.229 151.335 214.096 150.464C215.425 149.328 216.908 148.386 218.501 147.665L218.603 148.025Z" fill="#D1D0D1"/>
<path d="M162.396 192.913C158.501 186.674 156.004 179.665 155.077 172.369L154.358 172.472C153.587 176.529 152.932 180.741 153.895 184.747C154.858 188.753 157.85 192.566 161.921 193.26L162.396 192.913ZM201.331 166.09C203.534 169.191 205.05 172.726 205.779 176.459C206.507 180.192 206.431 184.037 205.555 187.738C204.57 191.293 202.808 194.584 200.397 197.375C197.985 200.166 194.984 202.387 191.61 203.878C188.862 206.767 182.621 208.732 176.2 208.411C174.315 208.326 172.446 208.029 170.627 207.525C162.537 205.252 155.937 199.025 152.264 191.449C148.403 183.451 147.6 174.318 150.004 165.769V165.705C151.622 164.845 153.253 164.023 154.884 163.227C156.014 162.662 157.157 162.11 158.3 161.583L158.428 161.866C158.818 169.59 162.242 176.848 167.956 182.061C173.669 187.274 181.211 190.021 188.939 189.703C192.921 189.715 196.791 188.381 199.918 185.915C202.897 183.347 204.528 178.956 203.128 175.271L199.199 165.718V165.474L201.331 166.09Z" fill="#3773FF"/>
<path d="M157.846 104.945C157.473 107.993 157.563 111.08 158.115 114.1C158.586 108.059 160.301 102.181 163.152 96.8338C166.002 91.4867 169.927 86.7864 174.68 83.0276C175.76 82.1587 176.883 81.3445 178.045 80.588C177.659 79.1628 177.454 78.1484 177.249 77.1212L180.215 77.6605C180.215 76.2225 180.215 74.9513 180.215 73.6801C182.783 74.1039 185.634 74.4634 187.753 72.9739C188.737 72.1963 189.569 71.2429 190.205 70.162L196.626 60.5963C197.84 59.7212 199.338 59.3319 200.825 59.5049C201.959 59.7494 203.124 59.823 204.279 59.7232C205.575 59.4001 206.695 58.5849 207.4 57.4505C208.099 56.3306 208.643 55.1212 209.018 53.8553C211.586 55.1393 214.604 56.4233 217.673 57.7073C215.564 55.958 213.549 54.0979 211.637 52.1348C227.846 59.5167 244.77 65.2175 262.142 69.1477L262.052 69.5328C252.806 71.0094 243.522 72.486 234.61 75.375C230.201 76.782 225.939 78.6138 221.885 80.8448L221.705 80.511C222.446 79.2117 222.739 77.7048 222.54 76.2224C222.323 74.7546 221.826 73.3422 221.076 72.0623C220.789 71.4965 220.402 70.9875 219.933 70.5601C219.697 70.3531 219.418 70.2009 219.116 70.1143C218.814 70.0277 218.496 70.0089 218.186 70.0593C212.175 74.745 205.355 78.2876 198.064 80.511C193.014 86.0363 187.294 90.9103 181.037 95.0201C175.561 104.048 169.068 112.419 161.685 119.968C159.103 121.794 156.35 123.368 153.467 124.667L153.223 124.115C153.325 117.344 153.753 110.595 154.507 103.867C154.507 104.124 154.507 104.393 154.507 104.65L157.846 104.945Z" fill="#D1D0D1"/>
<path d="M155.077 172.317C156.004 179.613 158.501 186.622 162.396 192.861L161.921 193.156C157.85 192.463 154.858 188.662 153.895 184.643C152.932 180.624 153.587 176.426 154.358 172.368L155.077 172.317Z" fill="#3773FF"/>
<path d="M135.569 130.176L135.133 130.266C126.734 132.025 118.169 133.078 109.81 135.004C108.791 134.524 107.723 134.158 106.625 133.913L106.702 133.579C107.753 129.537 109.163 125.596 110.914 121.805C112.671 117.991 115.393 114.703 118.811 112.265C124.23 108.644 131.344 108.259 137.637 109.953C132.098 106.127 126.456 102.472 120.712 98.9881L120.943 98.6157L142.465 101.916L142.593 104.252C143.402 111.635 143.608 120.2 144.417 127.583L144.545 128.019C141.604 128.802 138.6 129.534 135.569 130.176Z" fill="#3773FF"/>
<path d="M142.605 104.15L142.477 101.813C143.658 101.004 146.573 101.171 147.87 101.813H147.973C149.257 109.735 150.541 117.645 151.221 125.631C149.051 126.504 146.83 127.275 144.557 127.968L144.428 127.531C143.619 120.097 143.414 111.533 142.605 104.15Z" fill="#3773FF"/>
<path d="M143.49 35.3276C143.031 35.9158 142.529 36.4694 141.988 36.984L141.757 36.419C139.43 31.7658 137.534 26.9091 136.094 21.9099C149.094 17.8613 162.373 14.7672 175.825 12.6523C173.898 14.6395 172.177 16.8162 170.688 19.1493C170.688 19.3805 170.572 19.4575 170.47 19.5089L174.759 18.1221L172.409 22.8729C173.834 23.2196 175.144 23.2453 176.364 23.6561C176.986 23.8342 177.56 24.1507 178.043 24.5821C178.525 25.0135 178.904 25.5485 179.15 26.1471C179.344 26.8863 179.46 27.6437 179.497 28.4069C179.803 30.0716 180.712 31.5649 182.051 32.6004C183.39 33.6359 185.064 34.1407 186.752 34.018C182.9 35.135 181.154 39.5263 181.783 43.2498C182.412 46.9734 184.826 50.1192 187.292 52.9825C184.969 53.7343 182.703 54.6525 180.512 55.7302C175.566 58.1386 171.023 61.2959 167.041 65.0906C167.041 74.0785 164.139 82.0521 161.532 89.8716C159.766 94.7502 158.526 99.8036 157.834 104.946L154.547 104.586C154.547 104.329 154.547 104.06 154.547 103.803C154.237 85.253 152.008 66.785 147.895 48.694H147.664C147.664 47.6925 147.664 46.6909 147.664 45.6894L147.047 45.5739C148.573 44.6858 149.862 43.4443 150.807 41.9539C151.753 40.4635 152.326 38.7678 152.479 37.0097C152.621 35.24 152.297 33.4642 151.54 31.8583C150.783 30.2524 149.619 28.8722 148.164 27.8548C147.565 27.9612 147.027 28.2917 146.662 28.7793C146.532 28.9325 146.419 29.1006 146.328 29.28C145.99 30.0083 145.715 30.7644 145.506 31.5398C145.057 32.909 144.375 34.1905 143.49 35.3276Z" fill="#D1D0D1"/>
<path d="M84.7839 193.375C86.6972 193.888 88.572 194.53 90.4725 195.044C97.1361 196.844 104.142 196.967 110.864 195.403C114.141 194.757 117.221 193.35 119.853 191.294C121.163 190.251 122.215 188.919 122.925 187.402C123.636 185.885 123.986 184.225 123.95 182.55L123.577 182.05C131.965 175.99 140.78 170.545 149.953 165.756V165.82C147.548 174.369 148.352 183.502 152.213 191.5C155.873 199.024 162.486 205.303 170.525 207.575C172.343 208.08 174.213 208.377 176.098 208.461V208.693C179.541 221.513 182.043 234.567 183.584 247.752L183.083 248.227C174.172 250.538 166.133 255.43 157.337 258.165C150.48 260.296 143.211 259.577 136.097 260.81L128.251 262.171C124.643 262.8 121.035 263.455 117.375 263.699C111.637 264.009 105.883 263.863 100.168 263.262C85.6656 262.072 71.2107 260.536 56.8028 258.653C55.3389 251.3 53.8793 243.938 52.4239 236.568L52.6808 236.35C43.9231 224.811 35.6276 212.925 27.7945 200.693L27.9229 200.514C26.1015 199.22 24.3841 197.786 22.7864 196.225C19.9514 193.549 17.9304 190.126 16.9565 186.351L17.0207 186.274C14.0126 183.695 11.3497 180.739 9.09766 177.479L11.5632 177.299C23.5914 184.4 37.7058 187.121 51.5122 185.003C55.005 186.685 57.8172 189.561 61.1945 191.5C65.5169 193.961 70.5791 194.791 75.4611 193.837V193.618C78.4652 194.383 81.6128 194.383 84.6169 193.618L84.7839 193.375Z" fill="#3773FF"/>
<path d="M84.7446 193.503C81.8827 194.216 78.8942 194.255 76.0149 193.615C73.1356 192.976 70.4444 191.676 68.1537 189.818C65.9001 187.918 64.1208 185.519 62.9571 182.81C61.7935 180.102 61.2777 177.16 61.4506 174.218C61.746 169.813 63.5823 165.679 65.5855 161.737C69.3895 154.248 73.8637 147.118 78.9532 140.436C80.7355 138.807 82.8335 137.561 85.117 136.776C87.8753 135.788 90.8144 135.407 93.7335 135.659C95.6052 134.617 97.6498 133.921 99.7688 133.605C101.281 133.37 102.817 133.327 104.34 133.477C105.11 133.553 105.874 133.681 106.626 133.862C107.725 134.107 108.793 134.473 109.811 134.953C108.775 135.193 107.735 135.45 106.69 135.724V135.634C100.804 139.219 96.4849 144.89 94.5938 151.517C92.7476 158.16 92.6635 165.169 94.3498 171.855C95.634 177.556 98.2022 183.321 102.992 186.685C107.782 190.049 113.56 191.449 117.194 186.865C119.3 185.221 121.441 183.616 123.615 182.05L123.987 182.551C124.024 184.225 123.673 185.885 122.963 187.402C122.252 188.919 121.201 190.251 119.891 191.295C117.258 193.35 114.179 194.757 110.902 195.403C104.179 196.967 97.1739 196.844 90.5103 195.044C88.6098 194.53 86.735 193.888 84.8217 193.375L84.7446 193.503ZM77.0399 170.674C78.3176 159.805 82.5749 149.5 89.3418 140.898L89.1234 140.731C84.7703 144.583 80.4043 148.628 77.4893 153.687C74.5743 158.745 73.3031 165.037 75.4475 170.455L77.0399 170.674Z" fill="#3773FF"/>
<path d="M104.417 132.513C103.625 125.335 104.645 118.074 107.383 111.392L107.281 111.25C107.702 111 108.094 110.703 108.449 110.364C109.913 108.737 110.837 106.696 111.094 104.522H111.171C113.723 102.428 115.681 99.7007 116.847 96.6128L117.194 96.7412L120.738 98.8726C126.491 102.357 132.133 106.012 137.663 109.838C131.371 108.143 124.257 108.554 118.838 112.149C115.419 114.587 112.697 117.876 110.94 121.689C109.189 125.481 107.779 129.421 106.728 133.463L106.651 133.797C105.899 133.617 105.135 133.488 104.366 133.412L104.417 132.513Z" fill="#3773FF"/>
<path d="M89.3389 140.898C82.5766 149.501 78.3237 159.806 77.0498 170.674L75.4446 170.455C73.3001 165.037 74.5843 158.733 77.4864 153.686C80.3885 148.64 84.7674 144.596 89.1205 140.731L89.3389 140.898Z" fill="#3773FF"/>
<path d="M25.3781 143.428C34.7082 142.561 43.9224 140.724 52.8712 137.945C53.6673 137.637 54.4763 137.342 55.2725 137.072V136.931C44.9431 136.574 34.6861 138.78 25.4166 143.351L25.3781 143.428ZM68.1522 189.818C70.3186 191.598 72.8609 192.862 75.5873 193.516V193.735C70.7053 194.688 65.6431 193.859 61.3207 191.398C57.9434 189.459 55.1312 186.583 51.6384 184.901C37.832 187.019 23.7176 184.297 11.6894 177.197L9.22382 177.376C3.38341 169.034 0.511546 158.972 1.06798 148.804C1.62442 138.635 5.577 128.948 12.2929 121.292C12.8322 120.688 13.3716 120.085 13.9366 119.52L17.5706 120.316C25.4168 119.004 33.4747 119.971 40.7876 123.102C47.7032 126.058 54.2008 129.908 60.1136 134.555L61.0639 135.262C64.1103 134.425 67.2013 133.761 70.3224 133.271C72.9264 132.753 75.5961 132.649 78.2326 132.963C80.8905 133.292 83.326 134.613 85.0513 136.661V136.777C82.7678 137.562 80.6698 138.807 78.8875 140.436C73.8175 147.138 69.3648 154.284 65.584 161.789C63.5808 165.731 61.7316 169.865 61.4491 174.269C61.2843 177.203 61.8041 180.135 62.9674 182.834C64.1308 185.532 65.9058 187.924 68.1522 189.818Z" fill="#3773FF"/>
<path d="M60.6135 133.913C64.348 130.188 68.3016 126.69 72.4531 123.436C74.5719 121.857 77.153 120.329 79.7213 120.996C83.2269 121.895 84.5881 126.286 87.593 128.276L90.8803 127.095C91.927 128.268 93.0373 129.382 94.2062 130.434L99.7536 133.502V133.605C97.6345 133.921 95.5899 134.617 93.7182 135.659C90.7991 135.407 87.86 135.788 85.1017 136.776V136.661C83.3765 134.613 80.941 133.292 78.2831 132.963C75.6466 132.649 72.9769 132.753 70.3729 133.271C67.2518 133.76 64.1607 134.425 61.1143 135.261L60.1641 134.555L60.6135 133.913Z" fill="#3773FF"/>
<path d="M60.6131 133.912L60.138 134.554C54.2252 129.907 47.7276 126.057 40.812 123.101C33.4991 119.97 25.4412 119.003 17.595 120.315L13.9609 119.519C22.3719 110.865 33.775 105.626 44.9083 100.811C44.9083 101.196 45.0239 101.581 45.1138 101.967C45.9348 104.659 47.2118 107.191 48.8891 109.452C53.8331 117.067 57.7737 125.289 60.6131 133.912Z" fill="#3773FF"/>
<path d="M51.4727 92.4525C51.5791 91.469 51.8956 90.5198 52.4007 89.6691C52.9058 88.8185 53.5878 88.0863 54.4005 87.522H56.2624C56.3629 90.7144 56.2513 93.91 55.9286 97.0877L55.7488 97.2418C54.3106 95.624 52.8852 94.0275 51.4727 92.4525Z" fill="#3773FF"/>
<path d="M73.815 113.498C77.6674 116.066 81.9435 118.274 85.4492 121.394C86.614 122.45 87.72 123.569 88.7622 124.745L90.881 127.121L87.5937 128.302C84.5888 126.312 83.2276 121.882 79.722 121.022C77.1537 120.354 74.5855 121.882 72.4538 123.461C68.3023 126.715 64.3487 130.214 60.6142 133.939C57.7748 125.315 53.8342 117.094 48.8902 109.479C47.2129 107.218 45.9359 104.686 45.1149 101.993C45.025 101.608 44.9608 101.223 44.9094 100.838C44.6957 98.4672 45.0386 96.0798 45.911 93.8654C47.5932 89.3201 51.1631 85.2627 55.8501 84.0044H56.0684C56.1711 85.16 56.2353 86.3156 56.261 87.484H54.3991C53.5864 88.0483 52.9045 88.7805 52.3993 89.6311C51.8942 90.4818 51.5777 91.431 51.4713 92.4145C52.8838 93.9981 54.3092 95.5731 55.7474 97.1396C61.0867 103.302 67.1535 108.795 73.815 113.498Z" fill="#3773FF"/>
<path d="M55.2733 137.071C54.4771 137.341 53.6681 137.636 52.872 137.945C43.9232 140.723 34.709 142.561 25.3789 143.427V143.363C34.6484 138.792 44.9054 136.586 55.2348 136.943L55.2733 137.071Z" fill="#3773FF"/>
<path d="M56.8008 258.602C71.2258 260.494 85.6807 262.03 100.166 263.211C105.881 263.812 111.635 263.958 117.373 263.648C121.033 263.365 124.641 262.749 128.249 262.12L136.095 260.759C143.171 259.475 150.478 260.245 157.335 258.114C166.131 255.379 174.17 250.487 183.081 248.176" stroke="#3773FF" stroke-linecap="round" stroke-linejoin="round"/>
<path d="M58.6385 57.5546C57.9908 55.718 56.9575 54.0412 55.608 52.6369C54.9205 51.9485 54.0373 51.489 53.0789 51.3213C52.1205 51.1535 51.1337 51.2857 50.2532 51.6996C48.9994 52.632 48.1532 54.0115 47.8904 55.5516C47.5708 56.7424 47.3517 57.9579 47.2355 59.1853C46.8917 62.6029 47.3252 66.0539 48.5038 69.2803C49.6824 72.5066 51.5755 75.4246 54.0414 77.816C53.97 78.4896 54.0393 79.1706 54.2449 79.816C54.4505 80.4614 54.7878 81.057 55.2356 81.5652C55.4631 81.8147 55.7171 82.0386 55.9932 82.2329C56.8206 82.8386 57.8186 83.1667 58.844 83.1702" stroke="#1D1D1B" stroke-linecap="round" stroke-linejoin="round"/>
<path d="M67.5086 11.8828C66.4556 12.3194 65.4027 12.7559 64.3497 13.231C60.4973 14.9772 56.7092 17.083 54.1537 20.4342C50.006 25.8783 49.9803 33.2741 50.1601 40.1178V40.3232" stroke="#1D1D1B" stroke-linecap="round" stroke-linejoin="round"/>
<path d="M51.882 38.4351C51.2496 38.9456 50.6611 39.5083 50.1227 40.1171C47.7865 42.6299 46.2481 45.7789 45.7018 49.166C45.1555 52.5531 45.626 56.0261 47.0537 59.1459" stroke="#1D1D1B" stroke-linecap="round" stroke-linejoin="round"/>
<path d="M64.3125 13.2177C67.3846 8.33684 71.9845 4.60869 77.3961 2.61381C82.8077 0.618938 88.7271 0.469314 94.2325 2.18823" stroke="#1D1D1B" stroke-linecap="round" stroke-linejoin="round"/>
<path d="M86.0781 3.36916C88.7876 3.02249 91.51 2.67582 94.2323 2.45754C97.338 2.18147 100.462 2.18147 103.568 2.45754C109.385 3.03534 115.241 5.02552 119.401 9.1985C120.533 10.4699 121.743 11.6705 123.022 12.7937C123.688 13.3684 124.483 13.7736 125.34 13.9748C126.196 14.176 127.088 14.1672 127.941 13.9493C127.439 14.4584 126.838 14.859 126.176 15.1263C125.513 15.3935 124.802 15.5217 124.088 15.5029" stroke="#1D1D1B" stroke-linecap="round" stroke-linejoin="round"/>
<path d="M110.836 14.0268C113.001 13.3063 115.303 13.0971 117.562 13.4157C119.821 13.7342 121.976 14.5719 123.857 15.8629C124.81 16.4845 125.693 17.2077 126.489 18.02C128.411 20.1305 129.882 22.6101 130.814 25.3076C131.745 28.0052 132.118 30.8642 131.908 33.7104C131.78 36.1756 131.292 38.6281 131.382 41.0933C131.361 42.3291 131.601 43.5554 132.086 44.6924C132.57 45.8295 133.289 46.8518 134.194 47.6931" stroke="#1D1D1B" stroke-linecap="round" stroke-linejoin="round"/>
<path d="M69.1034 27.5859C67.8986 29.9625 67.4505 32.651 67.8193 35.2899C68.2363 37.9561 69.4911 40.4205 71.402 42.3262C71.2806 43.1978 70.9634 44.0308 70.4741 44.7624C69.9848 45.494 69.3362 46.1053 68.577 46.5505C67.0514 47.4207 65.6625 48.511 64.4549 49.7861C63.4584 51.3875 62.7662 53.1592 62.4132 55.012C62.2342 55.9517 61.8503 56.8405 61.2887 57.615C60.7272 58.3895 60.0019 59.0307 59.1643 59.4931L58.625 57.5286" stroke="#1D1D1B" stroke-linecap="round" stroke-linejoin="round"/>
<path d="M59.1641 74.2202C59.9602 77.1092 59.5878 80.1908 59.3695 83.2082C59.3695 83.3109 59.3695 83.4136 59.3695 83.5163C59.1512 86.6108 59.1769 89.9363 60.7564 92.5813C63.2476 96.8185 68.8464 98.3079 71.6201 102.352" stroke="#1D1D1B" stroke-linecap="round" stroke-linejoin="round"/>
<path d="M70.875 98.7185C71.0583 99.9309 71.3462 101.125 71.7354 102.288C72.3944 104.555 73.6809 106.589 75.4465 108.156C78.156 110.441 81.8671 111.083 85.4113 111.173C88.9555 111.263 92.5253 110.891 96.3392 111.314L97.1096 111.52C98.8933 112.042 100.735 112.34 102.593 112.406C104.231 112.449 105.85 112.05 107.28 111.25C107.702 111 108.094 110.703 108.448 110.364C109.912 108.737 110.836 106.696 111.094 104.522C111.184 104.034 111.274 103.546 111.351 103.071" stroke="#1D1D1B" stroke-linecap="round" stroke-linejoin="round"/>
<path d="M111.168 104.535C113.72 102.44 115.677 99.713 116.844 96.6251C117.191 95.7905 117.473 94.9431 117.73 94.0571C118.427 91.5352 118.904 88.9575 119.155 86.3532C119.309 84.8252 119.438 83.2844 119.553 81.7437" stroke="#1D1D1B" stroke-linecap="round" stroke-linejoin="round"/>
<path d="M117.887 83.5806C118.354 82.9214 118.783 82.2354 119.171 81.5262C120.7 79.0268 121.676 76.2293 122.034 73.3215L123.229 67.0685C123.691 64.6032 124.166 62.1508 124.628 59.6855" stroke="#1D1D1B" stroke-linecap="round" stroke-linejoin="round"/>
<path d="M134.361 47.7052H134.207C133.749 47.809 133.275 47.8146 132.814 47.7216C132.354 47.6287 131.918 47.4393 131.536 47.166C130.715 46.6267 130.06 45.882 129.405 45.394C129.25 48.6261 130.191 51.8156 132.076 54.4462C130.081 53.7833 128.305 52.5891 126.939 50.9922C127.791 52.2701 128.38 53.7049 128.671 55.2128C128.962 56.7208 128.95 58.2716 128.634 59.7747C128.36 61.0111 127.878 62.192 127.209 63.2672C126.271 64.813 124.976 66.1118 123.434 67.055" stroke="#1D1D1B" stroke-linecap="round" stroke-linejoin="round"/>
<path d="M127.44 63.4473C128.3 64.622 128.871 65.9833 129.105 67.4202C129.339 68.8572 129.231 70.3291 128.789 71.7162C127.867 74.4772 126.424 77.0358 124.538 79.2532C122.657 81.4648 120.985 83.8461 119.543 86.3665" stroke="#1D1D1B" stroke-linecap="round" stroke-linejoin="round"/>
<path d="M96.5682 114.088C95.438 117.314 93.8834 120.375 91.9453 123.191" stroke="#1D1D1B" stroke-linecap="round" stroke-linejoin="round"/>
<path d="M101.527 29.4478L110.041 24.5173C110.914 23.8434 112.014 23.5349 113.11 23.657C116.963 28.2537 118.028 34.4297 119.595 40.1948C121.29 46.3984 123.663 52.3965 126.67 58.0809" stroke="#1D1D1B" stroke-linecap="round" stroke-linejoin="round"/>
<path d="M124.781 59.5828C124.229 56.8479 123.638 53.1628 123.086 50.4536" stroke="#1D1D1B" stroke-linecap="round" stroke-linejoin="round"/>
<path d="M55.9543 82.502C55.9543 82.9899 56.0442 83.4778 56.0827 83.9657C56.1854 85.1213 56.2496 86.2769 56.2753 87.4453C56.3757 90.6378 56.2642 93.8334 55.9414 97.011" stroke="#1D1D1B" stroke-linecap="round" stroke-linejoin="round"/>
<path d="M55.8501 83.9792C51.1631 85.2632 47.5932 89.295 45.911 93.8403C45.0386 96.0546 44.6957 98.4421 44.9094 100.812C44.9094 101.198 45.025 101.583 45.1149 101.968C45.9359 104.661 47.2129 107.193 48.8902 109.454C53.8342 117.069 57.7748 125.29 60.6142 133.914C64.3487 130.189 68.3023 126.69 72.4538 123.436C74.5726 121.857 77.1537 120.329 79.722 120.997C83.2276 121.896 84.5888 126.287 87.5937 128.277C87.7961 128.409 88.0062 128.529 88.2229 128.636" stroke="#1D1D1B" stroke-linecap="round" stroke-linejoin="round"/>
<path d="M54.4005 87.5093C53.5878 88.0736 52.9058 88.8058 52.4007 89.6565C51.8956 90.5071 51.5791 91.4563 51.4727 92.4398C52.8852 94.0234 54.3106 95.5984 55.7488 97.1649C61.0896 103.319 67.1563 108.803 73.8164 113.497C77.6688 116.065 81.9449 118.274 85.4505 121.394C86.6154 122.449 87.7214 123.568 88.7636 124.745L90.8824 127.12C91.9291 128.293 93.0394 129.408 94.2083 130.459L99.7556 133.528" stroke="#1D1D1B" stroke-linecap="round" stroke-linejoin="round"/>
<path d="M107.383 111.393C104.645 118.075 103.625 125.336 104.417 132.514" stroke="#1D1D1B" stroke-linecap="round" stroke-linejoin="round"/>
<path d="M106.703 133.54C107.754 129.498 109.164 125.558 110.915 121.766C112.672 117.953 115.394 114.664 118.812 112.226C124.231 108.605 131.345 108.22 137.638 109.915H137.715" stroke="#1D1D1B" stroke-linecap="round" stroke-linejoin="round"/>
<path d="M117.18 96.7539L120.724 98.8853C126.477 102.369 132.118 106.024 137.649 109.851" stroke="#1D1D1B" stroke-linecap="round" stroke-linejoin="round"/>
<path d="M120.953 98.5127L142.475 101.813C143.656 101.004 146.571 101.171 147.868 101.813" stroke="#1D1D1B" stroke-linecap="round" stroke-linejoin="round"/>
<path d="M142.605 104.15C143.414 111.533 143.62 120.097 144.429 127.48" stroke="#1D1D1B" stroke-linecap="round" stroke-linejoin="round"/>
<path d="M137.137 116.297C137.9 120.631 139.302 124.829 141.297 128.752" stroke="#1D1D1B" stroke-linecap="round" stroke-linejoin="round"/>
<path d="M44.9354 100.799C33.8021 105.614 22.3991 110.853 13.988 119.507C13.423 120.072 12.8837 120.676 12.3444 121.279C8.37502 125.844 5.34791 131.148 3.43738 136.888C1.52685 142.627 0.770613 148.688 1.21223 154.72C1.65384 160.753 3.28456 166.639 6.01052 172.039C8.73648 177.439 12.5038 182.247 17.0956 186.185C18.3786 187.299 19.7296 188.332 21.1406 189.279" stroke="#1D1D1B" stroke-linecap="round" stroke-linejoin="round"/>
<path d="M17.0312 186.299C18.0052 190.074 20.0262 193.497 22.8612 196.173C24.4589 197.734 26.1763 199.168 27.9977 200.461C29.2818 201.437 30.6943 202.362 32.0555 203.286" stroke="#1D1D1B" stroke-linecap="round" stroke-linejoin="round"/>
<path d="M27.8438 200.642C35.6598 212.849 43.9552 224.734 52.7301 236.299C53.9714 237.959 55.2298 239.603 56.5054 241.229" stroke="#1D1D1B" stroke-linecap="round" stroke-linejoin="round"/>
<path d="M52.4727 236.516C53.9366 243.878 55.3962 251.239 56.8515 258.601V258.819" stroke="#1D1D1B" stroke-linecap="round" stroke-linejoin="round"/>
<path d="M106.806 135.595L106.652 135.685C100.791 139.264 96.4871 144.915 94.5941 151.516C92.7479 158.159 92.6638 165.169 94.3501 171.855C95.6342 177.556 98.2025 183.321 102.992 186.685C107.782 190.049 113.561 191.448 117.195 186.865" stroke="#1D1D1B" stroke-linecap="round" stroke-linejoin="round"/>
<path d="M91.7278 138.035C90.8931 138.959 90.097 139.922 89.3522 140.898C82.59 149.501 78.3371 159.806 77.0632 170.674C76.9776 171.53 76.9005 172.386 76.832 173.242" stroke="#1D1D1B" stroke-linecap="round" stroke-linejoin="round"/>
<path d="M75.4603 170.455C73.3158 165.037 74.5999 158.733 77.502 153.686C80.4041 148.64 84.783 144.596 89.1362 140.731" stroke="#1D1D1B" stroke-linecap="round" stroke-linejoin="round"/>
<path d="M109.811 134.953C108.793 134.473 107.725 134.107 106.626 133.862C105.874 133.681 105.11 133.553 104.34 133.477C102.817 133.327 101.281 133.37 99.7688 133.605C97.6498 133.921 95.6052 134.617 93.7335 135.659C90.8144 135.407 87.8753 135.788 85.117 136.776C82.8335 137.561 80.7355 138.807 78.9532 140.436C73.861 147.135 69.3868 154.282 65.5855 161.789C63.5823 165.73 61.7331 169.865 61.4506 174.269C61.2777 177.211 61.7935 180.154 62.9571 182.862C64.1208 185.57 65.9001 187.969 68.1537 189.869C70.4444 191.727 73.1356 193.027 76.0149 193.667C78.8942 194.306 81.8827 194.268 84.7446 193.554" stroke="#1D1D1B" stroke-linecap="round" stroke-linejoin="round"/>
<path d="M79.3477 192.604C81.1869 192.644 83.0131 192.925 84.7795 193.439C86.6929 193.952 88.5677 194.594 90.4682 195.108C97.1317 196.908 104.137 197.032 110.86 195.468C114.137 194.821 117.216 193.414 119.849 191.359C121.159 190.315 122.21 188.983 122.921 187.466C123.631 185.95 123.982 184.289 123.945 182.615" stroke="#1D1D1B" stroke-linecap="round" stroke-linejoin="round"/>
<path d="M13 163.279C23.1696 161.947 33.0718 159.049 42.3551 154.689C51.6302 150.332 60.6352 145.423 69.3216 139.987" stroke="#1D1D1B" stroke-linecap="round" stroke-linejoin="round"/>
<path d="M26.9844 174.435C43.0908 166.475 58.1521 156.556 71.8259 144.903" stroke="#1D1D1B" stroke-linecap="round" stroke-linejoin="round"/>
<path d="M17.9297 143.941C20.4209 143.838 22.9121 143.671 25.3776 143.44C34.7077 142.573 43.9219 140.736 52.8707 137.957C53.6668 137.649 54.4758 137.354 55.272 137.084C57.181 136.408 59.12 135.804 61.089 135.274C64.1354 134.437 67.2265 133.773 70.3476 133.283C72.9516 132.765 75.6212 132.661 78.2578 132.975C80.9157 133.304 83.3512 134.625 85.0764 136.673" stroke="#1D1D1B" stroke-linecap="round" stroke-linejoin="round"/>
<path d="M25.3672 143.363C34.6367 138.792 44.8937 136.586 55.223 136.943" stroke="#1D1D1B" stroke-linecap="round" stroke-linejoin="round"/>
<path d="M17.5938 120.316C25.4399 119.004 33.4978 119.971 40.8107 123.102C47.7263 126.058 54.2239 129.909 60.1367 134.556L61.087 135.262" stroke="#1D1D1B" stroke-linecap="round" stroke-linejoin="round"/>
<path d="M11.6367 177.197C23.6649 184.297 37.7793 187.019 51.5858 184.901" stroke="#1D1D1B" stroke-linecap="round" stroke-linejoin="round"/>
<path d="M43.7539 183.154C46.1899 183.202 48.5982 183.68 50.868 184.566L51.5871 184.9C55.0799 186.582 57.8921 189.458 61.2694 191.397C65.5918 193.858 70.654 194.688 75.5359 193.734" stroke="#1D1D1B" stroke-linecap="round" stroke-linejoin="round"/>
<path d="M51.8459 188.162C48.2232 195 43.349 201.097 37.4766 206.138" stroke="#1D1D1B" stroke-linecap="round" stroke-linejoin="round"/>
<path d="M56.1335 192.681L53.668 217.077" stroke="#1D1D1B" stroke-linecap="round" stroke-linejoin="round"/>
<path d="M124.871 181.434C133.102 204.417 140.435 229.789 143.825 253.966" stroke="#1D1D1B" stroke-linecap="round" stroke-linejoin="round"/>
<path d="M106.703 135.775C107.748 135.501 108.788 135.244 109.824 135.005C118.183 133.079 126.748 132.026 135.146 130.267L135.583 130.177C138.601 129.535 141.606 128.803 144.572 127.917C146.845 127.224 149.066 126.453 151.237 125.58C151.994 125.272 152.752 124.938 153.484 124.604C156.368 123.305 159.12 121.731 161.702 119.905C169.077 112.375 175.565 104.026 181.041 95.0211C187.287 90.9216 192.998 86.0607 198.043 80.5506C205.333 78.3272 212.154 74.7846 218.165 70.0988C218.475 70.0485 218.792 70.0673 219.094 70.1539C219.396 70.2404 219.675 70.3927 219.911 70.5996C220.38 71.0271 220.767 71.5361 221.054 72.1019C221.805 73.3818 222.302 74.7942 222.518 76.262C222.718 77.7444 222.425 79.2513 221.683 80.5506" stroke="#1D1D1B" stroke-linecap="round" stroke-linejoin="round"/>
<path d="M175.645 112.907C176.008 111.792 176.643 110.784 177.492 109.975C178.342 109.166 179.379 108.581 180.511 108.272" stroke="#1D1D1B" stroke-linecap="round" stroke-linejoin="round"/>
<path d="M178.41 112.328C180.824 107.277 184.018 102.636 187.874 98.5768C195.294 95.2154 202.885 92.2453 210.616 89.6788C214.896 88.2578 219.211 86.9738 223.56 85.8268C224.632 85.8192 225.687 86.0911 226.621 86.6158C227.556 87.1404 228.338 87.8996 228.889 88.8185C229.433 89.7485 229.774 90.7831 229.889 91.8542C230.004 92.9254 229.891 94.0088 229.557 95.0331C228.855 97.1788 227.406 99.0014 225.473 100.169C223.997 101.042 222.507 101.902 221.017 102.737C215.025 106.161 208.942 109.431 202.77 112.547" stroke="#1D1D1B" stroke-linecap="round" stroke-linejoin="round"/>
<path d="M200.88 109.004C199.413 111.576 197.72 114.013 195.82 116.284" stroke="#1D1D1B" stroke-linecap="round" stroke-linejoin="round"/>
<path d="M200.762 131.91C203.239 129.534 205.592 127.031 207.812 124.412" stroke="#1D1D1B" stroke-linecap="round" stroke-linejoin="round"/>
<path d="M221.103 102.725C222.142 102.164 223.246 101.732 224.39 101.441C225.55 101.151 226.776 101.302 227.831 101.864C229.072 102.808 229.973 104.128 230.4 105.627C231.453 108.195 232.506 111.045 231.53 113.626C230.8 115.217 229.616 116.558 228.127 117.478C227.78 117.722 227.421 117.966 227.074 118.184C221.206 121.76 215.066 124.868 208.711 127.48" stroke="#1D1D1B" stroke-linecap="round" stroke-linejoin="round"/>
<path d="M228.026 117.478L228.142 117.542C230.299 118.605 231.98 120.437 232.854 122.678C233.674 125.01 233.723 127.544 232.996 129.907C232.264 130.446 231.532 130.985 230.787 131.499C224.809 135.726 218.389 139.29 211.641 142.13" stroke="#1D1D1B" stroke-linecap="round" stroke-linejoin="round"/>
<path d="M211.33 139.268L206.438 144.237" stroke="#1D1D1B" stroke-linecap="round" stroke-linejoin="round"/>
<path d="M230.954 131.768C232.115 132.939 232.899 134.431 233.203 136.052C233.508 137.672 233.319 139.347 232.662 140.859C232.111 141.874 231.361 142.767 230.456 143.484C229.551 144.201 228.511 144.728 227.397 145.032C225.227 145.79 222.902 146.059 220.707 146.753C219.926 146.996 219.162 147.292 218.421 147.638C216.828 148.36 215.345 149.302 214.016 150.438L213.695 150.72" stroke="#1D1D1B" stroke-linecap="round" stroke-linejoin="round"/>
<path d="M216.466 147.395C215.751 148.502 214.911 149.523 213.962 150.438C213.095 151.309 212.159 152.107 211.163 152.826C199.221 156.537 186.469 155.946 173.923 154.983L170.688 154.727" stroke="#1D1D1B" stroke-linecap="round" stroke-linejoin="round"/>
<path d="M117.195 186.865C119.301 185.222 121.441 183.617 123.616 182.05C132.004 175.991 140.819 170.545 149.992 165.756C151.61 164.896 153.241 164.074 154.871 163.278C156.001 162.713 157.144 162.161 158.287 161.635C159.674 160.98 161.074 160.351 162.473 159.709C166.274 157.997 170.127 156.422 174.031 154.984L174.198 154.919" stroke="#1D1D1B" stroke-linecap="round" stroke-linejoin="round"/>
<path d="M210.469 89.2432C213.851 85.9148 217.686 83.0793 221.859 80.8203C225.914 78.5893 230.176 76.7574 234.585 75.3504C243.496 72.4615 252.781 70.9849 262.026 69.5083" stroke="#1D1D1B" stroke-linecap="round" stroke-linejoin="round"/>
<path d="M170.47 19.5089C170.572 19.5089 170.65 19.3805 170.688 19.1493C172.177 16.8162 173.898 14.6395 175.825 12.6523C162.373 14.7672 149.094 17.8613 136.094 21.9099C137.534 26.9091 139.43 31.7658 141.757 36.419" stroke="#1D1D1B" stroke-linecap="round" stroke-linejoin="round"/>
<path d="M223.595 85.4294C236.191 78.2335 249.752 72.8763 263.866 69.5208L262.119 69.1227C244.747 65.1925 227.824 59.4918 211.615 52.1098C213.526 54.0729 215.541 55.9331 217.65 57.6824C214.581 56.3984 211.525 55.1144 208.995 53.8304C208.62 55.0963 208.076 56.3057 207.377 57.4255C206.672 58.56 205.553 59.3752 204.257 59.6982C203.101 59.7981 201.936 59.7245 200.802 59.4799C199.315 59.307 197.818 59.6963 196.603 60.5713L190.183 70.1371C189.546 71.2179 188.714 72.1714 187.73 72.949C185.611 74.4384 182.748 74.0789 180.192 73.6552C180.192 74.9392 180.192 76.2232 180.192 77.6356L177.226 77.0963C177.431 78.1235 177.637 79.1378 178.022 80.5631C176.86 81.3196 175.738 82.1338 174.658 83.0027C169.905 86.7614 165.98 91.4618 163.129 96.8088C160.278 102.156 158.564 108.034 158.092 114.075C157.541 111.055 157.45 107.968 157.823 104.92C158.526 99.7904 159.774 94.75 161.547 89.8848C164.115 82.0653 167.043 74.0404 167.056 65.1038C171.032 61.3057 175.572 58.1441 180.513 55.7307C182.7 54.6535 184.962 53.7353 187.28 52.9829C184.815 50.1196 182.401 46.9738 181.772 43.2503C181.142 39.5267 182.915 35.1355 186.741 34.0184C185.053 34.1411 183.379 33.6363 182.04 32.6008C180.701 31.5653 179.792 30.072 179.486 28.4073C179.449 27.6441 179.333 26.8868 179.139 26.1475C178.893 25.549 178.514 25.0139 178.032 24.5825C177.549 24.1512 176.975 23.8346 176.353 23.6566C175.133 23.2457 173.784 23.22 172.398 22.8733L174.747 18.1226L170.459 19.5093H170.356" stroke="#1D1D1B" stroke-linecap="round" stroke-linejoin="round"/>
<path d="M147.128 45.574C148.653 44.6859 149.943 43.4444 150.888 41.954C151.833 40.4637 152.406 38.768 152.56 37.0098C152.701 35.2402 152.377 33.4643 151.62 31.8584C150.863 30.2525 149.7 28.8724 148.245 27.855C147.645 27.9614 147.108 28.2919 146.743 28.7795C146.612 28.9327 146.5 29.1008 146.409 29.2802C146.07 30.0085 145.795 30.7645 145.587 31.54C145.126 32.9119 144.431 34.1934 143.532 35.3278C143.06 35.9174 142.545 36.471 141.991 36.9842C140.604 38.2576 139.038 39.3217 137.343 40.1428C136.958 42.7108 136.521 45.3686 135.982 48.0265C135.519 50.2991 134.98 52.6103 134.351 54.9857C134.154 55.7304 133.948 56.4751 133.734 57.2199C136.57 64.0929 140.203 70.609 144.56 76.6338C144.958 77.2244 145.381 77.8022 145.844 78.3672" stroke="#1D1D1B" stroke-linecap="round" stroke-linejoin="round"/>
<path d="M147.883 77.5581C148.591 78.6549 148.958 79.9376 148.936 81.2432" stroke="#1D1D1B" stroke-linecap="round" stroke-linejoin="round"/>
<path d="M147.703 45.6899C147.703 46.6915 147.703 47.693 147.703 48.6945C147.64 50.9621 147.46 53.2249 147.164 55.474" stroke="#1D1D1B" stroke-linecap="round" stroke-linejoin="round"/>
<path d="M147.898 48.6948C152.011 66.7858 154.24 85.2538 154.55 103.804C154.55 104.061 154.55 104.33 154.55 104.587" stroke="#1D1D1B" stroke-linecap="round" stroke-linejoin="round"/>
<path d="M156.115 92.7358C155.499 96.4081 154.972 100.106 154.561 103.804C153.791 110.532 153.363 117.281 153.277 124.052" stroke="#1D1D1B" stroke-linecap="round" stroke-linejoin="round"/>
<path d="M144.559 76.6475C145.252 85.0576 146.652 93.4035 148.013 101.749C149.297 109.672 150.581 117.581 151.262 125.568" stroke="#1D1D1B" stroke-linecap="round" stroke-linejoin="round"/>
<path d="M169.957 75.6846C169.842 77.2767 169.713 78.8817 169.598 80.4739" stroke="#1D1D1B" stroke-linecap="round" stroke-linejoin="round"/>
<path d="M170.957 78.1749C171.548 76.8909 172.126 75.6069 172.703 74.323C175.272 68.8018 177.84 63.2678 180.472 57.6311C180.472 56.9377 180.472 56.3471 180.472 55.7051" stroke="#1D1D1B" stroke-linecap="round" stroke-linejoin="round"/>
<path d="M172.809 74.3745C172.91 77.1934 173.452 79.979 174.414 82.6306" stroke="#1D1D1B" stroke-linecap="round" stroke-linejoin="round"/>
<path d="M162.664 160.145C170.78 162.34 179.358 162.276 187.666 163.316C191.561 163.809 195.421 164.547 199.223 165.525L201.303 166.09C208.994 168.25 216.374 171.392 223.262 175.437" stroke="#1D1D1B" stroke-linecap="round" stroke-linejoin="round"/>
<path d="M218.598 148.024L222.681 167.155C223.4 169.864 223.729 172.661 223.657 175.463V175.527" stroke="#1D1D1B" stroke-linecap="round" stroke-linejoin="round"/>
<path d="M158.414 161.917C158.804 169.641 162.228 176.899 167.941 182.112C173.655 187.325 181.196 190.072 188.925 189.754C192.907 189.766 196.777 188.431 199.904 185.966C202.883 183.398 204.514 179.007 203.114 175.322L199.185 165.769" stroke="#1D1D1B" stroke-linecap="round" stroke-linejoin="round"/>
<path d="M154.832 163.278C154.597 166.273 154.666 169.284 155.037 172.266C155.965 179.562 158.462 186.571 162.357 192.81C162.806 193.542 163.281 194.248 163.782 194.941" stroke="#1D1D1B" stroke-linecap="round" stroke-linejoin="round"/>
<path d="M154.358 172.419C153.587 176.477 152.932 180.688 153.895 184.694C154.858 188.7 157.85 192.514 161.921 193.207" stroke="#1D1D1B" stroke-linecap="round" stroke-linejoin="round"/>
<path d="M150.016 165.82C147.611 174.369 148.415 183.502 152.276 191.5C155.936 199.024 162.549 205.303 170.588 207.575C172.406 208.079 174.276 208.376 176.161 208.461C182.581 208.782 188.861 206.818 191.57 203.929C194.944 202.438 197.945 200.217 200.357 197.426C202.769 194.635 204.531 191.343 205.516 187.789C206.392 184.088 206.468 180.242 205.739 176.509C205.011 172.776 203.494 169.241 201.291 166.141" stroke="#1D1D1B" stroke-linecap="round" stroke-linejoin="round"/>
<path d="M176.148 208.641C179.592 221.461 182.094 234.515 183.635 247.7" stroke="#1D1D1B" stroke-linecap="round" stroke-linejoin="round"/>
<path d="M132.137 125.028L135.578 130.164" stroke="#1D1D1B" stroke-linecap="round" stroke-linejoin="round"/>
<path d="M74.832 51.6735C75.0973 51.422 75.4133 51.2301 75.7588 51.1105C76.1042 50.9909 76.4712 50.9465 76.8353 50.9801C77.5657 51.0596 78.2752 51.2729 78.9284 51.6093C81.3844 52.7434 83.5725 54.3843 85.349 56.4243C87.6175 58.3999 90.3927 59.7028 93.3619 60.1863" stroke="#1D1D1B" stroke-width="0.5" stroke-linecap="round" stroke-linejoin="round"/>
<path d="M97.7011 58.0801L94.0156 61.7908" stroke="#1D1D1B" stroke-width="0.5" stroke-linecap="round" stroke-linejoin="round"/>
<path d="M83.6016 42.3774C88.1306 45.9892 92.1557 50.191 95.5696 54.8707" stroke="#1D1D1B" stroke-width="0.5" stroke-linecap="round" stroke-linejoin="round"/>
<path d="M97.4688 45.6772C98.5119 49.2497 99.0056 52.9601 98.9327 56.6811" stroke="#1D1D1B" stroke-width="0.5" stroke-linecap="round" stroke-linejoin="round"/>
<path d="M105.34 51.4556C103.785 54.0138 102.58 56.769 101.758 59.6474" stroke="#1D1D1B" stroke-width="0.5" stroke-linecap="round" stroke-linejoin="round"/>
<path d="M101.129 63.8848C101.18 66.6068 101.236 69.3289 101.296 72.0509" stroke="#1D1D1B" stroke-width="0.5" stroke-linecap="round" stroke-linejoin="round"/>
<path d="M102.988 61.2003C103.413 61.5861 103.923 61.8662 104.476 62.018C105.029 62.1697 105.611 62.1887 106.173 62.0734L114.006 56.6165C114.917 55.8982 115.954 55.3541 117.062 55.0115C117.616 54.8427 118.206 54.8263 118.769 54.9641C119.331 55.102 119.846 55.3889 120.26 55.7947" stroke="#1D1D1B" stroke-width="0.5" stroke-linecap="round" stroke-linejoin="round"/>
<path d="M88.5186 63.679C88.3666 62.7249 87.9961 61.8188 87.436 61.0316C86.8758 60.2445 86.1412 59.5975 85.2895 59.1412C84.4378 58.6849 83.4921 58.4318 82.5264 58.4015C81.5606 58.3712 80.601 58.5647 79.7224 58.9667C78.1253 59.4822 76.7437 60.5115 75.793 61.8942C80.0306 62.2794 84.2039 62.9214 88.5186 63.679Z" stroke="#1D1D1B" stroke-width="0.5" stroke-linecap="round" stroke-linejoin="round"/>
<path d="M87.0554 67.6079C84.1217 70.3255 80.5041 72.194 76.5898 73.0135" stroke="#1D1D1B" stroke-width="0.5" stroke-linecap="round" stroke-linejoin="round"/>
<path d="M106.625 68.0566C107.385 69.6218 108.485 70.9976 109.845 72.0838C111.205 73.17 112.789 73.9392 114.484 74.3354" stroke="#1D1D1B" stroke-width="0.5" stroke-linecap="round" stroke-linejoin="round"/>
<path d="M111.233 64.7701C109.374 64.7159 107.513 64.7716 105.66 64.937C106.613 63.7911 107.709 62.7726 108.922 61.9068C110.159 61.0432 111.681 60.6891 113.172 60.9181C115.381 61.3804 116.845 63.4091 117.949 65.3094C116.216 65.0654 114.456 64.8985 112.71 64.8215C112.222 64.783 111.734 64.7701 111.233 64.7701Z" stroke="#1D1D1B" stroke-width="0.5" stroke-linecap="round" stroke-linejoin="round"/>
<path d="M93.7193 77.9059C93.2858 76.9564 92.6639 76.1048 91.8913 75.4029C91.1188 74.701 90.2116 74.1634 89.2249 73.8228C87.9279 74.9105 87.0253 76.3951 86.6566 78.0471C86.6506 78.124 86.6506 78.2013 86.6566 78.2782C86.5922 78.4907 86.5715 78.714 86.5958 78.9347C86.6201 79.1553 86.6888 79.3688 86.7978 79.5622C87.1983 79.9265 87.7204 80.128 88.2618 80.1272C89.6296 80.3278 90.9051 80.9364 91.9215 81.8734C93.3854 83.2216 94.4255 85.3145 96.3902 85.7254C97.0261 85.8155 97.6741 85.7582 98.2843 85.5578C98.8944 85.3574 99.4502 85.0193 99.9088 84.5698C100.873 83.5261 101.733 82.3908 102.477 81.18C103.105 81.1028 103.695 80.8406 104.173 80.4267C104.651 80.0128 104.995 79.466 105.161 78.856C105.29 78.2271 105.226 77.5736 104.976 76.9821C104.726 76.3906 104.302 75.8889 103.761 75.5433" stroke="#1D1D1B" stroke-width="0.5" stroke-linecap="round" stroke-linejoin="round"/>
<path d="M85.2197 77.7129C81.4848 81.9236 78.532 86.7676 76.5005 92.0166C76.1061 92.9795 75.8009 93.9767 75.5888 94.9954C75.2353 96.444 75.3476 97.9671 75.9099 99.3482" stroke="#1D1D1B" stroke-width="0.5" stroke-linecap="round" stroke-linejoin="round"/>
<path d="M78.7852 95.3681C80.098 93.617 81.8811 92.2747 83.9271 91.4973C85.9731 90.7199 88.1977 90.5394 90.3423 90.9768C94.5294 92.0689 98.8752 92.4209 103.183 92.0169C104.135 92.4516 104.949 93.1386 105.538 94.0032C106.126 94.8679 106.467 95.8772 106.522 96.9217" stroke="#1D1D1B" stroke-width="0.5" stroke-linecap="round" stroke-linejoin="round"/>
<path d="M91.6758 95.9966C93.3766 96.2388 95.0952 96.3334 96.8123 96.2791C97.8135 96.2557 98.8125 96.1743 99.8043 96.0351" stroke="#1D1D1B" stroke-width="0.5" stroke-linecap="round" stroke-linejoin="round"/>
<path d="M96.7656 96.3052L99.6292 97.3452" stroke="#1D1D1B" stroke-width="0.5" stroke-linecap="round" stroke-linejoin="round"/>
<path d="M106.164 79.1636C107.87 84.9129 108.811 90.8619 108.963 96.857C108.963 97.3064 108.963 97.7686 108.963 98.218" stroke="#1D1D1B" stroke-width="0.5" stroke-linecap="round" stroke-linejoin="round"/>
<path d="M90.9336 107.231C92.7128 107.115 94.4961 107.386 96.16 108.027" stroke="#1D1D1B" stroke-width="0.5" stroke-linecap="round" stroke-linejoin="round"/>
<path d="M49.9961 55.9613C50.3444 55.6262 50.7931 55.4146 51.2732 55.3589C51.7534 55.3033 52.2385 55.4066 52.6542 55.6532C52.9394 55.8108 53.2028 56.0051 53.4376 56.231C53.8905 56.6728 54.2873 57.1687 54.6189 57.7076C55.1326 58.4651 55.6077 59.2483 56.0443 60.0187C56.9294 61.5018 57.6486 63.0778 58.1888 64.7182C56.9501 66.383 56.3571 68.4403 56.5195 70.509C56.5862 71.3924 56.7943 72.2594 57.1359 73.0769" stroke="#1D1D1B" stroke-width="0.5" stroke-linecap="round" stroke-linejoin="round"/>
<path d="M53.3108 56.3728C52.424 57.0194 51.704 57.868 51.2104 58.8482C50.7169 59.8284 50.4641 60.9121 50.4729 62.0095C50.5146 64.2137 51.1729 66.3621 52.3734 68.2112" stroke="#1D1D1B" stroke-width="0.5" stroke-linecap="round" stroke-linejoin="round"/>
<path d="M55.5297 60.353C54.7321 61.4204 54.1775 62.6491 53.9046 63.9532C53.6318 65.2574 53.6474 66.6054 53.9502 67.9029C54.1542 68.8706 54.5327 69.793 55.0674 70.625" stroke="#1D1D1B" stroke-width="0.5" stroke-linecap="round" stroke-linejoin="round"/>
<path d="M54.9531 72.7437C55.2254 74.1563 55.843 75.4796 56.7509 76.5956" stroke="#1D1D1B" stroke-width="0.5" stroke-linecap="round" stroke-linejoin="round"/>
<path d="M126.95 67.376C125.131 68.8017 123.686 70.6479 122.738 72.7559" stroke="#1D1D1B" stroke-width="0.5" stroke-linecap="round" stroke-linejoin="round"/>
<path d="M124.876 69.8032C124.838 73.1069 123.632 76.2907 121.473 78.7912" stroke="#1D1D1B" stroke-width="0.5" stroke-linecap="round" stroke-linejoin="round"/>
<path d="M82.177 62.9204C82.0952 63.0007 82.0411 63.105 82.0227 63.2182C82.0042 63.3313 82.0223 63.4474 82.0742 63.5496C82.1621 63.737 82.3165 63.885 82.5074 63.965C82.6984 64.045 82.9122 64.0512 83.1074 63.9824C83.3027 63.9136 83.4654 63.7747 83.5639 63.5927C83.6625 63.4107 83.6899 63.1985 83.6409 62.9974" stroke="#1D1D1B" stroke-width="0.5" stroke-linecap="round" stroke-linejoin="round"/>
<path d="M111.236 64.8989C111.177 64.9834 111.145 65.0844 111.145 65.1878C111.145 65.2913 111.177 65.3922 111.236 65.4767C111.306 65.5873 111.398 65.6821 111.506 65.7551C111.614 65.828 111.737 65.8776 111.866 65.9004C111.992 65.9196 112.122 65.9074 112.243 65.8648C112.364 65.8223 112.472 65.7508 112.559 65.6565C112.644 65.5597 112.701 65.4416 112.723 65.3148C112.746 65.1881 112.734 65.0576 112.687 64.9374" stroke="#1D1D1B" stroke-width="0.5" stroke-linecap="round" stroke-linejoin="round"/>
<path d="M144.043 35.3667C144.183 35.6115 144.414 35.7908 144.686 35.8655C144.958 35.9401 145.249 35.9039 145.494 35.7647C145.975 35.4518 146.354 35.0057 146.586 34.4807C147.138 33.6324 147.538 32.6937 147.767 31.7073C147.874 31.2132 147.86 30.7006 147.725 30.2131C147.591 29.7257 147.341 29.278 146.996 28.9082" stroke="#1D1D1B" stroke-width="0.5" stroke-linecap="round" stroke-linejoin="round"/>
<path d="M68.9727 24.89C69.9707 24.6473 71.0175 24.6976 71.9877 25.0346C72.9579 25.3716 73.8104 25.9812 74.443 26.7903" stroke="#1D1D1B" stroke-width="0.5" stroke-linecap="round" stroke-linejoin="round"/>
<path d="M75.0352 20.5493C76.5964 23.7584 79.1866 26.3528 82.3932 27.9194" stroke="#1D1D1B" stroke-width="0.5" stroke-linecap="round" stroke-linejoin="round"/>
<path d="M81.4414 20.0483C82.7255 21.7689 83.74 23.6435 84.9599 25.3769C86.1287 27.1702 87.7093 28.6582 89.5699 29.7168" stroke="#1D1D1B" stroke-width="0.5" stroke-linecap="round" stroke-linejoin="round"/>
<path d="M95.7607 17.3013C94.9693 18.3041 94.39 19.4574 94.058 20.691C93.7261 21.9246 93.6485 23.2128 93.8298 24.4774C94.0112 25.7419 94.4477 26.9564 95.113 28.047C95.7783 29.1376 96.6584 30.0817 97.6998 30.8217" stroke="#1D1D1B" stroke-width="0.5" stroke-linecap="round" stroke-linejoin="round"/>
</svg>
