<svg width="319" height="236" viewBox="0 0 319 236" fill="none" xmlns="http://www.w3.org/2000/svg">
<path d="M88.1094 81.4703C90.5223 78.8954 93.1381 76.4827 95.7335 74.1309C95.6003 75.4506 95.7454 76.7836 96.1593 78.0439H94.8819C94.3591 82.2506 94.9174 86.5211 96.504 90.4521L96.2201 90.5737C93.9848 90.3826 91.9087 89.3394 90.4215 87.6598C88.9343 85.9803 88.15 83.7933 88.231 81.5515L88.1094 81.4703Z" fill="#1D1D1B"/>
<path d="M56.7621 152.291C54.4802 151.822 52.1347 151.746 49.8274 152.068L49.4827 152.21C48.8744 150.669 48.2458 149.128 47.6172 147.587L49.1177 146.979C49.8595 146.908 50.6063 146.908 51.3481 146.979C53.5368 147.23 55.6278 148.025 57.4312 149.29L56.7621 152.291Z" fill="#3773FF"/>
<path d="M243.146 153.731C243.253 156.746 243.87 159.721 244.971 162.53L245.194 162.915L241.767 164.943C235.375 168.891 228.47 171.941 221.247 174.005L221.084 173.316C221.111 170.433 220.414 167.588 219.057 165.044C218.631 163.625 218.185 162.205 217.739 160.786C211.322 163.49 204.425 164.869 197.462 164.841L197.158 165.226C196.022 164.375 194.907 163.483 193.792 162.57C192.676 161.658 191.237 160.543 189.959 159.448C187.842 157.692 185.537 156.176 183.085 154.927C181.336 153.906 179.29 153.513 177.286 153.812C175.267 154.492 173.487 155.737 172.156 157.4L160.984 169.038C160.639 169.403 160.274 169.768 159.949 170.153L159.24 169.829C157.455 164.78 160.72 159.367 160.497 154.015C160.414 152.69 160.19 151.378 159.828 150.101C159.155 147.985 158.633 145.824 158.266 143.634C158.01 139.115 159.134 134.624 161.49 130.759C161.754 130.273 162.038 129.786 162.322 129.299L166.681 130.698C168.806 127.189 171.859 124.334 175.502 122.447C177.321 121.513 179.337 121.026 181.382 121.026C183.427 121.026 185.443 121.513 187.262 122.447C189.706 124.078 191.778 126.206 193.346 128.691L196.651 133.253C194.905 114.079 187.605 95.8297 175.644 80.7412L175.806 80.6195C190.535 78.8193 205.39 78.2631 220.212 78.957C224.268 79.1394 228.323 79.4436 232.379 80.0113L231.892 83.2755C227.582 92.6851 225.457 102.947 225.675 113.295C225.892 123.642 228.448 133.805 233.149 143.025L238.847 142.052C243.673 128.676 250.458 116.089 258.982 104.706L263.2 102.111C264.135 101.629 265.211 101.495 266.236 101.733C267.261 101.971 268.168 102.564 268.796 103.408C269.677 105.113 270.057 107.032 269.891 108.943C269.908 109.432 269.955 109.92 270.033 110.403C270.086 111.117 270.295 111.809 270.646 112.433C270.996 113.057 271.479 113.596 272.061 114.012L275.163 118.452C266.245 125.193 257.828 132.572 249.979 140.532C247.721 142.775 245.532 145.08 243.409 147.445L247.12 151.784L244.22 153.122L243.206 153.568L243.146 153.731Z" fill="#3773FF"/>
<path d="M299.009 180.371C300.28 174.788 299.806 168.949 297.651 163.644C296.067 160.639 293.848 158.015 291.149 155.953C288.449 153.89 285.333 152.44 282.017 151.703C278.222 150.798 274.308 150.497 270.419 150.81V151.135C263.841 152.874 257.541 155.529 251.703 159.022L251.602 158.839C250.258 157.902 249.164 156.649 248.418 155.19C248.178 154.569 248.074 153.904 248.113 153.24C248.151 152.575 248.331 151.927 248.641 151.338V151.135C248.077 151.257 247.531 151.455 247.019 151.723L243.309 147.384C245.444 145.032 247.634 142.728 249.878 140.47L252.92 143.43C261.519 134.634 273.245 129.591 285.545 129.4L290.128 127.515C291.677 127.695 293.126 128.374 294.256 129.449C295.386 130.524 296.136 131.937 296.394 133.475L297.326 133.354C298.657 133.237 299.997 133.414 301.252 133.873C302.506 134.332 303.644 135.062 304.585 136.01C306.449 137.921 308.014 140.101 309.229 142.477C311.886 146.801 314.178 151.338 316.082 156.041C318.293 161.982 319.144 168.997 315.859 174.41C313.805 177.312 311.209 179.791 308.215 181.709C305.811 183.767 302.977 185.263 299.922 186.089C298.383 186.48 296.759 186.359 295.296 185.744C293.832 185.13 292.609 184.055 291.811 182.683L291.71 182.297L298.827 180.27L299.009 180.371Z" fill="#3773FF"/>
<path d="M64.5506 191.3C65.5169 194.869 66.195 198.51 66.5783 202.188C63.557 199.41 60.7588 196.551 57.9403 193.672L57.7578 193.246L58.3864 192.963C59.7168 191.857 61.3345 191.154 63.0501 190.935L64.145 190.469L64.5506 191.3Z" fill="#D1D0D1"/>
<path d="M285.688 121.067C286.398 121.067 287.128 120.844 287.858 120.885C288.521 120.986 289.134 121.296 289.609 121.77C290.083 122.244 290.393 122.858 290.494 123.521C290.678 124.883 290.554 126.269 290.129 127.576L285.546 129.461C273.243 129.658 261.516 134.708 252.92 143.512L249.879 140.552C257.728 132.592 266.145 125.213 275.063 118.472L271.96 114.032C271.379 113.616 270.896 113.076 270.546 112.453C270.195 111.829 269.986 111.136 269.933 110.423H270.217C272.564 110.195 274.933 110.345 277.232 110.869C278.384 111.131 279.457 111.663 280.363 112.421C281.269 113.179 281.982 114.141 282.444 115.228C282.849 116.364 282.89 117.6 283.255 118.756C283.409 119.328 283.718 119.846 284.147 120.253C284.576 120.661 285.109 120.943 285.688 121.067Z" fill="#3773FF"/>
<path d="M63.4108 188.624C62.9039 187.448 62.3969 186.272 61.9103 185.096L61.5453 184.893C61.9917 184.319 62.3662 183.693 62.6605 183.028C62.3361 182.359 61.9914 181.69 61.6872 181.001C61.16 179.926 60.6734 178.831 60.207 177.736C61.0789 178.811 63.8569 178.527 64.9721 177.736C65.5411 177.355 66.0077 176.84 66.3307 176.236C66.6899 175.604 66.9498 174.92 67.1012 174.208C67.4662 172.87 67.6284 171.492 68.115 170.153C68.6017 168.815 69.6155 167.437 70.1427 165.957C70.6357 164.027 70.3747 161.983 69.4127 160.239L69.0478 159.59L72.6976 159.083C75.4194 163.304 77.4714 167.921 78.7807 172.769L79.7337 176.824C79.897 177.212 79.953 177.637 79.896 178.054C79.8389 178.472 79.6708 178.866 79.4093 179.196C78.8402 179.858 78.1525 180.408 77.3816 180.818L75.1308 182.278C74.2747 182.88 73.3652 183.403 72.4137 183.839C70.163 184.792 68.6422 187.103 66.6145 187.894L64.7491 188.117H63.7555L63.4108 188.624Z" fill="#3773FF"/>
<path d="M61.9131 185.096C62.3998 186.272 62.9067 187.448 63.4136 188.624L64.1841 190.429L63.0892 190.895C61.3736 191.114 59.7559 191.817 58.4255 192.923L57.7969 193.206C57.4725 192.476 57.0669 191.584 56.6817 190.652C56.1139 189.293 55.5259 187.874 55.1406 186.82L55.5462 187.266C56.6846 187.485 57.8621 187.375 58.9398 186.947C60.0175 186.52 60.9507 185.793 61.6292 184.853L61.9131 185.096Z" fill="#D1D0D1"/>
<path d="M66.6558 142.883C71.6692 150.114 77.1345 157.021 83.0193 163.563C80.8906 154.614 75.579 146.745 68.0752 141.423C67.5683 141.058 66.7978 140.713 66.3517 141.18C65.9056 141.646 66.2908 142.376 66.6558 142.883ZM68.9471 159.812C68.0026 158.368 66.7996 157.11 65.3986 156.102C62.8484 154.188 59.8934 152.884 56.7607 152.29L57.3487 149.371C55.5453 148.105 53.4542 147.311 51.2656 147.059L51.4076 145.964C52.2936 144.386 53.5467 143.045 55.0608 142.053C56.5749 141.062 58.3055 140.449 60.1064 140.267C59.9184 139.64 59.9209 138.971 60.1137 138.346C60.3064 137.72 60.6807 137.165 61.189 136.753C61.6973 136.34 62.3167 136.088 62.9687 136.028C63.6208 135.968 64.2759 136.102 64.8512 136.415L68.5618 138.24C74.3544 140.861 79.677 144.416 84.317 148.762C88.6606 152.911 91.512 158.378 92.4278 164.313L95.814 164.151C96.3818 164.516 96.9495 164.881 97.5376 165.205L97.3145 165.57C96.2371 167.295 94.7446 168.721 92.9735 169.72C91.2024 170.719 89.2092 171.258 87.1761 171.288V171.592C87.3591 172.447 87.2744 173.338 86.9333 174.143C86.5923 174.948 86.0116 175.629 85.27 176.093C84.4729 176.748 83.5189 177.184 82.5021 177.358C81.4852 177.532 80.4405 177.439 79.4708 177.086L78.5178 173.031C77.2086 168.183 75.1566 163.567 72.4347 159.346L68.9471 159.812Z" fill="#3773FF"/>
<path d="M120.432 156.65C128.606 167.067 138.888 175.64 150.604 181.811V183.392C143.061 183.555 135.478 183.392 127.955 182.744V181.933C126.333 179.581 124.71 177.229 123.068 174.897L122.561 175.242L121.324 174.978V174.695L101.676 160.746L104.129 155.697L100.398 153.325L105.224 151.297C108.286 153.998 111.576 156.426 115.059 158.556L120.432 156.65Z" fill="#3773FF"/>
<path d="M154.903 73.6655H155.207C155.377 74.8485 155.283 76.0545 154.933 77.1971C154.582 78.3398 153.983 79.3909 153.179 80.2751C152.585 78.53 151.613 76.9369 150.334 75.609C149.055 74.281 147.5 73.2506 145.778 72.5909C143.701 71.9602 141.589 71.4525 139.452 71.0703C137.841 70.7459 136.328 70.0519 135.031 69.0428C134.086 68.1279 133.347 67.0214 132.864 65.7975C132.382 64.5736 132.167 63.2605 132.233 61.9466C132.37 59.3175 132.982 56.7348 134.038 54.3232H131.686C128.644 55.6411 124.852 54.1002 121.385 54.3232C119.419 54.5084 117.54 55.2227 115.948 56.39C114.356 57.5574 113.109 59.1343 112.341 60.9531C111.617 62.7907 111.31 64.7664 111.444 66.7371C111.577 68.7078 112.147 70.6243 113.112 72.3476C115.099 75.7861 118.216 78.4299 121.932 79.829C119.439 80.6867 116.793 81.0109 114.166 80.7804C111.539 80.5499 108.99 79.7698 106.684 78.4909C103.764 76.8487 101.128 73.9696 101.311 70.6243C99.9561 75.3141 100.264 80.3279 102.183 84.8167C100.779 84.2452 99.5188 83.371 98.4918 82.2566C97.4649 81.1421 96.6965 79.8148 96.2416 78.3693C95.8277 77.109 95.6826 75.776 95.8158 74.4563C93.2203 76.8081 90.6046 79.2208 88.1916 81.7957C84.2799 85.6727 81.2867 90.3767 79.432 95.5623C79.2305 89.0193 81.2217 82.5967 85.0893 77.3149C82.7292 79.6419 79.8529 81.3786 76.6946 82.3837C75.1167 82.8698 73.4551 83.0235 71.8148 82.8351C70.1745 82.6467 68.591 82.1201 67.1645 81.2889C65.7283 80.2831 64.5127 78.9946 63.5922 77.5024C62.6717 76.0103 62.0657 74.3458 61.8114 72.6112C61.3314 69.1348 61.3998 65.6046 62.0141 62.1494C62.0376 63.4186 62.4698 64.6464 63.2466 65.6505C64.0235 66.6546 65.1035 67.3814 66.3263 67.7229C67.549 68.0644 68.8494 68.0025 70.0342 67.5463C71.219 67.0901 72.225 66.264 72.9028 65.1906C74.5858 62.5752 73.9775 59.1082 73.7747 56.0669C73.4307 51.3309 74.2305 46.5815 76.1066 42.2192H75.9038C74.679 43.0204 73.2571 43.4689 71.7942 43.5154C70.3313 43.5619 68.8838 43.2046 67.6106 42.4828C66.3549 41.7309 65.2817 40.71 64.4682 39.4934C63.6547 38.2768 63.1213 36.8949 62.9063 35.4473C62.5301 32.4592 63.1502 29.4305 64.6704 26.8305C64.6579 27.7308 64.9008 28.6163 65.371 29.3842C65.8411 30.1521 66.5192 30.771 67.3267 31.1694C68.958 31.9311 70.7765 32.1989 72.5581 31.9398C79.0062 31.2707 84.4607 27.0942 89.5705 23.1203C94.6803 19.1464 100.196 15.0103 106.644 14.4832C104.441 14.7627 102.205 14.5435 100.099 13.8416C97.9926 13.1396 96.0715 11.973 94.4775 10.4282C98.3504 12.2124 102.872 11.1987 106.968 10.043C111.064 8.88733 115.444 7.63023 119.499 8.96837C121.426 6.61486 123.835 4.70073 126.563 3.35442C129.29 2.00811 132.275 1.26082 135.315 1.1626C132.39 3.1165 129.932 5.69176 128.117 8.70478C133.713 5.88658 140.445 6.67731 146.366 8.4615C150.466 9.48658 154.307 11.3582 157.64 13.956C159.297 15.2454 160.658 16.8756 161.631 18.7365C162.604 20.5974 163.165 22.6456 163.277 24.7423C164.264 22.8795 165.746 21.3257 167.56 20.2523C169.374 19.1789 171.45 18.6278 173.557 18.6598C170.693 19.9746 168.357 22.2179 166.927 25.0261C168.754 25.4345 170.377 26.4758 171.51 27.9659C172.64 29.4356 174.012 30.7038 175.565 31.7168C176.402 32.1575 177.326 32.4067 178.271 32.4466C179.216 32.4864 180.159 32.316 181.03 31.9474C181.901 31.5788 182.679 31.0213 183.309 30.3153C183.938 29.6092 184.403 28.7721 184.669 27.8645C184.803 29.0763 184.642 30.3024 184.201 31.4389C183.76 32.5754 183.051 33.5888 182.135 34.3931C180.332 35.6962 178.248 36.5573 176.052 36.9072C178.789 38.9347 179.093 42.9897 178.586 46.4364C178.079 49.8831 177.025 53.3501 177.917 56.6955C178.809 60.0408 181.283 62.413 181.972 65.5962C182.245 67.3609 182.076 69.1655 181.482 70.8494C180.887 72.5332 179.886 74.0439 178.566 75.2469C177.145 76.6052 175.516 77.7278 173.74 78.572C172.306 79.2719 170.83 79.8814 169.32 80.3968H168.995C169.839 76.7685 170.24 73.0514 170.192 69.3267C170.371 66.8467 169.652 64.3851 168.164 62.3927C167.127 61.4068 165.827 60.7408 164.421 60.4747C163.015 60.2086 161.561 60.3537 160.236 60.8924C158.989 61.3606 157.85 62.0788 156.891 63.0028C155.932 63.9268 155.171 65.037 154.657 66.2655C154.142 67.494 153.884 68.8147 153.899 70.1465C153.913 71.4783 154.2 72.7931 154.741 74.0101L154.903 73.6655Z" fill="#1D1D1B"/>
<path d="M81.6631 114.62C83.1784 109.935 85.49 105.545 88.4964 101.645H88.9019C89.0825 103.2 89.5573 104.707 90.301 106.085C91.7007 108.637 93.7514 110.773 96.2444 112.276C98.7375 113.779 101.584 114.595 104.495 114.641L106.137 115.188C105.926 115.892 105.823 116.623 105.833 117.358C105.766 118.028 105.872 118.705 106.141 119.323C106.41 119.941 106.834 120.48 107.372 120.887C107.909 121.294 108.542 121.556 109.21 121.648C109.878 121.74 110.559 121.659 111.186 121.413C112.329 121.033 113.408 120.487 114.39 119.791L114.998 120.683L120.27 131.104C120.974 132.787 122.057 134.286 123.434 135.483C124.459 136.117 125.599 136.542 126.79 136.733C127.98 136.924 129.196 136.879 130.368 136.598C135.634 135.604 140.432 132.921 144.035 128.955L144.501 129.401C144.596 130.441 144.91 131.448 145.424 132.357C145.938 133.266 146.64 134.055 147.482 134.672C149.162 135.897 150.742 137.253 152.206 138.727C155.106 142.154 155.41 147.527 159.02 150.203H159.729C160.091 151.48 160.316 152.791 160.398 154.116C160.621 159.468 157.357 164.882 159.141 169.93L159.851 170.255C159.166 170.971 158.579 171.776 158.107 172.647L157.661 172.384C156.899 171.775 156 171.363 155.042 171.183C154.084 171.003 153.097 171.06 152.166 171.351C151.236 171.641 150.39 172.155 149.704 172.847C149.019 173.54 148.513 174.39 148.232 175.323C148.07 175.748 148.07 176.217 148.232 176.641C148.457 177.035 148.806 177.342 149.226 177.513L157.985 182.42L157.519 183.251C155.207 183.372 152.896 183.454 150.564 183.494V181.913C138.853 175.708 128.585 167.099 120.433 156.65L115.221 158.536C111.739 156.406 108.448 153.978 105.387 151.277C96.1339 143.159 89.1471 132.777 85.1101 121.149L80.2031 120.561C80.9128 118.635 81.1561 116.587 81.6631 114.62Z" fill="#3773FF"/>
<path d="M121.442 174.979C113.013 173.047 104.957 169.746 97.5966 165.206C97.0085 164.882 96.4408 164.517 95.873 164.152L92.4868 164.314C91.571 158.379 88.7196 152.912 84.376 148.763C79.736 144.417 74.4134 140.862 68.6208 138.241L64.9102 136.416C65.1818 134.312 65.7698 132.262 66.654 130.334C67.0926 129.38 67.7361 128.535 68.5387 127.859C69.3413 127.182 70.2833 126.691 71.2974 126.421C72.6154 126.157 73.9942 126.421 75.3528 126.076C76.4618 125.718 77.4683 125.098 78.2871 124.268C79.1059 123.439 79.713 122.425 80.057 121.311C80.1584 121.048 80.2598 120.764 80.3409 120.48L85.2479 121.068C89.2848 132.696 96.2717 143.078 105.525 151.196L100.699 153.224L104.43 155.596L101.976 160.644L121.625 174.594L121.442 174.979Z" fill="#3773FF"/>
<path d="M263.079 98.7242C263.397 99.2205 263.566 99.7975 263.566 100.387C263.566 100.976 263.397 101.553 263.079 102.049L258.862 104.644C250.338 116.028 243.552 128.614 238.727 141.991L233.029 142.964C228.327 133.744 225.772 123.58 225.554 113.233C225.337 102.886 227.462 92.6235 231.772 83.2139L232.258 79.9497C238.18 80.6843 243.945 82.3685 249.331 84.9374C254.238 87.3906 259.044 91.4862 259.916 97.5281C260.502 97.3975 261.114 97.441 261.676 97.6536C262.238 97.8661 262.726 98.2383 263.079 98.7242Z" fill="#3773FF"/>
<path d="M221.085 173.316L221.247 174.006C218.229 174.813 215.124 175.249 212.001 175.304V175.405C208.797 173.431 205.674 171.363 202.633 169.201L202.998 168.694C208.587 168.721 214.118 167.552 219.219 165.267V165.044C220.521 167.603 221.162 170.447 221.085 173.316Z" fill="#3773FF"/>
<path d="M219.039 165.044V165.267C213.938 167.552 208.407 168.72 202.817 168.693L202.452 169.2C201.175 168.308 199.938 167.396 198.701 166.463L197.059 165.186L197.363 164.8C204.326 164.828 211.223 163.449 217.64 160.745C218.167 162.205 218.613 163.624 219.039 165.044Z" fill="#3773FF"/>
<path d="M196.532 133.274L193.227 128.712C191.66 126.227 189.587 124.099 187.144 122.467C185.324 121.533 183.309 121.046 181.263 121.046C179.218 121.046 177.203 121.533 175.383 122.467C171.74 124.354 168.688 127.21 166.563 130.719L162.203 129.32C164.231 125.934 166.502 122.731 168.286 119.183C171.223 113.562 172.872 107.359 173.114 101.022C173.356 94.6851 172.185 88.374 169.685 82.5459L168.388 82.2012C168.611 81.4713 168.793 80.7415 168.955 79.9913H169.28C170.79 79.4759 172.266 78.8664 173.7 78.1665L173.964 78.6734C174.471 79.2816 174.978 79.9102 175.464 80.5388C187.487 95.6823 194.811 114.015 196.532 133.274Z" fill="#3773FF"/>
<path d="M68.0755 141.423C75.5792 146.745 80.8908 154.614 83.0196 163.563C77.1348 157.021 71.6694 150.114 66.6561 142.883C66.2911 142.376 65.9261 141.626 66.3519 141.18C66.7777 140.734 67.5685 141.058 68.0755 141.423Z" fill="#3773FF"/>
<path d="M49.4601 152.21C50.1698 153.913 50.8592 155.616 51.4878 157.319L50.7579 158.191C47.8109 155.69 44.7559 153.345 41.5927 151.156L41.7346 150.953C37.6792 142.018 33.5698 133.077 29.4062 124.129L29.7915 123.947C29.8634 123.489 30.0578 123.058 30.354 122.702C30.6502 122.345 31.0374 122.074 31.4745 121.919C33.0857 121.139 34.9319 120.994 36.6451 121.514L36.8682 121.412C40.4234 130.158 43.9786 138.903 47.5338 147.648C48.2435 149.128 48.8721 150.669 49.4601 152.21Z" fill="#D1D0D1"/>
<path d="M33.5066 112.876C34.6624 115.695 35.7979 118.513 36.9537 121.351L36.7306 121.453C35.0174 120.933 33.1712 121.078 31.56 121.858C31.1229 122.013 30.7357 122.283 30.4395 122.64C30.1433 122.997 29.9489 123.428 29.877 123.886L29.4918 124.068C28.2346 121.311 26.9571 118.533 25.6797 115.776C25.7557 114.989 26.0324 114.234 26.4833 113.585C26.9341 112.935 27.5441 112.412 28.2549 112.065C29.1191 111.699 30.0684 111.581 30.9961 111.724C31.9238 111.867 32.7931 112.266 33.5066 112.876Z" fill="#D1D0D1"/>
<path d="M58.4258 192.963C59.7562 191.857 61.3739 191.154 63.0895 190.935" stroke="#1D1D1B" stroke-linecap="round" stroke-linejoin="round"/>
<path d="M149.406 123.866C150.698 125.044 152.178 125.997 153.786 126.684" stroke="#1D1D1B" stroke-linecap="round" stroke-linejoin="round"/>
<path d="M75.8235 42.0566C74.5986 42.8578 73.1768 43.3063 71.7138 43.3528C70.2509 43.3993 68.8035 43.042 67.5302 42.3202C66.2745 41.5683 65.2013 40.5474 64.3878 39.3308C63.5744 38.1142 63.0409 36.7324 62.826 35.2849C62.4497 32.2967 63.0698 29.268 64.5901 26.668C64.5776 27.5683 64.8205 28.4537 65.2906 29.2216C65.7607 29.9895 66.4388 30.6084 67.2463 31.0068C68.8776 31.7685 70.6961 32.0363 72.4778 31.7772C78.9258 31.1081 84.3803 26.9316 89.4901 22.9577C94.5999 18.9838 100.115 14.8477 106.563 14.3206C104.361 14.6001 102.124 14.3809 100.018 13.679C97.9123 12.977 95.9912 11.8105 94.3971 10.2656C98.27 12.0498 102.792 11.0361 106.888 9.8804C110.984 8.72473 115.363 7.46775 119.419 8.80589C121.346 6.45238 123.754 4.53825 126.482 3.19195C129.21 1.84564 132.194 1.09822 135.235 1C132.31 2.9539 129.852 5.52929 128.037 8.54231C133.633 5.72411 140.365 6.51484 146.286 8.29902C150.386 9.32411 154.226 11.1956 157.56 13.7934C159.217 15.0828 160.578 16.7131 161.551 18.5741C162.523 20.435 163.085 22.483 163.197 24.5797C164.183 22.7169 165.665 21.1631 167.48 20.0897C169.294 19.0163 171.369 18.4652 173.477 18.4972C170.613 19.812 168.277 22.0553 166.847 24.8635C168.673 25.2719 170.297 26.3133 171.429 27.8034C172.56 29.2732 173.931 30.5412 175.485 31.5542C176.322 31.9949 177.246 32.2441 178.191 32.284C179.136 32.3238 180.078 32.1534 180.949 31.7848C181.821 31.4162 182.599 30.8587 183.228 30.1527C183.858 29.4466 184.322 28.6096 184.589 27.7021C184.722 28.9139 184.562 30.1399 184.12 31.2764C183.679 32.4129 182.97 33.4262 182.054 34.2305C180.252 35.5336 178.168 36.3947 175.971 36.7446C178.709 38.7721 179.013 42.8271 178.506 46.2738C177.999 49.7205 176.944 53.1875 177.837 56.5329C178.729 59.8782 181.203 62.2504 181.892 65.4336C182.164 67.1983 181.996 69.0029 181.401 70.6868C180.807 72.3706 179.805 73.8814 178.486 75.0844C177.064 76.4428 175.435 77.5652 173.66 78.4094C172.226 79.1093 170.749 79.7188 169.239 80.2342" stroke="#1D1D1B" stroke-linecap="round" stroke-linejoin="round"/>
<path d="M154.901 73.6652C154.36 72.4481 154.074 71.1334 154.059 69.8016C154.045 68.4698 154.303 67.149 154.817 65.9206C155.332 64.6921 156.092 63.5817 157.052 62.6577C158.011 61.7337 159.149 61.0156 160.396 60.5473C161.722 60.0086 163.175 59.8637 164.581 60.1298C165.987 60.3959 167.287 61.0619 168.324 62.0478C169.812 64.0402 170.532 66.5018 170.352 68.9817C170.401 72.7065 169.999 76.4234 169.156 80.0517C168.994 80.8019 168.811 81.5318 168.588 82.2617C168.365 82.9916 168.081 83.9648 167.797 84.8164C167.242 86.7998 166.188 88.6077 164.735 90.0675C163.992 90.7783 163.045 91.2386 162.027 91.3841C161.009 91.5295 159.97 91.3528 159.058 90.8785" stroke="#1D1D1B" stroke-linecap="round" stroke-linejoin="round"/>
<path d="M76.3289 41.6113C76.3289 41.7938 76.1667 41.956 76.1059 42.1385C74.2907 46.3971 73.499 51.0217 73.7943 55.6415C73.9971 58.7435 74.6054 62.1497 72.9224 64.7652C72.2445 65.8385 71.2385 66.6646 70.0537 67.1208C68.8689 67.577 67.5686 67.6391 66.3458 67.2976C65.123 66.956 64.043 66.2292 63.2662 65.2252C62.4893 64.2211 62.0571 62.9932 62.0337 61.724C61.4193 65.1792 61.3509 68.7094 61.8309 72.1858C62.0853 73.9205 62.6913 75.5848 63.6118 77.077C64.5323 78.5691 65.7478 79.8577 67.184 80.8634C68.6106 81.6947 70.194 82.2212 71.8343 82.4096C73.4747 82.5981 75.1362 82.4443 76.7142 81.9582C79.8725 80.9531 82.7488 79.2164 85.1088 76.8895C81.2412 82.1712 79.25 88.5939 79.4516 95.1369C81.3062 89.9513 84.2994 85.2472 88.2112 81.3703C90.6241 78.7954 93.2399 76.3827 95.8353 74.0308C95.7022 75.3506 95.8472 76.6836 96.2611 77.9438C96.7161 79.3894 97.4844 80.7167 98.5114 81.8311C99.5383 82.9456 100.799 83.8197 102.202 84.3912C100.284 79.9025 99.9756 74.8886 101.33 70.1988C101.148 73.5442 103.784 76.4232 106.704 78.0655C109.01 79.3444 111.559 80.1244 114.186 80.3549C116.812 80.5855 119.458 80.2614 121.952 79.4037C118.235 78.0046 115.118 75.3608 113.132 71.9223C112.166 70.1989 111.596 68.2825 111.463 66.3118C111.33 64.3411 111.637 62.3654 112.361 60.5278C113.129 58.709 114.375 57.1321 115.968 55.9647C117.56 54.7974 119.439 54.0831 121.405 53.8979C124.872 53.6951 128.664 55.236 131.705 53.8979C132.017 53.7566 132.316 53.5869 132.597 53.391" stroke="#1D1D1B" stroke-linecap="round" stroke-linejoin="round"/>
<path d="M133.953 54.2217C132.897 56.6332 132.286 59.2159 132.149 61.845C132.082 63.159 132.297 64.4719 132.78 65.6958C133.262 66.9198 134.001 68.0263 134.947 68.9412C136.243 69.9503 137.756 70.6444 139.367 70.9687C141.504 71.3509 143.616 71.8587 145.694 72.4893C147.415 73.1491 148.971 74.1795 150.25 75.5074C151.529 76.8354 152.5 78.4283 153.095 80.1735C153.899 79.2892 154.498 78.2383 154.848 77.0956C155.199 75.953 155.292 74.747 155.122 73.564C155.122 73.564 155.122 73.564 155.122 73.4423" stroke="#1D1D1B" stroke-linecap="round" stroke-linejoin="round"/>
<path d="M88.2323 81.5728C88.1512 83.8145 88.9355 86.0017 90.4227 87.6812C91.9099 89.3607 93.9861 90.404 96.2214 90.5951" stroke="#1D1D1B" stroke-linecap="round" stroke-linejoin="round"/>
<path d="M94.8818 78.064C94.359 82.2707 94.9173 86.5412 96.5039 90.4722C96.5039 90.756 96.727 91.0399 96.8486 91.3035" stroke="#1D1D1B" stroke-linecap="round" stroke-linejoin="round"/>
<path d="M99.1172 94.7305C100.267 100.74 102.74 106.419 106.356 111.356" stroke="#1D1D1B" stroke-linecap="round" stroke-linejoin="round"/>
<path d="M112.727 102.273C110.663 105.234 108.909 108.4 107.496 111.722C107.293 112.188 107.09 112.654 106.908 113.141C106.638 113.802 106.408 114.479 106.219 115.168C106.007 115.872 105.904 116.603 105.914 117.338C105.847 118.008 105.953 118.685 106.222 119.303C106.492 119.922 106.915 120.46 107.453 120.867C107.99 121.274 108.623 121.537 109.291 121.629C109.959 121.721 110.64 121.639 111.267 121.393C112.41 121.013 113.489 120.467 114.471 119.771C115.323 119.223 116.174 118.635 117.006 118.068C119.48 116.344 121.893 114.52 124.204 112.593" stroke="#1D1D1B" stroke-linecap="round" stroke-linejoin="round"/>
<path d="M115.078 120.601L120.35 131.023C121.054 132.706 122.137 134.204 123.513 135.402C124.539 136.036 125.679 136.46 126.869 136.652C128.059 136.843 129.276 136.797 130.448 136.517C135.714 135.523 140.512 132.84 144.115 128.873C145.998 126.929 147.639 124.764 149.001 122.426C149.508 121.575 149.975 120.682 150.421 119.79C153.334 113.392 155.518 106.686 156.93 99.7994C157.599 97.0014 158.288 94.1832 158.957 91.3853" stroke="#1D1D1B" stroke-linecap="round" stroke-linejoin="round"/>
<path d="M88.4976 101.645C85.4912 105.545 83.1796 109.935 81.6643 114.62C81.1573 116.648 80.914 118.675 80.3057 120.561C80.3057 120.845 80.1232 121.129 80.0218 121.392C79.6778 122.506 79.0708 123.52 78.2519 124.349C77.4331 125.179 76.4266 125.799 75.3176 126.157C74.0199 126.461 72.641 126.157 71.2622 126.502C70.2481 126.772 69.3062 127.263 68.5035 127.94C67.7009 128.616 67.0574 129.461 66.6188 130.415C65.7346 132.343 65.1467 134.393 64.875 136.497C64.2997 136.184 63.6446 136.049 62.9925 136.11C62.3405 136.17 61.7211 136.422 61.2128 136.835C60.7045 137.248 60.3302 137.802 60.1375 138.428C59.9447 139.053 59.9422 139.722 60.1302 140.349C58.3476 140.532 56.6342 141.136 55.132 142.113C53.6298 143.09 52.382 144.41 51.4922 145.965" stroke="#1D1D1B" stroke-linecap="round" stroke-linejoin="round"/>
<path d="M58.2409 150.081L57.3487 149.371C55.5453 148.106 53.4542 147.312 51.2656 147.06C50.5238 146.989 49.777 146.989 49.0352 147.06" stroke="#1D1D1B" stroke-linecap="round" stroke-linejoin="round"/>
<path d="M85.2109 121.148C89.2479 132.777 96.2347 143.158 105.488 151.277C108.549 153.977 111.84 156.406 115.322 158.535" stroke="#1D1D1B" stroke-linecap="round" stroke-linejoin="round"/>
<path d="M78.1953 132.361C81.1891 137.467 85.1087 141.971 89.7532 145.641C93.2178 148.4 96.8327 150.965 100.581 153.325L104.312 155.697" stroke="#1D1D1B" stroke-linecap="round" stroke-linejoin="round"/>
<path d="M68.6445 138.24C74.4371 140.861 79.7597 144.416 84.3997 148.763C88.7433 152.911 91.5947 158.378 92.5105 164.314C92.5105 164.719 92.5105 165.104 92.5105 165.51" stroke="#1D1D1B" stroke-linecap="round" stroke-linejoin="round"/>
<path d="M83.0202 163.564C80.8915 154.614 75.5799 146.745 68.0761 141.423C67.5692 141.058 66.7987 140.714 66.3526 141.18C65.9065 141.646 66.3526 142.376 66.6568 142.883C71.6701 150.115 77.1355 157.022 83.0202 163.564Z" stroke="#1D1D1B" stroke-linecap="round" stroke-linejoin="round"/>
<path d="M62.6836 148.114C70.4616 154.541 76.0343 163.24 78.6213 172.992" stroke="#1D1D1B" stroke-linecap="round" stroke-linejoin="round"/>
<path d="M66.5547 188.198C68.5824 187.387 70.1032 185.076 72.3539 184.143C73.3053 183.707 74.2148 183.184 75.071 182.582L77.3217 181.122C78.0927 180.713 78.7804 180.163 79.3494 179.5C79.611 179.17 79.7791 178.776 79.8361 178.359C79.8932 177.941 79.8372 177.516 79.6739 177.128C80.6436 177.48 81.6882 177.574 82.7051 177.4C83.7219 177.226 84.6759 176.79 85.4731 176.135C86.2146 175.671 86.7954 174.99 87.1364 174.185C87.4774 173.38 87.5621 172.489 87.3791 171.634" stroke="#1D1D1B" stroke-linecap="round" stroke-linejoin="round"/>
<path d="M64.6719 188.4C65.3024 188.494 65.9469 188.417 66.5373 188.177" stroke="#1D1D1B" stroke-linecap="round" stroke-linejoin="round"/>
<path d="M243.148 153.731C243.256 156.746 243.873 159.721 244.973 162.53" stroke="#1D1D1B" stroke-linecap="round" stroke-linejoin="round"/>
<path d="M84.3359 170.944C85.2927 171.17 86.2725 171.286 87.2558 171.288C89.289 171.258 91.2822 170.719 93.0533 169.721C94.8243 168.722 96.3168 167.295 97.3943 165.571" stroke="#1D1D1B" stroke-linecap="round" stroke-linejoin="round"/>
<path d="M95.875 164.152C96.4428 164.517 97.0105 164.882 97.5985 165.206C104.959 169.745 113.015 173.047 121.444 174.979L122.681 175.242" stroke="#1D1D1B" stroke-linecap="round" stroke-linejoin="round"/>
<path d="M101.855 160.745L121.504 174.694" stroke="#1D1D1B" stroke-linecap="round" stroke-linejoin="round"/>
<path d="M116.66 165.49C118.85 168.612 121.026 171.748 123.189 174.897C124.832 177.229 126.454 179.581 128.076 181.933" stroke="#1D1D1B" stroke-linecap="round" stroke-linejoin="round"/>
<path d="M115.18 149.189C116.822 151.764 118.586 154.237 120.452 156.65C128.626 167.067 138.908 175.641 150.624 181.811" stroke="#1D1D1B" stroke-linecap="round" stroke-linejoin="round"/>
<path d="M128.215 136.861C128.891 143.025 129.823 149.148 131.013 155.23C130.925 152.332 131.26 149.436 132.007 146.634C132.783 143.814 134.574 141.381 137.035 139.801C138.751 138.842 140.725 138.449 142.677 138.679C144.628 138.908 146.458 139.748 147.904 141.079C149.59 143.058 150.958 145.288 151.959 147.688C153 150.119 154.95 152.047 157.393 153.061" stroke="#1D1D1B" stroke-linecap="round" stroke-linejoin="round"/>
<path d="M144.578 129.4C144.673 130.44 144.987 131.448 145.501 132.357C146.015 133.266 146.716 134.055 147.559 134.672C149.239 135.896 150.818 137.252 152.283 138.727C155.183 142.153 155.487 147.526 159.096 150.202" stroke="#1D1D1B" stroke-linecap="round" stroke-linejoin="round"/>
<path d="M159.22 169.829C157.436 164.78 160.7 159.367 160.477 154.014C160.395 152.69 160.17 151.378 159.808 150.101C159.135 147.985 158.614 145.824 158.247 143.634C157.99 139.114 159.115 134.624 161.471 130.759C161.735 130.272 162.018 129.786 162.302 129.299C164.33 125.913 166.601 122.71 168.385 119.162C171.322 113.541 172.971 107.338 173.213 101.001C173.455 94.6643 172.284 88.3532 169.784 82.5251" stroke="#1D1D1B" stroke-linecap="round" stroke-linejoin="round"/>
<path d="M166.664 130.699C168.789 127.189 171.841 124.334 175.485 122.447C177.304 121.513 179.32 121.026 181.365 121.026C183.41 121.026 185.426 121.513 187.245 122.447C189.688 124.079 191.761 126.206 193.328 128.691L196.633 133.253C194.894 114.081 187.6 95.8321 175.647 80.7412C175.16 80.1127 174.653 79.4842 174.146 78.876" stroke="#1D1D1B" stroke-linecap="round" stroke-linejoin="round"/>
<path d="M175.805 80.5584C190.534 78.7581 205.389 78.2021 220.211 78.896C224.267 79.0784 228.322 79.3825 232.377 79.9502C238.299 80.6848 244.064 82.3689 249.451 84.9378C254.358 87.3911 259.163 91.4866 260.035 97.5286C260.612 97.398 261.216 97.4422 261.768 97.6556C262.32 97.8691 262.796 98.2421 263.135 98.727C263.474 99.212 263.662 99.7871 263.673 100.379C263.684 100.971 263.519 101.552 263.198 102.05C264.134 101.568 265.21 101.434 266.235 101.672C267.26 101.909 268.167 102.503 268.795 103.347C269.676 105.052 270.056 106.971 269.89 108.882C269.907 109.371 269.954 109.859 270.032 110.342C270.085 111.055 270.294 111.748 270.644 112.372C270.995 112.996 271.478 113.535 272.059 113.951" stroke="#1D1D1B" stroke-linecap="round" stroke-linejoin="round"/>
<path d="M270.258 110.302C272.605 110.073 274.974 110.224 277.274 110.748C278.425 111.01 279.498 111.542 280.404 112.3C281.31 113.058 282.023 114.02 282.485 115.107C282.89 116.242 282.931 117.479 283.296 118.635C283.427 119.223 283.721 119.763 284.144 120.193C284.567 120.624 285.102 120.926 285.689 121.068C286.398 121.068 287.128 120.844 287.858 120.885C288.521 120.986 289.135 121.296 289.609 121.77C290.083 122.244 290.394 122.858 290.494 123.521C290.679 124.883 290.554 126.269 290.129 127.576C291.678 127.756 293.127 128.435 294.257 129.51C295.387 130.585 296.137 131.998 296.395 133.536C296.511 134.207 296.511 134.893 296.395 135.564" stroke="#1D1D1B" stroke-linecap="round" stroke-linejoin="round"/>
<path d="M299.615 138.017C297.317 136.412 294.515 135.692 291.728 135.99C288.96 136.288 286.237 136.914 283.617 137.855L268.754 142.579C263.968 144.079 258.92 145.782 255.797 149.695" stroke="#1D1D1B" stroke-linecap="round" stroke-linejoin="round"/>
<path d="M258.92 104.645C250.396 116.028 243.611 128.615 238.785 141.991" stroke="#1D1D1B" stroke-linecap="round" stroke-linejoin="round"/>
<path d="M208.738 105.071C209.705 113.115 212.478 120.836 216.849 127.658C221.196 134.445 226.157 140.817 231.671 146.696" stroke="#1D1D1B" stroke-linecap="round" stroke-linejoin="round"/>
<path d="M212.629 141.079C218.739 147.409 226.722 151.61 235.4 153.061" stroke="#1D1D1B" stroke-linecap="round" stroke-linejoin="round"/>
<path d="M225.203 166.707C229.583 164.963 236.254 159.814 239.924 156.813" stroke="#1D1D1B" stroke-linecap="round" stroke-linejoin="round"/>
<path d="M231.834 83.2139C227.524 92.6235 225.399 102.886 225.617 113.233C225.834 123.58 228.39 133.744 233.091 142.964C233.7 144.18 234.369 145.397 235.119 146.573" stroke="#1D1D1B" stroke-linecap="round" stroke-linejoin="round"/>
<path d="M237.188 149.676C237.634 151.359 238.262 153.264 239.884 153.893C240.956 154.213 242.109 154.112 243.108 153.609L244.122 153.163L247.022 151.825C247.534 151.557 248.079 151.36 248.644 151.237C248.812 151.216 248.983 151.216 249.151 151.237C249.527 151.219 249.899 151.316 250.218 151.515C250.537 151.715 250.787 152.007 250.935 152.352" stroke="#1D1D1B" stroke-linecap="round" stroke-linejoin="round"/>
<path d="M248.662 151.338C248.352 151.927 248.171 152.575 248.133 153.24C248.094 153.904 248.199 154.569 248.438 155.19C249.184 156.649 250.278 157.902 251.622 158.84L254.562 153.284" stroke="#1D1D1B" stroke-linecap="round" stroke-linejoin="round"/>
<path d="M243.309 147.384C245.444 145.032 247.634 142.728 249.878 140.47C257.727 132.511 266.144 125.132 275.062 118.391" stroke="#1D1D1B" stroke-linecap="round" stroke-linejoin="round"/>
<path d="M252.922 143.431C261.521 134.634 273.247 129.592 285.547 129.4" stroke="#1D1D1B" stroke-linecap="round" stroke-linejoin="round"/>
<path d="M261.883 152.047C264.696 151.434 267.548 151.021 270.419 150.811C274.308 150.497 278.223 150.798 282.018 151.703C285.334 152.441 288.45 153.891 291.149 155.953C293.849 158.015 296.068 160.64 297.651 163.645C299.806 168.95 300.281 174.788 299.01 180.372C298.888 181.081 298.746 181.791 298.604 182.399" stroke="#1D1D1B" stroke-linecap="round" stroke-linejoin="round"/>
<path d="M291.832 182.663C292.63 184.035 293.853 185.11 295.317 185.725C296.78 186.34 298.404 186.46 299.943 186.069C302.998 185.244 305.832 183.748 308.236 181.69C311.23 179.771 313.826 177.293 315.88 174.391C319.165 168.977 318.314 161.962 316.104 156.022C314.199 151.318 311.907 146.781 309.25 142.458C308.035 140.081 306.47 137.901 304.607 135.99C303.666 135.042 302.527 134.313 301.273 133.854C300.018 133.395 298.678 133.217 297.347 133.334" stroke="#1D1D1B" stroke-linecap="round" stroke-linejoin="round"/>
<path d="M212 175.302C215.123 175.248 218.228 174.812 221.246 174.005C228.475 171.908 235.38 168.824 241.767 164.841L245.193 162.813C247.363 161.556 249.533 160.258 251.722 159.022C257.56 155.529 263.861 152.874 270.438 151.135" stroke="#1D1D1B" stroke-linecap="round" stroke-linejoin="round"/>
<path d="M214.944 177.188L211.943 175.404C208.739 173.43 205.616 171.362 202.575 169.2C201.297 168.308 200.06 167.395 198.823 166.463L197.181 165.185C196.045 164.334 194.93 163.442 193.815 162.529C192.7 161.617 191.26 160.502 189.983 159.407C187.865 157.651 185.56 156.134 183.109 154.886C181.359 153.865 179.313 153.472 177.31 153.771C175.291 154.45 173.51 155.696 172.18 157.359L160.987 169.037C160.642 169.402 160.277 169.767 159.953 170.153C159.267 170.869 158.681 171.674 158.209 172.545C157.982 173.005 157.806 173.487 157.682 173.985C157.391 174.937 157.475 175.964 157.916 176.857C158.357 177.75 159.121 178.441 160.054 178.79" stroke="#1D1D1B" stroke-linecap="round" stroke-linejoin="round"/>
<path d="M174.613 162.185L161.555 176.864C160.987 177.492 160.477 178.171 160.034 178.892C159.803 179.245 159.619 179.626 159.486 180.027C159.227 180.79 159.158 181.604 159.284 182.399C159.52 183.823 160.177 185.143 161.169 186.191C162.779 187.747 164.654 189.003 166.705 189.901" stroke="#1D1D1B" stroke-linecap="round" stroke-linejoin="round"/>
<path d="M182.439 169.038L170.273 183.088C169.116 184.221 168.241 185.61 167.718 187.143C167.516 187.941 167.516 188.778 167.718 189.576C168.116 191.342 169.121 192.913 170.557 194.016C172.71 195.526 175.133 196.607 177.695 197.199" stroke="#1D1D1B" stroke-linecap="round" stroke-linejoin="round"/>
<path d="M190.832 176.985L179.741 191.421C178.464 193.104 177.105 195.192 177.855 197.159C178.525 198.344 179.565 199.277 180.816 199.815L186.899 203.262C188.328 204.265 190.02 204.829 191.765 204.884C193.496 204.604 195.089 203.772 196.307 202.511C197.909 201.056 199.357 199.439 200.626 197.686C201.098 197.091 201.43 196.398 201.6 195.659C201.688 195.292 201.672 194.908 201.553 194.55C201.435 194.191 201.219 193.873 200.93 193.631" stroke="#1D1D1B" stroke-linecap="round" stroke-linejoin="round"/>
<path d="M205.595 183.007C203.907 184.712 201.814 185.96 199.512 186.636H199.391" stroke="#1D1D1B" stroke-linecap="round" stroke-linejoin="round"/>
<path d="M202.735 181.568C201.741 183.291 200.707 184.974 199.551 186.637C198.395 188.299 197.523 189.556 196.469 190.955C194.457 193.633 192.29 196.192 189.98 198.619" stroke="#1D1D1B" stroke-linecap="round" stroke-linejoin="round"/>
<path d="M194.059 195.273C194.288 195.19 194.537 195.182 194.771 195.252C195.005 195.321 195.21 195.464 195.356 195.659C195.64 196.064 195.62 196.652 194.059 195.273Z" stroke="#1D1D1B" stroke-linecap="round" stroke-linejoin="round"/>
<path d="M196.533 169.444C195.228 169.687 194.009 170.265 192.996 171.122C191.983 171.978 191.21 173.084 190.754 174.33" stroke="#1D1D1B" stroke-linecap="round" stroke-linejoin="round"/>
<path d="M188.276 162.104C187.166 162.35 186.125 162.842 185.23 163.544C184.335 164.245 183.609 165.139 183.105 166.158" stroke="#1D1D1B" stroke-linecap="round" stroke-linejoin="round"/>
<path d="M181.503 156.894C180.596 156.896 179.707 157.154 178.94 157.638C178.172 158.122 177.557 158.813 177.164 159.631" stroke="#1D1D1B" stroke-linecap="round" stroke-linejoin="round"/>
<path d="M196.918 191.299C198.236 192.171 199.574 193.043 200.973 193.874C202.848 195.068 204.823 196.099 206.874 196.956C210.386 198.513 214.273 199.02 218.067 198.416C221.016 197.864 223.671 196.275 225.549 193.935C226.067 193.278 226.497 192.555 226.826 191.786" stroke="#1D1D1B" stroke-linecap="round" stroke-linejoin="round"/>
<path d="M298.869 180.332L291.751 182.359C285.371 184.022 278.963 185.542 272.529 186.921C257.085 190.22 241.467 192.643 225.75 194.179" stroke="#1D1D1B" stroke-linecap="round" stroke-linejoin="round"/>
<path d="M197.484 164.8C204.448 164.828 211.345 163.449 217.761 160.745C218.207 162.164 218.653 163.584 219.079 165.003V165.226C213.978 167.511 208.447 168.679 202.858 168.652" stroke="#1D1D1B" stroke-width="0.5" stroke-miterlimit="10"/>
<path d="M219.039 165.044C220.396 167.589 221.094 170.433 221.067 173.316" stroke="#1D1D1B" stroke-width="0.5" stroke-miterlimit="10"/>
<path d="M63.6562 188.501H64.6498L66.5153 188.278C78.1326 186.763 89.4779 183.617 100.216 178.931C109.373 180.804 118.637 182.111 127.954 182.844C135.477 183.432 143.061 183.655 150.604 183.493C152.936 183.493 155.247 183.372 157.559 183.25" stroke="#1D1D1B" stroke-linecap="round" stroke-linejoin="round"/>
<path d="M157.738 172.282C156.976 171.674 156.077 171.262 155.119 171.082C154.161 170.902 153.174 170.959 152.243 171.249C151.312 171.539 150.467 172.053 149.781 172.746C149.096 173.439 148.59 174.289 148.309 175.222C148.147 175.646 148.147 176.116 148.309 176.54C148.534 176.933 148.883 177.24 149.303 177.412L158.062 182.318L158.306 182.46" stroke="#1D1D1B" stroke-linecap="round" stroke-linejoin="round"/>
<path d="M27.3397 194.28H27.1572C18.3647 194.219 9.60094 193.268 1 191.441C25.1743 202.197 50.1669 211.011 75.7407 217.799C114.824 228.228 155.014 233.945 195.456 234.83C226.885 217.799 259.024 202.106 291.812 187.508C285.399 186.967 278.958 186.832 272.528 187.103" stroke="#1D1D1B" stroke-linecap="round" stroke-linejoin="round"/>
<path d="M193.125 211.028L233.334 199.512" stroke="#1D1D1B" stroke-linecap="round" stroke-linejoin="round"/>
<path d="M168.672 216.197L206.468 214.717" stroke="#1D1D1B" stroke-linecap="round" stroke-linejoin="round"/>
<path d="M41.8201 150.953C37.7648 142.018 33.6553 133.077 29.4918 124.129C28.2346 121.372 26.9571 118.594 25.6797 115.837C25.7557 115.05 26.0324 114.295 26.4833 113.646C26.9341 112.996 27.5441 112.473 28.2549 112.126C29.1137 111.752 30.0597 111.624 30.9872 111.756C31.9147 111.889 32.787 112.277 33.5066 112.877C34.6624 115.695 35.7979 118.513 36.9537 121.352C40.5089 130.097 44.0641 138.842 47.6193 147.587C48.2479 149.128 48.8765 150.669 49.4848 152.21C50.0931 153.751 50.8839 155.616 51.5125 157.319" stroke="#1D1D1B" stroke-linecap="round" stroke-linejoin="round"/>
<path d="M23.0998 148.824C23.6975 150.257 24.0603 151.777 24.1745 153.325C24.2168 154.092 24.0793 154.858 23.773 155.562C23.4667 156.266 23.0001 156.888 22.4104 157.38C20.8694 158.495 18.4767 158.394 17.402 159.975C17.0668 160.732 16.9318 161.562 17.0099 162.386C17.088 163.209 17.3767 163.999 17.8481 164.679C18.8113 166.039 19.2374 167.707 19.0445 169.363C18.4564 171.39 15.861 172.444 15.4757 174.533C14.9485 177.391 18.7606 179.297 19.1459 182.156C19.3892 183.9 18.2942 185.684 18.8011 187.346C19.2467 188.478 20.0425 189.437 21.0722 190.083C23.0998 191.523 25.1275 192.922 27.1552 194.26C28.6963 195.294 30.2373 196.288 31.8189 197.241C32.7719 197.808 33.725 198.376 34.7185 198.842C35.709 199.302 36.7607 199.616 37.8412 199.775C38.9324 199.952 40.0516 199.8 41.0558 199.338C42.06 198.875 42.9034 198.124 43.4782 197.18" stroke="#1D1D1B" stroke-linecap="round" stroke-linejoin="round"/>
<path d="M24.1133 185.461L36.2794 192.496L36.908 192.861L38.7938 193.956C40.3242 194.969 41.9898 195.76 43.7413 196.308C44.632 196.553 45.5654 196.6 46.4762 196.446C47.387 196.292 48.253 195.94 49.0133 195.416C50.4733 194.28 50.1286 189.901 49.0133 188.36" stroke="#1D1D1B" stroke-linecap="round" stroke-linejoin="round"/>
<path d="M25.7578 172.222C32.7038 178.682 40.5773 184.067 49.1168 188.198C51.1445 189.232 53.4156 190.226 55.6257 191.077" stroke="#1D1D1B" stroke-linecap="round" stroke-linejoin="round"/>
<path d="M32.1875 162.247L46.1177 171.593" stroke="#1D1D1B" stroke-linecap="round" stroke-linejoin="round"/>
<path d="M38.9389 165.896C38.4725 165.004 38.0062 164.091 37.5195 163.199" stroke="#1D1D1B" stroke-linecap="round" stroke-linejoin="round"/>
<path d="M60.1903 177.716C59.947 177.148 59.7037 176.58 59.4806 175.992C57.6542 171.55 56.2951 166.929 55.4252 162.206C53.945 160.827 52.4242 159.489 50.8832 158.151C47.9363 155.65 44.8812 153.305 41.718 151.115C37.9996 148.515 34.1337 146.132 30.1399 143.979C28.6353 144.062 27.1814 144.551 25.932 145.393C24.6826 146.235 23.6844 147.4 23.043 148.763" stroke="#1D1D1B" stroke-linecap="round" stroke-linejoin="round"/>
<path d="M31.5586 159.326C37.7445 162.059 43.1116 166.356 47.1313 171.795C48.5427 177.411 51.3301 182.588 55.242 186.859L55.6476 187.305C56.7861 187.524 57.9635 187.414 59.0413 186.986C60.119 186.559 61.0521 185.832 61.7307 184.892C62.1771 184.318 62.5516 183.692 62.8459 183.027C62.5215 182.358 62.1768 181.689 61.8726 181C61.3454 179.925 60.8588 178.83 60.3924 177.735" stroke="#1D1D1B" stroke-linecap="round" stroke-linejoin="round"/>
<path d="M59.6013 159.813C58.2181 163.318 57.6028 167.079 57.7966 170.843" stroke="#1D1D1B" stroke-linecap="round" stroke-linejoin="round"/>
<path d="M60.1867 177.716C61.0586 178.791 63.8365 178.507 64.9517 177.716C65.5207 177.335 65.9873 176.82 66.3103 176.216C66.6695 175.583 66.9294 174.9 67.0808 174.188C67.4458 172.85 67.608 171.472 68.0947 170.133C68.5813 168.795 69.5951 167.417 70.1223 165.936C70.6153 164.007 70.3543 161.963 69.3924 160.219L69.0274 159.57C68.0829 158.126 66.8799 156.868 65.4789 155.86C62.9287 153.946 59.9737 152.642 56.841 152.048C54.559 151.579 52.2136 151.503 49.9062 151.825" stroke="#1D1D1B" stroke-linecap="round" stroke-linejoin="round"/>
<path d="M59.4607 176.033C58.528 176.621 55.9325 177.858 54.9998 178.446C54.8505 178.487 54.7144 178.566 54.6049 178.676C54.4954 178.785 54.4164 178.921 54.3755 179.07C54.3345 179.22 54.3332 179.377 54.3716 179.527C54.4099 179.677 54.4867 179.815 54.5942 179.926L55.5878 181.609C55.8861 182.265 56.3825 182.811 57.0072 183.17C57.3382 183.293 57.6931 183.339 58.0446 183.304C58.3961 183.269 58.7349 183.154 59.0349 182.967C59.655 182.577 60.2093 182.091 60.6773 181.528" stroke="#1D1D1B" stroke-width="0.5" stroke-linecap="round" stroke-linejoin="round"/>
<path d="M65.4637 175.607L62.4627 174.938C62.0965 174.91 61.7394 174.81 61.4122 174.643C61.0851 174.475 60.7943 174.245 60.5567 173.965C60.2854 173.412 60.1932 172.788 60.2931 172.181C60.2483 171.535 60.3367 170.887 60.553 170.276C60.7693 169.666 61.1087 169.106 61.5503 168.633L62.6249 168.207C64.1863 168.815 65.7476 169.505 67.2481 170.235" stroke="#1D1D1B" stroke-width="0.5" stroke-linecap="round" stroke-linejoin="round"/>
<path d="M51.2273 161.618C49.3347 162.337 47.7508 163.692 46.7461 165.45" stroke="#1D1D1B" stroke-width="0.5" stroke-linecap="round" stroke-linejoin="round"/>
<path d="M48.6328 166.687L51.573 164.659" stroke="#1D1D1B" stroke-width="0.5" stroke-linecap="round" stroke-linejoin="round"/>
<path d="M43.6644 174.147C42.499 175.335 41.7823 176.89 41.6367 178.547" stroke="#1D1D1B" stroke-width="0.5" stroke-linecap="round" stroke-linejoin="round"/>
<path d="M44.7564 177.573L43.5195 180.452" stroke="#1D1D1B" stroke-width="0.5" stroke-linecap="round" stroke-linejoin="round"/>
<path d="M39.3251 185.683C38.4385 186.727 37.9755 188.065 38.0274 189.434" stroke="#1D1D1B" stroke-width="0.5" stroke-linecap="round" stroke-linejoin="round"/>
<path d="M35.9351 194.422C35.7932 195.334 35.631 196.226 35.4688 197.118" stroke="#1D1D1B" stroke-width="0.5" stroke-linecap="round" stroke-linejoin="round"/>
<path d="M118.75 120.419C119.679 120.54 120.619 120.54 121.548 120.419C124.367 120.094 127.11 119.292 129.659 118.047C132.983 116.286 136.561 115.055 140.264 114.397C141.078 114.227 141.922 114.271 142.714 114.523C143.506 114.775 144.22 115.228 144.786 115.837C145.128 116.395 145.309 117.037 145.309 117.692C145.309 118.347 145.128 118.989 144.786 119.547C144.062 120.657 143.025 121.525 141.805 122.041C135.985 124.778 128.868 122.446 122.745 124.068C122.198 124.204 121.663 124.38 121.143 124.595" stroke="#1D1D1B" stroke-width="0.5" stroke-linecap="round" stroke-linejoin="round"/>
<path d="M121.566 121.047C122.022 121.956 122.369 122.916 122.601 123.906" stroke="#1D1D1B" stroke-width="0.5" stroke-linecap="round" stroke-linejoin="round"/>
<path d="M167.452 68.2111C167.449 67.4473 167.156 66.7131 166.633 66.1564C166.11 65.5996 165.396 65.2617 164.634 65.2104C163.865 65.1996 163.105 65.3789 162.422 65.7326C161.74 66.0864 161.155 66.6035 160.72 67.2379C159.863 68.5065 159.289 69.9448 159.037 71.455C158.672 73.1378 158.47 74.8612 158.023 76.5643C158.023 76.5643 158.023 76.5643 158.125 76.5643H158.307C159.706 76.0371 161.126 75.5911 162.565 75.2059C163.046 75.0437 163.566 75.0437 164.046 75.2059C164.407 75.4248 164.69 75.7508 164.857 76.1385C165.358 77.4437 165.358 78.8882 164.857 80.1935C164.379 81.5036 163.694 82.7288 162.829 83.8227C162.443 84.4621 161.907 84.9978 161.268 85.3838C160.947 85.5615 160.579 85.6338 160.215 85.5901C159.851 85.5464 159.51 85.3891 159.24 85.1405C158.591 84.4309 158.936 83.2753 159.423 82.4238C160.046 81.6705 160.345 80.7007 160.254 79.7272C160.162 79.4374 159.993 79.1783 159.764 78.9781C159.535 78.7779 159.256 78.6443 158.956 78.5918C158.776 78.5509 158.589 78.5509 158.409 78.5918" stroke="#1D1D1B" stroke-width="0.5" stroke-linecap="round" stroke-linejoin="round"/>
<path d="M163.945 66.0415C165.539 67.7727 166.516 69.9825 166.723 72.3267" stroke="#1D1D1B" stroke-width="0.5" stroke-linecap="round" stroke-linejoin="round"/>
<path d="M87.7824 202.735C87.3931 201.864 87.2246 200.911 87.2918 199.96C87.359 199.009 87.6598 198.089 88.1676 197.281C89.1953 195.689 90.5849 194.362 92.223 193.409C95.8556 191.161 99.9691 189.805 104.227 189.453C108.484 189.1 112.765 189.761 116.718 191.381C118.849 192.196 120.749 193.518 122.253 195.233C123 196.094 123.532 197.121 123.803 198.228C124.075 199.335 124.078 200.491 123.814 201.6C122.964 203.828 121.297 205.648 119.151 206.689C114.249 209.524 108.532 210.618 102.929 209.791H102.625C100.983 209.527 99.1983 209.223 97.4747 208.797C96.3257 208.506 95.195 208.148 94.0885 207.723C92.1926 207.059 90.4777 205.962 89.0801 204.519C88.5718 203.984 88.1355 203.384 87.7824 202.735Z" stroke="#1D1D1B" stroke-width="0.5" stroke-linecap="round" stroke-linejoin="round"/>
<path d="M66.6382 202.39C65.9178 202.564 65.2322 202.859 64.6105 203.262C64.2778 203.482 64.0078 203.784 63.8266 204.14C63.6454 204.495 63.5592 204.891 63.5764 205.289C63.698 206.709 65.381 207.317 66.8004 207.54C73.7351 208.432 80.609 205.796 87.0773 203.221" stroke="#1D1D1B" stroke-width="0.5" stroke-linecap="round" stroke-linejoin="round"/>
<path d="M88.7994 204.863C84.0988 206.435 79.7955 209.008 76.1872 212.406C75.86 212.631 75.5941 212.935 75.4135 213.289C75.233 213.643 75.1435 214.036 75.153 214.433C75.2231 214.723 75.3718 214.988 75.5829 215.199C75.794 215.411 76.0592 215.559 76.3494 215.629C76.9379 215.751 77.5452 215.751 78.1337 215.629C84.102 214.875 89.6651 212.207 93.9903 208.026" stroke="#1D1D1B" stroke-width="0.5" stroke-linecap="round" stroke-linejoin="round"/>
<path d="M97.4371 209.081C95.1403 210.387 93.1329 212.146 91.5365 214.251C91.1056 214.697 90.7828 215.236 90.593 215.827C90.4032 216.417 90.3513 217.043 90.4415 217.657C90.7128 218.327 91.1977 218.889 91.8209 219.256C92.4442 219.622 93.171 219.773 93.8886 219.685C95.0189 219.573 96.1116 219.218 97.0917 218.644C98.0718 218.07 98.9159 217.291 99.5661 216.36C100.863 214.49 101.881 212.441 102.587 210.277" stroke="#1D1D1B" stroke-width="0.5" stroke-linecap="round" stroke-linejoin="round"/>
<path d="M101.393 198.558L101.211 198.76" stroke="#1D1D1B" stroke-width="0.5" stroke-linecap="round" stroke-linejoin="round"/>
<path d="M101.21 198.761C100.946 199.085 100.175 199.937 97.7422 202.39L101.21 198.761Z" stroke="#1D1D1B" stroke-width="0.5" stroke-linecap="round" stroke-linejoin="round"/>
<path d="M107.293 205.087C108.175 204.002 109.23 203.07 110.416 202.329" stroke="#1D1D1B" stroke-width="0.5" stroke-linecap="round" stroke-linejoin="round"/>
<path d="M104.027 194.483C105.766 193.624 107.692 193.215 109.63 193.293C111.568 193.371 113.455 193.933 115.119 194.929C115.774 195.415 116.246 196.107 116.46 196.894C116.673 197.682 116.615 198.518 116.295 199.268" stroke="#1D1D1B" stroke-width="0.5" stroke-linecap="round" stroke-linejoin="round"/>
<path d="M28.9219 121.575C29.2145 120.971 29.6297 120.435 30.141 120.001C30.6522 119.567 31.2484 119.245 31.8913 119.054C32.5343 118.863 33.21 118.808 33.8752 118.893C34.5405 118.978 35.1808 119.201 35.7552 119.547" stroke="#1D1D1B" stroke-width="0.5" stroke-linecap="round" stroke-linejoin="round"/>
<path d="M29.875 123.947C29.9469 123.489 30.1413 123.058 30.4375 122.702C30.7337 122.345 31.1209 122.074 31.558 121.919C33.1692 121.139 35.0154 120.994 36.7286 121.514" stroke="#1D1D1B" stroke-width="0.5" stroke-linecap="round" stroke-linejoin="round"/>
<path d="M64.2031 199.126L65.1156 198.558" stroke="#1D1D1B" stroke-width="0.5" stroke-linecap="round" stroke-linejoin="round"/>
<path d="M96.543 88.6074C99.1979 88.7508 101.721 89.8113 103.68 91.6081C105.632 93.4062 108.048 94.6215 110.656 95.1157" stroke="#1D1D1B" stroke-width="0.5" stroke-linecap="round" stroke-linejoin="round"/>
<path d="M109.807 87.675C109.627 88.0764 109.549 88.5163 109.581 88.9551C109.613 89.3939 109.753 89.818 109.99 90.1891C110.463 91.2409 111.209 92.1472 112.15 92.8138C113.091 93.4804 114.194 93.8833 115.343 93.9806" stroke="#1D1D1B" stroke-width="0.5" stroke-linecap="round" stroke-linejoin="round"/>
<path d="M114.348 90.6554C115.657 90.6635 116.954 90.4052 118.16 89.8963C119.366 89.3874 120.456 88.6385 121.363 87.6952L121.769 87.2897C123.513 85.5866 124.952 83.5997 126.676 81.8966C129.808 78.8283 133.794 76.7786 138.112 76.0168" stroke="#1D1D1B" stroke-width="0.5" stroke-linecap="round" stroke-linejoin="round"/>
<path d="M105.609 104.807C106.413 105.015 107.264 104.943 108.022 104.605C108.743 104.246 109.423 103.811 110.05 103.307" stroke="#1D1D1B" stroke-width="0.5" stroke-linecap="round" stroke-linejoin="round"/>
<path d="M125.523 97.1641C127.071 99.3625 129.303 100.987 131.871 101.783C134.438 102.579 137.198 102.502 139.717 101.564" stroke="#1D1D1B" stroke-width="0.5" stroke-linecap="round" stroke-linejoin="round"/>
<path d="M105.63 114.559H104.576C101.665 114.513 98.8184 113.697 96.3253 112.194C93.8322 110.691 91.7816 108.555 90.3819 106.003C89.6382 104.625 89.1634 103.118 88.9828 101.563C88.782 100.046 88.9994 98.504 89.6114 97.1022C90.3097 95.709 91.3639 94.5252 92.6672 93.6707C93.9705 92.8162 95.4766 92.3212 97.0328 92.2362C97.8616 92.1448 98.698 92.1448 99.5268 92.2362C101.778 92.6235 103.905 93.5408 105.732 94.9125C108.191 96.83 110.303 99.1547 111.977 101.786L112.585 101.563C114.297 100.926 116.156 100.8 117.938 101.198C118.515 101.383 119.105 101.525 119.702 101.623C118.676 99.8523 118.21 97.8119 118.366 95.7708C118.521 93.7298 119.291 91.7836 120.574 90.1884C121.212 89.3896 121.948 88.6744 122.764 88.0596C125.263 86.2174 128.242 85.1399 131.341 84.9576C133.961 84.6414 136.612 85.1972 138.884 86.539C140.656 87.8284 142.055 89.5631 142.94 91.5672C144.29 94.056 144.987 96.846 144.967 99.6772C144.923 102.509 143.756 105.207 141.723 107.179C140.531 108.201 139.155 108.985 137.668 109.49C134.16 110.747 129.942 111.518 126.718 109.49C123.695 107.585 121.27 104.865 119.723 101.644" stroke="#1D1D1B" stroke-linecap="round" stroke-linejoin="round"/>
<path d="M106.035 98.4819C106.583 99.4146 107.11 100.347 107.637 101.28" stroke="#1D1D1B" stroke-linecap="round" stroke-linejoin="round"/>
<path d="M128.055 93.4534L130.082 96.8189" stroke="#1D1D1B" stroke-linecap="round" stroke-linejoin="round"/>
<path d="M55.1406 186.859C55.5259 187.914 56.1139 189.333 56.6817 190.691C57.0669 191.624 57.4725 192.516 57.7969 193.246L57.9794 193.672C60.7979 196.551 63.5961 199.409 66.6174 202.187C66.2341 198.509 65.556 194.869 64.5897 191.299L64.2247 190.428L63.4542 188.623C62.9472 187.447 62.4403 186.271 61.9537 185.095" stroke="#1D1D1B" stroke-linecap="round" stroke-linejoin="round"/>
</svg>
