<svg width="204" height="151" viewBox="0 0 204 151" fill="none" xmlns="http://www.w3.org/2000/svg">
<path d="M56.4395 51.9338C57.9774 50.2925 59.6446 48.7545 61.2988 47.2554C61.2139 48.0966 61.3064 48.9463 61.5702 49.7497H60.756C60.4228 52.4311 60.7786 55.1533 61.7899 57.659L61.609 57.7366C60.1843 57.6147 58.861 56.9497 57.9131 55.8792C56.9652 54.8086 56.4654 53.4145 56.517 51.9855L56.4395 51.9338Z" fill="#1D1D1B"/>
<path d="M36.4575 97.0766C35.0031 96.7774 33.5082 96.7294 32.0376 96.9345L31.8179 97.0249C31.4302 96.0427 31.0295 95.0605 30.6289 94.0783L31.5853 93.6906C32.0581 93.6455 32.5341 93.6455 33.0069 93.6906C34.4018 93.851 35.7346 94.3574 36.884 95.1639L36.4575 97.0766Z" fill="#A55DA1"/>
<path d="M155.255 97.9947C155.323 99.9165 155.717 101.813 156.418 103.604L156.56 103.849L154.376 105.142C150.302 107.658 145.901 109.602 141.297 110.918L141.194 110.479C141.211 108.641 140.766 106.828 139.901 105.206C139.63 104.301 139.346 103.397 139.061 102.492C134.971 104.215 130.576 105.095 126.137 105.077L125.944 105.322C125.22 104.78 124.509 104.211 123.798 103.629C123.087 103.048 122.17 102.337 121.356 101.639C120.006 100.52 118.537 99.5531 116.974 98.7572C115.859 98.1066 114.555 97.8558 113.278 98.0463C111.992 98.4797 110.857 99.2737 110.009 100.334L102.888 107.752C102.668 107.985 102.435 108.217 102.228 108.463L101.776 108.256C100.639 105.038 102.719 101.587 102.577 98.1756C102.525 97.3313 102.382 96.4952 102.151 95.6813C101.722 94.3324 101.39 92.9547 101.156 91.5586C100.992 88.678 101.709 85.8156 103.211 83.352C103.379 83.0418 103.56 82.7317 103.74 82.4215L106.519 83.3132C107.874 81.0762 109.819 79.2561 112.141 78.0532C113.301 77.4579 114.585 77.1475 115.889 77.1475C117.192 77.1475 118.477 77.4579 119.637 78.0532C121.194 79.0935 122.515 80.4497 123.514 82.0338L125.62 84.9417C124.508 72.7194 119.855 61.0869 112.231 51.469L112.335 51.3914C121.723 50.2439 131.191 49.8894 140.638 50.3317C143.223 50.448 145.807 50.6419 148.392 51.0037L148.082 53.0845C145.335 59.0824 143.981 65.6239 144.119 72.2195C144.258 78.815 145.887 85.2937 148.883 91.1709L152.515 90.5505C155.591 82.0238 159.916 74.0011 165.348 66.7449L168.036 65.0906C168.633 64.7836 169.318 64.6983 169.972 64.8497C170.625 65.0012 171.203 65.3797 171.603 65.9178C172.165 67.0041 172.407 68.2275 172.301 69.4459C172.312 69.7577 172.342 70.0685 172.392 70.3765C172.426 70.8312 172.559 71.2728 172.782 71.6703C173.006 72.0678 173.313 72.4114 173.684 72.6769L175.661 75.5072C169.977 79.8039 164.613 84.5076 159.61 89.5813C158.171 91.0115 156.775 92.4805 155.423 93.9883L157.788 96.7539L155.94 97.607L155.294 97.8912L155.255 97.9947Z" fill="#A55DA1"/>
<path d="M190.859 114.977C191.669 111.418 191.367 107.696 189.993 104.314C188.984 102.399 187.57 100.726 185.849 99.4113C184.129 98.0969 182.143 97.1725 180.029 96.7023C177.61 96.1255 175.115 95.9336 172.637 96.1336V96.3404C168.444 97.4487 164.429 99.1411 160.708 101.368L160.643 101.251C159.786 100.654 159.09 99.8551 158.614 98.9251C158.461 98.5294 158.395 98.1056 158.419 97.682C158.444 97.2585 158.559 96.8451 158.756 96.4696V96.3404C158.397 96.4186 158.049 96.5447 157.722 96.7152L155.357 93.9495C156.719 92.4503 158.114 90.9814 159.545 89.5425L161.483 91.4293C166.964 85.8224 174.438 82.608 182.278 82.4861L185.198 81.2842C186.186 81.3994 187.109 81.8321 187.829 82.5174C188.55 83.2027 189.028 84.1033 189.192 85.0838L189.786 85.0062C190.635 84.9317 191.489 85.0447 192.288 85.3373C193.088 85.6299 193.813 86.0949 194.413 86.6993C195.601 87.9172 196.599 89.307 197.373 90.822C199.066 93.5778 200.527 96.4698 201.741 99.468C203.15 103.255 203.692 107.726 201.599 111.177C200.289 113.027 198.635 114.607 196.727 115.829C195.194 117.141 193.388 118.095 191.441 118.621C190.46 118.87 189.425 118.793 188.492 118.402C187.559 118.01 186.78 117.325 186.271 116.45L186.207 116.204L190.743 114.912L190.859 114.977Z" fill="#A55DA1"/>
<path d="M41.4213 121.943C42.0372 124.218 42.4694 126.539 42.7137 128.883C40.788 127.113 39.0045 125.29 37.2081 123.455L37.0918 123.184L37.4924 123.003C38.3404 122.298 39.3714 121.85 40.4649 121.71L41.1628 121.413L41.4213 121.943Z" fill="#D1D0D1"/>
<path d="M182.368 77.1746C182.821 77.1746 183.286 77.0324 183.751 77.0582C184.174 77.1224 184.565 77.32 184.867 77.6223C185.17 77.9246 185.367 78.3157 185.431 78.7383C185.549 79.6064 185.469 80.4899 185.199 81.3231L182.278 82.5251C174.436 82.6504 166.962 85.8696 161.483 91.4813L159.545 89.5943C164.548 84.5207 169.912 79.817 175.596 75.5203L173.619 72.69C173.248 72.4245 172.94 72.0809 172.717 71.6834C172.494 71.2859 172.36 70.8443 172.327 70.3896H172.507C174.004 70.2441 175.513 70.34 176.979 70.6739C177.713 70.8411 178.397 71.1802 178.974 71.6633C179.552 72.1463 180.006 72.7596 180.301 73.4525C180.559 74.1763 180.585 74.9646 180.818 75.7013C180.916 76.0656 181.113 76.3958 181.386 76.6556C181.66 76.9155 182 77.0951 182.368 77.1746Z" fill="#A55DA1"/>
<path d="M40.6963 120.237C40.3732 119.487 40.0501 118.738 39.7399 117.988L39.5073 117.859C39.7918 117.493 40.0305 117.094 40.2181 116.67C40.0113 116.243 39.7916 115.817 39.5977 115.377C39.2617 114.692 38.9515 113.995 38.6543 113.297C39.21 113.982 40.9806 113.801 41.6914 113.297C42.0541 113.054 42.3514 112.725 42.5573 112.34C42.7862 111.937 42.9519 111.501 43.0484 111.048C43.281 110.195 43.3844 109.316 43.6946 108.463C44.0047 107.61 44.6509 106.731 44.987 105.788C45.3012 104.558 45.1348 103.255 44.5217 102.143L44.2891 101.73L46.6154 101.407C48.3502 104.097 49.658 107.04 50.4925 110.13L51.0999 112.715C51.204 112.963 51.2397 113.233 51.2033 113.499C51.167 113.765 51.0598 114.017 50.8931 114.227C50.5304 114.649 50.0921 115 49.6007 115.261L48.1662 116.192C47.6205 116.575 47.0408 116.908 46.4344 117.187C44.9999 117.794 44.0306 119.267 42.7382 119.771L41.5492 119.914H40.916L40.6963 120.237Z" fill="#A55DA1"/>
<path d="M39.7404 117.987C40.0505 118.737 40.3736 119.486 40.6967 120.236L41.1878 121.386L40.49 121.683C39.3965 121.823 38.3654 122.271 37.5175 122.976L37.1168 123.157C36.9101 122.691 36.6516 122.123 36.406 121.528C36.0442 120.662 35.6694 119.758 35.4238 119.086L35.6823 119.37C36.4079 119.51 37.1584 119.439 37.8453 119.167C38.5322 118.894 39.1269 118.431 39.5594 117.832L39.7404 117.987Z" fill="#D1D0D1"/>
<path d="M42.7642 91.0802C45.9596 95.6897 49.443 100.092 53.1938 104.262C51.837 98.558 48.4516 93.5419 43.6689 90.1497C43.3458 89.9171 42.8547 89.6974 42.5704 89.9946C42.2861 90.2919 42.5316 90.7571 42.7642 91.0802ZM44.2246 101.872C43.6226 100.951 42.8559 100.149 41.963 99.5065C40.3375 98.2866 38.4542 97.4554 36.4574 97.0768L36.8322 95.2158C35.6828 94.4093 34.35 93.9029 32.9551 93.7425L33.0455 93.0446C33.6103 92.0387 34.409 91.1835 35.374 90.5514C36.339 89.9193 37.4421 89.5288 38.5899 89.413C38.47 89.0133 38.4717 88.5869 38.5945 88.1881C38.7173 87.7892 38.9559 87.4359 39.2799 87.1728C39.6039 86.9097 39.9987 86.7489 40.4142 86.7106C40.8298 86.6722 41.2474 86.7582 41.614 86.9575L43.9791 88.1206C47.6711 89.7915 51.0635 92.0575 54.0209 94.8281C56.7894 97.4723 58.6067 100.957 59.1904 104.741L61.3487 104.637C61.7105 104.87 62.0724 105.102 62.4472 105.309L62.305 105.542C61.6183 106.641 60.667 107.551 59.5382 108.187C58.4094 108.824 57.139 109.167 55.8431 109.186V109.38C55.9598 109.925 55.9058 110.493 55.6884 111.007C55.4711 111.52 55.1009 111.954 54.6283 112.249C54.1202 112.667 53.5122 112.945 52.8641 113.056C52.216 113.167 51.5501 113.107 50.9321 112.883L50.3247 110.298C49.4902 107.207 48.1823 104.265 46.4475 101.574L44.2246 101.872Z" fill="#A55DA1"/>
<path d="M77.0382 99.8558C82.2484 106.496 88.8014 111.961 96.2689 115.894V116.902C91.4612 117.006 86.6277 116.902 81.833 116.489V115.972C80.7991 114.473 79.7652 112.973 78.7183 111.487L78.3952 111.707L77.6069 111.539V111.358L65.0837 102.466L66.6475 99.2483L64.2695 97.7362L67.3454 96.4438C69.2965 98.1651 71.3938 99.7132 73.6134 101.071L77.0382 99.8558Z" fill="#A55DA1"/>
<path d="M99.0107 46.9587H99.2045C99.3129 47.7128 99.2532 48.4815 99.0298 49.2099C98.8064 49.9382 98.4247 50.6082 97.9122 51.1719C97.5332 50.0595 96.9141 49.044 96.0989 48.1975C95.2837 47.351 94.2923 46.6943 93.195 46.2737C91.8711 45.8717 90.5247 45.548 89.1628 45.3044C88.1362 45.0977 87.1717 44.6552 86.3454 44.012C85.7427 43.4288 85.2718 42.7235 84.9642 41.9434C84.6566 41.1632 84.5194 40.3262 84.5619 39.4887C84.6492 37.8128 85.0389 36.1665 85.7121 34.6293H84.2129C82.2744 35.4694 79.8576 34.4872 77.6476 34.6293C76.3947 34.7474 75.1972 35.2027 74.1823 35.9468C73.1674 36.6909 72.3731 37.6961 71.8836 38.8554C71.4219 40.0268 71.2264 41.2861 71.3113 42.5423C71.3962 43.7985 71.7595 45.0201 72.3747 46.1186C73.6409 48.3104 75.6276 49.9957 77.9966 50.8875C76.4073 51.4342 74.7208 51.6409 73.0466 51.4939C71.3723 51.347 69.7476 50.8498 68.2779 50.0346C66.4169 48.9877 64.7368 47.1526 64.8531 45.0201C63.9896 48.0095 64.1859 51.2055 65.4088 54.0668C64.5141 53.7025 63.7109 53.1453 63.0564 52.4349C62.4018 51.7245 61.9121 50.8784 61.6221 49.957C61.3583 49.1537 61.2658 48.304 61.3507 47.4627C59.6965 48.9619 58.0293 50.4998 56.4914 52.1412C53.9982 54.6124 52.0904 57.6109 50.9083 60.9164C50.7798 56.7457 52.049 52.6517 54.514 49.285C53.0098 50.7682 51.1766 51.8752 49.1636 52.5159C48.1579 52.8258 47.0988 52.9238 46.0533 52.8037C45.0078 52.6835 43.9986 52.3479 43.0894 51.8181C42.174 51.177 41.3993 50.3556 40.8126 49.4045C40.2259 48.4533 39.8396 47.3923 39.6775 46.2866C39.3716 44.0707 39.4152 41.8204 39.8067 39.618C39.8217 40.427 40.0972 41.2096 40.5923 41.8497C41.0874 42.4897 41.7758 42.953 42.5551 43.1707C43.3345 43.3884 44.1633 43.3489 44.9184 43.0581C45.6736 42.7673 46.3148 42.2408 46.7468 41.5566C47.8195 39.8894 47.4318 37.6794 47.3025 35.7408C47.0833 32.7219 47.593 29.6945 48.7888 26.9139H48.6595C47.8789 27.4246 46.9726 27.7105 46.0402 27.7401C45.1078 27.7698 44.1852 27.542 43.3737 27.0819C42.5734 26.6026 41.8893 25.9518 41.3709 25.1764C40.8524 24.4009 40.5124 23.52 40.3754 22.5973C40.1356 20.6926 40.5308 18.7619 41.4998 17.1047C41.4918 17.6785 41.6466 18.243 41.9463 18.7324C42.2459 19.2219 42.6781 19.6164 43.1928 19.8704C44.2325 20.3559 45.3916 20.5266 46.5271 20.3615C50.6369 19.935 54.1134 17.2727 57.3702 14.7397C60.627 12.2066 64.1423 9.57013 68.252 9.23411C66.8484 9.4123 65.4227 9.27254 64.0804 8.82512C62.7382 8.37769 61.5137 7.63407 60.4977 6.64935C62.9662 7.78665 65.8482 7.14045 68.4588 6.4038C71.0694 5.66714 73.861 4.86583 76.4457 5.7188C77.674 4.2186 79.209 2.99847 80.9477 2.1403C82.6863 1.28212 84.5884 0.805772 86.5263 0.743164C84.6619 1.98864 83.0953 3.63019 81.9383 5.55078C85.5053 3.75437 89.796 4.25841 93.5698 5.3957C96.1831 6.04912 98.6307 7.24216 100.755 8.89808C101.812 9.71994 102.679 10.7591 103.299 11.9453C103.919 13.1315 104.277 14.4371 104.348 15.7736C104.977 14.5862 105.922 13.5957 107.078 12.9115C108.234 12.2273 109.557 11.876 110.901 11.8964C109.075 12.7345 107.586 14.1644 106.674 15.9545C107.839 16.2148 108.873 16.8785 109.595 17.8284C110.316 18.7652 111.19 19.5736 112.18 20.2193C112.714 20.5002 113.303 20.6591 113.905 20.6845C114.507 20.7099 115.108 20.6013 115.663 20.3663C116.218 20.1313 116.714 19.776 117.116 19.3259C117.517 18.8759 117.813 18.3423 117.983 17.7638C118.068 18.5362 117.965 19.3178 117.684 20.0422C117.403 20.7666 116.951 21.4126 116.367 21.9253C115.218 22.7559 113.89 23.3048 112.49 23.5278C114.235 24.8202 114.429 27.405 114.106 29.602C113.783 31.7991 113.111 34.009 113.679 36.1415C114.248 38.2739 115.825 39.786 116.264 41.815C116.437 42.94 116.33 44.0903 115.951 45.1636C115.572 46.2369 114.934 47.1999 114.093 47.9667C113.187 48.8326 112.149 49.5481 111.017 50.0862C110.103 50.5324 109.162 50.9209 108.2 51.2494H107.993C108.53 48.9366 108.786 46.5672 108.755 44.193C108.87 42.6122 108.411 41.0431 107.463 39.7731C106.802 39.1446 105.973 38.7201 105.077 38.5505C104.181 38.3809 103.255 38.4733 102.41 38.8167C101.615 39.1152 100.889 39.573 100.278 40.1619C99.6666 40.7509 99.182 41.4586 98.854 42.2417C98.526 43.0248 98.3615 43.8666 98.3707 44.7156C98.3799 45.5645 98.5625 46.4026 98.9073 47.1784L99.0107 46.9587Z" fill="#1D1D1B"/>
<path d="M52.3289 73.0647C53.2948 70.0779 54.7681 67.2799 56.6843 64.7935H56.9427C57.0578 65.7849 57.3605 66.7454 57.8345 67.6238C58.7266 69.2507 60.0336 70.6123 61.6226 71.5702C63.2116 72.5282 65.026 73.0482 66.8811 73.0776L67.928 73.4265C67.7932 73.8749 67.7278 74.3413 67.7341 74.8094C67.691 75.237 67.7586 75.6685 67.9303 76.0625C68.102 76.4565 68.3721 76.7997 68.7147 77.0592C69.0573 77.3188 69.4608 77.4859 69.8866 77.5445C70.3123 77.6032 70.746 77.5514 71.146 77.3942C71.8741 77.1524 72.5622 76.804 73.188 76.3603L73.5757 76.9289L76.9359 83.5718C77.3846 84.6448 78.0745 85.5999 78.952 86.3633C79.6055 86.7672 80.3324 87.038 81.091 87.16C81.8495 87.282 82.6247 87.2527 83.3719 87.0741C86.7281 86.4405 89.7862 84.7301 92.0826 82.2019L92.3798 82.4861C92.44 83.1489 92.6405 83.7913 92.9681 84.3707C93.2956 84.95 93.7427 85.453 94.2796 85.8463C95.3502 86.6268 96.3572 87.4911 97.2908 88.4311C99.139 90.6152 99.3328 94.04 101.633 95.746H102.086C102.316 96.5598 102.459 97.396 102.512 98.2403C102.654 101.652 100.573 105.103 101.711 108.321L102.163 108.528C101.726 108.984 101.353 109.497 101.052 110.053L100.767 109.885C100.282 109.497 99.7088 109.234 99.0982 109.119C98.4876 109.005 97.8582 109.041 97.2651 109.226C96.672 109.411 96.1333 109.739 95.6961 110.18C95.259 110.622 94.9368 111.164 94.7578 111.759C94.6544 112.029 94.6544 112.328 94.7578 112.599C94.9009 112.849 95.1238 113.045 95.391 113.154L100.974 116.282L100.677 116.812C99.2036 116.889 97.7303 116.941 96.244 116.967V115.959C88.7797 112.004 82.2352 106.516 77.0393 99.8557L73.7178 101.058C71.4982 99.7003 69.4009 98.1521 67.4498 96.4309C61.5522 91.2559 57.099 84.6385 54.526 77.2261L51.3984 76.8514C51.8508 75.6236 52.0058 74.3183 52.3289 73.0647Z" fill="#A55DA1"/>
<path d="M77.6839 111.539C72.3112 110.308 67.1769 108.203 62.4855 105.31C62.1107 105.103 61.7489 104.87 61.387 104.638L59.2287 104.741C58.645 100.957 56.8277 97.4727 54.0592 94.8285C51.1018 92.0579 47.7094 89.7919 44.0174 88.1211L41.6523 86.958C41.8255 85.617 42.2002 84.3099 42.7638 83.0808C43.0433 82.473 43.4535 81.9344 43.9651 81.5032C44.4766 81.0721 45.077 80.7591 45.7233 80.5865C46.5634 80.4185 47.4422 80.5865 48.3081 80.3668C49.015 80.1384 49.6565 79.7433 50.1784 79.2147C50.7002 78.686 51.0872 78.0395 51.3064 77.3297C51.371 77.1617 51.4357 76.9807 51.4874 76.7998L54.6149 77.1746C57.1879 84.587 61.6411 91.2044 67.5387 96.3794L64.4628 97.6718L66.8408 99.1838L65.2771 102.402L77.8002 111.293L77.6839 111.539Z" fill="#A55DA1"/>
<path d="M167.958 62.9323C168.161 63.2486 168.268 63.6164 168.268 63.9921C168.268 64.3677 168.161 64.7355 167.958 65.0518L165.27 66.706C159.837 73.9622 155.512 81.985 152.437 90.5117L148.805 91.132C145.808 85.2549 144.18 78.7761 144.041 72.1806C143.902 65.585 145.257 59.0435 148.004 53.0456L148.314 50.9648C152.088 51.4331 155.763 52.5066 159.196 54.1441C162.323 55.7079 165.386 58.3185 165.942 62.1698C166.316 62.0866 166.706 62.1144 167.064 62.2498C167.422 62.3853 167.733 62.6225 167.958 62.9323Z" fill="#A55DA1"/>
<path d="M141.192 110.479L141.296 110.919C139.372 111.433 137.393 111.711 135.402 111.746V111.811C133.36 110.553 131.37 109.234 129.432 107.856L129.664 107.533C133.227 107.55 136.752 106.805 140.003 105.349V105.207C140.833 106.838 141.241 108.65 141.192 110.479Z" fill="#A55DA1"/>
<path d="M139.886 105.206V105.348C136.635 106.805 133.11 107.55 129.547 107.532L129.315 107.856C128.5 107.287 127.712 106.705 126.924 106.111L125.877 105.297L126.071 105.051C130.509 105.069 134.905 104.19 138.995 102.466C139.331 103.397 139.615 104.301 139.886 105.206Z" fill="#A55DA1"/>
<path d="M125.542 84.9545L123.436 82.0467C122.437 80.4626 121.116 79.1064 119.558 78.0662C118.399 77.4709 117.114 77.1603 115.81 77.1603C114.507 77.1603 113.222 77.4709 112.063 78.0662C109.74 79.2691 107.795 81.0891 106.441 83.3262L103.662 82.4344C104.954 80.2762 106.402 78.2342 107.539 75.9725C109.411 72.3899 110.462 68.4356 110.616 64.3963C110.771 60.3571 110.024 56.3342 108.431 52.6192L107.604 52.3995C107.746 51.9342 107.862 51.469 107.966 50.9908H108.173C109.135 50.6623 110.076 50.2738 110.99 49.8276L111.158 50.1507C111.481 50.5384 111.804 50.9391 112.114 51.3398C119.777 60.9927 124.445 72.6786 125.542 84.9545Z" fill="#A55DA1"/>
<path d="M43.668 90.1495C48.4507 93.5418 51.8361 98.5579 53.1929 104.262C49.4421 100.092 45.9587 95.6895 42.7633 91.0801C42.5307 90.757 42.2981 90.2788 42.5695 89.9945C42.8409 89.7101 43.3449 89.9169 43.668 90.1495Z" fill="#A55DA1"/>
<path d="M31.8051 97.0254C32.2574 98.111 32.6968 99.1966 33.0975 100.282L32.6322 100.838C30.7539 99.244 28.8068 97.7491 26.7906 96.3533L26.8811 96.2241C24.2964 90.529 21.6771 84.8296 19.0234 79.1259L19.269 79.0096C19.3148 78.7175 19.4387 78.4433 19.6275 78.2158C19.8163 77.9883 20.063 77.8161 20.3417 77.7172C21.3686 77.2196 22.5453 77.1273 23.6372 77.4587L23.7794 77.3941C26.0454 82.9686 28.3113 88.543 30.5773 94.1175C31.0297 95.061 31.4303 96.0432 31.8051 97.0254Z" fill="#D1D0D1"/>
<path d="M21.6351 71.9533C22.3717 73.7497 23.0955 75.5462 23.8321 77.3555L23.69 77.4201C22.598 77.0887 21.4213 77.181 20.3944 77.6786C20.1158 77.7775 19.869 77.9497 19.6802 78.1771C19.4914 78.4046 19.3675 78.6789 19.3217 78.971L19.0762 79.0873C18.2749 77.3296 17.4607 75.5591 16.6465 73.8015C16.695 73.2998 16.8713 72.8189 17.1587 72.4048C17.446 71.9908 17.8348 71.6573 18.2878 71.4364C18.8387 71.2029 19.4437 71.1275 20.035 71.2189C20.6262 71.3102 21.1803 71.5645 21.6351 71.9533Z" fill="#D1D0D1"/>
<path d="M37.5195 123.001C38.3675 122.297 39.3985 121.849 40.492 121.709" stroke="#1D1D1B" stroke-linecap="round" stroke-linejoin="round"/>
<path d="M95.5059 78.958C96.3289 79.7093 97.2726 80.3165 98.2974 80.7544" stroke="#1D1D1B" stroke-linecap="round" stroke-linejoin="round"/>
<path d="M48.6083 26.8103C47.8277 27.3211 46.9214 27.607 45.989 27.6366C45.0566 27.6663 44.134 27.4385 43.3225 26.9784C42.5222 26.4991 41.8381 25.8483 41.3197 25.0728C40.8012 24.2974 40.4612 23.4166 40.3242 22.4938C40.0844 20.5891 40.4796 18.6585 41.4486 17.0012C41.4406 17.5751 41.5954 18.1394 41.8951 18.6289C42.1947 19.1184 42.6269 19.5129 43.1416 19.7669C44.1813 20.2524 45.3404 20.4231 46.4759 20.258C50.5857 19.8315 54.0622 17.1692 57.319 14.6361C60.5758 12.1031 64.0911 9.46661 68.2008 9.1306C66.7972 9.30879 65.3715 9.16902 64.0292 8.7216C62.687 8.27418 61.4625 7.53055 60.4466 6.54583C62.915 7.68313 65.797 7.03694 68.4076 6.30028C71.0182 5.56362 73.8098 4.76239 76.3945 5.61536C77.6228 4.11516 79.1578 2.89504 80.8965 2.03686C82.6351 1.17868 84.5372 0.702257 86.4751 0.639648C84.6107 1.88512 83.0441 3.52675 81.8871 5.44734C85.4541 3.65094 89.7448 4.15497 93.5186 5.29226C96.1319 5.94569 98.5795 7.13865 100.704 8.79456C101.761 9.61642 102.628 10.6557 103.248 11.8419C103.868 13.0281 104.225 14.3336 104.297 15.67C104.926 14.4827 105.87 13.4922 107.027 12.808C108.183 12.1238 109.506 11.7725 110.849 11.7929C109.024 12.631 107.535 14.0609 106.623 15.851C107.788 16.1113 108.822 16.7751 109.544 17.725C110.265 18.6618 111.139 19.4701 112.129 20.1158C112.662 20.3967 113.252 20.5556 113.854 20.581C114.456 20.6064 115.057 20.4977 115.612 20.2628C116.167 20.0278 116.663 19.6725 117.064 19.2224C117.466 18.7724 117.762 18.2388 117.932 17.6604C118.017 18.4328 117.914 19.2143 117.633 19.9387C117.352 20.6632 116.9 21.3091 116.316 21.8218C115.167 22.6524 113.839 23.2013 112.439 23.4243C114.184 24.7167 114.378 27.3015 114.054 29.4985C113.731 31.6956 113.059 33.9055 113.628 36.038C114.197 38.1704 115.773 39.6825 116.213 41.7115C116.386 42.8364 116.279 43.9868 115.9 45.0601C115.521 46.1334 114.883 47.0964 114.042 47.8633C113.136 48.7291 112.097 49.4446 110.966 49.9827C110.052 50.4289 109.111 50.8174 108.148 51.1459" stroke="#1D1D1B" stroke-linecap="round" stroke-linejoin="round"/>
<path d="M99.0096 46.9587C98.6648 46.1829 98.4822 45.3448 98.473 44.4959C98.4639 43.6469 98.6283 42.8051 98.9563 42.022C99.2843 41.2389 99.7689 40.5311 100.38 39.9422C100.992 39.3532 101.717 38.8954 102.512 38.5969C103.357 38.2535 104.283 38.1612 105.179 38.3308C106.076 38.5004 106.904 38.9249 107.565 39.5534C108.513 40.8234 108.972 42.3925 108.858 43.9733C108.889 46.3475 108.633 48.7168 108.095 51.0296C107.992 51.5078 107.875 51.9731 107.733 52.4383C107.591 52.9036 107.41 53.524 107.229 54.0668C106.876 55.331 106.204 56.4834 105.278 57.414C104.804 57.867 104.2 58.1605 103.551 58.2532C102.902 58.3459 102.241 58.2332 101.659 57.931" stroke="#1D1D1B" stroke-linecap="round" stroke-linejoin="round"/>
<path d="M48.9278 26.5264C48.9278 26.6427 48.8244 26.7461 48.7856 26.8624C47.6287 29.5769 47.1241 32.5248 47.3123 35.4696C47.4416 37.447 47.8293 39.6182 46.7566 41.2853C46.3245 41.9695 45.6833 42.4961 44.9282 42.7869C44.1731 43.0777 43.3443 43.1172 42.5649 42.8995C41.7856 42.6818 41.0972 42.2186 40.6021 41.5785C40.1069 40.9385 39.8314 40.1558 39.8165 39.3468C39.425 41.5492 39.3814 43.7995 39.6873 46.0155C39.8494 47.1212 40.2356 48.1821 40.8223 49.1332C41.409 50.0844 42.1838 50.9057 43.0992 51.5468C44.0084 52.0767 45.0176 52.4123 46.0631 52.5324C47.1086 52.6526 48.1676 52.5546 49.1733 52.2447C51.1863 51.604 53.0196 50.497 54.5238 49.0137C52.0587 52.3805 50.7896 56.4745 50.9181 60.6452C52.1002 57.3397 54.0079 54.3412 56.5011 51.8699C58.0391 50.2286 59.7062 48.6907 61.3605 47.1915C61.2756 48.0328 61.3681 48.8825 61.6319 49.6858C61.9219 50.6072 62.4116 51.4533 63.0661 52.1637C63.7207 52.8741 64.5239 53.4313 65.4186 53.7956C64.1957 50.9343 63.9994 47.7383 64.8628 44.7489C64.7465 46.8813 66.4266 48.7165 68.2877 49.7633C69.7574 50.5786 71.3821 51.0758 73.0564 51.2227C74.7306 51.3697 76.4171 51.1631 78.0063 50.6164C75.6374 49.7245 73.6507 48.0393 72.3845 45.8475C71.7693 44.749 71.406 43.5274 71.3211 42.2712C71.2361 41.015 71.4316 39.7556 71.8934 38.5843C72.3828 37.4249 73.1772 36.4198 74.1921 35.6757C75.207 34.9315 76.4045 34.4763 77.6574 34.3582C79.8674 34.229 82.2841 35.2112 84.2227 34.3582C84.4217 34.2681 84.6121 34.16 84.7913 34.0351" stroke="#1D1D1B" stroke-linecap="round" stroke-linejoin="round"/>
<path d="M85.6578 34.5645C84.9846 36.1017 84.5949 37.7479 84.5075 39.4238C84.4651 40.2614 84.6023 41.0983 84.9099 41.8784C85.2175 42.6586 85.6884 43.364 86.291 43.9471C87.1174 44.5904 88.0818 45.0328 89.1084 45.2395C90.4704 45.4832 91.8168 45.8068 93.1407 46.2088C94.238 46.6294 95.2294 47.2862 96.0446 48.1326C96.8598 48.9791 97.4789 49.9945 97.8578 51.1069C98.3704 50.5433 98.752 49.8733 98.9755 49.145C99.1989 48.4166 99.2586 47.6479 99.1502 46.8938C99.1502 46.8938 99.1502 46.8938 99.1502 46.8163" stroke="#1D1D1B" stroke-linecap="round" stroke-linejoin="round"/>
<path d="M56.5173 51.999C56.4657 53.428 56.9655 54.8222 57.9134 55.8927C58.8613 56.9633 60.1846 57.6283 61.6093 57.7501" stroke="#1D1D1B" stroke-linecap="round" stroke-linejoin="round"/>
<path d="M60.7561 49.7627C60.4229 52.4442 60.7787 55.1663 61.79 57.6721C61.79 57.853 61.9322 58.034 62.0097 58.202" stroke="#1D1D1B" stroke-linecap="round" stroke-linejoin="round"/>
<path d="M63.457 60.3862C64.1901 64.2172 65.7661 67.837 68.0708 70.9837" stroke="#1D1D1B" stroke-linecap="round" stroke-linejoin="round"/>
<path d="M72.1285 65.1943C70.8125 67.0816 69.6951 69.0998 68.7941 71.2169C68.6649 71.5141 68.5357 71.8113 68.4193 72.1215C68.2474 72.5432 68.1007 72.9747 67.9799 73.4139C67.8451 73.8622 67.7798 74.3286 67.7861 74.7967C67.743 75.2243 67.8105 75.6558 67.9823 76.0498C68.154 76.4438 68.4241 76.787 68.7667 77.0465C69.1092 77.3061 69.5128 77.4732 69.9385 77.5319C70.3643 77.5905 70.798 77.5387 71.198 77.3815C71.926 77.1397 72.6142 76.7913 73.2399 76.3476C73.7827 75.9986 74.3255 75.6238 74.8554 75.2619C76.4321 74.1634 77.97 73.0003 79.4433 71.7726" stroke="#1D1D1B" stroke-linecap="round" stroke-linejoin="round"/>
<path d="M73.627 76.8776L76.9871 83.5204C77.4359 84.5934 78.1258 85.5486 79.0032 86.312C79.6568 86.7159 80.3837 86.9866 81.1423 87.1086C81.9008 87.2306 82.676 87.2015 83.4232 87.0228C86.7794 86.3892 89.8374 84.6787 92.1338 82.1505C93.3341 80.9113 94.3799 79.5313 95.2485 78.0407C95.5716 77.4979 95.8688 76.9293 96.1531 76.3607C98.01 72.2822 99.4016 68.0077 100.302 63.6178C100.728 61.8343 101.168 60.0379 101.594 58.2544" stroke="#1D1D1B" stroke-linecap="round" stroke-linejoin="round"/>
<path d="M56.6836 64.7935C54.7674 67.2799 53.2941 70.0779 52.3283 73.0647C52.0052 74.3571 51.8501 75.6495 51.4624 76.8514C51.4624 77.0323 51.3461 77.2132 51.2814 77.3812C51.0622 78.091 50.6753 78.7375 50.1534 79.2662C49.6315 79.7948 48.99 80.19 48.2831 80.4184C47.456 80.6122 46.5772 80.4183 45.6984 80.6381C45.052 80.8106 44.4516 81.1236 43.9401 81.5547C43.4285 81.9859 43.0184 82.5245 42.7388 83.1323C42.1752 84.3614 41.8005 85.6685 41.6274 87.0095C41.2607 86.8101 40.8431 86.7242 40.4276 86.7625C40.012 86.8008 39.6172 86.9618 39.2932 87.2248C38.9692 87.4879 38.7307 87.8413 38.6078 88.2401C38.485 88.6389 38.4834 89.0653 38.6032 89.465C37.4671 89.5813 36.375 89.9667 35.4175 90.5892C34.4601 91.2118 33.6648 92.0536 33.0977 93.0449" stroke="#1D1D1B" stroke-linecap="round" stroke-linejoin="round"/>
<path d="M37.4006 95.6685L36.832 95.2161C35.6825 94.4096 34.3498 93.9032 32.9548 93.7428C32.482 93.6977 32.006 93.6977 31.5332 93.7428" stroke="#1D1D1B" stroke-linecap="round" stroke-linejoin="round"/>
<path d="M54.5898 77.2261C57.1628 84.6384 61.616 91.2558 67.5136 96.4308C69.4647 98.1521 71.562 99.7002 73.7817 101.058" stroke="#1D1D1B" stroke-linecap="round" stroke-linejoin="round"/>
<path d="M50.1191 84.373C52.0273 87.628 54.5255 90.4987 57.4857 92.8381C59.694 94.597 61.9979 96.2321 64.387 97.7362L66.765 99.2483" stroke="#1D1D1B" stroke-linecap="round" stroke-linejoin="round"/>
<path d="M44.0312 88.1211C47.7232 89.7919 51.1157 92.0579 54.073 94.8285C56.8415 97.4728 58.6589 100.957 59.2426 104.741C59.2426 105 59.2426 105.245 59.2426 105.504" stroke="#1D1D1B" stroke-linecap="round" stroke-linejoin="round"/>
<path d="M53.1947 104.263C51.8379 98.5583 48.4525 93.5422 43.6699 90.1499C43.3468 89.9173 42.8557 89.6976 42.5713 89.9948C42.287 90.2921 42.5713 90.7574 42.7652 91.0805C45.9605 95.6899 49.444 100.093 53.1947 104.263Z" stroke="#1D1D1B" stroke-linecap="round" stroke-linejoin="round"/>
<path d="M40.2324 94.415C45.1898 98.5117 48.7417 104.056 50.3905 110.273" stroke="#1D1D1B" stroke-linecap="round" stroke-linejoin="round"/>
<path d="M42.7012 119.965C43.9936 119.448 44.9628 117.975 46.3974 117.38C47.0038 117.102 47.5835 116.769 48.1292 116.385L49.5637 115.455C50.0551 115.193 50.4934 114.843 50.8561 114.421C51.0228 114.21 51.1299 113.959 51.1663 113.693C51.2027 113.427 51.167 113.156 51.0629 112.909C51.6809 113.133 52.3468 113.193 52.9949 113.082C53.643 112.971 54.251 112.693 54.7591 112.275C55.2317 111.98 55.6019 111.546 55.8192 111.032C56.0366 110.519 56.0906 109.951 55.9739 109.406" stroke="#1D1D1B" stroke-linecap="round" stroke-linejoin="round"/>
<path d="M41.5 120.095C41.9019 120.156 42.3126 120.106 42.689 119.953" stroke="#1D1D1B" stroke-linecap="round" stroke-linejoin="round"/>
<path d="M155.254 97.9951C155.322 99.917 155.716 101.813 156.417 103.604" stroke="#1D1D1B" stroke-linecap="round" stroke-linejoin="round"/>
<path d="M54.0352 108.967C54.645 109.112 55.2695 109.186 55.8962 109.187C57.192 109.168 58.4624 108.824 59.5913 108.188C60.7201 107.551 61.6714 106.642 62.3581 105.542" stroke="#1D1D1B" stroke-linecap="round" stroke-linejoin="round"/>
<path d="M61.3887 104.637C61.7505 104.87 62.1124 105.102 62.4872 105.309C67.1786 108.203 72.3129 110.307 77.6856 111.538L78.4739 111.706" stroke="#1D1D1B" stroke-linecap="round" stroke-linejoin="round"/>
<path d="M65.2012 102.466L77.7243 111.358" stroke="#1D1D1B" stroke-linecap="round" stroke-linejoin="round"/>
<path d="M74.6328 105.49C76.0286 107.48 77.4157 109.479 78.7943 111.487C79.8411 112.973 80.875 114.472 81.9089 115.971" stroke="#1D1D1B" stroke-linecap="round" stroke-linejoin="round"/>
<path d="M73.6934 95.0996C74.7402 96.7409 75.8646 98.3176 77.0535 99.8556C82.2637 106.495 88.8167 111.961 96.2842 115.894" stroke="#1D1D1B" stroke-linecap="round" stroke-linejoin="round"/>
<path d="M82.002 87.2417C82.4327 91.1705 83.0272 95.0735 83.7854 98.9507C83.7296 97.103 83.9429 95.2571 84.4187 93.471C84.9136 91.6737 86.055 90.1227 87.6238 89.1157C88.717 88.5043 89.9754 88.2539 91.2193 88.4001C92.4633 88.5464 93.6293 89.0817 94.551 89.9299C95.6256 91.1919 96.4976 92.6132 97.1357 94.143C97.7993 95.6927 99.0422 96.9217 100.599 97.5678" stroke="#1D1D1B" stroke-linecap="round" stroke-linejoin="round"/>
<path d="M92.4316 82.4863C92.4918 83.1491 92.6924 83.7915 93.0199 84.3709C93.3475 84.9502 93.7946 85.4532 94.3314 85.8465C95.4021 86.6269 96.409 87.4913 97.3427 88.4312C99.1908 90.6154 99.3847 94.0402 101.685 95.7462" stroke="#1D1D1B" stroke-linecap="round" stroke-linejoin="round"/>
<path d="M101.764 108.256C100.627 105.038 102.708 101.587 102.566 98.1753C102.513 97.331 102.37 96.4948 102.139 95.681C101.71 94.332 101.378 92.9543 101.144 91.5583C100.98 88.6776 101.697 85.8153 103.199 83.3517C103.367 83.0415 103.548 82.7313 103.729 82.4212C105.021 80.2629 106.469 78.2209 107.606 75.9593C109.478 72.3766 110.529 68.4223 110.683 64.3831C110.837 60.3438 110.091 56.3209 108.498 52.606" stroke="#1D1D1B" stroke-linecap="round" stroke-linejoin="round"/>
<path d="M106.504 83.3135C107.858 81.0765 109.804 79.2564 112.126 78.0535C113.285 77.4582 114.57 77.1477 115.874 77.1477C117.177 77.1477 118.462 77.4582 119.622 78.0535C121.179 79.0937 122.5 80.45 123.499 82.0341L125.605 84.9419C124.496 72.721 119.848 61.0886 112.229 51.4692C111.919 51.0686 111.596 50.668 111.273 50.2803" stroke="#1D1D1B" stroke-linecap="round" stroke-linejoin="round"/>
<path d="M112.336 51.3528C121.724 50.2053 131.192 49.8508 140.639 50.2931C143.224 50.4094 145.809 50.6032 148.393 50.9651C152.168 51.4334 155.842 52.5069 159.275 54.1444C162.403 55.7082 165.466 58.3188 166.021 62.1701C166.389 62.0869 166.774 62.115 167.126 62.2511C167.478 62.3872 167.781 62.6249 167.997 62.9341C168.214 63.2432 168.333 63.6097 168.34 63.987C168.347 64.3642 168.242 64.7349 168.038 65.0521C168.634 64.745 169.32 64.6596 169.973 64.8111C170.626 64.9626 171.204 65.3411 171.604 65.8792C172.166 66.9655 172.408 68.189 172.302 69.4074C172.313 69.7191 172.344 70.0299 172.393 70.3379C172.427 70.7925 172.56 71.2343 172.783 71.6317C173.007 72.0292 173.315 72.3729 173.685 72.6383" stroke="#1D1D1B" stroke-linecap="round" stroke-linejoin="round"/>
<path d="M172.533 70.3115C174.029 70.166 175.539 70.2619 177.005 70.5958C177.739 70.763 178.423 71.1021 179 71.5852C179.578 72.0682 180.032 72.6814 180.326 73.3744C180.585 74.0981 180.611 74.8865 180.843 75.6231C180.927 75.9984 181.114 76.3427 181.384 76.6169C181.653 76.891 181.994 77.0841 182.368 77.174C182.821 77.174 183.286 77.0318 183.751 77.0577C184.174 77.1218 184.565 77.3194 184.867 77.6217C185.169 77.924 185.367 78.3151 185.431 78.7377C185.549 79.6059 185.469 80.4893 185.199 81.3225C186.186 81.4377 187.109 81.8705 187.829 82.5557C188.55 83.241 189.028 84.1416 189.192 85.1221C189.266 85.5497 189.266 85.9869 189.192 86.4145" stroke="#1D1D1B" stroke-linecap="round" stroke-linejoin="round"/>
<path d="M191.247 87.9784C189.782 86.9551 187.996 86.4961 186.219 86.686C184.455 86.876 182.72 87.2751 181.05 87.875L171.577 90.8862C168.527 91.8426 165.309 92.9282 163.318 95.4225" stroke="#1D1D1B" stroke-linecap="round" stroke-linejoin="round"/>
<path d="M165.31 66.7065C159.877 73.9627 155.552 81.9855 152.477 90.5122" stroke="#1D1D1B" stroke-linecap="round" stroke-linejoin="round"/>
<path d="M133.32 66.9775C133.936 72.1048 135.704 77.0266 138.49 81.3747C141.26 85.7009 144.423 89.7632 147.937 93.5101" stroke="#1D1D1B" stroke-linecap="round" stroke-linejoin="round"/>
<path d="M135.803 89.9302C139.697 93.9654 144.785 96.6429 150.316 97.5681" stroke="#1D1D1B" stroke-linecap="round" stroke-linejoin="round"/>
<path d="M143.816 106.266C146.608 105.154 150.86 101.872 153.199 99.959" stroke="#1D1D1B" stroke-linecap="round" stroke-linejoin="round"/>
<path d="M148.041 53.0454C145.294 59.0434 143.939 65.5849 144.078 72.1804C144.217 78.776 145.845 85.2548 148.842 91.1319C149.23 91.9073 149.656 92.6827 150.134 93.4323" stroke="#1D1D1B" stroke-linecap="round" stroke-linejoin="round"/>
<path d="M151.455 95.4102C151.739 96.4828 152.14 97.6977 153.174 98.0983C153.857 98.3026 154.592 98.2378 155.229 97.9174L155.875 97.633L157.723 96.7801C158.049 96.6095 158.397 96.4835 158.757 96.4053C158.864 96.3918 158.973 96.3918 159.08 96.4053C159.32 96.3938 159.557 96.4557 159.76 96.5827C159.963 96.7098 160.123 96.8958 160.217 97.1161" stroke="#1D1D1B" stroke-linecap="round" stroke-linejoin="round"/>
<path d="M158.768 96.4692C158.57 96.8447 158.455 97.2581 158.431 97.6816C158.406 98.1052 158.473 98.529 158.626 98.9247C159.101 99.8547 159.798 100.654 160.655 101.251L162.529 97.71" stroke="#1D1D1B" stroke-linecap="round" stroke-linejoin="round"/>
<path d="M155.357 93.9493C156.719 92.4501 158.114 90.9811 159.545 89.5423C164.547 84.4686 169.912 79.7649 175.596 75.4683" stroke="#1D1D1B" stroke-linecap="round" stroke-linejoin="round"/>
<path d="M161.484 91.4296C166.965 85.8226 174.439 82.6082 182.279 82.4863" stroke="#1D1D1B" stroke-linecap="round" stroke-linejoin="round"/>
<path d="M167.197 96.9217C168.99 96.5308 170.808 96.2674 172.638 96.1333C175.117 95.9333 177.612 96.1252 180.031 96.702C182.144 97.1722 184.13 98.0966 185.851 99.4111C187.571 100.726 188.985 102.399 189.995 104.314C191.368 107.696 191.671 111.417 190.861 114.976C190.783 115.429 190.693 115.881 190.602 116.269" stroke="#1D1D1B" stroke-linecap="round" stroke-linejoin="round"/>
<path d="M186.285 116.438C186.794 117.312 187.573 117.998 188.506 118.389C189.439 118.781 190.474 118.858 191.455 118.609C193.402 118.083 195.208 117.129 196.741 115.817C198.649 114.594 200.303 113.015 201.613 111.165C203.706 107.714 203.164 103.242 201.755 99.4557C200.541 96.4575 199.08 93.5655 197.387 90.8097C196.613 89.2947 195.615 87.9049 194.427 86.687C193.827 86.0826 193.102 85.6177 192.302 85.3251C191.503 85.0325 190.649 84.9194 189.8 84.9939" stroke="#1D1D1B" stroke-linecap="round" stroke-linejoin="round"/>
<path d="M135.404 111.745C137.395 111.71 139.374 111.432 141.298 110.918C145.905 109.581 150.306 107.616 154.376 105.076L156.561 103.784C157.943 102.983 159.326 102.156 160.722 101.367C164.443 99.1406 168.458 97.4482 172.651 96.3398" stroke="#1D1D1B" stroke-linecap="round" stroke-linejoin="round"/>
<path d="M137.275 112.947L135.362 111.81C133.32 110.552 131.33 109.234 129.391 107.855C128.577 107.286 127.789 106.705 127.001 106.11L125.954 105.296C125.23 104.753 124.519 104.185 123.808 103.603C123.098 103.022 122.18 102.311 121.366 101.613C120.016 100.493 118.547 99.5269 116.985 98.7309C115.869 98.0803 114.565 97.8296 113.288 98.0201C112.002 98.4535 110.867 99.2475 110.019 100.308L102.885 107.752C102.665 107.984 102.432 108.217 102.226 108.463C101.789 108.919 101.415 109.432 101.114 109.988C100.97 110.281 100.857 110.588 100.778 110.905C100.593 111.512 100.647 112.167 100.928 112.736C101.209 113.305 101.696 113.746 102.29 113.968" stroke="#1D1D1B" stroke-linecap="round" stroke-linejoin="round"/>
<path d="M111.571 103.384L103.248 112.741C102.886 113.141 102.562 113.573 102.279 114.033C102.132 114.258 102.014 114.501 101.93 114.757C101.765 115.243 101.72 115.762 101.801 116.269C101.951 117.176 102.37 118.018 103.002 118.686C104.028 119.678 105.223 120.479 106.531 121.051" stroke="#1D1D1B" stroke-linecap="round" stroke-linejoin="round"/>
<path d="M116.56 107.752L108.805 116.708C108.068 117.43 107.51 118.316 107.177 119.293C107.048 119.802 107.048 120.335 107.177 120.844C107.431 121.97 108.071 122.971 108.986 123.674C110.358 124.636 111.903 125.325 113.535 125.703" stroke="#1D1D1B" stroke-linecap="round" stroke-linejoin="round"/>
<path d="M121.91 112.818L114.841 122.02C114.026 123.093 113.161 124.424 113.639 125.678C114.066 126.433 114.728 127.028 115.526 127.371L119.403 129.568C120.314 130.207 121.392 130.566 122.504 130.602C123.607 130.424 124.623 129.893 125.399 129.089C126.421 128.162 127.343 127.131 128.152 126.014C128.453 125.634 128.665 125.193 128.773 124.721C128.829 124.487 128.819 124.243 128.743 124.014C128.668 123.786 128.53 123.583 128.346 123.429" stroke="#1D1D1B" stroke-linecap="round" stroke-linejoin="round"/>
<path d="M131.318 116.656C130.242 117.743 128.908 118.539 127.441 118.97H127.363" stroke="#1D1D1B" stroke-linecap="round" stroke-linejoin="round"/>
<path d="M129.496 115.739C128.863 116.838 128.204 117.91 127.467 118.97C126.731 120.03 126.175 120.831 125.503 121.723C124.22 123.43 122.839 125.061 121.367 126.608" stroke="#1D1D1B" stroke-linecap="round" stroke-linejoin="round"/>
<path d="M123.967 124.476C124.113 124.422 124.272 124.417 124.421 124.462C124.57 124.506 124.701 124.597 124.794 124.721C124.975 124.98 124.962 125.354 123.967 124.476Z" stroke="#1D1D1B" stroke-linecap="round" stroke-linejoin="round"/>
<path d="M125.541 108.011C124.709 108.166 123.932 108.534 123.287 109.08C122.641 109.626 122.148 110.331 121.857 111.125" stroke="#1D1D1B" stroke-linecap="round" stroke-linejoin="round"/>
<path d="M120.282 103.332C119.574 103.489 118.911 103.803 118.34 104.25C117.77 104.697 117.307 105.267 116.986 105.917" stroke="#1D1D1B" stroke-linecap="round" stroke-linejoin="round"/>
<path d="M115.967 100.011C115.388 100.013 114.822 100.177 114.333 100.486C113.844 100.794 113.451 101.234 113.201 101.756" stroke="#1D1D1B" stroke-linecap="round" stroke-linejoin="round"/>
<path d="M125.787 121.943C126.627 122.499 127.48 123.055 128.372 123.585C129.567 124.346 130.825 125.003 132.133 125.549C134.371 126.542 136.849 126.865 139.267 126.48C141.147 126.128 142.838 125.115 144.036 123.623C144.366 123.204 144.64 122.744 144.85 122.254" stroke="#1D1D1B" stroke-linecap="round" stroke-linejoin="round"/>
<path d="M190.767 114.95L186.231 116.243C182.164 117.302 178.08 118.272 173.979 119.15C164.136 121.253 154.182 122.798 144.164 123.777" stroke="#1D1D1B" stroke-linecap="round" stroke-linejoin="round"/>
<path d="M126.15 105.051C130.588 105.069 134.984 104.19 139.074 102.466C139.359 103.371 139.643 104.276 139.914 105.18V105.322C136.663 106.779 133.138 107.524 129.575 107.507" stroke="#1D1D1B" stroke-width="0.5" stroke-miterlimit="10"/>
<path d="M139.887 105.207C140.752 106.828 141.196 108.641 141.179 110.479" stroke="#1D1D1B" stroke-width="0.5" stroke-miterlimit="10"/>
<path d="M40.8535 120.159H41.4868L42.6758 120.016C50.0802 119.051 57.3113 117.045 64.1551 114.059C69.9916 115.252 75.896 116.085 81.8349 116.553C86.6296 116.928 91.4631 117.07 96.2708 116.966C97.757 116.966 99.2303 116.889 100.704 116.811" stroke="#1D1D1B" stroke-linecap="round" stroke-linejoin="round"/>
<path d="M100.82 109.819C100.334 109.432 99.761 109.169 99.1504 109.054C98.5398 108.939 97.9104 108.976 97.3173 109.161C96.7242 109.346 96.1855 109.674 95.7483 110.115C95.3112 110.557 94.989 111.098 94.81 111.693C94.7066 111.964 94.7066 112.263 94.81 112.533C94.9531 112.784 95.176 112.98 95.4433 113.089L101.026 116.217L101.181 116.307" stroke="#1D1D1B" stroke-linecap="round" stroke-linejoin="round"/>
<path d="M17.706 123.843H17.5897C11.9856 123.804 6.39991 123.198 0.917969 122.033C16.3258 128.89 32.2552 134.508 48.5551 138.834C73.4654 145.482 99.0813 149.127 124.857 149.69C144.889 138.834 165.373 128.831 186.271 119.526C182.184 119.182 178.079 119.095 173.981 119.268" stroke="#1D1D1B" stroke-linecap="round" stroke-linejoin="round"/>
<path d="M123.371 134.517L148.999 127.177" stroke="#1D1D1B" stroke-linecap="round" stroke-linejoin="round"/>
<path d="M107.783 137.813L131.873 136.869" stroke="#1D1D1B" stroke-linecap="round" stroke-linejoin="round"/>
<path d="M26.9338 96.2244C24.3491 90.5293 21.7299 84.83 19.0762 79.1263C18.2749 77.3686 17.4607 75.598 16.6465 73.8404C16.695 73.3387 16.8713 72.8579 17.1587 72.4438C17.446 72.0297 17.8348 71.6962 18.2878 71.4753C18.8352 71.2366 19.4382 71.1549 20.0293 71.2394C20.6205 71.3238 21.1764 71.5711 21.6351 71.9535C22.3717 73.7499 23.0955 75.5464 23.8321 77.3557C26.0981 82.9302 28.3641 88.5046 30.63 94.079C31.0307 95.0612 31.4313 96.0435 31.819 97.0257C32.2067 98.0079 32.7108 99.1969 33.1114 100.283" stroke="#1D1D1B" stroke-linecap="round" stroke-linejoin="round"/>
<path d="M15.0045 94.8677C15.3854 95.7811 15.6166 96.7498 15.6894 97.7367C15.7164 98.2254 15.6287 98.7136 15.4335 99.1623C15.2383 99.6111 14.9409 100.008 14.5651 100.321C13.5829 101.032 12.0578 100.968 11.3729 101.976C11.1592 102.458 11.0732 102.987 11.123 103.512C11.1727 104.037 11.3567 104.541 11.6572 104.974C12.2711 105.841 12.5427 106.904 12.4197 107.959C12.0449 109.252 10.3907 109.924 10.1451 111.255C9.80909 113.077 12.2388 114.292 12.4843 116.114C12.6394 117.226 11.9415 118.363 12.2646 119.423C12.5486 120.144 13.0558 120.755 13.7121 121.168C15.0045 122.085 16.2968 122.977 17.5892 123.83C18.5714 124.489 19.5536 125.122 20.5617 125.73C21.1691 126.092 21.7765 126.453 22.4098 126.751C23.0411 127.044 23.7114 127.244 24.4001 127.345C25.0956 127.458 25.8089 127.361 26.449 127.066C27.089 126.772 27.6266 126.293 27.9929 125.691" stroke="#1D1D1B" stroke-linecap="round" stroke-linejoin="round"/>
<path d="M15.6523 118.222L23.4066 122.706L23.8073 122.939L25.0092 123.637C25.9846 124.282 27.0462 124.787 28.1626 125.136C28.7302 125.292 29.3252 125.322 29.9057 125.224C30.4862 125.126 31.0382 124.902 31.5228 124.567C32.4533 123.843 32.2336 121.052 31.5228 120.07" stroke="#1D1D1B" stroke-linecap="round" stroke-linejoin="round"/>
<path d="M16.6992 109.781C21.1264 113.899 26.1446 117.332 31.5874 119.965C32.8798 120.624 34.3273 121.258 35.736 121.8" stroke="#1D1D1B" stroke-linecap="round" stroke-linejoin="round"/>
<path d="M20.7949 103.423L29.6736 109.381" stroke="#1D1D1B" stroke-linecap="round" stroke-linejoin="round"/>
<path d="M25.098 105.749C24.8008 105.181 24.5035 104.599 24.1934 104.03" stroke="#1D1D1B" stroke-linecap="round" stroke-linejoin="round"/>
<path d="M38.6412 113.284C38.4862 112.922 38.3311 112.56 38.1889 112.185C37.0248 109.353 36.1586 106.408 35.6042 103.397C34.6607 102.518 33.6914 101.665 32.7092 100.812C30.831 99.2181 28.8838 97.7233 26.8677 96.3275C24.4977 94.67 22.0337 93.1511 19.4882 91.7783C18.5292 91.8315 17.6025 92.1431 16.8062 92.68C16.0099 93.2169 15.3736 93.9592 14.9648 94.8283" stroke="#1D1D1B" stroke-linecap="round" stroke-linejoin="round"/>
<path d="M20.3945 101.562C24.3372 103.304 27.758 106.043 30.32 109.51C31.2196 113.09 32.9962 116.39 35.4895 119.112L35.748 119.396C36.4736 119.536 37.2241 119.466 37.911 119.193C38.5979 118.921 39.1927 118.458 39.6252 117.858C39.9097 117.493 40.1484 117.093 40.336 116.669C40.1292 116.243 39.9095 115.816 39.7156 115.377C39.3796 114.692 39.0694 113.994 38.7722 113.296" stroke="#1D1D1B" stroke-linecap="round" stroke-linejoin="round"/>
<path d="M38.2662 101.872C37.3847 104.106 36.9924 106.504 37.116 108.903" stroke="#1D1D1B" stroke-linecap="round" stroke-linejoin="round"/>
<path d="M38.6422 113.283C39.1979 113.968 40.9685 113.787 41.6793 113.283C42.042 113.04 42.3393 112.712 42.5452 112.327C42.7742 111.924 42.9398 111.488 43.0363 111.035C43.2689 110.182 43.3723 109.303 43.6825 108.45C43.9927 107.597 44.6389 106.718 44.9749 105.775C45.2891 104.545 45.1227 103.241 44.5096 102.13L44.277 101.716C43.675 100.796 42.9083 99.9939 42.0153 99.3514C40.3899 98.1314 38.5065 97.3003 36.5098 96.9217C35.0554 96.6225 33.5605 96.5744 32.0898 96.7795" stroke="#1D1D1B" stroke-linecap="round" stroke-linejoin="round"/>
<path d="M38.1774 112.211C37.5829 112.586 35.9286 113.374 35.3341 113.749C35.239 113.775 35.1522 113.825 35.0825 113.895C35.0127 113.965 34.9623 114.052 34.9362 114.147C34.9101 114.242 34.9093 114.343 34.9337 114.438C34.9582 114.534 35.0071 114.621 35.0757 114.692L35.7089 115.765C35.8991 116.183 36.2154 116.531 36.6136 116.76C36.8246 116.839 37.0508 116.868 37.2748 116.846C37.4988 116.823 37.7148 116.75 37.906 116.631C38.3012 116.382 38.6545 116.073 38.9528 115.713" stroke="#1D1D1B" stroke-width="0.5" stroke-linecap="round" stroke-linejoin="round"/>
<path d="M42.0041 111.939L40.0914 111.513C39.858 111.495 39.6304 111.431 39.4219 111.324C39.2133 111.218 39.028 111.071 38.8766 110.892C38.7036 110.54 38.6449 110.143 38.7086 109.755C38.68 109.343 38.7364 108.93 38.8742 108.541C39.0121 108.152 39.2284 107.795 39.5099 107.494L40.1948 107.222C41.1899 107.61 42.1851 108.049 43.1414 108.515" stroke="#1D1D1B" stroke-width="0.5" stroke-linecap="round" stroke-linejoin="round"/>
<path d="M32.9323 103.021C31.7261 103.48 30.7165 104.344 30.0762 105.464" stroke="#1D1D1B" stroke-width="0.5" stroke-linecap="round" stroke-linejoin="round"/>
<path d="M31.2754 106.253L33.1493 104.96" stroke="#1D1D1B" stroke-width="0.5" stroke-linecap="round" stroke-linejoin="round"/>
<path d="M28.1088 111.009C27.366 111.766 26.9092 112.757 26.8164 113.814" stroke="#1D1D1B" stroke-width="0.5" stroke-linecap="round" stroke-linejoin="round"/>
<path d="M28.8098 113.193L28.0215 115.029" stroke="#1D1D1B" stroke-width="0.5" stroke-linecap="round" stroke-linejoin="round"/>
<path d="M25.3433 118.362C24.7782 119.028 24.4831 119.881 24.5162 120.753" stroke="#1D1D1B" stroke-width="0.5" stroke-linecap="round" stroke-linejoin="round"/>
<path d="M23.184 123.934C23.0935 124.515 22.9901 125.084 22.8867 125.652" stroke="#1D1D1B" stroke-width="0.5" stroke-linecap="round" stroke-linejoin="round"/>
<path d="M75.9668 76.7607C76.5588 76.8381 77.1583 76.8381 77.7503 76.7607C79.5468 76.5539 81.295 76.0426 82.9198 75.2486C85.0382 74.1265 87.3187 73.3416 89.679 72.9223C90.1977 72.814 90.7356 72.8417 91.2405 73.0024C91.7455 73.1632 92.2003 73.4517 92.561 73.8399C92.7792 74.1957 92.8947 74.605 92.8947 75.0224C92.8947 75.4398 92.7792 75.8492 92.561 76.205C92.1001 76.9122 91.4386 77.4657 90.6612 77.7946C86.952 79.5393 82.4158 78.0531 78.5128 79.087C78.1646 79.1736 77.8234 79.2859 77.4918 79.423" stroke="#1D1D1B" stroke-width="0.5" stroke-linecap="round" stroke-linejoin="round"/>
<path d="M77.7637 77.1616C78.0538 77.7412 78.275 78.3528 78.4228 78.9838" stroke="#1D1D1B" stroke-width="0.5" stroke-linecap="round" stroke-linejoin="round"/>
<path d="M107.008 43.4818C107.005 42.995 106.819 42.527 106.486 42.1721C106.152 41.8172 105.697 41.6018 105.211 41.5691C104.721 41.5622 104.237 41.6765 103.802 41.902C103.367 42.1275 102.994 42.4572 102.717 42.8615C102.171 43.6702 101.805 44.587 101.644 45.5496C101.412 46.6223 101.282 47.7208 100.998 48.8064C100.998 48.8064 100.998 48.8064 101.063 48.8064H101.179C102.071 48.4704 102.975 48.1861 103.893 47.9406C104.199 47.8372 104.53 47.8372 104.836 47.9406C105.066 48.0801 105.247 48.2879 105.353 48.535C105.673 49.367 105.673 50.2878 105.353 51.1198C105.049 51.9549 104.612 52.7359 104.061 53.4332C103.815 53.8407 103.473 54.1822 103.066 54.4283C102.861 54.5416 102.627 54.5876 102.395 54.5598C102.163 54.5319 101.945 54.4316 101.773 54.2732C101.36 53.8209 101.58 53.0842 101.89 52.5414C102.287 52.0613 102.478 51.4431 102.42 50.8226C102.361 50.6378 102.253 50.4727 102.107 50.3451C101.961 50.2175 101.783 50.1323 101.593 50.0988C101.478 50.0728 101.358 50.0728 101.244 50.0988" stroke="#1D1D1B" stroke-width="0.5" stroke-linecap="round" stroke-linejoin="round"/>
<path d="M104.773 42.0996C105.789 43.2031 106.412 44.6117 106.544 46.106" stroke="#1D1D1B" stroke-width="0.5" stroke-linecap="round" stroke-linejoin="round"/>
<path d="M56.2301 129.232C55.982 128.677 55.8746 128.069 55.9174 127.463C55.9602 126.856 56.152 126.27 56.4756 125.755C57.1306 124.74 58.0163 123.894 59.0604 123.287C61.3757 121.854 63.9975 120.989 66.7111 120.765C69.4247 120.54 72.1529 120.962 74.6723 121.994C76.0308 122.513 77.242 123.356 78.2005 124.45C78.6767 124.999 79.0154 125.653 79.1884 126.359C79.3615 127.064 79.364 127.801 79.1957 128.508C78.6539 129.928 77.5908 131.088 76.2232 131.752C73.0989 133.559 69.4549 134.256 65.8842 133.729H65.6903C64.6435 133.561 63.5062 133.367 62.4077 133.096C61.6753 132.91 60.9546 132.682 60.2494 132.411C59.041 131.988 57.948 131.288 57.0572 130.369C56.7332 130.027 56.4552 129.645 56.2301 129.232Z" stroke="#1D1D1B" stroke-width="0.5" stroke-linecap="round" stroke-linejoin="round"/>
<path d="M42.7537 129.012C42.2945 129.123 41.8575 129.31 41.4613 129.567C41.2492 129.708 41.0771 129.9 40.9616 130.127C40.8461 130.353 40.7912 130.606 40.8022 130.86C40.8797 131.764 41.9524 132.152 42.857 132.294C47.277 132.863 51.6582 131.183 55.7808 129.542" stroke="#1D1D1B" stroke-width="0.5" stroke-linecap="round" stroke-linejoin="round"/>
<path d="M56.8798 130.588C53.8838 131.59 51.141 133.23 48.8412 135.396C48.6327 135.539 48.4632 135.733 48.3481 135.958C48.233 136.184 48.176 136.435 48.1821 136.688C48.2267 136.873 48.3215 137.042 48.4561 137.176C48.5906 137.311 48.7596 137.406 48.9446 137.451C49.3197 137.528 49.7068 137.528 50.0819 137.451C53.8858 136.969 57.4316 135.269 60.1883 132.604" stroke="#1D1D1B" stroke-width="0.5" stroke-linecap="round" stroke-linejoin="round"/>
<path d="M62.3827 133.276C60.9188 134.109 59.6393 135.23 58.6218 136.572C58.3472 136.856 58.1415 137.2 58.0205 137.576C57.8995 137.953 57.8665 138.352 57.9239 138.743C58.0969 139.17 58.4059 139.529 58.8031 139.762C59.2004 139.996 59.6636 140.092 60.121 140.036C60.8414 139.964 61.5379 139.738 62.1625 139.372C62.7872 139.006 63.3252 138.51 63.7397 137.916C64.5665 136.724 65.2152 135.418 65.6653 134.039" stroke="#1D1D1B" stroke-width="0.5" stroke-linecap="round" stroke-linejoin="round"/>
<path d="M64.9034 126.569L64.7871 126.699" stroke="#1D1D1B" stroke-width="0.5" stroke-linecap="round" stroke-linejoin="round"/>
<path d="M64.7881 126.699C64.6201 126.906 64.129 127.449 62.5781 129.013L64.7881 126.699Z" stroke="#1D1D1B" stroke-width="0.5" stroke-linecap="round" stroke-linejoin="round"/>
<path d="M68.6641 130.73C69.226 130.039 69.8985 129.445 70.6543 128.973" stroke="#1D1D1B" stroke-width="0.5" stroke-linecap="round" stroke-linejoin="round"/>
<path d="M66.584 123.971C67.6922 123.424 68.9199 123.163 70.1549 123.213C71.3898 123.263 72.5927 123.621 73.6533 124.256C74.0708 124.566 74.3719 125.007 74.5078 125.509C74.6438 126.01 74.6069 126.543 74.4029 127.022" stroke="#1D1D1B" stroke-width="0.5" stroke-linecap="round" stroke-linejoin="round"/>
<path d="M18.7148 77.4975C18.9014 77.1129 19.166 76.7714 19.4918 76.4947C19.8177 76.2181 20.1977 76.0124 20.6075 75.8908C21.0173 75.7692 21.4479 75.7343 21.8719 75.7884C22.296 75.8425 22.704 75.9845 23.0702 76.2051" stroke="#1D1D1B" stroke-width="0.5" stroke-linecap="round" stroke-linejoin="round"/>
<path d="M19.3223 79.0096C19.3681 78.7175 19.492 78.4433 19.6808 78.2158C19.8696 77.9883 20.1163 77.8161 20.3949 77.7172C21.4219 77.2196 22.5986 77.1273 23.6905 77.4587" stroke="#1D1D1B" stroke-width="0.5" stroke-linecap="round" stroke-linejoin="round"/>
<path d="M41.2012 126.931L41.7827 126.569" stroke="#1D1D1B" stroke-width="0.5" stroke-linecap="round" stroke-linejoin="round"/>
<path d="M61.8145 56.4834C63.5066 56.5748 65.1146 57.2508 66.3636 58.3961C67.6074 59.5423 69.1476 60.3169 70.8094 60.632" stroke="#1D1D1B" stroke-width="0.5" stroke-linecap="round" stroke-linejoin="round"/>
<path d="M70.2657 55.8887C70.1508 56.1445 70.1013 56.4249 70.1216 56.7046C70.1419 56.9843 70.2314 57.2546 70.382 57.4912C70.6836 58.1617 71.1589 58.7393 71.7588 59.1643C72.3587 59.5892 73.0614 59.846 73.7939 59.908" stroke="#1D1D1B" stroke-width="0.5" stroke-linecap="round" stroke-linejoin="round"/>
<path d="M73.1621 57.7885C73.9965 57.7937 74.8231 57.6291 75.5919 57.3047C76.3606 56.9803 77.0553 56.503 77.6337 55.9016L77.8922 55.6432C79.0037 54.5576 79.9213 53.2911 81.0198 52.2055C83.0159 50.2496 85.5567 48.9431 88.3088 48.4575" stroke="#1D1D1B" stroke-width="0.5" stroke-linecap="round" stroke-linejoin="round"/>
<path d="M67.5918 66.8094C68.1043 66.9415 68.6465 66.896 69.1297 66.6802C69.589 66.4517 70.0223 66.1744 70.4221 65.853" stroke="#1D1D1B" stroke-width="0.5" stroke-linecap="round" stroke-linejoin="round"/>
<path d="M80.2832 61.9375C81.2694 63.3388 82.6919 64.3741 84.3286 64.8815C85.9653 65.3889 87.724 65.3398 89.3299 64.742" stroke="#1D1D1B" stroke-width="0.5" stroke-linecap="round" stroke-linejoin="round"/>
<path d="M67.604 73.0259H66.932C65.0768 72.9966 63.2624 72.4765 61.6734 71.5186C60.0844 70.5606 58.7774 69.199 57.8853 67.5721C57.4113 66.6938 57.1087 65.7332 56.9936 64.7418C56.8656 63.7753 57.0041 62.7921 57.3942 61.8985C57.8393 61.0105 58.5112 60.2559 59.3419 59.7112C60.1726 59.1665 61.1325 58.851 62.1243 58.7968C62.6526 58.7385 63.1857 58.7385 63.714 58.7968C65.1489 59.0436 66.5044 59.6284 67.6686 60.5028C69.236 61.725 70.5824 63.2069 71.6492 64.8839L72.0369 64.7418C73.1278 64.3362 74.3129 64.2554 75.4488 64.5092C75.8164 64.6271 76.1922 64.7178 76.5731 64.7805C75.919 63.6515 75.622 62.3509 75.7212 61.0499C75.8204 59.7488 76.3111 58.5083 77.1289 57.4915C77.5353 56.9823 78.0042 56.5264 78.5246 56.1345C80.1171 54.9602 82.0162 54.2734 83.9914 54.1572C85.6612 53.9556 87.3509 54.3099 88.7991 55.1652C89.9281 55.9871 90.8198 57.0929 91.3838 58.3704C92.2442 59.9568 92.6888 61.7352 92.6762 63.5399C92.6479 65.3449 91.9041 67.0647 90.6084 68.3216C89.8487 68.9731 88.9713 69.4732 88.0236 69.795C85.7878 70.5962 83.0997 71.0873 81.0448 69.795C79.1177 68.5803 77.5723 66.8468 76.5861 64.7935" stroke="#1D1D1B" stroke-linecap="round" stroke-linejoin="round"/>
<path d="M67.8652 62.7773C68.2142 63.3718 68.5502 63.9663 68.8862 64.5608" stroke="#1D1D1B" stroke-linecap="round" stroke-linejoin="round"/>
<path d="M81.8984 59.5723L83.1908 61.7176" stroke="#1D1D1B" stroke-linecap="round" stroke-linejoin="round"/>
<path d="M35.4238 119.112C35.6694 119.784 36.0442 120.688 36.406 121.554C36.6516 122.149 36.9101 122.717 37.1168 123.183L37.2332 123.454C39.0296 125.289 40.813 127.112 42.7387 128.882C42.4944 126.538 42.0622 124.217 41.4463 121.942L41.2137 121.386L40.7226 120.236C40.3995 119.487 40.0764 118.737 39.7662 117.987" stroke="#1D1D1B" stroke-linecap="round" stroke-linejoin="round"/>
</svg>
