<svg width="215" height="159" viewBox="0 0 215 159" fill="none" xmlns="http://www.w3.org/2000/svg">
<path d="M59.5195 55.0598C61.1406 53.33 62.8978 51.7091 64.6414 50.1292C64.552 51.0158 64.6494 51.9113 64.9275 52.7579H64.0693C63.7181 55.584 64.0931 58.4529 65.159 61.0937L64.9683 61.1755C63.4667 61.0471 62.0719 60.3462 61.0728 59.2179C60.0737 58.0896 59.5468 56.6204 59.6013 55.1143L59.5195 55.0598Z" fill="#1D1D1B"/>
<path d="M38.4599 102.637C36.9269 102.322 35.3513 102.271 33.8012 102.487L33.5696 102.583C33.161 101.547 32.7387 100.512 32.3164 99.477L33.3244 99.0684C33.8228 99.0208 34.3245 99.0208 34.8229 99.0684C36.2932 99.2374 37.6979 99.7712 38.9095 100.621L38.4599 102.637Z" fill="#3773FF"/>
<path d="M163.675 103.604C163.747 105.63 164.162 107.628 164.901 109.516L165.051 109.774L162.748 111.136C158.455 113.789 153.816 115.838 148.963 117.225L148.854 116.762C148.872 114.825 148.404 112.914 147.492 111.205C147.206 110.251 146.906 109.298 146.606 108.344C142.296 110.16 137.662 111.087 132.984 111.068L132.78 111.327C132.017 110.755 131.268 110.156 130.519 109.543C129.77 108.93 128.802 108.181 127.944 107.445C126.522 106.265 124.973 105.247 123.326 104.408C122.151 103.722 120.777 103.458 119.43 103.659C118.074 104.115 116.878 104.952 115.984 106.07L108.478 113.888C108.247 114.133 108.002 114.378 107.784 114.637L107.307 114.419C106.108 111.027 108.301 107.391 108.151 103.795C108.096 102.905 107.945 102.024 107.702 101.166C107.25 99.7445 106.899 98.2925 106.653 96.8212C106.48 93.7852 107.236 90.7685 108.819 88.1721C108.996 87.8452 109.187 87.5183 109.377 87.1914L112.306 88.1312C113.734 85.7736 115.784 83.8554 118.232 82.5876C119.454 81.9602 120.808 81.633 122.182 81.633C123.556 81.633 124.91 81.9602 126.133 82.5876C127.774 83.6839 129.166 85.1133 130.219 86.7828L132.44 89.8475C131.267 76.9662 126.362 64.7065 118.327 54.57L118.436 54.4883C128.331 53.2789 138.311 52.9052 148.268 53.3714C150.993 53.494 153.717 53.6983 156.442 54.0797L156.115 56.2726C153.219 62.594 151.792 69.4882 151.938 76.4393C152.084 83.3905 153.801 90.2185 156.959 96.4125L160.787 95.7588C164.029 86.7722 168.587 78.317 174.314 70.6696L177.147 68.9261C177.775 68.6025 178.498 68.5126 179.187 68.6722C179.875 68.8319 180.485 69.2308 180.907 69.7979C181.499 70.9428 181.754 72.2322 181.642 73.5163C181.654 73.8448 181.686 74.1724 181.738 74.497C181.773 74.9762 181.914 75.4416 182.149 75.8605C182.385 76.2795 182.709 76.6416 183.1 76.9214L185.184 79.9043C179.193 84.4326 173.538 89.39 168.265 94.7372C166.749 96.2446 165.278 97.7928 163.852 99.3819L166.345 102.297L164.397 103.196L163.716 103.495L163.675 103.604Z" fill="#3773FF"/>
<path d="M201.201 121.501C202.055 117.751 201.736 113.828 200.288 110.264C199.224 108.246 197.734 106.482 195.92 105.097C194.107 103.712 192.013 102.737 189.786 102.242C187.236 101.634 184.606 101.432 181.994 101.643V101.86C177.575 103.029 173.343 104.812 169.421 107.159L169.353 107.036C168.45 106.407 167.715 105.565 167.214 104.585C167.053 104.167 166.983 103.721 167.009 103.274C167.034 102.828 167.156 102.392 167.364 101.997V101.86C166.985 101.943 166.618 102.076 166.274 102.255L163.781 99.3406C165.216 97.7606 166.687 96.2125 168.195 94.696L170.238 96.6846C176.015 90.7753 183.893 87.3876 192.156 87.2591L195.234 85.9924C196.275 86.1138 197.248 86.5699 198.008 87.2921C198.767 88.0143 199.271 88.9635 199.444 89.9969L200.07 89.9152C200.964 89.8366 201.865 89.9557 202.707 90.2641C203.55 90.5725 204.315 91.0625 204.947 91.6995C206.199 92.9831 207.25 94.4479 208.066 96.0445C209.851 98.9489 211.391 101.997 212.671 105.157C214.155 109.147 214.728 113.86 212.521 117.497C211.14 119.447 209.397 121.111 207.385 122.4C205.77 123.783 203.867 124.788 201.814 125.342C200.78 125.605 199.689 125.524 198.706 125.111C197.723 124.698 196.901 123.976 196.365 123.054L196.297 122.795L201.078 121.433L201.201 121.501Z" fill="#3773FF"/>
<path d="M43.6923 128.843C44.3415 131.241 44.797 133.687 45.0545 136.158C43.0248 134.292 41.145 132.371 39.2515 130.437L39.1289 130.151L39.5512 129.96C40.445 129.218 41.5317 128.745 42.6843 128.598L43.4198 128.285L43.6923 128.843Z" fill="#D1D0D1"/>
<path d="M192.252 81.6612C192.729 81.6612 193.219 81.5113 193.709 81.5385C194.155 81.6061 194.567 81.8144 194.886 82.133C195.204 82.4516 195.413 82.8637 195.48 83.3092C195.604 84.2241 195.52 85.1552 195.235 86.0333L192.156 87.3001C183.891 87.4322 176.013 90.8249 170.239 96.7392L168.195 94.7506C173.468 89.4033 179.123 84.446 185.114 79.9177L183.03 76.9348C182.639 76.655 182.315 76.2928 182.079 75.8739C181.844 75.455 181.703 74.9895 181.667 74.5103H181.858C183.435 74.357 185.027 74.4581 186.571 74.81C187.345 74.9862 188.066 75.3436 188.675 75.8527C189.283 76.3618 189.762 77.0081 190.072 77.7384C190.345 78.5012 190.372 79.332 190.617 80.1084C190.721 80.4923 190.928 80.8403 191.216 81.1142C191.505 81.3881 191.863 81.5774 192.252 81.6612Z" fill="#3773FF"/>
<path d="M42.9257 127.045C42.5852 126.255 42.2446 125.465 41.9177 124.675L41.6725 124.539C41.9724 124.154 42.224 123.733 42.4217 123.286C42.2037 122.837 41.9722 122.387 41.7678 121.924C41.4137 121.202 41.0867 120.467 40.7734 119.731C41.3592 120.453 43.2254 120.262 43.9746 119.731C44.3569 119.475 44.6703 119.129 44.8873 118.723C45.1286 118.298 45.3032 117.839 45.4049 117.361C45.6501 116.462 45.7591 115.536 46.086 114.637C46.4129 113.738 47.094 112.812 47.4482 111.818C47.7794 110.522 47.604 109.148 46.9578 107.977L46.7126 107.541L49.1646 107.2C50.9931 110.036 52.3716 113.137 53.2512 116.394L53.8914 119.118C54.0011 119.379 54.0388 119.665 54.0004 119.945C53.9621 120.225 53.8492 120.49 53.6735 120.712C53.2912 121.157 52.8292 121.526 52.3113 121.801L50.7992 122.782C50.2241 123.187 49.6131 123.538 48.9739 123.831C47.4618 124.471 46.4402 126.024 45.078 126.555L43.8248 126.705H43.1573L42.9257 127.045Z" fill="#3773FF"/>
<path d="M41.9208 124.676C42.2478 125.466 42.5883 126.256 42.9289 127.046L43.4465 128.258L42.7109 128.571C41.5584 128.718 40.4716 129.191 39.5779 129.933L39.1556 130.124C38.9376 129.634 38.6652 129.034 38.4064 128.408C38.0249 127.495 37.6299 126.542 37.3711 125.833L37.6435 126.133C38.4084 126.28 39.1994 126.206 39.9234 125.919C40.6474 125.632 41.2743 125.144 41.7301 124.512L41.9208 124.676Z" fill="#D1D0D1"/>
<path d="M45.1086 96.3166C48.4766 101.175 52.1482 105.815 56.1016 110.21C54.6715 104.198 51.1032 98.911 46.0622 95.3358C45.7216 95.0907 45.204 94.8591 44.9043 95.1724C44.6046 95.4857 44.8634 95.976 45.1086 96.3166ZM46.6479 107.69C46.0134 106.719 45.2052 105.874 44.2641 105.197C42.5508 103.911 40.5657 103.035 38.4611 102.636L38.8561 100.675C37.6446 99.8251 36.2398 99.2915 34.7695 99.1224L34.8649 98.3868C35.4602 97.3267 36.302 96.4254 37.3191 95.7592C38.3363 95.093 39.4989 94.6815 40.7087 94.5595C40.5824 94.1381 40.5841 93.6888 40.7136 93.2685C40.8431 92.8481 41.0945 92.4757 41.436 92.1985C41.7775 91.9212 42.1937 91.7517 42.6317 91.7113C43.0697 91.6709 43.5098 91.7615 43.8963 91.9716L46.3891 93.1974C50.2806 94.9583 53.8563 97.3465 56.9734 100.266C59.8915 103.053 61.807 106.726 62.4222 110.713L64.6971 110.605C65.0785 110.85 65.4599 111.095 65.855 111.313L65.7051 111.558C64.9813 112.716 63.9786 113.675 62.7888 114.346C61.599 115.017 60.26 115.379 58.8941 115.399V115.603C59.0171 116.178 58.9602 116.776 58.7311 117.317C58.502 117.858 58.1118 118.316 57.6136 118.627C57.0781 119.067 56.4372 119.36 55.7541 119.477C55.071 119.594 54.3692 119.531 53.7178 119.295L53.0775 116.57C52.198 113.313 50.8194 110.212 48.9909 107.377L46.6479 107.69Z" fill="#3773FF"/>
<path d="M81.2359 105.565C86.7275 112.563 93.6346 118.323 101.505 122.468V123.531C96.4381 123.64 91.3434 123.531 86.2897 123.095V122.55C85.1999 120.97 84.1101 119.39 83.0068 117.824L82.6662 118.055L81.8353 117.878V117.688L68.6355 108.317L70.2838 104.925L67.7773 103.332L71.0194 101.969C73.0759 103.784 75.2865 105.415 77.6261 106.846L81.2359 105.565Z" fill="#3773FF"/>
<path d="M104.391 49.8165H104.595C104.71 50.6112 104.647 51.4214 104.411 52.189C104.176 52.9567 103.773 53.6628 103.233 54.2568C102.834 53.0844 102.181 52.0142 101.322 51.1221C100.463 50.23 99.4178 49.5378 98.2612 49.0945C96.8658 48.6709 95.4466 48.3298 94.0111 48.073C92.9291 47.8551 91.9125 47.3888 91.0415 46.7109C90.4063 46.0963 89.91 45.353 89.5857 44.5308C89.2615 43.7085 89.1169 42.8264 89.1617 41.9437C89.2537 40.1775 89.6644 38.4424 90.374 36.8224H88.7939C86.7506 37.7077 84.2033 36.6725 81.8739 36.8224C80.5533 36.9468 79.2911 37.4266 78.2214 38.2109C77.1516 38.9951 76.3143 40.0544 75.7985 41.2763C75.3118 42.5108 75.1057 43.8381 75.1952 45.162C75.2848 46.4859 75.6676 47.7734 76.3161 48.9311C77.6507 51.2411 79.7447 53.0172 82.2417 53.9571C80.5665 54.5333 78.789 54.7511 77.0243 54.5963C75.2596 54.4414 73.5471 53.9174 71.9979 53.0582C70.0364 51.9549 68.2655 50.0208 68.3881 47.7734C67.478 50.924 67.6849 54.2923 68.9738 57.3078C68.0309 56.9239 67.1842 56.3366 66.4943 55.588C65.8044 54.8393 65.2882 53.9476 64.9826 52.9765C64.7045 52.1298 64.6071 51.2343 64.6965 50.3477C62.9529 51.9277 61.1957 53.5485 59.5747 55.2784C56.9467 57.8829 54.9359 61.0431 53.69 64.5267C53.5546 60.1312 54.8923 55.8164 57.4905 52.2682C55.905 53.8314 53.9727 54.9981 51.851 55.6733C50.7909 55.9999 49.6747 56.1032 48.5727 55.9766C47.4707 55.85 46.407 55.4963 45.4486 54.9378C44.4838 54.2622 43.6672 53.3966 43.0488 52.3941C42.4304 51.3917 42.0233 50.2735 41.8524 49.1082C41.53 46.7727 41.576 44.4012 41.9886 42.08C42.0044 42.9327 42.2948 43.7575 42.8166 44.432C43.3385 45.1065 44.0641 45.5948 44.8855 45.8242C45.707 46.0537 46.5806 46.0121 47.3765 45.7056C48.1724 45.3991 48.8483 44.8442 49.3037 44.1231C50.4343 42.366 50.0256 40.0369 49.8894 37.9938C49.6583 34.8121 50.1956 31.6215 51.4559 28.6909H51.3197C50.4969 29.2292 49.5417 29.5305 48.5589 29.5617C47.5761 29.5929 46.6037 29.3529 45.7483 28.868C44.9048 28.3629 44.1838 27.677 43.6373 26.8597C43.0908 26.0424 42.7324 25.114 42.588 24.1416C42.3353 22.1342 42.7518 20.0994 43.7731 18.3528C43.7648 18.9576 43.9279 19.5525 44.2438 20.0683C44.5596 20.5842 45.0151 21 45.5576 21.2676C46.6535 21.7793 47.8752 21.9593 49.0721 21.7852C53.4039 21.3357 57.0682 18.5299 60.501 15.8603C63.9337 13.1906 67.6389 10.412 71.9707 10.0579C70.4912 10.2457 68.9885 10.0984 67.5737 9.62684C66.1589 9.15529 64.8683 8.37158 63.7975 7.33376C66.3993 8.53238 69.437 7.85134 72.1886 7.07497C74.9403 6.29859 77.8826 5.45408 80.607 6.35304C81.9017 4.77195 83.5196 3.48604 85.3522 2.58159C87.1848 1.67715 89.1896 1.17511 91.2322 1.10913C89.2671 2.42176 87.6159 4.15182 86.3964 6.17596C90.1561 4.2827 94.6786 4.81391 98.6562 6.01252C101.411 6.70117 103.991 7.95854 106.23 9.70374C107.343 10.5699 108.258 11.6651 108.911 12.9153C109.564 14.1654 109.942 15.5414 110.017 16.9499C110.68 15.6985 111.675 14.6547 112.894 13.9336C114.113 13.2125 115.507 12.8422 116.923 12.8637C114.999 13.747 113.43 15.254 112.469 17.1406C113.696 17.4149 114.787 18.1145 115.548 19.1156C116.307 20.1029 117.228 20.9549 118.272 21.6354C118.834 21.9314 119.455 22.0989 120.09 22.1257C120.725 22.1524 121.358 22.0379 121.943 21.7903C122.528 21.5427 123.051 21.1682 123.474 20.6938C123.897 20.2195 124.209 19.6571 124.388 19.0475C124.478 19.8615 124.37 20.6852 124.074 21.4487C123.777 22.2122 123.301 22.893 122.685 23.4333C121.474 24.3087 120.075 24.8873 118.599 25.1223C120.438 26.4844 120.642 29.2085 120.302 31.524C119.961 33.8395 119.253 36.1686 119.852 38.416C120.451 40.6634 122.113 42.2571 122.576 44.3955C122.759 45.5811 122.646 46.7934 122.247 47.9246C121.847 49.0558 121.175 50.0707 120.288 50.8788C119.333 51.7914 118.239 52.5455 117.046 53.1126C116.083 53.5828 115.091 53.9923 114.076 54.3385H113.858C114.425 51.901 114.695 49.4039 114.662 46.9016C114.783 45.2356 114.299 43.5819 113.3 42.2434C112.603 41.5811 111.73 41.1337 110.785 40.9549C109.841 40.7762 108.864 40.8736 107.974 41.2355C107.136 41.5501 106.371 42.0325 105.727 42.6533C105.082 43.274 104.572 44.0199 104.226 44.8452C103.88 45.6705 103.707 46.5577 103.717 47.4524C103.726 48.3471 103.919 49.2304 104.282 50.048L104.391 49.8165Z" fill="#1D1D1B"/>
<path d="M55.1878 77.33C56.2058 74.1822 57.7587 71.2333 59.7784 68.6128H60.0509C60.1722 69.6577 60.4912 70.67 60.9908 71.5957C61.9311 73.3103 63.3087 74.7454 64.9836 75.755C66.6584 76.7646 68.5708 77.3126 70.5262 77.3436L71.6296 77.7114C71.4875 78.1839 71.4186 78.6754 71.4253 79.1688C71.3798 79.6194 71.451 80.0742 71.632 80.4894C71.813 80.9047 72.0977 81.2664 72.4588 81.5399C72.8199 81.8134 73.2452 81.9895 73.694 82.0514C74.1427 82.1132 74.5999 82.0586 75.0215 81.8929C75.7888 81.6381 76.5142 81.2709 77.1737 80.8033L77.5824 81.4026L81.1241 88.4036C81.5971 89.5344 82.3243 90.5411 83.2492 91.3456C83.938 91.7713 84.7042 92.0567 85.5037 92.1853C86.3032 92.3138 87.1203 92.283 87.9079 92.0947C91.4454 91.427 94.6687 89.6243 97.0891 86.9598L97.4024 87.2594C97.4659 87.958 97.6772 88.635 98.0225 89.2456C98.3677 89.8561 98.839 90.3863 99.4048 90.8008C100.533 91.6233 101.595 92.5342 102.579 93.5249C104.527 95.8268 104.731 99.4363 107.156 101.234H107.633C107.876 102.092 108.026 102.973 108.082 103.863C108.232 107.459 106.039 111.095 107.238 114.487L107.714 114.705C107.254 115.186 106.86 115.727 106.543 116.312L106.243 116.135C105.731 115.727 105.127 115.45 104.484 115.329C103.84 115.208 103.177 115.246 102.552 115.441C101.926 115.636 101.359 115.981 100.898 116.447C100.437 116.912 100.098 117.483 99.9089 118.11C99.7999 118.395 99.7999 118.71 99.9089 118.995C100.06 119.26 100.295 119.466 100.576 119.581L106.461 122.877L106.148 123.436C104.595 123.518 103.042 123.572 101.475 123.599V122.537C93.6078 118.369 86.7097 112.585 81.2331 105.566L77.7322 106.832C75.3926 105.402 73.1821 103.77 71.1256 101.956C64.9093 96.502 60.2156 89.5278 57.5036 81.7158L54.207 81.3209C54.6838 80.0269 54.8473 78.6512 55.1878 77.33Z" fill="#3773FF"/>
<path d="M81.9118 117.879C76.2488 116.581 70.8372 114.363 65.8923 111.314C65.4972 111.096 65.1158 110.851 64.7344 110.605L62.4595 110.714C61.8443 106.727 59.9288 103.054 57.0107 100.267C53.8936 97.3474 50.3179 94.9592 46.4264 93.1983L43.9336 91.9725C44.1161 90.5592 44.5111 89.1816 45.1051 87.8863C45.3997 87.2457 45.8321 86.678 46.3713 86.2236C46.9105 85.7692 47.5432 85.4394 48.2245 85.2575C49.11 85.0804 50.0362 85.2575 50.9489 85.0259C51.694 84.7852 52.3701 84.3688 52.9202 83.8117C53.4703 83.2545 53.8781 82.5731 54.1092 81.8251C54.1773 81.648 54.2455 81.4573 54.2999 81.2666L57.5965 81.6617C60.3085 89.4736 65.0022 96.4478 71.2185 101.902L67.9764 103.264L70.4829 104.858L68.8346 108.249L82.0344 117.62L81.9118 117.879Z" fill="#3773FF"/>
<path d="M177.063 66.651C177.277 66.9844 177.39 67.372 177.39 67.7679C177.39 68.1639 177.277 68.5515 177.063 68.8848L174.23 70.6282C168.504 78.2756 163.945 86.731 160.703 95.7175L156.875 96.3712C153.717 90.1772 152 83.3491 151.854 76.398C151.708 69.4468 153.136 62.5526 156.031 56.2312L156.358 54.0383C160.336 54.5318 164.209 55.6633 167.827 57.389C171.124 59.0371 174.352 61.7885 174.938 65.8475C175.332 65.7597 175.743 65.789 176.121 65.9318C176.498 66.0745 176.826 66.3246 177.063 66.651Z" fill="#3773FF"/>
<path d="M148.853 116.762L148.962 117.225C146.935 117.767 144.849 118.06 142.75 118.097V118.165C140.598 116.839 138.5 115.45 136.457 113.997L136.702 113.657C140.457 113.675 144.173 112.89 147.6 111.355V111.205C148.474 112.924 148.905 114.834 148.853 116.762Z" fill="#3773FF"/>
<path d="M147.477 111.204V111.354C144.05 112.889 140.335 113.674 136.58 113.656L136.334 113.996C135.476 113.397 134.645 112.784 133.814 112.158L132.711 111.3L132.915 111.041C137.593 111.059 142.226 110.133 146.537 108.317C146.891 109.297 147.191 110.251 147.477 111.204Z" fill="#3773FF"/>
<path d="M132.359 89.8612L130.139 86.7965C129.086 85.127 127.693 83.6977 126.052 82.6014C124.83 81.974 123.475 81.6467 122.102 81.6467C120.728 81.6467 119.373 81.974 118.151 82.6014C115.704 83.8692 113.653 85.7874 112.226 88.145L109.297 87.2052C110.659 84.9306 112.185 82.7785 113.383 80.3949C115.356 76.6191 116.464 72.4516 116.627 68.1945C116.789 63.9375 116.003 59.6977 114.323 55.7824L113.452 55.5508C113.601 55.0605 113.724 54.5702 113.833 54.0662H114.051C115.065 53.72 116.057 53.3105 117.021 52.8403L117.198 53.1808C117.538 53.5895 117.879 54.0118 118.206 54.434C126.283 64.6074 131.203 76.9233 132.359 89.8612Z" fill="#3773FF"/>
<path d="M46.0601 95.336C51.1012 98.9112 54.6695 104.198 56.0996 110.21C52.1462 105.815 48.4745 101.175 45.1066 96.3167C44.8614 95.9762 44.6162 95.4722 44.9023 95.1726C45.1883 94.8729 45.7196 95.0908 46.0601 95.336Z" fill="#3773FF"/>
<path d="M33.5542 102.583C34.031 103.727 34.4941 104.871 34.9164 106.015L34.426 106.601C32.4463 104.921 30.3939 103.345 28.2689 101.874L28.3642 101.738C25.6398 95.736 22.8791 89.7293 20.082 83.7181L20.3409 83.5954C20.3892 83.2876 20.5197 82.9986 20.7187 82.7589C20.9177 82.5191 21.1778 82.3376 21.4715 82.2334C22.5539 81.709 23.7942 81.6117 24.9451 81.961L25.0949 81.8929C27.4833 87.7679 29.8717 93.6429 32.2601 99.518C32.7369 100.512 33.1592 101.547 33.5542 102.583Z" fill="#D1D0D1"/>
<path d="M22.8362 76.1585C23.6127 78.0518 24.3755 79.9451 25.152 81.852L25.0021 81.9201C23.8512 81.5708 22.6109 81.6681 21.5285 82.1925C21.2348 82.2967 20.9748 82.4782 20.7758 82.7179C20.5768 82.9577 20.4462 83.2468 20.3979 83.5546L20.1391 83.6771C19.2945 81.8247 18.4363 79.9587 17.5781 78.1063C17.6292 77.5776 17.8151 77.0708 18.118 76.6344C18.4209 76.198 18.8306 75.8466 19.3081 75.6137C19.8887 75.3676 20.5264 75.2882 21.1497 75.3845C21.7729 75.4807 22.3569 75.7487 22.8362 76.1585Z" fill="#D1D0D1"/>
<path d="M39.5781 129.96C40.4719 129.218 41.5586 128.745 42.7112 128.598" stroke="#1D1D1B" stroke-linecap="round" stroke-linejoin="round"/>
<path d="M100.699 83.541C101.567 84.3328 102.561 84.9728 103.642 85.4342" stroke="#1D1D1B" stroke-linecap="round" stroke-linejoin="round"/>
<path d="M51.2647 28.5818C50.4418 29.12 49.4866 29.4213 48.5038 29.4526C47.521 29.4838 46.5486 29.2438 45.6933 28.7588C44.8497 28.2537 44.1287 27.5679 43.5822 26.7506C43.0357 25.9333 42.6774 25.005 42.533 24.0325C42.2802 22.0251 42.6968 19.9904 43.7181 18.2437C43.7097 18.8485 43.8729 19.4433 44.1887 19.9592C44.5045 20.4751 44.9601 20.8909 45.5026 21.1585C46.5984 21.6702 47.8201 21.8501 49.017 21.6761C53.3488 21.2266 57.0132 18.4208 60.4459 15.7512C63.8786 13.0815 67.5838 10.3029 71.9156 9.94876C70.4362 10.1366 68.9335 9.98926 67.5187 9.51771C66.1039 9.04616 64.8133 8.26245 63.7424 7.22463C66.3442 8.42325 69.3819 7.74221 72.1336 6.96584C74.8852 6.18946 77.8276 5.34503 80.552 6.24399C81.8467 4.6629 83.4646 3.37699 85.2971 2.47255C87.1297 1.5681 89.1346 1.06598 91.1772 1C89.212 2.31263 87.5608 4.04277 86.3413 6.06691C90.101 4.17365 94.6235 4.70486 98.6011 5.90347C101.356 6.59212 103.936 7.84941 106.175 9.59461C107.288 10.4608 108.203 11.5561 108.856 12.8062C109.509 14.0564 109.887 15.4322 109.962 16.8408C110.625 15.5894 111.62 14.5455 112.839 13.8244C114.058 13.1034 115.452 12.7331 116.868 12.7546C114.944 13.6379 113.375 15.1449 112.414 17.0315C113.641 17.3058 114.732 18.0054 115.492 19.0065C116.252 19.9939 117.173 20.8458 118.217 21.5263C118.779 21.8223 119.4 21.9897 120.035 22.0165C120.67 22.0433 121.303 21.9288 121.888 21.6812C122.473 21.4335 122.996 21.059 123.419 20.5847C123.842 20.1104 124.154 19.5481 124.333 18.9384C124.423 19.7525 124.315 20.5762 124.018 21.3396C123.722 22.1031 123.246 22.7839 122.63 23.3242C121.419 24.1996 120.02 24.7781 118.544 25.0132C120.383 26.3752 120.587 29.0994 120.247 31.4149C119.906 33.7304 119.198 36.0595 119.797 38.3069C120.396 40.5543 122.058 42.1479 122.521 44.2864C122.704 45.4719 122.591 46.6843 122.192 47.8155C121.792 48.9467 121.119 49.9616 120.233 50.7698C119.278 51.6823 118.184 52.4364 116.991 53.0035C116.028 53.4737 115.036 53.8832 114.021 54.2294" stroke="#1D1D1B" stroke-linecap="round" stroke-linejoin="round"/>
<path d="M104.39 49.8165C104.027 48.9989 103.834 48.1156 103.825 47.2209C103.815 46.3262 103.988 45.439 104.334 44.6137C104.68 43.7884 105.19 43.0424 105.835 42.4217C106.479 41.8009 107.244 41.3185 108.082 41.0039C108.972 40.642 109.949 40.5447 110.893 40.7234C111.838 40.9022 112.711 41.3496 113.408 42.0119C114.407 43.3504 114.891 45.0041 114.77 46.6701C114.803 49.1724 114.533 51.6695 113.966 54.1069C113.857 54.6109 113.735 55.1013 113.585 55.5916C113.435 56.082 113.244 56.7358 113.054 57.3078C112.681 58.6403 111.973 59.8548 110.997 60.8355C110.497 61.313 109.861 61.6223 109.177 61.72C108.493 61.8177 107.796 61.699 107.183 61.3804" stroke="#1D1D1B" stroke-linecap="round" stroke-linejoin="round"/>
<path d="M51.6078 28.2827C51.6078 28.4053 51.4988 28.5143 51.4579 28.6369C50.2385 31.4978 49.7067 34.6046 49.905 37.7082C50.0413 39.7921 50.4499 42.0804 49.3193 43.8374C48.8639 44.5585 48.1881 45.1135 47.3921 45.42C46.5962 45.7264 45.7226 45.7681 44.9012 45.5387C44.0797 45.3092 43.3541 44.821 42.8323 44.1464C42.3104 43.4719 42.02 42.647 42.0043 41.7943C41.5916 44.1156 41.5456 46.4872 41.868 48.8226C42.0389 49.988 42.446 51.1061 43.0644 52.1085C43.6828 53.1109 44.4994 53.9765 45.4643 54.6522C46.4226 55.2107 47.4864 55.5644 48.5883 55.691C49.6903 55.8176 50.8066 55.7143 51.8666 55.3877C53.9884 54.7125 55.9206 53.5458 57.5061 51.9825C54.9079 55.5308 53.5702 59.8455 53.7056 64.2411C54.9515 60.7574 56.9624 57.5972 59.5903 54.9927C61.2113 53.2629 62.9686 51.6421 64.7122 50.0621C64.6227 50.9487 64.7202 51.8442 64.9982 52.6908C65.3039 53.6619 65.82 54.5536 66.51 55.3023C67.1999 56.051 68.0465 56.6383 68.9895 57.0222C67.7005 54.0067 67.4936 50.6384 68.4037 47.4878C68.2811 49.7352 70.052 51.6693 72.0136 52.7726C73.5627 53.6317 75.2752 54.1558 77.0399 54.3106C78.8046 54.4655 80.5822 54.2478 82.2573 53.6716C79.7604 52.7317 77.6664 50.9555 76.3317 48.6456C75.6833 47.4878 75.3004 46.2004 75.2109 44.8764C75.1213 43.5525 75.3274 42.2253 75.8141 40.9908C76.33 39.7689 77.1672 38.7095 78.237 37.9253C79.3067 37.1411 80.5689 36.6612 81.8895 36.5368C84.2189 36.4006 86.7662 37.4358 88.8095 36.5368C89.0193 36.4419 89.2199 36.3279 89.4089 36.1963" stroke="#1D1D1B" stroke-linecap="round" stroke-linejoin="round"/>
<path d="M90.318 36.7542C89.6084 38.3742 89.1977 40.1093 89.1056 41.8755C89.0609 42.7582 89.2054 43.6402 89.5297 44.4625C89.8539 45.2847 90.3503 46.0281 90.9854 46.6427C91.8564 47.3206 92.873 47.7869 93.955 48.0048C95.3906 48.2616 96.8097 48.6027 98.2051 49.0263C99.3618 49.4696 100.407 50.1618 101.266 51.0539C102.125 51.946 102.778 53.0161 103.177 54.1885C103.717 53.5945 104.12 52.8884 104.355 52.1208C104.591 51.3532 104.654 50.543 104.539 49.7483C104.539 49.7483 104.539 49.7483 104.539 49.6666" stroke="#1D1D1B" stroke-linecap="round" stroke-linejoin="round"/>
<path d="M59.6015 55.1287C59.5471 56.6347 60.0739 58.104 61.073 59.2323C62.0721 60.3606 63.4669 61.0615 64.9686 61.1899" stroke="#1D1D1B" stroke-linecap="round" stroke-linejoin="round"/>
<path d="M64.0693 52.7715C63.7181 55.5975 64.0931 58.4665 65.159 61.1073C65.159 61.298 65.3089 61.4887 65.3906 61.6658" stroke="#1D1D1B" stroke-linecap="round" stroke-linejoin="round"/>
<path d="M66.9141 63.968C67.6867 68.0055 69.3479 71.8205 71.7771 75.1369" stroke="#1D1D1B" stroke-linecap="round" stroke-linejoin="round"/>
<path d="M76.0591 69.0354C74.6719 71.0244 73.4942 73.1515 72.5446 75.3827C72.4084 75.6959 72.2722 76.0091 72.1496 76.336C71.9683 76.7805 71.8137 77.2353 71.6864 77.6981C71.5443 78.1706 71.4754 78.6621 71.4821 79.1555C71.4366 79.6062 71.5079 80.0609 71.6889 80.4762C71.8698 80.8914 72.1545 81.2531 72.5156 81.5266C72.8767 81.8002 73.302 81.9764 73.7508 82.0382C74.1996 82.1 74.6567 82.0454 75.0783 81.8796C75.8457 81.6249 76.571 81.2577 77.2306 80.79C77.8027 80.4222 78.3748 80.0272 78.9333 79.6458C80.5952 78.4881 82.2162 77.2623 83.7691 75.9683" stroke="#1D1D1B" stroke-linecap="round" stroke-linejoin="round"/>
<path d="M77.6367 81.348L81.1784 88.349C81.6515 89.4798 82.3786 90.4866 83.3035 91.2911C83.9923 91.7168 84.7585 92.0021 85.558 92.1307C86.3576 92.2592 87.1746 92.2285 87.9622 92.0402C91.4997 91.3725 94.723 89.5697 97.1434 86.9052C98.4085 85.5992 99.5108 84.1448 100.426 82.5739C100.767 82.0018 101.08 81.4025 101.38 80.8032C103.337 76.5049 104.804 71.9999 105.753 67.3733C106.202 65.4936 106.665 63.6003 107.115 61.7207" stroke="#1D1D1B" stroke-linecap="round" stroke-linejoin="round"/>
<path d="M59.782 68.6128C57.7624 71.2333 56.2094 74.1822 55.1914 77.33C54.8509 78.6921 54.6874 80.0541 54.2788 81.3209C54.2788 81.5115 54.1562 81.7022 54.088 81.8793C53.8569 82.6273 53.4491 83.3087 52.899 83.8658C52.349 84.423 51.6728 84.8395 50.9277 85.0802C50.0559 85.2845 49.1296 85.0801 48.2033 85.3117C47.5221 85.4936 46.8893 85.8234 46.3501 86.2778C45.8109 86.7322 45.3786 87.2999 45.0839 87.9405C44.4899 89.2358 44.0949 90.6134 43.9124 92.0266C43.526 91.8165 43.0858 91.7259 42.6478 91.7663C42.2098 91.8067 41.7936 91.9763 41.4522 92.2536C41.1107 92.5308 40.8592 92.9033 40.7298 93.3236C40.6003 93.7439 40.5986 94.1933 40.7249 94.6146C39.5273 94.7371 38.3763 95.1433 37.3671 95.7994C36.3579 96.4555 35.5197 97.3427 34.9219 98.3874" stroke="#1D1D1B" stroke-linecap="round" stroke-linejoin="round"/>
<path d="M39.4539 101.152L38.8546 100.676C37.643 99.8256 36.2383 99.2919 34.768 99.1228C34.2696 99.0753 33.7679 99.0753 33.2695 99.1228" stroke="#1D1D1B" stroke-linecap="round" stroke-linejoin="round"/>
<path d="M57.5742 81.7156C60.2862 89.5276 64.98 96.5017 71.1962 101.956C73.2527 103.77 75.4633 105.401 77.8029 106.832" stroke="#1D1D1B" stroke-linecap="round" stroke-linejoin="round"/>
<path d="M52.8594 89.248C54.8706 92.6785 57.5038 95.704 60.6239 98.1695C62.9515 100.023 65.3799 101.747 67.8981 103.332L70.4045 104.925" stroke="#1D1D1B" stroke-linecap="round" stroke-linejoin="round"/>
<path d="M46.4453 93.1978C50.3368 94.9587 53.9125 97.3468 57.0296 100.267C59.9477 103.054 61.8632 106.726 62.4784 110.714C62.4784 110.986 62.4784 111.245 62.4784 111.518" stroke="#1D1D1B" stroke-linecap="round" stroke-linejoin="round"/>
<path d="M56.1013 110.21C54.6712 104.198 51.1029 98.9113 46.0619 95.3362C45.7213 95.091 45.2037 94.8595 44.904 95.1728C44.6043 95.486 44.904 95.9764 45.1083 96.3169C48.4763 101.175 52.1479 105.815 56.1013 110.21Z" stroke="#1D1D1B" stroke-linecap="round" stroke-linejoin="round"/>
<path d="M42.4375 99.8311C47.6627 104.149 51.4065 109.992 53.1444 116.544" stroke="#1D1D1B" stroke-linecap="round" stroke-linejoin="round"/>
<path d="M45.0391 126.76C46.4013 126.215 47.4229 124.662 48.935 124.035C49.5741 123.742 50.1851 123.391 50.7603 122.987L52.2723 122.006C52.7903 121.731 53.2522 121.361 53.6345 120.916C53.8103 120.695 53.9232 120.43 53.9615 120.149C53.9999 119.869 53.9622 119.584 53.8525 119.323C54.5039 119.559 55.2058 119.622 55.8889 119.505C56.572 119.388 57.2129 119.095 57.7484 118.655C58.2466 118.344 58.6367 117.886 58.8658 117.345C59.0949 116.804 59.1518 116.206 59.0289 115.632" stroke="#1D1D1B" stroke-linecap="round" stroke-linejoin="round"/>
<path d="M43.7734 126.895C44.1971 126.958 44.63 126.907 45.0267 126.745" stroke="#1D1D1B" stroke-linecap="round" stroke-linejoin="round"/>
<path d="M163.676 103.604C163.748 105.63 164.163 107.629 164.902 109.516" stroke="#1D1D1B" stroke-linecap="round" stroke-linejoin="round"/>
<path d="M56.9844 115.168C57.6271 115.32 58.2854 115.398 58.9459 115.399C60.3118 115.379 61.6508 115.017 62.8407 114.346C64.0305 113.675 65.0331 112.717 65.757 111.558" stroke="#1D1D1B" stroke-linecap="round" stroke-linejoin="round"/>
<path d="M64.7383 110.605C65.1197 110.85 65.5011 111.096 65.8962 111.313C70.841 114.363 76.2527 116.581 81.9156 117.879L82.7466 118.056" stroke="#1D1D1B" stroke-linecap="round" stroke-linejoin="round"/>
<path d="M68.7539 108.317L81.9536 117.688" stroke="#1D1D1B" stroke-linecap="round" stroke-linejoin="round"/>
<path d="M78.6992 111.504C80.1704 113.601 81.6325 115.708 83.0855 117.824C84.1889 119.39 85.2786 120.97 86.3684 122.55" stroke="#1D1D1B" stroke-linecap="round" stroke-linejoin="round"/>
<path d="M77.707 100.553C78.8104 102.283 79.9955 103.945 81.2488 105.566C86.7403 112.563 93.6474 118.323 101.518 122.469" stroke="#1D1D1B" stroke-linecap="round" stroke-linejoin="round"/>
<path d="M86.4609 92.2715C86.915 96.4122 87.5416 100.526 88.3408 104.612C88.2819 102.665 88.5067 100.719 89.0083 98.8366C89.5299 96.9425 90.733 95.3078 92.3865 94.2465C93.5388 93.6022 94.8651 93.3383 96.1763 93.4924C97.4875 93.6465 98.7165 94.2107 99.6879 95.1046C100.821 96.4347 101.74 97.9327 102.412 99.5449C103.112 101.178 104.422 102.473 106.063 103.154" stroke="#1D1D1B" stroke-linecap="round" stroke-linejoin="round"/>
<path d="M97.457 87.2593C97.5205 87.9578 97.7319 88.6348 98.0771 89.2454C98.4224 89.856 98.8936 90.3861 99.4595 90.8006C100.588 91.6231 101.649 92.5341 102.633 93.5247C104.581 95.8266 104.786 99.4361 107.21 101.234" stroke="#1D1D1B" stroke-linecap="round" stroke-linejoin="round"/>
<path d="M107.291 114.419C106.093 111.027 108.286 107.391 108.136 103.795C108.08 102.905 107.93 102.024 107.686 101.166C107.234 99.7444 106.884 98.2924 106.637 96.8211C106.465 93.7851 107.22 90.7684 108.803 88.172C108.98 87.8451 109.171 87.5182 109.362 87.1913C110.724 84.9167 112.25 82.7646 113.448 80.381C115.421 76.6052 116.529 72.4377 116.692 68.1807C116.854 63.9236 116.068 59.6838 114.388 55.7686" stroke="#1D1D1B" stroke-linecap="round" stroke-linejoin="round"/>
<path d="M112.293 88.1312C113.721 85.7735 115.771 83.8553 118.219 82.5876C119.441 81.9602 120.795 81.633 122.169 81.633C123.543 81.633 124.897 81.9602 126.119 82.5876C127.761 83.6839 129.153 85.1133 130.206 86.7828L132.426 89.8474C131.258 76.9676 126.358 64.708 118.328 54.57C118.001 54.1477 117.66 53.7255 117.319 53.3169" stroke="#1D1D1B" stroke-linecap="round" stroke-linejoin="round"/>
<path d="M118.434 54.4472C128.329 53.2378 138.308 52.8642 148.266 53.3304C150.99 53.453 153.715 53.6572 156.439 54.0386C160.417 54.5321 164.29 55.6635 167.909 57.3893C171.205 59.0374 174.434 61.7888 175.019 65.8477C175.407 65.76 175.812 65.7897 176.183 65.9331C176.554 66.0765 176.874 66.3271 177.102 66.6529C177.33 66.9787 177.456 67.365 177.463 67.7626C177.471 68.1601 177.36 68.5509 177.144 68.8851C177.773 68.5615 178.496 68.4715 179.184 68.6311C179.873 68.7908 180.482 69.1898 180.904 69.7569C181.496 70.9018 181.751 72.1912 181.64 73.4753C181.651 73.8038 181.683 74.1313 181.735 74.4559C181.771 74.9351 181.911 75.4006 182.147 75.8195C182.382 76.2385 182.707 76.6006 183.097 76.8804" stroke="#1D1D1B" stroke-linecap="round" stroke-linejoin="round"/>
<path d="M181.887 74.4286C183.464 74.2752 185.055 74.3763 186.6 74.7282C187.374 74.9044 188.094 75.2618 188.703 75.7709C189.312 76.28 189.791 76.9263 190.101 77.6566C190.373 78.4194 190.4 79.2502 190.646 80.0266C190.734 80.4221 190.931 80.785 191.215 81.0739C191.5 81.3629 191.859 81.5663 192.253 81.6611C192.73 81.6611 193.22 81.5112 193.711 81.5385C194.156 81.606 194.568 81.8144 194.887 82.133C195.206 82.4516 195.414 82.8637 195.481 83.3091C195.606 84.2241 195.522 85.1552 195.236 86.0333C196.277 86.1546 197.25 86.6108 198.009 87.333C198.769 88.0552 199.272 89.0044 199.445 90.0377C199.524 90.4884 199.524 90.9491 199.445 91.3998" stroke="#1D1D1B" stroke-linecap="round" stroke-linejoin="round"/>
<path d="M201.609 93.0479C200.065 91.9694 198.183 91.4857 196.31 91.6858C194.451 91.8861 192.621 92.3067 190.861 92.9389L180.876 96.1125C177.662 97.1204 174.27 98.2646 172.172 100.893" stroke="#1D1D1B" stroke-linecap="round" stroke-linejoin="round"/>
<path d="M174.269 70.6287C168.543 78.276 163.984 86.7314 160.742 95.7179" stroke="#1D1D1B" stroke-linecap="round" stroke-linejoin="round"/>
<path d="M140.559 70.915C141.208 76.3188 143.071 81.5059 146.007 86.0884C148.927 90.648 152.261 94.9293 155.965 98.8782" stroke="#1D1D1B" stroke-linecap="round" stroke-linejoin="round"/>
<path d="M143.172 95.1045C147.277 99.3573 152.639 102.179 158.469 103.154" stroke="#1D1D1B" stroke-linecap="round" stroke-linejoin="round"/>
<path d="M151.621 112.322C154.563 111.151 159.045 107.691 161.511 105.675" stroke="#1D1D1B" stroke-linecap="round" stroke-linejoin="round"/>
<path d="M156.074 56.2312C153.179 62.5526 151.751 69.4468 151.897 76.3979C152.043 83.3491 153.76 90.1772 156.918 96.3712C157.327 97.1884 157.776 98.0056 158.28 98.7956" stroke="#1D1D1B" stroke-linecap="round" stroke-linejoin="round"/>
<path d="M159.672 100.88C159.972 102.011 160.394 103.291 161.484 103.713C162.203 103.929 162.978 103.86 163.649 103.523L164.331 103.223L166.279 102.324C166.623 102.144 166.989 102.011 167.368 101.929C167.481 101.915 167.596 101.915 167.709 101.929C167.961 101.917 168.211 101.982 168.425 102.116C168.64 102.25 168.808 102.446 168.908 102.678" stroke="#1D1D1B" stroke-linecap="round" stroke-linejoin="round"/>
<path d="M167.38 101.997C167.172 102.393 167.051 102.828 167.025 103.275C166.999 103.721 167.069 104.168 167.23 104.585C167.731 105.565 168.466 106.407 169.369 107.036L171.344 103.304" stroke="#1D1D1B" stroke-linecap="round" stroke-linejoin="round"/>
<path d="M163.781 99.3407C165.216 97.7608 166.687 96.2126 168.195 94.6962C173.468 89.3489 179.122 84.3916 185.113 79.8633" stroke="#1D1D1B" stroke-linecap="round" stroke-linejoin="round"/>
<path d="M170.242 96.6847C176.019 90.7755 183.897 87.3877 192.16 87.2593" stroke="#1D1D1B" stroke-linecap="round" stroke-linejoin="round"/>
<path d="M176.262 102.473C178.151 102.062 180.068 101.784 181.997 101.643C184.609 101.432 187.239 101.634 189.788 102.242C192.016 102.737 194.109 103.712 195.923 105.097C197.737 106.482 199.227 108.246 200.291 110.264C201.739 113.828 202.057 117.751 201.204 121.501C201.122 121.978 201.027 122.455 200.931 122.864" stroke="#1D1D1B" stroke-linecap="round" stroke-linejoin="round"/>
<path d="M196.379 123.041C196.915 123.963 197.737 124.685 198.72 125.098C199.703 125.511 200.794 125.592 201.828 125.329C203.88 124.775 205.784 123.77 207.399 122.387C209.41 121.098 211.154 119.433 212.535 117.484C214.741 113.847 214.169 109.134 212.684 105.143C211.405 101.984 209.865 98.9356 208.08 96.0312C207.264 94.4346 206.213 92.9698 204.961 91.6862C204.329 91.0492 203.564 90.5592 202.721 90.2509C201.878 89.9425 200.978 89.8233 200.084 89.9019" stroke="#1D1D1B" stroke-linecap="round" stroke-linejoin="round"/>
<path d="M142.75 118.096C144.848 118.059 146.934 117.767 148.962 117.224C153.818 115.816 158.457 113.744 162.747 111.068L165.049 109.706C166.507 108.861 167.964 107.99 169.436 107.159C173.357 104.812 177.59 103.028 182.009 101.86" stroke="#1D1D1B" stroke-linecap="round" stroke-linejoin="round"/>
<path d="M144.727 119.363L142.711 118.164C140.559 116.839 138.461 115.449 136.418 113.996C135.56 113.397 134.729 112.784 133.898 112.158L132.794 111.3C132.031 110.728 131.282 110.128 130.533 109.515C129.784 108.902 128.817 108.153 127.958 107.418C126.536 106.238 124.987 105.219 123.341 104.38C122.165 103.695 120.791 103.43 119.445 103.631C118.089 104.088 116.892 104.925 115.998 106.042L108.479 113.887C108.247 114.133 108.002 114.378 107.784 114.637C107.324 115.118 106.93 115.658 106.613 116.244C106.461 116.553 106.342 116.877 106.259 117.211C106.064 117.851 106.12 118.541 106.416 119.14C106.712 119.74 107.226 120.205 107.852 120.439" stroke="#1D1D1B" stroke-linecap="round" stroke-linejoin="round"/>
<path d="M117.632 109.284L108.86 119.145C108.478 119.567 108.136 120.023 107.838 120.507C107.683 120.745 107.559 121.001 107.47 121.27C107.296 121.782 107.249 122.329 107.334 122.864C107.493 123.82 107.934 124.707 108.601 125.411C109.682 126.456 110.941 127.3 112.32 127.903" stroke="#1D1D1B" stroke-linecap="round" stroke-linejoin="round"/>
<path d="M122.89 113.887L114.717 123.327C113.939 124.088 113.351 125.021 113 126.051C112.864 126.587 112.864 127.149 113 127.685C113.268 128.872 113.943 129.927 114.908 130.668C116.354 131.682 117.982 132.408 119.703 132.807" stroke="#1D1D1B" stroke-linecap="round" stroke-linejoin="round"/>
<path d="M128.53 119.227L121.079 128.925C120.221 130.055 119.308 131.458 119.812 132.779C120.262 133.576 120.961 134.202 121.801 134.564L125.888 136.879C126.848 137.553 127.984 137.932 129.157 137.969C130.319 137.781 131.39 137.222 132.208 136.375C133.284 135.397 134.257 134.311 135.11 133.133C135.426 132.734 135.65 132.269 135.764 131.771C135.823 131.525 135.812 131.267 135.733 131.026C135.653 130.786 135.508 130.572 135.314 130.409" stroke="#1D1D1B" stroke-linecap="round" stroke-linejoin="round"/>
<path d="M138.446 123.272C137.311 124.417 135.905 125.256 134.359 125.71H134.277" stroke="#1D1D1B" stroke-linecap="round" stroke-linejoin="round"/>
<path d="M136.525 122.305C135.858 123.463 135.163 124.593 134.387 125.71C133.61 126.827 133.024 127.672 132.316 128.612C130.964 130.411 129.509 132.13 127.957 133.76" stroke="#1D1D1B" stroke-linecap="round" stroke-linejoin="round"/>
<path d="M130.695 131.513C130.849 131.456 131.017 131.451 131.174 131.498C131.331 131.544 131.469 131.64 131.567 131.771C131.758 132.044 131.744 132.439 130.695 131.513Z" stroke="#1D1D1B" stroke-linecap="round" stroke-linejoin="round"/>
<path d="M132.359 114.16C131.482 114.324 130.664 114.712 129.983 115.288C129.302 115.863 128.783 116.606 128.477 117.443" stroke="#1D1D1B" stroke-linecap="round" stroke-linejoin="round"/>
<path d="M126.813 109.229C126.068 109.394 125.368 109.725 124.767 110.197C124.166 110.668 123.678 111.268 123.34 111.953" stroke="#1D1D1B" stroke-linecap="round" stroke-linejoin="round"/>
<path d="M122.263 105.729C121.653 105.731 121.056 105.904 120.541 106.229C120.025 106.555 119.611 107.019 119.348 107.568" stroke="#1D1D1B" stroke-linecap="round" stroke-linejoin="round"/>
<path d="M132.617 128.843C133.503 129.428 134.402 130.014 135.342 130.573C136.601 131.375 137.927 132.067 139.306 132.643C141.665 133.689 144.276 134.03 146.825 133.624C148.806 133.253 150.59 132.185 151.851 130.613C152.2 130.172 152.488 129.686 152.71 129.17" stroke="#1D1D1B" stroke-linecap="round" stroke-linejoin="round"/>
<path d="M201.109 121.475L196.328 122.837C192.042 123.954 187.737 124.975 183.414 125.901C173.039 128.117 162.547 129.745 151.988 130.778" stroke="#1D1D1B" stroke-linecap="round" stroke-linejoin="round"/>
<path d="M132.996 111.041C137.674 111.059 142.307 110.133 146.618 108.317C146.918 109.27 147.217 110.224 147.504 111.177V111.327C144.077 112.862 140.361 113.647 136.606 113.629" stroke="#1D1D1B" stroke-width="0.5" stroke-miterlimit="10"/>
<path d="M147.477 111.205C148.388 112.914 148.857 114.825 148.839 116.762" stroke="#1D1D1B" stroke-width="0.5" stroke-miterlimit="10"/>
<path d="M43.0938 126.963H43.7612L45.0145 126.813C52.8189 125.796 60.4407 123.682 67.6542 120.534C73.806 121.792 80.0294 122.67 86.2891 123.163C91.3429 123.558 96.4376 123.708 101.505 123.599C103.071 123.599 104.624 123.517 106.177 123.435" stroke="#1D1D1B" stroke-linecap="round" stroke-linejoin="round"/>
<path d="M106.295 116.067C105.783 115.659 105.179 115.382 104.536 115.261C103.892 115.14 103.229 115.178 102.603 115.373C101.978 115.568 101.41 115.913 100.95 116.379C100.489 116.844 100.149 117.415 99.9607 118.042C99.8517 118.327 99.8517 118.642 99.9607 118.927C100.111 119.192 100.346 119.398 100.628 119.513L106.513 122.809L106.676 122.905" stroke="#1D1D1B" stroke-linecap="round" stroke-linejoin="round"/>
<path d="M18.695 130.845H18.5724C12.6656 130.804 6.7781 130.165 1 128.938C17.2403 136.164 34.0303 142.085 51.2107 146.645C77.4668 153.651 104.467 157.492 131.635 158.086C152.749 146.645 174.34 136.103 196.367 126.296C192.059 125.933 187.732 125.842 183.412 126.023" stroke="#1D1D1B" stroke-linecap="round" stroke-linejoin="round"/>
<path d="M130.07 142.096L157.083 134.36" stroke="#1D1D1B" stroke-linecap="round" stroke-linejoin="round"/>
<path d="M113.641 145.569L139.032 144.575" stroke="#1D1D1B" stroke-linecap="round" stroke-linejoin="round"/>
<path d="M28.4213 101.738C25.6969 95.7359 22.9361 89.7293 20.1391 83.718C19.2945 81.8656 18.4363 79.9996 17.5781 78.1472C17.6292 77.6184 17.8151 77.1117 18.118 76.6753C18.4209 76.2389 18.8306 75.8874 19.3081 75.6546C19.8851 75.403 20.5206 75.3169 21.1437 75.4059C21.7668 75.4949 22.3528 75.7555 22.8362 76.1585C23.6127 78.0518 24.3755 79.9451 25.152 81.852C27.5404 87.727 29.9287 93.602 32.3171 99.477C32.7394 100.512 33.1617 101.547 33.5704 102.583C33.979 103.618 34.5103 104.871 34.9326 106.015" stroke="#1D1D1B" stroke-linecap="round" stroke-linejoin="round"/>
<path d="M15.8468 100.308C16.2483 101.271 16.4921 102.292 16.5688 103.332C16.5972 103.847 16.5048 104.361 16.2991 104.834C16.0933 105.307 15.7798 105.726 15.3837 106.056C14.3484 106.805 12.741 106.737 12.0191 107.799C11.7939 108.308 11.7031 108.865 11.7556 109.419C11.8081 109.972 12.002 110.503 12.3187 110.959C12.9658 111.873 13.2521 112.994 13.1224 114.106C12.7274 115.468 10.9838 116.176 10.725 117.579C10.3708 119.5 12.9317 120.78 13.1905 122.7C13.354 123.872 12.6184 125.07 12.959 126.187C13.2583 126.947 13.7929 127.592 14.4846 128.026C15.8468 128.993 17.209 129.933 18.5712 130.832C19.6065 131.527 20.6418 132.194 21.7043 132.834C22.3445 133.216 22.9848 133.597 23.6523 133.91C24.3176 134.219 25.0242 134.43 25.75 134.537C26.4831 134.656 27.235 134.554 27.9096 134.243C28.5842 133.932 29.1508 133.428 29.537 132.793" stroke="#1D1D1B" stroke-linecap="round" stroke-linejoin="round"/>
<path d="M16.5273 124.921L24.7005 129.647L25.1228 129.892L26.3897 130.628C27.4178 131.308 28.5368 131.84 29.7134 132.208C30.3118 132.372 30.9389 132.404 31.5507 132.301C32.1626 132.197 32.7444 131.961 33.2552 131.608C34.236 130.846 34.0044 127.904 33.2552 126.868" stroke="#1D1D1B" stroke-linecap="round" stroke-linejoin="round"/>
<path d="M17.6328 116.026C22.2991 120.366 27.5885 123.984 33.3254 126.759C34.6876 127.454 36.2132 128.121 37.698 128.694" stroke="#1D1D1B" stroke-linecap="round" stroke-linejoin="round"/>
<path d="M21.9531 109.325L31.3114 115.604" stroke="#1D1D1B" stroke-linecap="round" stroke-linejoin="round"/>
<path d="M26.4887 111.777C26.1754 111.177 25.8621 110.564 25.5352 109.965" stroke="#1D1D1B" stroke-linecap="round" stroke-linejoin="round"/>
<path d="M40.7641 119.717C40.6007 119.336 40.4372 118.955 40.2873 118.56C39.0604 115.575 38.1473 112.471 37.5629 109.298C36.5685 108.371 35.5469 107.472 34.5116 106.574C32.5319 104.894 30.4795 103.318 28.3545 101.847C25.8564 100.1 23.2594 98.4995 20.5763 97.0527C19.5655 97.1088 18.5888 97.4371 17.7494 98.003C16.9101 98.5689 16.2395 99.3512 15.8086 100.267" stroke="#1D1D1B" stroke-linecap="round" stroke-linejoin="round"/>
<path d="M21.5273 107.363C25.683 109.199 29.2887 112.086 31.9891 115.74C32.9373 119.513 34.8098 122.991 37.4379 125.86L37.7103 126.159C38.4751 126.307 39.2661 126.232 39.9902 125.945C40.7142 125.658 41.341 125.17 41.7969 124.539C42.0968 124.153 42.3484 123.732 42.5461 123.286C42.3282 122.836 42.0966 122.387 41.8923 121.923C41.5381 121.202 41.2112 120.466 40.8978 119.731" stroke="#1D1D1B" stroke-linecap="round" stroke-linejoin="round"/>
<path d="M40.3686 107.69C39.4394 110.045 39.026 112.572 39.1563 115.1" stroke="#1D1D1B" stroke-linecap="round" stroke-linejoin="round"/>
<path d="M40.7618 119.718C41.3476 120.44 43.2138 120.249 43.963 119.718C44.3453 119.462 44.6587 119.115 44.8757 118.71C45.117 118.285 45.2916 117.826 45.3933 117.348C45.6385 116.449 45.7475 115.523 46.0744 114.624C46.4013 113.725 47.0824 112.798 47.4366 111.804C47.7678 110.508 47.5924 109.134 46.9462 107.963L46.701 107.527C46.0665 106.557 45.2583 105.712 44.3172 105.035C42.6039 103.749 40.6188 102.873 38.5142 102.474C36.9812 102.159 35.4056 102.108 33.8555 102.324" stroke="#1D1D1B" stroke-linecap="round" stroke-linejoin="round"/>
<path d="M40.2735 118.587C39.6469 118.982 37.9033 119.813 37.2767 120.208C37.1763 120.236 37.0849 120.289 37.0114 120.362C36.9378 120.436 36.8847 120.527 36.8572 120.628C36.8298 120.728 36.8289 120.834 36.8546 120.934C36.8804 121.035 36.9319 121.127 37.0042 121.202L37.6717 122.333C37.8721 122.773 38.2056 123.14 38.6252 123.382C38.8476 123.465 39.086 123.495 39.3222 123.472C39.5583 123.448 39.7859 123.371 39.9874 123.245C40.404 122.983 40.7764 122.657 41.0908 122.278" stroke="#1D1D1B" stroke-width="0.5" stroke-linecap="round" stroke-linejoin="round"/>
<path d="M44.3085 118.301L42.2925 117.851C42.0464 117.832 41.8065 117.765 41.5868 117.653C41.367 117.54 41.1716 117.386 41.012 117.198C40.8297 116.826 40.7678 116.407 40.8349 115.999C40.8048 115.565 40.8642 115.129 41.0095 114.719C41.1548 114.309 41.3829 113.934 41.6795 113.615L42.4015 113.329C43.4504 113.738 44.4992 114.201 45.5073 114.691" stroke="#1D1D1B" stroke-width="0.5" stroke-linecap="round" stroke-linejoin="round"/>
<path d="M34.7409 108.903C33.4695 109.386 32.4054 110.296 31.7305 111.477" stroke="#1D1D1B" stroke-width="0.5" stroke-linecap="round" stroke-linejoin="round"/>
<path d="M33 112.308L34.9752 110.946" stroke="#1D1D1B" stroke-width="0.5" stroke-linecap="round" stroke-linejoin="round"/>
<path d="M29.663 117.32C28.8801 118.118 28.3986 119.163 28.3008 120.276" stroke="#1D1D1B" stroke-width="0.5" stroke-linecap="round" stroke-linejoin="round"/>
<path d="M30.3973 119.622L29.5664 121.556" stroke="#1D1D1B" stroke-width="0.5" stroke-linecap="round" stroke-linejoin="round"/>
<path d="M26.7455 125.07C26.1499 125.771 25.8389 126.67 25.8737 127.59" stroke="#1D1D1B" stroke-width="0.5" stroke-linecap="round" stroke-linejoin="round"/>
<path d="M24.4696 130.94C24.3742 131.553 24.2652 132.153 24.1562 132.752" stroke="#1D1D1B" stroke-width="0.5" stroke-linecap="round" stroke-linejoin="round"/>
<path d="M80.1055 81.2255C80.7294 81.3071 81.3614 81.3071 81.9853 81.2255C83.8789 81.0076 85.7215 80.4687 87.4341 79.632C89.667 78.4493 92.0706 77.6221 94.5584 77.1802C95.1052 77.0661 95.6721 77.0952 96.2044 77.2646C96.7366 77.4341 97.216 77.7381 97.5961 78.1473C97.8262 78.5223 97.9479 78.9536 97.9479 79.3935C97.9479 79.8335 97.8262 80.2649 97.5961 80.6399C97.1104 81.3852 96.4131 81.9685 95.5937 82.3152C91.6842 84.154 86.9029 82.5876 82.789 83.6772C82.422 83.7685 82.0623 83.8869 81.7129 84.0314" stroke="#1D1D1B" stroke-width="0.5" stroke-linecap="round" stroke-linejoin="round"/>
<path d="M81.9961 81.6472C82.3019 82.2581 82.5351 82.9026 82.6908 83.5677" stroke="#1D1D1B" stroke-width="0.5" stroke-linecap="round" stroke-linejoin="round"/>
<path d="M112.823 46.1524C112.82 45.6393 112.624 45.146 112.272 44.772C111.921 44.398 111.441 44.171 110.929 44.1365C110.413 44.1292 109.902 44.2497 109.443 44.4874C108.985 44.725 108.592 45.0724 108.3 45.4986C107.724 46.3509 107.339 47.3171 107.169 48.3316C106.924 49.4621 106.788 50.6199 106.488 51.7641C106.488 51.7641 106.488 51.7641 106.556 51.7641H106.679C107.619 51.4099 108.572 51.1103 109.54 50.8515C109.862 50.7425 110.212 50.7425 110.534 50.8515C110.776 50.9986 110.967 51.2175 111.079 51.478C111.416 52.3548 111.416 53.3253 111.079 54.2021C110.758 55.0822 110.298 55.9054 109.717 56.6403C109.457 57.0698 109.097 57.4297 108.668 57.689C108.452 57.8084 108.205 57.8569 107.96 57.8276C107.716 57.7982 107.487 57.6925 107.306 57.5256C106.87 57.0488 107.101 56.2725 107.428 55.7004C107.847 55.1944 108.048 54.5429 107.987 53.8889C107.925 53.6942 107.811 53.5201 107.657 53.3857C107.504 53.2512 107.316 53.1614 107.115 53.1261C106.994 53.0986 106.868 53.0986 106.747 53.1261" stroke="#1D1D1B" stroke-width="0.5" stroke-linecap="round" stroke-linejoin="round"/>
<path d="M110.465 44.6948C111.536 45.8579 112.192 47.3424 112.331 48.9172" stroke="#1D1D1B" stroke-width="0.5" stroke-linecap="round" stroke-linejoin="round"/>
<path d="M59.3002 136.525C59.0387 135.941 58.9255 135.3 58.9706 134.661C59.0158 134.022 59.2179 133.404 59.559 132.862C60.2494 131.792 61.1829 130.9 62.2834 130.26C64.7238 128.75 67.4873 127.839 70.3475 127.602C73.2077 127.365 76.0833 127.81 78.7388 128.898C80.1707 129.445 81.4472 130.333 82.4576 131.486C82.9596 132.064 83.3165 132.754 83.4989 133.498C83.6813 134.241 83.6839 135.018 83.5065 135.763C82.9355 137.26 81.815 138.482 80.3735 139.181C77.0804 141.086 73.2395 141.821 69.4758 141.265H69.2715C68.1681 141.088 66.9694 140.884 65.8115 140.598C65.0396 140.403 64.28 140.162 63.5367 139.876C62.263 139.43 61.1109 138.693 60.172 137.724C59.8305 137.364 59.5375 136.961 59.3002 136.525Z" stroke="#1D1D1B" stroke-width="0.5" stroke-linecap="round" stroke-linejoin="round"/>
<path d="M45.0974 136.294C44.6135 136.41 44.1529 136.608 43.7352 136.879C43.5118 137.027 43.3303 137.23 43.2086 137.469C43.0869 137.708 43.0289 137.974 43.0405 138.241C43.1222 139.195 44.2529 139.603 45.2064 139.753C49.8651 140.353 54.483 138.582 58.8284 136.852" stroke="#1D1D1B" stroke-width="0.5" stroke-linecap="round" stroke-linejoin="round"/>
<path d="M59.9845 137.955C56.8266 139.011 53.9357 140.74 51.5116 143.022C51.2918 143.173 51.1132 143.377 50.9919 143.615C50.8706 143.853 50.8104 144.117 50.8169 144.384C50.8639 144.579 50.9638 144.757 51.1056 144.899C51.2474 145.041 51.4256 145.141 51.6206 145.188C52.016 145.27 52.4239 145.27 52.8193 145.188C56.8288 144.681 60.5661 142.889 63.4717 140.08" stroke="#1D1D1B" stroke-width="0.5" stroke-linecap="round" stroke-linejoin="round"/>
<path d="M65.7871 140.788C64.2442 141.666 62.8956 142.847 61.8231 144.262C61.5337 144.561 61.3168 144.923 61.1893 145.32C61.0618 145.717 61.027 146.138 61.0875 146.55C61.2698 147 61.5955 147.378 62.0142 147.624C62.4329 147.87 62.9212 147.971 63.4033 147.912C64.1626 147.837 64.8967 147.598 65.5551 147.213C66.2135 146.827 66.7806 146.304 67.2174 145.678C68.089 144.422 68.7727 143.045 69.2471 141.592" stroke="#1D1D1B" stroke-width="0.5" stroke-linecap="round" stroke-linejoin="round"/>
<path d="M68.4426 133.719L68.3203 133.855" stroke="#1D1D1B" stroke-width="0.5" stroke-linecap="round" stroke-linejoin="round"/>
<path d="M68.3216 133.855C68.1445 134.073 67.6268 134.645 65.9922 136.294L68.3216 133.855Z" stroke="#1D1D1B" stroke-width="0.5" stroke-linecap="round" stroke-linejoin="round"/>
<path d="M72.4062 138.105C72.9985 137.376 73.7074 136.75 74.504 136.253" stroke="#1D1D1B" stroke-width="0.5" stroke-linecap="round" stroke-linejoin="round"/>
<path d="M70.2148 130.982C71.3829 130.405 72.6769 130.13 73.9786 130.182C75.2803 130.235 76.5481 130.613 77.6661 131.281C78.1062 131.608 78.4235 132.073 78.5668 132.602C78.7101 133.13 78.6712 133.692 78.4562 134.196" stroke="#1D1D1B" stroke-width="0.5" stroke-linecap="round" stroke-linejoin="round"/>
<path d="M19.7578 82.0019C19.9544 81.5965 20.2333 81.2366 20.5768 80.945C20.9203 80.6535 21.3208 80.4367 21.7527 80.3085C22.1846 80.1804 22.6385 80.1436 23.0855 80.2006C23.5324 80.2577 23.9625 80.4073 24.3484 80.6398" stroke="#1D1D1B" stroke-width="0.5" stroke-linecap="round" stroke-linejoin="round"/>
<path d="M20.3984 83.5954C20.4467 83.2876 20.5773 82.9986 20.7763 82.7589C20.9753 82.5191 21.2354 82.3376 21.5291 82.2334C22.6115 81.709 23.8518 81.6117 25.0027 81.961" stroke="#1D1D1B" stroke-width="0.5" stroke-linecap="round" stroke-linejoin="round"/>
<path d="M43.4609 134.1L44.0739 133.719" stroke="#1D1D1B" stroke-width="0.5" stroke-linecap="round" stroke-linejoin="round"/>
<path d="M65.1875 59.8545C66.9711 59.9508 68.6659 60.6633 69.9824 61.8703C71.2934 63.0783 72.9168 63.8947 74.6684 64.2267" stroke="#1D1D1B" stroke-width="0.5" stroke-linecap="round" stroke-linejoin="round"/>
<path d="M74.0979 59.2283C73.9769 59.4979 73.9247 59.7934 73.9461 60.0882C73.9675 60.383 74.0618 60.6679 74.2205 60.9172C74.5384 61.6238 75.0394 62.2326 75.6718 62.6805C76.3041 63.1283 77.0446 63.399 77.8167 63.4643" stroke="#1D1D1B" stroke-width="0.5" stroke-linecap="round" stroke-linejoin="round"/>
<path d="M77.1484 61.2304C78.0279 61.2358 78.8992 61.0623 79.7095 60.7204C80.5197 60.3786 81.252 59.8755 81.8617 59.2417L82.1341 58.9693C83.3056 57.8252 84.2728 56.4904 85.4306 55.3463C87.5345 53.285 90.2127 51.908 93.1134 51.3962" stroke="#1D1D1B" stroke-width="0.5" stroke-linecap="round" stroke-linejoin="round"/>
<path d="M71.2773 70.7376C71.8175 70.8769 72.389 70.8289 72.8984 70.6015C73.3824 70.3607 73.8392 70.0684 74.2606 69.7297" stroke="#1D1D1B" stroke-width="0.5" stroke-linecap="round" stroke-linejoin="round"/>
<path d="M84.6562 65.6028C85.6957 67.0797 87.1951 68.1708 88.9202 68.7055C90.6453 69.2402 92.499 69.1886 94.1916 68.5585" stroke="#1D1D1B" stroke-width="0.5" stroke-linecap="round" stroke-linejoin="round"/>
<path d="M71.2911 77.2887H70.5827C68.6273 77.2577 66.715 76.7097 65.0401 75.7001C63.3652 74.6905 61.9876 73.2554 61.0473 71.5408C60.5477 70.6151 60.2287 69.6028 60.1074 68.5579C59.9725 67.5392 60.1185 66.5031 60.5297 65.5613C60.9988 64.6254 61.707 63.8301 62.5826 63.256C63.4581 62.682 64.4699 62.3495 65.5153 62.2924C66.0722 62.231 66.634 62.231 67.1909 62.2924C68.7033 62.5525 70.1321 63.1688 71.3592 64.0903C73.0113 65.3784 74.4303 66.9402 75.5548 68.7077L75.9634 68.5579C77.1133 68.1304 78.3624 68.0453 79.5596 68.3127C79.9471 68.4371 80.3432 68.5326 80.7448 68.5987C80.0553 67.4088 79.7423 66.0381 79.8468 64.6669C79.9514 63.2957 80.4686 61.9883 81.3305 60.9167C81.7589 60.38 82.2532 59.8996 82.8017 59.4865C84.4802 58.2489 86.4819 57.525 88.5638 57.4026C90.3238 57.1902 92.1048 57.5635 93.6312 58.465C94.8212 59.3312 95.7611 60.4966 96.3556 61.8429C97.2624 63.5149 97.731 65.3892 97.7178 67.2912C97.6879 69.1935 96.904 71.0061 95.5383 72.3308C94.7375 73.0174 93.8127 73.5444 92.8139 73.8835C90.4573 74.728 87.6239 75.2456 85.458 73.8835C83.4268 72.6034 81.7979 70.7764 80.7584 68.6123" stroke="#1D1D1B" stroke-linecap="round" stroke-linejoin="round"/>
<path d="M71.5625 66.4883C71.9303 67.1148 72.2845 67.7414 72.6386 68.3679" stroke="#1D1D1B" stroke-linecap="round" stroke-linejoin="round"/>
<path d="M86.3555 63.1101L87.7177 65.3711" stroke="#1D1D1B" stroke-linecap="round" stroke-linejoin="round"/>
<path d="M37.3711 125.86C37.6299 126.568 38.0249 127.522 38.4064 128.434C38.6652 129.061 38.9376 129.66 39.1556 130.15L39.2782 130.436C41.1716 132.371 43.0515 134.291 45.0811 136.157C44.8236 133.686 44.3681 131.24 43.7189 128.843L43.4737 128.257L42.9561 127.045C42.6156 126.255 42.275 125.465 41.9481 124.675" stroke="#1D1D1B" stroke-linecap="round" stroke-linejoin="round"/>
</svg>
