<svg width="166" height="259" viewBox="0 0 166 259" fill="none" xmlns="http://www.w3.org/2000/svg">
<path d="M137.806 121.56L138.799 120.911C138.468 120.445 138.174 119.955 137.892 119.465L138.897 118.877C138.832 117.048 138.328 115.262 137.426 113.669C136.776 112.775 136.294 111.77 136.005 110.704C135.49 110.695 134.982 110.582 134.513 110.372C134.043 110.161 133.621 109.857 133.272 109.478C132.587 109.398 131.928 109.164 131.347 108.792C130.765 108.421 130.275 107.922 129.914 107.334C129.387 107.483 128.829 107.479 128.304 107.323C127.779 107.167 127.309 106.864 126.949 106.452C126.669 106.486 126.386 106.463 126.116 106.382C125.846 106.302 125.596 106.167 125.38 105.986C125.062 105.624 124.63 105.382 124.155 105.3C123.862 105.326 123.577 105.4 123.309 105.52C123.176 105.583 123.028 105.607 122.882 105.587C122.737 105.568 122.6 105.506 122.488 105.41C121.643 105.41 121.03 105.337 120.429 105.275C120.238 105.263 120.045 105.263 119.853 105.275C119.407 105.362 118.968 105.485 118.542 105.643C118.331 105.711 118.106 105.721 117.89 105.671C117.675 105.622 117.476 105.514 117.317 105.361C113.776 107.546 110.763 110.488 108.493 113.975L107.979 113.644C107.779 113.477 107.616 113.27 107.499 113.037C107.381 112.805 107.313 112.551 107.297 112.29C107.281 112.03 107.318 111.77 107.405 111.524C107.493 111.279 107.63 111.054 107.807 110.863C107.457 110.322 107.304 109.677 107.373 109.037C107.442 108.397 107.73 107.8 108.187 107.346C108.04 107.113 107.944 106.853 107.903 106.581C107.862 106.308 107.877 106.031 107.949 105.765C108.02 105.499 108.145 105.251 108.317 105.036C108.489 104.821 108.703 104.644 108.947 104.516C108.784 104.25 108.686 103.949 108.663 103.638C108.639 103.326 108.69 103.014 108.812 102.727C109.141 102.089 109.683 101.586 110.344 101.305C110.001 100.386 110.528 99.2345 111.998 98.5606C111.951 98.2832 111.968 97.9988 112.047 97.7287C112.125 97.4586 112.264 97.2099 112.453 97.0012C112.642 96.7925 112.875 96.6292 113.136 96.5237C113.397 96.4181 113.678 96.373 113.959 96.3917C114.025 96.0977 114.149 95.8201 114.325 95.5753C114.5 95.3304 114.724 95.1235 114.981 94.9668C115.238 94.8101 115.525 94.7069 115.823 94.6633C116.121 94.6197 116.425 94.6366 116.716 94.713C116.792 94.4407 116.922 94.1863 117.097 93.9645C117.273 93.7427 117.49 93.558 117.738 93.4212C117.985 93.2843 118.258 93.198 118.539 93.1674C118.82 93.1368 119.104 93.1624 119.375 93.2427C119.706 92.6868 120.205 92.2499 120.799 91.9946C121.393 91.7392 122.053 91.6786 122.684 91.8213C123.187 90.939 124.412 90.596 126.115 91.3679C126.52 90.3386 127.892 89.8363 129.792 90.5347C130.02 90.3013 130.293 90.1158 130.594 89.9892C130.895 89.8626 131.218 89.7974 131.544 89.7974C131.871 89.7974 132.194 89.8626 132.495 89.9892C132.796 90.1158 133.068 90.3013 133.297 90.5347C134.13 89.6892 135.649 89.6402 137.426 90.5347C137.632 90.322 137.888 90.1646 138.171 90.0768C138.454 89.989 138.754 89.9736 139.044 90.0323C139.62 90.1426 140.122 90.5715 140.919 91.466C141.181 91.2724 141.487 91.1456 141.809 91.0965C142.132 91.0474 142.461 91.0774 142.769 91.1841C143.364 91.4015 143.852 91.8406 144.13 92.4094C145.429 92.1153 146.875 93.0099 147.806 94.6641C148.047 94.5077 148.324 94.4136 148.61 94.39C148.897 94.3665 149.185 94.4144 149.448 94.5293C149.995 94.8298 150.426 95.3041 150.674 95.8771C151.678 95.8771 152.634 96.6001 153.578 98.0582C153.86 97.9925 154.155 98.0045 154.431 98.0929C154.708 98.1814 154.955 98.343 155.146 98.5606C155.534 99.1484 155.731 99.8417 155.71 100.546C156.207 100.412 156.733 100.433 157.217 100.607C157.448 100.757 157.639 100.959 157.776 101.198C157.912 101.437 157.99 101.705 158.002 101.979C158.27 102.181 158.578 102.322 158.906 102.394C159.234 102.466 159.573 102.467 159.901 102.396C160.257 102.849 159.509 103.45 159.595 104.013C159.64 104.174 159.724 104.32 159.839 104.44C159.955 104.56 160.098 104.649 160.257 104.7C160.573 104.797 160.865 104.96 161.114 105.177C161.071 105.699 161.161 106.224 161.375 106.701C161.59 107.179 161.921 107.595 162.34 107.91C162.266 108.29 162.046 108.657 162.168 109.025C162.291 109.392 162.842 109.564 163.284 109.613C163.396 110.168 163.286 110.744 162.977 111.218C163.428 111.634 163.733 112.184 163.846 112.787C163.958 113.39 163.873 114.013 163.602 114.563C163.847 115.335 164.08 116.107 164.325 116.867C164.502 117.332 164.586 117.828 164.57 118.325C164.477 118.883 164.211 119.397 163.81 119.796C164.068 120.054 164.283 120.352 164.448 120.678C164.526 120.842 164.567 121.022 164.567 121.205C164.567 121.387 164.526 121.567 164.448 121.732C164.252 122.087 163.823 122.271 163.639 122.626C163.565 122.815 163.546 123.02 163.583 123.219C163.62 123.418 163.711 123.603 163.847 123.753C164.228 124.106 164.548 124.52 164.791 124.979C164.19 124.917 163.749 125.579 163.7 126.204C163.651 126.829 163.872 127.429 163.847 127.993C163.844 128.323 163.741 128.644 163.55 128.914C163.36 129.183 163.091 129.388 162.781 129.5C163.046 129.921 163.154 130.422 163.087 130.915C163.02 131.408 162.781 131.861 162.413 132.196V132.833C162.559 133.206 162.557 133.621 162.406 133.993C162.256 134.364 161.969 134.664 161.605 134.83C161.893 134.958 162.121 135.193 162.241 135.485C162.361 135.777 162.364 136.104 162.249 136.398C162.133 136.692 161.909 136.93 161.622 137.063C161.335 137.195 161.009 137.212 160.71 137.109C160.729 137.663 160.56 138.206 160.231 138.651C159.901 139.096 159.431 139.417 158.896 139.56C159.076 139.74 159.195 139.971 159.237 140.221C159.279 140.472 159.243 140.729 159.133 140.958C159.022 141.187 158.844 141.375 158.621 141.498C158.399 141.621 158.144 141.672 157.891 141.643C157.936 141.847 157.928 142.058 157.868 142.257C157.807 142.457 157.698 142.638 157.548 142.783C157.246 142.962 156.92 143.098 156.58 143.187C156.262 143.322 155.919 143.542 155.857 143.886C155.749 144.455 155.77 145.041 155.919 145.601C155.125 145.362 154.287 145.303 153.468 145.429C153.349 145.876 153.062 146.26 152.667 146.5C152.271 146.739 151.799 146.817 151.348 146.716C151.125 147.317 150.749 147.849 150.257 148.26C150.022 148.391 149.754 148.453 149.485 148.438C149.216 148.422 148.956 148.331 148.737 148.174C148.465 148.689 148.004 149.078 147.45 149.258C146.897 149.439 146.295 149.397 145.772 149.142H144.975C146.271 148.369 147.38 147.318 148.223 146.067C148.906 145.066 149.355 143.923 149.536 142.724C149.716 141.525 149.623 140.301 149.264 139.144C148.928 138.122 148.297 137.222 147.451 136.558C146.677 136.022 145.794 135.666 144.865 135.517C142.57 135.015 140.17 135.377 138.125 136.534H137.966C136.838 134.267 136.985 131.632 137.12 129.071C137.255 126.51 137.328 123.851 136.054 121.719L137.218 120.898C137.488 121.082 137.647 121.315 137.806 121.56Z" fill="#1D1D1B"/>
<path d="M158.063 216.131C159.273 218.466 159.808 221.093 159.607 223.716C159.386 222.611 158.745 221.636 157.818 220.996C156.894 220.364 155.865 219.903 154.779 219.635L154.325 219.525C151.361 218.765 148.267 218.656 145.257 219.207V219.28L138.737 216.045C138.354 215.15 137.741 214.372 136.96 213.791C136.73 213.574 136.458 213.407 136.161 213.3C135.864 213.192 135.548 213.147 135.233 213.166H135.061C134.816 211.837 134.742 210.482 134.84 209.134C135.059 207.075 135.173 205.005 135.184 202.934C135.157 201.104 134.599 199.32 133.578 197.8L136.826 196.575L154.717 215.518L157.168 214.293C157.511 214.967 157.793 215.543 158.063 216.131Z" fill="#878787"/>
<path d="M157.807 221.021C158.734 221.661 159.375 222.636 159.596 223.741C158.774 225.313 157.491 226.595 155.919 227.417H155.601C155.293 224.831 154.851 222.262 154.277 219.722V219.464L154.731 219.575C155.836 219.864 156.879 220.354 157.807 221.021Z" fill="black"/>
<path d="M130.857 191.368L127.806 190.314C127.772 186.911 128.648 183.561 130.342 180.609L128.357 179.09C128.2 178.204 128.228 177.294 128.438 176.419C128.649 175.544 129.039 174.722 129.583 174.005C130.715 172.628 131.774 171.192 132.756 169.704C133.237 168.809 133.549 167.833 133.676 166.824H134.043C137.903 172.24 144.815 174.85 148.602 180.303C151.42 184.371 152.155 189.505 152.498 194.431C152.842 199.357 152.927 204.442 154.68 209.062C155.4 210.853 156.218 212.604 157.131 214.306L154.68 215.531L136.788 196.588L133.541 197.813C133.391 197.606 133.228 197.409 133.051 197.225C132.008 196.242 130.801 195.45 129.484 194.884L128.847 194.566L129.681 192.887C130.085 192.397 130.465 191.882 130.857 191.368Z" fill="#878787"/>
<path d="M140.035 218.827C140.317 220.194 140.058 221.617 139.312 222.797C138.941 223.378 138.459 223.88 137.893 224.273C137.327 224.667 136.689 224.944 136.015 225.089C135.504 225.196 134.979 225.225 134.459 225.174C133.579 225.099 132.734 224.795 132.008 224.292C131.617 224.026 131.287 223.679 131.04 223.275C131.004 223.235 130.975 223.19 130.954 223.14C130.656 222.506 130.537 221.803 130.611 221.106C130.616 220.244 130.849 219.399 131.285 218.656L131.493 218.533C131.544 218.627 131.615 218.709 131.703 218.77C131.79 218.832 131.89 218.872 131.996 218.888C132.152 218.933 132.319 218.92 132.467 218.852C132.615 218.785 132.734 218.667 132.803 218.52C132.873 218.373 132.887 218.206 132.845 218.049C132.802 217.892 132.706 217.755 132.572 217.663C132.518 217.604 132.451 217.557 132.376 217.528L132.437 217.406C133.265 216.482 134.378 215.861 135.599 215.641H135.709C136.648 215.525 137.597 215.742 138.393 216.254C138.605 216.396 138.802 216.561 138.981 216.744C139.525 217.323 139.891 218.046 140.035 218.827ZM138.932 220.861C138.988 220.422 138.95 219.976 138.819 219.553C138.688 219.13 138.467 218.741 138.172 218.411C137.864 218.084 137.476 217.842 137.046 217.709C136.617 217.576 136.161 217.556 135.721 217.651C134.839 217.936 134.082 218.516 133.577 219.293C133.034 219.905 132.729 220.692 132.719 221.511C132.862 222.31 133.247 223.045 133.822 223.618C133.984 223.771 134.178 223.887 134.389 223.957C134.601 224.027 134.826 224.049 135.047 224.023C135.958 224.008 136.841 223.708 137.572 223.165C138.305 222.601 138.792 221.776 138.932 220.861Z" fill="#3773FF"/>
<path d="M138.611 216.045L138.452 216.351C137.657 215.84 136.707 215.623 135.768 215.739V215.322C135.456 214.667 135.225 213.975 135.082 213.264H135.254C135.569 213.244 135.885 213.29 136.182 213.397C136.479 213.505 136.751 213.672 136.981 213.888C137.762 214.47 138.376 215.248 138.758 216.143L138.611 216.045Z" fill="#3773FF"/>
<path d="M130.428 231.656C131.157 232.841 131.531 234.21 131.506 235.601C131.254 236.682 131.254 237.805 131.506 238.885C131.851 239.497 132.308 240.037 132.854 240.478C134.673 242.299 135.696 244.767 135.697 247.34H135.33C135.501 250.648 133.308 253.761 130.428 255.489C127.494 257.074 124.228 257.947 120.894 258.037C115.398 258.354 109.884 258.161 104.424 257.461C95.6221 256.639 86.957 254.725 78.6279 251.764C77.1174 251.345 75.7627 250.493 74.7309 249.313C74.6558 249.229 74.5995 249.129 74.5657 249.022C74.5319 248.914 74.5214 248.8 74.5348 248.688C74.5348 248.48 74.8902 248.32 75.0373 248.492L74.8044 248.063L75.0985 247.904C71.1002 224.144 73.2776 199.756 81.4219 177.08L80.5763 176.773C79.5129 173.283 78.7987 169.696 78.4441 166.064V165.831C74.0161 162.76 69.6779 159.562 65.4297 156.237L65.5768 156.298C65.8043 156.343 66.039 156.337 66.2637 156.28C66.4884 156.222 66.6976 156.116 66.8758 155.967C68.4116 154.741 69.6199 153.154 70.3928 151.348C71.9491 148.321 73.3829 145.221 74.7432 142.109C77.574 135.578 80.0616 128.863 82.5861 122.038L82.7576 121.695C85.9489 129.213 90.2128 136.23 95.4166 142.525C98.7988 146.618 102.61 150.441 105.22 155.073L105.392 155.685C103.48 156.2 101.589 156.764 99.7179 157.376C98.5864 157.617 97.5682 158.229 96.8259 159.116C95.87 160.575 96.5685 162.609 95.8087 164.177C95.0489 165.745 93.174 166.321 91.4829 166.75C93.4432 166.892 95.4112 166.615 97.2559 165.936C99.1006 165.258 100.78 164.195 102.181 162.817L102.684 162.682C102.922 163.66 103.009 164.668 102.941 165.672C102.775 167.185 102.846 168.714 103.149 170.206C103.449 171.212 104.009 172.122 104.773 172.842C105.537 173.563 106.477 174.07 107.5 174.31L107.647 174.678L108.149 174.396L108.259 176.173C109.772 176.031 111.224 175.504 112.475 174.641C113.786 173.796 114.926 172.779 116.286 171.921C116.846 171.473 117.49 171.143 118.181 170.951C118.872 170.759 119.595 170.71 120.306 170.806C120.952 171.022 121.545 171.373 122.046 171.836C122.547 172.299 122.943 172.862 123.21 173.49C123.847 174.715 124.239 176.014 124.987 177.166C125.32 177.76 125.8 178.258 126.382 178.612C126.964 178.966 127.627 179.164 128.308 179.187L130.293 180.707C128.599 183.658 127.723 187.008 127.756 190.411L130.808 191.465C130.416 191.98 130.036 192.494 129.668 193.021L128.835 194.7L124.803 192.69C124.043 192.199 123.144 191.971 122.242 192.041C121.381 192.334 120.629 192.881 120.085 193.609C119.54 194.335 118.729 194.816 117.83 194.945C117.144 194.945 116.421 194.59 115.82 194.945C115.557 195.131 115.369 195.405 115.29 195.717C115.212 196.03 115.248 196.36 115.392 196.648C115.703 197.217 116.149 197.701 116.69 198.057L116.789 198.658C116.303 198.789 115.852 199.023 115.465 199.344C114.997 199.729 114.621 200.214 114.365 200.763C114.108 201.312 113.977 201.912 113.982 202.518C113.986 202.895 114.04 203.27 114.142 203.633L113.651 203.767C113.041 204.159 112.531 204.689 112.165 205.316C111.798 205.942 111.586 206.646 111.544 207.37C111.47 208.463 111.655 209.559 112.083 210.568L111.911 210.629C111.508 211.774 111.394 213.001 111.58 214.2C111.766 215.4 112.246 216.535 112.977 217.503C114.476 219.42 116.437 220.925 118.676 221.878C121.453 223.174 124.427 224.002 127.474 224.328V224.88C127.977 225.664 128.696 226.286 129.545 226.669C129.819 226.805 130.113 226.896 130.416 226.938C130.664 226.969 130.915 226.969 131.163 226.938V227.281C131.547 228.771 131.327 230.352 130.55 231.68L130.428 231.656ZM106.936 179.518C107.165 179.444 107.358 179.288 107.478 179.08C107.598 178.871 107.637 178.626 107.585 178.391C107.538 178.215 107.44 178.058 107.303 177.938C107.166 177.819 106.997 177.743 106.817 177.719C106.637 177.696 106.453 177.726 106.291 177.807C106.128 177.887 105.992 178.014 105.902 178.172C105.811 178.329 105.769 178.51 105.781 178.691C105.793 178.872 105.858 179.046 105.969 179.19C106.08 179.334 106.231 179.442 106.403 179.501C106.575 179.559 106.76 179.565 106.936 179.518Z" fill="#878787"/>
<path d="M134.457 225.174V225.517C134.145 225.925 133.718 226.232 133.232 226.399C133.003 226.496 132.765 226.57 132.521 226.62C132.189 226.715 131.848 226.781 131.504 226.816H131.173C130.925 226.846 130.674 226.846 130.425 226.816C130.123 226.773 129.829 226.682 129.555 226.546C128.706 226.163 127.987 225.542 127.484 224.757V224.206C127.766 224.206 128.06 224.279 128.342 224.304C129.237 224.347 130.115 224.044 130.793 223.458L131.099 223.262C131.346 223.666 131.676 224.013 132.068 224.279C132.775 224.777 133.597 225.085 134.457 225.174Z" fill="#3773FF"/>
<path d="M133.402 163.161C133.77 164.349 133.871 165.605 133.696 166.837C133.569 167.845 133.258 168.821 132.777 169.716C131.795 171.204 130.735 172.64 129.603 174.017C129.059 174.735 128.67 175.557 128.459 176.432C128.248 177.307 128.22 178.216 128.377 179.102C127.697 179.08 127.033 178.881 126.452 178.527C125.87 178.173 125.389 177.675 125.056 177.081C124.309 175.941 123.917 174.63 123.28 173.405C123.013 172.777 122.616 172.214 122.116 171.751C121.615 171.288 121.022 170.937 120.375 170.721C119.665 170.625 118.942 170.674 118.251 170.866C117.56 171.058 116.915 171.388 116.356 171.836C115.045 172.694 113.905 173.711 112.545 174.556C111.293 175.419 109.842 175.946 108.329 176.088L108.219 174.311L108.709 174.054C109.398 173.704 110.068 173.319 110.719 172.902C112.52 171.677 113.954 169.986 115.829 168.895C119.052 166.996 123.022 167.217 126.662 166.445L127.385 166.261C128.624 165.98 129.774 165.395 130.73 164.558C131.637 163.688 131.956 161.311 131.625 160.073C132.427 160.967 133.032 162.019 133.402 163.161Z" fill="#878787"/>
<path d="M126.641 166.089C126.99 163.3 127.75 160.579 128.895 158.014L129.165 158.136C130.093 158.606 130.924 159.246 131.616 160.023C131.886 161.249 131.616 163.699 130.721 164.508C129.765 165.345 128.615 165.931 127.376 166.211L126.653 166.395L126.641 166.089Z" fill="#878787"/>
<path d="M121.469 139.389L121.653 139.524C120.89 140.665 120.042 141.746 119.116 142.759L118.969 142.906C118.154 142.205 117.154 141.754 116.089 141.607C115.025 141.47 113.946 141.499 112.891 141.693C111.552 141.935 110.332 142.616 109.423 143.629C108.773 143.494 108.111 143.335 107.462 143.175L107.388 145.173L107.303 145.393C107.118 145.333 106.938 145.259 106.763 145.173C105.88 141.5 105.501 137.724 105.636 133.949V133.753C105.873 133.765 106.11 133.765 106.347 133.753V133.949C106.213 134.811 106.285 135.692 106.555 136.522C108.667 136.338 110.795 136.55 112.829 137.147C115.73 137.833 118.609 138.58 121.469 139.389Z" fill="black"/>
<path d="M102.732 162.596L102.229 162.73C100.828 164.108 99.149 165.172 97.3043 165.85C95.4596 166.528 93.4916 166.806 91.5312 166.664C93.2224 166.235 95.1096 165.659 95.8571 164.09C96.6046 162.522 95.9184 160.488 96.8742 159.03C97.6165 158.143 98.6348 157.53 99.7663 157.29C101.645 156.677 103.537 156.114 105.44 155.599C106.666 155.256 107.891 154.937 109.117 154.643V154.288C109.447 154.386 109.791 154.472 110.134 154.545L110.011 155.06C109.455 157.242 108.453 159.286 107.07 161.064H106.813C106.401 162.9 106.123 164.763 105.979 166.639C105.869 169.286 106.531 172.141 108.553 173.844L108.688 174.101L108.197 174.359L107.695 174.641L107.548 174.273C106.526 174.032 105.585 173.526 104.821 172.805C104.057 172.084 103.497 171.175 103.198 170.168C102.894 168.677 102.824 167.147 102.989 165.634C103.063 164.614 102.976 163.589 102.732 162.596Z" fill="#878787"/>
<path d="M52.4756 30.7263C52.6045 30.9322 52.7478 31.1287 52.9045 31.3144C51.6461 32.0979 50.5549 33.1223 49.6938 34.3288C49.4617 34.6219 49.2834 34.9538 49.1668 35.309C49.1165 35.4893 49.1036 35.6779 49.1289 35.8633C49.1542 36.0488 49.2171 36.2271 49.3139 36.3873C49.4685 36.5736 49.6718 36.7134 49.9011 36.7912C50.1304 36.8691 50.3767 36.882 50.6128 36.8284C51.0688 36.71 51.4893 36.483 51.8383 36.1668C52.8815 35.3382 53.7376 34.2984 54.3505 33.1157L54.4976 32.9441C54.7587 33.1608 55.0329 33.3613 55.3186 33.5445L55.2451 33.667C54.4803 34.5537 53.8974 35.5821 53.5294 36.6936C53.2962 37.2678 53.2119 37.8916 53.2844 38.5071C53.3264 38.8141 53.4496 39.1043 53.6414 39.3477C53.8331 39.5911 54.0864 39.779 54.375 39.8917C54.7613 39.9774 55.1649 39.9353 55.5251 39.7718C55.8853 39.6082 56.1827 39.3321 56.3725 38.985C56.7423 38.2878 56.9555 37.5184 56.9975 36.7304L57.2548 34.6596L57.3161 34.4635C57.7837 34.6016 58.2641 34.6919 58.7499 34.7331V34.8557C58.3293 35.6841 58.1224 36.6046 58.1481 37.5333C58.1738 38.462 58.4312 39.3696 58.8969 40.1735C58.9781 40.3544 59.0981 40.5153 59.2485 40.6445C59.3989 40.7737 59.5759 40.8681 59.767 40.921C59.9975 40.9249 60.2244 40.8638 60.4216 40.7445C60.6189 40.6253 60.7785 40.453 60.8822 40.2471C61.3344 39.3835 61.4396 38.3797 61.1763 37.4411C60.9802 36.4976 60.5881 35.6031 60.343 34.6718C60.6937 34.6138 61.0382 34.5236 61.3723 34.4023C61.5901 34.3209 61.8029 34.2269 62.0096 34.1205C62.669 36.0178 63.9241 37.6511 65.5879 38.7767C65.9037 39.0301 66.2983 39.1645 66.7031 39.1566C66.9405 39.1177 67.1612 39.0098 67.3377 38.8464C67.5142 38.683 67.6387 38.4713 67.6957 38.2376C67.8068 37.7638 67.7683 37.2671 67.5854 36.8161C66.9604 35.0027 65.6247 34.0714 64.0684 32.9441L63.8478 32.7236C64.3386 32.2113 64.774 31.6486 65.1468 31.0449L65.208 30.9591C66.5586 32.3892 68.2887 33.405 70.1956 33.8877C70.6624 34.0592 71.1749 34.0592 71.6417 33.8877C71.9707 33.6904 72.2167 33.3803 72.334 33.015C72.4512 32.6498 72.4317 32.2544 72.2789 31.9026C71.9457 31.2053 71.4011 30.6308 70.7226 30.2607C69.3546 29.4114 67.8136 28.8796 66.2129 28.7045H66.0659C66.1829 27.5917 66.0054 26.4677 65.5511 25.4451C65.3322 24.8785 65.07 24.3296 64.7669 23.8032L65.0977 23.7174C66.5052 23.2972 67.8553 22.7046 69.1172 21.9529C69.5267 21.7307 69.8955 21.4408 70.2079 21.0952C70.355 20.9287 70.4675 20.7346 70.5391 20.5243C70.6106 20.314 70.6396 20.0915 70.6245 19.8699C70.5613 19.5906 70.4209 19.3345 70.2195 19.1309C70.018 18.9273 69.7635 18.7843 69.4849 18.7181C68.9275 18.5883 68.3422 18.6576 67.8305 18.9141C67.3175 19.162 66.8361 19.4705 66.3967 19.8331L63.7497 21.8304L63.3208 21.9284C63.186 21.7814 63.039 21.6343 62.8919 21.4995L62.2792 20.9972C63.1373 20.1669 63.8719 19.2178 64.4605 18.1789C64.7541 17.6576 64.9323 17.0792 64.983 16.4831C65.0337 15.887 64.9559 15.2869 64.7546 14.7235C64.6595 14.4407 64.4897 14.189 64.2632 13.9948C64.0367 13.8007 63.7619 13.6714 63.4679 13.6207C63.2117 13.6348 62.9616 13.7046 62.7352 13.8252C62.5087 13.9458 62.3113 14.1144 62.1566 14.3191C61.5111 15.0946 61.0877 16.0304 60.9312 17.0271C60.7696 18.0151 60.6998 19.016 60.7229 20.0169V20.1272C60.1734 19.8678 59.5859 19.6982 58.9827 19.6248C59.0984 18.0289 58.803 16.43 58.1249 14.9808C57.9192 14.4639 57.6011 13.9993 57.1936 13.6207C56.9759 13.4021 56.6982 13.2531 56.3956 13.1927C56.0931 13.1322 55.7794 13.163 55.4944 13.2812C55.2094 13.3994 54.966 13.5996 54.7951 13.8564C54.6241 14.1132 54.5334 14.415 54.5343 14.7235C54.4949 15.3906 54.6257 16.0568 54.9142 16.6595C55.3904 17.8406 56.0477 18.9403 56.8627 19.9189L56.924 20.0904C56.5405 20.2108 56.1675 20.3625 55.8088 20.5438V20.4458C55.1849 19.0595 54.3268 17.7911 53.2721 16.6963C52.7673 16.0876 52.0797 15.6579 51.3114 15.4709C50.9275 15.3935 50.5285 15.4625 50.1929 15.6643C49.8573 15.8661 49.6093 16.1861 49.4977 16.5615C49.4633 17.0565 49.6067 17.5475 49.9021 17.9461C50.8781 19.3776 52.0684 20.6504 53.4314 21.7201L53.6152 21.9407C53.3094 22.1795 53.0226 22.4416 52.7574 22.7249C51.8032 21.5789 50.5772 20.6901 49.1913 20.1394C48.7163 19.9213 48.1921 19.8325 47.6718 19.8821C47.4121 19.9078 47.1665 20.0118 46.9673 20.1803C46.7681 20.3488 46.6249 20.5738 46.5566 20.8256C46.5459 21.1283 46.6123 21.4287 46.7495 21.6988C46.8867 21.9688 47.0902 22.1996 47.3409 22.3695C48.4528 23.3383 49.8335 23.9453 51.2991 24.1095L51.581 24.281C51.3468 24.6618 51.1693 25.0745 51.054 25.5064L50.7231 25.3961C49.191 24.7872 47.536 24.5519 45.8949 24.7099C45.4604 24.7472 45.0408 24.8857 44.6694 25.1143C44.4849 25.2295 44.3292 25.3855 44.2145 25.5703C44.0998 25.7551 44.029 25.9638 44.0077 26.1803C44.0108 26.4256 44.0752 26.6661 44.195 26.8802C44.3149 27.0942 44.4864 27.2748 44.6939 27.4056C45.106 27.6506 45.5655 27.8051 46.0419 27.859C47.6778 28.133 49.3547 28.0282 50.9437 27.5527H50.8947C50.9421 27.838 51.0202 28.1173 51.1276 28.3859H50.9927C50.0978 28.481 49.2174 28.6826 48.3703 28.9863C47.4328 29.3054 46.6243 29.9204 46.0664 30.7386C45.9182 30.9334 45.8224 31.1629 45.7881 31.4053C45.7538 31.6477 45.7821 31.8949 45.8703 32.1232C45.9679 32.2705 46.0962 32.3949 46.2464 32.4879C46.3966 32.581 46.5651 32.6405 46.7404 32.6623C47.0964 32.6951 47.4553 32.6534 47.7943 32.5398C49.3213 32.1229 50.7198 31.331 51.8628 30.2361L51.9854 30.1626C52.1202 30.2239 52.304 30.4812 52.4756 30.7263ZM31.1527 48.273C26.4714 43.6249 21.639 39.1566 16.6555 34.8679L15.4301 33.1034C11.6557 35.7256 7.90577 38.3805 4.18039 41.0681L2.72209 42.3915L3.1755 42.8938L2.83238 43.2001C2.76202 44.6603 3.25809 46.0913 4.21715 47.1947H4.56027C5.591 48.0724 6.51999 49.0629 7.32981 50.1477C15.2402 59.8892 24.1442 68.7801 33.8977 76.6762C34.5962 77.0683 35.4417 76.5536 36.079 76.0635L62.0464 55.9436L62.2424 55.6495C62.6448 55.9454 63.086 56.1846 63.5536 56.3602L63.3944 56.7278C59.1625 60.175 54.9101 63.5815 50.6374 66.947C45.3679 71.1132 40.0576 75.2221 34.7065 79.2739L34.3143 79.0165C23.4101 70.2421 13.5426 60.2523 4.9034 49.241C3.42787 48.4453 2.27286 47.164 1.63411 45.6142C0.99536 44.0643 0.912138 42.3414 1.39858 40.7372C19.9327 26.2626 39.3891 13.0092 59.6445 1.06104H59.9631C60.507 1.64298 60.9243 2.33144 61.1885 3.08286C70.6123 13.4001 80.3546 23.4356 90.3421 33.422L88.2834 34.6964C81.0695 39.5242 73.8597 44.3642 66.654 49.2165C64.534 49.3758 62.3282 49.8415 60.7106 48.5916L60.4288 48.6651C60.1387 48.9047 59.9033 49.2036 59.7384 49.5418C59.5735 49.88 59.483 50.2496 59.4729 50.6256C59.4309 51.3653 59.5786 52.1034 59.9018 52.77C60.1373 53.302 60.4422 53.8006 60.8086 54.2526L60.539 54.4732L46.7527 65.3296L44.8532 62.8789C40.4661 57.8306 35.8829 52.966 31.1527 48.273ZM73.0755 25.0775C73.1274 24.7532 73.0701 24.4207 72.9127 24.1324C72.7552 23.8441 72.5064 23.6162 72.2054 23.4846C71.5927 23.2296 70.9153 23.1739 70.2692 23.3253C68.6912 23.6824 67.1754 24.273 65.7718 25.0775L66.0781 27.0135C67.9866 27.3456 69.9506 27.1113 71.7274 26.3396C72.0336 26.2462 72.3143 26.0838 72.548 25.8651C72.7817 25.6463 72.9621 25.3769 73.0755 25.0775ZM49.2158 42.2322C49.4532 42.0335 49.628 41.7706 49.7193 41.4749C49.8106 41.1793 49.8145 40.8635 49.7305 40.5657C49.5535 39.97 49.214 39.4354 48.7502 39.0218C47.5599 37.8655 46.0553 37.0856 44.4243 36.7794C44.8506 38.1963 45.4516 39.5546 46.2135 40.823C46.5077 41.3709 46.9277 41.8412 47.4389 42.1954C47.7061 42.3611 48.0147 42.4479 48.3291 42.4458C48.6436 42.4436 48.951 42.3525 49.2158 42.1831V42.2322ZM40.6377 39.4874C40.0256 37.543 38.9873 35.7597 37.5985 34.2675C37.4017 34.041 37.1527 33.8657 36.873 33.7569C36.5934 33.648 36.2914 33.6088 35.9932 33.6426C35.6979 33.7475 35.446 33.9478 35.2773 34.2119C35.1087 34.4759 35.0328 34.7887 35.0618 35.1007C35.1416 35.7286 35.4012 36.32 35.8094 36.8039C36.3483 37.5824 37.0603 38.2255 37.8895 38.6826C38.7187 39.1397 39.6426 39.3984 40.5886 39.4384L40.6377 39.4874Z" fill="#3773FF"/>
<path d="M74.7801 142.048C73.4199 145.173 71.9861 148.261 70.4298 151.287C69.6569 153.094 68.4486 154.681 66.9127 155.907C66.7345 156.055 66.5254 156.162 66.3007 156.219C66.0759 156.277 65.8412 156.283 65.6138 156.238L65.4667 156.176C65.3059 156.08 65.1692 155.949 65.0672 155.791C64.9652 155.634 64.9007 155.456 64.8785 155.27C64.8461 154.858 64.8834 154.444 64.9888 154.044C66.2428 147.699 68.3924 141.564 71.3734 135.824H71.4714C72.5335 137.907 73.6364 139.982 74.7801 142.048Z" fill="black"/>
<path d="M72.2071 23.4845C72.5081 23.6161 72.7569 23.844 72.9143 24.1323C73.0718 24.4207 73.1291 24.7531 73.0771 25.0775C72.9592 25.37 72.7767 25.6322 72.5433 25.8443C72.3099 26.0565 72.0316 26.2132 71.7291 26.3028C69.9523 27.0746 67.9883 27.3088 66.0798 26.9768L65.7734 25.0407C67.1771 24.2362 68.6929 23.6456 70.2708 23.2885C70.9208 23.1487 71.5983 23.2172 72.2071 23.4845Z" fill="white"/>
<path d="M72.317 31.964C72.4697 32.3159 72.4893 32.7112 72.372 33.0764C72.2548 33.4417 72.0087 33.7518 71.6797 33.9491C71.213 34.1206 70.7004 34.1206 70.2337 33.9491C68.3267 33.4664 66.5967 32.4506 65.2461 31.0205C65.7002 30.338 66.0128 29.5713 66.1652 28.7659H66.3122C67.9129 28.941 69.4539 29.4728 70.8219 30.3221C71.4776 30.7022 71.9998 31.2757 72.317 31.964Z" fill="white"/>
<path d="M70.6592 19.8333C70.6743 20.055 70.6452 20.2774 70.5737 20.4877C70.5022 20.6981 70.3896 20.8922 70.2425 21.0587C69.9301 21.4042 69.5613 21.6943 69.1518 21.9164C67.8899 22.6681 66.5398 23.2608 65.1324 23.6809L64.8015 23.7667C64.4018 23.0638 63.9161 22.4134 63.3555 21.8306L63.7843 21.7326L66.4313 19.7353C66.8708 19.3727 67.3522 19.0642 67.8651 18.8163C68.3768 18.5598 68.9621 18.4905 69.5195 18.6203C69.8062 18.6911 70.0663 18.8433 70.2685 19.0585C70.4707 19.2738 70.6064 19.5428 70.6592 19.8333Z" fill="white"/>
<path d="M67.5602 36.8529C67.7431 37.3039 67.7817 37.8004 67.6705 38.2742C67.6135 38.5079 67.489 38.7197 67.3125 38.8831C67.136 39.0465 66.9153 39.1544 66.6779 39.1932C66.2731 39.2011 65.8785 39.0667 65.5627 38.8134C63.899 37.6878 62.6437 36.0545 61.9844 34.1571C62.6668 33.7912 63.2872 33.3198 63.8226 32.7603L64.0432 32.9808C65.5995 34.1081 66.9352 35.0394 67.5602 36.8529Z" fill="white"/>
<path d="M61.9836 34.157C61.7769 34.2634 61.5642 34.3575 61.3464 34.4388C61.0123 34.5602 60.6677 34.6505 60.317 34.7084C59.7926 34.782 59.2605 34.782 58.7362 34.7084C58.2504 34.6672 57.77 34.5769 57.3024 34.4388C56.7619 34.2786 56.2401 34.061 55.7461 33.7894C55.599 33.7037 55.4397 33.6179 55.3049 33.5198C55.0192 33.3366 54.745 33.1361 54.4838 32.9194C53.8957 32.4253 53.3654 31.8663 52.903 31.253C52.7464 31.0673 52.6031 30.8708 52.4741 30.6649C52.3025 30.4198 52.1432 30.1625 51.9962 29.9052L51.8124 29.5988C51.5332 29.1183 51.3072 28.6088 51.1384 28.0794C51.0332 27.8428 50.9511 27.5966 50.8933 27.3442C50.8012 26.8213 50.8012 26.2864 50.8933 25.7635C50.9187 25.6231 50.9514 25.484 50.9913 25.3469C51.1066 24.9151 51.2841 24.5023 51.5183 24.1216C51.7657 23.6845 52.0572 23.2739 52.3883 22.8962L52.7314 22.5532C52.9966 22.27 53.2835 22.0077 53.5893 21.769C54.2729 21.2111 55.0268 20.7455 55.8318 20.3843C56.1906 20.203 56.5635 20.0514 56.947 19.931C57.5634 19.7141 58.1996 19.5581 58.8465 19.4653H59.0058C59.6089 19.5388 60.1965 19.7083 60.7459 19.9677C61.3049 20.2103 61.8351 20.5144 62.3267 20.8744L62.9395 21.3768C63.0865 21.5116 63.2336 21.6586 63.3684 21.8057C63.929 22.3884 64.4147 23.0388 64.8144 23.7417C65.1175 24.2681 65.3798 24.8171 65.5987 25.3837C66.053 26.4063 66.2305 27.5303 66.1134 28.643C65.961 29.4485 65.6485 30.2152 65.1943 30.8977L65.133 30.9834C64.7603 31.5871 64.3249 32.1498 63.8341 32.6622C63.3025 33.2576 62.6775 33.7625 61.9836 34.157Z" fill="white"/>
<path d="M64.8145 14.65C65.0157 15.2135 65.0936 15.8135 65.0429 16.4097C64.9921 17.0058 64.8139 17.5842 64.5204 18.1055C63.9318 19.1444 63.1972 20.0934 62.339 20.9237C61.8474 20.5638 61.3172 20.2596 60.7582 20.017V19.9067C60.7352 18.9058 60.8049 17.9049 60.9665 16.9169C61.123 15.9201 61.5465 14.9844 62.192 14.2089C62.3466 14.0042 62.544 13.8356 62.7705 13.715C62.997 13.5943 63.247 13.5246 63.5032 13.5105C63.806 13.5602 64.0889 13.6931 64.3205 13.8943C64.5521 14.0955 64.7231 14.3572 64.8145 14.65Z" fill="white"/>
<path d="M61.1514 37.4783C61.4147 38.4169 61.3095 39.4206 60.8573 40.2842C60.7536 40.4901 60.5939 40.6625 60.3967 40.7817C60.1994 40.9009 59.9726 40.9621 59.7421 40.9582C59.551 40.9052 59.374 40.8108 59.2236 40.6816C59.0732 40.5524 58.9532 40.3916 58.872 40.2107C58.4063 39.4068 58.1489 38.4991 58.1232 37.5704C58.0975 36.6417 58.3044 35.7212 58.725 34.8928V34.7703C59.2494 34.8439 59.7814 34.8439 60.3058 34.7703C60.5631 35.6402 60.9553 36.5348 61.1514 37.4783Z" fill="white"/>
<path d="M58.1365 14.8831C58.8146 16.3323 59.11 17.9312 58.9943 19.527H58.835C58.1882 19.6198 57.5519 19.7758 56.9355 19.9927L56.8743 19.8211C56.0593 18.8425 55.402 17.7428 54.9258 16.5617C54.6373 15.959 54.5065 15.2928 54.5459 14.6257C54.545 14.3172 54.6357 14.0154 54.8067 13.7586C54.9776 13.5018 55.221 13.3016 55.506 13.1834C55.791 13.0652 56.1046 13.0344 56.4072 13.0949C56.7097 13.1553 56.9875 13.3043 57.2051 13.5229C57.6126 13.9016 57.9308 14.3662 58.1365 14.8831Z" fill="white"/>
<path d="M57.3031 34.4998L57.2418 34.6958L56.9845 36.7666C56.9425 37.5547 56.7292 38.3241 56.3595 39.0213C56.1697 39.3684 55.8723 39.6444 55.5121 39.808C55.1519 39.9715 54.7482 40.0137 54.362 39.928C54.0733 39.8152 53.8201 39.6274 53.6283 39.384C53.4366 39.1406 53.3134 38.8504 53.2713 38.5434C53.1988 37.9279 53.2832 37.304 53.5164 36.7298C53.8844 35.6183 54.4673 34.59 55.2321 33.7033L55.3056 33.5808C55.4404 33.6788 55.5997 33.7646 55.7467 33.8503C56.2408 34.1219 56.7626 34.3396 57.3031 34.4998Z" fill="white"/>
<path d="M55.7948 20.3479V20.4459C54.9898 20.8072 54.2358 21.2727 53.5523 21.8306L53.3684 21.61C52.0054 20.5404 50.8151 19.2675 49.8391 17.836C49.5437 17.4373 49.4003 16.9463 49.4347 16.4513C49.5463 16.076 49.7943 15.756 50.1299 15.5542C50.4655 15.3524 50.8645 15.2834 51.2484 15.3608C52.0168 15.5477 52.7044 15.9775 53.2091 16.5861C54.2824 17.6808 55.1573 18.9537 55.7948 20.3479Z" fill="white"/>
<path d="M54.4867 32.9812L54.3397 33.1528C53.7268 34.3355 52.8707 35.3753 51.8275 36.2038C51.4784 36.5201 51.058 36.7472 50.602 36.8655C50.3659 36.9191 50.1195 36.9062 49.8903 36.8284C49.661 36.7505 49.4577 36.6107 49.3031 36.4244C49.2063 36.2642 49.1433 36.0859 49.1181 35.9005C49.0928 35.715 49.1057 35.5264 49.156 35.3461C49.2725 34.9909 49.4509 34.659 49.683 34.3658C50.5441 33.1594 51.6352 32.135 52.8936 31.3516C53.362 31.9527 53.8964 32.4993 54.4867 32.9812Z" fill="white"/>
<path d="M52.723 22.6154L52.3799 22.9585C52.0488 23.3361 51.7573 23.7467 51.5099 24.1838L51.228 24.0123C49.7624 23.8481 48.3817 23.2411 47.2698 22.2723C47.019 22.1023 46.8156 21.8716 46.6784 21.6016C46.5412 21.3315 46.4748 21.031 46.4855 20.7283C46.5538 20.4766 46.697 20.2516 46.8962 20.0831C47.0953 19.9146 47.341 19.8106 47.6007 19.7849C48.121 19.7353 48.6452 19.824 49.1202 20.0422C50.5061 20.5929 51.732 21.4817 52.6863 22.6277L52.723 22.6154Z" fill="white"/>
<path d="M51.9966 29.9664L51.874 30.04C50.731 31.1348 49.3325 31.9267 47.8056 32.3436C47.4666 32.4572 47.1076 32.4989 46.7517 32.4661C46.5763 32.4442 46.4078 32.3847 46.2576 32.2917C46.1074 32.1986 45.9792 32.0742 45.8816 31.9269C45.7933 31.6986 45.765 31.4515 45.7993 31.2091C45.8336 30.9667 45.9295 30.7372 46.0777 30.5423C46.6355 29.7241 47.444 29.1092 48.3815 28.7901C49.2287 28.4864 50.109 28.2848 51.004 28.1897H51.1388C51.3077 28.7191 51.5337 29.2286 51.8128 29.7091L51.9966 29.9664Z" fill="white"/>
<path d="M50.648 25.2003L50.9789 25.3107C50.9391 25.4477 50.9063 25.5868 50.8808 25.7272C50.7888 26.2501 50.7888 26.785 50.8808 27.3079H50.8931C49.3041 27.7834 47.6272 27.8882 45.9913 27.6142C45.5149 27.5603 45.0554 27.4058 44.6433 27.1608C44.4358 27.03 44.2643 26.8495 44.1444 26.6355C44.0245 26.4214 43.9601 26.1808 43.957 25.9355C43.9784 25.719 44.0492 25.5104 44.1639 25.3255C44.2786 25.1407 44.4343 24.9847 44.6188 24.8695C44.9901 24.6409 45.4098 24.5025 45.8442 24.4652C47.4811 24.3267 49.1275 24.5786 50.648 25.2003Z" fill="white"/>
<path d="M49.7314 40.5173C49.8154 40.8151 49.8115 41.1309 49.7202 41.4265C49.6289 41.7222 49.4541 41.9851 49.2168 42.1838C48.9521 42.3489 48.6464 42.4365 48.3344 42.4365C48.0225 42.4365 47.7168 42.3489 47.4521 42.1838C46.9409 41.8296 46.5209 41.3593 46.2267 40.8114C45.4648 39.543 44.8638 38.1847 44.4375 36.7678C46.0685 37.074 47.5731 37.8539 48.7634 39.0102C49.2171 39.4152 49.5518 39.9363 49.7314 40.5173Z" fill="white"/>
<path d="M31.1522 48.2728C35.8824 52.9658 40.4656 57.8303 44.8527 62.8541L46.7522 65.3048L38.3578 71.9093C37.0343 72.9631 35.5025 74.0659 33.8359 73.8209C23.1138 64.0425 12.8888 53.7327 3.19951 42.9303L2.74609 42.4279L4.20439 41.1045C7.92977 38.417 11.6797 35.7621 15.4541 33.1399L16.6795 34.9044C21.6549 39.1849 26.4791 43.641 31.1522 48.2728Z" fill="#3773FF"/>
<path d="M37.5466 34.2183C38.9354 35.7105 39.9737 37.4938 40.5858 39.4382C39.627 39.4001 38.6906 39.1375 37.852 38.6714C37.0134 38.2053 36.2959 37.5488 35.7575 36.7547C35.3493 36.2709 35.0898 35.6794 35.01 35.0515C34.981 34.7395 35.0568 34.4268 35.2254 34.1627C35.3941 33.8986 35.646 33.6982 35.9413 33.5933C36.2395 33.5595 36.5415 33.5987 36.8211 33.7076C37.1008 33.8165 37.3498 33.9917 37.5466 34.2183Z" fill="white"/>
<path d="M59.5585 1C39.3031 12.9482 19.8468 26.2016 1.31266 40.6762C0.826216 42.2803 0.909399 44.0033 1.54815 45.5531C2.1869 47.1029 3.34191 48.3843 4.81744 49.18C13.4566 60.1913 23.3241 70.181 34.2284 78.9555" stroke="#222120" stroke-linecap="round" stroke-linejoin="round"/>
<path d="M2.61328 42.281L2.7113 42.3913L3.16471 42.8937C12.854 53.6961 23.079 64.0059 33.8011 73.7843C35.4677 74.0293 36.9995 72.9265 38.323 71.8727L46.7174 65.2682L60.467 54.4485" stroke="#222120" stroke-linecap="round" stroke-linejoin="round"/>
<path d="M59.875 1.02441C60.4189 1.60636 60.8362 2.29475 61.1005 3.04616C70.5242 13.3634 80.2666 23.3989 90.254 33.3853L88.2811 34.6965C81.0672 39.5243 73.8574 44.3643 66.6518 49.2166" stroke="#222120" stroke-linecap="round" stroke-linejoin="round"/>
<path d="M34.6719 79.2131C40.0312 75.1287 45.3415 71.0197 50.6028 66.8863C54.8837 63.5207 59.136 60.1143 63.3598 56.667" stroke="#222120" stroke-linecap="round" stroke-linejoin="round"/>
<path d="M71.7266 50.932L91.3338 37.6372L88.8829 35.2722" stroke="#222120" stroke-linecap="round" stroke-linejoin="round"/>
<path d="M60.4277 48.7021C60.1421 48.9377 59.9095 49.2307 59.7448 49.5622C59.5801 49.8937 59.4871 50.2561 59.4718 50.6259C59.4299 51.3656 59.5775 52.1037 59.9007 52.7703C60.1363 53.3023 60.4412 53.8009 60.8076 54.2529C61.2196 54.7797 61.7116 55.2387 62.2659 55.613C62.6682 55.909 63.1095 56.1481 63.5771 56.3237L63.8589 56.4462C64.7344 56.7554 65.6634 56.8845 66.59 56.8255C67.5166 56.7665 68.4218 56.5208 69.251 56.1031" stroke="#222120" stroke-linecap="round" stroke-linejoin="round"/>
<path d="M60.414 59.2029C59.5112 60.3527 58.9235 61.7178 58.7086 63.1637C58.4937 64.6097 58.6591 66.0867 59.1885 67.4493" stroke="#222120" stroke-linecap="round" stroke-linejoin="round"/>
<path d="M65.6016 56.875C65.4833 57.8625 65.7022 58.8609 66.2227 59.7084C66.7432 60.5558 67.5349 61.2025 68.4692 61.5435" stroke="#222120" stroke-linecap="round" stroke-linejoin="round"/>
<path d="M50.6484 66.9219C53.4179 70.3086 55.3267 74.3151 56.212 78.5993C57.0831 82.8679 57.7334 87.1786 58.1605 91.5143C60.2127 106.88 64.7227 121.815 71.5179 135.749C72.5473 137.881 73.6339 139.98 74.7776 142.047" stroke="#222120" stroke-linecap="round" stroke-linejoin="round"/>
<path d="M60.6953 48.6287C62.3129 49.854 64.5187 49.4129 66.6388 49.2536C67.938 49.0507 69.2681 49.2652 70.4377 49.8663C70.9088 50.1627 71.3236 50.5402 71.6631 50.9813C72.1208 51.5855 72.5306 52.2247 72.8886 52.8928C74.1141 55.2087 75.3395 57.7941 74.7268 60.3305C73.8077 63.8963 69.5676 65.6117 68.1093 68.7608C69.6549 80.3014 72.5547 91.6198 76.7488 102.482C78.4767 106.93 80.4252 111.623 79.6654 116.316L82.6555 121.977" stroke="#222120" stroke-linecap="round" stroke-linejoin="round"/>
<path d="M71.4242 135.798C68.4432 141.539 66.2935 147.674 65.0395 154.019C64.9342 154.418 64.8969 154.833 64.9293 155.244C64.9514 155.43 65.016 155.609 65.118 155.766C65.2199 155.923 65.3566 156.055 65.5174 156.151L65.6645 156.212C65.892 156.257 66.1267 156.251 66.3515 156.194C66.5762 156.137 66.7853 156.03 66.9635 155.882C68.4993 154.656 69.7077 153.069 70.4806 151.262C72.0369 148.235 73.4707 145.135 74.8309 142.023C77.6617 135.492 80.1494 128.777 82.6738 121.952L82.7596 121.695C85.9509 129.213 90.2148 136.23 95.4185 142.525C98.8008 146.618 102.612 150.441 105.222 155.073" stroke="#222120" stroke-linecap="round" stroke-linejoin="round"/>
<path d="M80.9419 137.87C78.3284 144.484 76.554 151.4 75.6602 158.455" stroke="#222120" stroke-linecap="round" stroke-linejoin="round"/>
<path d="M85.7341 135.333C84.141 145.258 82.8625 155.224 81.8984 165.231" stroke="#222120" stroke-linecap="round" stroke-linejoin="round"/>
<path d="M65.5156 156.2C69.7639 159.525 74.102 162.723 78.53 165.795" stroke="#222120" stroke-linecap="round" stroke-linejoin="round"/>
<path d="M81.1766 147.06C80.3556 153.37 79.5345 159.656 78.5664 165.795V166.028C78.921 169.659 79.6353 173.247 80.6987 176.737" stroke="#222120" stroke-linecap="round" stroke-linejoin="round"/>
<path d="M88.6639 141.042C88.0213 151.369 86.1327 161.581 83.0391 171.455" stroke="#222120" stroke-linecap="round" stroke-linejoin="round"/>
<path d="M93.0991 152.512C88.433 160.277 84.5496 168.487 81.5064 177.019C73.3621 199.695 71.1846 224.083 75.183 247.843" stroke="#222120" stroke-linecap="round" stroke-linejoin="round"/>
<path d="M81.6641 210.103C83.4983 224.423 89.0592 238.011 97.7911 249.509" stroke="#222120" stroke-linecap="round" stroke-linejoin="round"/>
<path d="M86.2969 177.717C87.1222 198.85 93.1951 219.446 103.968 237.647" stroke="#222120" stroke-linecap="round" stroke-linejoin="round"/>
<path d="M98.3945 201.611C103.747 216.711 112.561 230.349 124.129 241.434" stroke="#222120" stroke-linecap="round" stroke-linejoin="round"/>
<path d="M131.175 227.183C131.559 228.673 131.339 230.254 130.562 231.582" stroke="#222120" stroke-linecap="round" stroke-linejoin="round"/>
<path d="M108.641 114.343C109.208 113.971 109.897 113.831 110.565 113.951C111.227 114.072 111.821 114.434 112.231 114.968" stroke="#222120" stroke-width="0.5" stroke-linecap="round" stroke-linejoin="round"/>
<path d="M120.855 116.377C121.542 115.772 122.381 115.367 123.282 115.205C124.183 115.043 125.111 115.13 125.966 115.458C127.672 116.144 129.105 117.371 130.046 118.951" stroke="#222120" stroke-width="0.5" stroke-linecap="round" stroke-linejoin="round"/>
<path d="M119.199 124.036C119.451 123.311 119.806 122.626 120.253 122.002C120.723 121.401 121.378 120.971 122.116 120.777C123.002 120.612 123.917 120.801 124.665 121.304C125.41 121.796 126.069 122.409 126.613 123.117C127.308 123.939 127.959 124.798 128.562 125.69" stroke="#222120" stroke-width="0.5" stroke-linecap="round" stroke-linejoin="round"/>
<path d="M106.641 121.389C106.639 120.877 106.787 120.376 107.068 119.948C107.348 119.52 107.748 119.183 108.219 118.981C108.689 118.779 109.208 118.719 109.712 118.809C110.216 118.9 110.682 119.136 111.052 119.49C111.826 120.416 112.259 121.579 112.278 122.786" stroke="#222120" stroke-width="0.5" stroke-linecap="round" stroke-linejoin="round"/>
<path d="M109.226 125.224C108.536 125.585 107.911 126.057 107.375 126.621C107.12 126.865 106.938 127.174 106.848 127.515C106.822 127.71 106.838 127.908 106.895 128.096C106.952 128.285 107.049 128.458 107.179 128.606C107.424 128.91 107.718 129.171 108.049 129.378" stroke="#222120" stroke-width="0.5" stroke-linecap="round" stroke-linejoin="round"/>
<path d="M107.609 128.055C107.974 128.097 108.315 128.255 108.583 128.507C108.85 128.759 109.029 129.09 109.092 129.452" stroke="#222120" stroke-width="0.5" stroke-linecap="round" stroke-linejoin="round"/>
<path d="M112.168 128.68C112.622 128.572 113.1 128.628 113.516 128.839C113.935 129.058 114.258 129.425 114.423 129.868" stroke="#222120" stroke-width="0.5" stroke-linecap="round" stroke-linejoin="round"/>
<path d="M115.094 130.37C115.455 130.301 115.809 130.194 116.148 130.051C116.488 129.902 116.768 129.643 116.944 129.316C117.088 129.001 117.119 128.646 117.03 128.311C116.936 127.984 116.768 127.682 116.54 127.429" stroke="#222120" stroke-width="0.5" stroke-linecap="round" stroke-linejoin="round"/>
<path d="M105.391 130.199C104.998 130.784 104.499 131.291 103.92 131.694C103.694 131.806 103.497 131.97 103.347 132.174C103.197 132.377 103.098 132.614 103.059 132.864C103.019 133.113 103.04 133.369 103.119 133.609C103.199 133.849 103.335 134.066 103.516 134.243C103.921 134.693 104.368 135.103 104.852 135.468" stroke="#222120" stroke-width="0.5" stroke-linecap="round" stroke-linejoin="round"/>
<path d="M104.227 133.421C104.68 133.604 105.16 133.716 105.648 133.752C105.885 133.765 106.122 133.765 106.359 133.752H107.499C110.519 133.823 113.489 134.537 116.212 135.847C118.129 136.956 120.138 137.899 122.216 138.666C122.032 138.935 121.849 139.205 121.653 139.462C120.89 140.603 120.042 141.684 119.116 142.697L118.969 142.844C118.27 143.574 117.489 144.219 116.64 144.768C116.135 145.086 115.602 145.356 115.047 145.576C112.535 146.434 109.794 146.334 107.351 145.295C107.167 145.234 106.987 145.16 106.812 145.074C106.445 144.915 106.077 144.743 105.734 144.559" stroke="#222120" stroke-width="0.5" stroke-linecap="round" stroke-linejoin="round"/>
<path d="M105.636 133.948C105.501 137.723 105.88 141.499 106.763 145.172" stroke="#222120" stroke-width="0.5" stroke-linecap="round" stroke-linejoin="round"/>
<path d="M106.358 133.948C106.225 134.81 106.296 135.692 106.567 136.521C108.679 136.338 110.807 136.55 112.841 137.146C115.733 137.833 118.592 138.58 121.419 139.389" stroke="#222120" stroke-width="0.5" stroke-linecap="round" stroke-linejoin="round"/>
<path d="M109.422 143.641C111.789 144.172 114.182 144.581 116.591 144.867" stroke="#222120" stroke-width="0.5" stroke-linecap="round" stroke-linejoin="round"/>
<path d="M107.391 145.172L107.464 143.175C108.114 143.334 108.775 143.494 109.425 143.628" stroke="#222120" stroke-width="0.5" stroke-linecap="round" stroke-linejoin="round"/>
<path d="M121.453 135.995C122.081 136.773 122.476 137.712 122.593 138.705C122.71 139.698 122.545 140.704 122.115 141.607" stroke="#222120" stroke-width="0.5" stroke-linecap="round" stroke-linejoin="round"/>
<path d="M127.68 227.968C128.718 229.096 129.638 230.328 130.425 231.644C131.154 232.829 131.528 234.199 131.503 235.59C131.251 236.67 131.251 237.794 131.503 238.874C131.848 239.485 132.305 240.025 132.851 240.467C134.67 242.287 135.693 244.755 135.694 247.329" stroke="#222120" stroke-linecap="round" stroke-linejoin="round"/>
<path d="M108.014 113.644C107.814 113.477 107.651 113.27 107.534 113.037C107.417 112.805 107.348 112.551 107.332 112.29C107.316 112.03 107.353 111.77 107.44 111.524C107.528 111.279 107.665 111.054 107.842 110.863C107.492 110.322 107.339 109.677 107.408 109.037C107.477 108.397 107.765 107.8 108.222 107.346C108.076 107.113 107.979 106.853 107.938 106.581C107.897 106.308 107.912 106.031 107.984 105.765C108.055 105.499 108.181 105.251 108.352 105.036C108.524 104.821 108.738 104.644 108.982 104.516C108.819 104.25 108.721 103.949 108.698 103.638C108.674 103.326 108.726 103.014 108.847 102.727C109.176 102.089 109.718 101.586 110.379 101.305C110.036 100.386 110.563 99.2345 112.033 98.5606C111.986 98.2832 112.003 97.9988 112.082 97.7287C112.161 97.4586 112.299 97.2099 112.488 97.0012C112.677 96.7925 112.91 96.6292 113.171 96.5237C113.432 96.4181 113.713 96.373 113.994 96.3917C114.06 96.0977 114.184 95.8201 114.36 95.5753C114.536 95.3304 114.759 95.1235 115.016 94.9668C115.273 94.8101 115.56 94.7069 115.858 94.6633C116.156 94.6197 116.46 94.6366 116.751 94.713C116.827 94.4407 116.957 94.1863 117.132 93.9645C117.308 93.7427 117.526 93.558 117.773 93.4211C118.021 93.2843 118.293 93.198 118.574 93.1674C118.855 93.1368 119.139 93.1624 119.411 93.2427C119.741 92.6868 120.24 92.2499 120.834 91.9946C121.428 91.7392 122.088 91.6786 122.719 91.8213C123.222 90.939 124.447 90.596 126.151 91.3679C126.555 90.3386 127.927 89.8363 129.827 90.5347C130.055 90.3013 130.328 90.1158 130.629 89.9892C130.93 89.8626 131.253 89.7974 131.579 89.7974C131.906 89.7974 132.229 89.8626 132.53 89.9892C132.831 90.1158 133.104 90.3013 133.332 90.5347C134.165 89.6892 135.685 89.6402 137.462 90.5347C137.667 90.322 137.923 90.1646 138.206 90.0768C138.489 89.989 138.789 89.9736 139.079 90.0323C139.655 90.1426 140.158 90.5715 140.954 91.466C141.217 91.2724 141.522 91.1456 141.845 91.0965C142.167 91.0474 142.496 91.0774 142.805 91.1841C143.399 91.4015 143.887 91.8406 144.165 92.4094C145.464 92.1153 146.91 93.0099 147.841 94.6641C148.082 94.5077 148.359 94.4136 148.645 94.39C148.932 94.3665 149.22 94.4144 149.483 94.5293C150.03 94.8298 150.462 95.3041 150.709 95.8771C151.714 95.8771 152.669 96.6001 153.613 98.0582C153.896 97.9925 154.191 98.0045 154.467 98.0929C154.743 98.1814 154.99 98.343 155.182 98.5606C155.569 99.1484 155.766 99.8417 155.745 100.546C156.242 100.412 156.768 100.433 157.253 100.607C157.483 100.757 157.675 100.959 157.811 101.198C157.947 101.437 158.025 101.705 158.037 101.979C158.305 102.181 158.614 102.322 158.941 102.394C159.269 102.466 159.608 102.467 159.936 102.396C160.292 102.849 159.544 103.45 159.63 104.013C159.675 104.174 159.759 104.32 159.874 104.44C159.99 104.56 160.133 104.649 160.292 104.7C160.608 104.797 160.9 104.96 161.15 105.177C161.106 105.699 161.196 106.224 161.41 106.701C161.625 107.179 161.957 107.595 162.375 107.91C162.301 108.29 162.081 108.657 162.204 109.025C162.326 109.392 162.877 109.564 163.319 109.613C163.431 110.168 163.321 110.744 163.012 111.218C163.463 111.634 163.768 112.184 163.881 112.787C163.993 113.39 163.908 114.013 163.637 114.563C163.882 115.335 164.115 116.107 164.36 116.867C164.538 117.332 164.621 117.828 164.605 118.325C164.512 118.883 164.246 119.397 163.846 119.796C164.103 120.054 164.319 120.352 164.483 120.678C164.561 120.842 164.602 121.022 164.602 121.205C164.602 121.387 164.561 121.567 164.483 121.732C164.287 122.087 163.858 122.271 163.674 122.626C163.601 122.815 163.581 123.02 163.618 123.219C163.655 123.418 163.746 123.603 163.882 123.753C164.264 124.106 164.583 124.52 164.826 124.979C164.225 124.917 163.784 125.579 163.735 126.204C163.686 126.829 163.907 127.429 163.882 127.993C163.88 128.323 163.776 128.644 163.585 128.914C163.395 129.183 163.126 129.388 162.816 129.5C163.081 129.921 163.189 130.422 163.122 130.915C163.055 131.408 162.816 131.861 162.449 132.196" stroke="#222120" stroke-linecap="round" stroke-linejoin="round"/>
<path d="M145.867 149.179C146.39 149.435 146.992 149.476 147.546 149.296C148.099 149.115 148.561 148.726 148.833 148.212C149.052 148.368 149.311 148.46 149.58 148.475C149.849 148.49 150.117 148.428 150.352 148.297C150.844 147.887 151.22 147.354 151.443 146.753C151.894 146.854 152.367 146.777 152.762 146.537C153.157 146.297 153.444 145.914 153.563 145.467C154.383 145.341 155.22 145.399 156.014 145.638C155.865 145.078 155.844 144.492 155.953 143.923C156.014 143.58 156.357 143.359 156.676 143.224C157.016 143.136 157.342 142.999 157.644 142.82C157.793 142.675 157.903 142.494 157.963 142.295C158.023 142.095 158.031 141.884 157.987 141.68C158.239 141.709 158.494 141.658 158.717 141.536C158.939 141.413 159.118 141.224 159.228 140.995C159.338 140.766 159.375 140.509 159.333 140.259C159.29 140.008 159.171 139.777 158.992 139.597C159.527 139.454 159.997 139.133 160.326 138.688C160.655 138.243 160.824 137.7 160.805 137.147C161.104 137.249 161.431 137.233 161.718 137.1C162.004 136.967 162.229 136.729 162.344 136.436C162.459 136.142 162.457 135.814 162.337 135.522C162.217 135.23 161.989 134.996 161.7 134.868C162.065 134.701 162.351 134.401 162.502 134.03C162.652 133.658 162.655 133.244 162.509 132.87" stroke="#222120" stroke-linecap="round" stroke-linejoin="round"/>
<path d="M105.207 121.695C105.867 118.958 106.977 116.349 108.491 113.975C110.737 110.477 113.729 107.519 117.253 105.312C117.413 105.466 117.611 105.573 117.827 105.622C118.043 105.672 118.268 105.662 118.479 105.594C118.905 105.436 119.344 105.313 119.79 105.227C119.982 105.215 120.174 105.215 120.366 105.227C120.966 105.227 121.591 105.337 122.425 105.361C122.536 105.457 122.673 105.519 122.819 105.538C122.965 105.558 123.113 105.535 123.246 105.472C123.513 105.351 123.799 105.277 124.091 105.251C124.566 105.333 124.999 105.575 125.317 105.937C125.532 106.119 125.783 106.254 126.052 106.334C126.322 106.414 126.606 106.437 126.885 106.403C127.245 106.816 127.715 107.118 128.24 107.274C128.765 107.43 129.324 107.434 129.851 107.285C130.212 107.873 130.701 108.372 131.283 108.744C131.865 109.115 132.523 109.35 133.209 109.429C133.557 109.808 133.979 110.112 134.449 110.323C134.919 110.533 135.427 110.646 135.941 110.655C136.231 111.722 136.712 112.727 137.363 113.62C138.264 115.213 138.769 116.999 138.834 118.828" stroke="#222120" stroke-linecap="round" stroke-linejoin="round"/>
<path d="M162.215 131.411C162.215 131.044 162.35 130.664 162.411 130.284" stroke="#222120" stroke-linecap="round" stroke-linejoin="round"/>
<path d="M136.148 121.695C137.374 123.888 137.374 126.596 137.215 129.047C137.055 131.497 136.933 134.242 138.06 136.509" stroke="#222120" stroke-linecap="round" stroke-linejoin="round"/>
<path d="M105.156 121.904C102.397 125.406 100.829 129.7 100.684 134.157C100.561 138.727 101.909 143.188 103.306 147.538C103.698 149.168 104.424 150.699 105.438 152.034C106.423 153.111 107.701 153.878 109.115 154.24C109.446 154.338 109.789 154.424 110.132 154.497C111.26 154.707 112.403 154.826 113.551 154.853C117.221 155.031 120.896 154.592 124.421 153.554C127.974 152.498 131.139 150.423 133.526 147.587C133.826 148.259 134.26 148.863 134.802 149.362C135.343 149.862 135.981 150.245 136.675 150.491C136.925 150.594 137.183 150.676 137.447 150.736C139.177 151.084 140.97 150.935 142.619 150.307C143.479 149.991 144.301 149.58 145.069 149.081C146.365 148.308 147.474 147.258 148.317 146.006C149.001 145.005 149.45 143.862 149.63 142.663C149.81 141.465 149.717 140.241 149.359 139.083C149.022 138.061 148.391 137.161 147.545 136.497C146.772 135.961 145.888 135.605 144.959 135.456C142.664 134.954 140.264 135.316 138.219 136.473" stroke="#222120" stroke-linecap="round" stroke-linejoin="round"/>
<path d="M146.994 144.474C147.379 143.879 147.584 143.186 147.584 142.477C147.584 141.768 147.379 141.075 146.994 140.48C146.61 139.887 146.103 139.384 145.506 139.005C144.91 138.627 144.239 138.381 143.539 138.286C142.128 138.101 140.695 138.34 139.421 138.973C139.334 139 139.253 139.044 139.184 139.103C139.114 139.162 139.057 139.234 139.017 139.316C138.943 139.561 139.152 139.781 139.384 139.928L139.593 140.026C140.512 140.406 141.468 140.725 142.374 141.166C143.29 141.579 144.08 142.225 144.666 143.041C144.989 143.505 145.184 144.046 145.23 144.609C145.274 145.026 145.215 145.446 145.058 145.835C144.87 146.307 144.521 146.698 144.072 146.938C143.624 147.177 143.105 147.251 142.607 147.146C142.224 147.01 141.876 146.792 141.588 146.506C141.3 146.22 141.079 145.873 140.941 145.491C140.61 144.756 140.438 143.96 140.095 143.225C139.943 142.848 139.705 142.511 139.401 142.241C139.097 141.971 138.735 141.775 138.343 141.668H138.171C138.074 141.657 137.976 141.672 137.887 141.713C137.798 141.755 137.723 141.82 137.669 141.901C137.497 142.232 137.865 142.563 138.11 142.832C138.412 143.184 138.578 143.631 138.578 144.095C138.578 144.558 138.412 145.005 138.11 145.357C137.786 145.688 137.353 145.891 136.891 145.927C136.429 145.963 135.969 145.83 135.598 145.553" stroke="#222120" stroke-width="0.5" stroke-linecap="round" stroke-linejoin="round"/>
<path d="M109.227 120.788C108.975 121.152 108.819 121.573 108.773 122.013" stroke="#222120" stroke-linecap="round" stroke-linejoin="round"/>
<path d="M122.448 122.784C122.213 123.086 122.064 123.446 122.02 123.826" stroke="#222120" stroke-linecap="round" stroke-linejoin="round"/>
<path d="M109.066 154.643C107.84 154.937 106.615 155.256 105.389 155.599C103.478 156.114 101.586 156.677 99.7155 157.29C98.584 157.53 97.5657 158.143 96.8235 159.03C95.8676 160.488 96.5661 162.522 95.8063 164.091C95.0465 165.659 93.1716 166.235 91.4805 166.664C93.4408 166.806 95.4088 166.528 97.2535 165.85C99.0982 165.172 100.777 164.108 102.179 162.73" stroke="#222120" stroke-linecap="round" stroke-linejoin="round"/>
<path d="M98.1484 160.011C98.8418 159.683 99.6332 159.626 100.366 159.853C101.099 160.08 101.72 160.574 102.107 161.237C102.387 161.676 102.597 162.155 102.732 162.658C102.97 163.635 103.057 164.644 102.989 165.648C102.823 167.161 102.894 168.69 103.197 170.182C103.497 171.188 104.057 172.097 104.821 172.818C105.585 173.539 106.525 174.045 107.548 174.286" stroke="#222120" stroke-linecap="round" stroke-linejoin="round"/>
<path d="M110.011 155.061C109.455 157.244 108.454 159.288 107.07 161.065" stroke="#222120" stroke-linecap="round" stroke-linejoin="round"/>
<path d="M107.153 158.761C107.067 159.52 106.945 160.268 106.81 161.015C106.399 162.851 106.12 164.715 105.976 166.591C105.866 169.237 106.528 172.092 108.55 173.796" stroke="#222120" stroke-linecap="round" stroke-linejoin="round"/>
<path d="M129.163 158.137C130.091 158.607 130.922 159.247 131.614 160.024C132.43 160.93 133.045 161.999 133.415 163.161C133.784 164.35 133.884 165.605 133.709 166.837C133.583 167.845 133.271 168.821 132.79 169.717C131.808 171.205 130.748 172.64 129.616 174.018C129.073 174.735 128.683 175.557 128.472 176.432C128.261 177.307 128.234 178.216 128.391 179.103C127.71 179.08 127.047 178.882 126.465 178.528C125.883 178.173 125.403 177.675 125.07 177.081C124.322 175.941 123.93 174.63 123.293 173.405C123.026 172.777 122.63 172.214 122.129 171.751C121.628 171.289 121.035 170.938 120.389 170.721C119.678 170.625 118.955 170.675 118.264 170.866C117.573 171.058 116.929 171.388 116.369 171.836C115.058 172.694 113.918 173.711 112.558 174.557C111.307 175.419 109.855 175.946 108.342 176.088H108.195" stroke="#222120" stroke-linecap="round" stroke-linejoin="round"/>
<path d="M131.603 160.024C131.873 161.249 131.603 163.7 130.709 164.509C129.753 165.346 128.603 165.931 127.363 166.212L126.64 166.396C122.964 167.217 119.03 166.996 115.807 168.846C113.932 169.937 112.499 171.652 110.697 172.853C110.047 173.27 109.376 173.655 108.687 174.005L108.197 174.262L107.695 174.544C107.357 174.725 107.029 174.926 106.714 175.144C104.655 176.761 103.033 178.867 101.996 181.271C100.832 183.587 99.8887 186.025 98.5039 188.207" stroke="#222120" stroke-linecap="round" stroke-linejoin="round"/>
<path d="M136.567 150.724C136.357 150.956 136.1 151.14 135.812 151.262C135.524 151.385 135.213 151.444 134.9 151.434C134.338 151.347 133.785 151.212 133.246 151.03C129.65 155.316 127.358 160.542 126.641 166.089L126.751 165.991" stroke="#222120" stroke-linecap="round" stroke-linejoin="round"/>
<path d="M130.342 180.609C128.648 183.56 127.772 186.91 127.806 190.313" stroke="#222120" stroke-linecap="round" stroke-linejoin="round"/>
<path d="M140.842 182.373C136.997 184.743 133.614 187.79 130.855 191.366C130.462 191.881 130.082 192.396 129.715 192.923" stroke="#222120" stroke-linecap="round" stroke-linejoin="round"/>
<path d="M136.027 206.855C137.367 209.46 139.324 211.696 141.727 213.371C144.13 215.045 146.906 216.107 149.814 216.462" stroke="#222120" stroke-linecap="round" stroke-linejoin="round"/>
<path d="M136.82 196.648L154.712 215.592" stroke="#222120" stroke-linecap="round" stroke-linejoin="round"/>
<path d="M134.066 166.885C137.927 172.301 144.838 174.911 148.625 180.364C151.443 184.432 152.179 189.566 152.522 194.492C152.865 199.418 152.951 204.503 154.703 209.122C155.423 210.914 156.242 212.665 157.154 214.367C157.448 214.955 157.73 215.592 158 216.119C159.21 218.454 159.744 221.081 159.544 223.704C158.722 225.276 157.439 226.558 155.867 227.38" stroke="#222120" stroke-linecap="round" stroke-linejoin="round"/>
<path d="M159.592 223.741C159.372 222.636 158.73 221.661 157.803 221.021C156.88 220.389 155.85 219.928 154.764 219.661L154.311 219.55C151.346 218.79 148.252 218.681 145.242 219.232" stroke="#222120" stroke-linecap="round" stroke-linejoin="round"/>
<path d="M138.543 215.959H138.616H138.739L145.209 219.206L149.523 221.375C151.075 221.964 152.392 223.044 153.273 224.451" stroke="#222120" stroke-linecap="round" stroke-linejoin="round"/>
<path d="M154.249 219.808C154.823 222.348 155.265 224.917 155.573 227.503C155.783 229.326 155.804 231.165 155.634 232.992C155.551 234.345 155.206 235.669 154.617 236.889C154.022 238.118 152.971 239.067 151.688 239.536C151.052 239.746 150.37 239.773 149.719 239.613C149.069 239.452 148.477 239.111 148.012 238.629" stroke="#222120" stroke-linecap="round" stroke-linejoin="round"/>
<path d="M149.039 238.383L148.01 238.273C144.696 237.852 141.543 236.597 138.847 234.626C136.15 232.654 133.999 230.03 132.594 227" stroke="#222120" stroke-linecap="round" stroke-linejoin="round"/>
<path d="M130.794 223.471C130.116 224.057 129.239 224.36 128.343 224.317C128.061 224.317 127.767 224.316 127.486 224.218C124.438 223.892 121.465 223.064 118.687 221.768C116.448 220.815 114.487 219.31 112.988 217.393C112.257 216.425 111.777 215.29 111.591 214.09C111.405 212.891 111.519 211.664 111.922 210.519" stroke="#222120" stroke-linecap="round" stroke-linejoin="round"/>
<path d="M115.084 214.93C114.157 213.83 113.337 212.644 112.633 211.389C112.463 211.08 112.311 210.761 112.18 210.433C111.752 209.424 111.567 208.329 111.641 207.235C111.683 206.511 111.896 205.807 112.262 205.181C112.628 204.555 113.138 204.024 113.748 203.633" stroke="#222120" stroke-linecap="round" stroke-linejoin="round"/>
<path d="M118.355 210.237C117.74 208.859 116.913 207.585 115.904 206.463C115.168 205.587 114.603 204.582 114.238 203.498C114.136 203.134 114.082 202.759 114.078 202.382C114.073 201.776 114.204 201.177 114.461 200.628C114.717 200.079 115.093 199.594 115.561 199.209C115.948 198.888 116.399 198.654 116.885 198.523C117.621 198.327 118.401 198.366 119.115 198.633H119.188C119.507 199.811 120.178 200.863 121.112 201.647C122.045 202.43 123.055 203.116 124.127 203.694" stroke="#222120" stroke-linecap="round" stroke-linejoin="round"/>
<path d="M119.043 198.781C119.043 198.781 119.043 198.683 119.043 198.634C119.114 197.563 119.546 196.548 120.268 195.754C120.681 195.442 121.16 195.23 121.669 195.136C122.177 195.043 122.701 195.07 123.197 195.215C124.203 195.511 125.154 195.966 126.016 196.563L129.582 198.768C130.189 199.102 130.749 199.514 131.249 199.994C132.474 201.293 132.597 203.216 132.695 204.981" stroke="#222120" stroke-linecap="round" stroke-linejoin="round"/>
<path d="M116.738 197.923C116.196 197.567 115.75 197.083 115.439 196.514C115.295 196.226 115.259 195.895 115.338 195.583C115.416 195.27 115.604 194.996 115.868 194.811C116.468 194.492 117.191 194.811 117.877 194.811C118.776 194.681 119.587 194.201 120.132 193.475C120.677 192.747 121.428 192.2 122.289 191.907C123.191 191.837 124.091 192.065 124.85 192.556L128.882 194.566L129.519 194.884C130.836 195.45 132.043 196.242 133.085 197.225C133.262 197.409 133.426 197.605 133.575 197.813C134.596 199.333 135.154 201.116 135.181 202.947C135.17 205.018 135.056 207.087 134.838 209.147C134.739 210.495 134.813 211.849 135.058 213.178C135.202 213.89 135.432 214.582 135.745 215.237" stroke="#222120" stroke-linecap="round" stroke-linejoin="round"/>
<path d="M125.34 201.708C125.634 202.475 126.047 203.191 126.565 203.828" stroke="#222120" stroke-linecap="round" stroke-linejoin="round"/>
<path d="M119.777 207.541C119.805 208.294 120.081 209.018 120.562 209.599" stroke="#222120" stroke-linecap="round" stroke-linejoin="round"/>
<path d="M116.09 212.468C116.043 213.065 116.135 213.665 116.36 214.22C116.423 214.372 116.497 214.519 116.58 214.661" stroke="#222120" stroke-linecap="round" stroke-linejoin="round"/>
<path d="M131.553 218.496C131.516 218.436 131.491 218.369 131.48 218.3C131.458 218.177 131.469 218.05 131.514 217.934C131.558 217.817 131.634 217.715 131.732 217.638C131.831 217.561 131.948 217.512 132.072 217.497C132.196 217.482 132.321 217.501 132.435 217.552C132.51 217.581 132.578 217.627 132.631 217.687C132.765 217.779 132.862 217.916 132.904 218.073C132.947 218.23 132.932 218.397 132.863 218.544C132.794 218.691 132.675 218.809 132.527 218.876C132.379 218.944 132.212 218.956 132.055 218.912C131.944 218.89 131.839 218.84 131.752 218.767C131.664 218.695 131.596 218.601 131.553 218.496Z" stroke="#222120" stroke-width="0.5" stroke-linecap="round" stroke-linejoin="round"/>
<path d="M133.794 223.568C133.219 222.996 132.834 222.26 132.691 221.461C132.702 220.643 133.006 219.855 133.549 219.243C134.055 218.466 134.812 217.886 135.694 217.601C136.133 217.506 136.59 217.526 137.019 217.659C137.448 217.792 137.836 218.034 138.145 218.361C138.44 218.691 138.66 219.081 138.791 219.504C138.922 219.926 138.961 220.372 138.904 220.811C138.75 221.71 138.259 222.516 137.532 223.066C136.801 223.609 135.918 223.909 135.008 223.924C134.792 223.955 134.572 223.94 134.362 223.878C134.153 223.817 133.959 223.711 133.794 223.568Z" stroke="#222120" stroke-width="0.5" stroke-linecap="round" stroke-linejoin="round"/>
<path d="M131.344 218.655C130.907 219.399 130.675 220.244 130.67 221.106C130.596 221.802 130.715 222.506 131.013 223.14C131.034 223.189 131.063 223.235 131.099 223.275C131.345 223.679 131.675 224.025 132.067 224.292C132.793 224.795 133.638 225.099 134.518 225.174C135.038 225.225 135.563 225.196 136.074 225.088C136.748 224.943 137.386 224.666 137.952 224.273C138.518 223.879 139 223.378 139.37 222.797C140.116 221.617 140.375 220.194 140.093 218.827C139.958 218.07 139.615 217.365 139.101 216.793C138.922 216.609 138.725 216.445 138.513 216.303C137.717 215.791 136.768 215.574 135.829 215.69H135.718C134.498 215.91 133.385 216.531 132.557 217.454" stroke="#222120" stroke-width="0.5" stroke-linecap="round" stroke-linejoin="round"/>
<path d="M135.23 213.178C135.546 213.158 135.862 213.204 136.159 213.311C136.456 213.419 136.728 213.586 136.958 213.803C137.739 214.384 138.352 215.162 138.735 216.057" stroke="#222120" stroke-linecap="round" stroke-linejoin="round"/>
<path d="M127.461 224.77C127.963 225.555 128.683 226.176 129.532 226.559C129.806 226.695 130.099 226.786 130.402 226.829C130.65 226.859 130.901 226.859 131.15 226.829H131.48C131.825 226.794 132.165 226.728 132.498 226.633C132.741 226.583 132.979 226.509 133.208 226.412C133.695 226.245 134.121 225.938 134.434 225.53" stroke="#222120" stroke-linecap="round" stroke-linejoin="round"/>
<path d="M136.785 120.2L137.312 120.862C137.484 121.082 137.643 121.315 137.802 121.56C138.11 122.035 138.393 122.526 138.648 123.031" stroke="#222120" stroke-width="0.5" stroke-linecap="round" stroke-linejoin="round"/>
<path d="M137.52 118.828L137.887 119.465C138.169 119.955 138.463 120.445 138.794 120.911C138.929 121.131 139.076 121.352 139.223 121.56" stroke="#222120" stroke-width="0.5" stroke-linecap="round" stroke-linejoin="round"/>
<path d="M16.6562 34.8684C21.6398 39.1652 26.4722 43.6336 31.1534 48.2735C35.8837 52.9665 40.4669 57.831 44.854 62.8549" stroke="#222120" stroke-width="0.5" stroke-linecap="round" stroke-linejoin="round"/>
<path d="M30.4531 48.9837L31.1516 48.273C37.6313 41.7004 44.7774 35.8198 52.4745 30.7263" stroke="#222120" stroke-width="0.5" stroke-linecap="round" stroke-linejoin="round"/>
<path d="M40.5858 39.4382C39.9737 37.4938 38.9354 35.7105 37.5466 34.2183C37.3498 33.9917 37.1008 33.8165 36.8211 33.7076C36.5415 33.5987 36.2395 33.5595 35.9413 33.5933C35.646 33.6982 35.3941 33.8986 35.2254 34.1627C35.0568 34.4268 34.981 34.7395 35.01 35.0515C35.0898 35.6794 35.3493 36.2709 35.7575 36.7547C36.2959 37.5488 37.0134 38.2053 37.852 38.6714C38.6906 39.1375 39.627 39.4001 40.5858 39.4382Z" stroke="#222120" stroke-width="0.5" stroke-linecap="round" stroke-linejoin="round"/>
<path d="M44.4219 36.731C44.8481 38.1478 45.4491 39.5062 46.211 40.7746C46.5053 41.3225 46.9252 41.7928 47.4365 42.147C47.7011 42.3121 48.0068 42.3996 48.3188 42.3996C48.6308 42.3996 48.9365 42.3121 49.2011 42.147C49.4384 41.9484 49.6133 41.6854 49.7046 41.3897C49.7959 41.0941 49.7998 40.7783 49.7158 40.4805C49.5388 39.8848 49.1993 39.3502 48.7355 38.9366C47.544 37.7959 46.0444 37.029 44.4219 36.731Z" stroke="#222120" stroke-width="0.5" stroke-linecap="round" stroke-linejoin="round"/>
<path d="M54.4095 25.0774C54.1583 25.7076 54.0606 26.3884 54.1245 27.0638C54.1884 27.7392 54.4121 28.3898 54.7772 28.9617C55.1527 29.5258 55.6555 29.9938 56.2451 30.328C56.8348 30.6621 57.4947 30.8531 58.1717 30.8854" stroke="#222120" stroke-width="0.5" stroke-linecap="round" stroke-linejoin="round"/>
<path d="M60.1823 23.3374C59.4691 23.7313 58.8169 24.2266 58.2461 24.8078H58.3441" stroke="#222120" stroke-width="0.5" stroke-linecap="round" stroke-linejoin="round"/>
<path d="M62.4036 26.4136C61.7774 26.9282 61.0744 27.3416 60.3203 27.6389" stroke="#222120" stroke-width="0.5" stroke-linecap="round" stroke-linejoin="round"/>
<path d="M58.9941 19.5515H58.8348C58.1879 19.6443 57.5517 19.8003 56.9353 20.0171C56.5518 20.1375 56.1788 20.2892 55.8201 20.4705C55.0151 20.8317 54.2611 21.2973 53.5776 21.8551C53.2717 22.0939 52.9849 22.3561 52.7197 22.6393L52.3766 22.9824C52.0455 23.3601 51.7539 23.7707 51.5065 24.2078C51.2724 24.5885 51.0949 25.0012 50.9796 25.4331C50.9398 25.5702 50.907 25.7093 50.8815 25.8497C50.7895 26.3726 50.7895 26.9075 50.8815 27.4304C50.929 27.7157 51.007 27.995 51.1144 28.2636C51.2833 28.793 51.5093 29.3025 51.7884 29.783L51.9722 30.0893C52.1193 30.3466 52.2786 30.604 52.4501 30.849C52.5791 31.0549 52.7224 31.2515 52.879 31.4372C53.3414 32.0505 53.8718 32.6096 54.4599 33.1037C54.7211 33.3203 54.9953 33.5208 55.2809 33.7041C55.4157 33.8021 55.5751 33.8878 55.7221 33.9736C56.2162 34.2451 56.7379 34.4629 57.2784 34.6231C57.746 34.7611 58.2264 34.8514 58.7122 34.8926C59.2366 34.9662 59.7687 34.9662 60.2931 34.8926C60.6438 34.8346 60.9884 34.7444 61.3224 34.6231C61.5402 34.5417 61.753 34.4476 61.9597 34.3412C62.6421 33.9753 63.2625 33.5039 63.7979 32.9444C64.2887 32.432 64.7241 31.8694 65.0968 31.2657L65.1581 31.1799C65.6123 30.4974 65.9248 29.7307 66.0772 28.9252C66.1943 27.8125 66.0168 26.6885 65.5625 25.6659C65.3436 25.0993 65.0813 24.5503 64.7782 24.0239C64.3785 23.321 63.8928 22.6707 63.3322 22.088C63.1974 21.9409 63.0503 21.7938 62.9033 21.659L62.2905 21.1567C61.7989 20.7967 61.2687 20.4926 60.7097 20.25C60.1799 19.9249 59.6003 19.689 58.9941 19.5515Z" stroke="#222120" stroke-width="0.5" stroke-linecap="round" stroke-linejoin="round"/>
<path d="M58.9943 19.527C59.11 17.9312 58.8146 16.3323 58.1365 14.8831C57.9308 14.3662 57.6126 13.9016 57.2051 13.5229C56.9875 13.3043 56.7097 13.1553 56.4072 13.0949C56.1046 13.0344 55.791 13.0652 55.506 13.1834C55.221 13.3016 54.9776 13.5018 54.8067 13.7586C54.6357 14.0154 54.545 14.3172 54.5459 14.6257C54.5065 15.2928 54.6373 15.959 54.9258 16.5617C55.402 17.7428 56.0593 18.8425 56.8743 19.8211" stroke="#222120" stroke-width="0.5" stroke-linecap="round" stroke-linejoin="round"/>
<path d="M55.7966 20.3481C55.1727 18.9618 54.3145 17.6934 53.2599 16.5986C52.7551 15.9899 52.0675 15.5602 51.2991 15.3732C50.9152 15.2958 50.5163 15.3648 50.1807 15.5666C49.8451 15.7684 49.5971 16.0884 49.4855 16.4638C49.4511 16.9588 49.5945 17.4498 49.8899 17.8484C50.8659 19.2799 52.0562 20.5528 53.4192 21.6225" stroke="#222120" stroke-width="0.5" stroke-linecap="round" stroke-linejoin="round"/>
<path d="M52.6863 22.5786C51.732 21.4327 50.5061 20.5438 49.1202 19.9932C48.6452 19.775 48.121 19.6862 47.6007 19.7358C47.341 19.7615 47.0953 19.8655 46.8962 20.034C46.697 20.2025 46.5538 20.4276 46.4855 20.6793C46.4748 20.982 46.5412 21.2825 46.6784 21.5525C46.8156 21.8225 47.019 22.0533 47.2698 22.2233C48.3817 23.1921 49.7624 23.799 51.228 23.9632" stroke="#222120" stroke-width="0.5" stroke-linecap="round" stroke-linejoin="round"/>
<path d="M50.6491 25.1997C49.117 24.5908 47.4619 24.3556 45.8208 24.5136C45.3863 24.5509 44.9666 24.6894 44.5953 24.9179C44.4108 25.0332 44.2552 25.1892 44.1404 25.374C44.0257 25.5588 43.955 25.7675 43.9336 25.984C43.9367 26.2292 44.0011 26.4698 44.121 26.6838C44.2408 26.8979 44.4123 27.0785 44.6198 27.2093C45.032 27.4542 45.4915 27.6088 45.9679 27.6627C47.6037 27.9367 49.2807 27.8319 50.8697 27.3563" stroke="#222120" stroke-width="0.5" stroke-linecap="round" stroke-linejoin="round"/>
<path d="M51.004 28.1897C50.109 28.2848 49.2287 28.4864 48.3815 28.7901C47.444 29.1092 46.6355 29.7241 46.0777 30.5423C45.9295 30.7372 45.8336 30.9667 45.7993 31.2091C45.765 31.4515 45.7933 31.6986 45.8816 31.9269C45.9792 32.0742 46.1074 32.1986 46.2576 32.2917C46.4078 32.3847 46.5763 32.4442 46.7517 32.4661C47.1076 32.4989 47.4666 32.4572 47.8056 32.3436C49.3325 31.9267 50.731 31.1348 51.874 30.04" stroke="#222120" stroke-width="0.5" stroke-linecap="round" stroke-linejoin="round"/>
<path d="M52.8585 31.3516C51.6001 32.135 50.509 33.1594 49.6478 34.3658C49.4158 34.659 49.2374 34.9909 49.1208 35.3461C49.0705 35.5264 49.0576 35.715 49.0829 35.9005C49.1082 36.0859 49.1712 36.2642 49.2679 36.4244C49.4226 36.6107 49.6258 36.7505 49.8551 36.8284C50.0844 36.9062 50.3307 36.9191 50.5669 36.8655C51.0228 36.7472 51.4433 36.5201 51.7923 36.2038C52.8355 35.3753 53.6916 34.3355 54.3045 33.1528" stroke="#222120" stroke-width="0.5" stroke-linecap="round" stroke-linejoin="round"/>
<path d="M55.2321 33.7041C54.4673 34.5908 53.8844 35.6191 53.5164 36.7306C53.2832 37.3048 53.1988 37.9287 53.2713 38.5442C53.3134 38.8512 53.4366 39.1414 53.6283 39.3848C53.8201 39.6282 54.0733 39.816 54.362 39.9288C54.7482 40.0144 55.1519 39.9723 55.5121 39.8088C55.8723 39.6452 56.1697 39.3692 56.3595 39.0221C56.7292 38.3249 56.9425 37.5555 56.9845 36.7674L57.2418 34.6966" stroke="#222120" stroke-width="0.5" stroke-linecap="round" stroke-linejoin="round"/>
<path d="M58.725 34.892C58.3044 35.7205 58.0975 36.6409 58.1232 37.5696C58.1489 38.4984 58.4063 39.406 58.872 40.21C58.9532 40.3909 59.0732 40.5516 59.2236 40.6808C59.374 40.81 59.551 40.9045 59.7421 40.9574C59.9726 40.9613 60.1994 40.9001 60.3967 40.7809C60.5939 40.6617 60.7536 40.4893 60.8573 40.2835C61.3095 39.4199 61.4147 38.4161 61.1514 37.4775C60.9553 36.534 60.5632 35.6395 60.3181 34.7083" stroke="#222120" stroke-width="0.5" stroke-linecap="round" stroke-linejoin="round"/>
<path d="M61.9219 34.1331C62.5812 36.0304 63.8365 37.6638 65.5002 38.7894C65.816 39.0427 66.2106 39.1771 66.6154 39.1692C66.8527 39.1304 67.0735 39.0225 67.25 38.8591C67.4265 38.6956 67.551 38.4839 67.608 38.2502C67.7192 37.7764 67.6806 37.2798 67.4977 36.8288C66.8727 35.0153 65.537 34.0841 63.9806 32.9568" stroke="#222120" stroke-width="0.5" stroke-linecap="round" stroke-linejoin="round"/>
<path d="M4.16797 41.0681C7.89335 38.3806 11.6432 35.7257 15.4176 33.1035C29.6901 23.1456 44.2158 13.5594 58.9948 4.34497" stroke="#222120" stroke-width="0.5" stroke-linecap="round" stroke-linejoin="round"/>
<path d="M2.81908 43.2002C2.74872 44.6604 3.24479 46.0914 4.20385 47.1948C4.2487 45.7384 3.75576 44.3164 2.81908 43.2002Z" stroke="#222120" stroke-width="0.5" stroke-linecap="round" stroke-linejoin="round"/>
<path d="M4.55078 47.1338C5.5815 48.0115 6.5105 49.002 7.32032 50.0868C15.2307 59.8283 24.1348 68.7191 33.8882 76.6152C34.5867 77.0073 35.4322 76.4927 36.0695 76.0026L62.0369 55.8826" stroke="#222120" stroke-width="0.5" stroke-linecap="round" stroke-linejoin="round"/>
<path d="M71.0781 49.6577C76.8991 45.2563 82.9491 41.1662 89.2026 37.4044C88.9238 37.1144 88.708 36.7698 88.5688 36.3923C88.4296 36.0148 88.37 35.6126 88.3938 35.211C88.3873 35.0927 88.3873 34.9741 88.3938 34.8557" stroke="#222120" stroke-width="0.5" stroke-linecap="round" stroke-linejoin="round"/>
<path d="M65.2461 31.0205C66.5967 32.4506 68.3267 33.4664 70.2337 33.9491C70.7004 34.1206 71.213 34.1206 71.6797 33.9491C72.0087 33.7518 72.2548 33.4417 72.372 33.0764C72.4893 32.7112 72.4697 32.3159 72.317 31.964C71.9837 31.2667 71.4391 30.6922 70.7606 30.3221C69.3926 29.4728 67.8516 28.941 66.251 28.7659" stroke="#222120" stroke-width="0.5" stroke-linecap="round" stroke-linejoin="round"/>
<path d="M66.0798 27.0139C67.9883 27.346 69.9523 27.1117 71.7291 26.34C72.0316 26.2504 72.3099 26.0936 72.5433 25.8815C72.7767 25.6693 72.9592 25.4072 73.0771 25.1147C73.1291 24.7903 73.0718 24.4579 72.9143 24.1696C72.7569 23.8812 72.5081 23.6534 72.2071 23.5217C71.5944 23.2668 70.917 23.211 70.2708 23.3624C68.6929 23.7196 67.1771 24.3101 65.7734 25.1147L66.0798 27.0139Z" stroke="#222120" stroke-width="0.5" stroke-linecap="round" stroke-linejoin="round"/>
<path d="M65.1332 23.7422C66.5407 23.322 67.8907 22.7294 69.1527 21.9777C69.5621 21.7555 69.9309 21.4655 70.2433 21.12C70.3904 20.9534 70.503 20.7594 70.5745 20.5491C70.646 20.3388 70.6751 20.1163 70.66 19.8946C70.5967 19.6153 70.4564 19.3593 70.2549 19.1557C70.0535 18.9521 69.799 18.8091 69.5203 18.7428C68.9629 18.613 68.3776 18.6824 67.8659 18.9389C67.353 19.1868 66.8716 19.4953 66.4321 19.8579L63.7852 21.8552" stroke="#222120" stroke-width="0.5" stroke-linecap="round" stroke-linejoin="round"/>
<path d="M62.3419 20.9241C63.2 20.0938 63.9346 19.1447 64.5232 18.1059C64.8167 17.5845 64.9949 17.0062 65.0457 16.4101C65.0964 15.8139 65.0185 15.2139 64.8173 14.6504C64.7222 14.3677 64.5524 14.1159 64.3259 13.9218C64.0993 13.7276 63.8245 13.5983 63.5305 13.5476C63.2743 13.5617 63.0243 13.6315 62.7978 13.7522C62.5714 13.8728 62.3739 14.0413 62.2193 14.2461C61.5738 15.0215 61.1503 15.9573 60.9938 16.9541C60.8322 17.9421 60.7625 18.943 60.7855 19.9439" stroke="#222120" stroke-width="0.5" stroke-linecap="round" stroke-linejoin="round"/>
<path d="M106.441 177.742C106.267 177.791 106.112 177.891 105.994 178.029C105.876 178.166 105.802 178.336 105.78 178.515C105.758 178.695 105.79 178.877 105.871 179.039C105.953 179.201 106.08 179.335 106.237 179.424C106.395 179.514 106.575 179.555 106.756 179.543C106.936 179.53 107.109 179.465 107.253 179.354C107.396 179.244 107.504 179.094 107.562 178.922C107.621 178.751 107.627 178.566 107.581 178.391C107.51 178.158 107.352 177.961 107.14 177.84C106.928 177.72 106.678 177.684 106.441 177.742Z" stroke="#222120" stroke-linecap="round" stroke-linejoin="round"/>
<path d="M61.3332 49.7068C61.2535 50.243 61.2535 50.788 61.3332 51.3242C61.3845 51.5844 61.4937 51.8297 61.6528 52.0418C61.812 52.254 62.0169 52.4275 62.2523 52.5496C62.5961 52.6782 62.975 52.677 63.318 52.5461C63.6609 52.4153 63.9443 52.1638 64.115 51.8388C64.2715 51.5058 64.3359 51.1369 64.3014 50.7706C64.2669 50.4042 64.1348 50.0538 63.9189 49.7558" stroke="#222120" stroke-linecap="round" stroke-linejoin="round"/>
</svg>
