<svg width="239" height="374" viewBox="0 0 239 374" fill="none" xmlns="http://www.w3.org/2000/svg">
<path d="M198.978 175.468L200.414 174.528C199.935 173.855 199.51 173.145 199.102 172.436L200.556 171.585C200.462 168.938 199.732 166.353 198.428 164.049C197.486 162.756 196.789 161.301 196.371 159.757C195.626 159.745 194.891 159.582 194.211 159.277C193.531 158.972 192.921 158.532 192.416 157.984C191.424 157.868 190.471 157.529 189.629 156.991C188.788 156.454 188.079 155.732 187.557 154.881C186.794 155.096 185.986 155.091 185.226 154.865C184.466 154.639 183.786 154.202 183.265 153.604C182.861 153.654 182.45 153.62 182.06 153.504C181.669 153.388 181.307 153.193 180.995 152.93C180.535 152.406 179.909 152.056 179.222 151.937C178.799 151.975 178.385 152.083 177.998 152.257C177.806 152.348 177.591 152.381 177.38 152.353C177.169 152.325 176.971 152.236 176.81 152.097C175.586 152.097 174.7 151.991 173.831 151.902C173.553 151.884 173.275 151.884 172.997 151.902C172.351 152.027 171.717 152.205 171.1 152.434C170.795 152.533 170.469 152.547 170.156 152.475C169.844 152.403 169.557 152.248 169.326 152.026C164.202 155.188 159.841 159.445 156.557 164.492L155.813 164.013C155.524 163.77 155.288 163.472 155.118 163.135C154.948 162.798 154.849 162.43 154.826 162.054C154.802 161.677 154.856 161.3 154.983 160.945C155.11 160.59 155.308 160.264 155.564 159.988C155.058 159.205 154.836 158.272 154.936 157.346C155.036 156.419 155.452 155.555 156.114 154.899C155.902 154.562 155.762 154.184 155.703 153.791C155.643 153.397 155.666 152.995 155.769 152.611C155.872 152.226 156.054 151.867 156.303 151.556C156.551 151.245 156.861 150.988 157.214 150.803C156.977 150.418 156.837 149.982 156.803 149.532C156.769 149.081 156.843 148.63 157.019 148.214C157.495 147.29 158.279 146.563 159.235 146.157C158.739 144.827 159.501 143.16 161.629 142.185C161.562 141.783 161.586 141.372 161.7 140.981C161.814 140.59 162.015 140.23 162.288 139.928C162.561 139.626 162.899 139.39 163.276 139.237C163.653 139.084 164.061 139.019 164.467 139.046C164.562 138.621 164.742 138.219 164.996 137.864C165.251 137.51 165.574 137.211 165.946 136.984C166.318 136.757 166.733 136.608 167.164 136.545C167.596 136.482 168.035 136.506 168.457 136.617C168.567 136.223 168.755 135.854 169.009 135.533C169.262 135.212 169.578 134.945 169.936 134.747C170.294 134.549 170.688 134.424 171.095 134.38C171.501 134.336 171.913 134.373 172.305 134.489C172.784 133.684 173.505 133.052 174.365 132.683C175.226 132.313 176.181 132.225 177.094 132.432C177.821 131.155 179.594 130.659 182.059 131.776C182.644 130.286 184.631 129.559 187.379 130.57C187.71 130.232 188.104 129.964 188.54 129.781C188.975 129.597 189.443 129.503 189.915 129.503C190.388 129.503 190.856 129.597 191.291 129.781C191.727 129.964 192.121 130.232 192.451 130.57C193.657 129.346 195.856 129.276 198.428 130.57C198.726 130.262 199.096 130.034 199.505 129.907C199.914 129.78 200.349 129.758 200.769 129.843C201.602 130.002 202.329 130.623 203.482 131.918C203.862 131.638 204.304 131.454 204.771 131.383C205.237 131.312 205.714 131.355 206.16 131.51C207.02 131.824 207.726 132.46 208.128 133.283C210.008 132.857 212.101 134.152 213.449 136.546C213.798 136.319 214.198 136.183 214.612 136.149C215.027 136.115 215.444 136.184 215.825 136.351C216.617 136.786 217.241 137.472 217.598 138.301C219.053 138.301 220.436 139.348 221.801 141.458C222.21 141.363 222.637 141.38 223.037 141.508C223.436 141.636 223.794 141.87 224.071 142.185C224.633 143.035 224.918 144.039 224.887 145.057C225.606 144.864 226.367 144.895 227.069 145.146C227.402 145.363 227.679 145.656 227.876 146.002C228.074 146.347 228.186 146.734 228.204 147.132C228.592 147.424 229.038 147.628 229.512 147.732C229.987 147.836 230.478 147.837 230.952 147.735C231.467 148.391 230.385 149.26 230.509 150.076C230.574 150.307 230.695 150.519 230.862 150.693C231.03 150.866 231.237 150.995 231.467 151.069C231.924 151.209 232.347 151.445 232.708 151.76C232.646 152.515 232.775 153.274 233.086 153.966C233.396 154.657 233.876 155.259 234.481 155.714C234.375 156.264 234.056 156.796 234.233 157.328C234.41 157.86 235.209 158.108 235.847 158.179C236.01 158.982 235.85 159.816 235.404 160.502C236.056 161.104 236.497 161.9 236.66 162.772C236.823 163.645 236.7 164.547 236.308 165.343C236.663 166.46 237 167.577 237.354 168.677C237.611 169.35 237.732 170.067 237.709 170.787C237.574 171.594 237.189 172.338 236.61 172.915C236.983 173.289 237.294 173.72 237.532 174.192C237.645 174.43 237.704 174.69 237.704 174.954C237.704 175.218 237.645 175.478 237.532 175.717C237.248 176.231 236.627 176.497 236.361 177.011C236.255 177.284 236.227 177.581 236.28 177.869C236.333 178.158 236.466 178.425 236.663 178.642C237.215 179.152 237.676 179.752 238.028 180.416C237.159 180.327 236.521 181.284 236.45 182.189C236.379 183.093 236.698 183.962 236.663 184.778C236.659 185.255 236.509 185.72 236.233 186.11C235.957 186.5 235.569 186.796 235.12 186.959C235.503 187.568 235.66 188.293 235.562 189.006C235.465 189.719 235.12 190.375 234.588 190.86V191.782C234.799 192.322 234.795 192.922 234.578 193.46C234.36 193.997 233.945 194.431 233.417 194.672C233.835 194.858 234.165 195.197 234.339 195.62C234.513 196.042 234.516 196.516 234.349 196.941C234.182 197.367 233.858 197.711 233.443 197.903C233.028 198.095 232.555 198.119 232.123 197.971C232.15 198.771 231.906 199.558 231.429 200.202C230.953 200.846 230.272 201.309 229.498 201.517C229.758 201.777 229.93 202.112 229.991 202.474C230.052 202.836 230 203.209 229.84 203.54C229.68 203.871 229.422 204.144 229.1 204.322C228.778 204.499 228.409 204.573 228.044 204.532C228.108 204.826 228.096 205.132 228.009 205.42C227.922 205.709 227.763 205.971 227.547 206.181C227.11 206.44 226.638 206.637 226.146 206.766C225.685 206.961 225.189 207.28 225.1 207.777C224.943 208.6 224.974 209.449 225.189 210.259C224.04 209.913 222.828 209.828 221.642 210.011C221.47 210.657 221.055 211.212 220.483 211.56C219.911 211.907 219.227 212.019 218.574 211.873C218.251 212.742 217.707 213.513 216.996 214.107C216.655 214.297 216.267 214.386 215.878 214.364C215.489 214.342 215.114 214.21 214.797 213.983C214.403 214.728 213.735 215.29 212.934 215.552C212.133 215.813 211.262 215.753 210.505 215.384H209.352C211.227 214.264 212.832 212.745 214.052 210.933C215.041 209.484 215.691 207.831 215.952 206.096C216.213 204.361 216.078 202.59 215.559 200.914C215.072 199.435 214.159 198.134 212.934 197.173C211.815 196.397 210.537 195.882 209.192 195.665C205.871 194.939 202.398 195.463 199.439 197.137H199.208C197.577 193.857 197.789 190.044 197.984 186.338C198.18 182.632 198.286 178.784 196.442 175.699L198.126 174.511C198.517 174.777 198.747 175.114 198.978 175.468Z" fill="#1D1D1B"/>
<path d="M228.292 312.327C230.044 315.707 230.817 319.508 230.527 323.303C230.208 321.705 229.279 320.293 227.938 319.366C226.602 318.452 225.112 317.785 223.54 317.398L222.883 317.239C218.594 316.138 214.116 315.981 209.76 316.778V316.884L200.325 312.203C199.771 310.907 198.884 309.781 197.754 308.94C197.421 308.626 197.027 308.385 196.597 308.229C196.167 308.074 195.71 308.008 195.254 308.036H195.005C194.65 306.112 194.543 304.152 194.686 302.202C195.002 299.221 195.168 296.226 195.183 293.229C195.144 290.58 194.337 287.999 192.859 285.799L197.559 284.026L223.451 311.44L226.998 309.667C227.494 310.642 227.902 311.476 228.292 312.327Z" fill="#878787"/>
<path d="M227.92 319.402C229.261 320.329 230.19 321.74 230.509 323.339C229.32 325.614 227.464 327.47 225.189 328.659H224.728C224.282 324.916 223.643 321.199 222.812 317.523V317.15L223.469 317.31C225.068 317.729 226.577 318.438 227.92 319.402Z" fill="black"/>
<path d="M188.921 276.49L184.505 274.966C184.457 270.041 185.724 265.193 188.176 260.922L185.303 258.723C185.076 257.44 185.116 256.124 185.421 254.858C185.726 253.592 186.29 252.402 187.077 251.364C188.715 249.371 190.248 247.293 191.67 245.14C192.366 243.844 192.817 242.432 193 240.973H193.532C199.118 248.81 209.12 252.587 214.6 260.478C218.679 266.365 219.743 273.795 220.24 280.924C220.736 288.052 220.86 295.411 223.396 302.096C224.439 304.689 225.623 307.223 226.943 309.685L223.396 311.459L197.504 284.044L192.805 285.818C192.589 285.518 192.352 285.233 192.095 284.967C190.586 283.545 188.84 282.398 186.935 281.58L186.013 281.119L187.219 278.689C187.804 277.98 188.354 277.235 188.921 276.49Z" fill="#878787"/>
<path d="M202.203 316.228C202.612 318.207 202.237 320.266 201.157 321.974C200.621 322.814 199.923 323.54 199.104 324.11C198.285 324.679 197.362 325.08 196.387 325.29C195.647 325.446 194.887 325.487 194.134 325.414C192.861 325.305 191.638 324.865 190.588 324.137C190.021 323.751 189.544 323.25 189.187 322.665C189.135 322.607 189.093 322.541 189.062 322.47C188.631 321.553 188.459 320.535 188.566 319.526C188.573 318.279 188.91 317.056 189.541 315.98L189.843 315.803C189.916 315.939 190.019 316.057 190.145 316.146C190.272 316.235 190.417 316.294 190.57 316.317C190.796 316.381 191.038 316.362 191.252 316.265C191.466 316.167 191.638 315.997 191.738 315.784C191.839 315.571 191.86 315.329 191.798 315.102C191.737 314.875 191.597 314.677 191.403 314.544C191.325 314.457 191.228 314.391 191.12 314.349L191.208 314.171C192.407 312.835 194.017 311.936 195.784 311.618H195.943C197.302 311.45 198.676 311.764 199.827 312.504C200.135 312.711 200.42 312.948 200.678 313.214C201.466 314.051 201.996 315.098 202.203 316.228ZM200.607 319.172C200.689 318.536 200.633 317.891 200.443 317.279C200.254 316.667 199.935 316.103 199.508 315.625C199.061 315.152 198.5 314.802 197.879 314.61C197.257 314.417 196.597 314.388 195.961 314.526C194.685 314.939 193.589 315.778 192.857 316.902C192.072 317.788 191.631 318.927 191.616 320.112C191.823 321.268 192.38 322.333 193.212 323.162C193.447 323.383 193.727 323.551 194.034 323.652C194.34 323.753 194.665 323.785 194.986 323.747C196.303 323.726 197.581 323.291 198.639 322.506C199.7 321.689 200.405 320.495 200.607 319.172Z" fill="#3773FF"/>
<path d="M200.147 312.202L199.916 312.646C198.765 311.905 197.391 311.591 196.032 311.759V311.156C195.58 310.208 195.246 309.207 195.039 308.177H195.287C195.744 308.149 196.201 308.215 196.631 308.371C197.061 308.526 197.455 308.768 197.788 309.081C198.918 309.923 199.805 311.049 200.359 312.344L200.147 312.202Z" fill="#3773FF"/>
<path d="M188.3 334.794C189.356 336.509 189.897 338.49 189.861 340.504C189.496 342.067 189.496 343.693 189.861 345.256C190.36 346.14 191.022 346.922 191.812 347.561C194.444 350.196 195.924 353.767 195.926 357.491H195.394C195.642 362.279 192.468 366.783 188.3 369.283C184.054 371.577 179.328 372.84 174.503 372.971C166.549 373.429 158.571 373.15 150.668 372.138C137.931 370.948 125.391 368.178 113.338 363.892C111.152 363.286 109.192 362.053 107.699 360.346C107.59 360.224 107.508 360.08 107.459 359.924C107.41 359.768 107.395 359.604 107.415 359.442C107.415 359.14 107.929 358.91 108.142 359.158L107.805 358.537L108.231 358.307C102.444 323.923 105.595 288.629 117.381 255.814L116.158 255.37C114.619 250.319 113.585 245.128 113.072 239.872V239.536C106.664 235.091 100.386 230.462 94.2383 225.651L94.4511 225.74C94.7804 225.805 95.12 225.796 95.4452 225.713C95.7705 225.63 96.0731 225.476 96.331 225.261C98.5536 223.487 100.302 221.19 101.421 218.576C103.673 214.196 105.748 209.71 107.716 205.206C111.813 195.754 115.413 186.037 119.066 176.16L119.314 175.664C123.933 186.544 130.103 196.698 137.634 205.809C142.528 211.731 148.044 217.264 151.821 223.966L152.069 224.853C149.303 225.598 146.566 226.414 143.858 227.3C142.221 227.648 140.747 228.534 139.673 229.818C138.29 231.928 139.301 234.872 138.201 237.142C137.102 239.411 134.388 240.245 131.941 240.865C134.778 241.071 137.626 240.669 140.296 239.688C142.965 238.706 145.395 237.167 147.423 235.173L148.15 234.978C148.496 236.393 148.621 237.852 148.523 239.305C148.283 241.494 148.385 243.708 148.824 245.866C149.258 247.322 150.068 248.639 151.174 249.682C152.279 250.725 153.64 251.458 155.12 251.806L155.332 252.338L156.06 251.93L156.219 254.502C158.409 254.296 160.509 253.533 162.32 252.285C164.217 251.062 165.867 249.59 167.835 248.348C168.645 247.7 169.578 247.222 170.578 246.945C171.578 246.667 172.624 246.596 173.652 246.735C174.587 247.048 175.446 247.556 176.17 248.225C176.895 248.895 177.469 249.71 177.855 250.618C178.777 252.391 179.345 254.271 180.426 255.938C180.908 256.798 181.603 257.519 182.445 258.032C183.287 258.544 184.247 258.831 185.232 258.864L188.105 261.063C185.653 265.334 184.386 270.182 184.434 275.107L188.85 276.632C188.283 277.376 187.733 278.121 187.201 278.884L185.995 281.313L180.16 278.405C179.061 277.694 177.759 277.364 176.454 277.465C175.208 277.89 174.12 278.681 173.333 279.735C172.544 280.785 171.37 281.48 170.07 281.668C169.076 281.668 168.03 281.153 167.161 281.668C166.78 281.936 166.508 282.333 166.394 282.785C166.28 283.237 166.332 283.715 166.54 284.132C166.991 284.956 167.636 285.656 168.42 286.172L168.562 287.04C167.86 287.23 167.207 287.569 166.647 288.033C165.97 288.591 165.426 289.292 165.054 290.087C164.683 290.882 164.494 291.749 164.501 292.626C164.507 293.172 164.584 293.714 164.732 294.24L164.022 294.435C163.138 295.001 162.401 295.769 161.871 296.675C161.341 297.581 161.033 298.6 160.972 299.648C160.866 301.231 161.133 302.816 161.752 304.276L161.504 304.365C160.92 306.022 160.755 307.797 161.024 309.533C161.294 311.269 161.988 312.911 163.047 314.313C165.215 317.087 168.053 319.265 171.293 320.643C175.313 322.519 179.615 323.717 184.026 324.19V324.988C184.753 326.123 185.794 327.022 187.023 327.577C187.42 327.773 187.845 327.905 188.283 327.967C188.642 328.011 189.005 328.011 189.364 327.967V328.463C189.92 330.619 189.601 332.907 188.478 334.829L188.3 334.794ZM154.304 259.343C154.635 259.236 154.915 259.01 155.089 258.708C155.263 258.407 155.318 258.051 155.244 257.711C155.175 257.457 155.033 257.23 154.835 257.056C154.637 256.883 154.392 256.773 154.131 256.739C153.871 256.705 153.606 256.749 153.37 256.866C153.134 256.982 152.939 257.166 152.807 257.394C152.676 257.622 152.615 257.883 152.633 258.146C152.65 258.408 152.745 258.659 152.905 258.868C153.065 259.076 153.283 259.233 153.532 259.317C153.781 259.402 154.05 259.411 154.304 259.343Z" fill="#878787"/>
<path d="M194.134 325.413V325.909C193.681 326.5 193.064 326.945 192.36 327.186C192.029 327.327 191.684 327.434 191.332 327.505C190.851 327.644 190.358 327.739 189.86 327.789H189.381C189.022 327.833 188.658 327.833 188.299 327.789C187.861 327.727 187.436 327.596 187.04 327.399C185.811 326.845 184.77 325.945 184.043 324.81V324.012C184.451 324.012 184.876 324.118 185.284 324.154C186.58 324.216 187.85 323.778 188.831 322.93L189.275 322.647C189.632 323.231 190.109 323.733 190.676 324.118C191.699 324.838 192.889 325.284 194.134 325.413Z" fill="#3773FF"/>
<path d="M192.608 235.671C193.141 237.391 193.286 239.208 193.033 240.991C192.85 242.45 192.399 243.862 191.703 245.158C190.282 247.311 188.749 249.389 187.11 251.382C186.323 252.42 185.76 253.61 185.454 254.876C185.149 256.142 185.109 257.458 185.337 258.741C184.352 258.708 183.392 258.421 182.55 257.908C181.708 257.396 181.012 256.675 180.531 255.815C179.449 254.166 178.882 252.268 177.959 250.495C177.574 249.587 176.999 248.772 176.275 248.102C175.55 247.433 174.692 246.925 173.756 246.612C172.728 246.473 171.682 246.544 170.682 246.822C169.682 247.099 168.749 247.577 167.94 248.225C166.042 249.467 164.393 250.939 162.424 252.162C160.613 253.41 158.513 254.173 156.324 254.379L156.164 251.807L156.873 251.435C157.87 250.928 158.841 250.372 159.782 249.768C162.389 247.995 164.464 245.548 167.177 243.97C171.841 241.221 177.587 241.54 182.854 240.423L183.9 240.157C185.694 239.751 187.358 238.904 188.742 237.692C190.054 236.433 190.515 232.993 190.036 231.202C191.197 232.496 192.073 234.018 192.608 235.671Z" fill="#878787"/>
<path d="M182.82 239.908C183.326 235.873 184.426 231.935 186.083 228.222L186.474 228.399C187.816 229.08 189.019 230.006 190.02 231.13C190.411 232.904 190.02 236.45 188.726 237.62C187.342 238.832 185.678 239.679 183.884 240.085L182.838 240.351L182.82 239.908Z" fill="#878787"/>
<path d="M175.338 201.27L175.604 201.465C174.5 203.116 173.273 204.681 171.933 206.146L171.72 206.359C170.54 205.344 169.093 204.692 167.552 204.479C166.012 204.281 164.451 204.323 162.924 204.603C160.986 204.954 159.22 205.94 157.905 207.405C156.965 207.21 156.007 206.979 155.068 206.749L154.961 209.639L154.837 209.959C154.57 209.871 154.309 209.764 154.057 209.639C152.779 204.324 152.23 198.86 152.425 193.396V193.113C152.768 193.131 153.111 193.131 153.454 193.113V193.396C153.261 194.644 153.364 195.92 153.755 197.12C156.812 196.854 159.891 197.161 162.835 198.025C167.032 199.018 171.2 200.099 175.338 201.27Z" fill="black"/>
<path d="M148.221 234.853L147.494 235.048C145.465 237.042 143.036 238.581 140.366 239.562C137.697 240.544 134.849 240.945 132.012 240.74C134.459 240.119 137.19 239.286 138.272 237.016C139.354 234.746 138.361 231.803 139.744 229.693C140.818 228.409 142.292 227.522 143.929 227.175C146.648 226.288 149.385 225.472 152.14 224.728C153.913 224.231 155.687 223.77 157.46 223.345V222.83C157.939 222.972 158.436 223.096 158.932 223.203L158.755 223.947C157.949 227.106 156.5 230.064 154.499 232.636H154.126C153.531 235.293 153.128 237.99 152.92 240.705C152.761 244.535 153.718 248.666 156.644 251.131L156.84 251.504L156.13 251.876L155.403 252.284L155.19 251.752C153.711 251.403 152.35 250.67 151.244 249.627C150.139 248.584 149.328 247.268 148.895 245.811C148.455 243.653 148.353 241.44 148.593 239.25C148.699 237.774 148.574 236.29 148.221 234.853Z" fill="#878787"/>
<path d="M75.4935 44.0184C75.6801 44.3164 75.8875 44.6008 76.1142 44.8696C74.2931 46.0033 72.714 47.4858 71.4678 49.2318C71.132 49.656 70.8738 50.1362 70.7052 50.6503C70.6324 50.9112 70.6137 51.1842 70.6503 51.4525C70.6869 51.7209 70.778 51.9789 70.918 52.2108C71.1418 52.4804 71.436 52.6826 71.7678 52.7953C72.0996 52.908 72.4561 52.9266 72.7978 52.8491C73.4576 52.6778 74.0661 52.3493 74.5712 51.8916C76.0808 50.6926 77.3198 49.1879 78.2068 47.4763L78.4196 47.228C78.7976 47.5416 79.1943 47.8317 79.6077 48.0969L79.5013 48.2741C78.3947 49.5573 77.5511 51.0455 77.0186 52.6541C76.681 53.485 76.559 54.3877 76.6639 55.2784C76.7247 55.7227 76.9031 56.1427 77.1805 56.4949C77.458 56.8472 77.8245 57.119 78.2422 57.2822C78.8012 57.4061 79.3853 57.3452 79.9066 57.1086C80.4279 56.8719 80.8583 56.4724 81.1329 55.97C81.668 54.9611 81.9767 53.8476 82.0374 52.7072L82.4098 49.7105L82.4984 49.4268C83.1751 49.6266 83.8703 49.7573 84.5733 49.8169V49.9942C83.9647 51.1931 83.6653 52.5252 83.7025 53.8692C83.7397 55.2132 84.1122 56.5266 84.7861 57.69C84.9035 57.9518 85.0772 58.1846 85.2949 58.3715C85.5125 58.5585 85.7687 58.6952 86.0452 58.7718C86.3787 58.7774 86.7071 58.6889 86.9926 58.5163C87.278 58.3438 87.509 58.0944 87.6591 57.7965C88.3135 56.5467 88.4658 55.0941 88.0847 53.7357C87.801 52.3703 87.2334 51.0759 86.8788 49.7282C87.3863 49.6443 87.8849 49.5138 88.3684 49.3381C88.6836 49.2204 88.9915 49.0843 89.2906 48.9303C90.2448 51.6761 92.0613 54.0397 94.469 55.6686C94.9259 56.0352 95.4971 56.2298 96.0828 56.2183C96.4263 56.1621 96.7458 56.006 97.0012 55.7695C97.2567 55.533 97.4368 55.2266 97.5192 54.8884C97.6801 54.2027 97.6243 53.484 97.3596 52.8314C96.4552 50.207 94.5222 48.8594 92.27 47.228L91.9508 46.9088C92.6611 46.1674 93.2912 45.3531 93.8306 44.4795L93.9192 44.3554C95.8737 46.4249 98.3774 47.8949 101.137 48.5934C101.812 48.8417 102.554 48.8417 103.23 48.5934C103.706 48.308 104.062 47.8591 104.232 47.3306C104.401 46.8021 104.373 46.2299 104.152 45.7207C103.67 44.7116 102.881 43.8802 101.9 43.3446C99.9199 42.1156 97.6898 41.3461 95.3734 41.0926H95.1606C95.33 39.4822 95.0732 37.8556 94.4158 36.3758C94.0989 35.5558 93.7195 34.7614 93.2808 33.9996L93.7596 33.8755C95.7965 33.2675 97.7502 32.4098 99.5764 31.322C100.169 31.0005 100.703 30.5809 101.155 30.0808C101.368 29.8399 101.531 29.559 101.634 29.2546C101.738 28.9502 101.78 28.6284 101.758 28.3076C101.666 27.9034 101.463 27.5328 101.172 27.2382C100.88 26.9435 100.512 26.7366 100.108 26.6408C99.3018 26.4529 98.4548 26.5532 97.7144 26.9244C96.972 27.2831 96.2754 27.7296 95.6394 28.2544L91.8089 31.1447L91.1882 31.2866C90.9931 31.0738 90.7803 30.861 90.5675 30.6659L89.6808 29.9389C90.9226 28.7374 91.9857 27.3639 92.8375 25.8605C93.2623 25.1061 93.5201 24.2691 93.5936 23.4064C93.667 22.5437 93.5543 21.6754 93.2631 20.86C93.1254 20.4508 92.8797 20.0865 92.5519 19.8055C92.2241 19.5246 91.8265 19.3375 91.401 19.264C91.0302 19.2844 90.6683 19.3855 90.3406 19.56C90.0129 19.7346 89.7272 19.9785 89.5034 20.2748C88.5693 21.397 87.9565 22.7513 87.73 24.1937C87.4961 25.6235 87.3952 27.0719 87.4285 28.5204V28.6799C86.6333 28.3046 85.7832 28.0592 84.9103 27.9529C85.0777 25.6435 84.6503 23.3296 83.6689 21.2323C83.3712 20.4844 82.9108 19.812 82.3211 19.264C82.0061 18.9477 81.6042 18.7321 81.1664 18.6446C80.7285 18.5572 80.2746 18.6018 79.8622 18.7728C79.4498 18.9438 79.0975 19.2335 78.8501 19.6052C78.6027 19.9768 78.4714 20.4136 78.4728 20.86C78.4158 21.8254 78.605 22.7894 79.0225 23.6617C79.7116 25.371 80.6629 26.9623 81.8423 28.3785L81.931 28.6268C81.376 28.801 80.8363 29.0204 80.3171 29.2829V29.141C79.4143 27.1349 78.1724 25.2993 76.6462 23.7149C75.9157 22.834 74.9206 22.2122 73.8087 21.9416C73.2531 21.8296 72.6757 21.9294 72.1901 22.2214C71.7044 22.5135 71.3455 22.9767 71.184 23.5198C71.1342 24.2361 71.3418 24.9467 71.7693 25.5236C73.1817 27.5952 74.9043 29.4371 76.8767 30.9851L77.1427 31.3044C76.7001 31.6499 76.2851 32.0293 75.9013 32.4392C74.5204 30.7808 72.7462 29.4946 70.7407 28.6977C70.0533 28.3819 69.2947 28.2534 68.5416 28.3252C68.1659 28.3624 67.8104 28.5129 67.5222 28.7568C67.234 29.0006 67.0267 29.3263 66.9278 29.6907C66.9124 30.1287 67.0085 30.5635 67.207 30.9542C67.4055 31.345 67.7 31.6791 68.0628 31.925C69.6719 33.327 71.67 34.2053 73.7909 34.4429L74.1988 34.6912C73.86 35.2422 73.6031 35.8395 73.4363 36.4644L72.9574 36.3048C70.7403 35.4236 68.3451 35.0832 65.9702 35.3118C65.3415 35.3658 64.7342 35.5662 64.1968 35.897C63.9298 36.0637 63.7045 36.2895 63.5385 36.557C63.3725 36.8244 63.2701 37.1264 63.2391 37.4397C63.2436 37.7946 63.3368 38.1428 63.5103 38.4525C63.6837 38.7622 63.9319 39.0236 64.2323 39.2129C64.8287 39.5674 65.4936 39.791 66.183 39.869C68.5504 40.2656 70.9771 40.1139 73.2767 39.4257H73.2057C73.2743 39.8386 73.3873 40.2429 73.5427 40.6315H73.3476C72.0525 40.7691 70.7785 41.0609 69.5525 41.5005C68.1958 41.9623 67.0257 42.8521 66.2185 44.0362C66.004 44.3182 65.8654 44.6503 65.8157 45.0011C65.766 45.3518 65.807 45.7095 65.9347 46.04C66.0759 46.2531 66.2616 46.4331 66.4789 46.5678C66.6962 46.7025 66.9401 46.7886 67.1938 46.8202C67.709 46.8676 68.2285 46.8072 68.719 46.6428C70.9287 46.0395 72.9527 44.8936 74.6068 43.3091L74.7841 43.2027C74.9792 43.2914 75.2452 43.6638 75.4935 44.0184ZM44.636 69.4112C37.8616 62.6847 30.8684 56.2183 23.6565 50.012L21.8831 47.4585C16.421 51.2532 10.9943 55.0952 5.60313 58.9845L3.49276 60.8997L4.14891 61.6266L3.65236 62.07C3.55053 64.1831 4.26843 66.2539 5.65633 67.8507H6.15288C7.64449 69.1209 8.98889 70.5543 10.1608 72.1242C21.6084 86.2215 34.4938 99.0879 48.6085 110.515C49.6193 111.082 50.843 110.337 51.7651 109.628L89.3438 80.5116L89.6276 80.086C90.2099 80.5143 90.8484 80.8604 91.5251 81.1145L91.2946 81.6464C85.1704 86.6351 79.0166 91.5648 72.8333 96.4353C65.2076 102.464 57.5228 108.41 49.7789 114.274L49.2114 113.902C33.4313 101.204 19.1517 86.747 6.64944 70.812C4.51413 69.6605 2.84266 67.8062 1.91829 65.5634C0.99392 63.3206 0.873487 60.8272 1.57744 58.5057C28.399 37.5589 56.5554 18.3792 85.868 1.08838H86.329C87.1161 1.93054 87.72 2.92685 88.1024 4.01426C101.74 18.9449 115.839 33.4677 130.292 47.9196L127.313 49.7637C116.873 56.7502 106.44 63.7545 96.0118 70.7765C92.9438 71.007 89.7517 71.6809 87.4108 69.8722L87.0029 69.9786C86.5831 70.3253 86.2424 70.7579 86.0038 71.2473C85.7652 71.7367 85.6342 72.2715 85.6196 72.8158C85.5589 73.8861 85.7726 74.9543 86.2403 75.9189C86.5812 76.6889 87.0224 77.4104 87.5527 78.0646L87.1625 78.3837L67.2116 94.0946L64.4628 90.5481C58.114 83.2424 51.4814 76.2027 44.636 69.4112ZM105.305 35.8438C105.38 35.3744 105.297 34.8933 105.069 34.476C104.841 34.0588 104.481 33.729 104.045 33.5386C103.159 33.1696 102.178 33.0889 101.243 33.308C98.9599 33.8248 96.7663 34.6796 94.735 35.8438L95.1784 38.6455C97.9403 39.126 100.782 38.787 103.354 37.6702C103.797 37.535 104.203 37.3001 104.541 36.9835C104.879 36.6669 105.141 36.2771 105.305 35.8438ZM70.7762 60.6691C71.1196 60.3817 71.3726 60.0012 71.5047 59.5733C71.6369 59.1455 71.6425 58.6884 71.521 58.2575C71.2648 57.3954 70.7735 56.6218 70.1023 56.0233C68.3798 54.35 66.2024 53.2213 63.8421 52.7782C64.459 54.8287 65.3287 56.7943 66.4313 58.6299C66.8571 59.4228 67.4648 60.1034 68.2047 60.6159C68.5913 60.8558 69.0379 60.9814 69.493 60.9782C69.948 60.9751 70.3929 60.8433 70.7762 60.5981V60.6691ZM58.3623 56.697C57.4766 53.8832 55.974 51.3026 53.9642 49.1431C53.6793 48.8153 53.319 48.5617 52.9143 48.4041C52.5096 48.2466 52.0725 48.1898 51.641 48.2387C51.2137 48.3906 50.8492 48.6804 50.6051 49.0626C50.361 49.4447 50.2512 49.8974 50.2932 50.3489C50.4087 51.2576 50.7844 52.1134 51.375 52.8136C52.1548 53.9402 53.1852 54.8709 54.3852 55.5323C55.5852 56.1938 56.9222 56.5682 58.2913 56.6261L58.3623 56.697Z" fill="#3773FF"/>
<path d="M107.771 205.118C105.803 209.64 103.728 214.108 101.476 218.488C100.357 221.102 98.6086 223.399 96.386 225.173C96.1281 225.388 95.8255 225.542 95.5003 225.625C95.175 225.708 94.8354 225.717 94.5062 225.652L94.2934 225.563C94.0606 225.424 93.8628 225.234 93.7152 225.006C93.5676 224.779 93.4742 224.52 93.4421 224.251C93.3953 223.655 93.4493 223.056 93.6017 222.478C95.4164 213.295 98.5274 204.417 102.841 196.11H102.983C104.52 199.124 106.116 202.127 107.771 205.118Z" fill="black"/>
<path d="M104.045 33.5384C104.48 33.7288 104.84 34.0586 105.068 34.4759C105.296 34.8931 105.379 35.3742 105.304 35.8437C105.133 36.267 104.869 36.6463 104.531 36.9534C104.194 37.2604 103.791 37.4872 103.353 37.6169C100.782 38.7337 97.9396 39.0727 95.1777 38.5922L94.7344 35.7904C96.7656 34.6262 98.9592 33.7715 101.243 33.2547C102.183 33.0524 103.164 33.1516 104.045 33.5384Z" fill="white"/>
<path d="M104.205 45.8096C104.426 46.3188 104.455 46.8909 104.285 47.4194C104.115 47.9479 103.759 48.3968 103.283 48.6823C102.608 48.9305 101.866 48.9305 101.19 48.6823C98.4308 47.9838 95.9272 46.5137 93.9727 44.4442C94.6298 43.4565 95.0821 42.347 95.3027 41.1814H95.5155C97.8319 41.4349 100.062 42.2045 102.042 43.4334C102.991 43.9835 103.746 44.8135 104.205 45.8096Z" fill="white"/>
<path d="M101.808 28.2547C101.83 28.5754 101.788 28.8973 101.684 29.2017C101.581 29.5061 101.418 29.7869 101.205 30.0279C100.753 30.528 100.219 30.9477 99.6265 31.2692C97.8003 32.357 95.8465 33.2147 93.8097 33.8226L93.3309 33.9468C92.7525 32.9296 92.0496 31.9884 91.2383 31.145L91.8589 31.0032L95.6895 28.1128C96.3254 27.5881 97.0221 27.1416 97.7644 26.7828C98.5049 26.4117 99.3519 26.3113 100.159 26.4992C100.573 26.6017 100.95 26.8219 101.242 27.1334C101.535 27.4449 101.731 27.8342 101.808 28.2547Z" fill="white"/>
<path d="M97.323 52.8846C97.5877 53.5372 97.6434 54.2558 97.4826 54.9415C97.4001 55.2797 97.2199 55.5861 96.9645 55.8226C96.7091 56.0591 96.3897 56.2152 96.0461 56.2714C95.4604 56.2828 94.8892 56.0883 94.4323 55.7217C92.0246 54.0928 90.2081 51.7292 89.2539 48.9834C90.2415 48.4539 91.1393 47.7716 91.914 46.9619L92.2333 47.2811C94.4855 48.9125 96.4185 50.2602 97.323 52.8846Z" fill="white"/>
<path d="M89.2548 48.9832C88.9557 49.1372 88.6478 49.2733 88.3326 49.391C87.8491 49.5667 87.3505 49.6973 86.843 49.7812C86.0841 49.8877 85.3141 49.8877 84.5552 49.7812C83.8522 49.7216 83.1571 49.5908 82.4804 49.391C81.6982 49.1592 80.9431 48.8442 80.2281 48.4513C80.0153 48.3272 79.7848 48.203 79.5897 48.0611C79.1763 47.796 78.7795 47.5058 78.4015 47.1923C77.5504 46.4772 76.783 45.6682 76.1138 44.7807C75.8871 44.5119 75.6797 44.2275 75.4931 43.9296C75.2448 43.5749 75.0143 43.2025 74.8015 42.8302L74.5355 42.3869C74.1315 41.6915 73.8045 40.9541 73.5601 40.188C73.4079 39.8456 73.2891 39.4893 73.2054 39.1241C73.0722 38.3674 73.0722 37.5933 73.2054 36.8366C73.2423 36.6333 73.2896 36.4321 73.3472 36.2337C73.5141 35.6087 73.771 35.0114 74.1098 34.4604C74.4679 33.8279 74.8898 33.2337 75.369 32.6872L75.8655 32.1908C76.2493 31.7809 76.6643 31.4014 77.1069 31.0559C78.0962 30.2485 79.1873 29.5748 80.3523 29.0521C80.8714 28.7897 81.4111 28.5702 81.9661 28.396C82.8581 28.0821 83.7788 27.8564 84.7148 27.7222H84.9454C85.8183 27.8284 86.6685 28.0738 87.4637 28.4491C88.2726 28.8003 89.0398 29.2404 89.7513 29.7613L90.638 30.4884C90.8509 30.6835 91.0637 30.8962 91.2588 31.109C92.07 31.9523 92.773 32.8935 93.3514 33.9107C93.7901 34.6725 94.1695 35.467 94.4864 36.2869C95.1438 37.7668 95.4007 39.3933 95.2312 41.0037C95.0107 42.1693 94.5584 43.2788 93.9012 44.2665L93.8125 44.3905C93.2731 45.2642 92.643 46.0785 91.9327 46.8199C91.1634 47.6816 90.2589 48.4122 89.2548 48.9832Z" fill="white"/>
<path d="M93.3489 20.7536C93.6401 21.569 93.7529 22.4373 93.6794 23.3C93.606 24.1627 93.3481 24.9997 92.9233 25.7541C92.0715 27.2575 91.0084 28.631 89.7666 29.8325C89.0551 29.3116 88.2878 28.8715 87.4789 28.5204V28.3607C87.4455 26.9123 87.5465 25.4639 87.7804 24.034C88.0068 22.5916 88.6196 21.2375 89.5538 20.1152C89.7776 19.819 90.0633 19.575 90.391 19.4004C90.7187 19.2258 91.0806 19.1249 91.4514 19.1045C91.8895 19.1764 92.299 19.3687 92.634 19.6599C92.9691 19.9511 93.2166 20.3298 93.3489 20.7536Z" fill="white"/>
<path d="M88.0493 53.7895C88.4304 55.1478 88.2782 56.6004 87.6237 57.8502C87.4737 58.148 87.2426 58.3975 86.9572 58.57C86.6717 58.7425 86.3434 58.8311 86.0099 58.8254C85.7334 58.7488 85.4772 58.6122 85.2595 58.4252C85.0419 58.2382 84.8682 58.0056 84.7508 57.7438C84.0768 56.5803 83.7043 55.2669 83.6671 53.9228C83.63 52.5788 83.9294 51.2468 84.538 50.0479V49.8706C85.2968 49.9771 86.0668 49.9771 86.8257 49.8706C87.1981 51.1296 87.7656 52.4241 88.0493 53.7895Z" fill="white"/>
<path d="M83.6865 21.0909C84.6679 23.1882 85.0952 25.502 84.9278 27.8114H84.6973C83.7613 27.9457 82.8406 28.1714 81.9485 28.4853L81.8599 28.237C80.6805 26.8208 79.7292 25.2295 79.0401 23.5202C78.6226 22.6479 78.4334 21.6839 78.4904 20.7185C78.489 20.2721 78.6203 19.8353 78.8677 19.4637C79.1151 19.092 79.4674 18.8023 79.8798 18.6313C80.2922 18.4603 80.7461 18.4157 81.1839 18.5031C81.6217 18.5906 82.0237 18.8062 82.3387 19.1225C82.9284 19.6705 83.3888 20.343 83.6865 21.0909Z" fill="white"/>
<path d="M82.4804 49.4793L82.3917 49.763L82.0193 52.7598C81.9586 53.9002 81.65 55.0137 81.1149 56.0226C80.8403 56.5249 80.4099 56.9244 79.8886 57.161C79.3673 57.3977 78.7832 57.4587 78.2242 57.3348C77.8065 57.1715 77.44 56.8998 77.1625 56.5475C76.885 56.1952 76.7067 55.7753 76.6459 55.331C76.541 54.4403 76.663 53.5374 77.0006 52.7065C77.5331 51.098 78.3767 49.6098 79.4834 48.3267L79.5898 48.1494C79.7848 48.2913 80.0154 48.4153 80.2282 48.5395C80.9431 48.9324 81.6982 49.2475 82.4804 49.4793Z" fill="white"/>
<path d="M80.2972 28.9992V29.1411C79.1323 29.6638 78.0411 30.3375 77.0519 31.1448L76.7859 30.8257C74.8134 29.2777 73.0909 27.4356 71.6785 25.3641C71.2509 24.7872 71.0434 24.0766 71.0932 23.3603C71.2547 22.8171 71.6136 22.354 72.0992 22.062C72.5849 21.7699 73.1623 21.6701 73.7179 21.7821C74.8298 22.0527 75.8249 22.6745 76.5554 23.5553C78.1086 25.1395 79.3747 26.9816 80.2972 28.9992Z" fill="white"/>
<path d="M78.4007 47.2817L78.1879 47.5299C77.301 49.2415 76.0621 50.7462 74.5525 51.9453C74.0473 52.403 73.4388 52.7316 72.779 52.9029C72.4373 52.9804 72.0808 52.9618 71.749 52.8491C71.4172 52.7364 71.1231 52.534 70.8992 52.2644C70.7592 52.0326 70.6681 51.7747 70.6315 51.5063C70.5949 51.2379 70.6136 50.965 70.6864 50.7041C70.855 50.19 71.1132 49.7097 71.449 49.2854C72.6952 47.5395 74.2742 46.0571 76.0953 44.9233C76.7731 45.7933 77.5464 46.5843 78.4007 47.2817Z" fill="white"/>
<path d="M75.8486 32.2806L75.352 32.7771C74.8729 33.3236 74.451 33.9178 74.0929 34.5503L73.685 34.3021C71.5641 34.0645 69.566 33.186 67.9569 31.784C67.5941 31.5381 67.2996 31.2042 67.1011 30.8134C66.9026 30.4227 66.8065 29.9878 66.8219 29.5498C66.9208 29.1854 67.1281 28.8598 67.4163 28.6159C67.7045 28.3721 68.06 28.2216 68.4357 28.1844C69.1888 28.1126 69.9474 28.241 70.6348 28.5567C72.6403 29.3537 74.4145 30.64 75.7954 32.2984L75.8486 32.2806Z" fill="white"/>
<path d="M74.8014 42.9189L74.624 43.0253C72.9699 44.6097 70.9461 45.7557 68.7363 46.3589C68.2458 46.5233 67.7263 46.5837 67.2112 46.5362C66.9574 46.5046 66.7136 46.4185 66.4962 46.2838C66.2789 46.1492 66.0933 45.9691 65.9521 45.756C65.8243 45.4256 65.7833 45.068 65.833 44.7172C65.8827 44.3665 66.0214 44.0342 66.2358 43.7522C67.0431 42.5682 68.2131 41.6783 69.5698 41.2165C70.7958 40.777 72.0698 40.4853 73.3649 40.3477H73.56C73.8044 41.1138 74.1314 41.8511 74.5354 42.5464L74.8014 42.9189Z" fill="white"/>
<path d="M72.8508 36.0217L73.3297 36.1813C73.272 36.3797 73.2246 36.5809 73.1878 36.7842C73.0545 37.5408 73.0545 38.3149 73.1878 39.0716H73.2055C70.906 39.7598 68.4792 39.9115 66.1118 39.5149C65.4224 39.4369 64.7575 39.2133 64.1611 38.8588C63.8608 38.6695 63.6126 38.4082 63.4391 38.0985C63.2657 37.7888 63.1724 37.4405 63.168 37.0856C63.1989 36.7723 63.3013 36.4703 63.4674 36.2029C63.6334 35.9354 63.8586 35.7096 64.1256 35.5429C64.663 35.2121 65.2703 35.0118 65.899 34.9578C68.2679 34.7574 70.6504 35.122 72.8508 36.0217Z" fill="white"/>
<path d="M71.5205 58.1873C71.642 58.6183 71.6364 59.0752 71.5043 59.5031C71.3721 59.9309 71.1191 60.3115 70.7757 60.5989C70.3927 60.8379 69.9503 60.9646 69.4988 60.9646C69.0474 60.9646 68.605 60.8379 68.222 60.5989C67.4821 60.0864 66.8744 59.4058 66.4485 58.6129C65.346 56.7773 64.4763 54.8117 63.8594 52.7612C66.2197 53.2043 68.3971 54.333 70.1195 56.0063C70.7761 56.5924 71.2605 57.3465 71.5205 58.1873Z" fill="white"/>
<path d="M44.6352 69.4107C51.4806 76.2022 58.1131 83.2419 64.4619 90.5122L67.2107 94.0586L55.0628 103.616C53.1475 105.141 50.9307 106.737 48.5189 106.383C33.0025 92.2319 18.2054 77.312 4.1835 61.6794L3.52734 60.9524L5.63771 59.0373C11.0289 55.148 16.4555 51.306 21.9177 47.5112L23.6911 50.0647C30.8911 56.2592 37.8725 62.7079 44.6352 69.4107Z" fill="#3773FF"/>
<path d="M53.8906 49.0718C55.9004 51.2313 57.403 53.812 58.2887 56.6258C56.9013 56.5707 55.5462 56.1906 54.3326 55.5161C53.1189 54.8416 52.0807 53.8915 51.3014 52.7424C50.7108 52.0422 50.3352 51.1863 50.2197 50.2776C50.1777 49.8261 50.2874 49.3736 50.5315 48.9914C50.7756 48.6092 51.1401 48.3193 51.5674 48.1674C51.999 48.1185 52.436 48.1753 52.8407 48.3328C53.2455 48.4904 53.6058 48.744 53.8906 49.0718Z" fill="white"/>
<path d="M85.7429 1C56.4304 18.2908 28.2741 37.4705 1.45246 58.4173C0.748508 60.7388 0.868888 63.2322 1.79326 65.475C2.71763 67.7178 4.3891 69.5721 6.5244 70.7236C19.0266 86.6586 33.3063 101.115 49.0864 113.813" stroke="#222120" stroke-linecap="round" stroke-linejoin="round"/>
<path d="M3.33203 60.7397L3.47388 60.8994L4.13004 61.6264C18.1519 77.259 32.949 92.1789 48.4654 106.33C50.8773 106.684 53.0941 105.088 55.0094 103.563L67.1573 94.0056L87.055 78.348" stroke="#222120" stroke-linecap="round" stroke-linejoin="round"/>
<path d="M86.2031 1.03516C86.9903 1.87732 87.5941 2.87352 87.9765 3.96093C101.614 18.8916 115.713 33.4144 130.166 47.8662L127.311 49.7636C116.871 56.7502 106.438 63.7544 96.0101 70.7764" stroke="#222120" stroke-linecap="round" stroke-linejoin="round"/>
<path d="M49.7266 114.186C57.4823 108.275 65.1671 102.329 72.781 96.3474C78.9761 91.4769 85.1299 86.5473 91.2422 81.5586" stroke="#222120" stroke-linecap="round" stroke-linejoin="round"/>
<path d="M103.352 73.2592L131.726 54.0196L128.179 50.5972" stroke="#222120" stroke-linecap="round" stroke-linejoin="round"/>
<path d="M87.0028 70.0322C86.5895 70.3731 86.2528 70.7972 86.0145 71.2769C85.7761 71.7566 85.6415 72.2811 85.6195 72.8162C85.5587 73.8866 85.7724 74.9547 86.2402 75.9194C86.581 76.6894 87.0223 77.4109 87.5525 78.065C88.1487 78.8274 88.8608 79.4915 89.6629 80.0333C90.2452 80.4616 90.8837 80.8077 91.5604 81.0618L91.9683 81.2391C93.2352 81.6865 94.5796 81.8732 95.9205 81.7879C97.2615 81.7026 98.5714 81.3469 99.7714 80.7425" stroke="#222120" stroke-linecap="round" stroke-linejoin="round"/>
<path d="M86.9831 85.2283C85.6766 86.8923 84.8261 88.8677 84.5151 90.9602C84.2042 93.0527 84.4435 95.1902 85.2097 97.1621" stroke="#222120" stroke-linecap="round" stroke-linejoin="round"/>
<path d="M94.4868 81.8594C94.3155 83.2884 94.6322 84.7333 95.3855 85.9597C96.1388 87.186 97.2844 88.1219 98.6365 88.6154" stroke="#222120" stroke-linecap="round" stroke-linejoin="round"/>
<path d="M72.8477 96.3989C76.8554 101.3 79.6178 107.098 80.899 113.298C82.1595 119.475 83.1007 125.713 83.7187 131.988C86.6885 154.224 93.2153 175.838 103.049 196.001C104.539 199.087 106.111 202.125 107.766 205.116" stroke="#222120" stroke-linecap="round" stroke-linejoin="round"/>
<path d="M87.3906 69.9258C89.7315 71.699 92.9237 71.0607 95.9917 70.8301C97.8719 70.5365 99.7968 70.847 101.489 71.7168C102.171 72.1458 102.771 72.6921 103.263 73.3304C103.925 74.2048 104.518 75.1297 105.036 76.0966C106.81 79.448 108.583 83.1896 107.696 86.8602C106.366 92.0203 100.23 94.5028 98.1198 99.06C100.356 115.761 104.553 132.14 110.622 147.859C113.123 154.296 115.943 161.088 114.843 167.879L119.17 176.072" stroke="#222120" stroke-linecap="round" stroke-linejoin="round"/>
<path d="M102.912 196.074C98.5977 204.381 95.4867 213.259 93.672 222.442C93.5196 223.019 93.4656 223.619 93.5124 224.215C93.5445 224.484 93.6379 224.742 93.7855 224.97C93.9331 225.197 94.1309 225.388 94.3636 225.527L94.5764 225.616C94.9056 225.681 95.2453 225.672 95.5706 225.589C95.8958 225.506 96.1984 225.352 96.4562 225.137C98.6789 223.363 100.428 221.066 101.546 218.452C103.798 214.072 105.873 209.586 107.842 205.082C111.938 195.63 115.538 185.913 119.191 176.036L119.316 175.664C123.934 186.544 130.104 196.698 137.635 205.809C142.53 211.731 148.045 217.264 151.822 223.966" stroke="#222120" stroke-linecap="round" stroke-linejoin="round"/>
<path d="M116.69 199.071C112.908 208.643 110.34 218.651 109.047 228.861" stroke="#222120" stroke-linecap="round" stroke-linejoin="round"/>
<path d="M123.621 195.399C121.316 209.763 119.465 224.185 118.07 238.666" stroke="#222120" stroke-linecap="round" stroke-linejoin="round"/>
<path d="M94.3633 225.598C100.511 230.409 106.789 235.037 113.197 239.482" stroke="#222120" stroke-linecap="round" stroke-linejoin="round"/>
<path d="M117.027 212.37C115.839 221.502 114.651 230.599 113.25 239.483V239.82C113.763 245.075 114.797 250.267 116.336 255.318" stroke="#222120" stroke-linecap="round" stroke-linejoin="round"/>
<path d="M127.863 203.662C126.933 218.607 124.2 233.385 119.723 247.674" stroke="#222120" stroke-linecap="round" stroke-linejoin="round"/>
<path d="M134.282 220.261C127.53 231.498 121.91 243.378 117.506 255.726C105.72 288.541 102.569 323.835 108.355 358.219" stroke="#222120" stroke-linecap="round" stroke-linejoin="round"/>
<path d="M117.734 303.603C120.389 324.327 128.436 343.991 141.073 360.63" stroke="#222120" stroke-linecap="round" stroke-linejoin="round"/>
<path d="M124.438 256.735C125.632 287.319 134.42 317.124 150.01 343.464" stroke="#222120" stroke-linecap="round" stroke-linejoin="round"/>
<path d="M141.945 291.313C149.692 313.166 162.446 332.902 179.187 348.944" stroke="#222120" stroke-linecap="round" stroke-linejoin="round"/>
<path d="M189.383 328.32C189.938 330.476 189.62 332.764 188.496 334.686" stroke="#222120" stroke-linecap="round" stroke-linejoin="round"/>
<path d="M156.77 165.024C157.591 164.486 158.587 164.283 159.554 164.456C160.512 164.631 161.372 165.156 161.966 165.928" stroke="#222120" stroke-width="0.5" stroke-linecap="round" stroke-linejoin="round"/>
<path d="M174.449 167.968C175.443 167.093 176.657 166.506 177.961 166.271C179.265 166.037 180.608 166.164 181.844 166.638C184.313 167.631 186.388 169.406 187.75 171.692" stroke="#222120" stroke-width="0.5" stroke-linecap="round" stroke-linejoin="round"/>
<path d="M172.055 179.052C172.42 178.003 172.933 177.011 173.58 176.108C174.26 175.238 175.207 174.616 176.275 174.335C177.557 174.097 178.882 174.37 179.964 175.097C181.043 175.81 181.996 176.697 182.784 177.722C183.79 178.912 184.731 180.155 185.604 181.446" stroke="#222120" stroke-width="0.5" stroke-linecap="round" stroke-linejoin="round"/>
<path d="M153.879 175.22C153.876 174.48 154.091 173.755 154.497 173.135C154.903 172.516 155.482 172.029 156.162 171.736C156.843 171.443 157.594 171.357 158.324 171.488C159.053 171.618 159.727 171.961 160.263 172.472C161.383 173.812 162.009 175.496 162.037 177.242" stroke="#222120" stroke-width="0.5" stroke-linecap="round" stroke-linejoin="round"/>
<path d="M157.618 180.771C156.621 181.293 155.716 181.976 154.94 182.792C154.572 183.145 154.308 183.593 154.178 184.086C154.14 184.368 154.163 184.655 154.246 184.928C154.328 185.2 154.468 185.451 154.657 185.665C155.011 186.105 155.437 186.482 155.916 186.782" stroke="#222120" stroke-width="0.5" stroke-linecap="round" stroke-linejoin="round"/>
<path d="M155.277 184.867C155.805 184.928 156.299 185.157 156.686 185.522C157.072 185.886 157.331 186.366 157.423 186.889" stroke="#222120" stroke-width="0.5" stroke-linecap="round" stroke-linejoin="round"/>
<path d="M161.875 185.771C162.532 185.615 163.223 185.697 163.826 186.002C164.432 186.319 164.9 186.85 165.138 187.491" stroke="#222120" stroke-width="0.5" stroke-linecap="round" stroke-linejoin="round"/>
<path d="M166.113 188.217C166.636 188.118 167.148 187.963 167.638 187.756C168.13 187.54 168.536 187.165 168.791 186.692C169 186.236 169.044 185.723 168.915 185.238C168.779 184.764 168.536 184.328 168.206 183.961" stroke="#222120" stroke-width="0.5" stroke-linecap="round" stroke-linejoin="round"/>
<path d="M152.067 187.97C151.498 188.817 150.777 189.551 149.939 190.134C149.611 190.295 149.327 190.534 149.11 190.828C148.893 191.123 148.75 191.465 148.692 191.826C148.635 192.188 148.665 192.557 148.78 192.905C148.895 193.252 149.092 193.566 149.354 193.822C149.94 194.473 150.587 195.067 151.287 195.595" stroke="#222120" stroke-width="0.5" stroke-linecap="round" stroke-linejoin="round"/>
<path d="M150.387 192.633C151.043 192.899 151.737 193.06 152.444 193.112C152.787 193.13 153.13 193.13 153.472 193.112H155.122C159.493 193.215 163.791 194.248 167.731 196.144C170.506 197.749 173.413 199.113 176.421 200.223C176.154 200.613 175.888 201.003 175.605 201.375C174.502 203.027 173.274 204.592 171.934 206.057L171.721 206.269C170.71 207.326 169.579 208.26 168.351 209.053C167.62 209.513 166.849 209.905 166.046 210.224C162.41 211.465 158.444 211.319 154.909 209.816C154.642 209.728 154.381 209.621 154.129 209.497C153.597 209.266 153.065 209.018 152.568 208.752" stroke="#222120" stroke-width="0.5" stroke-linecap="round" stroke-linejoin="round"/>
<path d="M152.425 193.396C152.23 198.859 152.779 204.324 154.057 209.639" stroke="#222120" stroke-width="0.5" stroke-linecap="round" stroke-linejoin="round"/>
<path d="M153.47 193.396C153.277 194.644 153.38 195.919 153.771 197.12C156.828 196.854 159.907 197.161 162.851 198.024C167.036 199.017 171.174 200.099 175.265 201.269" stroke="#222120" stroke-width="0.5" stroke-linecap="round" stroke-linejoin="round"/>
<path d="M157.902 207.423C161.328 208.191 164.791 208.783 168.277 209.197" stroke="#222120" stroke-width="0.5" stroke-linecap="round" stroke-linejoin="round"/>
<path d="M154.961 209.639L155.067 206.749C156.007 206.979 156.965 207.21 157.905 207.405" stroke="#222120" stroke-width="0.5" stroke-linecap="round" stroke-linejoin="round"/>
<path d="M175.316 196.357C176.225 197.483 176.797 198.843 176.967 200.28C177.136 201.717 176.896 203.172 176.274 204.479" stroke="#222120" stroke-width="0.5" stroke-linecap="round" stroke-linejoin="round"/>
<path d="M184.324 329.457C185.827 331.089 187.159 332.872 188.297 334.777C189.352 336.492 189.894 338.473 189.857 340.487C189.493 342.05 189.493 343.676 189.857 345.239C190.356 346.123 191.018 346.906 191.808 347.544C194.44 350.179 195.92 353.75 195.922 357.474" stroke="#222120" stroke-linecap="round" stroke-linejoin="round"/>
<path d="M155.863 164.013C155.575 163.77 155.338 163.472 155.169 163.135C154.999 162.798 154.9 162.43 154.876 162.054C154.853 161.677 154.907 161.3 155.034 160.945C155.161 160.59 155.359 160.264 155.615 159.988C155.109 159.205 154.887 158.272 154.987 157.346C155.087 156.419 155.503 155.555 156.165 154.899C155.953 154.562 155.813 154.184 155.753 153.791C155.694 153.397 155.717 152.995 155.82 152.611C155.923 152.226 156.105 151.867 156.353 151.556C156.602 151.245 156.912 150.988 157.264 150.803C157.028 150.418 156.887 149.982 156.853 149.532C156.819 149.081 156.894 148.63 157.069 148.214C157.546 147.29 158.33 146.563 159.286 146.157C158.79 144.827 159.552 143.16 161.68 142.185C161.612 141.783 161.636 141.372 161.75 140.981C161.864 140.59 162.065 140.23 162.338 139.928C162.611 139.626 162.949 139.39 163.327 139.237C163.704 139.084 164.111 139.019 164.518 139.046C164.613 138.621 164.793 138.219 165.047 137.864C165.301 137.51 165.624 137.211 165.997 136.984C166.369 136.757 166.784 136.608 167.215 136.545C167.646 136.482 168.086 136.506 168.508 136.617C168.618 136.223 168.806 135.854 169.059 135.533C169.313 135.212 169.628 134.945 169.987 134.747C170.345 134.549 170.739 134.424 171.145 134.38C171.552 134.336 171.964 134.373 172.356 134.489C172.835 133.684 173.556 133.052 174.416 132.683C175.276 132.313 176.231 132.225 177.144 132.432C177.872 131.155 179.645 130.659 182.11 131.776C182.695 130.286 184.681 129.559 187.43 130.57C187.761 130.232 188.155 129.964 188.591 129.781C189.026 129.597 189.494 129.503 189.966 129.503C190.439 129.503 190.906 129.597 191.342 129.781C191.777 129.964 192.172 130.232 192.502 130.57C193.708 129.346 195.907 129.276 198.479 130.57C198.777 130.262 199.147 130.034 199.556 129.907C199.965 129.78 200.4 129.758 200.82 129.843C201.653 130.002 202.38 130.623 203.533 131.918C203.913 131.638 204.355 131.454 204.821 131.383C205.288 131.312 205.765 131.355 206.211 131.51C207.071 131.824 207.777 132.46 208.179 133.283C210.059 132.857 212.152 134.152 213.499 136.546C213.849 136.319 214.248 136.183 214.663 136.149C215.078 136.115 215.494 136.184 215.876 136.351C216.668 136.786 217.292 137.472 217.649 138.301C219.103 138.301 220.487 139.348 221.852 141.458C222.261 141.363 222.688 141.38 223.088 141.508C223.487 141.636 223.845 141.87 224.122 142.185C224.684 143.035 224.968 144.039 224.938 145.057C225.657 144.864 226.418 144.895 227.119 145.146C227.453 145.363 227.73 145.656 227.927 146.002C228.125 146.347 228.237 146.734 228.254 147.132C228.642 147.424 229.089 147.628 229.563 147.732C230.037 147.836 230.528 147.837 231.003 147.735C231.517 148.391 230.436 149.26 230.56 150.076C230.625 150.307 230.746 150.519 230.913 150.693C231.08 150.866 231.288 150.995 231.517 151.069C231.975 151.209 232.398 151.445 232.759 151.76C232.696 152.515 232.826 153.274 233.136 153.966C233.446 154.657 233.927 155.259 234.532 155.714C234.426 156.264 234.107 156.796 234.284 157.328C234.461 157.86 235.259 158.108 235.898 158.179C236.06 158.982 235.901 159.816 235.454 160.502C236.107 161.104 236.548 161.9 236.711 162.772C236.874 163.645 236.75 164.547 236.359 165.343C236.713 166.46 237.05 167.577 237.405 168.677C237.662 169.35 237.782 170.067 237.76 170.787C237.624 171.594 237.24 172.338 236.66 172.915C237.033 173.289 237.345 173.72 237.582 174.191C237.696 174.43 237.755 174.69 237.755 174.954C237.755 175.218 237.696 175.478 237.582 175.717C237.299 176.231 236.678 176.497 236.412 177.011C236.306 177.284 236.278 177.581 236.331 177.869C236.384 178.158 236.517 178.425 236.714 178.642C237.265 179.152 237.727 179.752 238.079 180.416C237.21 180.327 236.572 181.284 236.501 182.189C236.43 183.093 236.749 183.962 236.714 184.778C236.71 185.255 236.56 185.72 236.284 186.11C236.008 186.5 235.62 186.796 235.171 186.959C235.554 187.568 235.71 188.293 235.613 189.006C235.516 189.719 235.171 190.375 234.639 190.86" stroke="#222120" stroke-linecap="round" stroke-linejoin="round"/>
<path d="M210.645 215.438C211.402 215.807 212.273 215.867 213.074 215.606C213.875 215.344 214.543 214.782 214.936 214.037C215.253 214.264 215.628 214.396 216.018 214.418C216.407 214.44 216.795 214.351 217.135 214.161C217.847 213.567 218.391 212.796 218.714 211.927C219.366 212.073 220.051 211.961 220.622 211.614C221.194 211.266 221.61 210.711 221.782 210.065C222.968 209.882 224.179 209.967 225.328 210.313C225.114 209.503 225.083 208.654 225.24 207.831C225.328 207.334 225.825 207.015 226.286 206.82C226.778 206.691 227.25 206.494 227.687 206.235C227.903 206.025 228.062 205.763 228.149 205.474C228.236 205.186 228.248 204.88 228.184 204.585C228.549 204.627 228.918 204.553 229.24 204.376C229.561 204.198 229.82 203.925 229.98 203.594C230.139 203.263 230.192 202.89 230.131 202.528C230.07 202.166 229.897 201.831 229.638 201.571C230.412 201.363 231.092 200.9 231.569 200.256C232.045 199.612 232.29 198.825 232.262 198.025C232.695 198.173 233.168 198.149 233.582 197.957C233.997 197.765 234.322 197.421 234.489 196.995C234.656 196.57 234.652 196.096 234.479 195.674C234.305 195.251 233.975 194.912 233.557 194.726C234.084 194.485 234.5 194.051 234.717 193.514C234.935 192.976 234.939 192.376 234.728 191.836" stroke="#222120" stroke-linecap="round" stroke-linejoin="round"/>
<path d="M151.801 175.664C152.756 171.703 154.362 167.928 156.554 164.492C159.804 159.43 164.134 155.148 169.233 151.956C169.465 152.177 169.752 152.333 170.064 152.404C170.376 152.476 170.702 152.462 171.007 152.363C171.624 152.135 172.258 151.957 172.904 151.831C173.182 151.814 173.46 151.814 173.738 151.831C174.607 151.831 175.511 151.991 176.717 152.027C176.879 152.165 177.077 152.254 177.288 152.282C177.499 152.311 177.713 152.277 177.905 152.186C178.293 152.012 178.706 151.904 179.129 151.867C179.816 151.986 180.442 152.336 180.903 152.86C181.214 153.122 181.577 153.318 181.967 153.434C182.358 153.55 182.768 153.584 183.173 153.534C183.694 154.131 184.373 154.568 185.133 154.794C185.893 155.02 186.701 155.026 187.464 154.811C187.986 155.662 188.695 156.383 189.537 156.921C190.378 157.459 191.331 157.798 192.323 157.914C192.828 158.462 193.439 158.902 194.119 159.206C194.798 159.511 195.533 159.675 196.278 159.687C196.697 161.231 197.394 162.685 198.335 163.978C199.639 166.283 200.369 168.868 200.463 171.514" stroke="#222120" stroke-linecap="round" stroke-linejoin="round"/>
<path d="M234.301 189.725C234.301 189.193 234.496 188.643 234.584 188.093" stroke="#222120" stroke-linecap="round" stroke-linejoin="round"/>
<path d="M196.582 175.664C198.355 178.838 198.355 182.757 198.125 186.303C197.894 189.849 197.717 193.822 199.349 197.102" stroke="#222120" stroke-linecap="round" stroke-linejoin="round"/>
<path d="M151.73 175.965C147.736 181.034 145.468 187.248 145.257 193.698C145.08 200.312 147.031 206.766 149.052 213.061C149.619 215.421 150.67 217.637 152.138 219.569C153.564 221.127 155.413 222.236 157.458 222.761C157.937 222.903 158.434 223.027 158.93 223.133C160.563 223.437 162.218 223.609 163.878 223.648C169.19 223.906 174.507 223.271 179.608 221.768C184.75 220.239 189.332 217.237 192.785 213.132C193.22 214.105 193.848 214.98 194.632 215.702C195.415 216.425 196.337 216.98 197.343 217.335C197.704 217.485 198.078 217.604 198.46 217.69C200.963 218.194 203.558 217.979 205.944 217.069C207.188 216.612 208.378 216.017 209.49 215.296C211.366 214.176 212.97 212.657 214.19 210.845C215.179 209.396 215.829 207.743 216.09 206.008C216.351 204.273 216.217 202.502 215.697 200.826C215.211 199.347 214.298 198.046 213.073 197.085C211.954 196.309 210.675 195.794 209.331 195.577C206.009 194.851 202.536 195.375 199.577 197.049" stroke="#222120" stroke-linecap="round" stroke-linejoin="round"/>
<path d="M212.278 208.629C212.835 207.768 213.132 206.764 213.132 205.738C213.132 204.713 212.835 203.709 212.278 202.848C211.722 201.99 210.988 201.262 210.125 200.714C209.261 200.166 208.29 199.811 207.277 199.674C205.236 199.405 203.162 199.751 201.318 200.667C201.192 200.706 201.075 200.77 200.975 200.855C200.874 200.941 200.792 201.045 200.733 201.163C200.627 201.518 200.928 201.837 201.265 202.05L201.567 202.192C202.897 202.742 204.28 203.203 205.592 203.841C206.917 204.438 208.061 205.374 208.908 206.554C209.376 207.225 209.658 208.008 209.724 208.824C209.788 209.426 209.703 210.035 209.476 210.597C209.203 211.281 208.698 211.846 208.049 212.193C207.4 212.54 206.649 212.647 205.929 212.494C205.375 212.299 204.871 211.982 204.454 211.568C204.037 211.154 203.717 210.653 203.517 210.101C203.038 209.037 202.79 207.884 202.294 206.82C202.073 206.275 201.73 205.787 201.29 205.397C200.85 205.006 200.325 204.722 199.758 204.568H199.509C199.369 204.551 199.226 204.574 199.098 204.633C198.97 204.693 198.86 204.787 198.782 204.905C198.534 205.384 199.066 205.863 199.421 206.253C199.858 206.761 200.098 207.409 200.098 208.079C200.098 208.749 199.858 209.397 199.421 209.906C198.952 210.385 198.325 210.679 197.656 210.731C196.988 210.783 196.323 210.591 195.785 210.189" stroke="#222120" stroke-width="0.5" stroke-linecap="round" stroke-linejoin="round"/>
<path d="M157.621 174.351C157.256 174.877 157.03 175.487 156.965 176.124" stroke="#222120" stroke-linecap="round" stroke-linejoin="round"/>
<path d="M176.754 177.24C176.412 177.676 176.197 178.198 176.133 178.747" stroke="#222120" stroke-linecap="round" stroke-linejoin="round"/>
<path d="M157.39 223.345C155.617 223.77 153.843 224.231 152.07 224.728C149.303 225.473 146.566 226.288 143.859 227.175C142.221 227.523 140.748 228.409 139.674 229.693C138.29 231.803 139.301 234.747 138.202 237.016C137.102 239.286 134.389 240.12 131.941 240.74C134.778 240.945 137.626 240.544 140.296 239.562C142.965 238.581 145.395 237.042 147.423 235.048" stroke="#222120" stroke-linecap="round" stroke-linejoin="round"/>
<path d="M141.586 231.113C142.589 230.638 143.735 230.556 144.795 230.884C145.856 231.213 146.755 231.927 147.314 232.886C147.719 233.521 148.024 234.215 148.218 234.943C148.564 236.358 148.69 237.817 148.591 239.27C148.351 241.459 148.453 243.673 148.892 245.831C149.326 247.287 150.137 248.603 151.242 249.646C152.348 250.689 153.709 251.422 155.188 251.771" stroke="#222120" stroke-linecap="round" stroke-linejoin="round"/>
<path d="M158.756 223.95C157.951 227.108 156.502 230.066 154.5 232.639" stroke="#222120" stroke-linecap="round" stroke-linejoin="round"/>
<path d="M154.622 229.303C154.497 230.403 154.32 231.484 154.125 232.566C153.53 235.223 153.127 237.919 152.919 240.634C152.76 244.464 153.717 248.596 156.643 251.061" stroke="#222120" stroke-linecap="round" stroke-linejoin="round"/>
<path d="M186.472 228.401C187.815 229.081 189.018 230.007 190.019 231.132C191.201 232.442 192.089 233.99 192.626 235.671C193.159 237.391 193.305 239.208 193.051 240.991C192.868 242.45 192.417 243.863 191.721 245.158C190.3 247.311 188.767 249.389 187.128 251.382C186.341 252.42 185.778 253.61 185.473 254.876C185.167 256.143 185.127 257.458 185.355 258.741C184.37 258.708 183.41 258.421 182.568 257.909C181.726 257.396 181.03 256.675 180.549 255.815C179.467 254.166 178.9 252.269 177.977 250.495C177.592 249.588 177.017 248.772 176.293 248.102C175.568 247.433 174.71 246.925 173.774 246.612C172.746 246.473 171.7 246.545 170.7 246.822C169.7 247.099 168.767 247.577 167.958 248.226C166.06 249.467 164.411 250.939 162.442 252.162C160.631 253.41 158.531 254.173 156.342 254.379H156.129" stroke="#222120" stroke-linecap="round" stroke-linejoin="round"/>
<path d="M190.005 231.131C190.396 232.905 190.005 236.451 188.711 237.621C187.327 238.833 185.663 239.68 183.869 240.086L182.823 240.352C177.503 241.54 171.81 241.221 167.146 243.899C164.433 245.477 162.358 247.959 159.751 249.697C158.81 250.301 157.839 250.857 156.843 251.364L156.133 251.736L155.406 252.144C154.917 252.406 154.443 252.696 153.987 253.013C151.007 255.352 148.659 258.4 147.16 261.879C145.475 265.231 144.109 268.759 142.105 271.916" stroke="#222120" stroke-linecap="round" stroke-linejoin="round"/>
<path d="M197.185 217.672C196.882 218.008 196.509 218.275 196.092 218.452C195.676 218.63 195.226 218.715 194.773 218.701C193.96 218.575 193.159 218.379 192.379 218.116C187.176 224.318 183.859 231.88 182.82 239.909L182.98 239.767" stroke="#222120" stroke-linecap="round" stroke-linejoin="round"/>
<path d="M188.176 260.921C185.724 265.192 184.457 270.04 184.505 274.965" stroke="#222120" stroke-linecap="round" stroke-linejoin="round"/>
<path d="M203.372 263.473C197.808 266.904 192.912 271.314 188.919 276.489C188.351 277.233 187.802 277.978 187.27 278.741" stroke="#222120" stroke-linecap="round" stroke-linejoin="round"/>
<path d="M196.406 298.903C198.345 302.672 201.177 305.909 204.655 308.332C208.132 310.755 212.15 312.291 216.357 312.805" stroke="#222120" stroke-linecap="round" stroke-linejoin="round"/>
<path d="M197.555 284.132L223.447 311.547" stroke="#222120" stroke-linecap="round" stroke-linejoin="round"/>
<path d="M193.566 241.061C199.153 248.898 209.155 252.675 214.635 260.566C218.713 266.453 219.777 273.883 220.274 281.011C220.771 288.14 220.895 295.499 223.431 302.184C224.473 304.777 225.657 307.31 226.978 309.773C227.403 310.625 227.811 311.547 228.201 312.309C229.953 315.689 230.726 319.49 230.436 323.285C229.247 325.56 227.39 327.416 225.115 328.605" stroke="#222120" stroke-linecap="round" stroke-linejoin="round"/>
<path d="M230.505 323.339C230.186 321.741 229.257 320.329 227.916 319.403C226.58 318.488 225.09 317.822 223.518 317.435L222.862 317.275C218.572 316.174 214.095 316.017 209.738 316.814" stroke="#222120" stroke-linecap="round" stroke-linejoin="round"/>
<path d="M200.043 312.078H200.149H200.327L209.69 316.777L215.933 319.916C218.179 320.768 220.084 322.331 221.359 324.367" stroke="#222120" stroke-linecap="round" stroke-linejoin="round"/>
<path d="M222.773 317.647C223.603 321.324 224.242 325.041 224.688 328.783C224.992 331.421 225.022 334.084 224.777 336.727C224.657 338.685 224.157 340.6 223.305 342.366C222.443 344.145 220.923 345.519 219.066 346.197C218.146 346.501 217.158 346.54 216.217 346.308C215.276 346.076 214.419 345.582 213.746 344.884" stroke="#222120" stroke-linecap="round" stroke-linejoin="round"/>
<path d="M215.237 344.529L213.747 344.369C208.951 343.761 204.389 341.945 200.487 339.091C196.584 336.238 193.471 332.441 191.438 328.055" stroke="#222120" stroke-linecap="round" stroke-linejoin="round"/>
<path d="M188.83 322.949C187.849 323.796 186.579 324.235 185.283 324.172C184.875 324.172 184.45 324.172 184.042 324.03C179.631 323.558 175.329 322.36 171.309 320.484C168.068 319.106 165.231 316.927 163.062 314.153C162.004 312.751 161.309 311.109 161.04 309.374C160.771 307.638 160.935 305.862 161.519 304.206" stroke="#222120" stroke-linecap="round" stroke-linejoin="round"/>
<path d="M166.096 310.589C164.755 308.996 163.567 307.281 162.549 305.464C162.302 305.017 162.083 304.555 161.893 304.081C161.274 302.621 161.006 301.036 161.112 299.453C161.173 298.405 161.481 297.386 162.011 296.48C162.542 295.574 163.279 294.806 164.163 294.24" stroke="#222120" stroke-linecap="round" stroke-linejoin="round"/>
<path d="M170.83 303.797C169.94 301.802 168.744 299.959 167.283 298.335C166.218 297.068 165.4 295.613 164.871 294.044C164.724 293.519 164.647 292.976 164.641 292.43C164.634 291.553 164.823 290.686 165.194 289.891C165.565 289.097 166.109 288.395 166.787 287.838C167.346 287.373 168 287.035 168.702 286.845C169.768 286.562 170.896 286.618 171.93 287.004H172.036C172.496 288.709 173.468 290.231 174.82 291.366C176.17 292.499 177.632 293.492 179.183 294.328" stroke="#222120" stroke-linecap="round" stroke-linejoin="round"/>
<path d="M171.824 287.218C171.824 287.218 171.824 287.076 171.824 287.005C171.927 285.456 172.552 283.987 173.598 282.838C174.194 282.386 174.888 282.08 175.624 281.944C176.36 281.809 177.118 281.848 177.836 282.058C179.291 282.486 180.668 283.144 181.915 284.009L187.076 287.2C187.954 287.683 188.765 288.279 189.487 288.974C191.261 290.853 191.438 293.637 191.58 296.191" stroke="#222120" stroke-linecap="round" stroke-linejoin="round"/>
<path d="M168.491 285.977C167.707 285.461 167.062 284.761 166.612 283.938C166.403 283.52 166.351 283.042 166.465 282.59C166.579 282.138 166.851 281.742 167.232 281.473C168.101 281.012 169.148 281.473 170.141 281.473C171.441 281.286 172.615 280.591 173.404 279.54C174.192 278.486 175.28 277.695 176.525 277.27C177.83 277.169 179.132 277.499 180.231 278.21L186.066 281.118L186.988 281.579C188.893 282.398 190.64 283.544 192.149 284.966C192.405 285.233 192.642 285.517 192.858 285.817C194.335 288.017 195.142 290.598 195.181 293.247C195.166 296.244 195 299.239 194.685 302.22C194.542 304.17 194.649 306.131 195.004 308.054C195.211 309.084 195.545 310.084 195.997 311.033" stroke="#222120" stroke-linecap="round" stroke-linejoin="round"/>
<path d="M180.938 291.455C181.363 292.565 181.962 293.6 182.711 294.523" stroke="#222120" stroke-linecap="round" stroke-linejoin="round"/>
<path d="M172.887 299.895C172.927 300.986 173.326 302.033 174.022 302.874" stroke="#222120" stroke-linecap="round" stroke-linejoin="round"/>
<path d="M167.552 307.025C167.485 307.889 167.618 308.757 167.942 309.561C168.034 309.781 168.141 309.994 168.262 310.199" stroke="#222120" stroke-linecap="round" stroke-linejoin="round"/>
<path d="M189.931 315.748C189.877 315.662 189.841 315.565 189.824 315.465C189.792 315.287 189.809 315.104 189.874 314.935C189.938 314.766 190.048 314.618 190.19 314.507C190.332 314.396 190.502 314.326 190.681 314.304C190.861 314.282 191.043 314.309 191.207 314.383C191.316 314.425 191.413 314.492 191.491 314.578C191.685 314.712 191.825 314.91 191.886 315.137C191.948 315.364 191.926 315.605 191.826 315.818C191.726 316.031 191.554 316.201 191.34 316.299C191.126 316.397 190.884 316.415 190.658 316.351C190.496 316.319 190.345 316.247 190.218 316.142C190.091 316.037 189.992 315.901 189.931 315.748Z" stroke="#222120" stroke-width="0.5" stroke-linecap="round" stroke-linejoin="round"/>
<path d="M193.174 323.09C192.342 322.261 191.785 321.196 191.578 320.04C191.593 318.856 192.034 317.716 192.82 316.83C193.551 315.706 194.647 314.867 195.923 314.454C196.559 314.317 197.219 314.345 197.841 314.538C198.462 314.731 199.023 315.08 199.47 315.554C199.897 316.031 200.216 316.595 200.405 317.207C200.595 317.819 200.651 318.465 200.569 319.1C200.346 320.4 199.636 321.567 198.583 322.363C197.525 323.149 196.248 323.583 194.93 323.604C194.617 323.649 194.299 323.627 193.996 323.538C193.693 323.449 193.413 323.297 193.174 323.09Z" stroke="#222120" stroke-width="0.5" stroke-linecap="round" stroke-linejoin="round"/>
<path d="M189.627 315.979C188.996 317.055 188.659 318.278 188.652 319.526C188.545 320.534 188.717 321.552 189.148 322.469C189.179 322.541 189.221 322.606 189.273 322.664C189.63 323.249 190.107 323.751 190.673 324.136C191.724 324.864 192.947 325.304 194.22 325.413C194.973 325.487 195.733 325.445 196.473 325.289C197.448 325.079 198.371 324.678 199.19 324.109C200.009 323.54 200.707 322.814 201.243 321.973C202.322 320.265 202.698 318.206 202.289 316.228C202.094 315.132 201.597 314.112 200.853 313.284C200.595 313.019 200.309 312.781 200.002 312.575C198.851 311.834 197.476 311.52 196.118 311.688H195.958C194.191 312.007 192.581 312.905 191.383 314.242" stroke="#222120" stroke-width="0.5" stroke-linecap="round" stroke-linejoin="round"/>
<path d="M195.25 308.053C195.706 308.025 196.164 308.091 196.594 308.246C197.024 308.402 197.417 308.644 197.75 308.957C198.881 309.798 199.768 310.924 200.322 312.22" stroke="#222120" stroke-linecap="round" stroke-linejoin="round"/>
<path d="M184.008 324.829C184.735 325.964 185.776 326.863 187.005 327.418C187.401 327.614 187.826 327.746 188.264 327.808C188.623 327.852 188.987 327.852 189.346 327.808H189.825C190.323 327.758 190.815 327.663 191.297 327.524C191.649 327.453 191.994 327.346 192.325 327.205C193.029 326.963 193.646 326.519 194.098 325.928" stroke="#222120" stroke-linecap="round" stroke-linejoin="round"/>
<path d="M197.504 173.5L198.266 174.458C198.515 174.777 198.745 175.114 198.976 175.469C199.422 176.156 199.83 176.866 200.199 177.597" stroke="#222120" stroke-width="0.5" stroke-linecap="round" stroke-linejoin="round"/>
<path d="M198.566 171.514L199.098 172.436C199.506 173.146 199.932 173.855 200.411 174.529C200.606 174.848 200.819 175.167 201.031 175.469" stroke="#222120" stroke-width="0.5" stroke-linecap="round" stroke-linejoin="round"/>
<path d="M23.6562 50.0127C30.8681 56.2308 37.8613 62.6972 44.6358 69.4119C51.4812 76.2034 58.1137 83.2431 64.4626 90.5133" stroke="#222120" stroke-width="0.5" stroke-linecap="round" stroke-linejoin="round"/>
<path d="M43.625 70.4397L44.6359 69.4113C54.0129 59.8997 64.3544 51.3896 75.4933 44.0186" stroke="#222120" stroke-width="0.5" stroke-linecap="round" stroke-linejoin="round"/>
<path d="M58.2887 56.6258C57.403 53.812 55.9004 51.2313 53.8906 49.0718C53.6058 48.744 53.2455 48.4904 52.8407 48.3328C52.436 48.1753 51.999 48.1185 51.5674 48.1674C51.1401 48.3193 50.7756 48.6092 50.5315 48.9914C50.2874 49.3736 50.1777 49.8261 50.2197 50.2776C50.3352 51.1863 50.7108 52.0422 51.3014 52.7424C52.0807 53.8915 53.1189 54.8416 54.3326 55.5161C55.5462 56.1906 56.9013 56.5707 58.2887 56.6258Z" stroke="#222120" stroke-width="0.5" stroke-linecap="round" stroke-linejoin="round"/>
<path d="M63.8398 52.708C64.4567 54.7584 65.3265 56.7242 66.429 58.5598C66.8548 59.3526 67.4626 60.0333 68.2024 60.5458C68.5854 60.7848 69.0278 60.9114 69.4793 60.9114C69.9308 60.9114 70.3732 60.7848 70.7562 60.5458C71.0996 60.2584 71.3526 59.8778 71.4847 59.45C71.6169 59.0221 71.6225 58.5651 71.501 58.1341C71.2448 57.272 70.7535 56.4984 70.0822 55.8999C68.358 54.2491 66.1878 53.1394 63.8398 52.708Z" stroke="#222120" stroke-width="0.5" stroke-linecap="round" stroke-linejoin="round"/>
<path d="M78.2915 35.8438C77.9279 36.7557 77.7866 37.741 77.8791 38.7184C77.9716 39.6958 78.2954 40.6373 78.8236 41.4649C79.3671 42.2813 80.0947 42.9585 80.948 43.4421C81.8013 43.9257 82.7563 44.202 83.7359 44.2489" stroke="#222120" stroke-width="0.5" stroke-linecap="round" stroke-linejoin="round"/>
<path d="M86.6457 33.3257C85.6137 33.8957 84.6699 34.6125 83.8438 35.4536H83.9856" stroke="#222120" stroke-width="0.5" stroke-linecap="round" stroke-linejoin="round"/>
<path d="M89.8586 37.7773C88.9523 38.5221 87.935 39.1204 86.8438 39.5506" stroke="#222120" stroke-width="0.5" stroke-linecap="round" stroke-linejoin="round"/>
<path d="M84.9259 27.8467H84.6954C83.7593 27.9809 82.8386 28.2066 81.9465 28.5205C81.3916 28.6947 80.8518 28.9142 80.3327 29.1766C79.1677 29.6993 78.0766 30.373 77.0874 31.1804C76.6448 31.5259 76.2297 31.9053 75.846 32.3152L75.3494 32.8117C74.8702 33.3582 74.4484 33.9524 74.0903 34.5849C73.7515 35.1359 73.4946 35.7333 73.3278 36.3582C73.2701 36.5566 73.2227 36.7579 73.1859 36.9611C73.0526 37.7178 73.0526 38.4919 73.1859 39.2486C73.2545 39.6615 73.3674 40.0657 73.5228 40.4544C73.7672 41.2205 74.0943 41.9578 74.4982 42.6531L74.7642 43.0965C74.977 43.4688 75.2076 43.8412 75.4558 44.1959C75.6424 44.4938 75.8499 44.7783 76.0765 45.0471C76.7457 45.9346 77.5132 46.7436 78.3643 47.4587C78.7422 47.7722 79.139 48.0624 79.5524 48.3275C79.7475 48.4694 79.9781 48.5935 80.1909 48.7176C80.9058 49.1105 81.6609 49.4256 82.4431 49.6574C83.1198 49.8572 83.815 49.9879 84.518 50.0475C85.2769 50.154 86.0469 50.154 86.8057 50.0475C87.3132 49.9636 87.8119 49.8331 88.2954 49.6574C88.6105 49.5397 88.9184 49.4036 89.2176 49.2496C90.2052 48.7201 91.103 48.0378 91.8777 47.2281C92.588 46.4867 93.2181 45.6724 93.7575 44.7988L93.8462 44.6747C94.5034 43.687 94.9557 42.5775 95.1763 41.4119C95.3457 39.8015 95.0888 38.1749 94.4314 36.6951C94.1145 35.8751 93.7351 35.0807 93.2964 34.3189C92.718 33.3017 92.015 32.3606 91.2038 31.5173C91.0087 31.3045 90.7959 31.0916 90.5831 30.8966L89.6964 30.1696C88.9849 29.6487 88.2176 29.2086 87.4087 28.8574C86.6419 28.3871 85.8031 28.0456 84.9259 27.8467Z" stroke="#222120" stroke-width="0.5" stroke-linecap="round" stroke-linejoin="round"/>
<path d="M84.9278 27.8114C85.0952 25.502 84.6679 23.1882 83.6865 21.0909C83.3888 20.343 82.9284 19.6705 82.3387 19.1225C82.0237 18.8062 81.6217 18.5906 81.1839 18.5031C80.7461 18.4157 80.2922 18.4603 79.8798 18.6313C79.4674 18.8023 79.1151 19.092 78.8677 19.4637C78.6203 19.8353 78.489 20.2721 78.4904 20.7185C78.4334 21.6839 78.6226 22.6479 79.0401 23.5202C79.7292 25.2295 80.6805 26.8208 81.8599 28.237" stroke="#222120" stroke-width="0.5" stroke-linecap="round" stroke-linejoin="round"/>
<path d="M80.2966 28.9995C79.3937 26.9934 78.1519 25.1579 76.6256 23.5734C75.8951 22.6926 74.9001 22.0707 73.7881 21.8002C73.2326 21.6881 72.6552 21.788 72.1696 22.08C71.6839 22.3721 71.325 22.8352 71.1635 23.3784C71.1137 24.0947 71.3212 24.8052 71.7487 25.3821C73.1611 27.4537 74.8837 29.2958 76.8562 30.8437" stroke="#222120" stroke-width="0.5" stroke-linecap="round" stroke-linejoin="round"/>
<path d="M75.7954 32.2275C74.4145 30.5692 72.6403 29.283 70.6348 28.486C69.9474 28.1703 69.1888 28.0418 68.4357 28.1136C68.06 28.1508 67.7045 28.3013 67.4163 28.5451C67.1281 28.789 66.9208 29.1147 66.8219 29.4791C66.8065 29.9171 66.9026 30.3518 67.1011 30.7426C67.2996 31.1334 67.5941 31.4674 67.9569 31.7133C69.566 33.1153 71.5641 33.9937 73.685 34.2313" stroke="#222120" stroke-width="0.5" stroke-linecap="round" stroke-linejoin="round"/>
<path d="M72.8472 36.0206C70.63 35.1394 68.2348 34.799 65.8599 35.0276C65.2312 35.0816 64.6239 35.282 64.0865 35.6128C63.8195 35.7795 63.5943 36.0053 63.4282 36.2728C63.2622 36.5402 63.1598 36.8422 63.1289 37.1555C63.1334 37.5104 63.2266 37.8586 63.4 38.1683C63.5735 38.478 63.8217 38.7394 64.122 38.9287C64.7184 39.2832 65.3834 39.5068 66.0728 39.5848C68.4401 39.9814 70.8669 39.8297 73.1664 39.1415" stroke="#222120" stroke-width="0.5" stroke-linecap="round" stroke-linejoin="round"/>
<path d="M73.3649 40.3477C72.0698 40.4853 70.7958 40.777 69.5698 41.2165C68.2131 41.6783 67.0431 42.5682 66.2358 43.7522C66.0214 44.0342 65.8827 44.3665 65.833 44.7172C65.7833 45.068 65.8243 45.4256 65.9521 45.756C66.0933 45.9691 66.2789 46.1492 66.4962 46.2838C66.7136 46.4185 66.9574 46.5046 67.2112 46.5362C67.7263 46.5837 68.2458 46.5233 68.7363 46.3589C70.9461 45.7557 72.9699 44.6097 74.624 43.0253" stroke="#222120" stroke-width="0.5" stroke-linecap="round" stroke-linejoin="round"/>
<path d="M76.0445 44.9233C74.2235 46.0571 72.6444 47.5395 71.3982 49.2854C71.0624 49.7097 70.8042 50.19 70.6356 50.7041C70.5628 50.965 70.5441 51.2379 70.5807 51.5063C70.6173 51.7747 70.7084 52.0326 70.8485 52.2644C71.0723 52.534 71.3664 52.7364 71.6982 52.8491C72.03 52.9618 72.3865 52.9804 72.7283 52.9029C73.3881 52.7316 73.9966 52.403 74.5017 51.9453C76.0113 50.7462 77.2502 49.2415 78.1372 47.5299" stroke="#222120" stroke-width="0.5" stroke-linecap="round" stroke-linejoin="round"/>
<path d="M79.4834 48.3276C78.3767 49.6108 77.5331 51.0989 77.0006 52.7075C76.663 53.5384 76.541 54.4412 76.6459 55.3319C76.7067 55.7762 76.885 56.1962 77.1625 56.5484C77.44 56.9007 77.8065 57.1725 78.2242 57.3357C78.7832 57.4596 79.3673 57.3986 79.8886 57.162C80.4099 56.9253 80.8403 56.5259 81.1149 56.0235C81.65 55.0146 81.9586 53.9011 82.0193 52.7607L82.3917 49.764" stroke="#222120" stroke-width="0.5" stroke-linecap="round" stroke-linejoin="round"/>
<path d="M84.538 50.0467C83.9294 51.2456 83.63 52.5776 83.6671 53.9216C83.7043 55.2656 84.0768 56.5791 84.7508 57.7426C84.8682 58.0044 85.0419 58.237 85.2595 58.424C85.4772 58.611 85.7334 58.7476 86.0099 58.8242C86.3434 58.8299 86.6717 58.7413 86.9572 58.5688C87.2426 58.3963 87.4737 58.1468 87.6237 57.849C88.2782 56.5992 88.4304 55.1466 88.0493 53.7883C87.7656 52.4229 87.1981 51.1284 86.8434 49.7808" stroke="#222120" stroke-width="0.5" stroke-linecap="round" stroke-linejoin="round"/>
<path d="M89.1641 48.9483C90.1183 51.6941 91.9347 54.0578 94.3425 55.6867C94.7994 56.0533 95.3705 56.2479 95.9562 56.2364C96.2998 56.1802 96.6192 56.0241 96.8746 55.7876C97.1301 55.5511 97.3103 55.2447 97.3927 54.9065C97.5536 54.2208 97.4978 53.5021 97.2331 52.8495C96.3286 50.2251 94.3956 48.8775 92.1434 47.2461" stroke="#222120" stroke-width="0.5" stroke-linecap="round" stroke-linejoin="round"/>
<path d="M5.58203 58.9847C10.9732 55.0954 16.3999 51.2534 21.862 47.4587C42.5164 33.0482 63.5372 19.1755 84.9246 5.84082" stroke="#222120" stroke-width="0.5" stroke-linecap="round" stroke-linejoin="round"/>
<path d="M3.63452 62.0698C3.5327 64.1829 4.25059 66.2538 5.63849 67.8506C5.7034 65.7429 4.99004 63.6852 3.63452 62.0698Z" stroke="#222120" stroke-width="0.5" stroke-linecap="round" stroke-linejoin="round"/>
<path d="M6.13672 67.7625C7.62833 69.0326 8.97273 70.466 10.1447 72.0359C21.5922 86.1333 34.4776 98.9996 48.5923 110.426C49.6032 110.994 50.8268 110.249 51.749 109.54L89.3277 80.4233" stroke="#222120" stroke-width="0.5" stroke-linecap="round" stroke-linejoin="round"/>
<path d="M102.414 71.4148C110.838 65.0454 119.593 59.1263 128.643 53.6825C128.239 53.2628 127.927 52.7641 127.726 52.2178C127.524 51.6716 127.438 51.0895 127.472 50.5083C127.463 50.3371 127.463 50.1654 127.472 49.9941" stroke="#222120" stroke-width="0.5" stroke-linecap="round" stroke-linejoin="round"/>
<path d="M93.9727 44.4442C95.9272 46.5137 98.4308 47.9838 101.19 48.6823C101.866 48.9305 102.608 48.9305 103.283 48.6823C103.759 48.3968 104.115 47.9479 104.285 47.4194C104.455 46.8909 104.426 46.3188 104.205 45.8096C103.723 44.8005 102.935 43.9691 101.953 43.4334C99.9733 42.2045 97.7433 41.4349 95.4269 41.1814" stroke="#222120" stroke-width="0.5" stroke-linecap="round" stroke-linejoin="round"/>
<path d="M95.1777 38.6461C97.9396 39.1266 100.782 38.7876 103.353 37.6708C103.791 37.5411 104.194 37.3143 104.531 37.0073C104.869 36.7002 105.133 36.3209 105.304 35.8976C105.379 35.4282 105.296 34.9471 105.068 34.5299C104.84 34.1127 104.48 33.7829 104.045 33.5924C103.158 33.2234 102.178 33.1428 101.243 33.3619C98.9592 33.8787 96.7656 34.7333 94.7344 35.8976L95.1777 38.6461Z" stroke="#222120" stroke-width="0.5" stroke-linecap="round" stroke-linejoin="round"/>
<path d="M93.8101 33.9112C95.847 33.3032 97.8008 32.4456 99.6269 31.3578C100.219 31.0363 100.753 30.6165 101.205 30.1165C101.418 29.8755 101.581 29.5948 101.685 29.2904C101.788 28.986 101.83 28.664 101.808 28.3432C101.717 27.939 101.514 27.5686 101.222 27.2739C100.931 26.9793 100.562 26.7723 100.159 26.6764C99.3523 26.4886 98.5053 26.589 97.7649 26.9602C97.0225 27.3189 96.3259 27.7654 95.69 28.2901L91.8594 31.1805" stroke="#222120" stroke-width="0.5" stroke-linecap="round" stroke-linejoin="round"/>
<path d="M89.7701 29.8331C91.012 28.6315 92.075 27.2581 92.9268 25.7547C93.3517 25.0002 93.6096 24.1633 93.683 23.3006C93.7564 22.4379 93.6437 21.5695 93.3524 20.7542C93.2148 20.345 92.9691 19.9806 92.6413 19.6997C92.3135 19.4187 91.9158 19.2316 91.4904 19.1582C91.1196 19.1786 90.7578 19.2796 90.43 19.4542C90.1023 19.6288 89.8166 19.8727 89.5928 20.169C88.6587 21.2912 88.0458 22.6454 87.8194 24.0878C87.5855 25.5177 87.4846 26.9661 87.5179 28.4145" stroke="#222120" stroke-width="0.5" stroke-linecap="round" stroke-linejoin="round"/>
<path d="M153.592 256.772C153.34 256.844 153.114 256.988 152.944 257.187C152.774 257.386 152.666 257.631 152.635 257.891C152.603 258.151 152.649 258.415 152.767 258.649C152.885 258.883 153.069 259.077 153.297 259.207C153.524 259.337 153.785 259.396 154.046 259.378C154.308 259.36 154.558 259.265 154.766 259.106C154.973 258.946 155.129 258.728 155.214 258.48C155.298 258.233 155.308 257.965 155.241 257.712C155.138 257.374 154.91 257.089 154.603 256.914C154.296 256.74 153.935 256.689 153.592 256.772Z" stroke="#222120" stroke-linecap="round" stroke-linejoin="round"/>
<path d="M88.3131 71.4858C88.1977 72.2618 88.1977 73.0506 88.3131 73.8265C88.3872 74.203 88.5454 74.558 88.7756 74.865C89.0059 75.172 89.3024 75.4231 89.6431 75.5998C90.1406 75.7859 90.689 75.7841 91.1853 75.5948C91.6816 75.4054 92.0917 75.0415 92.3387 74.5713C92.5652 74.0893 92.6583 73.5555 92.6084 73.0253C92.5585 72.4951 92.3674 71.988 92.055 71.5567" stroke="#222120" stroke-linecap="round" stroke-linejoin="round"/>
</svg>
