<svg width="140" height="218" viewBox="0 0 140 218" fill="none" xmlns="http://www.w3.org/2000/svg">
<path d="M116.238 102.793L117.075 102.245C116.796 101.853 116.548 101.44 116.311 101.027L117.157 100.532C117.102 98.9913 116.678 97.4864 115.918 96.1447C115.37 95.392 114.965 94.5454 114.721 93.6466C114.287 93.6395 113.86 93.5443 113.464 93.3669C113.068 93.1894 112.713 92.9334 112.419 92.6144C111.841 92.547 111.287 92.3493 110.797 92.0364C110.307 91.7235 109.894 91.3034 109.591 90.8079C109.146 90.9333 108.676 90.9299 108.234 90.7984C107.792 90.6668 107.396 90.4123 107.092 90.0646C106.857 90.0936 106.618 90.0738 106.391 90.0063C106.164 89.9388 105.953 89.8251 105.771 89.6723C105.503 89.3673 105.139 89.1633 104.739 89.0943C104.493 89.1159 104.252 89.1787 104.027 89.2801C103.915 89.3332 103.79 89.3527 103.667 89.3362C103.544 89.3197 103.429 89.2679 103.335 89.1872C102.623 89.1872 102.107 89.1252 101.601 89.0736C101.439 89.0634 101.277 89.0634 101.116 89.0736C100.74 89.1466 100.37 89.2502 100.011 89.3833C99.8336 89.4407 99.6438 89.4489 99.4621 89.4071C99.2803 89.3653 99.1133 89.275 98.9787 89.1459C95.996 90.9866 93.4578 93.4649 91.5463 96.4028L91.1128 96.1241C90.9447 95.9828 90.8072 95.8088 90.7084 95.6127C90.6096 95.4166 90.5517 95.2025 90.5382 94.9834C90.5247 94.7643 90.5559 94.5447 90.6298 94.338C90.7037 94.1313 90.8189 93.9416 90.9683 93.7808C90.6735 93.3252 90.5444 92.7822 90.6027 92.2427C90.661 91.7032 90.903 91.2002 91.2883 90.8181C91.1648 90.6219 91.0833 90.4023 91.0487 90.1731C91.0142 89.9439 91.0274 89.71 91.0874 89.4861C91.1475 89.2622 91.2532 89.0532 91.3979 88.872C91.5426 88.6909 91.7232 88.5416 91.9283 88.4336C91.7908 88.2095 91.7088 87.9559 91.689 87.6938C91.6693 87.4317 91.7124 87.1686 91.8147 86.9265C92.0919 86.389 92.5484 85.9654 93.1051 85.729C92.8161 84.9548 93.2599 83.9845 94.4986 83.4167C94.4591 83.183 94.4731 82.9435 94.5394 82.7159C94.6058 82.4884 94.7228 82.2788 94.8818 82.103C95.0407 81.9272 95.2374 81.7897 95.4571 81.7007C95.6768 81.6118 95.9138 81.5738 96.1503 81.5896C96.2058 81.3419 96.3106 81.108 96.4585 80.9018C96.6065 80.6955 96.7944 80.5212 97.0112 80.3892C97.228 80.2572 97.4692 80.1702 97.7203 80.1335C97.9715 80.0968 98.2274 80.111 98.4729 80.1754C98.537 79.946 98.6462 79.7316 98.7939 79.5448C98.9417 79.3579 99.1251 79.2023 99.3336 79.087C99.5421 78.9718 99.7713 78.8991 100.008 78.8733C100.245 78.8474 100.485 78.869 100.713 78.9367C100.992 78.4684 101.411 78.1003 101.912 77.8852C102.413 77.6701 102.969 77.619 103.5 77.7392C103.923 76.996 104.956 76.707 106.39 77.3573C106.731 76.4902 107.887 76.0669 109.487 76.6553C109.68 76.4587 109.909 76.3025 110.163 76.1958C110.416 76.0891 110.688 76.0342 110.963 76.0342C111.238 76.0342 111.511 76.0891 111.764 76.1958C112.018 76.3025 112.247 76.4587 112.44 76.6553C113.142 75.9431 114.422 75.9018 115.918 76.6553C116.092 76.4762 116.307 76.3435 116.546 76.2696C116.784 76.1956 117.037 76.1827 117.281 76.2321C117.766 76.325 118.189 76.6863 118.86 77.4399C119.081 77.2768 119.339 77.17 119.61 77.1286C119.882 77.0873 120.159 77.1126 120.419 77.2024C120.92 77.3856 121.331 77.7555 121.565 78.2347C122.659 77.987 123.877 78.7405 124.662 80.1341C124.865 80.0024 125.098 79.9231 125.339 79.9033C125.58 79.8834 125.823 79.9238 126.045 80.0206C126.506 80.2738 126.869 80.6733 127.077 81.1561C127.924 81.1561 128.729 81.7651 129.524 82.9935C129.762 82.9382 130.01 82.9483 130.243 83.0228C130.475 83.0973 130.684 83.2334 130.845 83.4167C131.172 83.912 131.338 84.496 131.32 85.089C131.739 84.9764 132.182 84.9944 132.59 85.1406C132.784 85.2669 132.945 85.4377 133.06 85.6387C133.175 85.8398 133.24 86.0654 133.25 86.2968C133.476 86.4665 133.736 86.5858 134.012 86.6463C134.288 86.7069 134.574 86.7074 134.85 86.6478C135.15 87.0297 134.52 87.5355 134.592 88.0104C134.63 88.1454 134.701 88.2688 134.798 88.3697C134.895 88.4706 135.016 88.5458 135.15 88.5885C135.416 88.6703 135.662 88.8075 135.872 88.9911C135.836 89.4307 135.912 89.8724 136.092 90.2749C136.273 90.6775 136.552 91.0277 136.905 91.293C136.843 91.613 136.657 91.9227 136.76 92.2324C136.863 92.542 137.328 92.6866 137.699 92.7279C137.794 93.1951 137.701 93.6807 137.441 94.0802C137.821 94.4303 138.078 94.8939 138.173 95.4018C138.268 95.9097 138.196 96.4346 137.968 96.8983C138.174 97.5486 138.37 98.1989 138.577 98.8389C138.726 99.2307 138.796 99.6483 138.783 100.067C138.704 100.537 138.481 100.97 138.143 101.306C138.361 101.524 138.542 101.775 138.68 102.049C138.746 102.188 138.78 102.34 138.78 102.493C138.78 102.647 138.746 102.798 138.68 102.937C138.515 103.236 138.154 103.391 137.999 103.691C137.937 103.85 137.921 104.023 137.952 104.19C137.983 104.358 138.06 104.514 138.174 104.64C138.495 104.937 138.764 105.286 138.969 105.673C138.463 105.621 138.092 106.178 138.05 106.705C138.009 107.231 138.195 107.737 138.174 108.212C138.172 108.49 138.085 108.761 137.924 108.988C137.764 109.215 137.538 109.387 137.276 109.482C137.499 109.836 137.59 110.258 137.534 110.673C137.477 111.089 137.276 111.471 136.966 111.753V112.29C137.089 112.604 137.087 112.953 136.961 113.266C136.834 113.579 136.592 113.832 136.285 113.972C136.528 114.08 136.721 114.277 136.822 114.524C136.923 114.77 136.925 115.045 136.828 115.293C136.73 115.541 136.541 115.741 136.3 115.853C136.058 115.964 135.783 115.979 135.532 115.892C135.548 116.358 135.405 116.816 135.128 117.191C134.85 117.566 134.454 117.836 134.004 117.957C134.155 118.108 134.255 118.303 134.291 118.514C134.327 118.725 134.296 118.942 134.203 119.134C134.11 119.327 133.959 119.486 133.772 119.589C133.585 119.693 133.37 119.736 133.157 119.712C133.195 119.883 133.188 120.061 133.137 120.229C133.087 120.397 132.994 120.549 132.868 120.672C132.614 120.823 132.339 120.937 132.053 121.012C131.784 121.126 131.495 121.312 131.444 121.601C131.353 122.08 131.37 122.574 131.495 123.046C130.827 122.844 130.121 122.795 129.431 122.901C129.331 123.278 129.089 123.601 128.756 123.803C128.423 124.005 128.025 124.07 127.645 123.985C127.457 124.491 127.141 124.94 126.726 125.286C126.528 125.396 126.302 125.448 126.076 125.435C125.849 125.423 125.631 125.346 125.446 125.214C125.217 125.647 124.828 125.975 124.362 126.127C123.896 126.279 123.389 126.244 122.948 126.029H122.277C123.369 125.377 124.303 124.493 125.013 123.438C125.589 122.595 125.967 121.632 126.119 120.622C126.271 119.612 126.193 118.581 125.89 117.606C125.607 116.745 125.075 115.987 124.362 115.428C123.711 114.976 122.967 114.676 122.184 114.55C120.251 114.127 118.229 114.432 116.507 115.407H116.373C115.423 113.497 115.547 111.278 115.66 109.12C115.774 106.963 115.836 104.723 114.762 102.927L115.743 102.235C115.97 102.39 116.104 102.586 116.238 102.793Z" fill="#1D1D1B"/>
<path d="M133.303 182.462C134.322 184.43 134.773 186.643 134.603 188.852C134.418 187.922 133.877 187.1 133.096 186.561C132.318 186.028 131.451 185.64 130.536 185.415L130.154 185.322C127.657 184.681 125.051 184.59 122.515 185.053V185.115L117.024 182.39C116.701 181.636 116.185 180.981 115.527 180.491C115.333 180.308 115.104 180.168 114.854 180.077C114.603 179.987 114.337 179.948 114.071 179.964H113.927C113.72 178.845 113.658 177.703 113.741 176.568C113.925 174.833 114.021 173.09 114.03 171.345C114.007 169.803 113.538 168.3 112.678 167.02L115.413 165.987L130.484 181.946L132.549 180.914C132.838 181.482 133.076 181.967 133.303 182.462Z" fill="#878787"/>
<path d="M133.084 186.582C133.865 187.121 134.406 187.943 134.591 188.873C133.899 190.197 132.819 191.278 131.495 191.97H131.226C130.967 189.791 130.595 187.627 130.111 185.487V185.271L130.493 185.363C131.424 185.607 132.303 186.02 133.084 186.582Z" fill="black"/>
<path d="M110.386 161.599L107.815 160.712C107.787 157.845 108.525 155.022 109.952 152.536L108.28 151.256C108.147 150.509 108.171 149.743 108.348 149.006C108.526 148.269 108.854 147.576 109.312 146.972C110.266 145.812 111.158 144.602 111.986 143.349C112.391 142.595 112.653 141.772 112.76 140.923H113.069C116.321 145.486 122.143 147.684 125.333 152.278C127.707 155.705 128.327 160.03 128.616 164.18C128.905 168.33 128.977 172.614 130.453 176.505C131.06 178.015 131.749 179.49 132.518 180.924L130.453 181.956L115.382 165.997L112.646 167.029C112.521 166.854 112.382 166.689 112.233 166.534C111.355 165.706 110.338 165.038 109.229 164.562L108.693 164.294L109.395 162.879C109.735 162.466 110.055 162.033 110.386 161.599Z" fill="#878787"/>
<path d="M118.116 184.734C118.354 185.886 118.136 187.085 117.507 188.079C117.195 188.568 116.789 188.991 116.312 189.322C115.836 189.653 115.298 189.887 114.73 190.009C114.3 190.1 113.857 190.124 113.419 190.081C112.678 190.018 111.966 189.762 111.355 189.338C111.025 189.114 110.747 188.821 110.539 188.481C110.509 188.447 110.485 188.409 110.467 188.368C110.216 187.834 110.116 187.241 110.178 186.654C110.182 185.928 110.378 185.216 110.746 184.59L110.921 184.486C110.964 184.566 111.024 184.634 111.097 184.686C111.171 184.738 111.256 184.772 111.344 184.786C111.476 184.823 111.617 184.812 111.742 184.755C111.866 184.698 111.967 184.599 112.025 184.475C112.083 184.351 112.095 184.211 112.06 184.078C112.024 183.946 111.942 183.831 111.83 183.753C111.784 183.703 111.728 183.664 111.664 183.64L111.716 183.537C112.414 182.759 113.351 182.236 114.379 182.05H114.472C115.263 181.952 116.063 182.135 116.733 182.566C116.912 182.686 117.078 182.825 117.228 182.979C117.687 183.467 117.995 184.076 118.116 184.734ZM117.187 186.448C117.235 186.078 117.202 185.702 117.092 185.346C116.981 184.989 116.796 184.661 116.547 184.383C116.287 184.108 115.961 183.904 115.599 183.792C115.237 183.68 114.853 183.663 114.483 183.743C113.74 183.983 113.102 184.472 112.676 185.126C112.219 185.642 111.962 186.305 111.954 186.995C112.074 187.668 112.398 188.288 112.883 188.77C113.019 188.899 113.182 188.997 113.361 189.056C113.539 189.114 113.728 189.133 113.915 189.111C114.682 189.099 115.426 188.846 116.041 188.388C116.659 187.913 117.07 187.218 117.187 186.448Z" fill="#A55DA1"/>
<path d="M116.92 182.39L116.786 182.648C116.116 182.217 115.316 182.034 114.525 182.132V181.781C114.262 181.229 114.068 180.646 113.947 180.047H114.092C114.357 180.03 114.624 180.069 114.874 180.159C115.124 180.25 115.353 180.391 115.547 180.573C116.205 181.063 116.722 181.718 117.044 182.472L116.92 182.39Z" fill="#A55DA1"/>
<path d="M110.023 195.542C110.638 196.54 110.953 197.694 110.932 198.866C110.72 199.776 110.72 200.722 110.932 201.632C111.222 202.147 111.608 202.602 112.067 202.974C113.6 204.508 114.461 206.587 114.462 208.755H114.153C114.297 211.542 112.449 214.164 110.023 215.619C107.552 216.955 104.801 217.69 101.992 217.767C97.3626 218.033 92.7183 217.871 88.1185 217.281C80.7044 216.588 73.4052 214.976 66.3891 212.481C65.1168 212.128 63.9756 211.411 63.1065 210.417C63.0432 210.346 62.9958 210.262 62.9673 210.171C62.9388 210.081 62.93 209.985 62.9413 209.89C62.9413 209.715 63.2407 209.581 63.3646 209.725L63.1684 209.364L63.4162 209.23C60.0481 189.213 61.8823 168.667 68.7427 149.564L68.0304 149.306C67.1347 146.366 66.533 143.343 66.2343 140.284V140.088C62.5043 137.5 58.85 134.806 55.2715 132.005L55.3954 132.057C55.587 132.095 55.7847 132.089 55.974 132.041C56.1633 131.993 56.3395 131.903 56.4896 131.778C57.7833 130.745 58.8012 129.408 59.4522 127.886C60.7632 125.337 61.971 122.725 63.1168 120.103C65.5013 114.601 67.5969 108.944 69.7233 103.194L69.8679 102.905C72.5561 109.239 76.1478 115.15 80.5313 120.454C83.3804 123.902 86.5907 127.122 88.7895 131.024L88.934 131.541C87.3237 131.974 85.7305 132.449 84.1546 132.965C83.2014 133.168 82.3437 133.684 81.7184 134.431C80.9132 135.659 81.5016 137.373 80.8616 138.694C80.2216 140.016 78.6422 140.501 77.2177 140.862C78.869 140.982 80.5268 140.748 82.0807 140.176C83.6346 139.605 85.0489 138.709 86.2295 137.548L86.6527 137.435C86.8538 138.258 86.9269 139.108 86.8695 139.954C86.7299 141.228 86.7892 142.517 87.045 143.773C87.2975 144.621 87.7693 145.387 88.4127 145.994C89.0562 146.602 89.8484 147.028 90.7095 147.231L90.8334 147.541L91.2566 147.303L91.3495 148.8C92.624 148.681 93.8465 148.236 94.9006 147.51C96.0051 146.798 96.9651 145.941 98.1109 145.218C98.5823 144.841 99.1254 144.562 99.7075 144.401C100.289 144.24 100.898 144.198 101.497 144.279C102.041 144.461 102.541 144.757 102.963 145.147C103.385 145.536 103.719 146.011 103.943 146.54C104.48 147.572 104.81 148.666 105.44 149.636C105.72 150.137 106.125 150.557 106.615 150.855C107.105 151.154 107.664 151.32 108.238 151.34L109.91 152.62C108.483 155.106 107.745 157.928 107.773 160.795L110.343 161.683C110.013 162.117 109.693 162.55 109.383 162.994L108.681 164.408L105.285 162.715C104.645 162.302 103.887 162.109 103.128 162.168C102.403 162.415 101.77 162.876 101.311 163.49C100.852 164.101 100.169 164.506 99.4116 164.615C98.8335 164.615 98.2245 164.315 97.7187 164.615C97.4969 164.771 97.3385 165.002 97.2722 165.265C97.206 165.528 97.2362 165.807 97.3574 166.05C97.6194 166.529 97.9951 166.937 98.4516 167.237L98.5342 167.743C98.1254 167.853 97.7452 168.05 97.4193 168.321C97.0251 168.645 96.7084 169.053 96.4923 169.516C96.2762 169.979 96.1662 170.484 96.1703 170.994C96.1736 171.312 96.2187 171.628 96.3045 171.934L95.8916 172.047C95.377 172.377 94.948 172.824 94.6394 173.351C94.3308 173.879 94.1514 174.472 94.116 175.082C94.0543 176.003 94.2099 176.926 94.5702 177.776L94.4257 177.828C94.0857 178.792 93.9898 179.826 94.1465 180.836C94.3032 181.847 94.7077 182.803 95.3238 183.619C96.5861 185.234 98.2377 186.502 100.124 187.304C102.464 188.396 104.968 189.094 107.536 189.369V189.833C107.959 190.494 108.565 191.018 109.28 191.34C109.511 191.455 109.758 191.531 110.013 191.567C110.222 191.593 110.434 191.593 110.643 191.567V191.856C110.966 193.112 110.781 194.443 110.127 195.562L110.023 195.542ZM90.2347 151.618C90.4276 151.556 90.5904 151.425 90.6916 151.249C90.7927 151.074 90.8249 150.867 90.7818 150.669C90.7419 150.521 90.6591 150.388 90.5438 150.288C90.4286 150.187 90.2861 150.123 90.1343 150.103C89.9825 150.083 89.8283 150.109 89.6911 150.177C89.5539 150.244 89.4399 150.351 89.3635 150.484C89.2871 150.617 89.2517 150.769 89.2618 150.922C89.272 151.074 89.3271 151.221 89.4204 151.342C89.5136 151.463 89.6407 151.555 89.7856 151.604C89.9306 151.653 90.0869 151.658 90.2347 151.618Z" fill="#878787"/>
<path d="M113.421 190.081V190.37C113.157 190.714 112.798 190.973 112.388 191.113C112.195 191.195 111.995 191.258 111.79 191.299C111.509 191.38 111.223 191.435 110.933 191.464H110.654C110.445 191.49 110.233 191.49 110.024 191.464C109.769 191.428 109.522 191.352 109.291 191.237C108.576 190.915 107.97 190.391 107.547 189.73V189.266C107.784 189.266 108.032 189.327 108.269 189.348C109.024 189.384 109.763 189.129 110.334 188.636L110.592 188.471C110.8 188.811 111.078 189.103 111.408 189.327C112.003 189.746 112.696 190.006 113.421 190.081Z" fill="#A55DA1"/>
<path d="M112.534 137.838C112.844 138.839 112.929 139.897 112.781 140.935C112.675 141.784 112.412 142.606 112.007 143.36C111.18 144.614 110.287 145.823 109.334 146.984C108.876 147.588 108.547 148.281 108.37 149.018C108.192 149.755 108.169 150.521 108.301 151.268C107.728 151.248 107.169 151.081 106.679 150.783C106.189 150.485 105.784 150.065 105.504 149.564C104.874 148.604 104.544 147.5 104.007 146.467C103.782 145.939 103.448 145.464 103.026 145.074C102.605 144.685 102.105 144.389 101.561 144.207C100.962 144.126 100.353 144.168 99.7711 144.329C99.1891 144.49 98.646 144.768 98.1746 145.146C97.0701 145.869 96.1101 146.726 94.9642 147.438C93.9102 148.164 92.6877 148.608 91.4132 148.728L91.3203 147.231L91.7332 147.015C92.3134 146.72 92.8784 146.396 93.4262 146.044C94.9436 145.012 96.1514 143.587 97.7307 142.669C100.446 141.069 103.79 141.255 106.856 140.604L107.465 140.449C108.509 140.213 109.478 139.72 110.283 139.014C111.047 138.282 111.316 136.279 111.037 135.236C111.712 135.989 112.222 136.875 112.534 137.838Z" fill="#878787"/>
<path d="M106.834 140.305C107.128 137.956 107.768 135.663 108.733 133.502L108.96 133.605C109.742 134.001 110.442 134.54 111.025 135.195C111.252 136.227 111.025 138.292 110.271 138.973C109.466 139.678 108.498 140.172 107.453 140.408L106.844 140.563L106.834 140.305Z" fill="#878787"/>
<path d="M102.478 117.81L102.633 117.924C101.991 118.885 101.277 119.796 100.497 120.649L100.373 120.773C99.6861 120.182 98.8439 119.802 97.9468 119.678C97.0504 119.563 96.1415 119.587 95.2526 119.751C94.1247 119.955 93.0969 120.529 92.3312 121.382C91.7841 121.268 91.2267 121.134 90.6796 121L90.6177 122.682L90.5454 122.868C90.3898 122.817 90.238 122.755 90.0912 122.682C89.3474 119.588 89.0279 116.407 89.1415 113.227V113.062C89.3409 113.072 89.5408 113.072 89.7402 113.062V113.227C89.6279 113.953 89.688 114.696 89.9157 115.394C91.6949 115.24 93.4873 115.418 95.201 115.921C97.644 116.499 100.07 117.129 102.478 117.81Z" fill="black"/>
<path d="M86.6948 137.362L86.2715 137.476C85.091 138.636 83.6766 139.532 82.1228 140.104C80.5689 140.675 78.9111 140.909 77.2598 140.789C78.6843 140.428 80.274 139.943 80.9037 138.621C81.5334 137.3 80.9553 135.587 81.7605 134.358C82.3857 133.611 83.2435 133.095 84.1967 132.892C85.7795 132.376 87.3726 131.901 88.9761 131.468C90.0084 131.179 91.0407 130.91 92.0729 130.663V130.363C92.3516 130.446 92.6407 130.518 92.9297 130.58L92.8265 131.014C92.3577 132.852 91.5143 134.574 90.349 136.072H90.1322C89.7859 137.619 89.5513 139.188 89.4303 140.769C89.3374 142.998 89.8948 145.404 91.5981 146.838L91.7116 147.055L91.2987 147.272L90.8755 147.509L90.7516 147.2C89.8905 146.997 89.0982 146.57 88.4548 145.963C87.8114 145.356 87.3395 144.589 87.087 143.742C86.8312 142.485 86.772 141.197 86.9116 139.922C86.9733 139.063 86.9001 138.199 86.6948 137.362Z" fill="#878787"/>
<path d="M44.3609 26.2678C44.4695 26.4413 44.5903 26.6068 44.7222 26.7633C43.6622 27.4233 42.743 28.2863 42.0176 29.3027C41.8222 29.5497 41.6719 29.8292 41.5738 30.1285C41.5314 30.2804 41.5205 30.4393 41.5418 30.5955C41.5631 30.7517 41.6161 30.9019 41.6976 31.0369C41.8279 31.1938 41.9991 31.3116 42.1923 31.3772C42.3854 31.4428 42.5929 31.4536 42.7918 31.4085C43.1759 31.3088 43.5301 31.1175 43.8241 30.8511C44.7028 30.1531 45.424 29.2771 45.9403 28.2807L46.0642 28.1362C46.2842 28.3188 46.5151 28.4877 46.7558 28.642L46.6938 28.7452C46.0497 29.4922 45.5586 30.3586 45.2487 31.295C45.0522 31.7787 44.9812 32.3042 45.0422 32.8227C45.0776 33.0813 45.1814 33.3258 45.3429 33.5309C45.5045 33.736 45.7178 33.8942 45.9609 33.9892C46.2863 34.0613 46.6263 34.0259 46.9297 33.8881C47.2332 33.7504 47.4837 33.5177 47.6435 33.2253C47.955 32.638 48.1347 31.9898 48.17 31.3259L48.3868 29.5814L48.4384 29.4162C48.8323 29.5325 49.2369 29.6086 49.6462 29.6434V29.7466C49.2919 30.4445 49.1176 31.2199 49.1393 32.0023C49.1609 32.7847 49.3777 33.5493 49.77 34.2266C49.8384 34.379 49.9395 34.5145 50.0662 34.6233C50.1928 34.7322 50.342 34.8117 50.5029 34.8563C50.6971 34.8596 50.8882 34.8081 51.0544 34.7076C51.2205 34.6072 51.355 34.462 51.4423 34.2886C51.8233 33.561 51.9119 32.7154 51.6901 31.9246C51.5249 31.1298 51.1946 30.3762 50.9881 29.5917C51.2835 29.5429 51.5738 29.4669 51.8552 29.3646C52.0387 29.2961 52.2179 29.2168 52.392 29.1272C52.9474 30.7256 54.0048 32.1016 55.4063 33.0499C55.6722 33.2633 56.0047 33.3765 56.3456 33.3699C56.5456 33.3371 56.7315 33.2462 56.8802 33.1086C57.0289 32.9709 57.1338 32.7925 57.1818 32.5956C57.2754 32.1965 57.2429 31.7781 57.0889 31.3982C56.5624 29.8704 55.4372 29.0859 54.1262 28.1362L53.9404 27.9504C54.3539 27.5188 54.7207 27.0448 55.0346 26.5362L55.0863 26.4639C56.2239 27.6687 57.6813 28.5245 59.2876 28.9311C59.6808 29.0756 60.1125 29.0756 60.5057 28.9311C60.7828 28.7649 60.9901 28.5036 61.0889 28.1959C61.1876 27.8883 61.1712 27.5552 61.0425 27.2587C60.7618 26.6713 60.303 26.1873 59.7315 25.8755C58.5791 25.1601 57.2811 24.7121 55.9327 24.5645H55.8089C55.9075 23.627 55.7579 22.6802 55.3753 21.8187C55.1908 21.3414 54.97 20.8789 54.7146 20.4354L54.9933 20.3631C56.179 20.0092 57.3162 19.5099 58.3792 18.8767C58.7241 18.6895 59.0348 18.4452 59.298 18.1541C59.4219 18.0138 59.5167 17.8503 59.5769 17.6731C59.6372 17.4959 59.6616 17.3086 59.6489 17.1218C59.5956 16.8865 59.4774 16.6708 59.3077 16.4993C59.138 16.3278 58.9237 16.2073 58.6889 16.1515C58.2194 16.0421 57.7263 16.1006 57.2953 16.3166C56.8632 16.5255 56.4577 16.7854 56.0876 17.0908L53.8578 18.7735L53.4966 18.8561C53.383 18.7322 53.2591 18.6083 53.1353 18.4947L52.6191 18.0715C53.342 17.372 53.9608 16.5725 54.4566 15.6973C54.7039 15.2581 54.854 14.7709 54.8967 14.2687C54.9394 13.7664 54.8738 13.2609 54.7043 12.7863C54.6242 12.5481 54.4812 12.336 54.2904 12.1724C54.0996 12.0089 53.8681 11.8999 53.6204 11.8572C53.4046 11.8691 53.194 11.9279 53.0032 12.0295C52.8124 12.1311 52.6462 12.2731 52.5159 12.4456C51.9721 13.0989 51.6154 13.8873 51.4836 14.727C51.3475 15.5593 51.2887 16.4025 51.3081 17.2457V17.3386C50.8453 17.1201 50.3504 16.9772 49.8423 16.9154C49.9397 15.5709 49.6909 14.2239 49.1197 13.003C48.9464 12.5676 48.6785 12.1762 48.3352 11.8572C48.1518 11.673 47.9179 11.5475 47.663 11.4966C47.4082 11.4457 47.1439 11.4717 46.9039 11.5712C46.6638 11.6708 46.4588 11.8394 46.3148 12.0558C46.1708 12.2721 46.0943 12.5264 46.0951 12.7863C46.062 13.3483 46.1721 13.9095 46.4151 14.4173C46.8162 15.4123 47.37 16.3387 48.0565 17.1631L48.1081 17.3076C47.785 17.4091 47.4709 17.5368 47.1687 17.6896V17.607C46.6432 16.4391 45.9203 15.3706 45.0319 14.4482C44.6067 13.9354 44.0275 13.5734 43.3802 13.4159C43.0569 13.3507 42.7208 13.4088 42.4381 13.5788C42.1554 13.7488 41.9465 14.0185 41.8525 14.3347C41.8235 14.7517 41.9443 15.1653 42.1931 15.5012C43.0153 16.7071 44.018 17.7794 45.1661 18.6805L45.3209 18.8664C45.0633 19.0676 44.8217 19.2884 44.5983 19.527C43.7945 18.5616 42.7618 17.8128 41.5944 17.3489C41.1943 17.1651 40.7527 17.0903 40.3144 17.1321C40.0957 17.1537 39.8887 17.2414 39.721 17.3833C39.5532 17.5253 39.4325 17.7149 39.375 17.927C39.366 18.182 39.4219 18.4351 39.5375 18.6626C39.653 18.8901 39.8245 19.0845 40.0357 19.2277C40.9723 20.0438 42.1353 20.5551 43.3699 20.6935L43.6073 20.838C43.4101 21.1588 43.2606 21.5065 43.1635 21.8703L42.8847 21.7774C41.5942 21.2644 40.2 21.0662 38.8176 21.1993C38.4516 21.2307 38.0981 21.3474 37.7853 21.54C37.6299 21.637 37.4988 21.7685 37.4021 21.9242C37.3055 22.0799 37.2459 22.2557 37.2279 22.438C37.2305 22.6447 37.2847 22.8473 37.3857 23.0276C37.4867 23.2079 37.6311 23.3601 37.806 23.4703C38.1531 23.6767 38.5402 23.8068 38.9415 23.8522C40.3195 24.0831 41.732 23.9948 43.0706 23.5942H43.0293C43.0692 23.8345 43.135 24.0699 43.2254 24.2961H43.1118C42.358 24.3762 41.6164 24.5461 40.9028 24.802C40.1131 25.0708 39.432 25.5888 38.9621 26.2781C38.8373 26.4423 38.7566 26.6356 38.7277 26.8398C38.6987 27.044 38.7226 27.2522 38.7969 27.4446C38.8791 27.5687 38.9872 27.6735 39.1137 27.7519C39.2402 27.8303 39.3822 27.8804 39.5298 27.8988C39.8297 27.9264 40.1321 27.8912 40.4176 27.7955C41.7039 27.4443 42.882 26.7772 43.8448 25.8549L43.948 25.7929C44.0616 25.8445 44.2164 26.0613 44.3609 26.2678ZM26.3993 41.05C22.456 37.1342 18.3854 33.3699 14.1875 29.7569L13.1552 28.2704C9.97579 30.4795 6.81703 32.7161 3.67891 34.9802L2.4505 36.0951L2.83244 36.5183L2.5434 36.7764C2.48413 38.0065 2.902 39.212 3.70988 40.1416H3.99891C4.86715 40.881 5.64971 41.7154 6.33187 42.6293C12.9953 50.836 20.4957 58.3261 28.7116 64.9781C29.3 65.3085 30.0123 64.8749 30.5491 64.462L52.423 47.5121L52.5882 47.2643C52.9271 47.5136 53.2988 47.7151 53.6927 47.863L53.5585 48.1727C49.9937 51.0768 46.4117 53.9466 42.8125 56.7819C38.3737 60.2916 33.9005 63.7532 29.3929 67.1666L29.0626 66.9498C19.8772 59.5578 11.5653 51.1419 4.28795 41.8655C3.04502 41.1951 2.07209 40.1157 1.53403 38.81C0.995966 37.5044 0.925864 36.0529 1.33562 34.7015C16.948 22.5074 33.3374 11.3421 50.3997 1.27637H50.6681C51.1263 1.76662 51.4778 2.34662 51.7004 2.97965C59.6386 11.6714 67.8452 20.1258 76.2582 28.5388L74.524 29.6124C68.4474 33.6795 62.3741 37.757 56.3043 41.8448C54.5185 41.979 52.6604 42.3713 51.2978 41.3184L51.0604 41.3803C50.816 41.5822 50.6177 41.834 50.4788 42.1189C50.34 42.4038 50.2637 42.7151 50.2552 43.0319C50.2198 43.655 50.3442 44.2769 50.6165 44.8384C50.8149 45.2867 51.0717 45.7067 51.3804 46.0875L51.1533 46.2733L39.5402 55.4193L37.9402 53.3547C34.2446 49.1017 30.3839 45.0036 26.3993 41.05ZM61.7135 21.509C61.7572 21.2357 61.709 20.9556 61.5763 20.7128C61.4437 20.4699 61.2341 20.2779 60.9806 20.167C60.4645 19.9522 59.8938 19.9053 59.3496 20.0328C58.0203 20.3337 56.7435 20.8312 55.5611 21.509L55.8192 23.14C57.4269 23.4197 59.0812 23.2224 60.578 22.5722C60.8359 22.4935 61.0723 22.3568 61.2692 22.1725C61.466 21.9881 61.618 21.7612 61.7135 21.509ZM41.6151 35.9609C41.815 35.7936 41.9622 35.572 42.0391 35.323C42.1161 35.0739 42.1193 34.8078 42.0486 34.5569C41.8995 34.0551 41.6135 33.6048 41.2228 33.2563C40.2202 32.2822 38.9527 31.6251 37.5789 31.3672C37.9379 32.5609 38.4442 33.7052 39.086 34.7737C39.3338 35.2353 39.6876 35.6315 40.1182 35.9299C40.3433 36.0695 40.6033 36.1427 40.8681 36.1408C41.133 36.139 41.3919 36.0623 41.6151 35.9195V35.9609ZM34.3891 33.6485C33.8736 32.0105 32.999 30.5082 31.8291 29.2511C31.6633 29.0602 31.4535 28.9126 31.218 28.8209C30.9824 28.7292 30.728 28.6961 30.4768 28.7246C30.2281 28.813 30.0159 28.9817 29.8738 29.2042C29.7317 29.4267 29.6678 29.6902 29.6923 29.953C29.7595 30.482 29.9782 30.9802 30.322 31.3878C30.7759 32.0437 31.3756 32.5855 32.0742 32.9705C32.7727 33.3556 33.5509 33.5736 34.3478 33.6073L34.3891 33.6485Z" fill="#A55DA1"/>
<path d="M63.1472 120.051C62.0013 122.683 60.7936 125.284 59.4826 127.834C58.8316 129.356 57.8137 130.693 56.52 131.726C56.3699 131.851 56.1937 131.941 56.0044 131.989C55.8151 132.037 55.6174 132.042 55.4258 132.004L55.3019 131.953C55.1664 131.872 55.0512 131.761 54.9653 131.628C54.8794 131.496 54.8251 131.346 54.8064 131.189C54.7791 130.842 54.8105 130.493 54.8993 130.157C55.9556 124.811 57.7664 119.643 60.2774 114.807H60.36C61.2547 116.562 62.1837 118.309 63.1472 120.051Z" fill="black"/>
<path d="M60.98 20.1681C61.2336 20.279 61.4431 20.4709 61.5758 20.7138C61.7084 20.9567 61.7567 21.2368 61.7129 21.5101C61.6135 21.7565 61.4598 21.9774 61.2632 22.1561C61.0666 22.3348 60.8322 22.4669 60.5774 22.5424C59.0807 23.1925 57.4263 23.3899 55.8186 23.1101L55.5605 21.4791C56.7429 20.8013 58.0198 20.3038 59.349 20.003C59.8965 19.8852 60.4672 19.9429 60.98 20.1681Z" fill="white"/>
<path d="M61.0734 27.3115C61.2021 27.6079 61.2186 27.9409 61.1198 28.2486C61.0211 28.5563 60.8138 28.8176 60.5366 28.9838C60.1435 29.1283 59.7117 29.1283 59.3186 28.9838C57.7122 28.5771 56.2549 27.7213 55.1172 26.5166C55.4997 25.9416 55.763 25.2957 55.8914 24.6172H56.0153C57.3636 24.7648 58.6617 25.2128 59.8141 25.9282C60.3664 26.2484 60.8063 26.7316 61.0734 27.3115Z" fill="white"/>
<path d="M59.6777 17.0914C59.6905 17.2781 59.666 17.4655 59.6057 17.6427C59.5455 17.8199 59.4507 17.9834 59.3268 18.1237C59.0636 18.4148 58.753 18.6591 58.408 18.8463C57.345 19.4795 56.2078 19.9788 55.0222 20.3327L54.7435 20.405C54.4068 19.8128 53.9976 19.2649 53.5254 18.774L53.8867 18.6914L56.1164 17.0088C56.4865 16.7033 56.892 16.4434 57.3242 16.2346C57.7551 16.0185 58.2482 15.9601 58.7177 16.0694C58.9592 16.1291 59.1783 16.2573 59.3487 16.4386C59.519 16.62 59.6333 16.8466 59.6777 17.0914Z" fill="white"/>
<path d="M57.068 31.4303C57.222 31.8102 57.2545 32.2285 57.1609 32.6277C57.1129 32.8245 57.008 33.0029 56.8593 33.1406C56.7106 33.2783 56.5247 33.3691 56.3247 33.4019C55.9838 33.4085 55.6513 33.2953 55.3854 33.0819C53.9839 32.1336 52.9265 30.7576 52.3711 29.1592C52.946 28.851 53.4686 28.4538 53.9195 27.9824L54.1053 28.1682C55.4163 29.1179 56.5415 29.9025 57.068 31.4303Z" fill="white"/>
<path d="M52.369 29.1592C52.1949 29.2488 52.0157 29.3281 51.8322 29.3966C51.5508 29.4988 51.2605 29.5749 50.9651 29.6237C50.5234 29.6857 50.0752 29.6857 49.6335 29.6237C49.2242 29.589 48.8196 29.5129 48.4257 29.3966C47.9704 29.2617 47.5309 29.0783 47.1147 28.8495C46.9908 28.7773 46.8567 28.705 46.7431 28.6224C46.5025 28.4681 46.2715 28.2991 46.0515 28.1166C45.5561 27.7004 45.1094 27.2294 44.7199 26.7127C44.5879 26.5563 44.4672 26.3907 44.3586 26.2172C44.214 26.0108 44.0798 25.794 43.956 25.5772L43.8011 25.3192C43.566 24.9144 43.3756 24.4851 43.2334 24.0391C43.1448 23.8398 43.0756 23.6324 43.0269 23.4198C42.9494 22.9793 42.9494 22.5286 43.0269 22.0881C43.0484 21.9698 43.0759 21.8526 43.1095 21.7371C43.2066 21.3733 43.3561 21.0256 43.5534 20.7049C43.7618 20.3366 44.0074 19.9907 44.2863 19.6726L44.5753 19.3836C44.7987 19.145 45.0403 18.9241 45.2979 18.7229C45.8737 18.2529 46.5089 17.8607 47.187 17.5564C47.4891 17.4037 47.8033 17.2759 48.1264 17.1745C48.6456 16.9918 49.1815 16.8604 49.7264 16.7822H49.8606C50.3687 16.8441 50.8636 16.9869 51.3264 17.2054C51.7973 17.4099 52.2439 17.6661 52.658 17.9693L53.1742 18.3926C53.298 18.5061 53.4219 18.63 53.5355 18.7538C54.0077 19.2448 54.4169 19.7927 54.7536 20.3849C55.0089 20.8283 55.2298 21.2908 55.4142 21.7681C55.7969 22.6296 55.9464 23.5765 55.8478 24.514C55.7194 25.1925 55.4561 25.8384 55.0736 26.4134L55.022 26.4856C54.708 26.9942 54.3412 27.4683 53.9277 27.8999C53.48 28.4015 52.9535 28.8268 52.369 29.1592Z" fill="white"/>
<path d="M54.7564 12.7247C54.9259 13.1993 54.9915 13.7048 54.9488 14.207C54.9061 14.7093 54.7559 15.1965 54.5086 15.6357C54.0128 16.5109 53.3941 17.3104 52.6712 18.0099C52.257 17.7067 51.8104 17.4505 51.3396 17.246V17.1531C51.3201 16.3099 51.3789 15.4667 51.5151 14.6343C51.6469 13.7946 52.0036 13.0064 52.5473 12.3531C52.6776 12.1806 52.8439 12.0385 53.0346 11.9369C53.2254 11.8353 53.4361 11.7765 53.6519 11.7646C53.9069 11.8065 54.1452 11.9185 54.3403 12.088C54.5354 12.2575 54.6794 12.478 54.7564 12.7247Z" fill="white"/>
<path d="M51.6717 31.9562C51.8936 32.7469 51.8049 33.5925 51.424 34.32C51.3367 34.4934 51.2022 34.6387 51.036 34.7391C50.8698 34.8395 50.6787 34.8911 50.4846 34.8878C50.3237 34.8432 50.1745 34.7636 50.0478 34.6548C49.9211 34.546 49.82 34.4105 49.7517 34.2581C49.3594 33.5808 49.1426 32.8162 49.1209 32.0338C49.0993 31.2514 49.2736 30.4759 49.6278 29.778V29.6748C50.0696 29.7368 50.5177 29.7368 50.9595 29.6748C51.1762 30.4077 51.5066 31.1613 51.6717 31.9562Z" fill="white"/>
<path d="M49.1319 12.9205C49.7031 14.1415 49.9519 15.4884 49.8545 16.8328H49.7203C49.1754 16.911 48.6395 17.0424 48.1203 17.2251L48.0687 17.0806C47.3822 16.2561 46.8284 15.3298 46.4273 14.3348C46.1843 13.827 46.0742 13.2657 46.1073 12.7037C46.1065 12.4439 46.183 12.1896 46.327 11.9733C46.471 11.7569 46.676 11.5883 46.9161 11.4887C47.1561 11.3891 47.4203 11.3632 47.6752 11.4141C47.93 11.465 48.164 11.5905 48.3474 11.7747C48.6906 12.0937 48.9586 12.4851 49.1319 12.9205Z" fill="white"/>
<path d="M48.4292 29.448L48.3775 29.6132L48.1608 31.3577C48.1254 32.0216 47.9458 32.6698 47.6343 33.2571C47.4745 33.5496 47.224 33.7821 46.9205 33.9199C46.6171 34.0577 46.277 34.0932 45.9517 34.021C45.7086 33.926 45.4952 33.7678 45.3337 33.5627C45.1722 33.3576 45.0684 33.1132 45.033 32.8545C44.9719 32.336 45.0429 31.8104 45.2394 31.3267C45.5494 30.3903 46.0404 29.524 46.6846 28.777L46.7466 28.6738C46.8601 28.7564 46.9943 28.8286 47.1182 28.9009C47.5343 29.1296 47.9739 29.3131 48.4292 29.448Z" fill="white"/>
<path d="M47.1586 17.5243V17.6069C46.4805 17.9112 45.8454 18.3034 45.2696 18.7734L45.1147 18.5876C43.9666 17.6865 42.9639 16.6141 42.1418 15.4082C41.8929 15.0723 41.7721 14.6587 41.8011 14.2417C41.8951 13.9255 42.104 13.6559 42.3867 13.4859C42.6694 13.3159 43.0055 13.2577 43.3289 13.323C43.9761 13.4805 44.5553 13.8425 44.9805 14.3552C45.8846 15.2775 46.6216 16.3498 47.1586 17.5243Z" fill="white"/>
<path d="M46.0544 28.1668L45.9306 28.3114C45.4143 29.3078 44.6931 30.1837 43.8144 30.8817C43.5204 31.1482 43.1662 31.3395 42.7821 31.4392C42.5832 31.4843 42.3757 31.4735 42.1826 31.4079C41.9894 31.3423 41.8182 31.2245 41.6879 31.0675C41.6064 30.9326 41.5534 30.7824 41.5321 30.6262C41.5108 30.47 41.5216 30.311 41.564 30.1592C41.6622 29.8599 41.8125 29.5803 42.0079 29.3333C42.7333 28.3169 43.6525 27.454 44.7125 26.7939C45.107 27.3004 45.5572 27.7608 46.0544 28.1668Z" fill="white"/>
<path d="M44.5677 19.4359L44.2787 19.7249C43.9998 20.043 43.7542 20.3889 43.5458 20.7572L43.3083 20.6127C42.0738 20.4743 40.9107 19.963 39.9741 19.1468C39.7629 19.0037 39.5915 18.8093 39.4759 18.5818C39.3604 18.3543 39.3044 18.1011 39.3134 17.8461C39.371 17.634 39.4916 17.4445 39.6594 17.3025C39.8272 17.1606 40.0341 17.073 40.2528 17.0513C40.6911 17.0095 41.1327 17.0843 41.5328 17.2681C42.7002 17.732 43.7329 18.4808 44.5367 19.4462L44.5677 19.4359Z" fill="white"/>
<path d="M43.9588 25.6286L43.8556 25.6906C42.8928 26.613 41.7147 27.2801 40.4285 27.6313C40.1429 27.727 39.8406 27.7621 39.5407 27.7345C39.393 27.7161 39.2511 27.6659 39.1246 27.5875C38.998 27.5091 38.89 27.4043 38.8078 27.2803C38.7334 27.0879 38.7096 26.8797 38.7385 26.6755C38.7674 26.4714 38.8481 26.2779 38.973 26.1138C39.4429 25.4245 40.1239 24.9065 40.9136 24.6376C41.6273 24.3818 42.3688 24.212 43.1227 24.1318H43.2363C43.3785 24.5778 43.5689 25.007 43.804 25.4118L43.9588 25.6286Z" fill="white"/>
<path d="M42.8218 21.6134L43.1005 21.7063C43.0669 21.8218 43.0394 21.9389 43.0179 22.0572C42.9404 22.4977 42.9404 22.9484 43.0179 23.3888H43.0282C41.6897 23.7895 40.2771 23.8778 38.8991 23.6469C38.4978 23.6015 38.1108 23.4713 37.7636 23.265C37.5888 23.1548 37.4443 23.0027 37.3434 22.8224C37.2424 22.6421 37.1882 22.4393 37.1855 22.2327C37.2035 22.0503 37.2632 21.8745 37.3598 21.7188C37.4565 21.5631 37.5875 21.4317 37.743 21.3346C38.0558 21.1421 38.4093 21.0255 38.7753 20.994C40.1541 20.8774 41.5409 21.0896 42.8218 21.6134Z" fill="white"/>
<path d="M42.0473 34.5172C42.118 34.7681 42.1148 35.034 42.0378 35.2831C41.9609 35.5322 41.8137 35.7537 41.6138 35.921C41.3908 36.0602 41.1333 36.1339 40.8705 36.1339C40.6077 36.1339 40.3502 36.0602 40.1273 35.921C39.6966 35.6227 39.3429 35.2265 39.095 34.7649C38.4532 33.6963 37.947 32.552 37.5879 31.3584C38.9618 31.6163 40.2292 32.2734 41.2318 33.2475C41.614 33.5887 41.8959 34.0277 42.0473 34.5172Z" fill="white"/>
<path d="M26.4008 41.0524C30.3854 45.006 34.2461 49.1041 37.9417 53.3364L39.5417 55.401L32.4706 60.9649C31.3557 61.8527 30.0654 62.7817 28.6615 62.5753C19.6296 54.3375 11.0165 45.652 2.85459 36.5516L2.47266 36.1284L3.70107 35.0135C6.83919 32.7494 9.99794 30.5128 13.1774 28.3037L14.2096 29.7902C18.4007 33.3963 22.4644 37.1504 26.4008 41.0524Z" fill="#A55DA1"/>
<path d="M31.7864 29.2102C32.9563 30.4673 33.8309 31.9697 34.3465 33.6077C33.5389 33.5757 32.7501 33.3544 32.0437 32.9617C31.3372 32.5691 30.7329 32.016 30.2793 31.347C29.9355 30.9394 29.7169 30.4411 29.6496 29.9122C29.6252 29.6493 29.6891 29.3859 29.8311 29.1634C29.9732 28.9409 30.1854 28.7721 30.4341 28.6838C30.6853 28.6553 30.9397 28.6883 31.1753 28.78C31.4109 28.8717 31.6206 29.0194 31.7864 29.2102Z" fill="white"/>
<path d="M50.3274 1.22559C33.2651 11.2913 16.8758 22.4566 1.26337 34.6507C0.853611 36.0021 0.923682 37.4536 1.46174 38.7593C1.9998 40.0649 2.97274 41.1444 4.21566 41.8147C11.493 51.0911 19.805 59.507 28.9903 66.899" stroke="#222120" stroke-linecap="round" stroke-linejoin="round"/>
<path d="M2.35742 36.0039L2.43999 36.0968L2.82193 36.52C10.9839 45.6205 19.597 54.306 28.6288 62.5437C30.0327 62.7502 31.3231 61.8212 32.4379 60.9334L39.509 55.3694L51.0912 46.2544" stroke="#222120" stroke-linecap="round" stroke-linejoin="round"/>
<path d="M50.5938 1.24609C51.0519 1.73635 51.4034 2.31628 51.626 2.94931C59.5642 11.6411 67.7708 20.0954 76.1839 28.5085L74.5219 29.613C68.4453 33.6802 62.372 37.7577 56.3022 41.8455" stroke="#222120" stroke-linecap="round" stroke-linejoin="round"/>
<path d="M29.3613 67.115C33.8758 63.6741 38.349 60.2125 42.7809 56.7303C46.387 53.895 49.969 51.0252 53.5269 48.1211" stroke="#222120" stroke-linecap="round" stroke-linejoin="round"/>
<path d="M60.5762 43.2912L77.0926 32.091L75.028 30.0986" stroke="#222120" stroke-linecap="round" stroke-linejoin="round"/>
<path d="M51.0611 41.4121C50.8205 41.6105 50.6245 41.8574 50.4858 42.1367C50.3471 42.4159 50.2687 42.7212 50.2559 43.0328C50.2205 43.6559 50.3449 44.2777 50.6172 44.8393C50.8156 45.2875 51.0724 45.7075 51.3811 46.0884C51.7281 46.5322 52.1426 46.9188 52.6095 47.2342C52.9484 47.4835 53.3201 47.685 53.714 47.8329L53.9514 47.9361C54.6889 48.1966 55.4714 48.3053 56.252 48.2556C57.0325 48.2059 57.795 47.9989 58.4935 47.647" stroke="#222120" stroke-linecap="round" stroke-linejoin="round"/>
<path d="M51.0507 50.2588C50.2902 51.2275 49.7951 52.3775 49.6141 53.5956C49.4331 54.8138 49.5724 56.058 50.0184 57.206" stroke="#222120" stroke-linecap="round" stroke-linejoin="round"/>
<path d="M55.417 48.2969C55.3174 49.1287 55.5017 49.9699 55.9402 50.6838C56.3787 51.3978 57.0455 51.9426 57.8325 52.2298" stroke="#222120" stroke-linecap="round" stroke-linejoin="round"/>
<path d="M42.8242 56.7617C45.1571 59.6149 46.765 62.9901 47.5108 66.5993C48.2445 70.1954 48.7923 73.827 49.1521 77.4795C50.8808 90.4241 54.6799 103.006 60.4039 114.745C61.271 116.541 62.1863 118.309 63.1497 120.051" stroke="#222120" stroke-linecap="round" stroke-linejoin="round"/>
<path d="M51.2871 41.3496C52.6497 42.3819 54.5078 42.0103 56.2937 41.8761C57.3881 41.7051 58.5085 41.8859 59.4937 42.3922C59.8905 42.642 60.24 42.96 60.526 43.3316C60.9115 43.8406 61.2567 44.379 61.5583 44.9419C62.5905 46.8929 63.6228 49.071 63.1067 51.2078C62.3325 54.2118 58.7608 55.6569 57.5324 58.3099C58.8343 68.0322 61.277 77.5674 64.8099 86.7182C66.2654 90.4653 67.9068 94.4189 67.2668 98.3725L69.7855 103.142" stroke="#222120" stroke-linecap="round" stroke-linejoin="round"/>
<path d="M60.3204 114.787C57.8094 119.623 55.9986 124.791 54.9423 130.137C54.8535 130.473 54.8221 130.822 54.8494 131.169C54.868 131.326 54.9224 131.476 55.0083 131.609C55.0942 131.741 55.2093 131.852 55.3448 131.933L55.4687 131.984C55.6603 132.022 55.858 132.017 56.0474 131.969C56.2367 131.921 56.4128 131.831 56.5629 131.706C57.8566 130.673 58.8745 129.336 59.5256 127.814C60.8365 125.264 62.0443 122.653 63.1901 120.031C65.5747 114.529 67.6702 108.872 69.7967 103.122L69.869 102.905C72.5571 109.239 76.1489 115.15 80.5324 120.454C83.3814 123.902 86.5918 127.122 88.7906 131.024" stroke="#222120" stroke-linecap="round" stroke-linejoin="round"/>
<path d="M68.3417 116.53C66.1402 122.103 64.6456 127.929 63.8926 133.873" stroke="#222120" stroke-linecap="round" stroke-linejoin="round"/>
<path d="M72.3775 114.395C71.0356 122.756 69.9585 131.152 69.1465 139.582" stroke="#222120" stroke-linecap="round" stroke-linejoin="round"/>
<path d="M55.3438 131.974C58.9223 134.775 62.5766 137.469 66.3065 140.056" stroke="#222120" stroke-linecap="round" stroke-linejoin="round"/>
<path d="M68.5366 124.273C67.845 129.59 67.1534 134.885 66.3379 140.057V140.253C66.6366 143.312 67.2383 146.335 68.1341 149.275" stroke="#222120" stroke-linecap="round" stroke-linejoin="round"/>
<path d="M74.8436 119.205C74.3023 127.905 72.7114 136.508 70.1055 144.826" stroke="#222120" stroke-linecap="round" stroke-linejoin="round"/>
<path d="M78.581 128.866C74.6504 135.408 71.3792 142.324 68.8157 149.512C61.9552 168.615 60.121 189.161 63.4891 209.177" stroke="#222120" stroke-linecap="round" stroke-linejoin="round"/>
<path d="M68.9492 177.384C70.4943 189.448 75.1786 200.895 82.534 210.582" stroke="#222120" stroke-linecap="round" stroke-linejoin="round"/>
<path d="M72.8516 150.101C73.5468 167.905 78.6623 185.256 87.737 200.589" stroke="#222120" stroke-linecap="round" stroke-linejoin="round"/>
<path d="M83.0391 170.229C87.5482 182.95 94.9721 194.439 104.717 203.777" stroke="#222120" stroke-linecap="round" stroke-linejoin="round"/>
<path d="M110.653 191.773C110.976 193.028 110.791 194.36 110.137 195.479" stroke="#222120" stroke-linecap="round" stroke-linejoin="round"/>
<path d="M91.6719 96.7111C92.1502 96.3982 92.73 96.2801 93.2926 96.3807C93.8504 96.4828 94.3506 96.7881 94.6964 97.2375" stroke="#222120" stroke-width="0.5" stroke-linecap="round" stroke-linejoin="round"/>
<path d="M101.961 98.4257C102.539 97.9159 103.246 97.5743 104.005 97.4378C104.764 97.3013 105.546 97.3752 106.266 97.6515C107.703 98.2292 108.91 99.2628 109.703 100.594" stroke="#222120" stroke-width="0.5" stroke-linecap="round" stroke-linejoin="round"/>
<path d="M100.568 104.878C100.781 104.267 101.08 103.69 101.456 103.164C101.852 102.658 102.403 102.295 103.025 102.132C103.771 101.993 104.542 102.153 105.172 102.576C105.8 102.991 106.355 103.507 106.814 104.103C107.399 104.796 107.947 105.52 108.455 106.271" stroke="#222120" stroke-width="0.5" stroke-linecap="round" stroke-linejoin="round"/>
<path d="M89.9883 102.646C89.9866 102.215 90.1117 101.793 90.348 101.432C90.5843 101.071 90.9215 100.788 91.3175 100.618C91.7136 100.447 92.151 100.397 92.5754 100.473C92.9998 100.549 93.3925 100.748 93.7045 101.046C94.3564 101.826 94.7208 102.806 94.7368 103.823" stroke="#222120" stroke-width="0.5" stroke-linecap="round" stroke-linejoin="round"/>
<path d="M92.1653 105.878C91.5846 106.182 91.0579 106.58 90.6065 107.055C90.3919 107.26 90.2383 107.521 90.1627 107.808C90.1406 107.972 90.154 108.139 90.2021 108.298C90.2502 108.456 90.3318 108.603 90.4414 108.727C90.6476 108.983 90.8954 109.203 91.1743 109.377" stroke="#222120" stroke-width="0.5" stroke-linecap="round" stroke-linejoin="round"/>
<path d="M90.8047 108.262C91.1119 108.297 91.3995 108.431 91.6245 108.643C91.8496 108.855 92.0001 109.134 92.0537 109.439" stroke="#222120" stroke-width="0.5" stroke-linecap="round" stroke-linejoin="round"/>
<path d="M94.6426 108.788C95.025 108.697 95.4274 108.745 95.7781 108.922C96.1312 109.107 96.4034 109.416 96.542 109.79" stroke="#222120" stroke-width="0.5" stroke-linecap="round" stroke-linejoin="round"/>
<path d="M97.1113 110.214C97.4159 110.156 97.7134 110.066 97.9991 109.945C98.2855 109.819 98.5217 109.601 98.67 109.326C98.7914 109.061 98.817 108.762 98.7423 108.48C98.6629 108.204 98.5217 107.949 98.3294 107.736" stroke="#222120" stroke-width="0.5" stroke-linecap="round" stroke-linejoin="round"/>
<path d="M88.9341 110.069C88.6028 110.562 88.1828 110.989 87.6954 111.329C87.5044 111.423 87.3388 111.562 87.2125 111.733C87.0863 111.905 87.0029 112.104 86.9696 112.314C86.9362 112.524 86.9538 112.74 87.0208 112.942C87.0878 113.144 87.2023 113.327 87.3547 113.476C87.6959 113.855 88.0727 114.201 88.4799 114.508" stroke="#222120" stroke-width="0.5" stroke-linecap="round" stroke-linejoin="round"/>
<path d="M87.9551 112.784C88.3374 112.939 88.7413 113.033 89.1525 113.063C89.352 113.073 89.5518 113.073 89.7513 113.063H90.7113C93.2555 113.123 95.7576 113.724 98.0507 114.828C99.6661 115.762 101.358 116.556 103.109 117.202C102.954 117.429 102.799 117.657 102.634 117.873C101.992 118.835 101.278 119.746 100.497 120.599L100.373 120.722C99.785 121.337 99.1267 121.881 98.412 122.343C97.9866 122.611 97.5374 122.839 97.0701 123.024C94.9538 123.747 92.6452 123.662 90.5874 122.787C90.4318 122.736 90.28 122.674 90.1332 122.601C89.8235 122.467 89.5138 122.322 89.2248 122.168" stroke="#222120" stroke-width="0.5" stroke-linecap="round" stroke-linejoin="round"/>
<path d="M89.1415 113.228C89.0279 116.408 89.3474 119.589 90.0912 122.683" stroke="#222120" stroke-width="0.5" stroke-linecap="round" stroke-linejoin="round"/>
<path d="M89.7484 113.228C89.6361 113.954 89.6962 114.696 89.9239 115.395C91.703 115.241 93.4954 115.419 95.2091 115.922C97.6453 116.5 100.054 117.13 102.435 117.811" stroke="#222120" stroke-width="0.5" stroke-linecap="round" stroke-linejoin="round"/>
<path d="M92.3281 121.393C94.3222 121.839 96.3377 122.184 98.3669 122.425" stroke="#222120" stroke-width="0.5" stroke-linecap="round" stroke-linejoin="round"/>
<path d="M90.6172 122.684L90.6791 121.001C91.2262 121.135 91.7837 121.269 92.3308 121.383" stroke="#222120" stroke-width="0.5" stroke-linecap="round" stroke-linejoin="round"/>
<path d="M102.469 114.951C102.998 115.607 103.331 116.398 103.429 117.235C103.528 118.071 103.388 118.918 103.026 119.679" stroke="#222120" stroke-width="0.5" stroke-linecap="round" stroke-linejoin="round"/>
<path d="M107.711 192.434C108.586 193.384 109.361 194.422 110.023 195.53C110.638 196.529 110.953 197.682 110.932 198.854C110.719 199.764 110.719 200.711 110.932 201.621C111.222 202.136 111.607 202.591 112.067 202.963C113.599 204.497 114.461 206.576 114.462 208.744" stroke="#222120" stroke-linecap="round" stroke-linejoin="round"/>
<path d="M91.1421 96.1241C90.974 95.9828 90.8365 95.8088 90.7377 95.6127C90.6389 95.4166 90.581 95.2025 90.5675 94.9834C90.554 94.7643 90.5852 94.5447 90.6591 94.338C90.733 94.1313 90.8482 93.9416 90.9976 93.7808C90.7028 93.3252 90.5737 92.7822 90.632 92.2427C90.6903 91.7032 90.9323 91.2002 91.3176 90.8181C91.1941 90.6219 91.1126 90.4023 91.078 90.1731C91.0435 89.9439 91.0567 89.71 91.1167 89.4861C91.1768 89.2622 91.2825 89.0532 91.4272 88.872C91.5719 88.6909 91.7525 88.5416 91.9576 88.4336C91.8201 88.2095 91.7381 87.9559 91.7183 87.6938C91.6986 87.4317 91.7417 87.1686 91.844 86.9265C92.1212 86.389 92.5777 85.9654 93.1344 85.729C92.8454 84.9548 93.2892 83.9845 94.528 83.4167C94.4885 83.183 94.5024 82.9435 94.5687 82.7159C94.6351 82.4884 94.7521 82.2788 94.9111 82.103C95.07 81.9272 95.2667 81.7897 95.4864 81.7007C95.7061 81.6118 95.9431 81.5738 96.1796 81.5896C96.2351 81.3419 96.3399 81.108 96.4878 80.9018C96.6358 80.6955 96.8237 80.5212 97.0405 80.3892C97.2573 80.2572 97.4985 80.1702 97.7496 80.1335C98.0007 80.0968 98.2567 80.111 98.5022 80.1754C98.5663 79.946 98.6755 79.7316 98.8232 79.5448C98.971 79.3579 99.1544 79.2023 99.3629 79.087C99.5713 78.9718 99.8006 78.8991 100.037 78.8733C100.274 78.8474 100.514 78.869 100.742 78.9367C101.021 78.4684 101.441 78.1003 101.941 77.8852C102.442 77.6701 102.998 77.619 103.529 77.7392C103.953 76.996 104.985 76.707 106.42 77.3573C106.76 76.4902 107.917 76.0669 109.517 76.6553C109.709 76.4587 109.938 76.3025 110.192 76.1958C110.445 76.0891 110.718 76.0342 110.993 76.0342C111.268 76.0342 111.54 76.0891 111.794 76.1958C112.047 76.3025 112.277 76.4587 112.469 76.6553C113.171 75.9431 114.451 75.9018 115.948 76.6553C116.121 76.4762 116.337 76.3435 116.575 76.2696C116.813 76.1956 117.066 76.1827 117.31 76.2321C117.795 76.325 118.219 76.6863 118.89 77.4399C119.111 77.2768 119.368 77.17 119.64 77.1286C119.911 77.0873 120.189 77.1126 120.448 77.2024C120.949 77.3856 121.36 77.7555 121.594 78.2347C122.688 77.987 123.907 78.7405 124.691 80.1341C124.894 80.0024 125.127 79.9231 125.368 79.9033C125.61 79.8834 125.852 79.9238 126.074 80.0206C126.535 80.2738 126.898 80.6733 127.107 81.1561C127.953 81.1561 128.758 81.7651 129.553 82.9935C129.791 82.9382 130.04 82.9483 130.272 83.0228C130.505 83.0973 130.713 83.2334 130.874 83.4167C131.201 83.912 131.367 84.496 131.349 85.089C131.768 84.9764 132.211 84.9944 132.619 85.1406C132.813 85.2669 132.974 85.4377 133.089 85.6387C133.204 85.8398 133.269 86.0654 133.28 86.2968C133.506 86.4665 133.765 86.5858 134.041 86.6463C134.318 86.7069 134.603 86.7074 134.88 86.6478C135.179 87.0297 134.549 87.5355 134.622 88.0104C134.659 88.1454 134.73 88.2688 134.827 88.3697C134.925 88.4706 135.045 88.5458 135.179 88.5885C135.446 88.6703 135.692 88.8075 135.902 88.9911C135.865 89.4307 135.941 89.8724 136.121 90.2749C136.302 90.6775 136.581 91.0277 136.934 91.293C136.872 91.613 136.686 91.9227 136.789 92.2324C136.893 92.542 137.357 92.6866 137.729 92.7279C137.823 93.1951 137.731 93.6807 137.471 94.0802C137.851 94.4303 138.107 94.8939 138.202 95.4018C138.297 95.9097 138.225 96.4346 137.997 96.8983C138.204 97.5486 138.4 98.1989 138.606 98.839C138.756 99.2307 138.826 99.6483 138.813 100.067C138.734 100.537 138.51 100.97 138.173 101.306C138.39 101.524 138.571 101.775 138.709 102.049C138.775 102.188 138.81 102.34 138.81 102.493C138.81 102.647 138.775 102.798 138.709 102.937C138.544 103.236 138.183 103.391 138.028 103.691C137.966 103.85 137.95 104.023 137.981 104.19C138.012 104.358 138.089 104.514 138.204 104.64C138.525 104.937 138.793 105.286 138.998 105.673C138.493 105.621 138.121 106.178 138.08 106.705C138.038 107.231 138.224 107.737 138.204 108.212C138.201 108.49 138.114 108.761 137.953 108.988C137.793 109.215 137.567 109.387 137.305 109.482C137.528 109.836 137.62 110.258 137.563 110.673C137.506 111.089 137.306 111.471 136.996 111.753" stroke="#222120" stroke-linecap="round" stroke-linejoin="round"/>
<path d="M123.029 126.058C123.47 126.273 123.977 126.308 124.443 126.156C124.91 126.004 125.298 125.676 125.527 125.242C125.712 125.375 125.93 125.452 126.157 125.464C126.384 125.477 126.609 125.425 126.807 125.315C127.222 124.969 127.539 124.52 127.726 124.014C128.106 124.099 128.504 124.034 128.837 123.832C129.17 123.63 129.412 123.307 129.512 122.93C130.202 122.824 130.908 122.873 131.577 123.075C131.451 122.603 131.434 122.109 131.525 121.63C131.577 121.34 131.866 121.155 132.134 121.041C132.42 120.966 132.695 120.852 132.949 120.7C133.075 120.578 133.168 120.426 133.218 120.258C133.269 120.09 133.276 119.912 133.239 119.74C133.451 119.764 133.666 119.722 133.853 119.618C134.04 119.515 134.191 119.356 134.284 119.163C134.377 118.97 134.408 118.754 134.372 118.543C134.336 118.332 134.236 118.137 134.085 117.986C134.535 117.865 134.932 117.595 135.209 117.22C135.486 116.845 135.629 116.387 135.613 115.921C135.864 116.007 136.14 115.993 136.381 115.882C136.623 115.77 136.812 115.569 136.909 115.322C137.006 115.074 137.004 114.799 136.903 114.552C136.802 114.306 136.609 114.109 136.366 114.001C136.673 113.861 136.915 113.608 137.042 113.295C137.168 112.982 137.17 112.633 137.048 112.318" stroke="#222120" stroke-linecap="round" stroke-linejoin="round"/>
<path d="M88.7793 102.906C89.3356 100.6 90.2704 98.4024 91.5458 96.4025C93.4377 93.4552 95.9581 90.9629 98.9266 89.1043C99.0611 89.2335 99.2282 89.3237 99.4099 89.3655C99.5917 89.4074 99.7814 89.3991 99.9588 89.3417C100.318 89.2086 100.687 89.1051 101.063 89.0321C101.225 89.0219 101.387 89.0219 101.549 89.0321C102.054 89.0321 102.581 89.125 103.283 89.1456C103.377 89.2264 103.492 89.2781 103.615 89.2946C103.738 89.3111 103.862 89.2916 103.974 89.2385C104.2 89.1372 104.441 89.0744 104.687 89.0527C105.087 89.1217 105.451 89.3258 105.719 89.6308C105.9 89.7836 106.111 89.8972 106.339 89.9647C106.566 90.0322 106.805 90.0521 107.04 90.0231C107.344 90.3708 107.739 90.6253 108.182 90.7568C108.624 90.8884 109.094 90.8917 109.538 90.7663C109.842 91.2619 110.255 91.682 110.745 91.9949C111.235 92.3078 111.789 92.5054 112.367 92.5728C112.661 92.8918 113.016 93.1479 113.412 93.3254C113.808 93.5028 114.235 93.5979 114.669 93.605C114.912 94.5038 115.318 95.3504 115.866 96.1031C116.625 97.4448 117.05 98.9497 117.105 100.49" stroke="#222120" stroke-linecap="round" stroke-linejoin="round"/>
<path d="M136.801 111.09C136.801 110.781 136.914 110.461 136.966 110.141" stroke="#222120" stroke-linecap="round" stroke-linejoin="round"/>
<path d="M114.846 102.905C115.878 104.753 115.878 107.034 115.744 109.099C115.61 111.163 115.506 113.476 116.456 115.386" stroke="#222120" stroke-linecap="round" stroke-linejoin="round"/>
<path d="M88.7372 103.081C86.4124 106.032 85.0922 109.649 84.9694 113.404C84.8662 117.254 86.0017 121.012 87.1785 124.676C87.5084 126.05 88.12 127.34 88.9747 128.465C89.8045 129.372 90.8806 130.017 92.0715 130.323C92.3502 130.405 92.6392 130.478 92.9283 130.54C93.8787 130.716 94.8418 130.816 95.8083 130.839C98.9002 130.989 101.995 130.62 104.965 129.745C107.958 128.855 110.624 127.107 112.634 124.718C112.888 125.284 113.253 125.793 113.709 126.214C114.165 126.634 114.702 126.958 115.287 127.164C115.498 127.252 115.715 127.321 115.938 127.371C117.395 127.664 118.905 127.539 120.294 127.009C121.018 126.743 121.711 126.397 122.358 125.977C123.45 125.325 124.384 124.441 125.094 123.386C125.67 122.543 126.048 121.58 126.2 120.57C126.352 119.56 126.274 118.529 125.971 117.554C125.688 116.693 125.157 115.935 124.444 115.375C123.792 114.924 123.048 114.624 122.266 114.498C120.332 114.075 118.311 114.38 116.588 115.355" stroke="#222120" stroke-linecap="round" stroke-linejoin="round"/>
<path d="M123.983 122.095C124.307 121.593 124.48 121.009 124.48 120.412C124.48 119.815 124.307 119.231 123.983 118.729C123.66 118.23 123.232 117.806 122.73 117.487C122.227 117.168 121.662 116.962 121.072 116.882C119.884 116.725 118.677 116.927 117.604 117.46C117.53 117.482 117.462 117.52 117.404 117.569C117.345 117.619 117.297 117.68 117.263 117.749C117.201 117.955 117.376 118.141 117.573 118.265L117.748 118.347C118.522 118.667 119.327 118.936 120.091 119.307C120.862 119.655 121.528 120.2 122.022 120.887C122.294 121.278 122.458 121.733 122.496 122.208C122.534 122.559 122.484 122.913 122.352 123.24C122.193 123.638 121.899 123.968 121.521 124.17C121.144 124.372 120.707 124.434 120.287 124.345C119.965 124.231 119.672 124.047 119.429 123.806C119.186 123.565 119 123.273 118.884 122.951C118.605 122.332 118.46 121.661 118.171 121.042C118.043 120.724 117.843 120.44 117.587 120.213C117.331 119.986 117.026 119.82 116.695 119.731H116.551C116.469 119.721 116.386 119.734 116.311 119.769C116.236 119.803 116.173 119.858 116.127 119.927C115.983 120.206 116.293 120.484 116.499 120.711C116.753 121.007 116.893 121.384 116.893 121.775C116.893 122.165 116.753 122.542 116.499 122.838C116.226 123.117 115.861 123.288 115.472 123.318C115.083 123.349 114.696 123.237 114.383 123.003" stroke="#222120" stroke-width="0.5" stroke-linecap="round" stroke-linejoin="round"/>
<path d="M92.1671 102.141C91.9547 102.447 91.8233 102.802 91.7852 103.173" stroke="#222120" stroke-linecap="round" stroke-linejoin="round"/>
<path d="M103.305 103.824C103.106 104.078 102.981 104.382 102.943 104.702" stroke="#222120" stroke-linecap="round" stroke-linejoin="round"/>
<path d="M92.0319 130.663C90.9996 130.911 89.9674 131.179 88.9351 131.468C87.3247 131.902 85.7316 132.377 84.1556 132.893C83.2025 133.095 82.3448 133.611 81.7195 134.359C80.9143 135.587 81.5027 137.301 80.8627 138.622C80.2227 139.943 78.6433 140.428 77.2188 140.79C78.87 140.909 80.5278 140.675 82.0817 140.104C83.6356 139.533 85.05 138.637 86.2305 137.476" stroke="#222120" stroke-linecap="round" stroke-linejoin="round"/>
<path d="M82.834 135.184C83.4181 134.907 84.0847 134.86 84.7021 135.051C85.3195 135.242 85.8427 135.658 86.1682 136.216C86.4041 136.586 86.5817 136.99 86.6947 137.414C86.8958 138.237 86.9689 139.087 86.9115 139.932C86.772 141.207 86.8311 142.496 87.087 143.752C87.3395 144.6 87.8113 145.366 88.4547 145.973C89.0982 146.58 89.8905 147.007 90.7516 147.21" stroke="#222120" stroke-linecap="round" stroke-linejoin="round"/>
<path d="M92.8271 131.014C92.3583 132.852 91.5148 134.574 90.3496 136.072" stroke="#222120" stroke-linecap="round" stroke-linejoin="round"/>
<path d="M90.4226 134.132C90.3504 134.772 90.2471 135.402 90.1336 136.031C89.7872 137.578 89.5526 139.148 89.4317 140.728C89.3388 142.958 89.8962 145.363 91.5994 146.798" stroke="#222120" stroke-linecap="round" stroke-linejoin="round"/>
<path d="M108.961 133.605C109.743 134.001 110.443 134.541 111.026 135.195C111.714 135.958 112.231 136.859 112.543 137.838C112.854 138.839 112.938 139.897 112.791 140.935C112.684 141.784 112.422 142.606 112.017 143.36C111.189 144.614 110.297 145.823 109.343 146.984C108.885 147.588 108.557 148.281 108.379 149.018C108.202 149.755 108.178 150.521 108.311 151.268C107.737 151.248 107.179 151.082 106.688 150.783C106.198 150.485 105.794 150.065 105.513 149.564C104.884 148.604 104.553 147.5 104.016 146.468C103.792 145.939 103.458 145.464 103.036 145.075C102.614 144.685 102.115 144.389 101.57 144.207C100.971 144.126 100.363 144.168 99.7806 144.329C99.1986 144.491 98.6554 144.769 98.1841 145.146C97.0796 145.869 96.1196 146.726 94.9737 147.438C93.9197 148.164 92.6971 148.609 91.4227 148.728H91.2988" stroke="#222120" stroke-linecap="round" stroke-linejoin="round"/>
<path d="M111.013 135.194C111.24 136.227 111.013 138.291 110.259 138.972C109.454 139.678 108.485 140.171 107.441 140.407L106.832 140.562C103.735 141.254 100.421 141.068 97.7066 142.627C96.1272 143.545 94.9194 144.991 93.402 146.002C92.8543 146.354 92.2893 146.678 91.7091 146.973L91.2962 147.189L90.8729 147.427C90.5882 147.579 90.3124 147.748 90.0471 147.933C88.312 149.294 86.9457 151.069 86.0729 153.094C85.0922 155.045 84.2973 157.099 83.1309 158.937" stroke="#222120" stroke-linecap="round" stroke-linejoin="round"/>
<path d="M115.195 127.36C115.019 127.556 114.802 127.711 114.559 127.814C114.317 127.918 114.055 127.967 113.792 127.959C113.318 127.886 112.852 127.772 112.398 127.618C109.369 131.229 107.438 135.631 106.834 140.305L106.927 140.223" stroke="#222120" stroke-linecap="round" stroke-linejoin="round"/>
<path d="M109.952 152.536C108.525 155.023 107.787 157.845 107.815 160.712" stroke="#222120" stroke-linecap="round" stroke-linejoin="round"/>
<path d="M118.797 154.022C115.558 156.02 112.708 158.587 110.384 161.599C110.054 162.033 109.734 162.466 109.424 162.91" stroke="#222120" stroke-linecap="round" stroke-linejoin="round"/>
<path d="M114.74 174.648C115.869 176.842 117.517 178.727 119.541 180.138C121.566 181.548 123.904 182.442 126.353 182.742" stroke="#222120" stroke-linecap="round" stroke-linejoin="round"/>
<path d="M115.412 166.05L130.483 182.009" stroke="#222120" stroke-linecap="round" stroke-linejoin="round"/>
<path d="M113.09 140.975C116.342 145.537 122.164 147.736 125.353 152.33C127.728 155.757 128.347 160.082 128.636 164.232C128.925 168.382 128.997 172.665 130.473 176.557C131.08 178.067 131.769 179.542 132.538 180.975C132.786 181.471 133.023 182.008 133.25 182.451C134.27 184.419 134.72 186.632 134.551 188.841C133.859 190.165 132.778 191.246 131.454 191.938" stroke="#222120" stroke-linecap="round" stroke-linejoin="round"/>
<path d="M134.592 188.873C134.406 187.942 133.866 187.121 133.085 186.581C132.307 186.049 131.44 185.661 130.525 185.436L130.143 185.343C127.646 184.702 125.04 184.61 122.504 185.074" stroke="#222120" stroke-linecap="round" stroke-linejoin="round"/>
<path d="M116.857 182.318H116.919H117.023L122.473 185.054L126.107 186.881C127.414 187.377 128.523 188.287 129.265 189.472" stroke="#222120" stroke-linecap="round" stroke-linejoin="round"/>
<path d="M130.09 185.561C130.574 187.701 130.946 189.864 131.205 192.043C131.382 193.579 131.4 195.129 131.257 196.668C131.187 197.807 130.896 198.922 130.4 199.95C129.898 200.986 129.014 201.786 127.933 202.18C127.397 202.358 126.822 202.38 126.274 202.245C125.726 202.11 125.228 201.823 124.836 201.416" stroke="#222120" stroke-linecap="round" stroke-linejoin="round"/>
<path d="M125.705 201.209L124.838 201.116C122.046 200.762 119.39 199.705 117.119 198.044C114.848 196.383 113.035 194.172 111.852 191.619" stroke="#222120" stroke-linecap="round" stroke-linejoin="round"/>
<path d="M110.335 188.647C109.764 189.14 109.025 189.395 108.271 189.359C108.033 189.359 107.786 189.359 107.548 189.276C104.981 189.001 102.476 188.304 100.136 187.212C98.2503 186.409 96.5987 185.141 95.3364 183.526C94.7203 182.71 94.3158 181.754 94.1591 180.744C94.0024 179.733 94.0983 178.7 94.4383 177.735" stroke="#222120" stroke-linecap="round" stroke-linejoin="round"/>
<path d="M97.0994 181.451C96.3188 180.524 95.6275 179.525 95.0349 178.468C94.8911 178.208 94.7636 177.939 94.6529 177.663C94.2926 176.813 94.137 175.89 94.1987 174.968C94.2341 174.358 94.4134 173.765 94.722 173.238C95.0306 172.71 95.4597 172.263 95.9742 171.934" stroke="#222120" stroke-linecap="round" stroke-linejoin="round"/>
<path d="M99.8567 177.496C99.3388 176.335 98.6421 175.262 97.7921 174.317C97.172 173.579 96.6958 172.732 96.3882 171.819C96.3025 171.513 96.2574 171.197 96.254 170.879C96.2499 170.369 96.3599 169.864 96.576 169.401C96.7921 168.939 97.1089 168.53 97.5031 168.206C97.8289 167.936 98.2092 167.738 98.6179 167.628C99.2387 167.463 99.8952 167.496 100.497 167.721H100.559C100.827 168.713 101.392 169.599 102.179 170.26C102.965 170.92 103.816 171.497 104.719 171.984" stroke="#222120" stroke-linecap="round" stroke-linejoin="round"/>
<path d="M100.434 167.846C100.434 167.846 100.434 167.763 100.434 167.722C100.493 166.82 100.857 165.964 101.466 165.296C101.813 165.033 102.217 164.854 102.645 164.776C103.074 164.697 103.515 164.719 103.933 164.842C104.78 165.091 105.582 165.474 106.307 165.977L109.311 167.835C109.822 168.116 110.294 168.464 110.715 168.868C111.747 169.962 111.851 171.582 111.933 173.069" stroke="#222120" stroke-linecap="round" stroke-linejoin="round"/>
<path d="M98.495 167.123C98.0385 166.823 97.6628 166.415 97.4008 165.936C97.2796 165.693 97.2493 165.415 97.3156 165.151C97.3819 164.888 97.5403 164.657 97.762 164.501C98.2679 164.232 98.8769 164.501 99.455 164.501C100.212 164.392 100.895 163.987 101.354 163.376C101.813 162.762 102.446 162.302 103.171 162.054C103.931 161.996 104.689 162.188 105.329 162.601L108.725 164.294L109.262 164.563C110.37 165.039 111.387 165.707 112.266 166.534C112.415 166.69 112.553 166.855 112.678 167.03C113.538 168.31 114.008 169.813 114.031 171.355C114.022 173.1 113.925 174.843 113.742 176.578C113.658 177.714 113.721 178.855 113.927 179.975C114.048 180.574 114.242 181.157 114.506 181.709" stroke="#222120" stroke-linecap="round" stroke-linejoin="round"/>
<path d="M105.74 170.312C105.988 170.959 106.336 171.561 106.773 172.098" stroke="#222120" stroke-linecap="round" stroke-linejoin="round"/>
<path d="M101.055 175.226C101.078 175.861 101.311 176.47 101.715 176.96" stroke="#222120" stroke-linecap="round" stroke-linejoin="round"/>
<path d="M97.9475 179.375C97.908 179.878 97.9858 180.383 98.1746 180.851C98.2282 180.979 98.2902 181.103 98.3604 181.223" stroke="#222120" stroke-linecap="round" stroke-linejoin="round"/>
<path d="M110.973 184.454C110.942 184.403 110.921 184.347 110.911 184.289C110.893 184.185 110.903 184.078 110.94 183.98C110.978 183.882 111.042 183.796 111.124 183.731C111.207 183.666 111.306 183.625 111.41 183.613C111.515 183.6 111.621 183.616 111.717 183.659C111.78 183.683 111.836 183.722 111.882 183.772C111.995 183.85 112.076 183.965 112.112 184.098C112.147 184.23 112.135 184.37 112.077 184.494C112.019 184.618 111.918 184.717 111.794 184.774C111.669 184.831 111.528 184.842 111.397 184.805C111.302 184.786 111.214 184.744 111.141 184.683C111.067 184.621 111.009 184.543 110.973 184.454Z" stroke="#222120" stroke-width="0.5" stroke-linecap="round" stroke-linejoin="round"/>
<path d="M112.863 188.728C112.378 188.246 112.054 187.626 111.934 186.953C111.942 186.263 112.199 185.6 112.656 185.084C113.082 184.43 113.72 183.942 114.463 183.701C114.833 183.621 115.217 183.638 115.579 183.75C115.941 183.862 116.267 184.066 116.527 184.341C116.776 184.619 116.961 184.948 117.072 185.304C117.182 185.66 117.215 186.036 117.167 186.406C117.037 187.163 116.624 187.842 116.011 188.305C115.395 188.763 114.652 189.015 113.885 189.028C113.703 189.054 113.517 189.041 113.341 188.989C113.165 188.938 113.002 188.849 112.863 188.728Z" stroke="#222120" stroke-width="0.5" stroke-linecap="round" stroke-linejoin="round"/>
<path d="M110.797 184.589C110.429 185.215 110.233 185.928 110.229 186.654C110.167 187.241 110.267 187.833 110.518 188.367C110.536 188.409 110.56 188.447 110.59 188.481C110.798 188.821 111.076 189.113 111.406 189.338C112.017 189.761 112.729 190.018 113.47 190.081C113.908 190.124 114.35 190.099 114.781 190.009C115.349 189.887 115.886 189.653 116.363 189.322C116.84 188.99 117.246 188.568 117.558 188.078C118.186 187.084 118.405 185.885 118.167 184.734C118.053 184.096 117.764 183.502 117.331 183.02C117.181 182.866 117.014 182.727 116.835 182.607C116.165 182.176 115.365 181.993 114.575 182.091H114.482C113.453 182.277 112.516 182.8 111.819 183.578" stroke="#222120" stroke-width="0.5" stroke-linecap="round" stroke-linejoin="round"/>
<path d="M114.072 179.973C114.338 179.957 114.604 179.996 114.854 180.086C115.105 180.177 115.334 180.317 115.528 180.5C116.186 180.99 116.702 181.645 117.025 182.399" stroke="#222120" stroke-linecap="round" stroke-linejoin="round"/>
<path d="M107.525 189.739C107.948 190.4 108.555 190.924 109.27 191.246C109.5 191.361 109.748 191.437 110.003 191.473C110.212 191.499 110.423 191.499 110.633 191.473H110.911C111.201 191.444 111.488 191.389 111.768 191.308C111.973 191.267 112.174 191.205 112.367 191.123C112.777 190.982 113.136 190.723 113.399 190.379" stroke="#222120" stroke-linecap="round" stroke-linejoin="round"/>
<path d="M115.379 101.646L115.823 102.203C115.967 102.389 116.101 102.585 116.236 102.791C116.495 103.191 116.733 103.605 116.948 104.03" stroke="#222120" stroke-width="0.5" stroke-linecap="round" stroke-linejoin="round"/>
<path d="M116 100.49L116.31 101.027C116.547 101.44 116.795 101.853 117.074 102.245C117.187 102.431 117.311 102.617 117.435 102.792" stroke="#222120" stroke-width="0.5" stroke-linecap="round" stroke-linejoin="round"/>
<path d="M14.1875 29.7568C18.3854 33.3767 22.456 37.1411 26.3993 41.0499C30.3839 45.0036 34.2446 49.1017 37.9402 53.334" stroke="#222120" stroke-width="0.5" stroke-linecap="round" stroke-linejoin="round"/>
<path d="M25.8125 41.6494L26.4009 41.0508C31.8591 35.5137 37.8788 30.5596 44.3625 26.2686" stroke="#222120" stroke-width="0.5" stroke-linecap="round" stroke-linejoin="round"/>
<path d="M34.3465 33.6077C33.8309 31.9697 32.9563 30.4673 31.7864 29.2102C31.6206 29.0194 31.4109 28.8717 31.1753 28.78C30.9397 28.6883 30.6853 28.6553 30.4341 28.6838C30.1854 28.7721 29.9732 28.9409 29.8311 29.1634C29.6891 29.3859 29.6252 29.6493 29.6496 29.9122C29.7169 30.4411 29.9355 30.9394 30.2793 31.347C30.7329 32.016 31.3372 32.5691 32.0437 32.9617C32.7501 33.3544 33.5389 33.5757 34.3465 33.6077Z" stroke="#222120" stroke-width="0.5" stroke-linecap="round" stroke-linejoin="round"/>
<path d="M37.5801 31.3271C37.9392 32.5208 38.4454 33.6651 39.0872 34.7337C39.335 35.1953 39.6888 35.5915 40.1195 35.8899C40.3424 36.029 40.5999 36.1027 40.8627 36.1027C41.1255 36.1027 41.383 36.029 41.6059 35.8899C41.8058 35.7225 41.9531 35.501 42.03 35.2519C42.107 35.0029 42.1103 34.7368 42.0395 34.4859C41.8904 33.9841 41.6044 33.5337 41.2137 33.1853C40.21 32.2243 38.9468 31.5783 37.5801 31.3271Z" stroke="#222120" stroke-width="0.5" stroke-linecap="round" stroke-linejoin="round"/>
<path d="M45.9924 21.5107C45.7808 22.0416 45.6985 22.6152 45.7524 23.1842C45.8062 23.7532 45.9947 24.3013 46.3021 24.783C46.6185 25.2583 47.042 25.6526 47.5387 25.9341C48.0354 26.2156 48.5913 26.3765 49.1615 26.4037" stroke="#222120" stroke-width="0.5" stroke-linecap="round" stroke-linejoin="round"/>
<path d="M50.8517 20.0439C50.2509 20.3758 49.7016 20.793 49.2207 21.2827H49.3033" stroke="#222120" stroke-width="0.5" stroke-linecap="round" stroke-linejoin="round"/>
<path d="M52.7217 22.6348C52.1942 23.0683 51.602 23.4166 50.9668 23.667" stroke="#222120" stroke-width="0.5" stroke-linecap="round" stroke-linejoin="round"/>
<path d="M49.8528 16.8535H49.7186C49.1737 16.9317 48.6378 17.0631 48.1185 17.2458C47.7955 17.3472 47.4813 17.4749 47.1792 17.6277C46.5011 17.932 45.8659 18.3242 45.2901 18.7942C45.0325 18.9954 44.7909 19.2162 44.5675 19.4548L44.2785 19.7439C43.9996 20.062 43.754 20.4079 43.5456 20.7762C43.3483 21.0969 43.1988 21.4446 43.1017 21.8084C43.0681 21.9239 43.0406 22.0411 43.0191 22.1594C42.9415 22.5999 42.9415 23.0506 43.0191 23.491C43.059 23.7314 43.1248 23.9667 43.2152 24.193C43.3575 24.639 43.5479 25.0682 43.783 25.473L43.9378 25.7311C44.0617 25.9478 44.1959 26.1646 44.3404 26.3711C44.449 26.5445 44.5698 26.7102 44.7017 26.8666C45.0912 27.3833 45.538 27.8542 46.0334 28.2705C46.2534 28.453 46.4843 28.6219 46.725 28.7763C46.8385 28.8589 46.9727 28.9311 47.0966 29.0034C47.5128 29.2321 47.9523 29.4156 48.4076 29.5505C48.8015 29.6668 49.2061 29.7429 49.6154 29.7776C50.0571 29.8396 50.5053 29.8396 50.947 29.7776C51.2424 29.7287 51.5327 29.6527 51.8141 29.5505C51.9975 29.482 52.1768 29.4027 52.3509 29.3131C52.9258 29.0048 53.4484 28.6076 53.8993 28.1363C54.3128 27.7047 54.6795 27.2307 54.9935 26.7221L55.0451 26.6498C55.4277 26.0748 55.6909 25.4289 55.8193 24.7504C55.918 23.8129 55.7684 22.866 55.3858 22.0046C55.2013 21.5272 54.9805 21.0648 54.7251 20.6213C54.3884 20.0291 53.9793 19.4813 53.507 18.9903C53.3935 18.8665 53.2696 18.7426 53.1457 18.629L52.6296 18.2058C52.2154 17.9025 51.7688 17.6463 51.298 17.4419C50.8516 17.1681 50.3634 16.9693 49.8528 16.8535Z" stroke="#222120" stroke-width="0.5" stroke-linecap="round" stroke-linejoin="round"/>
<path d="M49.8545 16.8328C49.9519 15.4884 49.7031 14.1415 49.1319 12.9205C48.9586 12.4851 48.6906 12.0937 48.3474 11.7747C48.164 11.5905 47.93 11.465 47.6752 11.4141C47.4203 11.3632 47.1561 11.3891 46.9161 11.4887C46.676 11.5883 46.471 11.7569 46.327 11.9733C46.183 12.1896 46.1065 12.4439 46.1073 12.7037C46.0742 13.2657 46.1843 13.827 46.4273 14.3348C46.8284 15.3298 47.3822 16.2561 48.0687 17.0806" stroke="#222120" stroke-width="0.5" stroke-linecap="round" stroke-linejoin="round"/>
<path d="M47.1564 17.5247C46.6308 16.3569 45.908 15.2883 45.0196 14.366C44.5944 13.8532 44.0152 13.4912 43.3679 13.3337C43.0445 13.2685 42.7085 13.3266 42.4258 13.4966C42.1431 13.6666 41.9342 13.9362 41.8402 14.2524C41.8112 14.6694 41.932 15.0831 42.1808 15.4189C43.0029 16.6249 44.0056 17.6972 45.1538 18.5983" stroke="#222120" stroke-width="0.5" stroke-linecap="round" stroke-linejoin="round"/>
<path d="M44.5367 19.4042C43.7329 18.4388 42.7002 17.6901 41.5328 17.2261C41.1327 17.0423 40.6911 16.9675 40.2528 17.0093C40.0341 17.031 39.8272 17.1186 39.6594 17.2605C39.4916 17.4025 39.371 17.5921 39.3134 17.8042C39.3044 18.0592 39.3604 18.3123 39.4759 18.5398C39.5915 18.7673 39.7629 18.9617 39.9741 19.1049C40.9107 19.921 42.0738 20.4324 43.3083 20.5707" stroke="#222120" stroke-width="0.5" stroke-linecap="round" stroke-linejoin="round"/>
<path d="M42.8209 21.6134C41.5303 21.1004 40.1361 20.9023 38.7537 21.0353C38.3878 21.0668 38.0343 21.1835 37.7215 21.376C37.566 21.4731 37.4349 21.6045 37.3383 21.7602C37.2417 21.9159 37.1821 22.0917 37.1641 22.2741C37.1667 22.4807 37.2209 22.6834 37.3219 22.8637C37.4229 23.044 37.5673 23.1962 37.7421 23.3064C38.0893 23.5127 38.4764 23.6429 38.8776 23.6883C40.2556 23.9192 41.6682 23.8309 43.0067 23.4302" stroke="#222120" stroke-width="0.5" stroke-linecap="round" stroke-linejoin="round"/>
<path d="M43.1227 24.1318C42.3688 24.212 41.6273 24.3818 40.9136 24.6376C40.1239 24.9065 39.4429 25.4245 38.973 26.1138C38.8481 26.2779 38.7674 26.4714 38.7385 26.6755C38.7096 26.8797 38.7334 27.0879 38.8078 27.2803C38.89 27.4043 38.998 27.5091 39.1246 27.5875C39.2511 27.6659 39.393 27.7161 39.5407 27.7345C39.8406 27.7621 40.1429 27.727 40.4285 27.6313C41.7147 27.2801 42.8928 26.613 43.8556 25.6906" stroke="#222120" stroke-width="0.5" stroke-linecap="round" stroke-linejoin="round"/>
<path d="M44.6812 26.7939C43.6212 27.454 42.7021 28.3169 41.9767 29.3333C41.7812 29.5803 41.6309 29.8599 41.5328 30.1592C41.4904 30.311 41.4795 30.47 41.5008 30.6262C41.5221 30.7824 41.5752 30.9326 41.6567 31.0675C41.787 31.2245 41.9582 31.3423 42.1513 31.4079C42.3444 31.4735 42.552 31.4843 42.7509 31.4392C43.135 31.3395 43.4891 31.1482 43.7832 30.8817C44.6619 30.1837 45.383 29.3078 45.8993 28.3114" stroke="#222120" stroke-width="0.5" stroke-linecap="round" stroke-linejoin="round"/>
<path d="M46.6846 28.7783C46.0404 29.5253 45.5494 30.3916 45.2394 31.328C45.0429 31.8117 44.9719 32.3373 45.033 32.8558C45.0684 33.1144 45.1722 33.3589 45.3337 33.564C45.4952 33.7691 45.7086 33.9273 45.9517 34.0223C46.277 34.0945 46.6171 34.0589 46.9205 33.9212C47.224 33.7834 47.4745 33.5509 47.6343 33.2584C47.9458 32.6711 48.1254 32.0229 48.1608 31.359L48.3775 29.6145" stroke="#222120" stroke-width="0.5" stroke-linecap="round" stroke-linejoin="round"/>
<path d="M49.6278 29.7788C49.2736 30.4768 49.0993 31.2522 49.1209 32.0346C49.1426 32.817 49.3594 33.5816 49.7517 34.2589C49.82 34.4113 49.9211 34.5468 50.0478 34.6556C50.1745 34.7645 50.3237 34.844 50.4846 34.8886C50.6787 34.8919 50.8698 34.8403 51.036 34.7399C51.2022 34.6395 51.3367 34.4943 51.424 34.3209C51.8049 33.5933 51.8936 32.7477 51.6717 31.957C51.5066 31.1621 51.1762 30.4086 50.9698 29.624" stroke="#222120" stroke-width="0.5" stroke-linecap="round" stroke-linejoin="round"/>
<path d="M52.3203 29.1374C52.8757 30.7358 53.9331 32.1119 55.3346 33.0601C55.6005 33.2735 55.933 33.3868 56.2739 33.3801C56.4739 33.3474 56.6598 33.2565 56.8085 33.1188C56.9572 32.9812 57.0621 32.8028 57.1101 32.6059C57.2037 32.2068 57.1712 31.7884 57.0172 31.4084C56.4907 29.8807 55.3655 29.0962 54.0545 28.1465" stroke="#222120" stroke-width="0.5" stroke-linecap="round" stroke-linejoin="round"/>
<path d="M3.66992 34.9813C6.80804 32.7172 9.9668 30.4806 13.1462 28.2715C25.1688 19.8825 37.4047 11.8067 49.8539 4.04395" stroke="#222120" stroke-width="0.5" stroke-linecap="round" stroke-linejoin="round"/>
<path d="M2.53484 36.7783C2.47557 38.0085 2.89344 39.214 3.70132 40.1436C3.7391 38.9166 3.32386 37.7187 2.53484 36.7783Z" stroke="#222120" stroke-width="0.5" stroke-linecap="round" stroke-linejoin="round"/>
<path d="M3.98828 40.0918C4.85652 40.8312 5.63908 41.6657 6.32124 42.5796C12.9847 50.7862 20.4851 58.2763 28.701 64.9284C29.2894 65.2587 30.0016 64.8251 30.5384 64.4122L52.4124 47.4622" stroke="#222120" stroke-width="0.5" stroke-linecap="round" stroke-linejoin="round"/>
<path d="M60.0312 42.218C64.9346 38.51 70.0309 35.0643 75.2986 31.8952C75.0637 31.6509 74.882 31.3605 74.7647 31.0426C74.6475 30.7246 74.5973 30.3857 74.6173 30.0474C74.6118 29.9477 74.6118 29.8478 74.6173 29.748" stroke="#222120" stroke-width="0.5" stroke-linecap="round" stroke-linejoin="round"/>
<path d="M55.1172 26.5166C56.2549 27.7213 57.7122 28.5771 59.3186 28.9838C59.7117 29.1283 60.1435 29.1283 60.5366 28.9838C60.8138 28.8176 61.0211 28.5563 61.1198 28.2486C61.2186 27.9409 61.2021 27.6079 61.0734 27.3115C60.7927 26.724 60.334 26.24 59.7624 25.9282C58.6101 25.2128 57.312 24.7648 55.9637 24.6172" stroke="#222120" stroke-width="0.5" stroke-linecap="round" stroke-linejoin="round"/>
<path d="M55.8186 23.1406C57.4263 23.4203 59.0807 23.2229 60.5774 22.5728C60.8322 22.4973 61.0666 22.3653 61.2632 22.1865C61.4598 22.0078 61.6135 21.787 61.7129 21.5405C61.7567 21.2673 61.7084 20.9872 61.5758 20.7443C61.4431 20.5015 61.2336 20.3095 60.98 20.1986C60.4639 19.9838 59.8933 19.9368 59.349 20.0644C58.0198 20.3652 56.7429 20.8628 55.5605 21.5405L55.8186 23.1406Z" stroke="#222120" stroke-width="0.5" stroke-linecap="round" stroke-linejoin="round"/>
<path d="M55.0242 20.3837C56.2098 20.0297 57.3471 19.5304 58.41 18.8972C58.755 18.71 59.0656 18.4657 59.3288 18.1746C59.4527 18.0343 59.5475 17.8709 59.6077 17.6937C59.668 17.5165 59.6925 17.329 59.6798 17.1423C59.6265 16.907 59.5082 16.6913 59.3386 16.5198C59.1689 16.3483 58.9545 16.2278 58.7197 16.172C58.2502 16.0626 57.7572 16.1211 57.3262 16.3372C56.8941 16.546 56.4886 16.8059 56.1184 17.1114L53.8887 18.794" stroke="#222120" stroke-width="0.5" stroke-linecap="round" stroke-linejoin="round"/>
<path d="M52.6701 18.0102C53.3929 17.3107 54.0117 16.5112 54.5075 15.636C54.7548 15.1968 54.9049 14.7096 54.9477 14.2074C54.9904 13.7051 54.9248 13.1996 54.7553 12.725C54.6751 12.4868 54.5321 12.2747 54.3413 12.1111C54.1505 11.9476 53.919 11.8386 53.6714 11.7959C53.4556 11.8078 53.2449 11.8666 53.0542 11.9682C52.8634 12.0698 52.6971 12.2118 52.5668 12.3843C52.0231 13.0376 51.6664 13.826 51.5346 14.6657C51.3984 15.498 51.3397 16.3412 51.3591 17.1844" stroke="#222120" stroke-width="0.5" stroke-linecap="round" stroke-linejoin="round"/>
<path d="M89.8225 150.12C89.6758 150.162 89.5446 150.246 89.4455 150.362C89.3464 150.478 89.2838 150.621 89.2654 150.772C89.247 150.923 89.2738 151.077 89.3423 151.213C89.4109 151.349 89.5181 151.462 89.6506 151.538C89.7831 151.613 89.935 151.648 90.0871 151.638C90.2393 151.627 90.385 151.572 90.5059 151.479C90.6268 151.386 90.7175 151.259 90.7667 151.115C90.816 150.971 90.8215 150.815 90.7825 150.668C90.7225 150.471 90.5896 150.305 90.4112 150.203C90.2327 150.102 90.0221 150.072 89.8225 150.12Z" stroke="#222120" stroke-linecap="round" stroke-linejoin="round"/>
<path d="M51.8238 42.2588C51.7567 42.7105 51.7567 43.1697 51.8238 43.6214C51.867 43.8406 51.959 44.0472 52.093 44.2259C52.2271 44.4047 52.3997 44.5508 52.598 44.6537C52.8876 44.762 53.2068 44.761 53.4957 44.6508C53.7845 44.5405 54.0233 44.3287 54.1671 44.0549C54.2989 43.7744 54.3531 43.4636 54.324 43.155C54.295 42.8463 54.1838 42.5511 54.0019 42.3001" stroke="#222120" stroke-linecap="round" stroke-linejoin="round"/>
</svg>
