<svg width="332" height="352" viewBox="0 0 332 352" fill="none" xmlns="http://www.w3.org/2000/svg">
<path d="M300.015 50.3369H66.6973V351.119H300.015V50.3369Z" fill="#EDEDED" stroke="#1D1D1B" stroke-miterlimit="10"/>
<path d="M194.648 22.0068C198.305 27.1773 201.95 32.3477 205.584 37.5722C197.028 31.5689 195.222 27.8587 194.648 22.0068Z" fill="white"/>
<path d="M169.772 15.9928V15.452C172.413 10.0301 176.889 5.71893 182.406 3.2831C187.668 0.790395 193.663 0.320675 199.248 1.96346V2.19061C205.393 1.74584 211.52 3.26065 216.75 6.51732V6.5714H216.468H216.263C212.894 6.37009 209.568 7.41326 206.917 9.50275V9.83807C204.745 9.95923 202.6 10.3853 200.546 11.1036C197.188 12.2214 194.386 14.5824 192.715 17.7019L191.72 18.7835C188.918 19.8224 185.892 20.1023 182.947 19.5948V19.7246C182.086 20.787 180.907 21.5452 179.583 21.8879C178.374 22.2411 177.13 22.4623 175.873 22.5478C173.266 22.7857 170.411 23.0129 168.507 24.8193C167.706 25.6756 167.126 26.714 166.817 27.8449C166.508 28.9757 166.479 30.1648 166.733 31.3093C167.282 33.5969 168.347 35.7283 169.848 37.5398L170.551 37.6047C170.465 38.3443 170.421 39.0883 170.421 39.833C170.421 41.4587 170.617 43.0786 171.006 44.6572H168.691C168.215 43.8893 167.75 43.1213 167.306 42.3316C165.725 39.562 164.372 36.6679 163.261 33.6782C162.908 36.3974 163.304 39.1614 164.407 41.6718C161.761 38.1886 160.356 33.9202 160.416 29.5462C160.415 27.3648 160.907 25.2113 161.854 23.2466C162.802 21.2818 164.181 19.5565 165.889 18.1994C167.122 17.3609 168.421 16.623 169.772 15.9928Z" fill="#1D1D1B"/>
<path d="M188.668 44.9161C188.289 45.8565 188.289 46.9069 188.668 47.8474C188.668 47.9556 188.776 48.0638 188.884 48.0854C188.992 48.107 189.155 47.8258 189.133 47.6203C189.243 47.1616 189.259 46.6852 189.179 46.2203C189.099 45.7553 188.925 45.3116 188.668 44.9161ZM172.367 66.2576C172.244 66.4325 172.169 66.6361 172.148 66.8487C172.127 67.0613 172.161 67.2758 172.247 67.4714C172.332 67.6671 172.467 67.8373 172.638 67.9657C172.809 68.0941 173.01 68.1764 173.222 68.2046C173.524 68.2046 173.838 68.2046 174.141 68.3019V68.5723C173.995 69.3225 173.995 70.0937 174.141 70.8439V70.9845L185.109 71.5902V71.4604C182.618 69.1204 179.77 67.1925 176.672 65.7492C175.957 65.4133 175.179 65.2327 174.39 65.2191C173.993 65.2136 173.602 65.3053 173.249 65.4864C172.896 65.6674 172.593 65.9322 172.367 66.2576ZM170.55 37.6905C170.859 34.5928 171.829 31.5974 173.395 28.9066C174.96 26.2158 177.085 23.8922 179.625 22.0927V21.9521C180.949 21.6093 182.128 20.8511 182.989 19.7887V19.6589C185.934 20.1664 188.96 19.8866 191.761 18.8477C192.392 23.1316 194.045 27.2005 196.582 30.7101C199.118 34.2198 202.462 37.0667 206.332 39.0101L206.267 39.1399C207.201 41.3678 207.926 43.6783 208.43 46.041C208.945 48.4088 209.879 50.6654 211.188 52.7041C211.857 53.7142 212.743 54.5618 213.782 55.1851C214.821 55.8083 215.986 56.1913 217.192 56.3061C218.47 56.3149 219.718 55.9084 220.746 55.1477C221.774 54.387 222.527 53.3131 222.892 52.0876C224.43 50.8345 226.403 50.2431 228.376 50.4434C229.349 50.5526 230.277 50.9078 231.074 51.4756C231.871 52.0434 232.51 52.805 232.93 53.6885C233.521 55.3471 233.54 57.1558 232.984 58.8264C232.255 61.6083 230.795 64.1443 228.755 66.171C226.683 68.2032 224.042 69.5575 221.183 70.0542C220.47 70.2094 219.732 70.2094 219.02 70.0542C218.151 69.7911 217.391 69.2518 216.856 68.5183C216.281 67.7598 215.869 66.8908 215.645 65.9655C215.698 67.6826 215.165 69.3667 214.134 70.741C213.104 72.1154 211.636 73.0985 209.973 73.5287C208.31 73.959 206.55 73.8109 204.982 73.1088C203.414 72.4066 202.132 71.1921 201.345 69.6648C201.718 72.0934 202.854 74.3401 204.59 76.0792C206.451 77.802 208.666 79.0977 211.08 79.8759C208.972 80.8399 207.147 82.3298 205.78 84.2026C200.707 84.7759 194.888 86.5714 189.847 87.4476C184.806 88.3238 179.301 88.7024 174.703 86.42C173.862 85.9005 173.138 85.2106 172.579 84.3946C172.02 83.5787 171.639 82.6547 171.458 81.6823C171.134 79.8268 170.939 77.9509 170.874 76.0684C170.474 71.3523 169.057 66.7876 168.495 62.0931C168.29 60.2976 168.254 58.487 168.386 56.6847L170.918 56.8578C170.916 56.7033 170.953 56.5509 171.026 56.4143C171.559 55.5619 172.232 54.805 173.016 54.1752C175.179 52.239 177.343 50.1298 178.186 47.3823L177.278 47.1227C176.639 46.0702 175.916 45.0717 175.114 44.1373C174.807 43.7092 174.377 43.3848 173.881 43.207C173.618 43.152 173.345 43.1585 173.084 43.2261C172.823 43.2936 172.582 43.4203 172.378 43.5964C171.974 43.9671 171.65 44.4161 171.426 44.9161H171.091V44.7214C170.702 43.1427 170.506 41.5229 170.507 39.8971C170.478 39.1613 170.493 38.4246 170.55 37.6905Z" fill="white"/>
<path d="M171.007 44.7437V44.9384L171.342 47.3722C169.495 50.1498 168.455 53.3847 168.335 56.7179C168.203 58.5201 168.239 60.3308 168.443 62.1263C169.005 66.8208 170.422 71.3854 170.823 76.1015C170.887 77.9841 171.082 79.8599 171.407 81.7154C171.587 82.6879 171.969 83.6119 172.528 84.4278C173.087 85.2438 173.81 85.9337 174.652 86.4532C179.249 88.7355 184.755 88.4002 189.795 87.4808C190.019 90.4296 189.767 93.3952 189.049 96.264L188.811 96.1991C187.971 96.5667 187.107 96.8775 186.226 97.1293C182.979 98.0645 179.57 98.3003 176.225 97.8211C172.88 97.3419 169.675 96.1586 166.82 94.3494C166.485 94.1439 166.161 93.9168 165.847 93.6896C162.602 91.287 160.022 88.0982 158.349 84.4234C156.676 80.7485 155.966 76.7085 156.285 72.6834C154.858 75.1757 154.162 78.0197 154.277 80.8893C154.391 83.759 155.312 86.5383 156.934 88.9086C154.691 88.0633 152.749 86.5723 151.354 84.624C149.958 82.6757 149.171 80.3574 149.092 77.962C149.092 73.7327 151.255 69.7954 153.819 66.4638C156.728 62.732 160.222 59.487 162.981 55.647C165.739 51.8071 167.783 47.145 167.156 42.4614L167.275 42.3965C167.718 43.1861 168.183 43.9541 168.659 44.7221L171.007 44.7437Z" fill="#1D1D1B"/>
<path d="M172.966 44.4307C172.73 44.8217 172.592 45.2639 172.564 45.7197C172.536 46.1754 172.618 46.6313 172.804 47.0484C172.891 47.2323 173.085 47.4378 173.269 47.3513C173.329 47.3071 173.375 47.2475 173.404 47.179C173.433 47.1104 173.442 47.0354 173.431 46.9619C173.491 46.0925 173.331 45.222 172.966 44.4307ZM171.43 47.3729L171.041 44.9175H171.376C171.616 44.434 171.951 44.0037 172.361 43.6519C172.564 43.4758 172.806 43.3491 173.067 43.2816C173.328 43.214 173.6 43.2075 173.864 43.2625C174.36 43.4403 174.79 43.7648 175.097 44.1928C175.899 45.1272 176.622 46.1257 177.261 47.1782L178.169 47.4378C177.369 50.1853 175.13 52.2945 172.999 54.2307C172.215 54.8605 171.542 55.6174 171.008 56.4698C170.936 56.6064 170.899 56.7588 170.9 56.9133L168.369 56.7402C168.501 53.3943 169.561 50.151 171.43 47.3729Z" fill="white"/>
<path d="M200.155 320.873C200.311 322.152 200.311 323.445 200.155 324.724C200.155 325.038 200.069 325.373 200.015 325.741H199.95C203.811 333.312 208.019 340.938 211.848 348.456L213.189 351.106H130.549C117.98 331.949 107.142 307.839 110.949 285.957C114.721 267.823 122.48 250.757 133.664 235.994L134.011 235.929C134.08 236.294 134.171 236.656 134.281 237.011L136.639 236.427C136.542 236.018 136.477 235.602 136.444 235.183H136.596C146.552 240.233 157.391 243.311 168.516 244.247H168.668C168.581 243.135 168.581 242.017 168.668 240.905V240.645C170.29 240.775 171.913 240.851 173.546 240.872V241.262C173.172 242.568 173.047 243.933 173.178 245.285L173.687 245.221C179.144 246.336 184.675 247.059 190.236 247.384H191.047C191.047 248.011 191.047 248.649 191.047 249.299C192.443 249.472 193.838 249.612 195.244 249.71L195.136 251.116C201.178 272.333 202.994 294.531 200.48 316.449L198.641 316.925C199.483 318.085 200.006 319.447 200.155 320.873Z" fill="#D1D0D1"/>
<path d="M236.824 105.49C237.761 105.662 238.708 105.771 239.658 105.814V105.89C238.302 109.457 236.32 112.754 233.807 115.625L233.72 115.549C231.575 113.63 229.542 111.589 227.63 109.438L227.436 109.286C228.429 107.914 229.162 106.37 229.599 104.733L229.469 104.441C230.027 104.2 230.563 103.91 231.07 103.575L231.232 103.813C233.04 104.546 234.912 105.107 236.824 105.49Z" fill="#50AE36"/>
<path d="M215.873 116.815L219.961 124.744V124.917L219.712 125.003C216.771 125.981 213.703 126.524 210.605 126.615V126.485C209.685 123.687 208.962 120.828 208.441 117.929V117.583C210.607 117.576 212.766 117.33 214.877 116.847C215.18 116.782 215.494 116.707 215.797 116.62L215.873 116.815Z" fill="#50AE36"/>
<path d="M136.424 235.292C136.457 235.711 136.522 236.127 136.619 236.536L134.261 237.12C134.151 236.765 134.06 236.404 133.991 236.039C133.563 233.929 133.747 231.741 134.521 229.732L134.813 229.451C135.439 230.142 136.144 230.759 136.911 231.29L136.749 231.517C136.392 232.742 136.282 234.025 136.424 235.292Z" fill="#D1D0D1"/>
<path d="M206.277 38.989C202.408 37.0456 199.063 34.1986 196.527 30.689C193.991 27.1794 192.338 23.1104 191.707 18.8265L192.702 17.7448C194.373 14.6254 197.176 12.2643 200.534 11.1466C202.587 10.4282 204.732 10.0022 206.905 9.88104V9.54572C209.555 7.45622 212.881 6.41306 216.25 6.61437H216.456H216.737C226.818 7.78258 235.937 14.1861 241.421 22.7314C246.905 31.2766 248.993 41.9311 248.322 52.1638C249.359 54.4957 250.647 56.7081 252.162 58.762C255.018 62.7534 258.371 66.3338 260.978 70.5307C263.576 74.5541 265.242 79.107 265.856 83.8569C266.476 88.6182 265.607 93.4547 263.368 97.7024C263.971 95.5062 264.114 93.2093 263.788 90.9554C263.462 88.7014 262.675 86.539 261.475 84.6033C261.529 87.6672 260.915 90.7061 259.674 93.5083C258.434 96.3104 256.597 98.8085 254.293 100.828C253.038 101.917 251.65 102.84 250.161 103.576C246.918 105.215 243.309 105.994 239.679 105.837C238.728 105.793 237.782 105.685 236.845 105.512C234.924 105.113 233.044 104.534 231.231 103.781L231.069 103.543C230.562 103.878 230.026 104.168 229.468 104.409C228.168 104.985 226.784 105.35 225.369 105.49C222.283 105.638 219.195 105.273 216.229 104.409C214.331 104.029 212.505 103.35 210.82 102.397C209.986 101.91 209.266 101.251 208.706 100.464C208.147 99.6769 207.761 98.7798 207.575 97.8322C207.387 99.1936 207.602 100.58 208.194 101.821C208.786 103.061 209.729 104.1 210.907 104.809C208.568 103.661 206.595 101.886 205.206 99.6818C203.818 97.4778 203.069 94.9313 203.043 92.3265C203.094 89.4273 204.059 86.6183 205.801 84.3004C207.168 82.4276 208.993 80.9377 211.101 79.9737C208.688 79.1955 206.473 77.8998 204.611 76.177C202.876 74.438 201.739 72.1913 201.366 69.7627C202.153 71.29 203.435 72.5044 205.003 73.2066C206.571 73.9087 208.331 74.0569 209.994 73.6266C211.658 73.1963 213.125 72.2133 214.156 70.8389C215.186 69.4645 215.719 67.7805 215.666 66.0633C215.89 66.9886 216.302 67.8577 216.878 68.6161C217.413 69.3497 218.172 69.8889 219.041 70.1521C219.754 70.3073 220.492 70.3073 221.204 70.1521C224.067 69.6241 226.701 68.2355 228.754 66.1715C230.795 64.1521 232.259 61.6238 232.995 58.8486C233.551 57.1779 233.532 55.3692 232.941 53.7106C232.52 52.8272 231.881 52.0656 231.084 51.4978C230.287 50.93 229.359 50.5747 228.387 50.4656C226.413 50.2652 224.441 50.8566 222.903 52.1097C222.537 53.3352 221.784 54.4091 220.756 55.1698C219.728 55.9305 218.481 56.337 217.202 56.3282C215.996 56.2134 214.831 55.8304 213.793 55.2072C212.754 54.5839 211.868 53.7363 211.199 52.7263C209.863 50.6716 208.91 48.3922 208.386 45.9982C207.882 43.6355 207.158 41.3251 206.223 39.0971L206.277 38.989ZM194.649 22.0066C195.266 27.8585 197.029 31.5687 205.585 37.572C201.951 32.3475 198.305 27.1771 194.649 22.0066Z" fill="#1D1D1B"/>
<path d="M267.976 231.983C269.117 232.648 270.003 233.676 270.491 234.904C270.98 236.131 271.042 237.487 270.669 238.754L270.139 238.851C269.711 237.043 268.719 235.418 267.305 234.211C264.119 231.307 260.146 229.411 255.884 228.76C251.623 228.11 247.264 228.734 243.357 230.555H241.659C240.137 234.165 237.543 237.219 234.228 239.306C232.688 240.222 231.023 240.908 229.284 241.339C228.155 241.629 227.005 241.831 225.845 241.945C225.185 242.032 224.514 242.075 223.854 242.107H222.913C219.604 242.084 216.3 241.827 213.027 241.339L196.207 239.176L194.141 238.971L191.48 239.414C185.569 240.418 179.584 240.914 173.589 240.896C171.966 240.896 170.344 240.799 168.71 240.669C166.662 240.496 164.622 240.225 162.588 239.857C156.351 238.778 150.384 236.493 145.022 233.129H144.145C141.58 233.405 139.003 232.723 136.909 231.215C136.141 230.684 135.437 230.067 134.811 229.376C134.622 229.185 134.445 228.982 134.281 228.77C132.011 225.735 130.727 222.077 130.603 218.289C130.49 214.528 130.762 210.766 131.414 207.061L134.854 182.648L138.294 158.245L138.683 155.779C137.962 155.324 137.291 154.838 136.671 154.318L139.581 153.237C132.418 140.564 128.473 126.328 128.093 111.776L127.012 111.073C129.684 107.44 133.334 104.642 137.536 103.004C142.22 101.013 147.272 100.094 152.269 99.0664C157.266 98.0388 162.285 96.903 166.774 94.4693L166.828 94.3936C170.059 96.452 173.741 97.6955 177.558 98.0172V98.5147C177.923 101.26 178.651 103.944 179.722 106.498C180.826 109.2 182.28 111.746 184.049 114.069C185.84 116.414 187.943 118.503 190.301 120.278C191.004 120.808 191.718 121.295 192.464 121.76C194.735 123.181 197.178 124.308 199.733 125.113C203.296 126.231 207.022 126.743 210.755 126.628C213.853 126.537 216.922 125.994 219.863 125.016L220.112 124.929C222.883 123.965 225.507 122.622 227.911 120.938C230.12 119.385 232.132 117.569 233.903 115.53C236.417 112.658 238.398 109.361 239.755 105.794V105.719C243.385 105.876 246.994 105.097 250.236 103.458C258.511 109.375 269.501 111.192 276.694 118.385C281.854 123.523 284.363 130.857 285.023 138.115C285.683 145.373 284.634 152.663 283.595 159.878C281.821 172.296 280.04 184.717 278.252 197.142C277.43 202.886 276.575 208.716 274.185 214.005C272.517 217.859 269.832 221.187 266.418 223.632L266.624 223.935C267.913 226.408 268.387 229.225 267.976 231.983Z" fill="#50AE36"/>
<path d="M330.607 238.363C330.444 239.167 330.105 239.925 329.615 240.583C329.125 241.241 328.496 241.783 327.773 242.171L327.524 242.311C325.947 243.052 324.193 243.337 322.462 243.133C320.731 242.982 319.055 242.506 317.27 242.246C314.332 243.069 311.308 243.541 308.26 243.653C306.455 245.489 304.226 246.852 301.77 247.622L301.196 247.914C300.196 245.893 299.008 243.97 297.648 242.171L298.157 241.792C299.546 240.865 300.869 239.843 302.116 238.731L302.484 239.142C305.081 238.711 307.622 237.985 310.055 236.979C314.054 236.797 318.061 236.927 322.04 237.368C324.896 237.671 327.687 237.996 330.607 238.363Z" fill="white"/>
<path d="M327.914 242.419L328.823 242.874C328.544 243.181 328.22 243.444 327.86 243.652C323.144 246.432 316.741 244.886 312.198 247.979C310.77 248.661 309.374 249.256 307.968 249.764C306.374 250.372 304.736 250.86 303.068 251.224L302.711 251.354C302.288 250.198 301.797 249.067 301.24 247.968L301.814 247.676C304.27 246.906 306.499 245.543 308.304 243.707C311.352 243.595 314.376 243.122 317.314 242.3C319.099 242.56 320.775 243.036 322.506 243.187C324.237 243.391 325.991 243.106 327.568 242.365L327.817 242.225L327.914 242.419Z" fill="white"/>
<path d="M325.987 252.003C325.967 252.563 325.79 253.106 325.476 253.571C325.163 254.036 324.725 254.403 324.213 254.631C323.188 255.066 322.081 255.273 320.968 255.237C318.428 255.279 315.891 255.058 313.396 254.577H313.234C310.659 256.211 307.764 257.273 304.743 257.692H304.559C304.17 255.479 303.576 253.306 302.785 251.202L303.142 251.073C304.81 250.709 306.447 250.221 308.042 249.612L308.118 249.818C310.357 249.818 312.607 249.818 315.116 249.818C318.657 250.911 322.299 251.643 325.987 252.003Z" fill="white"/>
<path d="M297.691 242.171C299.051 243.97 300.239 245.894 301.239 247.915C301.795 249.014 302.286 250.144 302.71 251.301C303.5 253.405 304.094 255.577 304.484 257.791V257.985C299.162 262.875 292.585 267.082 285.598 268.802C282.566 269.514 279.464 269.884 276.349 269.906C272.261 269.964 268.184 269.436 264.245 268.337L263.834 268.434C263.147 265.749 263.039 262.948 263.519 260.217C263.998 257.487 265.053 254.89 266.614 252.599H266.712C266.901 251.589 267.369 250.652 268.064 249.895C268.843 249.079 269.727 248.369 270.692 247.785L272.066 246.887C274.689 245.173 277.425 243.637 280.254 242.29C280.569 242.223 280.886 242.173 281.206 242.139L281.141 241.674C283.488 239.175 286.993 238.234 290.141 236.871C293.829 235.197 297.216 232.928 300.168 230.154C306.636 229.338 312.982 227.739 319.065 225.395C319.357 228.575 317.194 231.603 314.424 233.204C311.655 234.805 308.378 235.259 305.219 235.692C303.147 238.011 300.788 240.058 298.199 241.782L297.691 242.171Z" fill="white"/>
<path d="M276.351 270.416C276.447 271.35 276.297 272.293 275.918 273.152C275.539 274.011 274.942 274.757 274.187 275.316C273.676 275.703 273.096 275.989 272.478 276.159C272.197 276.237 271.912 276.299 271.624 276.343C270.713 276.47 269.785 276.358 268.93 276.019C266.981 275.056 265.478 273.378 264.733 271.335C264.321 270.406 263.989 269.443 263.738 268.458L264.149 268.36C268.121 269.461 272.23 269.982 276.351 269.907V270.416Z" fill="black"/>
<path d="M269.165 240.538C270.841 242.187 271.847 244.399 271.988 246.747L272.064 246.866L270.69 247.764C269.725 248.348 268.841 249.057 268.061 249.873L267.845 249.667C266.076 249.494 264.29 249.603 262.556 249.992L262.393 249.732C260.353 250.868 258.589 252.441 257.23 254.34C255.87 256.238 254.948 258.414 254.53 260.711C253.578 266.412 257.915 272.61 262.642 275.931C260.187 277.715 257.147 277.088 254.389 276.331C250.574 275.372 246.87 274.02 243.334 272.296C239.48 270.373 236.04 267.712 233.21 264.465C232.548 259.003 231.249 253.637 229.337 248.478L228.84 248.348C229.219 246.024 229.371 243.67 229.294 241.317C231.033 240.885 232.698 240.2 234.237 239.283C237.553 237.197 240.147 234.142 241.669 230.533H243.367C247.275 228.717 251.632 228.097 255.892 228.751C260.151 229.406 264.122 231.305 267.304 234.21C268.718 235.417 269.71 237.042 270.138 238.851C270.248 239.404 270.248 239.974 270.138 240.527L269.165 240.538Z" fill="#50AE36"/>
<path d="M268.973 275.996C269.828 276.335 270.756 276.447 271.666 276.32C268.679 277.005 265.562 276.87 262.645 275.931C257.918 272.621 253.581 266.412 254.533 260.712C254.951 258.414 255.873 256.238 257.233 254.34C258.592 252.442 260.356 250.868 262.396 249.733L262.559 249.992C264.293 249.604 266.079 249.494 267.848 249.668L268.064 249.873C267.37 250.631 266.901 251.567 266.712 252.578H266.615C265.039 254.87 263.97 257.472 263.482 260.211C262.993 262.949 263.095 265.761 263.781 268.457C264.031 269.442 264.364 270.404 264.776 271.334C265.525 273.369 267.028 275.038 268.973 275.996Z" fill="#50AE36"/>
<path d="M233.717 115.475L233.804 115.55C232.033 117.589 230.021 119.406 227.811 120.959L222.143 114.306L222.035 114.133C222.716 113.736 223.37 113.295 223.993 112.814C225.315 111.806 226.475 110.602 227.433 109.244L227.627 109.396C229.54 111.536 231.573 113.566 233.717 115.475Z" fill="#50AE36"/>
<path d="M202.976 323.418H202.911C209.802 299.833 210.665 274.896 205.42 250.891V249.896H205.94C205.94 249.604 205.94 249.312 205.94 249.02H206.383C211.525 249.852 216.753 250.016 221.938 249.507L222.165 249.583C222.935 247.365 223.201 245.004 222.944 242.671V242.162H223.885C224.544 242.162 225.215 242.087 225.875 242L225.951 242.692C225.887 244.728 225.629 246.752 225.183 248.739L228.601 248.425H228.839L229.336 248.555C231.24 253.701 232.536 259.052 233.198 264.499C234.511 276.337 233.683 288.314 230.753 299.859C226.697 316.755 219.352 332.655 212.062 348.415L211.867 348.513C208.049 341.006 203.841 333.369 199.969 325.798H200.034C200.034 325.43 200.131 325.094 200.174 324.781L202.121 325.019C202.413 324.456 202.705 323.991 202.976 323.418Z" fill="#D1D0D1"/>
<path d="M189.576 108.336C188.295 106.474 187.36 104.396 186.818 102.203C186.455 100.721 186.302 99.1951 186.363 97.6705L186.223 97.1622C187.104 96.9103 187.968 96.5995 188.808 96.2319L189.046 96.2968C189.764 93.428 190.016 90.4624 189.792 87.5136C194.833 86.5942 200.609 84.7986 205.725 84.2686C203.983 86.5864 203.018 89.3954 202.967 92.2946C202.993 94.8995 203.742 97.4459 205.13 99.65C206.519 101.854 208.492 103.629 210.831 104.777C209.654 104.068 208.71 103.029 208.118 101.789C207.526 100.548 207.311 99.1617 207.499 97.8003C207.685 98.7479 208.071 99.645 208.63 100.432C209.19 101.219 209.91 101.878 210.744 102.365C212.429 103.318 214.255 103.997 216.153 104.377C219.119 105.241 222.207 105.606 225.293 105.459C226.708 105.318 228.092 104.953 229.392 104.377L229.522 104.669C229.086 106.306 228.352 107.85 227.359 109.223C226.401 110.581 225.241 111.785 223.919 112.792C223.296 113.274 222.642 113.715 221.961 114.112C220.015 115.238 217.922 116.086 215.742 116.632C215.439 116.719 215.125 116.795 214.822 116.859C212.711 117.342 210.552 117.589 208.386 117.595C205.863 117.59 203.354 117.226 200.933 116.513C199.063 115.966 197.274 115.173 195.612 114.155C195.024 113.798 194.457 113.408 193.913 112.987C192.233 111.674 190.769 110.104 189.576 108.336Z" fill="white"/>
<path d="M225.846 241.922C227.007 241.808 228.157 241.606 229.286 241.316C229.363 243.669 229.211 246.024 228.832 248.347H228.594L225.176 248.661C225.623 246.674 225.88 244.65 225.944 242.614L225.846 241.922Z" fill="#1D1D1B"/>
<path d="M222.147 114.274L227.815 120.926C225.412 122.61 222.787 123.953 220.016 124.917V124.744L215.927 116.816L215.873 116.621C218.053 116.074 220.147 115.226 222.093 114.101L222.147 114.274Z" fill="#50AE36"/>
<path d="M222.928 242.615C223.186 244.948 222.92 247.31 222.149 249.527L221.922 249.451C216.738 249.96 211.51 249.797 206.368 248.965H205.924C205.924 248.142 205.924 247.32 205.924 246.552C202.603 246.433 199.283 246.314 195.962 246.217C195.834 244.019 195.906 241.814 196.178 239.63V239.24L212.998 241.404C216.272 241.892 219.575 242.148 222.885 242.172L222.928 242.615ZM206.281 244.075L206.043 241.782C203.436 241.782 200.786 241.782 198.136 241.674C197.803 242.46 197.727 243.331 197.92 244.162L206.281 244.075Z" fill="#1D1D1B"/>
<path d="M210.661 126.486V126.615C206.928 126.731 203.202 126.219 199.639 125.101L199.714 124.852C200.115 122.202 200.526 119.552 200.926 116.902L201.012 116.534C203.433 117.247 205.942 117.611 208.465 117.616V117.962C208.998 120.851 209.732 123.699 210.661 126.486Z" fill="#50AE36"/>
<path d="M206.04 241.783L206.235 244.065L197.917 244.163C197.724 243.331 197.8 242.46 198.133 241.675C200.827 241.783 203.477 241.837 206.04 241.783Z" fill="white"/>
<path d="M205.9 246.542C205.9 247.31 205.9 248.132 205.9 248.954C205.9 249.246 205.9 249.538 205.9 249.83H205.381C202.016 249.968 198.647 249.91 195.289 249.657C193.883 249.559 192.487 249.419 191.092 249.246C191.092 248.597 191.092 247.959 191.092 247.331C191.092 244.605 191.276 242.063 191.524 239.543V239.402L194.185 238.959L196.262 239.219V239.608C195.99 241.793 195.918 243.998 196.046 246.195C199.258 246.304 202.579 246.423 205.9 246.542Z" fill="white"/>
<path d="M205.423 250.847C210.668 274.852 209.805 299.789 202.913 323.373H202.978C202.708 323.893 202.416 324.455 202.135 324.92L200.188 324.682C200.344 323.403 200.344 322.11 200.188 320.831C200.06 319.399 199.556 318.026 198.727 316.851L200.566 316.375C203.075 294.472 201.259 272.289 195.223 251.085L195.331 249.679C198.689 249.932 202.058 249.99 205.423 249.852V250.847Z" fill="#D1D0D1"/>
<path d="M201.011 116.535L200.925 116.903C200.524 119.553 200.113 122.203 199.713 124.853L199.637 125.102C197.082 124.296 194.64 123.17 192.368 121.749C191.633 121.284 190.919 120.797 190.205 120.267L190.313 120.115L193.742 113.322L193.98 113.009C194.524 113.43 195.091 113.82 195.678 114.177C197.344 115.195 199.137 115.988 201.011 116.535Z" fill="#50AE36"/>
<path d="M193.988 113.062L193.75 113.376L190.321 120.169L190.213 120.321C187.856 118.546 185.752 116.457 183.961 114.112L184.123 113.982L189.532 108.39C190.759 110.175 192.263 111.752 193.988 113.062Z" fill="#50AE36"/>
<path d="M191.472 239.425V239.565C191.223 242.086 191.039 244.628 191.039 247.353H190.228C184.667 247.029 179.136 246.306 173.678 245.19L173.17 245.255C173.038 243.903 173.163 242.537 173.537 241.231V240.842C179.545 240.884 185.545 240.41 191.472 239.425Z" fill="#1D1D1B"/>
<path d="M189.575 108.335L184.167 113.928L184.004 114.057C182.236 111.734 180.782 109.188 179.678 106.486C181.666 104.758 183.915 103.357 186.341 102.332L186.871 102.202C187.397 104.392 188.313 106.47 189.575 108.335Z" fill="#50AE36"/>
<path d="M186.819 102.245L186.289 102.375C183.863 103.399 181.614 104.801 179.626 106.528C178.555 103.975 177.828 101.29 177.463 98.5454V98.0478C180.375 98.3019 183.308 98.0158 186.116 97.2041L186.257 97.7125C186.231 99.2421 186.42 100.768 186.819 102.245Z" fill="#50AE36"/>
<path d="M185.099 71.46V71.5898L174.131 70.9841V70.8759C173.985 70.1258 173.985 69.3545 174.131 68.6044V68.334C177.938 68.7468 181.647 69.8039 185.099 71.46Z" fill="white"/>
<path d="M179.582 21.9541V22.0947C177.042 23.8943 174.917 26.2179 173.352 28.9087C171.786 31.5994 170.816 34.5948 170.507 37.6925L169.804 37.6276C168.303 35.8161 167.237 33.6847 166.689 31.3971C166.435 30.2526 166.464 29.0635 166.773 27.9327C167.082 26.8018 167.662 25.7633 168.463 24.9071C170.366 23.1007 173.222 22.8735 175.829 22.6356C177.101 22.5462 178.36 22.3177 179.582 21.9541Z" fill="#1D1D1B"/>
<path d="M176.662 65.75C179.76 67.1934 182.608 69.1213 185.099 71.4613C181.652 69.7951 177.947 68.7271 174.142 68.3028C173.839 68.3028 173.525 68.2271 173.222 68.2054C173.011 68.1773 172.81 68.095 172.639 67.9666C172.468 67.8382 172.333 67.668 172.247 67.4723C172.162 67.2767 172.128 67.0622 172.149 66.8496C172.17 66.637 172.245 66.4334 172.368 66.2584C172.588 65.9266 172.887 65.6543 173.238 65.4656C173.589 65.2769 173.981 65.1777 174.38 65.1768C175.173 65.2038 175.951 65.3992 176.662 65.75Z" fill="white"/>
<path d="M168.683 240.7V240.96C168.596 242.072 168.596 243.19 168.683 244.302H168.531C157.407 243.366 146.568 240.288 136.611 235.238H136.46C136.313 233.96 136.423 232.665 136.784 231.43L136.946 231.203C139.04 232.711 141.617 233.393 144.183 233.118H145.059C150.408 236.493 156.364 238.793 162.593 239.889C164.605 240.235 166.635 240.506 168.683 240.7Z" fill="#1D1D1B"/>
<path d="M136.671 154.306C137.32 154.825 137.991 155.312 138.683 155.766L138.294 158.233L134.854 182.635H134.648C124.745 194.38 113.721 205.132 101.733 214.739L101.928 214.988C100.068 220.402 96.7295 225.187 92.2898 228.801C87.8662 232.385 82.9617 235.331 77.7196 237.552C75.0262 238.763 72.1706 239.899 69.2285 239.715C68.7852 239.681 68.3445 239.62 67.9088 239.531C65.9011 239.061 64.0237 238.148 62.4139 236.86C60.4907 235.272 58.7232 233.504 57.1353 231.581C55.913 230.186 54.6366 228.693 54.3662 226.865C54.289 226.595 54.2311 226.321 54.1931 226.043C54.0816 225.267 54.1482 224.475 54.3879 223.728C63.6571 207.878 74.6093 193.074 87.0545 179.574L87.4439 179.747C98.1126 156.216 111.007 133.759 125.952 112.683C126.257 112.115 126.597 111.566 126.968 111.039L128.05 111.742C128.43 126.294 132.375 140.53 139.537 153.203L136.671 154.306ZM121.181 161.283C126.092 161.11 130.916 159.888 133.956 157.086C131.726 156.665 129.465 156.426 127.196 156.372C124.914 156.324 122.656 156.836 120.619 157.865C120.073 158.128 119.604 158.526 119.256 159.022C119.086 159.273 118.996 159.569 118.996 159.871C118.996 160.174 119.086 160.47 119.256 160.72C119.512 160.955 119.819 161.128 120.153 161.226C120.487 161.323 120.839 161.343 121.181 161.283Z" fill="#50AE36"/>
<path d="M133.957 157.087C130.971 159.889 126.093 161.111 121.182 161.284C120.839 161.344 120.488 161.324 120.154 161.227C119.82 161.129 119.513 160.957 119.257 160.722C119.087 160.471 118.996 160.175 118.996 159.872C118.996 159.57 119.087 159.274 119.257 159.023C119.605 158.528 120.074 158.129 120.619 157.866C122.656 156.837 124.915 156.325 127.196 156.373C129.465 156.427 131.726 156.666 133.957 157.087Z" fill="#50AE36"/>
<path d="M67.9123 239.521V239.608C65.6382 241.093 63.6337 242.955 61.9847 245.113C61.544 245.051 61.107 244.964 60.6758 244.854C57.7858 243.945 55.3202 242.025 53.7315 239.445C52.0285 236.639 50.7218 233.61 49.8483 230.446C49.8483 230.359 49.8483 230.273 49.7617 230.186C51.1895 228.65 52.6714 227.32 54.0884 225.989H54.1641C54.2021 226.267 54.26 226.542 54.3372 226.811C54.6076 228.639 55.884 230.132 57.1063 231.527C58.6942 233.451 60.4617 235.218 62.3849 236.806C64.0002 238.114 65.8894 239.042 67.9123 239.521Z" fill="#50AE36"/>
<path d="M26.8931 240.354L26.839 239.986L49.3162 230.662L49.8246 230.5C50.6981 233.664 52.0049 236.693 53.7078 239.5C55.2966 242.079 57.7621 243.999 60.6522 244.908L60.5116 245.351C55.3195 250.435 53.524 258.418 47.7154 262.842C44.7083 265.146 40.8143 266.293 38.3048 269.127C35.3249 270.988 32.982 273.712 31.5876 276.936C31.0987 276.907 30.6302 276.73 30.244 276.428C29.8578 276.127 29.572 275.716 29.4242 275.249C29.1846 273.758 29.2468 272.235 29.6073 270.769C29.9678 269.303 30.6191 267.924 31.5227 266.715C33.2778 264.327 35.344 262.184 37.6666 260.343C29.3377 264.162 21.3765 267.915 13.4154 271.55C12.3728 272.093 11.2468 272.459 10.0838 272.631C9.49572 272.729 8.89259 272.682 8.32699 272.493C7.76139 272.305 7.25048 271.981 6.83878 271.55C12.022 266.134 18.0225 261.564 24.6215 258.007L8.96968 261.955C7.48835 262.412 5.94406 262.631 4.39419 262.604C3.61702 262.579 2.85698 262.369 2.17635 261.993C1.49573 261.617 0.913888 261.085 0.478516 260.441C2.64187 259.193 4.87734 258.047 7.18491 257.001C5.54077 257.207 1.50611 256.936 1.06262 255.8C7.95442 251.811 15.2966 248.655 22.9341 246.401C20.8693 246.234 18.7918 246.317 16.7469 246.649C15.0177 248.643 12.5825 249.888 9.95401 250.122C9.33643 250.236 8.69988 250.191 8.10434 249.992C7.81148 249.887 7.55785 249.695 7.37788 249.442C7.19791 249.188 7.10033 248.886 7.09838 248.575C9.92156 245.946 12.6798 243.242 16.1628 241.923C19.6458 240.603 23.237 240.852 26.8931 240.354Z" fill="white"/>
<path d="M175.3 11.5371C174.165 13.7005 172.001 14.8579 169.773 15.9936C168.423 16.6099 167.124 17.3334 165.89 18.157C164.182 19.514 162.803 21.2394 161.855 23.2041C160.907 25.1689 160.415 27.3224 160.417 29.5038C160.347 33.8926 161.752 38.1777 164.408 41.6726C163.317 39.1818 162.921 36.4419 163.261 33.7439C164.372 36.7336 165.725 39.6277 167.307 42.3974C167.75 43.187 168.215 43.955 168.691 44.723" stroke="#1D1D1B" stroke-linecap="round" stroke-linejoin="round"/>
<path d="M167.19 42.5059C167.817 47.1895 165.773 51.8624 163.014 55.6915C160.256 59.5206 156.762 62.7657 153.853 66.5083C151.257 69.8398 149.082 73.7771 149.126 78.0065C149.205 80.4019 149.992 82.7201 151.388 84.6684C152.783 86.6167 154.725 88.1077 156.968 88.9531C155.346 86.5827 154.425 83.8035 154.31 80.9338C154.196 78.0641 154.892 75.2202 156.319 72.7279C155.99 76.7553 156.693 80.8 158.36 84.4808C160.027 88.1616 162.604 91.3573 165.848 93.7665C166.162 93.9937 166.487 94.2208 166.822 94.4263C169.676 96.2355 172.881 97.4188 176.226 97.898C179.571 98.3772 182.98 98.1414 186.227 97.2063C187.109 96.9544 187.972 96.6436 188.812 96.276" stroke="#1D1D1B" stroke-linecap="round" stroke-linejoin="round"/>
<path d="M188.486 98.2547C188.703 97.6057 188.887 96.9567 189.049 96.2969C189.767 93.4281 190.019 90.4625 189.795 87.5137" stroke="#1D1D1B" stroke-linecap="round" stroke-linejoin="round"/>
<path d="M205.725 84.2244C200.652 84.7977 194.833 86.5933 189.792 87.4695C184.752 88.3456 179.246 88.7242 174.649 86.4419C173.807 85.9224 173.084 85.2325 172.525 84.4165C171.966 83.6006 171.584 82.6766 171.404 81.7041C171.079 79.8486 170.884 77.9728 170.82 76.0902C170.419 71.3741 169.002 66.8095 168.44 62.115C168.236 60.3195 168.2 58.5088 168.332 56.7066C168.479 53.3686 169.55 50.1371 171.425 47.3717L171.036 44.9163V44.7216C170.647 43.1429 170.451 41.5231 170.452 39.8973C170.452 39.1527 170.495 38.4087 170.582 37.6691C170.891 34.5714 171.861 31.576 173.426 28.8852C174.992 26.1944 177.117 23.8708 179.657 22.0713" stroke="#1D1D1B" stroke-linecap="round" stroke-linejoin="round"/>
<path d="M178.348 18.167C179.797 18.8762 181.342 19.3717 182.934 19.6381C185.878 20.1456 188.905 19.8657 191.706 18.8268" stroke="#1D1D1B" stroke-linecap="round" stroke-linejoin="round"/>
<path d="M182.946 19.7686C182.085 20.8309 180.906 21.5892 179.582 21.9319C178.373 22.2851 177.129 22.5063 175.872 22.5917C173.265 22.8297 170.409 23.0569 168.506 24.8633C167.705 25.7195 167.125 26.758 166.816 27.8888C166.507 29.0197 166.478 30.2088 166.732 31.3533C167.28 33.6409 168.346 35.7723 169.847 37.5838" stroke="#1D1D1B" stroke-linecap="round" stroke-linejoin="round"/>
<path d="M192.703 17.7014C194.374 14.5819 197.177 12.2209 200.534 11.1031C202.588 10.3848 204.733 9.95875 206.906 9.83759C208.225 9.75105 209.556 9.74024 210.875 9.77269" stroke="#1D1D1B" stroke-linecap="round" stroke-linejoin="round"/>
<path d="M206.883 9.50275C209.533 7.41326 212.859 6.3701 216.229 6.5714" stroke="#1D1D1B" stroke-linecap="round" stroke-linejoin="round"/>
<path d="M169.74 15.452C172.381 10.0301 176.857 5.71893 182.374 3.2831C187.636 0.790395 193.63 0.320674 199.216 1.96346" stroke="#1D1D1B" stroke-linecap="round" stroke-linejoin="round"/>
<path d="M195.223 2.91502C196.519 2.56111 197.844 2.31865 199.182 2.19029C205.326 1.74552 211.454 3.26033 216.683 6.517" stroke="#1D1D1B" stroke-linecap="round" stroke-linejoin="round"/>
<path d="M191.707 18.8262C192.338 23.1101 193.991 27.1791 196.527 30.6887C199.063 34.1983 202.408 37.0453 206.277 38.9886H206.331" stroke="#1D1D1B" stroke-linecap="round" stroke-linejoin="round"/>
<path d="M205.584 37.5722C197.028 31.5689 195.265 27.8371 194.648 22.0068C198.305 27.1773 201.95 32.3477 205.584 37.5722Z" stroke="#1D1D1B" stroke-linecap="round" stroke-linejoin="round"/>
<path d="M206.212 39.1191C207.147 41.3471 207.871 43.6575 208.376 46.0202C208.89 48.388 209.825 50.6446 211.134 52.6834C211.803 53.6934 212.689 54.541 213.728 55.1643C214.766 55.7875 215.931 56.1706 217.137 56.2854C218.416 56.2942 219.663 55.8876 220.691 55.1269C221.719 54.3662 222.472 53.2923 222.838 52.0668C224.376 50.8137 226.348 50.2223 228.322 50.4227C229.294 50.5318 230.223 50.8871 231.019 51.4549C231.816 52.0227 232.455 52.7843 232.876 53.6677C233.467 55.3263 233.486 57.135 232.93 58.8057C232.22 61.5895 230.778 64.1328 228.754 66.1719C226.683 68.2041 224.042 69.5584 221.183 70.0551C220.47 70.2103 219.732 70.2103 219.019 70.0551C218.15 69.7919 217.391 69.2527 216.856 68.5191C216.281 67.7607 215.868 66.8916 215.645 65.9664C215.697 67.6835 215.165 69.3675 214.134 70.7419C213.103 72.1163 211.636 73.0993 209.973 73.5296C208.31 73.9599 206.55 73.8118 204.982 73.1096C203.414 72.4075 202.131 71.193 201.345 69.6657C201.237 69.4385 201.139 69.2114 201.053 68.9734" stroke="#1D1D1B" stroke-linecap="round" stroke-linejoin="round"/>
<path d="M201.357 69.6758C201.73 72.1044 202.867 74.3511 204.602 76.0901C206.464 77.8129 208.679 79.1086 211.093 79.8868C208.984 80.8508 207.159 82.3407 205.792 84.2135C204.05 86.5314 203.085 89.3404 203.034 92.2396C203.06 94.8444 203.809 97.3909 205.197 99.5949C206.586 101.799 208.559 103.574 210.898 104.722C209.721 104.013 208.777 102.974 208.185 101.734C207.593 100.493 207.378 99.1067 207.566 97.7453C207.752 98.6929 208.138 99.59 208.697 100.377C209.257 101.164 209.977 101.823 210.811 102.31C212.496 103.263 214.322 103.942 216.22 104.322C219.186 105.186 222.274 105.551 225.36 105.404C226.775 105.263 228.159 104.898 229.459 104.322C230.017 104.081 230.553 103.791 231.06 103.457C231.952 102.879 232.732 102.147 233.364 101.293" stroke="#1D1D1B" stroke-linecap="round" stroke-linejoin="round"/>
<path d="M231.213 103.738C233.026 104.491 234.905 105.07 236.827 105.469C237.763 105.642 238.71 105.75 239.661 105.794C243.291 105.951 246.9 105.172 250.142 103.533C251.631 102.797 253.02 101.874 254.274 100.785C256.579 98.7654 258.415 96.2674 259.656 93.4652C260.896 90.6631 261.511 87.6242 261.457 84.5602C261.457 84.4304 261.457 84.3114 261.457 84.1816" stroke="#1D1D1B" stroke-linecap="round" stroke-linejoin="round"/>
<path d="M246.547 45.3496C246.723 47.7023 247.312 50.0055 248.288 52.1534C249.326 54.4853 250.613 56.6977 252.128 58.7516C254.984 62.743 258.337 66.3233 260.944 70.5202C263.555 74.544 265.233 79.101 265.855 83.8573C266.475 88.6186 265.606 93.4551 263.367 97.7028C263.97 95.5066 264.113 93.2097 263.787 90.9558C263.461 88.7018 262.674 86.5393 261.474 84.6037" stroke="#1D1D1B" stroke-linecap="round" stroke-linejoin="round"/>
<path d="M216.438 6.56055H216.719C226.8 7.72876 235.919 14.1323 241.403 22.6775C246.887 31.2228 248.974 41.8773 248.304 52.11" stroke="#1D1D1B" stroke-linecap="round" stroke-linejoin="round"/>
<path d="M229.578 104.659C229.141 106.296 228.408 107.84 227.415 109.213C226.457 110.571 225.297 111.774 223.975 112.782C223.351 113.264 222.697 113.705 222.017 114.102C220.071 115.227 217.978 116.076 215.797 116.622C215.494 116.709 215.181 116.784 214.878 116.849C212.766 117.332 210.608 117.578 208.442 117.585C205.919 117.58 203.409 117.216 200.989 116.503C199.119 115.956 197.329 115.163 195.667 114.145C195.08 113.788 194.513 113.398 193.969 112.977C192.26 111.663 190.77 110.086 189.556 108.304C188.275 106.442 187.34 104.365 186.798 102.171C186.435 100.689 186.282 99.1632 186.343 97.6387" stroke="#1D1D1B" stroke-linecap="round" stroke-linejoin="round"/>
<path d="M166.765 94.457C162.276 96.8584 157.246 98.0266 152.259 99.0542C147.273 100.082 142.211 101.001 137.527 102.991C133.325 104.63 129.675 107.428 127.002 111.061C126.631 111.588 126.291 112.137 125.986 112.705C111.041 133.781 98.1465 156.238 87.4778 179.769C86.7567 181.399 86.0356 183.043 85.3145 184.701" stroke="#1D1D1B" stroke-linecap="round" stroke-linejoin="round"/>
<path d="M87.0545 179.576C74.61 193.073 63.6577 207.873 54.3879 223.719C54.1482 224.466 54.0816 225.258 54.1931 226.034C54.2311 226.312 54.289 226.587 54.3662 226.856C54.6366 228.684 55.913 230.177 57.1353 231.572C58.7232 233.496 60.4907 235.263 62.4139 236.851C64.0237 238.14 65.9011 239.052 67.9088 239.523C68.3445 239.611 68.7852 239.672 69.2285 239.707C72.1706 239.912 75.0262 238.776 77.7196 237.543C82.9611 235.325 87.8656 232.383 92.2898 228.803C96.7295 225.19 100.068 220.404 101.928 214.99" stroke="#1D1D1B" stroke-linecap="round" stroke-linejoin="round"/>
<path d="M96.6699 218.699C98.379 217.401 100.066 216.085 101.732 214.751C113.723 205.13 124.747 194.364 134.648 182.604" stroke="#1D1D1B" stroke-linecap="round" stroke-linejoin="round"/>
<path d="M132.81 163.338C117.478 178.588 99.8035 191.286 80.457 200.948" stroke="#1D1D1B" stroke-linecap="round" stroke-linejoin="round"/>
<path d="M72.3672 208.91C80.1769 211.171 88.5923 210.165 96.3263 207.547C104.06 204.93 111.091 200.787 118.1 196.73" stroke="#1D1D1B" stroke-linecap="round" stroke-linejoin="round"/>
<path d="M54.1197 226.044C52.6486 227.374 51.1667 228.705 49.793 230.241C49.793 230.327 49.793 230.414 49.8795 230.5C50.753 233.665 52.0598 236.693 53.7627 239.5C55.3514 242.08 57.817 244 60.7071 244.908C61.1383 245.019 61.5752 245.105 62.0159 245.168C63.6649 243.01 65.6695 241.148 67.9435 239.662" stroke="#1D1D1B" stroke-linecap="round" stroke-linejoin="round"/>
<path d="M128.094 111.765C128.474 126.316 132.418 140.553 139.581 153.225" stroke="#1D1D1B" stroke-linecap="round" stroke-linejoin="round"/>
<path d="M127.152 140.029C128.771 145.659 132.097 150.648 136.671 154.307C137.32 154.827 137.991 155.313 138.683 155.768" stroke="#1D1D1B" stroke-linecap="round" stroke-linejoin="round"/>
<path d="M133.957 157.087C131.726 156.666 129.465 156.427 127.196 156.373C124.915 156.325 122.656 156.837 120.619 157.866C120.074 158.129 119.605 158.528 119.257 159.023C119.087 159.274 118.996 159.57 118.996 159.872C118.996 160.175 119.087 160.471 119.257 160.722C119.513 160.957 119.82 161.129 120.154 161.227C120.488 161.324 120.839 161.344 121.182 161.284C126.093 161.111 130.971 159.889 133.957 157.087Z" stroke="#1D1D1B" stroke-linecap="round" stroke-linejoin="round"/>
<path d="M138.297 158.234L134.857 182.637L131.407 207.05C130.754 210.756 130.482 214.518 130.595 218.278C130.72 222.066 132.003 225.725 134.273 228.76C134.438 228.972 134.615 229.174 134.803 229.365C135.43 230.057 136.134 230.674 136.901 231.204C138.995 232.712 141.572 233.394 144.138 233.119" stroke="#1D1D1B" stroke-linecap="round" stroke-linejoin="round"/>
<path d="M135.59 224.474C138.204 227.887 141.396 230.816 145.022 233.127C150.371 236.502 156.327 238.802 162.556 239.898C164.59 240.266 166.63 240.537 168.678 240.71C170.301 240.839 171.923 240.915 173.557 240.937C179.559 240.96 185.551 240.467 191.469 239.466L194.13 239.022" stroke="#1D1D1B" stroke-linecap="round" stroke-linejoin="round"/>
<path d="M181.842 237.455L194.14 238.97L196.217 239.229L213.037 241.393C216.311 241.881 219.614 242.137 222.924 242.161H223.865C224.525 242.161 225.195 242.085 225.855 241.998C227.016 241.884 228.165 241.682 229.295 241.393C231.034 240.961 232.699 240.276 234.238 239.359C237.553 237.272 240.148 234.218 241.669 230.608C243.167 226.635 243.901 222.415 243.833 218.169" stroke="#1D1D1B" stroke-linecap="round" stroke-linejoin="round"/>
<path d="M147.219 185.146C156.576 202.345 170.264 216.801 186.927 227.082" stroke="#1D1D1B" stroke-linecap="round" stroke-linejoin="round"/>
<path d="M142.902 209.419C152.01 218.85 163.338 225.846 175.85 229.765" stroke="#1D1D1B" stroke-linecap="round" stroke-linejoin="round"/>
<path d="M277.226 129.547C271.057 139.4 266.78 150.317 264.613 161.738" stroke="#1D1D1B" stroke-linecap="round" stroke-linejoin="round"/>
<path d="M261.451 169.105C268.848 162.975 274.003 154.563 276.108 145.189" stroke="#1D1D1B" stroke-linecap="round" stroke-linejoin="round"/>
<path d="M261.452 166.778C259.559 176.362 257.677 185.978 254.627 195.27C251.577 204.561 247.347 213.55 241.16 221.122" stroke="#1D1D1B" stroke-linecap="round" stroke-linejoin="round"/>
<path d="M277.269 167.741C274.549 178.048 270.255 187.874 264.537 196.871C258.826 205.852 252.57 214.475 245.803 222.69" stroke="#1D1D1B" stroke-linecap="round" stroke-linejoin="round"/>
<path d="M247.361 225.092C254.598 224.216 259.898 216.828 267.178 216.438" stroke="#1D1D1B" stroke-linecap="round" stroke-linejoin="round"/>
<path d="M243.357 230.555C247.265 228.734 251.623 228.109 255.885 228.76C260.146 229.411 264.12 231.307 267.306 234.211C268.719 235.418 269.712 237.043 270.14 238.851C270.249 239.405 270.249 239.974 270.14 240.528" stroke="#1D1D1B" stroke-linecap="round" stroke-linejoin="round"/>
<path d="M239.084 240.602C241.395 237.869 244.605 236.051 248.138 235.475C251.645 234.926 255.224 235.029 258.695 235.778C261.776 236.238 264.725 237.343 267.348 239.023C267.988 239.471 268.582 239.982 269.122 240.548C270.799 242.197 271.805 244.409 271.945 246.757" stroke="#1D1D1B" stroke-linecap="round" stroke-linejoin="round"/>
<path d="M250.15 103.554C258.425 109.47 269.415 111.288 276.608 118.481C281.768 123.619 284.277 130.953 284.937 138.211C285.597 145.469 284.548 152.759 283.509 159.974C281.735 172.392 279.954 184.813 278.166 197.238C277.344 202.981 276.489 208.812 274.099 214.101C272.431 217.955 269.746 221.283 266.332 223.728C265.008 224.663 263.549 225.393 262.006 225.891" stroke="#1D1D1B" stroke-linecap="round" stroke-linejoin="round"/>
<path d="M266.541 224.031C267.84 226.466 268.343 229.246 267.98 231.982C269.121 232.646 270.007 233.675 270.495 234.902C270.983 236.13 271.046 237.486 270.673 238.753" stroke="#1D1D1B" stroke-linecap="round" stroke-linejoin="round"/>
<path d="M265.534 248.434C264.462 248.748 263.428 249.179 262.451 249.721C260.411 250.856 258.647 252.43 257.287 254.328C255.928 256.226 255.006 258.402 254.587 260.7C253.635 266.4 257.973 272.598 262.7 275.919" stroke="#1D1D1B" stroke-linecap="round" stroke-linejoin="round"/>
<path d="M267.61 258.733C267.162 257.47 266.839 256.166 266.648 254.839C266.566 254.086 266.588 253.325 266.712 252.578C266.901 251.568 267.37 250.631 268.065 249.874C268.844 249.058 269.728 248.349 270.693 247.765L272.067 246.867C274.69 245.153 277.426 243.617 280.255 242.27C280.569 242.203 280.887 242.152 281.207 242.119C284.82 241.762 288.681 243.546 292.305 242.238C292.46 243.615 292.17 245.007 291.477 246.208C290.784 247.409 289.725 248.356 288.454 248.911C287.174 249.437 285.801 249.696 284.417 249.674C283.034 249.652 281.669 249.348 280.407 248.782" stroke="#1D1D1B" stroke-linecap="round" stroke-linejoin="round"/>
<path d="M281.086 249.603C280.524 250.413 279.763 251.067 278.877 251.5C277.991 251.934 277.009 252.133 276.023 252.08" stroke="#1D1D1B" stroke-linecap="round" stroke-linejoin="round"/>
<path d="M286.343 251.28C286.83 254.525 284.969 257.77 282.33 259.739C279.582 261.558 276.428 262.673 273.146 262.984" stroke="#1D1D1B" stroke-linecap="round" stroke-linejoin="round"/>
<path d="M295.637 239.683C296.363 240.477 297.049 241.307 297.692 242.17C299.052 243.97 300.24 245.893 301.24 247.914C301.796 249.013 302.287 250.143 302.711 251.3C303.501 253.404 304.095 255.576 304.485 257.79V257.985" stroke="#1D1D1B" stroke-linecap="round" stroke-linejoin="round"/>
<path d="M264.191 268.336C268.148 269.44 272.242 269.969 276.349 269.905C279.495 269.872 282.626 269.484 285.684 268.747C292.715 267.071 299.249 262.863 304.57 257.931" stroke="#1D1D1B" stroke-linecap="round" stroke-linejoin="round"/>
<path d="M266.615 252.599C265.039 254.891 263.97 257.493 263.481 260.232C262.993 262.97 263.095 265.782 263.781 268.478C264.031 269.463 264.364 270.425 264.776 271.355C265.52 273.398 267.023 275.076 268.973 276.039C269.828 276.378 270.756 276.49 271.666 276.363C271.956 276.329 272.242 276.267 272.521 276.179C273.125 275.997 273.69 275.704 274.187 275.314C274.922 274.747 275.5 274.001 275.864 273.147C276.228 272.292 276.365 271.359 276.263 270.435" stroke="#1D1D1B" stroke-linecap="round" stroke-linejoin="round"/>
<path d="M262.557 249.992C264.291 249.604 266.077 249.494 267.846 249.668" stroke="#1D1D1B" stroke-linecap="round" stroke-linejoin="round"/>
<path d="M233.213 264.497C236.043 267.744 239.483 270.405 243.337 272.328C246.873 274.052 250.577 275.405 254.392 276.363C257.15 277.12 260.19 277.748 262.645 275.963C265.563 276.902 268.679 277.037 271.667 276.352C271.955 276.308 272.24 276.246 272.521 276.168" stroke="#1D1D1B" stroke-linecap="round" stroke-linejoin="round"/>
<path d="M281.143 241.651C283.49 239.153 286.994 238.212 290.142 236.849C293.83 235.174 297.218 232.905 300.169 230.131C306.638 229.315 312.983 227.717 319.066 225.372C319.358 228.552 317.195 231.581 314.426 233.182C311.657 234.783 308.379 235.237 305.221 235.67C303.149 237.996 300.79 240.05 298.201 241.781" stroke="#1D1D1B" stroke-linecap="round" stroke-linejoin="round"/>
<path d="M302.527 239.142C305.125 238.711 307.665 237.985 310.099 236.979C314.098 236.797 318.105 236.927 322.084 237.368C324.874 237.682 327.665 238.006 330.586 238.374C330.422 239.178 330.083 239.936 329.593 240.594C329.104 241.252 328.475 241.794 327.752 242.182L327.503 242.322C325.925 243.063 324.172 243.348 322.44 243.144C320.71 242.993 319.033 242.517 317.248 242.257C314.311 243.079 311.286 243.551 308.238 243.663C306.434 245.5 304.205 246.863 301.748 247.633" stroke="#1D1D1B" stroke-linecap="round" stroke-linejoin="round"/>
<path d="M303.066 251.171C304.734 250.807 306.372 250.319 307.966 249.711C309.373 249.202 310.768 248.629 312.196 247.926C316.739 244.887 323.142 246.433 327.858 243.599C328.218 243.391 328.542 243.128 328.821 242.821L327.913 242.366" stroke="#1D1D1B" stroke-linecap="round" stroke-linejoin="round"/>
<path d="M308.041 249.917C310.28 249.917 312.53 249.917 315.039 249.917C318.608 250.985 322.276 251.688 325.986 252.015C325.966 252.576 325.789 253.119 325.475 253.584C325.162 254.048 324.724 254.416 324.212 254.644C323.187 255.079 322.08 255.285 320.967 255.25C318.427 255.292 315.89 255.071 313.395 254.59" stroke="#1D1D1B" stroke-linecap="round" stroke-linejoin="round"/>
<path d="M313.128 254.633C310.553 256.267 307.657 257.329 304.637 257.748" stroke="#1D1D1B" stroke-linecap="round" stroke-linejoin="round"/>
<path d="M49.3151 230.662L26.8379 239.986" stroke="#1D1D1B" stroke-linecap="round" stroke-linejoin="round"/>
<path d="M28.5243 240.084C27.9835 240.192 27.4426 240.29 26.891 240.354C23.2782 240.852 19.5464 240.701 16.1608 241.988C12.7751 243.275 9.91948 246.012 7.09631 248.64C7.09825 248.951 7.19583 249.254 7.3758 249.507C7.55577 249.761 7.80941 249.953 8.10226 250.057C8.6978 250.257 9.33436 250.301 9.95193 250.187C12.5804 249.953 15.0156 248.708 16.7449 246.715C18.7897 246.382 20.8672 246.299 22.9321 246.466C15.2954 248.714 7.95335 251.862 1.06055 255.844C1.50403 256.926 5.53869 257.25 7.18284 257.045L7.55061 256.98" stroke="#1D1D1B" stroke-linecap="round" stroke-linejoin="round"/>
<path d="M22.3714 251.519C17.1809 252.944 12.1161 254.793 7.22788 257.046C4.9203 258.106 2.68484 259.26 0.521484 260.507C0.956856 261.152 1.5387 261.684 2.21932 262.06C2.89995 262.436 3.65998 262.645 4.43715 262.671C5.98702 262.697 7.53132 262.478 9.01265 262.022L24.6212 258.009L24.9566 257.922" stroke="#1D1D1B" stroke-linecap="round" stroke-linejoin="round"/>
<path d="M27.567 256.579C26.5935 257.044 25.6308 257.541 24.679 258.05C18.0967 261.604 12.1111 266.166 6.93945 271.571C7.35116 272.002 7.86207 272.326 8.42767 272.514C8.99327 272.703 9.59639 272.75 10.1845 272.652C11.3475 272.48 12.4735 272.114 13.516 271.571C21.4772 267.882 29.4383 264.183 37.7672 260.364C35.4447 262.205 33.3784 264.348 31.6233 266.736C30.7198 267.945 30.0685 269.324 29.708 270.79C29.3475 272.256 29.2852 273.779 29.5249 275.27C29.6727 275.737 29.9585 276.148 30.3447 276.449C30.7309 276.751 31.1993 276.928 31.6882 276.957C33.0827 273.733 35.4256 271.009 38.4054 269.148C40.9149 266.314 44.809 265.167 47.816 262.863C53.5922 258.439 55.3878 250.424 60.6123 245.318" stroke="#1D1D1B" stroke-linecap="round" stroke-linejoin="round"/>
<path d="M30.9395 256.038C31.5714 254.972 32.4322 254.059 33.4598 253.366" stroke="#1D1D1B" stroke-linecap="round" stroke-linejoin="round"/>
<path d="M28.5242 247.58C27.5821 248.45 26.8212 249.498 26.2852 250.663" stroke="#1D1D1B" stroke-linecap="round" stroke-linejoin="round"/>
<path d="M25.2383 245.61L26.6012 244.236" stroke="#1D1D1B" stroke-linecap="round" stroke-linejoin="round"/>
<path d="M191.493 239.619C191.244 242.139 191.061 244.681 191.061 247.407C191.061 248.035 191.061 248.673 191.061 249.322C192.456 249.495 193.851 249.635 195.257 249.733C198.615 249.986 201.985 250.044 205.35 249.906H205.869C205.869 249.614 205.869 249.322 205.869 249.03C205.869 248.208 205.869 247.386 205.869 246.618C202.548 246.499 199.227 246.38 195.906 246.282C195.778 244.084 195.851 241.88 196.123 239.695" stroke="#1D1D1B" stroke-linecap="round" stroke-linejoin="round"/>
<path d="M206.04 241.783L206.235 244.065L197.917 244.163C197.724 243.331 197.8 242.46 198.133 241.675C200.827 241.783 203.477 241.837 206.04 241.783Z" stroke="#1D1D1B" stroke-linecap="round" stroke-linejoin="round"/>
<path d="M173.59 241.284C173.216 242.59 173.091 243.956 173.222 245.308C173.243 245.591 173.279 245.873 173.331 246.152L173.244 245.87" stroke="#1D1D1B" stroke-linecap="round" stroke-linejoin="round"/>
<path d="M168.657 240.927C168.57 242.039 168.57 243.157 168.657 244.269C168.657 244.713 168.657 245.145 168.765 245.578" stroke="#1D1D1B" stroke-linecap="round" stroke-linejoin="round"/>
<path d="M136.749 231.432C136.388 232.666 136.277 233.961 136.424 235.239C136.457 235.658 136.522 236.074 136.619 236.483C136.673 236.732 136.749 236.981 136.825 237.219" stroke="#1D1D1B" stroke-linecap="round" stroke-linejoin="round"/>
<path d="M134.521 229.646C133.747 231.655 133.563 233.843 133.991 235.953C134.06 236.318 134.151 236.679 134.261 237.034" stroke="#1D1D1B" stroke-linecap="round" stroke-linejoin="round"/>
<path d="M136.576 235.215C146.533 240.265 157.372 243.343 168.496 244.279" stroke="#1D1D1B" stroke-linecap="round" stroke-linejoin="round"/>
<path d="M173.699 245.243C179.157 246.359 184.688 247.082 190.249 247.407" stroke="#1D1D1B" stroke-linecap="round" stroke-linejoin="round"/>
<path d="M206.363 248.964C211.505 249.796 216.734 249.96 221.918 249.451" stroke="#1D1D1B" stroke-linecap="round" stroke-linejoin="round"/>
<path d="M222.926 242.614C223.183 244.947 222.917 247.309 222.147 249.526C222.048 249.842 221.932 250.153 221.801 250.456" stroke="#1D1D1B" stroke-linecap="round" stroke-linejoin="round"/>
<path d="M225.921 242.614C225.857 244.65 225.6 246.674 225.153 248.661C224.997 249.27 224.806 249.869 224.58 250.456" stroke="#1D1D1B" stroke-linecap="round" stroke-linejoin="round"/>
<path d="M225.176 248.662L228.594 248.349" stroke="#1D1D1B" stroke-linecap="round" stroke-linejoin="round"/>
<path d="M229.286 241.316C229.363 243.669 229.211 246.024 228.832 248.347" stroke="#1D1D1B" stroke-linecap="round" stroke-linejoin="round"/>
<path d="M133.643 236.017C122.458 250.779 114.699 267.846 110.928 285.979C107.12 307.851 117.959 331.972 130.528 351.129" stroke="#1D1D1B" stroke-linecap="round" stroke-linejoin="round"/>
<path d="M197.721 315.867C198.086 316.169 198.413 316.514 198.694 316.895C199.523 318.07 200.027 319.443 200.154 320.875C200.311 322.154 200.311 323.447 200.154 324.726C200.154 325.04 200.068 325.375 200.014 325.743" stroke="#1D1D1B" stroke-linecap="round" stroke-linejoin="round"/>
<path d="M197.939 321.74C198.61 323.082 199.281 324.423 199.984 325.775C203.845 333.347 208.053 340.972 211.882 348.49L213.224 351.14" stroke="#1D1D1B" stroke-linecap="round" stroke-linejoin="round"/>
<path d="M152.92 254.103C170.856 270.46 185.856 289.769 197.269 311.193" stroke="#1D1D1B" stroke-linecap="round" stroke-linejoin="round"/>
<path d="M141.732 280.333C152.549 283.026 163.539 285.839 172.733 292.091C181.224 297.856 187.585 306.153 193.783 314.341" stroke="#1D1D1B" stroke-linecap="round" stroke-linejoin="round"/>
<path d="M158.135 304.833C168.895 306.003 179.437 308.683 189.449 312.794" stroke="#1D1D1B" stroke-linecap="round" stroke-linejoin="round"/>
<path d="M205.425 250.847C210.67 274.851 209.807 299.788 202.916 323.373" stroke="#1D1D1B" stroke-linecap="round" stroke-linejoin="round"/>
<path d="M195.223 251.085C201.265 272.303 203.08 294.501 200.566 316.418" stroke="#1D1D1B" stroke-linecap="round" stroke-linejoin="round"/>
<path d="M202.135 324.963C202.416 324.454 202.708 323.935 202.978 323.416C212.048 306.846 219.395 289.391 224.904 271.322" stroke="#1D1D1B" stroke-linecap="round" stroke-linejoin="round"/>
<path d="M204.047 327.332C209.588 323.71 214.622 319.367 219.017 314.417" stroke="#1D1D1B" stroke-linecap="round" stroke-linejoin="round"/>
<path d="M205.314 329.257C207.763 329.03 210.212 329.69 212.216 331.117V331.031" stroke="#1D1D1B" stroke-linecap="round" stroke-linejoin="round"/>
<path d="M212.064 348.382C219.355 332.622 226.7 316.721 230.756 299.825C233.682 288.291 234.51 276.325 233.2 264.498C232.539 259.036 231.239 253.67 229.328 248.511" stroke="#1D1D1B" stroke-linecap="round" stroke-linejoin="round"/>
<path d="M171.059 35.6469C171.81 35.6278 172.552 35.8091 173.21 36.1722C173.868 36.5353 174.417 37.0671 174.801 37.7129" stroke="#1D1D1B" stroke-width="0.5" stroke-linecap="round" stroke-linejoin="round"/>
<path d="M185.541 38.0815C186.529 37.109 187.705 36.3498 188.999 35.8511C190.292 35.3524 191.674 35.1249 193.059 35.1826C195.82 35.3172 198.5 36.1549 200.847 37.6164" stroke="#1D1D1B" stroke-width="0.5" stroke-linecap="round" stroke-linejoin="round"/>
<path d="M186.57 46.43C186.693 45.6773 187.033 44.9767 187.548 44.4139C188.063 43.851 188.73 43.4503 189.469 43.2607C190.737 43.0567 192.036 43.222 193.212 43.7367C195.261 44.4657 197.204 45.4662 198.988 46.7113" stroke="#1D1D1B" stroke-linecap="round" stroke-linejoin="round"/>
<path d="M188.667 44.917C188.288 45.8575 188.288 46.9079 188.667 47.8483C188.667 47.9565 188.775 48.0647 188.883 48.0863C188.991 48.1079 189.153 47.8267 189.132 47.6212C189.242 47.1625 189.258 46.6861 189.178 46.2212C189.098 45.7563 188.924 45.3125 188.667 44.917Z" stroke="#1D1D1B" stroke-width="0.5" stroke-linecap="round" stroke-linejoin="round"/>
<path d="M172.964 44.4307C172.728 44.8216 172.59 45.2638 172.562 45.7196C172.534 46.1754 172.616 46.6312 172.802 47.0483C172.889 47.2322 173.083 47.4377 173.267 47.3512C173.327 47.307 173.373 47.2475 173.402 47.1789C173.431 47.1103 173.44 47.0353 173.429 46.9618C173.489 46.0924 173.329 45.222 172.964 44.4307Z" stroke="#1D1D1B" stroke-width="0.5" stroke-linecap="round" stroke-linejoin="round"/>
<path d="M171.426 44.9175C171.666 44.434 172.001 44.0037 172.41 43.6519C172.614 43.4758 172.856 43.3491 173.116 43.2816C173.377 43.214 173.65 43.2075 173.914 43.2625C174.41 43.4403 174.84 43.7648 175.147 44.1928C175.948 45.1272 176.672 46.1257 177.31 47.1782" stroke="#1D1D1B" stroke-linecap="round" stroke-linejoin="round"/>
<path d="M176.534 40.2109C177.354 41.1426 177.938 42.2582 178.235 43.4633C178.533 44.6683 178.535 45.9274 178.243 47.1337C178.243 47.231 178.189 47.3284 178.167 47.4149C177.367 50.1624 175.128 52.2716 172.997 54.2078C172.213 54.8376 171.54 55.5945 171.007 56.4469C170.934 56.5835 170.897 56.7359 170.898 56.8904C170.9 57.0388 170.929 57.1855 170.985 57.3231C171.099 57.6041 171.26 57.8638 171.461 58.0911C172.326 59.1499 173.356 60.0629 174.511 60.7953" stroke="#1D1D1B" stroke-width="0.5" stroke-linecap="round" stroke-linejoin="round"/>
<path d="M176.23 59.4229C176.606 59.4208 176.977 59.5068 177.313 59.674C177.649 59.8412 177.942 60.0849 178.167 60.3856" stroke="#1D1D1B" stroke-width="0.5" stroke-linecap="round" stroke-linejoin="round"/>
<path d="M179.918 61.5856C180.512 61.3616 181.023 60.9622 181.385 60.4406C181.746 59.9189 181.94 59.2996 181.941 58.665" stroke="#1D1D1B" stroke-width="0.5" stroke-linecap="round" stroke-linejoin="round"/>
<path d="M185.099 71.462C182.608 69.122 179.76 67.1941 176.662 65.7507C175.947 65.4149 175.169 65.2342 174.38 65.2207C173.981 65.2217 173.589 65.3209 173.238 65.5096C172.887 65.6983 172.588 65.9706 172.368 66.3024C172.245 66.4773 172.17 66.6809 172.149 66.8936C172.128 67.1062 172.162 67.3206 172.247 67.5163C172.333 67.7119 172.468 67.8821 172.639 68.0105C172.81 68.139 173.011 68.2212 173.222 68.2494C173.525 68.2494 173.839 68.2494 174.142 68.3468C177.944 68.7574 181.649 69.8108 185.099 71.462Z" stroke="#1D1D1B" stroke-width="0.5" stroke-linecap="round" stroke-linejoin="round"/>
<path d="M174.109 68.5723C173.964 69.3224 173.964 70.0936 174.109 70.8438" stroke="#1D1D1B" stroke-width="0.5" stroke-linecap="round" stroke-linejoin="round"/>
<path d="M173.182 70.9307H174.123L185.091 71.5364H185.221" stroke="#1D1D1B" stroke-width="0.5" stroke-linecap="round" stroke-linejoin="round"/>
<path d="M174.844 75.3125C176.357 76.1088 178.083 76.4078 179.776 76.167" stroke="#1D1D1B" stroke-width="0.5" stroke-linecap="round" stroke-linejoin="round"/>
<path d="M177.508 98.5039C177.873 101.249 178.6 103.933 179.671 106.487C180.775 109.189 182.23 111.735 183.998 114.058C185.789 116.403 187.893 118.492 190.25 120.267C190.953 120.797 191.667 121.284 192.413 121.749C194.685 123.17 197.127 124.297 199.682 125.102C203.246 126.22 206.972 126.732 210.704 126.617C213.803 126.526 216.871 125.983 219.812 125.005L220.061 124.918C222.832 123.954 225.457 122.611 227.86 120.927C230.069 119.374 232.082 117.558 233.852 115.519C236.366 112.647 238.348 109.351 239.704 105.784" stroke="#1D1D1B" stroke-width="0.5" stroke-linecap="round" stroke-linejoin="round"/>
<path d="M227.674 109.363C229.586 111.515 231.619 113.555 233.764 115.475" stroke="#1D1D1B" stroke-width="0.5" stroke-linecap="round" stroke-linejoin="round"/>
<path d="M230.637 104.527C233.226 105.796 235.711 107.268 238.068 108.93" stroke="#1D1D1B" stroke-width="0.5" stroke-linecap="round" stroke-linejoin="round"/>
<path d="M227.867 120.992L227.813 120.927L222.145 114.274" stroke="#1D1D1B" stroke-width="0.5" stroke-linecap="round" stroke-linejoin="round"/>
<path d="M219.962 124.745L215.873 116.816" stroke="#1D1D1B" stroke-width="0.5" stroke-linecap="round" stroke-linejoin="round"/>
<path d="M208.463 117.93C208.984 120.829 209.707 123.688 210.626 126.486" stroke="#1D1D1B" stroke-width="0.5" stroke-linecap="round" stroke-linejoin="round"/>
<path d="M200.924 116.903C200.524 119.553 200.113 122.204 199.713 124.854" stroke="#1D1D1B" stroke-width="0.5" stroke-linecap="round" stroke-linejoin="round"/>
<path d="M193.753 113.322L190.324 120.115" stroke="#1D1D1B" stroke-width="0.5" stroke-linecap="round" stroke-linejoin="round"/>
<path d="M189.619 108.282L184.211 113.874" stroke="#1D1D1B" stroke-width="0.5" stroke-linecap="round" stroke-linejoin="round"/>
<path d="M186.286 102.333C183.86 103.358 181.611 104.759 179.623 106.487" stroke="#1D1D1B" stroke-width="0.5" stroke-linecap="round" stroke-linejoin="round"/>
<path d="M130.551 351.13H213.213" stroke="#1D1D1B" stroke-linecap="round" stroke-linejoin="round"/>
</svg>
