<svg width="309" height="328" viewBox="0 0 309 328" fill="none" xmlns="http://www.w3.org/2000/svg">
<path d="M279.657 46.9348H62.4023V326.98H279.657V46.9348Z" fill="#EDEDED" stroke="#1D1D1B" stroke-miterlimit="10"/>
<path d="M158.378 14.9592V14.4556C160.837 9.40757 165.005 5.3936 170.142 3.1257C175.042 0.804845 180.624 0.367509 185.824 1.89704V2.10853C191.546 1.69442 197.252 3.1048 202.121 6.13694V6.1873H201.859H201.668C198.531 5.99987 195.434 6.97111 192.966 8.91655V9.22875C190.943 9.34157 188.946 9.73822 187.033 10.4071C183.907 11.4477 181.297 13.646 179.741 16.5504L178.814 17.5575C176.206 18.5248 173.388 18.7854 170.646 18.3128V18.4337C169.844 19.4228 168.746 20.1288 167.513 20.4479C166.387 20.7767 165.229 20.9827 164.059 21.0622C161.631 21.2838 158.972 21.4953 157.2 23.1771C156.454 23.9744 155.914 24.9413 155.626 25.9941C155.338 27.047 155.311 28.1542 155.548 29.2198C156.059 31.3496 157.051 33.3341 158.449 35.0207L159.103 35.0811C159.023 35.7697 158.982 36.4624 158.982 37.1557C158.982 38.6694 159.165 40.1776 159.526 41.6474H157.371C156.928 40.9324 156.495 40.2173 156.082 39.4822C154.609 36.9035 153.349 34.2089 152.315 31.4253C151.986 33.9571 152.355 36.5305 153.382 38.8678C150.918 35.6248 149.61 31.6507 149.666 27.5782C149.665 25.5472 150.123 23.5422 151.005 21.7129C151.888 19.8835 153.172 18.2772 154.762 17.0137C155.91 16.233 157.12 15.5459 158.378 14.9592Z" fill="#1D1D1B"/>
<path d="M175.977 41.8891C175.625 42.7648 175.625 43.7427 175.977 44.6184C175.977 44.7191 176.078 44.8198 176.179 44.8399C176.279 44.8601 176.43 44.5982 176.41 44.4069C176.513 43.9798 176.527 43.5363 176.453 43.1034C176.379 42.6705 176.217 42.2574 175.977 41.8891ZM160.799 61.7593C160.684 61.9222 160.614 62.1117 160.594 62.3097C160.575 62.5077 160.606 62.7073 160.686 62.8895C160.766 63.0716 160.892 63.2301 161.051 63.3497C161.21 63.4692 161.397 63.5458 161.594 63.5721C161.876 63.5721 162.168 63.5721 162.45 63.6627V63.9145C162.314 64.6129 162.314 65.331 162.45 66.0294V66.1603L172.663 66.7243V66.6035C170.344 64.4248 167.692 62.6298 164.807 61.286C164.142 60.9732 163.417 60.8051 162.682 60.7925C162.313 60.7873 161.948 60.8727 161.62 61.0413C161.291 61.2098 161.009 61.4564 160.799 61.7593ZM159.106 35.1617C159.394 32.2775 160.298 29.4887 161.755 26.9834C163.213 24.4781 165.192 22.3147 167.557 20.6392V20.5083C168.79 20.1892 169.887 19.4832 170.689 18.4941V18.3732C173.431 18.8458 176.249 18.5852 178.858 17.6179C179.445 21.6065 180.984 25.3949 183.346 28.6626C185.708 31.9302 188.822 34.5809 192.425 36.3903L192.364 36.5112C193.235 38.5855 193.909 40.7367 194.379 42.9365C194.858 45.1411 195.728 47.2421 196.947 49.1403C197.57 50.0807 198.395 50.8699 199.362 51.4501C200.33 52.0304 201.414 52.387 202.537 52.4939C203.728 52.5021 204.889 52.1236 205.846 51.4154C206.804 50.7071 207.505 49.7073 207.845 48.5662C209.277 47.3995 211.114 46.8489 212.952 47.0354C213.857 47.137 214.722 47.4678 215.464 47.9965C216.206 48.5251 216.8 49.2342 217.192 50.0567C217.743 51.601 217.76 53.285 217.242 54.8405C216.564 57.4306 215.204 59.7917 213.304 61.6787C211.375 63.5708 208.916 64.8318 206.254 65.2942C205.59 65.4387 204.903 65.4387 204.239 65.2942C203.43 65.0492 202.723 64.5471 202.225 63.8641C201.689 63.158 201.305 62.3488 201.097 61.4874C201.146 63.0861 200.65 64.654 199.69 65.9337C198.731 67.2133 197.364 68.1286 195.816 68.5292C194.267 68.9298 192.628 68.7919 191.168 68.1382C189.708 67.4844 188.514 66.3537 187.782 64.9317C188.129 67.1928 189.187 69.2846 190.803 70.9038C192.536 72.5078 194.599 73.7142 196.846 74.4387C194.883 75.3363 193.184 76.7235 191.911 78.4671C187.187 79.0009 181.769 80.6727 177.075 81.4885C172.381 82.3042 167.255 82.6567 162.974 80.5317C162.19 80.0481 161.517 79.4057 160.996 78.646C160.476 77.8863 160.12 77.026 159.952 76.1206C159.65 74.393 159.469 72.6465 159.409 70.8937C159.036 66.5028 157.716 62.2528 157.193 57.8819C157.003 56.2102 156.969 54.5244 157.092 52.8464L159.449 53.0076C159.448 52.8637 159.482 52.7218 159.55 52.5946C160.046 51.801 160.673 51.0963 161.403 50.5099C163.417 48.7072 165.432 46.7434 166.217 44.1853L165.371 43.9436C164.777 42.9637 164.103 42.034 163.357 41.164C163.071 40.7655 162.67 40.4634 162.209 40.2979C161.963 40.2467 161.709 40.2527 161.466 40.3156C161.223 40.3785 160.998 40.4965 160.809 40.6605C160.433 41.0056 160.131 41.4236 159.922 41.8891H159.61V41.7078C159.248 40.238 159.066 38.7298 159.066 37.2162C159.04 36.5311 159.053 35.8452 159.106 35.1617Z" fill="white"/>
<path d="M159.527 41.7279V41.9092L159.839 44.1752C158.12 46.7613 157.151 49.7731 157.039 52.8765C156.916 54.5545 156.95 56.2403 157.14 57.9121C157.664 62.2829 158.983 66.5329 159.356 70.9238C159.416 72.6766 159.598 74.4231 159.9 76.1507C160.068 77.0561 160.423 77.9164 160.944 78.6761C161.464 79.4358 162.138 80.0782 162.921 80.5618C167.202 82.6868 172.329 82.3746 177.022 81.5186C177.231 84.2641 176.996 87.0252 176.327 89.6963L176.106 89.6358C175.324 89.9781 174.519 90.2674 173.698 90.5019C170.675 91.3726 167.501 91.5921 164.386 91.146C161.271 90.6998 158.287 89.5981 155.629 87.9137C155.317 87.7223 155.015 87.5108 154.723 87.2993C151.701 85.0624 149.298 82.0934 147.741 78.6719C146.183 75.2504 145.522 71.4889 145.819 67.7414C144.49 70.0618 143.842 72.7097 143.949 75.3816C144.056 78.0534 144.913 80.641 146.423 82.8479C144.335 82.0609 142.527 80.6727 141.227 78.8587C139.928 77.0447 139.195 74.8863 139.121 72.6561C139.121 68.7183 141.136 65.0524 143.523 61.9505C146.232 58.476 149.485 55.4547 152.054 51.8795C154.622 48.3043 156.526 43.9637 155.941 39.6029L156.052 39.5425C156.465 40.2777 156.898 40.9927 157.341 41.7078L159.527 41.7279Z" fill="#1D1D1B"/>
<path d="M161.351 41.436C161.131 41.8 161.003 42.2118 160.976 42.6361C160.95 43.0604 161.027 43.4849 161.2 43.8732C161.28 44.0444 161.462 44.2358 161.633 44.1552C161.689 44.1141 161.732 44.0586 161.759 43.9948C161.785 43.931 161.794 43.8611 161.784 43.7927C161.84 42.9832 161.691 42.1728 161.351 41.436ZM159.921 44.1754L159.558 41.8892H159.87C160.094 41.4391 160.406 41.0384 160.787 40.7109C160.977 40.547 161.202 40.429 161.445 40.3661C161.687 40.3032 161.941 40.2971 162.187 40.3484C162.649 40.5139 163.049 40.816 163.335 41.2145C164.081 42.0845 164.755 43.0141 165.35 43.9941L166.196 44.2358C165.45 46.7938 163.365 48.7577 161.381 50.5604C160.651 51.1467 160.025 51.8514 159.528 52.6451C159.461 52.7722 159.426 52.9141 159.427 53.058L157.07 52.8969C157.193 49.7816 158.18 46.762 159.921 44.1754Z" fill="white"/>
<path d="M186.667 298.821C186.813 300.012 186.813 301.216 186.667 302.407C186.667 302.699 186.587 303.011 186.536 303.353H186.476C190.072 310.403 193.99 317.503 197.555 324.502L198.804 326.97H121.854C110.15 309.134 100.058 286.686 103.603 266.312C107.115 249.429 114.34 233.539 124.754 219.794L125.077 219.733C125.142 220.074 125.226 220.41 125.329 220.741L127.524 220.197C127.434 219.816 127.373 219.429 127.343 219.039H127.484C136.755 223.74 146.848 226.606 157.207 227.478H157.348C157.267 226.442 157.267 225.402 157.348 224.366V224.124C158.858 224.245 160.369 224.316 161.89 224.336V224.699C161.542 225.915 161.425 227.186 161.548 228.445L162.021 228.384C167.103 229.423 172.253 230.096 177.431 230.399H178.187C178.187 230.983 178.187 231.577 178.187 232.181C179.486 232.342 180.785 232.473 182.095 232.564L181.994 233.873C187.62 253.628 189.311 274.296 186.97 294.702L185.257 295.145C186.042 296.226 186.528 297.494 186.667 298.821Z" fill="#D1D0D1"/>
<path d="M220.817 98.287C221.688 98.4478 222.57 98.5487 223.456 98.5891V98.6596C222.193 101.981 220.347 105.05 218.007 107.724L217.926 107.653C215.929 105.866 214.036 103.966 212.256 101.963L212.074 101.822C212.999 100.544 213.682 99.1066 214.089 97.582L213.968 97.3101C214.487 97.0858 214.986 96.8162 215.458 96.5044L215.61 96.726C217.293 97.408 219.036 97.9306 220.817 98.287Z" fill="#3773FF"/>
<path d="M201.306 108.831L205.113 116.213V116.374L204.882 116.455C202.143 117.366 199.286 117.871 196.401 117.955V117.834C195.545 115.229 194.872 112.567 194.387 109.868V109.546C196.404 109.54 198.413 109.31 200.38 108.861C200.662 108.801 200.954 108.73 201.236 108.65L201.306 108.831Z" fill="#3773FF"/>
<path d="M127.327 219.14C127.357 219.53 127.418 219.917 127.509 220.298L125.313 220.842C125.21 220.511 125.126 220.175 125.061 219.834C124.663 217.87 124.834 215.833 125.555 213.963L125.827 213.701C126.41 214.345 127.066 214.919 127.781 215.413L127.629 215.625C127.297 216.765 127.194 217.959 127.327 219.14Z" fill="#D1D0D1"/>
<path d="M192.376 36.3698C188.773 34.5604 185.658 31.9097 183.297 28.6421C180.935 25.3744 179.396 21.586 178.809 17.5974L179.735 16.5903C181.291 13.6859 183.901 11.4876 187.027 10.447C188.94 9.77811 190.937 9.38145 192.96 9.26864V8.95643C195.428 7.011 198.525 6.03975 201.662 6.22718H201.853H202.115C211.503 7.31486 219.993 13.2769 225.1 21.233C230.206 29.1892 232.15 39.1091 231.526 48.6363C232.492 50.8075 233.691 52.8674 235.101 54.7797C237.76 58.4959 240.883 61.8294 243.31 65.737C245.729 69.483 247.281 73.722 247.853 78.1445C248.43 82.5775 247.621 87.0806 245.536 91.0354C246.097 88.9907 246.23 86.8521 245.927 84.7536C245.624 82.655 244.891 80.6416 243.773 78.8394C243.824 81.6921 243.251 84.5215 242.096 87.1305C240.941 89.7394 239.231 92.0653 237.086 93.9459C235.917 94.9592 234.624 95.8189 233.238 96.504C230.219 98.0302 226.858 98.755 223.478 98.6088C222.593 98.5685 221.711 98.4675 220.839 98.3067C219.05 97.9353 217.3 97.3958 215.612 96.6953L215.461 96.4738C214.989 96.7856 214.49 97.0552 213.97 97.2795C212.759 97.8161 211.471 98.156 210.153 98.2866C207.28 98.4242 204.404 98.0838 201.642 97.2795C199.875 96.9259 198.175 96.2936 196.606 95.4062C195.83 94.9528 195.158 94.3393 194.638 93.6065C194.117 92.8738 193.758 92.0385 193.584 91.1563C193.409 92.4238 193.609 93.715 194.161 94.8697C194.712 96.0244 195.59 96.9919 196.687 97.6521C194.509 96.5832 192.672 94.9305 191.379 92.8784C190.086 90.8263 189.388 88.4554 189.364 86.0301C189.411 83.3308 190.31 80.7155 191.932 78.5574C193.205 76.8137 194.905 75.4265 196.868 74.529C194.62 73.8044 192.558 72.598 190.825 70.994C189.208 69.3749 188.15 67.2831 187.803 65.0219C188.535 66.4439 189.73 67.5747 191.189 68.2284C192.649 68.8822 194.288 69.02 195.837 68.6194C197.386 68.2189 198.752 67.3036 199.712 66.0239C200.671 64.7443 201.167 63.1764 201.118 61.5776C201.327 62.4391 201.711 63.2483 202.246 63.9544C202.744 64.6374 203.452 65.1395 204.261 65.3845C204.924 65.529 205.611 65.529 206.275 65.3845C208.941 64.8929 211.394 63.6 213.305 61.6783C215.206 59.7981 216.569 57.4442 217.254 54.8602C217.772 53.3048 217.754 51.6207 217.203 50.0765C216.812 49.254 216.217 48.5449 215.475 48.0162C214.733 47.4876 213.868 47.1568 212.963 47.0552C211.125 46.8687 209.288 47.4192 207.856 48.586C207.516 49.727 206.815 50.7268 205.858 51.4351C204.9 52.1434 203.739 52.5219 202.548 52.5137C201.426 52.4068 200.341 52.0502 199.374 51.4699C198.406 50.8896 197.581 50.1004 196.958 49.16C195.715 47.247 194.828 45.1248 194.34 42.8958C193.87 40.696 193.196 38.5448 192.325 36.4705L192.376 36.3698ZM181.548 20.5583C182.122 26.0067 183.764 29.4611 191.731 35.0505C188.347 30.1862 184.953 25.3722 181.548 20.5583Z" fill="#1D1D1B"/>
<path d="M249.826 216.058C250.889 216.677 251.713 217.634 252.168 218.777C252.623 219.92 252.681 221.182 252.334 222.362L251.84 222.453C251.442 220.769 250.517 219.256 249.201 218.132C246.235 215.429 242.534 213.663 238.566 213.057C234.598 212.452 230.54 213.033 226.902 214.728H225.32C223.903 218.089 221.488 220.933 218.401 222.876C216.968 223.729 215.417 224.367 213.798 224.769C212.746 225.038 211.675 225.227 210.595 225.333C209.981 225.414 209.356 225.454 208.742 225.484H207.865C204.784 225.463 201.707 225.224 198.66 224.769L182.997 222.755L181.074 222.564L178.596 222.977C173.092 223.912 167.519 224.373 161.937 224.356C160.426 224.356 158.915 224.266 157.394 224.145C155.487 223.984 153.587 223.732 151.693 223.389C145.886 222.385 140.33 220.257 135.336 217.125H134.521C132.132 217.382 129.732 216.747 127.782 215.343C127.068 214.849 126.412 214.274 125.828 213.631C125.653 213.452 125.488 213.264 125.335 213.067C123.222 210.241 122.026 206.834 121.91 203.308C121.805 199.807 122.058 196.304 122.666 192.854L125.869 170.124L129.072 147.403L129.434 145.107C128.763 144.684 128.138 144.231 127.561 143.748L130.27 142.741C123.6 130.942 119.927 117.687 119.574 104.138L118.566 103.484C121.055 100.101 124.454 97.4958 128.367 95.9706C132.728 94.1176 137.431 93.2615 142.085 92.3048C146.738 91.348 151.411 90.2906 155.591 88.0246L155.642 87.9541C158.65 89.8707 162.079 91.0284 165.633 91.3279V91.7912C165.973 94.3468 166.65 96.8461 167.648 99.2236C168.675 101.74 170.03 104.11 171.676 106.273C173.344 108.457 175.303 110.401 177.498 112.054C178.153 112.548 178.818 113.001 179.512 113.434C181.627 114.757 183.902 115.806 186.281 116.556C189.599 117.597 193.068 118.073 196.544 117.966C199.429 117.882 202.286 117.376 205.025 116.465L205.257 116.385C207.837 115.487 210.281 114.236 212.519 112.668C214.576 111.222 216.45 109.531 218.099 107.633C220.439 104.959 222.284 101.89 223.548 98.569V98.4985C226.928 98.6446 230.288 97.9199 233.307 96.3936C241.013 101.902 251.246 103.594 257.944 110.292C262.748 115.075 265.085 121.904 265.699 128.661C266.314 135.419 265.337 142.207 264.37 148.924C262.718 160.486 261.059 172.051 259.394 183.619C258.629 188.967 257.833 194.395 255.607 199.32C254.054 202.908 251.554 206.006 248.375 208.283L248.567 208.565C249.767 210.867 250.208 213.49 249.826 216.058Z" fill="#3773FF"/>
<path d="M308.143 222C307.99 222.748 307.675 223.454 307.219 224.067C306.763 224.68 306.177 225.184 305.504 225.545L305.272 225.676C303.803 226.365 302.17 226.631 300.558 226.441C298.947 226.3 297.386 225.857 295.724 225.615C292.989 226.381 290.172 226.82 287.334 226.925C285.654 228.634 283.578 229.904 281.291 230.621L280.757 230.893C279.826 229.01 278.719 227.22 277.453 225.545L277.927 225.192C279.22 224.33 280.452 223.377 281.613 222.342L281.955 222.725C284.374 222.324 286.74 221.648 289.006 220.711C292.73 220.542 296.461 220.663 300.166 221.073C302.825 221.355 305.423 221.657 308.143 222Z" fill="white"/>
<path d="M305.635 225.776L306.481 226.199C306.221 226.486 305.919 226.731 305.584 226.925C301.193 229.513 295.23 228.073 291 230.953C289.67 231.587 288.371 232.141 287.062 232.615C285.577 233.181 284.052 233.636 282.499 233.974L282.167 234.095C281.772 233.018 281.315 231.966 280.797 230.943L281.331 230.671C283.618 229.954 285.694 228.685 287.374 226.975C290.212 226.871 293.029 226.431 295.764 225.666C297.426 225.907 298.987 226.351 300.599 226.492C302.21 226.681 303.843 226.416 305.312 225.726L305.544 225.595L305.635 225.776Z" fill="white"/>
<path d="M303.843 234.699C303.824 235.221 303.659 235.727 303.367 236.159C303.075 236.592 302.668 236.934 302.191 237.147C301.237 237.551 300.206 237.744 299.169 237.711C296.804 237.75 294.442 237.544 292.119 237.096H291.968C289.57 238.617 286.874 239.606 284.061 239.997H283.89C283.527 237.936 282.974 235.913 282.238 233.954L282.571 233.833C284.123 233.494 285.648 233.04 287.133 232.474L287.204 232.665C289.289 232.665 291.384 232.665 293.72 232.665C297.017 233.682 300.409 234.364 303.843 234.699Z" fill="white"/>
<path d="M277.492 225.544C278.758 227.219 279.864 229.01 280.795 230.892C281.314 231.915 281.771 232.967 282.165 234.044C282.901 236.003 283.454 238.026 283.817 240.087V240.268C278.862 244.82 272.738 248.738 266.231 250.339C263.408 251.002 260.52 251.346 257.62 251.366C253.812 251.421 250.017 250.929 246.349 249.906L245.966 249.997C245.326 247.496 245.226 244.888 245.672 242.346C246.119 239.804 247.101 237.386 248.555 235.253H248.645C248.821 234.312 249.258 233.44 249.904 232.735C250.63 231.975 251.453 231.315 252.352 230.771L253.631 229.935C256.074 228.339 258.621 226.909 261.256 225.655C261.548 225.593 261.844 225.545 262.142 225.514L262.082 225.081C264.267 222.755 267.531 221.878 270.462 220.609C273.896 219.051 277.05 216.938 279.798 214.355C285.821 213.595 291.73 212.107 297.394 209.924C297.666 212.885 295.652 215.705 293.073 217.195C290.495 218.686 287.443 219.109 284.502 219.512C282.572 221.671 280.376 223.576 277.965 225.182L277.492 225.544Z" fill="white"/>
<path d="M257.623 251.84C257.712 252.71 257.573 253.588 257.22 254.388C256.867 255.188 256.312 255.882 255.609 256.402C255.133 256.763 254.593 257.029 254.017 257.188C253.755 257.26 253.49 257.318 253.221 257.359C252.373 257.477 251.509 257.373 250.714 257.057C248.898 256.161 247.498 254.599 246.806 252.696C246.422 251.831 246.112 250.935 245.879 250.017L246.262 249.927C249.96 250.952 253.786 251.437 257.623 251.367V251.84Z" fill="black"/>
<path d="M250.935 224.024C252.496 225.559 253.433 227.619 253.564 229.805L253.635 229.915L252.356 230.751C251.457 231.295 250.634 231.955 249.908 232.715L249.707 232.524C248.059 232.362 246.397 232.464 244.781 232.826L244.63 232.584C242.73 233.641 241.088 235.106 239.822 236.874C238.556 238.641 237.697 240.667 237.308 242.806C236.422 248.114 240.46 253.885 244.862 256.976C242.576 258.638 239.745 258.054 237.177 257.349C233.625 256.457 230.175 255.198 226.883 253.592C223.294 251.802 220.091 249.324 217.456 246.301C216.84 241.216 215.63 236.22 213.85 231.416L213.387 231.295C213.739 229.132 213.881 226.94 213.81 224.749C215.429 224.347 216.98 223.709 218.413 222.856C221.5 220.913 223.915 218.069 225.332 214.708H226.914C230.552 213.018 234.61 212.441 238.576 213.05C242.542 213.659 246.239 215.427 249.203 218.132C250.519 219.256 251.443 220.769 251.842 222.453C251.944 222.968 251.944 223.498 251.842 224.014L250.935 224.024Z" fill="#3773FF"/>
<path d="M250.749 257.037C251.545 257.353 252.409 257.458 253.257 257.339C250.475 257.977 247.573 257.852 244.857 256.977C240.455 253.895 236.417 248.114 237.303 242.807C237.692 240.668 238.551 238.642 239.817 236.874C241.083 235.107 242.725 233.642 244.625 232.585L244.776 232.827C246.392 232.465 248.054 232.363 249.702 232.524L249.903 232.716C249.256 233.421 248.82 234.293 248.644 235.234H248.553C247.086 237.368 246.091 239.791 245.636 242.34C245.181 244.89 245.276 247.508 245.915 250.018C246.148 250.935 246.458 251.831 246.841 252.697C247.538 254.591 248.938 256.146 250.749 257.037Z" fill="#3773FF"/>
<path d="M217.929 107.583L218.009 107.653C216.36 109.552 214.487 111.243 212.429 112.689L207.152 106.495L207.051 106.334C207.684 105.964 208.293 105.554 208.874 105.105C210.105 104.167 211.185 103.046 212.077 101.782L212.258 101.923C214.039 103.916 215.932 105.805 217.929 107.583Z" fill="#3773FF"/>
<path d="M189.304 301.188H189.244C195.66 279.23 196.464 256.012 191.58 233.662V232.735H192.064C192.064 232.463 192.064 232.192 192.064 231.92H192.477C197.265 232.694 202.133 232.847 206.96 232.373L207.172 232.443C207.889 230.379 208.137 228.18 207.897 226.008V225.535H208.773C209.388 225.535 210.012 225.464 210.627 225.384L210.697 226.028C210.637 227.923 210.398 229.808 209.982 231.658L213.165 231.366H213.386L213.85 231.487C215.623 236.278 216.829 241.26 217.445 246.331C218.668 257.353 217.897 268.505 215.169 279.254C211.392 294.985 204.553 309.789 197.764 324.462L197.583 324.553C194.028 317.564 190.11 310.454 186.504 303.404H186.564C186.564 303.062 186.655 302.749 186.695 302.457L188.508 302.679C188.78 302.155 189.052 301.722 189.304 301.188Z" fill="#D1D0D1"/>
<path d="M176.822 100.935C175.629 99.202 174.759 97.2676 174.253 95.2251C173.915 93.8453 173.773 92.4248 173.83 91.0054L173.699 90.532C174.52 90.2975 175.324 90.0082 176.106 89.6659L176.328 89.7263C176.997 87.0553 177.231 84.2942 177.023 81.5487C181.717 80.6926 187.095 79.0208 191.859 78.5273C190.237 80.6854 189.338 83.3008 189.291 86.0001C189.315 88.4253 190.012 90.7962 191.305 92.8483C192.598 94.9005 194.436 96.5531 196.613 97.622C195.517 96.9618 194.639 95.9943 194.087 94.8396C193.536 93.6849 193.335 92.3937 193.511 91.1262C193.684 92.0085 194.043 92.8437 194.564 93.5765C195.085 94.3093 195.756 94.9228 196.533 95.3762C198.101 96.2636 199.801 96.8959 201.569 97.2494C204.33 98.0538 207.206 98.3941 210.08 98.2565C211.397 98.126 212.686 97.786 213.897 97.2494L214.018 97.5213C213.611 99.0459 212.928 100.483 212.003 101.761C211.111 103.026 210.031 104.146 208.8 105.085C208.22 105.533 207.611 105.944 206.977 106.313C205.166 107.361 203.216 108.151 201.186 108.66C200.904 108.74 200.612 108.811 200.33 108.871C198.364 109.321 196.354 109.55 194.337 109.556C191.988 109.552 189.651 109.213 187.397 108.549C185.656 108.039 183.989 107.301 182.442 106.354C181.895 106.021 181.367 105.658 180.86 105.266C179.295 104.043 177.933 102.582 176.822 100.935Z" fill="white"/>
<path d="M210.593 225.313C211.674 225.207 212.744 225.019 213.796 224.75C213.867 226.94 213.726 229.132 213.373 231.296H213.152L209.969 231.588C210.385 229.738 210.624 227.853 210.684 225.958L210.593 225.313Z" fill="#1D1D1B"/>
<path d="M207.15 106.464L212.428 112.658C210.19 114.226 207.747 115.476 205.166 116.374V116.213L201.359 108.831L201.309 108.65C203.339 108.141 205.288 107.351 207.1 106.303L207.15 106.464Z" fill="#3773FF"/>
<path d="M207.874 225.957C208.114 228.129 207.866 230.328 207.149 232.393L206.937 232.322C202.11 232.796 197.242 232.644 192.454 231.869H192.041C192.041 231.103 192.041 230.338 192.041 229.623C188.949 229.512 185.856 229.401 182.764 229.311C182.645 227.264 182.712 225.212 182.966 223.177V222.815L198.628 224.829C201.676 225.284 204.752 225.523 207.834 225.544L207.874 225.957ZM192.373 227.317L192.151 225.182C189.724 225.182 187.256 225.182 184.789 225.081C184.478 225.812 184.408 226.623 184.587 227.397L192.373 227.317Z" fill="#1D1D1B"/>
<path d="M196.451 117.835V117.956C192.975 118.063 189.506 117.587 186.188 116.546L186.258 116.314C186.631 113.847 187.013 111.379 187.386 108.912L187.467 108.57C189.72 109.233 192.057 109.572 194.406 109.577V109.899C194.903 112.589 195.586 115.24 196.451 117.835Z" fill="#3773FF"/>
<path d="M192.153 225.182L192.335 227.307L184.589 227.397C184.41 226.623 184.48 225.812 184.791 225.081C187.299 225.182 189.766 225.232 192.153 225.182Z" fill="white"/>
<path d="M192.023 229.613C192.023 230.328 192.023 231.094 192.023 231.859C192.023 232.131 192.023 232.403 192.023 232.675H191.54C188.407 232.803 185.269 232.75 182.142 232.514C180.833 232.423 179.534 232.292 178.234 232.131C178.234 231.527 178.234 230.933 178.234 230.348C178.234 227.811 178.406 225.444 178.637 223.097V222.966L181.115 222.553L183.049 222.795V223.158C182.795 225.192 182.728 227.245 182.847 229.291C185.839 229.392 188.931 229.502 192.023 229.613Z" fill="white"/>
<path d="M191.576 233.622C196.46 255.971 195.656 279.189 189.239 301.148H189.3C189.048 301.631 188.776 302.155 188.514 302.588L186.701 302.367C186.847 301.176 186.847 299.972 186.701 298.781C186.582 297.448 186.113 296.169 185.341 295.075L187.054 294.632C189.39 274.239 187.699 253.585 182.078 233.843L182.179 232.534C185.305 232.77 188.443 232.824 191.576 232.695V233.622Z" fill="#D1D0D1"/>
<path d="M187.468 108.57L187.388 108.912C187.015 111.38 186.632 113.847 186.26 116.314L186.189 116.546C183.81 115.796 181.536 114.747 179.421 113.424C178.736 112.991 178.071 112.538 177.406 112.044L177.507 111.903L180.7 105.579L180.921 105.287C181.428 105.679 181.955 106.042 182.503 106.374C184.053 107.323 185.723 108.061 187.468 108.57Z" fill="#3773FF"/>
<path d="M180.931 105.337L180.709 105.629L177.516 111.953L177.415 112.094C175.22 110.442 173.262 108.497 171.594 106.314L171.745 106.193L176.781 100.986C177.924 102.648 179.325 104.117 180.931 105.337Z" fill="#3773FF"/>
<path d="M178.581 222.987V223.117C178.35 225.464 178.178 227.831 178.178 230.369H177.423C172.245 230.066 167.095 229.393 162.013 228.354L161.539 228.415C161.417 227.156 161.533 225.885 161.882 224.668V224.306C167.476 224.345 173.063 223.904 178.581 222.987Z" fill="#1D1D1B"/>
<path d="M176.821 100.935L171.785 106.142L171.634 106.263C169.988 104.1 168.633 101.729 167.605 99.213C169.457 97.6049 171.551 96.2997 173.81 95.3457L174.303 95.2249C174.793 97.2639 175.646 99.1981 176.821 100.935Z" fill="#3773FF"/>
<path d="M174.255 95.2659L173.762 95.3867C171.503 96.3407 169.409 97.6459 167.557 99.254C166.56 96.8765 165.883 94.3772 165.543 91.8216V91.3583C168.254 91.5948 170.986 91.3285 173.601 90.5728L173.732 91.0461C173.707 92.4703 173.884 93.8908 174.255 95.2659Z" fill="#3773FF"/>
<path d="M172.651 66.6034V66.7243L162.438 66.1603V66.0596C162.302 65.3611 162.302 64.6431 162.438 63.9446V63.6929C165.983 64.0773 169.436 65.0615 172.651 66.6034Z" fill="white"/>
<path d="M167.517 20.5081V20.639C165.151 22.3145 163.173 24.4779 161.715 26.9832C160.258 29.4884 159.354 32.2773 159.066 35.1614L158.412 35.101C157.014 33.4144 156.022 31.43 155.511 29.3001C155.275 28.2345 155.301 27.1273 155.589 26.0744C155.877 25.0216 156.417 24.0547 157.163 23.2575C158.935 21.5756 161.594 21.3641 164.022 21.1425C165.207 21.0593 166.379 20.8466 167.517 20.5081Z" fill="#1D1D1B"/>
<path d="M164.798 61.2857C167.683 62.6295 170.335 64.4246 172.654 66.6032C169.445 65.0519 165.995 64.0575 162.451 63.6625C162.169 63.6625 161.877 63.592 161.595 63.5718C161.398 63.5456 161.211 63.469 161.052 63.3495C160.893 63.2299 160.767 63.0714 160.687 62.8892C160.608 62.7071 160.576 62.5074 160.596 62.3095C160.615 62.1115 160.685 61.922 160.8 61.7591C161.005 61.4501 161.283 61.1966 161.61 61.0209C161.937 60.8452 162.302 60.7529 162.673 60.752C163.411 60.7771 164.136 60.9591 164.798 61.2857Z" fill="white"/>
<path d="M157.364 224.175V224.417C157.284 225.452 157.284 226.493 157.364 227.529H157.223C146.864 226.657 136.772 223.791 127.501 219.089H127.36C127.223 217.899 127.325 216.694 127.662 215.544L127.813 215.333C129.763 216.737 132.162 217.371 134.551 217.115H135.367C140.348 220.257 145.893 222.399 151.694 223.42C153.567 223.742 155.457 223.994 157.364 224.175Z" fill="#1D1D1B"/>
<path d="M127.555 143.737C128.16 144.221 128.784 144.674 129.429 145.097L129.066 147.393L125.863 170.113H125.672C116.451 181.049 106.186 191.06 95.0227 200.004L95.204 200.236C93.4727 205.277 90.3638 209.732 86.2298 213.097C82.1107 216.433 77.5439 219.176 72.6627 221.244C70.1547 222.372 67.4957 223.429 64.7561 223.258C64.3434 223.226 63.933 223.169 63.5273 223.087C61.6578 222.649 59.9097 221.799 58.4107 220.599C56.6199 219.121 54.9741 217.475 53.4955 215.685C52.3574 214.386 51.1689 212.996 50.9171 211.294C50.8452 211.043 50.7913 210.787 50.7559 210.528C50.6521 209.806 50.7141 209.069 50.9372 208.373C59.5683 193.616 69.7665 179.833 81.3549 167.263L81.7175 167.424C91.6517 145.516 103.659 124.607 117.574 104.984C117.858 104.455 118.175 103.944 118.521 103.453L119.528 104.108C119.882 117.656 123.555 130.911 130.225 142.71L127.555 143.737ZM113.132 150.233C117.705 150.072 122.197 148.934 125.027 146.326C122.951 145.933 120.845 145.711 118.732 145.661C116.608 145.616 114.505 146.093 112.609 147.051C112.1 147.296 111.664 147.667 111.339 148.128C111.181 148.362 111.097 148.637 111.097 148.919C111.097 149.201 111.181 149.476 111.339 149.709C111.578 149.928 111.864 150.089 112.175 150.18C112.486 150.271 112.813 150.289 113.132 150.233Z" fill="#3773FF"/>
<path d="M125.028 146.326C122.248 148.934 117.706 150.073 113.133 150.234C112.814 150.289 112.486 150.271 112.176 150.18C111.865 150.09 111.579 149.929 111.34 149.71C111.182 149.477 111.098 149.201 111.098 148.919C111.098 148.638 111.182 148.362 111.34 148.129C111.664 147.667 112.101 147.296 112.609 147.051C114.506 146.093 116.609 145.616 118.733 145.661C120.846 145.712 122.951 145.934 125.028 146.326Z" fill="#3773FF"/>
<path d="M63.5298 223.077V223.157C61.4124 224.541 59.5458 226.274 58.0103 228.284C57.6 228.225 57.1931 228.145 56.7916 228.042C54.1005 227.196 51.8047 225.408 50.3254 223.006C48.7397 220.393 47.5229 217.574 46.7095 214.627C46.7095 214.547 46.7095 214.466 46.6289 214.386C47.9584 212.956 49.3383 211.717 50.6577 210.478H50.7282C50.7636 210.737 50.8175 210.992 50.8894 211.243C51.1412 212.945 52.3297 214.335 53.4678 215.634C54.9464 217.425 56.5922 219.071 58.383 220.549C59.8871 221.767 61.6462 222.631 63.5298 223.077Z" fill="#3773FF"/>
<path d="M25.3382 223.853L25.2878 223.511L46.2176 214.829L46.691 214.678C47.5043 217.625 48.7211 220.444 50.3068 223.057C51.7862 225.459 54.082 227.247 56.7731 228.093L56.6422 228.506C51.8076 233.239 50.1356 240.672 44.7269 244.791C41.9269 246.936 38.3009 248.003 35.9642 250.642C33.1895 252.375 31.0079 254.911 29.7095 257.913C29.2542 257.886 28.818 257.721 28.4584 257.44C28.0988 257.16 27.8327 256.777 27.695 256.342C27.4719 254.954 27.5299 253.536 27.8656 252.171C28.2012 250.806 28.8077 249.522 29.649 248.396C31.2833 246.173 33.2073 244.178 35.37 242.464C27.6145 246.019 20.2014 249.514 12.7884 252.898C11.8176 253.404 10.7691 253.744 9.68618 253.905C9.13858 253.996 8.57698 253.952 8.05032 253.776C7.52366 253.601 7.04792 253.299 6.66456 252.898C11.4909 247.855 17.0783 243.601 23.223 240.289L8.64876 243.965C7.26942 244.39 5.83144 244.594 4.38828 244.569C3.66461 244.545 2.9569 244.35 2.32313 244C1.68937 243.65 1.14759 243.155 0.742188 242.555C2.7566 241.393 4.83816 240.326 6.98687 239.352C5.45592 239.544 1.69903 239.292 1.28608 238.234C7.70339 234.52 14.54 231.582 21.6518 229.483C19.7291 229.327 17.7946 229.405 15.8906 229.714C14.2804 231.57 12.0129 232.729 9.56532 232.947C8.99026 233.054 8.39753 233.012 7.84299 232.826C7.5703 232.729 7.33413 232.55 7.16655 232.314C6.99897 232.078 6.90811 231.796 6.9063 231.507C9.53511 229.06 12.1035 226.542 15.3467 225.313C18.5899 224.085 21.9338 224.316 25.3382 223.853Z" fill="white"/>
<path d="M163.526 10.8101C162.468 12.8243 160.454 13.9019 158.379 14.9593C157.122 15.5331 155.912 16.2067 154.763 16.9735C153.173 18.237 151.888 19.8434 151.006 21.6727C150.123 23.502 149.665 25.507 149.666 27.5381C149.602 31.6243 150.91 35.614 153.383 38.868C152.367 36.5488 151.998 33.9978 152.315 31.4859C153.35 34.2695 154.61 36.964 156.082 39.5427C156.495 40.2779 156.928 40.993 157.371 41.708" stroke="#1D1D1B" stroke-linecap="round" stroke-linejoin="round"/>
<path d="M155.973 39.6428C156.557 44.0036 154.654 48.3543 152.085 51.9194C149.517 55.4846 146.264 58.5059 143.554 61.9905C141.137 65.0923 139.113 68.7582 139.153 72.696C139.227 74.9262 139.959 77.0846 141.259 78.8986C142.559 80.7126 144.367 82.1008 146.455 82.8879C144.945 80.681 144.088 78.0933 143.981 75.4215C143.874 72.7496 144.522 70.1018 145.851 67.7813C145.545 71.5311 146.199 75.2969 147.752 78.724C149.304 82.151 151.704 85.1263 154.724 87.3695C155.016 87.581 155.319 87.7925 155.631 87.9838C158.288 89.6683 161.273 90.7699 164.388 91.2161C167.503 91.6623 170.676 91.4427 173.7 90.5721C174.521 90.3376 175.325 90.0482 176.107 89.706" stroke="#1D1D1B" stroke-linecap="round" stroke-linejoin="round"/>
<path d="M175.805 91.5494C176.006 90.9451 176.177 90.3408 176.328 89.7265C176.997 87.0555 177.232 84.2943 177.023 81.5488" stroke="#1D1D1B" stroke-linecap="round" stroke-linejoin="round"/>
<path d="M191.856 78.4871C187.133 79.0209 181.714 80.6926 177.02 81.5084C172.327 82.3242 167.2 82.6766 162.919 80.5517C162.136 80.068 161.462 79.4256 160.942 78.6659C160.421 77.9062 160.066 77.046 159.898 76.1405C159.596 74.413 159.414 72.6665 159.354 70.9137C158.981 66.5227 157.662 62.2727 157.138 57.9019C156.948 56.2302 156.914 54.5444 157.037 52.8664C157.175 49.7585 158.172 46.7498 159.918 44.1751L159.555 41.8889V41.7077C159.194 40.2378 159.011 38.7296 159.011 37.216C159.011 36.5227 159.052 35.8299 159.132 35.1413C159.42 32.2572 160.323 29.4683 161.781 26.9631C163.239 24.4578 165.217 22.2944 167.583 20.6189" stroke="#1D1D1B" stroke-linecap="round" stroke-linejoin="round"/>
<path d="M166.367 16.9834C167.717 17.6437 169.156 18.1051 170.638 18.3531C173.38 18.8256 176.198 18.565 178.806 17.5977" stroke="#1D1D1B" stroke-linecap="round" stroke-linejoin="round"/>
<path d="M170.652 18.4736C169.85 19.4628 168.752 20.1687 167.52 20.4878C166.393 20.8167 165.235 21.0226 164.065 21.1022C161.637 21.3237 158.978 21.5352 157.206 23.2171C156.46 24.0143 155.92 24.9812 155.632 26.0341C155.344 27.087 155.318 28.1941 155.554 29.2597C156.065 31.3896 157.057 33.374 158.455 35.0606" stroke="#1D1D1B" stroke-linecap="round" stroke-linejoin="round"/>
<path d="M179.73 16.5506C181.287 13.6462 183.896 11.4479 187.023 10.4072C188.935 9.73839 190.932 9.34174 192.955 9.22892C194.184 9.14836 195.423 9.13829 196.652 9.1685" stroke="#1D1D1B" stroke-linecap="round" stroke-linejoin="round"/>
<path d="M192.938 8.91615C195.406 6.97072 198.503 5.99947 201.64 6.1869" stroke="#1D1D1B" stroke-linecap="round" stroke-linejoin="round"/>
<path d="M158.352 14.4556C160.811 9.40757 164.979 5.3936 170.116 3.1257C175.015 0.804845 180.597 0.367509 185.798 1.89704" stroke="#1D1D1B" stroke-linecap="round" stroke-linejoin="round"/>
<path d="M182.078 2.78291C183.285 2.4534 184.519 2.22766 185.765 2.10815C191.486 1.69404 197.192 3.10441 202.061 6.13656" stroke="#1D1D1B" stroke-linecap="round" stroke-linejoin="round"/>
<path d="M178.809 17.5977C179.396 21.5862 180.935 25.3747 183.297 28.6423C185.658 31.91 188.773 34.5607 192.376 36.3701H192.426" stroke="#1D1D1B" stroke-linecap="round" stroke-linejoin="round"/>
<path d="M191.726 35.0511C183.759 29.4616 182.117 25.9871 181.543 20.5588C184.947 25.3728 188.342 30.1868 191.726 35.0511Z" stroke="#1D1D1B" stroke-linecap="round" stroke-linejoin="round"/>
<path d="M192.312 36.491C193.182 38.5653 193.857 40.7164 194.327 42.9163C194.806 45.1208 195.676 47.2218 196.895 49.1201C197.518 50.0604 198.343 50.8496 199.31 51.4299C200.277 52.0102 201.362 52.3668 202.485 52.4737C203.676 52.4819 204.837 52.1034 205.794 51.3951C206.751 50.6868 207.453 49.687 207.793 48.546C209.225 47.3793 211.062 46.8287 212.9 47.0152C213.805 47.1168 214.669 47.4476 215.411 47.9762C216.153 48.5049 216.748 49.214 217.14 50.0365C217.69 51.5808 217.708 53.2648 217.19 54.8203C216.529 57.4122 215.187 59.7801 213.302 61.6786C211.373 63.5708 208.914 64.8317 206.252 65.2941C205.588 65.4386 204.901 65.4386 204.238 65.2941C203.428 65.0491 202.721 64.5471 202.223 63.8641C201.687 63.1579 201.303 62.3488 201.095 61.4873C201.144 63.086 200.648 64.654 199.689 65.9336C198.729 67.2132 197.362 68.1285 195.814 68.5291C194.265 68.9297 192.626 68.7918 191.166 68.1381C189.706 67.4843 188.512 66.3536 187.78 64.9316C187.679 64.7201 187.588 64.5086 187.508 64.287" stroke="#1D1D1B" stroke-linecap="round" stroke-linejoin="round"/>
<path d="M187.793 64.9417C188.14 67.2028 189.198 69.2946 190.815 70.9138C192.548 72.5178 194.61 73.7242 196.858 74.4487C194.895 75.3462 193.195 76.7335 191.923 78.4771C190.3 80.6352 189.401 83.2506 189.354 85.9498C189.378 88.3751 190.076 90.746 191.369 92.7981C192.662 94.8502 194.499 96.5029 196.677 97.5718C195.58 96.9116 194.702 95.9441 194.151 94.7894C193.599 93.6347 193.399 92.3435 193.574 91.076C193.748 91.9582 194.107 92.7935 194.628 93.5263C195.149 94.2591 195.82 94.8725 196.596 95.326C198.165 96.2133 199.865 96.8456 201.632 97.1992C204.394 98.0036 207.27 98.3439 210.143 98.2063C211.461 98.0758 212.749 97.7358 213.96 97.1992C214.48 96.975 214.979 96.7054 215.451 96.3935C216.281 95.8561 217.008 95.1739 217.596 94.3793" stroke="#1D1D1B" stroke-linecap="round" stroke-linejoin="round"/>
<path d="M215.59 96.6555C217.278 97.3559 219.028 97.8954 220.817 98.2668C221.689 98.4276 222.571 98.5286 223.456 98.569C226.836 98.7151 230.197 97.9903 233.216 96.4641C234.602 95.779 235.895 94.9193 237.063 93.9061C239.209 92.0254 240.919 89.6996 242.074 87.0906C243.229 84.4816 243.802 81.6522 243.751 78.7995C243.751 78.6787 243.751 78.5679 243.751 78.447" stroke="#1D1D1B" stroke-linecap="round" stroke-linejoin="round"/>
<path d="M229.871 42.2917C230.035 44.4822 230.584 46.6267 231.493 48.6264C232.459 50.7976 233.657 52.8574 235.068 54.7698C237.727 58.486 240.85 61.8195 243.277 65.7271C245.708 69.4734 247.271 73.7162 247.85 78.1446C248.427 82.5777 247.618 87.0808 245.533 91.0356C246.094 88.9908 246.228 86.8523 245.924 84.7537C245.621 82.6552 244.888 80.6418 243.771 78.8396" stroke="#1D1D1B" stroke-linecap="round" stroke-linejoin="round"/>
<path d="M201.832 6.177H202.094C211.481 7.26467 219.972 13.2267 225.078 21.1828C230.185 29.139 232.129 39.0589 231.504 48.5862" stroke="#1D1D1B" stroke-linecap="round" stroke-linejoin="round"/>
<path d="M214.067 97.5117C213.661 99.0363 212.978 100.473 212.053 101.752C211.161 103.016 210.081 104.137 208.85 105.075C208.269 105.524 207.66 105.934 207.027 106.304C205.215 107.352 203.266 108.141 201.235 108.65C200.953 108.731 200.661 108.801 200.379 108.862C198.413 109.311 196.403 109.541 194.386 109.547C192.037 109.542 189.7 109.203 187.447 108.539C185.705 108.03 184.039 107.291 182.491 106.344C181.944 106.012 181.416 105.649 180.91 105.256C179.318 104.033 177.931 102.564 176.801 100.906C175.608 99.1722 174.738 97.2378 174.232 95.1954C173.894 93.8155 173.752 92.395 173.809 90.9756" stroke="#1D1D1B" stroke-linecap="round" stroke-linejoin="round"/>
<path d="M155.581 88.0144C151.401 90.2502 146.718 91.3378 142.074 92.2946C137.431 93.2513 132.717 94.1074 128.356 95.9605C124.443 97.4856 121.045 100.091 118.556 103.473C118.21 103.964 117.894 104.475 117.609 105.004C103.694 124.627 91.6869 145.536 81.7527 167.445C81.0812 168.962 80.4098 170.493 79.7383 172.037" stroke="#1D1D1B" stroke-linecap="round" stroke-linejoin="round"/>
<path d="M81.3549 167.263C69.7671 179.83 59.5689 193.61 50.9372 208.363C50.7141 209.059 50.6521 209.796 50.7559 210.519C50.7913 210.777 50.8452 211.033 50.9171 211.284C51.1689 212.986 52.3574 214.376 53.4955 215.675C54.9741 217.466 56.6199 219.111 58.4107 220.59C59.9097 221.789 61.6578 222.639 63.5273 223.077C63.933 223.159 64.3434 223.217 64.7561 223.248C67.4957 223.44 70.1547 222.382 72.6627 221.234C77.5433 219.169 82.1101 216.43 86.2298 213.097C90.3638 209.732 93.4727 205.277 95.204 200.236" stroke="#1D1D1B" stroke-linecap="round" stroke-linejoin="round"/>
<path d="M90.3164 203.691C91.9078 202.482 93.479 201.257 95.0301 200.015C106.195 191.057 116.46 181.033 125.679 170.083" stroke="#1D1D1B" stroke-linecap="round" stroke-linejoin="round"/>
<path d="M123.968 152.147C109.691 166.346 93.2332 178.168 75.2188 187.164" stroke="#1D1D1B" stroke-linecap="round" stroke-linejoin="round"/>
<path d="M67.6836 194.576C74.9556 196.681 82.7917 195.744 89.9932 193.307C97.1948 190.87 103.742 187.013 110.268 183.236" stroke="#1D1D1B" stroke-linecap="round" stroke-linejoin="round"/>
<path d="M50.6851 210.529C49.3153 211.768 47.9354 213.006 46.6563 214.436C46.6563 214.517 46.6562 214.598 46.7368 214.678C47.5502 217.624 48.767 220.444 50.3527 223.057C51.832 225.459 54.1279 227.247 56.819 228.093C57.2205 228.195 57.6273 228.276 58.0377 228.334C59.5732 226.325 61.4397 224.591 63.5572 223.208" stroke="#1D1D1B" stroke-linecap="round" stroke-linejoin="round"/>
<path d="M119.57 104.128C119.924 117.677 123.597 130.932 130.267 142.73" stroke="#1D1D1B" stroke-linecap="round" stroke-linejoin="round"/>
<path d="M118.695 130.444C120.202 135.686 123.299 140.331 127.559 143.738C128.163 144.221 128.788 144.674 129.432 145.097" stroke="#1D1D1B" stroke-linecap="round" stroke-linejoin="round"/>
<path d="M125.028 146.326C122.951 145.934 120.846 145.712 118.733 145.661C116.609 145.616 114.506 146.093 112.609 147.051C112.101 147.296 111.664 147.667 111.34 148.129C111.182 148.362 111.098 148.638 111.098 148.919C111.098 149.201 111.182 149.477 111.34 149.71C111.579 149.929 111.865 150.09 112.176 150.18C112.486 150.271 112.814 150.289 113.133 150.234C117.706 150.073 122.248 148.934 125.028 146.326Z" stroke="#1D1D1B" stroke-linecap="round" stroke-linejoin="round"/>
<path d="M129.07 147.394L125.867 170.114L122.654 192.844C122.046 196.294 121.793 199.797 121.898 203.298C122.014 206.825 123.209 210.231 125.323 213.057C125.476 213.254 125.641 213.443 125.816 213.621C126.4 214.264 127.055 214.839 127.77 215.333C129.72 216.737 132.119 217.372 134.508 217.115" stroke="#1D1D1B" stroke-linecap="round" stroke-linejoin="round"/>
<path d="M126.551 209.068C128.985 212.247 131.958 214.974 135.334 217.125C140.315 220.267 145.86 222.409 151.66 223.43C153.554 223.772 155.454 224.024 157.361 224.185C158.872 224.306 160.383 224.376 161.904 224.396C167.492 224.418 173.073 223.96 178.583 223.027L181.061 222.614" stroke="#1D1D1B" stroke-linecap="round" stroke-linejoin="round"/>
<path d="M169.617 221.153L181.069 222.563L183.003 222.805L198.665 224.819C201.713 225.274 204.789 225.513 207.871 225.534H208.747C209.362 225.534 209.986 225.464 210.6 225.383C211.681 225.277 212.752 225.089 213.803 224.819C215.422 224.417 216.973 223.779 218.406 222.926C221.493 220.983 223.909 218.139 225.326 214.778C226.721 211.079 227.404 207.15 227.34 203.197" stroke="#1D1D1B" stroke-linecap="round" stroke-linejoin="round"/>
<path d="M137.383 172.45C146.096 188.463 158.841 201.923 174.357 211.495" stroke="#1D1D1B" stroke-linecap="round" stroke-linejoin="round"/>
<path d="M133.363 195.049C141.844 203.831 152.392 210.344 164.043 213.993" stroke="#1D1D1B" stroke-linecap="round" stroke-linejoin="round"/>
<path d="M258.439 120.685C252.695 129.859 248.713 140.023 246.695 150.656" stroke="#1D1D1B" stroke-linecap="round" stroke-linejoin="round"/>
<path d="M243.754 157.515C250.642 151.807 255.441 143.976 257.402 135.248" stroke="#1D1D1B" stroke-linecap="round" stroke-linejoin="round"/>
<path d="M243.751 155.349C241.988 164.272 240.236 173.225 237.395 181.876C234.555 190.528 230.617 198.897 224.855 205.946" stroke="#1D1D1B" stroke-linecap="round" stroke-linejoin="round"/>
<path d="M258.475 156.246C255.943 165.843 251.945 174.991 246.621 183.367C241.303 191.73 235.477 199.758 229.176 207.407" stroke="#1D1D1B" stroke-linecap="round" stroke-linejoin="round"/>
<path d="M230.629 209.643C237.367 208.827 242.302 201.948 249.081 201.586" stroke="#1D1D1B" stroke-linecap="round" stroke-linejoin="round"/>
<path d="M226.902 214.728C230.541 213.033 234.599 212.451 238.567 213.057C242.535 213.663 246.235 215.428 249.202 218.132C250.518 219.256 251.442 220.769 251.841 222.453C251.943 222.968 251.943 223.498 251.841 224.014" stroke="#1D1D1B" stroke-linecap="round" stroke-linejoin="round"/>
<path d="M222.922 224.085C225.074 221.54 228.063 219.847 231.352 219.311C234.619 218.8 237.951 218.896 241.183 219.593C244.051 220.021 246.797 221.051 249.24 222.614C249.836 223.032 250.389 223.508 250.892 224.034C252.453 225.57 253.39 227.629 253.521 229.815" stroke="#1D1D1B" stroke-linecap="round" stroke-linejoin="round"/>
<path d="M233.23 96.4841C240.936 101.993 251.169 103.685 257.867 110.382C262.671 115.166 265.008 121.994 265.622 128.752C266.237 135.509 265.26 142.297 264.293 149.015C262.641 160.576 260.982 172.141 259.317 183.709C258.552 189.057 257.756 194.485 255.53 199.41C253.977 202.999 251.477 206.097 248.298 208.373C247.065 209.244 245.706 209.923 244.269 210.388" stroke="#1D1D1B" stroke-linecap="round" stroke-linejoin="round"/>
<path d="M248.484 208.656C249.694 210.922 250.162 213.511 249.824 216.058C250.887 216.677 251.712 217.634 252.166 218.777C252.621 219.92 252.679 221.183 252.332 222.362" stroke="#1D1D1B" stroke-linecap="round" stroke-linejoin="round"/>
<path d="M247.547 231.376C246.548 231.668 245.586 232.07 244.676 232.574C242.776 233.631 241.134 235.096 239.868 236.864C238.602 238.631 237.743 240.657 237.354 242.796C236.467 248.104 240.506 253.874 244.908 256.966" stroke="#1D1D1B" stroke-linecap="round" stroke-linejoin="round"/>
<path d="M249.48 240.964C249.062 239.788 248.762 238.573 248.584 237.338C248.508 236.637 248.529 235.929 248.644 235.233C248.82 234.293 249.256 233.421 249.903 232.716C250.629 231.956 251.452 231.295 252.351 230.752L253.63 229.916C256.072 228.32 258.62 226.89 261.254 225.636C261.547 225.573 261.843 225.526 262.141 225.495C265.505 225.162 269.101 226.824 272.475 225.605C272.619 226.888 272.349 228.184 271.704 229.302C271.059 230.42 270.072 231.302 268.889 231.819C267.697 232.308 266.418 232.55 265.13 232.529C263.842 232.508 262.571 232.226 261.395 231.698" stroke="#1D1D1B" stroke-linecap="round" stroke-linejoin="round"/>
<path d="M262.034 232.463C261.511 233.218 260.803 233.826 259.978 234.23C259.152 234.634 258.238 234.82 257.32 234.769" stroke="#1D1D1B" stroke-linecap="round" stroke-linejoin="round"/>
<path d="M266.929 234.024C267.382 237.046 265.649 240.067 263.192 241.9C260.633 243.594 257.696 244.631 254.641 244.921" stroke="#1D1D1B" stroke-linecap="round" stroke-linejoin="round"/>
<path d="M275.578 223.228C276.254 223.968 276.893 224.741 277.492 225.544C278.758 227.219 279.864 229.01 280.795 230.892C281.314 231.915 281.771 232.968 282.165 234.044C282.901 236.003 283.454 238.026 283.817 240.087V240.268" stroke="#1D1D1B" stroke-linecap="round" stroke-linejoin="round"/>
<path d="M246.301 249.907C249.985 250.935 253.798 251.426 257.622 251.367C260.551 251.336 263.466 250.975 266.314 250.289C272.861 248.728 278.944 244.811 283.9 240.218" stroke="#1D1D1B" stroke-linecap="round" stroke-linejoin="round"/>
<path d="M248.556 235.253C247.088 237.387 246.093 239.81 245.638 242.36C245.183 244.91 245.278 247.527 245.917 250.037C246.15 250.955 246.46 251.851 246.844 252.716C247.537 254.618 248.936 256.18 250.752 257.077C251.547 257.393 252.412 257.497 253.26 257.379C253.53 257.347 253.796 257.29 254.055 257.208C254.618 257.038 255.144 256.765 255.606 256.402C256.292 255.875 256.829 255.18 257.168 254.384C257.507 253.589 257.635 252.719 257.54 251.86" stroke="#1D1D1B" stroke-linecap="round" stroke-linejoin="round"/>
<path d="M244.773 232.827C246.389 232.465 248.051 232.363 249.699 232.524" stroke="#1D1D1B" stroke-linecap="round" stroke-linejoin="round"/>
<path d="M217.457 246.331C220.093 249.354 223.296 251.832 226.885 253.622C230.176 255.228 233.626 256.487 237.178 257.379C239.747 258.084 242.577 258.668 244.863 257.006C247.579 257.881 250.482 258.006 253.263 257.369C253.532 257.327 253.797 257.27 254.059 257.198" stroke="#1D1D1B" stroke-linecap="round" stroke-linejoin="round"/>
<path d="M262.082 225.061C264.268 222.735 267.531 221.859 270.462 220.59C273.896 219.031 277.05 216.918 279.799 214.336C285.822 213.576 291.73 212.088 297.395 209.905C297.667 212.865 295.652 215.685 293.074 217.176C290.495 218.666 287.444 219.089 284.502 219.492C282.574 221.659 280.377 223.571 277.966 225.182" stroke="#1D1D1B" stroke-linecap="round" stroke-linejoin="round"/>
<path d="M281.995 222.725C284.414 222.324 286.779 221.648 289.045 220.711C292.769 220.542 296.5 220.663 300.205 221.073C302.804 221.365 305.402 221.668 308.122 222.01C307.969 222.758 307.654 223.464 307.198 224.077C306.742 224.69 306.156 225.194 305.483 225.555L305.251 225.686C303.782 226.376 302.149 226.641 300.537 226.451C298.926 226.31 297.365 225.867 295.703 225.625C292.967 226.391 290.151 226.83 287.313 226.935C285.633 228.644 283.557 229.914 281.27 230.631" stroke="#1D1D1B" stroke-linecap="round" stroke-linejoin="round"/>
<path d="M282.5 233.924C284.053 233.585 285.578 233.13 287.063 232.564C288.372 232.091 289.671 231.557 291.001 230.902C295.231 228.072 301.194 229.513 305.585 226.874C305.92 226.68 306.222 226.435 306.482 226.149L305.636 225.726" stroke="#1D1D1B" stroke-linecap="round" stroke-linejoin="round"/>
<path d="M287.133 232.755C289.218 232.755 291.313 232.755 293.649 232.755C296.972 233.75 300.387 234.405 303.842 234.709C303.824 235.23 303.659 235.736 303.367 236.169C303.075 236.602 302.667 236.944 302.191 237.156C301.236 237.561 300.205 237.753 299.169 237.72C296.804 237.759 294.441 237.554 292.118 237.106" stroke="#1D1D1B" stroke-linecap="round" stroke-linejoin="round"/>
<path d="M291.871 237.146C289.474 238.667 286.777 239.656 283.965 240.047" stroke="#1D1D1B" stroke-linecap="round" stroke-linejoin="round"/>
<path d="M46.2149 214.829L25.2852 223.51" stroke="#1D1D1B" stroke-linecap="round" stroke-linejoin="round"/>
<path d="M26.8581 223.601C26.3545 223.702 25.8509 223.792 25.3373 223.853C21.9732 224.316 18.4983 224.175 15.3458 225.373C12.1932 226.572 9.53418 229.12 6.90537 231.567C6.90718 231.856 6.99805 232.138 7.16563 232.374C7.33321 232.61 7.56938 232.789 7.84207 232.886C8.39661 233.072 8.98934 233.114 9.5644 233.007C12.0119 232.789 14.2795 231.63 15.8897 229.774C17.7937 229.465 19.7282 229.387 21.6509 229.543C14.54 231.635 7.70341 234.567 1.28516 238.274C1.69811 239.281 5.45499 239.584 6.98595 239.392L7.3284 239.332" stroke="#1D1D1B" stroke-linecap="round" stroke-linejoin="round"/>
<path d="M21.1307 234.246C16.2976 235.573 11.5815 237.294 7.02984 239.392C4.88113 240.379 2.79957 241.453 0.785156 242.615C1.19055 243.215 1.73234 243.71 2.3661 244.06C2.99987 244.41 3.70758 244.605 4.43124 244.629C5.87441 244.654 7.31239 244.45 8.69173 244.025L23.2257 240.288L23.538 240.208" stroke="#1D1D1B" stroke-linecap="round" stroke-linejoin="round"/>
<path d="M25.9652 238.959C25.0588 239.392 24.1623 239.855 23.276 240.329C17.1469 243.638 11.5734 247.885 6.75781 252.918C7.14117 253.319 7.61691 253.621 8.14357 253.796C8.67023 253.972 9.23183 254.016 9.77943 253.925C10.8624 253.764 11.9109 253.424 12.8816 252.918C20.2947 249.483 27.7077 246.039 35.4632 242.484C33.3005 244.198 31.3766 246.193 29.7423 248.416C28.9009 249.542 28.2945 250.826 27.9588 252.19C27.6231 253.555 27.5652 254.974 27.7883 256.362C27.9259 256.797 28.1921 257.179 28.5517 257.46C28.9113 257.74 29.3475 257.905 29.8027 257.933C31.1012 254.93 33.2828 252.394 36.0575 250.662C38.3942 248.023 42.0201 246.955 44.8202 244.81C50.1986 240.691 51.8706 233.229 56.7354 228.475" stroke="#1D1D1B" stroke-linecap="round" stroke-linejoin="round"/>
<path d="M29.1055 238.456C29.6939 237.463 30.4955 236.613 31.4523 235.968" stroke="#1D1D1B" stroke-linecap="round" stroke-linejoin="round"/>
<path d="M26.8584 230.58C25.9811 231.39 25.2726 232.366 24.7734 233.451" stroke="#1D1D1B" stroke-linecap="round" stroke-linejoin="round"/>
<path d="M23.7969 228.747L25.066 227.468" stroke="#1D1D1B" stroke-linecap="round" stroke-linejoin="round"/>
<path d="M178.606 223.167C178.374 225.514 178.203 227.881 178.203 230.419C178.203 231.003 178.203 231.597 178.203 232.201C179.502 232.362 180.802 232.493 182.111 232.584C185.238 232.82 188.375 232.874 191.508 232.745H191.992C191.992 232.473 191.992 232.201 191.992 231.929C191.992 231.164 191.992 230.398 191.992 229.683C188.9 229.573 185.808 229.462 182.715 229.371C182.596 227.325 182.663 225.272 182.917 223.238" stroke="#1D1D1B" stroke-linecap="round" stroke-linejoin="round"/>
<path d="M192.153 225.182L192.335 227.307L184.589 227.397C184.41 226.623 184.48 225.812 184.791 225.081C187.299 225.182 189.766 225.232 192.153 225.182Z" stroke="#1D1D1B" stroke-linecap="round" stroke-linejoin="round"/>
<path d="M161.936 224.719C161.588 225.935 161.472 227.206 161.594 228.465C161.613 228.729 161.646 228.991 161.695 229.251L161.614 228.989" stroke="#1D1D1B" stroke-linecap="round" stroke-linejoin="round"/>
<path d="M157.342 224.386C157.261 225.422 157.261 226.462 157.342 227.498C157.342 227.911 157.342 228.314 157.442 228.717" stroke="#1D1D1B" stroke-linecap="round" stroke-linejoin="round"/>
<path d="M127.631 215.544C127.294 216.694 127.191 217.899 127.328 219.089C127.358 219.479 127.419 219.866 127.51 220.247C127.56 220.479 127.63 220.71 127.701 220.932" stroke="#1D1D1B" stroke-linecap="round" stroke-linejoin="round"/>
<path d="M125.555 213.883C124.834 215.753 124.663 217.79 125.061 219.754C125.126 220.094 125.21 220.43 125.313 220.761" stroke="#1D1D1B" stroke-linecap="round" stroke-linejoin="round"/>
<path d="M127.469 219.069C136.74 223.771 146.833 226.636 157.191 227.508" stroke="#1D1D1B" stroke-linecap="round" stroke-linejoin="round"/>
<path d="M162.035 228.405C167.117 229.443 172.267 230.116 177.445 230.419" stroke="#1D1D1B" stroke-linecap="round" stroke-linejoin="round"/>
<path d="M192.453 231.869C197.241 232.644 202.11 232.796 206.937 232.322" stroke="#1D1D1B" stroke-linecap="round" stroke-linejoin="round"/>
<path d="M207.876 225.958C208.116 228.13 207.868 230.328 207.15 232.393C207.058 232.687 206.95 232.976 206.828 233.259" stroke="#1D1D1B" stroke-linecap="round" stroke-linejoin="round"/>
<path d="M210.659 225.958C210.599 227.852 210.36 229.738 209.944 231.587C209.798 232.154 209.62 232.713 209.41 233.259" stroke="#1D1D1B" stroke-linecap="round" stroke-linejoin="round"/>
<path d="M209.969 231.587L213.152 231.295" stroke="#1D1D1B" stroke-linecap="round" stroke-linejoin="round"/>
<path d="M213.794 224.75C213.865 226.94 213.724 229.132 213.371 231.296" stroke="#1D1D1B" stroke-linecap="round" stroke-linejoin="round"/>
<path d="M124.735 219.814C114.32 233.559 107.095 249.449 103.584 266.332C100.038 286.696 110.13 309.154 121.834 326.99" stroke="#1D1D1B" stroke-linecap="round" stroke-linejoin="round"/>
<path d="M184.406 294.158C184.746 294.439 185.051 294.761 185.313 295.115C186.084 296.209 186.553 297.488 186.672 298.821C186.818 300.012 186.818 301.216 186.672 302.407C186.672 302.699 186.592 303.011 186.542 303.353" stroke="#1D1D1B" stroke-linecap="round" stroke-linejoin="round"/>
<path d="M184.609 299.627C185.234 300.876 185.858 302.125 186.513 303.383C190.109 310.433 194.027 317.533 197.592 324.533L198.841 327" stroke="#1D1D1B" stroke-linecap="round" stroke-linejoin="round"/>
<path d="M142.688 236.653C159.388 251.882 173.356 269.861 183.983 289.808" stroke="#1D1D1B" stroke-linecap="round" stroke-linejoin="round"/>
<path d="M132.277 261.075C142.349 263.583 152.583 266.202 161.144 272.023C169.05 277.391 174.973 285.115 180.744 292.739" stroke="#1D1D1B" stroke-linecap="round" stroke-linejoin="round"/>
<path d="M147.539 283.886C157.559 284.975 167.375 287.47 176.698 291.298" stroke="#1D1D1B" stroke-linecap="round" stroke-linejoin="round"/>
<path d="M191.579 233.621C196.463 255.971 195.659 279.189 189.242 301.148" stroke="#1D1D1B" stroke-linecap="round" stroke-linejoin="round"/>
<path d="M182.078 233.843C187.704 253.598 189.395 274.266 187.054 294.672" stroke="#1D1D1B" stroke-linecap="round" stroke-linejoin="round"/>
<path d="M188.52 302.628C188.781 302.155 189.053 301.671 189.305 301.188C197.75 285.761 204.592 269.508 209.721 252.686" stroke="#1D1D1B" stroke-linecap="round" stroke-linejoin="round"/>
<path d="M190.301 304.834C195.46 301.461 200.148 297.417 204.241 292.809" stroke="#1D1D1B" stroke-linecap="round" stroke-linejoin="round"/>
<path d="M191.477 306.627C193.757 306.416 196.037 307.03 197.903 308.359V308.278" stroke="#1D1D1B" stroke-linecap="round" stroke-linejoin="round"/>
<path d="M197.766 324.432C204.554 309.758 211.393 294.954 215.17 279.223C217.894 268.484 218.665 257.343 217.446 246.331C216.83 241.246 215.62 236.25 213.841 231.446" stroke="#1D1D1B" stroke-linecap="round" stroke-linejoin="round"/>
<path d="M159.578 33.2584C160.278 33.2406 160.969 33.4094 161.582 33.7475C162.194 34.0855 162.705 34.5807 163.063 35.1819" stroke="#1D1D1B" stroke-width="0.5" stroke-linecap="round" stroke-linejoin="round"/>
<path d="M173.062 35.5246C173.982 34.6191 175.078 33.9123 176.282 33.448C177.486 32.9837 178.773 32.7718 180.063 32.8256C182.633 32.9509 185.13 33.7309 187.314 35.0915" stroke="#1D1D1B" stroke-width="0.5" stroke-linecap="round" stroke-linejoin="round"/>
<path d="M174.023 43.2989C174.138 42.5981 174.454 41.9458 174.934 41.4218C175.413 40.8977 176.035 40.5247 176.723 40.3481C177.903 40.1582 179.113 40.312 180.208 40.7913C182.116 41.47 183.925 42.4015 185.586 43.5608" stroke="#1D1D1B" stroke-linecap="round" stroke-linejoin="round"/>
<path d="M175.975 41.8889C175.623 42.7646 175.623 43.7425 175.975 44.6182C175.975 44.7189 176.076 44.8196 176.177 44.8397C176.277 44.8599 176.428 44.598 176.408 44.4067C176.511 43.9796 176.526 43.5361 176.451 43.1032C176.377 42.6703 176.215 42.2572 175.975 41.8889Z" stroke="#1D1D1B" stroke-width="0.5" stroke-linecap="round" stroke-linejoin="round"/>
<path d="M161.348 41.436C161.129 41.8001 161 42.2118 160.974 42.6361C160.947 43.0605 161.024 43.4849 161.197 43.8732C161.278 44.0444 161.459 44.2358 161.63 44.1552C161.686 44.1141 161.729 44.0586 161.756 43.9948C161.782 43.931 161.791 43.8611 161.781 43.7927C161.837 42.9832 161.688 42.1728 161.348 41.436Z" stroke="#1D1D1B" stroke-width="0.5" stroke-linecap="round" stroke-linejoin="round"/>
<path d="M159.918 41.8892C160.142 41.4391 160.453 41.0384 160.835 40.7109C161.024 40.547 161.249 40.429 161.492 40.3661C161.735 40.3032 161.989 40.2971 162.235 40.3484C162.696 40.5139 163.097 40.816 163.383 41.2145C164.129 42.0845 164.803 43.0141 165.397 43.9941" stroke="#1D1D1B" stroke-linecap="round" stroke-linejoin="round"/>
<path d="M164.673 37.5078C165.437 38.3752 165.98 39.4139 166.258 40.5359C166.535 41.6579 166.537 42.8301 166.265 43.9533C166.265 44.0439 166.214 44.1346 166.194 44.2151C165.449 46.7732 163.364 48.737 161.38 50.5397C160.65 51.1261 160.023 51.8308 159.527 52.6244C159.459 52.7516 159.425 52.8935 159.426 53.0374C159.427 53.1755 159.455 53.3121 159.506 53.4402C159.613 53.7019 159.762 53.9437 159.95 54.1552C160.755 55.1411 161.714 55.9912 162.79 56.673" stroke="#1D1D1B" stroke-width="0.5" stroke-linecap="round" stroke-linejoin="round"/>
<path d="M164.391 55.3943C164.74 55.3924 165.086 55.4724 165.399 55.6281C165.712 55.7838 165.984 56.0107 166.194 56.2906" stroke="#1D1D1B" stroke-width="0.5" stroke-linecap="round" stroke-linejoin="round"/>
<path d="M167.828 57.4086C168.381 57.2001 168.857 56.8283 169.194 56.3426C169.53 55.8569 169.711 55.2803 169.712 54.6895" stroke="#1D1D1B" stroke-width="0.5" stroke-linecap="round" stroke-linejoin="round"/>
<path d="M172.654 66.6035C170.335 64.4248 167.683 62.6298 164.798 61.286C164.133 60.9733 163.408 60.8051 162.673 60.7925C162.302 60.7934 161.937 60.8858 161.61 61.0614C161.283 61.2371 161.005 61.4906 160.8 61.7996C160.685 61.9625 160.615 62.152 160.596 62.35C160.576 62.548 160.608 62.7476 160.687 62.9298C160.767 63.1119 160.893 63.2704 161.052 63.39C161.211 63.5095 161.398 63.5861 161.595 63.6124C161.877 63.6124 162.169 63.6124 162.451 63.703C165.992 64.0853 169.442 65.0661 172.654 66.6035Z" stroke="#1D1D1B" stroke-width="0.5" stroke-linecap="round" stroke-linejoin="round"/>
<path d="M162.418 63.9146C162.282 64.613 162.282 65.331 162.418 66.0295" stroke="#1D1D1B" stroke-width="0.5" stroke-linecap="round" stroke-linejoin="round"/>
<path d="M161.551 66.1099H162.427L172.64 66.6738H172.761" stroke="#1D1D1B" stroke-width="0.5" stroke-linecap="round" stroke-linejoin="round"/>
<path d="M163.105 70.1885C164.515 70.9298 166.122 71.2082 167.698 70.9841" stroke="#1D1D1B" stroke-width="0.5" stroke-linecap="round" stroke-linejoin="round"/>
<path d="M165.582 91.7812C165.922 94.3369 166.599 96.8362 167.596 99.2137C168.624 101.73 169.979 104.1 171.625 106.263C173.293 108.447 175.252 110.392 177.447 112.044C178.102 112.538 178.766 112.991 179.461 113.424C181.576 114.747 183.851 115.796 186.23 116.546C189.548 117.587 193.017 118.063 196.493 117.956C199.378 117.872 202.235 117.366 204.974 116.455L205.206 116.375C207.786 115.477 210.23 114.226 212.468 112.659C214.525 111.213 216.399 109.522 218.047 107.623C220.388 104.95 222.233 101.88 223.496 98.5591" stroke="#1D1D1B" stroke-width="0.5" stroke-linecap="round" stroke-linejoin="round"/>
<path d="M212.293 101.892C214.073 103.896 215.966 105.795 217.964 107.582" stroke="#1D1D1B" stroke-width="0.5" stroke-linecap="round" stroke-linejoin="round"/>
<path d="M215.059 97.3914C217.47 98.5728 219.783 99.9433 221.978 101.49" stroke="#1D1D1B" stroke-width="0.5" stroke-linecap="round" stroke-linejoin="round"/>
<path d="M212.477 112.719L212.426 112.659L207.148 106.465" stroke="#1D1D1B" stroke-width="0.5" stroke-linecap="round" stroke-linejoin="round"/>
<path d="M205.116 116.214L201.309 108.832" stroke="#1D1D1B" stroke-width="0.5" stroke-linecap="round" stroke-linejoin="round"/>
<path d="M194.406 109.869C194.891 112.568 195.564 115.23 196.421 117.835" stroke="#1D1D1B" stroke-width="0.5" stroke-linecap="round" stroke-linejoin="round"/>
<path d="M187.39 108.912C187.017 111.38 186.634 113.847 186.262 116.314" stroke="#1D1D1B" stroke-width="0.5" stroke-linecap="round" stroke-linejoin="round"/>
<path d="M180.708 105.579L177.516 111.903" stroke="#1D1D1B" stroke-width="0.5" stroke-linecap="round" stroke-linejoin="round"/>
<path d="M176.86 100.885L171.824 106.092" stroke="#1D1D1B" stroke-width="0.5" stroke-linecap="round" stroke-linejoin="round"/>
<path d="M173.759 95.3457C171.5 96.2997 169.406 97.6049 167.555 99.213" stroke="#1D1D1B" stroke-width="0.5" stroke-linecap="round" stroke-linejoin="round"/>
<path d="M121.859 326.99H198.83" stroke="#1D1D1B" stroke-linecap="round" stroke-linejoin="round"/>
</svg>
