<svg width="629" height="667" viewBox="0 0 629 667" fill="none" xmlns="http://www.w3.org/2000/svg">
<path d="M569.524 94.7009H126.352V665.959H569.524V94.7009Z" fill="#EDEDED" stroke="#1D1D1B" stroke-miterlimit="10"/>
<path d="M322.131 29.475V28.4478C327.147 18.1504 335.649 9.9624 346.129 5.33617C356.122 0.601908 367.509 -0.290205 378.118 2.82984V3.26126C389.79 2.41654 401.428 5.29353 411.361 11.4787V11.5815H410.827H410.437C404.037 11.1991 397.72 13.1803 392.685 17.1488V17.7856C388.559 18.0158 384.485 18.8249 380.584 20.1893C374.206 22.3121 368.883 26.7963 365.709 32.7209L363.818 34.7753C358.497 36.7484 352.749 37.2799 347.156 36.3161V36.5626C345.52 38.5803 343.281 40.0204 340.766 40.6713C338.469 41.3421 336.106 41.7622 333.719 41.9245C328.767 42.3764 323.343 42.8079 319.727 46.2387C318.206 47.8649 317.105 49.8372 316.517 51.985C315.93 54.1327 315.876 56.3912 316.358 58.5649C317.4 62.9096 319.424 66.9576 322.275 70.398L323.61 70.5213C323.446 71.9259 323.363 73.339 323.364 74.7533C323.363 77.841 323.735 80.9175 324.473 83.9158H320.076C319.172 82.4572 318.289 80.9986 317.447 79.4989C314.443 74.2386 311.873 68.7421 309.762 63.0639C309.092 68.2284 309.845 73.4778 311.94 78.2457C306.914 71.6303 304.245 63.5236 304.359 55.2162C304.357 51.0732 305.291 46.9833 307.091 43.2517C308.891 39.5201 311.511 36.2433 314.755 33.6659C317.097 32.0734 319.564 30.6719 322.131 29.475Z" fill="#1D1D1B"/>
<path d="M358.027 84.4087C357.308 86.1949 357.308 88.1899 358.027 89.9761C358.027 90.1815 358.232 90.3869 358.438 90.428C358.643 90.4691 358.951 89.935 358.91 89.5446C359.12 88.6735 359.149 87.7687 358.997 86.8857C358.845 86.0027 358.515 85.1599 358.027 84.4087ZM327.064 124.941C326.831 125.274 326.688 125.66 326.648 126.064C326.608 126.468 326.672 126.875 326.835 127.247C326.998 127.618 327.255 127.942 327.579 128.186C327.903 128.43 328.285 128.586 328.687 128.639C329.263 128.639 329.858 128.639 330.434 128.824V129.338C330.157 130.762 330.157 132.227 330.434 133.652V133.919L351.267 135.069V134.823C346.536 130.379 341.126 126.717 335.241 123.976C333.884 123.338 332.406 122.995 330.906 122.969C330.153 122.959 329.409 123.133 328.739 123.477C328.07 123.821 327.494 124.323 327.064 124.941ZM323.612 70.6855C324.2 64.8022 326.042 59.1133 329.016 54.0029C331.99 48.8924 336.025 44.4793 340.85 41.0615V40.7945C343.365 40.1435 345.605 38.7034 347.24 36.6857V36.4392C352.833 37.4031 358.581 36.8716 363.903 34.8984C365.101 43.0346 368.241 50.7626 373.058 57.4282C377.876 64.0938 384.228 69.5009 391.578 73.1919L391.455 73.4384C393.23 77.6698 394.606 82.0578 395.564 86.5453C396.541 91.0422 398.316 95.3281 400.803 99.2002C402.073 101.118 403.757 102.728 405.73 103.912C407.703 105.096 409.915 105.823 412.206 106.041C414.635 106.058 417.004 105.286 418.956 103.841C420.909 102.396 422.34 100.357 423.034 98.0292C425.955 95.6492 429.701 94.5261 433.45 94.9065C435.297 95.1138 437.061 95.7885 438.574 96.8669C440.088 97.9453 441.301 99.3918 442.1 101.07C443.223 104.22 443.259 107.655 442.203 110.828C440.818 116.111 438.045 120.928 434.169 124.777C430.234 128.637 425.218 131.209 419.787 132.152C418.433 132.447 417.032 132.447 415.678 132.152C414.028 131.652 412.585 130.628 411.569 129.235C410.476 127.795 409.693 126.144 409.268 124.387C409.368 127.648 408.356 130.846 406.399 133.457C404.441 136.067 401.654 137.934 398.495 138.751C395.336 139.568 391.992 139.287 389.014 137.953C386.036 136.62 383.6 134.313 382.106 131.413C382.814 136.025 384.973 140.292 388.27 143.595C391.805 146.867 396.013 149.328 400.598 150.806C396.593 152.637 393.126 155.466 390.53 159.023C380.894 160.112 369.84 163.522 360.266 165.186C350.692 166.851 340.234 167.57 331.502 163.235C329.903 162.248 328.529 160.938 327.468 159.388C326.406 157.838 325.681 156.084 325.338 154.237C324.722 150.713 324.351 147.15 324.229 143.575C323.469 134.617 320.777 125.948 319.709 117.032C319.321 113.622 319.252 110.183 319.503 106.76L324.311 107.089C324.308 106.795 324.379 106.506 324.516 106.247C325.53 104.628 326.808 103.19 328.297 101.994C332.406 98.3168 336.515 94.3108 338.118 89.0927L336.392 88.5996C335.179 86.6006 333.805 84.7043 332.283 82.9296C331.699 82.1167 330.882 81.5005 329.941 81.1628C329.44 81.0583 328.922 81.0707 328.426 81.199C327.931 81.3272 327.472 81.5679 327.085 81.9024C326.318 82.6064 325.703 83.4592 325.277 84.4087H324.64V84.0389C323.902 81.0407 323.529 77.9642 323.53 74.8764C323.477 73.4791 323.504 72.0798 323.612 70.6855Z" fill="white"/>
<path d="M324.473 84.0798V84.4496L325.11 89.0719C321.603 94.3473 319.626 100.491 319.399 106.822C319.148 110.245 319.216 113.683 319.604 117.094C320.672 126.009 323.364 134.679 324.124 143.636C324.246 147.211 324.617 150.774 325.234 154.298C325.576 156.145 326.301 157.9 327.363 159.45C328.424 160.999 329.799 162.31 331.397 163.296C340.129 167.631 350.587 166.994 360.161 165.248C360.586 170.848 360.108 176.481 358.744 181.929L358.292 181.806C356.696 182.504 355.056 183.094 353.381 183.573C347.213 185.349 340.739 185.797 334.385 184.887C328.032 183.977 321.943 181.729 316.522 178.293C315.885 177.903 315.269 177.471 314.673 177.04C308.509 172.477 303.608 166.421 300.431 159.441C297.253 152.462 295.904 144.789 296.511 137.144C293.8 141.878 292.478 147.279 292.696 152.729C292.914 158.179 294.663 163.458 297.743 167.96C293.484 166.354 289.795 163.522 287.144 159.822C284.493 156.122 282.998 151.719 282.848 147.169C282.848 139.137 286.957 131.659 291.826 125.332C297.353 118.244 303.989 112.081 309.228 104.788C314.468 97.4948 318.351 88.6405 317.159 79.7451L317.385 79.6218C318.227 81.1215 319.111 82.5801 320.015 84.0387L324.473 84.0798Z" fill="#1D1D1B"/>
<path d="M328.193 83.4844C327.745 84.227 327.483 85.0668 327.429 85.9324C327.375 86.798 327.532 87.6638 327.885 88.456C328.049 88.8053 328.419 89.1956 328.768 89.0312C328.882 88.9473 328.97 88.8342 329.024 88.704C329.079 88.5738 329.097 88.4313 329.076 88.2917C329.19 86.6405 328.886 84.9873 328.193 83.4844ZM325.275 89.0723L324.536 84.4089H325.173C325.629 83.4907 326.265 82.6734 327.042 82.0053C327.429 81.6708 327.889 81.4301 328.384 81.3019C328.879 81.1736 329.397 81.1612 329.898 81.2657C330.84 81.6034 331.657 82.2196 332.24 83.0325C333.763 84.8072 335.137 86.7035 336.35 88.7025L338.075 89.1956C336.555 94.4137 332.302 98.4197 328.255 102.097C326.765 103.293 325.487 104.731 324.474 106.35C324.337 106.609 324.266 106.898 324.269 107.192L319.461 106.863C319.711 100.508 321.725 94.3487 325.275 89.0723Z" fill="white"/>
<path d="M379.844 608.519C380.141 610.947 380.141 613.403 379.844 615.832C379.844 616.428 379.68 617.065 379.577 617.763H379.454C386.788 632.144 394.781 646.627 402.054 660.905L404.602 665.938H247.632C223.758 629.555 203.171 583.763 210.403 542.204C217.566 507.764 232.304 475.35 253.549 447.312L254.206 447.189C254.339 447.883 254.51 448.569 254.72 449.243L259.199 448.134C259.014 447.357 258.891 446.567 258.829 445.771H259.117C278.029 455.363 298.617 461.208 319.747 462.987H320.035C319.871 460.874 319.871 458.752 320.035 456.639V456.146C323.117 456.393 326.199 456.536 329.301 456.577V457.317C328.59 459.798 328.353 462.391 328.603 464.959L329.568 464.836C339.935 466.955 350.44 468.328 361.003 468.945H362.544C362.544 470.136 362.544 471.348 362.544 472.581C365.195 472.91 367.845 473.177 370.516 473.362L370.311 476.032C381.787 516.33 385.236 558.489 380.46 600.116L376.968 601.02C378.568 603.224 379.56 605.81 379.844 608.519Z" fill="#D1D0D1"/>
<path d="M449.498 199.453C451.276 199.781 453.074 199.987 454.881 200.07V200.213C452.304 206.988 448.54 213.249 443.766 218.703L443.601 218.559C439.527 214.914 435.665 211.038 432.034 206.952L431.664 206.664C433.551 204.057 434.944 201.125 435.773 198.015L435.527 197.461C436.587 197.003 437.604 196.453 438.567 195.817L438.876 196.269C442.309 197.66 445.865 198.727 449.498 199.453Z" fill="#3773FF"/>
<path d="M409.697 220.962L417.463 236.021V236.35L416.991 236.514C411.404 238.372 405.576 239.403 399.691 239.575V239.328C397.945 234.014 396.572 228.584 395.582 223.078V222.421C399.696 222.409 403.796 221.94 407.807 221.024C408.382 220.901 408.978 220.757 409.553 220.593L409.697 220.962Z" fill="#3773FF"/>
<path d="M258.789 445.978C258.85 446.774 258.974 447.563 259.158 448.34L254.679 449.449C254.469 448.775 254.298 448.089 254.166 447.395C253.354 443.388 253.703 439.233 255.172 435.418L255.727 434.884C256.918 436.197 258.255 437.369 259.713 438.376L259.405 438.808C258.727 441.133 258.517 443.57 258.789 445.978Z" fill="#D1D0D1"/>
<path d="M391.476 73.1505C384.126 69.4596 377.774 64.0525 372.956 57.3869C368.139 50.7213 364.999 42.9933 363.801 34.8571L365.691 32.8027C368.865 26.8782 374.188 22.3939 380.566 20.2711C384.467 18.9067 388.541 18.0976 392.668 17.8675V17.2306C397.702 13.2622 404.02 11.281 410.419 11.6633H410.81H411.344C430.492 13.882 447.812 26.0439 458.229 42.2734C468.646 58.5029 472.611 78.7384 471.337 98.1727C473.308 102.602 475.753 106.804 478.631 110.704C484.055 118.285 490.424 125.085 495.376 133.056C500.311 140.697 503.477 149.344 504.642 158.366C505.82 167.409 504.169 176.594 499.917 184.662C501.061 180.491 501.333 176.128 500.714 171.847C500.096 167.567 498.6 163.46 496.321 159.783C496.424 165.602 495.256 171.374 492.9 176.696C490.544 182.018 487.056 186.762 482.679 190.599C480.296 192.666 477.658 194.419 474.83 195.817C468.672 198.93 461.816 200.409 454.921 200.111C453.115 200.028 451.317 199.822 449.538 199.494C445.888 198.737 442.318 197.636 438.875 196.207L438.567 195.755C437.604 196.391 436.586 196.941 435.526 197.399C433.056 198.493 430.428 199.187 427.739 199.453C421.878 199.734 416.012 199.04 410.378 197.399C406.773 196.678 403.305 195.388 400.105 193.578C398.521 192.653 397.153 191.401 396.09 189.906C395.027 188.412 394.295 186.708 393.941 184.908C393.583 187.494 393.992 190.128 395.117 192.483C396.242 194.839 398.033 196.812 400.27 198.159C395.828 195.978 392.08 192.607 389.442 188.421C386.805 184.235 385.382 179.399 385.333 174.451C385.429 168.945 387.263 163.61 390.572 159.208C393.168 155.651 396.634 152.821 400.639 150.991C396.054 149.513 391.847 147.052 388.312 143.78C385.015 140.477 382.856 136.21 382.148 131.597C383.642 134.498 386.078 136.805 389.056 138.138C392.034 139.472 395.377 139.753 398.537 138.936C401.696 138.119 404.483 136.252 406.441 133.641C408.398 131.031 409.41 127.833 409.31 124.571C409.735 126.329 410.518 127.979 411.611 129.42C412.627 130.813 414.069 131.837 415.72 132.337C417.074 132.632 418.475 132.632 419.829 132.337C425.267 131.334 430.27 128.697 434.17 124.777C438.047 120.941 440.827 116.14 442.224 110.869C443.28 107.696 443.244 104.261 442.121 101.11C441.322 99.4327 440.109 97.9862 438.595 96.9078C437.082 95.8294 435.318 95.1547 433.472 94.9474C429.723 94.5669 425.976 95.69 423.055 98.07C422.361 100.398 420.93 102.437 418.978 103.882C417.025 105.327 414.656 106.099 412.227 106.082C409.937 105.864 407.724 105.137 405.751 103.953C403.778 102.769 402.095 101.159 400.824 99.241C398.287 95.3387 396.478 91.0096 395.482 86.4628C394.524 81.9754 393.148 77.5873 391.373 73.356L391.476 73.1505ZM369.389 40.8969C370.56 52.0111 373.909 59.0576 390.161 70.4593C383.258 60.5367 376.334 50.7168 369.389 40.8969Z" fill="#1D1D1B"/>
<path d="M508.667 439.691C510.835 440.954 512.517 442.907 513.445 445.239C514.372 447.57 514.491 450.145 513.783 452.552L512.776 452.737C511.963 449.302 510.078 446.215 507.393 443.923C501.341 438.408 493.794 434.806 485.699 433.571C477.605 432.335 469.326 433.521 461.905 436.98H458.679C455.788 443.835 450.861 449.637 444.564 453.6C441.64 455.34 438.477 456.642 435.174 457.462C433.029 458.011 430.845 458.396 428.641 458.612C427.388 458.777 426.114 458.859 424.86 458.92H423.073C416.787 458.876 410.512 458.389 404.294 457.462L372.345 453.353L368.421 452.963L363.367 453.805C352.141 455.712 340.771 456.654 329.384 456.619C326.302 456.619 323.22 456.435 320.118 456.188C316.228 455.859 312.352 455.346 308.489 454.647C296.642 452.598 285.308 448.257 275.123 441.869H273.459C268.585 442.392 263.691 441.097 259.713 438.233C258.255 437.225 256.918 436.053 255.728 434.74C255.37 434.377 255.034 433.993 254.721 433.59C250.41 427.825 247.972 420.877 247.735 413.683C247.52 406.541 248.037 399.396 249.276 392.359L255.81 345.992L262.343 299.645L263.083 294.961C261.713 294.098 260.439 293.174 259.261 292.188L264.788 290.133C251.183 266.065 243.69 239.027 242.969 211.389L240.914 210.054C245.991 203.155 252.924 197.84 260.905 194.729C269.801 190.948 279.396 189.202 288.888 187.251C298.381 185.299 307.914 183.142 316.44 178.52L316.543 178.376C322.68 182.285 329.674 184.647 336.925 185.258V186.203C337.618 191.416 338.999 196.514 341.034 201.364C343.13 206.497 345.893 211.332 349.252 215.745C352.655 220.198 356.65 224.166 361.127 227.537C362.463 228.543 363.819 229.468 365.237 230.351C369.551 233.05 374.19 235.19 379.043 236.72C385.812 238.843 392.889 239.815 399.98 239.596C405.864 239.424 411.693 238.393 417.279 236.535L417.752 236.371C423.015 234.539 428 231.988 432.565 228.79C436.762 225.84 440.584 222.391 443.947 218.518C448.722 213.065 452.486 206.803 455.063 200.029V199.885C461.957 200.183 468.813 198.705 474.972 195.591C490.689 206.829 511.564 210.28 525.227 223.942C535.027 233.7 539.794 247.629 541.047 261.413C542.3 275.198 540.307 289.045 538.335 302.747C534.965 326.331 531.582 349.922 528.185 373.52C526.624 384.429 525.001 395.502 520.46 405.548C517.292 412.868 512.193 419.188 505.708 423.832L506.099 424.407C508.548 429.102 509.447 434.453 508.667 439.691Z" fill="#3773FF"/>
<path d="M627.626 451.812C627.316 453.339 626.672 454.779 625.742 456.029C624.812 457.279 623.617 458.308 622.243 459.044L621.771 459.311C618.774 460.718 615.444 461.259 612.155 460.872C608.868 460.585 605.684 459.681 602.293 459.188C596.714 460.749 590.969 461.646 585.179 461.858C581.751 465.346 577.517 467.935 572.851 469.398L571.762 469.953C569.863 466.113 567.607 462.461 565.023 459.044L565.989 458.325C568.628 456.565 571.141 454.622 573.509 452.511L574.207 453.292C579.142 452.473 583.967 451.094 588.589 449.183C596.185 448.838 603.797 449.085 611.354 449.922C616.778 450.498 622.079 451.114 627.626 451.812Z" fill="white"/>
<path d="M622.51 459.516L624.236 460.379C623.706 460.964 623.089 461.463 622.407 461.858C613.449 467.138 601.286 464.2 592.657 470.076C589.945 471.37 587.294 472.5 584.623 473.465C581.594 474.621 578.483 475.548 575.316 476.239L574.638 476.485C573.834 474.289 572.901 472.142 571.844 470.055L572.933 469.5C577.599 468.038 581.833 465.448 585.26 461.961C591.05 461.748 596.795 460.852 602.375 459.29C605.765 459.783 608.949 460.687 612.237 460.975C615.525 461.361 618.855 460.82 621.852 459.414L622.325 459.146L622.51 459.516Z" fill="white"/>
<path d="M618.856 477.718C618.818 478.782 618.481 479.814 617.886 480.696C617.29 481.579 616.459 482.277 615.486 482.71C613.539 483.536 611.436 483.928 609.323 483.861C604.498 483.941 599.678 483.521 594.941 482.608H594.632C589.741 485.71 584.241 487.728 578.504 488.524H578.155C577.415 484.32 576.287 480.194 574.785 476.198L575.463 475.951C578.63 475.26 581.741 474.333 584.77 473.178L584.914 473.568C589.167 473.568 593.441 473.568 598.207 473.568C604.933 475.644 611.851 477.034 618.856 477.718Z" fill="white"/>
<path d="M565.103 459.043C567.687 462.46 569.943 466.112 571.842 469.952C572.899 472.038 573.832 474.185 574.637 476.382C576.138 480.378 577.266 484.504 578.006 488.708V489.078C567.898 498.364 555.406 506.355 542.133 509.622C536.374 510.973 530.482 511.676 524.566 511.717C516.8 511.828 509.057 510.825 501.576 508.738L500.795 508.923C499.489 503.822 499.285 498.502 500.195 493.316C501.106 488.131 503.11 483.198 506.075 478.847H506.26C506.619 476.929 507.509 475.149 508.828 473.711C510.309 472.161 511.987 470.814 513.821 469.705L516.43 468C521.413 464.744 526.609 461.827 531.983 459.269C532.581 459.141 533.184 459.045 533.792 458.981L533.668 458.098C538.127 453.352 544.784 451.565 550.762 448.977C557.768 445.797 564.202 441.487 569.808 436.219C582.094 434.669 594.147 431.633 605.702 427.18C606.257 433.22 602.147 438.972 596.888 442.012C591.628 445.053 585.403 445.916 579.403 446.737C575.466 451.142 570.986 455.028 566.069 458.303L565.103 459.043Z" fill="white"/>
<path d="M524.57 512.684C524.752 514.458 524.469 516.249 523.748 517.881C523.028 519.513 521.895 520.929 520.461 521.99C519.49 522.725 518.388 523.269 517.214 523.592C516.681 523.74 516.139 523.857 515.591 523.942C513.861 524.182 512.098 523.97 510.475 523.325C506.772 521.496 503.917 518.31 502.504 514.43C501.721 512.665 501.089 510.837 500.613 508.965L501.394 508.78C508.937 510.871 516.743 511.861 524.57 511.718V512.684Z" fill="black"/>
<path d="M510.927 455.942C514.111 459.074 516.022 463.275 516.289 467.734L516.433 467.96L513.824 469.665C511.99 470.774 510.311 472.121 508.831 473.671L508.42 473.28C505.06 472.951 501.668 473.159 498.373 473.897L498.065 473.404C494.189 475.56 490.84 478.548 488.257 482.154C485.674 485.759 483.923 489.892 483.128 494.256C481.32 505.082 489.559 516.854 498.538 523.161C493.874 526.55 488.1 525.359 482.861 523.921C475.615 522.1 468.578 519.532 461.863 516.258C454.542 512.605 448.009 507.551 442.633 501.384C441.376 491.01 438.907 480.82 435.277 471.021L434.332 470.774C435.051 466.361 435.34 461.889 435.195 457.421C438.497 456.601 441.661 455.299 444.584 453.559C450.881 449.596 455.809 443.794 458.699 436.939H461.925C469.348 433.49 477.625 432.313 485.715 433.556C493.806 434.799 501.348 438.406 507.393 443.924C510.078 446.215 511.963 449.302 512.776 452.737C512.983 453.788 512.983 454.87 512.776 455.921L510.927 455.942Z" fill="#3773FF"/>
<path d="M510.559 523.284C512.182 523.929 513.945 524.142 515.675 523.901C510.001 525.201 504.081 524.945 498.54 523.161C489.561 516.875 481.322 505.083 483.13 494.256C483.925 489.893 485.676 485.76 488.259 482.155C490.842 478.549 494.191 475.561 498.067 473.404L498.375 473.897C501.67 473.159 505.062 472.951 508.422 473.281L508.833 473.671C507.513 475.11 506.624 476.889 506.265 478.807H506.08C503.086 483.161 501.056 488.103 500.128 493.305C499.2 498.506 499.394 503.845 500.697 508.965C501.172 510.837 501.805 512.665 502.587 514.43C504.009 518.295 506.864 521.465 510.559 523.284Z" fill="#3773FF"/>
<path d="M443.6 218.415L443.764 218.559C440.401 222.432 436.578 225.881 432.382 228.831L421.616 216.197L421.41 215.868C422.703 215.114 423.945 214.277 425.129 213.362C427.64 211.448 429.843 209.162 431.663 206.582L432.032 206.87C435.666 210.935 439.528 214.79 443.6 218.415Z" fill="#3773FF"/>
<path d="M385.208 613.347H385.085C398.174 568.554 399.813 521.193 389.851 475.602V473.712H390.837C390.837 473.157 390.837 472.603 390.837 472.048H391.68C401.447 473.628 411.378 473.939 421.225 472.972L421.656 473.116C423.119 468.905 423.625 464.42 423.135 459.989V459.023H424.923C426.176 459.023 427.45 458.879 428.703 458.715L428.847 460.03C428.725 463.895 428.237 467.741 427.388 471.514L433.881 470.918H434.333L435.278 471.165C438.895 480.938 441.356 491.101 442.613 501.446C445.107 523.929 443.534 546.677 437.969 568.603C430.265 600.693 416.314 630.892 402.466 660.824L402.096 661.009C394.844 646.751 386.851 632.248 379.496 617.867H379.619C379.619 617.169 379.804 616.532 379.886 615.936L383.585 616.388C384.139 615.32 384.694 614.436 385.208 613.347Z" fill="#D1D0D1"/>
<path d="M359.752 204.856C357.319 201.32 355.544 197.374 354.513 193.208C353.824 190.393 353.533 187.496 353.65 184.6L353.383 183.635C355.057 183.156 356.698 182.566 358.293 181.868L358.745 181.991C360.109 176.543 360.588 170.91 360.163 165.31C369.737 163.563 380.709 160.153 390.427 159.146C387.118 163.549 385.284 168.884 385.188 174.39C385.237 179.337 386.66 184.173 389.297 188.36C391.934 192.546 395.683 195.917 400.124 198.097C397.888 196.751 396.097 194.777 394.972 192.422C393.847 190.066 393.438 187.432 393.796 184.847C394.15 186.646 394.882 188.35 395.945 189.845C397.007 191.34 398.376 192.591 399.96 193.516C403.16 195.326 406.628 196.616 410.233 197.337C415.866 198.978 421.733 199.672 427.594 199.392C430.283 199.125 432.911 198.432 435.381 197.337L435.628 197.892C434.798 201.002 433.406 203.933 431.518 206.541C429.699 209.12 427.495 211.406 424.985 213.32C423.801 214.235 422.559 215.072 421.266 215.827C417.57 217.964 413.594 219.575 409.452 220.613C408.877 220.778 408.281 220.921 407.706 221.045C403.695 221.961 399.595 222.429 395.481 222.442C390.689 222.432 385.922 221.741 381.325 220.387C377.773 219.347 374.374 217.841 371.217 215.909C370.1 215.231 369.023 214.49 367.991 213.69C364.798 211.195 362.018 208.214 359.752 204.856Z" fill="white"/>
<path d="M428.641 458.572C430.845 458.355 433.029 457.971 435.175 457.421C435.32 461.89 435.031 466.362 434.312 470.775H433.86L427.367 471.371C428.216 467.597 428.704 463.752 428.826 459.887L428.641 458.572Z" fill="#1D1D1B"/>
<path d="M421.616 216.134L432.382 228.768C427.817 231.966 422.832 234.517 417.568 236.349V236.02L409.802 220.962L409.699 220.592C413.841 219.554 417.817 217.943 421.513 215.805L421.616 216.134Z" fill="#3773FF"/>
<path d="M423.095 459.885C423.585 464.317 423.079 468.801 421.616 473.013L421.185 472.869C411.338 473.835 401.407 473.525 391.64 471.944H390.797C390.797 470.383 390.797 468.822 390.797 467.363C384.49 467.137 378.182 466.911 371.875 466.726C371.631 462.552 371.769 458.364 372.286 454.215V453.476L404.234 457.584C410.452 458.511 416.727 458.999 423.013 459.043L423.095 459.885ZM391.475 462.659L391.023 458.303C386.072 458.303 381.038 458.303 376.004 458.098C375.371 459.59 375.227 461.244 375.593 462.823L391.475 462.659Z" fill="#1D1D1B"/>
<path d="M399.796 239.329V239.575C392.705 239.795 385.628 238.822 378.859 236.699L379.003 236.227C379.763 231.193 380.544 226.16 381.304 221.127L381.469 220.428C386.066 221.782 390.832 222.474 395.625 222.483V223.14C396.637 228.627 398.031 234.036 399.796 239.329Z" fill="#3773FF"/>
<path d="M391.023 458.304L391.392 462.639L375.593 462.823C375.226 461.245 375.37 459.59 376.004 458.098C381.12 458.304 386.153 458.407 391.023 458.304Z" fill="white"/>
<path d="M390.756 467.343C390.756 468.802 390.756 470.363 390.756 471.924C390.756 472.479 390.756 473.034 390.756 473.588H389.77C383.379 473.85 376.979 473.741 370.601 473.26C367.93 473.075 365.279 472.808 362.629 472.479C362.629 471.246 362.629 470.034 362.629 468.843C362.629 463.666 362.978 458.838 363.451 454.051V453.784L368.505 452.942L372.45 453.435V454.175C371.933 458.324 371.795 462.511 372.039 466.686C378.141 466.891 384.449 467.117 390.756 467.343Z" fill="white"/>
<path d="M389.851 475.52C399.813 521.111 398.174 568.472 385.085 613.265H385.208C384.694 614.251 384.14 615.32 383.605 616.203L379.907 615.751C380.204 613.322 380.204 610.866 379.907 608.438C379.664 605.717 378.707 603.109 377.133 600.878L380.626 599.974C385.391 558.374 381.943 516.243 370.477 475.972L370.682 473.301C377.06 473.782 383.461 473.892 389.851 473.63V475.52Z" fill="#D1D0D1"/>
<path d="M381.471 220.429L381.306 221.127C380.546 226.16 379.765 231.194 379.005 236.227L378.861 236.699C374.008 235.169 369.369 233.029 365.054 230.331C363.657 229.447 362.301 228.523 360.945 227.516L361.151 227.229L367.664 214.327L368.116 213.731C369.148 214.531 370.225 215.272 371.341 215.95C374.505 217.884 377.911 219.39 381.471 220.429Z" fill="#3773FF"/>
<path d="M368.136 213.834L367.684 214.43L361.171 227.331L360.965 227.619C356.488 224.248 352.492 220.28 349.09 215.827L349.398 215.58L359.671 204.959C362.002 208.349 364.86 211.345 368.136 213.834Z" fill="#3773FF"/>
<path d="M363.348 453.826V454.093C362.875 458.88 362.526 463.707 362.526 468.884H360.985C350.422 468.268 339.917 466.894 329.55 464.776L328.584 464.899C328.335 462.33 328.572 459.738 329.283 457.257V456.517C340.694 456.597 352.091 455.697 363.348 453.826Z" fill="#1D1D1B"/>
<path d="M359.753 204.856L349.48 215.477L349.171 215.723C345.813 211.311 343.05 206.476 340.953 201.343C344.73 198.062 349.001 195.4 353.609 193.454L354.616 193.208C355.616 197.367 357.356 201.312 359.753 204.856Z" fill="#3773FF"/>
<path d="M354.514 193.291L353.508 193.537C348.899 195.483 344.628 198.146 340.851 201.426C338.817 196.576 337.435 191.478 336.742 186.265V185.32C342.273 185.802 347.845 185.259 353.179 183.718L353.446 184.683C353.396 187.588 353.756 190.486 354.514 193.291Z" fill="#3773FF"/>
<path d="M351.244 134.823V135.069L330.411 133.919V133.714C330.134 132.289 330.134 130.824 330.411 129.399V128.886C337.642 129.67 344.687 131.677 351.244 134.823Z" fill="white"/>
<path d="M340.769 40.7939V41.061C335.944 44.4788 331.908 48.8919 328.934 54.0023C325.961 59.1128 324.118 64.8017 323.531 70.685L322.195 70.5617C319.345 67.1213 317.32 63.0733 316.278 58.7286C315.796 56.5549 315.851 54.2964 316.438 52.1487C317.025 50.001 318.127 48.0286 319.648 46.4024C323.264 42.9716 328.688 42.5402 333.639 42.0882C336.056 41.9185 338.447 41.4845 340.769 40.7939Z" fill="#1D1D1B"/>
<path d="M335.221 123.976C341.106 126.717 346.516 130.379 351.247 134.823C344.7 131.658 337.662 129.63 330.434 128.824C329.859 128.824 329.263 128.68 328.688 128.639C328.286 128.586 327.904 128.429 327.579 128.186C327.255 127.942 326.999 127.618 326.836 127.247C326.673 126.875 326.608 126.468 326.648 126.064C326.688 125.66 326.832 125.274 327.065 124.941C327.484 124.311 328.052 123.794 328.718 123.436C329.385 123.077 330.129 122.889 330.886 122.887C332.392 122.938 333.87 123.309 335.221 123.976Z" fill="white"/>
<path d="M320.056 456.25V456.743C319.892 458.855 319.892 460.978 320.056 463.091H319.769C298.638 461.312 278.05 455.466 259.138 445.875H258.85C258.571 443.448 258.781 440.989 259.467 438.644L259.775 438.212C263.752 441.076 268.647 442.371 273.52 441.848H275.184C285.345 448.258 296.657 452.626 308.489 454.709C312.311 455.366 316.166 455.88 320.056 456.25Z" fill="#1D1D1B"/>
<path d="M259.261 292.167C260.494 293.153 261.768 294.077 263.083 294.94L262.343 299.624L255.81 345.971H255.419C236.609 368.277 215.67 388.698 192.898 406.944L193.268 407.417C189.737 417.7 183.395 426.788 174.962 433.651C166.56 440.458 157.244 446.052 147.287 450.271C142.171 452.572 136.747 454.729 131.158 454.38C130.316 454.315 129.479 454.198 128.652 454.03C124.838 453.137 121.272 451.404 118.215 448.956C114.562 445.94 111.204 442.583 108.188 438.931C105.867 436.281 103.442 433.446 102.928 429.974C102.782 429.462 102.672 428.94 102.6 428.412C102.388 426.938 102.514 425.435 102.97 424.016C120.576 393.913 141.379 365.797 165.018 340.157L165.758 340.485C186.022 295.794 210.515 253.143 238.901 213.115C239.481 212.036 240.126 210.993 240.832 209.992L242.886 211.327C243.608 238.965 251.1 266.003 264.706 290.071L259.261 292.167ZM229.84 305.417C239.168 305.089 248.331 302.767 254.104 297.446C249.868 296.647 245.573 296.193 241.263 296.091C236.93 295.998 232.64 296.972 228.771 298.926C227.735 299.425 226.844 300.182 226.183 301.124C225.86 301.6 225.688 302.161 225.688 302.736C225.688 303.311 225.86 303.873 226.183 304.349C226.67 304.795 227.253 305.124 227.887 305.309C228.521 305.494 229.189 305.531 229.84 305.417Z" fill="#3773FF"/>
<path d="M254.104 297.447C248.433 302.768 239.167 305.089 229.839 305.418C229.189 305.532 228.521 305.495 227.886 305.309C227.252 305.124 226.669 304.796 226.182 304.35C225.86 303.874 225.688 303.312 225.688 302.737C225.688 302.162 225.86 301.6 226.182 301.124C226.843 300.183 227.735 299.426 228.771 298.926C232.64 296.973 236.93 295.999 241.263 296.091C245.573 296.194 249.867 296.647 254.104 297.447Z" fill="#3773FF"/>
<path d="M128.652 454.009V454.174C124.332 456.995 120.525 460.531 117.393 464.631C116.555 464.512 115.726 464.347 114.906 464.138C109.417 462.412 104.734 458.765 101.716 453.866C98.4815 448.535 95.9993 442.783 94.3402 436.773C94.3402 436.609 94.3401 436.445 94.1758 436.28C96.8878 433.363 99.7026 430.836 102.394 428.309H102.538C102.61 428.837 102.72 429.359 102.867 429.871C103.38 433.343 105.805 436.178 108.126 438.828C111.142 442.48 114.5 445.837 118.153 448.853C121.221 451.338 124.809 453.101 128.652 454.009Z" fill="#3773FF"/>
<path d="M50.7431 455.592L50.6404 454.894L93.3345 437.185L94.3002 436.877C95.9594 442.887 98.4415 448.639 101.676 453.97C104.694 458.869 109.377 462.516 114.867 464.241L114.599 465.084C104.737 474.739 101.327 489.9 90.2937 498.303C84.582 502.679 77.1855 504.856 72.4189 510.239C66.7589 513.773 62.3087 518.947 59.66 525.071C58.7314 525.015 57.8416 524.679 57.1081 524.106C56.3745 523.534 55.8315 522.753 55.5508 521.866C55.0957 519.035 55.2139 516.142 55.8986 513.357C56.5834 510.573 57.8205 507.955 59.5367 505.657C62.8704 501.122 66.7951 497.053 71.2067 493.557C55.3865 500.809 40.2648 507.938 25.1431 514.84C23.1628 515.873 21.024 516.567 18.815 516.895C17.6979 517.081 16.5523 516.991 15.478 516.633C14.4037 516.275 13.4332 515.659 12.6512 514.84C22.4964 504.554 33.894 495.875 46.4285 489.12L16.6988 496.618C13.8851 497.485 10.9518 497.901 8.00789 497.851C6.5317 497.802 5.08805 497.404 3.79525 496.69C2.50244 495.976 1.39727 494.966 0.570312 493.742C4.67947 491.373 8.9256 489.195 13.3087 487.209C10.1857 487.6 2.52216 487.086 1.67979 484.929C14.7703 477.351 28.7162 471.358 43.2234 467.076C39.3012 466.759 35.3552 466.918 31.4712 467.549C28.1866 471.335 23.5611 473.699 18.5684 474.143C17.3954 474.361 16.1863 474.276 15.0551 473.897C14.4988 473.699 14.0171 473.334 13.6752 472.853C13.3334 472.371 13.148 471.796 13.1443 471.206C18.5068 466.214 23.746 461.078 30.3617 458.571C36.9774 456.065 43.7986 456.537 50.7431 455.592Z" fill="white"/>
<path d="M332.631 21.011C330.474 25.1197 326.365 27.3179 322.132 29.475C319.568 30.6455 317.101 32.0195 314.756 33.5837C311.512 36.1611 308.892 39.4379 307.092 43.1695C305.292 46.9011 304.358 50.991 304.36 55.134C304.228 63.4694 306.898 71.608 311.942 78.2457C309.869 73.5149 309.116 68.3112 309.764 63.1872C311.874 68.8653 314.444 74.3619 317.448 79.6221C318.29 81.1218 319.174 82.5804 320.078 84.039" stroke="#1D1D1B" stroke-linecap="round" stroke-linejoin="round"/>
<path d="M317.223 79.8267C318.414 88.7221 314.531 97.5969 309.292 104.869C304.053 112.142 297.417 118.305 291.89 125.413C286.959 131.741 282.829 139.218 282.911 147.251C283.061 151.8 284.556 156.203 287.208 159.904C289.859 163.604 293.547 166.436 297.807 168.041C294.727 163.539 292.977 158.261 292.759 152.811C292.541 147.361 293.864 141.959 296.574 137.226C295.95 144.875 297.285 152.557 300.452 159.547C303.618 166.538 308.513 172.607 314.675 177.183C315.271 177.615 315.887 178.046 316.524 178.436C321.945 181.872 328.034 184.12 334.387 185.03C340.741 185.94 347.216 185.492 353.383 183.716C355.058 183.238 356.698 182.647 358.294 181.949" stroke="#1D1D1B" stroke-linecap="round" stroke-linejoin="round"/>
<path d="M357.676 185.71C358.087 184.477 358.436 183.244 358.744 181.991C360.108 176.543 360.587 170.91 360.162 165.31" stroke="#1D1D1B" stroke-linecap="round" stroke-linejoin="round"/>
<path d="M390.425 159.065C380.789 160.153 369.735 163.564 360.161 165.228C350.586 166.892 340.129 167.611 331.397 163.276C329.798 162.289 328.424 160.979 327.362 159.429C326.301 157.88 325.575 156.125 325.233 154.278C324.616 150.754 324.246 147.191 324.123 143.616C323.363 134.659 320.672 125.989 319.603 117.073C319.216 113.663 319.147 110.224 319.398 106.801C319.678 100.462 321.712 94.3244 325.274 89.0722L324.534 84.4088V84.039C323.796 81.0407 323.424 77.9642 323.425 74.8765C323.424 73.4622 323.507 72.0492 323.671 70.6445C324.258 64.7612 326.101 59.0723 329.075 53.9618C332.049 48.8514 336.084 44.4383 340.909 41.0205" stroke="#1D1D1B" stroke-linecap="round" stroke-linejoin="round"/>
<path d="M338.426 33.6045C341.179 34.9515 344.114 35.8926 347.137 36.3984C352.73 37.3623 358.479 36.8308 363.8 34.8577" stroke="#1D1D1B" stroke-linecap="round" stroke-linejoin="round"/>
<path d="M347.158 36.6443C345.523 38.662 343.283 40.1021 340.769 40.753C338.472 41.4238 336.109 41.8439 333.721 42.0062C328.77 42.4582 323.346 42.8896 319.73 46.3204C318.209 47.9466 317.107 49.919 316.52 52.0667C315.933 54.2144 315.878 56.4729 316.36 58.6466C317.402 62.9913 319.427 67.0393 322.277 70.4797" stroke="#1D1D1B" stroke-linecap="round" stroke-linejoin="round"/>
<path d="M365.688 32.7216C368.862 26.797 374.185 22.3128 380.563 20.1899C384.464 18.8256 388.538 18.0164 392.664 17.7863C395.171 17.622 397.698 17.6014 400.204 17.6631" stroke="#1D1D1B" stroke-linecap="round" stroke-linejoin="round"/>
<path d="M392.629 17.1481C397.664 13.1797 403.981 11.1984 410.38 11.5808" stroke="#1D1D1B" stroke-linecap="round" stroke-linejoin="round"/>
<path d="M322.07 28.4478C327.087 18.1504 335.588 9.9624 346.068 5.33617C356.062 0.601909 367.448 -0.290205 378.058 2.82984" stroke="#1D1D1B" stroke-linecap="round" stroke-linejoin="round"/>
<path d="M370.477 4.63729C372.939 3.96514 375.455 3.50465 377.996 3.26086C389.668 2.41614 401.306 5.29313 411.239 11.4783" stroke="#1D1D1B" stroke-linecap="round" stroke-linejoin="round"/>
<path d="M363.801 34.8572C364.999 42.9934 368.139 50.7213 372.956 57.3869C377.774 64.0526 384.126 69.4597 391.476 73.1506H391.579" stroke="#1D1D1B" stroke-linecap="round" stroke-linejoin="round"/>
<path d="M390.159 70.4601C373.907 59.0583 370.558 51.9708 369.387 40.8977C376.331 50.7176 383.255 60.5375 390.159 70.4601Z" stroke="#1D1D1B" stroke-linecap="round" stroke-linejoin="round"/>
<path d="M391.351 73.3975C393.126 77.6288 394.502 82.0169 395.46 86.5043C396.438 91.0013 398.212 95.2871 400.699 99.1592C401.97 101.078 403.653 102.687 405.626 103.871C407.599 105.055 409.812 105.782 412.102 106C414.531 106.017 416.9 105.245 418.853 103.8C420.805 102.355 422.236 100.316 422.93 97.9883C425.851 95.6083 429.598 94.4851 433.347 94.8656C435.194 95.0729 436.957 95.7476 438.471 96.826C439.984 97.9044 441.198 99.3509 441.996 101.029C443.119 104.179 443.156 107.614 442.099 110.787C440.751 116.074 438.013 120.905 434.169 124.777C430.233 128.637 425.218 131.209 419.786 132.152C418.433 132.447 417.031 132.447 415.677 132.152C414.027 131.653 412.584 130.628 411.568 129.235C410.475 127.795 409.692 126.144 409.267 124.387C409.367 127.648 408.356 130.847 406.398 133.457C404.44 136.067 401.653 137.934 398.494 138.751C395.335 139.569 391.992 139.287 389.014 137.954C386.035 136.62 383.599 134.314 382.106 131.413C381.9 130.981 381.715 130.55 381.551 130.098" stroke="#1D1D1B" stroke-linecap="round" stroke-linejoin="round"/>
<path d="M382.129 131.433C382.837 136.046 384.996 140.313 388.293 143.616C391.828 146.887 396.035 149.348 400.62 150.826C396.615 152.657 393.148 155.487 390.553 159.044C387.244 163.446 385.41 168.781 385.314 174.287C385.363 179.234 386.785 184.071 389.423 188.257C392.06 192.443 395.809 195.814 400.25 197.995C398.014 196.648 396.222 194.674 395.098 192.319C393.973 189.963 393.564 187.33 393.922 184.744C394.275 186.544 395.008 188.247 396.071 189.742C397.133 191.237 398.502 192.488 400.086 193.413C403.286 195.224 406.754 196.513 410.359 197.235C415.992 198.875 421.859 199.57 427.72 199.289C430.408 199.023 433.037 198.329 435.507 197.235C436.567 196.777 437.584 196.227 438.548 195.591C440.241 194.495 441.723 193.103 442.924 191.482" stroke="#1D1D1B" stroke-linecap="round" stroke-linejoin="round"/>
<path d="M438.832 196.125C442.275 197.554 445.845 198.655 449.495 199.412C451.273 199.74 453.072 199.946 454.878 200.029C461.773 200.327 468.628 198.848 474.787 195.735C477.615 194.338 480.253 192.584 482.636 190.517C487.013 186.681 490.501 181.936 492.857 176.614C495.213 171.292 496.381 165.521 496.278 159.701C496.278 159.455 496.278 159.229 496.278 158.982" stroke="#1D1D1B" stroke-linecap="round" stroke-linejoin="round"/>
<path d="M467.965 85.23C468.299 89.6983 469.418 94.0727 471.273 98.152C473.243 102.581 475.689 106.783 478.566 110.684C483.991 118.264 490.36 125.064 495.311 133.035C500.271 140.677 503.458 149.332 504.639 158.365C505.816 167.408 504.166 176.594 499.914 184.661C501.058 180.49 501.33 176.128 500.711 171.847C500.093 167.566 498.597 163.459 496.318 159.783" stroke="#1D1D1B" stroke-linecap="round" stroke-linejoin="round"/>
<path d="M410.77 11.5603H411.304C430.452 13.779 447.772 25.9409 458.189 42.1704C468.606 58.3999 472.571 78.6354 471.297 98.0698" stroke="#1D1D1B" stroke-linecap="round" stroke-linejoin="round"/>
<path d="M435.729 197.872C434.899 200.982 433.507 203.913 431.619 206.521C429.8 209.1 427.596 211.386 425.086 213.3C423.902 214.215 422.66 215.052 421.367 215.807C417.671 217.944 413.695 219.555 409.553 220.593C408.978 220.758 408.382 220.901 407.807 221.025C403.796 221.941 399.696 222.409 395.582 222.422C390.79 222.412 386.023 221.721 381.426 220.367C377.874 219.327 374.475 217.821 371.318 215.889C370.201 215.211 369.124 214.47 368.092 213.67C364.845 211.174 362.016 208.179 359.709 204.795C357.276 201.259 355.501 197.313 354.47 193.147C353.781 190.332 353.49 187.435 353.607 184.539" stroke="#1D1D1B" stroke-linecap="round" stroke-linejoin="round"/>
<path d="M316.421 178.499C307.894 183.06 298.34 185.278 288.869 187.23C279.397 189.182 269.782 190.928 260.885 194.708C252.904 197.819 245.971 203.134 240.894 210.034C240.188 211.035 239.543 212.077 238.963 213.156C210.577 253.185 186.085 295.836 165.82 340.527C164.45 343.622 163.081 346.745 161.711 349.895" stroke="#1D1D1B" stroke-linecap="round" stroke-linejoin="round"/>
<path d="M165.018 340.157C141.38 365.791 120.577 393.9 102.97 423.996C102.514 425.414 102.388 426.918 102.6 428.392C102.672 428.92 102.782 429.442 102.928 429.954C103.442 433.426 105.867 436.261 108.188 438.911C111.204 442.563 114.562 445.92 118.215 448.936C121.272 451.384 124.838 453.117 128.652 454.01C129.479 454.178 130.316 454.295 131.158 454.36C136.747 454.75 142.171 452.593 147.287 450.251C157.243 446.039 166.558 440.451 174.962 433.652C183.395 426.788 189.737 417.7 193.268 407.417" stroke="#1D1D1B" stroke-linecap="round" stroke-linejoin="round"/>
<path d="M183.285 414.464C186.531 411.998 189.737 409.499 192.901 406.965C215.676 388.693 236.615 368.245 255.421 345.909" stroke="#1D1D1B" stroke-linecap="round" stroke-linejoin="round"/>
<path d="M251.93 309.321C222.808 338.285 189.236 362.4 152.488 380.751" stroke="#1D1D1B" stroke-linecap="round" stroke-linejoin="round"/>
<path d="M137.117 395.871C151.951 400.165 167.936 398.255 182.626 393.283C197.316 388.311 210.671 380.443 223.985 372.739" stroke="#1D1D1B" stroke-linecap="round" stroke-linejoin="round"/>
<path d="M102.457 428.413C99.6624 430.94 96.8476 433.467 94.2383 436.384C94.2383 436.548 94.2383 436.713 94.4026 436.877C96.0618 442.887 98.544 448.639 101.779 453.969C104.796 458.869 109.479 462.516 114.969 464.241C115.788 464.451 116.618 464.616 117.455 464.734C120.587 460.635 124.395 457.099 128.714 454.278" stroke="#1D1D1B" stroke-linecap="round" stroke-linejoin="round"/>
<path d="M242.969 211.369C243.691 239.006 251.183 266.045 264.788 290.113" stroke="#1D1D1B" stroke-linecap="round" stroke-linejoin="round"/>
<path d="M241.184 265.05C244.258 275.742 250.575 285.217 259.264 292.167C260.497 293.154 261.77 294.078 263.085 294.941" stroke="#1D1D1B" stroke-linecap="round" stroke-linejoin="round"/>
<path d="M254.104 297.447C249.867 296.647 245.573 296.194 241.263 296.091C236.93 295.999 232.64 296.973 228.771 298.926C227.735 299.426 226.843 300.183 226.182 301.124C225.86 301.6 225.688 302.162 225.688 302.737C225.688 303.312 225.86 303.874 226.182 304.35C226.669 304.796 227.252 305.124 227.886 305.309C228.521 305.495 229.189 305.532 229.839 305.418C239.167 305.089 248.433 302.768 254.104 297.447Z" stroke="#1D1D1B" stroke-linecap="round" stroke-linejoin="round"/>
<path d="M262.344 299.625L255.81 345.971L249.256 392.338C248.017 399.375 247.5 406.521 247.715 413.663C247.952 420.857 250.39 427.805 254.701 433.57C255.014 433.972 255.35 434.357 255.708 434.72C256.898 436.033 258.236 437.205 259.694 438.212C263.671 441.077 268.565 442.372 273.439 441.849" stroke="#1D1D1B" stroke-linecap="round" stroke-linejoin="round"/>
<path d="M257.207 425.434C262.172 431.917 268.236 437.48 275.123 441.869C285.283 448.278 296.596 452.647 308.428 454.729C312.29 455.428 316.167 455.941 320.057 456.27C323.138 456.516 326.22 456.66 329.323 456.701C340.723 456.745 352.106 455.81 363.347 453.907L368.401 453.065" stroke="#1D1D1B" stroke-linecap="round" stroke-linejoin="round"/>
<path d="M345.059 450.086L368.419 452.962L372.364 453.455L404.313 457.564C410.53 458.491 416.805 458.978 423.091 459.022H424.879C426.132 459.022 427.406 458.879 428.659 458.714C430.863 458.498 433.048 458.113 435.193 457.564C438.495 456.744 441.659 455.442 444.582 453.702C450.879 449.739 455.807 443.937 458.697 437.082C461.543 429.536 462.937 421.52 462.806 413.457" stroke="#1D1D1B" stroke-linecap="round" stroke-linejoin="round"/>
<path d="M279.293 350.737C297.066 383.402 323.066 410.858 354.717 430.384" stroke="#1D1D1B" stroke-linecap="round" stroke-linejoin="round"/>
<path d="M271.098 396.837C288.397 414.75 309.915 428.036 333.68 435.48" stroke="#1D1D1B" stroke-linecap="round" stroke-linejoin="round"/>
<path d="M526.234 245.143C514.517 263.856 506.392 284.59 502.277 306.281" stroke="#1D1D1B" stroke-linecap="round" stroke-linejoin="round"/>
<path d="M496.281 320.271C510.331 308.627 520.122 292.652 524.121 274.849" stroke="#1D1D1B" stroke-linecap="round" stroke-linejoin="round"/>
<path d="M496.278 315.854C492.683 334.056 489.108 352.319 483.314 369.966C477.52 387.613 469.487 404.685 457.734 419.065" stroke="#1D1D1B" stroke-linecap="round" stroke-linejoin="round"/>
<path d="M526.315 317.683C521.149 337.259 512.992 355.92 502.132 373.007C491.285 390.066 479.401 406.442 466.547 422.045" stroke="#1D1D1B" stroke-linecap="round" stroke-linejoin="round"/>
<path d="M469.508 426.606C483.253 424.942 493.32 410.91 507.148 410.171" stroke="#1D1D1B" stroke-linecap="round" stroke-linejoin="round"/>
<path d="M461.906 436.98C469.328 433.521 477.607 432.335 485.701 433.571C493.795 434.806 501.343 438.408 507.395 443.923C510.079 446.215 511.965 449.302 512.778 452.737C512.985 453.788 512.985 454.87 512.778 455.921" stroke="#1D1D1B" stroke-linecap="round" stroke-linejoin="round"/>
<path d="M453.789 456.065C458.178 450.875 464.277 447.422 470.986 446.328C477.649 445.286 484.446 445.481 491.039 446.903C496.89 447.776 502.492 449.877 507.475 453.066C508.691 453.918 509.819 454.889 510.845 455.963C514.029 459.095 515.94 463.296 516.207 467.755" stroke="#1D1D1B" stroke-linecap="round" stroke-linejoin="round"/>
<path d="M474.809 195.776C490.526 207.013 511.401 210.465 525.064 224.126C534.864 233.884 539.631 247.813 540.884 261.598C542.137 275.383 540.144 289.229 538.172 302.932C534.802 326.516 531.419 350.107 528.022 373.705C526.461 384.613 524.838 395.687 520.297 405.732C517.129 413.052 512.03 419.372 505.545 424.016C503.029 425.793 500.258 427.178 497.327 428.125" stroke="#1D1D1B" stroke-linecap="round" stroke-linejoin="round"/>
<path d="M505.934 424.592C508.401 429.216 509.357 434.497 508.666 439.692C510.835 440.955 512.517 442.908 513.444 445.239C514.372 447.57 514.491 450.145 513.782 452.552" stroke="#1D1D1B" stroke-linecap="round" stroke-linejoin="round"/>
<path d="M504.024 470.938C501.988 471.535 500.024 472.355 498.169 473.383C494.293 475.539 490.943 478.528 488.36 482.133C485.778 485.739 484.026 489.872 483.232 494.235C481.424 505.061 489.663 516.833 498.641 523.14" stroke="#1D1D1B" stroke-linecap="round" stroke-linejoin="round"/>
<path d="M507.967 490.496C507.114 488.098 506.502 485.62 506.138 483.101C505.984 481.67 506.025 480.226 506.261 478.807C506.62 476.889 507.51 475.109 508.829 473.671C510.31 472.121 511.988 470.774 513.822 469.665L516.431 467.96C521.414 464.704 526.61 461.787 531.985 459.229C532.582 459.101 533.185 459.005 533.793 458.941C540.655 458.263 547.99 461.653 554.873 459.167C555.168 461.784 554.617 464.427 553.3 466.708C551.984 468.989 549.972 470.788 547.558 471.843C545.127 472.84 542.518 473.333 539.89 473.291C537.262 473.248 534.67 472.672 532.272 471.596" stroke="#1D1D1B" stroke-linecap="round" stroke-linejoin="round"/>
<path d="M533.569 473.157C532.501 474.697 531.057 475.938 529.374 476.761C527.69 477.585 525.824 477.963 523.953 477.861" stroke="#1D1D1B" stroke-linecap="round" stroke-linejoin="round"/>
<path d="M543.554 476.341C544.479 482.504 540.945 488.668 535.932 492.406C530.711 495.861 524.721 497.978 518.488 498.57" stroke="#1D1D1B" stroke-linecap="round" stroke-linejoin="round"/>
<path d="M561.203 454.318C562.583 455.827 563.886 457.404 565.107 459.043C567.69 462.46 569.946 466.113 571.846 469.952C572.903 472.039 573.836 474.186 574.64 476.382C576.142 480.378 577.27 484.504 578.01 488.708V489.078" stroke="#1D1D1B" stroke-linecap="round" stroke-linejoin="round"/>
<path d="M501.477 508.739C508.991 510.836 516.769 511.839 524.57 511.718C530.544 511.655 536.492 510.918 542.301 509.52C555.656 506.335 568.065 498.344 578.174 488.976" stroke="#1D1D1B" stroke-linecap="round" stroke-linejoin="round"/>
<path d="M506.079 478.847C503.085 483.201 501.056 488.143 500.128 493.345C499.199 498.546 499.393 503.885 500.696 509.006C501.172 510.877 501.804 512.705 502.587 514.47C504 518.351 506.855 521.537 510.558 523.366C512.182 524.01 513.944 524.223 515.674 523.982C516.225 523.917 516.769 523.8 517.297 523.633C518.446 523.287 519.519 522.73 520.462 521.989C521.859 520.913 522.956 519.496 523.647 517.873C524.338 516.25 524.6 514.477 524.406 512.724" stroke="#1D1D1B" stroke-linecap="round" stroke-linejoin="round"/>
<path d="M498.375 473.897C501.67 473.159 505.061 472.951 508.422 473.281" stroke="#1D1D1B" stroke-linecap="round" stroke-linejoin="round"/>
<path d="M442.637 501.446C448.013 507.613 454.547 512.666 461.868 516.319C468.583 519.594 475.62 522.162 482.865 523.982C488.105 525.42 493.878 526.612 498.542 523.222C504.083 525.006 510.003 525.261 515.677 523.961C516.224 523.877 516.766 523.76 517.3 523.612" stroke="#1D1D1B" stroke-linecap="round" stroke-linejoin="round"/>
<path d="M533.672 458.058C538.13 453.312 544.787 451.525 550.766 448.936C557.771 445.757 564.206 441.446 569.812 436.179C582.098 434.628 594.151 431.593 605.705 427.139C606.26 433.179 602.151 438.931 596.891 441.972C591.632 445.012 585.406 445.875 579.407 446.697C575.473 451.116 570.992 455.016 566.073 458.304" stroke="#1D1D1B" stroke-linecap="round" stroke-linejoin="round"/>
<path d="M574.288 453.292C579.222 452.473 584.048 451.094 588.67 449.183C596.266 448.838 603.877 449.085 611.435 449.922C616.735 450.518 622.036 451.135 627.584 451.833C627.273 453.36 626.63 454.799 625.699 456.049C624.769 457.299 623.574 458.329 622.201 459.064L621.728 459.331C618.731 460.738 615.401 461.279 612.113 460.893C608.825 460.605 605.641 459.701 602.251 459.208C596.671 460.77 590.926 461.666 585.136 461.879C581.709 465.366 577.475 467.956 572.809 469.418" stroke="#1D1D1B" stroke-linecap="round" stroke-linejoin="round"/>
<path d="M575.32 476.135C578.488 475.444 581.599 474.517 584.628 473.362C587.299 472.396 589.949 471.308 592.661 469.972C601.29 464.2 613.453 467.137 622.411 461.755C623.094 461.359 623.711 460.86 624.24 460.276L622.514 459.413" stroke="#1D1D1B" stroke-linecap="round" stroke-linejoin="round"/>
<path d="M584.77 473.752C589.023 473.752 593.296 473.752 598.063 473.752C604.841 475.781 611.807 477.117 618.855 477.738C618.817 478.802 618.481 479.833 617.885 480.716C617.289 481.598 616.458 482.296 615.486 482.73C613.539 483.555 611.435 483.948 609.322 483.88C604.497 483.96 599.678 483.54 594.94 482.627" stroke="#1D1D1B" stroke-linecap="round" stroke-linejoin="round"/>
<path d="M594.429 482.709C589.538 485.812 584.038 487.83 578.301 488.626" stroke="#1D1D1B" stroke-linecap="round" stroke-linejoin="round"/>
<path d="M93.3309 437.185L50.6367 454.894" stroke="#1D1D1B" stroke-linecap="round" stroke-linejoin="round"/>
<path d="M53.8454 455.078C52.8181 455.284 51.7909 455.469 50.743 455.592C43.8807 456.537 36.7924 456.249 30.3616 458.694C23.9308 461.139 18.5067 466.336 13.1442 471.328C13.1479 471.919 13.3333 472.494 13.6751 472.975C14.017 473.457 14.4987 473.821 15.055 474.02C16.1862 474.399 17.3953 474.484 18.5683 474.266C23.561 473.822 28.1865 471.458 31.4711 467.672C35.3551 467.041 39.3012 466.882 43.2233 467.199C28.718 471.468 14.7721 477.447 1.67969 485.011C2.52206 487.065 10.1856 487.681 13.3086 487.291L14.0072 487.168" stroke="#1D1D1B" stroke-linecap="round" stroke-linejoin="round"/>
<path d="M42.1548 476.793C32.2959 479.5 22.6756 483.012 13.3907 487.291C9.00763 489.305 4.7615 491.496 0.652344 493.865C1.47931 495.089 2.58448 496.099 3.87728 496.813C5.17008 497.528 6.61373 497.925 8.08992 497.974C11.0338 498.025 13.9671 497.609 16.7808 496.741L46.4284 489.12L47.0653 488.955" stroke="#1D1D1B" stroke-linecap="round" stroke-linejoin="round"/>
<path d="M52.0128 486.407C50.1637 487.291 48.3352 488.236 46.5271 489.201C34.0246 495.951 22.6553 504.616 12.832 514.881C13.614 515.7 14.5845 516.315 15.6588 516.673C16.7331 517.031 17.8787 517.121 18.9958 516.935C21.2048 516.608 23.3436 515.913 25.3239 514.881C40.4456 507.876 55.5673 500.85 71.3875 493.598C66.976 497.093 63.0512 501.163 59.7175 505.698C58.0013 507.995 56.7641 510.614 56.0794 513.398C55.3947 516.182 55.2765 519.076 55.7316 521.907C56.0123 522.794 56.5553 523.575 57.2888 524.147C58.0224 524.719 58.9122 525.055 59.8408 525.112C62.4895 518.987 66.9397 513.814 72.5997 510.279C77.3663 504.897 84.7628 502.719 90.4746 498.343C101.446 489.941 104.857 474.718 114.78 465.021" stroke="#1D1D1B" stroke-linecap="round" stroke-linejoin="round"/>
<path d="M58.4258 485.38C59.6262 483.355 61.2613 481.622 63.2129 480.306" stroke="#1D1D1B" stroke-linecap="round" stroke-linejoin="round"/>
<path d="M53.8428 469.316C52.0533 470.968 50.608 472.958 49.5898 475.171" stroke="#1D1D1B" stroke-linecap="round" stroke-linejoin="round"/>
<path d="M47.5977 465.577L50.1864 462.968" stroke="#1D1D1B" stroke-linecap="round" stroke-linejoin="round"/>
<path d="M363.392 454.195C362.92 458.982 362.57 463.809 362.57 468.986C362.57 470.178 362.57 471.39 362.57 472.623C365.221 472.951 367.871 473.218 370.542 473.403C376.92 473.884 383.321 473.994 389.711 473.732H390.697C390.697 473.177 390.697 472.623 390.697 472.068C390.697 470.507 390.697 468.945 390.697 467.487C384.39 467.261 378.082 467.035 371.775 466.85C371.531 462.676 371.669 458.488 372.186 454.339" stroke="#1D1D1B" stroke-linecap="round" stroke-linejoin="round"/>
<path d="M391.023 458.304L391.392 462.639L375.593 462.823C375.226 461.245 375.37 459.59 376.004 458.098C381.12 458.304 386.153 458.407 391.023 458.304Z" stroke="#1D1D1B" stroke-linecap="round" stroke-linejoin="round"/>
<path d="M329.384 457.359C328.674 459.84 328.437 462.432 328.686 465.001C328.724 465.539 328.793 466.074 328.891 466.604L328.727 466.069" stroke="#1D1D1B" stroke-linecap="round" stroke-linejoin="round"/>
<path d="M320.018 456.68C319.853 458.793 319.853 460.915 320.018 463.028C320.018 463.87 320.018 464.692 320.223 465.514" stroke="#1D1D1B" stroke-linecap="round" stroke-linejoin="round"/>
<path d="M259.408 438.644C258.722 440.989 258.513 443.448 258.792 445.875C258.853 446.671 258.977 447.461 259.162 448.237C259.264 448.71 259.408 449.182 259.552 449.634" stroke="#1D1D1B" stroke-linecap="round" stroke-linejoin="round"/>
<path d="M255.172 435.254C253.703 439.069 253.354 443.224 254.166 447.231C254.298 447.925 254.469 448.611 254.679 449.285" stroke="#1D1D1B" stroke-linecap="round" stroke-linejoin="round"/>
<path d="M259.078 445.834C277.99 455.425 298.578 461.271 319.709 463.05" stroke="#1D1D1B" stroke-linecap="round" stroke-linejoin="round"/>
<path d="M329.59 464.877C339.957 466.996 350.462 468.369 361.025 468.986" stroke="#1D1D1B" stroke-linecap="round" stroke-linejoin="round"/>
<path d="M391.637 471.945C401.404 473.525 411.335 473.836 421.182 472.87" stroke="#1D1D1B" stroke-linecap="round" stroke-linejoin="round"/>
<path d="M423.094 459.885C423.583 464.317 423.078 468.802 421.614 473.013C421.426 473.613 421.206 474.202 420.957 474.78" stroke="#1D1D1B" stroke-linecap="round" stroke-linejoin="round"/>
<path d="M428.782 459.885C428.66 463.751 428.172 467.596 427.323 471.369C427.026 472.526 426.663 473.665 426.234 474.78" stroke="#1D1D1B" stroke-linecap="round" stroke-linejoin="round"/>
<path d="M427.367 471.37L433.86 470.774" stroke="#1D1D1B" stroke-linecap="round" stroke-linejoin="round"/>
<path d="M435.175 457.421C435.321 461.89 435.032 466.362 434.312 470.775" stroke="#1D1D1B" stroke-linecap="round" stroke-linejoin="round"/>
<path d="M253.506 447.354C232.262 475.392 217.523 507.806 210.36 542.245C203.128 583.785 223.715 629.597 247.589 665.98" stroke="#1D1D1B" stroke-linecap="round" stroke-linejoin="round"/>
<path d="M375.223 599.008C375.916 599.581 376.537 600.236 377.072 600.959C378.646 603.191 379.603 605.799 379.845 608.519C380.142 610.948 380.142 613.404 379.845 615.833C379.845 616.429 379.681 617.065 379.578 617.764" stroke="#1D1D1B" stroke-linecap="round" stroke-linejoin="round"/>
<path d="M375.633 610.162C376.907 612.71 378.18 615.257 379.516 617.825C386.851 632.205 394.843 646.689 402.116 660.967L404.664 666" stroke="#1D1D1B" stroke-linecap="round" stroke-linejoin="round"/>
<path d="M290.121 481.703C324.189 512.769 352.681 549.443 374.359 590.132" stroke="#1D1D1B" stroke-linecap="round" stroke-linejoin="round"/>
<path d="M268.879 531.522C289.425 536.637 310.299 541.979 327.763 553.853C343.892 564.803 355.972 580.56 367.745 596.111" stroke="#1D1D1B" stroke-linecap="round" stroke-linejoin="round"/>
<path d="M300.027 578.053C320.466 580.274 340.489 585.364 359.507 593.173" stroke="#1D1D1B" stroke-linecap="round" stroke-linejoin="round"/>
<path d="M389.853 475.519C399.815 521.11 398.176 568.471 385.086 613.264" stroke="#1D1D1B" stroke-linecap="round" stroke-linejoin="round"/>
<path d="M370.477 475.971C381.953 516.269 385.402 558.429 380.626 600.055" stroke="#1D1D1B" stroke-linecap="round" stroke-linejoin="round"/>
<path d="M383.605 616.285C384.14 615.319 384.694 614.333 385.208 613.347C402.435 581.877 416.39 548.725 426.854 514.409" stroke="#1D1D1B" stroke-linecap="round" stroke-linejoin="round"/>
<path d="M387.242 620.784C397.767 613.904 407.329 605.655 415.678 596.254" stroke="#1D1D1B" stroke-linecap="round" stroke-linejoin="round"/>
<path d="M389.648 624.44C394.3 624.01 398.952 625.264 402.757 627.974V627.81" stroke="#1D1D1B" stroke-linecap="round" stroke-linejoin="round"/>
<path d="M402.469 660.762C416.317 630.83 430.267 600.631 437.972 568.541C443.529 546.635 445.102 523.908 442.615 501.446C441.359 491.072 438.89 480.881 435.26 471.082" stroke="#1D1D1B" stroke-linecap="round" stroke-linejoin="round"/>
<path d="M324.578 66.8029C326.005 66.7666 327.415 67.111 328.665 67.8006C329.914 68.4903 330.957 69.5003 331.687 70.7267" stroke="#1D1D1B" stroke-width="0.5" stroke-linecap="round" stroke-linejoin="round"/>
<path d="M352.086 71.4254C353.962 69.5784 356.197 68.1365 358.654 67.1894C361.11 66.2423 363.735 65.8101 366.365 65.9197C371.61 66.1754 376.702 67.7665 381.158 70.5421" stroke="#1D1D1B" stroke-width="0.5" stroke-linecap="round" stroke-linejoin="round"/>
<path d="M354.039 87.2851C354.273 85.8555 354.918 84.5249 355.896 83.4559C356.874 82.387 358.142 81.626 359.545 81.2658C361.953 80.8784 364.421 81.1922 366.654 82.1697C370.547 83.5544 374.237 85.4545 377.626 87.8193" stroke="#1D1D1B" stroke-linecap="round" stroke-linejoin="round"/>
<path d="M358.027 84.4084C357.309 86.1946 357.309 88.1896 358.027 89.9758C358.027 90.1812 358.233 90.3867 358.438 90.4277C358.644 90.4688 358.952 89.9347 358.911 89.5444C359.12 88.6732 359.15 87.7685 358.998 86.8854C358.846 86.0024 358.516 85.1596 358.027 84.4084Z" stroke="#1D1D1B" stroke-width="0.5" stroke-linecap="round" stroke-linejoin="round"/>
<path d="M328.192 83.4851C327.744 84.2277 327.482 85.0675 327.428 85.9331C327.375 86.7987 327.531 87.6645 327.884 88.4567C328.048 88.8059 328.418 89.1963 328.767 89.0319C328.881 88.948 328.969 88.8349 329.024 88.7047C329.078 88.5744 329.096 88.4319 329.076 88.2923C329.189 86.6412 328.885 84.988 328.192 83.4851Z" stroke="#1D1D1B" stroke-width="0.5" stroke-linecap="round" stroke-linejoin="round"/>
<path d="M325.273 84.4089C325.73 83.4907 326.365 82.6734 327.143 82.0053C327.53 81.6708 327.989 81.4301 328.485 81.3019C328.98 81.1736 329.498 81.1612 329.999 81.2657C330.941 81.6034 331.758 82.2196 332.341 83.0325C333.863 84.8072 335.238 86.7035 336.45 88.7025" stroke="#1D1D1B" stroke-linecap="round" stroke-linejoin="round"/>
<path d="M334.974 75.4717C336.532 77.2411 337.64 79.3599 338.205 81.6486C338.771 83.9374 338.776 86.3285 338.22 88.6196C338.22 88.8045 338.117 88.9894 338.076 89.1538C336.556 94.3719 332.303 98.3779 328.255 102.055C326.766 103.251 325.488 104.689 324.475 106.308C324.338 106.567 324.267 106.857 324.27 107.15C324.273 107.432 324.328 107.711 324.434 107.972C324.651 108.506 324.956 108.999 325.338 109.43C326.982 111.441 328.938 113.175 331.132 114.566" stroke="#1D1D1B" stroke-width="0.5" stroke-linecap="round" stroke-linejoin="round"/>
<path d="M334.398 111.958C335.112 111.954 335.816 112.117 336.455 112.435C337.093 112.752 337.649 113.215 338.076 113.786" stroke="#1D1D1B" stroke-width="0.5" stroke-linecap="round" stroke-linejoin="round"/>
<path d="M341.406 116.067C342.534 115.641 343.506 114.883 344.192 113.892C344.878 112.901 345.247 111.725 345.248 110.52" stroke="#1D1D1B" stroke-width="0.5" stroke-linecap="round" stroke-linejoin="round"/>
<path d="M351.247 134.823C346.516 130.378 341.106 126.717 335.221 123.976C333.864 123.338 332.386 122.995 330.886 122.969C330.129 122.971 329.385 123.159 328.718 123.518C328.052 123.876 327.484 124.393 327.065 125.023C326.832 125.356 326.688 125.742 326.648 126.146C326.608 126.55 326.673 126.957 326.836 127.329C326.999 127.7 327.255 128.024 327.579 128.268C327.904 128.511 328.286 128.668 328.688 128.721C329.263 128.721 329.859 128.721 330.434 128.906C337.657 129.686 344.694 131.687 351.247 134.823Z" stroke="#1D1D1B" stroke-width="0.5" stroke-linecap="round" stroke-linejoin="round"/>
<path d="M330.372 129.338C330.095 130.763 330.095 132.227 330.372 133.652" stroke="#1D1D1B" stroke-width="0.5" stroke-linecap="round" stroke-linejoin="round"/>
<path d="M328.605 133.816H330.393L351.226 134.967H351.473" stroke="#1D1D1B" stroke-width="0.5" stroke-linecap="round" stroke-linejoin="round"/>
<path d="M331.77 142.136C334.644 143.649 337.922 144.216 341.138 143.759" stroke="#1D1D1B" stroke-width="0.5" stroke-linecap="round" stroke-linejoin="round"/>
<path d="M336.82 186.182C337.513 191.395 338.895 196.494 340.929 201.343C343.026 206.477 345.789 211.312 349.148 215.724C352.55 220.177 356.546 224.145 361.023 227.516C362.359 228.523 363.715 229.447 365.132 230.331C369.447 233.029 374.086 235.169 378.939 236.699C385.708 238.822 392.785 239.795 399.875 239.575C405.76 239.404 411.588 238.372 417.175 236.514L417.647 236.35C422.911 234.518 427.896 231.967 432.461 228.769C436.658 225.82 440.48 222.37 443.843 218.497C448.618 213.044 452.382 206.783 454.959 200.008" stroke="#1D1D1B" stroke-width="0.5" stroke-linecap="round" stroke-linejoin="round"/>
<path d="M432.113 206.808C435.745 210.894 439.607 214.77 443.681 218.415" stroke="#1D1D1B" stroke-width="0.5" stroke-linecap="round" stroke-linejoin="round"/>
<path d="M437.746 197.626C442.665 200.036 447.384 202.832 451.861 205.987" stroke="#1D1D1B" stroke-width="0.5" stroke-linecap="round" stroke-linejoin="round"/>
<path d="M432.482 228.892L432.379 228.769L421.613 216.135" stroke="#1D1D1B" stroke-width="0.5" stroke-linecap="round" stroke-linejoin="round"/>
<path d="M417.466 236.022L409.699 220.963" stroke="#1D1D1B" stroke-width="0.5" stroke-linecap="round" stroke-linejoin="round"/>
<path d="M395.625 223.078C396.614 228.584 397.988 234.014 399.734 239.328" stroke="#1D1D1B" stroke-width="0.5" stroke-linecap="round" stroke-linejoin="round"/>
<path d="M381.305 221.127C380.545 226.16 379.764 231.194 379.004 236.227" stroke="#1D1D1B" stroke-width="0.5" stroke-linecap="round" stroke-linejoin="round"/>
<path d="M367.681 214.327L361.168 227.229" stroke="#1D1D1B" stroke-width="0.5" stroke-linecap="round" stroke-linejoin="round"/>
<path d="M359.835 204.754L349.562 215.375" stroke="#1D1D1B" stroke-width="0.5" stroke-linecap="round" stroke-linejoin="round"/>
<path d="M353.504 193.454C348.896 195.4 344.624 198.063 340.848 201.343" stroke="#1D1D1B" stroke-width="0.5" stroke-linecap="round" stroke-linejoin="round"/>
<path d="M247.633 665.98H404.644" stroke="#1D1D1B" stroke-linecap="round" stroke-linejoin="round"/>
</svg>
