<svg width="374" height="492" viewBox="0 0 374 492" fill="none" xmlns="http://www.w3.org/2000/svg">
<path d="M292.906 440.526C293.1 441.411 293.537 442.224 294.166 442.875V442.961C296.999 448.763 299.641 454.686 302.059 460.679C302.715 465.289 303.907 465.859 304.546 470.712C305.116 475.029 305.53 479.864 302.819 483.301C300.643 486.098 297.016 487.169 293.476 487.86L292.923 484.717C293.355 467.811 290.868 460.368 285.859 444.204V443.98C286.409 444.192 287.006 444.252 287.586 444.152C288.437 443.903 289.205 443.432 289.814 442.788C290.747 441.942 291.645 441.061 292.474 440.129L292.906 440.526Z" fill="#3773FF"/>
<path d="M232.351 195.206C231.361 182.651 228.647 170.291 224.286 158.476L225.15 158.147C228.189 166.298 230.912 174.547 233.318 182.893C250.769 243.513 251.842 307.674 236.427 368.843L235.805 368.688C227.516 346.394 222.334 322.995 217.153 299.699C214.735 288.716 212.3 277.492 213.699 266.336L214.632 262.33C221.872 252.399 227.019 241.102 229.761 229.122C231.893 220.177 232.88 210.997 232.697 201.803C232.697 199.61 232.541 197.434 232.351 195.206Z" fill="#D1D0D1"/>
<path d="M163.115 183.567L159.281 173.119L160.594 172.636C164.543 183.415 169.264 193.896 174.721 203.996C180.443 214.556 186.721 224.805 193.529 234.699C199.901 244.042 206.654 253.125 213.562 262.019L214.65 262.329L213.718 266.336C212.284 277.491 214.719 288.785 217.172 299.699C222.353 322.994 227.534 346.324 235.841 368.774L236.463 368.929C236.463 369.257 236.308 369.585 236.221 369.913L235.22 370.432C228.596 357.516 222.664 344.258 217.448 330.713C213.597 320.939 209.97 311.079 206.361 301.219L163.115 183.567Z" fill="#D1D0D1"/>
<path d="M53.759 218.916C53.546 218.618 53.2438 218.396 52.8961 218.281C52.5484 218.166 52.1733 218.165 51.8247 218.277C51.4793 218.396 51.1728 218.606 50.9385 218.886C50.7041 219.166 50.5507 219.505 50.4949 219.866C50.4448 220.225 50.4779 220.591 50.5917 220.935C50.7055 221.28 50.8969 221.593 51.1512 221.852L49.4241 222.318C49.9837 222.914 50.7244 223.308 51.5311 223.44C52.3399 223.543 53.1602 223.382 53.8698 222.98C54.5794 222.579 55.1403 221.959 55.4688 221.213C55.7582 220.518 55.8127 219.748 55.6242 219.02L53.759 218.916ZM104.362 189.352L105.467 186.071L106.365 186.365C107.237 187.143 107.841 188.176 108.092 189.317C108.282 190.298 108.282 191.307 108.092 192.288C107.644 194.39 106.851 196.403 105.743 198.245C103.187 203.15 100.689 208.083 98.2478 213.045C96.7107 216.136 95.1909 219.244 93.7229 222.37C90.6488 228.794 87.6782 235.258 84.8113 241.763C82.0366 248.014 79.3481 254.305 76.746 260.637C75.468 263.763 74.2073 266.889 73.0329 270.049C70.903 275.51 69.0583 281.078 67.5063 286.73C66.8155 289.269 66.211 291.911 65.6929 294.432C65.572 295.019 65.4684 295.589 65.3648 296.159L67.4718 296.556C69.3733 305.578 68.5743 314.96 65.1748 323.53L68.888 325.084C68.7843 325.395 68.6635 325.706 68.5426 325.999C66.283 330.934 62.206 334.806 57.1613 336.81C51.8683 338.877 46.2872 340.111 40.6162 340.471C34.9655 341.352 29.2098 341.317 23.5702 340.367C17.8598 338.997 12.6879 335.955 8.71613 331.63C4.74432 327.304 2.15315 321.893 1.27406 316.087C0.876792 311.748 0.911502 307.381 1.37768 303.049C1.48612 299.286 2.03091 295.548 3.00111 291.911C3.94766 288.36 6.17453 285.284 9.25302 283.277C19.4278 242.659 35.3446 203.7 56.5223 167.576H57.1268L58.0594 168.526C63.6377 174 70.6841 177.782 77.5923 181.477C81.7991 183.862 86.1812 185.923 90.7006 187.642C93.6062 188.691 96.6373 189.353 99.7158 189.611C101.267 189.758 102.828 189.758 104.379 189.611L104.362 189.352Z" fill="#3773FF"/>
<path d="M319.48 321.267C318.423 320.28 317.58 319.086 317.004 317.76C316.428 316.433 316.131 315.003 316.131 313.557C316.131 312.111 316.428 310.68 317.004 309.354C317.58 308.027 318.423 306.833 319.48 305.846L319.894 305.121C316.404 303.234 313.464 300.473 311.363 297.108L311.622 296.452C305.268 294.105 299.825 289.799 296.078 284.157C297.27 276.697 298.479 269.254 299.532 261.707C302.9 237.359 304.282 212.094 296.942 188.644L300.724 186.623C301.96 189.154 302.899 191.82 303.522 194.567C305.145 200.714 306.774 206.862 308.409 213.01C312.583 216.103 315.404 220.686 316.285 225.806C319.149 226.734 321.595 228.642 323.193 231.194C325.189 234.037 326.382 237.366 326.647 240.829V240.985C328.167 241.312 329.559 242.074 330.654 243.178C331.983 244.732 332.208 246.943 333.365 248.618C335.092 251.035 338.184 251.795 340.791 253.159C348.511 257.183 351.465 266.715 357.906 272.569C361.188 275.557 365.661 277.975 367.146 282.43C369.087 284.27 370.635 286.484 371.698 288.939C372.76 291.393 373.315 294.037 373.329 296.711C373.334 302.057 372.554 307.375 371.015 312.495C366.926 328.513 362.038 344.316 356.369 359.846C355.713 361.572 355.04 363.403 354.383 365.164C353.831 366.632 353.261 368.083 352.656 369.551C351.931 371.416 351.188 373.263 350.446 375.111C349.703 376.959 349.098 378.409 348.425 380.05C347.751 381.69 346.974 383.504 346.232 385.23C345.005 388.097 343.727 390.964 342.432 393.865L342.311 394.02C340.871 390.483 338.991 387.141 336.716 384.073C335.59 382.551 334.367 381.103 333.054 379.739C332.398 379.048 331.724 378.375 331.016 377.736C329.469 376.288 327.818 374.955 326.077 373.747C319.33 369.375 311.629 366.692 303.625 365.924C302.296 365.769 301 365.682 299.722 365.648C300.011 364.421 300.605 363.286 301.449 362.349C308.101 353.114 313.21 342.862 316.578 331.991C315.984 330.16 315.932 328.196 316.428 326.337C316.925 324.477 317.948 322.8 319.376 321.509L319.48 321.267ZM358.39 290.011C358.39 289.389 357.734 288.992 357.164 288.75C355.19 288.002 353.156 287.425 351.085 287.023C336.94 283.794 322.606 280.548 307.494 281.221C323.435 286.143 339.652 291.116 356.335 291.202C357.216 291.168 358.39 290.874 358.39 289.994V290.011Z" fill="#3773FF"/>
<path d="M225.153 158.2L224.29 158.528C222.562 153.555 220.438 148.667 218.176 143.884L218.849 143.573C223.947 145.123 228.565 147.946 232.268 151.776C236.085 155.454 239.384 159.633 243.028 163.484C244.72 165.268 246.488 166.995 248.33 168.665C254.793 174.387 262.06 179.128 269.901 182.739L259.539 190.389C256.571 188.924 253.744 187.19 251.093 185.208C249.105 183.489 246.877 182.07 244.479 180.995C243.267 180.479 241.935 180.314 240.634 180.519C239.333 180.723 238.116 181.289 237.121 182.152L233.374 182.894C230.933 174.594 228.193 166.362 225.153 158.2Z" fill="#3773FF"/>
<path d="M357.166 288.734C357.736 288.975 358.392 289.373 358.392 289.994C358.392 290.616 357.218 291.168 356.337 291.168C339.654 291.082 323.437 286.109 307.496 281.187C322.608 280.514 336.942 283.76 351.087 286.989C353.159 287.397 355.193 287.98 357.166 288.734Z" fill="#3773FF"/>
<path d="M342.349 393.986C341.052 395.612 339.213 396.716 337.167 397.094C334.652 397.159 332.182 396.415 330.121 394.97C332.194 391.516 334.231 387.89 336.304 384.35L336.753 384.039C339.028 387.107 340.908 390.449 342.349 393.986Z" fill="#1D1D1B"/>
<path d="M303.733 365.89V366.2L302.213 368.843L301.608 368.497C301.016 368.313 300.513 367.917 300.194 367.385C299.876 366.853 299.764 366.222 299.881 365.613C301.108 365.648 302.403 365.734 303.733 365.89Z" fill="#1D1D1B"/>
<path d="M259.487 190.388L269.849 182.738C262.008 179.128 254.741 174.386 248.278 168.664L248.434 168.491C258.326 172.138 268.52 174.906 278.899 176.763C281.653 177.146 284.377 177.723 287.05 178.49C288.831 179.041 290.52 179.856 292.059 180.907L292.37 180.476C293.967 180.699 295.493 181.281 296.833 182.178C298.173 183.075 299.292 184.264 300.107 185.656C300.314 186.002 300.521 186.347 300.711 186.692L296.929 188.713C304.269 212.164 302.887 237.428 299.52 261.777C298.501 269.237 297.292 276.68 296.066 284.226C293.389 301.08 290.884 317.935 290.677 334.979C290.539 350.866 292.404 367.15 287.983 382.381V382.675C286.773 382.441 285.528 382.451 284.321 382.702C283.114 382.954 281.97 383.444 280.954 384.143C277.189 386.802 275.963 391.758 273.389 395.575C272.666 396.523 272.003 397.515 271.403 398.545C270.79 399.585 270.592 400.819 270.851 401.999C270.986 402.465 271.202 402.903 271.49 403.294L269.763 404.624C273.215 409.157 276.277 413.975 278.916 419.026L279.348 419.267C278.657 420.493 277.932 421.72 277.172 422.911C275.828 424.816 274.671 426.846 273.718 428.972C273.292 430.042 273.041 431.173 272.975 432.323C272.879 433.503 273.075 434.689 273.545 435.776C273.983 436.862 274.777 437.768 275.797 438.345C276.816 438.922 278.001 439.137 279.158 438.954C279.855 438.788 280.508 438.476 281.075 438.038L281.627 438.211C281.735 439.236 282.056 440.226 282.571 441.119C283.086 442.011 283.782 442.786 284.615 443.392C284.995 443.661 285.407 443.881 285.841 444.048V444.272C290.85 460.436 293.337 467.879 292.905 484.785L293.458 487.928L292.249 488.135C274.896 491.383 257.159 492.064 239.608 490.155C226.846 488.601 214.394 485.268 201.786 482.73C166.226 475.529 131.495 486.08 96.6607 475.822H96.2635C96.2004 429.359 100.491 382.991 109.078 337.327C102.222 326.326 97.396 314.184 94.83 301.477L93.9492 300.994L95.3136 299.492C99.8081 294.731 104.547 290.206 109.51 285.936L108.646 284.019L109.717 282.171C109.993 279.909 110.253 277.629 110.494 275.35C111.733 266.396 111.657 257.309 110.27 248.376C110.27 248.065 110.149 247.737 110.08 247.426C107.748 236.029 102.066 225.443 100.184 213.96L98.1978 212.975C100.627 208.002 103.126 203.069 105.693 198.176C106.801 196.334 107.594 194.321 108.042 192.218C108.232 191.237 108.232 190.229 108.042 189.248L108.767 189.093C117.668 187.33 126.239 184.19 134.172 179.785L134.69 180.113C131.879 185.074 128.165 189.467 123.741 193.065C127.828 196.729 132.892 199.129 138.317 199.972V200.853C133.459 203.906 128.365 206.568 123.085 208.814C129.095 225.357 141.046 238.93 152.444 252.417C173.955 278.017 194.075 304.752 212.718 332.509L217.45 330.644C222.666 344.189 228.598 357.447 235.222 370.362L236.223 369.844C236.223 369.516 236.396 369.188 236.465 368.86C251.88 307.691 250.807 243.53 233.357 182.911L237.104 182.168C238.099 181.306 239.316 180.74 240.617 180.535C241.918 180.331 243.25 180.495 244.461 181.011C246.86 182.086 249.088 183.506 251.076 185.225C253.716 187.199 256.531 188.927 259.487 190.388ZM227.174 392.622C227.273 391.856 227.191 391.078 226.937 390.35C226.682 389.621 226.26 388.962 225.706 388.426C225.147 387.897 224.483 387.493 223.756 387.24C223.03 386.987 222.258 386.89 221.492 386.958V388.684H221.198C220.444 388.76 219.731 389.066 219.157 389.56C218.582 390.054 218.173 390.713 217.986 391.448C217.931 391.691 217.903 391.94 217.899 392.19L216.172 392.104C216.079 393.23 216.369 394.355 216.996 395.296C217.623 396.237 218.55 396.937 219.626 397.284C220.716 397.592 221.871 397.591 222.96 397.28C224.049 396.968 225.029 396.36 225.792 395.523C226.531 394.715 227.012 393.705 227.174 392.622Z" fill="#3773FF"/>
<path d="M286.238 396.041C287.268 396.347 288.341 396.487 289.416 396.456C287.343 401.826 285.253 407.214 282.801 412.412L282.214 412.136C281.35 409.856 280.487 407.577 279.606 405.228L278.863 405.107C279.237 404.848 279.589 404.559 279.917 404.244C282.381 401.954 284.259 399.105 285.392 395.938L286.238 396.041Z" fill="#3773FF"/>
<path d="M282.28 412.135L282.867 412.412C281.814 414.691 280.657 416.953 279.413 419.146L278.981 418.905C276.342 413.854 273.28 409.036 269.828 404.503L271.555 403.173C272.058 403.846 272.671 404.43 273.369 404.9C274.374 405.711 275.635 406.139 276.926 406.109C277.665 406 278.365 405.709 278.964 405.262L279.707 405.383C280.553 407.611 281.417 409.856 282.28 412.135Z" fill="#3773FF"/>
<path d="M217.968 392.225C217.971 391.975 218 391.726 218.054 391.482C218.242 390.748 218.65 390.089 219.225 389.595C219.8 389.101 220.512 388.795 221.267 388.719H221.56V386.992C222.326 386.925 223.098 387.021 223.825 387.274C224.551 387.527 225.215 387.932 225.774 388.46C226.329 388.997 226.75 389.656 227.005 390.385C227.26 391.113 227.341 391.891 227.242 392.657C227.054 393.735 226.549 394.733 225.791 395.523C225.042 396.376 224.069 397.002 222.983 397.331C221.897 397.661 220.74 397.681 219.643 397.388C218.567 397.041 217.64 396.34 217.013 395.4C216.386 394.459 216.096 393.334 216.189 392.208L217.968 392.225Z" fill="#3773FF"/>
<path d="M217.413 330.661L212.681 332.526C194.038 304.769 173.917 278.033 152.407 252.434C141.077 238.947 129.126 225.374 123.047 208.831C128.328 206.585 133.421 203.923 138.279 200.87C140.46 199.452 142.511 197.846 144.41 196.069C146.915 193.703 149.091 191.009 151.681 188.747C154.181 186.341 157.392 184.809 160.835 184.378L163.045 183.566L206.221 301.166C209.935 311.027 213.561 320.887 217.413 330.661Z" fill="#3773FF"/>
<path d="M216.897 179.872L216.171 181.029L215.291 183.084C215.723 183.649 216.04 184.295 216.223 184.983C216.353 185.662 216.353 186.359 216.223 187.038C215.678 190.441 214.551 193.724 212.89 196.743C212.89 196.743 212.89 196.829 212.89 196.881L210.161 195.154C209.263 194.797 208.29 194.667 207.329 194.774C205.66 194.916 204.115 195.71 203.029 196.985C202.572 197.626 202.082 198.243 201.561 198.833C201.196 199.188 200.743 199.438 200.248 199.558C199.971 199.635 199.679 199.635 199.402 199.558C198.59 199.264 198.193 198.366 197.675 197.693C195.948 195.586 192.614 195.482 190.767 193.445C190.062 192.629 189.649 191.603 189.592 190.526C189.534 188.837 189.889 187.159 190.628 185.639C191.785 183.135 193.495 180.787 193.806 178.041L193.668 177.748C195.761 176.797 197.985 176.169 200.265 175.882L200.887 175.796C202.706 175.035 204.677 174.708 206.644 174.843C208.611 174.978 210.519 175.57 212.216 176.573C213.901 177.485 215.471 178.592 216.897 179.872Z" fill="#3773FF"/>
<path d="M229.782 229.122C227.041 241.101 221.894 252.399 214.653 262.329L213.565 262.018C206.657 253.125 199.904 244.042 193.531 234.699L193.704 234.578C195.281 229.225 196.588 223.809 197.624 218.329L202.028 219.209C206.435 212.813 208.329 205.017 207.348 197.313L207.209 194.722C208.17 194.614 209.143 194.745 210.042 195.102L212.771 196.829C212.771 196.829 212.771 196.743 212.771 196.691L213.168 196.898C219.898 206.981 225.471 217.791 229.782 229.122Z" fill="#3773FF"/>
<path d="M207.344 197.313C208.326 205.018 206.432 212.814 202.025 219.21L197.621 218.329C198.791 212.241 199.644 206.097 200.177 199.921V199.506C200.672 199.387 201.125 199.136 201.49 198.781C202.011 198.191 202.501 197.575 202.958 196.933C204.044 195.659 205.589 194.864 207.258 194.723L207.344 197.313Z" fill="#3773FF"/>
<path d="M193.58 177.645L193.718 177.938C193.408 180.684 191.698 183.032 190.541 185.536C189.802 187.056 189.446 188.734 189.504 190.423H188.969C186.794 189.837 184.785 188.755 183.097 187.263L182.734 187.004L183.391 186.072C185.995 182.423 189.508 179.518 193.58 177.645Z" fill="#3773FF"/>
<path d="M159.282 173.12L163.116 183.567L160.905 184.379C157.462 184.81 154.251 186.342 151.752 188.748C149.161 191.01 146.985 193.704 144.481 196.07C142.582 197.847 140.53 199.453 138.35 200.871V199.99C132.925 199.147 127.861 196.747 123.773 193.082C128.198 189.485 131.912 185.092 134.723 180.131L135.017 179.647C138.073 174.639 140.768 169.39 144.256 164.658C147.584 160.153 151.579 156.182 156.104 152.881L156.691 152.984C156.441 154.229 156.337 155.498 156.38 156.766C156.616 159.93 157.29 163.045 158.383 166.022C159.109 168.233 159.851 170.409 160.646 172.584L159.282 173.12Z" fill="#3773FF"/>
<path d="M93.2216 241.262L88.6276 243.438L84.8281 241.711C87.695 235.207 90.6656 228.742 93.7397 222.318L94.5341 222.836C94.9486 236.548 99.508 243.334 104.896 249.396C105.032 249.612 105.214 249.795 105.429 249.932C105.644 250.07 105.887 250.158 106.14 250.19C106.311 250.169 106.475 250.114 106.625 250.028C106.774 249.943 106.905 249.828 107.009 249.692C107.114 249.555 107.19 249.399 107.233 249.232C107.277 249.066 107.287 248.892 107.262 248.722C107.247 248.545 107.206 248.37 107.142 248.204L110.147 247.582C110.147 247.893 110.285 248.221 110.337 248.532C111.724 257.465 111.8 266.552 110.561 275.506L109.387 275.385C103.998 263.965 98.61 252.59 93.2216 241.262Z" fill="#3773FF"/>
<path d="M109.387 275.298L110.562 275.419C110.32 277.698 110.061 279.978 109.784 282.24L108.714 284.088C102.254 285.158 95.7608 285.993 89.2325 286.592H84.5522C84.416 272.099 85.7819 257.631 88.6281 243.42L93.222 241.244C98.6104 252.607 103.999 263.958 109.387 275.298Z" fill="#3773FF"/>
<path d="M110.076 247.496L107.071 248.117C106.876 247.631 106.608 247.176 106.277 246.77C100.996 239.538 97.0212 231.438 94.5327 222.836L93.7383 222.456C95.2063 219.33 96.7261 216.222 98.2632 213.131L100.249 214.115C102.132 225.513 107.814 236.098 110.076 247.496Z" fill="#3773FF"/>
<path d="M75.7435 316.191C75.0872 318.004 74.69 319.921 73.8955 321.683C73.4875 322.804 72.7957 323.801 71.8877 324.576C70.9797 325.351 69.8864 325.877 68.7144 326.103L68.4381 326C68.5589 325.706 68.6798 325.395 68.7835 325.085L65.0703 323.53C68.4827 314.983 69.3055 305.62 67.4364 296.608L65.3294 296.211C65.433 295.624 65.5366 295.054 65.6575 294.484C66.1756 291.894 66.7801 289.304 67.4709 286.783L68.3517 287.007C68.7835 287.715 69.198 288.406 69.5779 289.096C71.6527 293.338 72.6662 298.019 72.5312 302.739C72.2975 308.248 71.5165 313.72 70.1996 319.075C74.7245 313.894 76.3307 306.538 73.2911 297.316L76.4688 296.747C74.8127 288.324 74.6141 279.679 75.8816 271.189L73.0493 270.118C74.2237 266.958 75.4844 263.832 76.7624 260.707C79.399 254.329 82.0875 248.037 84.8277 241.832L88.6272 243.559C85.781 257.77 84.4151 272.238 84.5514 286.731H89.2317C95.7599 286.132 102.254 285.297 108.713 284.227L109.576 286.143C104.613 290.414 99.8746 294.939 95.38 299.699L94.0156 301.202C92.6992 302.743 91.2548 304.17 89.698 305.467C87.6482 307.199 85.1164 308.26 82.4444 308.506C82.2155 310.249 81.5202 311.897 80.4319 313.277C79.3436 314.657 77.9028 315.718 76.2616 316.347L75.7435 316.191Z" fill="#3773FF"/>
<path d="M107.264 248.636C107.288 248.806 107.278 248.979 107.234 249.146C107.191 249.312 107.115 249.468 107.01 249.605C106.906 249.742 106.775 249.856 106.626 249.942C106.476 250.027 106.312 250.082 106.141 250.104C105.888 250.071 105.645 249.983 105.43 249.846C105.215 249.709 105.033 249.525 104.897 249.309C99.5091 243.248 94.9496 236.461 94.5352 222.75C97.0354 231.387 101.034 239.517 106.348 246.771C106.68 247.177 106.947 247.631 107.143 248.118C107.207 248.284 107.248 248.458 107.264 248.636Z" fill="#3773FF"/>
<path d="M76.5057 296.729L73.328 297.299C72.3693 294.441 71.1253 291.687 69.6148 289.079C69.2499 288.358 68.8404 287.66 68.3886 286.989L67.5078 286.765C69.0643 281.1 70.9148 275.521 73.0516 270.049L75.884 271.119C74.6219 279.629 74.8322 288.291 76.5057 296.729Z" fill="#3773FF"/>
<path d="M73.3264 297.299C76.366 306.521 74.7599 313.929 70.235 319.058C71.5519 313.703 72.3329 308.231 72.5665 302.721C72.7016 298.002 71.6881 293.32 69.6133 289.079C71.1238 291.688 72.3678 294.441 73.3264 297.299Z" fill="#3773FF"/>
<path d="M55.6415 219.02C55.83 219.749 55.7754 220.519 55.4861 221.213C55.1575 221.959 54.5967 222.579 53.8871 222.981C53.1775 223.382 52.3572 223.544 51.5484 223.441C50.7416 223.309 50.001 222.914 49.4414 222.318L51.1685 221.852C50.9142 221.594 50.7227 221.28 50.6089 220.936C50.4951 220.591 50.462 220.225 50.5122 219.866C50.568 219.505 50.7214 219.167 50.9557 218.887C51.1901 218.607 51.4966 218.396 51.842 218.278C52.1905 218.165 52.5657 218.167 52.9134 218.281C53.2611 218.396 53.5633 218.619 53.7763 218.917L55.6415 219.02Z" fill="#3773FF"/>
<path d="M154.344 124.283C154.482 124.646 154.62 125.008 154.724 125.371C155.432 128 155.974 130.67 156.347 133.367C156.715 136.452 157.908 139.381 159.801 141.846C162.417 144.37 165.779 145.982 169.386 146.439C177.193 147.924 185.206 147.302 193.116 146.681C195.819 146.638 198.486 146.051 200.957 144.954C203.579 143.465 205.55 141.051 206.483 138.185C207.097 136.457 207.441 134.646 207.502 132.814" stroke="#1D1D1B" stroke-linecap="round" stroke-linejoin="round"/>
<path d="M159.059 147.924C157.825 149.417 156.993 151.2 156.641 153.104C156.391 154.349 156.287 155.618 156.33 156.886C156.566 160.049 157.24 163.165 158.333 166.142C159.059 168.353 159.801 170.529 160.596 172.704C164.545 183.484 169.266 193.964 174.723 204.064C180.445 214.624 186.723 224.873 193.53 234.768C199.903 244.111 206.656 253.194 213.564 262.087" stroke="#1D1D1B" stroke-linecap="round" stroke-linejoin="round"/>
<path d="M216.289 140.033C216.928 141.311 217.567 142.606 218.172 143.884C220.434 148.668 222.489 153.555 224.285 158.528C228.642 170.327 231.355 182.669 232.351 195.207C232.541 197.383 232.644 199.558 232.679 201.752C232.873 210.944 231.898 220.124 229.777 229.071C227.036 241.05 221.889 252.348 214.648 262.278" stroke="#1D1D1B" stroke-linecap="round" stroke-linejoin="round"/>
<path d="M159.73 154.296L163.392 156.99L173.357 164.347C177.22 167.555 181.608 170.073 186.327 171.789C190.869 173.171 195.86 173.067 200.143 175.105C206.766 168.752 211.954 161.056 215.359 152.535C215.946 151.084 216.481 149.599 216.948 148.097" stroke="#1D1D1B" stroke-linecap="round" stroke-linejoin="round"/>
<path d="M217.398 125.458C216.627 130.27 216.051 135.117 215.671 139.998C215.349 144.166 215.188 148.333 215.188 152.501" stroke="#1D1D1B" stroke-linecap="round" stroke-linejoin="round"/>
<path d="M175.066 203.84C176.922 197.962 179.497 192.336 182.735 187.09L183.391 186.157C185.988 182.49 189.502 179.566 193.58 177.678C195.673 176.728 197.897 176.099 200.178 175.813L200.799 175.727C202.618 174.965 204.589 174.639 206.556 174.774C208.523 174.909 210.431 175.501 212.129 176.504C213.851 177.459 215.452 178.618 216.896 179.958C218.364 181.27 219.745 182.686 221.109 184.119L231.938 195.379" stroke="#1D1D1B" stroke-linecap="round" stroke-linejoin="round"/>
<path d="M183.098 187.314C184.785 188.806 186.795 189.888 188.97 190.475" stroke="#1D1D1B" stroke-linecap="round" stroke-linejoin="round"/>
<path d="M193.72 177.938C193.409 180.683 191.7 183.032 190.542 185.536C189.804 187.056 189.448 188.734 189.506 190.423C189.563 191.499 189.976 192.526 190.681 193.341C192.408 195.379 195.862 195.483 197.589 197.589C198.141 198.263 198.539 199.161 199.316 199.454C199.593 199.532 199.885 199.532 200.162 199.454C200.657 199.335 201.11 199.084 201.475 198.729C201.996 198.14 202.486 197.523 202.943 196.881C204.029 195.607 205.574 194.812 207.243 194.671C208.204 194.563 209.177 194.694 210.075 195.051" stroke="#1D1D1B" stroke-linecap="round" stroke-linejoin="round"/>
<path d="M212.766 196.933C212.766 196.933 212.766 196.846 212.766 196.795C214.426 193.775 215.554 190.492 216.099 187.09C216.228 186.411 216.228 185.713 216.099 185.035C215.916 184.346 215.599 183.701 215.166 183.135L216.047 181.08" stroke="#1D1D1B" stroke-linecap="round" stroke-linejoin="round"/>
<path d="M207.242 176.211L213.46 181.53" stroke="#1D1D1B" stroke-linecap="round" stroke-linejoin="round"/>
<path d="M207.343 197.312C208.324 205.017 206.43 212.813 202.023 219.209" stroke="#1D1D1B" stroke-linecap="round" stroke-linejoin="round"/>
<path d="M200.18 199.92C199.646 206.096 198.793 212.241 197.624 218.328C196.587 223.797 195.28 229.213 193.703 234.578" stroke="#1D1D1B" stroke-linecap="round" stroke-linejoin="round"/>
<path d="M213.234 196.933C219.937 207.003 225.487 217.794 229.779 229.104C229.866 229.311 229.952 229.501 230.021 229.709" stroke="#1D1D1B" stroke-linecap="round" stroke-linejoin="round"/>
<path d="M213.7 266.336C212.267 277.492 214.702 288.785 217.155 299.699C222.336 322.995 227.517 346.325 235.824 368.774" stroke="#1D1D1B" stroke-linecap="round" stroke-linejoin="round"/>
<path d="M108.75 189.162C117.651 187.399 126.222 184.259 134.155 179.854" stroke="#1D1D1B" stroke-linecap="round" stroke-linejoin="round"/>
<path d="M156.053 152.933C151.528 156.234 147.533 160.205 144.205 164.71C140.751 169.442 138.023 174.691 134.966 179.699L134.672 180.183C131.861 185.144 128.147 189.537 123.723 193.134C127.81 196.799 132.874 199.199 138.299 200.042" stroke="#1D1D1B" stroke-linecap="round" stroke-linejoin="round"/>
<path d="M160.905 184.379C157.462 184.81 154.251 186.342 151.752 188.748C149.161 191.01 146.985 193.704 144.481 196.07C142.582 197.846 140.53 199.453 138.35 200.871C133.492 203.924 128.398 206.586 123.117 208.831C129.127 225.375 141.078 238.948 152.477 252.435C173.988 278.034 194.108 304.77 212.751 332.527" stroke="#1D1D1B" stroke-linecap="round" stroke-linejoin="round"/>
<path d="M157.242 167.576C157.916 169.424 158.589 171.254 159.28 173.102L163.114 183.55L206.29 301.15C209.9 311.01 213.527 320.87 217.378 330.645C222.594 344.189 228.526 357.447 235.149 370.363C237.861 375.543 240.728 380.724 243.785 385.715C256.478 419.958 260.727 440.974 263.317 477.463" stroke="#1D1D1B" stroke-linecap="round" stroke-linejoin="round"/>
<path d="M224.461 156.334C224.703 156.956 224.927 157.577 225.152 158.199C228.191 166.35 230.914 174.599 233.321 182.945C250.771 243.565 251.844 307.726 236.429 368.895C236.429 369.223 236.274 369.551 236.188 369.879" stroke="#1D1D1B" stroke-linecap="round" stroke-linejoin="round"/>
<path d="M237.07 182.203C238.065 181.34 239.282 180.774 240.583 180.57C241.884 180.365 243.216 180.53 244.428 181.046C246.826 182.121 249.054 183.54 251.042 185.259C253.692 187.241 256.519 188.975 259.487 190.44C265.571 193.429 272.117 195.368 278.848 196.173C278.222 246.08 267.972 295.397 248.659 341.42" stroke="#1D1D1B" stroke-linecap="round" stroke-linejoin="round"/>
<path d="M218.883 143.572C223.98 145.122 228.599 147.945 232.302 151.775C236.119 155.453 239.417 159.632 243.061 163.483C244.754 165.268 246.521 166.994 248.364 168.664C254.826 174.386 262.094 179.127 269.934 182.738L259.572 190.388" stroke="#1D1D1B" stroke-linecap="round" stroke-linejoin="round"/>
<path d="M94.8984 301.547C97.4644 314.253 102.29 326.395 109.147 337.397C100.536 383.058 96.2226 429.426 96.2628 475.892V476.358" stroke="#1D1D1B" stroke-linecap="round" stroke-linejoin="round"/>
<path d="M257.844 363.766C260.641 379.346 264.355 394.747 268.966 409.89" stroke="#1D1D1B" stroke-linecap="round" stroke-linejoin="round"/>
<path d="M266.516 400.376C267.655 401.723 268.761 403.104 269.832 404.503C273.284 409.037 276.346 413.855 278.985 418.905" stroke="#1D1D1B" stroke-linecap="round" stroke-linejoin="round"/>
<path d="M278.917 345.91C283.044 359.083 282.716 373.248 277.984 386.215" stroke="#1D1D1B" stroke-linecap="round" stroke-linejoin="round"/>
<path d="M296.977 188.713C304.317 212.164 302.936 237.428 299.568 261.777C298.549 269.237 297.34 276.68 296.114 284.226C293.437 301.08 290.933 317.935 290.725 334.979C290.587 350.866 292.452 367.151 288.031 382.382" stroke="#1D1D1B" stroke-linecap="round" stroke-linejoin="round"/>
<path d="M248.484 168.422C258.377 172.069 268.571 174.837 278.949 176.694C281.704 177.077 284.428 177.654 287.101 178.42C288.882 178.971 290.57 179.786 292.11 180.838C292.868 181.334 293.569 181.914 294.199 182.565" stroke="#1D1D1B" stroke-linecap="round" stroke-linejoin="round"/>
<path d="M310.829 222.06L308.446 213.08C306.823 206.921 305.176 200.773 303.507 194.637C302.884 191.89 301.945 189.224 300.709 186.693C300.519 186.348 300.312 186.003 300.104 185.657C299.29 184.265 298.171 183.076 296.831 182.179C295.491 181.281 293.964 180.699 292.367 180.477" stroke="#1D1D1B" stroke-linecap="round" stroke-linejoin="round"/>
<path d="M308.43 213.062C312.604 216.156 315.424 220.739 316.305 225.859C319.169 226.787 321.615 228.695 323.213 231.246C325.209 234.09 326.402 237.419 326.667 240.882" stroke="#1D1D1B" stroke-linecap="round" stroke-linejoin="round"/>
<path d="M307.43 232.835C313.01 236.287 319.052 238.933 325.374 240.692L326.652 241.055C328.172 241.382 329.564 242.144 330.658 243.248C331.988 244.802 332.213 247.013 333.37 248.688C335.097 251.105 338.188 251.865 340.796 253.229C348.516 257.253 351.469 266.785 357.911 272.639C361.193 275.627 365.666 278.044 367.151 282.5C369.092 284.34 370.64 286.554 371.702 289.008C372.765 291.463 373.32 294.107 373.334 296.781C373.339 302.127 372.559 307.445 371.02 312.565C366.931 328.583 362.043 344.386 356.374 359.915C355.718 361.642 355.044 363.473 354.388 365.234C353.835 366.702 353.266 368.153 352.661 369.62C351.936 371.485 351.193 373.333 350.45 375.181C349.708 377.029 349.103 378.479 348.43 380.12C347.756 381.76 346.979 383.574 346.236 385.3C345.01 388.167 343.732 391.034 342.437 393.935L342.316 394.09C341.02 395.716 339.18 396.82 337.135 397.198C334.619 397.264 332.149 396.519 330.089 395.074" stroke="#1D1D1B" stroke-linecap="round" stroke-linejoin="round"/>
<path d="M346.789 385.473C347.342 385.378 347.862 385.145 348.299 384.795C348.737 384.444 349.079 383.989 349.293 383.47C349.484 382.941 349.543 382.374 349.465 381.817C349.386 381.26 349.173 380.731 348.844 380.275" stroke="#1D1D1B" stroke-linecap="round" stroke-linejoin="round"/>
<path d="M351.156 375.457C351.753 375.33 352.305 375.047 352.757 374.638C353.209 374.229 353.545 373.707 353.73 373.126C353.928 372.536 353.964 371.904 353.833 371.297C353.703 370.689 353.41 370.127 352.987 369.672" stroke="#1D1D1B" stroke-linecap="round" stroke-linejoin="round"/>
<path d="M354.922 365.441C355.471 365.291 355.974 365.007 356.387 364.615C356.799 364.224 357.109 363.736 357.288 363.196C357.447 362.653 357.471 362.079 357.356 361.525C357.242 360.971 356.993 360.454 356.632 360.019" stroke="#1D1D1B" stroke-linecap="round" stroke-linejoin="round"/>
<path d="M299.828 365.613C301.106 365.613 302.401 365.734 303.731 365.89C311.735 366.658 319.435 369.341 326.183 373.712C327.924 374.921 329.575 376.254 331.122 377.701C331.83 378.34 332.504 379.014 333.16 379.705C334.473 381.069 335.696 382.517 336.821 384.039C339.097 387.107 340.977 390.449 342.417 393.986" stroke="#1D1D1B" stroke-linecap="round" stroke-linejoin="round"/>
<path d="M301.573 368.497C300.981 368.313 300.478 367.917 300.159 367.385C299.84 366.853 299.729 366.222 299.846 365.613C300.135 364.386 300.729 363.252 301.573 362.315C308.225 353.08 313.334 342.828 316.702 331.957C316.108 330.126 316.056 328.162 316.552 326.302C317.049 324.443 318.072 322.766 319.5 321.475" stroke="#1D1D1B" stroke-linecap="round" stroke-linejoin="round"/>
<path d="M295.926 283.812C295.995 283.925 296.07 284.034 296.15 284.14C299.897 289.782 305.34 294.088 311.694 296.435C314.613 297.533 317.682 298.185 320.795 298.369" stroke="#1D1D1B" stroke-linecap="round" stroke-linejoin="round"/>
<path d="M311.367 297.092C314.482 302.059 319.374 305.653 325.045 307.142" stroke="#1D1D1B" stroke-linecap="round" stroke-linejoin="round"/>
<path d="M319.482 305.83C318.425 306.817 317.582 308.011 317.006 309.337C316.43 310.664 316.133 312.095 316.133 313.541C316.133 314.987 316.43 316.417 317.006 317.744C317.582 319.07 318.425 320.264 319.482 321.251" stroke="#1D1D1B" stroke-linecap="round" stroke-linejoin="round"/>
<path d="M322.883 320.146C326.513 323.826 331.005 326.544 335.95 328.051C340.896 329.559 346.14 329.809 351.206 328.78" stroke="#1D1D1B" stroke-linecap="round" stroke-linejoin="round"/>
<path d="M322.66 307.453C323.844 309.375 325.443 311.008 327.341 312.23C329.239 313.453 331.387 314.234 333.627 314.516C338.132 315.038 342.692 314.24 346.752 312.219C350.778 310.19 354.528 307.654 357.909 304.673" stroke="#1D1D1B" stroke-linecap="round" stroke-linejoin="round"/>
<path d="M330.555 307.452C336.323 308.834 342.385 307.815 348.119 306.313C353.853 304.81 359.517 302.859 365.389 302.237" stroke="#1D1D1B" stroke-linecap="round" stroke-linejoin="round"/>
<path d="M301.938 285.712C310.639 290.292 320.032 293.419 329.743 294.968C339.45 296.516 349.275 297.204 359.103 297.023" stroke="#1D1D1B" stroke-linecap="round" stroke-linejoin="round"/>
<path d="M307.496 281.187C323.437 286.109 339.654 291.082 356.337 291.168C357.218 291.168 358.392 290.875 358.392 289.994C358.392 289.113 357.736 288.975 357.166 288.734C355.192 287.986 353.159 287.408 351.087 287.007C336.942 283.76 322.608 280.514 307.496 281.187Z" stroke="#1D1D1B" stroke-linecap="round" stroke-linejoin="round"/>
<path d="M303.629 269.357C322.71 269.448 341.509 273.965 358.549 282.551" stroke="#1D1D1B" stroke-linecap="round" stroke-linejoin="round"/>
<path d="M300.676 256.285L329.846 261.362" stroke="#1D1D1B" stroke-linecap="round" stroke-linejoin="round"/>
<path d="M301.781 244.836C311.172 249.036 321.027 252.109 331.141 253.988" stroke="#1D1D1B" stroke-linecap="round" stroke-linejoin="round"/>
<path d="M303.7 366.166L302.18 368.808C300.58 371.53 299.156 374.35 297.914 377.252L299.261 377.408C307.987 378.585 316.211 382.173 323.008 387.769C325.438 389.689 327.464 392.072 328.966 394.78C329.177 395.156 329.367 395.542 329.536 395.937L330.124 394.918C332.196 391.465 334.234 387.838 336.306 384.298" stroke="#1D1D1B" stroke-linecap="round" stroke-linejoin="round"/>
<path d="M56.4343 167.576C35.2566 203.7 19.3399 242.659 9.16503 283.277C7.90429 288.233 6.76444 293.223 5.71094 298.214" stroke="#1D1D1B" stroke-linecap="round" stroke-linejoin="round"/>
<path d="M9.52816 283.018L9.16548 283.225C6.10917 285.261 3.91328 288.354 2.99992 291.911C2.06073 295.569 1.5507 299.325 1.48012 303.101C0.982879 307.412 0.913458 311.762 1.27288 316.087C2.17097 321.874 4.77064 327.263 8.74105 331.568C12.7115 335.874 17.8731 338.9 23.5691 340.263C29.2086 341.213 34.9644 341.248 40.615 340.367C46.2805 340.041 51.8615 338.841 57.1601 336.81C62.1726 334.8 66.222 330.943 68.4723 326.034C68.5932 325.74 68.7141 325.43 68.8177 325.119" stroke="#1D1D1B" stroke-linecap="round" stroke-linejoin="round"/>
<path d="M68.75 326.104C69.922 325.877 71.0153 325.351 71.9233 324.576C72.8314 323.801 73.5231 322.805 73.9311 321.683C74.7256 319.956 75.1228 318.005 75.7791 316.191C75.9345 315.777 76.0899 315.38 76.2627 314.983C76.9362 313.48 77.8861 312.099 78.4905 310.544C78.8462 309.794 79.0408 308.978 79.0616 308.148C79.0824 307.318 78.9291 306.494 78.6114 305.727" stroke="#1D1D1B" stroke-linecap="round" stroke-linejoin="round"/>
<path d="M76.1914 316.346C77.8455 315.727 79.3007 314.671 80.4017 313.29C81.5027 311.91 82.2083 310.256 82.4433 308.506C85.1552 308.234 87.7148 307.123 89.766 305.329C91.3228 304.031 92.7671 302.604 94.0836 301.063L95.448 299.561C99.9426 294.8 104.681 290.275 109.644 286.005C110.545 289.885 111.926 293.638 113.755 297.178" stroke="#1D1D1B" stroke-linecap="round" stroke-linejoin="round"/>
<path d="M89.2344 286.592C95.7626 285.993 102.256 285.159 108.715 284.088" stroke="#1D1D1B" stroke-linecap="round" stroke-linejoin="round"/>
<path d="M106.363 186.365C107.235 187.144 107.839 188.177 108.09 189.318C108.281 190.299 108.281 191.307 108.09 192.288C107.643 194.391 106.849 196.404 105.742 198.246C103.186 203.15 100.687 208.083 98.2463 213.045C96.7092 216.136 95.1894 219.245 93.7214 222.371C90.6473 228.794 87.6767 235.259 84.8098 241.763C82.0351 248.015 79.3466 254.306 76.7445 260.638C75.4665 263.764 74.2058 266.889 73.0314 270.049C70.9015 275.511 69.0568 281.078 67.5048 286.731C66.814 289.269 66.2095 291.912 65.6914 294.433C65.5705 295.02 65.4669 295.59 65.3633 296.16C64.4837 302.221 63.2672 308.228 61.7192 314.154C59.7849 320.56 56.3999 326.829 50.8906 330.628" stroke="#1D1D1B" stroke-linecap="round" stroke-linejoin="round"/>
<path d="M64.3828 325.274C64.6419 324.704 64.8837 324.117 65.1082 323.547C68.5205 314.999 69.3434 305.637 67.4742 296.625" stroke="#1D1D1B" stroke-linecap="round" stroke-linejoin="round"/>
<path d="M69.6129 289.079C69.248 288.357 68.8385 287.66 68.3867 286.989C68.8185 287.697 69.233 288.457 69.6129 289.079ZM69.6129 289.079C71.6878 293.32 72.7012 298.002 72.5662 302.721C72.3325 308.23 71.5515 313.703 70.2347 319.057C74.7595 313.877 76.3657 306.52 73.3261 297.299C72.3674 294.441 71.1234 291.687 69.6129 289.079Z" stroke="#1D1D1B" stroke-linecap="round" stroke-linejoin="round"/>
<path d="M75.8824 271.188C74.6203 279.698 74.8306 288.36 76.5041 296.798" stroke="#1D1D1B" stroke-linecap="round" stroke-linejoin="round"/>
<path d="M88.6281 243.438C85.7819 257.649 84.416 272.117 84.5522 286.609C84.5522 289.027 84.5522 291.445 84.7249 293.862" stroke="#1D1D1B" stroke-linecap="round" stroke-linejoin="round"/>
<path d="M92.9141 240.623L93.2249 241.262C98.6133 252.613 104.002 263.959 109.39 275.299" stroke="#1D1D1B" stroke-linecap="round" stroke-linejoin="round"/>
<path d="M94.0312 265.662C97.9983 270.668 102.524 275.204 107.519 279.184" stroke="#1D1D1B" stroke-linecap="round" stroke-linejoin="round"/>
<path d="M100.25 214.029C102.132 225.513 107.814 236.099 110.146 247.496C110.146 247.807 110.284 248.135 110.336 248.446C111.724 257.378 111.799 266.465 110.56 275.42C110.319 277.699 110.06 279.979 109.783 282.241" stroke="#1D1D1B" stroke-linecap="round" stroke-linejoin="round"/>
<path d="M94.5352 222.836C97.0354 231.473 101.034 239.603 106.348 246.857C106.68 247.263 106.947 247.717 107.143 248.204C107.207 248.37 107.248 248.544 107.264 248.722C107.288 248.892 107.278 249.065 107.234 249.232C107.191 249.398 107.115 249.554 107.01 249.691C106.906 249.828 106.775 249.942 106.626 250.028C106.476 250.113 106.312 250.168 106.141 250.19C105.888 250.157 105.645 250.069 105.43 249.932C105.215 249.795 105.033 249.611 104.897 249.395C99.5091 243.248 94.9496 236.461 94.5352 222.836Z" stroke="#1D1D1B" stroke-linecap="round" stroke-linejoin="round"/>
<path d="M57.0391 167.576L57.9717 168.526C63.55 174 70.5964 177.782 77.5046 181.477C81.7114 183.862 86.0934 185.923 90.6129 187.642C93.5461 188.699 96.6067 189.361 99.7144 189.611C101.265 189.758 102.827 189.758 104.377 189.611H104.861" stroke="#1D1D1B" stroke-linecap="round" stroke-linejoin="round"/>
<path d="M58.0586 168.405C60.4937 161.687 62.9289 154.97 65.4504 148.114C66.8665 148.425 68.2827 148.77 69.6816 149.15C76.9275 151.277 83.9403 154.129 90.6134 157.664C94.3439 159.563 98.1434 161.687 100.492 165.124C102.237 167.8 103.167 170.926 103.169 174.121C103.215 175.182 103.175 176.244 103.048 177.298C103.048 177.506 103.048 177.713 102.962 177.92C102.3 181.894 101.211 185.784 99.715 189.525" stroke="#1D1D1B" stroke-linecap="round" stroke-linejoin="round"/>
<path d="M106.966 164.123C107.827 164.572 108.562 165.229 109.105 166.034C109.648 166.84 109.981 167.767 110.075 168.734C110.092 169.004 110.092 169.275 110.075 169.545C110.024 171.748 109.58 173.924 108.763 175.969L105.308 186.072L104.203 189.353" stroke="#1D1D1B" stroke-linecap="round" stroke-linejoin="round"/>
<path d="M103.637 178.024C104.174 176.19 105.208 174.541 106.625 173.258C108.07 171.998 109.245 170.459 110.079 168.733" stroke="#1D1D1B" stroke-linecap="round" stroke-linejoin="round"/>
<path d="M69.8873 148.408C71.6144 145.058 73.2378 141.691 75.0685 138.341C74.8929 136.86 74.5866 135.398 74.1531 133.972C73.3069 130.915 72.6333 127.824 71.977 124.733C70.3766 117.307 68.7763 109.888 67.1759 102.474C66.4282 100.026 66.3212 97.4279 66.865 94.9272C67.7434 92.7984 69.055 90.8754 70.7163 89.2804C74.0687 85.4533 77.0201 81.2928 79.5242 76.8642C80.7175 74.4281 82.1463 72.1146 83.79 69.9567C85.666 67.673 88.3385 66.1857 91.2682 65.7949L93.1679 66.3648C97.9145 67.8183 102.535 69.6548 106.984 71.8563C108.667 72.6609 110.055 73.971 110.957 75.6035L111.388 76.2598C112.138 77.6638 113.106 78.9402 114.255 80.0416C115.257 80.905 116.569 81.6304 116.846 82.9255C116.888 83.6502 116.691 84.3687 116.286 84.9707C115.88 85.5728 115.288 86.0252 114.601 86.2584C114.261 86.4069 113.908 86.5226 113.547 86.6037C111.422 87.0236 109.216 86.6159 107.382 85.464L106.812 85.0841C104.981 83.6906 103.418 81.9762 102.2 80.0243C101.959 79.6962 101.751 79.3682 101.527 79.04C99.4924 79.6206 97.3481 79.7035 95.2749 79.2818C93.3372 78.9286 91.5059 78.1371 89.9211 76.9678" stroke="#1D1D1B" stroke-linecap="round" stroke-linejoin="round"/>
<path d="M95.2059 79.6611C93.4472 82.2851 91.1441 84.4997 88.4531 86.1542" stroke="#1D1D1B" stroke-linecap="round" stroke-linejoin="round"/>
<path d="M80.8398 86.2233C83.3574 85.9834 85.8957 86.0821 88.387 86.5168C90.7592 86.9164 93.0773 87.5886 95.2952 88.52C96.2158 88.9226 97.115 89.3722 97.9894 89.867C98.5594 90.1778 99.112 90.5232 99.7165 90.8685C101.236 90.965 102.729 91.3092 104.138 91.8874C107.18 93.1567 109.751 95.3416 111.495 98.1387C111.544 100.777 111.099 103.401 110.182 105.875" stroke="#1D1D1B" stroke-linecap="round" stroke-linejoin="round"/>
<path d="M94.9141 108.396C99.8671 107.155 104.98 106.672 110.078 106.963C111.2 106.963 112.305 107.119 113.411 107.239C114.015 107.239 114.637 107.395 115.241 107.498" stroke="#1D1D1B" stroke-linecap="round" stroke-linejoin="round"/>
<path d="M101.341 80.6973C101.119 82.2784 100.56 83.7935 99.7019 85.1401C98.8438 86.4867 97.7066 87.6334 96.3672 88.5027" stroke="#1D1D1B" stroke-linecap="round" stroke-linejoin="round"/>
<path d="M107.365 85.9814C106.736 87.6463 105.831 89.1933 104.688 90.5576L104.188 91.1275" stroke="#1D1D1B" stroke-linecap="round" stroke-linejoin="round"/>
<path d="M114.136 87.0693C114.136 87.4492 113.998 87.8292 113.912 88.2091C113.291 90.8681 112.048 93.3418 110.285 95.4274" stroke="#1D1D1B" stroke-linecap="round" stroke-linejoin="round"/>
<path d="M95.5162 93.5449C95.8921 95.4297 95.8438 97.3745 95.3748 99.2383C94.9059 101.102 94.0279 102.838 92.8047 104.321" stroke="#1D1D1B" stroke-linecap="round" stroke-linejoin="round"/>
<path d="M78.4531 93.6484C82.6943 96.7437 86.4239 100.485 89.5062 104.735C90.5943 106.116 91.6478 107.532 92.684 108.931L93.2194 109.657L100.128 118.913C102.371 121.75 104.353 124.785 106.051 127.979C107.447 130.824 108.386 133.872 108.832 137.01" stroke="#1D1D1B" stroke-linecap="round" stroke-linejoin="round"/>
<path d="M107.246 148.373L105.277 155.194" stroke="#1D1D1B" stroke-linecap="round" stroke-linejoin="round"/>
<path d="M78.8359 136.216C79.3124 138.49 79.5955 140.801 79.6822 143.123" stroke="#1D1D1B" stroke-linecap="round" stroke-linejoin="round"/>
<path d="M127.14 83.1152C124.597 87.354 123.314 92.2303 123.444 97.172C119.929 100.092 116.617 103.248 113.531 106.618" stroke="#1D1D1B" stroke-linecap="round" stroke-linejoin="round"/>
<path d="M93.2031 66.3822C93.3989 66.0039 93.6932 65.6855 94.0549 65.4606C94.4167 65.2357 94.8324 65.1126 95.2583 65.1043C96.1045 65.093 96.9478 65.2036 97.7625 65.4324L98.8506 65.6051C101.848 65.8617 104.859 65.9366 107.866 65.8296C111.255 65.6583 114.62 66.4742 117.554 68.1781C118.987 69.2568 120.332 70.4462 121.579 71.7355C123.977 73.8769 126.699 75.6254 129.644 76.9161L130.093 77.1233C130.161 77.6044 130.161 78.0927 130.093 78.5739C129.99 79.9396 129.38 81.2175 128.383 82.1568C127.386 83.0961 126.074 83.6289 124.704 83.6509C123.317 83.5875 121.963 83.2033 120.75 82.5284C117.957 81.3589 115.482 79.5417 113.53 77.2269C112.995 77.2269 112.27 76.1562 111.803 76.139" stroke="#1D1D1B" stroke-linecap="round" stroke-linejoin="round"/>
<path d="M134.703 76.052C135.446 75.9484 136.067 75.793 136.81 75.6203L137.656 75.4476V75.3613C137.513 72.6415 138.408 69.9687 140.161 67.8839C142.201 64.9481 144.921 62.5488 148.088 60.8901C150.033 59.837 152.187 59.2298 154.396 59.1127C156.605 58.9956 158.811 59.3714 160.857 60.2129C162.902 61.0544 164.734 62.3405 166.221 63.978C167.708 65.6154 168.811 67.5631 169.451 69.6798L169.659 70.2843C170.96 74.3881 170.726 78.8247 169.002 82.7695C168.137 84.7336 166.892 86.5073 165.339 87.9891C163.786 89.4708 161.955 90.6313 159.953 91.4039C157.949 92.146 155.811 92.4543 153.679 92.3084C151.547 92.1626 149.471 91.5658 147.587 90.5577C144.889 89.0117 142.662 86.7613 141.145 84.0474C139.536 81.374 138.37 78.4583 137.691 75.4131" stroke="#1D1D1B" stroke-linecap="round" stroke-linejoin="round"/>
<path d="M169.645 69.6448C170.489 68.6508 171.552 67.8655 172.751 67.3503C173.949 66.8351 175.25 66.6038 176.553 66.6746C179.142 66.8129 181.68 67.4459 184.031 68.5396" stroke="#1D1D1B" stroke-linecap="round" stroke-linejoin="round"/>
<path d="M216.895 70.0082C216.895 69.6629 216.895 69.3175 216.757 68.9894C216.335 66.8269 215.393 64.7997 214.011 63.0835C211.831 60.5943 209.012 58.7479 205.858 57.7436C202.705 56.7393 199.337 56.6153 196.119 57.3848C195.617 57.4831 195.121 57.61 194.634 57.7647C192.701 58.3258 190.903 59.2732 189.347 60.5495C187.792 61.8259 186.511 63.4047 185.584 65.1902C184.943 66.2752 184.438 67.4353 184.081 68.644C183.832 69.3983 183.647 70.1724 183.529 70.958C183.259 73.2103 183.618 75.4934 184.565 77.5546C185.521 79.9274 186.94 82.0857 188.74 83.9034C190.54 85.721 192.685 87.1614 195.048 88.1404C197.433 89.1017 200.021 89.4474 202.574 89.1456C205.128 88.8438 207.564 87.9042 209.659 86.4135C212.599 83.9686 214.745 80.7046 215.824 77.0366C216.649 74.7893 217.013 72.3991 216.895 70.0082Z" stroke="#1D1D1B" stroke-linecap="round" stroke-linejoin="round"/>
<path d="M217.414 69.9912H221.334H221.939" stroke="#1D1D1B" stroke-linecap="round" stroke-linejoin="round"/>
<path d="M222.543 70.0771C223.954 72.9048 225.618 75.5983 227.517 78.1244" stroke="#1D1D1B" stroke-linecap="round" stroke-linejoin="round"/>
<path d="M150.678 32.4141C147.059 33.7015 143.924 36.0708 141.698 39.2007C139.489 42.3322 137.879 45.845 136.948 49.5619C135.253 55.9489 134.923 62.6216 135.981 69.1446C136.277 70.9928 136.687 72.821 137.207 74.6188L136.551 74.895L136.361 74.9814" stroke="#1D1D1B" stroke-linecap="round" stroke-linejoin="round"/>
<path d="M136.71 75.2403C136.625 75.138 136.55 75.0281 136.485 74.9122C136.295 74.562 136.195 74.1707 136.191 73.7725" stroke="#1D1D1B" stroke-linecap="round" stroke-linejoin="round"/>
<path d="M138.853 15.3867C134.867 17.4452 131.245 20.14 128.128 23.3649C122.112 29.4695 118.073 37.2441 116.539 45.676C117.783 42.6921 119.656 40.0119 122.031 37.8188C121.268 39.8815 120.69 42.0083 120.304 44.1737C119.454 49.0583 119.566 54.0619 120.632 58.9039C120.652 54.8142 121.697 50.7947 123.672 47.2129C122.914 50.54 122.979 54.0017 123.862 57.2979C124.757 60.5792 125.912 63.784 127.316 66.882" stroke="#1D1D1B" stroke-linecap="round" stroke-linejoin="round"/>
<path d="M127.625 22.8648C128.945 19.4437 131.052 16.3818 133.777 13.9275C136.502 11.4732 139.766 9.69563 143.307 8.73896C146.775 7.76326 150.387 7.40094 153.98 7.66831C157.691 7.94162 161.346 8.72613 164.843 9.9996" stroke="#1D1D1B" stroke-linecap="round" stroke-linejoin="round"/>
<path d="M154.031 6.97735C157.422 5.72954 161.044 5.23756 164.645 5.53585C168.246 5.83413 171.738 6.91548 174.877 8.70422" stroke="#1D1D1B" stroke-linecap="round" stroke-linejoin="round"/>
<path d="M165.844 5.25033C170.498 2.21823 175.995 0.742762 181.543 1.03676C182.515 1.06889 183.484 1.16117 184.444 1.31306C188.177 1.85447 191.791 3.02213 195.134 4.76681C195.825 5.11218 196.516 5.49208 197.19 5.88926C199.225 7.00735 201.035 8.49481 202.526 10.2755C204.393 12.6494 205.319 15.6278 205.128 18.6415C204.937 21.6552 203.642 24.4927 201.49 26.6117" stroke="#1D1D1B" stroke-linecap="round" stroke-linejoin="round"/>
<path d="M204.602 21.8974C207.149 20.2182 210.206 19.4906 213.237 19.8424C217.079 20.043 220.736 21.5546 223.599 24.125C225.002 25.413 226.09 27.0064 226.779 28.7821C227.468 30.5578 227.739 32.4682 227.571 34.3654" stroke="#1D1D1B" stroke-linecap="round" stroke-linejoin="round"/>
<path d="M219.469 24.6084C222.367 26.911 224.79 29.7557 226.601 32.9837L227.482 34.3652C229.519 37.3728 231.293 40.5505 232.784 43.863C234.59 47.803 235.242 52.1737 234.667 56.4692C233.826 54.4671 232.43 52.7474 230.643 51.5131C232.78 55.6822 233.661 60.3825 233.176 65.0424C232.692 69.7024 230.864 74.1212 227.914 77.7615" stroke="#1D1D1B" stroke-linecap="round" stroke-linejoin="round"/>
<path d="M200.922 27.4414H201.198C202.527 27.8534 203.798 28.4338 204.98 29.1683C207.754 30.9629 210.081 33.3667 211.785 36.1967C214.15 40.3532 215.896 44.8327 216.966 49.4935C218.771 56.1927 220.218 62.9831 221.301 69.8361C221.317 69.939 221.317 70.0439 221.301 70.1469C222.268 76.0701 223.028 82.0105 223.443 87.951C224.976 84.9988 226.281 81.9332 227.346 78.7812C227.432 78.5568 227.518 78.315 227.587 78.0733C227.635 77.961 227.676 77.8456 227.708 77.7279" stroke="#1D1D1B" stroke-linecap="round" stroke-linejoin="round"/>
<path d="M134.395 104.891C134.49 106.621 134.992 108.304 135.859 109.804C136.726 111.304 137.934 112.579 139.386 113.525C139.303 115.073 139.754 116.603 140.662 117.86C141.57 119.116 142.881 120.024 144.377 120.432" stroke="#1D1D1B" stroke-linecap="round" stroke-linejoin="round"/>
<path d="M138.695 83.9609C138.725 88.3505 139.305 92.719 140.422 96.9643C139.61 96.0318 138.799 95.0993 138.021 94.1322C137.244 93.1652 136.536 92.3017 135.828 91.3692" stroke="#1D1D1B" stroke-linecap="round" stroke-linejoin="round"/>
<path d="M140.336 96.6533V96.8951C140.75 99.0537 141.182 101.195 141.597 103.354C142.702 108.983 143.825 114.613 144.93 120.242C144.93 120.553 145.051 120.864 145.12 121.175C145.755 125.432 146.976 129.581 148.747 133.505C150.133 136.305 152.237 138.688 154.843 140.412C155.841 141.039 156.922 141.522 158.055 141.846" stroke="#1D1D1B" stroke-linecap="round" stroke-linejoin="round"/>
<path d="M154.773 140.637C156.461 142.903 157.985 145.286 159.333 147.769C160.96 150.694 162.341 153.749 163.46 156.904" stroke="#1D1D1B" stroke-linecap="round" stroke-linejoin="round"/>
<path d="M227.879 79.0401C228.678 78.0761 229.601 77.2225 230.625 76.5016C231.143 76.1517 231.727 75.9101 232.342 75.7914C232.956 75.6727 233.588 75.6793 234.2 75.8108C236.427 76.4325 237.395 79.0056 237.93 81.2505C238.897 85.2396 239.519 89.6949 237.446 93.235C236.19 94.9516 234.828 96.5895 233.371 98.1393C231.828 100.432 230.662 102.956 229.917 105.617C229.165 108.292 228.056 110.854 226.618 113.232C225.897 114.42 224.931 115.441 223.784 116.228C222.638 117.014 221.337 117.547 219.969 117.791" stroke="#1D1D1B" stroke-linecap="round" stroke-linejoin="round"/>
<path d="M224.339 89.6602L224.235 90.0401C223.341 93.2059 222.712 96.4405 222.353 99.7106C221.627 105.202 221.299 110.78 220.125 116.202C220.021 116.703 219.9 117.221 219.779 117.722C219.133 120.341 218.296 122.909 217.275 125.406C215.341 130.119 212.754 134.537 209.59 138.531" stroke="#1D1D1B" stroke-linecap="round" stroke-linejoin="round"/>
<path d="M98.8867 65.3973C99.1792 64.856 99.5852 64.3844 100.077 64.0148C100.569 63.6452 101.135 63.3863 101.736 63.256C102.939 62.9998 104.176 62.9415 105.398 63.0833C107.919 63.2214 110.423 63.4632 112.928 63.705C115.261 63.8535 117.575 64.2295 119.836 64.8275C121.753 65.38 123.566 66.2608 125.501 66.7961C126.068 66.9612 126.645 67.0938 127.228 67.1933C129.897 67.5925 132.595 67.7658 135.293 67.7113C135.443 68.1977 135.558 68.6939 135.638 69.1964C135.785 70.0826 135.785 70.9869 135.638 71.8731C135.437 73.2845 134.746 74.5803 133.687 75.5341C133.149 75.9927 132.509 76.3152 131.821 76.4745C131.133 76.6338 130.416 76.6252 129.732 76.4493" stroke="#1D1D1B" stroke-linecap="round" stroke-linejoin="round"/>
<path d="M130.801 78.6253C131.459 78.0025 132.278 77.5745 133.165 77.3885C134.052 77.2026 134.973 77.2661 135.826 77.572C136.487 77.9643 137.039 78.516 137.431 79.1767C137.823 79.8374 138.044 80.586 138.072 81.3538C138.417 84.8076 136.5 87.9505 135.688 91.2833C135.527 91.9591 135.418 92.646 135.36 93.3383C135.153 96.2567 136.206 99.3478 134.98 102.128C134.433 102.97 133.965 103.86 133.581 104.787C130.939 111.263 132.061 119.31 128.4 125.51C126.88 128.117 124.618 130.207 122.891 132.694C121.333 135.276 119.938 137.952 118.711 140.706C117.483 143.569 115.346 145.947 112.632 147.476C110.715 152.656 108.712 158.476 106.743 164.105C105.534 167.559 104.325 170.927 103.168 174.121" stroke="#1D1D1B" stroke-linecap="round" stroke-linejoin="round"/>
<path d="M299.207 377.909C297.994 378.727 297.037 379.87 296.444 381.208C296.255 381.012 296.026 380.862 295.772 380.766C295.518 380.67 295.246 380.633 294.976 380.655C294.432 380.715 293.902 380.861 293.404 381.087L289.121 382.693C289.121 382.693 289.207 382.814 289.121 382.831" stroke="#1D1D1B" stroke-linecap="round" stroke-linejoin="round"/>
<path d="M290.728 383.436C290.234 383.155 289.706 382.94 289.156 382.797C288.79 382.654 288.407 382.561 288.017 382.52C286.806 382.286 285.561 382.296 284.354 382.548C283.148 382.8 282.003 383.289 280.987 383.988C277.223 386.647 275.996 391.604 273.423 395.42C272.7 396.368 272.037 397.36 271.437 398.39C270.823 399.43 270.626 400.664 270.884 401.844C271.019 402.31 271.236 402.748 271.523 403.139C272.026 403.813 272.639 404.396 273.337 404.866C274.342 405.677 275.603 406.106 276.894 406.075C277.633 405.966 278.334 405.675 278.932 405.229C279.306 404.969 279.658 404.681 279.986 404.365C282.45 402.075 284.328 399.226 285.461 396.059C285.841 395.003 286.13 393.917 286.324 392.812" stroke="#1D1D1B" stroke-linecap="round" stroke-linejoin="round"/>
<path d="M286.234 396.041C287.265 396.347 288.338 396.487 289.412 396.455H289.688" stroke="#1D1D1B" stroke-linecap="round" stroke-linejoin="round"/>
<path d="M293.695 386.215C294.577 388.199 294.73 390.432 294.127 392.518" stroke="#1D1D1B" stroke-linecap="round" stroke-linejoin="round"/>
<path d="M289.5 396.404C287.428 401.775 285.338 407.163 282.886 412.361C281.832 414.64 280.675 416.902 279.432 419.095C278.741 420.321 278.015 421.548 277.255 422.739C275.912 424.644 274.755 426.674 273.801 428.8C273.375 429.87 273.125 431.001 273.059 432.151C272.963 433.331 273.159 434.517 273.629 435.604C274.067 436.69 274.861 437.596 275.88 438.173C276.9 438.75 278.085 438.964 279.242 438.782C279.938 438.616 280.592 438.304 281.159 437.866C282.103 437.086 282.929 436.173 283.611 435.155C291.563 424.344 297.743 412.336 301.918 399.582" stroke="#1D1D1B" stroke-linecap="round" stroke-linejoin="round"/>
<path d="M281.695 438.108C281.803 439.133 282.124 440.124 282.639 441.016C283.154 441.908 283.85 442.683 284.683 443.289C285.063 443.558 285.475 443.778 285.909 443.945C286.459 444.157 287.056 444.217 287.636 444.118C288.487 443.868 289.255 443.397 289.864 442.754C290.797 441.907 291.695 441.027 292.524 440.094C296.782 435.601 300.125 430.322 302.368 424.552C304.406 419.372 305.563 413.708 308.378 408.838" stroke="#1D1D1B" stroke-linecap="round" stroke-linejoin="round"/>
<path d="M300.226 393.295C300.018 394.918 299.811 396.541 299.621 398.165" stroke="#1D1D1B" stroke-linecap="round" stroke-linejoin="round"/>
<path d="M308.551 399.789C309.021 401.673 308.876 403.658 308.137 405.453" stroke="#1D1D1B" stroke-linecap="round" stroke-linejoin="round"/>
<path d="M316.791 408.285C316.933 409.691 316.701 411.109 316.117 412.395" stroke="#1D1D1B" stroke-linecap="round" stroke-linejoin="round"/>
<path d="M292.902 440.525C293.097 441.41 293.533 442.223 294.163 442.874C294.844 443.584 295.733 444.059 296.702 444.23C297.671 444.401 298.669 444.258 299.551 443.823C300.991 442.956 302.181 441.73 303.006 440.266C309.517 430.717 317.081 421.65 321.157 410.909C323.229 405.383 324.507 399.236 328.704 395.057" stroke="#1D1D1B" stroke-linecap="round" stroke-linejoin="round"/>
<path d="M319.359 397.785C320.048 400.325 320.414 402.942 320.447 405.573" stroke="#1D1D1B" stroke-linecap="round" stroke-linejoin="round"/>
<path d="M192.406 384.696L229.192 384.074" stroke="#1D1D1B" stroke-linecap="round" stroke-linejoin="round"/>
<path d="M229.243 394.625C217.201 406.221 203.279 415.692 188.07 422.635" stroke="#1D1D1B" stroke-linecap="round" stroke-linejoin="round"/>
<path d="M228.245 402.31C224.053 411.875 218.7 420.888 212.305 429.145" stroke="#1D1D1B" stroke-linecap="round" stroke-linejoin="round"/>
<path d="M271.195 418.56C272.488 439.589 274.84 460.539 278.242 481.331" stroke="#1D1D1B" stroke-linecap="round" stroke-linejoin="round"/>
<path d="M285.84 444.204C290.848 460.368 293.335 467.81 292.903 484.717" stroke="#1D1D1B" stroke-linecap="round" stroke-linejoin="round"/>
<path d="M294.094 442.961C296.926 448.763 299.568 454.686 301.986 460.679C302.712 462.406 303.42 464.271 304.111 466.084" stroke="#1D1D1B" stroke-linecap="round" stroke-linejoin="round"/>
<path d="M279.672 405.297C280.553 407.576 281.399 409.856 282.28 412.204" stroke="#1D1D1B" stroke-linecap="round" stroke-linejoin="round"/>
<path d="M273.266 400.272L276.271 402.224C276.498 402.411 276.773 402.531 277.065 402.569C277.601 402.569 277.98 402.085 278.257 401.636C278.823 400.849 279.19 399.937 279.328 398.977C279.384 398.481 279.298 397.98 279.081 397.531C278.864 397.082 278.525 396.703 278.101 396.439C277.571 396.211 276.983 396.155 276.419 396.279C275.855 396.403 275.344 396.7 274.958 397.129C274.166 398.037 273.588 399.111 273.266 400.272Z" stroke="#1D1D1B" stroke-width="0.5" stroke-linecap="round" stroke-linejoin="round"/>
<path d="M274.891 432.305C276.189 433.794 277.702 435.081 279.381 436.122L281.229 433.825C281.613 433.392 281.927 432.903 282.162 432.374C282.392 431.715 282.401 430.999 282.185 430.335C281.97 429.67 281.543 429.095 280.97 428.696C280.373 428.328 279.685 428.133 278.984 428.133C278.282 428.133 277.595 428.328 276.998 428.696C276.385 429.087 275.874 429.619 275.508 430.246C275.142 430.874 274.93 431.58 274.891 432.305Z" stroke="#1D1D1B" stroke-width="0.5" stroke-linecap="round" stroke-linejoin="round"/>
<path d="M284.629 437.849L287.271 440.56C287.376 440.71 287.509 440.837 287.663 440.935C287.817 441.033 287.989 441.099 288.169 441.13C288.527 441.118 288.867 440.97 289.119 440.715C289.726 440.373 290.26 439.915 290.689 439.367C291.119 438.819 291.436 438.192 291.623 437.521C291.692 436.692 291.479 435.865 291.019 435.172C290.885 434.854 290.681 434.571 290.422 434.343C290.162 434.116 289.855 433.95 289.522 433.859C289.19 433.768 288.841 433.753 288.502 433.816C288.163 433.879 287.842 434.018 287.565 434.222C286.86 434.603 286.238 435.119 285.734 435.742C285.23 436.364 284.854 437.08 284.629 437.849Z" stroke="#1D1D1B" stroke-width="0.5" stroke-linecap="round" stroke-linejoin="round"/>
<path d="M298.518 436.312C297.687 436.727 297.001 437.383 296.549 438.194C296.337 438.605 296.227 439.061 296.227 439.524C296.227 439.986 296.337 440.442 296.549 440.854C296.765 441.264 297.105 441.595 297.521 441.8C297.937 442.004 298.407 442.072 298.863 441.993C299.682 441.685 300.371 441.106 300.815 440.353C301.224 439.902 301.499 439.345 301.609 438.747C301.608 438.408 301.526 438.075 301.37 437.774C301.214 437.474 300.988 437.215 300.711 437.02C300.083 436.54 299.309 436.29 298.518 436.312Z" stroke="#1D1D1B" stroke-width="0.5" stroke-linecap="round" stroke-linejoin="round"/>
<path d="M327.686 378.565C327.461 379.231 327.374 379.936 327.431 380.637C327.487 381.337 327.686 382.019 328.014 382.641C328.353 383.263 328.851 383.783 329.459 384.147C330.066 384.512 330.76 384.707 331.468 384.713C332.169 384.717 332.852 384.493 333.416 384.076C333.979 383.659 334.393 383.071 334.594 382.399" stroke="#1D1D1B" stroke-width="0.5" stroke-linecap="round" stroke-linejoin="round"/>
<path d="M330.537 378.254C330.307 378.326 330.101 378.459 329.94 378.638C329.779 378.817 329.669 379.037 329.621 379.273C329.481 379.664 329.432 380.081 329.477 380.494C329.522 380.907 329.66 381.304 329.88 381.656C330.123 381.99 330.478 382.227 330.881 382.322C331.283 382.417 331.707 382.364 332.074 382.174C332.418 381.935 332.663 381.579 332.765 381.172C332.87 380.785 332.905 380.381 332.868 379.981" stroke="#1D1D1B" stroke-width="0.5" stroke-linecap="round" stroke-linejoin="round"/>
<path d="M216.173 392.069C216.08 393.196 216.37 394.321 216.997 395.261C217.625 396.202 218.552 396.903 219.628 397.25C220.714 397.562 221.866 397.566 222.955 397.261C224.044 396.956 225.027 396.354 225.793 395.523C226.513 394.731 226.987 393.747 227.157 392.691C227.256 391.925 227.175 391.147 226.92 390.419C226.666 389.69 226.244 389.031 225.689 388.494C225.131 387.966 224.466 387.562 223.74 387.309C223.014 387.056 222.242 386.96 221.475 387.027" stroke="#1D1D1B" stroke-width="0.5" stroke-linecap="round" stroke-linejoin="round"/>
<path d="M219.696 395.402C219.16 395.064 218.72 394.595 218.417 394.039C218.115 393.482 217.961 392.858 217.969 392.224C217.972 391.975 218.001 391.726 218.055 391.482C218.243 390.747 218.652 390.088 219.226 389.594C219.801 389.1 220.514 388.794 221.268 388.719H221.561C222.27 388.731 222.96 388.945 223.551 389.337C224.142 389.728 224.608 390.281 224.895 390.929" stroke="#1D1D1B" stroke-width="0.5" stroke-linecap="round" stroke-linejoin="round"/>
<path d="M51.1517 221.851C50.8974 221.593 50.7059 221.279 50.5921 220.935C50.4783 220.59 50.4452 220.224 50.4954 219.865C50.5512 219.504 50.7046 219.166 50.9389 218.886C51.1733 218.606 51.4798 218.395 51.8252 218.277C52.1737 218.164 52.5489 218.166 52.8966 218.281C53.2443 218.395 53.5465 218.618 53.7595 218.916" stroke="#1D1D1B" stroke-width="0.5" stroke-linecap="round" stroke-linejoin="round"/>
<path d="M48.4219 220.177C48.5066 220.986 48.8662 221.742 49.4408 222.318C50.0004 222.914 50.7411 223.309 51.5478 223.441C52.3566 223.543 53.1769 223.382 53.8865 222.98C54.5961 222.579 55.1569 221.959 55.4855 221.213C55.7749 220.518 55.8294 219.748 55.6409 219.02C55.46 218.16 54.9757 217.394 54.2766 216.861" stroke="#1D1D1B" stroke-width="0.5" stroke-linecap="round" stroke-linejoin="round"/>
<path d="M53.6563 209.142C53.3538 209.693 53.2588 210.333 53.3888 210.948C53.5187 211.563 53.8649 212.111 54.3644 212.492C54.8914 212.842 55.5103 213.029 56.1432 213.029C56.7762 213.029 57.395 212.842 57.9221 212.492C58.4319 212.132 58.8526 211.66 59.1519 211.112C59.4512 210.564 59.6213 209.955 59.6491 209.332C59.6963 208.815 59.6193 208.294 59.4246 207.812C59.3182 207.576 59.1633 207.364 58.9699 207.192C58.7765 207.019 58.5489 206.889 58.302 206.811" stroke="#1D1D1B" stroke-width="0.5" stroke-linecap="round" stroke-linejoin="round"/>
<path d="M55.1928 211.214C55.0197 210.9 54.912 210.555 54.8764 210.199C54.8408 209.843 54.8779 209.483 54.9856 209.141C55.0966 208.8 55.304 208.497 55.5828 208.271C55.8616 208.044 56.2 207.902 56.5572 207.863C56.9155 207.836 57.271 207.943 57.555 208.164C57.839 208.384 58.0311 208.701 58.0943 209.055" stroke="#1D1D1B" stroke-width="0.5" stroke-linecap="round" stroke-linejoin="round"/>
<path d="M56.0383 200.68C55.7628 201.298 55.7103 201.992 55.8899 202.644C56.0694 203.296 56.4699 203.865 57.0228 204.255C57.5973 204.612 58.269 204.78 58.944 204.737C59.6189 204.694 60.2635 204.441 60.7877 204.013C61.2946 203.569 61.6692 202.995 61.8703 202.352C62.0714 201.709 62.0912 201.023 61.9276 200.369C61.8557 199.968 61.6741 199.594 61.4028 199.289C61.1315 198.984 60.7811 198.761 60.3905 198.643" stroke="#1D1D1B" stroke-width="0.5" stroke-linecap="round" stroke-linejoin="round"/>
<path d="M57.8876 202.978C57.6877 202.712 57.5576 202.401 57.5093 202.072C57.4611 201.743 57.4961 201.407 57.6113 201.095C57.75 200.796 57.9718 200.542 58.2504 200.364C58.5289 200.187 58.8526 200.093 59.1829 200.094C59.5133 200.127 59.8208 200.277 60.0491 200.518C60.2775 200.759 60.4114 201.075 60.4264 201.406" stroke="#1D1D1B" stroke-width="0.5" stroke-linecap="round" stroke-linejoin="round"/>
<path d="M142.891 50.4258C143.391 48.1661 144.361 46.0371 145.739 44.1774C147.116 42.3178 148.871 40.7693 150.887 39.6328" stroke="#1D1D1B" stroke-width="0.5" stroke-linecap="round" stroke-linejoin="round"/>
<path d="M145.016 51.3232C148.199 48.2827 152.444 46.6038 156.846 46.6434C161.198 46.7199 165.528 47.2994 169.747 48.3703C172.256 49.0031 174.856 49.2017 177.432 48.9574C180.886 48.4394 183.753 46.5052 186.827 45.0547C190.089 43.4554 193.647 42.5499 197.276 42.3953C200.942 42.2271 204.568 43.218 207.638 45.2274" stroke="#1D1D1B" stroke-width="0.5" stroke-linecap="round" stroke-linejoin="round"/>
<path d="M173.253 56.4355C173.683 57.6928 173.823 59.0314 173.661 60.3504C173.5 61.6695 173.041 62.9347 172.32 64.051" stroke="#1D1D1B" stroke-width="0.5" stroke-linecap="round" stroke-linejoin="round"/>
<path d="M178.054 54.1211C177.56 56.1722 177.619 58.3178 178.226 60.3385C178.833 62.3591 179.966 64.1825 181.508 65.6221" stroke="#1D1D1B" stroke-width="0.5" stroke-linecap="round" stroke-linejoin="round"/>
<path d="M185.133 59.6296C186.29 57.2614 188.016 55.2168 190.157 53.6784C192.297 52.14 194.786 51.1558 197.399 50.8137C200.013 50.4716 202.671 50.7823 205.136 51.718C207.6 52.6537 209.794 54.1853 211.522 56.1759" stroke="#1D1D1B" stroke-width="0.5" stroke-linecap="round" stroke-linejoin="round"/>
<path d="M171.525 82.959C171.561 84.7568 171.274 86.5464 170.679 88.2432C170.286 89.4668 169.991 90.7199 169.798 91.9905C169.755 92.4962 169.755 93.0045 169.798 93.5101C169.802 94.2998 169.967 95.0803 170.282 95.8046C170.596 96.5288 171.055 97.1817 171.629 97.7237C171.797 97.8641 171.976 97.9911 172.164 98.1036" stroke="#1D1D1B" stroke-width="0.5" stroke-linecap="round" stroke-linejoin="round"/>
<path d="M142.461 62.3746C143.933 60.6887 145.778 59.3703 147.85 58.5247C149.922 57.6792 152.164 57.3299 154.395 57.5048C158.853 57.9217 163.209 59.0894 167.279 60.9586" stroke="#1D1D1B" stroke-width="0.5" stroke-linecap="round" stroke-linejoin="round"/>
<path d="M168.037 91.8877C166.781 93.1807 165.732 94.6603 164.929 96.2739C164.533 97.0803 164.328 97.9663 164.328 98.8642C164.328 99.7621 164.533 100.648 164.929 101.455C165.024 101.619 165.134 101.775 165.257 101.921C165.809 102.611 166.553 103.121 167.395 103.389C168.237 103.656 169.14 103.668 169.989 103.423" stroke="#1D1D1B" stroke-width="0.5" stroke-linecap="round" stroke-linejoin="round"/>
<path d="M167.625 101.489C167.841 101.139 168.148 100.853 168.512 100.662C168.877 100.47 169.286 100.38 169.697 100.401H169.922C170.817 100.53 171.679 100.829 172.461 101.282L175.017 102.56" stroke="#1D1D1B" stroke-width="0.5" stroke-linecap="round" stroke-linejoin="round"/>
<path d="M169.266 100.937C169.374 101.316 169.599 101.652 169.909 101.897C170.219 102.142 170.598 102.283 170.993 102.301" stroke="#1D1D1B" stroke-width="0.5" stroke-linecap="round" stroke-linejoin="round"/>
<path d="M180.887 102.162C181.773 101.674 182.607 101.095 183.374 100.435C183.759 100.096 184.227 99.8642 184.729 99.7612C185.232 99.6583 185.753 99.6881 186.241 99.8477C186.502 99.9745 186.731 100.161 186.908 100.392C187.085 100.623 187.205 100.892 187.26 101.177C187.317 101.463 187.301 101.758 187.213 102.036C187.126 102.314 186.969 102.565 186.759 102.766" stroke="#1D1D1B" stroke-width="0.5" stroke-linecap="round" stroke-linejoin="round"/>
<path d="M189.178 103.389C189.934 102.9 190.537 102.208 190.919 101.393C191.301 100.578 191.446 99.6717 191.337 98.778C191.073 96.9921 190.333 95.3102 189.195 93.9082C188.142 92.4749 186.898 91.1625 185.914 89.6602" stroke="#1D1D1B" stroke-width="0.5" stroke-linecap="round" stroke-linejoin="round"/>
<path d="M151.044 31.585L150.474 31.7577C145.587 33.3809 140.423 34.0544 135.518 35.5913C130.613 37.1282 125.329 39.8912 122.617 44.502" stroke="#1D1D1B" stroke-width="0.5" stroke-linecap="round" stroke-linejoin="round"/>
<path d="M140.042 36.9219C133.748 40.186 128.602 45.2955 125.293 51.5658" stroke="#1D1D1B" stroke-width="0.5" stroke-linecap="round" stroke-linejoin="round"/>
<path d="M131.063 48.4219C130.326 52.0555 129.166 55.5907 127.609 58.9558L127.886 58.8349" stroke="#1D1D1B" stroke-width="0.5" stroke-linecap="round" stroke-linejoin="round"/>
<path d="M129.594 26.3871C134.481 20.4984 142.391 17.9427 150.007 17.2692C152.629 16.9482 155.285 17.0708 157.866 17.6319C160.465 18.1939 162.779 19.6631 164.394 21.7764C165.181 22.8384 165.671 24.0919 165.81 25.4067C165.95 26.7216 165.735 28.0498 165.188 29.2537" stroke="#1D1D1B" stroke-width="0.5" stroke-linecap="round" stroke-linejoin="round"/>
<path d="M174.633 29.4261C176.034 28.007 177.104 26.2959 177.767 24.4152C178.429 22.5345 178.668 20.5307 178.467 18.5469" stroke="#1D1D1B" stroke-width="0.5" stroke-linecap="round" stroke-linejoin="round"/>
<path d="M183.977 4.87012C187.294 5.52276 190.51 6.60846 193.544 8.09936C196.597 9.61912 198.943 12.2618 200.09 15.4731C200.581 17.5442 200.542 19.7055 199.978 21.7577C199.414 23.8099 198.341 25.6871 196.86 27.2158" stroke="#1D1D1B" stroke-width="0.5" stroke-linecap="round" stroke-linejoin="round"/>
<path d="M197.431 18.0469C197.312 19.7932 196.78 21.4863 195.879 22.9872C194.979 24.4882 193.735 25.7541 192.25 26.6812" stroke="#1D1D1B" stroke-width="0.5" stroke-linecap="round" stroke-linejoin="round"/>
<path d="M193.978 21.7422C192.767 23.8563 190.967 25.5724 188.797 26.6811" stroke="#1D1D1B" stroke-width="0.5" stroke-linecap="round" stroke-linejoin="round"/>
<path d="M189.971 23.5547L186.672 26.2831" stroke="#1D1D1B" stroke-width="0.5" stroke-linecap="round" stroke-linejoin="round"/>
<path d="M189.28 19.5137C187.742 22.7594 185.262 25.4672 182.164 27.2846" stroke="#1D1D1B" stroke-width="0.5" stroke-linecap="round" stroke-linejoin="round"/>
<path d="M181.215 24.4531C180.811 25.6893 180.104 26.8051 179.16 27.6997" stroke="#1D1D1B" stroke-width="0.5" stroke-linecap="round" stroke-linejoin="round"/>
<path d="M204.602 26.7331C206.826 25.5341 209.39 25.1205 211.878 25.5592C214.367 25.9979 216.634 27.2633 218.314 29.1507" stroke="#1D1D1B" stroke-width="0.5" stroke-linecap="round" stroke-linejoin="round"/>
<path d="M207.188 28.8398C217.315 32.2149 225.756 39.3566 230.762 48.7852" stroke="#1D1D1B" stroke-width="0.5" stroke-linecap="round" stroke-linejoin="round"/>
<path d="M217.602 43.2422C222.193 48.2042 225.85 53.9549 228.396 60.2173" stroke="#1D1D1B" stroke-width="0.5" stroke-linecap="round" stroke-linejoin="round"/>
<path d="M219.02 48.6982C222.14 55.364 225.26 62.0182 228.38 68.6609" stroke="#1D1D1B" stroke-width="0.5" stroke-linecap="round" stroke-linejoin="round"/>
<path d="M218.225 94.2363C214.127 99.4846 211.488 105.722 210.574 112.317" stroke="#1D1D1B" stroke-width="0.5" stroke-linecap="round" stroke-linejoin="round"/>
<path d="M191.543 99.123C192.856 108.12 201.905 114.544 203.08 123.541" stroke="#1D1D1B" stroke-width="0.5" stroke-linecap="round" stroke-linejoin="round"/>
<path d="M164.152 103.285C162.943 108.656 160.491 113.646 158.591 118.827C158.032 120.152 157.722 121.569 157.676 123.006C157.697 123.553 157.795 124.093 157.969 124.612C158.252 125.476 158.826 126.214 159.593 126.702" stroke="#1D1D1B" stroke-width="0.5" stroke-linecap="round" stroke-linejoin="round"/>
<path d="M161.891 123.023C162.299 123.171 162.732 123.235 163.165 123.211C163.599 123.187 164.023 123.076 164.412 122.885C168.125 121.59 171.856 120.295 175.621 119.19C176.394 119.368 177.179 119.495 177.969 119.57C178.539 119.57 179.092 119.691 179.696 119.725C182.103 118.886 184.646 118.511 187.192 118.62C190.964 119.157 194.693 119.965 198.349 121.038" stroke="#1D1D1B" stroke-width="0.5" stroke-linecap="round" stroke-linejoin="round"/>
<path d="M172.25 124.404C178.043 125.104 183.9 125.104 189.693 124.404" stroke="#1D1D1B" stroke-width="0.5" stroke-linecap="round" stroke-linejoin="round"/>
<path d="M177.172 107.136C177.258 109.329 177.345 111.522 177.414 113.715C177.4 114.235 177.494 114.753 177.69 115.235C177.848 115.538 178.112 115.772 178.433 115.891C178.603 115.934 178.781 115.934 178.951 115.891" stroke="#1D1D1B" stroke-width="0.5" stroke-linecap="round" stroke-linejoin="round"/>
<path d="M224.445 90.1088C226.231 87.0728 228.493 84.3439 231.146 82.027C231.811 81.4046 232.647 80.9957 233.547 80.8528H233.771C234.18 80.8461 234.578 80.9848 234.895 81.2441C235.211 81.5034 235.425 81.8665 235.498 82.2688" stroke="#1D1D1B" stroke-width="0.5" stroke-linecap="round" stroke-linejoin="round"/>
<path d="M233.7 81.4395C234.362 84.2241 234.36 87.1255 233.694 89.9093C233.028 92.6931 231.717 95.2813 229.866 97.4648C229.655 97.7848 229.326 98.0083 228.95 98.0865C228.705 98.0832 228.468 97.9957 228.279 97.8385C228.09 97.6813 227.962 97.464 227.914 97.2231C227.836 96.7427 227.836 96.2529 227.914 95.7725C228.005 94.9586 227.896 94.1346 227.595 93.3729C227.294 92.6112 226.81 91.935 226.187 91.4035C226.713 92.9368 226.713 94.6018 226.187 96.1351C225.623 97.6565 224.573 98.9494 223.199 99.8134" stroke="#1D1D1B" stroke-width="0.5" stroke-linecap="round" stroke-linejoin="round"/>
<path d="M227.516 100.764C226.97 103.937 225.406 106.846 223.06 109.053C222.836 109.26 222.404 109.415 222.266 109.139" stroke="#1D1D1B" stroke-width="0.5" stroke-linecap="round" stroke-linejoin="round"/>
<path d="M230.109 83.3906C230.454 83.4314 230.779 83.5751 231.041 83.8031C231.302 84.0311 231.49 84.3326 231.577 84.6685C231.774 85.3288 231.832 86.0223 231.75 86.7062C231.757 88.7657 231.407 90.8108 230.714 92.7503" stroke="#1D1D1B" stroke-width="0.5" stroke-linecap="round" stroke-linejoin="round"/>
<path d="M136.828 103.475C137.739 107.285 139.905 110.678 142.976 113.111L142.786 112.903" stroke="#1D1D1B" stroke-width="0.5" stroke-linecap="round" stroke-linejoin="round"/>
<path d="M137.713 94.3223C137.516 96.0366 137.769 97.7728 138.448 99.3596C139.126 100.946 140.206 102.329 141.582 103.371" stroke="#1D1D1B" stroke-width="0.5" stroke-linecap="round" stroke-linejoin="round"/>
<path d="M144.844 97.8965C148.075 104.001 150.507 110.495 152.08 117.22" stroke="#1D1D1B" stroke-width="0.5" stroke-linecap="round" stroke-linejoin="round"/>
<path d="M150.715 75.2066C152.079 73.4527 154.084 72.3114 156.288 72.033C158.493 71.7546 160.718 72.3618 162.476 73.7215" stroke="#1D1D1B" stroke-width="0.5" stroke-linecap="round" stroke-linejoin="round"/>
<path d="M163.618 76.8984C163.058 79.3062 162.181 81.629 161.01 83.8059C160.421 84.8913 159.623 85.8497 158.663 86.6262C157.703 87.4026 156.599 87.9817 155.414 88.3303" stroke="#1D1D1B" stroke-width="0.5" stroke-linecap="round" stroke-linejoin="round"/>
<path d="M191.699 71.718C192.396 70.9078 193.247 70.2449 194.204 69.768C195.16 69.291 196.202 69.0098 197.268 68.9407C198.335 68.8715 199.404 69.0158 200.414 69.3652C201.424 69.7146 202.354 70.262 203.15 70.9754" stroke="#1D1D1B" stroke-width="0.5" stroke-linecap="round" stroke-linejoin="round"/>
<path d="M192.133 75.4307C192.867 78.3625 194.659 80.9192 197.165 82.6089C199.671 84.2986 202.714 85.0017 205.707 84.5831" stroke="#1D1D1B" stroke-width="0.5" stroke-linecap="round" stroke-linejoin="round"/>
<path d="M157.242 72.4082L157.605 76.2073" stroke="#1D1D1B" stroke-linecap="round" stroke-linejoin="round"/>
<path d="M197.277 69.6279C197.277 70.6986 197.433 71.7693 197.502 72.8399" stroke="#1D1D1B" stroke-linecap="round" stroke-linejoin="round"/>
<path d="M227.12 321.561C226.823 322.526 226.861 323.563 227.228 324.503C227.594 325.444 228.269 326.233 229.141 326.741C230.05 327.206 231.082 327.374 232.092 327.223C233.102 327.071 234.039 326.607 234.771 325.895C235.689 324.944 236.208 323.677 236.222 322.355C236.223 321.777 236.109 321.204 235.887 320.671C235.665 320.137 235.338 319.653 234.927 319.247C234.512 318.847 234.005 318.557 233.45 318.403C232.895 318.249 232.31 318.236 231.749 318.366" stroke="#1D1D1B" stroke-width="0.5" stroke-linecap="round" stroke-linejoin="round"/>
<path d="M230.471 325.136C230.168 324.987 229.908 324.763 229.718 324.485C229.527 324.206 229.412 323.883 229.383 323.547C229.363 323.208 229.411 322.869 229.524 322.548C229.636 322.228 229.812 321.934 230.04 321.682C230.25 321.42 230.512 321.204 230.809 321.046C231.106 320.889 231.432 320.794 231.767 320.767C232.119 320.755 232.469 320.843 232.774 321.02C233.079 321.197 233.329 321.456 233.494 321.768" stroke="#1D1D1B" stroke-width="0.5" stroke-linecap="round" stroke-linejoin="round"/>
<path d="M224.066 283.277C223.79 283.208 223.533 283.079 223.313 282.899C223.093 282.72 222.915 282.493 222.792 282.237C222.669 281.981 222.604 281.701 222.602 281.416C222.599 281.132 222.66 280.851 222.779 280.593C222.897 280.334 223.072 280.105 223.289 279.922C223.506 279.739 223.761 279.606 224.036 279.532C224.311 279.459 224.598 279.447 224.878 279.497C225.158 279.548 225.423 279.659 225.655 279.823" stroke="#1D1D1B" stroke-width="0.5" stroke-linecap="round" stroke-linejoin="round"/>
<path d="M220.074 282.258C220.219 283.134 220.615 283.949 221.214 284.604C221.812 285.26 222.588 285.728 223.447 285.952C224.306 286.176 225.212 286.147 226.054 285.867C226.897 285.587 227.64 285.069 228.195 284.376C228.749 283.682 229.091 282.843 229.178 281.959C229.265 281.076 229.095 280.186 228.687 279.398C228.279 278.609 227.652 277.956 226.88 277.516C226.109 277.077 225.226 276.87 224.34 276.922" stroke="#1D1D1B" stroke-width="0.5" stroke-linecap="round" stroke-linejoin="round"/>
<path d="M178.504 152.483L188.02 165.107" stroke="#1D1D1B" stroke-width="0.5" stroke-linecap="round" stroke-linejoin="round"/>
<path d="M200.386 149.564C198.587 152.167 197.723 155.302 197.933 158.458C198.158 161.587 198.738 164.681 199.66 167.679" stroke="#1D1D1B" stroke-width="0.5" stroke-linecap="round" stroke-linejoin="round"/>
</svg>
