<svg width="227" height="152" viewBox="0 0 227 152" fill="none" xmlns="http://www.w3.org/2000/svg">
<path d="M127.131 41.49C127.503 42.1138 127.677 42.8353 127.631 43.56C127.603 43.9205 127.49 44.2694 127.303 44.5786C127.115 44.8877 126.858 45.1485 126.551 45.34C126.829 44.9796 126.993 44.5442 127.021 44.09C127.039 43.5992 126.936 43.1116 126.721 42.67C126.216 41.5078 125.289 40.5806 124.127 40.0757C122.965 39.5708 121.655 39.5259 120.461 39.95L119.171 39.83L117.581 39.71V40.08L117.291 39.87L115.081 40.16L114.421 39.84L111.871 41.36C111.421 41.16 110.971 40.93 110.541 40.69L110.001 41.6C109.272 41.6533 108.564 41.8719 107.932 42.2392C107.299 42.6065 106.759 43.1129 106.351 43.72C105.534 44.9677 104.799 46.2671 104.151 47.61C103.791 48.26 103.241 48.96 102.491 48.94C102.486 48.9202 102.486 48.8997 102.491 48.88C100.912 47.8921 99.6146 46.5133 98.7247 44.877C97.8347 43.2407 97.3822 41.4024 97.411 39.54L97.871 39.46C96.3565 36.957 95.6901 34.032 95.971 31.12L96.331 31.02C95.4773 27.5069 95.9996 23.8003 97.791 20.66C98.8538 18.7938 100.204 17.1065 101.791 15.66C102.588 14.9252 103.429 14.2405 104.311 13.61C105.305 12.8898 106.337 12.2223 107.401 11.61L108.691 12.07C108.793 11.9746 108.9 11.8845 109.011 11.8C110.499 10.5743 112.269 9.73908 114.161 9.36998C116.07 8.96652 118.042 8.96652 119.951 9.36998C121.616 9.73756 123.219 10.3438 124.711 11.17C127.325 12.652 129.687 14.5387 131.711 16.76C134.074 19.1416 135.961 21.9518 137.271 25.04C138.572 28.1505 138.767 31.6135 137.821 34.85C137.783 34.8817 137.749 34.9187 137.721 34.96C137.319 35.5584 137.065 36.244 136.981 36.96C136.761 37.67 134.981 40.85 134.291 41.13C133.587 41.3653 132.853 41.4967 132.111 41.52L131.721 40.69C131.163 40.9302 130.574 41.0885 129.971 41.16C128.617 41.3123 127.25 41.036 126.061 40.37C125.938 40.2734 125.804 40.1928 125.661 40.13C125.788 40.2194 125.922 40.2996 126.061 40.37C126.49 40.6672 126.854 41.0482 127.131 41.49Z" fill="#D1D0D1"/>
<path d="M177.901 106.59L177.081 105.17V105.08C179.067 99.3965 181.924 94.0561 185.551 89.2503L187.041 87.5303C186.121 85.9003 185.241 84.2503 184.361 82.5903C189.751 84.4203 194.161 88.4703 197.491 93.0903C199.473 95.7324 200.979 98.7003 201.941 101.86C202.585 104.484 202.976 107.163 203.111 109.86C203.362 111.574 203.301 113.319 202.931 115.01C202.564 116.178 201.96 117.256 201.157 118.179C200.353 119.101 199.367 119.847 198.261 120.37L198.061 120.28C197.535 121.554 196.824 122.744 195.951 123.81C194.451 125.59 190.851 125.6 188.551 125.27C189.221 125.287 189.883 125.126 190.47 124.802C191.057 124.479 191.547 124.006 191.891 123.43C192.511 122.02 191.671 120.43 190.891 119.13C189.351 116.71 187.731 114.26 185.391 112.6C184.192 111.824 182.804 111.39 181.377 111.344C179.95 111.298 178.537 111.643 177.291 112.34L177.151 112.59C176.731 112.82 176.291 113.03 175.861 113.24L175.621 112.73C175.621 112.33 175.621 111.93 175.621 111.53C175.652 110.649 175.81 109.776 176.091 108.94C176.406 107.972 177.046 107.142 177.901 106.59ZM193.251 96.7603C193.292 96.6012 193.275 96.4324 193.201 96.2853C193.128 96.1382 193.003 96.0228 192.851 95.9603C192.532 95.8388 192.184 95.8145 191.851 95.8903C189.705 96.1575 187.647 96.9061 185.83 98.0801C184.014 99.2541 182.486 100.823 181.361 102.67C186.471 100.33 189.571 98.7703 192.681 97.2103C192.921 97.1371 193.124 96.9765 193.251 96.7603Z" fill="#A55DA1"/>
<path d="M192.85 95.9602C193.003 96.0227 193.127 96.1381 193.2 96.2852C193.274 96.4323 193.292 96.6011 193.25 96.7602C193.133 96.9688 192.945 97.1285 192.72 97.2102C189.61 98.7702 186.51 100.33 181.4 102.67C182.525 100.823 184.053 99.254 185.87 98.08C187.686 96.906 189.744 96.1574 191.89 95.8902C192.211 95.8223 192.543 95.8466 192.85 95.9602Z" fill="#A55DA1"/>
<path d="M166.17 101.45L166.1 101.51C166.269 103.477 166.151 105.457 165.75 107.39L165.89 107.51C164.72 108.89 163.57 110.26 162.43 111.64L160.43 110.28C158.78 111.62 157.09 112.92 155.36 114.16C153.63 115.4 151.86 116.59 150.06 117.72C148.86 118.47 147.64 119.2 146.41 119.91L146.32 122.26C145.138 122.201 143.954 122.279 142.79 122.49H142.47C142.328 122.25 142.141 122.04 141.92 121.87C141.426 121.535 140.878 121.288 140.3 121.14L132.98 118.78C131.08 117.92 129.21 117.04 127.26 116.38L127.43 115.91C127.32 113.51 126.33 111.26 125.66 108.96C124.424 104.644 124.266 100.091 125.2 95.7001L126.74 95.9001C128.135 91.8536 129.851 87.9245 131.87 84.1501C132.748 82.4221 133.804 80.7901 135.02 79.2801C136.193 77.8302 137.685 76.6702 139.38 75.8901L137.97 73.1401C142.139 74.4175 146.47 75.0844 150.83 75.1201C147.29 71.5101 145.49 66.5401 144.45 61.6001C144.016 58.9391 143.418 56.3074 142.66 53.7201C142.28 52.5901 141.773 51.5066 141.15 50.4901L141.32 50.3901C143.955 50.9107 146.424 52.0676 148.51 53.7601C148.671 53.444 148.914 53.1764 149.212 52.9848C149.511 52.7933 149.855 52.6847 150.21 52.6701C150.918 52.6631 151.623 52.7816 152.29 53.0201C153.45 53.3701 154.6 53.7101 155.68 53.9501C158.793 53.9276 161.87 54.6114 164.68 55.9501C170.06 59.6101 174.22 64.8401 177.68 70.3801C180.13 74.3801 182.24 78.4701 184.4 82.5801C185.28 84.2401 186.16 85.8901 187.08 87.5201L185.59 89.2401C181.955 94.0606 179.094 99.4182 177.11 105.12L175.11 104.4C175.17 104.24 175.24 104.09 175.3 103.93L173.06 102.55L171.41 101.12C170.52 102.12 169.65 103.12 168.78 104.12L168.57 103.94C167.78 103.12 166.98 102.27 166.17 101.45Z" fill="#A55DA1"/>
<path d="M177.08 105.17L177.9 106.59C177.087 107.124 176.472 107.911 176.15 108.83C175.869 109.666 175.711 110.539 175.68 111.42H175.52C174.786 110.793 174.318 109.91 174.21 108.95C174.14 108.564 174.12 108.171 174.15 107.78C174.281 106.602 174.594 105.451 175.08 104.37L177.08 105.09V105.17Z" fill="#A55DA1"/>
<path d="M175.271 103.89C175.211 104.05 175.141 104.2 175.081 104.36C174.595 105.441 174.281 106.592 174.151 107.77C174.12 108.161 174.141 108.554 174.211 108.94H173.951C173.138 108.666 172.397 108.214 171.781 107.617C171.165 107.02 170.69 106.294 170.391 105.49C171.291 104.49 172.191 103.49 173.061 102.49L175.271 103.89Z" fill="#A55DA1"/>
<path d="M166.661 113.8V113.95C165.451 114.08 164.241 114.27 163.041 114.52C163.961 113.22 164.981 111.89 166.041 110.52L166.151 110.61C165.946 111.7 166.127 112.828 166.661 113.8Z" fill="#A55DA1"/>
<path d="M160.441 110.28L162.441 111.64L159.531 115.17L159.591 115.37C158.991 115.53 158.391 115.72 157.791 115.91L155.371 114.12C157.101 112.92 158.791 111.62 160.441 110.28Z" fill="#A55DA1"/>
<path d="M155.37 114.12L157.78 115.87C157.27 116.48 156.78 117.09 156.31 117.73L156.1 117.57C154.7 118.06 153.33 118.57 152.02 119.19L150.07 117.68C151.87 116.58 153.637 115.393 155.37 114.12Z" fill="#A55DA1"/>
<path d="M152.02 119.23C151.58 119.417 151.15 119.617 150.73 119.83C150.549 120.798 150.439 121.777 150.4 122.76C150.404 122.797 150.404 122.834 150.4 122.87L149.93 122.81C148.762 122.488 147.56 122.303 146.35 122.26L146.44 119.91C147.67 119.2 148.89 118.47 150.09 117.72L152.02 119.23Z" fill="#A55DA1"/>
<path d="M136.339 66.0601C136.189 63.8001 136.029 61.4901 135.909 59.4901H135.829C136.885 55.7984 137.277 51.9489 136.989 48.1201C137.355 47.8205 137.69 47.4855 137.989 47.1201L138.139 47.2601C139.371 48.1168 140.396 49.2374 141.139 50.5401C141.763 51.5403 142.273 52.6069 142.659 53.7201C143.417 56.3041 144.015 58.9325 144.449 61.5901C145.449 66.5301 147.289 71.5001 150.829 75.1101C146.47 75.098 142.135 74.4547 137.959 73.2001L139.369 75.9501C137.675 76.7301 136.183 77.8902 135.009 79.3401C133.794 80.85 132.738 82.4821 131.859 84.2101C129.84 87.9845 128.125 91.9136 126.729 95.9601L125.189 95.7601C125.705 93.3252 126.546 90.9707 127.689 88.7601L127.809 88.5401C131.644 81.4705 134.506 73.9156 136.319 66.0801L136.339 66.0601Z" fill="#A55DA1"/>
<path d="M127.809 88.52L127.689 88.74C126.546 90.9506 125.705 93.3051 125.189 95.74C124.255 100.138 124.417 104.699 125.659 109.02C126.329 111.32 127.319 113.57 127.429 115.97L127.259 116.44C126.929 116.32 126.599 116.22 126.259 116.12C125.714 115.954 125.149 115.867 124.579 115.86V115.69C122.608 115.258 120.689 114.611 118.859 113.76C117.257 109.866 116.54 105.665 116.759 101.46C116.939 97.06 117.649 92.66 117.599 88.27H117.659C119.039 89.4681 120.796 90.1443 122.623 90.1808C124.45 90.2174 126.232 89.612 127.659 88.47L127.809 88.52Z" fill="#D1D0D1"/>
<path d="M107.79 3.06019V2.85019C109.176 1.57866 110.97 0.842147 112.85 0.77252C114.73 0.702893 116.573 1.3047 118.05 2.47019L118.2 2.27019C119.61 2.35509 121.001 2.64133 122.33 3.12019C122.999 3.35812 123.611 3.73257 124.128 4.21977C124.644 4.70696 125.054 5.29625 125.33 5.95019C125.9 7.54019 125.33 9.28019 124.84 10.8902L124.72 11.1102C123.228 10.284 121.625 9.67777 119.96 9.31019C118.051 8.90673 116.079 8.90673 114.17 9.31019C112.278 9.6793 110.508 10.5145 109.02 11.7402L108.88 11.5702C108.777 10.8457 108.472 10.1648 108 9.60583C107.528 9.04686 106.907 8.63245 106.21 8.41019C106.001 8.3318 105.788 8.26831 105.57 8.22019L105.5 8.56019C105.02 8.71405 104.587 8.98631 104.24 9.35186C103.893 9.7174 103.644 10.1644 103.515 10.6517C103.387 11.139 103.383 11.6508 103.504 12.1399C103.626 12.629 103.868 13.0796 104.21 13.4502L104.32 13.6002C103.438 14.2307 102.597 14.9154 101.8 15.6502L101.55 15.3802C100.379 14.1265 99.67 12.5108 99.5409 10.8C99.4118 9.08915 99.8701 7.38543 100.84 5.97019C101.645 4.92208 102.709 4.10228 103.928 3.5919C105.147 3.08151 106.478 2.89823 107.79 3.06019Z" fill="#D1D0D1"/>
<path d="M124.561 115.69V115.86C124.029 115.854 123.513 116.042 123.111 116.39L122.531 116.47C121.881 116.55 121.231 116.66 120.531 116.79C119.855 115.851 119.275 114.846 118.801 113.79C120.645 114.634 122.577 115.271 124.561 115.69Z" fill="#D1D0D1"/>
<path d="M118.841 113.76C119.315 114.816 119.895 115.821 120.571 116.76C118.158 117.247 115.81 118.009 113.571 119.03L113.091 119.25C109.809 119.702 106.475 119.618 103.221 119L103.281 118.66C103.381 117.13 101.851 116.03 100.441 115.43C97.8674 114.361 95.1068 113.817 92.3206 113.83V113.6C92.05 113.045 91.855 112.457 91.7405 111.85C91.5539 110.494 91.5877 109.116 91.8405 107.77V107.56L90.3705 105.56C86.7172 96.2269 83.0505 86.9202 79.3705 77.6402L77.8105 75.2502C77.9705 74.4802 78.1705 73.7102 78.4005 72.9602C80.0489 67.6175 83.3312 62.9262 87.7854 59.5466C92.2395 56.1669 97.6413 54.2691 103.231 54.1202L103.671 53.9502C104.517 56.0797 105.625 58.0953 106.971 59.9502L106.671 60.1602C105.05 66.9444 102.948 73.6046 100.381 80.0902C102.461 79.9602 104.281 78.7402 106.131 77.7802C107.981 76.8202 110.201 76.0902 112.131 76.9802C113.291 77.6486 114.262 78.602 114.951 79.7502L116.281 80.4502C115.466 81.2212 114.701 82.0429 113.991 82.9102C115.387 83.6836 116.598 84.7516 117.541 86.0402C117.591 86.7602 117.621 87.4702 117.621 88.1902C117.671 92.5802 116.961 96.9802 116.781 101.38C116.537 105.609 117.241 109.838 118.841 113.76Z" fill="#A55DA1"/>
<path d="M117.07 79.7803C116.79 80.0203 116.51 80.2803 116.24 80.5303L114.91 79.8303C114.221 78.6821 113.25 77.7287 112.09 77.0603C110.2 76.1703 107.97 76.9003 106.09 77.8603C104.21 78.8203 102.42 80.0403 100.34 80.1703C102.917 73.6855 105.029 67.0253 106.66 60.2403L106.96 60.0303C107.05 60.1703 107.14 60.3003 107.24 60.4303C109.368 63.2382 111.708 65.8793 114.24 68.3303C114.166 72.3287 115.142 76.2765 117.07 79.7803Z" fill="#A55DA1"/>
<path d="M108.9 11.5704L109.04 11.7404C108.929 11.825 108.822 11.9151 108.72 12.0104L107.43 11.5504C106.365 12.1627 105.334 12.8303 104.34 13.5504L104.23 13.4004C103.888 13.0299 103.645 12.5792 103.524 12.0901C103.403 11.601 103.406 11.0892 103.535 10.6019C103.663 10.1147 103.913 9.66762 104.259 9.30208C104.606 8.93653 105.04 8.66427 105.52 8.51041L105.59 8.17041C105.807 8.21853 106.021 8.28202 106.23 8.36041C106.934 8.58635 107.559 9.00831 108.032 9.57684C108.505 10.1454 108.806 10.8369 108.9 11.5704Z" fill="#D1D0D1"/>
<path d="M79.0704 129.64C78.6125 129.56 78.1805 129.371 77.8104 129.09C77.1047 128.543 76.5958 127.781 76.3604 126.92C76.0569 125.604 76.0569 124.236 76.3604 122.92C76.5573 121.333 77.1111 119.812 77.9804 118.47C79.4204 116.47 81.8804 115.54 84.2604 114.91C86.2579 114.386 88.3003 114.051 90.3604 113.91C91.0204 113.91 91.6804 113.84 92.3604 113.85C95.1467 113.837 97.9073 114.381 100.48 115.45C101.89 116.05 103.42 117.15 103.32 118.68L103.26 119.02C102.069 118.797 100.891 118.51 99.7304 118.16V118.06C96.8479 118.363 94.0522 119.226 91.5004 120.6C88.8004 122.21 86.6504 125.08 86.5604 128.14C86.5387 128.565 86.5622 128.99 86.6304 129.41L86.6904 130.64C86.4004 130.64 86.1104 130.64 85.8204 130.64C83.5366 130.601 81.2675 130.265 79.0704 129.64Z" fill="#A55DA1"/>
<path d="M92.1999 127.93V128.3C90.6875 129.705 88.7311 130.537 86.6699 130.65L86.6599 129.42C86.5916 129.001 86.5681 128.575 86.5899 128.15H86.8199C88.5899 128.12 90.3899 127.99 92.1999 127.93Z" fill="#A55DA1"/>
<path d="M61.52 102.49L61.46 102.43C62.3 98.7204 66.46 96.8604 68.55 93.6804C70.16 91.2204 70.41 88.1404 71.12 85.2904C72.3445 80.5833 74.8507 76.3081 78.36 72.9404L78.52 72.9904C78.29 73.7404 78.09 74.5104 77.93 75.2804L79.49 77.6704C83.15 87.0038 86.8167 96.3104 90.49 105.59L91.96 107.59V107.8C90.7451 109.212 89.3729 110.48 87.87 111.58L87.73 111.82C84.5518 109.98 80.9596 108.974 77.2879 108.895C73.6161 108.817 69.9842 109.668 66.73 111.37H65.18C64.9631 110.542 64.6959 109.727 64.38 108.93C62.32 108.8 60.28 108.67 58.25 108.56V108.37C58.6767 106.109 59.8238 104.046 61.52 102.49ZM82.73 106.27L83.73 105.64C83.3684 102.19 82.252 98.8612 80.46 95.8904C79.9954 94.9827 79.307 94.2083 78.46 93.6404C78.0268 93.371 77.5203 93.2436 77.0112 93.2758C76.5021 93.3081 76.0157 93.4985 75.62 93.8204C75.2909 94.2022 75.0829 94.6733 75.0223 95.1737C74.9618 95.6741 75.0515 96.1812 75.28 96.6304C75.7535 97.5195 76.3797 98.3183 77.13 98.9904C79.2609 101.202 81.1391 103.644 82.73 106.27Z" fill="#A55DA1"/>
<path d="M90.3703 113.67V113.92C88.3101 114.062 86.2678 114.397 84.2703 114.92C81.8903 115.55 79.4303 116.49 77.9903 118.48C77.121 119.822 76.5671 121.344 76.3703 122.93C76.0668 124.246 76.0668 125.614 76.3703 126.93C76.6057 127.792 77.1146 128.553 77.8203 129.1V129.15C74.9175 128.896 72.1086 127.994 69.6003 126.51H69.2903C69.3423 125.954 69.2811 125.393 69.1103 124.86C68.576 123.502 67.6803 122.316 66.5203 121.43C65.786 121.405 65.0508 121.432 64.3203 121.51C65.8504 118.358 66.1361 114.744 65.1203 111.39H66.6703C69.9245 109.688 73.5564 108.836 77.2282 108.915C80.8999 108.994 84.4921 110 87.6703 111.84C88.6173 112.378 89.5201 112.99 90.3703 113.67Z" fill="#A55DA1"/>
<path d="M83.7307 105.64L82.7307 106.27C81.1304 103.642 79.2421 101.2 77.1007 98.99C76.3504 98.3179 75.7242 97.5191 75.2507 96.63C75.0222 96.1808 74.9325 95.6737 74.993 95.1733C75.0535 94.6729 75.2616 94.2018 75.5907 93.82C75.9864 93.4981 76.4728 93.3077 76.9819 93.2754C77.491 93.2431 77.9975 93.3706 78.4307 93.64C79.2777 94.2079 79.9661 94.9822 80.4307 95.89C82.2332 98.8583 83.3599 102.187 83.7307 105.64Z" fill="#A55DA1"/>
<path d="M101.9 8.1204C103.129 7.95799 104.376 8.00192 105.59 8.2504C105.808 8.29851 106.022 8.36201 106.23 8.4404C106.928 8.66265 107.548 9.07707 108.02 9.63604C108.493 10.195 108.798 10.8759 108.9 11.6004" stroke="#1D1D1B" stroke-width="0.5" stroke-linecap="round" stroke-linejoin="round"/>
<path d="M105.52 8.56006C105.04 8.71391 104.606 8.98618 104.259 9.35173C103.913 9.71727 103.663 10.1643 103.535 10.6516C103.406 11.1389 103.403 11.6507 103.524 12.1398C103.645 12.6289 103.888 13.0795 104.23 13.4501" stroke="#1D1D1B" stroke-width="0.5" stroke-linecap="round" stroke-linejoin="round"/>
<path d="M102.081 9.20996C101.819 9.60461 101.646 10.0512 101.574 10.519C101.501 10.9868 101.531 11.4647 101.661 11.92C101.803 12.3657 102.041 12.7753 102.356 13.1206C102.672 13.4658 103.059 13.7385 103.491 13.92" stroke="#1D1D1B" stroke-width="0.5" stroke-linecap="round" stroke-linejoin="round"/>
<path d="M111.59 2.99023C112.231 3.15795 112.824 3.47214 113.323 3.90808C113.822 4.34402 114.212 4.8898 114.464 5.50246C114.716 6.11511 114.823 6.7779 114.775 7.43866C114.728 8.09941 114.527 8.74009 114.19 9.31023V9.38023" stroke="#1D1D1B" stroke-width="0.5" stroke-linecap="round" stroke-linejoin="round"/>
<path d="M115.811 2.25C116.257 2.67822 116.601 3.2022 116.816 3.78247C117.03 4.36274 117.111 4.98419 117.051 5.6" stroke="#1D1D1B" stroke-width="0.5" stroke-linecap="round" stroke-linejoin="round"/>
<path d="M119.041 4.59033C119.336 5.29362 119.43 6.06484 119.314 6.81853C119.197 7.57221 118.874 8.27892 118.381 8.86033" stroke="#1D1D1B" stroke-width="0.5" stroke-linecap="round" stroke-linejoin="round"/>
<path d="M122 9.64014C122.462 9.40108 122.848 9.03771 123.114 8.59103C123.38 8.14435 123.517 7.63214 123.507 7.1122C123.498 6.59226 123.343 6.08528 123.061 5.64847C122.779 5.21167 122.38 4.86242 121.91 4.64014" stroke="#1D1D1B" stroke-width="0.5" stroke-linecap="round" stroke-linejoin="round"/>
<path d="M2.01953 65.3501C7.62953 64.5601 7.79954 64.5101 13.3995 63.6601C13.4042 63.6404 13.4042 63.6198 13.3995 63.6001" stroke="#1D1D1B" stroke-linecap="round" stroke-linejoin="round"/>
<path d="M13.5605 63.52C28.8505 66.2 44.0406 69.38 58.9206 73.22C59.0702 73.3997 59.1522 73.6262 59.1522 73.86C59.1522 74.0939 59.0702 74.3203 58.9206 74.5C58.6809 74.8293 58.322 75.0518 57.9206 75.12H57.7606C57.2186 75.1266 56.684 75.2458 56.1906 75.47C55.6178 75.9079 55.1392 76.4569 54.7835 77.084C54.4279 77.7112 54.2024 78.4037 54.1205 79.12C53.9971 80.8203 54.5466 82.501 55.6505 83.8C56.1208 83.8713 56.5808 83.9989 57.0205 84.18C57.1155 84.2228 57.2033 84.2802 57.2805 84.35C57.4307 84.4965 57.5408 84.679 57.6006 84.88C57.7507 85.4041 57.7082 85.9646 57.4806 86.46" stroke="#1D1D1B" stroke-linecap="round" stroke-linejoin="round"/>
<path d="M60.4308 87.3C44.9408 84.3 29.4309 81.69 13.7809 79.61C7.83085 79.54 10.0709 79.19 4.13086 79.61" stroke="#1D1D1B" stroke-linecap="round" stroke-linejoin="round"/>
<path d="M4.13086 80.7203C13.2609 80.6403 17.6109 80.9103 26.7209 81.4803" stroke="#1D1D1B" stroke-linecap="round" stroke-linejoin="round"/>
<path d="M60.2802 98.0002L60.1201 98.2302C56.9201 97.9602 53.7002 97.7002 50.4802 97.4702C40.2502 96.7102 29.9402 96.1302 19.7002 95.7302C17.2402 95.6302 14.7902 95.5502 12.3502 95.4702H4.66016" stroke="#1D1D1B" stroke-linecap="round" stroke-linejoin="round"/>
<path d="M60.25 98.1201C60.25 98.1201 60.25 98.1201 60.25 98.0601" stroke="#1D1D1B" stroke-linecap="round" stroke-linejoin="round"/>
<path d="M60.4309 87.46C60.417 87.928 60.2907 88.3858 60.0627 88.7948C59.8347 89.2038 59.5117 89.552 59.1209 89.81C58.0609 91.31 58.1809 94.21 59.3509 96.03C59.4235 96.0149 59.4984 96.0149 59.5709 96.03C60.2109 96.24 60.3209 97.28 60.2809 97.94" stroke="#1D1D1B" stroke-linecap="round" stroke-linejoin="round"/>
<path d="M50.4492 97.8301C52.4492 100.4 52.4492 105.15 50.8892 108.03" stroke="#1D1D1B" stroke-linecap="round" stroke-linejoin="round"/>
<path d="M32.8301 98.3203C33.8179 99.2153 34.4528 100.434 34.6197 101.757C34.7866 103.079 34.4746 104.418 33.7401 105.53" stroke="#1D1D1B" stroke-linecap="round" stroke-linejoin="round"/>
<path d="M3.46094 107.39C11.4109 107.29 19.0809 107.3 26.6809 107.39C34.7409 107.52 42.731 107.78 50.881 108.17C53.281 108.283 55.701 108.41 58.141 108.55C60.141 108.66 62.2109 108.79 64.2709 108.92" stroke="#1D1D1B" stroke-linecap="round" stroke-linejoin="round"/>
<path d="M19.5304 109.75C19.573 109.82 19.6098 109.894 19.6404 109.97C21.2004 112.97 20.9404 118.75 19.4004 121.68" stroke="#1D1D1B" stroke-linecap="round" stroke-linejoin="round"/>
<path d="M64.2709 108.95C64.5869 109.747 64.854 110.561 65.071 111.39C66.0867 114.744 65.801 118.358 64.2709 121.51C49.1709 122.83 33.3709 123.56 18.2109 123.6" stroke="#1D1D1B" stroke-linecap="round" stroke-linejoin="round"/>
<path d="M2.49023 120.85C3.15023 120.94 3.80023 121.05 4.49023 121.15C7.74023 121.69 10.9203 122.37 14.1403 122.95C15.4303 123.18 16.7303 123.4 18.0403 123.59" stroke="#1D1D1B" stroke-linecap="round" stroke-linejoin="round"/>
<path d="M63.6603 121.57H64.3103C65.0408 121.491 65.776 121.465 66.5103 121.49C67.6704 122.376 68.566 123.562 69.1003 124.92C69.3035 125.536 69.3542 126.191 69.248 126.831C69.1417 127.47 68.8817 128.074 68.4903 128.59C68.292 128.862 68.0676 129.113 67.8203 129.34L16.8203 132.12" stroke="#1D1D1B" stroke-linecap="round" stroke-linejoin="round"/>
<path d="M16.9407 124.91L16.9907 124.98C17.2381 125.357 17.401 125.782 17.4684 126.227C17.5357 126.673 17.5058 127.127 17.3807 127.56C17.2123 128.622 16.9064 129.657 16.4707 130.64" stroke="#1D1D1B" stroke-linecap="round" stroke-linejoin="round"/>
<path d="M2.01953 128.98C5.69953 129.8 9.40956 130.51 13.1096 131.28C14.3396 131.53 15.5696 131.8 16.7996 132.07" stroke="#1D1D1B" stroke-linecap="round" stroke-linejoin="round"/>
<path d="M15.6602 134.2C17.6602 138.3 17.4302 144.07 15.6602 148.29" stroke="#1D1D1B" stroke-linecap="round" stroke-linejoin="round"/>
<path d="M19.3309 110.12C18.3705 113.806 18.2509 117.661 18.9809 121.4" stroke="#1D1D1B" stroke-width="0.5" stroke-linecap="round" stroke-linejoin="round"/>
<path d="M16.8406 125.12C16.1054 126.802 15.8029 128.641 15.9606 130.47" stroke="#1D1D1B" stroke-width="0.5" stroke-linecap="round" stroke-linejoin="round"/>
<path d="M15.4999 134.12V134.19C15.2399 138.723 15.1565 143.257 15.2499 147.79" stroke="#1D1D1B" stroke-width="0.5" stroke-linecap="round" stroke-linejoin="round"/>
<path d="M68.7101 128.55C71.174 128.943 73.5949 129.569 75.9402 130.42C76.4218 132.568 76.5735 134.777 76.3902 136.97C76.3902 137.5 76.2901 138.05 76.2101 138.59C75.9019 140.572 75.3546 142.51 74.5802 144.36C55.0402 146.08 35.5202 148.19 16.0502 150.57C11.2506 148.746 6.74044 146.237 2.66016 143.12" stroke="#1D1D1B" stroke-linecap="round" stroke-linejoin="round"/>
<path d="M103.23 54.1201C97.6613 54.2937 92.2862 56.2029 87.8559 59.5808C83.4256 62.9586 80.1614 67.6364 78.5197 72.9601C78.2897 73.7101 78.0897 74.4801 77.9297 75.2501" stroke="#1D1D1B" stroke-linecap="round" stroke-linejoin="round"/>
<path d="M78.361 72.9404C74.8517 76.3081 72.3454 80.5833 71.1209 85.2904C70.4109 88.1404 70.121 91.2204 68.551 93.6804C66.461 96.8604 62.3009 98.6804 61.4609 102.43" stroke="#1D1D1B" stroke-linecap="round" stroke-linejoin="round"/>
<path d="M63.5302 101.12C62.8093 101.5 62.1377 101.967 61.5302 102.51C59.7933 104.057 58.6099 106.129 58.1602 108.41" stroke="#1D1D1B" stroke-linecap="round" stroke-linejoin="round"/>
<path d="M79.4902 77.6704C83.1502 87.0037 86.8169 96.3104 90.4902 105.59" stroke="#1D1D1B" stroke-linecap="round" stroke-linejoin="round"/>
<path d="M85.541 67.1802C88.041 73.1802 88.271 79.7502 88.611 86.1802C88.951 92.6102 89.501 99.2902 92.511 105" stroke="#1D1D1B" stroke-linecap="round" stroke-linejoin="round"/>
<path d="M94.6599 66.8003C95.1035 78.2581 94.8564 89.7322 93.9199 101.16" stroke="#1D1D1B" stroke-linecap="round" stroke-linejoin="round"/>
<path d="M98.9504 57.5103C97.2331 68.2751 96.2973 79.1502 96.1504 90.0503" stroke="#1D1D1B" stroke-linecap="round" stroke-linejoin="round"/>
<path d="M84.3807 109.28C83.8707 108.28 83.3207 107.28 82.7307 106.28C81.1304 103.652 79.2421 101.21 77.1007 99.0003C76.3504 98.3281 75.7242 97.5293 75.2507 96.6403C75.0222 96.191 74.9325 95.6839 74.993 95.1835C75.0535 94.6831 75.2616 94.2121 75.5907 93.8303C75.9864 93.5083 76.4728 93.3179 76.9819 93.2857C77.491 93.2534 77.9975 93.3809 78.4307 93.6503C79.2777 94.2181 79.9661 94.9925 80.4307 95.9003C82.2226 98.8711 83.3391 102.2 83.7007 105.65" stroke="#1D1D1B" stroke-linecap="round" stroke-linejoin="round"/>
<path d="M66.9297 103.23C69.1985 103.009 71.4882 103.285 73.6399 104.038C75.7915 104.791 77.7535 106.003 79.3897 107.59" stroke="#1D1D1B" stroke-linecap="round" stroke-linejoin="round"/>
<path d="M65.9199 107.75C69.7239 106.876 73.7067 107.226 77.2999 108.75" stroke="#1D1D1B" stroke-linecap="round" stroke-linejoin="round"/>
<path d="M66.6602 111.37C69.9143 109.668 73.5463 108.816 77.218 108.895C80.8898 108.974 84.4819 109.98 87.6602 111.82C88.6113 112.364 89.5175 112.983 90.3701 113.67" stroke="#1D1D1B" stroke-linecap="round" stroke-linejoin="round"/>
<path d="M92.0208 107.66C91.9828 107.712 91.9392 107.758 91.8908 107.8C90.6759 109.212 89.3037 110.48 87.8008 111.58" stroke="#1D1D1B" stroke-linecap="round" stroke-linejoin="round"/>
<path d="M103.33 118.69C103.43 117.16 101.9 116.06 100.49 115.46C97.9171 114.391 95.1564 113.847 92.3702 113.86C91.7002 113.86 91.0402 113.86 90.3702 113.92C88.31 114.061 86.2677 114.396 84.2702 114.92C81.8902 115.55 79.4302 116.49 77.9902 118.48C77.1209 119.822 76.567 121.343 76.3702 122.93C76.0667 124.246 76.0667 125.614 76.3702 126.93C76.6056 127.791 77.1145 128.553 77.8202 129.1C78.1903 129.381 78.6223 129.57 79.0802 129.65" stroke="#1D1D1B" stroke-linecap="round" stroke-linejoin="round"/>
<path d="M101.711 117.77C101.051 117.86 100.381 117.96 99.711 118.07C96.8285 118.373 94.0329 119.236 91.481 120.61C88.781 122.22 86.631 125.09 86.541 128.15C86.5193 128.575 86.5428 129 86.6111 129.42" stroke="#1D1D1B" stroke-linecap="round" stroke-linejoin="round"/>
<path d="M69.5508 126.54C72.0591 128.023 74.8679 128.925 77.7708 129.18" stroke="#1D1D1B" stroke-linecap="round" stroke-linejoin="round"/>
<path d="M78.9102 129.6H79.0702C81.264 130.224 83.5296 130.56 85.8102 130.6C86.1002 130.6 86.3901 130.6 86.6801 130.6C88.7413 130.486 90.6977 129.655 92.2101 128.25" stroke="#1D1D1B" stroke-linecap="round" stroke-linejoin="round"/>
<path d="M86.7793 128.12C88.5893 128.03 90.3893 127.95 92.1993 127.89C93.7693 127.83 95.3293 127.79 96.8893 127.77C100.369 127.69 103.839 127.67 107.319 127.71C110.439 127.71 113.779 127.76 116.509 126.36C116.885 126.17 117.246 125.953 117.589 125.71" stroke="#1D1D1B" stroke-linecap="round" stroke-linejoin="round"/>
<path d="M99.7402 118.17C100.901 118.52 102.079 118.807 103.27 119.03C106.525 119.648 109.858 119.732 113.14 119.28L113.62 119.06C115.859 118.039 118.208 117.277 120.62 116.79C121.29 116.66 121.94 116.55 122.62 116.47L123.2 116.39C123.603 116.042 124.118 115.854 124.65 115.86C125.22 115.866 125.785 115.954 126.33 116.12C126.67 116.22 127 116.32 127.33 116.44C129.33 117.1 131.15 117.98 133.05 118.84L133.27 118.94C135.204 120.777 137.288 122.449 139.5 123.94L140.75 124.77C140.656 125.201 140.421 125.589 140.083 125.873C139.744 126.157 139.322 126.322 138.88 126.34C137.992 126.345 137.119 126.114 136.35 125.67C133.982 124.416 131.724 122.964 129.6 121.33" stroke="#1D1D1B" stroke-linecap="round" stroke-linejoin="round"/>
<path d="M122.75 118C123.423 117.941 124.1 118.03 124.734 118.261C125.369 118.493 125.944 118.861 126.42 119.34L129.3 121.6C131.74 123.53 134.17 125.47 136.56 127.52C136.321 127.844 136.007 128.104 135.644 128.278C135.282 128.453 134.882 128.536 134.48 128.52C133.676 128.475 132.889 128.264 132.17 127.9C131.69 127.68 131.17 127.45 130.75 127.19C129.632 126.594 128.553 125.926 127.52 125.19C126.04 124.19 124.61 122.97 123.16 121.8C122.326 121.512 121.459 121.328 120.58 121.25" stroke="#1D1D1B" stroke-linecap="round" stroke-linejoin="round"/>
<path d="M114.34 120.65C115.526 120 116.908 119.801 118.23 120.09" stroke="#1D1D1B" stroke-linecap="round" stroke-linejoin="round"/>
<path d="M119.381 120.58C119.671 120.89 119.961 121.2 120.271 121.51C121.671 122.983 123.138 124.39 124.671 125.73C125.561 126.53 126.481 127.3 127.411 128.05" stroke="#1D1D1B" stroke-linecap="round" stroke-linejoin="round"/>
<path d="M114.871 124.12C115.771 124.12 116.681 124.12 117.491 124.12C118.261 124.73 119.051 125.35 119.861 125.94C121.581 127.28 123.559 128.25 125.671 128.79C126.038 128.89 126.424 128.89 126.791 128.79C126.965 128.742 127.12 128.643 127.236 128.506C127.352 128.369 127.423 128.199 127.441 128.02V127.97" stroke="#1D1D1B" stroke-linecap="round" stroke-linejoin="round"/>
<path d="M116.6 126.58C117.688 126.72 118.793 126.54 119.78 126.06" stroke="#1D1D1B" stroke-linecap="round" stroke-linejoin="round"/>
<path d="M124.77 125.62C125.653 125.67 126.539 125.589 127.4 125.38" stroke="#1D1D1B" stroke-linecap="round" stroke-linejoin="round"/>
<path d="M139.58 123.71C140.623 123.988 141.73 123.882 142.7 123.41C142.724 123.095 142.647 122.779 142.48 122.51C142.338 122.27 142.152 122.06 141.93 121.89C141.436 121.555 140.888 121.308 140.31 121.16L132.99 118.8" stroke="#1D1D1B" stroke-linecap="round" stroke-linejoin="round"/>
<path d="M106.661 60.2402C105.04 67.0245 102.938 73.6846 100.371 80.1702C102.451 80.0402 104.271 78.8202 106.121 77.8602C107.971 76.9002 110.191 76.1702 112.121 77.0602C113.281 77.7286 114.252 78.682 114.941 79.8302" stroke="#1D1D1B" stroke-linecap="round" stroke-linejoin="round"/>
<path d="M111.9 66.6001C111.76 69.3868 111.627 72.1768 111.5 74.9701" stroke="#1D1D1B" stroke-linecap="round" stroke-linejoin="round"/>
<path d="M114.239 68.3501C114.169 72.3417 115.145 76.2822 117.069 79.7801C116.789 80.0201 116.509 80.2801 116.239 80.5301C115.425 81.3011 114.66 82.1228 113.949 82.9901C115.346 83.7635 116.557 84.8315 117.499 86.1201C117.549 86.8401 117.579 87.5501 117.579 88.2701C117.629 92.6601 116.919 97.0601 116.739 101.46C116.52 105.665 117.237 109.866 118.839 113.76C119.314 114.816 119.893 115.821 120.569 116.76" stroke="#1D1D1B" stroke-linecap="round" stroke-linejoin="round"/>
<path d="M117.93 110.94C120.05 111.967 122.223 112.881 124.44 113.68" stroke="#1D1D1B" stroke-linecap="round" stroke-linejoin="round"/>
<path d="M118.721 113.7L118.841 113.76C120.671 114.611 122.589 115.259 124.561 115.69" stroke="#1D1D1B" stroke-linecap="round" stroke-linejoin="round"/>
<path d="M127.42 115.97C127.31 113.57 126.32 111.32 125.65 109.02C124.414 104.704 124.256 100.151 125.19 95.7601C125.706 93.3251 126.546 90.9706 127.69 88.7601L127.81 88.5401C131.645 81.4705 134.507 73.9156 136.32 66.0801" stroke="#1D1D1B" stroke-linecap="round" stroke-linejoin="round"/>
<path d="M136.659 70.5402C136.569 69.1502 136.469 67.6202 136.369 66.0602C136.219 63.8002 136.059 61.4902 135.939 59.4902" stroke="#1D1D1B" stroke-linecap="round" stroke-linejoin="round"/>
<path d="M126.73 95.96C128.126 91.9134 129.841 87.9843 131.86 84.21C132.739 82.482 133.795 80.8499 135.01 79.34C136.184 77.89 137.676 76.73 139.37 75.95L137.96 73.2C142.135 74.4579 146.47 75.1046 150.83 75.12C147.29 71.51 145.49 66.54 144.45 61.6C144.017 58.9389 143.419 56.3073 142.66 53.72C142.28 52.5899 141.774 51.5064 141.15 50.49C140.407 49.1872 139.382 48.0667 138.15 47.21" stroke="#1D1D1B" stroke-linecap="round" stroke-linejoin="round"/>
<path d="M141.32 50.3901C143.956 50.9107 146.424 52.0676 148.51 53.7601C148.671 53.444 148.914 53.1764 149.213 52.9848C149.511 52.7933 149.856 52.6847 150.21 52.6701C150.919 52.6631 151.623 52.7816 152.29 53.0201C153.45 53.3701 154.6 53.7101 155.68 53.9501C158.793 53.9276 161.87 54.6114 164.68 55.9501C170.06 59.6101 174.22 64.8401 177.68 70.3801C180.13 74.3801 182.24 78.4701 184.4 82.5801C185.28 84.2401 186.16 85.8901 187.08 87.5201" stroke="#1D1D1B" stroke-linecap="round" stroke-linejoin="round"/>
<path d="M161.491 76.4502C160.787 84.316 161.766 92.2416 164.361 99.7002" stroke="#1D1D1B" stroke-linecap="round" stroke-linejoin="round"/>
<path d="M163.66 63.5801C165.932 75.0997 166.812 86.8506 166.28 98.5801" stroke="#1D1D1B" stroke-linecap="round" stroke-linejoin="round"/>
<path d="M176.25 77.25C176.999 85.4391 176.942 93.682 176.08 101.86" stroke="#1D1D1B" stroke-linecap="round" stroke-linejoin="round"/>
<path d="M185.579 89.25C181.949 94.068 179.091 99.4222 177.109 105.12V105.21" stroke="#1D1D1B" stroke-linecap="round" stroke-linejoin="round"/>
<path d="M181.4 102.67C182.525 100.823 184.053 99.2542 185.87 98.0802C187.686 96.9062 189.744 96.1576 191.89 95.8904C192.223 95.8145 192.571 95.8389 192.89 95.9604C193.043 96.0228 193.167 96.1383 193.24 96.2854C193.314 96.4325 193.332 96.6012 193.29 96.7604C193.173 96.969 192.985 97.1286 192.76 97.2104C189.66 98.7704 186.51 100.33 181.4 102.67Z" stroke="#1D1D1B" stroke-linecap="round" stroke-linejoin="round"/>
<path d="M175.27 103.89C175.21 104.05 175.14 104.2 175.08 104.36C174.594 105.441 174.281 106.592 174.15 107.77C174.12 108.161 174.14 108.554 174.21 108.94C174.318 109.9 174.786 110.783 175.52 111.41" stroke="#1D1D1B" stroke-linecap="round" stroke-linejoin="round"/>
<path d="M175.66 112.62C175.66 112.22 175.66 111.82 175.66 111.42C175.691 110.538 175.849 109.666 176.13 108.83C176.452 107.911 177.067 107.124 177.88 106.59C178.149 106.424 178.443 106.302 178.75 106.23" stroke="#1D1D1B" stroke-linecap="round" stroke-linejoin="round"/>
<path d="M177.32 112.23C178.566 111.533 179.979 111.188 181.406 111.234C182.834 111.28 184.222 111.714 185.42 112.49C187.76 114.15 189.42 116.6 190.92 119.02C191.75 120.32 192.59 121.91 191.92 123.32C191.579 123.876 191.099 124.334 190.527 124.649C189.956 124.965 189.313 125.127 188.66 125.12C188.541 125.13 188.42 125.13 188.3 125.12" stroke="#1D1D1B" stroke-linecap="round" stroke-linejoin="round"/>
<path d="M181.98 105.37C183.712 104.7 185.565 104.402 187.419 104.497C189.273 104.592 191.087 105.077 192.741 105.921C194.394 106.765 195.851 107.948 197.016 109.394C198.181 110.839 199.028 112.515 199.5 114.31" stroke="#1D1D1B" stroke-linecap="round" stroke-linejoin="round"/>
<path d="M188.66 125.19C190.96 125.52 194.56 125.51 196.06 123.73C196.933 122.664 197.644 121.474 198.17 120.2C198.57 119.33 198.91 118.44 199.24 117.55" stroke="#1D1D1B" stroke-linecap="round" stroke-linejoin="round"/>
<path d="M198.339 120.29C199.445 119.767 200.431 119.021 201.235 118.099C202.039 117.176 202.643 116.097 203.009 114.93C203.38 113.239 203.441 111.494 203.189 109.78C203.055 107.082 202.663 104.404 202.019 101.78C201.058 98.6202 199.552 95.6523 197.569 93.0103C194.239 88.3903 189.829 84.3403 184.439 82.5103" stroke="#1D1D1B" stroke-linecap="round" stroke-linejoin="round"/>
<path d="M189.041 102.61C190.899 101.937 192.917 101.84 194.831 102.33C196.726 102.813 198.568 103.483 200.331 104.33" stroke="#1D1D1B" stroke-linecap="round" stroke-linejoin="round"/>
<path d="M159.52 115.17L162.43 111.64C163.57 110.26 164.72 108.89 165.89 107.51C166.836 106.37 167.8 105.233 168.78 104.1C169.65 103.1 170.52 102.1 171.41 101.1L173.03 102.52C172.16 103.52 171.26 104.52 170.36 105.52C168.91 107.15 167.44 108.87 166.06 110.59C164.99 111.92 163.97 113.25 163.06 114.59L162.96 114.73" stroke="#1D1D1B" stroke-linecap="round" stroke-linejoin="round"/>
<path d="M166.66 113.95C165.45 114.08 164.24 114.27 163.04 114.52C161.84 114.77 160.73 115.03 159.58 115.37C158.98 115.53 158.38 115.72 157.78 115.91C157.27 116.52 156.78 117.13 156.31 117.77C154.46 120.261 152.846 122.919 151.49 125.71C151.646 125.914 151.841 126.084 152.065 126.21C152.288 126.335 152.535 126.414 152.79 126.44C152.817 126.445 152.844 126.445 152.87 126.44C153.377 126.454 153.87 126.276 154.25 125.94C153.584 126.638 152.969 127.383 152.41 128.17C152.532 128.632 152.814 129.034 153.207 129.306C153.599 129.577 154.076 129.699 154.55 129.65C155.039 129.621 155.517 129.499 155.96 129.29C156.382 129.101 156.793 128.887 157.19 128.65C160.754 126.63 164.426 124.808 168.19 123.19" stroke="#1D1D1B" stroke-linecap="round" stroke-linejoin="round"/>
<path d="M155.66 124.36C157.121 123.252 158.438 121.965 159.58 120.53C161.545 120.234 163.479 119.762 165.36 119.12C162.09 120.96 158.82 122.83 155.66 124.36Z" stroke="#1D1D1B" stroke-linecap="round" stroke-linejoin="round"/>
<path d="M156.1 117.61C154.7 118.1 153.33 118.61 152.02 119.23C151.58 119.417 151.15 119.617 150.73 119.83C150.55 120.798 150.439 121.777 150.4 122.76C150.405 122.797 150.405 122.834 150.4 122.87C150.302 123.856 149.924 124.793 149.31 125.57C149.287 125.76 149.315 125.953 149.39 126.128C149.466 126.304 149.587 126.457 149.74 126.57C150.05 126.79 150.48 126.83 151.19 126.24C149.89 127.88 148.58 129.53 147.4 131.24C149.28 129.82 151.1 128.32 152.87 126.76" stroke="#1D1D1B" stroke-linecap="round" stroke-linejoin="round"/>
<path d="M156.131 129.66C156.28 130.045 156.529 130.382 156.852 130.637C157.176 130.892 157.562 131.056 157.971 131.11C158.792 131.207 159.624 131.111 160.401 130.83C160.921 130.67 161.431 130.49 161.931 130.29C164.111 129.43 166.171 128.29 168.331 127.34" stroke="#1D1D1B" stroke-linecap="round" stroke-linejoin="round"/>
<path d="M162.001 130.47C161.98 130.662 162.01 130.856 162.089 131.031C162.168 131.207 162.293 131.359 162.451 131.47C162.77 131.693 163.136 131.84 163.521 131.9C164.139 132.033 164.768 132.106 165.401 132.12C167.214 132.184 169.016 131.807 170.651 131.02C171.47 130.632 172.236 130.142 172.931 129.56" stroke="#1D1D1B" stroke-linecap="round" stroke-linejoin="round"/>
<path d="M166.9 113.99C167.338 114.074 167.754 114.247 168.122 114.498C168.49 114.749 168.803 115.073 169.04 115.45C169.309 115.828 169.506 116.251 169.62 116.7C170.08 117.29 170.88 117.49 171.39 118.02C171.82 118.51 172.043 119.149 172.01 119.8C172.01 120.44 171.84 121.07 171.84 121.7C172.324 121.974 172.703 122.4 172.919 122.912C173.134 123.424 173.173 123.993 173.03 124.53C172.722 125.112 172.525 125.746 172.45 126.4C172.523 126.749 172.644 127.085 172.81 127.4C172.941 127.644 173.051 127.898 173.14 128.16L173.2 128.42C173.233 128.594 173.23 128.772 173.19 128.944C173.15 129.116 173.076 129.278 172.97 129.42" stroke="#1D1D1B" stroke-linecap="round" stroke-linejoin="round"/>
<path d="M177.18 112.48C176.76 112.71 176.32 112.92 175.89 113.13C173.768 114.128 171.531 114.863 169.23 115.32" stroke="#1D1D1B" stroke-linecap="round" stroke-linejoin="round"/>
<path d="M184.66 125.74C185.87 125.53 187.08 125.33 188.3 125.15L188.92 125.06" stroke="#1D1D1B" stroke-linecap="round" stroke-linejoin="round"/>
<path d="M173.6 128.01C177.24 127.13 180.906 126.374 184.6 125.74" stroke="#1D1D1B" stroke-linecap="round" stroke-linejoin="round"/>
<path d="M2.66016 66.9701C8.24016 66.2101 7.91017 66.2601 13.1702 65.4201L13.6002 65.3501C28.0202 68.2501 43.6002 71.7301 57.9402 75.0201" stroke="#1D1D1B" stroke-linecap="round" stroke-linejoin="round"/>
<path d="M13.19 65.6802C11.1936 69.1859 10.5363 73.2967 11.34 77.2502" stroke="#1D1D1B" stroke-width="0.5" stroke-linecap="round" stroke-linejoin="round"/>
<path d="M3.46094 77.5101C8.64094 77.0701 6.46094 77.3601 11.3409 77.4501H11.481C26.781 79.3701 42.0143 81.7035 57.1809 84.4501" stroke="#1D1D1B" stroke-linecap="round" stroke-linejoin="round"/>
<path d="M4.66016 82.5601C25.0902 82.7901 39.4002 85.0401 59.3902 89.2601" stroke="#1D1D1B" stroke-linecap="round" stroke-linejoin="round"/>
<path d="M4.66016 93.6304C25.6602 93.8104 38.7102 93.8704 59.6602 96.0804" stroke="#1D1D1B" stroke-linecap="round" stroke-linejoin="round"/>
<path d="M4.66016 97.35C11.0302 97.19 15.2802 97.19 19.6602 97.35C23.3802 97.51 27.2102 97.8 32.5302 98.26H32.8602" stroke="#1D1D1B" stroke-linecap="round" stroke-linejoin="round"/>
<path d="M3.46094 105.25C12.5609 105.25 18.8009 105.68 26.6909 105.78C28.7409 105.78 30.9109 105.78 33.2709 105.78H33.571" stroke="#1D1D1B" stroke-linecap="round" stroke-linejoin="round"/>
<path d="M32.4903 98.3804C32.1512 100.838 32.419 103.341 33.2703 105.67" stroke="#1D1D1B" stroke-width="0.5" stroke-linecap="round" stroke-linejoin="round"/>
<path d="M8.42047 109.3L3.48047 109.12C3.57047 109.19 3.97046 109.19 4.78046 109.19C6.19046 109.25 7.37047 109.3 8.42047 109.3ZM8.42047 109.3L19.2704 109.72C15.6634 109.393 12.042 109.253 8.42047 109.3Z" stroke="#1D1D1B" stroke-linecap="round" stroke-linejoin="round"/>
<path d="M2.29102 119.01L4.73102 119.41C9.01102 120.1 13.231 120.78 17.521 121.52L18.941 121.68L19.391 121.74" stroke="#1D1D1B" stroke-linecap="round" stroke-linejoin="round"/>
<path d="M16.9394 124.91H16.8694L13.8694 124.36L12.6094 124.14" stroke="#1D1D1B" stroke-linecap="round" stroke-linejoin="round"/>
<path d="M12.5898 124.12C14.0698 124.4 15.5198 124.66 16.8698 124.89" stroke="#1D1D1B" stroke-linecap="round" stroke-linejoin="round"/>
<path d="M12.5896 124.12L11.6796 123.95L9.84961 123.61" stroke="#1D1D1B" stroke-linecap="round" stroke-linejoin="round"/>
<path d="M9.83026 123.62L2.49023 122.3C4.84023 122.7 7.36026 123.12 9.83026 123.62Z" stroke="#1D1D1B" stroke-linecap="round" stroke-linejoin="round"/>
<path d="M16.4706 130.64L15.9406 130.54L13.3606 130.04C9.44063 129.24 5.54063 128.31 1.64062 127.61" stroke="#1D1D1B" stroke-linecap="round" stroke-linejoin="round"/>
<path d="M15.4901 134L1.66016 130.72L1.41016 130.66" stroke="#1D1D1B" stroke-linecap="round" stroke-linejoin="round"/>
<path d="M15.6592 148.29C15.4992 148.22 15.3292 148.16 15.1692 148.08C11.1135 146.27 7.17271 144.213 3.3692 141.92L2.19922 141.25" stroke="#1D1D1B" stroke-linecap="round" stroke-linejoin="round"/>
<path d="M158.951 100.12C153.874 106.955 148.1 113.242 141.721 118.88" stroke="#1D1D1B" stroke-linecap="round" stroke-linejoin="round"/>
<path d="M146.42 119.91C147.65 119.2 148.87 118.47 150.07 117.72C151.87 116.594 153.637 115.407 155.37 114.16C157.1 112.92 158.79 111.62 160.44 110.28" stroke="#1D1D1B" stroke-linecap="round" stroke-linejoin="round"/>
<path d="M96.8895 127.97C91.4235 130.754 85.5775 132.719 79.5395 133.8L79.0695 133.88C78.8585 134.726 78.7312 135.59 78.6895 136.46C78.6895 136.7 78.6895 136.95 78.6895 137.2" stroke="#1D1D1B" stroke-linecap="round" stroke-linejoin="round"/>
<path d="M79.5508 133.87C83.3908 134.55 87.3308 133.93 91.1308 133.08C94.9308 132.23 98.7008 131.16 102.591 130.91C109.405 130.497 116.128 132.636 121.451 136.91" stroke="#1D1D1B" stroke-linecap="round" stroke-linejoin="round"/>
<path d="M121.75 137.18C124.763 133.666 129.045 131.487 133.66 131.12C138.15 130.81 142.56 132.25 146.98 133.12C152.713 134.323 158.606 134.57 164.42 133.85H164.72C165.049 135.004 165.498 136.12 166.06 137.18" stroke="#1D1D1B" stroke-linecap="round" stroke-linejoin="round"/>
<path d="M130.17 128.21C127.003 130.823 124.18 133.827 121.77 137.15" stroke="#1D1D1B" stroke-linecap="round" stroke-linejoin="round"/>
<path d="M125.66 139.49C124.564 138.779 123.261 138.458 121.96 138.58C120.782 138.654 119.67 139.151 118.83 139.98C121.118 140.12 123.415 139.956 125.66 139.49Z" stroke="#1D1D1B" stroke-linecap="round" stroke-linejoin="round"/>
<path d="M150.17 139.12C155.97 138.84 161.773 138.63 167.58 138.49H167.66" stroke="#1D1D1B" stroke-linecap="round" stroke-linejoin="round"/>
<path d="M118.66 141.36C121.157 141.909 123.761 141.689 126.13 140.73C132.45 140.21 138.783 139.773 145.13 139.42C146.79 139.32 148.46 139.24 150.13 139.16" stroke="#1D1D1B" stroke-linecap="round" stroke-linejoin="round"/>
<path d="M173.26 129.78C171.26 132.614 169.37 135.527 167.59 138.52" stroke="#1D1D1B" stroke-linecap="round" stroke-linejoin="round"/>
<path d="M170.719 131.18C169.437 133.277 168.038 135.3 166.529 137.24" stroke="#1D1D1B" stroke-linecap="round" stroke-linejoin="round"/>
<path d="M165.401 132.37C165.091 132.88 164.771 133.37 164.461 133.88" stroke="#1D1D1B" stroke-linecap="round" stroke-linejoin="round"/>
<path d="M125.891 139.47C139.238 137.929 152.664 137.161 166.101 137.17H166.441" stroke="#1D1D1B" stroke-linecap="round" stroke-linejoin="round"/>
<path d="M118.29 140.28L78.7598 137.28" stroke="#1D1D1B" stroke-linecap="round" stroke-linejoin="round"/>
<path d="M118.38 141.59C104.53 141.04 90.7005 140.01 76.9105 138.59H76.7305" stroke="#1D1D1B" stroke-linecap="round" stroke-linejoin="round"/>
<path d="M76.6602 136.99L78.3602 136.45" stroke="#1D1D1B" stroke-linecap="round" stroke-linejoin="round"/>
<path d="M165.551 100.81C165.761 101.02 165.971 101.23 166.171 101.45C166.981 102.27 167.781 103.09 168.571 103.92" stroke="#1D1D1B" stroke-linecap="round" stroke-linejoin="round"/>
<path d="M170.391 105.52C170.69 106.323 171.165 107.05 171.781 107.647C172.397 108.244 173.138 108.696 173.951 108.97" stroke="#1D1D1B" stroke-linecap="round" stroke-linejoin="round"/>
<path d="M150.16 139.12C159.626 141.335 169.212 143.005 178.87 144.12L179.01 144.01C183.156 140.823 187.973 138.621 193.097 137.571C198.22 136.521 203.514 136.651 208.58 137.95C205.72 136.12 202.34 135.33 199.02 134.56C190.78 132.67 181.7 129.69 173.25 129.76" stroke="#1D1D1B" stroke-linecap="round" stroke-linejoin="round"/>
<path d="M184.6 125.74C195.32 126.65 212.51 130.43 222.7 134.65L223.39 134.94" stroke="#1D1D1B" stroke-linecap="round" stroke-linejoin="round"/>
<path d="M209.48 137.62C209.554 137.104 209.752 136.613 210.057 136.19C210.362 135.767 210.764 135.424 211.23 135.19C212.165 134.726 213.188 134.464 214.23 134.42C217.015 134.168 219.821 134.391 222.53 135.08L223.38 135.32" stroke="#1D1D1B" stroke-linecap="round" stroke-linejoin="round"/>
<path d="M179.279 144.37C179.243 145.312 179.333 146.253 179.549 147.17L211.729 138.93L223.729 135.86" stroke="#1D1D1B" stroke-linecap="round" stroke-linejoin="round"/>
<path d="M208.48 138.69H208.71L209.63 138.53L211.53 138.2" stroke="#1D1D1B" stroke-linecap="round" stroke-linejoin="round"/>
<path d="M223.449 135.39L223.789 135.46C224.429 135.57 225.049 135.69 225.679 135.82C221.389 137.39 216.809 138.72 212.229 140.05C211.46 140.072 210.698 140.21 209.969 140.46C199.639 143.28 189.499 145.83 179.139 148.7L156.139 144.3C151.856 143.587 147.639 142.523 143.529 141.12" stroke="#1D1D1B" stroke-linecap="round" stroke-linejoin="round"/>
<path d="M178.84 147.35C167.7 145.35 156.6 143.14 145.45 140.59C145.39 140.4 145.32 140.2 145.26 140L145.18 139.77" stroke="#1D1D1B" stroke-linecap="round" stroke-linejoin="round"/>
<path d="M143.521 141.01C143.448 140.961 143.395 140.888 143.371 140.804C143.348 140.72 143.354 140.63 143.391 140.55C143.423 140.47 143.474 140.397 143.538 140.339C143.602 140.28 143.678 140.236 143.761 140.21C143.923 140.147 144.096 140.113 144.271 140.11L145.201 140.02" stroke="#1D1D1B" stroke-linecap="round" stroke-linejoin="round"/>
<path d="M117.66 88.27C119.04 89.4681 120.797 90.1443 122.624 90.1808C124.451 90.2174 126.233 89.612 127.66 88.47" stroke="#1D1D1B" stroke-linecap="round" stroke-linejoin="round"/>
<path d="M102.429 48.8801C102.425 48.8998 102.425 48.9204 102.429 48.9401C102.621 50.6531 103.034 52.3339 103.659 53.9401C104.505 56.0696 105.614 58.0852 106.959 59.9401C107.049 60.0801 107.139 60.2101 107.239 60.3401C109.368 63.1481 111.708 65.7891 114.239 68.2401C114.739 68.7301 115.239 69.2401 115.719 69.7201C116.818 70.9128 118.034 71.9916 119.349 72.9401C120.681 73.8927 122.282 74.397 123.919 74.3801C126.769 74.2301 129.069 72.0101 130.759 69.7101C135.324 63.4769 137.532 55.8271 136.989 48.1201" stroke="#1D1D1B" stroke-linecap="round" stroke-linejoin="round"/>
<path d="M137.07 36.8903C137.155 36.1744 137.408 35.4888 137.81 34.8903C137.838 34.8491 137.872 34.812 137.91 34.7803C138.12 34.5284 138.406 34.3506 138.724 34.2732C139.043 34.1958 139.378 34.2228 139.68 34.3503C140.4 34.7403 140.49 35.7103 140.5 36.5303C140.571 38.6297 140.4 40.7302 139.99 42.7903C139.674 44.3439 138.988 45.7983 137.99 47.0303C137.691 47.3957 137.356 47.7307 136.99 48.0303" stroke="#1D1D1B" stroke-linecap="round" stroke-linejoin="round"/>
<path d="M100.221 47.46C100.396 49.5652 101.314 51.5395 102.811 53.03" stroke="#1D1D1B" stroke-linecap="round" stroke-linejoin="round"/>
<path d="M102.38 48.8903C100.801 47.9024 99.5037 46.5236 98.6138 44.8873C97.7238 43.251 97.2713 41.4127 97.3001 39.5503" stroke="#1D1D1B" stroke-linecap="round" stroke-linejoin="round"/>
<path d="M98.6594 40.8501C98.3198 40.4108 98.0091 39.9498 97.7294 39.4701C96.2614 36.9479 95.6443 34.0202 95.9694 31.1201" stroke="#1D1D1B" stroke-linecap="round" stroke-linejoin="round"/>
<path d="M97.3692 33.5704C96.9298 32.78 96.5937 31.9364 96.3692 31.0604C95.5155 27.5473 96.0379 23.8407 97.8293 20.7004C98.8921 18.8342 100.242 17.1469 101.829 15.7004C102.626 14.9656 103.468 14.2809 104.349 13.6504C105.344 12.9303 106.375 12.2627 107.439 11.6504" stroke="#1D1D1B" stroke-linecap="round" stroke-linejoin="round"/>
<path d="M107.35 13.5704C107.749 13.0028 108.208 12.4798 108.72 12.0104C108.822 11.9151 108.928 11.825 109.04 11.7404C110.527 10.5147 112.298 9.67951 114.19 9.3104C116.099 8.90695 118.071 8.90695 119.98 9.3104C121.645 9.67799 123.248 10.2843 124.74 11.1104C127.353 12.5924 129.716 14.4791 131.74 16.7004C134.102 19.0821 135.989 21.8922 137.3 24.9804C138.601 28.0909 138.795 31.5539 137.85 34.7904" stroke="#1D1D1B" stroke-linecap="round" stroke-linejoin="round"/>
<path d="M101.57 15.3804C100.398 14.1267 99.6895 12.511 99.5604 10.8002C99.4314 9.08931 99.8896 7.3856 100.86 5.97036C101.663 4.9254 102.724 4.10756 103.939 3.59731C105.154 3.08707 106.481 2.90201 107.79 3.06036C108.568 3.15653 109.326 3.38302 110.03 3.73036" stroke="#1D1D1B" stroke-linecap="round" stroke-linejoin="round"/>
<path d="M107.82 2.85019C109.207 1.57866 111 0.842147 112.88 0.77252C114.76 0.702893 116.604 1.3047 118.08 2.47019C118.376 2.69512 118.653 2.94252 118.91 3.21019" stroke="#1D1D1B" stroke-linecap="round" stroke-linejoin="round"/>
<path d="M118.23 2.27002C119.641 2.35492 121.031 2.64116 122.36 3.12002C123.029 3.35795 123.642 3.7324 124.158 4.2196C124.674 4.70679 125.084 5.29608 125.36 5.95002C125.93 7.54002 125.36 9.28002 124.87 10.89" stroke="#1D1D1B" stroke-linecap="round" stroke-linejoin="round"/>
<path d="M106.9 38.1201C107.997 39.1266 109.208 39.9994 110.51 40.7201C110.94 40.9601 111.39 41.1901 111.84 41.3901" stroke="#1D1D1B" stroke-width="0.5" stroke-linecap="round" stroke-linejoin="round"/>
<path d="M110.23 36.8301C111.447 38.0473 112.852 39.0603 114.39 39.8301L115.05 40.1501" stroke="#1D1D1B" stroke-width="0.5" stroke-linecap="round" stroke-linejoin="round"/>
<path d="M114.66 36.69C115.259 37.9552 116.167 39.0489 117.3 39.87L117.59 40.08V39.71L118.34 30" stroke="#1D1D1B" stroke-width="0.5" stroke-linecap="round" stroke-linejoin="round"/>
<path d="M119.17 39.83C120.272 37.8537 121.867 36.1966 123.8 35.02" stroke="#1D1D1B" stroke-width="0.5" stroke-linecap="round" stroke-linejoin="round"/>
<path d="M126.15 40.3001C127.339 40.9661 128.707 41.2424 130.06 41.0901C130.663 41.0186 131.253 40.8603 131.81 40.6201C132.643 40.2657 133.392 39.7412 134.01 39.0801" stroke="#1D1D1B" stroke-width="0.5" stroke-linecap="round" stroke-linejoin="round"/>
<path d="M126.15 40.3001C126.027 40.2035 125.893 40.1229 125.75 40.0601C125.877 40.1495 126.011 40.2297 126.15 40.3001Z" stroke="#1D1D1B" stroke-width="0.5" stroke-linecap="round" stroke-linejoin="round"/>
<path d="M120.461 39.9501C121.655 39.526 122.965 39.5709 124.127 40.0758C125.289 40.5807 126.216 41.5079 126.721 42.6701C126.936 43.1117 127.039 43.5993 127.021 44.0901C126.993 44.5443 126.829 44.9797 126.551 45.3401C126.863 45.152 127.127 44.8927 127.32 44.5833C127.513 44.274 127.63 43.9233 127.661 43.5601C127.707 42.8354 127.533 42.1139 127.161 41.4901C126.912 41.0297 126.572 40.6248 126.161 40.3001" stroke="#1D1D1B" stroke-width="0.5" stroke-linecap="round" stroke-linejoin="round"/>
<path d="M132.199 41.4501C132.941 41.4268 133.675 41.2955 134.379 41.0601C135.069 40.7801 136.849 37.6001 137.069 36.8901" stroke="#1D1D1B" stroke-width="0.5" stroke-linecap="round" stroke-linejoin="round"/>
<path d="M139.24 36.3203C138.496 37.0352 137.932 37.9165 137.594 38.8917C137.257 39.867 137.156 40.9084 137.3 41.9303" stroke="#1D1D1B" stroke-width="0.5" stroke-linecap="round" stroke-linejoin="round"/>
<path d="M137.42 40.6304C137.761 41.2853 137.902 42.0257 137.825 42.7599C137.749 43.4941 137.458 44.1897 136.99 44.7604" stroke="#1D1D1B" stroke-width="0.5" stroke-linecap="round" stroke-linejoin="round"/>
<path d="M138.85 37.4004C138.901 38.762 138.818 40.1254 138.6 41.4704" stroke="#1D1D1B" stroke-width="0.5" stroke-linecap="round" stroke-linejoin="round"/>
<path d="M110.061 41.6001H109.971C109.242 41.6534 108.534 41.872 107.902 42.2393C107.269 42.6066 106.729 43.113 106.321 43.7201C105.504 44.9678 104.769 46.2672 104.121 47.6101C103.761 48.2601 103.211 48.9601 102.461 48.9401" stroke="#1D1D1B" stroke-width="0.5" stroke-linecap="round" stroke-linejoin="round"/>
<path d="M107.07 51.9C108.5 51.35 110.07 51.9 111.48 52.6C112.89 53.3 114.32 54.02 115.84 53.81" stroke="#1D1D1B" stroke-width="0.5" stroke-linecap="round" stroke-linejoin="round"/>
<path d="M120.93 52.6304C123.03 52.1204 124.71 50.6304 126.36 49.2204C128.01 47.8104 129.88 46.4704 132.04 46.3604" stroke="#1D1D1B" stroke-width="0.5" stroke-linecap="round" stroke-linejoin="round"/>
<path d="M123.529 52.89C125.439 51.3105 127.767 50.3203 130.229 50.04" stroke="#1D1D1B" stroke-width="0.5" stroke-linecap="round" stroke-linejoin="round"/>
<path d="M124.169 52.6602C124.13 52.9609 124.179 53.2665 124.309 53.5402" stroke="#1D1D1B" stroke-width="0.5" stroke-linecap="round" stroke-linejoin="round"/>
<path d="M125.891 52.9904C126.032 52.5986 126.318 52.2762 126.69 52.09C127.063 51.9038 127.493 51.8681 127.891 51.9904C127.271 52.3404 126.661 52.6804 125.891 52.9904Z" stroke="#1D1D1B" stroke-width="0.5" stroke-linecap="round" stroke-linejoin="round"/>
<path d="M111.391 55.9303C111.44 55.7427 111.555 55.579 111.714 55.4689C111.874 55.3588 112.068 55.3096 112.261 55.3303C112.647 55.3811 113.012 55.5329 113.321 55.7703C112.713 56.0355 112.034 56.0918 111.391 55.9303Z" stroke="#1D1D1B" stroke-width="0.5" stroke-linecap="round" stroke-linejoin="round"/>
<path d="M107.66 55.4104C108.029 55.0831 108.46 54.833 108.927 54.675C109.394 54.517 109.888 54.4542 110.38 54.4904C111.748 54.4639 113.114 54.5981 114.45 54.8904" stroke="#1D1D1B" stroke-width="0.5" stroke-linecap="round" stroke-linejoin="round"/>
<path d="M117.01 55.1201C117.28 56.0701 117.56 57.0101 117.84 57.9501" stroke="#1D1D1B" stroke-width="0.5" stroke-linecap="round" stroke-linejoin="round"/>
<path d="M117.18 63.3401C117.175 63.6271 117.238 63.9112 117.365 64.1686C117.492 64.4261 117.679 64.6494 117.91 64.8201C118.378 65.15 118.894 65.4063 119.44 65.5801C120.295 66.0003 121.264 66.1303 122.2 65.9501C122.851 65.6576 123.449 65.2588 123.97 64.7701C124.557 64.3987 125.074 63.9284 125.5 63.3801C125.599 63.2392 125.669 63.0802 125.706 62.9122C125.743 62.7441 125.746 62.5704 125.715 62.4011C125.684 62.2318 125.62 62.0703 125.527 61.9259C125.433 61.7816 125.312 61.6572 125.17 61.5601" stroke="#1D1D1B" stroke-width="0.5" stroke-linecap="round" stroke-linejoin="round"/>
<path d="M129.17 66.5301C127.943 66.1704 126.643 66.1394 125.4 66.4401C124.16 66.6701 122.94 67.0501 121.68 67.2201C120.972 67.2794 120.267 67.3795 119.57 67.5201C118.88 67.7001 118.2 68.0601 118.15 68.7901C119.15 68.2201 120.4 68.7901 121.55 68.8601C124.19 69.0301 126.46 66.5601 129.17 66.5301Z" stroke="#1D1D1B" stroke-width="0.5" stroke-linecap="round" stroke-linejoin="round"/>
<path d="M121.189 70.5302C122.232 70.9309 123.375 70.9899 124.454 70.6987C125.532 70.4076 126.49 69.7812 127.189 68.9102" stroke="#1D1D1B" stroke-width="0.5" stroke-linecap="round" stroke-linejoin="round"/>
<path d="M166.1 101.51C166.269 103.477 166.151 105.458 165.75 107.39" stroke="#1D1D1B" stroke-linecap="round" stroke-linejoin="round"/>
<path d="M166.16 110.65C165.971 111.73 166.158 112.842 166.69 113.8" stroke="#1D1D1B" stroke-linecap="round" stroke-linejoin="round"/>
<path d="M142.801 122.49C145.166 122.078 147.592 122.187 149.911 122.81" stroke="#1D1D1B" stroke-linecap="round" stroke-linejoin="round"/>
<path d="M91.9198 107.59V107.8C91.6669 109.146 91.6332 110.524 91.8198 111.88C91.9342 112.487 92.1293 113.075 92.3998 113.63" stroke="#222120" stroke-linecap="round" stroke-linejoin="round"/>
</svg>
