<svg width="334" height="224" viewBox="0 0 334 224" fill="none" xmlns="http://www.w3.org/2000/svg">
<path d="M180.899 70.4292C181.431 71.3926 182.245 72.4302 183.355 72.4005C183.362 72.3713 183.362 72.3408 183.355 72.3116H183.429C185.766 70.8473 187.686 68.8037 189.003 66.3785C190.32 63.9533 190.989 61.2286 190.947 58.4682L190.266 58.3496C192.441 54.6333 193.369 50.3165 192.915 46.0328L192.382 45.8846C193.645 40.6776 192.872 35.1839 190.221 30.5294C188.649 27.7634 186.651 25.2625 184.302 23.1186C183.123 22.0295 181.878 21.0147 180.573 20.0801C179.09 18.966 177.549 17.9319 175.956 16.9824L174.047 17.6642C173.896 17.5229 173.738 17.3893 173.574 17.264C171.372 15.4474 168.753 14.2094 165.953 13.6624C163.128 13.0644 160.21 13.0644 157.385 13.6624C154.921 14.2072 152.548 15.1058 150.341 16.3303C146.473 18.5268 142.977 21.3232 139.983 24.6156C136.486 28.1456 133.694 32.3107 131.755 36.8879C129.829 41.4981 129.542 46.6309 130.941 51.4279C130.63 51.0545 130.208 50.791 129.736 50.6763C129.265 50.5616 128.769 50.6016 128.322 50.7906C127.897 51.1134 127.563 51.5414 127.353 52.0325C127.143 52.5236 127.064 53.0609 127.123 53.5919H128.973C130.388 54.9491 131.353 56.7077 131.74 58.6312L133.901 58.3792C134.092 58.8954 134.394 59.3633 134.785 59.75C135.176 60.1367 135.647 60.4327 136.165 60.6173C137.206 60.9661 138.293 61.1608 139.391 61.1954L139.968 59.9652C140.793 60.3211 141.665 60.5558 142.557 60.6618C144.561 60.8875 146.585 60.478 148.343 59.4909C148.525 59.3478 148.724 59.2282 148.935 59.1351C148.747 59.2677 148.549 59.3866 148.343 59.4909C147.736 59.9722 147.232 60.5723 146.864 61.2546C146.314 62.1792 146.056 63.2487 146.124 64.3227C146.165 64.8571 146.332 65.3742 146.609 65.8324C146.887 66.2906 147.268 66.6772 147.722 66.961C147.311 66.4268 147.068 65.7815 147.026 65.1083C147 64.3809 147.153 63.6582 147.47 63.0036C148.236 61.3034 149.613 59.9547 151.327 59.2267C153.041 58.4986 154.967 58.4448 156.719 59.0759L158.628 58.8535L160.981 58.6757V59.2241L161.41 58.9128L164.68 59.3427L165.657 58.8684L169.43 61.1212C170.096 60.8248 170.762 60.4839 171.399 60.1282L172.198 61.477C173.277 61.556 174.324 61.88 175.26 62.4244C176.196 62.9688 176.995 63.7193 177.599 64.6192C178.824 66.4816 179.927 68.4224 180.899 70.4292Z" fill="#C9C9C9"/>
<path d="M71.7202 157.847L72.9336 155.743V155.609C69.9951 147.185 65.7666 139.27 60.3998 132.147L58.1949 129.597C59.5563 127.181 60.8585 124.736 62.1607 122.275H62.0868C54.1107 124.988 47.5848 130.991 42.6571 137.838C39.7236 141.754 37.4951 146.153 36.0721 150.837C35.1199 154.725 34.5402 158.695 34.3407 162.694C33.969 165.234 34.0592 167.82 34.6071 170.327C35.1497 172.057 36.0438 173.656 37.233 175.023C38.4223 176.39 39.8812 177.496 41.5178 178.272L41.8137 178.138C42.5916 180.027 43.6438 181.79 44.9361 183.37C47.1558 186.008 52.4829 186.023 55.8865 185.534C54.8952 185.559 53.9152 185.32 53.0467 184.841C52.1783 184.361 51.4526 183.66 50.944 182.807C50.0265 180.717 51.2696 178.36 52.4238 176.434C54.7027 172.847 57.0999 169.216 60.5626 166.755C64.0253 164.295 68.7902 163.242 72.5489 165.273L74.9609 165.125C74.9208 163.853 74.6914 162.594 74.2802 161.39C73.856 159.951 72.9526 158.7 71.7202 157.847ZM49.0055 143.337C48.9443 143.101 48.9705 142.851 49.0794 142.633C49.1882 142.415 49.3722 142.244 49.5974 142.151C50.0696 141.971 50.5845 141.935 51.0771 142.047C54.2531 142.443 57.2987 143.553 59.9866 145.293C62.6745 147.033 64.9352 149.359 66.6001 152.097C59.0384 148.628 54.4511 146.316 49.849 144.004C49.4943 143.895 49.1933 143.657 49.0055 143.337Z" fill="#A55DA1"/>
<path d="M49.5955 142.092C49.3703 142.185 49.1863 142.356 49.0775 142.574C48.9687 142.792 48.9424 143.042 49.0036 143.278C49.177 143.587 49.4552 143.824 49.7879 143.945C54.39 146.257 58.9773 148.569 66.5391 152.038C64.8742 149.3 62.6134 146.974 59.9255 145.234C57.2376 143.494 54.192 142.385 51.0161 141.988C50.5423 141.888 50.0497 141.924 49.5955 142.092Z" fill="#A55DA1"/>
<path d="M89.0777 150.228L89.1813 150.317C88.9314 153.232 89.1059 156.168 89.6992 159.032L89.492 159.21C91.2234 161.255 92.9251 163.286 94.6121 165.331L97.5717 163.316C100.013 165.302 102.514 167.229 105.074 169.066C107.634 170.904 110.253 172.668 112.917 174.343C114.693 175.455 116.498 176.537 118.318 177.589L118.451 181.072C120.2 180.985 121.953 181.099 123.675 181.413H124.149C124.358 181.057 124.635 180.745 124.963 180.494C125.693 179.997 126.504 179.631 127.36 179.412L138.177 175.944C140.989 174.669 143.756 173.365 146.641 172.386L146.39 171.69C146.553 168.133 148.018 164.798 149.009 161.389C150.838 154.992 151.072 148.244 149.69 141.735L147.411 142.032C145.346 136.034 142.807 130.211 139.82 124.616C138.519 122.055 136.957 119.636 135.158 117.398C133.422 115.249 131.214 113.53 128.706 112.374L130.822 108.357C124.644 110.216 118.229 111.17 111.778 111.188C117.016 105.837 119.724 98.471 121.204 91.1491C121.846 87.21 122.731 83.3144 123.853 79.4844C124.415 77.8095 125.165 76.2036 126.087 74.6971L125.836 74.5488C121.935 75.34 118.288 77.0752 115.211 79.603C114.972 79.1344 114.614 78.7378 114.171 78.4539C113.729 78.17 113.22 78.009 112.695 77.9875C111.647 77.977 110.605 78.1526 109.617 78.5062C107.901 79.025 106.199 79.5289 104.601 79.8846C99.9946 79.8512 95.441 80.8648 91.2826 82.849C83.3213 88.2737 77.1654 96.0254 72.0454 104.237C68.4199 110.165 65.2975 116.227 62.1012 122.319C60.7989 124.779 59.4967 127.225 58.1353 129.641L60.3402 132.19C65.707 139.313 69.9355 147.229 72.8741 155.653L75.8336 154.586C75.7448 154.349 75.6413 154.126 75.5525 153.889L78.8672 151.844L81.2496 149.695C82.5666 151.177 83.854 152.659 85.1415 154.141L85.4522 153.874C86.6953 152.659 87.8791 151.443 89.0777 150.228Z" fill="#A55DA1"/>
<path d="M72.9343 155.742L71.7209 157.847C72.9248 158.639 73.8349 159.806 74.3105 161.167C74.7217 162.371 74.9511 163.63 74.9913 164.902C74.9841 164.936 74.9841 164.972 74.9913 165.006H75.228C76.314 164.076 77.0069 162.767 77.1665 161.345C77.2701 160.773 77.2999 160.19 77.2553 159.611C77.0624 157.865 76.5981 156.159 75.8791 154.557L72.9195 155.624L72.9343 155.742Z" fill="#A55DA1"/>
<path d="M75.6126 153.846C75.7014 154.083 75.805 154.305 75.8938 154.542C76.6127 156.145 77.0771 157.85 77.27 159.596C77.3146 160.176 77.2848 160.759 77.1812 161.33H77.5659C78.7682 160.924 79.8649 160.254 80.7762 159.369C81.6874 158.485 82.3905 157.408 82.834 156.217C81.517 154.735 80.1852 153.253 78.8534 151.771L75.6126 153.846Z" fill="#A55DA1"/>
<path d="M85.5282 153.89L85.2174 154.157C86.6676 155.837 88.0932 157.521 89.494 159.211L89.7012 159.033C89.1079 156.168 88.9334 153.233 89.1832 150.318L89.0797 150.229C87.8811 151.444 86.6972 152.66 85.5282 153.89Z" fill="#A55DA1"/>
<path d="M97.5279 163.316L94.5683 165.332L98.8745 170.564L98.7857 170.861C99.6736 171.098 100.561 171.379 101.449 171.661L105.016 169.067C102.5 167.229 99.9991 165.303 97.5279 163.316Z" fill="#A55DA1"/>
<path d="M105.059 169.067L101.493 171.661C102.248 172.565 102.973 173.469 103.668 174.418L103.979 174.18C106.051 174.907 108.078 175.663 110.017 176.581L112.902 174.343C110.239 172.673 107.624 170.915 105.059 169.067Z" fill="#A55DA1"/>
<path d="M110.016 176.582C110.667 176.858 111.303 177.155 111.925 177.471C112.192 178.905 112.355 180.356 112.413 181.814C112.406 181.868 112.406 181.923 112.413 181.977L113.109 181.888C114.837 181.41 116.615 181.136 118.406 181.073L118.273 177.59C116.453 176.537 114.648 175.455 112.872 174.344L110.016 176.582Z" fill="#A55DA1"/>
<path d="M133.219 97.7758C133.441 94.4261 133.678 91.0023 133.855 88.038H133.974C132.407 82.5521 131.826 76.8309 132.257 71.1413C131.717 70.6972 131.221 70.2007 130.777 69.6592L130.556 69.8667C128.733 71.1365 127.217 72.7973 126.116 74.7282C125.194 76.2347 124.444 77.8407 123.882 79.5156C122.751 83.3352 121.857 87.2208 121.203 91.1506C119.723 98.4724 117.001 105.839 111.762 111.189C118.219 111.173 124.639 110.219 130.822 108.358L128.735 112.434C131.243 113.591 133.451 115.31 135.187 117.459C136.986 119.697 138.548 122.116 139.849 124.677C142.836 130.271 145.375 136.095 147.44 142.093L149.719 141.796C148.956 138.187 147.712 134.697 146.019 131.421L145.842 131.095C140.168 120.617 135.932 109.419 133.249 97.8055L133.219 97.7758Z" fill="#A55DA1"/>
<path d="M145.843 131.064L146.021 131.39C147.713 134.667 148.958 138.157 149.721 141.766C151.103 148.274 150.869 155.022 149.04 161.419C148.048 164.828 146.583 168.163 146.421 171.72L146.672 172.417C147.16 172.239 147.649 172.091 148.152 171.943C148.958 171.697 149.795 171.567 150.638 171.557V171.305C153.62 170.644 156.519 169.65 159.28 168.341C161.899 162.842 162.447 156.365 162.24 150.199C161.973 143.678 160.923 137.156 160.997 130.649H160.834C158.792 132.425 156.192 133.427 153.488 133.482C150.785 133.536 148.147 132.638 146.036 130.946L145.843 131.064Z" fill="#C9C9C9"/>
<path d="M178.72 12.0467L178.824 12.5507C179.534 12.7787 180.175 13.1822 180.689 13.724C181.202 14.2658 181.571 14.9284 181.761 15.6507C181.951 16.3729 181.957 17.1315 181.777 17.8564C181.597 18.5813 181.238 19.2492 180.733 19.7984L180.57 20.0208C181.875 20.9553 183.12 21.9701 184.299 23.0592L184.669 22.659C186.402 20.8008 187.451 18.4062 187.642 15.8704C187.833 13.3347 187.155 10.8095 185.72 8.71185C184.531 7.16305 182.961 5.95088 181.163 5.19461C179.365 4.43835 177.401 4.16406 175.465 4.39875V4.08749C173.413 2.20288 170.759 1.11125 167.977 1.00805C165.195 0.90485 162.467 1.79683 160.282 3.52427L160.06 3.22784C157.974 3.35368 155.916 3.77793 153.949 4.48768C152.959 4.84033 152.053 5.39533 151.289 6.11744C150.525 6.83954 149.919 7.71296 149.509 8.6822C148.666 11.0388 149.509 13.6178 150.234 16.0041L150.412 16.3302C152.619 15.1057 154.992 14.2071 157.456 13.6623C160.281 13.0643 163.199 13.0643 166.024 13.6623C168.824 14.2094 171.443 15.4473 173.645 17.2639L173.852 17.012C174.004 15.9381 174.455 14.9289 175.154 14.1005C175.853 13.272 176.771 12.6577 177.803 12.3283C178.102 12.2135 178.408 12.1194 178.72 12.0467Z" fill="#C9C9C9"/>
<path d="M159.31 168.385C156.549 169.694 153.651 170.689 150.668 171.35V171.602C151.455 171.592 152.218 171.872 152.814 172.387L153.672 172.506C158.239 173.119 162.688 174.413 166.872 176.344L167.582 176.671C172.439 177.341 177.371 177.216 182.188 176.3L182.099 175.796C181.951 173.528 184.215 171.898 186.301 171.009C190.109 169.425 194.194 168.618 198.317 168.637V168.296C198.718 167.474 199.006 166.602 199.176 165.703C199.452 163.692 199.402 161.65 199.028 159.655V159.344L201.203 156.38C206.609 142.546 212.035 128.752 217.481 114.998L219.789 111.455C219.552 110.314 219.256 109.173 218.916 108.061C216.487 100.171 211.656 93.2374 205.1 88.2308C198.544 83.2243 190.591 80.3946 182.35 80.1372L181.699 79.8853C180.447 83.0415 178.807 86.0289 176.816 88.7782L177.26 89.0895C179.659 99.1448 182.769 109.016 186.568 118.629C183.49 118.436 180.797 116.628 178.059 115.205C175.321 113.782 172.036 112.7 169.18 114.019C167.434 115.004 165.972 116.423 164.933 118.14L162.965 119.177C164.17 120.32 165.302 121.538 166.354 122.824C164.288 123.97 162.495 125.553 161.101 127.463C161.101 128.53 160.982 129.582 160.982 130.649C160.908 137.156 161.959 143.678 162.225 150.199C162.477 156.409 161.929 162.886 159.31 168.385Z" fill="#A55DA1"/>
<path d="M161.735 118.14C162.15 118.496 162.564 118.881 162.964 119.252L164.932 118.215C165.951 116.513 167.388 115.1 169.105 114.109C171.901 112.79 175.201 113.872 177.983 115.295C180.765 116.718 183.414 118.526 186.492 118.718C182.693 109.106 179.583 99.2343 177.184 89.1789L176.74 88.8677C176.607 89.0752 176.474 89.2679 176.326 89.4605C173.176 93.6224 169.713 97.5369 165.968 101.17C166.063 107.1 164.604 112.952 161.735 118.14Z" fill="#A55DA1"/>
<path d="M173.824 17.0116L173.617 17.2636C173.781 17.3889 173.939 17.5225 174.09 17.6638L175.955 16.982C177.531 17.9136 179.058 18.9278 180.527 20.0204L180.69 19.7981C181.196 19.2489 181.555 18.581 181.734 17.8561C181.914 17.1311 181.909 16.3726 181.718 15.6503C181.528 14.9281 181.159 14.2655 180.646 13.7237C180.133 13.1819 179.491 12.7784 178.781 12.5503L178.678 12.0464C178.356 12.1177 178.039 12.2118 177.731 12.328C176.707 12.6644 175.798 13.2817 175.108 14.1096C174.417 14.9376 173.972 15.943 173.824 17.0116Z" fill="#C9C9C9"/>
<path d="M187.41 174.862C191.675 175.311 195.812 176.59 199.588 178.627C203.584 181.013 206.765 185.267 206.899 189.803C206.931 190.432 206.896 191.063 206.795 191.685L206.706 193.508C207.135 193.508 207.564 193.508 207.994 193.508C211.368 193.449 214.721 192.951 217.967 192.026C218.645 191.907 219.284 191.628 219.832 191.211C220.876 190.4 221.629 189.271 221.978 187.994C222.427 186.044 222.427 184.016 221.978 182.066C221.686 179.714 220.867 177.459 219.58 175.47C217.449 172.506 213.809 171.127 210.287 170.194C207.331 169.417 204.309 168.921 201.261 168.711C200.284 168.711 199.307 168.608 198.301 168.623C194.178 168.604 190.093 169.41 186.285 170.994C184.199 171.883 181.935 173.514 182.083 175.781L182.171 176.285C183.934 175.955 185.678 175.53 187.395 175.011L187.41 174.862Z" fill="#A55DA1"/>
<path d="M198.286 168.281V168.622C199.278 168.622 200.254 168.622 201.246 168.711V168.341C202.506 167.311 203.847 166.384 205.256 165.569L205.049 165.213C202.825 163.583 200.794 161.703 198.996 159.611C199.371 161.605 199.421 163.647 199.144 165.658C198.978 166.567 198.689 167.45 198.286 168.281Z" fill="#A55DA1"/>
<path d="M198.539 189.477V190.025C200.777 192.108 203.672 193.34 206.722 193.509L206.811 191.685C206.912 191.063 206.946 190.432 206.914 189.803H206.574C203.881 189.685 201.217 189.566 198.539 189.477Z" fill="#A55DA1"/>
<path d="M243.939 151.771L244.028 151.682C242.785 146.183 236.629 143.426 233.536 138.713C231.154 135.067 230.784 130.502 229.733 126.277C227.921 119.301 224.212 112.964 219.019 107.973H218.783C219.123 109.084 219.419 110.226 219.656 111.367L217.392 114.983C211.976 128.817 206.55 142.611 201.114 156.365L198.939 159.33V159.641C200.736 161.733 202.767 163.613 204.991 165.243L205.198 165.599C209.901 162.872 215.217 161.38 220.65 161.264C226.084 161.147 231.458 162.409 236.274 164.932H238.567C238.888 163.704 239.284 162.496 239.751 161.316C242.8 161.123 245.818 160.93 248.822 160.767V160.486C248.179 157.128 246.465 154.07 243.939 151.771ZM212.553 157.373L211.073 156.439C211.608 151.325 213.26 146.392 215.912 141.988C216.599 140.643 217.618 139.495 218.871 138.653C219.512 138.254 220.262 138.065 221.015 138.113C221.769 138.161 222.488 138.443 223.074 138.92C223.561 139.486 223.869 140.184 223.958 140.926C224.048 141.668 223.915 142.419 223.577 143.085C222.876 144.403 221.95 145.587 220.839 146.583C217.686 149.861 214.907 153.48 212.553 157.373Z" fill="#A55DA1"/>
<path d="M201.246 168.341V168.712C204.295 168.921 207.317 169.417 210.273 170.194C213.795 171.127 217.435 172.521 219.566 175.47C220.853 177.459 221.672 179.714 221.963 182.066C222.413 184.016 222.413 186.044 221.963 187.994C221.615 189.271 220.862 190.4 219.818 191.211C224.113 190.833 228.27 189.496 231.982 187.298H232.44C232.363 186.473 232.454 185.641 232.707 184.852C233.497 182.839 234.823 181.081 236.539 179.768C237.626 179.731 238.714 179.77 239.795 179.887C237.531 175.214 237.108 169.859 238.611 164.888H236.317C231.502 162.364 226.127 161.102 220.694 161.219C215.261 161.335 209.945 162.827 205.242 165.555C203.838 166.375 202.502 167.307 201.246 168.341Z" fill="#A55DA1"/>
<path d="M211.072 156.439L212.552 157.372C214.92 153.477 217.714 149.858 220.883 146.582C221.993 145.586 222.92 144.402 223.621 143.084C223.959 142.418 224.092 141.667 224.002 140.925C223.912 140.184 223.605 139.485 223.118 138.919C222.532 138.442 221.812 138.16 221.059 138.112C220.306 138.064 219.556 138.253 218.915 138.653C217.662 139.494 216.643 140.642 215.955 141.988C213.288 146.387 211.621 151.321 211.072 156.439Z" fill="#A55DA1"/>
<path d="M184.182 11.8542C182.363 11.6135 180.518 11.6786 178.721 12.0469C178.399 12.1182 178.083 12.2123 177.774 12.3285C176.742 12.6579 175.824 13.2721 175.125 14.1006C174.427 14.9291 173.975 15.9382 173.823 17.0121" stroke="black" stroke-width="0.5" stroke-linecap="round" stroke-linejoin="round"/>
<path d="M178.826 12.5503C179.536 12.7783 180.178 13.1819 180.691 13.7237C181.204 14.2655 181.573 14.9281 181.763 15.6503C181.954 16.3725 181.959 17.1311 181.779 17.856C181.6 18.581 181.24 19.2489 180.735 19.7981" stroke="black" stroke-width="0.5" stroke-linecap="round" stroke-linejoin="round"/>
<path d="M183.916 13.5137C184.3 14.0997 184.554 14.7622 184.658 15.4555C184.763 16.1488 184.717 16.8566 184.523 17.5303C184.312 18.191 183.961 18.7981 183.493 19.3098C183.026 19.8215 182.453 20.2258 181.815 20.4947" stroke="black" stroke-width="0.5" stroke-linecap="round" stroke-linejoin="round"/>
<path d="M169.848 4.29492C168.899 4.5435 168.021 5.00919 167.283 5.65532C166.545 6.30146 165.967 7.1104 165.594 8.01845C165.221 8.9265 165.063 9.90887 165.134 10.8882C165.205 11.8676 165.501 12.8171 166 13.6622V13.7659" stroke="black" stroke-width="0.5" stroke-linecap="round" stroke-linejoin="round"/>
<path d="M163.6 3.19824C162.939 3.83294 162.43 4.60956 162.112 5.46961C161.795 6.32967 161.676 7.25075 161.765 8.16349" stroke="black" stroke-width="0.5" stroke-linecap="round" stroke-linejoin="round"/>
<path d="M158.82 6.66699C158.384 7.70938 158.244 8.85245 158.416 9.96954C158.589 11.0866 159.067 12.1341 159.797 12.9958" stroke="black" stroke-width="0.5" stroke-linecap="round" stroke-linejoin="round"/>
<path d="M154.441 14.1515C153.758 13.7972 153.187 13.2586 152.793 12.5966C152.399 11.9345 152.197 11.1754 152.211 10.4047C152.225 9.63409 152.454 8.88266 152.871 8.23524C153.289 7.58782 153.879 7.07018 154.574 6.74072" stroke="black" stroke-width="0.5" stroke-linecap="round" stroke-linejoin="round"/>
<path d="M331.984 96.7227C323.683 95.5518 323.431 95.4777 315.144 94.2178C315.137 94.1886 315.137 94.1581 315.144 94.1289" stroke="black" stroke-linecap="round" stroke-linejoin="round"/>
<path d="M314.91 94.0098C292.284 97.982 269.806 102.695 247.787 108.387C247.566 108.653 247.444 108.989 247.444 109.335C247.444 109.682 247.566 110.018 247.787 110.284C248.142 110.772 248.673 111.102 249.267 111.203H249.504C250.306 111.213 251.097 111.389 251.827 111.722C252.667 112.354 253.372 113.148 253.903 114.056C254.434 114.965 254.78 115.97 254.92 117.013C255.102 119.533 254.289 122.024 252.655 123.949C251.96 124.055 251.279 124.244 250.628 124.513C250.488 124.576 250.358 124.661 250.243 124.765C250.021 124.982 249.858 125.252 249.77 125.55C249.548 126.327 249.611 127.158 249.947 127.892" stroke="black" stroke-linecap="round" stroke-linejoin="round"/>
<path d="M245.506 129.256C268.428 124.81 291.454 120.941 314.538 117.858C323.343 117.755 320.028 117.236 328.818 117.858" stroke="black" stroke-linecap="round" stroke-linejoin="round"/>
<path d="M328.865 119.503C315.355 119.385 308.918 119.785 295.437 120.63" stroke="black" stroke-linecap="round" stroke-linejoin="round"/>
<path d="M245.771 145.115L246.008 145.456C250.743 145.056 255.508 144.67 260.273 144.33C275.411 143.203 290.668 142.343 305.821 141.751C309.461 141.602 313.087 141.484 316.697 141.365H328.092" stroke="black" stroke-linecap="round" stroke-linejoin="round"/>
<path d="M245.818 145.233C245.818 145.233 245.818 145.233 245.818 145.145" stroke="black" stroke-linecap="round" stroke-linejoin="round"/>
<path d="M245.506 129.493C245.527 130.187 245.714 130.865 246.051 131.472C246.388 132.078 246.866 132.594 247.445 132.976C249.013 135.199 248.836 139.498 247.104 142.195C246.997 142.173 246.886 142.173 246.779 142.195C245.832 142.507 245.669 144.048 245.728 145.026" stroke="black" stroke-linecap="round" stroke-linejoin="round"/>
<path d="M260.305 144.819C257.345 148.628 257.345 155.668 259.654 159.937" stroke="black" stroke-linecap="round" stroke-linejoin="round"/>
<path d="M286.393 145.59C284.931 146.916 283.991 148.723 283.744 150.683C283.497 152.644 283.959 154.628 285.046 156.276" stroke="black" stroke-linecap="round" stroke-linejoin="round"/>
<path d="M329.855 159.033C318.091 158.885 306.741 158.9 295.495 159.033C283.568 159.226 271.818 159.611 259.684 160.189C256.132 160.347 252.551 160.535 248.941 160.752C245.981 160.915 242.918 161.108 239.87 161.301" stroke="black" stroke-linecap="round" stroke-linejoin="round"/>
<path d="M306.075 162.605C306.012 162.71 305.958 162.819 305.912 162.932C303.604 167.378 303.989 175.945 306.268 180.288" stroke="black" stroke-linecap="round" stroke-linejoin="round"/>
<path d="M239.866 161.345C239.399 162.526 239.004 163.733 238.683 164.962C237.179 169.933 237.602 175.288 239.866 179.961C262.211 181.918 285.592 182.926 308.025 183.059" stroke="black" stroke-linecap="round" stroke-linejoin="round"/>
<path d="M331.336 178.983C330.359 179.116 329.397 179.279 328.376 179.428C323.567 180.228 318.861 181.236 314.096 182.095C312.187 182.436 310.264 182.762 308.325 183.044" stroke="black" stroke-linecap="round" stroke-linejoin="round"/>
<path d="M240.831 180.05L239.869 179.976C238.788 179.859 237.7 179.819 236.614 179.857C234.897 181.17 233.572 182.928 232.781 184.941C232.48 185.853 232.406 186.825 232.563 187.772C232.72 188.72 233.105 189.615 233.684 190.381C233.977 190.783 234.309 191.155 234.675 191.492L310.145 195.613" stroke="black" stroke-linecap="round" stroke-linejoin="round"/>
<path d="M309.908 185V185.104C309.542 185.662 309.301 186.293 309.201 186.953C309.102 187.613 309.146 188.287 309.331 188.928C309.58 190.502 310.033 192.037 310.678 193.493" stroke="black" stroke-linecap="round" stroke-linejoin="round"/>
<path d="M331.984 191.032C326.539 192.248 321.049 193.3 315.574 194.441C313.753 194.812 311.933 195.212 310.113 195.612" stroke="black" stroke-linecap="round" stroke-linejoin="round"/>
<path d="M311.857 198.77C308.898 204.847 309.238 213.399 311.857 219.654" stroke="black" stroke-linecap="round" stroke-linejoin="round"/>
<path d="M306.371 163.094C307.792 168.558 307.969 174.272 306.889 179.813" stroke="black" stroke-width="0.5" stroke-linecap="round" stroke-linejoin="round"/>
<path d="M310.056 185.268C311.143 187.761 311.591 190.487 311.358 193.197" stroke="black" stroke-width="0.5" stroke-linecap="round" stroke-linejoin="round"/>
<path d="M312.099 198.651V198.755C312.484 205.474 312.607 212.193 312.469 218.913" stroke="black" stroke-width="0.5" stroke-linecap="round" stroke-linejoin="round"/>
<path d="M233.299 190.396C229.653 190.978 226.071 191.906 222.6 193.168C221.887 196.351 221.663 199.625 221.934 202.876C221.934 203.661 222.082 204.477 222.201 205.277C222.657 208.215 223.467 211.086 224.613 213.829C253.528 216.378 282.413 219.506 311.225 223.033C318.333 220.327 325.012 216.602 331.054 211.976C331.063 212 331.063 212.027 331.054 212.05" stroke="black" stroke-linecap="round" stroke-linejoin="round"/>
<path d="M182.218 80.123C190.458 80.3804 198.412 83.2101 204.968 88.2166C211.523 93.2232 216.354 100.156 218.783 108.047C219.124 109.159 219.419 110.3 219.656 111.441" stroke="black" stroke-linecap="round" stroke-linejoin="round"/>
<path d="M219.019 107.973C224.212 112.964 227.921 119.301 229.733 126.277C230.783 130.502 231.212 135.067 233.536 138.713C236.628 143.426 242.784 146.124 244.027 151.682" stroke="black" stroke-linecap="round" stroke-linejoin="round"/>
<path d="M240.964 149.71C242.03 150.273 243.024 150.965 243.923 151.77C246.493 154.062 248.245 157.133 248.91 160.515" stroke="black" stroke-linecap="round" stroke-linejoin="round"/>
<path d="M217.391 114.983C211.975 128.817 206.549 142.611 201.113 156.365" stroke="black" stroke-linecap="round" stroke-linejoin="round"/>
<path d="M208.393 99.4351C204.693 108.328 204.353 118.066 203.85 127.596C203.346 137.126 202.533 147.027 198.078 155.49" stroke="black" stroke-linecap="round" stroke-linejoin="round"/>
<path d="M194.897 98.8721C194.241 115.854 194.606 132.861 195.992 149.799" stroke="black" stroke-linecap="round" stroke-linejoin="round"/>
<path d="M188.55 85.103C191.091 101.058 192.476 117.177 192.693 133.333" stroke="black" stroke-linecap="round" stroke-linejoin="round"/>
<path d="M210.11 161.834C210.865 160.352 211.679 158.87 212.552 157.388C214.92 153.492 217.714 149.873 220.883 146.598C221.993 145.602 222.92 144.418 223.621 143.1C223.959 142.434 224.092 141.682 224.002 140.941C223.912 140.199 223.605 139.501 223.118 138.935C222.532 138.458 221.812 138.176 221.059 138.128C220.306 138.08 219.556 138.269 218.915 138.668C217.662 139.51 216.643 140.658 215.955 142.003C213.304 146.406 211.652 151.34 211.117 156.454" stroke="black" stroke-linecap="round" stroke-linejoin="round"/>
<path d="M235.932 152.867C232.574 152.54 229.186 152.949 226.002 154.065C222.818 155.18 219.915 156.977 217.493 159.33" stroke="black" stroke-linecap="round" stroke-linejoin="round"/>
<path d="M237.428 159.64C231.799 158.345 225.905 158.863 220.588 161.122" stroke="black" stroke-linecap="round" stroke-linejoin="round"/>
<path d="M236.389 164.932C231.573 162.409 226.199 161.147 220.765 161.264C215.332 161.38 210.016 162.872 205.313 165.599C203.906 166.405 202.565 167.322 201.303 168.341" stroke="black" stroke-linecap="round" stroke-linejoin="round"/>
<path d="M198.804 159.433C198.86 159.509 198.925 159.579 198.997 159.641C200.794 161.733 202.825 163.613 205.049 165.243" stroke="black" stroke-linecap="round" stroke-linejoin="round"/>
<path d="M182.069 175.781C181.921 173.514 184.185 171.883 186.271 170.994C190.079 169.41 194.164 168.604 198.287 168.622C199.279 168.622 200.255 168.622 201.247 168.711C204.296 168.921 207.318 169.417 210.274 170.193C213.796 171.127 217.436 172.52 219.567 175.47C220.853 177.459 221.673 179.714 221.964 182.066C222.413 184.016 222.413 186.044 221.964 187.994C221.616 189.271 220.863 190.4 219.818 191.211C219.271 191.628 218.631 191.907 217.954 192.026" stroke="black" stroke-linecap="round" stroke-linejoin="round"/>
<path d="M184.466 174.462C185.442 174.596 186.434 174.744 187.425 174.907C191.691 175.356 195.828 176.635 199.604 178.672C203.599 181.058 206.781 185.312 206.914 189.847C206.946 190.477 206.912 191.108 206.811 191.73" stroke="black" stroke-linecap="round" stroke-linejoin="round"/>
<path d="M232.057 187.416C228.345 189.614 224.188 190.951 219.893 191.329" stroke="black" stroke-linecap="round" stroke-linejoin="round"/>
<path d="M218.205 191.951H217.968C214.722 192.876 211.369 193.375 207.995 193.433C207.565 193.433 207.136 193.433 206.707 193.433C203.657 193.265 200.762 192.033 198.524 189.95" stroke="black" stroke-linecap="round" stroke-linejoin="round"/>
<path d="M206.557 189.817C203.878 189.684 201.215 189.565 198.536 189.476C196.213 189.387 193.904 189.328 191.596 189.298C186.446 189.18 181.311 189.15 176.162 189.209C171.545 189.209 166.602 189.284 162.563 187.209C162.007 186.927 161.473 186.605 160.964 186.245" stroke="black" stroke-linecap="round" stroke-linejoin="round"/>
<path d="M187.381 175.01C185.664 175.529 183.92 175.955 182.157 176.285C177.341 177.201 172.408 177.326 167.552 176.656L166.841 176.33C162.657 174.398 158.208 173.104 153.642 172.491L152.783 172.372C152.188 171.857 151.425 171.578 150.638 171.587C149.795 171.596 148.958 171.726 148.152 171.972C147.649 172.12 147.16 172.268 146.672 172.446C143.786 173.425 141.019 174.729 138.207 176.003L137.882 176.152C135.02 178.874 131.936 181.353 128.663 183.563L126.813 184.793C126.953 185.432 127.3 186.007 127.801 186.428C128.302 186.849 128.927 187.092 129.58 187.12C130.894 187.128 132.186 186.785 133.324 186.127C136.829 184.268 140.17 182.116 143.313 179.694" stroke="black" stroke-linecap="round" stroke-linejoin="round"/>
<path d="M153.33 174.759C152.335 174.671 151.332 174.803 150.393 175.146C149.455 175.489 148.603 176.035 147.899 176.745L143.637 180.095C140.027 182.955 136.431 185.831 132.894 188.869C133.248 189.349 133.713 189.734 134.25 189.993C134.786 190.251 135.377 190.374 135.972 190.351C137.163 190.285 138.326 189.972 139.39 189.433C140.101 189.106 140.87 188.766 141.492 188.38C143.147 187.496 144.743 186.506 146.271 185.416C148.461 183.86 150.577 182.125 152.723 180.391C153.958 179.964 155.24 179.69 156.541 179.576" stroke="black" stroke-linecap="round" stroke-linejoin="round"/>
<path d="M165.775 178.686C164.02 177.722 161.975 177.427 160.019 177.856" stroke="black" stroke-linecap="round" stroke-linejoin="round"/>
<path d="M158.316 178.583C157.887 179.042 157.458 179.501 156.999 179.961C154.928 182.145 152.757 184.23 150.488 186.216C149.171 187.401 147.81 188.543 146.434 189.654" stroke="black" stroke-linecap="round" stroke-linejoin="round"/>
<path d="M164.99 183.889C163.658 183.889 162.312 183.889 161.113 183.889C159.974 184.793 158.805 185.712 157.606 186.587C155.061 188.572 152.134 190.01 149.009 190.811C148.466 190.959 147.894 190.959 147.351 190.811C147.094 190.74 146.865 190.593 146.693 190.39C146.522 190.186 146.416 189.935 146.389 189.67V189.596" stroke="black" stroke-linecap="round" stroke-linejoin="round"/>
<path d="M162.434 187.475C160.824 187.683 159.188 187.415 157.728 186.705" stroke="black" stroke-linecap="round" stroke-linejoin="round"/>
<path d="M150.342 186.053C149.034 186.127 147.723 186.007 146.45 185.698" stroke="black" stroke-linecap="round" stroke-linejoin="round"/>
<path d="M128.424 183.222C126.882 183.634 125.243 183.477 123.807 182.778C123.771 182.31 123.885 181.842 124.133 181.444C124.342 181.088 124.619 180.776 124.946 180.525C125.677 180.028 126.488 179.662 127.344 179.443L138.176 175.945" stroke="black" stroke-linecap="round" stroke-linejoin="round"/>
<path d="M177.126 89.1484C179.524 99.2038 182.635 109.075 186.434 118.688C183.356 118.495 180.662 116.687 177.925 115.264C175.187 113.841 171.902 112.759 169.046 114.078C167.356 115.065 165.941 116.461 164.932 118.14" stroke="black" stroke-linecap="round" stroke-linejoin="round"/>
<path d="M169.387 98.5752C169.594 102.715 169.791 106.851 169.979 110.981" stroke="black" stroke-linecap="round" stroke-linejoin="round"/>
<path d="M165.922 101.169C166.031 107.096 164.587 112.947 161.735 118.14C162.149 118.496 162.563 118.881 162.963 119.252C164.168 120.395 165.3 121.612 166.352 122.898C164.285 124.044 162.493 125.627 161.098 127.537C161.098 128.604 160.98 129.657 160.98 130.724C160.906 137.23 161.957 143.752 162.223 150.274C162.475 156.439 161.927 162.916 159.263 168.415C158.661 169.689 157.943 170.905 157.118 172.046" stroke="black" stroke-linecap="round" stroke-linejoin="round"/>
<path d="M160.463 164.294C157.325 165.816 154.109 167.171 150.829 168.356" stroke="black" stroke-linecap="round" stroke-linejoin="round"/>
<path d="M159.293 168.386C156.532 169.695 153.633 170.689 150.651 171.35" stroke="black" stroke-linecap="round" stroke-linejoin="round"/>
<path d="M146.361 171.749C146.523 168.192 147.988 164.857 148.98 161.448C150.809 155.052 151.043 148.303 149.661 141.795C148.898 138.186 147.653 134.696 145.961 131.42L145.783 131.094C140.109 120.615 135.873 109.418 133.19 97.8042" stroke="black" stroke-linecap="round" stroke-linejoin="round"/>
<path d="M132.794 104.415C132.927 102.355 133.075 100.087 133.223 97.7749C133.445 94.4252 133.682 91.0014 133.859 88.0371" stroke="black" stroke-linecap="round" stroke-linejoin="round"/>
<path d="M147.439 142.092C145.374 136.094 142.836 130.271 139.848 124.676C138.548 122.115 136.986 119.696 135.187 117.458C133.45 115.309 131.242 113.59 128.735 112.434L130.821 108.358C124.643 110.217 118.228 111.171 111.777 111.189C117.015 105.838 119.723 98.4718 121.203 91.1499C121.845 87.2109 122.73 83.3153 123.852 79.4853C124.414 77.8104 125.164 76.2045 126.086 74.6979C127.187 72.767 128.703 71.1062 130.525 69.8364" stroke="black" stroke-linecap="round" stroke-linejoin="round"/>
<path d="M125.85 74.5488C121.944 75.3378 118.291 77.0731 115.21 79.603C114.971 79.1344 114.613 78.7378 114.171 78.4539C113.729 78.17 113.219 78.009 112.694 77.9875C111.646 77.977 110.604 78.1526 109.616 78.5062C107.9 79.025 106.198 79.5289 104.6 79.8846C99.9938 79.8512 95.4402 80.8648 91.2817 82.849C83.3205 88.2737 77.1646 96.0254 72.0445 104.237C68.4191 110.165 65.2967 116.227 62.1003 122.319C60.7981 124.779 59.4959 127.225 58.1345 129.641" stroke="black" stroke-linecap="round" stroke-linejoin="round"/>
<path d="M96.0472 113.175C97.0888 124.833 95.6411 136.58 91.8003 147.635" stroke="black" stroke-linecap="round" stroke-linejoin="round"/>
<path d="M92.7344 94.0986C89.3726 111.173 88.0709 128.589 88.8573 145.974" stroke="black" stroke-linecap="round" stroke-linejoin="round"/>
<path d="M74.1625 114.36C73.055 126.498 73.1392 138.715 74.4141 150.836" stroke="black" stroke-linecap="round" stroke-linejoin="round"/>
<path d="M60.3549 132.146C65.7217 139.269 69.9501 147.185 72.8887 155.609V155.743" stroke="black" stroke-linecap="round" stroke-linejoin="round"/>
<path d="M66.5391 152.037C64.8742 149.299 62.6134 146.974 59.9255 145.233C57.2376 143.493 54.192 142.384 51.0161 141.988C50.5234 141.875 50.0085 141.912 49.5363 142.092C49.3112 142.184 49.1272 142.355 49.0183 142.573C48.9095 142.791 48.8832 143.041 48.9444 143.277C49.1177 143.587 49.396 143.823 49.7287 143.944C54.39 146.301 58.9773 148.569 66.5391 152.037Z" stroke="black" stroke-linecap="round" stroke-linejoin="round"/>
<path d="M75.6116 153.845C75.7004 154.082 75.804 154.305 75.8928 154.542C76.6118 156.144 77.0761 157.85 77.269 159.596C77.3136 160.175 77.2838 160.758 77.1802 161.33C77.0206 162.752 76.3277 164.061 75.2417 164.991" stroke="black" stroke-linecap="round" stroke-linejoin="round"/>
<path d="M75.0488 166.784C75.0488 166.191 75.0488 165.598 75.0488 165.005C75.0416 164.971 75.0416 164.936 75.0488 164.902C75.0087 163.63 74.7792 162.371 74.3681 161.167C73.8924 159.805 72.9824 158.638 71.7785 157.847C71.3811 157.6 70.9463 157.42 70.4911 157.313" stroke="black" stroke-linecap="round" stroke-linejoin="round"/>
<path d="M72.5801 165.051C68.8214 163.079 64.0564 164.132 60.5937 166.533C57.131 168.934 54.6746 172.624 52.4549 176.211C51.2267 178.138 49.9837 180.495 50.9751 182.585C51.4837 183.437 52.2095 184.139 53.0779 184.618C53.9464 185.097 54.9264 185.337 55.9177 185.312H56.4504" stroke="black" stroke-linecap="round" stroke-linejoin="round"/>
<path d="M65.6797 156.039C63.1211 155.055 60.3843 154.621 57.6474 154.767C54.9105 154.912 52.2349 155.634 49.7947 156.884C47.3546 158.134 45.2047 159.884 43.4849 162.022C41.7651 164.159 40.514 166.635 39.813 169.289" stroke="black" stroke-linecap="round" stroke-linejoin="round"/>
<path d="M55.8418 185.415C52.4383 185.904 47.111 185.889 44.8913 183.251C43.5991 181.671 42.547 179.907 41.769 178.019C41.1771 176.73 40.6739 175.41 40.1856 174.091" stroke="black" stroke-linecap="round" stroke-linejoin="round"/>
<path d="M41.47 178.153C39.8334 177.378 38.3746 176.272 37.1853 174.904C35.9961 173.537 35.102 171.938 34.5594 170.208C34.0115 167.701 33.9212 165.115 34.293 162.575C34.4925 158.577 35.0722 154.606 36.0244 150.718C37.4474 146.034 39.6759 141.635 42.6094 137.719C47.5371 130.872 54.063 124.869 62.0391 122.157" stroke="black" stroke-linecap="round" stroke-linejoin="round"/>
<path d="M55.2324 151.948C52.4828 150.951 49.4973 150.806 46.6645 151.533C43.8603 152.249 41.134 153.242 38.5257 154.497" stroke="black" stroke-linecap="round" stroke-linejoin="round"/>
<path d="M98.918 170.564L94.6118 165.332C92.9248 163.287 91.2231 161.256 89.4917 159.211C88.081 157.521 86.6554 155.836 85.2151 154.156C83.9277 152.674 82.6403 151.192 81.3233 149.71L78.926 151.815C80.2578 153.297 81.5896 154.779 82.9067 156.261C85.0967 158.707 87.2572 161.197 89.2993 163.776C90.646 165.436 91.9186 167.125 93.1468 168.874" stroke="black" stroke-linecap="round" stroke-linejoin="round"/>
<path d="M88.3524 168.756C91.9002 169.144 95.4064 169.848 98.8293 170.861C99.7172 171.098 100.605 171.379 101.493 171.661C102.248 172.565 102.973 173.469 103.668 174.418C106.407 178.109 108.795 182.049 110.801 186.186C110.571 186.488 110.281 186.74 109.951 186.926C109.62 187.112 109.254 187.229 108.877 187.268C108.838 187.275 108.798 187.275 108.759 187.268C108.009 187.289 107.279 187.024 106.717 186.527C107.703 187.561 108.613 188.666 109.439 189.832C109.26 190.516 108.842 191.113 108.261 191.515C107.68 191.918 106.975 192.099 106.273 192.026C105.55 191.982 104.842 191.801 104.186 191.492C103.562 191.211 102.954 190.895 102.366 190.544C97.0919 187.55 91.6579 184.848 86.0883 182.451" stroke="black" stroke-linecap="round" stroke-linejoin="round"/>
<path d="M104.572 184.186C102.41 182.543 100.461 180.636 98.7715 178.509C95.8825 178.052 93.0399 177.337 90.2775 176.375C95.1164 179.146 99.9553 181.873 104.572 184.186Z" stroke="black" stroke-linecap="round" stroke-linejoin="round"/>
<path d="M103.977 174.181C106.049 174.907 108.076 175.663 110.015 176.582C110.666 176.858 111.302 177.155 111.924 177.471C112.191 178.905 112.354 180.356 112.412 181.814C112.405 181.868 112.405 181.923 112.412 181.977C112.558 183.438 113.117 184.826 114.025 185.979C114.06 186.26 114.019 186.546 113.907 186.806C113.795 187.066 113.616 187.292 113.389 187.461C112.93 187.787 112.294 187.846 111.243 186.972C113.167 189.402 115.105 191.848 116.852 194.383C114.07 192.278 111.376 190.055 108.757 187.742" stroke="black" stroke-linecap="round" stroke-linejoin="round"/>
<path d="M103.938 192.04C103.718 192.61 103.349 193.11 102.87 193.488C102.391 193.866 101.819 194.108 101.215 194.189C100 194.332 98.769 194.19 97.6188 193.774C96.8493 193.537 96.0946 193.27 95.3547 192.974C92.1288 191.699 89.0805 190.01 85.8841 188.527" stroke="black" stroke-linecap="round" stroke-linejoin="round"/>
<path d="M95.2502 193.241C95.2814 193.525 95.2361 193.813 95.119 194.073C95.0019 194.334 94.8173 194.559 94.5843 194.724C94.1115 195.053 93.5701 195.271 93.0009 195.361C92.086 195.557 91.1544 195.667 90.2189 195.687C87.5356 195.782 84.8696 195.222 82.45 194.057C81.2381 193.482 80.1044 192.755 79.0761 191.893" stroke="black" stroke-linecap="round" stroke-linejoin="round"/>
<path d="M87.998 168.815C87.3503 168.939 86.7349 169.195 86.1901 169.567C85.6453 169.939 85.1828 170.42 84.8313 170.979C84.4334 171.538 84.1424 172.166 83.9731 172.832C83.2924 173.706 82.1085 174.003 81.3538 174.788C80.7174 175.515 80.3884 176.461 80.4364 177.426C80.4364 178.375 80.6879 179.309 80.6879 180.242C79.9723 180.648 79.4112 181.28 79.0925 182.039C78.7738 182.798 78.7156 183.641 78.9269 184.437C79.383 185.299 79.6742 186.239 79.7852 187.209C79.6775 187.725 79.4982 188.224 79.2525 188.691C79.0597 189.052 78.8964 189.429 78.7642 189.817L78.6754 190.203C78.627 190.46 78.6322 190.724 78.6908 190.979C78.7493 191.234 78.86 191.475 79.0157 191.685" stroke="black" stroke-linecap="round" stroke-linejoin="round"/>
<path d="M72.7846 166.577C73.4061 166.918 74.0572 167.229 74.6935 167.541C77.8349 169.019 81.1443 170.109 84.5488 170.787" stroke="black" stroke-linecap="round" stroke-linejoin="round"/>
<path d="M61.7754 186.23C59.9848 185.919 58.1943 185.622 56.3889 185.356L55.4715 185.222" stroke="black" stroke-linecap="round" stroke-linejoin="round"/>
<path d="M78.082 189.595C72.6956 188.291 67.2697 187.169 61.8044 186.23" stroke="black" stroke-linecap="round" stroke-linejoin="round"/>
<path d="M331.068 99.1238C322.811 97.9973 323.299 98.0714 315.516 96.8264L314.879 96.7227C293.541 101.021 270.486 106.179 249.266 111.055" stroke="black" stroke-linecap="round" stroke-linejoin="round"/>
<path d="M315.455 97.2119C318.41 102.408 319.382 108.501 318.193 114.361" stroke="black" stroke-width="0.5" stroke-linecap="round" stroke-linejoin="round"/>
<path d="M329.855 114.746C322.19 114.094 325.416 114.524 318.195 114.657H318.017C295.327 117.503 272.785 120.961 250.391 125.032" stroke="black" stroke-linecap="round" stroke-linejoin="round"/>
<path d="M328.139 122.23C297.907 122.571 276.731 125.906 247.15 132.161" stroke="black" stroke-linecap="round" stroke-linejoin="round"/>
<path d="M328.139 138.638C297.063 138.905 277.826 138.994 246.824 142.269" stroke="black" stroke-linecap="round" stroke-linejoin="round"/>
<path d="M328.139 144.152C318.712 143.915 312.423 143.915 305.942 144.152C300.437 144.389 294.769 144.819 286.897 145.501H286.409" stroke="black" stroke-linecap="round" stroke-linejoin="round"/>
<path d="M329.855 155.861C316.389 155.861 307.156 156.498 295.48 156.646C292.52 156.646 289.235 156.646 285.743 156.646H285.299" stroke="black" stroke-linecap="round" stroke-linejoin="round"/>
<path d="M286.939 145.679C287.441 149.321 287.045 153.03 285.785 156.484" stroke="black" stroke-width="0.5" stroke-linecap="round" stroke-linejoin="round"/>
<path d="M322.545 161.908L329.855 161.642C329.722 161.745 329.13 161.745 327.932 161.745C325.845 161.908 324.025 161.908 322.545 161.908ZM322.545 161.908L306.49 162.531C311.827 162.047 317.186 161.839 322.545 161.908Z" stroke="black" stroke-linecap="round" stroke-linejoin="round"/>
<path d="M331.584 176.256L327.973 176.849C321.64 177.871 315.395 178.879 309.047 179.976L306.945 180.213L306.28 180.302" stroke="black" stroke-linecap="round" stroke-linejoin="round"/>
<path d="M309.905 185.001H310.009L314.448 184.185L316.312 183.859" stroke="black" stroke-linecap="round" stroke-linejoin="round"/>
<path d="M316.344 183.844C314.154 184.259 312.008 184.645 310.01 184.986" stroke="black" stroke-linecap="round" stroke-linejoin="round"/>
<path d="M316.346 183.844L317.692 183.592L320.4 183.088" stroke="black" stroke-linecap="round" stroke-linejoin="round"/>
<path d="M320.43 183.089L331.336 181.132C327.814 181.725 324.085 182.407 320.43 183.089Z" stroke="black" stroke-linecap="round" stroke-linejoin="round"/>
<path d="M310.615 193.494L311.4 193.346L315.217 192.605C321.018 191.419 326.789 190.04 332.561 189.003" stroke="black" stroke-linecap="round" stroke-linejoin="round"/>
<path d="M312.096 198.473L332.636 193.612L333.006 193.523" stroke="black" stroke-linecap="round" stroke-linejoin="round"/>
<path d="M311.857 219.653C312.094 219.549 312.346 219.46 312.583 219.341C318.584 216.659 324.416 213.61 330.044 210.211L331.775 209.218" stroke="black" stroke-linecap="round" stroke-linejoin="round"/>
<path d="M99.7611 148.213C107.273 158.343 115.818 167.662 125.258 176.018" stroke="black" stroke-linecap="round" stroke-linejoin="round"/>
<path d="M118.248 177.59C116.428 176.537 114.623 175.455 112.847 174.344C110.183 172.674 107.569 170.915 105.004 169.067C102.444 167.229 99.9431 165.303 97.5014 163.316" stroke="black" stroke-linecap="round" stroke-linejoin="round"/>
<path d="M191.597 189.536C199.686 193.662 208.337 196.574 217.272 198.177L217.967 198.296C218.279 199.549 218.468 200.83 218.529 202.12C218.529 202.475 218.529 202.846 218.529 203.216" stroke="black" stroke-linecap="round" stroke-linejoin="round"/>
<path d="M217.258 198.281C211.575 199.289 205.745 198.37 200.122 197.11C194.499 195.85 188.92 194.264 183.163 193.894C173.08 193.28 163.131 196.451 155.255 202.787" stroke="black" stroke-linecap="round" stroke-linejoin="round"/>
<path d="M154.812 203.187C150.331 198.004 143.985 194.807 137.159 194.294C130.514 193.834 123.989 195.968 117.448 197.258C108.964 199.042 100.244 199.407 91.6404 198.34H91.1964C90.7093 200.05 90.0448 201.704 89.2135 203.276" stroke="black" stroke-linecap="round" stroke-linejoin="round"/>
<path d="M142.347 189.891C147.033 193.764 151.21 198.216 154.777 203.142" stroke="black" stroke-linecap="round" stroke-linejoin="round"/>
<path d="M149.069 206.61C150.69 205.556 152.619 205.08 154.544 205.261C156.287 205.37 157.933 206.107 159.176 207.336C155.79 207.544 152.391 207.3 149.069 206.61Z" stroke="black" stroke-linecap="round" stroke-linejoin="round"/>
<path d="M112.756 206.121C104.173 205.706 95.5854 205.395 86.9927 205.188H86.8743" stroke="black" stroke-linecap="round" stroke-linejoin="round"/>
<path d="M159.32 209.382C155.626 210.195 151.772 209.87 148.266 208.448C138.914 207.677 129.542 207.03 120.15 206.506C117.694 206.358 115.223 206.24 112.751 206.121" stroke="black" stroke-linecap="round" stroke-linejoin="round"/>
<path d="M78.5862 192.248C81.5458 196.438 84.3425 200.756 86.9766 205.202" stroke="black" stroke-linecap="round" stroke-linejoin="round"/>
<path d="M82.3446 194.293C84.2428 197.401 86.3128 200.399 88.5449 203.275V203.349" stroke="black" stroke-linecap="round" stroke-linejoin="round"/>
<path d="M90.2164 196.057C90.6752 196.813 91.1487 197.539 91.6074 198.295" stroke="black" stroke-linecap="round" stroke-linejoin="round"/>
<path d="M148.686 206.58C128.934 204.296 109.066 203.158 89.1833 203.172H88.6505" stroke="black" stroke-linecap="round" stroke-linejoin="round"/>
<path d="M159.93 207.782L218.426 203.335" stroke="black" stroke-linecap="round" stroke-linejoin="round"/>
<path d="M159.796 209.723C180.292 208.908 200.757 207.381 221.163 205.276H221.43" stroke="black" stroke-linecap="round" stroke-linejoin="round"/>
<path d="M221.549 202.905L219.033 202.104" stroke="black" stroke-linecap="round" stroke-linejoin="round"/>
<path d="M89.9961 149.265C89.6853 149.576 89.3746 149.888 89.0786 150.214C87.88 151.429 86.6962 152.644 85.5272 153.875" stroke="black" stroke-linecap="round" stroke-linejoin="round"/>
<path d="M82.834 156.261C82.3905 157.452 81.6874 158.529 80.7762 159.414C79.8649 160.298 78.7682 160.968 77.5659 161.375" stroke="black" stroke-linecap="round" stroke-linejoin="round"/>
<path d="M112.77 206.121C98.7614 209.404 84.5765 211.879 70.2849 213.532L70.0777 213.369C63.9421 208.645 56.8139 205.382 49.2328 203.825C41.6517 202.269 33.8164 202.461 26.3204 204.387C30.5526 201.674 35.5542 200.504 40.4671 199.362C52.6606 196.561 66.0971 192.144 78.6013 192.248" stroke="black" stroke-linecap="round" stroke-linejoin="round"/>
<path d="M61.8066 186.23C45.9433 187.579 20.5058 193.182 5.42676 199.437L4.4057 199.866" stroke="black" stroke-linecap="round" stroke-linejoin="round"/>
<path d="M25.0176 203.839C24.9083 203.074 24.6157 202.347 24.1647 201.719C23.7137 201.092 23.1178 200.584 22.4279 200.237C21.0443 199.55 19.5319 199.161 17.9886 199.096C13.8687 198.723 9.71554 199.053 5.70637 200.074L4.44849 200.43" stroke="black" stroke-linecap="round" stroke-linejoin="round"/>
<path d="M69.6757 213.843C69.7302 215.238 69.5958 216.634 69.2761 217.993L21.6566 205.78L3.8991 201.23" stroke="black" stroke-linecap="round" stroke-linejoin="round"/>
<path d="M26.4961 205.425H26.1558L24.7943 205.187L21.9828 204.698" stroke="black" stroke-linecap="round" stroke-linejoin="round"/>
<path d="M4.30228 200.533L3.79912 200.637C2.85205 200.8 1.93465 200.978 1.00239 201.171C7.35067 203.498 14.128 205.469 20.9055 207.44C22.0445 207.472 23.1722 207.677 24.2498 208.048C39.536 212.227 54.5411 216.007 69.8717 220.261L103.907 213.739C110.258 212.703 116.514 211.147 122.611 209.085" stroke="black" stroke-linecap="round" stroke-linejoin="round"/>
<path d="M70.331 218.26C86.8158 215.295 103.241 212.02 119.741 208.24C119.83 207.959 119.933 207.662 120.022 207.366L120.141 207.025" stroke="black" stroke-linecap="round" stroke-linejoin="round"/>
<path d="M122.594 208.863C122.702 208.791 122.78 208.683 122.815 208.558C122.851 208.433 122.84 208.3 122.787 208.182C122.738 208.062 122.664 207.955 122.569 207.868C122.475 207.781 122.362 207.716 122.239 207.678C121.998 207.584 121.743 207.534 121.485 207.529L120.108 207.396" stroke="black" stroke-linecap="round" stroke-linejoin="round"/>
<path d="M160.818 130.694C158.776 132.47 156.177 133.472 153.473 133.526C150.769 133.58 148.132 132.683 146.02 130.99" stroke="black" stroke-linecap="round" stroke-linejoin="round"/>
<path d="M183.352 72.3115C183.359 72.3407 183.359 72.3712 183.352 72.4004C183.069 74.9393 182.457 77.4305 181.532 79.8112C180.28 82.9675 178.64 85.9549 176.649 88.7042C176.516 88.9117 176.382 89.1044 176.234 89.2971C173.085 93.459 169.622 97.3734 165.876 101.006C165.136 101.732 164.396 102.488 163.686 103.2C162.06 104.968 160.26 106.566 158.314 107.972C156.343 109.384 153.975 110.132 151.552 110.107C147.334 109.884 143.931 106.594 141.43 103.185C134.638 93.8866 131.379 82.4666 132.24 70.9775" stroke="black" stroke-linecap="round" stroke-linejoin="round"/>
<path d="M132.138 54.5407C132.013 53.4795 131.638 52.4634 131.043 51.5764C131.002 51.5152 130.952 51.4603 130.895 51.4133C130.585 51.04 130.162 50.7765 129.691 50.6618C129.219 50.547 128.723 50.5871 128.276 50.776C127.851 51.0989 127.517 51.5268 127.307 52.0179C127.097 52.509 127.018 53.0464 127.077 53.5773C127.07 53.7205 127.07 53.864 127.077 54.0071C126.972 57.1187 127.226 60.232 127.832 63.2855C128.3 65.5881 129.315 67.7439 130.792 69.5699C131.235 70.1114 131.731 70.6079 132.271 71.052" stroke="black" stroke-linecap="round" stroke-linejoin="round"/>
<path d="M186.67 70.2065C186.411 73.3268 185.053 76.2531 182.837 78.4622" stroke="black" stroke-linecap="round" stroke-linejoin="round"/>
<path d="M183.473 72.3263C185.81 70.8621 187.729 68.8184 189.046 66.3932C190.363 63.968 191.033 61.2433 190.99 58.4829" stroke="black" stroke-linecap="round" stroke-linejoin="round"/>
<path d="M188.933 60.41C189.435 59.7588 189.895 59.0756 190.309 58.3646C192.484 54.6484 193.412 50.3315 192.958 46.0479" stroke="black" stroke-linecap="round" stroke-linejoin="round"/>
<path d="M190.885 49.6202C191.535 48.4487 192.032 47.1984 192.364 45.8999C193.628 40.693 192.855 35.1992 190.204 30.5447C188.631 27.7787 186.634 25.2779 184.285 23.1339C183.106 22.0448 181.86 21.03 180.556 20.0955C179.078 18.9767 177.542 17.9377 175.954 16.9829" stroke="black" stroke-linecap="round" stroke-linejoin="round"/>
<path d="M176.119 19.9764C175.528 19.1352 174.848 18.36 174.092 17.6642C173.941 17.5229 173.783 17.3893 173.618 17.264C171.417 15.4474 168.797 14.2094 165.997 13.6624C163.173 13.0644 160.254 13.0644 157.429 13.6624C154.965 14.2072 152.593 15.1058 150.386 16.3303C146.518 18.5268 143.021 21.3232 140.027 24.6156C136.531 28.1456 133.739 32.3107 131.8 36.8879C129.874 41.4981 129.586 46.6309 130.986 51.4279" stroke="black" stroke-linecap="round" stroke-linejoin="round"/>
<path d="M184.669 22.6596C186.402 20.8015 187.451 18.4068 187.642 15.871C187.833 13.3353 187.155 10.8101 185.72 8.71246C184.531 7.16367 182.961 5.95149 181.163 5.19523C179.365 4.43896 177.401 4.16468 175.465 4.39937C174.312 4.54191 173.192 4.87761 172.15 5.39242" stroke="black" stroke-linecap="round" stroke-linejoin="round"/>
<path d="M175.422 4.08749C173.37 2.20288 170.716 1.11125 167.934 1.00805C165.152 0.90485 162.424 1.79683 160.239 3.52427C159.802 3.85766 159.392 4.22435 159.011 4.62107" stroke="black" stroke-linecap="round" stroke-linejoin="round"/>
<path d="M160.02 3.22754C157.933 3.35338 155.875 3.77763 153.908 4.48738C152.918 4.84003 152.012 5.39503 151.248 6.11714C150.484 6.83924 149.878 7.71266 149.469 8.6819C148.625 11.0385 149.469 13.6175 150.194 16.0038" stroke="black" stroke-linecap="round" stroke-linejoin="round"/>
<path d="M176.783 56.3198C175.161 57.8116 173.368 59.1052 171.441 60.1734C170.805 60.5292 170.139 60.8701 169.473 61.1665" stroke="black" stroke-width="0.5" stroke-linecap="round" stroke-linejoin="round"/>
<path d="M171.857 54.4072C170.058 56.2113 167.979 57.7128 165.701 58.8537L164.725 59.328" stroke="black" stroke-width="0.5" stroke-linecap="round" stroke-linejoin="round"/>
<path d="M165.359 54.2433C164.474 56.1185 163.13 57.7396 161.453 58.9566L161.024 59.2678V58.7194L159.914 44.3276" stroke="black" stroke-width="0.5" stroke-linecap="round" stroke-linejoin="round"/>
<path d="M158.627 58.8533C156.996 55.9241 154.636 53.468 151.776 51.7241" stroke="black" stroke-width="0.5" stroke-linecap="round" stroke-linejoin="round"/>
<path d="M148.299 59.5944C146.54 60.5815 144.516 60.991 142.513 60.7653C141.621 60.6593 140.748 60.4246 139.923 60.0687C138.691 59.5435 137.582 58.766 136.668 57.7861" stroke="black" stroke-width="0.5" stroke-linecap="round" stroke-linejoin="round"/>
<path d="M148.299 59.594C148.48 59.4509 148.679 59.3314 148.891 59.2383C148.702 59.3709 148.504 59.4897 148.299 59.594Z" stroke="black" stroke-width="0.5" stroke-linecap="round" stroke-linejoin="round"/>
<path d="M156.719 59.0755C154.952 58.4469 153.013 58.5135 151.293 59.2618C149.574 60.0102 148.202 61.3845 147.455 63.107C147.138 63.7616 146.985 64.4843 147.011 65.2117C147.053 65.8849 147.296 66.5302 147.707 67.0644C147.253 66.7806 146.872 66.394 146.594 65.9358C146.317 65.4776 146.15 64.9605 146.109 64.4261C146.041 63.3521 146.299 62.2826 146.849 61.358C147.217 60.6757 147.721 60.0756 148.328 59.5943" stroke="black" stroke-width="0.5" stroke-linecap="round" stroke-linejoin="round"/>
<path d="M139.348 61.299C138.25 61.2645 137.163 61.0698 136.122 60.721C135.604 60.5364 135.133 60.2404 134.742 59.8537C134.35 59.467 134.049 58.9991 133.858 58.4829" stroke="black" stroke-width="0.5" stroke-linecap="round" stroke-linejoin="round"/>
<path d="M128.928 53.6953C130.343 55.0526 131.309 56.8112 131.695 58.7347C131.922 59.8119 131.958 60.9208 131.799 62.0103" stroke="black" stroke-width="0.5" stroke-linecap="round" stroke-linejoin="round"/>
<path d="M131.563 60.084C131.059 61.0547 130.851 62.1521 130.964 63.2403C131.077 64.3285 131.507 65.3594 132.199 66.2053" stroke="black" stroke-width="0.5" stroke-linecap="round" stroke-linejoin="round"/>
<path d="M129.505 55.2969C129.429 57.315 129.553 59.3357 129.875 61.3293" stroke="black" stroke-width="0.5" stroke-linecap="round" stroke-linejoin="round"/>
<path d="M172.107 61.521H172.24C173.32 61.6 174.367 61.924 175.303 62.4684C176.238 63.0128 177.038 63.7633 177.642 64.6632C178.85 66.5125 179.938 68.4384 180.897 70.4288C181.43 71.3922 182.244 72.4297 183.354 72.4001" stroke="black" stroke-width="0.5" stroke-linecap="round" stroke-linejoin="round"/>
<path d="M176.533 76.7874C174.417 75.9722 172.094 76.7874 170.007 77.8249C167.921 78.8624 165.805 79.9296 163.555 79.6183" stroke="black" stroke-width="0.5" stroke-linecap="round" stroke-linejoin="round"/>
<path d="M156.025 77.8698C152.918 77.1139 150.432 74.9055 147.99 72.8157C145.549 70.7258 142.781 68.7397 139.585 68.5767" stroke="black" stroke-width="0.5" stroke-linecap="round" stroke-linejoin="round"/>
<path d="M152.176 78.2549C149.35 75.9138 145.905 74.4462 142.261 74.0308" stroke="black" stroke-width="0.5" stroke-linecap="round" stroke-linejoin="round"/>
<path d="M151.23 77.9141C151.289 78.3597 151.217 78.8128 151.023 79.2184" stroke="black" stroke-width="0.5" stroke-linecap="round" stroke-linejoin="round"/>
<path d="M148.686 78.4035C148.477 77.8228 148.053 77.3449 147.502 77.0689C146.951 76.7929 146.315 76.7401 145.726 76.9213C146.643 77.44 147.576 77.944 148.686 78.4035Z" stroke="black" stroke-width="0.5" stroke-linecap="round" stroke-linejoin="round"/>
<path d="M170.143 82.7604C170.07 82.4824 169.9 82.2397 169.664 82.0765C169.427 81.9133 169.141 81.8404 168.855 81.8711C168.284 81.9464 167.743 82.1713 167.287 82.5233C168.186 82.9164 169.191 82.9998 170.143 82.7604Z" stroke="black" stroke-width="0.5" stroke-linecap="round" stroke-linejoin="round"/>
<path d="M175.672 81.9906C175.126 81.5055 174.489 81.1348 173.797 80.9006C173.106 80.6664 172.375 80.5734 171.647 80.6271C169.623 80.5877 167.602 80.7867 165.624 81.2199" stroke="black" stroke-width="0.5" stroke-linecap="round" stroke-linejoin="round"/>
<path d="M161.826 81.5752C161.427 83.0574 161.012 84.3765 160.598 85.7697" stroke="black" stroke-width="0.5" stroke-linecap="round" stroke-linejoin="round"/>
<path d="M161.572 93.7437C161.579 94.1691 161.485 94.5902 161.297 94.9718C161.11 95.3534 160.833 95.6845 160.492 95.9373C159.799 96.4264 159.035 96.8063 158.228 97.0638C156.962 97.6867 155.528 97.8792 154.143 97.6122C153.183 97.1922 152.298 96.6163 151.524 95.9077C150.674 95.3386 149.928 94.6265 149.319 93.803C149.173 93.5943 149.069 93.3586 149.015 93.1095C148.96 92.8604 148.955 92.603 149.001 92.3521C149.046 92.1011 149.141 91.8617 149.279 91.6478C149.418 91.4338 149.597 91.2494 149.808 91.1055" stroke="black" stroke-width="0.5" stroke-linecap="round" stroke-linejoin="round"/>
<path d="M143.829 98.4715C145.645 97.9384 147.569 97.8924 149.408 98.3381C151.243 98.679 153.049 99.2422 154.913 99.4942C155.962 99.5821 157.004 99.7306 158.035 99.9388C159.056 100.206 160.063 100.739 160.137 101.821C158.657 100.976 156.807 101.821 155.105 101.925C151.199 102.177 147.84 98.516 143.829 98.4715Z" stroke="black" stroke-width="0.5" stroke-linecap="round" stroke-linejoin="round"/>
<path d="M155.639 104.401C154.105 104.977 152.429 105.056 150.849 104.625C149.269 104.194 147.864 103.275 146.834 102" stroke="black" stroke-width="0.5" stroke-linecap="round" stroke-linejoin="round"/>
<path d="M89.1832 150.318C88.9334 153.233 89.1079 156.168 89.7012 159.033" stroke="black" stroke-linecap="round" stroke-linejoin="round"/>
<path d="M89.0931 163.865C89.3727 165.465 89.0959 167.113 88.3088 168.534" stroke="black" stroke-linecap="round" stroke-linejoin="round"/>
<path d="M123.66 181.413C120.16 180.802 116.57 180.964 113.139 181.887" stroke="black" stroke-linecap="round" stroke-linejoin="round"/>
<path d="M198.954 159.329V159.64C199.328 161.635 199.378 163.677 199.102 165.688C198.932 166.587 198.644 167.459 198.243 168.281" stroke="black" stroke-linecap="round" stroke-linejoin="round"/>
</svg>
