<svg width="377" height="252" viewBox="0 0 377 252" fill="none" xmlns="http://www.w3.org/2000/svg">
<path d="M165.823 69.3924C165.203 70.433 164.912 71.6367 164.988 72.8456C165.035 73.447 165.223 74.029 165.536 74.5448C165.849 75.0605 166.278 75.4956 166.79 75.815C166.327 75.2137 166.053 74.4875 166.006 73.7297C165.977 72.9111 166.148 72.0976 166.507 71.3609C167.349 69.4222 168.895 67.8754 170.834 67.0331C172.773 66.1908 174.959 66.1158 176.951 66.8233L179.103 66.6232L181.756 66.423V67.0402L182.239 66.6899L185.927 67.1737L187.028 66.6398L191.282 69.1755C192.033 68.8419 192.784 68.4582 193.501 68.0578L194.402 69.5759C195.619 69.6648 196.799 70.0295 197.854 70.6422C198.91 71.255 199.811 72.0997 200.492 73.1125C201.854 75.1939 203.08 77.3616 204.162 79.6018C204.763 80.6862 205.68 81.8539 206.931 81.8206C206.939 81.7876 206.939 81.7534 206.931 81.7205C209.566 80.0724 211.73 77.7723 213.215 75.0426C214.7 72.313 215.455 69.2463 215.407 66.1394L214.639 66.0059C217.166 61.8304 218.278 56.9509 217.809 52.093L217.209 51.9262C218.633 46.0657 217.762 39.8823 214.773 34.6436C213 31.5304 210.748 28.7156 208.099 26.3025C206.77 25.0767 205.366 23.9346 203.895 22.8827C202.236 21.6814 200.515 20.5677 198.74 19.5463L196.588 20.3136C196.417 20.1546 196.239 20.0043 196.054 19.8632C193.571 17.8185 190.618 16.4252 187.461 15.8095C184.277 15.1364 180.986 15.1364 177.802 15.8095C175.024 16.4227 172.349 17.4341 169.86 18.8123C165.499 21.2845 161.557 24.432 158.181 28.1375C154.24 32.1107 151.091 36.7986 148.905 41.9503C146.734 47.1393 146.41 52.9163 147.988 58.3155C148.052 58.3683 148.108 58.4301 148.154 58.499C148.825 59.4973 149.248 60.641 149.389 61.8354C149.756 63.0198 152.726 68.3247 153.877 68.7918C155.051 69.1844 156.276 69.4036 157.514 69.4424L158.165 68.0578C159.095 68.4585 160.078 68.7226 161.084 68.8419C163.343 69.096 165.625 68.635 167.608 67.524C167.812 67.3629 168.037 67.2284 168.275 67.1236C168.062 67.2728 167.839 67.4066 167.608 67.524C166.893 68.0198 166.285 68.6554 165.823 69.3924Z" fill="#D1D0D1"/>
<path d="M81.1219 177.994L82.49 175.625V175.475C79.177 165.993 74.4096 157.084 68.3588 149.067L65.8729 146.198C67.4078 143.479 68.876 140.726 70.3442 137.957C61.3516 141.01 53.994 147.766 48.4383 155.473C45.1309 159.881 42.6184 164.832 41.014 170.103C39.9405 174.48 39.2869 178.949 39.062 183.449C38.6428 186.308 38.7446 189.218 39.3623 192.04C39.9741 193.988 40.9821 195.787 42.3229 197.326C43.6638 198.865 45.3085 200.109 47.1537 200.982L47.4873 200.832C48.3644 202.957 49.5507 204.942 51.0077 206.721C53.5102 209.69 59.5164 209.707 63.3536 209.156C62.2361 209.184 61.1312 208.915 60.152 208.376C59.1728 207.836 58.3547 207.046 57.7813 206.087C56.7469 203.735 58.1483 201.082 59.4497 198.913C62.019 194.876 64.7218 190.789 68.6258 188.02C70.6258 186.725 72.9411 186.001 75.3224 185.925C77.7037 185.848 80.0607 186.423 82.1396 187.586L82.3732 188.003C83.0739 188.387 83.808 188.737 84.5254 189.088L84.9258 188.237C84.9258 187.57 84.9258 186.902 84.9258 186.235C84.875 184.764 84.6109 183.309 84.1417 181.914C83.6155 180.299 82.5491 178.915 81.1219 177.994ZM55.5122 161.596C55.4433 161.33 55.4729 161.049 55.5956 160.803C55.7183 160.558 55.9258 160.365 56.1796 160.261C56.712 160.058 57.2925 160.018 57.848 160.144C61.4287 160.59 64.8624 161.839 67.8929 163.797C70.9234 165.756 73.4723 168.373 75.3493 171.455C66.8239 167.551 61.6519 164.949 56.4632 162.346C56.0633 162.224 55.7239 161.956 55.5122 161.596Z" fill="#A55DA1"/>
<path d="M56.1763 160.26C55.9225 160.364 55.715 160.557 55.5923 160.802C55.4696 161.048 55.44 161.329 55.5089 161.595C55.7044 161.943 56.0182 162.209 56.3932 162.345C61.5819 164.948 66.7539 167.55 75.2793 171.454C73.4023 168.373 70.8534 165.755 67.8229 163.796C64.7924 161.838 61.3587 160.589 57.778 160.143C57.2438 160.03 56.6884 160.071 56.1763 160.26Z" fill="#A55DA1"/>
<path d="M100.694 169.419L100.811 169.519C100.529 172.8 100.726 176.104 101.394 179.328L101.161 179.528C103.113 181.831 105.032 184.116 106.933 186.418L110.27 184.149C113.023 186.385 115.843 188.553 118.729 190.622C121.615 192.691 124.568 194.676 127.571 196.561C129.573 197.812 131.609 199.03 133.661 200.214L133.811 204.135C135.782 204.037 137.758 204.165 139.7 204.518H140.234C140.471 204.118 140.782 203.767 141.152 203.484C141.976 202.925 142.89 202.513 143.855 202.266L156.067 198.329C159.237 196.894 162.357 195.426 165.61 194.325L165.327 193.541C165.51 189.538 167.162 185.784 168.28 181.947C170.342 174.748 170.606 167.152 169.047 159.827L166.478 160.16C164.15 153.41 161.288 146.855 157.919 140.559C156.453 137.676 154.692 134.954 152.664 132.435C150.706 130.016 148.217 128.081 145.39 126.78L147.742 122.192C140.787 124.323 133.56 125.435 126.287 125.495C132.193 119.473 135.196 111.182 136.931 102.941C137.655 98.5017 138.652 94.1115 139.917 89.7954C140.552 87.9102 141.397 86.1027 142.437 84.4071L142.153 84.2402C137.756 85.1086 133.638 87.0385 130.157 89.8621C129.888 89.3347 129.484 88.8883 128.986 88.5687C128.487 88.2492 127.913 88.068 127.321 88.0438C126.139 88.032 124.964 88.2296 123.851 88.6276C121.916 89.2115 119.997 89.7787 118.195 90.1791C113.002 90.1415 107.868 91.2822 103.18 93.5155C94.2038 99.6211 87.2632 108.346 81.4906 117.588C77.4031 124.261 73.8829 131.084 70.2792 137.94C68.811 140.709 67.3428 143.462 65.8079 146.181L68.2938 149.05C74.3581 157.092 79.1313 166.029 82.4416 175.541L85.7784 174.34C85.6783 174.073 85.5615 173.823 85.4614 173.556L89.1986 171.254L91.9514 168.869C93.4363 170.537 94.8878 172.205 96.3393 173.873L96.6896 173.573C98.0076 172.205 99.3423 170.787 100.694 169.419Z" fill="#A55DA1"/>
<path d="M82.4894 175.625L81.1213 177.994C82.4786 178.885 83.5047 180.198 84.041 181.731C84.5102 183.125 84.7743 184.581 84.8251 186.051H85.0921C86.3165 185.004 87.0977 183.532 87.2776 181.931C87.3944 181.287 87.4281 180.631 87.3777 179.979C87.1603 178.014 86.6368 176.094 85.8262 174.291L82.4894 175.492V175.625Z" fill="#A55DA1"/>
<path d="M85.5106 173.489C85.6107 173.756 85.7275 174.006 85.8276 174.273C86.6382 176.077 87.1617 177.996 87.3792 179.961C87.4295 180.614 87.3959 181.27 87.2791 181.913H87.7129C89.0684 181.456 90.3048 180.702 91.3323 179.706C92.3597 178.71 93.1523 177.498 93.6523 176.158C92.1508 174.49 90.6492 172.822 89.1977 171.153L85.5106 173.489Z" fill="#A55DA1"/>
<path d="M99.8726 190.022V190.272C101.891 190.489 103.91 190.806 105.912 191.223C104.377 189.054 102.675 186.835 100.907 184.55L100.723 184.7C101.065 186.519 100.764 188.4 99.8726 190.022Z" fill="#A55DA1"/>
<path d="M110.25 184.147L106.914 186.416L111.769 192.305L111.668 192.639C112.669 192.906 113.67 193.223 114.671 193.539L118.709 190.553C115.823 188.552 113.003 186.383 110.25 184.147Z" fill="#A55DA1"/>
<path d="M118.708 190.554L114.688 193.473C115.538 194.491 116.356 195.508 117.14 196.576L117.49 196.309C119.826 197.126 122.112 197.977 124.297 199.012L127.551 196.493C124.548 194.658 121.6 192.678 118.708 190.554Z" fill="#A55DA1"/>
<path d="M124.298 199.079C125.032 199.39 125.75 199.724 126.45 200.08C126.752 201.694 126.936 203.327 127.001 204.968C126.993 205.029 126.993 205.09 127.001 205.151L127.785 205.051C129.733 204.513 131.738 204.205 133.758 204.134L133.608 200.213C131.556 199.029 129.52 197.811 127.518 196.56L124.298 199.079Z" fill="#A55DA1"/>
<path d="M150.462 110.38C150.712 106.61 150.979 102.756 151.179 99.4199H151.313C149.552 93.2614 148.897 86.8396 149.378 80.4524C148.768 79.9525 148.209 79.3937 147.709 78.7842L147.459 79.0177C145.404 80.4469 143.695 82.3162 142.454 84.4895C141.414 86.158 140.563 87.9373 139.918 89.7944C138.653 94.1051 137.656 98.4897 136.931 102.923C135.263 111.164 132.193 119.455 126.287 125.477C133.561 125.457 140.793 124.384 147.759 122.291L145.407 126.879C148.234 128.18 150.723 130.115 152.681 132.534C154.709 135.053 156.471 137.775 157.936 140.658C161.305 146.955 164.167 153.509 166.495 160.26L169.064 159.926C168.205 155.864 166.802 151.936 164.894 148.248L164.693 147.881C158.296 136.088 153.52 123.485 150.495 110.413L150.462 110.38Z" fill="#A55DA1"/>
<path d="M164.693 147.849L164.894 148.216C166.802 151.904 168.205 155.832 169.065 159.894C170.623 167.231 170.354 174.839 168.28 182.047C167.163 185.884 165.511 189.638 165.327 193.642L165.611 194.426C166.162 194.225 166.712 194.059 167.279 193.892C168.188 193.615 169.132 193.469 170.082 193.458V193.174C173.372 192.454 176.572 191.375 179.625 189.955C182.298 183.459 183.495 176.45 183.129 169.436C182.829 162.096 181.644 154.756 181.728 147.432H181.628C179.325 149.431 176.395 150.559 173.346 150.62C170.298 150.681 167.324 149.671 164.944 147.766L164.693 147.849Z" fill="#D1D0D1"/>
<path d="M198.088 5.28338V4.93306C195.775 2.81188 192.783 1.58322 189.646 1.46707C186.51 1.35091 183.434 2.35486 180.971 4.29914L180.721 3.96549C178.368 4.10713 176.048 4.58463 173.83 5.38347C172.714 5.78039 171.693 6.40506 170.831 7.2178C169.969 8.03055 169.286 9.0136 168.825 10.1045C167.874 12.757 168.825 15.6597 169.643 18.3455L169.843 18.7125C172.331 17.3343 175.006 16.3229 177.784 15.7097C180.969 15.0366 184.259 15.0366 187.444 15.7097C190.601 16.3254 193.554 17.7188 196.036 19.7634L196.27 19.4799C196.441 18.2712 196.95 17.1354 197.738 16.2029C198.526 15.2704 199.561 14.5791 200.724 14.2083C201.072 14.0775 201.429 13.9716 201.792 13.8913L201.909 14.4585C202.71 14.7152 203.433 15.1694 204.011 15.7792C204.59 16.389 205.006 17.1348 205.22 17.9477C205.435 18.7605 205.441 19.6144 205.239 20.4303C205.036 21.2462 204.631 21.9979 204.061 22.6161L203.878 22.8663C205.349 23.9182 206.753 25.0603 208.082 26.2861L208.499 25.8357C210.453 23.7443 211.636 21.0491 211.851 18.195C212.066 15.3409 211.302 12.4988 209.684 10.1379C208.341 8.38941 206.565 7.02181 204.531 6.17038C202.497 5.31895 200.277 5.0132 198.088 5.28338Z" fill="#D1D0D1"/>
<path d="M170.113 193.173V193.457C171 193.446 171.86 193.761 172.532 194.341L173.5 194.474C174.584 194.608 175.669 194.791 176.836 195.008C177.964 193.441 178.931 191.764 179.723 190.003C176.646 191.411 173.423 192.474 170.113 193.173Z" fill="#D1D0D1"/>
<path d="M179.658 189.954C178.866 191.715 177.899 193.391 176.771 194.958C180.796 195.771 184.714 197.042 188.45 198.745L189.251 199.112C194.726 199.867 200.288 199.726 205.718 198.695L205.618 198.128C205.451 195.576 208.003 193.741 210.356 192.74C214.649 190.957 219.255 190.049 223.903 190.071V189.687C224.354 188.761 224.68 187.78 224.871 186.768C225.182 184.505 225.126 182.206 224.704 179.961V179.611L227.156 176.275C233.252 160.705 239.369 145.179 245.509 129.698L248.111 125.711C247.844 124.427 247.511 123.142 247.127 121.891C244.377 112.978 238.901 105.152 231.47 99.5142C224.038 93.8762 215.026 90.7102 205.701 90.4618L204.967 90.1782C203.555 93.7307 201.706 97.0931 199.461 100.187L199.962 100.538C202.666 111.855 206.173 122.966 210.456 133.785C206.986 133.568 203.949 131.533 200.863 129.932C197.776 128.33 194.072 127.112 190.852 128.597C188.917 129.712 187.297 131.303 186.148 133.218L183.929 134.386C185.287 135.672 186.563 137.043 187.749 138.49C185.42 139.78 183.399 141.561 181.827 143.711C181.743 144.912 181.693 146.097 181.693 147.298C181.61 154.621 182.794 161.961 183.095 169.301C183.501 176.356 182.327 183.412 179.658 189.954Z" fill="#A55DA1"/>
<path d="M182.611 133.267C183.079 133.668 183.546 134.102 183.996 134.519L186.215 133.351C187.365 131.435 188.984 129.845 190.92 128.73C194.073 127.245 197.794 128.463 200.93 130.064C204.067 131.666 207.053 133.701 210.523 133.918C206.224 123.1 202.7 111.989 199.979 100.671L199.479 100.32C199.329 100.554 199.178 100.771 199.012 100.988C195.461 105.672 191.556 110.078 187.333 114.166C187.456 120.837 185.828 127.422 182.611 133.267Z" fill="#A55DA1"/>
<path d="M196.239 19.4815L196.006 19.7651C196.191 19.9061 196.369 20.0565 196.54 20.2155L198.692 19.4481C200.467 20.4696 202.188 21.5832 203.847 22.7845L204.031 22.5343C204.6 21.9161 205.005 21.1644 205.208 20.3485C205.411 19.5326 205.404 18.6788 205.19 17.8659C204.975 17.053 204.56 16.3072 203.981 15.6974C203.402 15.0876 202.679 14.6334 201.878 14.3768L201.762 13.8096C201.399 13.8898 201.042 13.9958 200.694 14.1265C199.519 14.5034 198.476 15.2074 197.687 16.1558C196.898 17.1042 196.396 18.2578 196.239 19.4815Z" fill="#D1D0D1"/>
<path d="M246.011 216.446C246.775 216.313 247.496 215.998 248.113 215.529C249.291 214.616 250.14 213.346 250.532 211.909C251.039 209.713 251.039 207.431 250.532 205.236C250.204 202.589 249.28 200.051 247.83 197.812C245.427 194.476 241.323 192.924 237.352 191.873C234.02 191 230.612 190.441 227.175 190.205C226.074 190.205 224.973 190.088 223.838 190.105C219.19 190.084 214.584 190.991 210.291 192.774C207.939 193.775 205.386 195.61 205.553 198.163L205.653 198.73C207.64 198.358 209.606 197.879 211.542 197.295V197.128C216.351 197.633 221.016 199.073 225.273 201.366C229.778 204.051 233.365 208.839 233.515 213.944C233.551 214.652 233.512 215.362 233.398 216.062L233.298 218.114C233.782 218.114 234.266 218.114 234.749 218.114C238.56 218.05 242.346 217.489 246.011 216.446Z" fill="#A55DA1"/>
<path d="M224.102 213.593V214.21C226.625 216.554 229.889 217.941 233.328 218.131L233.345 216.079C233.459 215.379 233.498 214.669 233.462 213.96H233.078C230.125 213.91 227.122 213.693 224.102 213.593Z" fill="#A55DA1"/>
<path d="M275.292 171.155L275.393 171.055C273.991 164.866 267.051 161.763 263.564 156.458C260.878 152.354 260.461 147.216 259.276 142.462C257.233 134.609 253.052 127.477 247.197 121.859L246.93 121.943C247.314 123.194 247.647 124.478 247.914 125.763L245.312 129.75C239.205 145.32 233.088 160.845 226.959 176.326L224.507 179.663V180.013C226.534 182.368 228.823 184.484 231.331 186.319L231.564 186.719C236.867 183.649 242.86 181.971 248.986 181.839C255.111 181.708 261.171 183.129 266.6 185.969H269.186C269.548 184.586 269.994 183.227 270.521 181.898C273.958 181.681 277.361 181.465 280.748 181.281V180.964C280.036 177.191 278.122 173.75 275.292 171.155ZM239.906 177.461L238.238 176.41C238.841 170.654 240.704 165.101 243.693 160.145C244.468 158.63 245.617 157.339 247.03 156.391C247.753 155.942 248.598 155.729 249.447 155.783C250.297 155.837 251.108 156.155 251.768 156.692C252.317 157.329 252.664 158.114 252.765 158.949C252.866 159.784 252.717 160.63 252.336 161.379C251.546 162.862 250.501 164.195 249.249 165.316C245.694 169.005 242.56 173.079 239.906 177.461Z" fill="#A55DA1"/>
<path d="M227.152 189.804V190.221C230.589 190.457 233.997 191.016 237.329 191.89C241.3 192.941 245.404 194.509 247.807 197.828C249.257 200.067 250.181 202.605 250.509 205.252C251.016 207.447 251.016 209.729 250.509 211.925C250.117 213.362 249.268 214.632 248.09 215.545V215.628C252.933 215.203 257.619 213.698 261.804 211.224H262.321C262.235 210.296 262.337 209.359 262.622 208.472C263.513 206.206 265.007 204.227 266.943 202.75C268.168 202.707 269.395 202.752 270.613 202.883C268.06 197.624 267.584 191.596 269.279 186.001H266.693C261.263 183.161 255.204 181.74 249.078 181.872C242.952 182.003 236.959 183.682 231.657 186.752C230.077 187.648 228.57 188.669 227.152 189.804Z" fill="#A55DA1"/>
<path d="M238.233 176.407L239.902 177.458C242.572 173.073 245.722 169 249.295 165.313C250.546 164.192 251.591 162.859 252.381 161.376C252.762 160.627 252.912 159.781 252.811 158.946C252.71 158.111 252.363 157.326 251.814 156.689C251.154 156.152 250.342 155.834 249.493 155.78C248.643 155.726 247.798 155.939 247.076 156.388C245.663 157.336 244.514 158.627 243.739 160.142C240.732 165.094 238.852 170.647 238.233 176.407Z" fill="#A55DA1"/>
<path d="M207.918 13.726C205.868 13.4551 203.787 13.5284 201.762 13.9429C201.399 14.0232 201.042 14.1291 200.694 14.2599C199.531 14.6306 198.496 15.322 197.708 16.2544C196.92 17.1869 196.411 18.3227 196.239 19.5314" stroke="#1D1D1B" stroke-width="0.5" stroke-linecap="round" stroke-linejoin="round"/>
<path d="M201.878 14.4575C202.679 14.7142 203.402 15.1684 203.981 15.7782C204.56 16.388 204.975 17.1338 205.19 17.9466C205.404 18.7595 205.411 19.6133 205.208 20.4293C205.005 21.2452 204.6 21.9969 204.031 22.6151" stroke="#1D1D1B" stroke-width="0.5" stroke-linecap="round" stroke-linejoin="round"/>
<path d="M207.623 15.5435C208.059 16.2018 208.348 16.9468 208.469 17.7271C208.59 18.5075 208.54 19.3048 208.324 20.0643C208.086 20.8079 207.69 21.4912 207.163 22.0671C206.636 22.6431 205.99 23.0981 205.271 23.4007" stroke="#1D1D1B" stroke-width="0.5" stroke-linecap="round" stroke-linejoin="round"/>
<path d="M191.752 5.16553C190.683 5.44531 189.693 5.96945 188.861 6.69669C188.029 7.42393 187.377 8.33441 186.956 9.35644C186.536 10.3785 186.358 11.4842 186.438 12.5864C186.517 13.6887 186.851 14.7575 187.414 15.7086V15.8254" stroke="#1D1D1B" stroke-width="0.5" stroke-linecap="round" stroke-linejoin="round"/>
<path d="M184.711 3.93066C183.966 4.64503 183.392 5.51914 183.034 6.48715C182.676 7.45517 182.542 8.49186 182.642 9.51917" stroke="#1D1D1B" stroke-width="0.5" stroke-linecap="round" stroke-linejoin="round"/>
<path d="M179.323 7.83496C178.831 9.00819 178.673 10.2948 178.867 11.5521C179.062 12.8094 179.6 13.9883 180.424 14.9582" stroke="#1D1D1B" stroke-width="0.5" stroke-linecap="round" stroke-linejoin="round"/>
<path d="M174.385 16.261C173.615 15.8622 172.971 15.256 172.527 14.5108C172.082 13.7657 171.855 12.9112 171.871 12.0438C171.886 11.1765 172.144 10.3307 172.615 9.60204C173.086 8.87335 173.751 8.29074 174.535 7.91992" stroke="#1D1D1B" stroke-width="0.5" stroke-linecap="round" stroke-linejoin="round"/>
<path d="M374.557 109.195C365.197 107.877 364.913 107.794 355.57 106.376C355.563 106.343 355.563 106.309 355.57 106.276" stroke="#1D1D1B" stroke-linecap="round" stroke-linejoin="round"/>
<path d="M355.303 106.142C329.793 110.612 304.45 115.917 279.625 122.323C279.375 122.623 279.239 123.001 279.239 123.391C279.239 123.781 279.375 124.159 279.625 124.459C280.025 125.008 280.624 125.379 281.293 125.493H281.56C282.464 125.504 283.356 125.703 284.18 126.077C285.135 126.807 285.934 127.723 286.527 128.769C287.121 129.815 287.497 130.971 287.633 132.166C287.839 135.002 286.922 137.806 285.081 139.973C284.296 140.092 283.529 140.305 282.795 140.607C282.636 140.678 282.49 140.774 282.361 140.89C282.111 141.135 281.927 141.439 281.827 141.775C281.577 142.649 281.648 143.584 282.027 144.41" stroke="#1D1D1B" stroke-linecap="round" stroke-linejoin="round"/>
<path d="M277.109 145.813C302.952 140.808 328.829 136.454 354.939 132.984C364.866 132.867 361.129 132.283 371.039 132.984" stroke="#1D1D1B" stroke-linecap="round" stroke-linejoin="round"/>
<path d="M371.039 134.838C355.807 134.704 348.549 135.155 333.35 136.106" stroke="#1D1D1B" stroke-linecap="round" stroke-linejoin="round"/>
<path d="M277.355 163.663L277.622 164.047C282.961 163.596 288.333 163.162 293.705 162.779C310.773 161.511 327.974 160.543 345.058 159.876C349.162 159.709 353.25 159.576 357.321 159.442H370.15" stroke="#1D1D1B" stroke-linecap="round" stroke-linejoin="round"/>
<path d="M277.406 163.863C277.406 163.863 277.406 163.863 277.406 163.764" stroke="#1D1D1B" stroke-linecap="round" stroke-linejoin="round"/>
<path d="M277.106 146.081C277.13 146.861 277.34 147.625 277.721 148.307C278.101 148.99 278.64 149.571 279.292 150.001C281.06 152.503 280.86 157.341 278.908 160.377C278.787 160.352 278.662 160.352 278.541 160.377C277.473 160.727 277.29 162.462 277.357 163.563" stroke="#1D1D1B" stroke-linecap="round" stroke-linejoin="round"/>
<path d="M293.76 163.379C290.423 167.666 290.423 175.59 293.026 180.395" stroke="#1D1D1B" stroke-linecap="round" stroke-linejoin="round"/>
<path d="M323.154 164.197C321.506 165.69 320.447 167.723 320.169 169.93C319.89 172.136 320.411 174.369 321.636 176.225" stroke="#1D1D1B" stroke-linecap="round" stroke-linejoin="round"/>
<path d="M372.154 179.327C358.891 179.16 346.094 179.177 333.414 179.327C319.967 179.544 306.637 179.978 293.04 180.628C289.036 180.817 284.998 181.029 280.927 181.262C277.59 181.446 274.137 181.662 270.7 181.879" stroke="#1D1D1B" stroke-linecap="round" stroke-linejoin="round"/>
<path d="M345.342 183.264C345.271 183.381 345.209 183.504 345.158 183.631C342.555 188.635 342.989 198.278 345.559 203.165" stroke="#1D1D1B" stroke-linecap="round" stroke-linejoin="round"/>
<path d="M270.699 181.929C270.172 183.258 269.726 184.617 269.365 186C267.67 191.595 268.147 197.623 270.699 202.882C295.892 205.084 322.252 206.302 347.545 206.368" stroke="#1D1D1B" stroke-linecap="round" stroke-linejoin="round"/>
<path d="M373.777 201.782C372.676 201.932 371.592 202.116 370.441 202.283C365.018 203.184 359.713 204.318 354.341 205.285C352.188 205.669 350.02 206.036 347.834 206.353" stroke="#1D1D1B" stroke-linecap="round" stroke-linejoin="round"/>
<path d="M271.718 202.984H270.634C269.415 202.852 268.188 202.807 266.963 202.85C265.028 204.328 263.534 206.306 262.642 208.572C262.303 209.599 262.219 210.692 262.396 211.759C262.573 212.825 263.007 213.833 263.66 214.694C263.991 215.147 264.365 215.566 264.778 215.946L349.865 220.583" stroke="#1D1D1B" stroke-linecap="round" stroke-linejoin="round"/>
<path d="M349.665 208.556L349.582 208.673C349.169 209.301 348.897 210.011 348.785 210.754C348.672 211.497 348.722 212.255 348.931 212.977C349.212 214.748 349.722 216.475 350.449 218.115" stroke="#1D1D1B" stroke-linecap="round" stroke-linejoin="round"/>
<path d="M374.557 215.344C368.417 216.712 362.227 217.897 356.054 219.181C354.002 219.598 351.95 220.049 349.898 220.499" stroke="#1D1D1B" stroke-linecap="round" stroke-linejoin="round"/>
<path d="M351.799 224.052C348.462 230.892 348.846 240.517 351.799 247.557" stroke="#1D1D1B" stroke-linecap="round" stroke-linejoin="round"/>
<path d="M345.673 183.882C347.275 190.032 347.475 196.463 346.257 202.7" stroke="#1D1D1B" stroke-width="0.5" stroke-linecap="round" stroke-linejoin="round"/>
<path d="M349.831 208.905C351.058 211.711 351.562 214.779 351.299 217.83" stroke="#1D1D1B" stroke-width="0.5" stroke-linecap="round" stroke-linejoin="round"/>
<path d="M352.068 223.917V224.034C352.502 231.597 352.641 239.159 352.485 246.722" stroke="#1D1D1B" stroke-width="0.5" stroke-linecap="round" stroke-linejoin="round"/>
<path d="M263.294 214.628C259.183 215.283 255.144 216.328 251.231 217.748C250.428 221.331 250.175 225.015 250.48 228.674C250.48 229.558 250.647 230.476 250.781 231.377C251.295 234.683 252.208 237.915 253.5 241.002C286.1 243.872 318.667 247.392 351.151 251.362C359.158 248.319 366.683 244.133 373.49 238.934" stroke="#1D1D1B" stroke-linecap="round" stroke-linejoin="round"/>
<path d="M205.698 90.4639C214.988 90.7535 223.956 93.9384 231.347 99.5734C238.739 105.208 244.185 113.012 246.924 121.893C247.308 123.144 247.641 124.429 247.908 125.713" stroke="#1D1D1B" stroke-linecap="round" stroke-linejoin="round"/>
<path d="M247.193 121.859C253.048 127.477 257.229 134.609 259.272 142.462C260.457 147.216 260.94 152.354 263.56 156.458C267.047 161.763 273.987 164.799 275.389 171.055" stroke="#1D1D1B" stroke-linecap="round" stroke-linejoin="round"/>
<path d="M271.933 168.869C273.136 169.503 274.257 170.282 275.27 171.188C278.168 173.768 280.142 177.224 280.893 181.03" stroke="#1D1D1B" stroke-linecap="round" stroke-linejoin="round"/>
<path d="M245.309 129.749C239.202 145.319 233.085 160.844 226.956 176.325" stroke="#1D1D1B" stroke-linecap="round" stroke-linejoin="round"/>
<path d="M235.213 112.25C231.042 122.26 230.658 133.22 230.091 143.946C229.524 154.673 228.606 165.817 223.584 175.342" stroke="#1D1D1B" stroke-linecap="round" stroke-linejoin="round"/>
<path d="M219.998 111.615C219.258 130.729 219.67 149.87 221.232 168.934" stroke="#1D1D1B" stroke-linecap="round" stroke-linejoin="round"/>
<path d="M212.84 96.1167C215.705 114.075 217.267 132.217 217.512 150.4" stroke="#1D1D1B" stroke-linecap="round" stroke-linejoin="round"/>
<path d="M237.149 182.482C238 180.814 238.917 179.146 239.902 177.477C242.572 173.093 245.722 169.019 249.295 165.333C250.546 164.212 251.591 162.879 252.381 161.396C252.762 160.646 252.912 159.8 252.811 158.966C252.71 158.131 252.363 157.345 251.814 156.708C251.154 156.171 250.342 155.854 249.493 155.8C248.643 155.746 247.798 155.958 247.076 156.408C245.663 157.355 244.514 158.647 243.739 160.161C240.749 165.117 238.887 170.67 238.283 176.426" stroke="#1D1D1B" stroke-linecap="round" stroke-linejoin="round"/>
<path d="M266.264 172.387C262.478 172.019 258.658 172.479 255.069 173.735C251.479 174.991 248.205 177.013 245.476 179.661" stroke="#1D1D1B" stroke-linecap="round" stroke-linejoin="round"/>
<path d="M267.947 179.927C261.601 178.469 254.956 179.053 248.961 181.596" stroke="#1D1D1B" stroke-linecap="round" stroke-linejoin="round"/>
<path d="M266.715 185.967C261.286 183.127 255.226 181.706 249.1 181.837C242.974 181.969 236.981 183.647 231.679 186.717C230.092 187.624 228.58 188.656 227.158 189.804" stroke="#1D1D1B" stroke-linecap="round" stroke-linejoin="round"/>
<path d="M224.403 179.778C224.466 179.863 224.539 179.942 224.62 180.011C226.647 182.366 228.936 184.482 231.443 186.317" stroke="#1D1D1B" stroke-linecap="round" stroke-linejoin="round"/>
<path d="M205.533 198.178C205.366 195.626 207.919 193.791 210.271 192.79C214.564 191.007 219.17 190.099 223.819 190.12C224.937 190.12 226.038 190.12 227.155 190.221C230.593 190.456 234 191.015 237.333 191.889C241.303 192.94 245.408 194.508 247.81 197.828C249.26 200.066 250.184 202.604 250.513 205.251C251.019 207.447 251.019 209.729 250.513 211.924C250.12 213.361 249.271 214.631 248.094 215.544C247.476 216.013 246.755 216.328 245.991 216.462" stroke="#1D1D1B" stroke-linecap="round" stroke-linejoin="round"/>
<path d="M208.236 196.646C209.337 196.796 210.455 196.962 211.573 197.146C216.382 197.651 221.046 199.09 225.304 201.383C229.808 204.069 233.395 208.857 233.546 213.962C233.582 214.67 233.543 215.38 233.429 216.08" stroke="#1D1D1B" stroke-linecap="round" stroke-linejoin="round"/>
<path d="M261.895 211.272C257.71 213.746 253.024 215.251 248.18 215.676" stroke="#1D1D1B" stroke-linecap="round" stroke-linejoin="round"/>
<path d="M246.273 216.379H246.006C242.346 217.42 238.566 217.981 234.762 218.047C234.278 218.047 233.794 218.047 233.31 218.047C229.871 217.857 226.607 216.47 224.084 214.126" stroke="#1D1D1B" stroke-linecap="round" stroke-linejoin="round"/>
<path d="M233.143 213.909C230.123 213.759 227.12 213.625 224.1 213.525C221.481 213.425 218.878 213.359 216.275 213.325C210.469 213.192 204.68 213.158 198.874 213.225C193.669 213.225 188.096 213.309 183.542 210.973C182.915 210.656 182.313 210.294 181.74 209.889" stroke="#1D1D1B" stroke-linecap="round" stroke-linejoin="round"/>
<path d="M211.523 197.311C209.588 197.895 207.622 198.374 205.634 198.746C200.204 199.777 194.642 199.917 189.167 199.163L188.366 198.796C184.631 197.092 180.712 195.822 176.688 195.009C175.57 194.792 174.485 194.609 173.351 194.475L172.383 194.342C171.712 193.762 170.851 193.448 169.964 193.458C169.014 193.469 168.07 193.615 167.161 193.891C166.594 194.058 166.043 194.225 165.493 194.425C162.156 195.526 159.12 196.994 155.95 198.429L155.583 198.596C152.356 201.66 148.879 204.45 145.189 206.937L143.103 208.321C143.261 209.041 143.653 209.689 144.217 210.162C144.781 210.636 145.487 210.91 146.223 210.941C147.704 210.949 149.161 210.564 150.444 209.823C154.395 207.731 158.163 205.309 161.706 202.583" stroke="#1D1D1B" stroke-linecap="round" stroke-linejoin="round"/>
<path d="M173.137 197.029C172.015 196.929 170.885 197.078 169.827 197.464C168.769 197.85 167.808 198.465 167.014 199.264L162.21 203.034C158.139 206.254 154.085 209.49 150.097 212.91C150.496 213.449 151.021 213.883 151.625 214.174C152.23 214.465 152.897 214.604 153.567 214.578C154.91 214.503 156.222 214.151 157.421 213.544C158.222 213.177 159.09 212.793 159.79 212.359C161.657 211.364 163.457 210.25 165.179 209.023C167.649 207.355 170.034 205.32 172.453 203.368C173.845 202.887 175.291 202.579 176.758 202.45" stroke="#1D1D1B" stroke-linecap="round" stroke-linejoin="round"/>
<path d="M187.164 201.449C185.185 200.364 182.879 200.032 180.674 200.515" stroke="#1D1D1B" stroke-linecap="round" stroke-linejoin="round"/>
<path d="M178.756 201.332C178.272 201.849 177.788 202.366 177.271 202.883C174.935 205.341 172.488 207.687 169.93 209.923C168.445 211.257 166.91 212.542 165.359 213.793" stroke="#1D1D1B" stroke-linecap="round" stroke-linejoin="round"/>
<path d="M186.283 207.238C184.782 207.238 183.263 207.238 181.912 207.238C180.627 208.256 179.309 209.29 177.958 210.274C175.088 212.509 171.788 214.127 168.265 215.029C167.653 215.195 167.008 215.195 166.396 215.029C166.107 214.949 165.848 214.784 165.655 214.555C165.461 214.325 165.341 214.043 165.312 213.744V213.661" stroke="#1D1D1B" stroke-linecap="round" stroke-linejoin="round"/>
<path d="M183.393 211.34C181.577 211.574 179.733 211.272 178.087 210.473" stroke="#1D1D1B" stroke-linecap="round" stroke-linejoin="round"/>
<path d="M169.762 209.739C168.287 209.822 166.809 209.687 165.374 209.338" stroke="#1D1D1B" stroke-linecap="round" stroke-linejoin="round"/>
<path d="M145.056 206.553C143.317 207.017 141.469 206.839 139.851 206.053C139.81 205.526 139.939 205 140.218 204.551C140.454 204.151 140.766 203.8 141.135 203.517C141.959 202.958 142.874 202.546 143.838 202.299L156.051 198.362" stroke="#1D1D1B" stroke-linecap="round" stroke-linejoin="round"/>
<path d="M199.977 100.672C202.681 111.989 206.188 123.1 210.471 133.919C207 133.702 203.964 131.667 200.878 130.066C197.791 128.464 194.087 127.246 190.867 128.731C188.931 129.846 187.312 131.437 186.162 133.352" stroke="#1D1D1B" stroke-linecap="round" stroke-linejoin="round"/>
<path d="M191.235 111.281C191.469 115.93 191.691 120.584 191.902 125.244" stroke="#1D1D1B" stroke-linecap="round" stroke-linejoin="round"/>
<path d="M187.327 114.2C187.444 120.859 185.816 127.432 182.605 133.267C183.072 133.668 183.54 134.101 183.99 134.519C185.349 135.805 186.625 137.175 187.811 138.622C185.481 139.912 183.46 141.694 181.888 143.844C181.804 145.045 181.754 146.229 181.754 147.43C181.671 154.754 182.855 162.094 183.156 169.434C183.521 176.449 182.325 183.457 179.652 189.953C178.86 191.714 177.893 193.391 176.766 194.958" stroke="#1D1D1B" stroke-linecap="round" stroke-linejoin="round"/>
<path d="M181.176 185.251C177.638 186.963 174.012 188.489 170.315 189.822" stroke="#1D1D1B" stroke-linecap="round" stroke-linejoin="round"/>
<path d="M179.854 189.855L179.653 189.955C176.6 191.375 173.4 192.455 170.11 193.175" stroke="#1D1D1B" stroke-linecap="round" stroke-linejoin="round"/>
<path d="M165.34 193.642C165.524 189.638 167.176 185.884 168.294 182.048C170.356 174.848 170.619 167.252 169.061 159.927C168.201 155.865 166.798 151.937 164.89 148.25L164.69 147.883C158.292 136.089 153.517 123.486 150.492 110.415" stroke="#1D1D1B" stroke-linecap="round" stroke-linejoin="round"/>
<path d="M149.924 117.855C150.074 115.536 150.241 112.984 150.408 110.382C150.658 106.611 150.925 102.758 151.125 99.4214" stroke="#1D1D1B" stroke-linecap="round" stroke-linejoin="round"/>
<path d="M166.49 160.261C164.162 153.51 161.3 146.956 157.931 140.659C156.466 137.777 154.704 135.054 152.676 132.535C150.718 130.116 148.229 128.181 145.402 126.88L147.754 122.292C140.789 124.391 133.557 125.47 126.282 125.495C132.188 119.473 135.191 111.182 136.927 102.941C137.65 98.502 138.648 94.1118 139.913 89.7956C140.547 87.9105 141.392 86.1029 142.432 84.4073C143.673 82.234 145.383 80.3648 147.437 78.9355" stroke="#1D1D1B" stroke-linecap="round" stroke-linejoin="round"/>
<path d="M142.15 84.2402C137.753 85.1086 133.635 87.0385 130.155 89.8621C129.886 89.3347 129.481 88.8883 128.983 88.5687C128.485 88.2492 127.91 88.068 127.319 88.0438C126.136 88.032 124.961 88.2296 123.848 88.6276C121.913 89.2115 119.994 89.7787 118.192 90.1791C112.999 90.1415 107.865 91.2822 103.177 93.5155C94.2012 99.6211 87.2606 108.346 81.488 117.588C77.4005 124.261 73.8803 131.084 70.2766 137.94C68.8084 140.709 67.3402 143.462 65.8053 146.181" stroke="#1D1D1B" stroke-linecap="round" stroke-linejoin="round"/>
<path d="M108.498 127.713C109.672 140.835 108.04 154.056 103.709 166.499" stroke="#1D1D1B" stroke-linecap="round" stroke-linejoin="round"/>
<path d="M104.881 106.245C101.091 125.462 99.6231 145.065 100.51 164.632" stroke="#1D1D1B" stroke-linecap="round" stroke-linejoin="round"/>
<path d="M83.8765 129.047C82.6277 142.709 82.7228 156.459 84.1602 170.102" stroke="#1D1D1B" stroke-linecap="round" stroke-linejoin="round"/>
<path d="M68.3044 149.067C74.3613 157.104 79.1288 166.036 82.4355 175.541V175.692" stroke="#1D1D1B" stroke-linecap="round" stroke-linejoin="round"/>
<path d="M75.2793 171.453C73.4023 168.372 70.8534 165.754 67.8229 163.796C64.7924 161.837 61.3587 160.589 57.778 160.143C57.2225 160.016 56.642 160.057 56.1096 160.26C55.8558 160.364 55.6483 160.556 55.5256 160.802C55.4029 161.047 55.3733 161.329 55.4422 161.594C55.6377 161.942 55.9515 162.209 56.3265 162.345C61.4985 164.947 66.7539 167.55 75.2793 171.453Z" stroke="#1D1D1B" stroke-linecap="round" stroke-linejoin="round"/>
<path d="M85.5092 173.489C85.6093 173.756 85.7261 174.006 85.8262 174.273C86.6368 176.077 87.1603 177.996 87.3777 179.961C87.4281 180.614 87.3944 181.27 87.2776 181.913C87.0977 183.514 86.3165 184.987 85.0921 186.034" stroke="#1D1D1B" stroke-linecap="round" stroke-linejoin="round"/>
<path d="M84.8574 188.054C84.8574 187.387 84.8574 186.719 84.8574 186.052C84.8066 184.581 84.5425 183.126 84.0733 181.731C83.537 180.199 82.511 178.886 81.1537 177.995C80.7056 177.717 80.2153 177.514 79.7021 177.394" stroke="#1D1D1B" stroke-linecap="round" stroke-linejoin="round"/>
<path d="M82.0859 187.402C80.007 186.238 77.6499 185.664 75.2686 185.74C72.8874 185.817 70.572 186.541 68.572 187.836C64.668 190.605 61.8985 194.692 59.3959 198.729C58.0111 200.898 56.6097 203.55 57.7275 205.902C58.2978 206.83 59.0984 207.594 60.0515 208.12C61.0046 208.646 62.0778 208.917 63.1665 208.905C63.3663 208.922 63.5672 208.922 63.767 208.905" stroke="#1D1D1B" stroke-linecap="round" stroke-linejoin="round"/>
<path d="M74.3105 175.959C71.4222 174.84 68.3301 174.344 65.2366 174.502C62.1431 174.66 59.1178 175.47 56.3587 176.877C53.5995 178.285 51.1687 180.259 49.2253 182.671C47.2818 185.083 45.8694 187.878 45.0805 190.873" stroke="#1D1D1B" stroke-linecap="round" stroke-linejoin="round"/>
<path d="M63.1699 209.023C59.3326 209.573 53.3264 209.557 50.8239 206.587C49.3669 204.808 48.1807 202.824 47.3036 200.699C46.6363 199.247 46.069 197.763 45.5184 196.278" stroke="#1D1D1B" stroke-linecap="round" stroke-linejoin="round"/>
<path d="M47.0225 200.848C45.1773 199.976 43.5325 198.731 42.1917 197.192C40.8508 195.653 39.8429 193.854 39.2312 191.907C38.6134 189.084 38.5116 186.174 38.9308 183.315C39.1556 178.815 39.8093 174.346 40.8828 169.97C42.4873 164.698 44.9998 159.747 48.3071 155.339C53.8629 147.632 61.2203 140.876 70.2129 137.823" stroke="#1D1D1B" stroke-linecap="round" stroke-linejoin="round"/>
<path d="M62.5352 171.354C59.4351 170.232 56.0691 170.069 52.8753 170.887C49.7137 171.693 46.6399 172.81 43.6992 174.223" stroke="#1D1D1B" stroke-linecap="round" stroke-linejoin="round"/>
<path d="M111.785 192.307L106.93 186.418C105.028 184.116 103.11 181.83 101.158 179.528C99.5781 177.626 97.9709 175.73 96.3359 173.84C94.8844 172.171 93.4329 170.503 91.9481 168.835L89.2453 171.204C90.6968 172.872 92.1983 174.54 93.6999 176.208C96.119 178.928 98.5716 181.797 100.874 184.666C102.659 186.885 104.361 189.104 105.879 191.339L106.046 191.573" stroke="#1D1D1B" stroke-linecap="round" stroke-linejoin="round"/>
<path d="M99.8742 190.271C101.893 190.488 103.912 190.805 105.914 191.222C107.916 191.639 109.768 192.073 111.686 192.64C112.687 192.907 113.688 193.224 114.689 193.541C115.54 194.558 116.358 195.576 117.142 196.644C120.229 200.799 122.922 205.233 125.184 209.889C124.924 210.229 124.598 210.513 124.225 210.722C123.852 210.932 123.44 211.063 123.015 211.107C122.971 211.115 122.925 211.115 122.881 211.107C122.036 211.131 121.213 210.833 120.579 210.273C121.691 211.437 122.717 212.68 123.649 213.993C123.446 214.763 122.975 215.435 122.32 215.887C121.665 216.34 120.87 216.544 120.078 216.462C119.263 216.413 118.465 216.209 117.726 215.861C117.022 215.545 116.337 215.189 115.674 214.794C109.728 211.424 103.601 208.384 97.3216 205.685" stroke="#1D1D1B" stroke-linecap="round" stroke-linejoin="round"/>
<path d="M118.225 207.638C115.787 205.789 113.59 203.643 111.685 201.249C108.406 200.754 105.179 199.967 102.041 198.896C107.497 201.966 112.953 205.086 118.225 207.638Z" stroke="#1D1D1B" stroke-linecap="round" stroke-linejoin="round"/>
<path d="M117.493 196.377C119.829 197.195 122.114 198.046 124.3 199.08C125.034 199.391 125.751 199.725 126.452 200.081C126.753 201.695 126.937 203.328 127.003 204.969C126.995 205.03 126.995 205.091 127.003 205.152C127.167 206.796 127.798 208.359 128.821 209.656C128.86 209.973 128.814 210.294 128.688 210.587C128.562 210.881 128.36 211.135 128.104 211.325C127.587 211.692 126.869 211.758 125.685 210.774C127.854 213.51 130.039 216.262 132.008 219.115C128.871 216.746 125.835 214.244 122.882 211.642" stroke="#1D1D1B" stroke-linecap="round" stroke-linejoin="round"/>
<path d="M117.447 216.48C117.199 217.121 116.783 217.684 116.243 218.109C115.703 218.535 115.059 218.807 114.377 218.899C113.008 219.06 111.62 218.9 110.323 218.431C109.456 218.165 108.605 217.864 107.771 217.531C104.134 216.096 100.697 214.194 97.093 212.609" stroke="#1D1D1B" stroke-linecap="round" stroke-linejoin="round"/>
<path d="M107.647 217.83C107.683 218.149 107.632 218.473 107.499 218.766C107.367 219.059 107.159 219.312 106.897 219.498C106.364 219.869 105.753 220.114 105.111 220.215C104.08 220.436 103.03 220.559 101.975 220.582C98.9497 220.689 95.9438 220.059 93.2159 218.747C91.8496 218.1 90.5712 217.282 89.4119 216.312" stroke="#1D1D1B" stroke-linecap="round" stroke-linejoin="round"/>
<path d="M99.4746 190.337C98.7443 190.476 98.0504 190.765 97.4362 191.184C96.822 191.603 96.3006 192.143 95.9043 192.773C95.4556 193.402 95.1275 194.109 94.9366 194.858C94.1691 195.842 92.8345 196.176 91.9836 197.06C91.2661 197.878 90.8951 198.943 90.9492 200.029C90.9492 201.097 91.2328 202.148 91.2328 203.199C90.426 203.655 89.7934 204.366 89.4341 205.22C89.0748 206.075 89.0092 207.024 89.2474 207.92C89.7617 208.89 90.0899 209.948 90.2151 211.039C90.0936 211.621 89.8914 212.182 89.6144 212.708C89.397 213.115 89.213 213.539 89.0639 213.975L88.9638 214.409C88.9092 214.699 88.9151 214.996 88.9811 215.283C89.0472 215.571 89.1719 215.841 89.3475 216.077" stroke="#1D1D1B" stroke-linecap="round" stroke-linejoin="round"/>
<path d="M82.3223 187.818C83.023 188.202 83.7572 188.552 84.4746 188.903C88.0163 190.567 91.7475 191.794 95.5859 192.556" stroke="#1D1D1B" stroke-linecap="round" stroke-linejoin="round"/>
<path d="M69.8438 209.939C67.825 209.588 65.8062 209.255 63.7708 208.954L62.7364 208.804" stroke="#1D1D1B" stroke-linecap="round" stroke-linejoin="round"/>
<path d="M88.293 213.726C82.2201 212.258 76.1027 210.996 69.9408 209.939" stroke="#1D1D1B" stroke-linecap="round" stroke-linejoin="round"/>
<path d="M373.49 111.899C364.181 110.631 364.731 110.715 355.956 109.314L355.238 109.197C331.18 114.035 305.187 119.84 281.262 125.328" stroke="#1D1D1B" stroke-linecap="round" stroke-linejoin="round"/>
<path d="M355.922 109.747C359.253 115.595 360.35 122.453 359.009 129.048" stroke="#1D1D1B" stroke-width="0.5" stroke-linecap="round" stroke-linejoin="round"/>
<path d="M372.154 129.482C363.512 128.748 367.149 129.231 359.007 129.381H358.774C333.248 132.584 307.833 136.477 282.529 141.059" stroke="#1D1D1B" stroke-linecap="round" stroke-linejoin="round"/>
<path d="M370.15 137.906C336.065 138.29 312.191 142.043 278.84 149.083" stroke="#1D1D1B" stroke-linecap="round" stroke-linejoin="round"/>
<path d="M370.15 156.374C335.114 156.674 313.342 156.774 278.389 160.461" stroke="#1D1D1B" stroke-linecap="round" stroke-linejoin="round"/>
<path d="M370.15 162.58C359.523 162.313 352.432 162.313 345.125 162.58C338.918 162.847 332.528 163.331 323.653 164.098H323.102" stroke="#1D1D1B" stroke-linecap="round" stroke-linejoin="round"/>
<path d="M372.154 175.756C356.972 175.756 346.561 176.474 333.398 176.641C329.978 176.641 326.357 176.641 322.42 176.641H321.919" stroke="#1D1D1B" stroke-linecap="round" stroke-linejoin="round"/>
<path d="M323.719 164.297C324.285 168.396 323.838 172.571 322.418 176.458" stroke="#1D1D1B" stroke-width="0.5" stroke-linecap="round" stroke-linejoin="round"/>
<path d="M363.877 182.514L372.119 182.214C371.969 182.331 371.302 182.331 369.95 182.331C367.598 182.431 365.629 182.514 363.877 182.514ZM363.877 182.514L345.775 183.215C351.793 182.67 357.835 182.436 363.877 182.514Z" stroke="#1D1D1B" stroke-linecap="round" stroke-linejoin="round"/>
<path d="M374.107 198.713L370.037 199.381C362.896 200.532 355.855 201.666 348.698 202.901L346.329 203.167L345.578 203.268" stroke="#1D1D1B" stroke-linecap="round" stroke-linejoin="round"/>
<path d="M349.667 208.555H349.783L354.788 207.638L356.891 207.271" stroke="#1D1D1B" stroke-linecap="round" stroke-linejoin="round"/>
<path d="M356.924 207.238C354.455 207.705 352.035 208.139 349.783 208.523" stroke="#1D1D1B" stroke-linecap="round" stroke-linejoin="round"/>
<path d="M356.923 207.237L358.441 206.953L361.494 206.386" stroke="#1D1D1B" stroke-linecap="round" stroke-linejoin="round"/>
<path d="M361.531 206.403L373.777 204.201C369.857 204.868 365.652 205.569 361.531 206.403Z" stroke="#1D1D1B" stroke-linecap="round" stroke-linejoin="round"/>
<path d="M350.447 218.115L351.332 217.948L355.636 217.114C362.176 215.779 368.683 214.228 375.189 213.06" stroke="#1D1D1B" stroke-linecap="round" stroke-linejoin="round"/>
<path d="M352.083 223.717L375.157 218.246L375.574 218.146" stroke="#1D1D1B" stroke-linecap="round" stroke-linejoin="round"/>
<path d="M351.798 247.558C352.064 247.441 352.348 247.341 352.615 247.208C359.382 244.189 365.956 240.757 372.302 236.932L374.254 235.814" stroke="#1D1D1B" stroke-linecap="round" stroke-linejoin="round"/>
<path d="M112.736 167.201C121.205 178.602 130.839 189.091 141.482 198.496" stroke="#1D1D1B" stroke-linecap="round" stroke-linejoin="round"/>
<path d="M133.646 200.212C131.594 199.028 129.559 197.81 127.557 196.559C124.554 194.679 121.606 192.7 118.715 190.62C115.828 188.552 113.009 186.383 110.256 184.147" stroke="#1D1D1B" stroke-linecap="round" stroke-linejoin="round"/>
<path d="M216.274 213.659C225.394 218.303 235.147 221.58 245.221 223.385L246.005 223.518C246.357 224.929 246.569 226.37 246.639 227.822C246.639 228.223 246.639 228.64 246.639 229.057" stroke="#1D1D1B" stroke-linecap="round" stroke-linejoin="round"/>
<path d="M245.207 223.501C238.8 224.636 232.227 223.601 225.887 222.183C219.547 220.765 213.258 218.98 206.768 218.563C195.399 217.873 184.182 221.441 175.302 228.573" stroke="#1D1D1B" stroke-linecap="round" stroke-linejoin="round"/>
<path d="M174.799 229.023C169.771 223.161 162.627 219.526 154.928 218.914C147.437 218.397 140.08 220.799 132.706 222.25C123.14 224.258 113.309 224.669 103.609 223.468H103.109C102.559 225.393 101.81 227.255 100.873 229.023" stroke="#1D1D1B" stroke-linecap="round" stroke-linejoin="round"/>
<path d="M160.755 214.058C166.039 218.417 170.748 223.428 174.77 228.972" stroke="#1D1D1B" stroke-linecap="round" stroke-linejoin="round"/>
<path d="M168.281 232.878C170.109 231.691 172.284 231.156 174.454 231.36C176.419 231.482 178.274 232.312 179.676 233.695C175.858 233.929 172.026 233.654 168.281 232.878Z" stroke="#1D1D1B" stroke-linecap="round" stroke-linejoin="round"/>
<path d="M127.385 232.259C117.708 231.792 108.026 231.442 98.3382 231.208H98.2048" stroke="#1D1D1B" stroke-linecap="round" stroke-linejoin="round"/>
<path d="M179.957 235.996C175.792 236.912 171.447 236.546 167.494 234.945C156.95 234.078 146.384 233.349 135.795 232.76C133.025 232.593 130.239 232.46 127.453 232.326" stroke="#1D1D1B" stroke-linecap="round" stroke-linejoin="round"/>
<path d="M88.8645 216.679C92.2013 221.406 95.3545 226.266 98.3242 231.259" stroke="#1D1D1B" stroke-linecap="round" stroke-linejoin="round"/>
<path d="M93.1013 219.015C95.2414 222.512 97.5752 225.887 100.092 229.124" stroke="#1D1D1B" stroke-linecap="round" stroke-linejoin="round"/>
<path d="M101.977 221C102.494 221.851 103.028 222.668 103.545 223.519" stroke="#1D1D1B" stroke-linecap="round" stroke-linejoin="round"/>
<path d="M167.895 232.843C145.625 230.272 123.226 228.99 100.809 229.006H100.242" stroke="#1D1D1B" stroke-linecap="round" stroke-linejoin="round"/>
<path d="M180.576 234.196L246.527 229.191" stroke="#1D1D1B" stroke-linecap="round" stroke-linejoin="round"/>
<path d="M180.424 236.381C203.531 235.464 226.605 233.745 249.612 231.376H249.912" stroke="#1D1D1B" stroke-linecap="round" stroke-linejoin="round"/>
<path d="M250.029 228.706L247.193 227.806" stroke="#1D1D1B" stroke-linecap="round" stroke-linejoin="round"/>
<path d="M101.725 168.35C101.374 168.7 101.024 169.05 100.69 169.417C99.3388 170.785 98.0041 172.153 96.6861 173.538" stroke="#1D1D1B" stroke-linecap="round" stroke-linejoin="round"/>
<path d="M93.6523 176.208C93.1523 177.548 92.3597 178.76 91.3323 179.755C90.3048 180.751 89.0684 181.505 87.7129 181.963" stroke="#1D1D1B" stroke-linecap="round" stroke-linejoin="round"/>
<path d="M127.404 232.259C111.611 235.954 95.6181 238.739 79.505 240.6L79.2716 240.416C72.354 235.099 64.3173 231.426 55.77 229.675C47.2227 227.923 38.3889 228.139 29.9375 230.307C34.7091 227.254 40.3482 225.936 45.8872 224.652C59.6347 221.499 74.7835 216.527 88.8813 216.644" stroke="#1D1D1B" stroke-linecap="round" stroke-linejoin="round"/>
<path d="M69.9434 209.939C52.0583 211.458 23.3789 217.763 6.3781 224.803L5.22691 225.287" stroke="#1D1D1B" stroke-linecap="round" stroke-linejoin="round"/>
<path d="M28.4355 229.757C28.3123 228.896 27.9824 228.077 27.474 227.371C26.9655 226.666 26.2937 226.093 25.5159 225.703C23.9559 224.929 22.2507 224.492 20.5107 224.419C15.8658 223.999 11.1833 224.371 6.6632 225.52L5.24512 225.92" stroke="#1D1D1B" stroke-linecap="round" stroke-linejoin="round"/>
<path d="M78.8187 241.018C78.8802 242.588 78.7286 244.159 78.3682 245.689L24.6797 231.943L4.65917 226.821" stroke="#1D1D1B" stroke-linecap="round" stroke-linejoin="round"/>
<path d="M30.1035 231.543H29.7198L28.1849 231.276L25.015 230.726" stroke="#1D1D1B" stroke-linecap="round" stroke-linejoin="round"/>
<path d="M5.12592 226.037L4.55863 226.154C3.49086 226.337 2.45644 226.538 1.40536 226.754C8.56272 229.374 16.2039 231.592 23.8451 233.811C25.1293 233.847 26.4007 234.077 27.6157 234.495C44.85 239.199 61.7674 243.453 79.0519 248.241L117.425 240.901C124.571 239.711 131.607 237.936 138.463 235.596" stroke="#1D1D1B" stroke-linecap="round" stroke-linejoin="round"/>
<path d="M79.5532 245.99C98.139 242.653 116.658 238.967 135.26 234.713C135.361 234.396 135.477 234.062 135.577 233.728L135.711 233.345" stroke="#1D1D1B" stroke-linecap="round" stroke-linejoin="round"/>
<path d="M138.48 235.412C138.601 235.33 138.689 235.208 138.729 235.068C138.768 234.927 138.757 234.777 138.697 234.644C138.642 234.51 138.558 234.39 138.451 234.292C138.345 234.194 138.218 234.12 138.079 234.077C137.808 233.972 137.52 233.916 137.228 233.91L135.677 233.76" stroke="#1D1D1B" stroke-linecap="round" stroke-linejoin="round"/>
<path d="M181.623 147.432C179.321 149.431 176.39 150.559 173.342 150.62C170.293 150.681 167.32 149.671 164.939 147.766" stroke="#1D1D1B" stroke-linecap="round" stroke-linejoin="round"/>
<path d="M207.035 81.7205C207.043 81.7534 207.043 81.7877 207.035 81.8206C206.716 84.6781 206.026 87.482 204.983 90.1616C203.571 93.7141 201.722 97.0765 199.477 100.171C199.327 100.404 199.177 100.621 199.01 100.838C195.459 105.522 191.555 109.928 187.332 114.017C186.497 114.834 185.663 115.685 184.862 116.486C183.029 118.476 181 120.275 178.806 121.858C176.584 123.447 173.914 124.288 171.182 124.26C166.427 124.01 162.589 120.306 159.77 116.469C152.154 106.071 148.471 93.3096 149.376 80.4526" stroke="#1D1D1B" stroke-linecap="round" stroke-linejoin="round"/>
<path d="M149.243 61.7197C149.103 60.5254 148.679 59.3817 148.009 58.3833C147.962 58.3145 147.906 58.2527 147.842 58.1998C147.492 57.7796 147.016 57.483 146.484 57.3539C145.952 57.2247 145.393 57.2698 144.889 57.4825C143.688 58.1331 143.538 59.7513 143.521 61.1192C143.402 64.6213 143.688 68.1254 144.372 71.5622C144.899 74.1539 146.044 76.5802 147.709 78.6354C148.209 79.2449 148.767 79.8037 149.377 80.3036" stroke="#1D1D1B" stroke-linecap="round" stroke-linejoin="round"/>
<path d="M210.723 79.3521C210.431 82.864 208.899 86.1576 206.402 88.644" stroke="#1D1D1B" stroke-linecap="round" stroke-linejoin="round"/>
<path d="M207.118 81.7359C209.753 80.0878 211.917 77.7877 213.402 75.058C214.887 72.3284 215.642 69.2617 215.594 66.1548" stroke="#1D1D1B" stroke-linecap="round" stroke-linejoin="round"/>
<path d="M213.326 68.3254C213.893 67.5925 214.411 66.8235 214.878 66.0233C217.327 61.8158 218.356 56.9317 217.814 52.0938" stroke="#1D1D1B" stroke-linecap="round" stroke-linejoin="round"/>
<path d="M215.476 56.1809C216.209 54.8624 216.77 53.4551 217.144 51.9937C218.569 46.1332 217.697 39.9498 214.708 34.7111C212.935 31.5979 210.683 28.7831 208.035 26.37C206.706 25.1442 205.301 24.0021 203.831 22.9502C202.172 21.7489 200.451 20.6352 198.675 19.6138" stroke="#1D1D1B" stroke-linecap="round" stroke-linejoin="round"/>
<path d="M198.828 22.8164C198.162 21.8696 197.395 20.9971 196.542 20.214C196.372 20.055 196.194 19.9047 196.009 19.7636C193.526 17.7189 190.573 16.3256 187.416 15.7099C184.232 15.0368 180.941 15.0368 177.756 15.7099C174.978 16.3231 172.304 17.3344 169.815 18.7126C165.454 21.1849 161.512 24.3323 158.136 28.0379C154.195 32.0111 151.046 36.699 148.86 41.8507C146.689 47.0397 146.365 52.8167 147.943 58.2159" stroke="#1D1D1B" stroke-linecap="round" stroke-linejoin="round"/>
<path d="M208.472 25.836C210.426 23.7446 211.608 21.0493 211.824 18.1952C212.039 15.3412 211.275 12.499 209.656 10.1381C208.316 8.39491 206.546 7.03057 204.519 6.17938C202.491 5.32818 200.277 5.01947 198.094 5.28362C196.795 5.44406 195.532 5.8219 194.357 6.40132" stroke="#1D1D1B" stroke-linecap="round" stroke-linejoin="round"/>
<path d="M198.043 4.93306C195.73 2.81188 192.737 1.58322 189.601 1.46707C186.464 1.35091 183.389 2.35486 180.925 4.29914C180.433 4.67437 179.97 5.08709 179.541 5.53361" stroke="#1D1D1B" stroke-linecap="round" stroke-linejoin="round"/>
<path d="M180.674 3.96484C178.321 4.10648 176.001 4.58398 173.783 5.38282C172.667 5.77974 171.646 6.40441 170.784 7.21715C169.923 8.0299 169.24 9.01295 168.778 10.1039C167.827 12.7563 168.778 15.659 169.596 18.3448" stroke="#1D1D1B" stroke-linecap="round" stroke-linejoin="round"/>
<path d="M199.576 63.7705C197.747 65.4495 195.726 66.9055 193.553 68.1079C192.836 68.5082 192.085 68.8919 191.334 69.2256" stroke="#1D1D1B" stroke-width="0.5" stroke-linecap="round" stroke-linejoin="round"/>
<path d="M194.023 61.6196C191.994 63.6502 189.651 65.3401 187.083 66.6243L185.982 67.1581" stroke="#1D1D1B" stroke-width="0.5" stroke-linecap="round" stroke-linejoin="round"/>
<path d="M186.627 61.3859C185.628 63.4965 184.113 65.3211 182.222 66.6908L181.739 67.0411V66.4239L180.487 50.2256" stroke="#1D1D1B" stroke-width="0.5" stroke-linecap="round" stroke-linejoin="round"/>
<path d="M179.105 66.6237C177.267 63.3268 174.606 60.5623 171.381 58.5996" stroke="#1D1D1B" stroke-width="0.5" stroke-linecap="round" stroke-linejoin="round"/>
<path d="M167.461 67.4083C165.478 68.5193 163.196 68.9802 160.938 68.7262C159.932 68.6068 158.948 68.3428 158.018 67.9421C156.629 67.351 155.378 66.4759 154.347 65.373" stroke="#1D1D1B" stroke-width="0.5" stroke-linecap="round" stroke-linejoin="round"/>
<path d="M167.462 67.4082C167.666 67.2471 167.89 67.1126 168.129 67.0078C167.916 67.157 167.693 67.2908 167.462 67.4082Z" stroke="#1D1D1B" stroke-width="0.5" stroke-linecap="round" stroke-linejoin="round"/>
<path d="M176.951 66.824C174.959 66.1165 172.773 66.1914 170.834 67.0337C168.896 67.876 167.349 69.4228 166.507 71.3615C166.149 72.0983 165.977 72.9117 166.007 73.7304C166.054 74.4881 166.327 75.2144 166.791 75.8156C166.27 75.5019 165.83 75.0693 165.508 74.5532C165.186 74.0371 164.991 73.4522 164.939 72.8462C164.862 71.6374 165.153 70.4336 165.773 69.393C166.189 68.625 166.756 67.9496 167.441 67.4079" stroke="#1D1D1B" stroke-width="0.5" stroke-linecap="round" stroke-linejoin="round"/>
<path d="M157.367 69.3273C156.13 69.2884 154.904 69.0692 153.73 68.6766C152.579 68.2095 149.609 62.9046 149.242 61.7202" stroke="#1D1D1B" stroke-width="0.5" stroke-linecap="round" stroke-linejoin="round"/>
<path d="M145.624 60.7671C146.866 61.9596 147.807 63.4298 148.369 65.0568C148.932 66.6837 149.101 68.421 148.861 70.1258" stroke="#1D1D1B" stroke-width="0.5" stroke-linecap="round" stroke-linejoin="round"/>
<path d="M148.66 67.9575C148.091 69.05 147.857 70.2853 147.984 71.51C148.112 72.7348 148.596 73.8952 149.377 74.8472" stroke="#1D1D1B" stroke-width="0.5" stroke-linecap="round" stroke-linejoin="round"/>
<path d="M146.268 62.5693C146.182 64.8408 146.322 67.1151 146.686 69.359" stroke="#1D1D1B" stroke-width="0.5" stroke-linecap="round" stroke-linejoin="round"/>
<path d="M194.301 69.5771H194.451C195.668 69.6661 196.848 70.0308 197.903 70.6435C198.959 71.2562 199.86 72.101 200.54 73.1138C201.903 75.1952 203.129 77.3628 204.211 79.6031C204.812 80.6874 205.729 81.8552 206.98 81.8218" stroke="#1D1D1B" stroke-width="0.5" stroke-linecap="round" stroke-linejoin="round"/>
<path d="M199.295 86.7578C196.909 85.8403 194.29 86.7578 191.937 87.9256C189.585 89.0933 187.199 90.2944 184.663 89.9441" stroke="#1D1D1B" stroke-width="0.5" stroke-linecap="round" stroke-linejoin="round"/>
<path d="M176.174 87.9773C172.67 87.1265 169.867 84.6408 167.114 82.2887C164.362 79.9365 161.242 77.7011 157.638 77.5176" stroke="#1D1D1B" stroke-width="0.5" stroke-linecap="round" stroke-linejoin="round"/>
<path d="M171.83 88.4097C168.644 85.7747 164.76 84.1228 160.652 83.6553" stroke="#1D1D1B" stroke-width="0.5" stroke-linecap="round" stroke-linejoin="round"/>
<path d="M170.761 88.0278C170.827 88.5295 170.746 89.0393 170.528 89.4959" stroke="#1D1D1B" stroke-width="0.5" stroke-linecap="round" stroke-linejoin="round"/>
<path d="M167.895 88.5774C167.659 87.9239 167.181 87.386 166.56 87.0753C165.939 86.7647 165.222 86.7052 164.558 86.9092C165.592 87.4931 166.61 88.0603 167.895 88.5774Z" stroke="#1D1D1B" stroke-width="0.5" stroke-linecap="round" stroke-linejoin="round"/>
<path d="M192.082 93.4813C192 93.1684 191.808 92.8952 191.542 92.7115C191.276 92.5279 190.952 92.4458 190.631 92.4804C189.987 92.5651 189.377 92.8183 188.862 93.2144C189.876 93.6568 191.009 93.7507 192.082 93.4813Z" stroke="#1D1D1B" stroke-width="0.5" stroke-linecap="round" stroke-linejoin="round"/>
<path d="M198.311 92.6143C197.695 92.0683 196.976 91.6511 196.197 91.3875C195.418 91.1239 194.593 91.0192 193.773 91.0796C191.491 91.0353 189.212 91.2592 186.982 91.7469" stroke="#1D1D1B" stroke-width="0.5" stroke-linecap="round" stroke-linejoin="round"/>
<path d="M182.711 92.1294C182.26 93.7142 181.793 95.2823 181.326 96.8504" stroke="#1D1D1B" stroke-width="0.5" stroke-linecap="round" stroke-linejoin="round"/>
<path d="M182.427 105.843C182.436 106.322 182.33 106.796 182.118 107.225C181.906 107.655 181.595 108.027 181.209 108.312C180.428 108.862 179.567 109.29 178.657 109.58C177.23 110.281 175.613 110.498 174.052 110.197C172.965 109.709 171.967 109.044 171.099 108.228C170.12 107.609 169.257 106.824 168.546 105.91C168.381 105.675 168.265 105.409 168.203 105.129C168.141 104.849 168.136 104.559 168.187 104.277C168.238 103.994 168.345 103.725 168.501 103.484C168.658 103.243 168.86 103.036 169.097 102.874" stroke="#1D1D1B" stroke-width="0.5" stroke-linecap="round" stroke-linejoin="round"/>
<path d="M162.419 111.164C164.466 110.564 166.635 110.512 168.709 111.014C170.778 111.398 172.813 112.031 174.915 112.315C176.097 112.414 177.273 112.581 178.436 112.816C179.587 113.116 180.721 113.716 180.805 114.934C179.136 113.983 177.051 114.934 175.132 115.051C170.728 115.335 166.94 111.214 162.419 111.164Z" stroke="#1D1D1B" stroke-width="0.5" stroke-linecap="round" stroke-linejoin="round"/>
<path d="M175.738 117.837C173.999 118.506 172.092 118.604 170.292 118.118C168.493 117.633 166.895 116.588 165.728 115.135" stroke="#1D1D1B" stroke-width="0.5" stroke-linecap="round" stroke-linejoin="round"/>
<path d="M100.811 169.519C100.529 172.8 100.726 176.104 101.395 179.328" stroke="#1D1D1B" stroke-linecap="round" stroke-linejoin="round"/>
<path d="M100.71 184.767C101.026 186.568 100.714 188.423 99.8262 190.021" stroke="#1D1D1B" stroke-linecap="round" stroke-linejoin="round"/>
<path d="M139.68 204.517C135.734 203.829 131.686 204.011 127.818 205.051" stroke="#1D1D1B" stroke-linecap="round" stroke-linejoin="round"/>
<path d="M224.569 179.662V180.012C224.991 182.257 225.047 184.555 224.736 186.818C224.545 187.83 224.219 188.812 223.768 189.738" stroke="#222120" stroke-linecap="round" stroke-linejoin="round"/>
</svg>
