<svg width="287" height="286" viewBox="0 0 287 286" fill="none" xmlns="http://www.w3.org/2000/svg">
<path d="M283.281 74.8193L285.166 75.2491C269.932 78.8714 255.295 84.6545 241.698 92.4226V92.8107C236.995 94.0767 232.338 95.4628 227.727 96.969L227.574 96.4977C231.225 92.9047 235.364 89.8437 239.869 87.405C244.245 84.9966 248.846 83.0191 253.605 81.5003C263.224 78.3816 273.246 76.7876 283.226 75.1936L283.281 74.8193Z" fill="#C9C9C9"/>
<path d="M283.282 74.8199L283.185 75.2357C273.205 76.8297 263.184 78.4237 253.565 81.5424C248.805 83.0612 244.205 85.0387 239.828 87.4471L239.634 87.0867C240.434 85.6842 240.751 84.0574 240.535 82.4572C240.302 80.8727 239.765 79.348 238.955 77.9663C238.646 77.3555 238.228 76.806 237.722 76.3446C237.467 76.1211 237.165 75.9569 236.84 75.8634C236.514 75.7699 236.171 75.7497 235.837 75.804C229.348 80.8623 221.986 84.6866 214.117 87.0867C208.675 93.0593 202.51 98.3302 195.765 102.777C189.854 112.523 182.846 121.559 174.876 129.709C172.089 131.68 169.118 133.379 166.006 134.782L165.742 134.186C165.853 126.877 166.315 119.59 167.128 112.327C167.128 112.605 167.128 112.896 167.128 113.173L170.677 113.561C170.274 116.851 170.372 120.183 170.968 123.444C171.476 116.922 173.327 110.577 176.404 104.804C179.481 99.0322 183.718 93.9581 188.848 89.9005C190.014 88.9625 191.226 88.0836 192.48 87.2669C192.064 85.7284 191.842 84.6333 191.62 83.5245L194.822 84.1066C194.822 82.5542 194.822 81.182 194.822 79.8098C197.594 80.2672 200.672 80.6553 202.959 79.0474C204.021 78.208 204.919 77.1788 205.606 76.0119L212.536 65.6856C213.847 64.7409 215.464 64.3207 217.069 64.5074C218.293 64.7714 219.55 64.8508 220.797 64.743C222.197 64.3943 223.405 63.5143 224.166 62.2897C224.92 61.0808 225.508 59.7752 225.912 58.4086C228.684 59.7947 231.942 61.1808 235.254 62.5669C232.978 60.6785 230.803 58.6705 228.74 56.5513C246.249 64.4887 264.525 70.6103 283.282 74.8199Z" fill="#C9C9C9"/>
<path d="M240.716 180.647C241.492 183.571 241.847 186.591 241.769 189.615H241.367C233.932 185.248 225.966 181.857 217.665 179.524L215.42 178.915C211.316 177.859 207.149 177.063 202.945 176.531C193.935 175.408 184.718 175.477 175.958 173.107L175.75 172.636C179.853 170.788 184.011 169.087 188.225 167.535C201.739 168.574 215.503 169.212 228.421 165.206C229.497 164.43 230.507 163.568 231.443 162.628C232.878 161.402 234.478 160.385 236.197 159.606L236.391 160.022L240.716 180.647Z" fill="#C9C9C9"/>
<path d="M167.476 176.461C168.696 175.851 169.93 175.255 171.163 174.687L171.302 174.992C171.722 183.33 175.418 191.166 181.586 196.793C187.753 202.421 195.893 205.385 204.235 205.042C208.534 205.056 212.711 203.615 216.086 200.953C219.302 198.181 221.062 193.441 219.552 189.463L215.31 179.15V178.887L217.556 179.497C219.934 182.844 221.571 186.66 222.357 190.689C223.143 194.719 223.061 198.871 222.116 202.866C221.052 206.703 219.15 210.256 216.547 213.269C213.944 216.282 210.705 218.68 207.063 220.289C204.097 223.408 197.36 225.529 190.43 225.182C188.395 225.091 186.377 224.77 184.414 224.226C175.793 221.772 168.668 215.05 164.704 206.872C160.537 198.238 159.669 188.379 162.265 179.15V179.081C163.997 178.208 165.758 177.321 167.476 176.461ZM175.599 208.452C171.393 201.718 168.697 194.151 167.698 186.275L166.922 186.386C166.09 190.766 165.383 195.312 166.423 199.637C167.462 203.961 170.692 208.078 175.086 208.826L175.599 208.452Z" fill="#A55DA1"/>
<path d="M184.357 21.2611L188.987 19.7641L186.45 24.8926C187.989 25.2668 189.403 25.2946 190.72 25.7381C191.391 25.9303 192.011 26.272 192.532 26.7377C193.053 27.2034 193.461 27.781 193.727 28.4271C193.936 29.2252 194.062 30.0427 194.102 30.8666C194.431 32.6637 195.413 34.2757 196.858 35.3935C198.304 36.5114 200.111 37.0563 201.933 36.9238C197.775 38.1297 195.89 42.8701 196.569 46.8898C197.248 50.9094 199.854 54.3053 202.515 57.3963C200.008 58.2078 197.562 59.1991 195.197 60.3625C189.859 62.9624 184.954 66.3708 180.657 70.4671C180.657 80.1697 177.524 88.7773 174.71 97.2185C172.804 102.485 171.465 107.94 170.718 113.491L167.17 113.103C167.17 112.826 167.17 112.535 167.17 112.258C166.836 92.2327 164.429 72.2962 159.99 52.7668H159.741C159.741 51.6857 159.741 50.6045 159.741 49.5233L159.075 49.3986C160.722 48.4399 162.114 47.0996 163.134 45.4907C164.154 43.8818 164.773 42.0514 164.938 40.1534C165.091 38.2431 164.742 36.326 163.925 34.5924C163.108 32.8588 161.852 31.369 160.281 30.2706C159.853 30.3531 159.45 30.5355 159.106 30.8028C158.762 31.0701 158.485 31.4149 158.299 31.8092C157.934 32.5953 157.637 33.4115 157.412 34.2487C156.656 36.4939 155.351 38.5143 153.614 40.1257L153.365 39.5158C150.853 34.4925 148.807 29.2497 147.252 23.853C161.285 19.4825 175.618 16.1424 190.137 13.8594C188.058 16.0045 186.2 18.3543 184.593 20.873C184.552 21.1225 184.468 21.2056 184.357 21.2611Z" fill="#C9C9C9"/>
<path d="M57.2664 255.247C47.8133 242.79 38.8592 229.96 30.4041 216.755L30.5427 216.561C28.5767 215.165 26.7229 213.617 24.9983 211.932C21.9382 209.043 19.7568 205.348 18.7055 201.273L18.7748 201.189C15.5279 198.405 12.6535 195.214 10.2227 191.695L12.884 191.501C25.8673 199.166 41.1023 202.104 56.005 199.817C59.7752 201.633 62.8107 204.738 66.4561 206.831C71.1218 209.488 76.586 210.383 81.8556 209.354V209.118C85.0982 209.943 88.4957 209.943 91.7383 209.118V208.979C93.8036 209.534 95.8273 210.227 97.8787 210.781C105.071 212.724 112.633 212.858 119.89 211.169C123.427 210.472 126.751 208.952 129.592 206.734C131.006 205.607 132.141 204.169 132.908 202.532C133.675 200.895 134.054 199.102 134.014 197.295L133.612 196.754C142.666 190.213 152.181 184.334 162.082 179.165V179.234C159.486 188.463 160.354 198.322 164.522 206.956C168.472 215.078 175.61 221.856 184.287 224.309C186.25 224.853 188.268 225.174 190.303 225.266V225.515C194.019 239.355 196.72 253.447 198.384 267.68L197.843 268.193C188.224 270.688 179.547 275.969 170.052 278.921C162.65 281.222 154.805 280.446 147.126 281.776L138.657 283.246C134.762 283.925 130.868 284.632 126.917 284.895C120.723 285.23 114.513 285.072 108.344 284.424C92.6901 283.139 77.0874 281.481 61.5356 279.448C59.9554 271.51 58.3799 263.563 56.809 255.607L57.2664 255.247Z" fill="#A55DA1"/>
<path d="M175.639 208.452L175.126 208.771C170.732 208.022 167.502 203.92 166.463 199.581C165.423 195.243 166.13 190.71 166.962 186.33L167.738 186.219C168.729 194.115 171.425 201.701 175.639 208.452Z" fill="#A55DA1"/>
<path d="M163.58 135.752C161.196 136.722 158.756 137.568 156.261 138.316C155.457 130.457 155.125 120.297 154.279 112.618L154.141 110.096C155.416 109.222 158.562 109.403 159.962 110.096H160.073C161.487 118.578 162.873 127.131 163.58 135.752Z" fill="#A55DA1"/>
<path d="M148.915 118.842C142.937 114.712 136.847 110.766 130.647 107.005L130.896 106.603L154.127 110.165L154.266 112.688C155.111 120.381 155.444 130.527 156.248 138.386C153.101 139.315 149.899 140.105 146.684 140.784L146.213 140.881C137.148 142.78 127.902 143.916 118.879 145.996C117.778 145.482 116.626 145.087 115.441 144.817L115.525 144.457C116.659 140.093 118.181 135.84 120.071 131.747C121.967 127.63 124.906 124.08 128.595 121.448C134.445 117.428 142.124 117.013 148.915 118.842Z" fill="#A55DA1"/>
<path d="M148.926 118.786C142.135 116.956 134.456 117.4 128.606 121.281C124.917 123.913 121.979 127.463 120.082 131.579C118.192 135.673 116.67 139.926 115.536 144.29L115.453 144.65C114.641 144.456 113.816 144.317 112.985 144.234L113.068 143.195C112.214 135.446 113.314 127.607 116.27 120.394L116.159 120.241C116.615 119.971 117.038 119.65 117.421 119.285C119.001 117.528 119.998 115.325 120.276 112.978H120.345C123.1 110.718 125.213 107.773 126.472 104.44L126.846 104.579L130.672 106.879C136.872 110.687 142.957 114.655 148.926 118.786Z" fill="#A55DA1"/>
<path d="M115.471 146.675C109.144 150.539 104.499 156.638 102.455 163.765C100.463 170.937 100.372 178.503 102.192 185.721C103.578 191.875 106.35 198.098 111.52 201.73C116.691 205.362 122.928 206.872 126.851 201.924C129.124 200.15 131.434 198.417 133.781 196.726L134.183 197.267C134.223 199.074 133.844 200.867 133.077 202.504C132.31 204.141 131.175 205.579 129.761 206.706C126.92 208.925 123.596 210.444 120.059 211.141C112.802 212.83 105.24 212.696 98.0477 210.753C95.9963 210.199 93.9726 209.506 91.9074 208.951V209.09C88.8182 209.86 85.5924 209.902 82.4845 209.211C79.3766 208.521 76.4717 207.117 73.9991 205.112C71.5666 203.061 69.6459 200.471 68.3899 197.547C67.1339 194.624 66.5771 191.447 66.7638 188.271C67.0826 183.517 69.0647 179.054 71.227 174.798C75.333 166.714 80.1624 159.017 85.6561 151.803C87.5799 150.045 89.8444 148.7 92.3093 147.853C95.2866 146.786 98.4591 146.375 101.61 146.647C103.63 145.522 105.837 144.77 108.125 144.429C109.757 144.175 111.415 144.129 113.059 144.291C113.89 144.373 114.714 144.512 115.526 144.706C116.711 144.976 117.863 145.371 118.964 145.885C117.846 146.143 116.723 146.421 115.596 146.716L115.471 146.675Z" fill="#A55DA1"/>
<path d="M94.8978 138.677L98.4462 137.402C99.576 138.668 100.774 139.871 102.036 141.005L108.024 144.318V144.429C105.737 144.77 103.53 145.521 101.509 146.647C98.3586 146.375 95.1861 146.786 92.2088 147.853V147.728C90.3466 145.517 87.7177 144.091 84.8487 143.736C82.0028 143.396 79.1212 143.509 76.3104 144.069C72.9415 144.597 69.605 145.314 66.3167 146.217L65.291 145.455L65.8039 144.762C69.8349 140.741 74.1024 136.964 78.5836 133.451C80.8706 131.746 83.6566 130.097 86.4288 130.818C90.1851 131.788 91.6544 136.528 94.8978 138.677Z" fill="#A55DA1"/>
<path d="M60.525 105.092C66.2899 111.735 72.8383 117.655 80.0272 122.723C84.1854 125.495 88.8011 127.879 92.5851 131.247C93.8425 132.387 95.0363 133.594 96.1612 134.865L98.4483 137.429L94.8999 138.704C91.6565 136.556 90.1872 131.774 86.4032 130.845C83.631 130.124 80.8588 131.774 78.5579 133.479C74.0768 136.991 69.8093 140.768 65.7782 144.789C62.7133 135.48 58.4599 126.605 53.1233 118.384C51.3128 115.943 49.9344 113.21 49.0482 110.303C48.9512 109.887 48.8818 109.472 48.8264 109.056C48.5957 106.497 48.9659 103.92 49.9075 101.529C51.7233 96.6227 55.5767 92.2426 60.6359 90.8843H60.8715C61.2435 95.5735 61.1925 100.287 60.719 104.967L60.525 105.092Z" fill="#A55DA1"/>
<path d="M56.0331 199.803C41.1303 202.09 25.8952 199.152 12.9119 191.487L10.2507 191.681C3.95403 182.668 0.863611 171.804 1.47429 160.827C2.08497 149.849 6.3614 139.395 13.6189 131.136C14.201 130.485 14.7832 129.834 15.393 129.224L19.3157 130.083C27.7848 128.667 36.4825 129.711 44.3761 133.091C51.8408 136.281 58.8543 140.438 65.2367 145.455L66.2624 146.217C69.5507 145.314 72.8872 144.597 76.2561 144.069C79.0669 143.509 81.9485 143.396 84.7943 143.736C87.6633 144.091 90.2922 145.517 92.1545 147.728V147.853C89.6896 148.7 87.425 150.044 85.5012 151.803C80.0287 159.037 75.2225 166.752 71.1414 174.854C68.9791 179.109 66.9831 183.572 66.6782 188.326C66.4915 191.503 67.0483 194.679 68.3043 197.602C69.5604 200.526 71.481 203.116 73.9136 205.167C76.2554 207.083 78.9983 208.447 81.939 209.159V209.395C76.6694 210.424 71.2052 209.529 66.5396 206.872C62.8387 204.724 59.8032 201.619 56.0331 199.803ZM60.0111 148.171V148.019C48.8616 147.634 37.7902 150.015 27.7847 154.949V155.019C37.8556 154.083 47.8014 152.1 57.4607 149.1C58.2785 148.781 59.1518 148.518 60.0111 148.171Z" fill="#A55DA1"/>
<path d="M65.7745 144.762L65.2616 145.455C58.8793 140.438 51.8658 136.281 44.401 133.091C36.5075 129.711 27.8098 128.667 19.3406 130.083L15.418 129.224C24.4968 119.881 36.8053 114.226 48.8226 109.028C48.8226 109.444 48.9474 109.86 49.0444 110.276C49.9307 113.183 51.309 115.916 53.1195 118.357C58.4561 126.577 62.7095 135.452 65.7745 144.762Z" fill="#A55DA1"/>
<path d="M59.9536 148.019V148.171C59.0942 148.462 58.221 148.781 57.3616 149.114C47.7023 152.113 37.7565 154.097 27.6855 155.032V154.963C37.7023 150.017 48.789 147.631 59.9536 148.019Z" fill="#A55DA1"/>
<path d="M61.6602 279.364C77.2305 281.406 92.8332 283.065 108.468 284.34C114.637 284.989 120.848 285.146 127.042 284.811C130.992 284.506 134.887 283.841 138.782 283.162L147.251 281.693C154.888 280.306 162.775 281.138 170.177 278.837C179.671 275.885 188.348 270.604 197.968 268.109" stroke="#A55DA1" stroke-width="1.73316" stroke-linecap="round" stroke-linejoin="round"/>
<path d="M63.6429 62.3318C62.9437 60.3491 61.8284 58.539 60.3717 57.023C59.6297 56.2799 58.6763 55.7839 57.6418 55.6028C56.6073 55.4217 55.5421 55.5643 54.5917 56.0112C53.2384 57.0177 52.325 58.5069 52.0413 60.1695C51.6963 61.4549 51.4598 62.7671 51.3344 64.0921C50.9633 67.7814 51.4313 71.5069 52.7035 74.9897C53.9756 78.4726 56.019 81.6227 58.6807 84.2042C58.6037 84.9313 58.6785 85.6665 58.9004 86.3632C59.1223 87.0599 59.4864 87.7029 59.9698 88.2515C60.2153 88.5209 60.4895 88.7626 60.7875 88.9723C61.6806 89.6262 62.7578 89.9804 63.8647 89.9841" stroke="black" stroke-width="1.73316" stroke-linecap="round" stroke-linejoin="round"/>
<path d="M73.2205 13.0283C72.084 13.4996 70.9474 13.9709 69.8108 14.4837C65.6525 16.3688 61.5636 18.642 58.8053 22.2597C54.3282 28.1367 54.3005 36.1205 54.4945 43.5083V43.7301" stroke="black" stroke-width="1.73316" stroke-linecap="round" stroke-linejoin="round"/>
<path d="M56.3531 41.6924C55.6706 42.2435 55.0354 42.8509 54.4542 43.5082C51.9325 46.2207 50.2719 49.6202 49.6822 53.2766C49.0926 56.933 49.6004 60.6822 51.1415 64.0499" stroke="black" stroke-width="1.73316" stroke-linecap="round" stroke-linejoin="round"/>
<path d="M69.7715 14.4695C73.0875 9.20049 78.0527 5.1759 83.894 3.02241C89.7352 0.868912 96.1246 0.707392 102.067 2.56299" stroke="black" stroke-width="1.73316" stroke-linecap="round" stroke-linejoin="round"/>
<path d="M93.2637 3.838C96.1883 3.46375 99.1268 3.08952 102.065 2.85389C105.418 2.55587 108.79 2.55587 112.142 2.85389C118.421 3.47763 124.742 5.62606 129.233 10.1308C130.455 11.5033 131.76 12.7994 133.141 14.0119C133.86 14.6323 134.718 15.0697 135.643 15.2869C136.567 15.5041 137.53 15.4946 138.45 15.2593C137.909 15.8089 137.26 16.2414 136.545 16.53C135.83 16.8185 135.063 16.9569 134.292 16.9365" stroke="black" stroke-width="1.73316" stroke-linecap="round" stroke-linejoin="round"/>
<path d="M119.988 15.3432C122.325 14.5654 124.81 14.3396 127.249 14.6835C129.687 15.0274 132.013 15.9317 134.043 17.3253C135.072 17.9963 136.025 18.7771 136.885 19.6539C138.958 21.9322 140.547 24.609 141.552 27.521C142.558 30.4331 142.96 33.5194 142.734 36.5919C142.595 39.2532 142.069 41.9006 142.166 44.5619C142.143 45.8959 142.402 47.2197 142.925 48.4472C143.448 49.6746 144.224 50.7783 145.201 51.6864" stroke="black" stroke-width="1.73316" stroke-linecap="round" stroke-linejoin="round"/>
<path d="M74.9394 29.98C73.6389 32.5455 73.1551 35.4478 73.5533 38.2965C74.0034 41.1747 75.3578 43.835 77.4205 45.8922C77.2894 46.8332 76.947 47.7324 76.4188 48.5221C75.8907 49.3119 75.1906 49.9719 74.3711 50.4525C72.7244 51.3919 71.2252 52.5688 69.9217 53.9454C68.8461 55.6741 68.0989 57.5867 67.7179 59.5868C67.5247 60.6012 67.1103 61.5606 66.5042 62.3967C65.898 63.2329 65.1151 63.9251 64.2111 64.4242L63.6289 62.3035" stroke="black" stroke-width="1.73316" stroke-linecap="round" stroke-linejoin="round"/>
<path d="M64.2109 80.3228C65.0703 83.4414 64.6684 86.7681 64.4327 90.0254C64.4327 90.1362 64.4327 90.2472 64.4327 90.358C64.1971 93.6985 64.2248 97.2885 65.9297 100.144C68.6187 104.718 74.662 106.326 77.656 110.692" stroke="black" stroke-width="1.73316" stroke-linecap="round" stroke-linejoin="round"/>
<path d="M76.8535 106.769C77.0514 108.078 77.3621 109.367 77.7822 110.622C78.4936 113.069 79.8822 115.265 81.788 116.957C84.7126 119.424 88.7184 120.117 92.544 120.214C96.3696 120.311 100.223 119.909 104.34 120.367L105.171 120.588C107.097 121.152 109.085 121.474 111.09 121.545C112.858 121.592 114.606 121.161 116.149 120.297C116.604 120.027 117.027 119.706 117.41 119.341C118.99 117.584 119.988 115.381 120.266 113.034C120.363 112.507 120.46 111.981 120.543 111.468" stroke="black" stroke-width="1.73316" stroke-linecap="round" stroke-linejoin="round"/>
<path d="M120.346 113.047C123.1 110.787 125.213 107.843 126.472 104.509C126.846 103.608 127.151 102.693 127.429 101.737C128.181 99.0144 128.696 96.2318 128.967 93.4204C129.133 91.7709 129.272 90.1076 129.397 88.4443" stroke="black" stroke-width="1.73316" stroke-linecap="round" stroke-linejoin="round"/>
<path d="M127.598 90.4273C128.102 89.7157 128.565 88.9752 128.984 88.2096C130.634 85.5114 131.688 82.4915 132.075 79.3525L133.364 72.6023C133.863 69.941 134.376 67.2936 134.875 64.6323" stroke="black" stroke-width="1.73316" stroke-linecap="round" stroke-linejoin="round"/>
<path d="M145.382 51.6995H145.215C144.721 51.8116 144.208 51.8176 143.711 51.7172C143.214 51.6169 142.744 51.4125 142.332 51.1174C141.445 50.5352 140.738 49.7313 140.031 49.2046C139.865 52.6936 140.88 56.1367 142.914 58.9765C140.762 58.2609 138.845 56.9718 137.37 55.2479C138.29 56.6273 138.925 58.1763 139.239 59.8041C139.553 61.432 139.54 63.1061 139.2 64.7287C138.904 66.0634 138.383 67.3382 137.661 68.4989C136.649 70.1676 135.251 71.5697 133.586 72.5878" stroke="black" stroke-width="1.73316" stroke-linecap="round" stroke-linejoin="round"/>
<path d="M137.909 68.6934C138.838 69.9615 139.453 71.4311 139.706 72.9822C139.959 74.5334 139.842 76.1224 139.365 77.6198C138.37 80.6004 136.812 83.3624 134.777 85.7561C132.746 88.1435 130.941 90.7142 129.385 93.435" stroke="black" stroke-width="1.73316" stroke-linecap="round" stroke-linejoin="round"/>
<path d="M104.59 123.36C103.37 126.843 101.692 130.147 99.5996 133.187" stroke="black" stroke-width="1.73316" stroke-linecap="round" stroke-linejoin="round"/>
<path d="M109.938 31.9904L119.127 26.6679C120.069 25.9403 121.257 25.6073 122.44 25.7392C126.598 30.7014 127.749 37.3684 129.44 43.592C131.269 50.2887 133.831 56.7638 137.077 62.9002" stroke="black" stroke-width="1.73316" stroke-linecap="round" stroke-linejoin="round"/>
<path d="M135.039 64.5215C134.443 61.5692 133.805 57.5911 133.209 54.6665" stroke="black" stroke-width="1.73316" stroke-linecap="round" stroke-linejoin="round"/>
<path d="M60.7463 89.2627C60.7463 89.7894 60.8433 90.3161 60.8849 90.8429C61.2569 95.5321 61.2059 100.245 60.7324 104.925" stroke="black" stroke-width="1.73316" stroke-linecap="round" stroke-linejoin="round"/>
<path d="M60.6359 90.8569C55.5767 92.243 51.7233 96.5953 49.9075 101.502C48.9659 103.892 48.5957 106.47 48.8264 109.029C48.8264 109.444 48.9512 109.86 49.0482 110.276C49.9344 113.183 51.3128 115.916 53.1233 118.357C58.4599 126.577 62.7133 135.452 65.7782 144.762C69.8093 140.741 74.0768 136.964 78.5579 133.451C80.845 131.746 83.631 130.097 86.4032 130.818C90.1872 131.788 91.6565 136.528 94.8999 138.677C95.1184 138.82 95.3452 138.949 95.5791 139.065" stroke="black" stroke-width="1.73316" stroke-linecap="round" stroke-linejoin="round"/>
<path d="M59.0685 94.6689C58.1913 95.2781 57.4552 96.0686 56.91 96.9869C56.3647 97.9051 56.0231 98.9298 55.9082 99.9915C57.4329 101.701 58.9714 103.401 60.5238 105.092C66.2888 111.735 72.8372 117.655 80.0261 122.723C84.1843 125.496 88.8 127.88 92.584 131.248C93.8413 132.387 95.0352 133.595 96.1601 134.865L98.4472 137.43C99.5769 138.696 100.775 139.899 102.037 141.034L108.025 144.346" stroke="black" stroke-width="1.73316" stroke-linecap="round" stroke-linejoin="round"/>
<path d="M116.257 120.449C113.301 127.663 112.2 135.502 113.055 143.25" stroke="black" stroke-width="1.73316" stroke-linecap="round" stroke-linejoin="round"/>
<path d="M115.521 144.36C116.656 139.996 118.177 135.742 120.068 131.649C121.964 127.533 124.903 123.983 128.592 121.35C134.442 117.442 142.12 117.026 148.912 118.856H148.995" stroke="black" stroke-width="1.73316" stroke-linecap="round" stroke-linejoin="round"/>
<path d="M126.832 104.648L130.658 106.949C136.867 110.71 142.957 114.656 148.926 118.786" stroke="black" stroke-width="1.73316" stroke-linecap="round" stroke-linejoin="round"/>
<path d="M130.908 106.547L154.139 110.109C155.414 109.236 158.561 109.416 159.961 110.109" stroke="black" stroke-width="1.73316" stroke-linecap="round" stroke-linejoin="round"/>
<path d="M154.279 112.633C155.125 120.326 155.457 130.472 156.261 138.331L156.345 139.19" stroke="black" stroke-width="1.73316" stroke-linecap="round" stroke-linejoin="round"/>
<path d="M148.375 125.745C149.199 130.424 150.712 134.955 152.866 139.19" stroke="black" stroke-width="1.73316" stroke-linecap="round" stroke-linejoin="round"/>
<path d="M48.8524 109.015C36.835 114.213 24.5266 119.868 15.4477 129.21C14.8379 129.82 14.2557 130.472 13.6736 131.123C9.38903 136.051 6.12156 141.777 4.05932 147.973C1.99709 154.169 1.18081 160.711 1.65749 167.224C2.13417 173.736 3.89438 180.09 6.83678 185.919C9.77919 191.749 13.8457 196.938 18.802 201.19C20.187 202.392 21.6452 203.508 23.1682 204.53" stroke="black" stroke-width="1.73316" stroke-linecap="round" stroke-linejoin="round"/>
<path d="M18.7344 201.314C19.7856 205.389 21.9671 209.084 25.0272 211.973C26.7518 213.658 28.6056 215.206 30.5716 216.602C31.9576 217.656 33.4823 218.654 34.9516 219.652" stroke="black" stroke-width="1.73316" stroke-linecap="round" stroke-linejoin="round"/>
<path d="M30.4043 216.797C38.8409 229.974 47.7951 242.804 57.2666 255.288C58.6065 257.081 59.9649 258.855 61.3417 260.611" stroke="black" stroke-width="1.73316" stroke-linecap="round" stroke-linejoin="round"/>
<path d="M56.9883 255.523C58.5684 263.47 60.1439 271.417 61.7148 279.364V279.6" stroke="black" stroke-width="1.73316" stroke-linecap="round" stroke-linejoin="round"/>
<path d="M115.637 146.578L115.471 146.675C109.144 150.539 104.499 156.638 102.455 163.765C100.462 170.937 100.372 178.503 102.192 185.721C103.578 191.875 106.35 198.098 111.52 201.73C116.69 205.362 122.928 206.872 126.85 201.924" stroke="black" stroke-width="1.73316" stroke-linecap="round" stroke-linejoin="round"/>
<path d="M99.3618 149.211C89.9678 159.756 84.3161 173.105 83.2832 187.19" stroke="black" stroke-width="1.73316" stroke-linecap="round" stroke-linejoin="round"/>
<path d="M81.801 184.209C79.4863 178.36 80.8724 171.554 84.0049 166.107C87.1375 160.659 91.864 156.293 96.5628 152.121" stroke="black" stroke-width="1.73316" stroke-linecap="round" stroke-linejoin="round"/>
<path d="M118.878 145.885C117.777 145.371 116.625 144.976 115.44 144.706C114.628 144.512 113.804 144.373 112.973 144.291C111.329 144.129 109.671 144.175 108.039 144.429C105.751 144.77 103.544 145.522 101.524 146.647C98.3732 146.375 95.2006 146.786 92.2234 147.853C89.7585 148.7 87.494 150.045 85.5702 151.803C80.0736 159.035 75.2442 166.75 71.141 174.854C68.9787 179.109 66.9828 183.572 66.6778 188.327C66.4911 191.503 67.0479 194.679 68.304 197.603C69.56 200.526 71.4806 203.116 73.9132 205.167C76.3858 207.173 79.2907 208.576 82.3986 209.267C85.5065 209.957 88.7323 209.915 91.8214 209.145" stroke="black" stroke-width="1.73316" stroke-linecap="round" stroke-linejoin="round"/>
<path d="M85.998 208.119C87.984 208.156 89.956 208.459 91.8612 209.02C93.9265 209.575 95.9501 210.268 98.0015 210.822C105.194 212.765 112.756 212.899 120.013 211.21C123.55 210.513 126.873 208.993 129.715 206.775C131.129 205.648 132.264 204.21 133.031 202.573C133.798 200.935 134.176 199.143 134.137 197.335" stroke="black" stroke-width="1.73316" stroke-linecap="round" stroke-linejoin="round"/>
<path d="M14.3809 176.461C25.3579 175.023 36.0464 171.895 46.0668 167.189C56.0783 162.486 65.7984 157.186 75.1746 151.318" stroke="black" stroke-width="1.73316" stroke-linecap="round" stroke-linejoin="round"/>
<path d="M29.4785 188.506C46.8639 179.913 63.121 169.205 77.8806 156.626" stroke="black" stroke-width="1.73316" stroke-linecap="round" stroke-linejoin="round"/>
<path d="M19.7012 155.586C22.3902 155.475 25.0792 155.295 27.7404 155.046C37.8114 154.11 47.7572 152.127 57.4165 149.127C58.2759 148.795 59.1491 148.476 60.0085 148.185C62.0692 147.455 64.1621 146.803 66.2875 146.23C69.5758 145.327 72.9123 144.61 76.2811 144.082C79.0919 143.522 81.9736 143.41 84.8194 143.749C87.6884 144.104 90.3173 145.53 92.1795 147.741" stroke="black" stroke-width="1.73316" stroke-linecap="round" stroke-linejoin="round"/>
<path d="M27.7285 154.963C37.734 150.028 48.8055 147.647 59.955 148.032" stroke="black" stroke-width="1.73316" stroke-linecap="round" stroke-linejoin="round"/>
<path d="M19.3438 130.084C27.8129 128.668 36.5106 129.711 44.4042 133.091C51.8689 136.282 58.8824 140.439 65.2648 145.455L66.2904 146.218" stroke="black" stroke-width="1.73316" stroke-linecap="round" stroke-linejoin="round"/>
<path d="M12.9102 191.487C25.8935 199.152 41.1285 202.09 56.0313 199.803" stroke="black" stroke-width="1.73316" stroke-linecap="round" stroke-linejoin="round"/>
<path d="M47.5781 197.918C50.2075 197.97 52.8071 198.486 55.257 199.443L56.0333 199.803C59.8034 201.619 62.8389 204.724 66.4843 206.817C71.15 209.474 76.6141 210.369 81.8837 209.339" stroke="black" stroke-width="1.73316" stroke-linecap="round" stroke-linejoin="round"/>
<path d="M56.3111 203.324C52.4007 210.706 47.1395 217.288 40.8008 222.729" stroke="black" stroke-width="1.73316" stroke-linecap="round" stroke-linejoin="round"/>
<path d="M60.9406 208.204L58.2793 234.539" stroke="black" stroke-width="1.73316" stroke-linecap="round" stroke-linejoin="round"/>
<path d="M135.135 196.06C144.02 220.871 151.934 248.26 155.593 274.36" stroke="black" stroke-width="1.73316" stroke-linecap="round" stroke-linejoin="round"/>
<path d="M115.521 146.772C116.649 146.476 117.772 146.199 118.89 145.94C127.913 143.861 137.158 142.724 146.223 140.825L146.695 140.728C149.91 140.049 153.112 139.259 156.259 138.33C158.754 137.582 161.193 136.736 163.577 135.766C164.395 135.434 165.213 135.073 166.003 134.713C169.115 133.31 172.086 131.611 174.874 129.64C182.838 121.512 189.847 112.499 195.762 102.777C202.504 98.3519 208.668 93.1045 214.114 87.1562C221.983 84.7561 229.345 80.9318 235.834 75.8735C236.168 75.8192 236.511 75.8394 236.837 75.9329C237.163 76.0263 237.464 76.1907 237.719 76.4141C238.225 76.8755 238.643 77.425 238.952 78.0358C239.763 79.4174 240.299 80.9422 240.533 82.5267C240.748 84.127 240.432 85.7537 239.632 87.1562" stroke="black" stroke-width="1.73316" stroke-linecap="round" stroke-linejoin="round"/>
<path d="M189.943 122.085C190.335 120.881 191.021 119.793 191.938 118.92C192.855 118.046 193.975 117.415 195.197 117.082" stroke="black" stroke-width="1.73316" stroke-linecap="round" stroke-linejoin="round"/>
<path d="M192.922 121.462C195.528 116.009 198.975 110.999 203.137 106.617C211.146 102.988 219.34 99.782 227.685 97.0115C232.305 95.4775 236.962 94.0914 241.657 92.8532C242.814 92.845 243.952 93.1385 244.961 93.7049C245.97 94.2712 246.814 95.0908 247.409 96.0828C247.996 97.0867 248.364 98.2035 248.488 99.3599C248.612 100.516 248.49 101.686 248.13 102.791C247.372 105.108 245.808 107.075 243.722 108.336C242.128 109.278 240.52 110.207 238.912 111.108C232.444 114.804 225.878 118.334 219.216 121.698" stroke="black" stroke-width="1.73316" stroke-linecap="round" stroke-linejoin="round"/>
<path d="M217.178 117.871C215.595 120.648 213.767 123.278 211.717 125.73" stroke="black" stroke-width="1.73316" stroke-linecap="round" stroke-linejoin="round"/>
<path d="M217.055 142.599C219.729 140.034 222.269 137.332 224.664 134.504" stroke="black" stroke-width="1.73316" stroke-linecap="round" stroke-linejoin="round"/>
<path d="M239.008 111.093C240.13 110.487 241.322 110.022 242.557 109.707C243.809 109.394 245.133 109.557 246.272 110.164C247.611 111.183 248.583 112.608 249.044 114.226C250.18 116.998 251.317 120.075 250.263 122.861C249.476 124.579 248.198 126.026 246.59 127.019C246.216 127.283 245.828 127.546 245.454 127.782C239.12 131.641 232.493 134.997 225.633 137.817" stroke="black" stroke-width="1.73316" stroke-linecap="round" stroke-linejoin="round"/>
<path d="M246.481 127.02L246.606 127.089C248.935 128.237 250.749 130.215 251.693 132.634C252.577 135.152 252.631 137.887 251.846 140.437C251.055 141.02 250.265 141.602 249.462 142.156C243.009 146.719 236.079 150.567 228.795 153.633" stroke="black" stroke-width="1.73316" stroke-linecap="round" stroke-linejoin="round"/>
<path d="M228.463 150.542L223.182 155.906" stroke="black" stroke-width="1.73316" stroke-linecap="round" stroke-linejoin="round"/>
<path d="M249.641 142.447C250.894 143.711 251.74 145.321 252.069 147.071C252.397 148.82 252.194 150.628 251.484 152.26C250.89 153.356 250.08 154.32 249.104 155.094C248.127 155.868 247.004 156.437 245.801 156.765C243.459 157.583 240.95 157.874 238.58 158.622C237.737 158.886 236.913 159.205 236.113 159.579C234.393 160.357 232.793 161.374 231.358 162.6L231.012 162.905" stroke="black" stroke-width="1.73316" stroke-linecap="round" stroke-linejoin="round"/>
<path d="M234.006 159.316C233.234 160.511 232.327 161.613 231.303 162.601C230.367 163.541 229.357 164.403 228.281 165.179C215.391 169.185 201.627 168.547 188.085 167.508L184.592 167.23" stroke="black" stroke-width="1.73316" stroke-linecap="round" stroke-linejoin="round"/>
<path d="M126.85 201.924C129.123 200.15 131.433 198.417 133.78 196.726C142.834 190.185 152.349 184.306 162.25 179.137C163.997 178.208 165.757 177.321 167.517 176.461C168.737 175.852 169.971 175.256 171.204 174.687C172.701 173.98 174.212 173.301 175.723 172.608C179.826 170.76 183.984 169.06 188.198 167.507L188.378 167.438" stroke="black" stroke-width="1.73316" stroke-linecap="round" stroke-linejoin="round"/>
<path d="M227.531 96.54C231.182 92.9469 235.321 89.8859 239.826 87.4472C244.203 85.0388 248.803 83.0613 253.562 81.5425C263.181 78.4238 273.203 76.8298 283.183 75.2358" stroke="black" stroke-width="1.73316" stroke-linecap="round" stroke-linejoin="round"/>
<path d="M184.357 21.2611C184.468 21.2611 184.552 21.1225 184.593 20.873C186.2 18.3543 188.058 16.0045 190.137 13.8594C175.618 16.1424 161.285 19.4825 147.252 23.853C148.807 29.2497 150.853 34.4925 153.365 39.5158" stroke="black" stroke-width="1.73316" stroke-linecap="round" stroke-linejoin="round"/>
<path d="M241.701 92.4237C255.297 84.6556 269.935 78.8725 285.169 75.2501L283.284 74.8204C264.532 70.5778 246.265 64.4237 228.769 56.4548C230.832 58.574 233.007 60.5821 235.284 62.4704C231.971 61.0844 228.672 59.6983 225.941 58.3122C225.537 59.6788 224.95 60.9843 224.195 62.1932C223.434 63.4178 222.226 64.2978 220.827 64.6466C219.579 64.7544 218.322 64.675 217.098 64.4109C215.493 64.2242 213.876 64.6445 212.566 65.5891L205.635 75.9154C204.948 77.0823 204.05 78.1115 202.988 78.951C200.701 80.5588 197.61 80.1707 194.851 79.7133C194.851 81.0994 194.851 82.4855 194.851 84.0102L191.65 83.428C191.871 84.5369 192.093 85.6319 192.509 87.1704C191.255 87.9871 190.043 88.8661 188.877 89.804C183.747 93.8617 179.51 98.9357 176.433 104.708C173.357 110.48 171.506 116.826 170.997 123.347C170.401 120.087 170.303 116.755 170.706 113.464C171.465 107.927 172.812 102.485 174.726 97.2334C177.498 88.7922 180.658 80.1292 180.672 70.482C184.964 66.3819 189.864 62.9689 195.198 60.3636C197.559 59.2008 200 58.2095 202.503 57.3974C199.841 54.3064 197.236 50.9105 196.556 46.8908C195.877 42.8712 197.79 38.1308 201.92 36.9249C200.098 37.0574 198.291 36.5124 196.846 35.3946C195.401 34.2768 194.419 32.6647 194.089 30.8677C194.049 30.0437 193.924 29.2262 193.715 28.4282C193.449 27.782 193.04 27.2045 192.519 26.7388C191.998 26.2731 191.379 25.9313 190.707 25.7392C189.39 25.2956 187.935 25.2679 186.438 24.8936L188.974 19.7651L184.345 21.2621H184.234" stroke="black" stroke-width="1.73316" stroke-linecap="round" stroke-linejoin="round"/>
<path d="M159.158 49.3994C160.804 48.4407 162.196 47.1005 163.217 45.4916C164.237 43.8827 164.856 42.0523 165.021 40.1543C165.174 38.2439 164.824 36.3269 164.007 34.5933C163.19 32.8597 161.934 31.3698 160.364 30.2715C159.936 30.354 159.533 30.5363 159.189 30.8037C158.844 31.071 158.568 31.4158 158.382 31.81C158.017 32.5962 157.72 33.4124 157.495 34.2495C156.715 36.5035 155.381 38.5247 153.614 40.1266C152.116 41.5013 150.426 42.65 148.596 43.5363C148.18 46.3085 147.709 49.1777 147.127 52.0469C146.475 55.2626 145.741 58.5476 144.701 61.9712C147.761 69.3908 151.683 76.4249 156.386 82.9289C156.816 83.5664 157.273 84.1902 157.772 84.8001" stroke="black" stroke-width="1.73316" stroke-linecap="round" stroke-linejoin="round"/>
<path d="M159.975 83.9263C160.739 85.1103 161.135 86.495 161.111 87.9043" stroke="black" stroke-width="1.73316" stroke-linecap="round" stroke-linejoin="round"/>
<path d="M159.783 49.5239C159.783 50.6051 159.783 51.6863 159.783 52.7674C159.714 55.2152 159.52 57.6579 159.201 60.0859" stroke="black" stroke-width="1.73316" stroke-linecap="round" stroke-linejoin="round"/>
<path d="M159.99 52.7676C164.43 72.297 166.836 92.2335 167.17 112.258C167.17 112.536 167.17 112.827 167.17 113.104" stroke="black" stroke-width="1.73316" stroke-linecap="round" stroke-linejoin="round"/>
<path d="M168.862 100.31C168.197 104.274 167.628 108.266 167.185 112.258C166.353 119.521 165.891 126.807 165.799 134.117" stroke="black" stroke-width="1.73316" stroke-linecap="round" stroke-linejoin="round"/>
<path d="M156.383 82.9419C157.131 92.0208 158.642 101.03 160.111 110.04C161.497 118.578 162.884 127.13 163.618 135.752" stroke="black" stroke-width="1.73316" stroke-linecap="round" stroke-linejoin="round"/>
<path d="M183.802 81.9028C183.677 83.6216 183.539 85.3542 183.414 87.0729" stroke="black" stroke-width="1.73316" stroke-linecap="round" stroke-linejoin="round"/>
<path d="M184.883 84.5924C185.52 83.2063 186.144 81.8203 186.768 80.4342C189.54 74.474 192.312 68.5 195.154 62.4151C195.154 61.6666 195.154 61.029 195.154 60.3359" stroke="black" stroke-width="1.73316" stroke-linecap="round" stroke-linejoin="round"/>
<path d="M186.881 80.4888C186.99 83.5317 187.575 86.5389 188.613 89.4013" stroke="black" stroke-width="1.73316" stroke-linecap="round" stroke-linejoin="round"/>
<path d="M175.93 173.079C184.69 175.449 193.949 175.38 202.917 176.503C207.121 177.035 211.287 177.831 215.392 178.887L217.637 179.497C225.938 181.829 233.904 185.22 241.339 189.587" stroke="black" stroke-width="1.73316" stroke-linecap="round" stroke-linejoin="round"/>
<path d="M236.305 159.995L240.713 180.647C241.489 183.571 241.844 186.591 241.766 189.615V189.685" stroke="black" stroke-width="1.73316" stroke-linecap="round" stroke-linejoin="round"/>
<path d="M171.342 174.992C171.762 183.33 175.458 191.165 181.626 196.793C187.793 202.42 195.933 205.385 204.275 205.042C208.574 205.056 212.751 203.614 216.126 200.953C219.342 198.181 221.102 193.44 219.591 189.462L215.35 179.15" stroke="black" stroke-width="1.73316" stroke-linecap="round" stroke-linejoin="round"/>
<path d="M167.475 176.461C167.222 179.695 167.296 182.946 167.697 186.164C168.696 194.041 171.392 201.607 175.598 208.341C176.083 209.131 176.596 209.894 177.136 210.642" stroke="black" stroke-width="1.73316" stroke-linecap="round" stroke-linejoin="round"/>
<path d="M166.962 186.33C166.13 190.71 165.423 195.256 166.463 199.581C167.502 203.906 170.732 208.022 175.126 208.771" stroke="black" stroke-width="1.73316" stroke-linecap="round" stroke-linejoin="round"/>
<path d="M162.276 179.205C159.681 188.434 160.548 198.293 164.716 206.927C168.666 215.049 175.805 221.827 184.481 224.281C186.444 224.825 188.462 225.145 190.497 225.237C197.427 225.583 204.205 223.463 207.13 220.344C210.772 218.735 214.011 216.337 216.615 213.324C219.218 210.311 221.119 206.758 222.183 202.921C223.128 198.925 223.21 194.774 222.424 190.744C221.638 186.714 220.001 182.899 217.623 179.552" stroke="black" stroke-width="1.73316" stroke-linecap="round" stroke-linejoin="round"/>
<path d="M190.482 225.432C194.199 239.271 196.9 253.363 198.563 267.596" stroke="black" stroke-width="1.73316" stroke-linecap="round" stroke-linejoin="round"/>
<path d="M142.982 135.169L146.697 140.714" stroke="black" stroke-width="1.73316" stroke-linecap="round" stroke-linejoin="round"/>
<path d="M81.1191 55.9829C81.4055 55.7114 81.7466 55.5042 82.1195 55.3752C82.4923 55.2461 82.8885 55.1981 83.2814 55.2344C84.0698 55.3202 84.8357 55.5504 85.5408 55.9136C88.1917 57.1378 90.5536 58.9093 92.4712 61.1114C94.9198 63.2441 97.9154 64.6506 101.12 65.1726" stroke="black" stroke-width="0.86658" stroke-linecap="round" stroke-linejoin="round"/>
<path d="M105.808 62.8999L101.83 66.9057" stroke="black" stroke-width="0.86658" stroke-linecap="round" stroke-linejoin="round"/>
<path d="M90.5879 45.9482C95.4765 49.8472 99.8212 54.383 103.506 59.4349" stroke="black" stroke-width="0.86658" stroke-linecap="round" stroke-linejoin="round"/>
<path d="M105.557 49.5103C106.683 53.3668 107.215 57.3722 107.137 61.389" stroke="black" stroke-width="0.86658" stroke-linecap="round" stroke-linejoin="round"/>
<path d="M114.055 55.7471C112.376 58.5087 111.075 61.4829 110.188 64.5903" stroke="black" stroke-width="0.86658" stroke-linecap="round" stroke-linejoin="round"/>
<path d="M109.508 69.1646C109.563 72.1031 109.623 75.0415 109.688 77.98" stroke="black" stroke-width="0.86658" stroke-linecap="round" stroke-linejoin="round"/>
<path d="M111.52 66.268C111.978 66.6844 112.528 66.9869 113.125 67.1506C113.723 67.3144 114.35 67.3349 114.957 67.2105L123.412 61.3197C124.396 60.5442 125.514 59.9569 126.711 59.5871C127.309 59.4048 127.945 59.3872 128.553 59.536C129.16 59.6848 129.716 59.9945 130.162 60.4326" stroke="black" stroke-width="0.86658" stroke-linecap="round" stroke-linejoin="round"/>
<path d="M95.8962 68.9421C95.7322 67.9121 95.3323 66.9341 94.7276 66.0843C94.123 65.2345 93.33 64.5361 92.4107 64.0435C91.4914 63.551 90.4706 63.2777 89.4282 63.245C88.3858 63.2123 87.3499 63.4212 86.4016 63.8552C84.6777 64.4116 83.1864 65.5228 82.1602 67.0155C86.7342 67.4313 91.239 68.1243 95.8962 68.9421Z" stroke="black" stroke-width="0.86658" stroke-linecap="round" stroke-linejoin="round"/>
<path d="M94.3161 73.1846C91.1495 76.1182 87.2446 78.1353 83.0195 79.02" stroke="black" stroke-width="0.86658" stroke-linecap="round" stroke-linejoin="round"/>
<path d="M115.441 73.6694C116.262 75.359 117.45 76.8442 118.917 78.0168C120.385 79.1893 122.095 80.0197 123.924 80.4474" stroke="black" stroke-width="0.86658" stroke-linecap="round" stroke-linejoin="round"/>
<path d="M127.667 70.7025C123.275 70.0654 118.825 69.9305 114.402 70.3006C115.431 69.0635 116.614 67.964 117.923 67.0294C119.258 66.0971 120.901 65.7149 122.511 65.9621C124.895 66.4611 126.475 68.6511 127.667 70.7025Z" stroke="black" stroke-width="0.86658" stroke-linecap="round" stroke-linejoin="round"/>
<path d="M101.51 84.3004C101.042 83.2753 100.371 82.3561 99.5372 81.5984C98.7033 80.8407 97.7241 80.2603 96.659 79.8926C95.2591 81.0668 94.2848 82.6695 93.8868 84.4528C93.8804 84.5358 93.8804 84.6193 93.8868 84.7023C93.8173 84.9317 93.795 85.1727 93.8212 85.4109C93.8474 85.6492 93.9216 85.8796 94.0393 86.0884C94.4715 86.4816 95.0351 86.6992 95.6194 86.6983C97.0959 86.9148 98.4727 87.5718 99.5698 88.5834C101.15 90.0387 102.273 92.2981 104.393 92.7416C105.08 92.8389 105.779 92.777 106.438 92.5607C107.096 92.3444 107.696 91.9794 108.191 91.4941C109.232 90.3675 110.161 89.1419 110.963 87.8349C111.641 87.7515 112.278 87.4684 112.794 87.0216C113.31 86.5748 113.681 85.9846 113.86 85.3261C114 84.6471 113.931 83.9417 113.661 83.3031C113.391 82.6646 112.934 82.123 112.35 81.7499" stroke="black" stroke-width="0.86658" stroke-linecap="round" stroke-linejoin="round"/>
<path d="M92.3345 84.0928C88.303 88.6383 85.1157 93.8675 82.923 99.5338C82.4972 100.573 82.1678 101.65 81.9389 102.75C81.5572 104.313 81.6785 105.957 82.2854 107.448" stroke="black" stroke-width="0.86658" stroke-linecap="round" stroke-linejoin="round"/>
<path d="M85.3887 103.152C86.8057 101.261 88.7305 99.8124 90.9389 98.9732C93.1473 98.134 95.5486 97.9392 97.8634 98.4114C102.383 99.5903 107.074 99.9703 111.724 99.5341C112.751 100.003 113.63 100.745 114.265 101.678C114.901 102.612 115.268 103.701 115.328 104.829" stroke="black" stroke-width="0.86658" stroke-linecap="round" stroke-linejoin="round"/>
<path d="M99.3086 103.831C101.144 104.092 102.999 104.194 104.853 104.136C105.934 104.11 107.012 104.022 108.082 103.872" stroke="black" stroke-width="0.86658" stroke-linecap="round" stroke-linejoin="round"/>
<path d="M104.795 104.163L107.886 105.286" stroke="black" stroke-width="0.86658" stroke-linecap="round" stroke-linejoin="round"/>
<path d="M114.939 85.6597C116.781 91.8662 117.797 98.2881 117.961 104.76C117.961 105.245 117.961 105.744 117.961 106.229" stroke="black" stroke-width="0.86658" stroke-linecap="round" stroke-linejoin="round"/>
<path d="M98.502 115.959C100.422 115.833 102.347 116.127 104.143 116.818" stroke="black" stroke-width="0.86658" stroke-linecap="round" stroke-linejoin="round"/>
<path d="M54.3145 60.6124C54.6904 60.2507 55.1747 60.0222 55.693 59.9622C56.2112 59.9021 56.7349 60.0136 57.1837 60.2798C58.0635 60.8318 58.7922 61.5939 59.3044 62.4975C60.928 64.8326 62.2245 67.3789 63.1577 70.0655C62.2115 71.3411 61.6099 72.8389 61.4109 74.4145C61.2118 75.9901 61.422 77.5905 62.0211 79.0613" stroke="black" stroke-width="0.86658" stroke-linecap="round" stroke-linejoin="round"/>
<path d="M57.8896 61.0557C56.9324 61.7537 56.1552 62.6697 55.6225 63.7279C55.0898 64.7861 54.8169 65.9559 54.8264 67.1406C54.8714 69.52 55.582 71.8392 56.8778 73.8354" stroke="black" stroke-width="0.86658" stroke-linecap="round" stroke-linejoin="round"/>
<path d="M60.2905 65.353C59.1084 66.9397 58.429 68.8443 58.3401 70.8208C58.2511 72.7974 58.7567 74.7553 59.7915 76.4417" stroke="black" stroke-width="0.86658" stroke-linecap="round" stroke-linejoin="round"/>
<path d="M59.666 78.7285C59.9599 80.2535 60.6265 81.682 61.6065 82.8868" stroke="black" stroke-width="0.86658" stroke-linecap="round" stroke-linejoin="round"/>
<path d="M137.38 72.9346C135.417 74.4736 133.857 76.4667 132.834 78.7423" stroke="black" stroke-width="0.86658" stroke-linecap="round" stroke-linejoin="round"/>
<path d="M135.136 75.5542C135.095 79.1206 133.794 82.5575 131.463 85.2568" stroke="black" stroke-width="0.86658" stroke-linecap="round" stroke-linejoin="round"/>
<path d="M89.0511 68.1255C88.9629 68.2122 88.9045 68.3248 88.8846 68.4469C88.8646 68.5691 88.8841 68.6944 88.9402 68.8047C89.0351 69.007 89.2017 69.1668 89.4078 69.2532C89.6139 69.3395 89.8447 69.3462 90.0555 69.2719C90.2662 69.1976 90.4418 69.0477 90.5482 68.8512C90.6546 68.6547 90.6842 68.4257 90.6313 68.2086" stroke="black" stroke-width="0.86658" stroke-linecap="round" stroke-linejoin="round"/>
<path d="M120.415 70.2598C120.351 70.351 120.316 70.46 120.316 70.5716C120.316 70.6833 120.351 70.7922 120.415 70.8835C120.491 71.0028 120.59 71.1052 120.707 71.184C120.824 71.2627 120.956 71.3162 121.095 71.3409C121.231 71.3616 121.371 71.3484 121.502 71.3025C121.632 71.2565 121.749 71.1793 121.843 71.0776C121.935 70.9731 121.996 70.8455 122.021 70.7087C122.045 70.5719 122.032 70.4311 121.982 70.3013" stroke="black" stroke-width="0.86658" stroke-linecap="round" stroke-linejoin="round"/>
<path d="M155.828 38.3797C155.979 38.644 156.229 38.8376 156.522 38.9182C156.816 38.9987 157.13 38.9596 157.394 38.8094C157.913 38.4716 158.323 37.99 158.573 37.4233C159.169 36.5075 159.601 35.4942 159.848 34.4294C159.963 33.896 159.948 33.3426 159.803 32.8164C159.658 32.2902 159.388 31.8069 159.016 31.4077" stroke="black" stroke-width="0.86658" stroke-linecap="round" stroke-linejoin="round"/>
<path d="M74.8008 27.0695C75.8781 26.8076 77.008 26.8618 78.0552 27.2256C79.1025 27.5894 80.0226 28.2475 80.7055 29.1209" stroke="black" stroke-width="0.86658" stroke-linecap="round" stroke-linejoin="round"/>
<path d="M81.3438 22.3848C83.0289 25.849 85.8248 28.6497 89.286 30.3409" stroke="black" stroke-width="0.86658" stroke-linecap="round" stroke-linejoin="round"/>
<path d="M88.2598 21.8438C89.6459 23.7011 90.7408 25.7248 92.0576 27.596C93.3193 29.5319 95.0253 31.1382 97.0337 32.281" stroke="black" stroke-width="0.86658" stroke-linecap="round" stroke-linejoin="round"/>
<path d="M103.713 18.877C102.858 19.9595 102.233 21.2045 101.875 22.5362C101.516 23.8679 101.433 25.2585 101.628 26.6236C101.824 27.9887 102.295 29.2998 103.013 30.4771C103.732 31.6545 104.682 32.6736 105.806 33.4724" stroke="black" stroke-width="0.86658" stroke-linecap="round" stroke-linejoin="round"/>
</svg>
