<svg width="207" height="207" viewBox="0 0 207 207" fill="none" xmlns="http://www.w3.org/2000/svg">
<path d="M204.14 54.2497L204.21 53.9497L205.57 54.2597C194.579 56.8731 184.019 61.0454 174.21 66.6497V66.9297C170.816 67.8431 167.456 68.8431 164.13 69.9297L164.02 69.5897C166.654 66.9975 169.64 64.7891 172.89 63.0297C176.047 61.2922 179.366 59.8655 182.8 58.7697C189.71 56.5497 196.94 55.3997 204.14 54.2497Z" fill="#D1D0D1"/>
<path d="M170.319 115.4L173.499 130.3C174.059 132.41 174.315 134.588 174.259 136.77H173.969C168.605 133.62 162.858 131.173 156.869 129.49L155.249 129.05C152.288 128.288 149.282 127.714 146.249 127.33C139.749 126.52 133.099 126.57 126.779 124.86L126.629 124.52C129.589 123.187 132.589 121.96 135.629 120.84C145.379 121.59 155.309 122.05 164.629 119.16C165.405 118.6 166.134 117.978 166.809 117.3C167.844 116.416 168.999 115.682 170.239 115.12L170.319 115.4Z" fill="#D1D0D1"/>
<path d="M126.549 150.36C123.516 145.501 121.571 140.042 120.849 134.36L120.289 134.44C119.689 137.6 119.179 140.88 119.929 144C120.679 147.12 123.009 150.09 126.179 150.63L126.549 150.36ZM156.869 129.47C158.584 131.885 159.765 134.638 160.333 137.545C160.9 140.452 160.841 143.447 160.159 146.33C159.392 149.098 158.019 151.662 156.141 153.835C154.263 156.009 151.926 157.739 149.299 158.9C147.159 161.15 142.299 162.68 137.299 162.43C135.831 162.364 134.375 162.133 132.959 161.74C126.659 159.97 121.519 155.12 118.659 149.22C115.652 142.991 115.026 135.878 116.899 129.22V129.17C118.159 128.5 119.429 127.86 120.699 127.24C121.579 126.8 122.469 126.37 123.359 125.96L123.459 126.18C123.762 132.196 126.429 137.849 130.878 141.909C135.328 145.969 141.2 148.107 147.219 147.86C150.32 147.87 153.333 146.83 155.769 144.91C158.089 142.91 159.359 139.49 158.269 136.62L155.209 129.18V128.99L156.869 129.47Z" fill="#A55DA1"/>
<path d="M123.01 81.8497C122.72 84.2234 122.791 86.6273 123.22 88.9797C123.587 84.2749 124.922 79.6967 127.142 75.5323C129.362 71.3679 132.419 67.7071 136.12 64.7797C136.961 64.103 137.836 63.4689 138.74 62.8797C138.44 61.7697 138.28 60.9797 138.12 60.1797L140.43 60.5997C140.43 59.4797 140.43 58.4897 140.43 57.4997C142.43 57.8297 144.65 58.1097 146.3 56.9497C147.067 56.3441 147.714 55.6016 148.21 54.7597L153.21 47.3097C154.156 46.6282 155.322 46.325 156.48 46.4597C157.363 46.6502 158.27 46.7075 159.17 46.6297C160.18 46.3781 161.051 45.7432 161.6 44.8597C162.145 43.9875 162.568 43.0456 162.86 42.0597C164.86 43.0597 167.21 44.0597 169.6 45.0597C167.958 43.6973 166.389 42.2486 164.9 40.7197C177.523 46.469 190.702 50.9088 204.23 53.9697L204.16 54.2697C196.96 55.4197 189.73 56.5697 182.79 58.8197C179.357 59.9155 176.038 61.3422 172.88 63.0797L172.74 62.8197C173.317 61.8078 173.546 60.6342 173.39 59.4797C173.222 58.3365 172.835 57.2365 172.25 56.2397C172.027 55.799 171.725 55.4026 171.36 55.0697C171.176 54.9085 170.959 54.79 170.724 54.7226C170.489 54.6551 170.242 54.6405 170 54.6797C165.319 58.3291 160.008 61.0881 154.33 62.8197C150.397 67.123 145.943 70.9189 141.07 74.1197C136.806 81.151 131.749 87.6702 126 93.5497C123.989 94.972 121.846 96.1976 119.6 97.2097L119.41 96.7797C119.49 91.5064 119.823 86.2497 120.41 81.0097C120.41 81.2097 120.41 81.4197 120.41 81.6197L123.01 81.8497Z" fill="#D1D0D1"/>
<path d="M120.849 134.32C121.572 140.002 123.516 145.461 126.549 150.32L126.179 150.55C123.009 150.01 120.679 147.05 119.929 143.92C119.179 140.79 119.689 137.52 120.289 134.36L120.849 134.32Z" fill="#A55DA1"/>
<path d="M105.659 101.5L105.319 101.57C98.7792 102.94 92.1092 103.76 85.5992 105.26C84.8063 104.886 83.9746 104.601 83.1191 104.41L83.1791 104.15C83.9976 101.002 85.0953 97.933 86.4591 94.9799C87.8273 92.0101 89.9473 89.449 92.6092 87.5499C96.8292 84.7299 102.369 84.4299 107.269 85.7499C102.956 82.7699 98.5625 79.9233 94.0891 77.2099L94.2691 76.9199L111.029 79.4899L111.129 81.3099C111.759 87.0599 111.919 93.7299 112.549 99.4799L112.649 99.8199C110.359 100.43 108.019 101 105.659 101.5Z" fill="#A55DA1"/>
<path d="M111.139 81.23L111.039 79.41C111.959 78.78 114.229 78.91 115.239 79.41H115.319C116.319 85.58 117.319 91.74 117.849 97.96C116.159 98.64 114.429 99.24 112.659 99.78L112.559 99.44C111.929 93.65 111.769 86.98 111.139 81.23Z" fill="#A55DA1"/>
<path d="M111.83 27.6297C111.472 28.0878 111.081 28.519 110.66 28.9197L110.48 28.4797C108.668 24.8557 107.192 21.0732 106.07 17.1797C116.194 14.0266 126.535 11.6168 137.01 9.96973C135.51 11.5174 134.17 13.2126 133.01 15.0297C133.01 15.2097 132.92 15.2697 132.84 15.3097L136.18 14.2297L134.35 17.9297C135.46 18.1997 136.48 18.2197 137.43 18.5397C137.915 18.6784 138.362 18.9249 138.738 19.2609C139.114 19.5969 139.408 20.0136 139.6 20.4797C139.751 21.0555 139.841 21.6453 139.87 22.2397C140.108 23.5362 140.817 24.6992 141.859 25.5057C142.902 26.3122 144.206 26.7053 145.52 26.6097C142.52 27.4797 141.16 30.8997 141.65 33.7997C142.14 36.6997 144.02 39.1497 145.94 41.3797C144.131 41.9652 142.367 42.6804 140.66 43.5197C136.809 45.3954 133.271 47.8544 130.17 50.8097C130.17 57.8097 127.91 64.0197 125.88 70.1097C124.505 73.9093 123.539 77.845 123 81.8497L120.44 81.5697C120.44 81.3697 120.44 81.1597 120.44 80.9597C120.199 66.5127 118.463 52.1294 115.26 38.0397H115.08C115.08 37.2597 115.08 36.4797 115.08 35.6997L114.6 35.6097C115.788 34.918 116.792 33.9511 117.528 32.7904C118.265 31.6296 118.711 30.309 118.83 28.9397C118.94 27.5615 118.688 26.1784 118.099 24.9277C117.509 23.677 116.603 22.6021 115.47 21.8097C115.003 21.8926 114.585 22.15 114.3 22.5297C114.199 22.6491 114.111 22.78 114.04 22.9197C113.777 23.4869 113.563 24.0757 113.4 24.6797C113.051 25.7461 112.52 26.7441 111.83 27.6297Z" fill="#D1D0D1"/>
<path d="M66.1099 150.72C67.5999 151.12 69.0599 151.62 70.5399 152.02C75.7291 153.422 81.1845 153.518 86.4199 152.3C88.9718 151.797 91.3697 150.701 93.4199 149.1C94.4401 148.287 95.2588 147.25 95.8121 146.068C96.3655 144.887 96.6385 143.594 96.6099 142.29L96.3199 141.9C102.852 137.181 109.717 132.94 116.86 129.21V129.26C114.987 135.918 115.613 143.031 118.62 149.26C121.47 155.12 126.62 160.01 132.88 161.78C134.296 162.173 135.752 162.404 137.22 162.47V162.65C139.901 172.635 141.85 182.802 143.05 193.07L142.66 193.44C135.72 195.24 129.46 199.05 122.61 201.18C117.27 202.84 111.61 202.28 106.07 203.24L99.9599 204.3C97.1499 204.79 94.3399 205.3 91.4899 205.49C87.0213 205.732 82.5405 205.618 78.0899 205.15C66.7966 204.223 55.5399 203.027 44.3199 201.56C43.1799 195.833 42.0432 190.1 40.9099 184.36L41.1099 184.19C34.2899 175.203 27.8299 165.947 21.7299 156.42L21.8299 156.28C20.4115 155.273 19.0741 154.156 17.8299 152.94C15.6222 150.856 14.0484 148.19 13.2899 145.25L13.3399 145.19C10.9974 143.181 8.92364 140.879 7.16992 138.34L9.0899 138.2C18.4568 143.73 29.4482 145.85 40.1999 144.2C42.9199 145.51 45.1099 147.75 47.7399 149.26C51.106 151.177 55.0481 151.823 58.8499 151.08V150.91C61.1893 151.505 63.6405 151.505 65.9799 150.91L66.1099 150.72Z" fill="#A55DA1"/>
<path d="M66.0795 150.82C63.8508 151.376 61.5235 151.405 59.2813 150.907C57.0391 150.409 54.9434 149.397 53.1595 147.95C51.4045 146.47 50.0188 144.601 49.1127 142.492C48.2065 140.383 47.8048 138.092 47.9395 135.8C48.1695 132.37 49.5995 129.15 51.1595 126.08C54.1218 120.247 57.606 114.695 61.5695 109.49C62.9574 108.221 64.5912 107.251 66.3695 106.64C68.5175 105.87 70.8063 105.574 73.0795 105.77C74.5371 104.958 76.1293 104.416 77.7795 104.17C78.9572 103.987 80.1533 103.953 81.3395 104.07C81.939 104.129 82.5337 104.23 83.1195 104.37C83.9749 104.561 84.8066 104.846 85.5995 105.22C84.7928 105.407 83.9828 105.607 83.1695 105.82V105.75C78.5856 108.542 75.2222 112.959 73.7495 118.12C72.3117 123.294 72.2463 128.753 73.5595 133.96C74.5595 138.4 76.5595 142.89 80.2895 145.51C84.0195 148.13 88.5195 149.22 91.3495 145.65C92.9895 144.37 94.6562 143.12 96.3495 141.9L96.6395 142.29C96.6681 143.594 96.395 144.887 95.8417 146.068C95.2884 147.25 94.4697 148.287 93.4495 149.1C91.3993 150.701 89.0014 151.797 86.4495 152.3C81.2141 153.518 75.7587 153.422 70.5695 152.02C69.0895 151.62 67.6295 151.12 66.1395 150.72L66.0795 150.82ZM60.0795 133.04C61.0745 124.575 64.3899 116.549 69.6595 109.85L69.4895 109.72C66.0995 112.72 62.6995 115.87 60.4295 119.81C58.1595 123.75 57.1695 128.65 58.8395 132.87L60.0795 133.04Z" fill="#A55DA1"/>
<path d="M81.4002 103.32C80.7835 97.7297 81.5776 92.074 83.7102 86.8699L83.6303 86.7599C83.9586 86.5649 84.2639 86.3334 84.5403 86.0699C85.68 84.8021 86.3996 83.2128 86.6003 81.5199H86.6603C88.6476 79.889 90.1717 77.7648 91.0803 75.3599L91.3503 75.4599L94.1103 77.1199C98.5903 79.8332 102.984 82.6799 107.29 85.6599C102.39 84.3399 96.8503 84.6599 92.6303 87.4599C89.9684 89.3589 87.8485 91.92 86.4803 94.8899C85.1165 97.8429 84.0188 100.912 83.2003 104.06L83.1403 104.32C82.5545 104.179 81.9597 104.079 81.3603 104.02L81.4002 103.32Z" fill="#A55DA1"/>
<path d="M69.6588 109.85C64.3928 116.55 61.0809 124.576 60.0888 133.04L58.8388 132.87C57.1688 128.65 58.1688 123.74 60.4288 119.81C62.6888 115.88 66.0988 112.73 69.4888 109.72L69.6588 109.85Z" fill="#A55DA1"/>
<path d="M19.8495 111.82C27.1152 111.145 34.2907 109.714 41.2595 107.55C41.8795 107.31 42.5095 107.08 43.1295 106.87V106.76C35.0856 106.482 27.098 108.2 19.8795 111.76L19.8495 111.82ZM53.1595 147.95C54.8466 149.336 56.8263 150.32 58.9495 150.83V151C55.1477 151.743 51.2055 151.097 47.8395 149.18C45.2095 147.67 43.0195 145.43 40.2995 144.12C29.5478 145.77 18.5564 143.65 9.18948 138.12L7.26946 138.26C2.7213 131.762 0.484855 123.926 0.918176 116.007C1.3515 108.087 4.42953 100.542 9.65948 94.5797C10.0795 94.1097 10.4995 93.6397 10.9395 93.1997L13.7695 93.8197C19.8796 92.7981 26.1546 93.5512 31.8495 95.9897C37.235 98.2915 42.2949 101.29 46.8995 104.91L47.6395 105.46C50.0119 104.808 52.419 104.291 54.8495 103.91C56.8774 103.506 58.9563 103.425 61.0095 103.67C63.0793 103.926 64.976 104.954 66.3195 106.55V106.64C64.5412 107.251 62.9074 108.221 61.5195 109.49C57.5713 114.709 54.1038 120.275 51.1595 126.12C49.5995 129.19 48.1595 132.41 47.9395 135.84C47.8111 138.125 48.2159 140.408 49.1218 142.51C50.0278 144.612 51.4101 146.474 53.1595 147.95Z" fill="#A55DA1"/>
<path d="M47.2895 104.41C50.1977 101.509 53.2765 98.7839 56.5095 96.2498C58.1595 95.0198 60.1695 93.8298 62.1695 94.3498C64.8995 95.0498 65.9595 98.4698 68.2995 100.02L70.8595 99.0998C71.6746 100.013 72.5392 100.881 73.4495 101.7L77.7694 104.09V104.17C76.1192 104.416 74.5271 104.958 73.0695 105.77C70.7962 105.573 68.5074 105.87 66.3595 106.64V106.55C65.0159 104.955 63.1193 103.926 61.0495 103.67C58.9963 103.425 56.9173 103.506 54.8895 103.91C52.459 104.291 50.0518 104.808 47.6794 105.46L46.9395 104.91L47.2895 104.41Z" fill="#A55DA1"/>
<path d="M47.289 104.41L46.919 104.91C42.3144 101.291 37.2545 98.2916 31.869 95.9899C26.1741 93.5514 19.8992 92.7982 13.789 93.8199L10.959 93.1999C17.509 86.4599 26.389 82.3799 35.059 78.6299C35.059 78.9299 35.149 79.2299 35.219 79.5299C35.8584 81.627 36.8528 83.599 38.159 85.3599C42.0091 91.2907 45.0778 97.6936 47.289 104.41Z" fill="#A55DA1"/>
<path d="M40.1699 72.1198C40.2528 71.3538 40.4993 70.6145 40.8926 69.952C41.286 69.2895 41.8171 68.7193 42.4499 68.2798H43.8999C43.9781 70.7661 43.8913 73.2549 43.6399 75.7298L43.4999 75.8498C42.3799 74.5898 41.2699 73.3464 40.1699 72.1198Z" fill="#A55DA1"/>
<path d="M57.5698 88.51C60.5698 90.51 63.8998 92.23 66.6298 94.66C67.5369 95.4822 68.3982 96.3535 69.2098 97.27L70.8598 99.12L68.2998 100.04C65.9598 98.49 64.8998 95.04 62.1698 94.37C60.1698 93.85 58.1698 95.04 56.5098 96.27C53.2768 98.8041 50.198 101.529 47.2898 104.43C45.0786 97.7137 42.0099 91.3109 38.1598 85.38C36.8536 83.6191 35.8592 81.6472 35.2198 79.55C35.1498 79.25 35.0998 78.95 35.0598 78.65C34.8934 76.804 35.1605 74.9446 35.8398 73.22C37.1498 69.68 39.9298 66.52 43.5798 65.54H43.7498C43.8298 66.44 43.8798 67.34 43.8998 68.25H42.4498C41.817 68.6895 41.2859 69.2598 40.8925 69.9223C40.4992 70.5848 40.2527 71.324 40.1698 72.09C41.2698 73.3234 42.3798 74.55 43.4998 75.77C47.6577 80.5697 52.3822 84.8476 57.5698 88.51Z" fill="#A55DA1"/>
<path d="M43.1296 106.87C42.5096 107.08 41.8796 107.31 41.2596 107.55C34.2908 109.714 27.1153 111.145 19.8496 111.82V111.77C27.0682 108.21 35.0557 106.492 43.0996 106.77L43.1296 106.87Z" fill="#A55DA1"/>
<path d="M44.3203 201.52C55.5536 202.993 66.8103 204.19 78.0903 205.11C82.5409 205.578 87.0217 205.692 91.4903 205.45C94.3403 205.23 97.1503 204.75 99.9603 204.26L106.07 203.2C111.58 202.2 117.27 202.8 122.61 201.14C129.46 199.01 135.72 195.2 142.66 193.4" stroke="#A55DA1" stroke-linecap="round" stroke-linejoin="round"/>
<path d="M45.7504 44.9401C45.2459 43.5097 44.4413 42.2037 43.3904 41.1101C42.855 40.5739 42.1672 40.2161 41.4208 40.0854C40.6745 39.9547 39.906 40.0577 39.2204 40.3801C38.244 41.1062 37.585 42.1806 37.3804 43.3801C37.1314 44.3075 36.9608 45.2541 36.8703 46.2101C36.6026 48.8717 36.9402 51.5595 37.858 54.0722C38.7759 56.585 40.2501 58.8576 42.1704 60.7201C42.1148 61.2447 42.1688 61.7751 42.3288 62.2777C42.4889 62.7803 42.7516 63.2442 43.1004 63.6401C43.2775 63.8344 43.4753 64.0087 43.6904 64.1601C44.3347 64.6318 45.1118 64.8873 45.9104 64.8901" stroke="#1D1D1B" stroke-linecap="round" stroke-linejoin="round"/>
<path d="M52.66 9.37012C51.84 9.71012 51.02 10.0501 50.2 10.4201C47.2 11.7801 44.25 13.4201 42.26 16.0301C39.03 20.2701 39.01 26.0301 39.15 31.3601V31.5201" stroke="#1D1D1B" stroke-linecap="round" stroke-linejoin="round"/>
<path d="M40.489 30.0498C39.9966 30.4474 39.5383 30.8856 39.119 31.3598C37.2997 33.3168 36.1017 35.7694 35.6762 38.4073C35.2508 41.0453 35.6172 43.7501 36.729 46.1798" stroke="#1D1D1B" stroke-linecap="round" stroke-linejoin="round"/>
<path d="M50.1699 10.4099C52.5623 6.60862 56.1445 3.70506 60.3587 2.1514C64.5729 0.597752 69.1826 0.481222 73.4699 1.81995" stroke="#1D1D1B" stroke-linecap="round" stroke-linejoin="round"/>
<path d="M67.1191 2.7399C69.2291 2.4699 71.3491 2.19991 73.4691 2.02991C75.8877 1.8149 78.3206 1.8149 80.7391 2.02991C85.2691 2.47991 89.8292 4.02991 93.0692 7.27991C93.951 8.27008 94.8927 9.20518 95.8892 10.0799C96.4078 10.5275 97.0269 10.8431 97.6937 10.9998C98.3606 11.1565 99.0555 11.1497 99.7191 10.9799C99.3287 11.3764 98.8609 11.6884 98.3448 11.8966C97.8288 12.1047 97.2754 12.2046 96.7191 12.1899" stroke="#1D1D1B" stroke-linecap="round" stroke-linejoin="round"/>
<path d="M86.4004 11.0398C88.0862 10.4786 89.8791 10.3157 91.6384 10.5639C93.3977 10.812 95.0756 11.4643 96.5404 12.4698C97.2826 12.9539 97.9699 13.5172 98.5904 14.1498C100.087 15.7935 101.232 17.7246 101.958 19.8256C102.683 21.9265 102.973 24.1531 102.81 26.3698C102.71 28.2898 102.33 30.1998 102.4 32.1198C102.384 33.0822 102.571 34.0373 102.948 34.9228C103.326 35.8084 103.885 36.6047 104.59 37.2598" stroke="#1D1D1B" stroke-linecap="round" stroke-linejoin="round"/>
<path d="M53.9002 21.6001C52.962 23.451 52.613 25.5449 52.9002 27.6001C53.225 29.6766 54.2021 31.5959 55.6902 33.0801C55.5957 33.759 55.3486 34.4077 54.9676 34.9775C54.5866 35.5473 54.0815 36.0234 53.4902 36.3701C52.3022 37.0478 51.2206 37.897 50.2802 38.8901C49.5042 40.1373 48.9652 41.5171 48.6902 42.9601C48.5509 43.692 48.2519 44.3842 47.8146 44.9874C47.3773 45.5906 46.8125 46.09 46.1602 46.4501L45.7402 44.9201" stroke="#1D1D1B" stroke-linecap="round" stroke-linejoin="round"/>
<path d="M46.1602 57.9199C46.7802 60.1699 46.4902 62.5699 46.3202 64.9199C46.3202 64.9999 46.3202 65.0799 46.3202 65.1599C46.1502 67.5699 46.1701 70.1599 47.4001 72.2199C49.3401 75.5199 53.7002 76.6799 55.8602 79.8299" stroke="#1D1D1B" stroke-linecap="round" stroke-linejoin="round"/>
<path d="M55.2793 77C55.4221 77.9443 55.6462 78.8744 55.9493 79.78C56.4625 81.5453 57.4644 83.1296 58.8393 84.35C60.9493 86.13 63.8393 86.63 66.5993 86.7C69.3593 86.77 72.1393 86.48 75.1093 86.81L75.7093 86.97C77.0983 87.3769 78.5328 87.6087 79.9793 87.66C81.2548 87.6939 82.5158 87.383 83.6293 86.76C83.9577 86.565 84.2629 86.3335 84.5393 86.07C85.6791 84.8023 86.3986 83.2129 86.5993 81.52C86.6693 81.14 86.7393 80.76 86.7993 80.39" stroke="#1D1D1B" stroke-linecap="round" stroke-linejoin="round"/>
<path d="M86.6602 81.5298C88.6475 79.8989 90.1716 77.7747 91.0802 75.3698C91.3502 74.7198 91.5701 74.0598 91.7701 73.3698C92.313 71.4056 92.6844 69.3981 92.8802 67.3698C93.0002 66.1798 93.1002 64.9798 93.1902 63.7798" stroke="#1D1D1B" stroke-linecap="round" stroke-linejoin="round"/>
<path d="M91.8887 65.2101C92.2528 64.6966 92.5867 64.1624 92.8887 63.6101C94.0791 61.6635 94.8395 59.4847 95.1187 57.2201L96.0487 52.3501C96.4087 50.4301 96.7787 48.5201 97.1387 46.6001" stroke="#1D1D1B" stroke-linecap="round" stroke-linejoin="round"/>
<path d="M104.719 37.2697H104.599C104.242 37.3505 103.873 37.3549 103.514 37.2825C103.155 37.2101 102.816 37.0626 102.519 36.8497C101.879 36.4297 101.369 35.8497 100.859 35.4697C100.739 37.9869 101.472 40.471 102.939 42.5197C101.386 42.0034 100.003 41.0734 98.939 39.8297C99.6025 40.8249 100.061 41.9424 100.288 43.1168C100.514 44.2913 100.505 45.4991 100.259 46.6697C100.045 47.6326 99.6702 48.5523 99.149 49.3897C98.4185 50.5936 97.4104 51.6052 96.209 52.3397" stroke="#1D1D1B" stroke-linecap="round" stroke-linejoin="round"/>
<path d="M99.3297 49.5298C99.9995 50.4447 100.444 51.5049 100.626 52.624C100.809 53.7431 100.724 54.8895 100.38 55.9698C99.662 58.1202 98.5384 60.1129 97.0697 61.8398C95.6045 63.5622 94.3023 65.4168 93.1797 67.3798" stroke="#1D1D1B" stroke-linecap="round" stroke-linejoin="round"/>
<path d="M75.2895 88.9697C74.4094 91.4823 73.1987 93.8666 71.6895 96.0597" stroke="#1D1D1B" stroke-linecap="round" stroke-linejoin="round"/>
<path d="M79.1504 23.0499L85.7804 19.2099C86.46 18.685 87.317 18.4448 88.1704 18.5399C91.1704 22.1199 92.0004 26.9299 93.2204 31.4199C94.5404 36.2514 96.3882 40.9228 98.7304 45.3499" stroke="#1D1D1B" stroke-linecap="round" stroke-linejoin="round"/>
<path d="M97.2595 46.5201C96.8295 44.3901 96.3695 41.5202 95.9395 39.4102" stroke="#1D1D1B" stroke-linecap="round" stroke-linejoin="round"/>
<path d="M43.6604 64.3701C43.6604 64.7501 43.7304 65.1301 43.7604 65.5101C43.8404 66.4101 43.8904 67.3101 43.9104 68.2201C43.9886 70.7065 43.9018 73.1953 43.6504 75.6701" stroke="#1D1D1B" stroke-linecap="round" stroke-linejoin="round"/>
<path d="M43.5798 65.52C39.9298 66.52 37.1498 69.66 35.8398 73.2C35.1605 74.9246 34.8934 76.784 35.0598 78.63C35.0598 78.93 35.1498 79.23 35.2198 79.53C35.8592 81.6272 36.8536 83.5991 38.1598 85.36C42.0099 91.2908 45.0786 97.6937 47.2898 104.41C50.198 101.509 53.2768 98.7841 56.5098 96.25C58.1598 95.02 60.1698 93.83 62.1698 94.35C64.8998 95.05 65.9598 98.47 68.2998 100.02C68.4575 100.123 68.6211 100.216 68.7898 100.3" stroke="#1D1D1B" stroke-linecap="round" stroke-linejoin="round"/>
<path d="M42.4499 68.27C41.8171 68.7095 41.286 69.2798 40.8926 69.9423C40.4993 70.6048 40.2528 71.344 40.1699 72.11C41.2699 73.3433 42.3799 74.57 43.4999 75.79C47.659 80.5827 52.3835 84.8538 57.5699 88.51C60.5699 90.51 63.8999 92.23 66.6299 94.66C67.537 95.4822 68.3983 96.3535 69.2099 97.27L70.8599 99.12C71.675 100.033 72.5396 100.901 73.4499 101.72L77.7699 104.11" stroke="#1D1D1B" stroke-linecap="round" stroke-linejoin="round"/>
<path d="M83.7102 86.8701C81.5776 92.0742 80.7835 97.7299 81.4002 103.32" stroke="#1D1D1B" stroke-linecap="round" stroke-linejoin="round"/>
<path d="M83.1797 104.12C83.9982 100.972 85.0959 97.9031 86.4597 94.9501C87.8279 91.9803 89.9478 89.4191 92.6097 87.5201C96.8297 84.7001 102.37 84.4001 107.27 85.7201H107.33" stroke="#1D1D1B" stroke-linecap="round" stroke-linejoin="round"/>
<path d="M91.3398 75.4697L94.0999 77.1297C98.5799 79.8431 102.973 82.6897 107.28 85.6697" stroke="#1D1D1B" stroke-linecap="round" stroke-linejoin="round"/>
<path d="M94.2793 76.8398L111.039 79.4099C111.959 78.7799 114.229 78.9099 115.239 79.4099" stroke="#1D1D1B" stroke-linecap="round" stroke-linejoin="round"/>
<path d="M111.139 81.23C111.769 86.98 111.929 93.65 112.559 99.4" stroke="#1D1D1B" stroke-linecap="round" stroke-linejoin="round"/>
<path d="M106.879 90.6899C107.473 94.0658 108.565 97.3347 110.119 100.39" stroke="#1D1D1B" stroke-linecap="round" stroke-linejoin="round"/>
<path d="M35.0799 78.6201C26.4099 82.3701 17.5299 86.4501 10.9799 93.1901C10.5399 93.6301 10.1199 94.1001 9.69992 94.5701C6.60882 98.1252 4.25148 102.257 2.76367 106.727C1.27586 111.197 0.686948 115.917 1.03085 120.615C1.37475 125.314 2.64467 129.898 4.76748 134.103C6.8903 138.309 9.82408 142.053 13.3999 145.12C14.3991 145.988 15.4511 146.793 16.5499 147.53" stroke="#1D1D1B" stroke-linecap="round" stroke-linejoin="round"/>
<path d="M13.3496 145.21C14.1081 148.15 15.6819 150.816 17.8896 152.9C19.1338 154.116 20.4712 155.233 21.8896 156.24C22.8896 157 23.9896 157.72 25.0496 158.44" stroke="#1D1D1B" stroke-linecap="round" stroke-linejoin="round"/>
<path d="M21.7695 156.38C27.8562 165.887 34.3162 175.143 41.1495 184.15C42.1162 185.443 43.0962 186.723 44.0895 187.99" stroke="#1D1D1B" stroke-linecap="round" stroke-linejoin="round"/>
<path d="M40.9492 184.32C42.0892 190.053 43.2259 195.786 44.3592 201.52V201.69" stroke="#1D1D1B" stroke-linecap="round" stroke-linejoin="round"/>
<path d="M83.2599 105.72L83.14 105.79C78.5753 108.578 75.2241 112.978 73.7499 118.12C72.3122 123.294 72.2467 128.753 73.5599 133.96C74.5599 138.4 76.5599 142.89 80.2899 145.51C84.0199 148.13 88.5199 149.22 91.3499 145.65" stroke="#1D1D1B" stroke-linecap="round" stroke-linejoin="round"/>
<path d="M71.5199 107.62C70.8699 108.34 70.2499 109.09 69.6699 109.85C64.4039 116.551 61.092 124.576 60.0999 133.04C60.0332 133.707 59.9733 134.373 59.9199 135.04" stroke="#1D1D1B" stroke-linecap="round" stroke-linejoin="round"/>
<path d="M58.8486 132.87C57.1786 128.65 58.1786 123.74 60.4386 119.81C62.6986 115.88 66.1086 112.73 69.4986 109.72" stroke="#1D1D1B" stroke-linecap="round" stroke-linejoin="round"/>
<path d="M85.5995 105.22C84.8066 104.846 83.9749 104.561 83.1195 104.37C82.5337 104.23 81.939 104.129 81.3395 104.07C80.1533 103.953 78.9572 103.987 77.7795 104.17C76.1293 104.416 74.5371 104.958 73.0795 105.77C70.8063 105.574 68.5175 105.87 66.3695 106.64C64.5912 107.251 62.9574 108.221 61.5695 109.49C57.604 114.707 54.1197 120.273 51.1595 126.12C49.5995 129.19 48.1595 132.41 47.9395 135.84C47.8048 138.132 48.2065 140.423 49.1127 142.532C50.0188 144.641 51.4045 146.51 53.1595 147.99C54.9434 149.437 57.0391 150.449 59.2813 150.947C61.5235 151.445 63.8508 151.415 66.0795 150.86" stroke="#1D1D1B" stroke-linecap="round" stroke-linejoin="round"/>
<path d="M61.8789 150.12C63.3112 150.151 64.7333 150.37 66.1089 150.77C67.5989 151.17 69.0589 151.67 70.5389 152.07C75.7281 153.472 81.1835 153.568 86.4189 152.35C88.9708 151.847 91.3687 150.751 93.4189 149.15C94.4391 148.337 95.2578 147.3 95.8111 146.118C96.3645 144.937 96.6375 143.644 96.6089 142.34" stroke="#1D1D1B" stroke-linecap="round" stroke-linejoin="round"/>
<path d="M10.209 127.28C18.1285 126.243 25.8397 123.986 33.069 120.59C40.2919 117.197 47.3045 113.374 54.069 109.14" stroke="#1D1D1B" stroke-linecap="round" stroke-linejoin="round"/>
<path d="M21.0996 135.97C33.6424 129.77 45.3712 122.045 56.0196 112.97" stroke="#1D1D1B" stroke-linecap="round" stroke-linejoin="round"/>
<path d="M14.0488 112.22C15.9888 112.14 17.9288 112.01 19.8488 111.83C27.1146 111.155 34.2901 109.724 41.2588 107.56C41.8788 107.32 42.5088 107.09 43.1288 106.88C44.6155 106.353 46.1255 105.883 47.6588 105.47C50.0312 104.818 52.4383 104.301 54.8688 103.92C56.8967 103.516 58.9757 103.435 61.0288 103.68C63.0986 103.936 64.9953 104.964 66.3388 106.56" stroke="#1D1D1B" stroke-linecap="round" stroke-linejoin="round"/>
<path d="M19.8398 111.77C27.0584 108.21 35.046 106.492 43.0898 106.77" stroke="#1D1D1B" stroke-linecap="round" stroke-linejoin="round"/>
<path d="M13.7891 93.8202C19.8992 92.7985 26.1742 93.5517 31.869 95.9902C37.2545 98.2919 42.3145 101.291 46.9191 104.91L47.6591 105.46" stroke="#1D1D1B" stroke-linecap="round" stroke-linejoin="round"/>
<path d="M9.15039 138.12C18.5173 143.65 29.5087 145.77 40.2604 144.12" stroke="#1D1D1B" stroke-linecap="round" stroke-linejoin="round"/>
<path d="M34.1602 142.76C36.0572 142.798 37.9326 143.17 39.7002 143.86L40.2602 144.12C42.9802 145.43 45.1702 147.67 47.8002 149.18C51.1662 151.097 55.1084 151.743 58.9102 151" stroke="#1D1D1B" stroke-linecap="round" stroke-linejoin="round"/>
<path d="M40.4595 146.66C37.6384 151.986 33.8427 156.735 29.2695 160.66" stroke="#1D1D1B" stroke-linecap="round" stroke-linejoin="round"/>
<path d="M43.7989 150.18L41.8789 169.18" stroke="#1D1D1B" stroke-linecap="round" stroke-linejoin="round"/>
<path d="M97.3301 141.42C103.74 159.32 109.45 179.08 112.09 197.91" stroke="#1D1D1B" stroke-linecap="round" stroke-linejoin="round"/>
<path d="M83.1797 105.86C83.993 105.647 84.803 105.447 85.6097 105.26C92.1197 103.76 98.7897 102.94 105.33 101.57L105.67 101.5C108.02 101 110.36 100.43 112.67 99.7399C114.44 99.1999 116.17 98.5999 117.86 97.9199C118.45 97.6799 119.04 97.42 119.61 97.16C121.855 96.1479 123.999 94.9222 126.01 93.4999C131.752 87.6355 136.805 81.1332 141.07 74.1199C145.934 70.9271 150.381 67.1414 154.31 62.85C159.987 61.1184 165.298 58.3593 169.98 54.7099C170.221 54.6707 170.468 54.6854 170.703 54.7528C170.938 54.8202 171.156 54.9388 171.34 55.1C171.705 55.4328 172.006 55.8293 172.23 56.2699C172.814 57.2667 173.201 58.3668 173.37 59.51C173.525 60.6644 173.297 61.8381 172.72 62.85" stroke="#1D1D1B" stroke-linecap="round" stroke-linejoin="round"/>
<path d="M136.869 88.0499C137.152 87.1811 137.647 86.3963 138.308 85.7662C138.97 85.136 139.778 84.6803 140.659 84.4399" stroke="#1D1D1B" stroke-linecap="round" stroke-linejoin="round"/>
<path d="M139.02 87.6001C140.899 83.6657 143.387 80.0516 146.39 76.8901C152.168 74.2721 158.079 71.9589 164.1 69.9601C167.433 68.8534 170.793 67.8534 174.18 66.9601C175.014 66.9541 175.836 67.1659 176.564 67.5745C177.291 67.9831 177.9 68.5744 178.33 69.2901C178.753 70.0144 179.018 70.8201 179.108 71.6544C179.198 72.4886 179.11 73.3324 178.85 74.1301C178.303 75.8013 177.174 77.2207 175.67 78.1301C174.52 78.8101 173.36 79.4801 172.2 80.1301C167.533 82.7968 162.796 85.3434 157.99 87.7701" stroke="#1D1D1B" stroke-linecap="round" stroke-linejoin="round"/>
<path d="M156.52 85.0098C155.378 87.0131 154.059 88.9106 152.58 90.6797" stroke="#1D1D1B" stroke-linecap="round" stroke-linejoin="round"/>
<path d="M156.43 102.85C158.359 100.999 160.191 99.0496 161.92 97.0098" stroke="#1D1D1B" stroke-linecap="round" stroke-linejoin="round"/>
<path d="M172.269 80.1199C173.078 79.6829 173.938 79.3471 174.829 79.1199C175.732 78.8943 176.687 79.0118 177.509 79.4499C178.475 80.1845 179.177 81.2126 179.509 82.3799C180.329 84.3799 181.149 86.5999 180.389 88.6099C179.821 89.8494 178.899 90.8932 177.739 91.6099C177.469 91.7999 177.189 91.9899 176.919 92.1599C172.35 94.9446 167.568 97.3654 162.619 99.3999" stroke="#1D1D1B" stroke-linecap="round" stroke-linejoin="round"/>
<path d="M177.66 91.6099L177.75 91.6599C179.43 92.4882 180.739 93.9151 181.42 95.6599C182.058 97.4765 182.097 99.4498 181.53 101.29C180.96 101.71 180.39 102.13 179.81 102.53C175.155 105.822 170.156 108.598 164.9 110.81" stroke="#1D1D1B" stroke-linecap="round" stroke-linejoin="round"/>
<path d="M164.66 108.58L160.85 112.45" stroke="#1D1D1B" stroke-linecap="round" stroke-linejoin="round"/>
<path d="M179.94 102.74C180.844 103.651 181.454 104.814 181.692 106.076C181.929 107.338 181.782 108.642 181.27 109.82C180.841 110.61 180.257 111.306 179.552 111.864C178.848 112.423 178.037 112.833 177.17 113.07C175.48 113.66 173.67 113.87 171.96 114.41C171.352 114.6 170.757 114.83 170.18 115.1C168.94 115.661 167.785 116.395 166.75 117.28L166.5 117.5" stroke="#1D1D1B" stroke-linecap="round" stroke-linejoin="round"/>
<path d="M168.66 114.91C168.103 115.772 167.449 116.568 166.71 117.28C166.035 117.958 165.306 118.58 164.53 119.14C155.23 122.03 145.3 121.57 135.53 120.82L133.01 120.62" stroke="#1D1D1B" stroke-linecap="round" stroke-linejoin="round"/>
<path d="M91.3496 145.65C92.9896 144.37 94.6563 143.12 96.3496 141.9C102.882 137.181 109.746 132.94 116.89 129.21C118.15 128.54 119.42 127.9 120.69 127.28C121.57 126.84 122.46 126.41 123.35 126C124.43 125.49 125.52 125 126.61 124.5C129.57 123.167 132.57 121.94 135.61 120.82L135.74 120.77" stroke="#1D1D1B" stroke-linecap="round" stroke-linejoin="round"/>
<path d="M163.99 69.62C166.624 67.0278 169.61 64.8194 172.86 63.06C176.018 61.3224 179.337 59.8957 182.77 58.8C189.71 56.55 196.94 55.4 204.14 54.25" stroke="#1D1D1B" stroke-linecap="round" stroke-linejoin="round"/>
<path d="M132.84 15.3097C132.92 15.3097 132.98 15.2097 133.01 15.0297C134.17 13.2126 135.51 11.5174 137.01 9.96973C126.535 11.6168 116.194 14.0266 106.07 17.1797C107.192 21.0732 108.668 24.8557 110.48 28.4797" stroke="#1D1D1B" stroke-linecap="round" stroke-linejoin="round"/>
<path d="M174.21 66.65C184.019 61.0456 194.579 56.8734 205.57 54.26L204.21 53.95C190.681 50.8891 177.502 46.4492 164.88 40.7C166.368 42.2289 167.937 43.6776 169.58 45.04C167.19 44.04 164.81 43.04 162.84 42.04C162.548 43.0259 162.124 43.9678 161.58 44.84C161.031 45.7235 160.159 46.3584 159.15 46.61C158.25 46.6877 157.343 46.6305 156.46 46.44C155.302 46.3053 154.135 46.6085 153.19 47.29L148.19 54.74C147.694 55.5818 147.046 56.3244 146.28 56.93C144.63 58.09 142.4 57.81 140.41 57.48C140.41 58.48 140.41 59.48 140.41 60.58L138.1 60.16C138.26 60.96 138.42 61.75 138.72 62.86C137.815 63.4492 136.941 64.0833 136.1 64.76C132.398 67.6874 129.342 71.3481 127.122 75.5125C124.902 79.6769 123.567 84.2551 123.2 88.96C122.77 86.6075 122.699 84.2036 122.99 81.83C123.537 77.8346 124.509 73.9091 125.89 70.12C127.89 64.03 130.17 57.78 130.18 50.82C133.277 47.862 136.812 45.3996 140.66 43.52C142.363 42.6811 144.124 41.9659 145.93 41.38C144.01 39.15 142.13 36.7 141.64 33.8C141.15 30.9 142.53 27.48 145.51 26.61C144.195 26.7056 142.891 26.3124 141.849 25.506C140.806 24.6995 140.098 23.5365 139.86 22.24C139.831 21.6455 139.74 21.0557 139.59 20.48C139.398 20.0138 139.103 19.5971 138.727 19.2612C138.351 18.9252 137.904 18.6786 137.42 18.54C136.47 18.22 135.42 18.2 134.34 17.93L136.17 14.23L132.83 15.31H132.75" stroke="#1D1D1B" stroke-linecap="round" stroke-linejoin="round"/>
<path d="M114.66 35.61C115.848 34.9184 116.852 33.9515 117.589 32.7907C118.325 31.63 118.771 30.3094 118.89 28.9401C119.001 27.5618 118.748 26.1787 118.159 24.928C117.57 23.6773 116.663 22.6025 115.53 21.8101C115.063 21.8929 114.645 22.1503 114.36 22.5301C114.259 22.6494 114.172 22.7803 114.1 22.9201C113.837 23.4872 113.623 24.0761 113.46 24.6801C113.102 25.7485 112.56 26.7466 111.86 27.6301C111.493 28.0892 111.092 28.5204 110.66 28.9201C109.58 29.9118 108.36 30.7406 107.04 31.3801C106.74 33.3801 106.4 35.4501 105.98 37.5201C105.62 39.2901 105.2 41.0901 104.71 42.9401C104.557 43.5201 104.397 44.1001 104.23 44.6801C106.438 50.0329 109.268 55.1078 112.66 59.8C112.97 60.26 113.3 60.7101 113.66 61.1501" stroke="#1D1D1B" stroke-linecap="round" stroke-linejoin="round"/>
<path d="M115.25 60.52C115.802 61.3743 116.087 62.3732 116.07 63.39" stroke="#1D1D1B" stroke-linecap="round" stroke-linejoin="round"/>
<path d="M115.109 35.6997C115.109 36.4797 115.109 37.2597 115.109 38.0397C115.06 39.8058 114.92 41.5681 114.689 43.3197" stroke="#1D1D1B" stroke-linecap="round" stroke-linejoin="round"/>
<path d="M115.26 38.04C118.463 52.1297 120.199 66.513 120.44 80.96C120.44 81.16 120.44 81.37 120.44 81.57" stroke="#1D1D1B" stroke-linecap="round" stroke-linejoin="round"/>
<path d="M121.659 72.3398C121.179 75.1998 120.769 78.0798 120.449 80.9598C119.849 86.1998 119.516 91.4565 119.449 96.7298" stroke="#1D1D1B" stroke-linecap="round" stroke-linejoin="round"/>
<path d="M112.66 59.8101C113.2 66.3601 114.29 72.86 115.35 79.36C116.35 85.53 117.35 91.6901 117.88 97.9101" stroke="#1D1D1B" stroke-linecap="round" stroke-linejoin="round"/>
<path d="M132.44 59.0601C132.35 60.3001 132.25 61.5501 132.16 62.7901" stroke="#1D1D1B" stroke-linecap="round" stroke-linejoin="round"/>
<path d="M133.219 61C133.679 60 134.129 59 134.579 58C136.579 53.7 138.579 49.39 140.629 45C140.629 44.46 140.629 44 140.629 43.5" stroke="#1D1D1B" stroke-linecap="round" stroke-linejoin="round"/>
<path d="M134.66 58.04C134.739 60.2354 135.161 62.4049 135.91 64.47" stroke="#1D1D1B" stroke-linecap="round" stroke-linejoin="round"/>
<path d="M126.76 124.84C133.08 126.55 139.76 126.5 146.23 127.31C149.263 127.694 152.269 128.268 155.23 129.03L156.85 129.47C162.839 131.153 168.586 133.599 173.95 136.75" stroke="#1D1D1B" stroke-linecap="round" stroke-linejoin="round"/>
<path d="M170.32 115.4L173.5 130.3C174.06 132.409 174.316 134.588 174.26 136.77V136.82" stroke="#1D1D1B" stroke-linecap="round" stroke-linejoin="round"/>
<path d="M123.449 126.22C123.753 132.236 126.419 137.888 130.869 141.948C135.318 146.008 141.191 148.147 147.209 147.9C150.31 147.909 153.324 146.87 155.759 144.95C158.079 142.95 159.349 139.53 158.259 136.66L155.199 129.22" stroke="#1D1D1B" stroke-linecap="round" stroke-linejoin="round"/>
<path d="M120.659 127.28C120.476 129.613 120.53 131.958 120.819 134.28C121.541 139.962 123.486 145.421 126.519 150.28C126.869 150.85 127.239 151.4 127.629 151.94" stroke="#1D1D1B" stroke-linecap="round" stroke-linejoin="round"/>
<path d="M120.289 134.4C119.689 137.56 119.179 140.84 119.929 143.96C120.679 147.08 123.009 150.05 126.179 150.59" stroke="#1D1D1B" stroke-linecap="round" stroke-linejoin="round"/>
<path d="M116.909 129.26C115.036 135.918 115.662 143.031 118.669 149.26C121.519 155.12 126.669 160.01 132.929 161.78C134.345 162.172 135.8 162.404 137.269 162.47C142.269 162.72 147.159 161.19 149.269 158.94C151.896 157.779 154.233 156.049 156.111 153.875C157.989 151.701 159.361 149.138 160.129 146.37C160.81 143.487 160.87 140.492 160.302 137.585C159.735 134.677 158.554 131.925 156.839 129.51" stroke="#1D1D1B" stroke-linecap="round" stroke-linejoin="round"/>
<path d="M137.26 162.61C139.941 172.594 141.89 182.761 143.09 193.03" stroke="#1D1D1B" stroke-linecap="round" stroke-linejoin="round"/>
<path d="M102.99 97.4897L105.67 101.49" stroke="#1D1D1B" stroke-linecap="round" stroke-linejoin="round"/>
<path d="M58.3594 40.36C58.566 40.1641 58.812 40.0147 59.0811 39.9215C59.3501 39.8284 59.6359 39.7938 59.9194 39.82C60.4882 39.8819 61.0407 40.048 61.5494 40.31C63.4619 41.1932 65.1659 42.4712 66.5494 44.06C68.316 45.5986 70.4771 46.6134 72.7894 46.99" stroke="#1D1D1B" stroke-width="0.5" stroke-linecap="round" stroke-linejoin="round"/>
<path d="M76.1688 45.3501L73.2988 48.2401" stroke="#1D1D1B" stroke-width="0.5" stroke-linecap="round" stroke-linejoin="round"/>
<path d="M65.1895 33.1201C68.7164 35.933 71.8509 39.2054 74.5095 42.8501" stroke="#1D1D1B" stroke-width="0.5" stroke-linecap="round" stroke-linejoin="round"/>
<path d="M75.9902 35.6899C76.8026 38.4723 77.187 41.362 77.1302 44.2599" stroke="#1D1D1B" stroke-width="0.5" stroke-linecap="round" stroke-linejoin="round"/>
<path d="M82.1201 40.1899C80.9091 42.1823 79.9707 44.3281 79.3301 46.5699" stroke="#1D1D1B" stroke-width="0.5" stroke-linecap="round" stroke-linejoin="round"/>
<path d="M78.8398 49.8701C78.8798 51.9901 78.9232 54.1101 78.9698 56.2301" stroke="#1D1D1B" stroke-width="0.5" stroke-linecap="round" stroke-linejoin="round"/>
<path d="M80.2891 47.78C80.6198 48.0805 81.0168 48.2987 81.4477 48.4168C81.8786 48.535 82.3313 48.5498 82.769 48.46L88.869 44.21C89.5788 43.6506 90.3856 43.2268 91.2491 42.96C91.6806 42.8286 92.1396 42.8158 92.5778 42.9232C93.016 43.0305 93.4171 43.254 93.739 43.57" stroke="#1D1D1B" stroke-width="0.5" stroke-linecap="round" stroke-linejoin="round"/>
<path d="M69.0193 49.7098C68.901 48.9667 68.6125 48.261 68.1763 47.648C67.74 47.0349 67.1679 46.531 66.5047 46.1756C65.8415 45.8203 65.105 45.6231 64.353 45.5996C63.6009 45.576 62.8536 45.7267 62.1694 46.0398C60.9257 46.4412 59.8498 47.2429 59.1094 48.3198C62.4094 48.6198 65.6593 49.1198 69.0193 49.7098Z" stroke="#1D1D1B" stroke-width="0.5" stroke-linecap="round" stroke-linejoin="round"/>
<path d="M67.8805 52.77C65.5959 54.8865 62.7787 56.3418 59.7305 56.98" stroke="#1D1D1B" stroke-width="0.5" stroke-linecap="round" stroke-linejoin="round"/>
<path d="M83.1191 53.1201C83.7113 54.3391 84.568 55.4106 85.6267 56.2565C86.6854 57.1025 87.9195 57.7016 89.2391 58.0101" stroke="#1D1D1B" stroke-width="0.5" stroke-linecap="round" stroke-linejoin="round"/>
<path d="M86.7091 50.5598C85.2612 50.5176 83.812 50.561 82.3691 50.6898C83.1109 49.7973 83.9646 49.0041 84.9091 48.3298C85.8725 47.6572 87.0579 47.3815 88.2191 47.5598C89.9391 47.9198 91.0791 49.4998 91.9391 50.9798C90.5891 50.7898 89.2192 50.6598 87.8592 50.5998C87.4792 50.5698 87.0991 50.5598 86.7091 50.5598Z" stroke="#1D1D1B" stroke-width="0.5" stroke-linecap="round" stroke-linejoin="round"/>
<path d="M73.0687 60.7899C72.7312 60.0504 72.2469 59.3872 71.6452 58.8405C71.0436 58.2939 70.3371 57.8752 69.5687 57.6099C68.5587 58.457 67.8559 59.6133 67.5687 60.8999C67.564 60.9598 67.564 61.02 67.5687 61.0799C67.5186 61.2453 67.5024 61.4193 67.5213 61.5911C67.5403 61.763 67.5938 61.9293 67.6787 62.0799C67.9905 62.3636 68.3971 62.5205 68.8187 62.5199C69.8839 62.6761 70.8772 63.1501 71.6687 63.8799C72.8087 64.9299 73.6187 66.5599 75.1487 66.8799C75.6438 66.9501 76.1485 66.9054 76.6236 66.7494C77.0988 66.5933 77.5316 66.33 77.8887 65.9799C78.6397 65.1671 79.3096 64.2829 79.8887 63.3399C80.3774 63.2797 80.8371 63.0755 81.2093 62.7531C81.5815 62.4308 81.8494 62.005 81.9787 61.5299C82.0796 61.04 82.0294 60.5311 81.8347 60.0704C81.6401 59.6098 81.3102 59.219 80.8887 58.9499" stroke="#1D1D1B" stroke-width="0.5" stroke-linecap="round" stroke-linejoin="round"/>
<path d="M66.4504 60.6401C63.5418 63.9196 61.2423 67.6922 59.6604 71.7802C59.3532 72.5301 59.1155 73.3067 58.9504 74.1002C58.675 75.2283 58.7625 76.4146 59.2004 77.4901" stroke="#1D1D1B" stroke-width="0.5" stroke-linecap="round" stroke-linejoin="round"/>
<path d="M61.4395 74.3902C62.4618 73.0264 63.8504 71.981 65.4437 71.3755C67.037 70.7701 68.7694 70.6295 70.4395 70.9702C73.7001 71.8207 77.0844 72.0948 80.4395 71.7802C81.1804 72.1188 81.8144 72.6538 82.2727 73.3272C82.7311 74.0006 82.9963 74.7867 83.0395 75.6002" stroke="#1D1D1B" stroke-width="0.5" stroke-linecap="round" stroke-linejoin="round"/>
<path d="M71.4805 74.8799C72.805 75.0686 74.1433 75.1422 75.4805 75.0999C76.2602 75.0817 77.0381 75.0183 77.8105 74.9099" stroke="#1D1D1B" stroke-width="0.5" stroke-linecap="round" stroke-linejoin="round"/>
<path d="M75.4395 75.1201L77.6695 75.9301" stroke="#1D1D1B" stroke-width="0.5" stroke-linecap="round" stroke-linejoin="round"/>
<path d="M82.7598 61.77C84.0882 66.2477 84.8211 70.8809 84.9398 75.55C84.9398 75.9 84.9398 76.26 84.9398 76.61" stroke="#1D1D1B" stroke-width="0.5" stroke-linecap="round" stroke-linejoin="round"/>
<path d="M70.9004 83.6298C72.286 83.5391 73.6747 83.7507 74.9704 84.2498" stroke="#1D1D1B" stroke-width="0.5" stroke-linecap="round" stroke-linejoin="round"/>
<path d="M39.0195 43.6998C39.2908 43.4388 39.6402 43.274 40.0141 43.2307C40.388 43.1873 40.7658 43.2678 41.0895 43.4598C41.3116 43.5826 41.5167 43.7339 41.6996 43.9099C42.0523 44.254 42.3613 44.6402 42.6195 45.0598C43.0195 45.6498 43.3896 46.2598 43.7296 46.8598C44.4188 48.0149 44.9788 49.2423 45.3995 50.5198C44.4349 51.8164 43.9731 53.4188 44.0995 55.0299C44.1515 55.7179 44.3136 56.3932 44.5796 57.0299" stroke="#1D1D1B" stroke-width="0.5" stroke-linecap="round" stroke-linejoin="round"/>
<path d="M41.5988 44.02C40.9082 44.5236 40.3475 45.1845 39.9632 45.9479C39.5789 46.7113 39.382 47.5554 39.3888 48.41C39.4213 50.1267 39.934 51.7999 40.8688 53.24" stroke="#1D1D1B" stroke-width="0.5" stroke-linecap="round" stroke-linejoin="round"/>
<path d="M43.3304 47.1201C42.7093 47.9514 42.2774 48.9083 42.0649 49.924C41.8524 50.9397 41.8646 51.9896 42.1004 53.0001C42.2592 53.7538 42.554 54.4722 42.9704 55.1201" stroke="#1D1D1B" stroke-width="0.5" stroke-linecap="round" stroke-linejoin="round"/>
<path d="M42.8789 56.77C43.0909 57.8702 43.5719 58.9008 44.2789 59.77" stroke="#1D1D1B" stroke-width="0.5" stroke-linecap="round" stroke-linejoin="round"/>
<path d="M98.9499 52.5898C97.5333 53.7002 96.4077 55.1381 95.6699 56.7798" stroke="#1D1D1B" stroke-width="0.5" stroke-linecap="round" stroke-linejoin="round"/>
<path d="M97.3297 54.48C97.3003 57.053 96.3616 59.5326 94.6797 61.48" stroke="#1D1D1B" stroke-width="0.5" stroke-linecap="round" stroke-linejoin="round"/>
<path d="M64.0788 49.1201C64.0151 49.1827 63.973 49.2639 63.9586 49.352C63.9442 49.4401 63.9583 49.5305 63.9988 49.6101C64.0672 49.7561 64.1874 49.8714 64.3361 49.9337C64.4848 49.996 64.6513 50.0008 64.8034 49.9472C64.9554 49.8936 65.0821 49.7855 65.1589 49.6437C65.2356 49.502 65.257 49.3367 65.2188 49.1801" stroke="#1D1D1B" stroke-width="0.5" stroke-linecap="round" stroke-linejoin="round"/>
<path d="M86.7101 50.6602C86.6636 50.726 86.6387 50.8046 86.6387 50.8852C86.6387 50.9657 86.6636 51.0443 86.7101 51.1101C86.7643 51.1963 86.8359 51.2701 86.9203 51.3269C87.0046 51.3838 87.1 51.4223 87.2001 51.4402C87.2988 51.4551 87.3997 51.4455 87.4938 51.4124C87.588 51.3793 87.6725 51.3236 87.7401 51.2502C87.8062 51.1748 87.8505 51.0828 87.8681 50.9841C87.8858 50.8854 87.8761 50.7837 87.8401 50.6902" stroke="#1D1D1B" stroke-width="0.5" stroke-linecap="round" stroke-linejoin="round"/>
<path d="M112.26 27.6599C112.369 27.8505 112.549 27.9902 112.761 28.0483C112.973 28.1064 113.199 28.0782 113.39 27.9699C113.764 27.7262 114.06 27.3787 114.24 26.9699C114.67 26.3092 114.982 25.5781 115.16 24.8099C115.243 24.4251 115.232 24.0258 115.128 23.6462C115.023 23.2666 114.828 22.9179 114.56 22.6299" stroke="#1D1D1B" stroke-width="0.5" stroke-linecap="round" stroke-linejoin="round"/>
<path d="M53.7988 19.5001C54.576 19.3111 55.3912 19.3502 56.1468 19.6127C56.9023 19.8752 57.5662 20.3499 58.0588 20.9801" stroke="#1D1D1B" stroke-width="0.5" stroke-linecap="round" stroke-linejoin="round"/>
<path d="M58.5195 16.1201C59.7353 18.6194 61.7524 20.64 64.2495 21.8601" stroke="#1D1D1B" stroke-width="0.5" stroke-linecap="round" stroke-linejoin="round"/>
<path d="M63.5098 15.73C64.5098 17.07 65.2998 18.53 66.2498 19.88C67.16 21.2766 68.3908 22.4355 69.8398 23.26" stroke="#1D1D1B" stroke-width="0.5" stroke-linecap="round" stroke-linejoin="round"/>
<path d="M74.66 13.5898C74.0437 14.3709 73.5926 15.2691 73.3341 16.2298C73.0756 17.1906 73.0151 18.1939 73.1564 19.1787C73.2976 20.1636 73.6376 21.1095 74.1556 21.9589C74.6737 22.8083 75.3591 23.5435 76.1701 24.1198" stroke="#1D1D1B" stroke-width="0.5" stroke-linecap="round" stroke-linejoin="round"/>
</svg>
