<svg width="189" height="189" viewBox="0 0 189 189" fill="none" xmlns="http://www.w3.org/2000/svg">
<path d="M186.401 49.6638L186.465 49.3901L187.705 49.6729C177.681 52.0565 168.049 55.8619 159.103 60.9735V61.2289C156.008 62.0619 152.943 62.974 149.909 63.9651L149.809 63.655C152.211 61.2907 154.934 59.2765 157.899 57.6718C160.779 56.087 163.806 54.7857 166.937 53.7863C173.24 51.7615 179.834 50.7127 186.401 49.6638Z" fill="#D1D0D1"/>
<path d="M155.554 105.438L158.454 119.027C158.965 120.951 159.198 122.939 159.147 124.929H158.883C153.99 122.055 148.748 119.823 143.286 118.289L141.809 117.887C139.108 117.193 136.366 116.669 133.6 116.319C127.671 115.58 121.606 115.625 115.842 114.066L115.705 113.756C118.405 112.54 121.141 111.421 123.914 110.399C132.806 111.083 141.863 111.503 150.364 108.867C151.071 108.356 151.736 107.789 152.352 107.17C153.296 106.364 154.349 105.694 155.481 105.182L155.554 105.438Z" fill="#D1D0D1"/>
<path d="M115.633 137.323C112.866 132.892 111.093 127.913 110.434 122.73L109.923 122.803C109.376 125.685 108.911 128.677 109.595 131.523C110.279 134.368 112.404 137.077 115.295 137.57L115.633 137.323ZM143.287 118.27C144.851 120.473 145.929 122.984 146.446 125.635C146.963 128.287 146.909 131.019 146.287 133.648C145.588 136.173 144.336 138.511 142.623 140.493C140.91 142.476 138.779 144.054 136.382 145.113C134.43 147.165 129.998 148.56 125.437 148.332C124.098 148.272 122.771 148.061 121.479 147.703C115.733 146.089 111.045 141.665 108.436 136.284C105.694 130.603 105.123 124.115 106.831 118.042V117.997C107.98 117.386 109.139 116.802 110.297 116.236C111.1 115.835 111.911 115.443 112.723 115.069L112.814 115.27C113.091 120.756 115.523 125.912 119.581 129.615C123.64 133.318 128.996 135.269 134.485 135.043C137.314 135.052 140.062 134.104 142.283 132.353C144.399 130.529 145.558 127.409 144.564 124.792L141.773 118.006V117.832L143.287 118.27Z" fill="#A55DA1"/>
<path d="M112.405 74.8374C112.14 77.0023 112.204 79.1948 112.596 81.3404C112.931 77.0493 114.149 72.8736 116.173 69.0754C118.198 65.2771 120.986 61.9383 124.362 59.2682C125.129 58.651 125.926 58.0727 126.751 57.5353C126.478 56.5229 126.332 55.8024 126.186 55.0727L128.293 55.4558C128.293 54.4343 128.293 53.5313 128.293 52.6283C130.117 52.9293 132.142 53.1847 133.647 52.1267C134.346 51.5743 134.937 50.8971 135.389 50.1293L139.949 43.3343C140.812 42.7127 141.876 42.4362 142.932 42.559C143.737 42.7328 144.564 42.785 145.385 42.7141C146.306 42.4846 147.101 41.9055 147.602 41.0997C148.098 40.3042 148.485 39.4451 148.751 38.5459C150.575 39.458 152.718 40.3701 154.898 41.2821C153.4 40.0395 151.969 38.7182 150.611 37.3237C162.124 42.5675 174.144 46.617 186.483 49.4087L186.419 49.6823C179.852 50.7312 173.258 51.7801 166.928 53.8323C163.797 54.8317 160.77 56.1329 157.89 57.7177L157.762 57.4806C158.288 56.5577 158.497 55.4872 158.355 54.4342C158.201 53.3916 157.848 52.3883 157.315 51.4791C157.111 51.0772 156.836 50.7156 156.503 50.412C156.336 50.265 156.137 50.1569 155.923 50.0954C155.709 50.0339 155.483 50.0205 155.263 50.0563C150.993 53.3848 146.149 55.9012 140.971 57.4806C137.383 61.4055 133.321 64.8676 128.877 67.787C124.987 74.2 120.375 80.146 115.132 85.5086C113.297 86.8058 111.343 87.9237 109.294 88.8468L109.121 88.4546C109.194 83.645 109.498 78.8505 110.033 74.0712C110.033 74.2536 110.033 74.4452 110.033 74.6276L112.405 74.8374Z" fill="#D1D0D1"/>
<path d="M110.435 122.694C111.094 127.877 112.867 132.856 115.634 137.288L115.296 137.497C112.405 137.005 110.28 134.305 109.596 131.45C108.912 128.595 109.377 125.613 109.924 122.731L110.435 122.694Z" fill="#A55DA1"/>
<path d="M96.5797 92.7596L96.2695 92.8235C90.3046 94.073 84.221 94.8209 78.2834 96.189C77.5603 95.8482 76.8017 95.5882 76.0215 95.4138L76.0762 95.1766C76.8227 92.3053 77.8239 89.5063 79.0678 86.8129C80.3157 84.1042 82.2493 81.7682 84.6771 80.0362C88.526 77.4641 93.5789 77.1905 98.0481 78.3945C94.114 75.6765 90.107 73.0801 86.0269 70.6053L86.1911 70.3408L101.477 72.6849L101.569 74.3448C102.143 79.5893 102.289 85.6728 102.864 90.9172L102.955 91.2273C100.866 91.7837 98.7321 92.3036 96.5797 92.7596Z" fill="#A55DA1"/>
<path d="M101.578 74.2718L101.486 72.6119C102.325 72.0373 104.396 72.1558 105.317 72.6119H105.39C106.302 78.2394 107.214 83.8577 107.698 89.5309C106.156 90.1511 104.578 90.6983 102.964 91.1908L102.873 90.8807C102.298 85.5998 102.152 79.5163 101.578 74.2718Z" fill="#A55DA1"/>
<path d="M102.209 25.3846C101.882 25.8024 101.526 26.1956 101.141 26.5612L100.977 26.1598C99.3246 22.8544 97.9782 19.4045 96.9551 15.8534C106.189 12.9775 115.621 10.7796 125.175 9.27734C123.806 10.6889 122.584 12.2351 121.526 13.8924C121.526 14.0566 121.444 14.1113 121.371 14.1478L124.418 13.1628L122.749 16.5374C123.761 16.7837 124.691 16.802 125.558 17.0938C126 17.2203 126.407 17.4451 126.75 17.7516C127.093 18.058 127.362 18.4381 127.537 18.8632C127.674 19.3884 127.757 19.9263 127.783 20.4685C128 21.651 128.646 22.7117 129.597 23.4473C130.548 24.1829 131.737 24.5414 132.936 24.4543C130.2 25.2478 128.96 28.367 129.407 31.0121C129.854 33.6571 131.568 35.8917 133.319 37.9256C131.669 38.4596 130.06 39.1119 128.504 39.8774C124.991 41.5882 121.764 43.831 118.936 46.5265C118.936 52.911 116.875 58.575 115.023 64.1295C113.769 67.595 112.888 71.1846 112.396 74.8373L110.062 74.5819C110.062 74.3995 110.062 74.2079 110.062 74.0255C109.842 60.8487 108.258 47.7301 105.337 34.8793H105.173C105.173 34.1679 105.173 33.4564 105.173 32.745L104.735 32.6629C105.818 32.0321 106.734 31.1502 107.406 30.0915C108.077 29.0328 108.484 27.8283 108.593 26.5794C108.694 25.3223 108.464 24.0609 107.926 22.9201C107.388 21.7794 106.562 20.799 105.529 20.0763C105.102 20.1519 104.721 20.3866 104.461 20.733C104.369 20.8419 104.289 20.9613 104.224 21.0887C103.984 21.606 103.789 22.1431 103.641 22.694C103.322 23.6665 102.837 24.5768 102.209 25.3846Z" fill="#D1D0D1"/>
<path d="M60.5077 137.652C61.8667 138.017 63.1983 138.473 64.5482 138.838C69.2811 140.116 74.2568 140.204 79.0319 139.093C81.3595 138.634 83.5465 137.634 85.4164 136.174C86.3469 135.433 87.0936 134.487 87.5983 133.409C88.103 132.332 88.352 131.153 88.3259 129.963L88.0614 129.607C94.0192 125.303 100.28 121.435 106.795 118.033V118.079C105.087 124.152 105.658 130.639 108.401 136.32C111 141.665 115.697 146.125 121.407 147.739C122.698 148.098 124.026 148.309 125.365 148.369V148.533C127.811 157.64 129.588 166.913 130.683 176.278L130.327 176.616C123.997 178.257 118.288 181.732 112.04 183.675C107.169 185.189 102.007 184.678 96.9542 185.554L91.3814 186.521C88.8184 186.968 86.2555 187.433 83.6561 187.606C79.5804 187.827 75.4936 187.723 71.4343 187.296C61.1339 186.451 50.867 185.36 40.6336 184.022C39.5938 178.799 38.5571 173.569 37.5234 168.334L37.7058 168.179C31.4855 159.983 25.5935 151.54 20.0298 142.851L20.121 142.723C18.8273 141.804 17.6075 140.786 16.4727 139.677C14.4591 137.776 13.0236 135.344 12.3319 132.663L12.3775 132.608C10.2409 130.776 8.34953 128.676 6.75 126.36L8.50117 126.233C17.0445 131.277 27.0695 133.21 36.8758 131.705C39.3567 132.9 41.3541 134.943 43.7528 136.32C46.8229 138.069 50.4185 138.658 53.886 137.98V137.825C56.0197 138.368 58.2554 138.368 60.3891 137.825L60.5077 137.652Z" fill="#A55DA1"/>
<path d="M60.4803 137.743C58.4476 138.25 56.325 138.277 54.2799 137.823C52.2348 137.368 50.3233 136.445 48.6963 135.125C47.0956 133.776 45.8318 132.071 45.0053 130.148C44.1788 128.224 43.8125 126.134 43.9353 124.044C44.1451 120.915 45.4493 117.978 46.8722 115.178C49.5741 109.858 52.7519 104.794 56.3669 100.047C57.6328 98.8899 59.1229 98.0051 60.7448 97.4476C62.7039 96.7456 64.7915 96.475 66.8649 96.6541C68.1943 95.9136 69.6465 95.4192 71.1516 95.1947C72.2258 95.0277 73.3167 94.9971 74.3986 95.1036C74.9453 95.1577 75.4878 95.2491 76.0221 95.3772C76.8023 95.5516 77.5609 95.8116 78.284 96.1524C77.5483 96.3227 76.8095 96.5051 76.0677 96.6997V96.6358C71.8869 99.1824 68.8191 103.211 67.4759 107.918C66.1646 112.637 66.1049 117.616 67.3026 122.365C68.2147 126.415 70.0389 130.51 73.4409 132.9C76.843 135.29 80.9473 136.284 83.5285 133.028C85.0243 131.86 86.5444 130.72 88.0888 129.607L88.3533 129.963C88.3794 131.152 88.1304 132.332 87.6257 133.409C87.121 134.487 86.3743 135.433 85.4438 136.174C83.5739 137.634 81.3868 138.634 79.0593 139.093C74.2842 140.204 69.3085 140.116 64.5755 138.838C63.2257 138.473 61.8941 138.017 60.5351 137.652L60.4803 137.743ZM55.0079 121.526C55.9154 113.805 58.9393 106.486 63.7456 100.375L63.5905 100.257C60.4986 102.993 57.3975 105.866 55.3271 109.46C53.2567 113.053 52.3537 117.522 53.8769 121.371L55.0079 121.526Z" fill="#A55DA1"/>
<path d="M74.4547 94.4196C73.8921 89.3209 74.6165 84.1625 76.5616 79.416L76.4886 79.3156C76.7881 79.1378 77.0665 78.9267 77.3186 78.6863C78.3581 77.53 79.0144 76.0804 79.1975 74.5364H79.2522C81.0648 73.0489 82.4549 71.1114 83.2836 68.918L83.5298 69.0092L86.0472 70.5232C90.1332 72.998 94.1403 75.5944 98.0683 78.3124C93.5991 77.1084 88.5462 77.4003 84.6973 79.9541C82.2694 81.6861 80.3359 84.0221 79.088 86.7308C77.8441 89.4242 76.843 92.2232 76.0964 95.0945L76.0417 95.3317C75.5074 95.2036 74.965 95.1122 74.4182 95.058L74.4547 94.4196Z" fill="#A55DA1"/>
<path d="M63.7456 100.375C58.9426 106.487 55.9218 113.806 55.017 121.526L53.8769 121.371C52.3538 117.522 53.2658 113.044 55.3271 109.46C57.3884 105.875 60.4986 103.002 63.5905 100.257L63.7456 100.375Z" fill="#A55DA1"/>
<path d="M18.315 102.172C24.9419 101.556 31.4865 100.251 37.8426 98.2772C38.408 98.0583 38.9827 97.8486 39.5481 97.657V97.5567C32.2115 97.3034 24.9263 98.8701 18.3424 102.117L18.315 102.172ZM48.6962 135.125C50.235 136.389 52.0407 137.287 53.9772 137.752V137.907C50.5096 138.584 46.9141 137.995 43.844 136.247C41.4452 134.87 39.4478 132.827 36.967 131.632C27.1606 133.137 17.1356 131.203 8.59233 126.159L6.84113 126.287C2.69287 120.361 0.653065 113.214 1.04829 105.991C1.44351 98.7676 4.25091 91.886 9.02101 86.4476C9.40408 86.019 9.78715 85.5903 10.1885 85.189L12.7696 85.7545C18.3425 84.8227 24.0658 85.5096 29.2599 87.7337C34.1719 89.833 38.7869 92.5683 42.9866 95.8694L43.6616 96.371C45.8254 95.7768 48.0209 95.3049 50.2377 94.9573C52.0872 94.5889 53.9834 94.515 55.856 94.7384C57.7439 94.972 59.4738 95.9102 60.6991 97.3652V97.4472C59.0772 98.0048 57.5871 98.8895 56.3212 100.047C52.7201 104.807 49.5575 109.884 46.8721 115.214C45.4493 118.015 44.1359 120.951 43.9352 124.08C43.8181 126.164 44.1873 128.247 45.0136 130.164C45.8399 132.081 47.1007 133.779 48.6962 135.125Z" fill="#A55DA1"/>
<path d="M43.3427 95.4137C45.9952 92.7677 48.8033 90.2825 51.752 87.9712C53.2569 86.8493 55.0902 85.764 56.9143 86.2383C59.4043 86.8767 60.3711 89.996 62.5054 91.4097L64.8403 90.5706C65.5837 91.4037 66.3723 92.1953 67.2025 92.942L71.1427 95.1218V95.1948C69.6376 95.4193 68.1854 95.9136 66.8559 96.6541C64.7826 96.475 62.695 96.7457 60.7359 97.4476V97.3655C59.5105 95.9106 57.7807 94.9723 55.8928 94.7388C54.0202 94.5154 52.124 94.5893 50.2744 94.9577C48.0576 95.3052 45.8621 95.7772 43.6984 96.3714L43.0234 95.8698L43.3427 95.4137Z" fill="#A55DA1"/>
<path d="M43.3427 95.4137L43.0052 95.8697C38.8055 92.5686 34.1905 89.8333 29.2785 87.734C24.0844 85.5099 18.3611 84.823 12.7882 85.7548L10.207 85.1893C16.1811 79.0419 24.2803 75.3207 32.188 71.9004C32.188 72.174 32.2701 72.4476 32.334 72.7213C32.9171 74.634 33.8241 76.4326 35.0155 78.0386C38.5271 83.448 41.3259 89.2879 43.3427 95.4137Z" fill="#A55DA1"/>
<path d="M36.8496 65.9628C36.9252 65.2642 37.15 64.5899 37.5088 63.9857C37.8676 63.3814 38.3519 62.8613 38.9291 62.4604H40.2516C40.323 64.7282 40.2438 66.9981 40.0145 69.2554L39.8868 69.3649C38.8653 68.2156 37.8529 67.0816 36.8496 65.9628Z" fill="#A55DA1"/>
<path d="M52.7192 80.9118C55.4554 82.7359 58.4926 84.3047 60.9826 86.521C61.8099 87.2709 62.5955 88.0656 63.3357 88.9015L64.8407 90.5889L62.5058 91.428C60.3715 90.0143 59.4047 86.8676 56.9147 86.2565C55.0906 85.7822 53.2664 86.8676 51.7524 87.9895C48.8037 90.3007 45.9956 92.786 43.3431 95.432C41.3263 89.3062 38.5274 83.4663 35.0158 78.057C33.8245 76.4509 32.9175 74.6523 32.3343 72.7396C32.2705 72.4659 32.2249 72.1923 32.1884 71.9187C32.0366 70.235 32.2802 68.5391 32.8998 66.9662C34.0946 63.7374 36.6302 60.8553 39.9593 59.9614H40.1143C40.1873 60.7823 40.2329 61.6032 40.2511 62.4331H38.9286C38.3514 62.834 37.867 63.3541 37.5083 63.9583C37.1495 64.5626 36.9247 65.2369 36.8491 65.9355C37.8524 67.0604 38.8648 68.1792 39.8863 69.2919C43.6786 73.6696 47.9877 77.5713 52.7192 80.9118Z" fill="#A55DA1"/>
<path d="M39.5475 97.6573C38.9821 97.8488 38.4075 98.0586 37.842 98.2775C31.4859 100.251 24.9413 101.556 18.3145 102.172V102.126C24.8983 98.8794 32.1836 97.3127 39.5202 97.566L39.5475 97.6573Z" fill="#A55DA1"/>
<path d="M40.6348 183.986C50.8804 185.33 61.1473 186.421 71.4355 187.26C75.4948 187.687 79.5816 187.791 83.6573 187.571C86.2567 187.37 88.8196 186.932 91.3826 186.485L96.9554 185.518C101.981 184.606 107.171 185.154 112.041 183.64C118.289 181.697 123.998 178.222 130.328 176.58" stroke="#A55DA1" stroke-linecap="round" stroke-linejoin="round"/>
<path d="M41.9383 41.1729C41.4782 39.8683 40.7443 38.6772 39.7858 37.6797C39.2975 37.1906 38.6702 36.8643 37.9894 36.7451C37.3087 36.6259 36.6078 36.7198 35.9825 37.0139C35.0919 37.6761 34.4909 38.6561 34.3042 39.7501C34.0772 40.5959 33.9216 41.4594 33.8391 42.3313C33.5949 44.7589 33.9028 47.2103 34.7399 49.5021C35.577 51.7939 36.9217 53.8668 38.6731 55.5655C38.6224 56.0439 38.6716 56.5277 38.8176 56.9861C38.9636 57.4446 39.2033 57.8677 39.5213 58.2287C39.6829 58.4059 39.8633 58.565 40.0594 58.703C40.6471 59.1332 41.3559 59.3663 42.0842 59.3688" stroke="#1D1D1B" stroke-linecap="round" stroke-linejoin="round"/>
<path d="M48.2398 8.73047C47.4919 9.04057 46.7441 9.35068 45.9962 9.68815C43.2599 10.9286 40.5693 12.4244 38.7543 14.8049C35.8083 18.6721 35.79 23.9256 35.9177 28.787V28.9329" stroke="#1D1D1B" stroke-linecap="round" stroke-linejoin="round"/>
<path d="M37.1405 27.5918C36.6914 27.9545 36.2734 28.3541 35.891 28.7866C34.2317 30.5716 33.1389 32.8085 32.7509 35.2145C32.3629 37.6205 32.6971 40.0875 33.7112 42.3036" stroke="#1D1D1B" stroke-linecap="round" stroke-linejoin="round"/>
<path d="M45.9688 9.67877C48.1508 6.21168 51.418 3.56341 55.2616 2.14636C59.1053 0.729315 63.3097 0.623031 67.2201 1.84405" stroke="#1D1D1B" stroke-linecap="round" stroke-linejoin="round"/>
<path d="M61.4277 2.68332C63.3522 2.43706 65.2858 2.1908 67.2194 2.03575C69.4253 1.83965 71.6443 1.83965 73.8502 2.03575C77.9819 2.44618 82.141 3.8599 85.0961 6.82414C85.9003 7.72725 86.7593 8.58013 87.6681 9.37795C88.1411 9.78618 88.7058 10.074 89.314 10.2169C89.9223 10.3599 90.5561 10.3536 91.1614 10.1988C90.8053 10.5605 90.3786 10.8451 89.9079 11.0349C89.4372 11.2248 88.9325 11.3158 88.4251 11.3024" stroke="#1D1D1B" stroke-linecap="round" stroke-linejoin="round"/>
<path d="M79.0137 10.2532C80.5512 9.74137 82.1865 9.59279 83.7911 9.81908C85.3957 10.0454 86.9261 10.6404 88.2621 11.5574C88.939 11.999 89.566 12.5127 90.1319 13.0897C91.4965 14.5889 92.5415 16.3503 93.2032 18.2664C93.8649 20.1826 94.1295 22.2135 93.9808 24.2353C93.8896 25.9865 93.543 27.7285 93.6069 29.4797C93.5923 30.3575 93.7626 31.2286 94.1067 32.0363C94.4508 32.844 94.9611 33.5702 95.6043 34.1678" stroke="#1D1D1B" stroke-linecap="round" stroke-linejoin="round"/>
<path d="M49.3722 19.8853C48.5165 21.5735 48.1982 23.4832 48.4601 25.3577C48.7563 27.2516 49.6476 29.0022 51.0048 30.3559C50.9186 30.9751 50.6933 31.5667 50.3458 32.0864C49.9982 32.6061 49.5376 33.0403 48.9983 33.3566C47.9147 33.9747 46.9282 34.7492 46.0705 35.655C45.3627 36.7926 44.8711 38.0511 44.6203 39.3672C44.4932 40.0347 44.2205 40.666 43.8217 41.2162C43.4228 41.7664 42.9077 42.2219 42.3128 42.5503L41.9297 41.1548" stroke="#1D1D1B" stroke-linecap="round" stroke-linejoin="round"/>
<path d="M42.3125 53.0112C42.878 55.0634 42.6135 57.2524 42.4584 59.3958C42.4584 59.4687 42.4584 59.5417 42.4584 59.6147C42.3034 61.8128 42.3216 64.175 43.4435 66.0539C45.2129 69.0638 49.1896 70.1218 51.1596 72.9948" stroke="#1D1D1B" stroke-linecap="round" stroke-linejoin="round"/>
<path d="M50.6289 70.4141C50.7591 71.2753 50.9636 72.1236 51.24 72.9496C51.7081 74.5597 52.6219 76.0047 53.8759 77.1178C55.8004 78.7413 58.4363 79.1973 60.9536 79.2612C63.4709 79.325 66.0065 79.0605 68.7154 79.3615L69.2626 79.5074C70.5295 79.8786 71.8378 80.09 73.1572 80.1368C74.3205 80.1677 75.4706 79.8841 76.4862 79.3159C76.7857 79.1381 77.0641 78.927 77.3162 78.6866C78.3557 77.5303 79.012 76.0807 79.1951 74.5366C79.2589 74.19 79.3228 73.8434 79.3775 73.506" stroke="#1D1D1B" stroke-linecap="round" stroke-linejoin="round"/>
<path d="M79.252 74.5453C81.0645 73.0578 82.4547 71.1204 83.2833 68.9269C83.5296 68.334 83.7302 67.7321 83.9126 67.1027C84.4077 65.3113 84.7465 63.4803 84.9251 61.6303C85.0345 60.5449 85.1257 59.4504 85.2078 58.356" stroke="#1D1D1B" stroke-linecap="round" stroke-linejoin="round"/>
<path d="M84.0195 59.6607C84.3517 59.1924 84.6562 58.7051 84.9316 58.2014C86.0174 56.4259 86.7109 54.4388 86.9655 52.3732L87.8138 47.9314C88.1421 46.1803 88.4796 44.4382 88.8079 42.687" stroke="#1D1D1B" stroke-linecap="round" stroke-linejoin="round"/>
<path d="M95.7227 34.1769H95.6133C95.2879 34.2506 94.9506 34.2546 94.6237 34.1885C94.2967 34.1225 93.9874 33.988 93.7161 33.7938C93.1324 33.4108 92.6673 32.8817 92.2021 32.5352C92.0924 34.831 92.7608 37.0967 94.0992 38.9653C92.6826 38.4944 91.4213 37.6461 90.4509 36.5118C91.0561 37.4195 91.4742 38.4387 91.681 39.5099C91.8877 40.581 91.8788 41.6827 91.6549 42.7504C91.4601 43.6286 91.1178 44.4675 90.6424 45.2312C89.9762 46.3293 89.0567 47.2519 87.9609 47.9218" stroke="#1D1D1B" stroke-linecap="round" stroke-linejoin="round"/>
<path d="M90.8065 45.3589C91.4174 46.1934 91.8225 47.1604 91.9889 48.1811C92.1554 49.2018 92.0784 50.2473 91.7642 51.2326C91.1096 53.194 90.0848 55.0114 88.7452 56.5865C87.4089 58.1575 86.2212 59.8491 85.1973 61.6394" stroke="#1D1D1B" stroke-linecap="round" stroke-linejoin="round"/>
<path d="M68.8811 81.3311C68.0784 83.6227 66.9742 85.7974 65.5977 87.7977" stroke="#1D1D1B" stroke-linecap="round" stroke-linejoin="round"/>
<path d="M72.4023 21.2072L78.4494 17.7049C79.0692 17.2261 79.8509 17.007 80.6293 17.0938C83.3655 20.359 84.1225 24.7461 85.2352 28.8413C86.4392 33.2479 88.1245 37.5087 90.2608 41.5465" stroke="#1D1D1B" stroke-linecap="round" stroke-linejoin="round"/>
<path d="M88.9188 42.6137C88.5266 40.671 88.107 38.0534 87.7148 36.1289" stroke="#1D1D1B" stroke-linecap="round" stroke-linejoin="round"/>
<path d="M40.0326 58.8945C40.0326 59.2411 40.0964 59.5877 40.1238 59.9343C40.1967 60.7552 40.2423 61.576 40.2606 62.406C40.3319 64.6738 40.2527 66.9437 40.0234 69.201" stroke="#1D1D1B" stroke-linecap="round" stroke-linejoin="round"/>
<path d="M39.9593 59.9434C36.6302 60.8554 34.0946 63.7193 32.8998 66.9481C32.2802 68.521 32.0366 70.2169 32.1884 71.9007C32.1884 72.1743 32.2705 72.4479 32.3343 72.7215C32.9175 74.6343 33.8245 76.4328 35.0158 78.0389C38.5274 83.4483 41.3263 89.2882 43.3431 95.4139C45.9956 92.768 48.8037 90.2827 51.7524 87.9714C53.2573 86.8496 55.0906 85.7642 56.9147 86.2385C59.4047 86.8769 60.3715 89.9962 62.5058 91.4099C62.6495 91.5038 62.7988 91.5891 62.9527 91.6653" stroke="#1D1D1B" stroke-linecap="round" stroke-linejoin="round"/>
<path d="M38.9291 62.4517C38.3519 62.8525 37.8676 63.3727 37.5088 63.9769C37.15 64.5811 36.9252 65.2554 36.8496 65.954C37.8529 67.0789 38.8653 68.1977 39.8868 69.3105C43.6802 73.6817 47.9893 77.5773 52.7197 80.9121C55.4559 82.7362 58.4931 84.305 60.9831 86.5213C61.8104 87.2712 62.596 88.0659 63.3362 88.9018L64.8412 90.5892C65.5846 91.4223 66.3732 92.2139 67.2034 92.9606L71.1436 95.1404" stroke="#1D1D1B" stroke-linecap="round" stroke-linejoin="round"/>
<path d="M76.5616 79.416C74.6165 84.1626 73.8921 89.321 74.4547 94.4197" stroke="#1D1D1B" stroke-linecap="round" stroke-linejoin="round"/>
<path d="M76.0762 95.1493C76.8227 92.278 77.8239 89.479 79.0678 86.7856C80.3157 84.0769 82.2492 81.7409 84.6771 80.0089C88.526 77.4368 93.5789 77.1632 98.048 78.3672H98.1028" stroke="#1D1D1B" stroke-linecap="round" stroke-linejoin="round"/>
<path d="M83.5195 69.0181L86.0369 70.5321C90.123 73.0069 94.13 75.6032 98.058 78.3212" stroke="#1D1D1B" stroke-linecap="round" stroke-linejoin="round"/>
<path d="M86.2012 70.2676L101.488 72.6116C102.327 72.037 104.397 72.1556 105.318 72.6116" stroke="#1D1D1B" stroke-linecap="round" stroke-linejoin="round"/>
<path d="M101.578 74.272C102.153 79.5164 102.299 85.5999 102.873 90.8444" stroke="#1D1D1B" stroke-linecap="round" stroke-linejoin="round"/>
<path d="M97.6914 82.8999C98.2333 85.9789 99.2292 88.9604 100.647 91.747" stroke="#1D1D1B" stroke-linecap="round" stroke-linejoin="round"/>
<path d="M32.2067 71.8916C24.299 75.3119 16.1998 79.0332 10.2257 85.1805C9.82435 85.5818 9.44128 86.0105 9.05821 86.4392C6.2389 89.6817 4.08883 93.4499 2.73184 97.5268C1.37484 101.604 0.837713 105.909 1.15138 110.194C1.46504 114.479 2.6233 118.66 4.55947 122.496C6.49563 126.332 9.17146 129.747 12.4329 132.545C13.3442 133.336 14.3037 134.07 15.3059 134.743" stroke="#1D1D1B" stroke-linecap="round" stroke-linejoin="round"/>
<path d="M12.3867 132.626C13.0785 135.308 14.5139 137.739 16.5275 139.64C17.6624 140.749 18.8822 141.768 20.1758 142.687C21.0879 143.38 22.0912 144.037 23.058 144.693" stroke="#1D1D1B" stroke-linecap="round" stroke-linejoin="round"/>
<path d="M20.0664 142.814C25.6179 151.485 31.5099 159.928 37.7424 168.143C38.6241 169.322 39.5179 170.49 40.4239 171.645" stroke="#1D1D1B" stroke-linecap="round" stroke-linejoin="round"/>
<path d="M37.5605 168.298C38.6003 173.527 39.637 178.756 40.6707 183.986V184.141" stroke="#1D1D1B" stroke-linecap="round" stroke-linejoin="round"/>
<path d="M76.1507 96.6084L76.0412 96.6723C71.878 99.2151 68.8214 103.229 67.4769 107.918C66.1655 112.637 66.1058 117.616 67.3036 122.365C68.2156 126.415 70.0398 130.51 73.4418 132.9C76.8439 135.289 80.9482 136.284 83.5294 133.028" stroke="#1D1D1B" stroke-linecap="round" stroke-linejoin="round"/>
<path d="M65.4414 98.3418C64.8485 98.9985 64.2831 99.6826 63.7541 100.376C58.951 106.487 55.9303 113.807 55.0255 121.527C54.9647 122.135 54.91 122.743 54.8613 123.351" stroke="#1D1D1B" stroke-linecap="round" stroke-linejoin="round"/>
<path d="M53.8847 121.371C52.3616 117.522 53.2736 113.044 55.3349 109.46C57.3962 105.875 60.5064 103.002 63.5983 100.257" stroke="#1D1D1B" stroke-linecap="round" stroke-linejoin="round"/>
<path d="M78.284 96.1524C77.5609 95.8116 76.8023 95.5516 76.0221 95.3772C75.4878 95.2491 74.9453 95.1577 74.3986 95.1036C73.3167 94.9971 72.2258 95.0277 71.1516 95.1947C69.6465 95.4192 68.1943 95.9136 66.8649 96.6541C64.7915 96.475 62.7039 96.7456 60.7448 97.4476C59.1229 98.0051 57.6328 98.8899 56.3669 100.047C52.75 104.806 49.5721 109.882 46.8722 115.215C45.4493 118.015 44.136 120.952 43.9353 124.08C43.8125 126.17 44.1788 128.26 45.0053 130.184C45.8318 132.108 47.0956 133.812 48.6963 135.162C50.3233 136.481 52.2348 137.405 54.2799 137.859C56.325 138.313 58.4476 138.286 60.4803 137.78" stroke="#1D1D1B" stroke-linecap="round" stroke-linejoin="round"/>
<path d="M56.6484 137.105C57.9548 137.133 59.2519 137.332 60.5065 137.698C61.8655 138.062 63.1971 138.518 64.547 138.883C69.2799 140.162 74.2557 140.25 79.0308 139.139C81.3583 138.68 83.5453 137.68 85.4153 136.22C86.3458 135.479 87.0925 134.532 87.5972 133.455C88.1018 132.378 88.3509 131.198 88.3248 130.009" stroke="#1D1D1B" stroke-linecap="round" stroke-linejoin="round"/>
<path d="M9.52148 116.273C16.7446 115.327 23.7779 113.269 30.3715 110.171C36.9593 107.077 43.3554 103.589 49.5251 99.728" stroke="#1D1D1B" stroke-linecap="round" stroke-linejoin="round"/>
<path d="M19.4551 124.198C30.895 118.544 41.5926 111.498 51.3047 103.221" stroke="#1D1D1B" stroke-linecap="round" stroke-linejoin="round"/>
<path d="M13.0254 102.537C14.7948 102.464 16.5642 102.345 18.3154 102.181C24.9423 101.565 31.4869 100.26 37.8429 98.2865C38.4084 98.0676 38.983 97.8578 39.5485 97.6663C40.9045 97.1859 42.2817 96.7572 43.6802 96.3803C45.844 95.7861 48.0395 95.3141 50.2562 94.9665C52.1058 94.5981 54.002 94.5242 55.8746 94.7476C57.7625 94.9812 59.4923 95.9195 60.7177 97.3744" stroke="#1D1D1B" stroke-linecap="round" stroke-linejoin="round"/>
<path d="M18.3066 102.126C24.8905 98.8794 32.1757 97.3127 39.5124 97.566" stroke="#1D1D1B" stroke-linecap="round" stroke-linejoin="round"/>
<path d="M12.7871 85.7553C18.36 84.8235 24.0833 85.5104 29.2774 87.7345C34.1894 89.8339 38.8044 92.5692 43.0041 95.8702L43.6791 96.3719" stroke="#1D1D1B" stroke-linecap="round" stroke-linejoin="round"/>
<path d="M8.55664 126.16C17.0999 131.204 27.125 133.138 36.9313 131.633" stroke="#1D1D1B" stroke-linecap="round" stroke-linejoin="round"/>
<path d="M31.3672 130.392C33.0974 130.426 34.808 130.766 36.4201 131.395L36.9308 131.632C39.4117 132.827 41.4091 134.87 43.8079 136.247C46.878 137.996 50.4735 138.585 53.941 137.907" stroke="#1D1D1B" stroke-linecap="round" stroke-linejoin="round"/>
<path d="M37.1124 133.949C34.5393 138.807 31.0773 143.138 26.9062 146.718" stroke="#1D1D1B" stroke-linecap="round" stroke-linejoin="round"/>
<path d="M40.1594 137.159L38.4082 154.489" stroke="#1D1D1B" stroke-linecap="round" stroke-linejoin="round"/>
<path d="M88.9824 129.169C94.8288 145.496 100.037 163.518 102.445 180.693" stroke="#1D1D1B" stroke-linecap="round" stroke-linejoin="round"/>
<path d="M76.0762 96.7361C76.818 96.5416 77.5568 96.3592 78.2925 96.1889C84.2301 94.8208 90.3137 94.0729 96.2786 92.8234L96.5887 92.7595C98.7321 92.3035 100.866 91.7836 102.973 91.1543C104.588 90.6617 106.166 90.1145 107.707 89.4943C108.245 89.2754 108.783 89.0383 109.303 88.8011C111.351 87.878 113.306 86.7601 115.14 85.4629C120.378 80.1141 124.987 74.1835 128.876 67.7869C133.312 64.8748 137.369 61.4219 140.952 57.5078C146.13 55.9285 150.975 53.412 155.244 50.0835C155.464 50.0478 155.69 50.0611 155.904 50.1226C156.119 50.1841 156.317 50.2923 156.485 50.4393C156.818 50.7429 157.093 51.1044 157.296 51.5064C157.829 52.4155 158.183 53.4189 158.336 54.4615C158.478 55.5145 158.27 56.5849 157.743 57.5078" stroke="#1D1D1B" stroke-linecap="round" stroke-linejoin="round"/>
<path d="M125.045 80.4923C125.303 79.6999 125.754 78.9841 126.357 78.4093C126.961 77.8346 127.698 77.4189 128.502 77.1997" stroke="#1D1D1B" stroke-linecap="round" stroke-linejoin="round"/>
<path d="M127.008 80.0822C128.722 76.4938 130.991 73.1973 133.73 70.3138C139 67.9261 144.392 65.8163 149.883 63.9932C152.923 62.9838 155.987 62.0717 159.076 61.2569C159.838 61.2515 160.587 61.4447 161.251 61.8174C161.915 62.19 162.47 62.7294 162.861 63.3821C163.248 64.0427 163.49 64.7776 163.572 65.5385C163.653 66.2994 163.573 67.069 163.336 67.7965C162.837 69.3208 161.808 70.6154 160.435 71.4448C159.386 72.065 158.328 72.6761 157.27 73.269C153.014 75.7012 148.694 78.0239 144.31 80.2372" stroke="#1D1D1B" stroke-linecap="round" stroke-linejoin="round"/>
<path d="M142.969 77.7192C141.927 79.5465 140.724 81.2771 139.375 82.8907" stroke="#1D1D1B" stroke-linecap="round" stroke-linejoin="round"/>
<path d="M142.887 93.9906C144.646 92.3024 146.318 90.5246 147.894 88.6641" stroke="#1D1D1B" stroke-linecap="round" stroke-linejoin="round"/>
<path d="M157.333 73.2594C158.071 72.8609 158.855 72.5545 159.668 72.3473C160.492 72.1415 161.363 72.2488 162.112 72.6483C162.993 73.3183 163.633 74.2561 163.936 75.3207C164.684 77.1449 165.432 79.1696 164.739 81.0029C164.221 82.1335 163.38 83.0855 162.322 83.7391C162.076 83.9124 161.82 84.0857 161.574 84.2408C157.406 86.7806 153.045 88.9886 148.531 90.8442" stroke="#1D1D1B" stroke-linecap="round" stroke-linejoin="round"/>
<path d="M162.249 83.7393L162.332 83.7849C163.864 84.5404 165.058 85.8418 165.679 87.4332C166.261 89.09 166.296 90.8898 165.779 92.5682C165.259 92.9512 164.739 93.3343 164.21 93.6991C159.964 96.7016 155.404 99.2338 150.611 101.251" stroke="#1D1D1B" stroke-linecap="round" stroke-linejoin="round"/>
<path d="M150.393 99.2173L146.918 102.747" stroke="#1D1D1B" stroke-linecap="round" stroke-linejoin="round"/>
<path d="M164.329 93.8906C165.153 94.7222 165.71 95.782 165.926 96.9332C166.142 98.0843 166.008 99.2739 165.542 100.348C165.151 101.069 164.618 101.703 163.975 102.213C163.332 102.722 162.593 103.096 161.802 103.312C160.261 103.85 158.61 104.042 157.05 104.535C156.496 104.708 155.953 104.918 155.427 105.164C154.296 105.676 153.242 106.345 152.298 107.152L152.07 107.353" stroke="#1D1D1B" stroke-linecap="round" stroke-linejoin="round"/>
<path d="M154.041 104.991C153.533 105.777 152.936 106.502 152.262 107.152C151.647 107.771 150.982 108.338 150.274 108.849C141.792 111.485 132.735 111.065 123.824 110.381L121.525 110.199" stroke="#1D1D1B" stroke-linecap="round" stroke-linejoin="round"/>
<path d="M83.5293 133.028C85.0251 131.86 86.5452 130.72 88.0897 129.608C94.0475 125.303 100.308 121.435 106.824 118.033C107.973 117.422 109.131 116.839 110.29 116.273C111.092 115.872 111.904 115.48 112.716 115.106C113.701 114.64 114.695 114.194 115.689 113.737C118.389 112.521 121.125 111.403 123.898 110.381L124.016 110.335" stroke="#1D1D1B" stroke-linecap="round" stroke-linejoin="round"/>
<path d="M149.781 63.6826C152.184 61.3183 154.907 59.3041 157.871 57.6994C160.751 56.1147 163.778 54.8134 166.91 53.814C173.24 51.7618 179.834 50.7129 186.401 49.6641" stroke="#1D1D1B" stroke-linecap="round" stroke-linejoin="round"/>
<path d="M121.371 14.1478C121.444 14.1478 121.499 14.0566 121.526 13.8924C122.584 12.2351 123.806 10.6889 125.175 9.27734C115.621 10.7796 106.189 12.9775 96.9551 15.8534C97.9782 19.4045 99.3246 22.8544 100.977 26.1598" stroke="#1D1D1B" stroke-linecap="round" stroke-linejoin="round"/>
<path d="M159.103 60.974C168.049 55.8625 177.681 52.0571 187.706 49.6734L186.465 49.3907C174.126 46.5989 162.106 42.5494 150.593 37.3057C151.951 38.7002 153.382 40.0215 154.88 41.2641C152.7 40.352 150.529 39.44 148.733 38.5279C148.467 39.4271 148.08 40.2862 147.583 41.0817C147.083 41.8875 146.288 42.4666 145.367 42.696C144.546 42.767 143.719 42.7147 142.914 42.541C141.857 42.4181 140.794 42.6947 139.931 43.3163L135.371 50.1112C134.919 50.879 134.328 51.5563 133.629 52.1087C132.124 53.1667 130.09 52.9113 128.275 52.6103C128.275 53.5224 128.275 54.4344 128.275 55.4377L126.168 55.0547C126.314 55.7843 126.46 56.5049 126.733 57.5173C125.908 58.0546 125.111 58.633 124.344 59.2502C120.968 61.9202 118.18 65.2591 116.155 69.0573C114.131 72.8556 112.913 77.0313 112.578 81.3224C112.186 79.1768 112.122 76.9842 112.386 74.8193C112.886 71.1753 113.773 67.5949 115.031 64.1389C116.856 58.5844 118.935 52.8839 118.944 46.5359C121.769 43.838 124.993 41.5921 128.503 39.8777C130.056 39.1126 131.662 38.4603 133.309 37.9259C131.558 35.892 129.844 33.6574 129.397 31.0124C128.95 28.3674 130.208 25.2481 132.926 24.4546C131.727 24.5417 130.538 24.1832 129.587 23.4476C128.636 22.7121 127.99 21.6513 127.773 20.4688C127.747 19.9266 127.664 19.3887 127.527 18.8636C127.352 18.4384 127.083 18.0583 126.74 17.7519C126.397 17.4455 125.99 17.2206 125.548 17.0941C124.681 16.8023 123.724 16.784 122.738 16.5378L124.408 13.1631L121.361 14.1481H121.288" stroke="#1D1D1B" stroke-linecap="round" stroke-linejoin="round"/>
<path d="M104.788 32.6633C105.872 32.0324 106.788 31.1505 107.459 30.0918C108.13 29.0331 108.538 27.8287 108.646 26.5798C108.747 25.3227 108.517 24.0612 107.979 22.9205C107.442 21.7798 106.615 20.7994 105.582 20.0767C105.156 20.1522 104.774 20.387 104.515 20.7334C104.422 20.8422 104.342 20.9616 104.278 21.0891C104.037 21.6064 103.842 22.1434 103.694 22.6943C103.367 23.6688 102.873 24.5791 102.235 25.3849C101.899 25.8037 101.534 26.197 101.14 26.5615C100.155 27.4661 99.0422 28.222 97.8383 28.8052C97.5647 30.6294 97.2546 32.5173 96.8715 34.4053C96.5432 36.0197 96.1601 37.6615 95.7132 39.3488C95.5733 39.8778 95.4274 40.4068 95.2754 40.9358C97.2891 45.818 99.8698 50.4466 102.964 54.7264C103.247 55.1459 103.548 55.5564 103.876 55.9577" stroke="#1D1D1B" stroke-linecap="round" stroke-linejoin="round"/>
<path d="M105.328 55.3828C105.831 56.1619 106.092 57.0731 106.076 58.0005" stroke="#1D1D1B" stroke-linecap="round" stroke-linejoin="round"/>
<path d="M105.199 32.7451C105.199 33.4565 105.199 34.168 105.199 34.8794C105.154 36.4901 105.026 38.0975 104.816 39.6951" stroke="#1D1D1B" stroke-linecap="round" stroke-linejoin="round"/>
<path d="M105.336 34.8794C108.257 47.7302 109.84 60.8488 110.06 74.0256C110.06 74.208 110.06 74.3996 110.06 74.582" stroke="#1D1D1B" stroke-linecap="round" stroke-linejoin="round"/>
<path d="M111.174 66.1636C110.736 68.7721 110.362 71.3989 110.07 74.0257C109.523 78.8049 109.219 83.5994 109.158 88.4091" stroke="#1D1D1B" stroke-linecap="round" stroke-linejoin="round"/>
<path d="M102.965 54.7354C103.457 60.7094 104.452 66.6379 105.418 72.5664C106.33 78.1939 107.242 83.8123 107.726 89.4854" stroke="#1D1D1B" stroke-linecap="round" stroke-linejoin="round"/>
<path d="M121.005 54.0513C120.923 55.1822 120.832 56.3223 120.75 57.4533" stroke="#1D1D1B" stroke-linecap="round" stroke-linejoin="round"/>
<path d="M121.717 55.8207C122.136 54.9086 122.547 53.9965 122.957 53.0845C124.781 49.1625 126.606 45.2315 128.475 41.2275C128.475 40.735 128.475 40.3154 128.475 39.8594" stroke="#1D1D1B" stroke-linecap="round" stroke-linejoin="round"/>
<path d="M123.031 53.1211C123.103 55.1234 123.488 57.1022 124.171 58.9857" stroke="#1D1D1B" stroke-linecap="round" stroke-linejoin="round"/>
<path d="M115.824 114.047C121.589 115.607 127.681 115.561 133.582 116.3C136.349 116.65 139.09 117.174 141.791 117.869L143.269 118.27C148.731 119.805 153.973 122.037 158.865 124.91" stroke="#1D1D1B" stroke-linecap="round" stroke-linejoin="round"/>
<path d="M155.555 105.438L158.455 119.027C158.966 120.951 159.199 122.939 159.148 124.929V124.974" stroke="#1D1D1B" stroke-linecap="round" stroke-linejoin="round"/>
<path d="M112.807 115.306C113.083 120.793 115.515 125.948 119.574 129.651C123.632 133.354 128.988 135.305 134.478 135.079C137.306 135.088 140.054 134.14 142.276 132.389C144.392 130.565 145.55 127.445 144.556 124.828L141.765 118.042" stroke="#1D1D1B" stroke-linecap="round" stroke-linejoin="round"/>
<path d="M110.261 116.273C110.094 118.401 110.143 120.54 110.407 122.658C111.066 127.841 112.839 132.819 115.606 137.251C115.925 137.771 116.262 138.273 116.618 138.765" stroke="#1D1D1B" stroke-linecap="round" stroke-linejoin="round"/>
<path d="M109.924 122.767C109.377 125.649 108.912 128.641 109.596 131.487C110.28 134.332 112.405 137.041 115.296 137.534" stroke="#1D1D1B" stroke-linecap="round" stroke-linejoin="round"/>
<path d="M106.841 118.079C105.133 124.151 105.704 130.639 108.446 136.32C111.045 141.665 115.743 146.125 121.452 147.739C122.744 148.097 124.072 148.308 125.411 148.369C129.971 148.597 134.431 147.201 136.356 145.149C138.752 144.09 140.884 142.512 142.597 140.53C144.309 138.547 145.561 136.209 146.261 133.684C146.883 131.055 146.937 128.323 146.419 125.672C145.902 123.02 144.825 120.509 143.26 118.307" stroke="#1D1D1B" stroke-linecap="round" stroke-linejoin="round"/>
<path d="M125.402 148.497C127.848 157.604 129.625 166.877 130.72 176.242" stroke="#1D1D1B" stroke-linecap="round" stroke-linejoin="round"/>
<path d="M94.1465 89.1021L96.5909 92.7503" stroke="#1D1D1B" stroke-linecap="round" stroke-linejoin="round"/>
<path d="M53.4395 36.9954C53.6279 36.8167 53.8523 36.6804 54.0977 36.5955C54.3431 36.5105 54.6037 36.479 54.8623 36.5029C55.3811 36.5593 55.8851 36.7108 56.349 36.9498C58.0934 37.7554 59.6476 38.921 60.9093 40.37C62.5206 41.7734 64.4917 42.6989 66.6007 43.0424" stroke="#1D1D1B" stroke-width="0.5" stroke-linecap="round" stroke-linejoin="round"/>
<path d="M69.6821 41.5469L67.0645 44.1828" stroke="#1D1D1B" stroke-width="0.5" stroke-linecap="round" stroke-linejoin="round"/>
<path d="M59.668 30.3921C62.8848 32.9577 65.7437 35.9424 68.1685 39.2666" stroke="#1D1D1B" stroke-width="0.5" stroke-linecap="round" stroke-linejoin="round"/>
<path d="M69.5195 32.7358C70.2605 35.2735 70.6111 37.9092 70.5593 40.5523" stroke="#1D1D1B" stroke-width="0.5" stroke-linecap="round" stroke-linejoin="round"/>
<path d="M75.1111 36.8403C74.0065 38.6575 73.1507 40.6147 72.5664 42.6594" stroke="#1D1D1B" stroke-width="0.5" stroke-linecap="round" stroke-linejoin="round"/>
<path d="M72.1191 45.6694C72.1556 47.603 72.1952 49.5366 72.2377 51.4702" stroke="#1D1D1B" stroke-width="0.5" stroke-linecap="round" stroke-linejoin="round"/>
<path d="M73.4414 43.7632C73.7431 44.0372 74.1051 44.2362 74.4982 44.344C74.8912 44.4517 75.3041 44.4652 75.7033 44.3834L81.267 40.507C81.9143 39.9968 82.6502 39.6103 83.4377 39.367C83.8313 39.247 84.25 39.2354 84.6497 39.3333C85.0493 39.4312 85.4152 39.6351 85.7088 39.9233" stroke="#1D1D1B" stroke-width="0.5" stroke-linecap="round" stroke-linejoin="round"/>
<path d="M63.1617 45.523C63.0538 44.8452 62.7906 44.2016 62.3927 43.6425C61.9949 43.0833 61.4731 42.6237 60.8681 42.2996C60.2632 41.9755 59.5915 41.7957 58.9056 41.7742C58.2197 41.7527 57.538 41.8901 56.914 42.1757C55.7796 42.5418 54.7983 43.273 54.123 44.2552C57.1329 44.5288 60.0971 44.9848 63.1617 45.523Z" stroke="#1D1D1B" stroke-width="0.5" stroke-linecap="round" stroke-linejoin="round"/>
<path d="M62.1209 48.3145C60.0372 50.2448 57.4677 51.5722 54.6875 52.1543" stroke="#1D1D1B" stroke-width="0.5" stroke-linecap="round" stroke-linejoin="round"/>
<path d="M76.0215 48.6338C76.5616 49.7456 77.3429 50.7229 78.3086 51.4944C79.2742 52.266 80.3998 52.8124 81.6034 53.0938" stroke="#1D1D1B" stroke-width="0.5" stroke-linecap="round" stroke-linejoin="round"/>
<path d="M79.2963 46.2982C77.9756 46.2597 76.6539 46.2993 75.3379 46.4168C76.0145 45.6028 76.7931 44.8793 77.6546 44.2643C78.5332 43.6508 79.6143 43.3993 80.6735 43.562C82.2423 43.8903 83.2821 45.3314 84.0665 46.6813C82.8351 46.508 81.5856 46.3894 80.3452 46.3347C79.9986 46.3074 79.652 46.2982 79.2963 46.2982Z" stroke="#1D1D1B" stroke-width="0.5" stroke-linecap="round" stroke-linejoin="round"/>
<path d="M66.8557 55.6289C66.5478 54.9544 66.1061 54.3495 65.5573 53.851C65.0086 53.3524 64.3642 52.9705 63.6634 52.7285C62.7422 53.5012 62.1012 54.5558 61.8393 55.7292C61.835 55.7839 61.835 55.8388 61.8393 55.8934C61.7935 56.0443 61.7788 56.203 61.7961 56.3597C61.8133 56.5165 61.8621 56.6681 61.9396 56.8055C62.224 57.0643 62.5948 57.2074 62.9794 57.2068C63.9509 57.3493 64.8568 57.7816 65.5788 58.4472C66.6185 59.4049 67.3573 60.8916 68.7528 61.1835C69.2044 61.2475 69.6647 61.2068 70.098 61.0644C70.5314 60.9221 70.9262 60.6819 71.2519 60.3626C71.9368 59.6212 72.5478 58.8148 73.076 57.9547C73.5218 57.8999 73.941 57.7136 74.2805 57.4196C74.62 57.1256 74.8643 56.7372 74.9823 56.3039C75.0743 55.8571 75.0285 55.3929 74.8509 54.9727C74.6734 54.5526 74.3726 54.1962 73.9881 53.9507" stroke="#1D1D1B" stroke-width="0.5" stroke-linecap="round" stroke-linejoin="round"/>
<path d="M60.8181 55.4927C58.1653 58.4838 56.068 61.9246 54.6251 65.6532C54.3449 66.3372 54.1282 67.0455 53.9775 67.7692C53.7264 68.7982 53.8062 69.8801 54.2056 70.8611" stroke="#1D1D1B" stroke-width="0.5" stroke-linecap="round" stroke-linejoin="round"/>
<path d="M56.248 68.0334C57.1805 66.7896 58.447 65.8361 59.9002 65.2839C61.3534 64.7317 62.9335 64.6035 64.4567 64.9142C67.4307 65.6899 70.5174 65.9399 73.5775 65.6529C74.2532 65.9618 74.8315 66.4497 75.2496 67.064C75.6676 67.6782 75.9095 68.3951 75.9489 69.1371" stroke="#1D1D1B" stroke-width="0.5" stroke-linecap="round" stroke-linejoin="round"/>
<path d="M65.4043 68.48C66.6123 68.6521 67.833 68.7192 69.0526 68.6806C69.7637 68.6641 70.4733 68.6062 71.1777 68.5073" stroke="#1D1D1B" stroke-width="0.5" stroke-linecap="round" stroke-linejoin="round"/>
<path d="M69.0176 68.6992L71.0515 69.438" stroke="#1D1D1B" stroke-width="0.5" stroke-linecap="round" stroke-linejoin="round"/>
<path d="M75.6934 56.5229C76.905 60.607 77.5735 64.8328 77.6817 69.0913C77.6817 69.4106 77.6817 69.7389 77.6817 70.0581" stroke="#1D1D1B" stroke-width="0.5" stroke-linecap="round" stroke-linejoin="round"/>
<path d="M64.877 76.4606C66.1407 76.3778 67.4073 76.5708 68.5891 77.0261" stroke="#1D1D1B" stroke-width="0.5" stroke-linecap="round" stroke-linejoin="round"/>
<path d="M35.7988 40.0419C36.0462 39.8038 36.3649 39.6535 36.7059 39.614C37.047 39.5744 37.3915 39.6478 37.6868 39.823C37.8894 39.9349 38.0764 40.0729 38.2432 40.2334C38.5649 40.5473 38.8467 40.8995 39.0823 41.2823C39.4471 41.8204 39.7846 42.3768 40.0947 42.924C40.7234 43.9775 41.2342 45.097 41.6179 46.2622C40.7381 47.4448 40.3168 48.9062 40.4322 50.3757C40.4796 51.0032 40.6274 51.6191 40.87 52.1998" stroke="#1D1D1B" stroke-width="0.5" stroke-linecap="round" stroke-linejoin="round"/>
<path d="M38.1526 40.3335C37.5227 40.7928 37.0113 41.3956 36.6607 42.0919C36.3102 42.7882 36.1306 43.558 36.1369 44.3375C36.1665 45.9032 36.6341 47.4293 37.4867 48.7428" stroke="#1D1D1B" stroke-width="0.5" stroke-linecap="round" stroke-linejoin="round"/>
<path d="M39.7313 43.1611C39.1648 43.9193 38.7708 44.7921 38.577 45.7185C38.3832 46.6449 38.3943 47.6025 38.6094 48.5241C38.7543 49.2115 39.0232 49.8667 39.4029 50.4577" stroke="#1D1D1B" stroke-width="0.5" stroke-linecap="round" stroke-linejoin="round"/>
<path d="M39.3203 51.9624C39.5137 52.9659 39.9523 53.9059 40.5972 54.6986" stroke="#1D1D1B" stroke-width="0.5" stroke-linecap="round" stroke-linejoin="round"/>
<path d="M90.4604 48.1499C89.1683 49.1626 88.1417 50.4741 87.4688 51.9715" stroke="#1D1D1B" stroke-width="0.5" stroke-linecap="round" stroke-linejoin="round"/>
<path d="M88.9834 49.874C88.9566 52.2208 88.1004 54.4824 86.5664 56.2585" stroke="#1D1D1B" stroke-width="0.5" stroke-linecap="round" stroke-linejoin="round"/>
<path d="M58.6556 44.9854C58.5975 45.0424 58.5591 45.1165 58.546 45.1969C58.5329 45.2772 58.5457 45.3597 58.5827 45.4323C58.6451 45.5654 58.7547 45.6706 58.8903 45.7274C59.0259 45.7842 59.1778 45.7886 59.3165 45.7397C59.4552 45.6908 59.5707 45.5922 59.6407 45.4629C59.7108 45.3336 59.7302 45.1829 59.6954 45.0401" stroke="#1D1D1B" stroke-width="0.5" stroke-linecap="round" stroke-linejoin="round"/>
<path d="M79.2976 46.3901C79.2552 46.4502 79.2324 46.5219 79.2324 46.5954C79.2324 46.6689 79.2552 46.7405 79.2976 46.8006C79.347 46.8791 79.4123 46.9465 79.4892 46.9983C79.5662 47.0501 79.6532 47.0853 79.7445 47.1016C79.8345 47.1152 79.9265 47.1065 80.0124 47.0763C80.0982 47.046 80.1754 46.9952 80.237 46.9283C80.2973 46.8595 80.3377 46.7756 80.3538 46.6856C80.3699 46.5955 80.361 46.5029 80.3282 46.4175" stroke="#1D1D1B" stroke-width="0.5" stroke-linecap="round" stroke-linejoin="round"/>
<path d="M102.6 25.412C102.699 25.5859 102.863 25.7133 103.057 25.7663C103.25 25.8193 103.456 25.7935 103.63 25.6947C103.972 25.4724 104.241 25.1555 104.405 24.7826C104.798 24.18 105.082 23.5132 105.245 22.8125C105.321 22.4616 105.31 22.0974 105.215 21.7512C105.12 21.4049 104.942 21.0869 104.697 20.8242" stroke="#1D1D1B" stroke-width="0.5" stroke-linecap="round" stroke-linejoin="round"/>
<path d="M49.2793 17.9697C49.9882 17.7974 50.7317 17.833 51.4208 18.0724C52.1099 18.3118 52.7154 18.7449 53.1647 19.3196" stroke="#1D1D1B" stroke-width="0.5" stroke-linecap="round" stroke-linejoin="round"/>
<path d="M53.5859 14.8867C54.6948 17.1662 56.5346 19.0092 58.8121 20.122" stroke="#1D1D1B" stroke-width="0.5" stroke-linecap="round" stroke-linejoin="round"/>
<path d="M58.1367 14.5312C59.0488 15.7534 59.7693 17.0851 60.6358 18.3164C61.466 19.5902 62.5886 20.6472 63.9101 21.3992" stroke="#1D1D1B" stroke-width="0.5" stroke-linecap="round" stroke-linejoin="round"/>
<path d="M68.3065 12.5791C67.7443 13.2915 67.3329 14.1107 67.0971 14.987C66.8613 15.8633 66.8062 16.7783 66.935 17.6766C67.0638 18.5749 67.3739 19.4375 67.8464 20.2123C68.3189 20.987 68.944 21.6576 69.6837 22.1832" stroke="#1D1D1B" stroke-width="0.5" stroke-linecap="round" stroke-linejoin="round"/>
</svg>
