<svg width="265" height="265" viewBox="0 0 265 265" fill="none" xmlns="http://www.w3.org/2000/svg">
<path d="M262.259 69.3315L262.349 68.9463L264.096 69.3444C249.982 72.6999 236.421 78.0571 223.825 85.253V85.6125C219.468 86.7852 215.153 88.0692 210.881 89.4645L210.74 89.0279C214.123 85.6995 217.957 82.864 222.13 80.605C226.185 78.374 230.447 76.5421 234.856 75.1351C243.729 72.2847 253.014 70.8081 262.259 69.3315Z" fill="#D1D0D1"/>
<path d="M218.832 147.849L222.915 166.98C223.635 169.689 223.963 172.486 223.891 175.288H223.519C216.631 171.242 209.251 168.101 201.56 165.94L199.48 165.375C195.678 164.397 191.818 163.66 187.923 163.167C179.576 162.127 171.037 162.191 162.921 159.995L162.729 159.559C166.53 157.847 170.382 156.272 174.286 154.834C186.806 155.797 199.557 156.387 211.525 152.677C212.521 151.958 213.458 151.159 214.325 150.288C215.654 149.153 217.136 148.21 218.729 147.489L218.832 147.849Z" fill="#D1D0D1"/>
<path d="M162.625 192.737C158.73 186.498 156.233 179.489 155.305 172.193L154.586 172.296C153.816 176.353 153.161 180.565 154.124 184.571C155.087 188.577 158.079 192.39 162.149 193.084L162.625 192.737ZM201.559 165.915C203.762 169.015 205.279 172.55 206.007 176.283C206.736 180.016 206.66 183.861 205.784 187.563C204.799 191.117 203.037 194.409 200.625 197.2C198.214 199.991 195.213 202.212 191.838 203.702C189.09 206.591 182.85 208.556 176.429 208.235C174.544 208.15 172.674 207.853 170.856 207.349C162.766 205.076 156.165 198.849 152.493 191.273C148.632 183.276 147.828 174.143 150.233 165.594V165.529C151.851 164.669 153.482 163.847 155.113 163.051C156.243 162.486 157.385 161.934 158.528 161.408L158.657 161.69C159.046 169.414 162.47 176.673 168.184 181.886C173.898 187.099 181.439 189.845 189.167 189.527C193.15 189.54 197.019 188.205 200.147 185.739C203.126 183.171 204.757 178.78 203.357 175.095L199.428 165.542V165.298L201.559 165.915Z" fill="#A55DA1"/>
<path d="M158.078 104.77C157.705 107.817 157.796 110.904 158.348 113.924C158.819 107.883 160.534 102.005 163.384 96.658C166.235 91.3109 170.16 86.6106 174.913 82.8518C175.993 81.983 177.116 81.1687 178.277 80.4122C177.892 78.987 177.686 77.9726 177.481 76.9455L180.447 77.4847C180.447 76.0467 180.447 74.7755 180.447 73.5044C183.016 73.9281 185.866 74.2876 187.985 72.7981C188.97 72.0205 189.801 71.0671 190.438 69.9862L196.858 60.4205C198.073 59.5454 199.571 59.1561 201.058 59.3291C202.192 59.5737 203.356 59.6472 204.512 59.5474C205.808 59.2243 206.927 58.4091 207.632 57.2747C208.331 56.1548 208.876 54.9454 209.25 53.6795C211.818 54.9635 214.836 56.2475 217.905 57.5315C215.796 55.7822 213.781 53.9221 211.87 51.959C228.079 59.341 245.002 65.0417 262.374 68.9719L262.284 69.3571C253.039 70.8336 243.755 72.3103 234.843 75.1992C230.434 76.6062 226.172 78.438 222.117 80.669L221.937 80.3352C222.679 79.0359 222.972 77.529 222.772 76.0466C222.556 74.5788 222.059 73.1664 221.308 71.8865C221.021 71.3207 220.634 70.8117 220.165 70.3843C219.929 70.1773 219.65 70.0251 219.348 69.9385C219.046 69.8519 218.729 69.8332 218.419 69.8835C212.408 74.5692 205.587 78.1119 198.297 80.3352C193.246 85.8605 187.526 90.7345 181.269 94.8443C175.793 103.872 169.3 112.243 161.917 119.792C159.335 121.618 156.583 123.192 153.699 124.492L153.455 123.94C153.558 117.169 153.986 110.419 154.739 103.691C154.739 103.948 154.739 104.217 154.739 104.474L158.078 104.77Z" fill="#D1D0D1"/>
<path d="M155.305 172.141C156.233 179.437 158.73 186.446 162.625 192.685L162.15 192.98C158.079 192.287 155.087 188.486 154.124 184.467C153.161 180.449 153.816 176.25 154.586 172.192L155.305 172.141Z" fill="#A55DA1"/>
<path d="M135.8 130L135.363 130.09C126.965 131.849 118.4 132.902 110.04 134.828C109.022 134.348 107.954 133.982 106.855 133.737L106.933 133.403C107.984 129.361 109.393 125.421 111.144 121.629C112.901 117.816 115.624 114.527 119.042 112.089C124.461 108.468 131.575 108.083 137.867 109.778C132.328 105.951 126.687 102.296 120.942 98.8123L121.173 98.4399L142.695 101.74L142.824 104.077C143.633 111.46 143.838 120.024 144.647 127.407L144.776 127.843C141.835 128.627 138.83 129.358 135.8 130Z" fill="#A55DA1"/>
<path d="M142.835 103.974L142.707 101.637C143.888 100.828 146.803 100.995 148.1 101.637H148.203C149.487 109.559 150.771 117.469 151.452 125.455C149.282 126.328 147.06 127.099 144.787 127.792L144.659 127.356C143.85 119.921 143.644 111.357 142.835 103.974Z" fill="#A55DA1"/>
<path d="M143.723 35.1518C143.263 35.74 142.761 36.2936 142.22 36.8082L141.989 36.2432C139.662 31.59 137.767 26.7333 136.326 21.7341C149.327 17.6855 162.606 14.5914 176.057 12.4766C174.13 14.4637 172.409 16.6404 170.92 18.9736C170.92 19.2047 170.805 19.2817 170.702 19.3331L174.991 17.9464L172.641 22.6971C174.067 23.0438 175.376 23.0695 176.596 23.4804C177.219 23.6584 177.793 23.975 178.275 24.4063C178.758 24.8377 179.136 25.3728 179.383 25.9713C179.576 26.7106 179.692 27.4679 179.73 28.2311C180.035 29.8958 180.945 31.3891 182.284 32.4246C183.622 33.4601 185.297 33.9649 186.985 33.8422C183.132 34.9593 181.386 39.3505 182.015 43.0741C182.644 46.7976 185.059 49.9434 187.524 52.8067C185.201 53.5585 182.935 54.4768 180.744 55.5545C175.799 57.9629 171.255 61.1202 167.274 64.9148C167.274 73.9027 164.371 81.8763 161.765 89.6958C159.998 94.5744 158.758 99.6278 158.066 104.77L154.779 104.41C154.779 104.154 154.779 103.884 154.779 103.627C154.469 85.0772 152.24 66.6092 148.127 48.5182H147.896C147.896 47.5167 147.896 46.5152 147.896 45.5136L147.28 45.3981C148.805 44.51 150.095 43.2685 151.04 41.7781C151.985 40.2877 152.558 38.5921 152.712 36.8339C152.853 35.0642 152.529 33.2884 151.772 31.6825C151.015 30.0766 149.852 28.6965 148.397 27.679C147.797 27.7854 147.26 28.1159 146.895 28.6035C146.764 28.7568 146.652 28.9248 146.561 29.1042C146.222 29.8325 145.947 30.5886 145.739 31.3641C145.29 32.7333 144.608 34.0147 143.723 35.1518Z" fill="#D1D0D1"/>
<path d="M85.0124 193.199C86.9257 193.712 88.8005 194.354 90.701 194.868C97.3646 196.668 104.37 196.791 111.093 195.227C114.37 194.581 117.449 193.174 120.082 191.119C121.392 190.075 122.443 188.743 123.154 187.226C123.864 185.709 124.215 184.049 124.178 182.375L123.806 181.874C132.194 175.815 141.009 170.369 150.182 165.58V165.644C147.777 174.193 148.581 183.326 152.442 191.324C156.101 198.848 162.715 205.127 170.753 207.4C172.572 207.904 174.441 208.201 176.326 208.286V208.517C179.769 221.337 182.272 234.391 183.813 247.576L183.312 248.051C174.4 250.362 166.362 255.254 157.565 257.989C150.708 260.12 143.44 259.401 136.326 260.634L128.48 261.995C124.872 262.624 121.263 263.279 117.603 263.523C111.865 263.833 106.111 263.687 100.396 263.086C85.8941 261.897 71.4392 260.36 57.0313 258.477C55.5674 251.124 54.1078 243.762 52.6525 236.392L52.9093 236.174C44.1516 224.635 35.8561 212.75 28.023 200.517L28.1514 200.338C26.33 199.044 24.6126 197.61 23.0149 196.049C20.1799 193.373 18.1589 189.95 17.185 186.175L17.2492 186.098C14.2411 183.519 11.5782 180.563 9.32617 177.303L11.7917 177.123C23.8199 184.224 37.9343 186.946 51.7407 184.827C55.2336 186.509 58.0458 189.385 61.423 191.324C65.7454 193.786 70.8077 194.615 75.6896 193.661V193.443C78.6937 194.207 81.8413 194.207 84.8454 193.443L85.0124 193.199Z" fill="#A55DA1"/>
<path d="M84.9751 193.327C82.1132 194.041 79.1247 194.079 76.2454 193.439C73.3661 192.8 70.6749 191.5 68.3842 189.642C66.1306 187.742 64.3512 185.343 63.1876 182.635C62.024 179.926 61.5081 176.984 61.6811 174.042C61.9764 169.638 63.8127 165.503 65.816 161.561C69.62 154.072 74.0941 146.943 79.1837 140.26C80.966 138.631 83.0639 137.385 85.3475 136.601C88.1057 135.612 91.0449 135.231 93.964 135.483C95.8357 134.441 97.8802 133.745 99.9993 133.429C101.512 133.194 103.048 133.151 104.571 133.301C105.341 133.377 106.104 133.506 106.857 133.686C107.955 133.931 109.023 134.297 110.041 134.777C109.005 135.017 107.965 135.274 106.921 135.548V135.458C101.035 139.043 96.7154 144.714 94.8243 151.341C92.978 157.984 92.894 164.994 94.5803 171.679C95.8644 177.38 98.4327 183.145 103.222 186.509C108.012 189.873 113.791 191.273 117.425 186.689C119.531 185.046 121.671 183.441 123.845 181.874L124.218 182.375C124.255 184.049 123.904 185.71 123.193 187.226C122.483 188.743 121.432 190.075 120.122 191.119C117.489 193.174 114.41 194.582 111.133 195.228C104.41 196.792 97.4043 196.668 90.7408 194.868C88.8403 194.355 86.9655 193.713 85.0521 193.199L84.9751 193.327ZM77.2704 170.498C78.548 159.629 82.8054 149.324 89.5722 140.722L89.3539 140.555C85.0007 144.407 80.6347 148.452 77.7198 153.511C74.8048 158.57 73.5335 164.861 75.678 170.28L77.2704 170.498Z" fill="#A55DA1"/>
<path d="M104.645 132.337C103.853 125.16 104.873 117.898 107.612 111.216L107.509 111.075C107.931 110.824 108.323 110.527 108.678 110.189C110.141 108.561 111.065 106.52 111.323 104.346H111.4C113.952 102.252 115.909 99.5249 117.076 96.437L117.422 96.5654L120.967 98.6968C126.72 102.181 132.361 105.836 137.891 109.662C131.599 107.967 124.485 108.378 119.066 111.973C115.648 114.412 112.926 117.7 111.169 121.513C109.417 125.305 108.008 129.245 106.957 133.288L106.88 133.621C106.128 133.441 105.364 133.312 104.594 133.236L104.645 132.337Z" fill="#A55DA1"/>
<path d="M89.5693 140.722C82.8071 149.325 78.5542 159.63 77.2803 170.498L75.6751 170.28C73.5306 164.861 74.8147 158.557 77.7169 153.511C80.619 148.465 84.9978 144.42 89.351 140.555L89.5693 140.722Z" fill="#A55DA1"/>
<path d="M25.6086 143.252C34.9387 142.385 44.1529 140.548 53.1016 137.769C53.8978 137.461 54.7068 137.166 55.5029 136.896V136.755C45.1736 136.398 34.9166 138.604 25.6471 143.175L25.6086 143.252ZM68.3827 189.642C70.5491 191.422 73.0914 192.686 75.8178 193.34V193.558C70.9358 194.512 65.8736 193.683 61.5512 191.222C58.1739 189.283 55.3617 186.407 51.8689 184.725C38.0624 186.843 23.948 184.121 11.9198 177.021L9.45429 177.2C3.61388 168.858 0.742014 158.796 1.29845 148.628C1.85489 138.459 5.80747 128.772 12.5234 121.116C13.0627 120.512 13.602 119.909 14.167 119.344L17.8011 120.14C25.6473 118.828 33.7052 119.795 41.018 122.926C47.9337 125.882 54.4312 129.732 60.3441 134.379L61.2944 135.085C64.3408 134.249 67.4318 133.585 70.5529 133.095C73.1569 132.577 75.8266 132.473 78.4631 132.787C81.121 133.116 83.5565 134.437 85.2818 136.485V136.601C82.9982 137.385 80.9003 138.631 79.1179 140.26C74.048 146.961 69.5953 154.108 65.8145 161.613C63.8112 165.555 61.9621 169.689 61.6796 174.093C61.5148 177.027 62.0345 179.959 63.1979 182.658C64.3612 185.356 66.1363 187.748 68.3827 189.642Z" fill="#A55DA1"/>
<path d="M60.842 133.737C64.5765 130.012 68.5301 126.514 72.6816 123.26C74.8004 121.681 77.3815 120.153 79.9498 120.82C83.4554 121.719 84.8166 126.11 87.8215 128.101L91.1088 126.919C92.1555 128.092 93.2658 129.207 94.4347 130.258L99.9821 133.327V133.429C97.863 133.745 95.8184 134.441 93.9467 135.484C91.0276 135.232 88.0885 135.613 85.3303 136.601V136.485C83.605 134.437 81.1695 133.116 78.5116 132.787C75.8751 132.473 73.2054 132.577 70.6014 133.095C67.4803 133.585 64.3892 134.249 61.3428 135.086L60.3926 134.379L60.842 133.737Z" fill="#A55DA1"/>
<path d="M60.8436 133.737L60.3685 134.379C54.4556 129.731 47.958 125.881 41.0424 122.925C33.7295 119.794 25.6717 118.827 17.8255 120.139L14.1914 119.343C22.6024 110.689 34.0054 105.45 45.1388 100.635C45.1388 101.02 45.2543 101.406 45.3442 101.791C46.1653 104.484 47.4423 107.015 49.1196 109.276C54.0636 116.892 58.0041 125.113 60.8436 133.737Z" fill="#A55DA1"/>
<path d="M51.7031 92.2767C51.8096 91.2932 52.1261 90.344 52.6312 89.4933C53.1363 88.6427 53.8183 87.9105 54.6309 87.3462H56.4929C56.5933 90.5386 56.4818 93.7342 56.159 96.9119L55.9792 97.066C54.541 95.4482 53.1157 93.8517 51.7031 92.2767Z" fill="#A55DA1"/>
<path d="M74.0455 113.322C77.8978 115.89 82.174 118.098 85.6796 121.218C86.8445 122.274 87.9505 123.393 88.9926 124.57L91.1115 126.945L87.8241 128.126C84.8193 126.136 83.4581 121.706 79.9524 120.846C77.3842 120.178 74.8159 121.706 72.6843 123.286C68.5328 126.539 64.5792 130.038 60.8447 133.763C58.0052 125.139 54.0647 116.918 49.1206 109.303C47.4434 107.042 46.1664 104.51 45.3453 101.817C45.2554 101.432 45.1912 101.047 45.1399 100.662C44.9261 98.2914 45.2691 95.904 46.1415 93.6897C47.8237 89.1443 51.3936 85.0869 56.0806 83.8286H56.2989C56.4016 84.9842 56.4658 86.1398 56.4915 87.3082H54.6295C53.8169 87.8725 53.1349 88.6047 52.6298 89.4554C52.1247 90.306 51.8082 91.2552 51.7017 92.2387C53.1143 93.8223 54.5396 95.3974 55.9779 96.9638C61.3171 103.127 67.384 108.619 74.0455 113.322Z" fill="#A55DA1"/>
<path d="M55.5018 136.896C54.7056 137.165 53.8967 137.461 53.1005 137.769C44.1517 140.547 34.9375 142.385 25.6074 143.251V143.187C34.8769 138.616 45.1339 136.411 55.4633 136.767L55.5018 136.896Z" fill="#A55DA1"/>
<path d="M57.0312 258.426C71.4562 260.318 85.9112 261.854 100.396 263.036C106.111 263.636 111.865 263.782 117.603 263.472C121.263 263.19 124.871 262.573 128.48 261.944L136.326 260.583C143.401 259.299 150.708 260.07 157.565 257.938C166.361 255.203 174.4 250.311 183.312 248" stroke="#A55DA1" stroke-linecap="round" stroke-linejoin="round"/>
<path d="M58.869 57.3788C58.2213 55.5422 57.188 53.8654 55.8385 52.4611C55.151 51.7727 54.2677 51.3132 53.3093 51.1455C52.351 50.9777 51.3642 51.1099 50.4837 51.5239C49.2299 52.4562 48.3837 53.8358 48.1209 55.3758C47.8012 56.5666 47.5822 57.7821 47.466 59.0095C47.1221 62.4271 47.5557 65.8782 48.7343 69.1045C49.9129 72.3308 51.806 75.2489 54.2718 77.6402C54.2005 78.3138 54.2698 78.9948 54.4754 79.6402C54.6809 80.2856 55.0183 80.8812 55.4661 81.3895C55.6935 81.6389 55.9476 81.8629 56.2237 82.0572C57.0511 82.6628 58.049 82.9909 59.0745 82.9945" stroke="#1D1D1B" stroke-linecap="round" stroke-linejoin="round"/>
<path d="M67.741 11.707C66.6881 12.1436 65.6351 12.5801 64.5821 13.0552C60.7297 14.8015 56.9416 16.9072 54.3862 20.2584C50.2385 25.7025 50.2128 33.0983 50.3925 39.942V40.1474" stroke="#1D1D1B" stroke-linecap="round" stroke-linejoin="round"/>
<path d="M52.1124 38.2593C51.4801 38.7698 50.8916 39.3325 50.3532 39.9413C48.017 42.4541 46.4785 45.6032 45.9322 48.9903C45.386 52.3773 45.8564 55.8503 47.2842 58.9701" stroke="#1D1D1B" stroke-linecap="round" stroke-linejoin="round"/>
<path d="M64.5449 13.0419C67.617 8.16106 72.217 4.43291 77.6285 2.43803C83.0401 0.443157 88.9595 0.293533 94.465 2.01245" stroke="#1D1D1B" stroke-linecap="round" stroke-linejoin="round"/>
<path d="M86.3086 3.19338C89.0181 2.84671 91.7404 2.50004 94.4628 2.28176C97.5685 2.00569 100.693 2.00569 103.798 2.28176C109.615 2.85956 115.471 4.84974 119.632 9.02272C120.764 10.2941 121.973 11.4947 123.253 12.6179C123.919 13.1926 124.714 13.5978 125.57 13.799C126.426 14.0002 127.319 13.9915 128.171 13.7735C127.67 14.2826 127.069 14.6832 126.406 14.9505C125.744 15.2178 125.033 15.346 124.319 15.3271" stroke="#1D1D1B" stroke-linecap="round" stroke-linejoin="round"/>
<path d="M111.066 13.851C113.231 13.1305 115.533 12.9213 117.793 13.2399C120.052 13.5585 122.206 14.3961 124.087 15.6871C125.04 16.3087 125.923 17.0319 126.72 17.8442C128.641 19.9547 130.112 22.4343 131.044 25.1318C131.976 27.8294 132.348 30.6884 132.139 33.5346C132.01 35.9999 131.522 38.4523 131.612 40.9175C131.592 42.1533 131.832 43.3796 132.316 44.5166C132.801 45.6537 133.519 46.6761 134.425 47.5173" stroke="#1D1D1B" stroke-linecap="round" stroke-linejoin="round"/>
<path d="M69.3339 27.4102C68.1291 29.7868 67.6809 32.4753 68.0498 35.1141C68.4668 37.7803 69.7216 40.2447 71.6325 42.1504C71.5111 43.0221 71.1938 43.855 70.7046 44.5866C70.2153 45.3182 69.5667 45.9295 68.8074 46.3747C67.2819 47.2449 65.893 48.3352 64.6854 49.6104C63.6889 51.2118 62.9967 52.9834 62.6436 54.8362C62.4647 55.7759 62.0807 56.6647 61.5192 57.4392C60.9577 58.2137 60.2324 58.855 59.3948 59.3173L58.8555 57.3528" stroke="#1D1D1B" stroke-linecap="round" stroke-linejoin="round"/>
<path d="M59.3945 74.0444C60.1907 76.9334 59.8183 80.015 59.6 83.0324C59.6 83.1351 59.6 83.2378 59.6 83.3406C59.3817 86.435 59.4074 89.7605 60.9868 92.4055C63.478 96.6427 69.0768 98.1321 71.8505 102.177" stroke="#1D1D1B" stroke-linecap="round" stroke-linejoin="round"/>
<path d="M71.1055 98.543C71.2888 99.7554 71.5767 100.95 71.9658 102.112C72.6249 104.379 73.9114 106.413 75.6769 107.98C78.3864 110.266 82.0976 110.908 85.6417 110.998C89.1859 111.088 92.7558 110.715 96.5696 111.139L97.3401 111.344C99.1238 111.867 100.966 112.164 102.823 112.23C104.461 112.274 106.08 111.875 107.51 111.075C107.932 110.824 108.324 110.527 108.679 110.189C110.142 108.561 111.067 106.52 111.324 104.347C111.414 103.859 111.504 103.371 111.581 102.896" stroke="#1D1D1B" stroke-linecap="round" stroke-linejoin="round"/>
<path d="M111.398 104.359C113.95 102.265 115.908 99.5372 117.074 96.4493C117.421 95.6147 117.703 94.7673 117.96 93.8813C118.657 91.3594 119.134 88.7818 119.386 86.1774C119.54 84.6494 119.668 83.1087 119.784 81.5679" stroke="#1D1D1B" stroke-linecap="round" stroke-linejoin="round"/>
<path d="M118.117 83.4048C118.585 82.7456 119.014 82.0596 119.401 81.3504C120.93 78.851 121.906 76.0535 122.265 73.1457L123.459 66.8927C123.921 64.4275 124.397 61.975 124.859 59.5098" stroke="#1D1D1B" stroke-linecap="round" stroke-linejoin="round"/>
<path d="M134.592 47.5294H134.438C133.98 47.6332 133.505 47.6388 133.045 47.5458C132.584 47.4529 132.149 47.2635 131.767 46.9902C130.945 46.4509 130.29 45.7062 129.635 45.2183C129.481 48.4503 130.422 51.6398 132.306 54.2704C130.312 53.6075 128.536 52.4133 127.17 50.8164C128.022 52.0943 128.611 53.5291 128.902 55.0371C129.193 56.545 129.18 58.0959 128.865 59.5989C128.591 60.8353 128.109 62.0162 127.439 63.0914C126.501 64.6372 125.207 65.9361 123.664 66.8792" stroke="#1D1D1B" stroke-linecap="round" stroke-linejoin="round"/>
<path d="M127.671 63.2715C128.531 64.4463 129.101 65.8075 129.336 67.2445C129.57 68.6814 129.461 70.1533 129.019 71.5404C128.098 74.3015 126.655 76.8601 124.769 79.0774C122.887 81.289 121.215 83.6703 119.773 86.1907" stroke="#1D1D1B" stroke-linecap="round" stroke-linejoin="round"/>
<path d="M96.7986 113.912C95.6685 117.138 94.1139 120.2 92.1758 123.016" stroke="#1D1D1B" stroke-linecap="round" stroke-linejoin="round"/>
<path d="M101.756 29.2721L110.27 24.3415C111.142 23.6676 112.243 23.3591 113.339 23.4813C117.191 28.0779 118.257 34.2539 119.823 40.0191C121.518 46.2226 123.891 52.2207 126.899 57.9051" stroke="#1D1D1B" stroke-linecap="round" stroke-linejoin="round"/>
<path d="M125.011 59.407C124.459 56.6721 123.869 52.9871 123.316 50.2778" stroke="#1D1D1B" stroke-linecap="round" stroke-linejoin="round"/>
<path d="M56.1847 82.3262C56.1847 82.8141 56.2746 83.302 56.3131 83.7899C56.4159 84.9455 56.4801 86.1011 56.5058 87.2695C56.6062 90.462 56.4947 93.6576 56.1719 96.8353" stroke="#1D1D1B" stroke-linecap="round" stroke-linejoin="round"/>
<path d="M56.0806 83.8032C51.3936 85.0872 47.8237 89.1189 46.1415 93.6643C45.2691 95.8786 44.9261 98.2661 45.1399 100.636C45.1399 101.022 45.2554 101.407 45.3453 101.792C46.1664 104.485 47.4434 107.017 49.1206 109.278C54.0647 116.893 58.0052 125.114 60.8447 133.738C64.5792 130.013 68.5328 126.514 72.6843 123.26C74.8031 121.681 77.3842 120.153 79.9524 120.821C83.4581 121.72 84.8193 126.111 87.8241 128.101C88.0266 128.233 88.2367 128.353 88.4533 128.46" stroke="#1D1D1B" stroke-linecap="round" stroke-linejoin="round"/>
<path d="M54.6309 87.3335C53.8183 87.8978 53.1363 88.63 52.6312 89.4807C52.1261 90.3313 51.8096 91.2805 51.7031 92.264C53.1157 93.8476 54.541 95.4227 55.9792 96.9891C61.3201 103.143 67.3868 108.627 74.0469 113.322C77.8992 115.889 82.1753 118.098 85.681 121.218C86.8458 122.274 87.9518 123.392 88.994 124.569L91.1129 126.945C92.1595 128.117 93.2698 129.232 94.4387 130.283L99.9861 133.352" stroke="#1D1D1B" stroke-linecap="round" stroke-linejoin="round"/>
<path d="M107.612 111.217C104.873 117.899 103.853 125.161 104.645 132.338" stroke="#1D1D1B" stroke-linecap="round" stroke-linejoin="round"/>
<path d="M106.932 133.364C107.983 129.322 109.392 125.382 111.144 121.59C112.901 117.777 115.623 114.489 119.041 112.05C124.46 108.429 131.574 108.044 137.866 109.739H137.943" stroke="#1D1D1B" stroke-linecap="round" stroke-linejoin="round"/>
<path d="M117.41 96.5781L120.954 98.7096C126.707 102.193 132.349 105.849 137.879 109.675" stroke="#1D1D1B" stroke-linecap="round" stroke-linejoin="round"/>
<path d="M121.184 98.3369L142.706 101.637C143.887 100.828 146.802 100.995 148.099 101.637" stroke="#1D1D1B" stroke-linecap="round" stroke-linejoin="round"/>
<path d="M142.836 103.974C143.645 111.357 143.85 119.921 144.659 127.304" stroke="#1D1D1B" stroke-linecap="round" stroke-linejoin="round"/>
<path d="M137.367 116.121C138.13 120.456 139.532 124.653 141.528 128.576" stroke="#1D1D1B" stroke-linecap="round" stroke-linejoin="round"/>
<path d="M45.1678 100.624C34.0345 105.439 22.6315 110.677 14.2205 119.331C13.6555 119.896 13.1161 120.5 12.5768 121.103C8.60744 125.668 5.58033 130.973 3.6698 136.712C1.75927 142.451 1.00303 148.512 1.44465 154.545C1.88626 160.577 3.51699 166.463 6.24294 171.863C8.9689 177.263 12.7362 182.071 17.328 186.009C18.6111 187.123 19.962 188.157 21.373 189.103" stroke="#1D1D1B" stroke-linecap="round" stroke-linejoin="round"/>
<path d="M17.2617 186.123C18.2357 189.898 20.2566 193.321 23.0916 195.997C24.6894 197.558 26.4068 198.992 28.2281 200.285C29.5123 201.261 30.9248 202.186 32.286 203.11" stroke="#1D1D1B" stroke-linecap="round" stroke-linejoin="round"/>
<path d="M28.0742 200.466C35.8902 212.673 44.1857 224.558 52.9605 236.123C54.2018 237.783 55.4603 239.427 56.7358 241.053" stroke="#1D1D1B" stroke-linecap="round" stroke-linejoin="round"/>
<path d="M52.7051 236.34C54.169 243.702 55.6286 251.063 57.0839 258.425V258.643" stroke="#1D1D1B" stroke-linecap="round" stroke-linejoin="round"/>
<path d="M107.035 135.419L106.881 135.509C101.019 139.089 96.7157 144.739 94.8226 151.34C92.9764 157.984 92.8923 164.993 94.5786 171.679C95.8628 177.38 98.431 183.145 103.221 186.509C108.011 189.873 113.789 191.273 117.423 186.689" stroke="#1D1D1B" stroke-linecap="round" stroke-linejoin="round"/>
<path d="M91.9602 137.859C91.1256 138.783 90.3294 139.746 89.5847 140.722C82.8224 149.325 78.5695 159.63 77.2956 170.498C77.21 171.354 77.1329 172.21 77.0645 173.066" stroke="#1D1D1B" stroke-linecap="round" stroke-linejoin="round"/>
<path d="M75.6907 170.28C73.5462 164.861 74.8304 158.557 77.7325 153.511C80.6346 148.465 85.0135 144.42 89.3666 140.555" stroke="#1D1D1B" stroke-linecap="round" stroke-linejoin="round"/>
<path d="M110.041 134.777C109.023 134.297 107.955 133.931 106.857 133.686C106.104 133.506 105.341 133.377 104.571 133.301C103.048 133.151 101.512 133.194 99.9993 133.429C97.8802 133.745 95.8357 134.441 93.964 135.483C91.0449 135.231 88.1057 135.612 85.3475 136.601C83.0639 137.385 80.966 138.631 79.1837 140.26C74.0915 146.959 69.6173 154.106 65.816 161.613C63.8127 165.555 61.9636 169.689 61.6811 174.093C61.5081 177.036 62.024 179.978 63.1876 182.686C64.3512 185.394 66.1306 187.794 68.3842 189.694C70.6749 191.551 73.3661 192.851 76.2454 193.491C79.1247 194.13 82.1132 194.092 84.9751 193.379" stroke="#1D1D1B" stroke-linecap="round" stroke-linejoin="round"/>
<path d="M79.5801 192.428C81.4194 192.468 83.2455 192.749 85.0119 193.263C86.9253 193.777 88.8001 194.419 90.7006 194.932C97.3641 196.732 104.37 196.856 111.092 195.292C114.369 194.646 117.449 193.238 120.081 191.183C121.391 190.139 122.443 188.807 123.153 187.29C123.864 185.774 124.214 184.113 124.178 182.439" stroke="#1D1D1B" stroke-linecap="round" stroke-linejoin="round"/>
<path d="M13.2305 163.103C23.4 161.771 33.3022 158.873 42.5855 154.513C51.8606 150.157 60.8657 145.247 69.5521 139.812" stroke="#1D1D1B" stroke-linecap="round" stroke-linejoin="round"/>
<path d="M27.2148 174.259C43.3213 166.299 58.3825 156.38 72.0564 144.728" stroke="#1D1D1B" stroke-linecap="round" stroke-linejoin="round"/>
<path d="M18.1621 143.765C20.6533 143.662 23.1445 143.495 25.61 143.264C34.9401 142.397 44.1543 140.56 53.1031 137.781C53.8992 137.473 54.7082 137.178 55.5044 136.908C57.4134 136.232 59.3525 135.629 61.3215 135.098C64.3679 134.261 67.4589 133.597 70.58 133.108C73.184 132.589 75.8537 132.485 78.4902 132.8C81.1481 133.128 83.5836 134.449 85.3089 136.497" stroke="#1D1D1B" stroke-linecap="round" stroke-linejoin="round"/>
<path d="M25.5957 143.187C34.8652 138.616 45.1222 136.411 55.4516 136.767" stroke="#1D1D1B" stroke-linecap="round" stroke-linejoin="round"/>
<path d="M17.8262 120.14C25.6724 118.829 33.7302 119.796 41.0431 122.927C47.9587 125.882 54.4563 129.733 60.3692 134.38L61.3194 135.086" stroke="#1D1D1B" stroke-linecap="round" stroke-linejoin="round"/>
<path d="M11.8672 177.021C23.8954 184.122 38.0098 186.844 51.8163 184.725" stroke="#1D1D1B" stroke-linecap="round" stroke-linejoin="round"/>
<path d="M43.9844 182.978C46.4204 183.027 48.8287 183.505 51.0984 184.39L51.8175 184.724C55.3103 186.406 58.1226 189.282 61.4998 191.221C65.8223 193.683 70.8844 194.512 75.7664 193.558" stroke="#1D1D1B" stroke-linecap="round" stroke-linejoin="round"/>
<path d="M52.0744 187.986C48.4517 194.824 43.5775 200.922 37.7051 205.962" stroke="#1D1D1B" stroke-linecap="round" stroke-linejoin="round"/>
<path d="M56.364 192.505L53.8984 216.901" stroke="#1D1D1B" stroke-linecap="round" stroke-linejoin="round"/>
<path d="M125.102 181.258C133.333 204.241 140.665 229.613 144.055 253.791" stroke="#1D1D1B" stroke-linecap="round" stroke-linejoin="round"/>
<path d="M106.932 135.599C107.976 135.325 109.016 135.069 110.052 134.829C118.412 132.903 126.977 131.85 135.375 130.091L135.812 130.001C138.829 129.359 141.834 128.627 144.8 127.741C147.073 127.048 149.295 126.277 151.465 125.404C152.223 125.096 152.98 124.762 153.712 124.429C156.596 123.129 159.348 121.555 161.931 119.729C169.305 112.199 175.794 103.85 181.27 94.8453C187.515 90.7458 193.226 85.8849 198.271 80.3748C205.562 78.1514 212.382 74.6088 218.394 69.9231C218.704 69.8727 219.021 69.8915 219.323 69.9781C219.625 70.0646 219.904 70.2169 220.14 70.4238C220.609 70.8513 220.996 71.3603 221.283 71.9261C222.033 73.206 222.53 74.6184 222.747 76.0862C222.946 77.5686 222.653 79.0755 221.912 80.3748" stroke="#1D1D1B" stroke-linecap="round" stroke-linejoin="round"/>
<path d="M175.875 112.731C176.238 111.616 176.873 110.608 177.723 109.799C178.572 108.99 179.61 108.405 180.742 108.096" stroke="#1D1D1B" stroke-linecap="round" stroke-linejoin="round"/>
<path d="M178.639 112.153C181.053 107.101 184.246 102.46 188.103 98.4011C195.523 95.0396 203.114 92.0695 210.844 89.503C215.125 88.0821 219.44 86.7981 223.788 85.651C224.86 85.6434 225.915 85.9153 226.85 86.44C227.784 86.9646 228.566 87.7239 229.118 88.6428C229.661 89.5727 230.002 90.6073 230.117 91.6784C230.232 92.7496 230.119 93.833 229.785 94.8573C229.083 97.0031 227.634 98.8256 225.702 99.9932C224.225 100.866 222.735 101.727 221.246 102.561C215.253 105.985 209.171 109.255 202.998 112.371" stroke="#1D1D1B" stroke-linecap="round" stroke-linejoin="round"/>
<path d="M201.11 108.828C199.643 111.4 197.95 113.837 196.051 116.108" stroke="#1D1D1B" stroke-linecap="round" stroke-linejoin="round"/>
<path d="M200.994 131.734C203.472 129.358 205.825 126.855 208.044 124.236" stroke="#1D1D1B" stroke-linecap="round" stroke-linejoin="round"/>
<path d="M221.333 102.549C222.372 101.988 223.476 101.557 224.62 101.265C225.781 100.975 227.007 101.126 228.062 101.689C229.302 102.632 230.204 103.952 230.63 105.451C231.683 108.019 232.736 110.869 231.76 113.45C231.031 115.042 229.847 116.382 228.357 117.302C228.011 117.546 227.651 117.79 227.304 118.008C221.437 121.584 215.297 124.692 208.941 127.304" stroke="#1D1D1B" stroke-linecap="round" stroke-linejoin="round"/>
<path d="M228.257 117.302L228.372 117.366C230.529 118.43 232.21 120.262 233.085 122.502C233.904 124.834 233.953 127.368 233.226 129.731C232.494 130.27 231.762 130.809 231.017 131.323C225.039 135.55 218.619 139.114 211.871 141.954" stroke="#1D1D1B" stroke-linecap="round" stroke-linejoin="round"/>
<path d="M211.562 139.092L206.67 144.061" stroke="#1D1D1B" stroke-linecap="round" stroke-linejoin="round"/>
<path d="M231.184 131.593C232.346 132.763 233.129 134.255 233.434 135.876C233.738 137.497 233.549 139.171 232.892 140.683C232.342 141.698 231.592 142.591 230.687 143.308C229.782 144.026 228.741 144.552 227.627 144.856C225.457 145.614 223.133 145.884 220.937 146.577C220.156 146.821 219.393 147.117 218.651 147.463C217.059 148.184 215.576 149.126 214.247 150.262L213.926 150.545" stroke="#1D1D1B" stroke-linecap="round" stroke-linejoin="round"/>
<path d="M216.699 147.219C215.984 148.326 215.144 149.347 214.195 150.262C213.328 151.133 212.392 151.931 211.395 152.65C199.453 156.361 186.702 155.771 174.156 154.808L170.92 154.551" stroke="#1D1D1B" stroke-linecap="round" stroke-linejoin="round"/>
<path d="M117.426 186.689C119.532 185.046 121.672 183.441 123.846 181.874C132.234 175.815 141.049 170.37 150.222 165.581C151.84 164.72 153.471 163.899 155.102 163.102C156.232 162.537 157.375 161.985 158.518 161.459C159.905 160.804 161.304 160.175 162.704 159.533C166.505 157.821 170.357 156.246 174.261 154.808L174.428 154.744" stroke="#1D1D1B" stroke-linecap="round" stroke-linejoin="round"/>
<path d="M210.699 89.0675C214.082 85.7391 217.916 82.9035 222.089 80.6445C226.144 78.4135 230.406 76.5816 234.815 75.1747C243.727 72.2857 253.011 70.8091 262.257 69.3325" stroke="#1D1D1B" stroke-linecap="round" stroke-linejoin="round"/>
<path d="M170.702 19.3331C170.805 19.3331 170.882 19.2047 170.92 18.9736C172.409 16.6404 174.13 14.4637 176.057 12.4766C162.606 14.5914 149.327 17.6855 136.326 21.7341C137.767 26.7333 139.662 31.59 141.989 36.2432" stroke="#1D1D1B" stroke-linecap="round" stroke-linejoin="round"/>
<path d="M223.826 85.2536C236.422 78.0577 249.983 72.7006 264.096 69.345L262.35 68.9469C244.978 65.0168 228.054 59.316 211.845 51.934C213.757 53.8971 215.771 55.7573 217.88 57.5066C214.811 56.2226 211.755 54.9386 209.225 53.6546C208.851 54.9205 208.307 56.1299 207.607 57.2498C206.902 58.3842 205.783 59.1994 204.487 59.5224C203.331 59.6223 202.167 59.5487 201.033 59.3042C199.546 59.1312 198.048 59.5205 196.834 60.3956L190.413 69.9613C189.776 71.0422 188.945 71.9956 187.96 72.7732C185.842 74.2626 182.978 73.9031 180.423 73.4794C180.423 74.7634 180.423 76.0474 180.423 77.4598L177.456 76.9205C177.662 77.9477 177.867 78.962 178.252 80.3873C177.091 81.1438 175.968 81.958 174.888 82.8269C170.135 86.5857 166.21 91.286 163.359 96.6331C160.509 101.98 158.794 107.859 158.323 113.899C157.771 110.879 157.68 107.792 158.053 104.745C158.756 99.6146 160.005 94.5743 161.777 89.7091C164.345 81.8896 167.273 73.8646 167.286 64.928C171.263 61.13 175.802 57.9683 180.744 55.5549C182.931 54.4778 185.192 53.5595 187.511 52.8072C185.045 49.9439 182.631 46.7981 182.002 43.0745C181.373 39.3509 183.145 34.9597 186.972 33.8426C185.283 33.9653 183.609 33.4605 182.27 32.425C180.931 31.3895 180.022 29.8962 179.716 28.2315C179.679 27.4683 179.563 26.711 179.37 25.9717C179.123 25.3732 178.745 24.8382 178.262 24.4068C177.779 23.9754 177.205 23.6588 176.583 23.4808C175.363 23.0699 174.015 23.0442 172.628 22.6975L174.978 17.9468L170.689 19.3335H170.586" stroke="#1D1D1B" stroke-linecap="round" stroke-linejoin="round"/>
<path d="M147.356 45.3983C148.882 44.5102 150.171 43.2687 151.116 41.7783C152.062 40.2879 152.635 38.5922 152.788 36.8341C152.93 35.0644 152.606 33.2886 151.849 31.6827C151.092 30.0768 149.928 28.6966 148.473 27.6792C147.873 27.7856 147.336 28.1161 146.971 28.6037C146.841 28.7569 146.728 28.925 146.637 29.1044C146.299 29.8327 146.024 30.5888 145.815 31.3642C145.355 32.7361 144.659 34.0177 143.761 35.152C143.289 35.7416 142.774 36.2952 142.22 36.8084C140.832 38.0818 139.266 39.1459 137.571 39.967C137.186 42.535 136.749 45.1928 136.21 47.8507C135.748 50.1234 135.208 52.4346 134.579 54.8099C134.382 55.5547 134.177 56.2994 133.963 57.0441C136.798 63.9172 140.431 70.4332 144.788 76.458C145.186 77.0487 145.61 77.6265 146.072 78.1914" stroke="#1D1D1B" stroke-linecap="round" stroke-linejoin="round"/>
<path d="M148.113 77.3823C148.822 78.4792 149.188 79.7618 149.166 81.0674" stroke="#1D1D1B" stroke-linecap="round" stroke-linejoin="round"/>
<path d="M147.934 45.5142C147.934 46.5157 147.934 47.5172 147.934 48.5187C147.87 50.7863 147.69 53.0491 147.395 55.2982" stroke="#1D1D1B" stroke-linecap="round" stroke-linejoin="round"/>
<path d="M148.129 48.519C152.242 66.61 154.471 85.078 154.781 103.628C154.781 103.885 154.781 104.154 154.781 104.411" stroke="#1D1D1B" stroke-linecap="round" stroke-linejoin="round"/>
<path d="M156.344 92.5601C155.727 96.2323 155.201 99.9302 154.79 103.628C154.02 110.356 153.591 117.106 153.506 123.877" stroke="#1D1D1B" stroke-linecap="round" stroke-linejoin="round"/>
<path d="M144.787 76.4717C145.481 84.8818 146.88 93.2278 148.241 101.574C149.526 109.496 150.81 117.405 151.49 125.392" stroke="#1D1D1B" stroke-linecap="round" stroke-linejoin="round"/>
<path d="M170.188 75.5088C170.072 77.1009 169.944 78.7059 169.828 80.2981" stroke="#1D1D1B" stroke-linecap="round" stroke-linejoin="round"/>
<path d="M171.188 77.9992C171.778 76.7152 172.356 75.4312 172.934 74.1472C175.502 68.626 178.07 63.092 180.703 57.4553C180.703 56.7619 180.703 56.1713 180.703 55.5293" stroke="#1D1D1B" stroke-linecap="round" stroke-linejoin="round"/>
<path d="M173.037 74.1987C173.139 77.0176 173.68 79.8032 174.642 82.4548" stroke="#1D1D1B" stroke-linecap="round" stroke-linejoin="round"/>
<path d="M162.895 159.969C171.01 162.164 179.588 162.1 187.896 163.14C191.791 163.633 195.651 164.371 199.454 165.349L201.534 165.914C209.224 168.074 216.604 171.216 223.492 175.261" stroke="#1D1D1B" stroke-linecap="round" stroke-linejoin="round"/>
<path d="M218.83 147.848L222.914 166.98C223.633 169.688 223.961 172.486 223.89 175.287V175.351" stroke="#1D1D1B" stroke-linecap="round" stroke-linejoin="round"/>
<path d="M158.645 161.741C159.034 169.466 162.458 176.724 168.172 181.937C173.886 187.15 181.427 189.896 189.155 189.578C193.138 189.591 197.007 188.256 200.135 185.79C203.114 183.222 204.745 178.831 203.345 175.146L199.415 165.593" stroke="#1D1D1B" stroke-linecap="round" stroke-linejoin="round"/>
<path d="M155.062 163.102C154.827 166.097 154.896 169.109 155.268 172.09C156.195 179.386 158.692 186.395 162.587 192.634C163.036 193.366 163.512 194.072 164.012 194.765" stroke="#1D1D1B" stroke-linecap="round" stroke-linejoin="round"/>
<path d="M154.586 172.244C153.816 176.301 153.161 180.513 154.124 184.519C155.087 188.525 158.079 192.338 162.15 193.031" stroke="#1D1D1B" stroke-linecap="round" stroke-linejoin="round"/>
<path d="M150.245 165.644C147.84 174.193 148.644 183.326 152.505 191.324C156.164 198.848 162.778 205.127 170.816 207.399C172.635 207.903 174.504 208.201 176.389 208.285C182.81 208.606 189.089 206.642 191.799 203.753C195.173 202.262 198.174 200.041 200.586 197.25C202.997 194.459 204.759 191.168 205.744 187.613C206.62 183.912 206.696 180.066 205.968 176.333C205.239 172.6 203.723 169.066 201.52 165.965" stroke="#1D1D1B" stroke-linecap="round" stroke-linejoin="round"/>
<path d="M176.379 208.465C179.822 221.285 182.324 234.339 183.865 247.524" stroke="#1D1D1B" stroke-linecap="round" stroke-linejoin="round"/>
<path d="M132.369 124.852L135.811 129.988" stroke="#1D1D1B" stroke-linecap="round" stroke-linejoin="round"/>
<path d="M75.0605 51.4977C75.3259 51.2462 75.6418 51.0543 75.9873 50.9347C76.3327 50.8152 76.6998 50.7707 77.0638 50.8044C77.7942 50.8838 78.5037 51.0971 79.1569 51.4335C81.6129 52.5676 83.801 54.2085 85.5775 56.2485C87.8461 58.2241 90.6212 59.527 93.5904 60.0106" stroke="#1D1D1B" stroke-width="0.5" stroke-linecap="round" stroke-linejoin="round"/>
<path d="M97.9296 57.9043L94.2441 61.615" stroke="#1D1D1B" stroke-width="0.5" stroke-linecap="round" stroke-linejoin="round"/>
<path d="M83.8301 42.2017C88.3591 45.8134 92.3842 50.0152 95.7981 54.6949" stroke="#1D1D1B" stroke-width="0.5" stroke-linecap="round" stroke-linejoin="round"/>
<path d="M97.6973 45.5015C98.7405 49.074 99.2341 52.7843 99.1612 56.5053" stroke="#1D1D1B" stroke-width="0.5" stroke-linecap="round" stroke-linejoin="round"/>
<path d="M105.569 51.2798C104.014 53.838 102.809 56.5932 101.986 59.4717" stroke="#1D1D1B" stroke-width="0.5" stroke-linecap="round" stroke-linejoin="round"/>
<path d="M101.359 63.709C101.411 66.431 101.466 69.1531 101.526 71.8752" stroke="#1D1D1B" stroke-width="0.5" stroke-linecap="round" stroke-linejoin="round"/>
<path d="M103.221 61.0246C103.645 61.4103 104.155 61.6905 104.709 61.8422C105.262 61.9939 105.843 62.0129 106.405 61.8977L114.238 56.4407C115.15 55.7224 116.186 55.1783 117.295 54.8357C117.849 54.6669 118.438 54.6505 119.001 54.7884C119.564 54.9262 120.079 55.2131 120.492 55.619" stroke="#1D1D1B" stroke-width="0.5" stroke-linecap="round" stroke-linejoin="round"/>
<path d="M88.7491 63.5032C88.5971 62.5491 88.2266 61.643 87.6664 60.8559C87.1063 60.0687 86.3716 59.4217 85.5199 58.9654C84.6683 58.5092 83.7226 58.256 82.7569 58.2257C81.7911 58.1955 80.8314 58.3889 79.9529 58.791C78.3558 59.3064 76.9742 60.3357 76.0234 61.7185C80.261 62.1037 84.4344 62.7456 88.7491 63.5032Z" stroke="#1D1D1B" stroke-width="0.5" stroke-linecap="round" stroke-linejoin="round"/>
<path d="M87.284 67.4321C84.3503 70.1497 80.7326 72.0182 76.8184 72.8377" stroke="#1D1D1B" stroke-width="0.5" stroke-linecap="round" stroke-linejoin="round"/>
<path d="M106.855 67.8809C107.616 69.446 108.716 70.8218 110.075 71.908C111.435 72.9942 113.02 73.7634 114.714 74.1596" stroke="#1D1D1B" stroke-width="0.5" stroke-linecap="round" stroke-linejoin="round"/>
<path d="M111.464 64.5943C109.604 64.5401 107.743 64.5958 105.891 64.7612C106.843 63.6153 107.939 62.5968 109.152 61.731C110.389 60.8674 111.912 60.5133 113.403 60.7423C115.611 61.2046 117.075 63.2333 118.18 65.1336C116.446 64.8896 114.687 64.7227 112.94 64.6457C112.453 64.6072 111.965 64.5943 111.464 64.5943Z" stroke="#1D1D1B" stroke-width="0.5" stroke-linecap="round" stroke-linejoin="round"/>
<path d="M93.9517 77.7301C93.5183 76.7806 92.8964 75.929 92.1238 75.2271C91.3512 74.5252 90.444 73.9876 89.4573 73.647C88.1603 74.7347 87.2578 76.2193 86.889 77.8713C86.883 77.9482 86.883 78.0255 86.889 78.1024C86.8246 78.3149 86.8039 78.5382 86.8282 78.7589C86.8525 78.9796 86.9212 79.193 87.0303 79.3864C87.4307 79.7507 87.9528 79.9522 88.4942 79.9514C89.862 80.152 91.1375 80.7606 92.1539 81.6976C93.6178 83.0458 94.658 85.1387 96.6227 85.5496C97.2585 85.6397 97.9066 85.5824 98.5167 85.382C99.1268 85.1816 99.6827 84.8435 100.141 84.394C101.106 83.3503 101.966 82.2151 102.709 81.0043C103.337 80.927 103.927 80.6648 104.405 80.2509C104.883 79.837 105.227 79.2903 105.393 78.6802C105.523 78.0513 105.458 77.3978 105.208 76.8063C104.958 76.2148 104.535 75.7131 103.994 75.3675" stroke="#1D1D1B" stroke-width="0.5" stroke-linecap="round" stroke-linejoin="round"/>
<path d="M85.4483 77.5371C81.7133 81.7479 78.7605 86.5918 76.7291 91.8408C76.3346 92.8038 76.0294 93.8009 75.8173 94.8197C75.4638 96.2682 75.5761 97.7914 76.1384 99.1724" stroke="#1D1D1B" stroke-width="0.5" stroke-linecap="round" stroke-linejoin="round"/>
<path d="M79.0156 95.1923C80.3285 93.4412 82.1116 92.0989 84.1576 91.3215C86.2035 90.5441 88.4282 90.3636 90.5727 90.801C94.7598 91.8931 99.1056 92.2451 103.414 91.8411C104.365 92.2758 105.18 92.9628 105.768 93.8274C106.357 94.6921 106.697 95.7015 106.753 96.7459" stroke="#1D1D1B" stroke-width="0.5" stroke-linecap="round" stroke-linejoin="round"/>
<path d="M91.9082 95.8208C93.609 96.0631 95.3276 96.1576 97.0447 96.1033C98.0459 96.08 99.0449 95.9985 100.037 95.8593" stroke="#1D1D1B" stroke-width="0.5" stroke-linecap="round" stroke-linejoin="round"/>
<path d="M96.9941 96.1294L99.8577 97.1694" stroke="#1D1D1B" stroke-width="0.5" stroke-linecap="round" stroke-linejoin="round"/>
<path d="M106.393 78.9878C108.098 84.7372 109.04 90.6861 109.192 96.6812C109.192 97.1306 109.192 97.5928 109.192 98.0422" stroke="#1D1D1B" stroke-width="0.5" stroke-linecap="round" stroke-linejoin="round"/>
<path d="M91.1641 107.056C92.9433 106.939 94.7266 107.211 96.3905 107.852" stroke="#1D1D1B" stroke-width="0.5" stroke-linecap="round" stroke-linejoin="round"/>
<path d="M50.2246 55.7855C50.5729 55.4504 51.0216 55.2388 51.5017 55.1832C51.9819 55.1275 52.467 55.2308 52.8828 55.4774C53.1679 55.635 53.4313 55.8293 53.6661 56.0552C54.119 56.497 54.5158 56.9929 54.8475 57.5318C55.3611 58.2893 55.8363 59.0726 56.2729 59.843C57.158 61.326 57.8771 62.902 58.4173 64.5424C57.1786 66.2072 56.5856 68.2646 56.748 70.3332C56.8147 71.2166 57.0229 72.0836 57.3644 72.9012" stroke="#1D1D1B" stroke-width="0.5" stroke-linecap="round" stroke-linejoin="round"/>
<path d="M53.5412 56.1968C52.6544 56.8434 51.9344 57.6919 51.4409 58.6722C50.9474 59.6524 50.6946 60.7361 50.7033 61.8335C50.745 64.0377 51.4034 66.1861 52.6038 68.0352" stroke="#1D1D1B" stroke-width="0.5" stroke-linecap="round" stroke-linejoin="round"/>
<path d="M55.7602 60.1772C54.9626 61.2446 54.4079 62.4733 54.1351 63.7775C53.8623 65.0816 53.8778 66.4296 54.1807 67.7271C54.3846 68.6948 54.7632 69.6172 55.2979 70.4492" stroke="#1D1D1B" stroke-width="0.5" stroke-linecap="round" stroke-linejoin="round"/>
<path d="M55.1816 72.5679C55.4539 73.9805 56.0715 75.3038 56.9794 76.4198" stroke="#1D1D1B" stroke-width="0.5" stroke-linecap="round" stroke-linejoin="round"/>
<path d="M127.183 67.2002C125.364 68.6259 123.918 70.4721 122.971 72.5801" stroke="#1D1D1B" stroke-width="0.5" stroke-linecap="round" stroke-linejoin="round"/>
<path d="M125.106 69.6274C125.068 72.9311 123.863 76.1149 121.703 78.6154" stroke="#1D1D1B" stroke-width="0.5" stroke-linecap="round" stroke-linejoin="round"/>
<path d="M82.4055 62.7446C82.3237 62.825 82.2697 62.9293 82.2512 63.0424C82.2327 63.1555 82.2508 63.2716 82.3028 63.3738C82.3906 63.5612 82.545 63.7093 82.7359 63.7892C82.9269 63.8692 83.1407 63.8754 83.336 63.8066C83.5312 63.7378 83.6939 63.5989 83.7925 63.4169C83.891 63.2349 83.9185 63.0228 83.8694 62.8217" stroke="#1D1D1B" stroke-width="0.5" stroke-linecap="round" stroke-linejoin="round"/>
<path d="M111.465 64.7231C111.405 64.8077 111.373 64.9086 111.373 65.0121C111.373 65.1155 111.405 65.2164 111.465 65.3009C111.534 65.4115 111.626 65.5063 111.735 65.5793C111.843 65.6523 111.965 65.7018 112.094 65.7247C112.221 65.7438 112.35 65.7316 112.471 65.689C112.592 65.6465 112.701 65.575 112.787 65.4807C112.872 65.3839 112.929 65.2658 112.952 65.139C112.974 65.0123 112.962 64.8818 112.916 64.7617" stroke="#1D1D1B" stroke-width="0.5" stroke-linecap="round" stroke-linejoin="round"/>
<path d="M144.273 35.1909C144.413 35.4357 144.645 35.6151 144.917 35.6897C145.189 35.7643 145.479 35.7281 145.725 35.589C146.205 35.276 146.585 34.8299 146.816 34.305C147.369 33.4566 147.769 32.5179 147.997 31.5315C148.104 31.0374 148.09 30.5248 147.956 30.0374C147.822 29.5499 147.572 29.1022 147.227 28.7324" stroke="#1D1D1B" stroke-width="0.5" stroke-linecap="round" stroke-linejoin="round"/>
<path d="M69.2051 24.7142C70.2031 24.4716 71.2499 24.5218 72.2201 24.8588C73.1903 25.1958 74.0428 25.8054 74.6754 26.6145" stroke="#1D1D1B" stroke-width="0.5" stroke-linecap="round" stroke-linejoin="round"/>
<path d="M75.2656 20.3735C76.8268 23.5826 79.417 26.177 82.6237 27.7437" stroke="#1D1D1B" stroke-width="0.5" stroke-linecap="round" stroke-linejoin="round"/>
<path d="M81.6738 19.8726C82.958 21.5931 83.9724 23.4677 85.1923 25.2011C86.3612 26.9944 87.9417 28.4824 89.8023 29.541" stroke="#1D1D1B" stroke-width="0.5" stroke-linecap="round" stroke-linejoin="round"/>
<path d="M95.9912 17.1255C95.1998 18.1283 94.6205 19.2816 94.2885 20.5152C93.9566 21.7488 93.8789 23.037 94.0603 24.3016C94.2416 25.5661 94.6782 26.7806 95.3435 27.8712C96.0087 28.9619 96.8888 29.9059 97.9303 30.6459" stroke="#1D1D1B" stroke-width="0.5" stroke-linecap="round" stroke-linejoin="round"/>
</svg>
