<svg width="158" height="117" viewBox="0 0 158 117" fill="none" xmlns="http://www.w3.org/2000/svg">
<path d="M43.7207 40.4799C44.9107 39.2099 46.2007 38.0199 47.4807 36.8599C47.415 37.5108 47.4866 38.1683 47.6907 38.7899H47.0607C46.8029 40.8647 47.0782 42.971 47.8607 44.9099L47.7207 44.9698C46.6183 44.8756 45.5944 44.361 44.861 43.5327C44.1275 42.7043 43.7407 41.6256 43.7807 40.5199L43.7207 40.4799Z" fill="#1D1D1B"/>
<path d="M28.26 75.4098C27.1346 75.1783 25.9779 75.1412 24.84 75.2999L24.67 75.3699C24.37 74.6099 24.06 73.8498 23.75 73.0898L24.49 72.7899C24.8558 72.7549 25.2242 72.7549 25.59 72.7899C26.6694 72.914 27.7006 73.3058 28.59 73.9299L28.26 75.4098Z" fill="#A55DA1"/>
<path d="M120.18 76.1202C120.234 77.6073 120.538 79.0747 121.08 80.4602L121.19 80.6502L119.5 81.6502C116.348 83.5977 112.943 85.1018 109.38 86.1202L109.3 85.7802C109.314 84.3579 108.97 82.9551 108.3 81.7002C108.09 81.0002 107.87 80.3002 107.65 79.6002C104.486 80.9336 101.084 81.6139 97.6505 81.6002L97.5005 81.7902C96.9405 81.3702 96.3905 80.9302 95.8405 80.4802C95.2905 80.0302 94.5805 79.4802 93.9505 78.9402C92.9063 78.074 91.7693 77.3261 90.5605 76.7102C89.6975 76.2068 88.6886 76.0127 87.7005 76.1602C86.7049 76.4955 85.8267 77.1099 85.1705 77.9302L79.6605 83.6702C79.4905 83.8502 79.3105 84.0302 79.1505 84.2202L78.8005 84.0602C77.9205 81.5702 79.5305 78.9002 79.4205 76.2602C79.3796 75.6069 79.269 74.9599 79.0905 74.3302C78.7587 73.2864 78.5014 72.2204 78.3205 71.1402C78.1938 68.9112 78.7483 66.6965 79.9105 64.7902C80.0405 64.5502 80.1805 64.3102 80.3205 64.0702L82.4705 64.7602C83.5185 63.0293 85.0237 61.6209 86.8205 60.6902C87.7177 60.2296 88.7118 59.9893 89.7205 59.9893C90.7291 59.9893 91.7232 60.2296 92.6205 60.6902C93.8254 61.4951 94.8476 62.5445 95.6205 63.7702L97.2505 66.0202C96.3896 56.563 92.7893 47.5622 86.8905 40.1202L86.9705 40.0602C94.2345 39.1723 101.56 38.898 108.87 39.2402C110.87 39.3302 112.87 39.4802 114.87 39.7602L114.63 41.3702C112.505 46.0112 111.457 51.0728 111.564 56.1762C111.672 61.2796 112.932 66.2926 115.25 70.8402L118.06 70.3602C120.44 63.7625 123.787 57.5548 127.99 51.9402L130.07 50.6602C130.532 50.4226 131.062 50.3566 131.568 50.4738C132.073 50.591 132.521 50.8838 132.83 51.3002C133.265 52.1408 133.452 53.0874 133.37 54.0302C133.379 54.2714 133.402 54.5119 133.44 54.7502C133.467 55.102 133.57 55.4437 133.743 55.7513C133.915 56.0589 134.154 56.3248 134.44 56.5302L135.97 58.7202C131.572 62.0448 127.421 65.6844 123.55 69.6102C122.437 70.7169 121.357 71.8536 120.31 73.0202L122.14 75.1602L120.71 75.8202L120.21 76.0402L120.18 76.1202Z" fill="#A55DA1"/>
<path d="M147.73 89.2599C148.356 86.5062 148.123 83.6265 147.06 81.0099C146.279 79.5277 145.185 78.2332 143.853 77.2161C142.522 76.199 140.985 75.4838 139.35 75.1199C137.478 74.6736 135.548 74.5251 133.63 74.6799V74.8399C130.386 75.6975 127.279 77.007 124.4 78.7299L124.35 78.64C123.687 78.1777 123.148 77.5595 122.78 76.8399C122.661 76.5337 122.61 76.2058 122.629 75.8781C122.648 75.5503 122.737 75.2304 122.89 74.9399V74.8399C122.611 74.9004 122.342 74.998 122.09 75.1299L120.26 72.9899C121.313 71.8299 122.393 70.6933 123.5 69.58L125 71.0399C129.241 66.7015 135.024 64.2143 141.09 64.1199L143.35 63.1899C144.114 63.2791 144.828 63.6139 145.385 64.1442C145.943 64.6744 146.313 65.3713 146.44 66.1299L146.9 66.0699C147.556 66.0123 148.217 66.0997 148.836 66.3261C149.454 66.5525 150.016 66.9123 150.48 67.3799C151.399 68.3224 152.171 69.3978 152.77 70.5699C154.08 72.7023 155.211 74.94 156.15 77.2599C157.24 80.1899 157.66 83.6499 156.04 86.3199C155.026 87.7513 153.746 88.9736 152.27 89.9199C151.084 90.935 149.687 91.6729 148.18 92.08C147.421 92.273 146.62 92.2133 145.898 91.9102C145.176 91.607 144.573 91.0768 144.18 90.4L144.13 90.21L147.64 89.21L147.73 89.2599Z" fill="#A55DA1"/>
<path d="M32.1 94.6503C32.5766 96.4106 32.911 98.2064 33.1 100.02C31.61 98.6503 30.23 97.2403 28.84 95.8203L28.75 95.6102L29.06 95.4702C29.7161 94.9252 30.5139 94.5783 31.36 94.4702L31.9 94.2402L32.1 94.6503Z" fill="#D1D0D1"/>
<path d="M141.16 60.01C141.51 60.01 141.87 59.8999 142.23 59.9199C142.557 59.9695 142.86 60.1225 143.094 60.3564C143.327 60.5903 143.48 60.8929 143.53 61.2199C143.621 61.8916 143.56 62.5752 143.35 63.2199L141.09 64.15C135.022 64.2469 129.239 66.7378 125 71.08L123.5 69.6199C127.371 65.6941 131.522 62.0545 135.92 58.7299L134.39 56.5399C134.103 56.3345 133.865 56.0686 133.692 55.761C133.519 55.4535 133.416 55.1118 133.39 54.76H133.53C134.688 54.6474 135.856 54.7216 136.99 54.9799C137.558 55.1093 138.087 55.3717 138.534 55.7455C138.981 56.1193 139.332 56.5937 139.56 57.1299C139.76 57.6899 139.78 58.2999 139.96 58.8699C140.036 59.1518 140.188 59.4073 140.4 59.6084C140.612 59.8095 140.875 59.9484 141.16 60.01Z" fill="#A55DA1"/>
<path d="M31.539 93.3303C31.289 92.7503 31.039 92.1702 30.799 91.5902L30.619 91.4902C30.8391 91.2071 31.0238 90.8982 31.169 90.5703C31.009 90.2403 30.839 89.9103 30.689 89.5703C30.429 89.0403 30.189 88.5003 29.959 87.9603C30.389 88.4903 31.759 88.3503 32.309 87.9603C32.5896 87.7723 32.8197 87.5181 32.979 87.2202C33.1561 86.9083 33.2843 86.5711 33.359 86.2202C33.539 85.5602 33.619 84.8802 33.859 84.2202C34.099 83.5602 34.599 82.8803 34.859 82.1503C35.1021 81.1987 34.9734 80.1902 34.499 79.3303L34.319 79.0103L36.119 78.7603C37.4613 80.842 38.4733 83.1189 39.119 85.5103L39.589 87.5103C39.6695 87.7017 39.6972 87.9113 39.669 88.1171C39.6409 88.3229 39.558 88.5174 39.429 88.6802C39.1483 89.0068 38.8092 89.2781 38.429 89.4802L37.319 90.2003C36.8967 90.4973 36.4482 90.755 35.979 90.9702C34.869 91.4402 34.119 92.5802 33.119 92.9702L32.199 93.0803H31.709L31.539 93.3303Z" fill="#A55DA1"/>
<path d="M30.799 91.5902C31.039 92.1702 31.289 92.7503 31.539 93.3303L31.919 94.2202L31.379 94.4503C30.5329 94.5584 29.7351 94.9052 29.079 95.4503L28.769 95.5902C28.609 95.2302 28.409 94.7903 28.219 94.3303C27.939 93.6603 27.649 92.9602 27.459 92.4402L27.659 92.6602C28.2204 92.7684 28.8011 92.7139 29.3326 92.5031C29.8641 92.2922 30.3243 91.9338 30.659 91.4702L30.799 91.5902Z" fill="#D1D0D1"/>
<path d="M33.1388 70.7698C35.6113 74.3364 38.3066 77.7432 41.2088 80.9698C40.159 76.5559 37.5395 72.6746 33.8388 70.0498C33.5888 69.8698 33.2088 69.6998 32.9888 69.9298C32.7688 70.1598 32.9588 70.5198 33.1388 70.7698ZM34.2688 79.1198C33.803 78.4074 33.2097 77.787 32.5188 77.2898C31.2611 76.3458 29.8038 75.7027 28.2588 75.4098L28.5488 73.9698C27.6594 73.3458 26.6282 72.9539 25.5488 72.8298L25.6188 72.2898C26.0558 71.5114 26.6738 70.8498 27.4205 70.3607C28.1672 69.8715 29.0207 69.5694 29.9088 69.4798C29.8161 69.1705 29.8174 68.8406 29.9124 68.532C30.0075 68.2234 30.1921 67.9499 30.4427 67.7464C30.6934 67.5428 30.9989 67.4184 31.3205 67.3887C31.642 67.3591 31.9651 67.4256 32.2488 67.5798L34.0788 68.4798C36.9356 69.7726 39.5605 71.526 41.8488 73.6698C43.991 75.7158 45.3972 78.4122 45.8488 81.3398L47.5188 81.2598C47.7988 81.4398 48.0788 81.6198 48.3688 81.7798L48.2588 81.9598C47.7275 82.8103 46.9914 83.514 46.118 84.0066C45.2445 84.4992 44.2615 84.765 43.2588 84.7798V84.9298C43.3491 85.3516 43.3073 85.7909 43.1391 86.1881C42.9709 86.5853 42.6845 86.9211 42.3188 87.1498C41.9257 87.4728 41.4552 87.6878 40.9537 87.7737C40.4523 87.8596 39.9371 87.8135 39.4588 87.6398L38.9888 85.6398C38.3431 83.2485 37.3312 80.9715 35.9888 78.8898L34.2688 79.1198Z" fill="#A55DA1"/>
<path d="M59.6593 77.5599C63.6907 82.6977 68.7612 86.9265 74.5393 89.9699V90.7499C70.8193 90.8299 67.0793 90.7499 63.3693 90.4299V90.0299C62.5693 88.8699 61.7693 87.7099 60.9593 86.5599L60.7093 86.7299L60.0993 86.5999V86.46L50.4093 79.58L51.6193 77.0899L49.7793 75.9199L52.1593 74.9199C53.669 76.2518 55.2918 77.4496 57.0093 78.4999L59.6593 77.5599Z" fill="#A55DA1"/>
<path d="M76.6592 36.6301H76.8092C76.8931 37.2136 76.8469 37.8084 76.674 38.372C76.5011 38.9356 76.2058 39.454 75.8092 39.8901C75.516 39.0294 75.037 38.2437 74.4062 37.5887C73.7755 36.9337 73.0083 36.4255 72.1592 36.1001C71.1349 35.7891 70.0931 35.5386 69.0392 35.3501C68.2449 35.1901 67.4986 34.8478 66.8592 34.3501C66.3929 33.8988 66.0286 33.3531 65.7905 32.7495C65.5525 32.1458 65.4464 31.4982 65.4792 30.8501C65.5468 29.5534 65.8483 28.2795 66.3692 27.0901H65.2092C63.7092 27.7401 61.8392 26.9801 60.1292 27.0901C59.1598 27.1814 58.2332 27.5337 57.4479 28.1095C56.6626 28.6853 56.0479 29.463 55.6692 30.3601C55.3119 31.2664 55.1607 32.2409 55.2264 33.2129C55.2921 34.1849 55.5732 35.1301 56.0492 35.9801C57.029 37.6761 58.5662 38.9801 60.3992 39.6701C59.1695 40.0931 57.8646 40.253 56.5691 40.1393C55.2736 40.0256 54.0165 39.6409 52.8792 39.0101C51.4392 38.2001 50.1392 36.7801 50.2292 35.1301C49.5611 37.4432 49.713 39.9162 50.6592 42.1301C49.967 41.8483 49.3455 41.4171 48.839 40.8674C48.3325 40.3178 47.9536 39.6631 47.7292 38.9501C47.5251 38.3286 47.4536 37.6711 47.5192 37.0201C46.2392 38.1801 44.9492 39.3701 43.7592 40.6401C41.8301 42.5523 40.3539 44.8725 39.4392 47.4301C39.3398 44.203 40.3219 41.0352 42.2292 38.4301C41.0653 39.5778 39.6468 40.4344 38.0892 40.9301C37.311 41.1699 36.4916 41.2457 35.6826 41.1528C34.8737 41.0598 34.0928 40.8001 33.3892 40.3901C32.681 39.8941 32.0815 39.2586 31.6275 38.5226C31.1735 37.7866 30.8747 36.9657 30.7492 36.1101C30.5125 34.3955 30.5463 32.6543 30.8492 30.9501C30.8608 31.5762 31.074 32.1817 31.4571 32.6769C31.8402 33.1722 32.3728 33.5306 32.9759 33.6991C33.5789 33.8675 34.2202 33.837 34.8045 33.612C35.3888 33.387 35.8849 32.9795 36.2192 32.4501C37.0492 31.1601 36.7492 29.4501 36.6492 27.9501C36.4796 25.6142 36.874 23.2717 37.7992 21.1201H37.6992C37.0952 21.5153 36.394 21.7365 35.6725 21.7595C34.951 21.7824 34.2372 21.6062 33.6092 21.2501C32.99 20.8793 32.4607 20.3757 32.0595 19.7757C31.6583 19.1757 31.3952 18.4941 31.2892 17.7801C31.1037 16.3063 31.4095 14.8124 32.1592 13.5301C32.1531 13.9741 32.2729 14.4109 32.5047 14.7896C32.7366 15.1684 33.071 15.4736 33.4692 15.6701C34.2737 16.0458 35.1706 16.1779 36.0492 16.0501C39.2292 15.7201 41.9192 13.6601 44.4392 11.7001C46.9592 9.74013 49.6792 7.70012 52.8592 7.44012C51.7732 7.578 50.67 7.46986 49.6314 7.12366C48.5928 6.77746 47.6454 6.20207 46.8592 5.44012C48.7692 6.32012 50.9992 5.82012 53.0192 5.25012C55.0392 4.68012 57.1992 4.06009 59.1992 4.72009C60.1497 3.55929 61.3374 2.6152 62.6827 1.95117C64.028 1.28714 65.4998 0.918561 66.9992 0.870117C65.5566 1.83382 64.3445 3.104 63.4492 4.59009C66.2092 3.20009 69.5292 3.59009 72.4492 4.47009C74.4713 4.97569 76.3652 5.89882 78.0092 7.18011C78.8266 7.81604 79.4978 8.62012 79.9774 9.53796C80.457 10.4558 80.7339 11.466 80.7892 12.5001C81.2757 11.5814 82.0067 10.815 82.9014 10.2856C83.7961 9.75617 84.8197 9.48433 85.8592 9.50012C84.4467 10.1486 83.2945 11.255 82.5892 12.6401C83.4901 12.8415 84.2907 13.3551 84.8492 14.0901C85.407 14.815 86.0831 15.4405 86.8492 15.9401C87.262 16.1575 87.7179 16.2804 88.184 16.3C88.6501 16.3197 89.1147 16.2356 89.5443 16.0538C89.974 15.872 90.3578 15.5971 90.6683 15.2488C90.9787 14.9006 91.2078 14.4877 91.3392 14.0401C91.4051 14.6378 91.3258 15.2425 91.1082 15.803C90.8906 16.3636 90.5411 16.8634 90.0892 17.2601C89.2002 17.9028 88.1726 18.3276 87.0892 18.5001C88.4392 19.5001 88.5892 21.5001 88.3392 23.2001C88.0892 24.9001 87.5692 26.6101 88.0092 28.2601C88.4492 29.9101 89.6692 31.0801 90.0092 32.6501C90.1435 33.5206 90.0603 34.4106 89.7672 35.2411C89.4741 36.0717 88.9801 36.8167 88.3292 37.4101C87.6283 38.0801 86.8249 38.6337 85.9492 39.0501C85.2421 39.3953 84.514 39.6959 83.7692 39.9501H83.6092C84.0253 38.1606 84.2234 36.3272 84.1992 34.4901C84.2879 33.267 83.9329 32.0528 83.1992 31.0701C82.6877 30.5839 82.0467 30.2554 81.3532 30.1241C80.6597 29.9929 79.9431 30.0644 79.2892 30.3301C78.6743 30.5611 78.113 30.9153 77.6399 31.371C77.1667 31.8268 76.7918 32.3744 76.538 32.9803C76.2842 33.5862 76.1569 34.2376 76.164 34.8945C76.1711 35.5513 76.3124 36.1998 76.5792 36.8001L76.6592 36.6301Z" fill="#1D1D1B"/>
<path d="M40.5403 56.8302C41.2876 54.5191 42.4276 52.3541 43.9103 50.4302H44.1103C44.1994 51.1973 44.4335 51.9405 44.8003 52.6202C45.4906 53.879 46.5019 54.9326 47.7314 55.6738C48.961 56.4151 50.3648 56.8174 51.8003 56.8401L52.6103 57.1102C52.506 57.4571 52.4554 57.8179 52.4603 58.1802C52.427 58.511 52.4792 58.8449 52.6121 59.1498C52.745 59.4546 52.954 59.7202 53.219 59.921C53.4841 60.1218 53.7964 60.2511 54.1258 60.2965C54.4552 60.3419 54.7908 60.3018 55.1003 60.1802C55.6637 59.9931 56.1961 59.7235 56.6803 59.3802L56.9803 59.8202L59.5803 64.9602C59.9276 65.7904 60.4614 66.5295 61.1403 67.1202C61.646 67.4327 62.2085 67.6422 62.7954 67.7366C63.3823 67.831 63.9821 67.8084 64.5603 67.6702C67.1572 67.18 69.5234 65.8564 71.3003 63.9002L71.5303 64.1202C71.5769 64.633 71.7321 65.1301 71.9855 65.5784C72.239 66.0266 72.5849 66.4158 73.0003 66.7202C73.8287 67.324 74.6078 67.9928 75.3303 68.7202C76.7603 70.4102 76.9103 73.0602 78.6903 74.3802H79.0403C79.2189 75.0099 79.3295 75.6569 79.3703 76.3102C79.4803 78.9502 77.8703 81.6202 78.7503 84.1102L79.1003 84.2702C78.7624 84.6235 78.4732 85.0203 78.2403 85.4502L78.0203 85.3202C77.6447 85.0202 77.2012 84.8168 76.7288 84.728C76.2563 84.6392 75.7693 84.6676 75.3104 84.8107C74.8514 84.9538 74.4346 85.2073 74.0964 85.5489C73.7581 85.8905 73.5089 86.3099 73.3703 86.7702C73.2903 86.9795 73.2903 87.2109 73.3703 87.4202C73.481 87.6142 73.6535 87.7656 73.8603 87.8502L78.1803 90.2702L77.9503 90.6802C76.8103 90.7402 75.6703 90.7802 74.5203 90.8002V90.0202C68.7447 86.9599 63.6807 82.7138 59.6603 77.5602L57.0903 78.4902C55.3728 77.4399 53.75 76.242 52.2403 74.9102C47.6769 70.9059 44.2312 65.7856 42.2403 60.0502L39.8203 59.7602C40.1703 58.8102 40.2903 57.8002 40.5403 56.8302Z" fill="#A55DA1"/>
<path d="M60.1593 86.6002C56.0021 85.6474 52.0294 84.0191 48.3993 81.7802C48.1093 81.6202 47.8293 81.4403 47.5493 81.2603L45.8793 81.3402C45.4277 78.4126 44.0214 75.7162 41.8793 73.6702C39.591 71.5264 36.966 69.7731 34.1093 68.4802L32.2793 67.5803C32.4133 66.5427 32.7032 65.5313 33.1393 64.5803C33.3556 64.11 33.673 63.6932 34.0688 63.3596C34.4646 63.026 34.9292 62.7838 35.4293 62.6503C36.0793 62.5203 36.7593 62.6502 37.4293 62.4802C37.9762 62.3035 38.4726 61.9978 38.8764 61.5887C39.2803 61.1797 39.5796 60.6794 39.7493 60.1302C39.7993 60.0002 39.8493 59.8602 39.8893 59.7202L42.3093 60.0103C44.3002 65.7457 47.7459 70.866 52.3093 74.8702L49.9293 75.8702L51.7693 77.0402L50.5593 79.5302L60.2493 86.4102L60.1593 86.6002Z" fill="#A55DA1"/>
<path d="M130.01 48.99C130.167 49.2347 130.25 49.5193 130.25 49.81C130.25 50.1007 130.167 50.3853 130.01 50.63L127.93 51.91C123.726 57.5245 120.38 63.7323 118 70.33L115.19 70.81C112.871 66.2625 111.611 61.2494 111.504 56.146C111.396 51.0426 112.444 45.981 114.57 41.34L114.81 39.73C117.73 40.0923 120.574 40.923 123.23 42.19C125.65 43.4 128.02 45.42 128.45 48.4C128.739 48.3356 129.041 48.3571 129.318 48.4619C129.595 48.5667 129.836 48.7503 130.01 48.99Z" fill="#A55DA1"/>
<path d="M109.299 85.7802L109.379 86.1202C107.891 86.5183 106.36 86.7332 104.819 86.7602V86.8102C103.239 85.8368 101.699 84.8168 100.199 83.7502L100.379 83.5002C103.136 83.5134 105.863 82.9372 108.379 81.8102V81.7002C109.021 82.9623 109.337 84.3648 109.299 85.7802Z" fill="#A55DA1"/>
<path d="M108.289 81.7001V81.8101C105.773 82.9371 103.046 83.5133 100.289 83.5001L100.109 83.7501C99.4792 83.3101 98.8692 82.8601 98.2592 82.4001L97.4492 81.7701L97.5992 81.5801C101.033 81.5938 104.435 80.9135 107.599 79.5801C107.859 80.3001 108.079 81.0001 108.289 81.7001Z" fill="#A55DA1"/>
<path d="M97.1898 66.0301L95.5598 63.7801C94.7868 62.5544 93.7647 61.505 92.5598 60.7001C91.6625 60.2395 90.6684 59.9992 89.6598 59.9992C88.6511 59.9992 87.6571 60.2395 86.7598 60.7001C84.963 61.6309 83.4578 63.0392 82.4098 64.7701L80.2598 64.0801C81.2598 62.4101 82.3798 60.8301 83.2598 59.0801C84.7081 56.308 85.5214 53.2483 85.6408 50.1229C85.7601 46.9974 85.1825 43.8846 83.9498 41.0101L83.3098 40.8401C83.4198 40.4801 83.5098 40.1201 83.5898 39.7501H83.7498C84.4945 39.4959 85.2226 39.1953 85.9298 38.8501L86.0598 39.1001C86.3098 39.4001 86.5598 39.7101 86.7998 40.0201C92.7292 47.4893 96.3412 56.5314 97.1898 66.0301Z" fill="#A55DA1"/>
<path d="M33.8391 70.05C37.5398 72.6748 40.1593 76.5561 41.2091 80.97C38.3069 77.7434 35.6115 74.3367 33.1391 70.7701C32.9591 70.5201 32.7791 70.15 32.9891 69.93C33.1991 69.71 33.5891 69.87 33.8391 70.05Z" fill="#A55DA1"/>
<path d="M24.6595 75.3699C25.0095 76.2099 25.3495 77.0499 25.6595 77.8899L25.2995 78.3199C23.8462 77.0866 22.3395 75.9299 20.7795 74.8499L20.8495 74.7499C18.8495 70.3433 16.8229 65.9333 14.7695 61.5199L14.9595 61.4299C14.995 61.2039 15.0908 60.9917 15.2369 60.8157C15.383 60.6397 15.5739 60.5064 15.7895 60.4299C16.5841 60.0449 17.4946 59.9735 18.3395 60.2299L18.4495 60.1799C20.2029 64.4933 21.9562 68.8066 23.7095 73.1199C24.0595 73.8499 24.3695 74.6099 24.6595 75.3699Z" fill="#D1D0D1"/>
<path d="M16.7897 55.97C17.3597 57.36 17.9197 58.7501 18.4897 60.1501L18.3797 60.2001C17.5348 59.9436 16.6243 60.0151 15.8297 60.4001C15.6141 60.4766 15.4232 60.6098 15.2771 60.7858C15.131 60.9618 15.0352 61.1741 14.9997 61.4001L14.8097 61.49C14.1897 60.13 13.5597 58.7601 12.9297 57.4001C12.9672 57.0119 13.1036 56.6398 13.326 56.3194C13.5483 55.999 13.8492 55.741 14.1997 55.5701C14.6259 55.3894 15.0941 55.3311 15.5516 55.4017C16.0091 55.4724 16.4378 55.6692 16.7897 55.97Z" fill="#D1D0D1"/>
<path d="M29.0801 95.4702C29.7362 94.9252 30.534 94.5783 31.3801 94.4702" stroke="#1D1D1B" stroke-linecap="round" stroke-linejoin="round"/>
<path d="M73.9492 61.3901C74.5861 61.9714 75.3163 62.4413 76.1092 62.7801" stroke="#1D1D1B" stroke-linecap="round" stroke-linejoin="round"/>
<path d="M37.6601 21.04C37.0561 21.4352 36.3549 21.6565 35.6334 21.6794C34.9119 21.7023 34.1981 21.5261 33.5701 21.17C32.9509 20.7992 32.4216 20.2957 32.0204 19.6956C31.6192 19.0956 31.3562 18.414 31.2501 17.7001C31.0646 16.2263 31.3704 14.7324 32.1201 13.4501C32.114 13.8941 32.2338 14.3308 32.4656 14.7095C32.6975 15.0883 33.0319 15.3935 33.4301 15.59C34.2346 15.9657 35.1315 16.0978 36.0101 15.97C39.1901 15.64 41.8801 13.5801 44.4001 11.6201C46.9201 9.66006 49.6401 7.62005 52.8201 7.36005C51.7341 7.49793 50.6309 7.38978 49.5923 7.04358C48.5537 6.69738 47.6063 6.12199 46.8201 5.36005C48.7301 6.24005 50.9601 5.74004 52.9801 5.17004C55.0001 4.60004 57.1601 3.98008 59.1601 4.64008C60.1106 3.47927 61.2983 2.53518 62.6436 1.87115C63.9889 1.20713 65.4607 0.838483 66.9601 0.790039C65.5175 1.75374 64.3054 3.02398 63.4101 4.51007C66.1701 3.12007 69.4901 3.51008 72.4101 4.39008C74.4322 4.89567 76.3261 5.81875 77.9701 7.10004C78.7875 7.73596 79.4587 8.5401 79.9383 9.45795C80.4179 10.3758 80.6948 11.3859 80.7501 12.42C81.2366 11.5013 81.9676 10.7349 82.8623 10.2055C83.757 9.67609 84.7807 9.40425 85.8201 9.42004C84.4076 10.0685 83.2554 11.175 82.5501 12.5601C83.451 12.7615 84.2516 13.2751 84.8101 14.0101C85.3678 14.735 86.044 15.3604 86.8101 15.86C87.2229 16.0774 87.6788 16.2003 88.1449 16.22C88.611 16.2396 89.0756 16.1556 89.5053 15.9738C89.9349 15.792 90.3188 15.517 90.6292 15.1688C90.9396 14.8205 91.1687 14.4077 91.3001 13.9601C91.366 14.5578 91.2867 15.1625 91.0691 15.723C90.8515 16.2836 90.502 16.7833 90.0501 17.1801C89.1611 17.8227 88.1335 18.2475 87.0501 18.42C88.4001 19.42 88.5501 21.4201 88.3001 23.1201C88.0501 24.8201 87.5301 26.5301 87.9701 28.1801C88.4101 29.8301 89.6301 31.0001 89.9701 32.5701C90.1043 33.4405 90.0212 34.3306 89.7281 35.1611C89.435 35.9916 88.941 36.7367 88.2901 37.3301C87.5892 38 86.7858 38.5536 85.9101 38.97C85.203 39.3152 84.4749 39.6159 83.7301 39.8701" stroke="#1D1D1B" stroke-linecap="round" stroke-linejoin="round"/>
<path d="M76.6596 36.6301C76.3928 36.0298 76.2515 35.3814 76.2444 34.7245C76.2373 34.0676 76.3646 33.4162 76.6184 32.8103C76.8722 32.2044 77.2471 31.6567 77.7202 31.201C78.1934 30.7452 78.7546 30.391 79.3696 30.1601C80.0235 29.8944 80.7401 29.8229 81.4336 29.9542C82.1271 30.0854 82.768 30.4139 83.2796 30.9001C84.0133 31.8828 84.3683 33.097 84.2796 34.3201C84.3037 36.1573 84.1056 37.9905 83.6896 39.7801C83.6096 40.1501 83.5196 40.5101 83.4096 40.8701C83.2996 41.2301 83.1596 41.7101 83.0196 42.1301C82.746 43.1084 82.2261 44.0001 81.5096 44.7201C81.143 45.0706 80.6759 45.2977 80.1738 45.3694C79.6717 45.4412 79.1597 45.354 78.7096 45.1201" stroke="#1D1D1B" stroke-linecap="round" stroke-linejoin="round"/>
<path d="M37.909 20.8203C37.909 20.9103 37.829 20.9903 37.799 21.0803C36.9038 23.1807 36.5134 25.4617 36.659 27.7403C36.759 29.2703 37.059 30.9503 36.229 32.2403C35.8947 32.7697 35.3985 33.1772 34.8143 33.4022C34.23 33.6272 33.5887 33.6578 32.9856 33.4893C32.3826 33.3209 31.85 32.9624 31.4668 32.4672C31.0837 31.9719 30.8706 31.3663 30.859 30.7403C30.556 32.4445 30.5223 34.1857 30.759 35.9003C30.8844 36.7559 31.1833 37.5768 31.6373 38.3127C32.0912 39.0487 32.6907 39.6842 33.399 40.1803C34.1025 40.5903 34.8834 40.85 35.6924 40.9429C36.5014 41.0359 37.3208 40.96 38.099 40.7203C39.6566 40.2245 41.0751 39.368 42.239 38.2203C40.3316 40.8253 39.3496 43.9931 39.449 47.2203C40.3637 44.6626 41.8398 42.3425 43.769 40.4303C44.959 39.1603 46.249 37.9703 47.529 36.8103C47.4633 37.4612 47.5349 38.1187 47.739 38.7403C47.9634 39.4533 48.3423 40.1079 48.8488 40.6576C49.3552 41.2073 49.9768 41.6384 50.669 41.9203C49.7228 39.7063 49.5709 37.2334 50.239 34.9203C50.149 36.5703 51.449 37.9903 52.889 38.8003C54.0262 39.4311 55.2834 39.8158 56.5789 39.9295C57.8743 40.0432 59.1793 39.8834 60.409 39.4603C58.576 38.7703 57.0387 37.4663 56.059 35.7703C55.5829 34.9203 55.3019 33.9751 55.2362 33.0031C55.1704 32.0311 55.3217 31.0567 55.679 30.1503C56.0577 29.2532 56.6724 28.4755 57.4576 27.8997C58.2429 27.324 59.1695 26.9717 60.139 26.8803C61.849 26.7803 63.719 27.5403 65.219 26.8803C65.373 26.8106 65.5203 26.7269 65.659 26.6303" stroke="#1D1D1B" stroke-linecap="round" stroke-linejoin="round"/>
<path d="M66.3294 27.04C65.8085 28.2295 65.507 29.5033 65.4394 30.8C65.4066 31.4481 65.5127 32.0957 65.7507 32.6993C65.9888 33.303 66.3531 33.8488 66.8194 34.3C67.4588 34.7978 68.2051 35.1401 68.9994 35.3C70.0533 35.4886 71.0951 35.739 72.1194 36.05C72.9685 36.3755 73.7357 36.8837 74.3664 37.5386C74.9972 38.1936 75.4762 38.9793 75.7694 39.84C76.166 39.4039 76.4613 38.8855 76.6342 38.322C76.8071 37.7584 76.8533 37.1636 76.7694 36.5801C76.7694 36.5801 76.7694 36.5801 76.7694 36.5201" stroke="#1D1D1B" stroke-linecap="round" stroke-linejoin="round"/>
<path d="M43.7802 40.5303C43.7402 41.636 44.127 42.7147 44.8604 43.5431C45.5939 44.3715 46.6178 44.886 47.7202 44.9803" stroke="#1D1D1B" stroke-linecap="round" stroke-linejoin="round"/>
<path d="M47.0607 38.7998C46.8029 40.8746 47.0782 42.9809 47.8607 44.9198C47.8607 45.0598 47.9707 45.1998 48.0307 45.3298" stroke="#1D1D1B" stroke-linecap="round" stroke-linejoin="round"/>
<path d="M49.1504 47.02C49.7176 49.9843 50.9371 52.7852 52.7204 55.22" stroke="#1D1D1B" stroke-linecap="round" stroke-linejoin="round"/>
<path d="M55.86 50.7402C54.8417 52.2005 53.9771 53.7622 53.28 55.4003C53.18 55.6303 53.08 55.8602 52.99 56.1002C52.857 56.4265 52.7434 56.7604 52.65 57.1002C52.5457 57.4471 52.4951 57.808 52.5 58.1702C52.4667 58.5011 52.5189 58.835 52.6518 59.1398C52.7847 59.4447 52.9937 59.7103 53.2588 59.9111C53.5238 60.1119 53.8361 60.2412 54.1655 60.2866C54.4949 60.332 54.8305 60.2919 55.14 60.1702C55.7034 59.9832 56.2358 59.7136 56.72 59.3702C57.14 59.1002 57.56 58.8102 57.97 58.5302C59.19 57.6802 60.38 56.7803 61.52 55.8303" stroke="#1D1D1B" stroke-linecap="round" stroke-linejoin="round"/>
<path d="M57.0195 59.7801L59.6195 64.9201C59.9668 65.7503 60.5006 66.4895 61.1795 67.0801C61.6852 67.3927 62.2477 67.6021 62.8346 67.6965C63.4216 67.7909 64.0214 67.7684 64.5995 67.6301C67.1964 67.1399 69.5627 65.8163 71.3395 63.8601C72.2682 62.9012 73.0775 61.8335 73.7495 60.6801C73.9995 60.2601 74.2295 59.8201 74.4495 59.3801C75.8863 56.2244 76.9631 52.9169 77.6595 49.5201C77.9895 48.1401 78.3295 46.7501 78.6595 45.3701" stroke="#1D1D1B" stroke-linecap="round" stroke-linejoin="round"/>
<path d="M43.9102 50.4302C42.4275 52.3541 41.2875 54.5191 40.5402 56.8302C40.2902 57.8302 40.1702 58.8302 39.8702 59.7602C39.8702 59.9002 39.7802 60.0402 39.7302 60.1702C39.5605 60.7193 39.2611 61.2196 38.8573 61.6287C38.4535 62.0377 37.9571 62.3435 37.4102 62.5202C36.7702 62.6702 36.0902 62.5202 35.4102 62.6902C34.91 62.8237 34.4455 63.0659 34.0497 63.3995C33.6538 63.7331 33.3365 64.1499 33.1202 64.6202C32.6841 65.5712 32.3941 66.5826 32.2602 67.6202C31.9765 67.4659 31.6534 67.3994 31.3318 67.4291C31.0103 67.4587 30.7048 67.5833 30.4541 67.7868C30.2034 67.9904 30.0188 68.2638 29.9238 68.5724C29.8287 68.881 29.8274 69.2109 29.9202 69.5202C29.0411 69.6102 28.196 69.9084 27.4552 70.3901C26.7144 70.8718 26.099 71.5231 25.6602 72.2902" stroke="#1D1D1B" stroke-linecap="round" stroke-linejoin="round"/>
<path d="M28.9892 74.3199L28.5492 73.9698C27.6598 73.3458 26.6286 72.954 25.5492 72.8299C25.1834 72.795 24.8151 72.795 24.4492 72.8299" stroke="#1D1D1B" stroke-linecap="round" stroke-linejoin="round"/>
<path d="M42.2891 60.0498C44.28 65.7852 47.7257 70.9055 52.2891 74.9098C53.7988 76.2416 55.4216 77.4395 57.1391 78.4898" stroke="#1D1D1B" stroke-linecap="round" stroke-linejoin="round"/>
<path d="M38.8301 65.5801C40.3065 68.0987 42.2396 70.3199 44.5301 72.1301C46.2388 73.491 48.0215 74.7562 49.8701 75.92L51.7101 77.09" stroke="#1D1D1B" stroke-linecap="round" stroke-linejoin="round"/>
<path d="M34.1191 68.48C36.9759 69.7728 39.6008 71.5262 41.8891 73.67C44.0313 75.716 45.4375 78.4124 45.8891 81.34C45.8891 81.54 45.8891 81.73 45.8891 81.93" stroke="#1D1D1B" stroke-linecap="round" stroke-linejoin="round"/>
<path d="M41.2095 80.9701C40.1596 76.5562 37.5401 72.6749 33.8395 70.0501C33.5895 69.8701 33.2095 69.7001 32.9895 69.9301C32.7695 70.1601 32.9895 70.5201 33.1395 70.7701C35.6119 74.3367 38.3073 77.7435 41.2095 80.9701Z" stroke="#1D1D1B" stroke-linecap="round" stroke-linejoin="round"/>
<path d="M31.1797 73.3501C35.0156 76.52 37.7639 80.8103 39.0397 85.6201" stroke="#1D1D1B" stroke-linecap="round" stroke-linejoin="round"/>
<path d="M33.0898 93.1202C34.0898 92.7202 34.8398 91.5802 35.9498 91.1202C36.4191 90.9049 36.8676 90.6472 37.2898 90.3502L38.3998 89.6302C38.7801 89.4281 39.1192 89.1568 39.3998 88.8302C39.5288 88.6674 39.6117 88.4729 39.6399 88.2671C39.668 88.0613 39.6404 87.8516 39.5598 87.6602C40.0381 87.8338 40.5533 87.88 41.0548 87.7941C41.5562 87.7081 42.0267 87.4931 42.4198 87.1702C42.7856 86.9415 43.072 86.6057 43.2401 86.2085C43.4083 85.8113 43.4501 85.372 43.3598 84.9502" stroke="#1D1D1B" stroke-linecap="round" stroke-linejoin="round"/>
<path d="M32.1602 93.2198C32.4711 93.2665 32.7889 93.2285 33.0802 93.1099" stroke="#1D1D1B" stroke-linecap="round" stroke-linejoin="round"/>
<path d="M120.18 76.1201C120.233 77.6072 120.537 79.0746 121.08 80.4601" stroke="#1D1D1B" stroke-linecap="round" stroke-linejoin="round"/>
<path d="M41.8594 84.6099C42.3312 84.7218 42.8144 84.7789 43.2994 84.7799C44.3021 84.7651 45.2851 84.4993 46.1585 84.0067C47.032 83.5141 47.768 82.8104 48.2994 81.96" stroke="#1D1D1B" stroke-linecap="round" stroke-linejoin="round"/>
<path d="M47.5488 81.2603C47.8288 81.4403 48.1088 81.6202 48.3988 81.7802C52.0289 84.0191 56.0016 85.6474 60.1588 86.6002L60.7688 86.7302" stroke="#1D1D1B" stroke-linecap="round" stroke-linejoin="round"/>
<path d="M50.5 79.5801L60.19 86.4601" stroke="#1D1D1B" stroke-linecap="round" stroke-linejoin="round"/>
<path d="M57.7988 81.9199C58.8788 83.4599 59.9522 85.0066 61.0188 86.5599C61.8288 87.7099 62.6288 88.8699 63.4288 90.0299" stroke="#1D1D1B" stroke-linecap="round" stroke-linejoin="round"/>
<path d="M57.0703 73.8799C57.8803 75.1499 58.7503 76.3699 59.6703 77.5599C63.7017 82.6976 68.7723 86.9264 74.5503 89.9698" stroke="#1D1D1B" stroke-linecap="round" stroke-linejoin="round"/>
<path d="M63.5 67.7998C63.8333 70.8398 64.2933 73.8598 64.88 76.8598C64.8368 75.4302 65.0018 74.0019 65.37 72.6198C65.7529 71.2292 66.6361 70.029 67.85 69.2498C68.6959 68.7768 69.6696 68.583 70.6321 68.6962C71.5946 68.8093 72.4969 69.2236 73.21 69.8798C74.0415 70.8563 74.7162 71.9561 75.21 73.1398C75.7235 74.3389 76.6852 75.2899 77.89 75.7898" stroke="#1D1D1B" stroke-linecap="round" stroke-linejoin="round"/>
<path d="M71.5703 64.1201C71.6169 64.633 71.7721 65.13 72.0255 65.5783C72.279 66.0266 72.6249 66.4158 73.0403 66.7201C73.8687 67.324 74.6479 67.9928 75.3703 68.7201C76.8003 70.4101 76.9503 73.0601 78.7303 74.3801" stroke="#1D1D1B" stroke-linecap="round" stroke-linejoin="round"/>
<path d="M78.7907 84.06C77.9107 81.57 79.5207 78.9 79.4107 76.26C79.3699 75.6067 79.2593 74.9597 79.0807 74.33C78.7489 73.2862 78.4916 72.2202 78.3107 71.14C78.184 68.911 78.7386 66.6962 79.9007 64.79C80.0307 64.55 80.1707 64.31 80.3107 64.07C81.3107 62.4 82.4307 60.82 83.3107 59.07C84.7591 56.2979 85.5724 53.2382 85.6917 50.1127C85.8111 46.9873 85.2334 43.8745 84.0007 41" stroke="#1D1D1B" stroke-linecap="round" stroke-linejoin="round"/>
<path d="M82.459 64.7602C83.507 63.0292 85.0122 61.6209 86.809 60.6902C87.7063 60.2296 88.7004 59.9893 89.709 59.9893C90.7176 59.9893 91.7117 60.2296 92.609 60.6902C93.8139 61.4951 94.8361 62.5445 95.609 63.7702L97.239 66.0202C96.381 56.5641 92.7842 47.5633 86.889 40.1202C86.649 39.8102 86.399 39.5002 86.149 39.2002" stroke="#1D1D1B" stroke-linecap="round" stroke-linejoin="round"/>
<path d="M86.9707 40.0299C94.2347 39.1419 101.561 38.8677 108.871 39.2099C110.871 39.2999 112.871 39.4499 114.871 39.7299C117.791 40.0922 120.634 40.9229 123.291 42.1899C125.711 43.3999 128.081 45.4199 128.511 48.3999C128.795 48.3355 129.093 48.3573 129.365 48.4626C129.637 48.5679 129.872 48.7519 130.04 48.9911C130.207 49.2303 130.299 49.5139 130.305 49.8058C130.31 50.0976 130.229 50.3845 130.071 50.6299C130.532 50.3923 131.063 50.3262 131.568 50.4435C132.074 50.5607 132.521 50.8536 132.831 51.2699C133.265 52.1105 133.453 53.0571 133.371 53.9999C133.379 54.2411 133.403 54.4816 133.441 54.7199C133.467 55.0717 133.57 55.4135 133.743 55.721C133.916 56.0286 134.154 56.2945 134.441 56.4999" stroke="#1D1D1B" stroke-linecap="round" stroke-linejoin="round"/>
<path d="M133.549 54.6999C134.706 54.5873 135.875 54.6615 137.009 54.9199C137.577 55.0492 138.106 55.3117 138.553 55.6854C139 56.0592 139.351 56.5337 139.579 57.0699C139.779 57.6299 139.799 58.2399 139.979 58.8099C140.044 59.1003 140.188 59.3667 140.397 59.5788C140.606 59.7909 140.87 59.9403 141.159 60.0099C141.509 60.0099 141.869 59.8999 142.229 59.9199C142.556 59.9695 142.858 60.1224 143.092 60.3563C143.326 60.5902 143.479 60.8928 143.529 61.2199C143.62 61.8916 143.558 62.5752 143.349 63.2199C144.113 63.309 144.827 63.6438 145.385 64.1741C145.942 64.7043 146.312 65.4012 146.439 66.1599C146.496 66.4907 146.496 66.829 146.439 67.1599" stroke="#1D1D1B" stroke-linecap="round" stroke-linejoin="round"/>
<path d="M148.03 68.3699C146.896 67.5781 145.515 67.2229 144.14 67.3699C142.775 67.5169 141.432 67.8257 140.14 68.2898L132.81 70.6199C130.45 71.3599 127.96 72.1999 126.42 74.1299" stroke="#1D1D1B" stroke-linecap="round" stroke-linejoin="round"/>
<path d="M127.959 51.9102C123.756 57.5247 120.409 63.7325 118.029 70.3302" stroke="#1D1D1B" stroke-linecap="round" stroke-linejoin="round"/>
<path d="M103.209 52.1201C103.686 56.0875 105.053 59.8957 107.209 63.2601C109.353 66.6077 111.8 69.7509 114.519 72.6501" stroke="#1D1D1B" stroke-linecap="round" stroke-linejoin="round"/>
<path d="M105.129 69.8799C108.142 73.0022 112.079 75.074 116.359 75.7899" stroke="#1D1D1B" stroke-linecap="round" stroke-linejoin="round"/>
<path d="M111.33 82.5201C113.49 81.6601 116.78 79.1201 118.59 77.6401" stroke="#1D1D1B" stroke-linecap="round" stroke-linejoin="round"/>
<path d="M114.599 41.3398C112.474 45.9809 111.426 51.0425 111.533 56.1459C111.64 61.2493 112.9 66.2623 115.219 70.8099C115.519 71.4099 115.849 72.0098 116.219 72.5898" stroke="#1D1D1B" stroke-linecap="round" stroke-linejoin="round"/>
<path d="M117.24 74.1201C117.46 74.9501 117.77 75.8901 118.57 76.2001C119.099 76.3582 119.668 76.3081 120.16 76.0601L120.66 75.8401L122.09 75.1801C122.343 75.0482 122.612 74.9506 122.89 74.8901C122.973 74.8797 123.057 74.8797 123.14 74.8901C123.325 74.8812 123.509 74.9291 123.666 75.0274C123.824 75.1257 123.947 75.2697 124.02 75.4401" stroke="#1D1D1B" stroke-linecap="round" stroke-linejoin="round"/>
<path d="M122.899 74.9399C122.746 75.2304 122.658 75.5503 122.639 75.8781C122.62 76.2058 122.671 76.5337 122.789 76.8399C123.157 77.5595 123.696 78.1777 124.359 78.64L125.809 75.9" stroke="#1D1D1B" stroke-linecap="round" stroke-linejoin="round"/>
<path d="M120.26 72.9899C121.313 71.8299 122.393 70.6933 123.5 69.58C127.371 65.6541 131.522 62.0145 135.92 58.6899" stroke="#1D1D1B" stroke-linecap="round" stroke-linejoin="round"/>
<path d="M125 71.0401C129.241 66.7016 135.024 64.2144 141.09 64.1201" stroke="#1D1D1B" stroke-linecap="round" stroke-linejoin="round"/>
<path d="M129.42 75.2899C130.807 74.9875 132.214 74.7837 133.63 74.68C135.548 74.5252 137.478 74.6736 139.35 75.12C140.985 75.4838 142.522 76.1991 143.853 77.2161C145.185 78.2332 146.279 79.5278 147.06 81.01C148.123 83.6265 148.357 86.5062 147.73 89.26C147.67 89.61 147.6 89.96 147.53 90.26" stroke="#1D1D1B" stroke-linecap="round" stroke-linejoin="round"/>
<path d="M144.189 90.3902C144.583 91.0671 145.186 91.5972 145.908 91.9004C146.63 92.2036 147.431 92.2632 148.189 92.0702C149.696 91.6632 151.094 90.9252 152.279 89.9102C153.756 88.9639 155.036 87.7416 156.049 86.3102C157.669 83.6402 157.249 80.1802 156.159 77.2502C155.22 74.9303 154.09 72.6926 152.779 70.5602C152.18 69.388 151.408 68.3126 150.489 67.3702C150.025 66.9026 149.464 66.5428 148.845 66.3164C148.227 66.09 147.566 66.0025 146.909 66.0602" stroke="#1D1D1B" stroke-linecap="round" stroke-linejoin="round"/>
<path d="M104.82 86.7599C106.361 86.7329 107.892 86.518 109.38 86.1199C112.945 85.0858 116.351 83.5647 119.5 81.5999L121.19 80.5999C122.26 79.9799 123.33 79.3399 124.41 78.7299C127.289 77.007 130.397 75.6975 133.64 74.8398" stroke="#1D1D1B" stroke-linecap="round" stroke-linejoin="round"/>
<path d="M106.269 87.6899L104.789 86.8099C103.209 85.8365 101.669 84.8165 100.169 83.7499C99.5391 83.3099 98.9291 82.8599 98.3191 82.3999L97.5091 81.7699C96.9491 81.3499 96.3991 80.9099 95.8491 80.4599C95.2991 80.0099 94.5891 79.4598 93.9591 78.9198C92.9149 78.0536 91.7779 77.3057 90.5691 76.6899C89.7061 76.1864 88.6972 75.9924 87.7091 76.1399C86.7135 76.4752 85.8353 77.0895 85.1791 77.9098L79.6591 83.6698C79.4891 83.8498 79.3091 84.0298 79.1491 84.2198C78.8111 84.5731 78.5219 84.97 78.2891 85.3999C78.1774 85.6266 78.0902 85.8646 78.0291 86.1098C77.886 86.5796 77.9273 87.0862 78.1447 87.5265C78.3621 87.9669 78.7391 88.3078 79.1991 88.4798" stroke="#1D1D1B" stroke-linecap="round" stroke-linejoin="round"/>
<path d="M86.3791 80.29L79.9391 87.53C79.659 87.8397 79.4079 88.1744 79.1891 88.53C79.0753 88.7043 78.9845 88.8925 78.9191 89.09C78.7914 89.4662 78.7571 89.8677 78.8191 90.2601C78.9358 90.9622 79.2596 91.6134 79.7491 92.1301C80.543 92.8976 81.4675 93.5174 82.4791 93.9601" stroke="#1D1D1B" stroke-linecap="round" stroke-linejoin="round"/>
<path d="M90.2392 83.6699L84.2392 90.5999C83.6684 91.1587 83.2368 91.8438 82.9792 92.5999C82.8793 92.9937 82.8793 93.4062 82.9792 93.7999C83.1755 94.6711 83.6709 95.446 84.3792 95.9899C85.4408 96.7346 86.6359 97.2676 87.8992 97.5599" stroke="#1D1D1B" stroke-linecap="round" stroke-linejoin="round"/>
<path d="M94.3789 87.5898L88.9089 94.7099C88.2789 95.5399 87.6089 96.5699 87.9789 97.5399C88.3092 98.1244 88.8221 98.5846 89.4389 98.8499L92.4389 100.55C93.1439 101.045 93.978 101.323 94.8389 101.35C95.6924 101.212 96.4783 100.802 97.0789 100.18C97.869 99.4621 98.5828 98.6645 99.2089 97.7999C99.4415 97.5065 99.6055 97.1648 99.6889 96.7999C99.7323 96.619 99.7245 96.4296 99.6662 96.2529C99.6079 96.0763 99.5015 95.9194 99.3589 95.7999" stroke="#1D1D1B" stroke-linecap="round" stroke-linejoin="round"/>
<path d="M101.66 90.5601C100.827 91.4007 99.7948 92.0165 98.6596 92.35H98.5996" stroke="#1D1D1B" stroke-linecap="round" stroke-linejoin="round"/>
<path d="M100.249 89.8501C99.759 90.7001 99.249 91.5301 98.679 92.3501C98.109 93.1701 97.679 93.7901 97.159 94.4801C96.1665 95.8011 95.098 97.0632 93.959 98.2601" stroke="#1D1D1B" stroke-linecap="round" stroke-linejoin="round"/>
<path d="M95.9707 96.6101C96.0836 96.5689 96.2069 96.5651 96.3221 96.5993C96.4374 96.6335 96.5386 96.704 96.6107 96.8001C96.7507 97.0001 96.7407 97.2901 95.9707 96.6101Z" stroke="#1D1D1B" stroke-linecap="round" stroke-linejoin="round"/>
<path d="M97.1898 83.8701C96.5465 83.9899 95.9454 84.2751 95.4457 84.6977C94.946 85.1203 94.5649 85.6656 94.3398 86.2801" stroke="#1D1D1B" stroke-linecap="round" stroke-linejoin="round"/>
<path d="M93.1203 80.25C92.5728 80.3715 92.0594 80.6142 91.6181 80.9603C91.1768 81.3065 90.8187 81.7472 90.5703 82.25" stroke="#1D1D1B" stroke-linecap="round" stroke-linejoin="round"/>
<path d="M89.7806 77.6802C89.3331 77.6812 88.8949 77.8085 88.5164 78.0472C88.1378 78.286 87.8343 78.6267 87.6406 79.0302" stroke="#1D1D1B" stroke-linecap="round" stroke-linejoin="round"/>
<path d="M97.3789 94.6499C98.0289 95.0799 98.6889 95.5099 99.3789 95.9199C100.304 96.5088 101.277 97.0174 102.289 97.4399C104.021 98.2079 105.938 98.4579 107.809 98.1599C109.264 97.8879 110.573 97.104 111.499 95.9499C111.754 95.6257 111.966 95.2693 112.129 94.8899" stroke="#1D1D1B" stroke-linecap="round" stroke-linejoin="round"/>
<path d="M147.66 89.2402L144.15 90.2402C141.003 91.0602 137.843 91.8102 134.67 92.4902C127.053 94.1172 119.351 95.3125 111.6 96.0703" stroke="#1D1D1B" stroke-linecap="round" stroke-linejoin="round"/>
<path d="M97.6602 81.5801C101.094 81.5938 104.496 80.9135 107.66 79.5801C107.88 80.2801 108.1 80.9801 108.31 81.6801V81.79C105.794 82.9171 103.067 83.4933 100.31 83.48" stroke="#1D1D1B" stroke-width="0.5" stroke-miterlimit="10"/>
<path d="M108.289 81.7002C108.958 82.9551 109.302 84.3579 109.289 85.7802" stroke="#1D1D1B" stroke-width="0.5" stroke-miterlimit="10"/>
<path d="M31.6602 93.2698H32.1502L33.0702 93.1598C38.7995 92.4128 44.3947 90.8608 49.6902 88.5498C54.2062 89.4733 58.7749 90.1178 63.3702 90.4798C67.0802 90.7698 70.8202 90.8798 74.5402 90.7998C75.6902 90.7998 76.8302 90.7398 77.9702 90.6798" stroke="#1D1D1B" stroke-linecap="round" stroke-linejoin="round"/>
<path d="M78.0596 85.2702C77.684 84.9702 77.2405 84.7669 76.7681 84.678C76.2956 84.5892 75.8086 84.6176 75.3497 84.7608C74.8908 84.9039 74.4739 85.1573 74.1357 85.4989C73.7975 85.8405 73.5482 86.2598 73.4096 86.7202C73.3296 86.9294 73.3296 87.1609 73.4096 87.3702C73.5203 87.5642 73.6928 87.7156 73.8996 87.8002L78.2196 90.2202L78.3396 90.2902" stroke="#1D1D1B" stroke-linecap="round" stroke-linejoin="round"/>
<path d="M13.7498 96.1199H13.6598C9.32354 96.0897 5.0015 95.6206 0.759766 94.7198C12.6818 100.025 25.0075 104.372 37.6198 107.72C56.8945 112.864 76.7152 115.684 96.6598 116.12C112.16 107.72 128.01 99.9798 144.18 92.7798C141.017 92.5132 137.841 92.4465 134.67 92.5799" stroke="#1D1D1B" stroke-linecap="round" stroke-linejoin="round"/>
<path d="M95.5098 104.38L115.34 98.7002" stroke="#1D1D1B" stroke-linecap="round" stroke-linejoin="round"/>
<path d="M83.4492 106.93L102.089 106.2" stroke="#1D1D1B" stroke-linecap="round" stroke-linejoin="round"/>
<path d="M20.8897 74.7502C18.8897 70.3435 16.863 65.9335 14.8097 61.5202C14.1897 60.1602 13.5597 58.7902 12.9297 57.4302C12.9672 57.042 13.1036 56.6699 13.326 56.3496C13.5483 56.0292 13.8492 55.7711 14.1997 55.6002C14.6232 55.4155 15.0898 55.3523 15.5472 55.4176C16.0046 55.483 16.4348 55.6743 16.7897 55.9702C17.3597 57.3602 17.9197 58.7502 18.4897 60.1502C20.243 64.4635 21.9964 68.7768 23.7497 73.0902C24.0597 73.8502 24.3697 74.6102 24.6697 75.3702C24.9697 76.1302 25.3597 77.0502 25.6697 77.8902" stroke="#1D1D1B" stroke-linecap="round" stroke-linejoin="round"/>
<path d="M11.6596 73.7002C11.9544 74.4069 12.1333 75.1565 12.1896 75.9202C12.2105 76.2983 12.1427 76.676 11.9916 77.0233C11.8406 77.3705 11.6105 77.6776 11.3196 77.9202C10.5596 78.4702 9.37963 78.4202 8.84963 79.2002C8.68432 79.5733 8.61772 79.9827 8.65625 80.389C8.69478 80.7953 8.83713 81.1848 9.06963 81.5202C9.54465 82.191 9.7548 83.0138 9.65963 83.8302C9.36963 84.8302 8.08963 85.3502 7.89963 86.3802C7.63963 87.7902 9.51963 88.7302 9.70963 90.1402C9.82963 91.0002 9.28963 91.8802 9.53963 92.7002C9.75935 93.2582 10.1518 93.7312 10.6596 94.0502C11.6596 94.7602 12.6596 95.4502 13.6596 96.1102C14.4196 96.6202 15.1796 97.1102 15.9596 97.5802C16.4296 97.8602 16.8996 98.1402 17.3896 98.3702C17.8781 98.597 18.3968 98.752 18.9296 98.8302C19.4678 98.9176 20.0198 98.8425 20.515 98.6145C21.0102 98.3865 21.4262 98.0159 21.7096 97.5502" stroke="#1D1D1B" stroke-linecap="round" stroke-linejoin="round"/>
<path d="M12.1602 91.77L18.1602 95.24L18.4702 95.42L19.4002 95.96C20.1549 96.4594 20.9764 96.8499 21.8402 97.12C22.2794 97.2409 22.7398 97.2642 23.1889 97.1882C23.6381 97.1122 24.0652 96.9387 24.4402 96.68C25.1602 96.12 24.9902 93.96 24.4402 93.2" stroke="#1D1D1B" stroke-linecap="round" stroke-linejoin="round"/>
<path d="M12.9707 85.2402C16.3963 88.4267 20.2792 91.0827 24.4907 93.1202C25.4907 93.6302 26.6107 94.1202 27.7007 94.5402" stroke="#1D1D1B" stroke-linecap="round" stroke-linejoin="round"/>
<path d="M16.1406 80.3203L23.0106 84.9303" stroke="#1D1D1B" stroke-linecap="round" stroke-linejoin="round"/>
<path d="M19.4695 82.1201C19.2395 81.6801 19.0095 81.23 18.7695 80.79" stroke="#1D1D1B" stroke-linecap="round" stroke-linejoin="round"/>
<path d="M29.9489 87.9501C29.8289 87.6701 29.7089 87.39 29.5989 87.1C28.6982 84.9089 28.0279 82.63 27.5989 80.3C26.8689 79.62 26.1189 78.96 25.3589 78.3C23.9056 77.0667 22.3989 75.9101 20.8389 74.8301C19.0051 73.5476 17.0986 72.3723 15.1289 71.3101C14.3869 71.3512 13.6698 71.5923 13.0537 72.0078C12.4375 72.4232 11.9452 72.9976 11.6289 73.67" stroke="#1D1D1B" stroke-linecap="round" stroke-linejoin="round"/>
<path d="M15.8301 78.8799C18.8808 80.228 21.5277 82.3476 23.5101 85.0298C24.2062 87.8001 25.5808 90.3535 27.5101 92.4599L27.7101 92.6799C28.2716 92.788 28.8522 92.7335 29.3837 92.5226C29.9152 92.3118 30.3754 91.9535 30.7101 91.4899C30.9302 91.2068 31.1149 90.8978 31.2601 90.5699C31.1001 90.2399 30.9301 89.9099 30.7801 89.5699C30.5201 89.0399 30.2801 88.4999 30.0501 87.9599" stroke="#1D1D1B" stroke-linecap="round" stroke-linejoin="round"/>
<path d="M29.6592 79.1201C28.977 80.849 28.6736 82.704 28.7692 84.5601" stroke="#1D1D1B" stroke-linecap="round" stroke-linejoin="round"/>
<path d="M29.9489 87.9501C30.3789 88.4801 31.7489 88.3401 32.2989 87.9501C32.5795 87.762 32.8096 87.5079 32.9689 87.2101C33.1461 86.8982 33.2742 86.5609 33.3489 86.2101C33.5289 85.5501 33.6089 84.8701 33.8489 84.2101C34.0889 83.5501 34.5889 82.8701 34.8489 82.1401C35.092 81.1885 34.9633 80.18 34.4889 79.32L34.3089 79C33.8431 78.2876 33.2498 77.6672 32.5589 77.17C31.3012 76.2261 29.8439 75.5829 28.2989 75.29C27.1735 75.0585 26.0168 75.0213 24.8789 75.18" stroke="#1D1D1B" stroke-linecap="round" stroke-linejoin="round"/>
<path d="M29.5899 87.1201C29.1299 87.4101 27.8499 88.0201 27.3899 88.3101C27.3163 88.3303 27.2492 88.3694 27.1952 88.4234C27.1412 88.4774 27.1022 88.5445 27.082 88.6182C27.0619 88.6918 27.0612 88.7695 27.0801 88.8434C27.099 88.9174 27.1369 88.9852 27.1899 89.0401L27.6799 89.8701C27.827 90.1936 28.0719 90.463 28.3799 90.6401C28.5432 90.701 28.7182 90.7236 28.8916 90.7062C29.0649 90.6889 29.232 90.6321 29.3799 90.5401C29.6857 90.3477 29.9591 90.1081 30.1899 89.8301" stroke="#1D1D1B" stroke-width="0.5" stroke-linecap="round" stroke-linejoin="round"/>
<path d="M32.5498 86.9102L31.0698 86.5803C30.8892 86.5664 30.7131 86.5168 30.5517 86.4344C30.3904 86.352 30.247 86.2384 30.1298 86.1002C29.996 85.8276 29.9505 85.5199 29.9998 85.2202C29.9777 84.9016 30.0213 84.5819 30.128 84.2808C30.2346 83.9798 30.402 83.7038 30.6198 83.4702L31.1498 83.2603C31.9198 83.5603 32.6898 83.9003 33.4298 84.2603" stroke="#1D1D1B" stroke-width="0.5" stroke-linecap="round" stroke-linejoin="round"/>
<path d="M25.5303 80.0103C24.5969 80.3652 23.8158 81.0333 23.3203 81.9003" stroke="#1D1D1B" stroke-width="0.5" stroke-linecap="round" stroke-linejoin="round"/>
<path d="M24.25 82.5103L25.7 81.5103" stroke="#1D1D1B" stroke-width="0.5" stroke-linecap="round" stroke-linejoin="round"/>
<path d="M21.7988 86.1899C21.2241 86.7755 20.8706 87.5426 20.7988 88.3599" stroke="#1D1D1B" stroke-width="0.5" stroke-linecap="round" stroke-linejoin="round"/>
<path d="M22.3405 87.8799L21.7305 89.2999" stroke="#1D1D1B" stroke-width="0.5" stroke-linecap="round" stroke-linejoin="round"/>
<path d="M19.6595 91.8799C19.2223 92.3948 18.9939 93.0548 19.0195 93.7299" stroke="#1D1D1B" stroke-width="0.5" stroke-linecap="round" stroke-linejoin="round"/>
<path d="M17.9898 96.1899C17.9198 96.6399 17.8398 97.08 17.7598 97.52" stroke="#1D1D1B" stroke-width="0.5" stroke-linecap="round" stroke-linejoin="round"/>
<path d="M58.8301 59.6901C59.2881 59.7501 59.752 59.7501 60.2101 59.6901C61.6002 59.5301 62.9529 59.1345 64.2101 58.5202C65.8492 57.6519 67.6138 57.0446 69.4401 56.7201C69.8415 56.6363 70.2577 56.6577 70.6484 56.7821C71.0391 56.9065 71.391 57.1297 71.6701 57.4301C71.839 57.7055 71.9283 58.0221 71.9283 58.3451C71.9283 58.6681 71.839 58.9848 71.6701 59.2601C71.3135 59.8074 70.8016 60.2356 70.2001 60.4901C67.3301 61.8401 63.8201 60.6901 60.8001 61.4901C60.5307 61.5571 60.2666 61.644 60.0101 61.7501" stroke="#1D1D1B" stroke-width="0.5" stroke-linecap="round" stroke-linejoin="round"/>
<path d="M60.2207 60C60.4452 60.4485 60.6164 60.9217 60.7307 61.41" stroke="#1D1D1B" stroke-width="0.5" stroke-linecap="round" stroke-linejoin="round"/>
<path d="M82.8492 33.9402C82.8475 33.5635 82.7032 33.2013 82.4453 32.9267C82.1874 32.6521 81.8351 32.4855 81.4592 32.4602C81.08 32.4548 80.7054 32.5433 80.3686 32.7178C80.0319 32.8922 79.7435 33.1473 79.5292 33.4602C79.1065 34.0859 78.8234 34.7953 78.6992 35.5401C78.5192 36.3701 78.4192 37.2202 78.1992 38.0602C78.1992 38.0602 78.1992 38.0602 78.2492 38.0602H78.3392C79.0292 37.8002 79.7292 37.5802 80.4392 37.3902C80.676 37.3102 80.9325 37.3102 81.1692 37.3902C81.3472 37.4981 81.487 37.6589 81.5692 37.8501C81.8164 38.4939 81.8164 39.2064 81.5692 39.8501C81.3335 40.4963 80.9959 41.1007 80.5692 41.6402C80.3788 41.9555 80.1146 42.2198 79.7992 42.4101C79.6411 42.4978 79.4593 42.5334 79.2798 42.5119C79.1003 42.4903 78.9321 42.4127 78.7992 42.2901C78.4792 41.9401 78.6492 41.3702 78.8892 40.9502C79.1967 40.5787 79.3442 40.1003 79.2992 39.6202C79.2539 39.4772 79.1703 39.3495 79.0575 39.2507C78.9447 39.152 78.8069 39.0861 78.6592 39.0602C78.5704 39.04 78.4781 39.04 78.3892 39.0602" stroke="#1D1D1B" stroke-width="0.5" stroke-linecap="round" stroke-linejoin="round"/>
<path d="M81.1191 32.8701C81.9053 33.724 82.387 34.8139 82.4891 35.9701" stroke="#1D1D1B" stroke-width="0.5" stroke-linecap="round" stroke-linejoin="round"/>
<path d="M43.5596 100.29C43.3676 99.8607 43.2845 99.3905 43.3177 98.9213C43.3508 98.4521 43.4992 97.9983 43.7496 97.6001C44.2564 96.8147 44.9417 96.1603 45.7496 95.6901C47.5411 94.5814 49.5698 93.9126 51.6695 93.7388C53.7692 93.565 55.8802 93.891 57.8296 94.6901C58.8807 95.0917 59.8179 95.7439 60.5596 96.5901C60.9281 97.0147 61.1901 97.521 61.324 98.0671C61.4579 98.6131 61.4598 99.1832 61.3296 99.7301C60.9104 100.829 60.0878 101.727 59.0296 102.24C56.6121 103.639 53.7925 104.178 51.0296 103.77H50.8796C50.0696 103.64 49.1896 103.49 48.3396 103.28C47.7729 103.137 47.2153 102.96 46.6696 102.75C45.7346 102.423 44.8889 101.882 44.1996 101.17C43.9489 100.906 43.7338 100.61 43.5596 100.29Z" stroke="#1D1D1B" stroke-width="0.5" stroke-linecap="round" stroke-linejoin="round"/>
<path d="M33.1302 100.12C32.7749 100.206 32.4368 100.351 32.1302 100.55C31.9661 100.659 31.833 100.808 31.7436 100.983C31.6542 101.158 31.6117 101.354 31.6202 101.55C31.6802 102.25 32.5102 102.55 33.2102 102.66C36.6302 103.1 40.0202 101.8 43.2102 100.53" stroke="#1D1D1B" stroke-width="0.5" stroke-linecap="round" stroke-linejoin="round"/>
<path d="M44.0604 101.34C41.7422 102.115 39.62 103.384 37.8404 105.06C37.6791 105.171 37.5479 105.321 37.4589 105.495C37.3699 105.67 37.3257 105.864 37.3304 106.06C37.365 106.203 37.4383 106.334 37.5424 106.438C37.6465 106.542 37.7773 106.615 37.9204 106.65C38.2107 106.71 38.5102 106.71 38.8004 106.65C41.7438 106.278 44.4874 104.962 46.6204 102.9" stroke="#1D1D1B" stroke-width="0.5" stroke-linecap="round" stroke-linejoin="round"/>
<path d="M48.3189 103.42C47.1862 104.064 46.1962 104.932 45.4089 105.97C45.1964 106.19 45.0372 106.456 44.9436 106.747C44.85 107.038 44.8244 107.347 44.8689 107.65C45.0027 107.981 45.2418 108.258 45.5492 108.438C45.8566 108.619 46.215 108.694 46.5689 108.65C47.1263 108.595 47.6652 108.42 48.1486 108.137C48.6319 107.854 49.0482 107.469 49.3689 107.01C50.0087 106.088 50.5106 105.077 50.8589 104.01" stroke="#1D1D1B" stroke-width="0.5" stroke-linecap="round" stroke-linejoin="round"/>
<path d="M50.2697 98.23L50.1797 98.33" stroke="#1D1D1B" stroke-width="0.5" stroke-linecap="round" stroke-linejoin="round"/>
<path d="M50.1807 98.3301C50.0507 98.4901 49.6707 98.9101 48.4707 100.12L50.1807 98.3301Z" stroke="#1D1D1B" stroke-width="0.5" stroke-linecap="round" stroke-linejoin="round"/>
<path d="M53.1797 101.45C53.6145 100.915 54.1348 100.455 54.7197 100.09" stroke="#1D1D1B" stroke-width="0.5" stroke-linecap="round" stroke-linejoin="round"/>
<path d="M51.5703 96.2199C52.4278 95.7964 53.3777 95.5946 54.3333 95.633C55.2889 95.6715 56.2196 95.9489 57.0403 96.4399C57.3634 96.6796 57.5963 97.021 57.7015 97.4093C57.8068 97.7975 57.7781 98.2099 57.6203 98.5799" stroke="#1D1D1B" stroke-width="0.5" stroke-linecap="round" stroke-linejoin="round"/>
<path d="M14.5293 60.2601C14.6736 59.9624 14.8784 59.6982 15.1305 59.4841C15.3827 59.2701 15.6767 59.1109 15.9938 59.0168C16.3108 58.9227 16.6441 58.8957 16.9722 58.9376C17.3002 58.9795 17.616 59.0893 17.8993 59.2601" stroke="#1D1D1B" stroke-width="0.5" stroke-linecap="round" stroke-linejoin="round"/>
<path d="M15 61.4299C15.0355 61.2039 15.1313 60.9917 15.2774 60.8157C15.4235 60.6397 15.6144 60.5064 15.83 60.4299C16.6246 60.0449 17.5351 59.9735 18.38 60.2299" stroke="#1D1D1B" stroke-width="0.5" stroke-linecap="round" stroke-linejoin="round"/>
<path d="M31.9297 98.51L32.3797 98.23" stroke="#1D1D1B" stroke-width="0.5" stroke-linecap="round" stroke-linejoin="round"/>
<path d="M47.8789 44C49.1883 44.0707 50.4324 44.5938 51.3989 45.48C52.3613 46.3669 53.5531 46.9663 54.8389 47.21" stroke="#1D1D1B" stroke-width="0.5" stroke-linecap="round" stroke-linejoin="round"/>
<path d="M54.4196 43.54C54.3307 43.738 54.2924 43.9549 54.3081 44.1714C54.3238 44.3878 54.3931 44.597 54.5096 44.78C54.7429 45.2988 55.1108 45.7458 55.5749 46.0746C56.0391 46.4034 56.5828 46.6021 57.1496 46.6501" stroke="#1D1D1B" stroke-width="0.5" stroke-linecap="round" stroke-linejoin="round"/>
<path d="M56.6602 45.0101C57.3057 45.0141 57.9454 44.8867 58.5402 44.6357C59.135 44.3847 59.6726 44.0153 60.1202 43.55L60.3202 43.35C61.1802 42.51 61.8902 41.5301 62.7402 40.6901C64.2846 39.1767 66.2507 38.1658 68.3802 37.79" stroke="#1D1D1B" stroke-width="0.5" stroke-linecap="round" stroke-linejoin="round"/>
<path d="M52.3496 51.99C52.7462 52.0922 53.1657 52.057 53.5396 51.89C53.895 51.7133 54.2302 51.4987 54.5396 51.25" stroke="#1D1D1B" stroke-width="0.5" stroke-linecap="round" stroke-linejoin="round"/>
<path d="M62.1699 48.2202C62.933 49.3045 64.0337 50.1056 65.3001 50.4982C66.5665 50.8908 67.9273 50.8528 69.1699 50.3903" stroke="#1D1D1B" stroke-width="0.5" stroke-linecap="round" stroke-linejoin="round"/>
<path d="M52.3591 56.7999H51.8391C50.4036 56.7772 48.9998 56.3748 47.7702 55.6336C46.5407 54.8923 45.5294 53.8387 44.8391 52.5799C44.4723 51.9003 44.2382 51.157 44.1491 50.3899C44.0501 49.642 44.1573 48.8813 44.4591 48.1899C44.8035 47.5027 45.3234 46.9189 45.9662 46.4974C46.6089 46.0759 47.3516 45.8318 48.1191 45.7899C48.5279 45.7448 48.9404 45.7448 49.3491 45.7899C50.4594 45.9809 51.5083 46.4333 52.4091 47.1099C53.6219 48.0556 54.6637 49.2022 55.4891 50.4999L55.7891 50.3899C56.6332 50.0761 57.5502 50.0135 58.4291 50.2099C58.7136 50.3012 59.0044 50.3713 59.2991 50.4199C58.793 49.5463 58.5632 48.5399 58.6399 47.5332C58.7167 46.5265 59.0964 45.5666 59.7291 44.7799C60.0436 44.3859 60.4064 44.0331 60.8091 43.7299C62.0413 42.8213 63.5108 42.2898 65.0391 42.1999C66.3311 42.0439 67.6386 42.318 68.7591 42.9799C69.6327 43.6158 70.3227 44.4714 70.7591 45.4599C71.4248 46.6874 71.7688 48.0635 71.7591 49.4599C71.7372 50.8565 71.1617 52.1873 70.1591 53.1599C69.5713 53.664 68.8924 54.0509 68.1591 54.2999C66.4291 54.9199 64.3491 55.2999 62.7591 54.2999C61.268 53.36 60.0722 52.0187 59.3091 50.4299" stroke="#1D1D1B" stroke-linecap="round" stroke-linejoin="round"/>
<path d="M52.5605 48.8701C52.8305 49.3301 53.0905 49.7901 53.3505 50.2501" stroke="#1D1D1B" stroke-linecap="round" stroke-linejoin="round"/>
<path d="M63.4199 46.3901L64.4199 48.0501" stroke="#1D1D1B" stroke-linecap="round" stroke-linejoin="round"/>
<path d="M27.459 92.4599C27.649 92.9799 27.939 93.6799 28.219 94.3499C28.409 94.8099 28.609 95.2499 28.769 95.6099L28.859 95.8199C30.249 97.2399 31.629 98.6499 33.119 100.02C32.93 98.206 32.5955 96.4102 32.119 94.6499L31.939 94.2198L31.559 93.3299C31.309 92.7499 31.059 92.1698 30.819 91.5898" stroke="#1D1D1B" stroke-linecap="round" stroke-linejoin="round"/>
</svg>
