<svg width="345" height="255" viewBox="0 0 345 255" fill="none" xmlns="http://www.w3.org/2000/svg">
<path d="M95.2578 89.0384L103.057 80.3726L103.924 83.8389L103.057 84.7055V93.3713L103.924 97.7042L100.457 96.8376L96.991 93.3713L95.2578 89.0384Z" fill="#1D1D1B"/>
<path d="M70.113 206.504C71.1538 210.349 71.8841 214.271 72.297 218.232C69.0428 215.24 66.0289 212.161 62.9931 209.059C62.6 208.208 62.0977 207.05 61.5954 205.849C61.0931 204.648 60.3505 202.857 59.9355 201.721L60.3724 202.201C61.5986 202.438 62.8668 202.319 64.0276 201.858C65.1884 201.398 66.1934 200.615 66.9243 199.603L67.3175 199.821C67.8416 201.088 68.3876 202.354 68.9336 203.621L70.113 206.504Z" fill="#C9C9C9"/>
<path d="M36.6763 122.027C37.9212 125.063 39.1442 128.099 40.3891 131.156L40.1489 131.265C38.3036 130.705 36.3151 130.861 34.5797 131.702C34.1089 131.869 33.6919 132.16 33.3728 132.545C33.0537 132.929 32.8444 133.393 32.767 133.886L32.352 134.083C30.9979 131.112 29.622 128.12 28.2461 125.15C28.328 124.302 28.626 123.49 29.1116 122.79C29.5972 122.09 30.2542 121.527 31.0198 121.154C31.9506 120.759 32.9731 120.632 33.9723 120.786C34.9715 120.94 35.9079 121.37 36.6763 122.027Z" fill="#C9C9C9"/>
<path d="M53.8653 164.396C54.6297 166.23 55.3723 168.065 56.0493 169.899L55.2631 170.838C52.089 168.145 48.7985 165.619 45.3914 163.26L45.5443 163.042C41.1763 153.417 36.7501 143.786 32.2656 134.147L32.6806 133.951C32.758 133.457 32.9674 132.994 33.2864 132.609C33.6055 132.225 34.0225 131.934 34.4933 131.767C36.2287 130.926 38.2172 130.77 40.0625 131.33L40.3027 131.221C44.132 140.641 47.9613 150.061 51.7905 159.482C52.5549 161.076 53.232 162.736 53.8653 164.396Z" fill="#C9C9C9"/>
<path d="M268.398 163.238C267.79 163.37 267.202 163.583 266.651 163.871L262.654 159.198C264.955 156.664 267.313 154.182 269.73 151.75L273.006 154.939C282.268 145.464 294.899 140.032 308.147 139.826L313.083 137.794C314.753 137.986 316.315 138.716 317.533 139.874C318.75 141.033 319.557 142.557 319.831 144.215L320.836 144.084C322.269 143.958 323.713 144.149 325.064 144.644C326.415 145.138 327.641 145.924 328.655 146.945C330.662 149.004 332.348 151.352 333.656 153.912C336.518 158.569 338.987 163.457 341.038 168.523C343.418 174.922 344.336 182.479 340.798 188.31C338.584 191.436 335.789 194.106 332.564 196.173C329.974 198.389 326.923 200.001 323.631 200.89C321.974 201.312 320.225 201.181 318.649 200.519C317.072 199.857 315.755 198.699 314.895 197.221L314.786 196.806L322.452 194.622H322.627C323.996 188.608 323.485 182.319 321.163 176.604C319.458 173.367 317.068 170.54 314.16 168.318C311.253 166.097 307.897 164.535 304.325 163.74C300.237 162.766 296.021 162.441 291.832 162.779V163.129C284.748 165.002 277.962 167.862 271.674 171.624L271.565 171.428C270.117 170.418 268.94 169.068 268.136 167.497C267.878 166.828 267.765 166.112 267.807 165.396C267.848 164.68 268.043 163.982 268.376 163.347L268.398 163.238Z" fill="#A55DA1"/>
<path d="M251.648 154.437L257.785 153.389C262.982 138.98 270.291 125.422 279.472 113.16L284.014 110.364C285.022 109.845 286.181 109.701 287.285 109.957C288.389 110.213 289.366 110.853 290.042 111.762C290.992 113.598 291.401 115.665 291.222 117.724C291.24 118.251 291.291 118.776 291.374 119.297H291.68C294.209 119.051 296.76 119.213 299.237 119.777C300.477 120.06 301.633 120.633 302.609 121.449C303.584 122.265 304.353 123.302 304.85 124.473C305.287 125.696 305.33 127.028 305.723 128.273C305.865 128.907 306.181 129.489 306.637 129.952C307.092 130.416 307.669 130.742 308.3 130.894C309.065 130.894 309.851 130.654 310.637 130.697C311.352 130.806 312.012 131.14 312.523 131.65C313.034 132.161 313.368 132.822 313.476 133.536C313.675 135.003 313.541 136.496 313.083 137.904L308.148 139.936C294.896 140.147 282.265 145.587 273.007 155.071L269.731 151.882C267.3 154.299 264.941 156.781 262.655 159.329L266.652 164.003C267.203 163.715 267.791 163.502 268.399 163.37V163.588C268.065 164.223 267.871 164.921 267.829 165.637C267.788 166.353 267.9 167.069 268.159 167.738C268.962 169.309 270.14 170.659 271.587 171.669L271.697 171.866C268.093 173.918 264.533 176.059 260.973 178.134C254.095 182.377 246.665 185.655 238.893 187.874L238.718 187.132C238.747 184.025 237.996 180.962 236.534 178.221C236.076 176.692 235.595 175.163 235.115 173.635C228.203 176.547 220.775 178.033 213.275 178.003L212.947 178.417C211.724 177.5 210.523 176.539 209.322 175.556C208.121 174.574 206.57 173.373 205.194 172.193C202.914 170.301 200.431 168.668 197.79 167.323C195.906 166.223 193.702 165.8 191.544 166.122C189.37 166.854 187.452 168.196 186.019 169.987L173.985 182.523C173.614 182.917 173.22 183.31 172.871 183.725L172.107 183.375C170.185 177.937 173.701 172.106 173.461 166.34C173.372 164.913 173.13 163.5 172.74 162.125C172.015 159.845 171.453 157.517 171.058 155.158C170.782 150.29 171.993 145.453 174.531 141.29C174.815 140.765 175.12 140.241 175.426 139.717L180.122 141.224C182.411 137.444 185.698 134.368 189.622 132.335C191.582 131.329 193.753 130.805 195.956 130.805C198.159 130.805 200.33 131.329 202.289 132.335C204.921 134.093 207.153 136.385 208.841 139.062L212.401 143.976C210.521 123.322 202.658 103.664 189.775 87.4105L189.95 87.2794C205.814 85.3402 221.814 84.7411 237.779 85.4886C242.147 85.6851 246.515 86.0128 250.883 86.6243L250.359 90.1405C245.717 100.276 243.428 111.331 243.662 122.477C243.897 133.623 246.649 144.571 251.713 154.503L251.648 154.437Z" fill="#A55DA1"/>
<path d="M283.949 106.782C284.292 107.317 284.474 107.938 284.474 108.573C284.474 109.208 284.292 109.83 283.949 110.364L279.407 113.16C270.226 125.422 262.917 138.98 257.72 153.389L251.583 154.437C246.519 144.505 243.766 133.557 243.532 122.411C243.297 111.265 245.587 100.211 250.229 90.0748L250.753 86.5586C257.131 87.3499 263.341 89.1641 269.142 91.9313C274.427 94.5739 279.603 98.9856 280.542 105.494C281.174 105.353 281.833 105.4 282.438 105.629C283.044 105.858 283.569 106.259 283.949 106.782Z" fill="#A55DA1"/>
<path d="M238.718 187.131L238.893 187.874C235.642 188.743 232.298 189.213 228.934 189.272V189.381C225.483 187.255 222.12 185.027 218.844 182.698L219.237 182.152C225.257 182.181 231.214 180.922 236.709 178.461V178.221C238.11 180.977 238.801 184.04 238.718 187.131Z" fill="#A55DA1"/>
<path d="M236.512 178.221V178.461C231.018 180.923 225.061 182.181 219.04 182.152L218.647 182.698C217.271 181.737 215.939 180.754 214.607 179.75L212.838 178.374L213.166 177.959C220.665 177.989 228.094 176.503 235.005 173.591C235.573 175.163 236.054 176.692 236.512 178.221Z" fill="#A55DA1"/>
<path d="M212.272 143.998L208.712 139.084C207.024 136.407 204.792 134.115 202.16 132.357C200.2 131.351 198.029 130.826 195.826 130.826C193.624 130.826 191.453 131.351 189.493 132.357C185.569 134.39 182.281 137.466 179.992 141.246L175.297 139.739C177.481 136.092 179.927 132.641 181.849 128.819C185.012 122.765 186.788 116.082 187.049 109.256C187.31 102.43 186.048 95.6321 183.356 89.3542L181.958 88.9828C182.198 88.1966 182.395 87.4104 182.57 86.6024H182.919C184.546 86.0472 186.136 85.3907 187.68 84.6367L187.964 85.1827C188.51 85.8379 189.056 86.515 189.58 87.1921C202.53 103.505 210.419 123.253 212.272 143.998Z" fill="#A55DA1"/>
<path d="M142.34 58.7349C139.064 60.1545 134.98 58.4946 131.246 58.7349C129.128 58.9344 127.105 59.7038 125.389 60.9613C123.674 62.2187 122.332 63.9173 121.505 65.8766C120.725 67.856 120.394 69.9842 120.538 72.1071C120.681 74.2299 121.295 76.2943 122.335 78.1506C124.475 81.8546 127.832 84.7025 131.835 86.2096C129.149 87.1335 126.3 87.4826 123.47 87.2343C120.641 86.9859 117.895 86.1457 115.412 84.7681C112.267 82.999 109.427 79.8977 109.624 76.2942C108.165 81.346 108.497 86.7469 110.563 91.5821C108.382 90.6933 106.54 89.1319 105.307 87.1248C104.074 85.1178 103.513 82.7697 103.705 80.4219C100.932 82.9554 98.0925 85.5543 95.4936 88.328C91.2803 92.5042 88.0563 97.5715 86.0587 103.157C85.8416 96.1093 87.9863 89.1909 92.1521 83.5014C89.6101 86.008 86.5121 87.8787 83.1103 88.9614C81.4108 89.4851 79.6211 89.6506 77.8543 89.4476C76.0875 89.2446 74.3821 88.6774 72.8456 87.782C71.2987 86.6986 69.9894 85.3107 68.9979 83.7034C68.0065 82.096 67.3538 80.3031 67.0798 78.4346C66.5628 74.6898 66.6365 70.887 67.2982 67.1651C67.3234 68.5323 67.789 69.855 68.6257 70.9365C69.4624 72.0181 70.6257 72.801 71.9427 73.1689C73.2598 73.5368 74.6603 73.4701 75.9365 72.9787C77.2126 72.4873 78.2961 71.5973 79.0262 70.4411C80.839 67.6237 80.1838 63.8891 79.9654 60.6131C79.6574 55.5771 80.5481 50.5399 82.5643 45.9148H82.3459C81.0267 46.7779 79.4952 47.2611 77.9195 47.3112C76.3438 47.3613 74.7848 46.9764 73.4134 46.1988C72.0609 45.3889 70.905 44.2891 70.0288 42.9786C69.1526 41.6682 68.578 40.1796 68.3465 38.6203C67.9413 35.4015 68.6092 32.1389 70.2466 29.3383C70.2332 30.308 70.4948 31.2619 71.0011 32.0891C71.5075 32.9162 72.2379 33.5829 73.1076 34.0121C74.8646 34.8326 76.8233 35.1211 78.7423 34.842C85.6874 34.1213 91.5624 29.6223 97.066 25.3417C102.57 21.061 108.51 16.6057 115.455 16.0378C113.083 16.339 110.674 16.1028 108.406 15.3467C106.137 14.5906 104.068 13.3339 102.351 11.6698C106.523 13.5918 111.393 12.4997 115.805 11.2549C120.216 10.01 124.934 8.65585 129.302 10.0973C131.378 7.5621 133.971 5.50022 136.91 4.04998C139.848 2.59975 143.062 1.79477 146.337 1.68896C143.186 3.79369 140.539 6.56775 138.584 9.81336C144.612 6.77761 151.862 7.62938 158.24 9.55129C162.656 10.6555 166.792 12.6716 170.383 15.47C172.168 16.8588 173.634 18.6149 174.681 20.6195C175.729 22.6241 176.333 24.8303 176.454 27.0888C177.517 25.0823 179.113 23.4085 181.067 22.2523C183.021 21.0961 185.257 20.5024 187.527 20.5368C184.442 21.9531 181.926 24.3696 180.385 27.3946C182.353 27.8345 184.101 28.9562 185.321 30.5613C186.539 32.1445 188.016 33.5106 189.689 34.6018C190.591 35.0764 191.586 35.3449 192.604 35.3878C193.622 35.4308 194.637 35.2472 195.575 34.8501C196.514 34.4531 197.352 33.8526 198.03 33.092C198.708 32.3315 199.208 31.4297 199.495 30.4521C199.639 31.7575 199.466 33.0782 198.991 34.3024C198.516 35.5266 197.752 36.6183 196.765 37.4847C194.824 38.8883 192.579 39.8159 190.213 40.1928C193.162 42.3768 193.489 46.7448 192.943 50.4576C192.397 54.1704 191.262 57.905 192.223 61.5086C193.184 65.1122 195.848 67.6675 196.591 71.0964C196.884 72.9974 196.702 74.9413 196.062 76.7551C195.422 78.5689 194.343 80.1962 192.922 81.4921C191.391 82.9553 189.636 84.1645 187.724 85.0739C186.179 85.8278 184.589 86.4843 182.963 87.0395H182.613C183.522 83.1311 183.954 79.1271 183.902 75.1148C184.095 72.4435 183.32 69.7918 181.718 67.6456C180.6 66.5836 179.201 65.8662 177.686 65.5796C176.171 65.2929 174.606 65.4492 173.178 66.0295C171.835 66.5339 170.609 67.3075 169.576 68.3028C168.543 69.2981 167.724 70.4941 167.17 71.8174C166.615 73.1407 166.337 74.5634 166.353 75.998C166.368 77.4326 166.677 78.8488 167.26 80.1599H167.587C167.77 81.4342 167.669 82.7333 167.292 83.9641C166.914 85.195 166.269 86.3272 165.403 87.2797C164.763 85.3999 163.717 83.6839 162.339 82.2535C160.961 80.823 159.286 79.7131 157.432 79.0024C155.194 78.3231 152.919 77.7761 150.618 77.3644C148.883 77.0151 147.253 76.2674 145.856 75.1804C144.838 74.1949 144.042 73.0029 143.522 71.6845C143.003 70.3661 142.771 68.9518 142.843 67.5365C142.99 64.7044 143.649 61.9223 144.786 59.3246L142.34 58.7349Z" fill="#1D1D1B"/>
<path d="M130.306 169.179L124.693 171.21C109.578 161.93 98.1474 147.698 92.3478 130.937L87.0625 130.304C87.7177 128.229 87.9798 125.936 88.5258 123.905C90.1579 118.857 92.6477 114.129 95.8858 109.927H96.3226C96.5171 111.603 97.0285 113.226 97.8296 114.71C99.3372 117.459 101.546 119.761 104.231 121.379C106.916 122.998 109.982 123.877 113.118 123.927L114.887 124.516C114.659 125.274 114.548 126.062 114.559 126.853C114.486 127.576 114.6 128.305 114.891 128.971C115.181 129.637 115.637 130.217 116.216 130.655C116.795 131.094 117.477 131.376 118.196 131.475C118.916 131.574 119.649 131.487 120.325 131.221C121.555 130.813 122.718 130.224 123.775 129.474L124.431 130.435L130.109 141.661C130.867 143.474 132.033 145.088 133.516 146.378C134.62 147.061 135.849 147.518 137.131 147.724C138.413 147.931 139.723 147.881 140.985 147.579C146.657 146.509 151.825 143.618 155.705 139.346L156.208 139.826C156.31 140.946 156.648 142.032 157.202 143.011C157.755 143.99 158.511 144.84 159.418 145.504C161.228 146.823 162.929 148.284 164.507 149.872C167.63 153.563 167.958 159.351 171.845 162.234H172.61C173 163.609 173.241 165.022 173.33 166.449C173.571 172.215 170.054 178.046 171.976 183.484L172.741 183.834C172.003 184.605 171.371 185.472 170.862 186.411L170.382 186.127C169.562 185.472 168.593 185.028 167.561 184.834C166.529 184.64 165.466 184.702 164.463 185.014C163.461 185.327 162.551 185.88 161.812 186.626C161.073 187.372 160.529 188.288 160.226 189.294C160.052 189.751 160.052 190.256 160.226 190.713C160.468 191.137 160.845 191.468 161.296 191.652L170.731 196.938L170.229 197.833C167.739 197.964 165.25 198.051 162.738 198.095V196.392C150.132 189.705 139.08 180.432 130.306 169.179Z" fill="#A55DA1"/>
<path d="M133.274 188.835L132.728 189.206C123.16 187.152 114.019 183.458 105.712 178.286C105.078 177.936 104.467 177.543 103.855 177.15L100.208 177.325C99.2218 170.931 96.1507 165.042 91.4722 160.574C86.4745 155.892 80.7417 152.062 74.5026 149.239L70.5059 147.273C70.7985 145.007 71.4317 142.798 72.3841 140.721C72.8565 139.694 73.5496 138.784 74.4141 138.055C75.2786 137.327 76.2931 136.798 77.3854 136.506C78.805 136.222 80.2901 136.506 81.7534 136.135C82.948 135.749 84.032 135.081 84.914 134.188C85.7959 133.294 86.4498 132.202 86.8203 131.002C86.9295 130.719 87.0387 130.413 87.1261 130.107L92.4113 130.74C98.211 147.501 109.642 161.734 124.756 171.013L130.369 168.982C139.174 180.203 150.248 189.439 162.867 196.085V197.789C154.743 197.964 146.574 197.789 138.472 197.09V196.216C136.856 193.88 135.043 191.346 133.274 188.835Z" fill="#A55DA1"/>
<path d="M94.5778 184.947V185.275C94.7749 186.196 94.6837 187.156 94.3163 188.023C93.949 188.891 93.3235 189.624 92.5248 190.124C91.6662 190.829 90.6387 191.298 89.5435 191.486C88.4482 191.674 87.323 191.573 86.2786 191.194C86.4545 191.612 86.5148 192.07 86.4534 192.519C86.3919 192.969 86.2109 193.393 85.9292 193.749C85.3162 194.462 84.5755 195.055 83.7452 195.496L81.3209 197.069C80.3988 197.717 79.4192 198.28 78.3944 198.75C75.9701 199.777 74.3321 202.288 72.1482 203.118L70.1389 203.359H69.0687L68.7848 203.49C68.2388 202.223 67.6928 200.956 67.1686 199.689L66.7755 199.471C67.2563 198.853 67.6597 198.178 67.9767 197.462C67.0376 195.584 66.1422 193.662 65.3122 191.74C66.1858 192.941 69.2434 192.635 70.4665 191.74C71.6117 190.809 72.3863 189.5 72.6505 188.049C73.0436 186.607 73.2183 185.122 73.7425 183.681C74.2666 182.239 75.3586 180.754 75.9265 179.16C76.4575 177.082 76.1763 174.879 75.1402 173.001C74.1046 171.14 72.6641 169.535 70.9251 168.305C66.126 164.7 60.0999 163.131 54.152 163.937L53.7808 164.09C53.1256 162.43 52.4485 160.771 51.7715 159.111L53.3876 158.456C54.1866 158.379 54.991 158.379 55.79 158.456L55.9429 157.276C56.8973 155.576 58.2469 154.131 59.8778 153.063C61.5086 151.995 63.3726 151.335 65.3122 151.139C65.1098 150.464 65.1125 149.743 65.3201 149.069C65.5277 148.395 65.9308 147.798 66.4783 147.353C67.0258 146.909 67.693 146.637 68.3953 146.572C69.0975 146.507 69.8032 146.653 70.4228 146.99L74.4195 148.955C80.6586 151.779 86.3915 155.608 91.3891 160.29C96.0676 164.759 99.1387 170.647 100.125 177.041L103.772 176.867C104.384 177.26 104.995 177.653 105.629 178.002L105.389 178.395C104.228 180.253 102.62 181.79 100.713 182.865C98.8053 183.941 96.6584 184.522 94.4686 184.554L94.5778 184.947ZM90.0132 176.626C87.7204 166.986 81.9994 158.51 73.9172 152.777C73.3712 152.384 72.5413 152.013 72.0608 152.515C71.5803 153.017 72.0608 153.804 72.3884 154.35C77.7882 162.139 83.6749 169.579 90.0132 176.626Z" fill="#A55DA1"/>
<path d="M73.9125 152.777C81.9948 158.509 87.7158 166.986 90.0086 176.626C83.6702 169.579 77.7835 162.139 72.3838 154.349C71.9906 153.803 71.5975 152.995 72.0562 152.514C72.5148 152.034 73.3665 152.383 73.9125 152.777Z" fill="#A55DA1"/>
<path d="M63.5195 208.294C64.9525 207.104 66.6949 206.346 68.5427 206.11" stroke="black" stroke-width="1.73316" stroke-linecap="round" stroke-linejoin="round"/>
<path d="M161.514 133.864C162.905 135.134 164.499 136.16 166.231 136.9" stroke="black" stroke-width="1.73316" stroke-linecap="round" stroke-linejoin="round"/>
<path d="M82.2594 45.7396C80.9402 46.6027 79.4087 47.0858 77.833 47.1359C76.2573 47.186 74.6983 46.8011 73.3269 46.0235C71.9744 45.2136 70.8184 44.1138 69.9423 42.8033C69.0661 41.4929 68.4915 40.0044 68.26 38.4451C67.8548 35.2263 68.5227 31.9638 70.1601 29.1631C70.1466 30.1329 70.4083 31.0866 70.9146 31.9138C71.421 32.7409 72.1513 33.4076 73.0211 33.8368C74.7781 34.6573 76.7368 34.9458 78.6558 34.6667C85.6009 33.946 91.4759 29.447 96.9795 25.1664C102.483 20.8857 108.424 16.4304 115.369 15.8625C112.997 16.1637 110.587 15.9275 108.319 15.1714C106.051 14.4153 103.982 13.1586 102.265 11.4945C106.436 13.4165 111.307 12.3245 115.718 11.0796C120.13 9.8347 124.847 8.48069 129.215 9.92213C131.291 7.38694 133.885 5.32506 136.823 3.87482C139.761 2.42459 142.976 1.61947 146.25 1.51367C143.1 3.6184 140.452 6.39259 138.497 9.6382C144.525 6.60245 151.776 7.45422 158.153 9.37613C162.569 10.4803 166.706 12.4963 170.296 15.2947C172.081 16.6835 173.547 18.4398 174.595 20.4443C175.642 22.4489 176.247 24.655 176.368 26.9135C177.43 24.907 179.027 23.2332 180.981 22.077C182.935 20.9208 185.17 20.3271 187.441 20.3616C184.356 21.7779 181.839 24.1943 180.299 27.2193C182.266 27.6592 184.015 28.781 185.235 30.3861C186.453 31.9693 187.93 33.3353 189.603 34.4265C190.504 34.9011 191.5 35.1696 192.518 35.2126C193.536 35.2555 194.551 35.0719 195.489 34.6748C196.427 34.2778 197.266 33.6773 197.943 32.9167C198.621 32.1562 199.122 31.2546 199.409 30.277C199.553 31.5823 199.38 32.903 198.904 34.1272C198.429 35.3514 197.666 36.443 196.679 37.3094C194.737 38.713 192.493 39.6407 190.127 40.0175C193.075 42.2015 193.403 46.5695 192.857 50.2823C192.311 53.9951 191.175 57.7297 192.136 61.3333C193.097 64.9369 195.762 67.4922 196.504 70.9211C196.797 72.8221 196.616 74.766 195.975 76.5798C195.335 78.3936 194.256 80.021 192.835 81.3169C191.304 82.7801 189.55 83.9892 187.637 84.8986C186.093 85.6525 184.503 86.309 182.876 86.8642" stroke="black" stroke-width="1.73316" stroke-linecap="round" stroke-linejoin="round"/>
<path d="M167.433 79.7884C166.85 78.4774 166.541 77.0611 166.526 75.6265C166.511 74.1919 166.788 72.7693 167.343 71.446C167.897 70.1227 168.716 68.9266 169.749 67.9312C170.782 66.9359 172.008 66.1623 173.351 65.6579C174.779 65.0777 176.345 64.9215 177.859 65.2082C179.374 65.4948 180.774 66.2122 181.891 67.2742C183.493 69.4204 184.269 72.0721 184.075 74.7434C184.128 78.7557 183.695 82.7596 182.786 86.6679C182.612 87.476 182.415 88.2623 182.175 89.0486C181.935 89.8348 181.629 90.8831 181.323 91.8004C180.725 93.9369 179.59 95.8844 178.025 97.4569C177.225 98.2225 176.204 98.7184 175.108 98.8751C174.011 99.0317 172.893 98.8414 171.91 98.3305" stroke="black" stroke-width="1.73316" stroke-linecap="round" stroke-linejoin="round"/>
<path d="M82.8028 45.2603C82.8028 45.4568 82.6281 45.6316 82.5625 45.8281C80.6075 50.4154 79.7547 55.397 80.0728 60.3735C80.2912 63.715 80.9464 67.3841 79.1337 70.2014C78.4036 71.3577 77.32 72.2475 76.0439 72.7389C74.7678 73.2304 73.3672 73.2972 72.0502 72.9293C70.7331 72.5614 69.5699 71.7785 68.7331 70.6969C67.8964 69.6153 67.4309 68.2927 67.4056 66.9254C66.744 70.6474 66.6703 74.4501 67.1872 78.1949C67.4612 80.0635 68.1139 81.8563 69.1054 83.4636C70.0968 85.071 71.4061 86.4589 72.953 87.5424C74.4895 88.4378 76.195 89.0049 77.9618 89.2079C79.7285 89.4109 81.5182 89.2453 83.2178 88.7217C86.6195 87.639 89.7175 85.7682 92.2595 83.2617C88.0938 88.9511 85.9491 95.8695 86.1661 102.918C88.1638 97.3318 91.3877 92.2646 95.601 88.0884C98.1999 85.3147 101.039 82.7157 103.813 80.1823C103.62 82.5301 104.181 84.8781 105.414 86.8852C106.648 88.8922 108.489 90.4536 110.671 91.3425C108.604 86.5072 108.272 81.1063 109.731 76.0545C109.535 79.6581 112.374 82.7594 115.519 84.5284C118.003 85.9061 120.748 86.7463 123.578 86.9946C126.407 87.2429 129.257 86.8939 131.943 85.9699C127.939 84.4629 124.582 81.6149 122.442 77.911C121.403 76.0546 120.789 73.9903 120.645 71.8674C120.502 69.7446 120.832 67.6164 121.612 65.637C122.439 63.6777 123.782 61.9791 125.497 60.7216C127.212 59.4642 129.236 58.6948 131.353 58.4953C135.088 58.2769 139.172 59.9367 142.448 58.4953C142.784 58.3431 143.106 58.1603 143.409 57.9493" stroke="black" stroke-width="1.73316" stroke-linecap="round" stroke-linejoin="round"/>
<path d="M144.874 58.8433C143.737 61.441 143.078 64.223 142.931 67.0551C142.859 68.4705 143.091 69.8847 143.611 71.2031C144.13 72.5215 144.926 73.7135 145.945 74.6991C147.341 75.7861 148.971 76.5337 150.706 76.8831C153.007 77.2948 155.283 77.8417 157.52 78.5211C159.374 79.2318 161.05 80.3417 162.427 81.7721C163.805 83.2026 164.851 84.9185 165.491 86.7984C166.358 85.8459 167.002 84.7138 167.38 83.4829C167.758 82.2521 167.858 80.953 167.675 79.6787C167.675 79.6787 167.675 79.6787 167.675 79.5476" stroke="black" stroke-width="1.73316" stroke-linecap="round" stroke-linejoin="round"/>
<path d="M95.6253 88.3062C95.538 90.721 96.3827 93.077 97.9846 94.8861C99.5864 96.6953 101.823 97.8191 104.23 98.025" stroke="black" stroke-width="1.73316" stroke-linecap="round" stroke-linejoin="round"/>
<path d="M102.785 84.5269C102.222 89.0583 102.823 93.6585 104.532 97.8929C104.532 98.1986 104.773 98.5045 104.904 98.7884" stroke="black" stroke-width="1.73316" stroke-linecap="round" stroke-linejoin="round"/>
<path d="M107.352 102.479C108.59 108.953 111.254 115.071 115.148 120.388" stroke="black" stroke-width="1.73316" stroke-linecap="round" stroke-linejoin="round"/>
<path d="M122.004 110.604C119.465 114.249 117.362 118.178 115.736 122.311C115.446 123.023 115.198 123.753 114.993 124.495C114.766 125.252 114.655 126.04 114.666 126.832C114.593 127.554 114.707 128.283 114.997 128.949C115.288 129.615 115.744 130.195 116.323 130.634C116.902 131.072 117.584 131.355 118.303 131.454C119.023 131.553 119.756 131.465 120.432 131.2C121.662 130.791 122.825 130.202 123.882 129.452C127.522 127.078 131.022 124.496 134.366 121.721" stroke="black" stroke-width="1.73316" stroke-linecap="round" stroke-linejoin="round"/>
<path d="M124.541 130.347L130.219 141.573C130.978 143.386 132.144 145.001 133.626 146.291C134.731 146.973 135.959 147.431 137.241 147.637C138.523 147.843 139.833 147.794 141.096 147.492C146.767 146.421 151.935 143.53 155.816 139.258C157.832 137.154 159.599 134.823 161.079 132.313C165.447 124.866 167.631 116.326 169.575 107.94C170.296 104.926 171.038 101.89 171.759 98.876" stroke="black" stroke-width="1.73316" stroke-linecap="round" stroke-linejoin="round"/>
<path d="M95.9067 109.927C92.6686 114.129 90.1788 118.857 88.5467 123.905C88.0007 126.089 87.7386 128.273 87.0834 130.304C87.0834 130.61 86.8868 130.915 86.7776 131.199C86.4071 132.399 85.7532 133.491 84.8713 134.385C83.9894 135.278 82.9053 135.946 81.7108 136.332C80.313 136.659 78.8279 136.332 77.3428 136.703C76.2505 136.995 75.236 137.524 74.3715 138.252C73.507 138.981 72.8138 139.891 72.3414 140.918C71.389 142.995 70.7558 145.204 70.4632 147.47C69.8436 147.133 69.1379 146.988 68.4357 147.053C67.7334 147.118 67.0662 147.389 66.5187 147.834C65.9712 148.279 65.5681 148.876 65.3605 149.55C65.1529 150.224 65.1502 150.944 65.3526 151.62C63.4327 151.816 61.5872 152.467 59.9692 153.52C58.3512 154.572 57.0073 155.994 56.0488 157.669" stroke="black" stroke-width="1.73316" stroke-linecap="round" stroke-linejoin="round"/>
<path d="M63.3241 162.102C61.2254 160.307 58.6412 159.174 55.8985 158.848C55.0995 158.772 54.2951 158.772 53.4961 158.848" stroke="black" stroke-width="1.73316" stroke-linecap="round" stroke-linejoin="round"/>
<path d="M92.3711 130.937C98.1708 147.698 109.601 161.93 124.716 171.21" stroke="black" stroke-width="1.73316" stroke-linecap="round" stroke-linejoin="round"/>
<path d="M84.8164 143.015C88.041 148.516 92.2627 153.367 97.2652 157.32C102.268 161.272 107.505 164.919 112.946 168.24" stroke="black" stroke-width="1.73316" stroke-linecap="round" stroke-linejoin="round"/>
<path d="M74.5254 149.348C80.7645 152.172 86.4974 156.001 91.495 160.683C96.1735 165.152 99.2446 171.04 100.231 177.434C100.231 177.871 100.231 178.286 100.231 178.723" stroke="black" stroke-width="1.73316" stroke-linecap="round" stroke-linejoin="round"/>
<path d="M90.009 176.626C87.7162 166.986 81.9952 158.51 73.913 152.777C73.367 152.384 72.5371 152.013 72.0566 152.515C71.5761 153.017 72.0566 153.804 72.3842 154.35C77.784 162.139 83.6706 169.579 90.009 176.626Z" stroke="black" stroke-width="1.73316" stroke-linecap="round" stroke-linejoin="round"/>
<path d="M68.1074 159.984C76.4684 166.922 82.4671 176.286 85.2736 186.782" stroke="black" stroke-width="1.73316" stroke-linecap="round" stroke-linejoin="round"/>
<path d="M72.2773 203.163C74.4613 202.311 76.0993 199.799 78.5236 198.795C79.5484 198.324 80.5279 197.762 81.4501 197.113L83.8743 195.54C84.7047 195.099 85.4454 194.506 86.0583 193.793C86.34 193.438 86.5211 193.013 86.5826 192.563C86.644 192.114 86.5837 191.656 86.4078 191.238C87.4522 191.617 88.5774 191.718 89.6727 191.53C90.7679 191.343 91.7954 190.873 92.654 190.168C93.4527 189.668 94.0782 188.935 94.4455 188.067C94.8128 187.2 94.9041 186.241 94.707 185.319" stroke="black" stroke-width="1.73316" stroke-linecap="round" stroke-linejoin="round"/>
<path d="M70.2461 203.38C70.9253 203.482 71.6194 203.399 72.2554 203.14" stroke="black" stroke-width="1.73316" stroke-linecap="round" stroke-linejoin="round"/>
<path d="M262.654 166.732C262.692 169.732 263.3 172.696 264.445 175.468" stroke="black" stroke-width="1.73316" stroke-linecap="round" stroke-linejoin="round"/>
<path d="M91.4297 184.576C92.4602 184.82 93.5155 184.945 94.5746 184.947C96.7645 184.915 98.9114 184.335 100.819 183.259C102.727 182.183 104.334 180.646 105.495 178.789" stroke="black" stroke-width="1.73316" stroke-linecap="round" stroke-linejoin="round"/>
<path d="M103.857 177.26C104.469 177.653 105.08 178.046 105.714 178.396C114.021 183.568 123.162 187.262 132.73 189.316" stroke="black" stroke-width="1.73316" stroke-linecap="round" stroke-linejoin="round"/>
<path d="M110.297 173.591L131.46 188.617" stroke="black" stroke-width="1.73316" stroke-linecap="round" stroke-linejoin="round"/>
<path d="M126.242 178.701C128.601 182.064 130.945 185.442 133.275 188.834C135.044 191.346 136.791 193.879 138.538 196.413" stroke="black" stroke-width="1.73316" stroke-linecap="round" stroke-linejoin="round"/>
<path d="M124.648 161.141C126.417 163.915 128.318 166.579 130.327 169.178C139.131 180.399 150.205 189.635 162.825 196.282" stroke="black" stroke-width="1.73316" stroke-linecap="round" stroke-linejoin="round"/>
<path d="M138.691 147.863C139.419 154.502 140.424 161.098 141.705 167.65C141.611 164.527 141.971 161.408 142.775 158.39C143.612 155.352 145.541 152.731 148.192 151.03C150.039 149.997 152.166 149.573 154.268 149.82C156.37 150.068 158.34 150.972 159.898 152.406C161.714 154.538 163.188 156.94 164.266 159.525C165.387 162.144 167.488 164.221 170.119 165.313" stroke="black" stroke-width="1.73316" stroke-linecap="round" stroke-linejoin="round"/>
<path d="M156.314 139.826C156.416 140.946 156.755 142.032 157.309 143.011C157.862 143.99 158.618 144.84 159.525 145.505C161.334 146.823 163.036 148.284 164.614 149.872C167.737 153.563 168.064 159.351 171.952 162.234" stroke="black" stroke-width="1.73316" stroke-linecap="round" stroke-linejoin="round"/>
<path d="M172.087 183.375C170.165 177.937 173.681 172.105 173.441 166.34C173.352 164.913 173.11 163.5 172.72 162.125C171.996 159.845 171.434 157.517 171.039 155.158C170.762 150.29 171.973 145.452 174.511 141.289C174.795 140.765 175.101 140.241 175.407 139.717C177.591 136.07 180.037 132.619 181.959 128.797C185.122 122.742 186.898 116.06 187.159 109.234C187.42 102.408 186.158 95.61 183.466 89.332" stroke="black" stroke-width="1.73316" stroke-linecap="round" stroke-linejoin="round"/>
<path d="M180.098 141.224C182.387 137.443 185.674 134.368 189.598 132.335C191.558 131.329 193.729 130.804 195.932 130.804C198.134 130.804 200.306 131.329 202.265 132.335C204.897 134.093 207.129 136.385 208.817 139.062L212.377 143.976C210.503 123.324 202.648 103.666 189.773 87.4101C189.249 86.7331 188.703 86.0561 188.157 85.4009" stroke="black" stroke-width="1.73316" stroke-linecap="round" stroke-linejoin="round"/>
<path d="M189.949 87.2134C205.814 85.2742 221.814 84.6752 237.779 85.4227C242.147 85.6192 246.515 85.9467 250.883 86.5582C257.261 87.3496 263.471 89.1637 269.272 91.9309C274.557 94.5736 279.733 98.9853 280.672 105.494C281.294 105.353 281.944 105.401 282.538 105.63C283.133 105.86 283.646 106.262 284.011 106.785C284.377 107.307 284.578 107.926 284.591 108.564C284.603 109.201 284.425 109.828 284.079 110.364C285.087 109.845 286.246 109.701 287.35 109.957C288.454 110.213 289.431 110.852 290.107 111.762C291.057 113.597 291.466 115.665 291.287 117.724C291.305 118.251 291.356 118.776 291.439 119.296C291.497 120.065 291.722 120.811 292.099 121.483C292.477 122.155 292.997 122.735 293.623 123.184" stroke="black" stroke-width="1.73316" stroke-linecap="round" stroke-linejoin="round"/>
<path d="M291.68 119.252C294.208 119.006 296.759 119.168 299.236 119.732C300.477 120.015 301.632 120.588 302.608 121.404C303.584 122.221 304.352 123.257 304.849 124.428C305.286 125.651 305.33 126.983 305.723 128.228C305.864 128.862 306.181 129.444 306.636 129.907C307.092 130.371 307.668 130.697 308.3 130.849C309.064 130.849 309.851 130.609 310.637 130.652C311.351 130.761 312.012 131.095 312.523 131.606C313.034 132.116 313.368 132.777 313.476 133.491C313.675 134.959 313.54 136.452 313.083 137.859C314.753 138.051 316.315 138.781 317.533 139.939C318.75 141.098 319.557 142.622 319.831 144.28C319.957 145.003 319.957 145.742 319.831 146.464" stroke="black" stroke-width="1.73316" stroke-linecap="round" stroke-linejoin="round"/>
<path d="M323.305 149.108C320.83 147.379 317.812 146.603 314.81 146.924C311.828 147.245 308.896 147.919 306.074 148.933L290.065 154.022C284.911 155.638 279.473 157.473 276.109 161.688" stroke="black" stroke-width="1.73316" stroke-linecap="round" stroke-linejoin="round"/>
<path d="M279.472 113.16C270.292 125.422 262.983 138.98 257.785 153.389" stroke="black" stroke-width="1.73316" stroke-linecap="round" stroke-linejoin="round"/>
<path d="M225.418 113.618C226.459 122.283 229.446 130.6 234.154 137.948C238.836 145.259 244.18 152.124 250.119 158.456" stroke="black" stroke-width="1.73316" stroke-linecap="round" stroke-linejoin="round"/>
<path d="M229.613 152.405C236.195 159.224 244.792 163.749 254.14 165.313" stroke="black" stroke-width="1.73316" stroke-linecap="round" stroke-linejoin="round"/>
<path d="M243.154 180.012C247.872 178.134 255.057 172.587 259.01 169.354" stroke="black" stroke-width="1.73316" stroke-linecap="round" stroke-linejoin="round"/>
<path d="M250.295 90.0742C245.653 100.21 243.364 111.265 243.598 122.411C243.833 133.556 246.585 144.505 251.649 154.437C252.304 155.747 253.025 157.057 253.833 158.324" stroke="black" stroke-width="1.73316" stroke-linecap="round" stroke-linejoin="round"/>
<path d="M256.061 161.666C256.541 163.479 257.218 165.532 258.965 166.209C259.74 166.385 260.543 166.406 261.326 166.272C262.109 166.137 262.858 165.848 263.53 165.422L266.653 163.981C267.204 163.693 267.792 163.48 268.4 163.348C268.581 163.325 268.765 163.325 268.946 163.348C269.351 163.328 269.752 163.433 270.095 163.648C270.439 163.862 270.708 164.177 270.868 164.549" stroke="black" stroke-width="1.73316" stroke-linecap="round" stroke-linejoin="round"/>
<path d="M268.418 163.457C268.084 164.091 267.89 164.79 267.848 165.505C267.807 166.221 267.919 166.937 268.177 167.606C268.981 169.178 270.158 170.528 271.606 171.537L274.773 165.553" stroke="black" stroke-width="1.73316" stroke-linecap="round" stroke-linejoin="round"/>
<path d="M262.654 159.198C264.955 156.664 267.313 154.182 269.73 151.751C278.185 143.177 287.25 135.228 296.856 127.967" stroke="black" stroke-width="1.73316" stroke-linecap="round" stroke-linejoin="round"/>
<path d="M273.006 154.939C282.268 145.464 294.898 140.032 308.146 139.826" stroke="black" stroke-width="1.73316" stroke-linecap="round" stroke-linejoin="round"/>
<path d="M282.658 164.221C285.688 163.561 288.76 163.115 291.853 162.889C296.042 162.551 300.257 162.875 304.345 163.85C307.917 164.644 311.273 166.207 314.181 168.428C317.088 170.649 319.478 173.476 321.184 176.714C323.505 182.428 324.016 188.717 322.647 194.732C322.516 195.496 322.363 196.26 322.21 196.916" stroke="black" stroke-width="1.73316" stroke-linecap="round" stroke-linejoin="round"/>
<path d="M314.92 197.2C315.779 198.678 317.097 199.836 318.673 200.498C320.25 201.16 321.999 201.29 323.656 200.869C326.947 199.98 329.999 198.368 332.588 196.151C335.813 194.085 338.609 191.415 340.822 188.289C344.36 182.458 343.443 174.901 341.062 168.502C339.011 163.435 336.542 158.548 333.68 153.891C332.372 151.331 330.686 148.982 328.679 146.924C327.666 145.903 326.44 145.117 325.088 144.623C323.737 144.128 322.294 143.937 320.86 144.063" stroke="black" stroke-width="1.73316" stroke-linecap="round" stroke-linejoin="round"/>
<path d="M228.932 189.272C232.296 189.213 235.64 188.743 238.891 187.874C246.677 185.615 254.114 182.293 260.993 178.002C264.553 175.818 268.112 173.787 271.716 171.734C278.004 167.971 284.79 165.111 291.874 163.238" stroke="black" stroke-width="1.73316" stroke-linecap="round" stroke-linejoin="round"/>
<path d="M232.099 191.303L228.867 189.381C225.416 187.255 222.053 185.027 218.777 182.698C217.401 181.737 216.069 180.754 214.736 179.749L212.967 178.374C211.744 177.456 210.543 176.495 209.342 175.513C208.141 174.53 206.59 173.328 205.214 172.149C202.934 170.257 200.451 168.624 197.81 167.279C195.926 166.179 193.722 165.756 191.564 166.078C189.39 166.81 187.472 168.152 186.039 169.943L173.983 182.523C173.612 182.916 173.219 183.309 172.869 183.724C172.131 184.496 171.5 185.363 170.991 186.301C170.747 186.797 170.557 187.316 170.423 187.852C170.111 188.878 170.201 189.984 170.676 190.946C171.15 191.908 171.974 192.652 172.978 193.028" stroke="black" stroke-width="1.73316" stroke-linecap="round" stroke-linejoin="round"/>
<path d="M188.662 175.141L174.597 190.953C173.985 191.629 173.437 192.361 172.959 193.137C172.711 193.518 172.513 193.929 172.37 194.36C172.074 195.516 172.086 196.728 172.404 197.878C172.722 199.027 173.335 200.073 174.182 200.912C175.916 202.589 177.935 203.942 180.145 204.909" stroke="black" stroke-width="1.73316" stroke-linecap="round" stroke-linejoin="round"/>
<path d="M197.094 182.523L183.99 197.658C182.743 198.878 181.8 200.375 181.238 202.026C181.02 202.886 181.02 203.787 181.238 204.647C181.667 206.55 182.748 208.242 184.295 209.43C186.614 211.056 189.224 212.22 191.983 212.859" stroke="black" stroke-width="1.73316" stroke-linecap="round" stroke-linejoin="round"/>
<path d="M206.136 191.084L194.19 206.634C192.814 208.447 191.351 210.696 192.159 212.815C192.88 214.091 194 215.096 195.348 215.676L201.9 219.389C203.439 220.469 205.261 221.076 207.141 221.136C209.005 220.835 210.722 219.939 212.033 218.581C213.759 217.013 215.318 215.271 216.685 213.383C217.193 212.742 217.551 211.996 217.733 211.199C217.828 210.804 217.811 210.39 217.684 210.004C217.557 209.618 217.324 209.276 217.013 209.015" stroke="black" stroke-width="1.73316" stroke-linecap="round" stroke-linejoin="round"/>
<path d="M222.035 197.571C220.216 199.407 217.962 200.752 215.483 201.48H215.352" stroke="black" stroke-width="1.73316" stroke-linecap="round" stroke-linejoin="round"/>
<path d="M218.952 196.02C217.882 197.876 216.768 199.689 215.523 201.48C212.464 206.07 209.015 210.389 205.215 214.387" stroke="black" stroke-width="1.73316" stroke-linecap="round" stroke-linejoin="round"/>
<path d="M209.607 210.784C209.854 210.694 210.123 210.685 210.375 210.76C210.627 210.835 210.848 210.989 211.005 211.199C211.311 211.635 211.289 212.269 209.607 210.784Z" stroke="black" stroke-width="1.73316" stroke-linecap="round" stroke-linejoin="round"/>
<path d="M212.273 182.959C210.868 183.221 209.555 183.844 208.464 184.767C207.373 185.69 206.54 186.881 206.049 188.223" stroke="black" stroke-width="1.73316" stroke-linecap="round" stroke-linejoin="round"/>
<path d="M203.378 175.054C202.182 175.319 201.061 175.849 200.097 176.605C199.133 177.361 198.351 178.323 197.809 179.422" stroke="black" stroke-width="1.73316" stroke-linecap="round" stroke-linejoin="round"/>
<path d="M196.086 169.441C195.108 169.444 194.151 169.722 193.325 170.243C192.498 170.765 191.835 171.509 191.412 172.39" stroke="black" stroke-width="1.73316" stroke-linecap="round" stroke-linejoin="round"/>
<path d="M212.684 206.503C214.103 207.442 215.545 208.381 217.052 209.277C219.071 210.563 221.198 211.673 223.407 212.596C227.189 214.273 231.377 214.82 235.463 214.169C238.64 213.575 241.499 211.863 243.522 209.342C244.08 208.634 244.542 207.856 244.898 207.027" stroke="black" stroke-width="1.73316" stroke-linecap="round" stroke-linejoin="round"/>
<path d="M322.497 194.688L314.831 196.872C307.973 198.663 301.05 200.301 294.127 201.786C277.493 205.339 260.671 207.95 243.742 209.605" stroke="black" stroke-width="1.73316" stroke-linecap="round" stroke-linejoin="round"/>
<path d="M213.299 177.959C220.799 177.989 228.227 176.503 235.139 173.591C235.619 175.12 236.1 176.648 236.558 178.177V178.417C231.064 180.879 225.107 182.137 219.086 182.108" stroke="black" stroke-width="0.86658" stroke-miterlimit="10"/>
<path d="M236.514 178.221C237.976 180.961 238.727 184.025 238.698 187.131" stroke="black" stroke-width="0.86658" stroke-miterlimit="10"/>
<path d="M69.1562 203.489H70.2264L72.2357 203.248C84.7485 201.617 96.9683 198.227 108.534 193.18C118.397 195.197 128.375 196.605 138.411 197.395C146.513 198.029 154.681 198.269 162.806 198.094C165.318 198.094 167.807 197.963 170.297 197.832" stroke="black" stroke-width="1.73316" stroke-linecap="round" stroke-linejoin="round"/>
<path d="M170.488 186.018C169.667 185.363 168.699 184.919 167.667 184.725C166.635 184.531 165.572 184.593 164.569 184.905C163.567 185.218 162.657 185.771 161.918 186.518C161.179 187.264 160.635 188.179 160.332 189.185C160.157 189.642 160.157 190.147 160.332 190.604C160.574 191.028 160.951 191.359 161.402 191.544L170.837 196.829L171.099 196.982" stroke="black" stroke-width="1.73316" stroke-linecap="round" stroke-linejoin="round"/>
<path d="M30.038 209.713H29.8415C20.3712 209.648 10.9319 208.623 1.66797 206.656C27.7057 218.242 54.6248 227.736 82.17 235.048C124.266 246.282 167.554 252.441 211.113 253.393C244.965 235.048 279.581 218.144 314.896 202.419C307.989 201.837 301.052 201.691 294.127 201.982" stroke="black" stroke-width="1.73316" stroke-linecap="round" stroke-linejoin="round"/>
<path d="M208.602 227.754L251.91 215.349" stroke="black" stroke-width="1.73316" stroke-linecap="round" stroke-linejoin="round"/>
<path d="M182.266 233.323L222.975 231.729" stroke="black" stroke-width="1.73316" stroke-linecap="round" stroke-linejoin="round"/>
<path d="M45.6307 163.043C41.2627 153.418 36.8365 143.787 32.352 134.148C30.9979 131.178 29.622 128.186 28.2461 125.216C28.328 124.368 28.626 123.555 29.1116 122.856C29.5972 122.156 30.2542 121.592 31.0198 121.219C31.9448 120.816 32.9638 120.678 33.9627 120.82C34.9617 120.963 35.9013 121.381 36.6763 122.027C37.9212 125.063 39.1442 128.099 40.3891 131.156C44.2184 140.577 48.0476 149.997 51.8769 159.417C52.5539 161.077 53.231 162.737 53.8862 164.397C54.5414 166.056 55.3932 168.066 56.0702 169.9" stroke="black" stroke-width="1.73316" stroke-linecap="round" stroke-linejoin="round"/>
<path d="M25.4746 160.75C26.1183 162.293 26.5091 163.93 26.6321 165.598C26.6776 166.424 26.5295 167.249 26.1997 168.007C25.8698 168.765 25.3672 169.436 24.732 169.966C23.0722 171.167 20.4951 171.058 19.3376 172.761C18.9765 173.576 18.8311 174.47 18.9152 175.358C18.9994 176.245 19.3103 177.096 19.8181 177.828C20.8555 179.293 21.3144 181.09 21.1066 182.873C20.4732 185.057 17.6777 186.193 17.2628 188.443C16.6949 191.522 20.8009 193.575 21.2158 196.654C21.4779 198.533 20.2985 200.455 20.8445 202.245C21.3244 203.464 22.1815 204.497 23.2906 205.194C25.4746 206.744 27.6586 208.251 29.8426 209.693C31.5024 210.807 33.1623 211.877 34.8658 212.903C36.8326 214.266 39.0656 215.196 41.4178 215.633C42.5931 215.824 43.7986 215.66 44.8802 215.162C45.9618 214.664 46.8702 213.855 47.4893 212.838" stroke="black" stroke-width="1.73316" stroke-linecap="round" stroke-linejoin="round"/>
<path d="M26.5645 200.213L42.311 209.364C43.9798 210.461 45.7962 211.314 47.7055 211.898C48.6648 212.162 49.6702 212.213 50.6512 212.047C51.6322 211.881 52.565 211.502 53.3839 210.937C54.9564 209.714 54.5851 204.996 53.3839 203.336" stroke="black" stroke-width="1.73316" stroke-linecap="round" stroke-linejoin="round"/>
<path d="M28.332 185.952C35.82 192.903 44.2991 198.703 53.4917 203.162C55.6756 204.276 58.1217 205.346 60.5023 206.263" stroke="black" stroke-width="1.73316" stroke-linecap="round" stroke-linejoin="round"/>
<path d="M35.2578 175.207L50.2618 185.275" stroke="black" stroke-width="1.73316" stroke-linecap="round" stroke-linejoin="round"/>
<path d="M42.5268 179.139C42.0245 178.178 41.5222 177.195 40.998 176.234" stroke="black" stroke-width="1.73316" stroke-linecap="round" stroke-linejoin="round"/>
<path d="M34.5843 172.062C41.2471 175.006 47.0279 179.635 51.3574 185.493C52.8777 191.543 55.8799 197.12 60.0934 201.72L60.5302 202.201C61.7564 202.437 63.0247 202.318 64.1855 201.857C65.3463 201.397 66.3513 200.614 67.0822 199.602C67.563 198.983 67.9664 198.309 68.2834 197.593C67.3443 195.714 66.4488 193.792 65.6189 191.871C63.2703 186.514 61.5339 180.909 60.4428 175.163C58.8485 173.678 57.2105 172.236 55.5507 170.795C52.3766 168.101 49.0861 165.575 45.679 163.217C41.674 160.416 37.5101 157.849 33.2084 155.529C31.5879 155.619 30.0218 156.145 28.6762 157.053C27.3305 157.96 26.2553 159.214 25.5645 160.683" stroke="black" stroke-width="1.73316" stroke-linecap="round" stroke-linejoin="round"/>
<path d="M64.786 172.586C63.2963 176.362 62.6335 180.413 62.8423 184.467" stroke="black" stroke-width="1.73316" stroke-linecap="round" stroke-linejoin="round"/>
<path d="M65.42 191.871C66.2936 193.072 69.3512 192.767 70.5742 191.871C71.7194 190.941 72.4941 189.632 72.7582 188.18C73.1513 186.739 73.326 185.254 73.8502 183.812C74.3744 182.371 75.4664 180.886 76.0342 179.291C76.5652 177.213 76.284 175.011 75.2479 173.132C74.2124 171.271 72.7718 169.666 71.0328 168.437C66.2337 164.832 60.2076 163.262 54.2598 164.069" stroke="black" stroke-width="1.73316" stroke-linecap="round" stroke-linejoin="round"/>
<path d="M64.6344 190.059C63.6298 190.692 60.8343 192.024 59.8297 192.658C59.6688 192.702 59.5222 192.787 59.4043 192.905C59.2864 193.023 59.2013 193.169 59.1572 193.33C59.1131 193.491 59.1117 193.661 59.153 193.822C59.1943 193.984 59.277 194.132 59.3928 194.252L60.463 196.065C60.7843 196.771 61.3189 197.359 61.9918 197.746C62.3483 197.879 62.7306 197.929 63.1092 197.891C63.4878 197.853 63.8526 197.729 64.1758 197.528C64.8437 197.108 65.4408 196.584 65.9448 195.977" stroke="black" stroke-width="0.86658" stroke-linecap="round" stroke-linejoin="round"/>
<path d="M71.0977 189.6L67.8654 188.879C67.4709 188.849 67.0863 188.741 66.7339 188.561C66.3816 188.381 66.0684 188.133 65.8125 187.831C65.5202 187.235 65.421 186.564 65.5285 185.909C65.4802 185.213 65.5755 184.515 65.8085 183.857C66.0414 183.2 66.407 182.597 66.8826 182.087L68.0401 181.628C69.7218 182.284 71.4035 183.026 73.0196 183.812" stroke="black" stroke-width="0.86658" stroke-linecap="round" stroke-linejoin="round"/>
<path d="M55.7641 174.53C53.7256 175.306 52.0196 176.765 50.9375 178.658" stroke="black" stroke-width="0.86658" stroke-linecap="round" stroke-linejoin="round"/>
<path d="M52.9688 179.99L56.1356 177.806" stroke="black" stroke-width="0.86658" stroke-linecap="round" stroke-linejoin="round"/>
<path d="M47.6176 188.026C46.3623 189.305 45.5904 190.98 45.4336 192.766" stroke="black" stroke-width="0.86658" stroke-linecap="round" stroke-linejoin="round"/>
<path d="M48.7971 191.718L47.4648 194.819" stroke="black" stroke-width="0.86658" stroke-linecap="round" stroke-linejoin="round"/>
<path d="M42.943 200.453C41.9881 201.578 41.4893 203.019 41.5453 204.493" stroke="black" stroke-width="0.86658" stroke-linecap="round" stroke-linejoin="round"/>
<path d="M39.2972 209.867C39.1444 210.849 38.9696 211.81 38.7949 212.771" stroke="black" stroke-width="0.86658" stroke-linecap="round" stroke-linejoin="round"/>
<path d="M128.492 130.151C129.493 130.282 130.506 130.282 131.506 130.151C134.542 129.802 137.496 128.938 140.242 127.596C143.822 125.7 147.676 124.373 151.664 123.665C152.541 123.482 153.45 123.529 154.303 123.8C155.157 124.072 155.925 124.559 156.535 125.215C156.903 125.817 157.099 126.508 157.099 127.214C157.099 127.919 156.903 128.611 156.535 129.212C155.756 130.407 154.638 131.343 153.324 131.898C147.056 134.847 139.39 132.335 132.795 134.082C132.206 134.229 131.63 134.419 131.069 134.65" stroke="black" stroke-width="0.86658" stroke-linecap="round" stroke-linejoin="round"/>
<path d="M131.529 130.828C132.02 131.808 132.393 132.841 132.643 133.907" stroke="black" stroke-width="0.86658" stroke-linecap="round" stroke-linejoin="round"/>
<path d="M180.952 73.9139C180.949 73.0912 180.634 72.3003 180.07 71.7006C179.507 71.1009 178.738 70.7369 177.917 70.6817C177.089 70.67 176.27 70.8631 175.535 71.2442C174.799 71.6252 174.17 72.1823 173.702 72.8656C172.778 74.2322 172.16 75.7815 171.889 77.4083C171.496 79.221 171.277 81.0774 170.797 82.912C170.797 82.912 170.797 82.912 170.906 82.912C172.479 82.3223 174.073 81.8199 175.689 81.3831C176.206 81.2084 176.766 81.2084 177.283 81.3831C177.672 81.6189 177.977 81.9702 178.157 82.3878C178.697 83.7938 178.697 85.3499 178.157 86.7558C177.642 88.1671 176.905 89.4868 175.973 90.6651C175.557 91.3538 174.98 91.931 174.291 92.3468C173.946 92.5383 173.549 92.616 173.157 92.5689C172.765 92.5219 172.398 92.3525 172.107 92.0848C171.408 91.3204 171.78 90.0754 172.304 89.1582C172.975 88.3468 173.297 87.302 173.199 86.2534C173.073 85.8431 172.802 85.4928 172.436 85.2678C172.07 85.0428 171.635 84.9583 171.212 85.0304" stroke="black" stroke-width="0.86658" stroke-linecap="round" stroke-linejoin="round"/>
<path d="M177.176 71.5767C178.893 73.4415 179.945 75.8219 180.168 78.347" stroke="black" stroke-width="0.86658" stroke-linecap="round" stroke-linejoin="round"/>
<path d="M95.1436 218.821C94.7243 217.883 94.5428 216.857 94.6151 215.832C94.6875 214.807 95.0115 213.816 95.5585 212.946C96.6654 211.231 98.1621 209.802 99.9265 208.775C103.839 206.353 108.27 204.893 112.855 204.513C117.441 204.134 122.052 204.846 126.309 206.591C128.605 207.468 130.652 208.892 132.271 210.741C133.076 211.668 133.648 212.774 133.941 213.966C134.233 215.159 134.238 216.404 133.953 217.598C133.038 219.998 131.241 221.959 128.93 223.08C123.65 226.134 117.492 227.312 111.458 226.422H111.13C109.361 226.138 107.439 225.81 105.583 225.351C104.345 225.038 103.128 224.652 101.936 224.194C99.8938 223.479 98.0467 222.297 96.5413 220.743C95.9938 220.166 95.524 219.52 95.1436 218.821Z" stroke="black" stroke-width="0.86658" stroke-linecap="round" stroke-linejoin="round"/>
<path d="M72.3646 218.45C71.5887 218.637 70.8502 218.954 70.1806 219.389C69.8223 219.626 69.5314 219.951 69.3363 220.334C69.1411 220.717 69.0482 221.144 69.0668 221.573C69.1978 223.102 71.0105 223.757 72.5393 223.997C80.0086 224.958 87.4123 222.119 94.3793 219.345" stroke="black" stroke-width="0.86658" stroke-linecap="round" stroke-linejoin="round"/>
<path d="M96.2342 221.114C91.1712 222.806 86.5362 225.579 82.6497 229.238C82.2973 229.481 82.0109 229.808 81.8165 230.189C81.622 230.571 81.5256 230.994 81.5359 231.422C81.6113 231.735 81.7715 232.02 81.9989 232.248C82.2262 232.475 82.5119 232.635 82.8245 232.711C83.4584 232.842 84.1125 232.842 84.7464 232.711C91.1747 231.898 97.1666 229.024 101.825 224.521" stroke="black" stroke-width="0.86658" stroke-linecap="round" stroke-linejoin="round"/>
<path d="M105.538 225.657C103.064 227.064 100.902 228.958 99.1828 231.226C98.7187 231.707 98.371 232.287 98.1666 232.923C97.9621 233.559 97.9063 234.234 98.0034 234.895C98.2956 235.617 98.8179 236.222 99.4892 236.617C100.16 237.012 100.943 237.174 101.716 237.079C102.934 236.959 104.111 236.576 105.166 235.958C106.222 235.34 107.131 234.5 107.831 233.497C109.229 231.483 110.325 229.276 111.086 226.945" stroke="black" stroke-width="0.86658" stroke-linecap="round" stroke-linejoin="round"/>
<path d="M109.798 214.321L109.602 214.54" stroke="black" stroke-width="0.86658" stroke-linecap="round" stroke-linejoin="round"/>
<path d="M109.598 214.541C109.314 214.89 108.484 215.808 105.863 218.45L109.598 214.541Z" stroke="black" stroke-width="0.86658" stroke-linecap="round" stroke-linejoin="round"/>
<path d="M116.154 221.354C117.104 220.185 118.24 219.182 119.518 218.384" stroke="black" stroke-width="0.86658" stroke-linecap="round" stroke-linejoin="round"/>
<path d="M112.635 209.931C114.507 209.006 116.582 208.566 118.669 208.65C120.756 208.734 122.789 209.34 124.581 210.412C125.287 210.935 125.795 211.681 126.025 212.529C126.255 213.377 126.193 214.278 125.848 215.086" stroke="black" stroke-width="0.86658" stroke-linecap="round" stroke-linejoin="round"/>
<path d="M31.7402 131.396C32.0554 130.746 32.5026 130.169 33.0533 129.701C33.604 129.234 34.2461 128.886 34.9386 128.681C35.6311 128.475 36.3589 128.416 37.0754 128.508C37.792 128.599 38.4816 128.839 39.1003 129.212" stroke="black" stroke-width="0.86658" stroke-linecap="round" stroke-linejoin="round"/>
<path d="M32.7656 133.951C32.8431 133.457 33.0524 132.994 33.3715 132.609C33.6905 132.225 34.1075 131.934 34.5783 131.767C36.3137 130.926 38.3023 130.77 40.1475 131.33" stroke="black" stroke-width="0.86658" stroke-linecap="round" stroke-linejoin="round"/>
<path d="M69.7461 214.933L70.7289 214.321" stroke="black" stroke-width="0.86658" stroke-linecap="round" stroke-linejoin="round"/>
<path d="M104.576 95.8838C107.436 96.0382 110.153 97.1806 112.264 99.1161C114.366 101.053 116.968 102.362 119.777 102.894" stroke="black" stroke-width="0.86658" stroke-linecap="round" stroke-linejoin="round"/>
<path d="M118.864 94.8789C118.67 95.3113 118.586 95.7851 118.621 96.2578C118.655 96.7305 118.806 97.1872 119.061 97.587C119.57 98.72 120.374 99.6963 121.388 100.414C122.401 101.132 123.589 101.566 124.827 101.671" stroke="black" stroke-width="0.86658" stroke-linecap="round" stroke-linejoin="round"/>
<path d="M123.754 98.0898C125.164 98.0985 126.561 97.8203 127.86 97.2721C129.159 96.724 130.333 95.9173 131.311 94.9011L131.747 94.4643C133.626 92.6297 135.176 90.4895 137.033 88.6549C140.406 85.3497 144.7 83.1419 149.35 82.3213" stroke="black" stroke-width="0.86658" stroke-linecap="round" stroke-linejoin="round"/>
<path d="M114.34 113.334C115.206 113.557 116.122 113.48 116.939 113.116C117.715 112.73 118.447 112.261 119.123 111.718" stroke="black" stroke-width="0.86658" stroke-linecap="round" stroke-linejoin="round"/>
<path d="M135.789 105.101C137.456 107.469 139.86 109.219 142.625 110.076C145.391 110.934 148.363 110.851 151.077 109.84" stroke="black" stroke-width="0.86658" stroke-linecap="round" stroke-linejoin="round"/>
<path d="M114.36 123.839H113.225C110.09 123.789 107.024 122.911 104.338 121.292C101.653 119.673 99.4444 117.372 97.9368 114.623C97.1357 113.138 96.6243 111.515 96.4298 109.84C96.2135 108.206 96.4476 106.545 97.1069 105.035C97.859 103.534 98.9945 102.259 100.398 101.338C101.802 100.418 103.424 99.8848 105.1 99.7932C108.48 99.6423 111.803 100.703 114.47 102.785C117.118 104.851 119.394 107.355 121.196 110.189L121.852 109.949C123.695 109.263 125.698 109.127 127.617 109.556C128.238 109.755 128.874 109.908 129.517 110.014C128.412 108.106 127.91 105.909 128.078 103.71C128.245 101.511 129.075 99.415 130.456 97.6967C131.143 96.8362 131.936 96.0657 132.815 95.4034C135.506 93.419 138.716 92.2583 142.053 92.0619C144.875 91.7213 147.731 92.32 150.178 93.7654C152.086 95.1543 153.593 97.0229 154.546 99.1818C156 101.863 156.751 104.868 156.73 107.918C156.682 110.968 155.425 113.875 153.236 115.999C151.952 117.1 150.469 117.945 148.868 118.488C145.089 119.842 140.547 120.672 137.074 118.488C133.817 116.436 131.206 113.506 129.539 110.036" stroke="black" stroke-width="1.73316" stroke-linecap="round" stroke-linejoin="round"/>
<path d="M114.801 106.521C115.39 107.525 115.958 108.53 116.526 109.534" stroke="black" stroke-width="1.73316" stroke-linecap="round" stroke-linejoin="round"/>
<path d="M138.518 101.104L140.702 104.73" stroke="black" stroke-width="1.73316" stroke-linecap="round" stroke-linejoin="round"/>
<path d="M59.9824 201.72C60.3974 202.856 61.0307 204.384 61.6422 205.848C62.2538 207.311 62.6469 208.206 63.04 209.058C66.0758 212.159 69.0897 215.239 72.3438 218.231C71.931 214.269 71.2006 210.348 70.1598 206.503L68.9368 203.62C68.3908 202.353 67.8448 201.087 67.3206 199.82" stroke="black" stroke-width="1.73316" stroke-linecap="round" stroke-linejoin="round"/>
</svg>
