<svg width="319" height="236" viewBox="0 0 319 236" fill="none" xmlns="http://www.w3.org/2000/svg">
<path d="M88.2656 81.84C90.6786 79.2651 93.2943 76.8524 95.8898 74.5005C95.7566 75.8203 95.9016 77.1533 96.3156 78.4135H95.0381C94.5154 82.6202 95.0736 86.8907 96.6603 90.8217L96.3764 90.9434C94.1411 90.7523 92.0649 89.709 90.5777 88.0295C89.0905 86.35 88.3063 84.1629 88.3873 81.9212L88.2656 81.84Z" fill="#1D1D1B"/>
<path d="M56.9183 152.66C54.6364 152.191 52.291 152.116 49.9836 152.438L49.6389 152.579C49.0306 151.039 48.402 149.498 47.7734 147.957L49.2739 147.348C50.0157 147.278 50.7626 147.278 51.5044 147.348C53.693 147.6 55.7841 148.395 57.5875 149.66L56.9183 152.66Z" fill="#A55DA1"/>
<path d="M243.302 154.1C243.409 157.115 244.026 160.09 245.127 162.9L245.35 163.285L241.923 165.312C235.531 169.261 228.627 172.31 221.403 174.375L221.241 173.686C221.267 170.802 220.57 167.958 219.213 165.414C218.787 163.994 218.341 162.575 217.895 161.156C211.478 163.859 204.581 165.239 197.618 165.211L197.314 165.596C196.178 164.745 195.063 163.852 193.948 162.94C192.833 162.028 191.393 160.913 190.115 159.818C187.998 158.062 185.693 156.545 183.242 155.297C181.492 154.276 179.446 153.882 177.442 154.181C175.424 154.861 173.643 156.107 172.312 157.77L161.14 169.408C160.795 169.773 160.43 170.138 160.106 170.523L159.396 170.199C157.612 165.15 160.876 159.737 160.653 154.384C160.57 153.06 160.346 151.748 159.984 150.471C159.311 148.355 158.79 146.194 158.423 144.003C158.166 139.484 159.29 134.994 161.647 131.129C161.91 130.642 162.194 130.156 162.478 129.669L166.838 131.068C168.963 127.559 172.015 124.703 175.658 122.816C177.477 121.882 179.493 121.395 181.538 121.395C183.584 121.395 185.599 121.882 187.419 122.816C189.862 124.448 191.935 126.576 193.502 129.061L196.807 133.623C195.061 114.448 187.761 96.1993 175.8 81.1108L175.962 80.9891C190.691 79.1889 205.546 78.6327 220.369 79.3266C224.424 79.5091 228.479 79.8132 232.535 80.3809L232.048 83.6451C227.739 93.0548 225.613 103.317 225.831 113.664C226.049 124.011 228.604 134.175 233.305 143.395L239.003 142.422C243.829 129.045 250.615 116.459 259.138 105.076L263.356 102.48C264.291 101.999 265.367 101.865 266.392 102.103C267.417 102.34 268.324 102.934 268.952 103.778C269.834 105.482 270.213 107.402 270.047 109.313C270.064 109.802 270.112 110.29 270.189 110.773C270.242 111.486 270.451 112.179 270.802 112.803C271.152 113.426 271.635 113.965 272.217 114.382L275.319 118.822C266.401 125.563 257.984 132.942 250.135 140.901C247.878 143.145 245.688 145.45 243.565 147.815L247.276 152.154L244.377 153.492L243.363 153.938L243.302 154.1Z" fill="#A55DA1"/>
<path d="M299.166 180.741C300.436 175.158 299.962 169.319 297.807 164.014C296.223 161.009 294.005 158.384 291.305 156.322C288.606 154.26 285.49 152.81 282.173 152.072C278.378 151.167 274.464 150.866 270.575 151.18V151.504C263.998 153.243 257.697 155.898 251.859 159.391L251.758 159.209C250.414 158.272 249.321 157.018 248.575 155.559C248.335 154.939 248.23 154.274 248.269 153.609C248.307 152.945 248.488 152.296 248.798 151.707V151.504C248.233 151.627 247.688 151.825 247.175 152.092L243.465 147.754C245.601 145.402 247.791 143.097 250.035 140.84L253.076 143.8C261.675 135.004 273.401 129.961 285.702 129.77L290.284 127.884C291.834 128.065 293.282 128.744 294.412 129.819C295.542 130.894 296.292 132.307 296.55 133.845L297.483 133.723C298.813 133.607 300.154 133.784 301.408 134.243C302.663 134.702 303.801 135.431 304.742 136.379C306.605 138.29 308.171 140.471 309.385 142.847C312.042 147.17 314.334 151.707 316.239 156.411C318.449 162.352 319.301 169.367 316.016 174.78C313.961 177.682 311.365 180.16 308.371 182.079C305.967 184.137 303.134 185.633 300.078 186.458C298.54 186.85 296.915 186.729 295.452 186.114C293.988 185.499 292.765 184.425 291.967 183.052L291.866 182.667L298.983 180.639L299.166 180.741Z" fill="#A55DA1"/>
<path d="M64.7049 191.67C65.6712 195.239 66.3493 198.88 66.7326 202.557C63.7113 199.78 60.9131 196.921 58.0946 194.042L57.9121 193.616L58.5407 193.332C59.8711 192.227 61.4888 191.524 63.2044 191.305L64.2993 190.838L64.7049 191.67Z" fill="#D1D0D1"/>
<path d="M285.844 121.437C286.554 121.437 287.284 121.214 288.014 121.255C288.677 121.355 289.291 121.665 289.765 122.139C290.239 122.614 290.549 123.227 290.65 123.89C290.834 125.252 290.71 126.638 290.285 127.945L285.702 129.831C273.399 130.027 261.672 135.078 253.077 143.881L250.035 140.921C257.884 132.962 266.301 125.582 275.219 118.842L272.117 114.402C271.535 113.985 271.052 113.446 270.702 112.823C270.351 112.199 270.142 111.506 270.089 110.793H270.373C272.72 110.564 275.089 110.715 277.389 111.239C278.54 111.501 279.613 112.033 280.519 112.791C281.425 113.549 282.138 114.511 282.6 115.598C283.005 116.733 283.046 117.97 283.411 119.126C283.565 119.697 283.874 120.215 284.303 120.623C284.732 121.031 285.266 121.312 285.844 121.437Z" fill="#A55DA1"/>
<path d="M63.569 188.994C63.0621 187.818 62.5551 186.642 62.0685 185.466L61.7035 185.263C62.1499 184.689 62.5244 184.063 62.8187 183.398C62.4943 182.729 62.1496 182.06 61.8454 181.37C61.3182 180.296 60.8316 179.201 60.3652 178.106C61.2371 179.181 64.0151 178.897 65.1303 178.106C65.6993 177.725 66.1659 177.209 66.4889 176.606C66.8481 175.973 67.108 175.289 67.2594 174.578C67.6244 173.24 67.7866 171.861 68.2732 170.523C68.7599 169.185 69.7737 167.806 70.3009 166.326C70.7939 164.397 70.5329 162.352 69.5709 160.609L69.206 159.96L72.8558 159.453C75.5776 163.674 77.6296 168.29 78.9389 173.139L79.8919 177.194C80.0552 177.582 80.1112 178.007 80.0542 178.424C79.9971 178.841 79.829 179.236 79.5675 179.566C78.9984 180.228 78.3107 180.778 77.5398 181.188L75.2891 182.648C74.4329 183.25 73.5234 183.772 72.5719 184.209C70.3212 185.162 68.8004 187.473 66.7727 188.264L64.9073 188.487H63.9137L63.569 188.994Z" fill="#A55DA1"/>
<path d="M62.0674 185.466C62.5541 186.642 63.061 187.818 63.5679 188.994L64.3384 190.798L63.2435 191.265C61.5279 191.484 59.9102 192.187 58.5798 193.292L57.9512 193.576C57.6268 192.846 57.2212 191.954 56.836 191.021C56.2682 189.663 55.6802 188.244 55.2949 187.189L55.7005 187.635C56.8389 187.855 58.0164 187.744 59.0941 187.317C60.1718 186.889 61.105 186.163 61.7835 185.223L62.0674 185.466Z" fill="#D1D0D1"/>
<path d="M66.814 143.252C71.8274 150.484 77.2927 157.391 83.1775 163.933C81.0488 154.984 75.7372 147.114 68.2334 141.793C67.7265 141.428 66.956 141.083 66.5099 141.549C66.0638 142.016 66.449 142.746 66.814 143.252ZM69.1053 160.182C68.1608 158.737 66.9578 157.48 65.5568 156.472C63.0066 154.558 60.0517 153.254 56.9189 152.66L57.5069 149.74C55.7035 148.475 53.6124 147.681 51.4238 147.429L51.5658 146.334C52.4519 144.756 53.7049 143.414 55.219 142.423C56.7331 141.431 58.4637 140.819 60.2646 140.637C60.0766 140.01 60.0791 139.341 60.2719 138.715C60.4646 138.089 60.8389 137.535 61.3472 137.122C61.8555 136.71 62.4749 136.457 63.1269 136.397C63.779 136.337 64.4341 136.472 65.0094 136.785L68.72 138.609C74.5126 141.231 79.8352 144.785 84.4752 149.132C88.8189 153.28 91.6702 158.747 92.586 164.683L95.9722 164.521C96.54 164.886 97.1077 165.251 97.6958 165.575L97.4727 165.94C96.3953 167.664 94.9028 169.091 93.1317 170.09C91.3606 171.089 89.3674 171.627 87.3343 171.657V171.962C87.5173 172.817 87.4326 173.707 87.0916 174.513C86.7505 175.318 86.1698 175.999 85.4282 176.463C84.6311 177.117 83.6771 177.553 82.6603 177.727C81.6434 177.902 80.5987 177.808 79.629 177.456L78.676 173.401C77.3668 168.553 75.3148 163.936 72.5929 159.716L69.1053 160.182Z" fill="#A55DA1"/>
<path d="M120.586 157.02C128.761 167.436 139.042 176.01 150.758 182.181V183.762C143.215 183.924 135.632 183.762 128.109 183.113V182.302C126.487 179.95 124.865 177.599 123.222 175.267L122.715 175.612L121.479 175.348V175.064L101.83 161.115L104.284 156.067L100.553 153.694L105.379 151.667C108.44 154.367 111.73 156.796 115.213 158.925L120.586 157.02Z" fill="#A55DA1"/>
<path d="M155.057 74.0351H155.361C155.531 75.2182 155.438 76.4241 155.087 77.5668C154.736 78.7094 154.138 79.7605 153.333 80.6448C152.739 78.8996 151.768 77.3065 150.489 75.9786C149.21 74.6507 147.654 73.6203 145.932 72.9605C143.855 72.3299 141.743 71.8221 139.606 71.4399C137.995 71.1156 136.482 70.4215 135.186 69.4124C134.24 68.4975 133.501 67.391 133.019 66.1671C132.536 64.9432 132.321 63.6301 132.387 62.3162C132.524 59.6871 133.136 57.1044 134.192 54.6928H131.84C128.798 56.0107 125.007 54.4698 121.539 54.6928C119.574 54.8781 117.695 55.5923 116.102 56.7597C114.51 57.927 113.264 59.5039 112.496 61.3228C111.771 63.1603 111.465 65.136 111.598 67.1067C111.731 69.0775 112.301 70.9939 113.266 72.7172C115.253 76.1557 118.37 78.7996 122.087 80.1986C119.593 81.0564 116.947 81.3805 114.32 81.15C111.694 80.9195 109.144 80.1395 106.839 78.8606C103.919 77.2183 101.283 74.3393 101.465 70.9939C100.11 75.6837 100.418 80.6976 102.337 85.1863C100.933 84.6148 99.6731 83.7407 98.6461 82.6262C97.6192 81.5117 96.8508 80.1844 96.3959 78.7389C95.982 77.4787 95.8369 76.1457 95.9701 74.8259C93.3746 77.1778 90.7589 79.5905 88.3459 82.1654C84.4342 86.0423 81.441 90.7464 79.5863 95.932C79.3848 89.3889 81.376 82.9663 85.2436 77.6846C82.8835 80.0115 80.0072 81.7482 76.8489 82.7533C75.271 83.2394 73.6094 83.3932 71.9691 83.2047C70.3287 83.0163 68.7453 82.4898 67.3188 81.6585C65.8826 80.6527 64.667 79.3642 63.7465 77.8721C62.826 76.3799 62.22 74.7155 61.9657 72.9808C61.4857 69.5044 61.5541 65.9742 62.1684 62.519C62.1919 63.7883 62.6241 65.016 63.4009 66.0201C64.1778 67.0242 65.2578 67.751 66.4806 68.0925C67.7033 68.434 69.0037 68.3721 70.1885 67.9159C71.3733 67.4597 72.3793 66.6336 73.0571 65.5603C74.7401 62.9448 74.1318 59.4778 73.929 56.4366C73.585 51.7005 74.3848 46.9511 76.2609 42.5888H76.0581C74.8333 43.3901 73.4114 43.8386 71.9485 43.8851C70.4856 43.9316 69.0381 43.5742 67.7649 42.8524C66.5092 42.1006 65.436 41.0796 64.6225 39.863C63.809 38.6464 63.2756 37.2645 63.0606 35.817C62.6844 32.8288 63.3045 29.8001 64.8247 27.2001C64.8122 28.1004 65.0551 28.9859 65.5253 29.7538C65.9954 30.5217 66.6735 31.1406 67.481 31.539C69.1123 32.3007 70.9308 32.5685 72.7124 32.3094C79.1605 31.6404 84.615 27.4638 89.7248 23.4899C94.8346 19.5161 100.35 15.38 106.798 14.8528C104.596 15.1324 102.359 14.9131 100.253 14.2112C98.1469 13.5093 96.2258 12.3427 94.6318 10.7979C98.5047 12.582 103.026 11.5683 107.122 10.4126C111.218 9.25696 115.598 7.99986 119.654 9.338C121.581 6.98448 123.989 5.07036 126.717 3.72405C129.445 2.37774 132.429 1.63045 135.47 1.53223C132.544 3.48613 130.086 6.06139 128.271 9.07441C133.868 6.25621 140.6 7.04694 146.52 8.83113C150.621 9.85621 154.461 11.7279 157.794 14.3257C159.452 15.615 160.813 17.2452 161.785 19.1062C162.758 20.9671 163.319 23.0152 163.431 25.1119C164.418 23.2492 165.9 21.6953 167.714 20.6219C169.528 19.5486 171.604 18.9974 173.712 19.0294C170.848 20.3442 168.511 22.5875 167.081 25.3958C168.908 25.8041 170.531 26.8454 171.664 28.3355C172.795 29.8053 174.166 31.0735 175.719 32.0864C176.556 32.5271 177.481 32.7763 178.426 32.8162C179.371 32.8561 180.313 32.6856 181.184 32.317C182.055 31.9484 182.834 31.3909 183.463 30.6849C184.092 29.9788 184.557 29.1417 184.824 28.2342C184.957 29.446 184.796 30.672 184.355 31.8085C183.914 32.945 183.205 33.9584 182.289 34.7627C180.486 36.0658 178.403 36.927 176.206 37.2768C178.943 39.3043 179.247 43.3593 178.74 46.806C178.234 50.2527 177.179 53.7197 178.071 57.0651C178.964 60.4104 181.437 62.7826 182.127 65.9658C182.399 67.7306 182.23 69.5352 181.636 71.219C181.042 72.9028 180.04 74.4135 178.72 75.6165C177.299 76.9749 175.67 78.0974 173.894 78.9416C172.46 79.6415 170.984 80.251 169.474 80.7664H169.149C169.993 77.1381 170.395 73.421 170.346 69.6963C170.526 67.2164 169.806 64.7547 168.318 62.7623C167.281 61.7764 165.981 61.1105 164.575 60.8443C163.169 60.5782 161.716 60.7233 160.39 61.262C159.143 61.7302 158.005 62.4484 157.045 63.3724C156.086 64.2964 155.326 65.4067 154.811 66.6351C154.297 67.8636 154.039 69.1843 154.053 70.5161C154.067 71.8479 154.354 73.1627 154.895 74.3798L155.057 74.0351Z" fill="#1D1D1B"/>
<path d="M81.8193 114.99C83.3346 110.304 85.6462 105.915 88.6526 102.014H89.0582C89.2387 103.57 89.7136 105.076 90.4573 106.454C91.857 109.007 93.9076 111.143 96.4007 112.646C98.8938 114.148 101.74 114.964 104.651 115.01L106.294 115.558C106.082 116.261 105.98 116.993 105.989 117.727C105.922 118.398 106.028 119.075 106.297 119.693C106.567 120.311 106.99 120.85 107.528 121.257C108.065 121.664 108.699 121.926 109.367 122.018C110.035 122.11 110.715 122.029 111.343 121.782C112.485 121.403 113.564 120.856 114.546 120.16L115.155 121.052L120.427 131.474C121.131 133.157 122.213 134.655 123.59 135.853C124.615 136.487 125.756 136.911 126.946 137.103C128.136 137.294 129.352 137.248 130.524 136.968C135.79 135.974 140.588 133.291 144.191 129.324L144.657 129.77C144.752 130.81 145.067 131.818 145.581 132.727C146.094 133.636 146.796 134.425 147.638 135.042C149.318 136.266 150.898 137.622 152.363 139.097C155.262 142.523 155.566 147.896 159.176 150.572H159.885C160.248 151.849 160.472 153.161 160.555 154.485C160.778 159.838 157.513 165.251 159.297 170.3L160.007 170.624C159.322 171.341 158.735 172.145 158.263 173.017L157.817 172.753C157.056 172.145 156.156 171.733 155.198 171.553C154.24 171.372 153.253 171.43 152.322 171.72C151.392 172.01 150.547 172.524 149.861 173.217C149.175 173.909 148.669 174.76 148.388 175.693C148.226 176.117 148.226 176.587 148.388 177.011C148.613 177.404 148.963 177.711 149.382 177.883L158.142 182.789L157.675 183.62C155.364 183.742 153.052 183.823 150.72 183.864V182.282C139.009 176.078 128.741 167.469 120.589 157.02L115.378 158.905C111.895 156.776 108.605 154.347 105.543 151.647C96.2902 143.528 89.3033 133.147 85.2664 121.519L80.3594 120.931C81.0691 119.005 81.3124 116.957 81.8193 114.99Z" fill="#A55DA1"/>
<path d="M121.598 175.348C113.169 173.417 105.113 170.115 97.7528 165.576C97.1648 165.252 96.597 164.887 96.0293 164.522L92.643 164.684C91.7272 158.748 88.8759 153.281 84.5323 149.133C79.8923 144.786 74.5697 141.232 68.7771 138.61L65.0664 136.786C65.3381 134.682 65.926 132.631 66.8102 130.703C67.2488 129.75 67.8924 128.905 68.695 128.228C69.4976 127.552 70.4395 127.061 71.4536 126.79C72.7716 126.527 74.1505 126.79 75.509 126.445C76.6181 126.087 77.6246 125.467 78.4434 124.638C79.2622 123.809 79.8693 122.794 80.2133 121.681C80.3146 121.417 80.416 121.133 80.4971 120.85L85.4042 121.438C89.4411 133.066 96.428 143.447 105.681 151.566L100.855 153.594L104.586 155.966L102.133 161.014L121.781 174.963L121.598 175.348Z" fill="#A55DA1"/>
<path d="M263.235 99.0939C263.553 99.5901 263.722 100.167 263.722 100.756C263.722 101.346 263.553 101.923 263.235 102.419L259.018 105.014C250.494 116.398 243.708 128.984 238.883 142.36L233.185 143.334C228.483 134.114 225.928 123.95 225.71 113.603C225.493 103.255 227.618 92.9932 231.928 83.5836L232.414 80.3193C238.337 81.0539 244.102 82.7381 249.488 85.307C254.395 87.7603 259.2 91.8558 260.072 97.8977C260.659 97.7671 261.271 97.8107 261.833 98.0232C262.395 98.2357 262.882 98.6079 263.235 99.0939Z" fill="#A55DA1"/>
<path d="M221.241 173.686L221.403 174.376C218.385 175.183 215.28 175.618 212.157 175.673V175.774C208.953 173.801 205.831 171.733 202.789 169.57L203.154 169.064C208.744 169.09 214.274 167.922 219.376 165.637V165.414C220.677 167.973 221.318 170.816 221.241 173.686Z" fill="#A55DA1"/>
<path d="M219.195 165.413V165.636C214.094 167.921 208.563 169.089 202.974 169.062L202.609 169.569C201.331 168.677 200.094 167.765 198.857 166.832L197.215 165.555L197.519 165.17C204.482 165.198 211.379 163.818 217.796 161.115C218.323 162.575 218.769 163.994 219.195 165.413Z" fill="#A55DA1"/>
<path d="M196.686 133.643L193.381 129.081C191.814 126.596 189.741 124.469 187.298 122.837C185.479 121.903 183.463 121.416 181.418 121.416C179.373 121.416 177.357 121.903 175.537 122.837C171.894 124.724 168.842 127.579 166.717 131.089L162.357 129.69C164.385 126.304 166.656 123.1 168.441 119.552C171.377 113.932 173.026 107.728 173.268 101.392C173.51 95.0548 172.339 88.7436 169.84 82.9156L168.542 82.5708C168.765 81.8409 168.947 81.1111 169.11 80.3609H169.434C170.944 79.8455 172.421 79.236 173.854 78.5361L174.118 79.043C174.625 79.6512 175.132 80.2799 175.619 80.9084C187.642 96.0519 194.966 114.385 196.686 133.643Z" fill="#A55DA1"/>
<path d="M68.2337 141.793C75.7374 147.115 81.0491 154.984 83.1778 163.933C77.293 157.391 71.8276 150.484 66.8143 143.253C66.4493 142.746 66.0843 141.996 66.5101 141.55C66.9359 141.103 67.7267 141.428 68.2337 141.793Z" fill="#A55DA1"/>
<path d="M49.6183 152.58C50.328 154.283 51.0174 155.986 51.646 157.689L50.9161 158.561C47.9691 156.06 44.9141 153.715 41.7509 151.525L41.8928 151.323C37.8374 142.388 33.728 133.447 29.5645 124.499L29.9497 124.316C30.0216 123.858 30.216 123.428 30.5122 123.071C30.8084 122.714 31.1956 122.444 31.6327 122.289C33.2439 121.508 35.0901 121.363 36.8033 121.883L37.0264 121.782C40.5816 130.527 44.1368 139.273 47.692 148.018C48.4017 149.498 49.0303 151.039 49.6183 152.58Z" fill="#D1D0D1"/>
<path d="M33.6609 113.246C34.8167 116.064 35.9522 118.883 37.108 121.721L36.8849 121.822C35.1717 121.302 33.3255 121.447 31.7143 122.228C31.2772 122.383 30.89 122.653 30.5938 123.01C30.2976 123.367 30.1032 123.797 30.0313 124.255L29.6461 124.438C28.3889 121.68 27.1114 118.903 25.834 116.145C25.91 115.358 26.1867 114.604 26.6376 113.954C27.0884 113.305 27.6984 112.782 28.4092 112.435C29.2734 112.069 30.2227 111.951 31.1504 112.094C32.0781 112.237 32.9474 112.636 33.6609 113.246Z" fill="#D1D0D1"/>
<path d="M58.582 193.332C59.9124 192.227 61.5301 191.524 63.2457 191.305" stroke="#1D1D1B" stroke-linecap="round" stroke-linejoin="round"/>
<path d="M149.564 124.235C150.856 125.414 152.336 126.367 153.944 127.053" stroke="#1D1D1B" stroke-linecap="round" stroke-linejoin="round"/>
<path d="M75.9778 42.4262C74.7529 43.2275 73.3311 43.676 71.8681 43.7225C70.4052 43.769 68.9578 43.4117 67.6845 42.6898C66.4288 41.938 65.3556 40.917 64.5421 39.7004C63.7287 38.4838 63.1952 37.102 62.9803 35.6545C62.604 32.6664 63.2241 29.6376 64.7443 27.0377C64.7319 27.9379 64.9748 28.8233 65.4449 29.5912C65.915 30.3591 66.5931 30.978 67.4006 31.3764C69.0319 32.1381 70.8504 32.4059 72.6321 32.1468C79.0801 31.4778 84.5346 27.3012 89.6444 23.3273C94.7542 19.3535 100.27 15.2174 106.718 14.6902C104.515 14.9698 102.278 14.7505 100.173 14.0486C98.0666 13.3467 96.1455 12.1801 94.5514 10.6353C98.4243 12.4194 102.946 11.4057 107.042 10.25C111.138 9.09436 115.518 7.83738 119.573 9.17552C121.5 6.82201 123.909 4.90788 126.637 3.56158C129.364 2.21527 132.349 1.46785 135.389 1.36963C132.464 3.32353 130.006 5.89892 128.191 8.91194C133.787 6.09373 140.519 6.88446 146.44 8.66865C150.54 9.69374 154.381 11.5653 157.714 14.1631C159.371 15.4524 160.732 17.0828 161.705 18.9437C162.677 20.8046 163.239 22.8526 163.351 24.9493C164.338 23.0866 165.82 21.5327 167.634 20.4594C169.448 19.386 171.524 18.8348 173.631 18.8668C170.767 20.1816 168.431 22.4249 167.001 25.2332C168.828 25.6415 170.451 26.6829 171.583 28.1731C172.714 29.6428 174.085 30.9109 175.639 31.9239C176.476 32.3645 177.4 32.6137 178.345 32.6536C179.29 32.6935 180.233 32.523 181.104 32.1544C181.975 31.7858 182.753 31.2283 183.383 30.5223C184.012 29.8162 184.477 28.9792 184.743 28.0717C184.877 29.2835 184.716 30.5096 184.275 31.646C183.834 32.7825 183.125 33.7958 182.209 34.6001C180.406 35.9032 178.322 36.7644 176.125 37.1142C178.863 39.1417 179.167 43.1967 178.66 46.6434C178.153 50.0901 177.099 53.5571 177.991 56.9025C178.883 60.2478 181.357 62.62 182.046 65.8032C182.319 67.568 182.15 69.3726 181.556 71.0564C180.961 72.7402 179.96 74.251 178.64 75.454C177.219 76.8124 175.589 77.9348 173.814 78.779C172.38 79.4789 170.904 80.0884 169.394 80.6038" stroke="#1D1D1B" stroke-linecap="round" stroke-linejoin="round"/>
<path d="M155.057 74.0348C154.516 72.8178 154.23 71.503 154.215 70.1712C154.201 68.8394 154.459 67.5187 154.974 66.2902C155.488 65.0617 156.249 63.9513 157.208 63.0273C158.167 62.1034 159.305 61.3852 160.552 60.917C161.878 60.3783 163.331 60.2333 164.738 60.4994C166.144 60.7655 167.443 61.4315 168.481 62.4174C169.968 64.4098 170.688 66.8714 170.508 69.3514C170.557 73.0761 170.156 76.793 169.312 80.4214C169.15 81.1715 168.967 81.9015 168.744 82.6314C168.521 83.3613 168.237 84.3345 167.953 85.186C167.399 87.1694 166.344 88.9773 164.892 90.4371C164.148 91.1479 163.201 91.6083 162.183 91.7537C161.165 91.8991 160.127 91.7224 159.214 91.2482" stroke="#1D1D1B" stroke-linecap="round" stroke-linejoin="round"/>
<path d="M76.4832 41.981C76.4832 42.1634 76.321 42.3256 76.2602 42.5081C74.445 46.7667 73.6533 51.3913 73.9486 56.0111C74.1514 59.1132 74.7597 62.5194 73.0767 65.1348C72.3988 66.2082 71.3928 67.0343 70.208 67.4905C69.0232 67.9467 67.7229 68.0087 66.5001 67.6672C65.2773 67.3257 64.1973 66.5989 63.4205 65.5948C62.6436 64.5907 62.2114 63.3628 62.188 62.0936C61.5736 65.5488 61.5052 69.0791 61.9852 72.5555C62.2396 74.2901 62.8456 75.9544 63.7661 77.4466C64.6866 78.9388 65.9021 80.2273 67.3383 81.233C68.7648 82.0643 70.3483 82.5908 71.9886 82.7793C73.6289 82.9677 75.2905 82.814 76.8685 82.3278C80.0268 81.3227 82.9031 79.586 85.2631 77.2591C81.3955 82.5408 79.4043 88.9635 79.6058 95.5065C81.4605 90.3209 84.4537 85.6169 88.3655 81.7399C90.7784 79.165 93.3942 76.7523 95.9896 74.4004C95.8564 75.7202 96.0015 77.0532 96.4154 78.3135C96.8704 79.759 97.6387 81.0863 98.6657 82.2008C99.6926 83.3152 100.953 84.1894 102.357 84.7609C100.438 80.2721 100.13 75.2583 101.485 70.5685C101.302 73.9138 103.938 76.7928 106.858 78.4351C109.164 79.714 111.713 80.494 114.34 80.7246C116.967 80.9551 119.613 80.631 122.106 79.7733C118.389 78.3742 115.272 75.7304 113.286 72.2919C112.321 70.5686 111.751 68.6521 111.617 66.6814C111.484 64.7107 111.791 62.735 112.515 60.8974C113.283 59.0786 114.53 57.5017 116.122 56.3344C117.714 55.167 119.593 54.4527 121.559 54.2675C125.026 54.0648 128.818 55.6057 131.859 54.2675C132.172 54.1262 132.47 53.9566 132.752 53.7606" stroke="#1D1D1B" stroke-linecap="round" stroke-linejoin="round"/>
<path d="M134.111 54.5913C133.055 57.0029 132.444 59.5856 132.307 62.2147C132.24 63.5286 132.455 64.8415 132.938 66.0655C133.421 67.2894 134.159 68.396 135.105 69.3109C136.401 70.32 137.915 71.014 139.525 71.3384C141.662 71.7206 143.775 72.2283 145.852 72.859C147.573 73.5187 149.129 74.5491 150.408 75.8771C151.687 77.205 152.658 78.798 153.253 80.5431C154.057 79.6589 154.656 78.6079 155.006 77.4652C155.357 76.3226 155.451 75.1166 155.281 73.9336C155.281 73.9336 155.281 73.9336 155.281 73.812" stroke="#1D1D1B" stroke-linecap="round" stroke-linejoin="round"/>
<path d="M88.3885 81.9424C88.3075 84.1841 89.0918 86.3713 90.5789 88.0508C92.0661 89.7303 94.1423 90.7736 96.3776 90.9647" stroke="#1D1D1B" stroke-linecap="round" stroke-linejoin="round"/>
<path d="M95.038 78.4336C94.5152 82.6403 95.0735 86.9108 96.6602 90.8418C96.6602 91.1256 96.8832 91.4096 97.0049 91.6731" stroke="#1D1D1B" stroke-linecap="round" stroke-linejoin="round"/>
<path d="M99.2754 95.1001C100.426 101.11 102.898 106.789 106.514 111.725" stroke="#1D1D1B" stroke-linecap="round" stroke-linejoin="round"/>
<path d="M112.884 102.643C110.819 105.604 109.066 108.77 107.652 112.091C107.449 112.558 107.247 113.024 107.064 113.51C106.794 114.172 106.564 114.849 106.375 115.538C106.163 116.241 106.061 116.973 106.071 117.707C106.003 118.378 106.109 119.055 106.378 119.673C106.648 120.291 107.072 120.83 107.609 121.237C108.147 121.644 108.78 121.906 109.448 121.998C110.116 122.09 110.796 122.009 111.424 121.762C112.566 121.383 113.646 120.836 114.627 120.14C115.479 119.593 116.331 119.005 117.162 118.437C119.636 116.714 122.049 114.889 124.36 112.963" stroke="#1D1D1B" stroke-linecap="round" stroke-linejoin="round"/>
<path d="M115.234 120.971L120.506 131.392C121.21 133.075 122.293 134.574 123.67 135.772C124.695 136.405 125.835 136.83 127.026 137.021C128.216 137.213 129.432 137.167 130.604 136.887C135.87 135.893 140.668 133.209 144.271 129.243C146.154 127.299 147.795 125.134 149.158 122.796C149.665 121.944 150.131 121.052 150.577 120.16C153.49 113.762 155.674 107.056 157.086 100.169C157.755 97.3711 158.445 94.5528 159.114 91.7549" stroke="#1D1D1B" stroke-linecap="round" stroke-linejoin="round"/>
<path d="M88.6538 102.014C85.6475 105.915 83.3358 110.304 81.8205 114.99C81.3136 117.018 81.0703 119.045 80.462 120.931C80.462 121.214 80.2795 121.498 80.1781 121.762C79.8341 122.875 79.227 123.89 78.4082 124.719C77.5894 125.548 76.5829 126.168 75.4738 126.527C74.1761 126.831 72.7973 126.526 71.4184 126.871C70.4043 127.142 69.4624 127.633 68.6598 128.309C67.8572 128.986 67.2136 129.831 66.775 130.784C65.8908 132.712 65.3029 134.763 65.0312 136.867C64.456 136.554 63.8008 136.419 63.1488 136.479C62.4968 136.539 61.8773 136.792 61.369 137.204C60.8607 137.617 60.4864 138.172 60.2937 138.797C60.101 139.423 60.0984 140.092 60.2864 140.719C58.5039 140.901 56.7904 141.506 55.2882 142.483C53.786 143.459 52.5383 144.78 51.6484 146.335" stroke="#1D1D1B" stroke-linecap="round" stroke-linejoin="round"/>
<path d="M58.3991 150.45L57.5069 149.741C55.7035 148.476 53.6124 147.681 51.4238 147.43C50.682 147.359 49.9352 147.359 49.1934 147.43" stroke="#1D1D1B" stroke-linecap="round" stroke-linejoin="round"/>
<path d="M85.3691 121.518C89.4061 133.147 96.3929 143.528 105.646 151.646C108.707 154.347 111.998 156.775 115.48 158.905" stroke="#1D1D1B" stroke-linecap="round" stroke-linejoin="round"/>
<path d="M78.3516 132.73C81.3454 137.837 85.2649 142.34 89.9094 146.01C93.3741 148.77 96.9889 151.335 100.737 153.695L104.468 156.067" stroke="#1D1D1B" stroke-linecap="round" stroke-linejoin="round"/>
<path d="M68.8008 138.61C74.5934 141.231 79.916 144.786 84.556 149.133C88.8996 153.281 91.7509 158.748 92.6667 164.683C92.6667 165.089 92.6667 165.474 92.6667 165.88" stroke="#1D1D1B" stroke-linecap="round" stroke-linejoin="round"/>
<path d="M83.1765 163.933C81.0478 154.984 75.7362 147.115 68.2324 141.793C67.7255 141.428 66.9549 141.083 66.5088 141.55C66.0628 142.016 66.5088 142.746 66.813 143.253C71.8263 150.484 77.2917 157.391 83.1765 163.933Z" stroke="#1D1D1B" stroke-linecap="round" stroke-linejoin="round"/>
<path d="M62.8379 148.484C70.6159 154.911 76.1886 163.609 78.7756 173.361" stroke="#1D1D1B" stroke-linecap="round" stroke-linejoin="round"/>
<path d="M66.7109 188.568C68.7386 187.757 70.2594 185.446 72.5101 184.513C73.4616 184.077 74.3711 183.554 75.2272 182.952L77.478 181.492C78.2489 181.082 78.9366 180.532 79.5057 179.87C79.7672 179.54 79.9353 179.146 79.9924 178.728C80.0494 178.311 79.9934 177.886 79.8301 177.498C80.7998 177.85 81.8445 177.944 82.8613 177.769C83.8782 177.595 84.8321 177.159 85.6293 176.504C86.3709 176.041 86.9516 175.36 87.2926 174.555C87.6336 173.749 87.7184 172.859 87.5353 172.003" stroke="#1D1D1B" stroke-linecap="round" stroke-linejoin="round"/>
<path d="M64.8281 188.769C65.4587 188.864 66.1031 188.787 66.6936 188.546" stroke="#1D1D1B" stroke-linecap="round" stroke-linejoin="round"/>
<path d="M243.303 154.101C243.41 157.116 244.027 160.091 245.128 162.9" stroke="#1D1D1B" stroke-linecap="round" stroke-linejoin="round"/>
<path d="M84.4941 171.313C85.4509 171.54 86.4307 171.656 87.414 171.658C89.4472 171.628 91.4404 171.089 93.2115 170.09C94.9826 169.091 96.475 167.665 97.5525 165.94" stroke="#1D1D1B" stroke-linecap="round" stroke-linejoin="round"/>
<path d="M96.0312 164.521C96.599 164.886 97.1668 165.251 97.7548 165.576C105.115 170.115 113.171 173.416 121.6 175.348L122.837 175.612" stroke="#1D1D1B" stroke-linecap="round" stroke-linejoin="round"/>
<path d="M102.014 161.115L121.662 175.064" stroke="#1D1D1B" stroke-linecap="round" stroke-linejoin="round"/>
<path d="M116.814 165.859C119.004 168.982 121.181 172.118 123.344 175.267C124.986 177.599 126.608 179.95 128.23 182.302" stroke="#1D1D1B" stroke-linecap="round" stroke-linejoin="round"/>
<path d="M115.336 149.559C116.978 152.134 118.742 154.607 120.608 157.02C128.782 167.436 139.064 176.01 150.78 182.181" stroke="#1D1D1B" stroke-linecap="round" stroke-linejoin="round"/>
<path d="M128.373 137.231C129.049 143.395 129.982 149.518 131.171 155.6C131.084 152.701 131.418 149.806 132.165 147.003C132.941 144.184 134.732 141.751 137.194 140.171C138.909 139.212 140.883 138.819 142.835 139.048C144.786 139.278 146.616 140.118 148.062 141.448C149.748 143.428 151.116 145.658 152.117 148.058C153.158 150.489 155.109 152.417 157.552 153.431" stroke="#1D1D1B" stroke-linecap="round" stroke-linejoin="round"/>
<path d="M144.734 129.77C144.829 130.81 145.143 131.818 145.657 132.726C146.171 133.635 146.873 134.424 147.715 135.041C149.395 136.266 150.975 137.622 152.44 139.096C155.339 142.523 155.643 147.896 159.253 150.572" stroke="#1D1D1B" stroke-linecap="round" stroke-linejoin="round"/>
<path d="M159.376 170.198C157.592 165.15 160.857 159.736 160.634 154.384C160.551 153.059 160.327 151.747 159.964 150.471C159.292 148.354 158.77 146.193 158.403 144.003C158.146 139.484 159.271 134.993 161.627 131.128C161.891 130.642 162.175 130.155 162.459 129.669C164.486 126.283 166.757 123.079 168.542 119.531C171.478 113.911 173.128 107.707 173.37 101.37C173.612 95.0337 172.44 88.7226 169.941 82.8945" stroke="#1D1D1B" stroke-linecap="round" stroke-linejoin="round"/>
<path d="M166.818 131.068C168.943 127.559 171.996 124.703 175.639 122.816C177.458 121.882 179.474 121.395 181.519 121.395C183.564 121.395 185.58 121.882 187.399 122.816C189.843 124.448 191.915 126.576 193.483 129.061L196.788 133.623C195.048 114.451 187.755 96.2018 175.801 81.1109C175.314 80.4823 174.807 79.8539 174.301 79.2456" stroke="#1D1D1B" stroke-linecap="round" stroke-linejoin="round"/>
<path d="M175.963 80.928C190.692 79.1277 205.547 78.5717 220.369 79.2656C224.425 79.4481 228.48 79.7521 232.536 80.3198C238.458 81.0544 244.223 82.7386 249.609 85.3075C254.516 87.7607 259.321 91.8563 260.193 97.8982C260.771 97.7676 261.374 97.8118 261.926 98.0253C262.478 98.2387 262.954 98.6117 263.293 99.0967C263.633 99.5817 263.82 100.157 263.831 100.748C263.842 101.34 263.677 101.922 263.356 102.419C264.292 101.938 265.368 101.804 266.393 102.041C267.418 102.279 268.325 102.873 268.953 103.717C269.834 105.421 270.214 107.341 270.048 109.252C270.065 109.741 270.112 110.229 270.19 110.712C270.243 111.425 270.452 112.118 270.803 112.742C271.153 113.365 271.636 113.904 272.217 114.321" stroke="#1D1D1B" stroke-linecap="round" stroke-linejoin="round"/>
<path d="M270.414 110.671C272.761 110.443 275.13 110.593 277.43 111.117C278.582 111.38 279.654 111.912 280.56 112.669C281.466 113.427 282.179 114.389 282.641 115.476C283.047 116.612 283.087 117.848 283.452 119.004C283.583 119.593 283.877 120.133 284.3 120.563C284.723 120.993 285.258 121.296 285.845 121.437C286.554 121.437 287.284 121.214 288.014 121.255C288.678 121.355 289.291 121.665 289.765 122.14C290.24 122.614 290.55 123.227 290.65 123.89C290.835 125.252 290.71 126.638 290.285 127.945C291.835 128.126 293.283 128.805 294.413 129.88C295.543 130.955 296.294 132.368 296.551 133.906C296.667 134.577 296.667 135.263 296.551 135.934" stroke="#1D1D1B" stroke-linecap="round" stroke-linejoin="round"/>
<path d="M299.774 138.387C297.475 136.781 294.674 136.061 291.886 136.359C289.118 136.657 286.395 137.283 283.775 138.225L268.912 142.949C264.127 144.449 259.078 146.152 255.955 150.065" stroke="#1D1D1B" stroke-linecap="round" stroke-linejoin="round"/>
<path d="M259.078 105.015C250.555 116.398 243.769 128.984 238.943 142.361" stroke="#1D1D1B" stroke-linecap="round" stroke-linejoin="round"/>
<path d="M208.893 105.441C209.859 113.485 212.632 121.206 217.003 128.027C221.35 134.814 226.312 141.187 231.826 147.065" stroke="#1D1D1B" stroke-linecap="round" stroke-linejoin="round"/>
<path d="M212.787 141.448C218.897 147.779 226.88 151.979 235.558 153.431" stroke="#1D1D1B" stroke-linecap="round" stroke-linejoin="round"/>
<path d="M225.357 167.077C229.737 165.333 236.408 160.183 240.078 157.183" stroke="#1D1D1B" stroke-linecap="round" stroke-linejoin="round"/>
<path d="M231.99 83.5835C227.681 92.9931 225.555 103.255 225.773 113.603C225.991 123.95 228.546 134.114 233.247 143.334C233.856 144.55 234.525 145.766 235.275 146.942" stroke="#1D1D1B" stroke-linecap="round" stroke-linejoin="round"/>
<path d="M237.342 150.045C237.788 151.728 238.416 153.634 240.039 154.263C241.11 154.583 242.264 154.481 243.263 153.979L244.277 153.533L247.176 152.195C247.688 151.927 248.234 151.729 248.798 151.607C248.967 151.585 249.137 151.585 249.305 151.607C249.681 151.589 250.053 151.686 250.372 151.885C250.691 152.084 250.941 152.376 251.09 152.722" stroke="#1D1D1B" stroke-linecap="round" stroke-linejoin="round"/>
<path d="M248.818 151.708C248.508 152.297 248.328 152.945 248.289 153.61C248.251 154.274 248.355 154.939 248.595 155.56C249.341 157.019 250.434 158.272 251.778 159.209L254.718 153.654" stroke="#1D1D1B" stroke-linecap="round" stroke-linejoin="round"/>
<path d="M243.465 147.754C245.601 145.402 247.791 143.097 250.035 140.84C257.884 132.881 266.3 125.501 275.218 118.761" stroke="#1D1D1B" stroke-linecap="round" stroke-linejoin="round"/>
<path d="M253.078 143.8C261.677 135.004 273.404 129.961 285.704 129.77" stroke="#1D1D1B" stroke-linecap="round" stroke-linejoin="round"/>
<path d="M262.039 152.417C264.852 151.804 267.705 151.391 270.576 151.18C274.465 150.867 278.379 151.168 282.174 152.072C285.49 152.81 288.606 154.26 291.306 156.322C294.005 158.385 296.224 161.009 297.808 164.014C299.963 169.319 300.437 175.158 299.166 180.741C299.044 181.451 298.903 182.16 298.761 182.769" stroke="#1D1D1B" stroke-linecap="round" stroke-linejoin="round"/>
<path d="M291.986 183.033C292.784 184.405 294.007 185.48 295.471 186.095C296.935 186.709 298.559 186.83 300.097 186.439C303.153 185.614 305.986 184.117 308.39 182.059C311.384 180.141 313.98 177.663 316.035 174.76C319.32 169.347 318.468 162.332 316.258 156.391C314.354 151.688 312.061 147.151 309.404 142.828C308.19 140.451 306.624 138.271 304.761 136.36C303.82 135.412 302.682 134.682 301.427 134.223C300.173 133.764 298.832 133.587 297.502 133.704" stroke="#1D1D1B" stroke-linecap="round" stroke-linejoin="round"/>
<path d="M212.156 175.672C215.28 175.617 218.385 175.182 221.403 174.374C228.632 172.278 235.537 169.194 241.923 165.21L245.35 163.183C247.519 161.926 249.689 160.628 251.879 159.391C257.717 155.898 264.017 153.243 270.594 151.504" stroke="#1D1D1B" stroke-linecap="round" stroke-linejoin="round"/>
<path d="M215.1 177.557L212.099 175.773C208.895 173.8 205.772 171.732 202.731 169.569C201.453 168.677 200.217 167.765 198.98 166.832L197.337 165.555C196.202 164.703 195.087 163.811 193.971 162.899C192.856 161.986 191.416 160.871 190.139 159.776C188.022 158.02 185.716 156.504 183.265 155.255C181.515 154.234 179.47 153.841 177.466 154.14C175.447 154.82 173.666 156.065 172.336 157.729L161.143 169.407C160.798 169.772 160.433 170.137 160.109 170.522C159.424 171.238 158.837 172.043 158.365 172.915C158.139 173.374 157.962 173.857 157.838 174.354C157.548 175.306 157.632 176.333 158.072 177.226C158.513 178.119 159.278 178.81 160.21 179.159" stroke="#1D1D1B" stroke-linecap="round" stroke-linejoin="round"/>
<path d="M174.769 162.555L161.711 177.234C161.143 177.861 160.634 178.54 160.19 179.261C159.959 179.614 159.775 179.996 159.643 180.397C159.384 181.159 159.314 181.973 159.44 182.769C159.676 184.192 160.333 185.513 161.326 186.56C162.935 188.116 164.81 189.373 166.861 190.271" stroke="#1D1D1B" stroke-linecap="round" stroke-linejoin="round"/>
<path d="M182.596 169.407L170.429 183.458C169.272 184.591 168.397 185.98 167.875 187.513C167.672 188.311 167.672 189.147 167.875 189.946C168.273 191.712 169.277 193.283 170.713 194.386C172.866 195.896 175.289 196.976 177.851 197.569" stroke="#1D1D1B" stroke-linecap="round" stroke-linejoin="round"/>
<path d="M190.991 177.355L179.899 191.791C178.622 193.474 177.263 195.562 178.013 197.528C178.683 198.714 179.723 199.647 180.974 200.184L187.057 203.631C188.486 204.634 190.178 205.198 191.923 205.253C193.654 204.974 195.248 204.142 196.465 202.881C198.068 201.426 199.515 199.809 200.784 198.056C201.256 197.461 201.589 196.768 201.758 196.028C201.846 195.661 201.83 195.277 201.712 194.919C201.593 194.561 201.378 194.243 201.089 194.001" stroke="#1D1D1B" stroke-linecap="round" stroke-linejoin="round"/>
<path d="M205.752 183.377C204.063 185.081 201.97 186.33 199.669 187.006H199.547" stroke="#1D1D1B" stroke-linecap="round" stroke-linejoin="round"/>
<path d="M202.893 181.938C201.899 183.661 200.865 185.344 199.709 187.006C198.554 188.669 197.682 189.926 196.627 191.325C194.615 194.003 192.448 196.562 190.139 198.989" stroke="#1D1D1B" stroke-linecap="round" stroke-linejoin="round"/>
<path d="M194.213 195.643C194.442 195.559 194.692 195.552 194.925 195.621C195.159 195.691 195.364 195.833 195.511 196.028C195.794 196.434 195.774 197.022 194.213 195.643Z" stroke="#1D1D1B" stroke-linecap="round" stroke-linejoin="round"/>
<path d="M196.687 169.813C195.383 170.056 194.164 170.635 193.15 171.491C192.137 172.348 191.364 173.454 190.908 174.7" stroke="#1D1D1B" stroke-linecap="round" stroke-linejoin="round"/>
<path d="M188.432 162.473C187.322 162.719 186.281 163.212 185.386 163.913C184.491 164.615 183.765 165.509 183.262 166.528" stroke="#1D1D1B" stroke-linecap="round" stroke-linejoin="round"/>
<path d="M181.662 157.264C180.754 157.266 179.866 157.524 179.098 158.008C178.33 158.492 177.715 159.183 177.322 160.001" stroke="#1D1D1B" stroke-linecap="round" stroke-linejoin="round"/>
<path d="M197.072 191.669C198.39 192.541 199.729 193.412 201.128 194.244C203.003 195.438 204.977 196.469 207.028 197.326C210.54 198.883 214.427 199.39 218.221 198.785C221.171 198.234 223.825 196.644 225.703 194.305C226.221 193.647 226.651 192.925 226.981 192.156" stroke="#1D1D1B" stroke-linecap="round" stroke-linejoin="round"/>
<path d="M299.023 180.701L291.906 182.729C285.525 184.391 279.118 185.912 272.683 187.29C257.239 190.589 241.622 193.013 225.904 194.549" stroke="#1D1D1B" stroke-linecap="round" stroke-linejoin="round"/>
<path d="M197.639 165.17C204.602 165.198 211.499 163.818 217.916 161.115C218.362 162.534 218.808 163.953 219.234 165.372V165.595C214.132 167.88 208.602 169.049 203.012 169.022" stroke="#1D1D1B" stroke-width="0.5" stroke-miterlimit="10"/>
<path d="M219.195 165.414C220.553 167.958 221.25 170.803 221.223 173.686" stroke="#1D1D1B" stroke-width="0.5" stroke-miterlimit="10"/>
<path d="M63.8125 188.871H64.8061L66.6716 188.647C78.2888 187.133 89.6341 183.986 100.372 179.301C109.529 181.173 118.793 182.48 128.111 183.214C135.633 183.802 143.217 184.025 150.76 183.863C153.092 183.863 155.403 183.741 157.715 183.619" stroke="#1D1D1B" stroke-linecap="round" stroke-linejoin="round"/>
<path d="M157.896 172.652C157.134 172.044 156.235 171.631 155.277 171.451C154.319 171.271 153.332 171.329 152.401 171.619C151.471 171.909 150.625 172.423 149.94 173.116C149.254 173.808 148.748 174.658 148.467 175.592C148.305 176.016 148.305 176.485 148.467 176.91C148.692 177.303 149.042 177.61 149.461 177.781L158.221 182.688L158.464 182.83" stroke="#1D1D1B" stroke-linecap="round" stroke-linejoin="round"/>
<path d="M27.496 194.649H27.3135C18.521 194.588 9.75719 193.637 1.15625 191.811C25.3306 202.567 50.3232 211.38 75.897 218.168C114.98 228.597 155.171 234.315 195.612 235.199C227.041 218.168 259.18 202.475 291.968 187.878C285.555 187.337 279.114 187.202 272.685 187.472" stroke="#1D1D1B" stroke-linecap="round" stroke-linejoin="round"/>
<path d="M193.281 211.397L233.49 199.881" stroke="#1D1D1B" stroke-linecap="round" stroke-linejoin="round"/>
<path d="M168.828 216.567L206.624 215.087" stroke="#1D1D1B" stroke-linecap="round" stroke-linejoin="round"/>
<path d="M41.9744 151.322C37.919 142.388 33.8096 133.447 29.6461 124.499C28.3889 121.741 27.1114 118.964 25.834 116.206C25.91 115.419 26.1867 114.665 26.6376 114.015C27.0884 113.366 27.6984 112.843 28.4092 112.496C29.268 112.122 30.214 111.993 31.1415 112.126C32.069 112.258 32.9413 112.646 33.6609 113.246C34.8167 116.064 35.9522 118.883 37.108 121.721C40.6632 130.466 44.2184 139.212 47.7736 147.957C48.4022 149.498 49.0308 151.039 49.6391 152.58C50.2474 154.12 51.0382 155.986 51.6668 157.689" stroke="#1D1D1B" stroke-linecap="round" stroke-linejoin="round"/>
<path d="M23.2561 149.194C23.8537 150.627 24.2166 152.146 24.3308 153.695C24.373 154.461 24.2355 155.227 23.9293 155.931C23.623 156.635 23.1564 157.258 22.5667 157.75C21.0256 158.865 18.633 158.764 17.5583 160.345C17.2231 161.102 17.088 161.932 17.1662 162.755C17.2443 163.579 17.5329 164.369 18.0044 165.049C18.9676 166.409 19.3937 168.077 19.2007 169.732C18.6127 171.76 16.0172 172.814 15.632 174.902C15.1048 177.761 18.9168 179.667 19.3021 182.526C19.5454 184.269 18.4505 186.054 18.9574 187.716C19.4029 188.847 20.1987 189.806 21.2284 190.453C23.2561 191.893 25.2838 193.292 27.3115 194.63C28.8525 195.664 30.3936 196.657 31.9752 197.61C32.9282 198.178 33.8812 198.746 34.8748 199.212C35.8652 199.672 36.917 199.986 37.9974 200.145C39.0886 200.322 40.2079 200.17 41.2121 199.707C42.2162 199.245 43.0597 198.494 43.6344 197.549" stroke="#1D1D1B" stroke-linecap="round" stroke-linejoin="round"/>
<path d="M24.2715 185.831L36.4376 192.866L37.0662 193.231L38.952 194.326C40.4824 195.338 42.148 196.13 43.8996 196.678C44.7902 196.923 45.7237 196.97 46.6344 196.816C47.5452 196.662 48.4112 196.31 49.1715 195.785C50.6315 194.65 50.2868 190.271 49.1715 188.73" stroke="#1D1D1B" stroke-linecap="round" stroke-linejoin="round"/>
<path d="M25.9141 172.591C32.8601 179.052 40.7335 184.437 49.2731 188.568C51.3008 189.602 53.5718 190.595 55.782 191.447" stroke="#1D1D1B" stroke-linecap="round" stroke-linejoin="round"/>
<path d="M32.3418 162.616L46.272 171.963" stroke="#1D1D1B" stroke-linecap="round" stroke-linejoin="round"/>
<path d="M39.0932 166.265C38.6268 165.373 38.1605 164.461 37.6738 163.569" stroke="#1D1D1B" stroke-linecap="round" stroke-linejoin="round"/>
<path d="M60.3465 178.086C60.1032 177.518 59.8599 176.95 59.6369 176.362C57.8105 171.92 56.4513 167.299 55.5815 162.575C54.1013 161.197 52.5805 159.858 51.0394 158.52C48.0925 156.02 45.0375 153.675 41.8743 151.485C38.1558 148.885 34.29 146.502 30.2961 144.348C28.7916 144.432 27.3376 144.92 26.0882 145.763C24.8389 146.605 23.8406 147.77 23.1992 149.133" stroke="#1D1D1B" stroke-linecap="round" stroke-linejoin="round"/>
<path d="M31.7129 159.695C37.8988 162.429 43.2659 166.726 47.2856 172.164C48.697 177.781 51.4844 182.958 55.3963 187.229L55.8019 187.675C56.9404 187.894 58.1178 187.783 59.1955 187.356C60.2733 186.928 61.2064 186.202 61.885 185.262C62.3314 184.688 62.7059 184.062 63.0002 183.397C62.6758 182.728 62.3311 182.058 62.0269 181.369C61.4997 180.295 61.0131 179.2 60.5467 178.105" stroke="#1D1D1B" stroke-linecap="round" stroke-linejoin="round"/>
<path d="M59.7575 160.183C58.3744 163.688 57.759 167.449 57.9529 171.212" stroke="#1D1D1B" stroke-linecap="round" stroke-linejoin="round"/>
<path d="M60.3449 178.086C61.2168 179.16 63.9947 178.876 65.1099 178.086C65.679 177.705 66.1455 177.189 66.4685 176.585C66.8277 175.953 67.0876 175.269 67.239 174.558C67.604 173.22 67.7662 171.841 68.2529 170.503C68.7395 169.165 69.7534 167.786 70.2806 166.306C70.7735 164.377 70.5125 162.332 69.5506 160.589L69.1856 159.94C68.2411 158.495 67.0381 157.237 65.6371 156.229C63.0869 154.316 60.1319 153.012 56.9992 152.418C54.7172 151.948 52.3718 151.873 50.0645 152.195" stroke="#1D1D1B" stroke-linecap="round" stroke-linejoin="round"/>
<path d="M59.617 176.403C58.6842 176.991 56.0888 178.228 55.156 178.816C55.0067 178.857 54.8706 178.936 54.7612 179.045C54.6517 179.155 54.5726 179.291 54.5317 179.44C54.4908 179.589 54.4895 179.747 54.5278 179.897C54.5662 180.047 54.6429 180.184 54.7505 180.296L55.7441 181.978C56.0423 182.634 56.5387 183.18 57.1634 183.54C57.4945 183.663 57.8493 183.709 58.2008 183.674C58.5523 183.638 58.8911 183.523 59.1911 183.337C59.8112 182.947 60.3656 182.461 60.8336 181.897" stroke="#1D1D1B" stroke-width="0.5" stroke-linecap="round" stroke-linejoin="round"/>
<path d="M65.618 175.977L62.617 175.308C62.2508 175.28 61.8937 175.179 61.5665 175.012C61.2394 174.845 60.9486 174.615 60.711 174.335C60.4397 173.782 60.3475 173.158 60.4474 172.55C60.4026 171.904 60.491 171.256 60.7073 170.646C60.9236 170.035 61.263 169.476 61.7046 169.002L62.7792 168.577C64.3406 169.185 65.9019 169.874 67.4024 170.604" stroke="#1D1D1B" stroke-width="0.5" stroke-linecap="round" stroke-linejoin="round"/>
<path d="M51.3816 161.987C49.489 162.707 47.9051 164.061 46.9004 165.819" stroke="#1D1D1B" stroke-width="0.5" stroke-linecap="round" stroke-linejoin="round"/>
<path d="M48.7871 167.056L51.7273 165.029" stroke="#1D1D1B" stroke-width="0.5" stroke-linecap="round" stroke-linejoin="round"/>
<path d="M43.8187 174.517C42.6533 175.704 41.9366 177.26 41.791 178.917" stroke="#1D1D1B" stroke-width="0.5" stroke-linecap="round" stroke-linejoin="round"/>
<path d="M44.9127 177.943L43.6758 180.822" stroke="#1D1D1B" stroke-width="0.5" stroke-linecap="round" stroke-linejoin="round"/>
<path d="M39.4794 186.053C38.5928 187.097 38.1298 188.435 38.1817 189.804" stroke="#1D1D1B" stroke-width="0.5" stroke-linecap="round" stroke-linejoin="round"/>
<path d="M36.0914 194.792C35.9494 195.704 35.7872 196.596 35.625 197.488" stroke="#1D1D1B" stroke-width="0.5" stroke-linecap="round" stroke-linejoin="round"/>
<path d="M118.906 120.788C119.835 120.91 120.776 120.91 121.704 120.788C124.523 120.464 127.266 119.662 129.815 118.416C133.139 116.656 136.717 115.425 140.42 114.767C141.234 114.597 142.078 114.64 142.87 114.893C143.662 115.145 144.376 115.597 144.942 116.206C145.284 116.765 145.466 117.407 145.466 118.061C145.466 118.716 145.284 119.358 144.942 119.917C144.219 121.026 143.181 121.894 141.961 122.41C136.142 125.148 129.024 122.816 122.901 124.438C122.355 124.574 121.819 124.75 121.299 124.965" stroke="#1D1D1B" stroke-width="0.5" stroke-linecap="round" stroke-linejoin="round"/>
<path d="M121.723 121.417C122.178 122.326 122.525 123.285 122.757 124.275" stroke="#1D1D1B" stroke-width="0.5" stroke-linecap="round" stroke-linejoin="round"/>
<path d="M167.61 68.5807C167.607 67.8169 167.314 67.0827 166.791 66.526C166.269 65.9692 165.554 65.6313 164.792 65.5801C164.023 65.5692 163.263 65.7485 162.581 66.1023C161.898 66.456 161.313 66.9732 160.878 67.6075C160.021 68.8762 159.447 70.3144 159.195 71.8246C158.831 73.5074 158.628 75.2308 158.182 76.9339C158.182 76.9339 158.182 76.9339 158.283 76.9339H158.466C159.865 76.4068 161.284 75.9608 162.724 75.5755C163.204 75.4133 163.724 75.4133 164.204 75.5755C164.565 75.7944 164.848 76.1204 165.015 76.5081C165.516 77.8133 165.516 79.2579 165.015 80.5631C164.537 81.8732 163.852 83.0985 162.987 84.1924C162.601 84.8317 162.065 85.3674 161.426 85.7534C161.105 85.9312 160.737 86.0034 160.373 85.9597C160.009 85.916 159.668 85.7587 159.398 85.5102C158.749 84.8005 159.094 83.6449 159.581 82.7934C160.204 82.0402 160.503 81.0703 160.412 80.0968C160.32 79.807 160.151 79.5479 159.922 79.3478C159.693 79.1476 159.414 79.0139 159.114 78.9614C158.934 78.9205 158.747 78.9205 158.567 78.9614" stroke="#1D1D1B" stroke-width="0.5" stroke-linecap="round" stroke-linejoin="round"/>
<path d="M164.104 66.4111C165.698 68.1424 166.674 70.3521 166.881 72.6963" stroke="#1D1D1B" stroke-width="0.5" stroke-linecap="round" stroke-linejoin="round"/>
<path d="M87.9406 203.105C87.5513 202.234 87.3828 201.281 87.45 200.33C87.5172 199.378 87.818 198.458 88.3258 197.651C89.3535 196.058 90.7431 194.732 92.3812 193.778C96.0138 191.53 100.127 190.175 104.385 189.822C108.642 189.47 112.923 190.131 116.876 191.751C119.007 192.565 120.907 193.887 122.411 195.603C123.158 196.464 123.69 197.491 123.961 198.598C124.233 199.705 124.237 200.861 123.973 201.969C123.123 204.197 121.455 206.018 119.309 207.058C114.407 209.894 108.69 210.987 103.087 210.161H102.783C101.141 209.897 99.3565 209.593 97.6329 209.167C96.4839 208.876 95.3532 208.517 94.2467 208.092C92.3508 207.429 90.6359 206.332 89.2383 204.889C88.73 204.353 88.2937 203.753 87.9406 203.105Z" stroke="#1D1D1B" stroke-width="0.5" stroke-linecap="round" stroke-linejoin="round"/>
<path d="M66.7925 202.76C66.0721 202.934 65.3865 203.228 64.7648 203.632C64.4321 203.852 64.1621 204.154 63.9809 204.509C63.7997 204.864 63.7135 205.261 63.7307 205.659C63.8523 207.078 65.5353 207.687 66.9547 207.91C73.8894 208.802 80.7633 206.166 87.2316 203.591" stroke="#1D1D1B" stroke-width="0.5" stroke-linecap="round" stroke-linejoin="round"/>
<path d="M88.9537 205.233C84.2531 206.804 79.9498 209.378 76.3415 212.775C76.0143 213.001 75.7484 213.304 75.5678 213.658C75.3873 214.012 75.2978 214.405 75.3073 214.803C75.3774 215.093 75.5261 215.358 75.7372 215.569C75.9483 215.78 76.2135 215.929 76.5037 215.999C77.0922 216.121 77.6995 216.121 78.288 215.999C84.2563 215.244 89.8194 212.577 94.1446 208.396" stroke="#1D1D1B" stroke-width="0.5" stroke-linecap="round" stroke-linejoin="round"/>
<path d="M97.5933 209.451C95.2966 210.757 93.2891 212.516 91.6927 214.621C91.2618 215.067 90.9391 215.606 90.7492 216.197C90.5594 216.787 90.5076 217.413 90.5978 218.027C90.8691 218.697 91.3539 219.259 91.9772 219.626C92.6004 219.992 93.3272 220.143 94.0449 220.055C95.1752 219.943 96.2679 219.588 97.248 219.014C98.228 218.44 99.0722 217.661 99.7224 216.729C101.02 214.859 102.037 212.81 102.744 210.647" stroke="#1D1D1B" stroke-width="0.5" stroke-linecap="round" stroke-linejoin="round"/>
<path d="M101.547 198.928L101.365 199.13" stroke="#1D1D1B" stroke-width="0.5" stroke-linecap="round" stroke-linejoin="round"/>
<path d="M101.366 199.13C101.102 199.455 100.332 200.306 97.8984 202.76L101.366 199.13Z" stroke="#1D1D1B" stroke-width="0.5" stroke-linecap="round" stroke-linejoin="round"/>
<path d="M107.449 205.456C108.331 204.371 109.386 203.439 110.572 202.699" stroke="#1D1D1B" stroke-width="0.5" stroke-linecap="round" stroke-linejoin="round"/>
<path d="M104.184 194.853C105.922 193.994 107.849 193.585 109.786 193.663C111.724 193.741 113.611 194.303 115.275 195.299C115.93 195.785 116.402 196.477 116.616 197.264C116.829 198.051 116.771 198.887 116.451 199.637" stroke="#1D1D1B" stroke-width="0.5" stroke-linecap="round" stroke-linejoin="round"/>
<path d="M29.0762 121.944C29.3688 121.341 29.784 120.805 30.2953 120.371C30.8065 119.937 31.4027 119.614 32.0456 119.424C32.6886 119.233 33.3643 119.178 34.0295 119.263C34.6948 119.348 35.3351 119.571 35.9095 119.917" stroke="#1D1D1B" stroke-width="0.5" stroke-linecap="round" stroke-linejoin="round"/>
<path d="M30.0312 124.316C30.1032 123.858 30.2975 123.428 30.5937 123.071C30.89 122.714 31.2771 122.444 31.7142 122.289C33.3254 121.508 35.1717 121.363 36.8849 121.883" stroke="#1D1D1B" stroke-width="0.5" stroke-linecap="round" stroke-linejoin="round"/>
<path d="M64.3594 199.495L65.2718 198.928" stroke="#1D1D1B" stroke-width="0.5" stroke-linecap="round" stroke-linejoin="round"/>
<path d="M96.7012 88.9771C99.3561 89.1204 101.879 90.181 103.839 91.9777C105.79 93.7759 108.207 94.9911 110.814 95.4853" stroke="#1D1D1B" stroke-width="0.5" stroke-linecap="round" stroke-linejoin="round"/>
<path d="M109.963 88.0449C109.783 88.4463 109.706 88.8861 109.737 89.325C109.769 89.7638 109.91 90.1878 110.146 90.559C110.619 91.6108 111.365 92.517 112.306 93.1837C113.247 93.8503 114.35 94.2532 115.499 94.3505" stroke="#1D1D1B" stroke-width="0.5" stroke-linecap="round" stroke-linejoin="round"/>
<path d="M114.504 91.0247C115.813 91.0329 117.11 90.7746 118.316 90.2657C119.522 89.7568 120.612 89.0079 121.52 88.0646L121.925 87.659C123.669 85.956 125.109 83.9691 126.832 82.266C129.964 79.1977 133.951 77.148 138.268 76.3862" stroke="#1D1D1B" stroke-width="0.5" stroke-linecap="round" stroke-linejoin="round"/>
<path d="M105.766 105.177C106.57 105.384 107.42 105.313 108.179 104.974C108.899 104.616 109.579 104.181 110.206 103.677" stroke="#1D1D1B" stroke-width="0.5" stroke-linecap="round" stroke-linejoin="round"/>
<path d="M125.678 97.5337C127.225 99.7321 129.457 101.356 132.025 102.152C134.593 102.948 137.352 102.871 139.872 101.933" stroke="#1D1D1B" stroke-width="0.5" stroke-linecap="round" stroke-linejoin="round"/>
<path d="M105.786 114.928H104.732C101.821 114.882 98.9747 114.067 96.4816 112.564C93.9885 111.061 91.9379 108.925 90.5382 106.373C89.7945 104.995 89.3197 103.488 89.1391 101.932C88.9382 100.416 89.1556 98.8736 89.7677 97.4719C90.466 96.0787 91.5202 94.8949 92.8235 94.0403C94.1268 93.1858 95.6328 92.6909 97.189 92.6058C98.0179 92.5144 98.8542 92.5144 99.6831 92.6058C101.934 92.9931 104.061 93.9105 105.888 95.2821C108.347 97.1996 110.459 99.5244 112.133 102.155L112.741 101.932C114.453 101.296 116.312 101.169 118.095 101.567C118.671 101.752 119.261 101.895 119.859 101.993C118.832 100.222 118.366 98.1815 118.522 96.1405C118.678 94.0994 119.448 92.1532 120.731 90.5581C121.368 89.7593 122.104 89.044 122.92 88.4292C125.419 86.587 128.399 85.5095 131.498 85.3272C134.117 85.011 136.768 85.5668 139.041 86.9086C140.812 88.198 142.211 89.9327 143.096 91.9369C144.446 94.4256 145.143 97.2157 145.124 100.047C145.079 102.878 143.912 105.577 141.879 107.548C140.687 108.57 139.311 109.355 137.824 109.86C134.316 111.117 130.098 111.887 126.874 109.86C123.851 107.954 121.426 105.235 119.879 102.013" stroke="#1D1D1B" stroke-linecap="round" stroke-linejoin="round"/>
<path d="M106.189 98.8516C106.737 99.7842 107.264 100.717 107.791 101.65" stroke="#1D1D1B" stroke-linecap="round" stroke-linejoin="round"/>
<path d="M128.211 93.8232L130.239 97.1888" stroke="#1D1D1B" stroke-linecap="round" stroke-linejoin="round"/>
<path d="M55.2949 187.229C55.6802 188.283 56.2682 189.702 56.836 191.061C57.2212 191.993 57.6268 192.885 57.9512 193.615L58.1337 194.041C60.9522 196.92 63.7504 199.779 66.7717 202.557C66.3884 198.879 65.7103 195.238 64.744 191.669L64.379 190.797L63.6085 188.993C63.1015 187.817 62.5946 186.641 62.108 185.465" stroke="#1D1D1B" stroke-linecap="round" stroke-linejoin="round"/>
</svg>
