<svg width="239" height="373" viewBox="0 0 239 373" fill="none" xmlns="http://www.w3.org/2000/svg">
<path d="M198.819 175.284L200.256 174.344C199.777 173.67 199.351 172.961 198.944 172.251L200.398 171.4C200.304 168.754 199.574 166.169 198.27 163.864C197.328 162.571 196.631 161.117 196.213 159.573C195.468 159.561 194.733 159.397 194.053 159.092C193.373 158.788 192.762 158.348 192.258 157.8C191.266 157.684 190.313 157.344 189.471 156.807C188.629 156.269 187.921 155.548 187.399 154.696C186.636 154.912 185.827 154.906 185.068 154.68C184.308 154.454 183.628 154.017 183.107 153.42C182.703 153.47 182.292 153.435 181.902 153.319C181.511 153.204 181.149 153.008 180.837 152.746C180.377 152.222 179.751 151.871 179.064 151.753C178.641 151.79 178.227 151.898 177.84 152.072C177.648 152.163 177.433 152.197 177.222 152.168C177.011 152.14 176.813 152.051 176.652 151.912C175.428 151.912 174.541 151.806 173.672 151.717C173.395 151.7 173.116 151.7 172.839 151.717C172.193 151.843 171.558 152.021 170.941 152.249C170.636 152.348 170.311 152.362 169.998 152.29C169.686 152.218 169.399 152.063 169.168 151.841C164.044 155.003 159.683 159.261 156.399 164.307L155.654 163.829C155.366 163.586 155.129 163.287 154.96 162.95C154.79 162.613 154.691 162.246 154.667 161.869C154.644 161.493 154.698 161.116 154.825 160.76C154.952 160.405 155.15 160.08 155.406 159.803C154.9 159.021 154.678 158.088 154.778 157.161C154.878 156.235 155.294 155.37 155.956 154.714C155.744 154.377 155.604 154 155.544 153.606C155.485 153.212 155.508 152.811 155.611 152.426C155.714 152.041 155.896 151.682 156.144 151.371C156.393 151.06 156.703 150.804 157.055 150.618C156.819 150.233 156.678 149.797 156.644 149.347C156.61 148.897 156.685 148.445 156.86 148.029C157.337 147.106 158.121 146.378 159.077 145.972C158.581 144.642 159.343 142.975 161.471 142C161.403 141.599 161.427 141.187 161.541 140.796C161.655 140.405 161.856 140.045 162.129 139.743C162.402 139.441 162.74 139.205 163.118 139.052C163.495 138.9 163.902 138.834 164.309 138.861C164.404 138.436 164.584 138.034 164.838 137.68C165.092 137.326 165.415 137.026 165.788 136.799C166.16 136.573 166.575 136.423 167.006 136.36C167.437 136.297 167.877 136.321 168.299 136.432C168.409 136.038 168.597 135.67 168.85 135.349C169.104 135.028 169.419 134.761 169.778 134.563C170.136 134.364 170.53 134.24 170.936 134.195C171.343 134.151 171.755 134.188 172.147 134.304C172.626 133.5 173.347 132.868 174.207 132.498C175.067 132.129 176.022 132.041 176.935 132.247C177.663 130.971 179.436 130.474 181.901 131.591C182.486 130.102 184.472 129.375 187.221 130.385C187.552 130.048 187.946 129.779 188.382 129.596C188.817 129.413 189.285 129.318 189.757 129.318C190.23 129.318 190.697 129.413 191.133 129.596C191.568 129.779 191.963 130.048 192.293 130.385C193.499 129.162 195.698 129.091 198.27 130.385C198.568 130.078 198.938 129.85 199.347 129.723C199.756 129.596 200.191 129.573 200.611 129.658C201.444 129.818 202.171 130.439 203.324 131.733C203.704 131.453 204.146 131.269 204.612 131.198C205.079 131.127 205.556 131.171 206.002 131.325C206.862 131.64 207.568 132.275 207.97 133.098C209.85 132.673 211.943 133.967 213.291 136.361C213.64 136.135 214.039 135.999 214.454 135.965C214.869 135.931 215.285 136 215.667 136.166C216.458 136.601 217.082 137.287 217.44 138.117C218.894 138.117 220.278 139.163 221.643 141.273C222.052 141.178 222.479 141.195 222.879 141.323C223.278 141.451 223.636 141.685 223.913 142C224.475 142.851 224.76 143.854 224.729 144.873C225.448 144.679 226.209 144.71 226.91 144.961C227.244 145.178 227.521 145.472 227.718 145.817C227.916 146.162 228.028 146.55 228.045 146.947C228.434 147.239 228.88 147.444 229.354 147.548C229.828 147.652 230.319 147.653 230.794 147.55C231.308 148.206 230.227 149.075 230.351 149.891C230.416 150.123 230.537 150.335 230.704 150.508C230.871 150.682 231.079 150.811 231.308 150.884C231.766 151.025 232.189 151.26 232.55 151.576C232.487 152.331 232.617 153.089 232.927 153.781C233.237 154.472 233.718 155.074 234.323 155.53C234.217 156.08 233.898 156.611 234.075 157.143C234.252 157.675 235.05 157.924 235.689 157.995C235.851 158.797 235.692 159.631 235.245 160.318C235.898 160.919 236.339 161.715 236.502 162.588C236.665 163.46 236.541 164.362 236.15 165.159C236.504 166.276 236.841 167.393 237.196 168.492C237.453 169.165 237.573 169.882 237.551 170.602C237.415 171.409 237.031 172.153 236.451 172.73C236.824 173.104 237.136 173.535 237.373 174.007C237.487 174.245 237.546 174.506 237.546 174.769C237.546 175.033 237.487 175.294 237.373 175.532C237.09 176.046 236.469 176.312 236.203 176.826C236.097 177.1 236.069 177.397 236.122 177.685C236.175 177.973 236.308 178.241 236.504 178.458C237.056 178.968 237.518 179.567 237.87 180.231C237.001 180.142 236.363 181.1 236.292 182.004C236.221 182.909 236.54 183.778 236.504 184.593C236.501 185.071 236.351 185.536 236.075 185.925C235.799 186.315 235.411 186.611 234.962 186.774C235.345 187.384 235.501 188.108 235.404 188.821C235.307 189.535 234.962 190.191 234.43 190.675V191.597C234.641 192.138 234.637 192.738 234.419 193.275C234.202 193.813 233.787 194.247 233.259 194.488C233.677 194.673 234.007 195.012 234.181 195.435C234.354 195.858 234.358 196.331 234.191 196.757C234.024 197.182 233.699 197.527 233.285 197.718C232.87 197.91 232.397 197.934 231.965 197.786C231.992 198.587 231.748 199.373 231.271 200.017C230.794 200.661 230.114 201.125 229.34 201.333C229.6 201.593 229.772 201.927 229.833 202.29C229.894 202.652 229.841 203.024 229.682 203.355C229.522 203.686 229.263 203.96 228.942 204.137C228.62 204.315 228.251 204.388 227.886 204.347C227.95 204.641 227.938 204.947 227.851 205.236C227.764 205.524 227.605 205.786 227.389 205.996C226.952 206.256 226.48 206.453 225.988 206.581C225.527 206.776 225.031 207.095 224.942 207.592C224.785 208.416 224.816 209.264 225.031 210.075C223.882 209.729 222.67 209.644 221.484 209.826C221.312 210.473 220.897 211.028 220.325 211.375C219.753 211.722 219.068 211.834 218.416 211.688C218.093 212.558 217.549 213.328 216.837 213.922C216.497 214.112 216.109 214.201 215.72 214.18C215.33 214.158 214.955 214.025 214.638 213.798C214.245 214.543 213.577 215.106 212.776 215.367C211.975 215.629 211.104 215.568 210.347 215.199H209.194C211.069 214.08 212.674 212.56 213.893 210.748C214.883 209.3 215.532 207.646 215.793 205.911C216.054 204.177 215.92 202.405 215.401 200.73C214.914 199.251 214.001 197.949 212.776 196.988C211.657 196.213 210.378 195.698 209.034 195.481C205.713 194.755 202.24 195.279 199.28 196.953H199.05C197.418 193.672 197.631 189.86 197.826 186.154C198.021 182.448 198.128 178.6 196.283 175.514L197.968 174.326C198.358 174.592 198.589 174.929 198.819 175.284Z" fill="#1D1D1B"/>
<path d="M228.134 312.142C229.885 315.522 230.659 319.323 230.369 323.119C230.049 321.52 229.121 320.108 227.779 319.182C226.443 318.267 224.954 317.601 223.381 317.214L222.725 317.054C218.436 315.953 213.958 315.796 209.602 316.593V316.699L200.167 312.018C199.613 310.723 198.726 309.597 197.596 308.755C197.263 308.442 196.869 308.2 196.439 308.045C196.009 307.889 195.552 307.823 195.095 307.851H194.847C194.492 305.928 194.385 303.967 194.528 302.017C194.844 299.036 195.009 296.042 195.024 293.044C194.985 290.395 194.178 287.814 192.701 285.615L197.401 283.841L223.293 311.256L226.839 309.482C227.336 310.458 227.744 311.291 228.134 312.142Z" fill="#878787"/>
<path d="M227.762 319.218C229.103 320.144 230.032 321.556 230.351 323.154C229.162 325.429 227.306 327.286 225.031 328.474H224.57C224.124 324.732 223.485 321.015 222.654 317.338V316.966L223.31 317.125C224.91 317.544 226.419 318.254 227.762 319.218Z" fill="black"/>
<path d="M188.765 276.306L184.349 274.781C184.301 269.856 185.568 265.008 188.02 260.737L185.147 258.538C184.92 257.256 184.96 255.94 185.265 254.673C185.57 253.407 186.134 252.217 186.92 251.179C188.559 249.186 190.092 247.108 191.514 244.955C192.21 243.66 192.66 242.247 192.844 240.788H193.376C198.962 248.626 208.964 252.403 214.444 260.294C218.523 266.181 219.587 273.611 220.083 280.739C220.58 287.867 220.704 295.226 223.24 301.911C224.282 304.504 225.466 307.038 226.787 309.501L223.24 311.274L197.348 283.86L192.649 285.633C192.432 285.333 192.195 285.049 191.939 284.782C190.43 283.36 188.684 282.214 186.779 281.395L185.856 280.934L187.062 278.505C187.647 277.795 188.197 277.051 188.765 276.306Z" fill="#878787"/>
<path d="M202.045 316.044C202.453 318.022 202.078 320.082 200.999 321.789C200.463 322.63 199.765 323.356 198.946 323.925C198.127 324.494 197.203 324.895 196.228 325.105C195.488 325.261 194.729 325.303 193.976 325.229C192.703 325.12 191.48 324.68 190.429 323.952C189.863 323.567 189.386 323.065 189.028 322.481C188.977 322.423 188.935 322.357 188.904 322.285C188.473 321.368 188.301 320.35 188.408 319.342C188.415 318.095 188.752 316.871 189.383 315.795L189.685 315.618C189.757 315.755 189.861 315.872 189.987 315.961C190.113 316.051 190.259 316.109 190.412 316.132C190.638 316.196 190.88 316.178 191.094 316.08C191.308 315.982 191.48 315.812 191.58 315.599C191.68 315.386 191.702 315.145 191.64 314.918C191.579 314.691 191.439 314.493 191.245 314.359C191.167 314.273 191.07 314.206 190.961 314.164L191.05 313.987C192.249 312.65 193.859 311.752 195.625 311.433H195.785C197.144 311.266 198.518 311.579 199.669 312.32C199.977 312.526 200.262 312.764 200.52 313.029C201.308 313.866 201.837 314.913 202.045 316.044ZM200.449 318.987C200.531 318.352 200.475 317.706 200.285 317.094C200.095 316.483 199.776 315.919 199.35 315.441C198.903 314.968 198.342 314.618 197.721 314.425C197.099 314.233 196.439 314.204 195.803 314.341C194.526 314.754 193.431 315.593 192.699 316.718C191.913 317.604 191.473 318.743 191.458 319.927C191.665 321.083 192.222 322.148 193.054 322.977C193.289 323.199 193.569 323.366 193.876 323.467C194.182 323.568 194.507 323.601 194.827 323.562C196.145 323.541 197.423 323.107 198.481 322.321C199.542 321.505 200.247 320.311 200.449 318.987Z" fill="#A55DA1"/>
<path d="M199.988 312.018L199.758 312.461C198.607 311.721 197.232 311.407 195.874 311.574V310.972C195.422 310.023 195.088 309.023 194.881 307.993H195.129C195.586 307.965 196.043 308.031 196.473 308.186C196.903 308.342 197.297 308.584 197.63 308.897C198.76 309.738 199.647 310.864 200.201 312.16L199.988 312.018Z" fill="#A55DA1"/>
<path d="M188.142 334.609C189.197 336.324 189.739 338.306 189.703 340.319C189.338 341.882 189.338 343.508 189.703 345.071C190.202 345.956 190.864 346.738 191.653 347.376C194.286 350.011 195.766 353.582 195.768 357.306H195.236C195.484 362.094 192.31 366.598 188.142 369.099C183.896 371.392 179.17 372.656 174.345 372.787C166.391 373.245 158.412 372.966 150.51 371.953C137.773 370.763 125.233 367.993 113.18 363.708C110.994 363.102 109.034 361.869 107.54 360.161C107.432 360.039 107.35 359.896 107.301 359.74C107.252 359.584 107.237 359.419 107.257 359.257C107.257 358.956 107.771 358.725 107.984 358.973L107.647 358.353L108.072 358.122C102.286 323.738 105.437 288.445 117.223 255.629L116 255.186C114.461 250.135 113.427 244.943 112.914 239.688V239.351C106.506 234.906 100.228 230.278 94.0801 225.466L94.2929 225.555C94.6221 225.62 94.9618 225.611 95.287 225.529C95.6123 225.446 95.9149 225.291 96.1728 225.076C98.3954 223.302 100.144 221.006 101.262 218.391C103.515 214.011 105.59 209.525 107.558 205.021C111.655 195.57 115.255 185.852 118.908 175.976L119.156 175.479C123.774 186.359 129.945 196.513 137.476 205.624C142.37 211.547 147.886 217.079 151.663 223.782L151.911 224.669C149.145 225.413 146.408 226.229 143.7 227.116C142.063 227.463 140.589 228.35 139.515 229.634C138.132 231.744 139.143 234.687 138.043 236.957C136.944 239.227 134.23 240.06 131.783 240.681C134.62 240.886 137.468 240.485 140.137 239.503C142.807 238.522 145.237 236.983 147.265 234.989L147.992 234.794C148.337 236.208 148.463 237.668 148.364 239.12C148.125 241.31 148.226 243.523 148.666 245.681C149.1 247.138 149.91 248.454 151.016 249.497C152.121 250.54 153.482 251.273 154.961 251.622L155.174 252.154L155.901 251.746L156.061 254.317C158.25 254.111 160.351 253.348 162.162 252.101C164.059 250.877 165.708 249.405 167.677 248.164C168.487 247.515 169.42 247.037 170.42 246.76C171.42 246.483 172.465 246.411 173.494 246.55C174.429 246.863 175.288 247.371 176.012 248.041C176.737 248.71 177.311 249.526 177.697 250.434C178.619 252.207 179.186 254.087 180.268 255.753C180.75 256.613 181.445 257.334 182.287 257.847C183.129 258.36 184.089 258.646 185.074 258.679L187.947 260.878C185.495 265.149 184.228 269.997 184.276 274.922L188.692 276.447C188.124 277.192 187.575 277.937 187.043 278.699L185.837 281.128L180.002 278.22C178.903 277.51 177.601 277.179 176.296 277.28C175.05 277.705 173.962 278.496 173.174 279.55C172.385 280.601 171.212 281.296 169.911 281.483C168.918 281.483 167.872 280.969 167.003 281.483C166.622 281.752 166.35 282.148 166.236 282.6C166.122 283.053 166.174 283.531 166.382 283.948C166.832 284.771 167.478 285.472 168.262 285.987L168.404 286.856C167.702 287.046 167.049 287.384 166.489 287.849C165.811 288.406 165.267 289.108 164.896 289.902C164.525 290.697 164.336 291.565 164.343 292.442C164.349 292.987 164.426 293.53 164.573 294.055L163.864 294.25C162.98 294.817 162.243 295.585 161.713 296.491C161.183 297.397 160.875 298.416 160.814 299.464C160.708 301.046 160.975 302.631 161.594 304.092L161.346 304.18C160.762 305.837 160.597 307.612 160.866 309.348C161.135 311.084 161.83 312.726 162.889 314.128C165.057 316.902 167.895 319.08 171.135 320.459C175.155 322.335 179.457 323.533 183.868 324.005V324.803C184.595 325.938 185.636 326.838 186.865 327.392C187.261 327.589 187.687 327.72 188.124 327.782C188.484 327.826 188.847 327.826 189.206 327.782V328.279C189.762 330.434 189.443 332.723 188.319 334.645L188.142 334.609ZM154.146 259.158C154.477 259.051 154.757 258.825 154.931 258.524C155.104 258.222 155.16 257.867 155.086 257.527C155.017 257.273 154.875 257.045 154.677 256.872C154.479 256.699 154.234 256.588 153.973 256.554C153.712 256.521 153.448 256.565 153.212 256.681C152.976 256.798 152.78 256.982 152.649 257.209C152.518 257.437 152.457 257.699 152.474 257.961C152.492 258.224 152.587 258.475 152.747 258.683C152.907 258.892 153.125 259.048 153.374 259.133C153.623 259.217 153.892 259.226 154.146 259.158Z" fill="#878787"/>
<path d="M193.977 325.228V325.725C193.525 326.316 192.908 326.76 192.204 327.001C191.873 327.142 191.528 327.249 191.175 327.321C190.694 327.459 190.202 327.554 189.704 327.604H189.225C188.865 327.649 188.502 327.649 188.143 327.604C187.705 327.542 187.28 327.411 186.884 327.214C185.655 326.66 184.614 325.761 183.887 324.625V323.827C184.295 323.827 184.72 323.934 185.128 323.969C186.424 324.031 187.693 323.593 188.675 322.746L189.118 322.462C189.475 323.046 189.953 323.548 190.519 323.934C191.543 324.653 192.733 325.099 193.977 325.228Z" fill="#A55DA1"/>
<path d="M192.452 235.486C192.985 237.206 193.13 239.023 192.877 240.806C192.694 242.265 192.243 243.678 191.547 244.973C190.126 247.126 188.592 249.204 186.954 251.197C186.167 252.235 185.603 253.425 185.298 254.691C184.993 255.958 184.953 257.273 185.18 258.556C184.195 258.523 183.235 258.236 182.393 257.724C181.552 257.211 180.856 256.49 180.375 255.63C179.293 253.981 178.725 252.084 177.803 250.31C177.417 249.403 176.843 248.587 176.119 247.917C175.394 247.248 174.536 246.74 173.6 246.427C172.572 246.288 171.526 246.359 170.526 246.637C169.526 246.914 168.593 247.392 167.783 248.041C165.886 249.282 164.236 250.754 162.268 251.977C160.457 253.225 158.357 253.988 156.167 254.194L156.008 251.623L156.717 251.25C157.714 250.744 158.685 250.187 159.626 249.583C162.233 247.81 164.307 245.363 167.021 243.785C171.685 241.036 177.431 241.356 182.698 240.238L183.744 239.972C185.538 239.567 187.202 238.719 188.586 237.508C189.898 236.249 190.359 232.809 189.88 231.018C191.041 232.311 191.917 233.833 192.452 235.486Z" fill="#878787"/>
<path d="M182.664 239.723C183.17 235.688 184.269 231.751 185.927 228.038L186.317 228.215C187.66 228.895 188.863 229.821 189.864 230.946C190.254 232.719 189.864 236.265 188.57 237.436C187.186 238.647 185.522 239.495 183.728 239.901L182.682 240.166L182.664 239.723Z" fill="#878787"/>
<path d="M175.179 201.085L175.445 201.28C174.342 202.931 173.115 204.496 171.775 205.961L171.562 206.174C170.382 205.16 168.935 204.507 167.394 204.295C165.854 204.097 164.293 204.138 162.766 204.419C160.828 204.77 159.062 205.755 157.747 207.22C156.807 207.025 155.849 206.795 154.909 206.564L154.803 209.455L154.679 209.774C154.411 209.686 154.151 209.579 153.898 209.455C152.621 204.139 152.072 198.675 152.267 193.212V192.928C152.61 192.946 152.953 192.946 153.295 192.928V193.212C153.103 194.46 153.206 195.735 153.597 196.936C156.654 196.67 159.733 196.977 162.677 197.84C166.874 198.833 171.041 199.915 175.179 201.085Z" fill="black"/>
<path d="M148.064 234.669L147.337 234.864C145.309 236.858 142.879 238.396 140.21 239.378C137.54 240.359 134.692 240.761 131.855 240.556C134.303 239.935 137.034 239.102 138.116 236.832C139.197 234.562 138.204 231.619 139.588 229.508C140.662 228.225 142.135 227.338 143.773 226.99C146.492 226.104 149.229 225.288 151.984 224.543C153.757 224.047 155.531 223.586 157.304 223.16V222.646C157.783 222.788 158.279 222.912 158.776 223.018L158.599 223.763C157.793 226.922 156.344 229.88 154.342 232.452H153.97C153.375 235.109 152.972 237.805 152.764 240.52C152.604 244.35 153.562 248.482 156.488 250.947L156.683 251.319L155.974 251.692L155.247 252.1L155.034 251.567C153.555 251.219 152.194 250.486 151.088 249.443C149.983 248.4 149.172 247.084 148.738 245.627C148.299 243.469 148.197 241.256 148.437 239.066C148.543 237.59 148.417 236.106 148.064 234.669Z" fill="#878787"/>
<path d="M75.3372 43.8339C75.5238 44.1318 75.7312 44.4162 75.9579 44.685C74.1368 45.8187 72.5577 47.3012 71.3115 49.0472C70.9757 49.4714 70.7176 49.9517 70.549 50.4657C70.4761 50.7266 70.4575 50.9996 70.4941 51.2679C70.5307 51.5363 70.6218 51.7944 70.7618 52.0262C70.9856 52.2958 71.2798 52.4981 71.6116 52.6108C71.9434 52.7234 72.2998 52.7421 72.6416 52.6645C73.3014 52.4932 73.9099 52.1647 74.415 51.707C75.9246 50.508 77.1636 49.0033 78.0505 47.2917L78.2633 47.0434C78.6413 47.357 79.0381 47.6472 79.4515 47.9123L79.3451 48.0896C78.2384 49.3727 77.3948 50.861 76.8623 52.4695C76.5247 53.3004 76.4028 54.2032 76.5077 55.0939C76.5685 55.5381 76.7468 55.9581 77.0243 56.3104C77.3018 56.6626 77.6683 56.9344 78.086 57.0976C78.6449 57.2216 79.229 57.1607 79.7503 56.924C80.2717 56.6874 80.702 56.2878 80.9767 55.7855C81.5117 54.7765 81.8204 53.663 81.8811 52.5227L82.2535 49.5259L82.3422 49.2422C83.0188 49.442 83.7141 49.5727 84.4171 49.6324V49.8097C83.8084 51.0086 83.5091 52.3406 83.5462 53.6846C83.5834 55.0286 83.9559 56.342 84.6299 57.5054C84.7473 57.7672 84.921 58 85.1386 58.187C85.3563 58.3739 85.6125 58.5106 85.889 58.5872C86.2225 58.5928 86.5509 58.5043 86.8363 58.3318C87.1218 58.1593 87.3528 57.9098 87.5028 57.6119C88.1573 56.3621 88.3096 54.9095 87.9285 53.5512C87.6447 52.1858 87.0772 50.8913 86.7225 49.5436C87.23 49.4597 87.7287 49.3292 88.2122 49.1536C88.5273 49.0358 88.8353 48.8997 89.1344 48.7458C90.0886 51.4915 91.905 53.8551 94.3127 55.484C94.7697 55.8506 95.3408 56.0452 95.9265 56.0337C96.2701 55.9775 96.5895 55.8214 96.845 55.5849C97.1004 55.3484 97.2805 55.042 97.363 54.7038C97.5238 54.0182 97.4681 53.2994 97.2034 52.6468C96.299 50.0224 94.3659 48.6748 92.1137 47.0434L91.7945 46.7242C92.5048 45.9828 93.1349 45.1686 93.6743 44.2949L93.763 44.1708C95.7175 46.2403 98.2211 47.7103 100.981 48.4088C101.656 48.6571 102.398 48.6571 103.073 48.4088C103.55 48.1234 103.906 47.6745 104.075 47.146C104.245 46.6175 104.217 46.0453 103.996 45.5361C103.513 44.527 102.725 43.6957 101.743 43.16C99.7636 41.9311 97.5336 41.1615 95.2172 40.908H95.0044C95.1738 39.2976 94.9169 37.6711 94.2595 36.1912C93.9427 35.3713 93.5632 34.5768 93.1246 33.815L93.6034 33.6909C95.6402 33.0829 97.594 32.2252 99.4202 31.1374C100.013 30.8159 100.546 30.3963 100.999 29.8963C101.211 29.6553 101.374 29.3744 101.478 29.07C101.581 28.7657 101.623 28.4438 101.601 28.123C101.51 27.7188 101.307 27.3482 101.015 27.0536C100.724 26.759 100.355 26.5521 99.9522 26.4562C99.1455 26.2683 98.2985 26.3687 97.5581 26.7399C96.8157 27.0986 96.1191 27.5451 95.4832 28.0698L91.6526 30.9602L91.0319 31.1021C90.8369 30.8893 90.6241 30.6764 90.4112 30.4814L89.5245 29.7544C90.7664 28.5528 91.8294 27.1794 92.6812 25.676C93.1061 24.9215 93.3639 24.0846 93.4373 23.2218C93.5108 22.3591 93.3981 21.4908 93.1068 20.6754C92.9692 20.2662 92.7235 19.9019 92.3957 19.6209C92.0679 19.34 91.6702 19.1529 91.2447 19.0795C90.874 19.0999 90.5121 19.2009 90.1844 19.3755C89.8566 19.55 89.571 19.7939 89.3472 20.0902C88.413 21.2125 87.8002 22.5667 87.5738 24.0091C87.3399 25.4389 87.2389 26.8874 87.2723 28.3358V28.4953C86.4771 28.12 85.6269 27.8746 84.754 27.7684C84.9214 25.4589 84.494 23.145 83.5126 21.0477C83.2149 20.2998 82.7546 19.6275 82.1649 19.0795C81.8499 18.7631 81.4479 18.5475 81.0101 18.4601C80.5723 18.3726 80.1183 18.4172 79.7059 18.5882C79.2935 18.7592 78.9412 19.049 78.6939 19.4206C78.4465 19.7922 78.3151 20.229 78.3165 20.6754C78.2595 21.6408 78.4487 22.6049 78.8663 23.4772C79.5554 25.1864 80.5067 26.7777 81.686 28.1939L81.7747 28.4422C81.2197 28.6164 80.68 28.8359 80.1609 29.0983V28.9564C79.258 26.9503 78.0162 25.1148 76.4899 23.5303C75.7594 22.6495 74.7644 22.0276 73.6524 21.7571C73.0969 21.645 72.5195 21.7448 72.0338 22.0368C71.5481 22.3289 71.1893 22.7921 71.0278 23.3353C70.978 24.0516 71.1855 24.7621 71.613 25.339C73.0254 27.4106 74.748 29.2526 76.7205 30.8005L76.9865 31.1198C76.5439 31.4654 76.1288 31.8447 75.7451 32.2546C74.3641 30.5963 72.59 29.31 70.5844 28.5131C69.897 28.1974 69.1384 28.0688 68.3854 28.1407C68.0097 28.1778 67.6541 28.3283 67.3659 28.5722C67.0777 28.816 66.8704 29.1418 66.7716 29.5061C66.7561 29.9441 66.8522 30.3789 67.0507 30.7697C67.2492 31.1605 67.5437 31.4945 67.9066 31.7404C69.5156 33.1424 71.5137 34.0207 73.6347 34.2584L74.0426 34.5066C73.7037 35.0576 73.4469 35.6549 73.28 36.2799L72.8012 36.1202C70.584 35.2391 68.1889 34.8987 65.814 35.1272C65.1853 35.1812 64.5779 35.3817 64.0406 35.7124C63.7735 35.8791 63.5483 36.1049 63.3822 36.3724C63.2162 36.6399 63.1138 36.9419 63.0829 37.2551C63.0874 37.6101 63.1806 37.9582 63.354 38.2679C63.5275 38.5777 63.7757 38.8391 64.076 39.0284C64.6724 39.3828 65.3374 39.6065 66.0268 39.6844C68.3941 40.081 70.8209 39.9294 73.1204 39.2411H73.0495C73.1181 39.654 73.2311 40.0583 73.3864 40.4469H73.1913C71.8962 40.5846 70.6222 40.8763 69.3963 41.3159C68.0395 41.7777 66.8695 42.6676 66.0622 43.8516C65.8478 44.1336 65.7091 44.4657 65.6595 44.8165C65.6098 45.1672 65.6507 45.5249 65.7785 45.8554C65.9197 46.0685 66.1053 46.2485 66.3226 46.3832C66.54 46.5179 66.7839 46.604 67.0376 46.6356C67.5528 46.6831 68.0722 46.6226 68.5627 46.4582C70.7725 45.8549 72.7964 44.709 74.4505 43.1245L74.6279 43.0181C74.8229 43.1068 75.0889 43.4792 75.3372 43.8339ZM44.4798 69.2266C37.7053 62.5001 30.7121 56.0337 23.5002 49.8274L21.7268 47.2739C16.2647 51.0687 10.8381 54.9107 5.44688 58.8L3.33651 60.7151L3.99266 61.4421L3.49611 61.8854C3.39428 63.9985 4.11218 66.0694 5.50008 67.6661H5.99663C7.48824 68.9363 8.83264 70.3697 10.0046 71.9396C21.4521 86.037 34.3376 98.9033 48.4522 110.33C49.4631 110.898 50.6867 110.153 51.6089 109.444L89.1876 80.3271L89.4713 79.9014C90.0536 80.3297 90.6921 80.6758 91.3688 80.9299L91.1383 81.4619C85.0142 86.4506 78.8604 91.3802 72.6771 96.2507C65.0514 102.28 57.3666 108.226 49.6227 114.089L49.0552 113.717C33.2751 101.019 18.9954 86.5624 6.49319 70.6274C4.35788 69.4759 2.68641 67.6216 1.76204 65.3788C0.83767 63.136 0.717237 60.6426 1.42119 58.3212C28.2428 37.3743 56.3991 18.1946 85.7117 0.903809H86.1728C86.9599 1.74597 87.5637 2.74228 87.9462 3.82969C101.584 18.7603 115.682 33.2831 130.136 47.735L127.156 49.5791C116.717 56.5657 106.283 63.5699 95.8556 70.5919C92.7876 70.8224 89.5955 71.4964 87.2546 69.6877L86.8467 69.7941C86.4269 70.1408 86.0862 70.5733 85.8476 71.0627C85.609 71.5521 85.478 72.0869 85.4634 72.6312C85.4026 73.7015 85.6163 74.7697 86.0841 75.7343C86.4249 76.5043 86.8662 77.2258 87.3964 77.88L87.0063 78.1992L67.0553 93.91L64.3066 90.3635C57.9577 83.0578 51.3252 76.0181 44.4798 69.2266ZM105.148 35.6593C105.224 35.1899 105.141 34.7087 104.913 34.2915C104.685 33.8742 104.325 33.5445 103.889 33.354C103.003 32.985 102.022 32.9044 101.087 33.1235C98.8036 33.6403 96.61 34.495 94.5788 35.6593L95.0221 38.4609C97.784 38.9415 100.626 38.6024 103.198 37.4857C103.641 37.3504 104.047 37.1155 104.385 36.7989C104.723 36.4823 104.984 36.0925 105.148 35.6593ZM70.6199 60.4846C70.9633 60.1971 71.2163 59.8166 71.3485 59.3887C71.4806 58.9609 71.4862 58.5039 71.3647 58.0729C71.1085 57.2108 70.6173 56.4372 69.946 55.8387C68.2236 54.1654 66.0462 53.0367 63.6859 52.5937C64.3027 54.6441 65.1725 56.6097 66.275 58.4453C66.7008 59.2382 67.3086 59.9188 68.0484 60.4313C68.4351 60.6712 68.8817 60.7968 69.3367 60.7937C69.7917 60.7905 70.2366 60.6588 70.6199 60.4136V60.4846ZM58.206 56.5124C57.3203 53.6986 55.8177 51.118 53.8079 48.9585C53.5231 48.6307 53.1628 48.3771 52.758 48.2195C52.3533 48.062 51.9163 48.0052 51.4847 48.0542C51.0574 48.206 50.6929 48.4959 50.4488 48.878C50.2047 49.2602 50.095 49.7128 50.1369 50.1643C50.2524 51.073 50.6281 51.9289 51.2187 52.629C51.9986 53.7557 53.0289 54.6863 54.229 55.3478C55.429 56.0093 56.766 56.3836 58.1351 56.4415L58.206 56.5124Z" fill="#A55DA1"/>
<path d="M107.615 204.933C105.647 209.455 103.572 213.924 101.319 218.304C100.201 220.918 98.4524 223.215 96.2297 224.989C95.9719 225.203 95.6692 225.358 95.344 225.441C95.0188 225.524 94.6791 225.533 94.3499 225.467L94.1371 225.379C93.9043 225.24 93.7065 225.049 93.559 224.822C93.4114 224.594 93.318 224.336 93.2859 224.067C93.2391 223.471 93.293 222.871 93.4455 222.293C95.2602 213.111 98.3711 204.232 102.685 195.925H102.827C104.364 198.94 105.96 201.942 107.615 204.933Z" fill="black"/>
<path d="M103.887 33.3538C104.322 33.5443 104.682 33.8741 104.91 34.2913C105.138 34.7085 105.221 35.1897 105.146 35.6591C104.975 36.0824 104.711 36.4617 104.373 36.7688C104.035 37.0758 103.633 37.3026 103.195 37.4323C100.624 38.5491 97.7814 38.8882 95.0195 38.4076L94.5762 35.6059C96.6074 34.4416 98.801 33.5869 101.085 33.0701C102.025 32.8678 103.006 32.967 103.887 33.3538Z" fill="white"/>
<path d="M104.049 45.6253C104.27 46.1345 104.298 46.7066 104.129 47.2351C103.959 47.7636 103.603 48.2125 103.127 48.4979C102.451 48.7462 101.71 48.7462 101.034 48.4979C98.2745 47.7994 95.7709 46.3294 93.8164 44.2599C94.4736 43.2722 94.9259 42.1627 95.1465 40.9971H95.3593C97.6757 41.2506 99.9058 42.0201 101.885 43.2491C102.834 43.7992 103.59 44.6292 104.049 45.6253Z" fill="white"/>
<path d="M101.654 28.0701C101.675 28.3909 101.633 28.7127 101.53 29.0171C101.426 29.3215 101.263 29.6024 101.051 29.8433C100.598 30.3434 100.065 30.7631 99.4722 31.0846C97.646 32.1724 95.6923 33.0301 93.6554 33.6381L93.1766 33.7622C92.5982 32.745 91.8953 31.8038 91.084 30.9605L91.7046 30.8186L95.5352 27.9282C96.1711 27.4035 96.8678 26.957 97.6101 26.5983C98.3506 26.2271 99.1976 26.1268 100.004 26.3146C100.419 26.4171 100.796 26.6374 101.088 26.9488C101.381 27.2603 101.577 27.6497 101.654 28.0701Z" fill="white"/>
<path d="M97.1648 52.7C97.4295 53.3526 97.4852 54.0712 97.3244 54.7569C97.2419 55.0951 97.0617 55.4015 96.8063 55.638C96.5508 55.8745 96.2315 56.0306 95.8879 56.0868C95.3022 56.0983 94.731 55.9037 94.2741 55.5371C91.8664 53.9082 90.0499 51.5446 89.0957 48.7989C90.0833 48.2693 90.9811 47.587 91.7558 46.7773L92.0751 47.0965C94.3273 48.7279 96.2603 50.0756 97.1648 52.7Z" fill="white"/>
<path d="M89.0966 48.7987C88.7975 48.9526 88.4896 49.0888 88.1744 49.2065C87.6909 49.3821 87.1923 49.5127 86.6848 49.5966C85.9259 49.7032 85.1559 49.7032 84.397 49.5966C83.694 49.537 82.9989 49.4062 82.3222 49.2065C81.54 48.9747 80.7849 48.6596 80.0699 48.2667C79.8571 48.1426 79.6266 48.0184 79.4315 47.8765C79.0181 47.6114 78.6213 47.3213 78.2433 47.0077C77.3922 46.2927 76.6248 45.4837 75.9556 44.5961C75.7289 44.3274 75.5215 44.043 75.3349 43.745C75.0866 43.3903 74.8561 43.018 74.6433 42.6456L74.3772 42.2023C73.9733 41.5069 73.6463 40.7695 73.4019 40.0034C73.2497 39.661 73.1309 39.3047 73.0472 38.9395C72.914 38.1828 72.914 37.4087 73.0472 36.6521C73.0841 36.4488 73.1314 36.2475 73.189 36.0491C73.3559 35.4242 73.6128 34.8268 73.9516 34.2759C74.3097 33.6433 74.7316 33.0492 75.2108 32.5026L75.7073 32.0062C76.0911 31.5963 76.5061 31.2168 76.9487 30.8713C77.938 30.064 79.0291 29.3903 80.1941 28.8675C80.7131 28.6051 81.2529 28.3857 81.8079 28.2114C82.6999 27.8976 83.6206 27.6719 84.5566 27.5376H84.7872C85.6601 27.6438 86.5103 27.8893 87.3055 28.2646C88.1144 28.6157 88.8816 29.0558 89.5931 29.5768L90.4798 30.3038C90.6927 30.4989 90.9055 30.7116 91.1005 30.9244C91.9118 31.7678 92.6148 32.7089 93.1932 33.7262C93.6318 34.488 94.0113 35.2824 94.3282 36.1024C94.9856 37.5822 95.2425 39.2087 95.073 40.8191C94.8524 41.9847 94.4002 43.0942 93.743 44.0819L93.6543 44.2059C93.1149 45.0796 92.4848 45.894 91.7745 46.6354C91.0052 47.497 90.1007 48.2277 89.0966 48.7987Z" fill="white"/>
<path d="M93.1946 20.569C93.4858 21.3844 93.5986 22.2527 93.5251 23.1154C93.4517 23.9781 93.1938 24.8151 92.769 25.5696C91.9172 27.073 90.8541 28.4464 89.6123 29.648C88.9008 29.127 88.1335 28.687 87.3246 28.3358V28.1762C87.2912 26.7277 87.3922 25.2793 87.6261 23.8495C87.8525 22.407 88.4653 21.0529 89.3995 19.9307C89.6233 19.6344 89.909 19.3904 90.2367 19.2158C90.5644 19.0413 90.9263 18.9403 91.2971 18.9199C91.7352 18.9918 92.1447 19.1841 92.4798 19.4754C92.8148 19.7666 93.0623 20.1452 93.1946 20.569Z" fill="white"/>
<path d="M87.8931 53.6049C88.2742 54.9632 88.1219 56.4158 87.4675 57.6656C87.3174 57.9635 87.0864 58.2129 86.8009 58.3854C86.5155 58.5579 86.1872 58.6465 85.8537 58.6408C85.5771 58.5642 85.3209 58.4276 85.1033 58.2406C84.8856 58.0536 84.7119 57.821 84.5945 57.5592C83.9206 56.3957 83.5481 55.0823 83.5109 53.7383C83.4737 52.3942 83.7731 51.0622 84.3817 49.8633V49.686C85.1406 49.7925 85.9106 49.7925 86.6694 49.686C87.0418 50.945 87.6093 52.2395 87.8931 53.6049Z" fill="white"/>
<path d="M83.5283 20.9063C84.5097 23.0036 84.937 25.3174 84.7696 27.6269H84.5391C83.6031 27.7611 82.6824 27.9868 81.7903 28.3007L81.7017 28.0524C80.5223 26.6362 79.571 25.0449 78.8819 23.3357C78.4644 22.4634 78.2752 21.4993 78.3322 20.5339C78.3308 20.0875 78.4621 19.6507 78.7095 19.2791C78.9569 18.9075 79.3092 18.6177 79.7216 18.4467C80.134 18.2757 80.5879 18.2311 81.0257 18.3186C81.4635 18.406 81.8655 18.6216 82.1805 18.938C82.7702 19.486 83.2306 20.1584 83.5283 20.9063Z" fill="white"/>
<path d="M82.3261 49.2948L82.2374 49.5784L81.865 52.5752C81.8043 53.7156 81.4957 54.8291 80.9606 55.838C80.686 56.3403 80.2557 56.7398 79.7343 56.9765C79.213 57.2131 78.6289 57.2741 78.0699 57.1502C77.6522 56.987 77.2857 56.7152 77.0082 56.3629C76.7308 56.0107 76.5524 55.5907 76.4916 55.1464C76.3867 54.2557 76.5087 53.3529 76.8463 52.522C77.3788 50.9134 78.2224 49.4253 79.3291 48.1421L79.4355 47.9648C79.6305 48.1067 79.8611 48.2308 80.0739 48.3549C80.7888 48.7478 81.5439 49.063 82.3261 49.2948Z" fill="white"/>
<path d="M80.141 28.8146V28.9565C78.976 29.4792 77.8849 30.1529 76.8957 30.9603L76.6296 30.6411C74.6572 29.0931 72.9346 27.2511 71.5222 25.1795C71.0947 24.6026 70.8871 23.892 70.937 23.1757C71.0984 22.6325 71.4573 22.1695 71.943 21.8774C72.4287 21.5854 73.0061 21.4855 73.5616 21.5975C74.6736 21.8681 75.6686 22.4899 76.3991 23.3708C77.9523 24.955 79.2184 26.797 80.141 28.8146Z" fill="white"/>
<path d="M78.2445 47.0971L78.0317 47.3454C77.1447 49.057 75.9058 50.5617 74.3962 51.7607C73.8911 52.2184 73.2826 52.547 72.6228 52.7183C72.2811 52.7958 71.9245 52.7772 71.5927 52.6645C71.2609 52.5519 70.9668 52.3495 70.743 52.0799C70.603 51.848 70.5118 51.5901 70.4752 51.3217C70.4387 51.0534 70.4573 50.7804 70.5301 50.5195C70.6988 50.0054 70.957 49.5251 71.2927 49.1009C72.539 47.3549 74.118 45.8725 75.9391 44.7388C76.6169 45.6087 77.3902 46.3997 78.2445 47.0971Z" fill="white"/>
<path d="M75.6904 32.096L75.1938 32.5925C74.7147 33.139 74.2928 33.7332 73.9347 34.3657L73.5268 34.1175C71.4059 33.8799 69.4078 33.0015 67.7987 31.5995C67.4359 31.3536 67.1414 31.0197 66.9429 30.6289C66.7444 30.2381 66.6483 29.8032 66.6637 29.3652C66.7626 29.0008 66.9698 28.6752 67.2581 28.4314C67.5463 28.1875 67.9018 28.037 68.2775 27.9999C69.0306 27.928 69.7892 28.0564 70.4765 28.3722C72.4821 29.1691 74.2563 30.4555 75.6372 32.1138L75.6904 32.096Z" fill="white"/>
<path d="M74.6432 42.7343L74.4658 42.8407C72.8117 44.4251 70.7879 45.5711 68.5781 46.1744C68.0876 46.3388 67.5681 46.3991 67.053 46.3517C66.7992 46.3201 66.5554 46.2339 66.338 46.0993C66.1207 45.9646 65.9351 45.7846 65.7938 45.5714C65.6661 45.241 65.6251 44.8834 65.6748 44.5326C65.7245 44.1819 65.8632 43.8497 66.0776 43.5677C66.8849 42.3836 68.0549 41.4937 69.4116 41.032C70.6376 40.5924 71.9116 40.3007 73.2067 40.1631H73.4018C73.6462 40.9292 73.9732 41.6665 74.3772 42.3619L74.6432 42.7343Z" fill="white"/>
<path d="M72.6926 35.8371L73.1715 35.9967C73.1138 36.1951 73.0664 36.3963 73.0296 36.5996C72.8963 37.3563 72.8963 38.1303 73.0296 38.887H73.0473C70.7478 39.5752 68.321 39.7269 65.9536 39.3303C65.2642 39.2523 64.5993 39.0287 64.0029 38.6742C63.7026 38.4849 63.4544 38.2236 63.2809 37.9139C63.1075 37.6042 63.0142 37.2559 63.0098 36.901C63.0407 36.5877 63.1431 36.2857 63.3092 36.0183C63.4752 35.7508 63.7004 35.525 63.9674 35.3583C64.5048 35.0275 65.1121 34.8272 65.7408 34.7732C68.1097 34.5728 70.4922 34.9374 72.6926 35.8371Z" fill="white"/>
<path d="M71.3642 58.0028C71.4858 58.4337 71.4802 58.8906 71.348 59.3185C71.2159 59.7464 70.9628 60.1269 70.6194 60.4143C70.2364 60.6533 69.794 60.78 69.3426 60.78C68.8911 60.78 68.4487 60.6533 68.0657 60.4143C67.3259 59.9018 66.7181 59.2212 66.2923 58.4283C65.1897 56.5927 64.32 54.6271 63.7031 52.5767C66.0634 53.0197 68.2408 54.1484 69.9633 55.8217C70.6199 56.4079 71.1042 57.1619 71.3642 58.0028Z" fill="white"/>
<path d="M44.4789 69.2262C51.3243 76.0177 57.9569 83.0573 64.3057 90.3276L67.0545 93.8741L54.9066 103.432C52.9913 104.957 50.7745 106.553 48.3627 106.198C32.8462 92.0473 18.0492 77.1275 4.02725 61.4948L3.37109 60.7678L5.48146 58.8527C10.8726 54.9634 16.2993 51.1214 21.7614 47.3267L23.5348 49.8801C30.7349 56.0746 37.7163 62.5233 44.4789 69.2262Z" fill="#A55DA1"/>
<path d="M53.7344 48.8872C55.7442 51.0467 57.2468 53.6274 58.1325 56.4412C56.745 56.3862 55.3899 56.0061 54.1763 55.3316C52.9627 54.657 51.9244 53.707 51.1452 52.5579C50.5546 51.8577 50.1789 51.0017 50.0634 50.093C50.0215 49.6415 50.1312 49.189 50.3753 48.8068C50.6194 48.4247 50.9839 48.1347 51.4112 47.9829C51.8427 47.9339 52.2798 47.9907 52.6845 48.1482C53.0892 48.3058 53.4495 48.5594 53.7344 48.8872Z" fill="white"/>
<path d="M85.5867 0.81543C56.2741 18.1063 28.1178 37.2859 1.29621 58.2328C0.592258 60.5542 0.712638 63.0476 1.63701 65.2904C2.56138 67.5333 4.23285 69.3875 6.36815 70.539C18.8704 86.474 33.15 100.931 48.9301 113.629" stroke="#222120" stroke-linecap="round" stroke-linejoin="round"/>
<path d="M3.17773 60.5552L3.31958 60.7148L3.97574 61.4418C17.9977 77.0745 32.7947 91.9943 48.3111 106.145C50.723 106.5 52.9398 104.904 54.8551 103.379L67.003 93.8211L86.9007 78.1634" stroke="#222120" stroke-linecap="round" stroke-linejoin="round"/>
<path d="M86.0488 0.850586C86.836 1.69275 87.4398 2.68895 87.8222 3.77636C101.46 18.707 115.558 33.2298 130.012 47.6817L127.157 49.579C116.717 56.5656 106.284 63.5698 95.8558 70.5918" stroke="#222120" stroke-linecap="round" stroke-linejoin="round"/>
<path d="M49.5703 114.002C57.3261 108.091 65.0109 102.145 72.6247 96.1628C78.8199 91.2924 84.9736 86.3627 91.086 81.374" stroke="#222120" stroke-linecap="round" stroke-linejoin="round"/>
<path d="M103.197 73.0746L131.572 53.835L128.025 50.4126" stroke="#222120" stroke-linecap="round" stroke-linejoin="round"/>
<path d="M86.8445 69.8477C86.4313 70.1885 86.0946 70.6126 85.8563 71.0923C85.6179 71.572 85.4833 72.0965 85.4613 72.6316C85.4005 73.702 85.6142 74.7701 86.082 75.7348C86.4228 76.5048 86.8641 77.2263 87.3943 77.8805C87.9905 78.6428 88.7026 79.307 89.5047 79.8487C90.087 80.277 90.7255 80.6231 91.4022 80.8772L91.8101 81.0545C93.077 81.502 94.4214 81.6887 95.7623 81.6033C97.1033 81.518 98.4132 81.1624 99.6132 80.558" stroke="#222120" stroke-linecap="round" stroke-linejoin="round"/>
<path d="M86.8268 85.0435C85.5204 86.7074 84.6698 88.6829 84.3589 90.7754C84.0479 92.8679 84.2873 95.0054 85.0534 96.9773" stroke="#222120" stroke-linecap="round" stroke-linejoin="round"/>
<path d="M94.3305 81.6748C94.1593 83.1038 94.476 84.5487 95.2293 85.7751C95.9826 87.0015 97.1282 87.9373 98.4803 88.4308" stroke="#222120" stroke-linecap="round" stroke-linejoin="round"/>
<path d="M72.6934 96.2144C76.7011 101.115 79.4635 106.913 80.7447 113.113C82.0052 119.291 82.9464 125.529 83.5644 131.803C86.5342 154.039 93.061 175.653 102.895 195.817C104.384 198.902 105.957 201.941 107.612 204.931" stroke="#222120" stroke-linecap="round" stroke-linejoin="round"/>
<path d="M87.2344 69.7412C89.5753 71.5144 92.7674 70.8761 95.8355 70.6456C97.7156 70.3519 99.6405 70.6624 101.333 71.5322C102.015 71.9613 102.615 72.5075 103.106 73.1458C103.769 74.0203 104.362 74.9452 104.88 75.912C106.653 79.2634 108.427 83.005 107.54 86.6756C106.21 91.8357 100.074 94.3182 97.9635 98.8754C100.2 115.576 104.397 131.956 110.466 147.675C112.967 154.112 115.786 160.903 114.687 167.695L119.014 175.887" stroke="#222120" stroke-linecap="round" stroke-linejoin="round"/>
<path d="M102.755 195.889C98.4414 204.196 95.3305 213.074 93.5158 222.257C93.3633 222.835 93.3094 223.434 93.3562 224.03C93.3883 224.299 93.4817 224.558 93.6293 224.785C93.7768 225.013 93.9746 225.203 94.2074 225.342L94.4202 225.431C94.7494 225.496 95.0891 225.487 95.4143 225.404C95.7396 225.322 96.0421 225.167 96.3 224.952C98.5226 223.178 100.271 220.882 101.39 218.267C103.642 213.887 105.717 209.401 107.685 204.897C111.782 195.446 115.382 185.728 119.035 175.851L119.159 175.479C123.778 186.359 129.948 196.513 137.479 205.624C142.373 211.547 147.889 217.079 151.666 223.782" stroke="#222120" stroke-linecap="round" stroke-linejoin="round"/>
<path d="M116.534 198.887C112.752 208.459 110.184 218.467 108.891 228.677" stroke="#222120" stroke-linecap="round" stroke-linejoin="round"/>
<path d="M123.467 195.215C121.161 209.578 119.311 224 117.916 238.482" stroke="#222120" stroke-linecap="round" stroke-linejoin="round"/>
<path d="M94.2051 225.413C100.353 230.224 106.631 234.853 113.039 239.298" stroke="#222120" stroke-linecap="round" stroke-linejoin="round"/>
<path d="M116.871 212.186C115.683 221.318 114.495 230.414 113.094 239.298V239.635C113.607 244.891 114.641 250.082 116.18 255.133" stroke="#222120" stroke-linecap="round" stroke-linejoin="round"/>
<path d="M127.704 203.478C126.775 218.422 124.041 233.2 119.564 247.489" stroke="#222120" stroke-linecap="round" stroke-linejoin="round"/>
<path d="M134.126 220.077C127.374 231.314 121.754 243.194 117.35 255.541C105.564 288.357 102.413 323.65 108.199 358.034" stroke="#222120" stroke-linecap="round" stroke-linejoin="round"/>
<path d="M117.58 303.418C120.234 324.142 128.282 343.806 140.918 360.446" stroke="#222120" stroke-linecap="round" stroke-linejoin="round"/>
<path d="M124.283 256.551C125.478 287.134 134.266 316.94 149.856 343.28" stroke="#222120" stroke-linecap="round" stroke-linejoin="round"/>
<path d="M141.787 291.129C149.534 312.981 162.288 332.718 179.029 348.759" stroke="#222120" stroke-linecap="round" stroke-linejoin="round"/>
<path d="M189.227 328.136C189.782 330.292 189.463 332.58 188.34 334.502" stroke="#222120" stroke-linecap="round" stroke-linejoin="round"/>
<path d="M156.613 164.839C157.435 164.302 158.431 164.099 159.398 164.272C160.356 164.447 161.215 164.971 161.809 165.743" stroke="#222120" stroke-width="0.5" stroke-linecap="round" stroke-linejoin="round"/>
<path d="M174.293 167.784C175.287 166.908 176.501 166.321 177.805 166.087C179.109 165.852 180.452 165.979 181.688 166.454C184.157 167.446 186.232 169.222 187.594 171.508" stroke="#222120" stroke-width="0.5" stroke-linecap="round" stroke-linejoin="round"/>
<path d="M171.898 178.867C172.263 177.818 172.777 176.827 173.424 175.924C174.104 175.054 175.051 174.431 176.119 174.15C177.401 173.912 178.725 174.186 179.808 174.913C180.887 175.625 181.84 176.512 182.628 177.537C183.633 178.727 184.575 179.97 185.447 181.261" stroke="#222120" stroke-width="0.5" stroke-linecap="round" stroke-linejoin="round"/>
<path d="M153.723 175.036C153.72 174.295 153.935 173.57 154.341 172.951C154.747 172.331 155.326 171.844 156.006 171.552C156.687 171.259 157.438 171.172 158.167 171.303C158.896 171.434 159.571 171.776 160.107 172.287C161.227 173.627 161.853 175.311 161.88 177.057" stroke="#222120" stroke-width="0.5" stroke-linecap="round" stroke-linejoin="round"/>
<path d="M157.462 180.586C156.464 181.108 155.56 181.791 154.784 182.607C154.415 182.96 154.152 183.408 154.022 183.902C153.984 184.184 154.007 184.471 154.089 184.743C154.172 185.015 154.312 185.267 154.5 185.48C154.855 185.92 155.28 186.298 155.76 186.597" stroke="#222120" stroke-width="0.5" stroke-linecap="round" stroke-linejoin="round"/>
<path d="M155.123 184.683C155.651 184.743 156.145 184.973 156.532 185.337C156.918 185.701 157.177 186.181 157.269 186.704" stroke="#222120" stroke-width="0.5" stroke-linecap="round" stroke-linejoin="round"/>
<path d="M161.717 185.587C162.374 185.43 163.065 185.512 163.668 185.817C164.274 186.134 164.742 186.665 164.98 187.307" stroke="#222120" stroke-width="0.5" stroke-linecap="round" stroke-linejoin="round"/>
<path d="M165.957 188.033C166.48 187.933 166.991 187.778 167.482 187.572C167.974 187.355 168.38 186.981 168.635 186.508C168.843 186.052 168.887 185.538 168.759 185.054C168.623 184.58 168.38 184.143 168.05 183.777" stroke="#222120" stroke-width="0.5" stroke-linecap="round" stroke-linejoin="round"/>
<path d="M151.911 187.786C151.342 188.632 150.62 189.366 149.783 189.949C149.455 190.111 149.17 190.349 148.953 190.644C148.737 190.938 148.593 191.28 148.536 191.642C148.479 192.003 148.509 192.373 148.624 192.72C148.739 193.067 148.936 193.382 149.198 193.637C149.784 194.289 150.431 194.883 151.131 195.411" stroke="#222120" stroke-width="0.5" stroke-linecap="round" stroke-linejoin="round"/>
<path d="M150.229 192.449C150.885 192.714 151.579 192.876 152.286 192.928C152.628 192.946 152.972 192.946 153.314 192.928H154.964C159.334 193.03 163.633 194.064 167.573 195.96C170.348 197.564 173.255 198.929 176.262 200.038C175.996 200.428 175.73 200.818 175.446 201.191C174.343 202.842 173.116 204.407 171.776 205.872L171.563 206.085C170.552 207.141 169.421 208.075 168.193 208.869C167.462 209.329 166.691 209.721 165.888 210.039C162.252 211.28 158.286 211.135 154.751 209.631C154.483 209.543 154.223 209.437 153.97 209.312C153.438 209.082 152.906 208.833 152.41 208.567" stroke="#222120" stroke-width="0.5" stroke-linecap="round" stroke-linejoin="round"/>
<path d="M152.267 193.211C152.072 198.675 152.621 204.139 153.898 209.454" stroke="#222120" stroke-width="0.5" stroke-linecap="round" stroke-linejoin="round"/>
<path d="M153.313 193.211C153.12 194.459 153.224 195.735 153.615 196.935C156.671 196.669 159.751 196.976 162.695 197.84C166.88 198.833 171.018 199.914 175.109 201.085" stroke="#222120" stroke-width="0.5" stroke-linecap="round" stroke-linejoin="round"/>
<path d="M157.746 207.239C161.172 208.006 164.634 208.598 168.121 209.012" stroke="#222120" stroke-width="0.5" stroke-linecap="round" stroke-linejoin="round"/>
<path d="M154.803 209.454L154.909 206.564C155.849 206.794 156.807 207.025 157.747 207.22" stroke="#222120" stroke-width="0.5" stroke-linecap="round" stroke-linejoin="round"/>
<path d="M175.162 196.173C176.071 197.299 176.643 198.659 176.812 200.096C176.982 201.532 176.742 202.988 176.12 204.294" stroke="#222120" stroke-width="0.5" stroke-linecap="round" stroke-linejoin="round"/>
<path d="M184.17 329.272C185.673 330.905 187.004 332.687 188.142 334.592C189.198 336.307 189.739 338.289 189.703 340.302C189.338 341.865 189.338 343.491 189.703 345.054C190.202 345.939 190.864 346.721 191.654 347.359C194.286 349.994 195.766 353.565 195.768 357.29" stroke="#222120" stroke-linecap="round" stroke-linejoin="round"/>
<path d="M155.707 163.829C155.418 163.586 155.182 163.287 155.012 162.95C154.843 162.613 154.743 162.246 154.72 161.869C154.697 161.493 154.75 161.116 154.877 160.76C155.004 160.405 155.202 160.08 155.459 159.803C154.953 159.021 154.731 158.088 154.831 157.161C154.931 156.235 155.347 155.37 156.009 154.714C155.797 154.377 155.657 154 155.597 153.606C155.538 153.212 155.56 152.811 155.664 152.426C155.767 152.041 155.948 151.682 156.197 151.371C156.446 151.06 156.756 150.804 157.108 150.618C156.872 150.233 156.731 149.797 156.697 149.347C156.663 148.897 156.737 148.445 156.913 148.029C157.389 147.106 158.174 146.378 159.13 145.972C158.633 144.642 159.396 142.975 161.524 142C161.456 141.599 161.48 141.187 161.594 140.796C161.708 140.405 161.909 140.045 162.182 139.743C162.455 139.441 162.793 139.205 163.171 139.052C163.548 138.9 163.955 138.834 164.361 138.861C164.457 138.436 164.637 138.034 164.891 137.68C165.145 137.326 165.468 137.026 165.841 136.799C166.213 136.573 166.627 136.423 167.059 136.36C167.49 136.297 167.93 136.321 168.352 136.432C168.462 136.038 168.649 135.67 168.903 135.349C169.157 135.028 169.472 134.761 169.83 134.563C170.188 134.364 170.582 134.24 170.989 134.195C171.396 134.151 171.808 134.188 172.2 134.304C172.679 133.5 173.4 132.868 174.26 132.498C175.12 132.129 176.075 132.041 176.988 132.247C177.715 130.971 179.489 130.474 181.954 131.591C182.539 130.102 184.525 129.375 187.274 130.385C187.604 130.048 187.999 129.779 188.434 129.596C188.87 129.413 189.338 129.318 189.81 129.318C190.283 129.318 190.75 129.413 191.186 129.596C191.621 129.779 192.016 130.048 192.346 130.385C193.552 129.162 195.751 129.091 198.322 130.385C198.62 130.078 198.991 129.85 199.4 129.723C199.809 129.596 200.243 129.573 200.663 129.658C201.497 129.818 202.224 130.439 203.377 131.733C203.756 131.453 204.199 131.269 204.665 131.198C205.132 131.127 205.609 131.171 206.054 131.325C206.915 131.64 207.621 132.275 208.023 133.098C209.903 132.673 211.995 133.967 213.343 136.361C213.692 136.135 214.092 135.999 214.507 135.965C214.922 135.931 215.338 136 215.72 136.166C216.511 136.601 217.135 137.287 217.493 138.117C218.947 138.117 220.33 139.163 221.696 141.273C222.105 141.178 222.532 141.195 222.931 141.323C223.331 141.451 223.689 141.685 223.966 142C224.527 142.851 224.812 143.854 224.782 144.873C225.501 144.679 226.262 144.71 226.963 144.961C227.297 145.178 227.574 145.472 227.771 145.817C227.968 146.162 228.081 146.55 228.098 146.947C228.486 147.239 228.933 147.444 229.407 147.548C229.881 147.652 230.372 147.653 230.847 147.55C231.361 148.206 230.279 149.075 230.403 149.891C230.468 150.123 230.59 150.335 230.757 150.508C230.924 150.682 231.132 150.811 231.361 150.884C231.819 151.025 232.242 151.26 232.602 151.576C232.54 152.331 232.67 153.089 232.98 153.781C233.29 154.472 233.77 155.074 234.376 155.53C234.269 156.08 233.95 156.611 234.128 157.143C234.305 157.675 235.103 157.924 235.741 157.995C235.904 158.797 235.745 159.631 235.298 160.318C235.951 160.919 236.392 161.715 236.555 162.588C236.718 163.46 236.594 164.362 236.203 165.159C236.557 166.276 236.894 167.393 237.249 168.492C237.506 169.165 237.626 169.882 237.604 170.602C237.468 171.409 237.084 172.153 236.504 172.73C236.877 173.104 237.188 173.535 237.426 174.007C237.54 174.245 237.599 174.506 237.599 174.769C237.599 175.033 237.54 175.294 237.426 175.532C237.142 176.046 236.522 176.312 236.256 176.826C236.15 177.1 236.122 177.397 236.175 177.685C236.228 177.973 236.361 178.241 236.557 178.458C237.109 178.968 237.571 179.567 237.923 180.231C237.054 180.142 236.415 181.1 236.344 182.004C236.274 182.909 236.593 183.778 236.557 184.593C236.553 185.071 236.403 185.536 236.128 185.925C235.852 186.315 235.463 186.611 235.014 186.774C235.398 187.384 235.554 188.108 235.457 188.821C235.36 189.535 235.015 190.191 234.482 190.675" stroke="#222120" stroke-linecap="round" stroke-linejoin="round"/>
<path d="M210.486 215.253C211.244 215.622 212.115 215.683 212.916 215.421C213.717 215.16 214.384 214.597 214.778 213.852C215.095 214.079 215.47 214.211 215.86 214.233C216.249 214.255 216.636 214.166 216.977 213.976C217.689 213.382 218.233 212.612 218.555 211.742C219.208 211.888 219.892 211.776 220.464 211.429C221.036 211.082 221.452 210.527 221.623 209.88C222.809 209.698 224.021 209.782 225.17 210.128C224.955 209.318 224.925 208.47 225.082 207.646C225.17 207.149 225.667 206.83 226.128 206.635C226.62 206.507 227.091 206.31 227.529 206.05C227.745 205.84 227.904 205.578 227.991 205.29C228.078 205.001 228.09 204.695 228.025 204.401C228.391 204.442 228.76 204.369 229.081 204.191C229.403 204.014 229.662 203.74 229.821 203.409C229.981 203.078 230.034 202.706 229.973 202.343C229.912 201.981 229.739 201.647 229.48 201.386C230.253 201.179 230.934 200.715 231.411 200.071C231.887 199.427 232.132 198.641 232.104 197.84C232.537 197.988 233.009 197.964 233.424 197.772C233.839 197.581 234.164 197.236 234.331 196.811C234.498 196.385 234.494 195.912 234.321 195.489C234.147 195.066 233.817 194.727 233.399 194.542C233.926 194.301 234.341 193.867 234.559 193.329C234.777 192.792 234.78 192.191 234.569 191.651" stroke="#222120" stroke-linecap="round" stroke-linejoin="round"/>
<path d="M151.646 175.479C152.602 171.518 154.208 167.743 156.399 164.308C159.649 159.245 163.979 154.964 169.079 151.771C169.31 151.993 169.597 152.148 169.91 152.22C170.222 152.292 170.548 152.277 170.853 152.179C171.47 151.95 172.104 151.772 172.75 151.647C173.028 151.629 173.306 151.629 173.584 151.647C174.453 151.647 175.357 151.806 176.563 151.842C176.724 151.981 176.922 152.07 177.133 152.098C177.344 152.126 177.559 152.093 177.751 152.002C178.138 151.828 178.552 151.72 178.975 151.682C179.662 151.801 180.288 152.151 180.748 152.675C181.06 152.938 181.422 153.133 181.813 153.249C182.204 153.365 182.614 153.399 183.018 153.349C183.539 153.947 184.219 154.384 184.979 154.61C185.739 154.836 186.547 154.841 187.31 154.626C187.832 155.477 188.541 156.199 189.382 156.736C190.224 157.274 191.177 157.613 192.169 157.729C192.674 158.277 193.284 158.717 193.964 159.022C194.644 159.327 195.379 159.49 196.124 159.502C196.542 161.046 197.239 162.5 198.181 163.794C199.485 166.098 200.215 168.683 200.309 171.33" stroke="#222120" stroke-linecap="round" stroke-linejoin="round"/>
<path d="M234.145 189.54C234.145 189.008 234.34 188.458 234.428 187.909" stroke="#222120" stroke-linecap="round" stroke-linejoin="round"/>
<path d="M196.424 175.479C198.197 178.653 198.197 182.572 197.967 186.118C197.736 189.665 197.559 193.637 199.19 196.917" stroke="#222120" stroke-linecap="round" stroke-linejoin="round"/>
<path d="M151.574 175.781C147.58 180.85 145.312 187.063 145.101 193.513C144.924 200.127 146.874 206.582 148.896 212.877C149.463 215.236 150.514 217.452 151.982 219.385C153.408 220.943 155.256 222.052 157.302 222.576C157.781 222.718 158.278 222.842 158.774 222.949C160.407 223.252 162.062 223.424 163.722 223.463C169.034 223.722 174.351 223.086 179.452 221.583C184.594 220.055 189.175 217.053 192.629 212.948C193.063 213.921 193.692 214.795 194.475 215.518C195.259 216.24 196.181 216.796 197.186 217.15C197.548 217.301 197.922 217.419 198.304 217.505C200.807 218.009 203.401 217.794 205.787 216.884C207.032 216.428 208.222 215.833 209.334 215.111C211.209 213.992 212.814 212.472 214.034 210.66C215.023 209.212 215.673 207.558 215.934 205.823C216.195 204.089 216.06 202.317 215.541 200.642C215.054 199.163 214.141 197.861 212.916 196.9C211.797 196.124 210.519 195.609 209.175 195.393C205.853 194.666 202.38 195.19 199.421 196.865" stroke="#222120" stroke-linecap="round" stroke-linejoin="round"/>
<path d="M212.12 208.444C212.677 207.583 212.974 206.579 212.974 205.554C212.974 204.528 212.677 203.525 212.12 202.663C211.564 201.805 210.83 201.077 209.966 200.53C209.103 199.982 208.132 199.627 207.119 199.489C205.078 199.221 203.003 199.567 201.16 200.482C201.034 200.521 200.917 200.585 200.817 200.671C200.716 200.756 200.634 200.861 200.575 200.979C200.468 201.334 200.77 201.653 201.107 201.866L201.408 202.007C202.738 202.557 204.122 203.018 205.434 203.657C206.759 204.254 207.903 205.189 208.75 206.369C209.218 207.041 209.499 207.824 209.566 208.639C209.63 209.242 209.545 209.851 209.318 210.413C209.045 211.096 208.54 211.662 207.891 212.009C207.242 212.356 206.491 212.463 205.771 212.31C205.217 212.114 204.713 211.798 204.296 211.384C203.879 210.97 203.559 210.469 203.359 209.916C202.88 208.852 202.632 207.699 202.135 206.636C201.915 206.09 201.572 205.603 201.132 205.212C200.692 204.821 200.167 204.538 199.599 204.383H199.351C199.211 204.367 199.068 204.389 198.94 204.449C198.811 204.508 198.702 204.602 198.624 204.72C198.376 205.199 198.908 205.678 199.262 206.068C199.699 206.576 199.94 207.224 199.94 207.895C199.94 208.565 199.699 209.213 199.262 209.721C198.794 210.201 198.167 210.494 197.498 210.547C196.829 210.599 196.164 210.406 195.627 210.005" stroke="#222120" stroke-width="0.5" stroke-linecap="round" stroke-linejoin="round"/>
<path d="M157.465 174.167C157.1 174.693 156.874 175.303 156.809 175.94" stroke="#222120" stroke-linecap="round" stroke-linejoin="round"/>
<path d="M176.599 177.056C176.258 177.492 176.043 178.013 175.979 178.563" stroke="#222120" stroke-linecap="round" stroke-linejoin="round"/>
<path d="M157.234 223.16C155.46 223.586 153.687 224.047 151.913 224.543C149.147 225.288 146.41 226.104 143.703 226.99C142.065 227.338 140.591 228.225 139.517 229.508C138.134 231.618 139.145 234.562 138.045 236.832C136.946 239.101 134.232 239.935 131.785 240.556C134.622 240.761 137.47 240.359 140.14 239.378C142.809 238.396 145.239 236.857 147.267 234.863" stroke="#222120" stroke-linecap="round" stroke-linejoin="round"/>
<path d="M141.432 230.928C142.435 230.453 143.58 230.371 144.641 230.7C145.702 231.028 146.601 231.742 147.16 232.702C147.565 233.337 147.87 234.03 148.064 234.758C148.41 236.173 148.535 237.632 148.437 239.085C148.197 241.275 148.299 243.488 148.738 245.646C149.172 247.103 149.982 248.419 151.088 249.462C152.193 250.505 153.554 251.238 155.034 251.586" stroke="#222120" stroke-linecap="round" stroke-linejoin="round"/>
<path d="M158.598 223.765C157.793 226.924 156.344 229.882 154.342 232.454" stroke="#222120" stroke-linecap="round" stroke-linejoin="round"/>
<path d="M154.465 229.119C154.341 230.218 154.164 231.3 153.969 232.381C153.374 235.038 152.971 237.735 152.763 240.45C152.603 244.28 153.561 248.411 156.487 250.876" stroke="#222120" stroke-linecap="round" stroke-linejoin="round"/>
<path d="M186.318 228.216C187.661 228.897 188.864 229.823 189.865 230.947C191.046 232.258 191.935 233.805 192.472 235.487C193.005 237.207 193.15 239.023 192.897 240.806C192.714 242.265 192.263 243.678 191.567 244.973C190.146 247.127 188.612 249.204 186.974 251.197C186.187 252.236 185.623 253.425 185.318 254.692C185.013 255.958 184.973 257.274 185.2 258.556C184.215 258.523 183.255 258.237 182.413 257.724C181.572 257.212 180.876 256.49 180.395 255.631C179.313 253.981 178.745 252.084 177.823 250.311C177.437 249.403 176.863 248.587 176.139 247.918C175.414 247.248 174.556 246.74 173.62 246.427C172.592 246.289 171.546 246.36 170.546 246.637C169.546 246.915 168.613 247.392 167.803 248.041C165.906 249.282 164.256 250.754 162.288 251.978C160.477 253.225 158.377 253.988 156.187 254.194H155.975" stroke="#222120" stroke-linecap="round" stroke-linejoin="round"/>
<path d="M189.847 230.947C190.237 232.72 189.847 236.266 188.553 237.437C187.169 238.648 185.505 239.496 183.711 239.902L182.665 240.168C177.345 241.356 171.652 241.036 166.988 243.714C164.275 245.292 162.2 247.775 159.593 249.512C158.652 250.116 157.681 250.673 156.684 251.179L155.975 251.552L155.248 251.96C154.759 252.222 154.285 252.512 153.829 252.828C150.848 255.167 148.501 258.215 147.002 261.695C145.317 265.046 143.951 268.575 141.947 271.731" stroke="#222120" stroke-linecap="round" stroke-linejoin="round"/>
<path d="M197.029 217.488C196.725 217.824 196.353 218.09 195.936 218.268C195.52 218.445 195.069 218.53 194.617 218.516C193.804 218.39 193.003 218.195 192.223 217.931C187.02 224.133 183.702 231.696 182.664 239.724L182.824 239.582" stroke="#222120" stroke-linecap="round" stroke-linejoin="round"/>
<path d="M188.02 260.736C185.568 265.007 184.301 269.856 184.349 274.78" stroke="#222120" stroke-linecap="round" stroke-linejoin="round"/>
<path d="M203.218 263.289C197.654 266.719 192.757 271.129 188.764 276.304C188.197 277.049 187.647 277.794 187.115 278.556" stroke="#222120" stroke-linecap="round" stroke-linejoin="round"/>
<path d="M196.25 298.719C198.189 302.488 201.021 305.725 204.498 308.148C207.976 310.571 211.994 312.107 216.201 312.621" stroke="#222120" stroke-linecap="round" stroke-linejoin="round"/>
<path d="M197.4 283.948L223.292 311.362" stroke="#222120" stroke-linecap="round" stroke-linejoin="round"/>
<path d="M193.41 240.876C198.996 248.714 208.998 252.491 214.478 260.382C218.557 266.269 219.621 273.698 220.118 280.827C220.614 287.955 220.739 295.314 223.275 301.999C224.317 304.592 225.501 307.126 226.821 309.589C227.247 310.44 227.655 311.362 228.045 312.125C229.796 315.504 230.57 319.306 230.279 323.101C229.091 325.376 227.234 327.232 224.959 328.421" stroke="#222120" stroke-linecap="round" stroke-linejoin="round"/>
<path d="M230.351 323.155C230.032 321.556 229.103 320.145 227.761 319.218C226.425 318.304 224.936 317.637 223.363 317.25L222.707 317.09C218.418 315.99 213.94 315.832 209.584 316.629" stroke="#222120" stroke-linecap="round" stroke-linejoin="round"/>
<path d="M199.885 311.894H199.991H200.168L209.532 316.593L215.775 319.731C218.02 320.583 219.926 322.146 221.201 324.182" stroke="#222120" stroke-linecap="round" stroke-linejoin="round"/>
<path d="M222.617 317.463C223.447 321.139 224.086 324.856 224.532 328.599C224.836 331.237 224.866 333.899 224.62 336.543C224.501 338.5 224.001 340.416 223.149 342.182C222.287 343.961 220.767 345.334 218.91 346.012C217.99 346.317 217.002 346.356 216.061 346.123C215.119 345.891 214.263 345.398 213.59 344.7" stroke="#222120" stroke-linecap="round" stroke-linejoin="round"/>
<path d="M215.081 344.344L213.591 344.185C208.795 343.576 204.232 341.76 200.33 338.907C196.428 336.054 193.315 332.256 191.281 327.871" stroke="#222120" stroke-linecap="round" stroke-linejoin="round"/>
<path d="M188.676 322.764C187.694 323.612 186.424 324.05 185.129 323.988C184.721 323.988 184.295 323.988 183.888 323.846C179.477 323.373 175.174 322.175 171.154 320.299C167.914 318.921 165.077 316.743 162.908 313.969C161.85 312.567 161.155 310.925 160.885 309.189C160.616 307.453 160.781 305.678 161.365 304.021" stroke="#222120" stroke-linecap="round" stroke-linejoin="round"/>
<path d="M165.94 310.404C164.598 308.812 163.411 307.096 162.393 305.28C162.146 304.833 161.927 304.371 161.737 303.897C161.118 302.436 160.85 300.851 160.956 299.268C161.017 298.22 161.325 297.202 161.855 296.296C162.385 295.389 163.123 294.622 164.007 294.055" stroke="#222120" stroke-linecap="round" stroke-linejoin="round"/>
<path d="M170.676 303.612C169.786 301.618 168.589 299.775 167.129 298.151C166.064 296.884 165.245 295.428 164.717 293.859C164.57 293.334 164.492 292.791 164.487 292.246C164.479 291.369 164.668 290.501 165.04 289.707C165.411 288.912 165.955 288.21 166.632 287.653C167.192 287.189 167.845 286.85 168.548 286.66C169.614 286.377 170.742 286.433 171.775 286.82H171.882C172.342 288.524 173.314 290.047 174.666 291.182C176.015 292.315 177.477 293.307 179.029 294.143" stroke="#222120" stroke-linecap="round" stroke-linejoin="round"/>
<path d="M171.67 287.034C171.67 287.034 171.67 286.892 171.67 286.821C171.772 285.271 172.398 283.802 173.443 282.654C174.04 282.201 174.734 281.895 175.47 281.76C176.206 281.624 176.964 281.663 177.682 281.873C179.137 282.301 180.514 282.96 181.761 283.824L186.921 287.016C187.8 287.499 188.61 288.095 189.333 288.789C191.107 290.669 191.284 293.453 191.426 296.006" stroke="#222120" stroke-linecap="round" stroke-linejoin="round"/>
<path d="M168.335 285.792C167.551 285.277 166.905 284.577 166.455 283.753C166.247 283.336 166.195 282.858 166.309 282.406C166.423 281.954 166.695 281.557 167.076 281.288C167.945 280.827 168.991 281.288 169.984 281.288C171.285 281.101 172.458 280.406 173.247 279.356C174.035 278.302 175.123 277.51 176.369 277.086C177.674 276.985 178.976 277.315 180.075 278.026L185.91 280.934L186.832 281.395C188.737 282.213 190.484 283.36 191.993 284.782C192.249 285.048 192.486 285.333 192.702 285.633C194.179 287.832 194.986 290.413 195.025 293.063C195.01 296.06 194.844 299.054 194.528 302.035C194.385 303.985 194.493 305.946 194.848 307.869C195.055 308.899 195.389 309.9 195.841 310.848" stroke="#222120" stroke-linecap="round" stroke-linejoin="round"/>
<path d="M180.783 291.271C181.209 292.38 181.807 293.416 182.557 294.338" stroke="#222120" stroke-linecap="round" stroke-linejoin="round"/>
<path d="M172.73 299.71C172.771 300.801 173.17 301.848 173.865 302.689" stroke="#222120" stroke-linecap="round" stroke-linejoin="round"/>
<path d="M167.396 306.841C167.328 307.705 167.462 308.573 167.786 309.377C167.878 309.596 167.985 309.809 168.105 310.015" stroke="#222120" stroke-linecap="round" stroke-linejoin="round"/>
<path d="M189.776 315.564C189.723 315.477 189.687 315.381 189.67 315.28C189.638 315.102 189.655 314.919 189.72 314.751C189.784 314.582 189.893 314.434 190.036 314.323C190.178 314.211 190.348 314.141 190.527 314.119C190.706 314.097 190.888 314.125 191.053 314.198C191.162 314.24 191.259 314.307 191.337 314.394C191.531 314.527 191.671 314.725 191.732 314.952C191.793 315.179 191.772 315.421 191.672 315.633C191.572 315.846 191.4 316.017 191.186 316.115C190.972 316.212 190.73 316.231 190.503 316.167C190.342 316.135 190.191 316.063 190.064 315.957C189.937 315.852 189.838 315.717 189.776 315.564Z" stroke="#222120" stroke-width="0.5" stroke-linecap="round" stroke-linejoin="round"/>
<path d="M193.02 322.905C192.188 322.076 191.631 321.012 191.424 319.855C191.439 318.671 191.879 317.532 192.665 316.646C193.397 315.521 194.492 314.683 195.769 314.27C196.405 314.132 197.065 314.161 197.687 314.353C198.308 314.546 198.869 314.896 199.316 315.369C199.742 315.847 200.061 316.411 200.251 317.023C200.441 317.635 200.497 318.28 200.415 318.916C200.191 320.216 199.481 321.382 198.429 322.178C197.371 322.964 196.093 323.398 194.776 323.419C194.463 323.465 194.145 323.442 193.842 323.354C193.539 323.265 193.259 323.112 193.02 322.905Z" stroke="#222120" stroke-width="0.5" stroke-linecap="round" stroke-linejoin="round"/>
<path d="M189.473 315.795C188.842 316.871 188.505 318.094 188.497 319.341C188.391 320.349 188.563 321.367 188.994 322.285C189.025 322.356 189.067 322.422 189.118 322.48C189.475 323.064 189.953 323.566 190.519 323.952C191.57 324.679 192.793 325.12 194.066 325.228C194.819 325.302 195.578 325.26 196.318 325.104C197.293 324.895 198.217 324.494 199.036 323.924C199.855 323.355 200.553 322.629 201.089 321.788C202.168 320.081 202.543 318.021 202.135 316.043C201.94 314.947 201.442 313.928 200.699 313.099C200.44 312.834 200.155 312.596 199.847 312.39C198.696 311.65 197.322 311.336 195.964 311.504H195.804C194.037 311.822 192.427 312.721 191.229 314.057" stroke="#222120" stroke-width="0.5" stroke-linecap="round" stroke-linejoin="round"/>
<path d="M195.094 307.868C195.55 307.84 196.008 307.906 196.438 308.062C196.868 308.217 197.261 308.459 197.594 308.772C198.724 309.614 199.612 310.74 200.166 312.035" stroke="#222120" stroke-linecap="round" stroke-linejoin="round"/>
<path d="M183.852 324.644C184.578 325.779 185.62 326.679 186.849 327.233C187.245 327.43 187.67 327.561 188.108 327.623C188.467 327.667 188.83 327.667 189.19 327.623H189.668C190.167 327.573 190.659 327.478 191.14 327.339C191.493 327.268 191.838 327.161 192.169 327.02C192.873 326.779 193.49 326.334 193.942 325.743" stroke="#222120" stroke-linecap="round" stroke-linejoin="round"/>
<path d="M197.348 173.316L198.11 174.273C198.358 174.593 198.589 174.93 198.82 175.284C199.265 175.971 199.674 176.681 200.043 177.412" stroke="#222120" stroke-width="0.5" stroke-linecap="round" stroke-linejoin="round"/>
<path d="M198.412 171.33L198.944 172.252C199.352 172.961 199.778 173.67 200.256 174.344C200.451 174.663 200.664 174.983 200.877 175.284" stroke="#222120" stroke-width="0.5" stroke-linecap="round" stroke-linejoin="round"/>
<path d="M23.498 49.8281C30.7099 56.0463 37.7031 62.5127 44.4776 69.2273C51.323 76.0188 57.9555 83.0585 64.3044 90.3288" stroke="#222120" stroke-width="0.5" stroke-linecap="round" stroke-linejoin="round"/>
<path d="M43.4688 70.2551L44.4796 69.2267C53.8567 59.7151 64.1982 51.2051 75.337 43.834" stroke="#222120" stroke-width="0.5" stroke-linecap="round" stroke-linejoin="round"/>
<path d="M58.1325 56.4412C57.2468 53.6274 55.7442 51.0467 53.7344 48.8872C53.4495 48.5594 53.0892 48.3058 52.6845 48.1482C52.2798 47.9907 51.8427 47.9339 51.4112 47.9829C50.9839 48.1347 50.6194 48.4247 50.3753 48.8068C50.1312 49.189 50.0215 49.6415 50.0634 50.093C50.1789 51.0017 50.5546 51.8577 51.1452 52.5579C51.9244 53.707 52.9627 54.657 54.1763 55.3316C55.3899 56.0061 56.745 56.3862 58.1325 56.4412Z" stroke="#222120" stroke-width="0.5" stroke-linecap="round" stroke-linejoin="round"/>
<path d="M63.6855 52.5234C64.3024 54.5739 65.1722 56.5396 66.2747 58.3752C66.7005 59.1681 67.3083 59.8487 68.0481 60.3612C68.4311 60.6002 68.8735 60.7268 69.325 60.7268C69.7765 60.7268 70.2189 60.6002 70.6019 60.3612C70.9453 60.0738 71.1983 59.6932 71.3304 59.2654C71.4626 58.8375 71.4682 58.3805 71.3467 57.9495C71.0905 57.0875 70.5992 56.3139 69.928 55.7153C68.2037 54.0645 66.0335 52.9548 63.6855 52.5234Z" stroke="#222120" stroke-width="0.5" stroke-linecap="round" stroke-linejoin="round"/>
<path d="M78.1373 35.6592C77.7737 36.5712 77.6323 37.5565 77.7248 38.5339C77.8173 39.5113 78.1411 40.4527 78.6693 41.2803C79.2128 42.0967 79.9404 42.774 80.7937 43.2576C81.647 43.7411 82.602 44.0175 83.5817 44.0643" stroke="#222120" stroke-width="0.5" stroke-linecap="round" stroke-linejoin="round"/>
<path d="M86.4914 33.1411C85.4594 33.7111 84.5156 34.4279 83.6895 35.269H83.8313" stroke="#222120" stroke-width="0.5" stroke-linecap="round" stroke-linejoin="round"/>
<path d="M89.7004 37.5928C88.7941 38.3375 87.7768 38.9358 86.6855 39.366" stroke="#222120" stroke-width="0.5" stroke-linecap="round" stroke-linejoin="round"/>
<path d="M84.7696 27.6621H84.5391C83.603 27.7964 82.6823 28.0221 81.7903 28.3359C81.2353 28.5102 80.6956 28.7296 80.1765 28.992C79.0115 29.5148 77.9204 30.1885 76.9311 30.9958C76.4886 31.3414 76.0735 31.7207 75.6897 32.1306L75.1932 32.6271C74.714 33.1737 74.2921 33.7678 73.9341 34.4004C73.5952 34.9513 73.3383 35.5487 73.1715 36.1736C73.1139 36.372 73.0665 36.5733 73.0296 36.7766C72.8964 37.5332 72.8964 38.3073 73.0296 39.064C73.0982 39.4769 73.2112 39.8811 73.3666 40.2698C73.6109 41.0359 73.938 41.7732 74.342 42.4686L74.608 42.9119C74.8208 43.2843 75.0513 43.6566 75.2996 44.0113C75.4862 44.3093 75.6936 44.5938 75.9203 44.8625C76.5895 45.7501 77.3569 46.5591 78.208 47.2741C78.586 47.5877 78.9828 47.8778 79.3962 48.1429C79.5912 48.2848 79.8218 48.4089 80.0346 48.533C80.7496 48.9259 81.5046 49.2411 82.2868 49.4729C82.9635 49.6726 83.6587 49.8033 84.3618 49.8629C85.1206 49.9694 85.8906 49.9694 86.6495 49.8629C87.157 49.779 87.6557 49.6485 88.1391 49.4729C88.4543 49.3552 88.7622 49.219 89.0613 49.0651C90.0489 48.5355 90.9467 47.8532 91.7214 47.0436C92.4318 46.3021 93.0618 45.4879 93.6012 44.6142L93.6899 44.4901C94.3471 43.5024 94.7994 42.3929 95.02 41.2273C95.1894 39.6169 94.9325 37.9904 94.2752 36.5105C93.9583 35.6906 93.5788 34.8961 93.1401 34.1344C92.5617 33.1171 91.8588 32.176 91.0475 31.3327C90.8524 31.1199 90.6396 30.9071 90.4268 30.712L89.5401 29.985C88.8286 29.4641 88.0613 29.024 87.2524 28.6729C86.4857 28.2025 85.6469 27.8611 84.7696 27.6621Z" stroke="#222120" stroke-width="0.5" stroke-linecap="round" stroke-linejoin="round"/>
<path d="M84.7696 27.6269C84.937 25.3174 84.5097 23.0036 83.5283 20.9063C83.2306 20.1584 82.7702 19.486 82.1805 18.938C81.8655 18.6216 81.4635 18.406 81.0257 18.3186C80.5879 18.2311 80.134 18.2757 79.7216 18.4467C79.3092 18.6177 78.9569 18.9075 78.7095 19.2791C78.4621 19.6507 78.3308 20.0875 78.3322 20.5339C78.2752 21.4993 78.4644 22.4634 78.8819 23.3357C79.571 25.0449 80.5223 26.6362 81.7017 28.0524" stroke="#222120" stroke-width="0.5" stroke-linecap="round" stroke-linejoin="round"/>
<path d="M80.1403 28.8149C79.2375 26.8088 77.9956 24.9733 76.4694 23.3888C75.7389 22.508 74.7438 21.8862 73.6319 21.6156C73.0763 21.5036 72.499 21.6034 72.0133 21.8955C71.5276 22.1875 71.1688 22.6506 71.0073 23.1938C70.9575 23.9101 71.165 24.6207 71.5925 25.1976C73.0049 27.2691 74.7275 29.1112 76.6999 30.6592" stroke="#222120" stroke-width="0.5" stroke-linecap="round" stroke-linejoin="round"/>
<path d="M75.6372 32.043C74.2563 30.3847 72.4821 29.0984 70.4765 28.3015C69.7892 27.9857 69.0306 27.8572 68.2775 27.9291C67.9018 27.9662 67.5463 28.1167 67.2581 28.3606C66.9698 28.6044 66.7626 28.9301 66.6637 29.2945C66.6483 29.7325 66.7444 30.1673 66.9429 30.5581C67.1414 30.9488 67.4359 31.2829 67.7987 31.5288C69.4078 32.9308 71.4059 33.8091 73.5268 34.0467" stroke="#222120" stroke-width="0.5" stroke-linecap="round" stroke-linejoin="round"/>
<path d="M72.6929 35.836C70.4757 34.9549 68.0805 34.6145 65.7056 34.843C65.0769 34.897 64.4696 35.0975 63.9322 35.4282C63.6652 35.5949 63.44 35.8207 63.2739 36.0882C63.1079 36.3557 63.0055 36.6576 62.9746 36.9709C62.9791 37.3259 63.0723 37.674 63.2458 37.9837C63.4192 38.2934 63.6674 38.5549 63.9677 38.7442C64.5641 39.0986 65.2291 39.3223 65.9185 39.4002C68.2858 39.7968 70.7126 39.6452 73.0122 38.9569" stroke="#222120" stroke-width="0.5" stroke-linecap="round" stroke-linejoin="round"/>
<path d="M73.2067 40.1631C71.9116 40.3007 70.6376 40.5924 69.4116 41.032C68.0549 41.4937 66.8849 42.3836 66.0776 43.5677C65.8632 43.8497 65.7245 44.1819 65.6748 44.5326C65.6251 44.8834 65.6661 45.241 65.7938 45.5714C65.9351 45.7846 66.1207 45.9646 66.338 46.0993C66.5554 46.2339 66.7992 46.3201 67.053 46.3517C67.5681 46.3991 68.0876 46.3388 68.5781 46.1744C70.7879 45.5711 72.8117 44.4251 74.4658 42.8407" stroke="#222120" stroke-width="0.5" stroke-linecap="round" stroke-linejoin="round"/>
<path d="M75.8863 44.7388C74.0653 45.8725 72.4862 47.3549 71.24 49.1009C70.9042 49.5251 70.646 50.0054 70.4774 50.5195C70.4046 50.7804 70.3859 51.0534 70.4225 51.3217C70.4591 51.5901 70.5502 51.848 70.6902 52.0799C70.9141 52.3495 71.2082 52.5519 71.54 52.6645C71.8718 52.7772 72.2283 52.7958 72.5701 52.7183C73.2299 52.547 73.8384 52.2184 74.3435 51.7607C75.8531 50.5617 77.092 49.057 77.979 47.3454" stroke="#222120" stroke-width="0.5" stroke-linecap="round" stroke-linejoin="round"/>
<path d="M79.3291 48.1431C78.2224 49.4262 77.3788 50.9144 76.8463 52.5229C76.5087 53.3538 76.3867 54.2567 76.4916 55.1474C76.5524 55.5916 76.7308 56.0116 77.0082 56.3639C77.2857 56.7161 77.6522 56.9879 78.0699 57.1511C78.6289 57.2751 79.213 57.2141 79.7343 56.9774C80.2557 56.7408 80.686 56.3413 80.9606 55.839C81.4957 54.83 81.8043 53.7165 81.865 52.5762L82.2374 49.5794" stroke="#222120" stroke-width="0.5" stroke-linecap="round" stroke-linejoin="round"/>
<path d="M84.3817 49.8621C83.7731 51.061 83.4737 52.393 83.5109 53.7371C83.5481 55.0811 83.9206 56.3945 84.5945 57.558C84.7119 57.8198 84.8856 58.0524 85.1033 58.2394C85.3209 58.4264 85.5771 58.563 85.8537 58.6396C86.1872 58.6453 86.5155 58.5567 86.8009 58.3842C87.0864 58.2117 87.3174 57.9622 87.4675 57.6644C88.1219 56.4146 88.2742 54.962 87.8931 53.6037C87.6093 52.2383 87.0418 50.9438 86.6872 49.5962" stroke="#222120" stroke-width="0.5" stroke-linecap="round" stroke-linejoin="round"/>
<path d="M89.0098 48.7638C89.964 51.5095 91.7804 53.8732 94.1882 55.5021C94.6451 55.8687 95.2162 56.0633 95.8019 56.0518C96.1455 55.9956 96.4649 55.8395 96.7203 55.603C96.9758 55.3665 97.156 55.0601 97.2384 54.7219C97.3993 54.0363 97.3435 53.3175 97.0788 52.6649C96.1743 50.0405 94.2413 48.6929 91.9891 47.0615" stroke="#222120" stroke-width="0.5" stroke-linecap="round" stroke-linejoin="round"/>
<path d="M5.42773 58.8001C10.8189 54.9108 16.2456 51.0688 21.7077 47.2741C42.3621 32.8636 63.3829 18.991 84.7703 5.65625" stroke="#222120" stroke-width="0.5" stroke-linecap="round" stroke-linejoin="round"/>
<path d="M3.47632 61.8853C3.37449 63.9984 4.09239 66.0692 5.48029 67.666C5.5452 65.5584 4.83184 63.5006 3.47632 61.8853Z" stroke="#222120" stroke-width="0.5" stroke-linecap="round" stroke-linejoin="round"/>
<path d="M5.98047 67.5776C7.47208 68.8478 8.81648 70.2812 9.98841 71.8511C21.4359 85.9485 34.3214 98.8148 48.4361 110.242C49.4469 110.809 50.6706 110.064 51.5927 109.355L89.1714 80.2385" stroke="#222120" stroke-width="0.5" stroke-linecap="round" stroke-linejoin="round"/>
<path d="M102.256 71.2303C110.68 64.8608 119.435 58.9418 128.485 53.4979C128.081 53.0782 127.769 52.5795 127.567 52.0333C127.366 51.487 127.28 50.9049 127.314 50.3238C127.305 50.1525 127.305 49.9809 127.314 49.8096" stroke="#222120" stroke-width="0.5" stroke-linecap="round" stroke-linejoin="round"/>
<path d="M93.8164 44.2599C95.7709 46.3294 98.2745 47.7994 101.034 48.4979C101.71 48.7462 102.451 48.7462 103.127 48.4979C103.603 48.2125 103.959 47.7636 104.129 47.2351C104.298 46.7066 104.27 46.1345 104.049 45.6253C103.567 44.6162 102.779 43.7847 101.797 43.2491C99.8171 42.0201 97.587 41.2506 95.2706 40.9971" stroke="#222120" stroke-width="0.5" stroke-linecap="round" stroke-linejoin="round"/>
<path d="M95.0195 38.4615C97.7814 38.9421 100.624 38.603 103.195 37.4863C103.633 37.3566 104.035 37.1297 104.373 36.8227C104.711 36.5157 104.975 36.1363 105.146 35.713C105.221 35.2436 105.138 34.7626 104.91 34.3453C104.682 33.9281 104.322 33.5983 103.887 33.4078C103 33.0389 102.02 32.9582 101.085 33.1773C98.801 33.6941 96.6074 34.5488 94.5762 35.713L95.0195 38.4615Z" stroke="#222120" stroke-width="0.5" stroke-linecap="round" stroke-linejoin="round"/>
<path d="M93.6558 33.7267C95.6927 33.1187 97.6465 32.261 99.4726 31.1732C100.065 30.8517 100.599 30.432 101.051 29.9319C101.264 29.6909 101.427 29.4102 101.53 29.1058C101.634 28.8014 101.676 28.4794 101.654 28.1587C101.562 27.7544 101.359 27.384 101.068 27.0894C100.776 26.7947 100.408 26.5877 100.005 26.4918C99.198 26.304 98.351 26.4044 97.6106 26.7756C96.8682 27.1343 96.1716 27.5808 95.5357 28.1055L91.7051 30.9959" stroke="#222120" stroke-width="0.5" stroke-linecap="round" stroke-linejoin="round"/>
<path d="M89.6119 29.6485C90.8538 28.447 91.9168 27.0735 92.7686 25.5701C93.1935 24.8157 93.4514 23.9787 93.5248 23.116C93.5982 22.2533 93.4855 21.385 93.1942 20.5696C93.0566 20.1604 92.8109 19.7961 92.4831 19.5151C92.1553 19.2342 91.7576 19.047 91.3322 18.9736C90.9614 18.994 90.5996 19.0951 90.2718 19.2696C89.9441 19.4442 89.6584 19.6881 89.4346 19.9844C88.5004 21.1066 87.8876 22.4609 87.6612 23.9033C87.4273 25.3331 87.3264 26.7815 87.3597 28.23" stroke="#222120" stroke-width="0.5" stroke-linecap="round" stroke-linejoin="round"/>
<path d="M153.435 256.587C153.183 256.659 152.958 256.803 152.788 257.002C152.618 257.202 152.51 257.447 152.478 257.707C152.447 257.967 152.493 258.23 152.611 258.464C152.728 258.698 152.913 258.893 153.14 259.022C153.368 259.152 153.629 259.212 153.89 259.194C154.152 259.176 154.402 259.081 154.61 258.921C154.817 258.761 154.973 258.544 155.058 258.296C155.142 258.048 155.152 257.781 155.085 257.527C154.982 257.19 154.753 256.905 154.447 256.73C154.14 256.555 153.778 256.504 153.435 256.587Z" stroke="#222120" stroke-linecap="round" stroke-linejoin="round"/>
<path d="M88.1568 71.3013C88.0415 72.0772 88.0415 72.866 88.1568 73.642C88.231 74.0185 88.3891 74.3734 88.6194 74.6804C88.8496 74.9874 89.1462 75.2385 89.4869 75.4152C89.9844 75.6013 90.5327 75.5996 91.029 75.4102C91.5253 75.2209 91.9355 74.8569 92.1825 74.3867C92.409 73.9047 92.5021 73.3709 92.4522 72.8407C92.4023 72.3106 92.2112 71.8034 91.8987 71.3722" stroke="#222120" stroke-linecap="round" stroke-linejoin="round"/>
</svg>
