<svg width="184" height="287" viewBox="0 0 184 287" fill="none" xmlns="http://www.w3.org/2000/svg">
<path d="M151.934 134.48L153.152 133.46C152.786 132.944 152.993 133.435 152.68 132.892L153.794 132.24C153.722 130.213 153.163 128.234 152.164 126.469C151.443 125.479 150.91 124.365 150.589 123.183C150.019 123.174 149.456 123.048 148.936 122.815C148.415 122.582 147.948 122.245 147.561 121.825C146.802 121.737 146.072 121.477 145.428 121.065C144.783 120.653 144.241 120.101 143.841 119.449C143.257 119.614 142.638 119.609 142.056 119.436C141.474 119.263 140.954 118.929 140.555 118.471C140.245 118.509 139.931 118.483 139.632 118.394C139.333 118.306 139.055 118.156 138.817 117.955C138.464 117.554 137.985 117.286 137.459 117.195C137.135 117.223 136.818 117.306 136.522 117.439C136.375 117.509 136.21 117.535 136.049 117.513C135.887 117.491 135.736 117.423 135.612 117.317C134.675 117.317 133.996 117.236 133.331 117.168C133.118 117.154 132.905 117.154 132.693 117.168C132.198 117.264 131.712 117.4 131.24 117.575C131.006 117.651 130.757 117.661 130.518 117.606C130.279 117.551 130.059 117.433 129.882 117.263C125.959 119.684 122.62 122.944 120.106 126.808L119.535 126.442C119.314 126.256 119.133 126.027 119.003 125.769C118.873 125.511 118.797 125.23 118.779 124.941C118.762 124.653 118.803 124.364 118.9 124.092C118.997 123.82 119.149 123.571 119.345 123.359C118.957 122.76 118.788 122.046 118.864 121.336C118.941 120.627 119.259 119.965 119.766 119.462C119.604 119.204 119.496 118.915 119.451 118.614C119.405 118.312 119.423 118.005 119.502 117.71C119.581 117.416 119.72 117.141 119.91 116.902C120.101 116.664 120.338 116.468 120.608 116.326C120.427 116.031 120.319 115.697 120.293 115.353C120.267 115.008 120.324 114.662 120.459 114.343C120.823 113.636 121.424 113.079 122.156 112.768C121.776 111.75 122.36 110.473 123.989 109.727C123.937 109.419 123.955 109.104 124.043 108.805C124.13 108.505 124.284 108.23 124.493 107.999C124.702 107.767 124.961 107.586 125.25 107.469C125.539 107.352 125.85 107.302 126.162 107.323C126.235 106.997 126.372 106.69 126.567 106.418C126.762 106.147 127.009 105.918 127.294 105.744C127.579 105.571 127.896 105.456 128.227 105.408C128.557 105.36 128.894 105.378 129.217 105.463C129.301 105.161 129.445 104.879 129.639 104.633C129.833 104.388 130.075 104.183 130.349 104.031C130.623 103.88 130.925 103.784 131.236 103.75C131.548 103.716 131.863 103.745 132.163 103.834C132.53 103.218 133.082 102.733 133.74 102.45C134.399 102.168 135.13 102.1 135.829 102.258C136.386 101.281 137.744 100.901 139.631 101.756C140.08 100.615 141.6 100.059 143.705 100.833C143.958 100.574 144.26 100.369 144.593 100.228C144.927 100.088 145.285 100.016 145.647 100.016C146.008 100.016 146.367 100.088 146.7 100.228C147.033 100.369 147.335 100.574 147.588 100.833C148.512 99.8958 150.195 99.8415 152.164 100.833C152.392 100.597 152.676 100.423 152.989 100.325C153.303 100.228 153.635 100.211 153.957 100.276C154.595 100.398 155.152 100.873 156.034 101.865C156.325 101.65 156.664 101.51 157.021 101.455C157.378 101.401 157.743 101.434 158.085 101.552C158.744 101.793 159.284 102.28 159.592 102.91C161.031 102.584 162.633 103.576 163.665 105.409C163.933 105.235 164.239 105.131 164.556 105.105C164.874 105.079 165.193 105.132 165.485 105.259C166.091 105.592 166.569 106.118 166.843 106.753C167.956 106.753 169.015 107.554 170.061 109.17C170.374 109.097 170.701 109.11 171.007 109.208C171.313 109.306 171.587 109.485 171.799 109.727C172.229 110.378 172.447 111.146 172.424 111.926C172.974 111.778 173.557 111.802 174.094 111.994C174.349 112.16 174.561 112.385 174.712 112.649C174.863 112.914 174.949 113.211 174.963 113.515C175.26 113.738 175.602 113.895 175.965 113.975C176.328 114.054 176.704 114.055 177.067 113.977C177.461 114.479 176.633 115.144 176.728 115.769C176.778 115.947 176.871 116.109 176.999 116.242C177.127 116.374 177.286 116.473 177.461 116.529C177.812 116.637 178.136 116.818 178.412 117.059C178.364 117.637 178.463 118.218 178.701 118.748C178.938 119.277 179.306 119.738 179.77 120.087C179.688 120.508 179.444 120.915 179.579 121.323C179.715 121.73 180.326 121.92 180.815 121.974C180.94 122.589 180.818 123.228 180.476 123.753C180.975 124.214 181.313 124.824 181.438 125.492C181.563 126.16 181.468 126.85 181.168 127.46C181.44 128.316 181.698 129.171 181.969 130.013C182.166 130.528 182.258 131.077 182.241 131.629C182.137 132.246 181.843 132.816 181.399 133.258C181.685 133.545 181.923 133.875 182.105 134.236C182.192 134.418 182.237 134.618 182.237 134.82C182.237 135.022 182.192 135.221 182.105 135.404C181.888 135.797 181.413 136.001 181.209 136.395C181.128 136.604 181.106 136.832 181.147 137.052C181.188 137.273 181.289 137.478 181.44 137.644C181.862 138.035 182.216 138.494 182.485 139.002C181.82 138.934 181.331 139.667 181.277 140.36C181.222 141.052 181.467 141.718 181.44 142.342C181.437 142.708 181.322 143.064 181.111 143.362C180.9 143.661 180.602 143.888 180.258 144.012C180.552 144.479 180.672 145.034 180.597 145.58C180.523 146.126 180.259 146.629 179.851 147V147.706C180.013 148.119 180.01 148.579 179.843 148.991C179.676 149.402 179.359 149.734 178.955 149.919C179.275 150.061 179.527 150.321 179.66 150.644C179.793 150.968 179.796 151.331 179.668 151.656C179.541 151.982 179.292 152.246 178.974 152.393C178.657 152.54 178.295 152.558 177.964 152.445C177.985 153.058 177.797 153.66 177.432 154.153C177.068 154.646 176.546 155.001 175.954 155.16C176.153 155.36 176.285 155.616 176.332 155.893C176.378 156.171 176.338 156.456 176.216 156.709C176.093 156.963 175.895 157.172 175.649 157.308C175.403 157.444 175.12 157.5 174.84 157.469C174.89 157.694 174.881 157.928 174.814 158.149C174.747 158.37 174.626 158.571 174.46 158.732C174.125 158.93 173.764 159.081 173.388 159.18C173.035 159.329 172.654 159.573 172.587 159.954C172.467 160.584 172.49 161.234 172.654 161.855C171.775 161.59 170.847 161.525 169.939 161.664C169.807 162.16 169.489 162.585 169.051 162.85C168.613 163.116 168.089 163.202 167.59 163.09C167.343 163.756 166.926 164.346 166.381 164.801C166.12 164.946 165.824 165.015 165.525 164.998C165.227 164.981 164.94 164.88 164.697 164.706C164.396 165.276 163.885 165.707 163.271 165.907C162.658 166.108 161.991 166.061 161.411 165.779H160.529C161.965 164.922 163.193 163.758 164.127 162.371C164.885 161.261 165.382 159.995 165.582 158.667C165.782 157.338 165.679 155.982 165.281 154.699C164.909 153.566 164.209 152.569 163.272 151.834C162.415 151.24 161.436 150.845 160.407 150.679C157.863 150.123 155.204 150.525 152.938 151.806H152.762C151.513 149.294 151.676 146.375 151.825 143.537C151.974 140.699 152.056 137.753 150.644 135.39L151.934 134.48C152.232 134.684 151.757 134.209 151.934 134.48Z" fill="#1D1D1B"/>
<path d="M175.034 240.012C176.375 242.6 176.968 245.511 176.745 248.417C176.501 247.193 175.79 246.112 174.763 245.403C173.74 244.702 172.599 244.192 171.395 243.896L170.893 243.773C167.608 242.931 164.18 242.81 160.845 243.42V243.502L153.621 239.917C153.197 238.925 152.517 238.063 151.652 237.419C151.397 237.179 151.096 236.994 150.766 236.874C150.437 236.755 150.087 236.705 149.737 236.726H149.547C149.276 235.254 149.193 233.752 149.303 232.259C149.545 229.976 149.672 227.683 149.683 225.388C149.653 223.359 149.035 221.383 147.904 219.699L151.503 218.341L171.327 239.333L174.043 237.975C174.423 238.722 174.735 239.36 175.034 240.012Z" fill="#C9C9C9"/>
<path d="M174.745 245.43C175.772 246.139 176.483 247.22 176.727 248.445C175.817 250.186 174.395 251.608 172.654 252.518H172.3C171.959 249.652 171.47 246.806 170.834 243.991V243.706L171.336 243.828C172.561 244.149 173.716 244.692 174.745 245.43Z" fill="black"/>
<path d="M144.89 212.571L141.509 211.404C141.472 207.633 142.442 203.92 144.32 200.649L142.12 198.966C141.946 197.983 141.976 196.976 142.21 196.006C142.444 195.036 142.875 194.126 143.478 193.331C144.732 191.804 145.906 190.213 146.995 188.564C147.527 187.573 147.873 186.491 148.013 185.374H148.42C152.697 191.375 160.356 194.267 164.552 200.31C167.675 204.818 168.489 210.507 168.869 215.966C169.25 221.424 169.345 227.06 171.287 232.179C172.085 234.164 172.991 236.104 174.002 237.99L171.287 239.348L151.462 218.356L147.864 219.714C147.698 219.484 147.517 219.266 147.32 219.062C146.165 217.973 144.828 217.095 143.369 216.468L142.663 216.115L143.586 214.255C144.034 213.712 144.455 213.142 144.89 212.571Z" fill="#C9C9C9"/>
<path d="M155.057 242.999C155.37 244.514 155.083 246.091 154.256 247.399C153.846 248.043 153.311 248.599 152.684 249.034C152.057 249.47 151.35 249.777 150.603 249.938C150.037 250.057 149.455 250.089 148.879 250.033C147.904 249.95 146.968 249.613 146.163 249.055C145.73 248.76 145.364 248.376 145.091 247.928C145.051 247.884 145.019 247.833 144.996 247.779C144.665 247.076 144.534 246.297 144.615 245.525C144.621 244.57 144.879 243.633 145.362 242.809L145.593 242.673C145.649 242.778 145.728 242.868 145.825 242.936C145.921 243.005 146.033 243.049 146.15 243.067C146.323 243.116 146.508 243.102 146.672 243.027C146.836 242.952 146.968 242.822 147.044 242.659C147.121 242.496 147.137 242.311 147.09 242.137C147.043 241.963 146.936 241.812 146.788 241.709C146.728 241.643 146.654 241.592 146.571 241.56L146.638 241.424C147.556 240.401 148.789 239.713 150.142 239.469H150.264C151.304 239.34 152.356 239.581 153.238 240.148C153.473 240.306 153.692 240.488 153.889 240.691C154.493 241.332 154.898 242.134 155.057 242.999ZM153.835 245.253C153.898 244.767 153.855 244.272 153.71 243.804C153.564 243.335 153.32 242.903 152.993 242.538C152.651 242.175 152.222 241.907 151.746 241.76C151.27 241.612 150.764 241.59 150.277 241.696C149.3 242.012 148.461 242.654 147.901 243.515C147.299 244.194 146.962 245.066 146.951 245.973C147.109 246.858 147.536 247.674 148.173 248.308C148.352 248.478 148.567 248.606 148.802 248.684C149.037 248.761 149.285 248.786 149.531 248.757C150.54 248.74 151.518 248.408 152.328 247.806C153.14 247.181 153.68 246.267 153.835 245.253Z" fill="#A55DA1"/>
<path d="M153.481 239.918L153.304 240.258C152.423 239.691 151.371 239.45 150.331 239.579V239.117C149.984 238.391 149.729 237.625 149.57 236.836H149.76C150.11 236.815 150.46 236.865 150.789 236.984C151.119 237.103 151.42 237.288 151.675 237.528C152.54 238.173 153.22 239.035 153.644 240.027L153.481 239.918Z" fill="#A55DA1"/>
<path d="M144.413 257.216C145.221 258.53 145.636 260.047 145.608 261.589C145.329 262.786 145.329 264.031 145.608 265.228C145.99 265.905 146.497 266.504 147.102 266.993C149.117 269.01 150.25 271.745 150.252 274.597H149.844C150.035 278.263 147.604 281.712 144.413 283.627C141.162 285.383 137.543 286.351 133.849 286.451C127.759 286.801 121.65 286.588 115.599 285.813C105.847 284.901 96.2457 282.78 87.0167 279.499C85.3431 279.035 83.842 278.09 82.6987 276.783C82.6155 276.69 82.553 276.58 82.5156 276.46C82.4781 276.341 82.4665 276.215 82.4814 276.091C82.4814 275.86 82.8752 275.683 83.0382 275.873L82.7802 275.398L83.106 275.221C78.6757 248.892 81.0884 221.866 90.1126 196.738L89.1756 196.398C87.9974 192.53 87.2059 188.555 86.813 184.531V184.273C81.9066 180.869 77.0998 177.325 72.3926 173.641L72.5556 173.709C72.8076 173.758 73.0677 173.752 73.3167 173.688C73.5657 173.625 73.7974 173.506 73.9949 173.342C75.6967 171.983 77.0355 170.225 77.8919 168.223C79.6164 164.869 81.205 161.434 82.7123 157.985C85.8489 150.747 88.6053 143.306 91.4025 135.743L91.5926 135.363C95.1286 143.694 99.8532 151.47 105.619 158.446C109.367 162.981 113.59 167.218 116.482 172.351L116.672 173.03C114.554 173.6 112.458 174.224 110.385 174.903C109.132 175.17 108.003 175.849 107.181 176.832C106.122 178.447 106.896 180.701 106.054 182.439C105.212 184.178 103.134 184.816 101.261 185.291C103.433 185.448 105.613 185.141 107.657 184.389C109.701 183.638 111.562 182.459 113.115 180.932L113.671 180.783C113.936 181.866 114.032 182.984 113.956 184.096C113.773 185.773 113.851 187.468 114.187 189.12C114.519 190.235 115.14 191.243 115.986 192.042C116.833 192.841 117.875 193.402 119.008 193.669L119.171 194.076L119.727 193.764L119.85 195.733C121.526 195.575 123.134 194.991 124.521 194.036C125.973 193.099 127.236 191.972 128.743 191.021C129.363 190.524 130.078 190.159 130.843 189.946C131.609 189.734 132.41 189.679 133.197 189.785C133.914 190.025 134.571 190.414 135.126 190.927C135.68 191.439 136.12 192.064 136.415 192.759C137.121 194.117 137.556 195.556 138.384 196.833C138.753 197.491 139.285 198.043 139.93 198.436C140.575 198.828 141.31 199.048 142.064 199.073L144.264 200.757C142.386 204.027 141.416 207.74 141.453 211.511L144.834 212.679C144.399 213.249 143.979 213.819 143.571 214.403L142.648 216.264L138.181 214.037C137.339 213.493 136.342 213.24 135.343 213.317C134.389 213.642 133.556 214.248 132.953 215.055C132.349 215.86 131.45 216.392 130.454 216.535C129.694 216.535 128.893 216.141 128.227 216.535C127.936 216.741 127.727 217.045 127.64 217.391C127.553 217.737 127.593 218.103 127.752 218.423C128.097 219.053 128.591 219.589 129.192 219.984L129.3 220.649C128.762 220.795 128.262 221.054 127.834 221.41C127.315 221.837 126.899 222.374 126.614 222.982C126.33 223.591 126.185 224.255 126.191 224.927C126.195 225.345 126.254 225.76 126.367 226.162L125.824 226.312C125.147 226.745 124.583 227.333 124.177 228.027C123.771 228.721 123.535 229.501 123.489 230.304C123.407 231.516 123.612 232.73 124.086 233.848L123.896 233.916C123.449 235.184 123.323 236.544 123.529 237.873C123.735 239.202 124.267 240.46 125.077 241.533C126.738 243.657 128.91 245.325 131.391 246.381C134.469 247.817 137.763 248.735 141.141 249.096V249.707C141.697 250.577 142.494 251.266 143.435 251.69C143.739 251.84 144.064 251.941 144.399 251.989C144.675 252.023 144.953 252.023 145.228 251.989V252.369C145.653 254.02 145.409 255.772 144.549 257.244L144.413 257.216ZM118.383 199.44C118.637 199.358 118.851 199.185 118.984 198.954C119.117 198.723 119.159 198.451 119.103 198.191C119.05 197.996 118.941 197.822 118.79 197.689C118.638 197.557 118.451 197.472 118.251 197.446C118.051 197.42 117.848 197.454 117.668 197.543C117.488 197.633 117.338 197.773 117.237 197.948C117.137 198.122 117.09 198.323 117.103 198.523C117.117 198.724 117.189 198.917 117.312 199.076C117.434 199.236 117.602 199.356 117.792 199.42C117.983 199.485 118.189 199.492 118.383 199.44Z" fill="#C9C9C9"/>
<path d="M148.879 250.034V250.414C148.532 250.867 148.06 251.207 147.521 251.392C147.267 251.5 147.003 251.582 146.733 251.637C146.365 251.743 145.988 251.815 145.606 251.854H145.239C144.964 251.888 144.686 251.888 144.411 251.854C144.076 251.806 143.75 251.706 143.447 251.555C142.506 251.131 141.709 250.442 141.152 249.573V248.962C141.465 248.962 141.791 249.043 142.103 249.07C143.095 249.118 144.067 248.782 144.819 248.133L145.158 247.916C145.432 248.364 145.797 248.748 146.231 249.043C147.014 249.594 147.926 249.935 148.879 250.034Z" fill="#A55DA1"/>
<path d="M147.711 181.312C148.119 182.63 148.23 184.021 148.036 185.386C147.896 186.503 147.551 187.585 147.018 188.577C145.93 190.226 144.756 191.817 143.501 193.343C142.899 194.138 142.467 195.049 142.233 196.019C142 196.988 141.969 197.996 142.143 198.978C141.389 198.953 140.654 198.733 140.009 198.341C139.365 197.948 138.832 197.396 138.464 196.738C137.635 195.475 137.201 194.022 136.495 192.664C136.199 191.969 135.76 191.344 135.205 190.832C134.65 190.319 133.993 189.93 133.277 189.69C132.489 189.584 131.688 189.639 130.923 189.851C130.157 190.063 129.443 190.429 128.823 190.926C127.37 191.876 126.107 193.004 124.6 193.94C123.213 194.896 121.605 195.48 119.929 195.638L119.807 193.669L120.35 193.384C121.113 192.996 121.856 192.57 122.577 192.107C124.573 190.749 126.161 188.876 128.239 187.667C131.81 185.563 136.209 185.807 140.242 184.951L141.043 184.748C142.417 184.437 143.691 183.788 144.75 182.86C145.755 181.896 146.108 179.262 145.742 177.891C146.63 178.881 147.301 180.047 147.711 181.312Z" fill="#C9C9C9"/>
<path d="M140.215 184.559C140.602 181.469 141.444 178.454 142.713 175.61L143.012 175.746C144.04 176.267 144.961 176.976 145.728 177.837C146.026 179.195 145.728 181.911 144.737 182.807C143.677 183.735 142.403 184.384 141.03 184.694L140.228 184.898L140.215 184.559Z" fill="#C9C9C9"/>
<path d="M134.487 154.97L134.691 155.12C133.846 156.384 132.906 157.582 131.88 158.704L131.717 158.867C130.814 158.091 129.706 157.591 128.526 157.428C127.347 157.276 126.151 157.308 124.982 157.523C123.498 157.792 122.146 158.546 121.139 159.668C120.42 159.519 119.686 159.343 118.967 159.166L118.885 161.379L118.79 161.624C118.585 161.556 118.386 161.475 118.193 161.379C117.214 157.309 116.794 153.125 116.943 148.941V148.724C117.206 148.738 117.469 148.738 117.731 148.724V148.941C117.583 149.897 117.662 150.874 117.962 151.793C120.302 151.589 122.66 151.824 124.914 152.485C128.128 153.246 131.319 154.074 134.487 154.97Z" fill="black"/>
<path d="M113.725 180.688L113.169 180.837C111.616 182.364 109.755 183.542 107.711 184.294C105.667 185.046 103.487 185.353 101.314 185.196C103.188 184.721 105.279 184.082 106.108 182.344C106.936 180.606 106.176 178.352 107.235 176.736C108.057 175.753 109.185 175.074 110.439 174.808C112.521 174.129 114.617 173.505 116.726 172.934C118.084 172.554 119.442 172.201 120.8 171.875V171.481C121.166 171.59 121.546 171.685 121.927 171.767L121.791 172.337C121.174 174.755 120.065 177.021 118.532 178.99H118.247C117.791 181.025 117.483 183.09 117.324 185.169C117.201 188.102 117.935 191.265 120.175 193.153L120.324 193.438L119.781 193.723L119.225 194.035L119.062 193.628C117.929 193.361 116.887 192.8 116.04 192.001C115.194 191.202 114.573 190.195 114.241 189.079C113.905 187.427 113.827 185.732 114.01 184.055C114.092 182.925 113.995 181.788 113.725 180.688Z" fill="#C9C9C9"/>
<path d="M58.0374 34.5562C58.1803 34.7844 58.3391 35.0022 58.5127 35.208C57.1183 36.0761 55.9092 37.2114 54.9551 38.5483C54.698 38.8732 54.5003 39.2409 54.3712 39.6346C54.3154 39.8343 54.3011 40.0434 54.3292 40.2489C54.3572 40.4544 54.4269 40.652 54.5341 40.8295C54.7055 41.0359 54.9307 41.1908 55.1848 41.2771C55.4388 41.3634 55.7118 41.3777 55.9734 41.3183C56.4786 41.1871 56.9445 40.9356 57.3313 40.5851C58.4871 39.6669 59.4358 38.5147 60.1149 37.2041L60.2778 37.0139C60.5672 37.2541 60.871 37.4763 61.1876 37.6793L61.1061 37.815C60.2588 38.7976 59.6129 39.9372 59.2051 41.169C58.9467 41.8052 58.8533 42.4965 58.9336 43.1786C58.9802 43.5188 59.1167 43.8403 59.3292 44.1101C59.5416 44.3798 59.8222 44.588 60.1421 44.7129C60.57 44.8078 61.0172 44.7612 61.4164 44.58C61.8156 44.3988 62.1451 44.0928 62.3554 43.7081C62.7651 42.9356 63.0014 42.0829 63.0479 41.2097L63.333 38.9149L63.4009 38.6977C63.919 38.8506 64.4513 38.9508 64.9896 38.9964V39.1322C64.5236 40.0503 64.2943 41.0702 64.3228 42.0994C64.3513 43.1286 64.6365 44.1343 65.1525 45.0252C65.2424 45.2257 65.3754 45.4039 65.542 45.5471C65.7087 45.6903 65.9049 45.7949 66.1166 45.8536C66.3719 45.8579 66.6234 45.7901 66.8419 45.658C67.0605 45.5259 67.2374 45.3349 67.3522 45.1068C67.8533 44.1497 67.9699 43.0374 67.6782 41.9972C67.4609 40.9517 67.0264 39.9604 66.7548 38.9285C67.1434 38.8642 67.5252 38.7643 67.8954 38.6298C68.1367 38.5396 68.3725 38.4354 68.6015 38.3175C69.3321 40.42 70.7229 42.23 72.5664 43.4773C72.9162 43.7581 73.3536 43.907 73.802 43.8983C74.0651 43.8552 74.3097 43.7357 74.5052 43.5546C74.7008 43.3735 74.8388 43.1388 74.9019 42.8799C75.025 42.3548 74.9824 41.8045 74.7797 41.3047C74.0872 39.2951 72.6071 38.2632 70.8827 37.0139L70.6383 36.7695C71.1821 36.2018 71.6646 35.5783 72.0776 34.9093L72.1455 34.8142C73.642 36.3989 75.5589 37.5246 77.6719 38.0595C78.1891 38.2496 78.757 38.2496 79.2742 38.0595C79.6387 37.8409 79.9114 37.4972 80.0413 37.0925C80.1712 36.6878 80.1495 36.2496 79.9803 35.8597C79.611 35.087 79.0076 34.4504 78.2558 34.0402C76.74 33.0992 75.0325 32.5099 73.2589 32.3157H73.096C73.2257 31.0826 73.029 29.8371 72.5257 28.7039C72.283 28.076 71.9925 27.4677 71.6566 26.8843L72.0233 26.7893C73.5828 26.3237 75.0788 25.6669 76.477 24.834C76.9307 24.5878 77.3394 24.2665 77.6855 23.8835C77.8485 23.699 77.9732 23.4839 78.0524 23.2509C78.1317 23.0178 78.1639 22.7713 78.1472 22.5257C78.0771 22.2162 77.9216 21.9324 77.6984 21.7068C77.4751 21.4812 77.1932 21.3227 76.8844 21.2493C76.2667 21.1055 75.6182 21.1823 75.0513 21.4665C74.4829 21.7412 73.9495 22.0831 73.4626 22.4849L70.5296 24.6982L70.0544 24.8069C69.905 24.6439 69.7421 24.4809 69.5791 24.3316L68.9002 23.7749C69.8511 22.8548 70.665 21.8031 71.3172 20.6518C71.6425 20.0741 71.8399 19.4332 71.8961 18.7726C71.9523 18.112 71.8661 17.4471 71.6431 16.8227C71.5377 16.5094 71.3495 16.2304 71.0986 16.0152C70.8476 15.8001 70.5431 15.6568 70.2173 15.6006C69.9334 15.6162 69.6564 15.6936 69.4054 15.8273C69.1545 15.9609 68.9358 16.1477 68.7644 16.3746C68.0492 17.2339 67.5799 18.2709 67.4066 19.3755C67.2275 20.4704 67.1502 21.5795 67.1757 22.6886V22.8108C66.5669 22.5234 65.9159 22.3355 65.2476 22.2541C65.3758 20.4856 65.0485 18.7138 64.2971 17.1078C64.0691 16.5351 63.7167 16.0202 63.2651 15.6006C63.0239 15.3583 62.7162 15.1933 62.381 15.1263C62.0457 15.0593 61.6982 15.0935 61.3824 15.2244C61.0666 15.3554 60.7969 15.5772 60.6075 15.8618C60.4181 16.1464 60.3175 16.4808 60.3186 16.8227C60.2749 17.5619 60.4198 18.3002 60.7395 18.9681C61.2671 20.277 61.9955 21.4955 62.8985 22.58L62.9664 22.7701C62.5415 22.9035 62.1282 23.0715 61.7308 23.2725V23.1638C61.0394 21.6277 60.0886 20.2221 58.92 19.0088C58.3607 18.3343 57.5988 17.8581 56.7474 17.651C56.3221 17.5652 55.88 17.6416 55.5081 17.8652C55.1362 18.0888 54.8614 18.4435 54.7378 18.8595C54.6996 19.408 54.8586 19.9521 55.1859 20.3939C56.2673 21.9801 57.5863 23.3906 59.0965 24.576L59.3002 24.8205C58.9613 25.0851 58.6435 25.3756 58.3497 25.6894C57.2923 24.4196 55.9339 23.4346 54.3983 22.8244C53.872 22.5826 53.2912 22.4842 52.7146 22.5392C52.4269 22.5677 52.1547 22.6829 51.934 22.8696C51.7134 23.0564 51.5546 23.3058 51.479 23.5848C51.4671 23.9202 51.5407 24.2531 51.6927 24.5524C51.8447 24.8516 52.0702 25.1074 52.348 25.2957C53.58 26.3692 55.1099 27.0418 56.7338 27.2238L57.0462 27.4139C56.7867 27.8358 56.59 28.2932 56.4623 28.7718L56.0956 28.6495C54.398 27.9748 52.5641 27.7141 50.7457 27.8891C50.2644 27.9305 49.7993 28.084 49.3879 28.3373C49.1834 28.4649 49.011 28.6378 48.8838 28.8426C48.7567 29.0474 48.6783 29.2787 48.6546 29.5186C48.6581 29.7904 48.7294 30.057 48.8622 30.2941C48.9951 30.5313 49.1851 30.7315 49.415 30.8764C49.8717 31.1479 50.3808 31.3191 50.9087 31.3788C52.7213 31.6825 54.5794 31.5664 56.3401 31.0394H56.2858C56.3383 31.3555 56.4248 31.6651 56.5438 31.9627H56.3944C55.4027 32.0681 54.4273 32.2915 53.4886 32.6281C52.4498 32.9817 51.5539 33.6631 50.9358 34.5698C50.7716 34.7858 50.6655 35.0401 50.6274 35.3087C50.5894 35.5773 50.6208 35.8512 50.7186 36.1042C50.8267 36.2674 50.9688 36.4053 51.1352 36.5084C51.3016 36.6115 51.4884 36.6775 51.6826 36.7017C52.0771 36.738 52.4748 36.6917 52.8504 36.5658C54.5423 36.1039 56.092 35.2264 57.3585 34.0131L57.4943 33.9316C57.6436 33.9995 57.8473 34.2847 58.0374 34.5562ZM34.4108 54.0007C29.2238 48.8499 23.8693 43.8983 18.3474 39.1458L16.9895 37.1905C12.8074 40.0963 8.65234 43.0383 4.52447 46.0165L2.90863 47.483L3.41102 48.0397L3.03083 48.3792C2.95286 49.9973 3.50253 51.583 4.56521 52.8058H4.9454C6.08748 53.7784 7.11685 54.876 8.01416 56.0782C16.7792 66.8732 26.6452 76.7256 37.4524 85.4757C38.2263 85.9102 39.1633 85.3399 39.8693 84.7967L68.6422 62.5008L68.8595 62.1749C69.3053 62.5029 69.7942 62.7679 70.3123 62.9625L70.1359 63.3698C65.4467 67.1899 60.735 70.9648 56.0006 74.6943C50.1619 79.311 44.2778 83.8643 38.3486 88.3543L37.914 88.0691C25.8317 78.3457 14.8982 67.2756 5.3256 55.0734C3.69066 54.1916 2.41086 52.7717 1.7031 51.0542C0.995339 49.3368 0.903127 47.4275 1.44212 45.6499C21.9786 29.6098 43.5371 14.923 65.9808 1.68262H66.3339C66.9365 2.3275 67.3989 3.09042 67.6917 3.92311C78.1336 15.3562 88.9285 26.477 99.995 37.5435L97.7138 38.9557C89.7206 44.3056 81.7319 49.6691 73.7477 55.0462C71.3986 55.2227 68.9545 55.7387 67.1622 54.3537L66.8498 54.4352C66.5284 54.7007 66.2676 55.0319 66.0849 55.4067C65.9022 55.7814 65.8019 56.191 65.7907 56.6077C65.7442 57.4274 65.9078 58.2453 66.266 58.984C66.5269 59.5736 66.8648 60.1261 67.2708 60.627L66.972 60.8714L51.6962 72.902L49.5916 70.1862C44.7305 64.5919 39.6521 59.2013 34.4108 54.0007ZM80.8629 28.2966C80.9204 27.9371 80.857 27.5687 80.6825 27.2492C80.508 26.9297 80.2324 26.6771 79.8988 26.5313C79.2199 26.2487 78.4693 26.187 77.7534 26.3548C76.0049 26.7505 74.3254 27.405 72.7701 28.2966L73.1096 30.4419C75.2243 30.8099 77.4004 30.5503 79.3692 29.6951C79.7085 29.5916 80.0195 29.4117 80.2784 29.1693C80.5373 28.9268 80.7373 28.6283 80.8629 28.2966ZM54.4255 47.3065C54.6884 47.0864 54.8822 46.795 54.9834 46.4674C55.0845 46.1397 55.0888 45.7898 54.9958 45.4597C54.7996 44.7996 54.4235 44.2072 53.9095 43.7489C52.5907 42.4676 50.9235 41.6033 49.1163 41.264C49.5886 42.8341 50.2546 44.3393 51.0988 45.7449C51.4248 46.3521 51.8901 46.8732 52.4566 47.2657C52.7527 47.4494 53.0946 47.5456 53.443 47.5432C53.7914 47.5408 54.132 47.4399 54.4255 47.2521V47.3065ZM44.9206 44.2648C44.2424 42.1102 43.0919 40.134 41.5531 38.4804C41.335 38.2294 41.0591 38.0352 40.7492 37.9146C40.4393 37.7939 40.1047 37.7505 39.7743 37.7879C39.4471 37.9042 39.168 38.1262 38.9811 38.4188C38.7942 38.7114 38.7102 39.058 38.7423 39.4038C38.8307 40.0996 39.1184 40.755 39.5706 41.2911C40.1677 42.1538 40.9566 42.8665 41.8755 43.373C42.7943 43.8795 43.818 44.1662 44.8662 44.2105L44.9206 44.2648Z" fill="#A55DA1"/>
<path d="M82.7515 157.917C81.2443 161.38 79.6556 164.802 77.9311 168.156C77.0748 170.158 75.7359 171.916 74.0341 173.275C73.8367 173.439 73.605 173.557 73.3559 173.621C73.1069 173.684 72.8469 173.691 72.5948 173.641L72.4319 173.573C72.2536 173.467 72.1022 173.321 71.9892 173.147C71.8762 172.973 71.8047 172.775 71.7801 172.569C71.7443 172.112 71.7856 171.653 71.9023 171.211C73.2918 164.179 75.6737 157.381 78.9767 151.02H79.0853C80.2621 153.328 81.4842 155.627 82.7515 157.917Z" fill="black"/>
<path d="M79.9022 26.5314C80.2357 26.6773 80.5113 26.9298 80.6858 27.2493C80.8603 27.5688 80.9238 27.9373 80.8662 28.2967C80.7355 28.6209 80.5333 28.9113 80.2747 29.1465C80.0161 29.3816 79.7077 29.5553 79.3726 29.6546C77.4038 30.5097 75.2276 30.7694 73.1129 30.4014L72.7734 28.2559C74.3287 27.3644 76.0083 26.71 77.7567 26.3142C78.4769 26.1593 79.2277 26.2353 79.9022 26.5314Z" fill="white"/>
<path d="M80.0223 35.9274C80.1916 36.3173 80.2132 36.7553 80.0833 37.1601C79.9534 37.5648 79.6808 37.9085 79.3162 38.1271C78.7991 38.3172 78.2311 38.3172 77.714 38.1271C75.601 37.5922 73.684 36.4665 72.1875 34.8818C72.6907 34.1255 73.037 33.2759 73.2059 32.3833H73.3688C75.1424 32.5774 76.8499 33.1667 78.3657 34.1078C79.0923 34.529 79.6709 35.1646 80.0223 35.9274Z" fill="white"/>
<path d="M78.1885 22.4854C78.2052 22.731 78.173 22.9774 78.0938 23.2105C78.0145 23.4436 77.8898 23.6587 77.7268 23.8432C77.3807 24.2261 76.972 24.5475 76.5183 24.7937C75.1201 25.6267 73.6241 26.2835 72.0646 26.749L71.698 26.8441C71.2551 26.0652 70.7169 25.3444 70.0957 24.6987L70.5709 24.59L73.5039 22.3767C73.9908 21.9749 74.5242 21.633 75.0926 21.3583C75.6595 21.0741 76.308 20.9973 76.9257 21.1411C77.2434 21.2196 77.5316 21.3883 77.7556 21.6268C77.9797 21.8653 78.13 22.1634 78.1885 22.4854Z" fill="white"/>
<path d="M74.7525 41.3458C74.9551 41.8456 74.9978 42.3958 74.8747 42.9209C74.8115 43.1798 74.6736 43.4145 74.478 43.5956C74.2824 43.7767 74.0379 43.8962 73.7748 43.9393C73.3263 43.948 72.889 43.7991 72.5392 43.5183C70.6956 42.271 69.3048 40.4611 68.5742 38.3585C69.3304 37.953 70.0178 37.4306 70.611 36.8105L70.8554 37.055C72.5799 38.3042 74.06 39.3362 74.7525 41.3458Z" fill="white"/>
<path d="M68.576 38.3583C68.347 38.4761 68.1112 38.5804 67.8699 38.6705C67.4997 38.805 67.1179 38.9051 66.7293 38.9693C66.1483 39.0509 65.5587 39.0509 64.9777 38.9693C64.4394 38.9236 63.9071 38.8235 63.389 38.6705C62.7901 38.493 62.212 38.2518 61.6645 37.9509C61.5016 37.8559 61.3251 37.7608 61.1757 37.6522C60.8592 37.4491 60.5553 37.2269 60.2659 36.9868C59.6143 36.4393 59.0267 35.8198 58.5143 35.1402C58.3408 34.9344 58.182 34.7166 58.0391 34.4884C57.849 34.2168 57.6724 33.9317 57.5095 33.6466L57.3058 33.3071C56.9965 32.7746 56.7461 32.21 56.559 31.6233C56.4425 31.3611 56.3515 31.0883 56.2874 30.8086C56.1854 30.2292 56.1854 29.6364 56.2874 29.057C56.3157 28.9014 56.3519 28.7472 56.3961 28.5953C56.5238 28.1168 56.7205 27.6594 56.98 27.2375C57.2541 26.7531 57.5771 26.2981 57.944 25.8796L58.3242 25.4994C58.6181 25.1856 58.9359 24.895 59.2747 24.6304C60.0322 24.0122 60.8676 23.4963 61.7596 23.096C62.157 22.8951 62.5703 22.727 62.9952 22.5936C63.6782 22.3533 64.3832 22.1804 65.0999 22.0776H65.2764C65.9447 22.159 66.5957 22.3469 67.2046 22.6343C67.8239 22.9032 68.4114 23.2402 68.9562 23.6391L69.6351 24.1959C69.7981 24.3452 69.961 24.5082 70.1104 24.6711C70.7315 25.3169 71.2698 26.0376 71.7126 26.8165C72.0485 27.3999 72.3391 28.0082 72.5817 28.6361C73.085 29.7693 73.2817 31.0148 73.152 32.2479C72.9831 33.1405 72.6368 33.9901 72.1336 34.7464L72.0657 34.8414C71.6527 35.5104 71.1702 36.134 70.6264 36.7017C70.0374 37.3616 69.3448 37.921 68.576 38.3583Z" fill="white"/>
<path d="M71.7121 16.7413C71.9351 17.3657 72.0215 18.0306 71.9652 18.6912C71.909 19.3518 71.7116 19.9927 71.3863 20.5705C70.7341 21.7217 69.9201 22.7734 68.9693 23.6935C68.4245 23.2946 67.837 22.9576 67.2176 22.6887V22.5665C67.1921 21.4573 67.2694 20.3482 67.4485 19.2533C67.6219 18.1488 68.0911 17.1118 68.8064 16.2525C68.9777 16.0256 69.1964 15.8388 69.4474 15.7051C69.6983 15.5714 69.9754 15.4941 70.2593 15.4785C70.5947 15.5336 70.9082 15.6808 71.1648 15.9038C71.4214 16.1268 71.6109 16.4168 71.7121 16.7413Z" fill="white"/>
<path d="M67.6526 42.0385C67.9444 43.0786 67.8278 44.1909 67.3267 45.1479C67.2118 45.376 67.0349 45.567 66.8164 45.6991C66.5978 45.8312 66.3464 45.899 66.0911 45.8947C65.8793 45.8361 65.6832 45.7314 65.5165 45.5883C65.3499 45.4451 65.2169 45.2669 65.127 45.0665C64.611 44.1755 64.3257 43.1698 64.2973 42.1406C64.2688 41.1114 64.498 40.0914 64.9641 39.1733V39.0376C65.5451 39.1192 66.1346 39.1192 66.7157 39.0376C67.0008 40.0017 67.4353 40.9929 67.6526 42.0385Z" fill="white"/>
<path d="M64.3103 16.9994C65.0617 18.6054 65.389 20.3772 65.2608 22.1456H65.0843C64.3676 22.2484 63.6626 22.4213 62.9796 22.6616L62.9117 22.4715C62.0088 21.387 61.2804 20.1685 60.7527 18.8596C60.433 18.1917 60.2882 17.4535 60.3318 16.7142C60.3308 16.3724 60.4313 16.0379 60.6207 15.7533C60.8101 15.4688 61.0799 15.2469 61.3956 15.1159C61.7114 14.985 62.0589 14.9508 62.3942 15.0178C62.7294 15.0848 63.0371 15.2499 63.2783 15.4921C63.7299 15.9117 64.0824 16.4267 64.3103 16.9994Z" fill="white"/>
<path d="M63.3898 38.7381L63.3219 38.9553L63.0368 41.2501C62.9903 42.1234 62.754 42.976 62.3443 43.7486C62.134 44.1332 61.8045 44.4392 61.4054 44.6204C61.0062 44.8016 60.5589 44.8483 60.131 44.7534C59.8111 44.6284 59.5305 44.4203 59.3181 44.1505C59.1056 43.8808 58.9691 43.5592 58.9225 43.219C58.8422 42.537 58.9356 41.8456 59.1941 41.2093C59.6018 39.9776 60.2477 38.8381 61.0951 37.8555L61.1765 37.7197C61.3259 37.8284 61.5024 37.9234 61.6653 38.0184C62.2128 38.3193 62.7909 38.5606 63.3898 38.7381Z" fill="white"/>
<path d="M61.7188 23.0554V23.164C60.8268 23.5643 59.9914 24.0802 59.234 24.6984L59.0303 24.454C57.52 23.2687 56.2011 21.8581 55.1197 20.2718C54.7924 19.83 54.6334 19.2859 54.6716 18.7374C54.7952 18.3215 55.07 17.9669 55.4419 17.7433C55.8138 17.5196 56.2558 17.4431 56.6812 17.5289C57.5326 17.7361 58.2945 18.2123 58.8538 18.8868C60.043 20.0999 61.0125 21.5104 61.7188 23.0554Z" fill="white"/>
<path d="M60.2634 37.0544L60.1005 37.2445C59.4214 38.5552 58.4728 39.7074 57.3169 40.6256C56.9301 40.9761 56.4642 41.2277 55.959 41.3589C55.6974 41.4182 55.4244 41.404 55.1703 41.3177C54.9163 41.2314 54.6911 41.0764 54.5197 40.87C54.4125 40.6924 54.3428 40.4949 54.3147 40.2894C54.2867 40.0839 54.301 39.8749 54.3567 39.6751C54.4859 39.2815 54.6836 38.9137 54.9407 38.5888C55.8949 37.2518 57.1039 36.1167 58.4982 35.2485C59.0172 35.9147 59.6093 36.5204 60.2634 37.0544Z" fill="white"/>
<path d="M58.3111 25.568L57.9309 25.9481C57.564 26.3666 57.241 26.8216 56.9669 27.306L56.6545 27.116C55.0306 26.934 53.5007 26.2613 52.2687 25.1878C51.9909 24.9995 51.7654 24.7438 51.6134 24.4445C51.4614 24.1453 51.3878 23.8123 51.3997 23.4768C51.4753 23.1979 51.6341 22.9485 51.8547 22.7618C52.0754 22.5751 52.3476 22.4598 52.6353 22.4314C53.2119 22.3764 53.7927 22.4747 54.319 22.7165C55.8546 23.3267 57.2131 24.3117 58.2704 25.5816L58.3111 25.568Z" fill="white"/>
<path d="M57.5075 33.714L57.3717 33.7955C56.1052 35.0088 54.5556 35.8863 52.8637 36.3483C52.4881 36.4741 52.0904 36.5203 51.6959 36.484C51.5016 36.4598 51.3149 36.3939 51.1485 36.2907C50.9821 36.1876 50.84 36.0497 50.7319 35.8865C50.6341 35.6335 50.6027 35.3597 50.6407 35.0911C50.6787 34.8225 50.7849 34.5681 50.9491 34.3522C51.5672 33.4455 52.4631 32.7641 53.5019 32.4105C54.4406 32.0739 55.416 31.8505 56.4077 31.7451H56.557C56.7442 32.3318 56.9946 32.8964 57.3038 33.4288L57.5075 33.714Z" fill="white"/>
<path d="M56.0154 28.4323L56.3821 28.5545C56.3379 28.7064 56.3016 28.8605 56.2734 29.0162C56.1714 29.5956 56.1714 30.1883 56.2734 30.7678H56.287C54.5263 31.2948 52.6682 31.4109 50.8556 31.1072C50.3277 31.0475 49.8186 30.8763 49.362 30.6048C49.132 30.4599 48.942 30.2598 48.8092 30.0226C48.6764 29.7855 48.605 29.5188 48.6016 29.247C48.6252 29.0071 48.7037 28.7758 48.8308 28.571C48.9579 28.3662 49.1303 28.1933 49.3348 28.0656C49.7463 27.8124 50.2113 27.659 50.6927 27.6176C52.5064 27.4642 54.3306 27.7433 56.0154 28.4323Z" fill="white"/>
<path d="M54.9967 45.405C55.0898 45.7351 55.0855 46.0849 54.9843 46.4126C54.8831 46.7402 54.6894 47.0316 54.4265 47.2517C54.1332 47.4347 53.7945 47.5317 53.4488 47.5317C53.1031 47.5317 52.7644 47.4347 52.4712 47.2517C51.9047 46.8592 51.4393 46.338 51.1133 45.7309C50.2691 44.3253 49.6032 42.8201 49.1309 41.25C50.9381 41.5893 52.6052 42.4536 53.9241 43.7349C54.4268 44.1837 54.7977 44.7611 54.9967 45.405Z" fill="white"/>
<path d="M34.4125 54.0005C39.6538 59.201 44.7322 64.5917 49.5933 70.1589L51.698 72.8746L42.3967 80.1934C40.9302 81.3612 39.2329 82.5832 37.3862 82.3116C25.5057 71.4757 14.1761 60.0509 3.4399 48.0802L2.9375 47.5235L4.55335 46.057C8.68122 43.0788 12.8362 40.1368 17.0184 37.231L18.3763 39.1863C23.8891 43.9297 29.2346 48.8678 34.4125 54.0005Z" fill="#A55DA1"/>
<path d="M41.501 38.4263C43.0399 40.0799 44.1903 42.0561 44.8685 44.2107C43.8062 44.1686 42.7686 43.8775 41.8394 43.361C40.9102 42.8445 40.1152 42.117 39.5186 41.237C39.0663 40.7009 38.7787 40.0454 38.6903 39.3496C38.6582 39.0039 38.7422 38.6573 38.9291 38.3647C39.116 38.0721 39.3951 37.85 39.7222 37.7338C40.0527 37.6963 40.3873 37.7398 40.6972 37.8604C41.007 37.981 41.2829 38.1753 41.501 38.4263Z" fill="white"/>
<path d="M65.8871 1.61475C43.4433 14.8552 21.8849 29.542 1.34839 45.582C0.809393 47.3596 0.901564 49.2689 1.60933 50.9864C2.31709 52.7038 3.59688 54.1237 5.23182 55.0055C14.8044 67.2077 25.7379 78.2779 37.8203 88.0013" stroke="black" stroke-width="1.73316" stroke-linecap="round" stroke-linejoin="round"/>
<path d="M2.78906 47.3608L2.89767 47.4831L3.40007 48.0398C14.1362 60.0105 25.4659 71.4353 37.3464 82.2712C39.193 82.5428 40.8904 81.3207 42.3568 80.153L51.6581 72.8341L66.8932 60.8443" stroke="black" stroke-width="1.73316" stroke-linecap="round" stroke-linejoin="round"/>
<path d="M66.2402 1.64209C66.8429 2.28697 67.3053 3.04981 67.5981 3.8825C78.04 15.3156 88.8349 26.4364 99.9014 37.5029L97.7153 38.9558C89.722 44.3058 81.7333 49.6692 73.7492 55.0463" stroke="black" stroke-width="1.73316" stroke-linecap="round" stroke-linejoin="round"/>
<path d="M38.3105 88.2867C44.2489 83.7606 50.1329 79.2072 55.9626 74.6268C60.706 70.8972 65.4178 67.1223 70.0979 63.3022" stroke="black" stroke-width="1.73316" stroke-linecap="round" stroke-linejoin="round"/>
<path d="M79.3691 56.9471L101.095 42.2145L98.3791 39.5938" stroke="black" stroke-width="1.73316" stroke-linecap="round" stroke-linejoin="round"/>
<path d="M66.8501 54.4761C66.5337 54.7371 66.2759 55.0618 66.0934 55.4292C65.9109 55.7965 65.8078 56.1981 65.7909 56.6079C65.7444 57.4275 65.908 58.2455 66.2662 58.9842C66.5272 59.5738 66.865 60.1263 67.271 60.6272C67.7275 61.211 68.2728 61.7195 68.8868 62.1344C69.3327 62.4623 69.8216 62.7274 70.3398 62.922L70.652 63.0577C71.6221 63.4003 72.6514 63.5433 73.6782 63.478C74.7049 63.4126 75.7078 63.1403 76.6266 62.6775" stroke="black" stroke-width="1.73316" stroke-linecap="round" stroke-linejoin="round"/>
<path d="M66.8386 66.1133C65.8383 67.3875 65.1871 68.9002 64.949 70.5025C64.7109 72.1049 64.8941 73.7416 65.4807 75.2516" stroke="black" stroke-width="1.73316" stroke-linecap="round" stroke-linejoin="round"/>
<path d="M72.5796 63.5327C72.4485 64.627 72.691 65.7334 73.2678 66.6725C73.8446 67.6116 74.7218 68.3282 75.757 68.7061" stroke="black" stroke-width="1.73316" stroke-linecap="round" stroke-linejoin="round"/>
<path d="M56.0156 74.6665C59.0843 78.4195 61.1993 82.8593 62.1803 87.6069C63.1455 92.3372 63.8661 97.1141 64.3393 101.919C66.6132 118.946 71.6105 135.497 79.1398 150.937C80.2804 153.3 81.4844 155.626 82.7517 157.916" stroke="black" stroke-width="1.73316" stroke-linecap="round" stroke-linejoin="round"/>
<path d="M67.1484 54.394C68.9408 55.7519 71.3849 55.2631 73.734 55.0866C75.1736 54.8617 76.6475 55.0994 77.9434 55.7655C78.4653 56.094 78.925 56.5123 79.3012 57.0011C79.8083 57.6707 80.2623 58.379 80.6591 59.1193C82.0169 61.6857 83.3748 64.5508 82.6959 67.3615C81.6775 71.3129 76.9793 73.2139 75.3634 76.7035C77.076 89.4922 80.2891 102.035 84.9363 114.072C86.8509 119.001 89.0099 124.201 88.168 129.402L91.4812 135.675" stroke="black" stroke-width="1.73316" stroke-linecap="round" stroke-linejoin="round"/>
<path d="M79.0314 150.992C75.7284 157.353 73.3464 164.151 71.957 171.183C71.8402 171.625 71.7989 172.085 71.8348 172.541C71.8594 172.747 71.9309 172.945 72.0439 173.119C72.1569 173.293 72.3083 173.439 72.4865 173.546L72.6494 173.613C72.9015 173.663 73.1616 173.656 73.4106 173.593C73.6597 173.53 73.8913 173.411 74.0888 173.247C75.7906 171.888 77.1295 170.13 77.9858 168.128C79.7103 164.774 81.299 161.339 82.8062 157.89C85.9428 150.652 88.6993 143.211 91.4964 135.648L91.5915 135.363C95.1275 143.694 99.8521 151.47 105.618 158.446C109.366 162.981 113.589 167.218 116.481 172.351" stroke="black" stroke-width="1.73316" stroke-linecap="round" stroke-linejoin="round"/>
<path d="M89.5809 153.287C86.6851 160.617 84.719 168.28 83.7285 176.099" stroke="black" stroke-width="1.73316" stroke-linecap="round" stroke-linejoin="round"/>
<path d="M94.8927 150.476C93.1275 161.474 91.7108 172.518 90.6426 183.607" stroke="black" stroke-width="1.73316" stroke-linecap="round" stroke-linejoin="round"/>
<path d="M72.4844 173.601C77.1916 177.285 81.9984 180.829 86.9048 184.233" stroke="black" stroke-width="1.73316" stroke-linecap="round" stroke-linejoin="round"/>
<path d="M89.8375 163.47C88.9278 170.463 88.018 177.429 86.9453 184.232V184.49C87.3383 188.514 88.1297 192.489 89.308 196.357" stroke="black" stroke-width="1.73316" stroke-linecap="round" stroke-linejoin="round"/>
<path d="M98.1368 156.804C97.4248 168.248 95.3321 179.564 91.9043 190.506" stroke="black" stroke-width="1.73316" stroke-linecap="round" stroke-linejoin="round"/>
<path d="M103.05 169.513C97.8797 178.117 93.5768 187.214 90.2047 196.67C81.1806 221.798 78.7679 248.824 83.1982 275.154" stroke="black" stroke-width="1.73316" stroke-linecap="round" stroke-linejoin="round"/>
<path d="M90.3828 233.332C92.4152 249.201 98.5769 264.259 108.252 277.001" stroke="black" stroke-width="1.73316" stroke-linecap="round" stroke-linejoin="round"/>
<path d="M95.5156 197.443C96.4301 220.863 103.159 243.686 115.096 263.856" stroke="black" stroke-width="1.73316" stroke-linecap="round" stroke-linejoin="round"/>
<path d="M108.918 223.922C114.849 240.655 124.615 255.769 137.433 268.052" stroke="black" stroke-width="1.73316" stroke-linecap="round" stroke-linejoin="round"/>
<path d="M145.239 252.26C145.665 253.911 145.421 255.663 144.561 257.134" stroke="black" stroke-width="1.73316" stroke-linecap="round" stroke-linejoin="round"/>
<path d="M120.27 127.215C120.899 126.804 121.661 126.649 122.401 126.781C123.135 126.915 123.793 127.317 124.248 127.908" stroke="black" stroke-width="0.86658" stroke-linecap="round" stroke-linejoin="round"/>
<path d="M133.805 129.469C134.566 128.799 135.495 128.349 136.494 128.17C137.492 127.99 138.52 128.087 139.467 128.451C141.357 129.211 142.946 130.57 143.989 132.321" stroke="black" stroke-width="0.86658" stroke-linecap="round" stroke-linejoin="round"/>
<path d="M131.973 137.957C132.252 137.154 132.645 136.394 133.14 135.703C133.662 135.037 134.386 134.56 135.204 134.345C136.186 134.163 137.2 134.372 138.029 134.929C138.855 135.474 139.584 136.154 140.188 136.938C140.958 137.85 141.678 138.802 142.347 139.79" stroke="black" stroke-width="0.86658" stroke-linecap="round" stroke-linejoin="round"/>
<path d="M118.055 135.024C118.052 134.456 118.217 133.901 118.528 133.427C118.839 132.952 119.282 132.58 119.803 132.355C120.324 132.131 120.9 132.065 121.458 132.165C122.016 132.265 122.533 132.527 122.943 132.919C123.801 133.945 124.28 135.234 124.301 136.571" stroke="black" stroke-width="0.86658" stroke-linecap="round" stroke-linejoin="round"/>
<path d="M120.921 139.274C120.157 139.674 119.465 140.197 118.871 140.822C118.589 141.093 118.386 141.436 118.287 141.814C118.258 142.03 118.276 142.249 118.339 142.458C118.402 142.666 118.509 142.859 118.654 143.022C118.925 143.359 119.251 143.648 119.618 143.878" stroke="black" stroke-width="0.86658" stroke-linecap="round" stroke-linejoin="round"/>
<path d="M119.127 142.411C119.531 142.457 119.909 142.633 120.205 142.912C120.501 143.191 120.699 143.558 120.77 143.959" stroke="black" stroke-width="0.86658" stroke-linecap="round" stroke-linejoin="round"/>
<path d="M124.178 143.103C124.681 142.983 125.21 143.046 125.671 143.279C126.136 143.522 126.494 143.928 126.676 144.42" stroke="black" stroke-width="0.86658" stroke-linecap="round" stroke-linejoin="round"/>
<path d="M127.424 144.978C127.824 144.901 128.216 144.783 128.592 144.625C128.968 144.459 129.279 144.172 129.474 143.81C129.634 143.461 129.667 143.067 129.569 142.696C129.465 142.334 129.279 141.999 129.026 141.719" stroke="black" stroke-width="0.86658" stroke-linecap="round" stroke-linejoin="round"/>
<path d="M116.672 144.786C116.236 145.435 115.684 145.996 115.043 146.443C114.792 146.567 114.574 146.749 114.408 146.975C114.242 147.2 114.132 147.462 114.088 147.739C114.044 148.016 114.067 148.299 114.155 148.565C114.244 148.831 114.394 149.071 114.595 149.267C115.043 149.766 115.539 150.221 116.075 150.625" stroke="black" stroke-width="0.86658" stroke-linecap="round" stroke-linejoin="round"/>
<path d="M115.379 148.358C115.882 148.561 116.413 148.685 116.954 148.725C117.216 148.738 117.479 148.738 117.742 148.725H119.004C122.351 148.803 125.642 149.595 128.659 151.046C130.784 152.275 133.009 153.32 135.312 154.169C135.109 154.468 134.905 154.767 134.688 155.052C133.843 156.317 132.903 157.515 131.877 158.637L131.714 158.8C130.94 159.608 130.074 160.324 129.134 160.932C128.574 161.284 127.983 161.584 127.369 161.828C124.585 162.778 121.548 162.667 118.841 161.515C118.637 161.448 118.437 161.366 118.244 161.271C117.837 161.095 117.429 160.904 117.049 160.701" stroke="black" stroke-width="0.86658" stroke-linecap="round" stroke-linejoin="round"/>
<path d="M116.943 148.941C116.794 153.125 117.214 157.309 118.193 161.379" stroke="black" stroke-width="0.86658" stroke-linecap="round" stroke-linejoin="round"/>
<path d="M117.742 148.941C117.595 149.897 117.674 150.874 117.973 151.793C120.313 151.589 122.671 151.824 124.925 152.485C128.13 153.246 131.298 154.074 134.43 154.97" stroke="black" stroke-width="0.86658" stroke-linecap="round" stroke-linejoin="round"/>
<path d="M121.141 159.683C123.764 160.27 126.415 160.723 129.084 161.04" stroke="black" stroke-width="0.86658" stroke-linecap="round" stroke-linejoin="round"/>
<path d="M118.885 161.38L118.966 159.167C119.686 159.344 120.419 159.52 121.139 159.669" stroke="black" stroke-width="0.86658" stroke-linecap="round" stroke-linejoin="round"/>
<path d="M134.473 151.209C135.168 152.071 135.606 153.112 135.736 154.213C135.866 155.313 135.682 156.428 135.206 157.428" stroke="black" stroke-width="0.86658" stroke-linecap="round" stroke-linejoin="round"/>
<path d="M141.371 253.129C142.522 254.379 143.541 255.744 144.413 257.203C145.221 258.516 145.635 260.034 145.608 261.575C145.328 262.772 145.328 264.017 145.608 265.214C145.99 265.892 146.496 266.491 147.101 266.979C149.117 268.997 150.25 271.732 150.251 274.584" stroke="black" stroke-width="1.73316" stroke-linecap="round" stroke-linejoin="round"/>
<path d="M119.576 126.442C119.355 126.256 119.174 126.027 119.044 125.769C118.914 125.511 118.838 125.23 118.82 124.941C118.803 124.653 118.844 124.364 118.941 124.092C119.038 123.82 119.19 123.571 119.386 123.359C118.998 122.76 118.829 122.046 118.905 121.336C118.982 120.627 119.3 119.965 119.807 119.462C119.645 119.204 119.537 118.915 119.492 118.614C119.447 118.312 119.464 118.005 119.543 117.71C119.622 117.416 119.761 117.141 119.951 116.902C120.142 116.664 120.379 116.468 120.649 116.326C120.468 116.031 120.36 115.697 120.334 115.353C120.308 115.008 120.365 114.662 120.5 114.343C120.864 113.636 121.465 113.079 122.197 112.768C121.817 111.75 122.401 110.473 124.03 109.727C123.978 109.419 123.996 109.104 124.084 108.805C124.171 108.505 124.325 108.23 124.534 107.999C124.743 107.767 125.002 107.586 125.291 107.469C125.58 107.352 125.891 107.302 126.203 107.323C126.276 106.997 126.413 106.69 126.608 106.418C126.803 106.147 127.05 105.918 127.335 105.744C127.62 105.571 127.937 105.456 128.268 105.408C128.598 105.36 128.935 105.378 129.258 105.463C129.342 105.161 129.486 104.879 129.68 104.633C129.874 104.388 130.116 104.183 130.39 104.031C130.664 103.88 130.966 103.784 131.277 103.75C131.589 103.716 131.904 103.745 132.204 103.834C132.571 103.218 133.123 102.733 133.781 102.45C134.44 102.168 135.171 102.1 135.87 102.258C136.427 101.281 137.785 100.901 139.672 101.756C140.121 100.615 141.641 100.059 143.746 100.833C143.999 100.574 144.301 100.369 144.634 100.228C144.968 100.088 145.326 100.016 145.688 100.016C146.05 100.016 146.408 100.088 146.741 100.228C147.074 100.369 147.377 100.574 147.629 100.833C148.553 99.8958 150.237 99.8415 152.205 100.833C152.434 100.597 152.717 100.423 153.03 100.325C153.344 100.228 153.676 100.211 153.998 100.276C154.636 100.398 155.193 100.873 156.075 101.865C156.366 101.65 156.705 101.51 157.062 101.455C157.419 101.401 157.784 101.434 158.126 101.552C158.785 101.793 159.325 102.28 159.633 102.91C161.072 102.584 162.674 103.576 163.706 105.409C163.974 105.235 164.28 105.131 164.597 105.105C164.915 105.079 165.234 105.132 165.526 105.259C166.132 105.592 166.61 106.118 166.884 106.753C167.997 106.753 169.056 107.554 170.102 109.17C170.415 109.097 170.742 109.11 171.048 109.208C171.354 109.306 171.627 109.485 171.84 109.727C172.27 110.378 172.488 111.146 172.465 111.926C173.015 111.778 173.598 111.802 174.135 111.994C174.39 112.16 174.602 112.385 174.753 112.649C174.904 112.914 174.99 113.211 175.004 113.515C175.301 113.738 175.643 113.895 176.006 113.975C176.369 114.054 176.745 114.055 177.108 113.977C177.502 114.479 176.674 115.144 176.769 115.769C176.819 115.947 176.912 116.109 177.04 116.242C177.168 116.374 177.327 116.473 177.502 116.529C177.853 116.637 178.177 116.818 178.453 117.059C178.405 117.637 178.504 118.218 178.742 118.748C178.979 119.277 179.347 119.738 179.81 120.087C179.729 120.508 179.485 120.915 179.62 121.323C179.756 121.73 180.367 121.92 180.856 121.974C180.981 122.589 180.859 123.228 180.517 123.753C181.016 124.214 181.354 124.824 181.479 125.492C181.604 126.16 181.509 126.85 181.209 127.46C181.481 128.316 181.739 129.171 182.01 130.013C182.207 130.528 182.299 131.077 182.282 131.629C182.178 132.246 181.884 132.816 181.44 133.258C181.726 133.545 181.964 133.875 182.146 134.236C182.233 134.418 182.278 134.618 182.278 134.82C182.278 135.022 182.233 135.221 182.146 135.404C181.929 135.797 181.454 136.001 181.25 136.395C181.169 136.604 181.147 136.832 181.188 137.052C181.229 137.273 181.33 137.478 181.481 137.644C181.903 138.035 182.257 138.494 182.526 139.002C181.861 138.934 181.372 139.667 181.318 140.36C181.263 141.052 181.508 141.718 181.481 142.342C181.478 142.708 181.363 143.064 181.152 143.362C180.941 143.661 180.643 143.888 180.299 144.012C180.593 144.479 180.713 145.034 180.638 145.58C180.564 146.126 180.3 146.629 179.892 147" stroke="black" stroke-width="1.73316" stroke-linecap="round" stroke-linejoin="round"/>
<path d="M161.52 165.819C162.099 166.102 162.766 166.148 163.38 165.948C163.993 165.748 164.504 165.317 164.806 164.746C165.048 164.92 165.336 165.021 165.634 165.038C165.932 165.055 166.228 164.987 166.489 164.841C167.034 164.386 167.451 163.796 167.698 163.131C168.198 163.242 168.721 163.157 169.159 162.891C169.597 162.625 169.915 162.2 170.047 161.705C170.955 161.565 171.883 161.63 172.763 161.895C172.598 161.274 172.575 160.625 172.695 159.994C172.763 159.614 173.143 159.369 173.496 159.22C173.873 159.121 174.234 158.971 174.568 158.772C174.734 158.611 174.856 158.411 174.922 158.19C174.989 157.969 174.998 157.735 174.949 157.509C175.228 157.541 175.511 157.484 175.757 157.348C176.004 157.212 176.202 157.003 176.324 156.75C176.446 156.496 176.487 156.211 176.44 155.933C176.393 155.656 176.261 155.4 176.062 155.201C176.655 155.042 177.176 154.687 177.541 154.193C177.906 153.7 178.093 153.098 178.072 152.485C178.403 152.599 178.765 152.58 179.082 152.433C179.4 152.286 179.649 152.023 179.777 151.697C179.904 151.371 179.902 151.009 179.769 150.685C179.636 150.361 179.383 150.101 179.063 149.959C179.467 149.775 179.785 149.443 179.951 149.031C180.118 148.619 180.121 148.16 179.959 147.746" stroke="black" stroke-width="1.73316" stroke-linecap="round" stroke-linejoin="round"/>
<path d="M116.469 135.364C117.2 132.331 118.43 129.44 120.108 126.809C122.596 122.932 125.912 119.654 129.816 117.209C129.993 117.379 130.213 117.498 130.452 117.553C130.691 117.608 130.941 117.597 131.174 117.521C131.647 117.346 132.133 117.21 132.627 117.114C132.84 117.101 133.053 117.101 133.265 117.114C133.931 117.114 134.623 117.236 135.547 117.263C135.67 117.37 135.822 117.438 135.983 117.459C136.145 117.481 136.309 117.456 136.456 117.386C136.753 117.252 137.069 117.17 137.393 117.141C137.919 117.232 138.399 117.5 138.751 117.902C138.99 118.103 139.267 118.252 139.566 118.341C139.865 118.43 140.18 118.456 140.489 118.418C140.888 118.875 141.409 119.21 141.99 119.383C142.572 119.556 143.191 119.56 143.775 119.395C144.175 120.047 144.718 120.6 145.362 121.011C146.007 121.423 146.736 121.683 147.496 121.771C147.882 122.191 148.35 122.528 148.87 122.761C149.391 122.995 149.953 123.12 150.524 123.129C150.844 124.312 151.378 125.425 152.099 126.415C153.097 128.18 153.656 130.16 153.728 132.186" stroke="black" stroke-width="1.73316" stroke-linecap="round" stroke-linejoin="round"/>
<path d="M179.635 146.131C179.635 145.723 179.784 145.302 179.852 144.881" stroke="black" stroke-width="1.73316" stroke-linecap="round" stroke-linejoin="round"/>
<path d="M150.752 135.363C152.11 137.793 152.11 140.794 151.933 143.51C151.757 146.226 151.621 149.267 152.87 151.779" stroke="black" stroke-width="1.73316" stroke-linecap="round" stroke-linejoin="round"/>
<path d="M116.412 135.595C113.354 139.476 111.617 144.234 111.456 149.173C111.32 154.238 112.814 159.181 114.362 164.001C114.796 165.808 115.6 167.505 116.724 168.984C117.816 170.177 119.231 171.027 120.798 171.428C121.165 171.537 121.545 171.632 121.925 171.714C123.175 171.946 124.442 172.078 125.713 172.107C129.78 172.305 133.852 171.819 137.757 170.668C141.695 169.498 145.202 167.199 147.846 164.055C148.179 164.8 148.66 165.47 149.26 166.023C149.86 166.576 150.566 167.002 151.336 167.273C151.613 167.388 151.899 167.479 152.191 167.545C154.108 167.931 156.095 167.766 157.922 167.07C158.875 166.72 159.786 166.265 160.637 165.712C162.073 164.855 163.302 163.691 164.236 162.304C164.993 161.194 165.49 159.928 165.69 158.6C165.89 157.271 165.787 155.915 165.39 154.632C165.017 153.499 164.318 152.503 163.38 151.767C162.523 151.173 161.544 150.778 160.515 150.613C157.972 150.056 155.313 150.458 153.047 151.74" stroke="black" stroke-width="1.73316" stroke-linecap="round" stroke-linejoin="round"/>
<path d="M162.771 160.606C163.197 159.947 163.424 159.178 163.424 158.393C163.424 157.607 163.197 156.839 162.771 156.179C162.345 155.522 161.783 154.965 161.122 154.545C160.461 154.126 159.717 153.854 158.941 153.749C157.379 153.543 155.791 153.808 154.379 154.509C154.283 154.539 154.193 154.588 154.116 154.653C154.039 154.719 153.976 154.799 153.931 154.89C153.849 155.161 154.08 155.406 154.338 155.568L154.569 155.677C155.588 156.098 156.647 156.451 157.652 156.94C158.666 157.397 159.542 158.114 160.191 159.017C160.549 159.531 160.764 160.131 160.815 160.755C160.864 161.217 160.799 161.683 160.625 162.113C160.417 162.637 160.03 163.07 159.533 163.336C159.036 163.601 158.461 163.683 157.91 163.566C157.485 163.416 157.1 163.174 156.78 162.857C156.461 162.54 156.216 162.156 156.063 161.733C155.696 160.918 155.506 160.036 155.126 159.221C154.957 158.803 154.694 158.43 154.357 158.131C154.02 157.832 153.619 157.615 153.184 157.497H152.994C152.886 157.484 152.777 157.501 152.679 157.547C152.581 157.592 152.497 157.664 152.437 157.755C152.247 158.121 152.655 158.488 152.926 158.787C153.261 159.176 153.445 159.672 153.445 160.185C153.445 160.698 153.261 161.195 152.926 161.584C152.567 161.951 152.087 162.176 151.575 162.216C151.063 162.256 150.554 162.108 150.143 161.801" stroke="black" stroke-width="0.86658" stroke-linecap="round" stroke-linejoin="round"/>
<path d="M120.92 134.358C120.641 134.761 120.468 135.228 120.418 135.716" stroke="black" stroke-width="1.73316" stroke-linecap="round" stroke-linejoin="round"/>
<path d="M135.571 136.571C135.31 136.905 135.145 137.304 135.096 137.725" stroke="black" stroke-width="1.73316" stroke-linecap="round" stroke-linejoin="round"/>
<path d="M120.745 171.876C119.387 172.202 118.029 172.555 116.671 172.935C114.553 173.505 112.458 174.13 110.385 174.809C109.131 175.075 108.002 175.754 107.18 176.737C106.121 178.353 106.895 180.607 106.053 182.345C105.211 184.083 103.134 184.721 101.26 185.196C103.432 185.354 105.613 185.046 107.657 184.295C109.701 183.543 111.561 182.365 113.114 180.838" stroke="black" stroke-width="1.73316" stroke-linecap="round" stroke-linejoin="round"/>
<path d="M108.645 177.823C109.413 177.459 110.29 177.397 111.102 177.648C111.914 177.9 112.602 178.447 113.03 179.181C113.341 179.668 113.574 180.199 113.723 180.756C113.987 181.84 114.084 182.957 114.008 184.07C113.825 185.746 113.902 187.441 114.239 189.094C114.571 190.209 115.192 191.217 116.038 192.016C116.884 192.814 117.927 193.375 119.059 193.642" stroke="black" stroke-width="1.73316" stroke-linecap="round" stroke-linejoin="round"/>
<path d="M121.788 172.337C121.171 174.756 120.062 177.021 118.529 178.991" stroke="black" stroke-width="1.73316" stroke-linecap="round" stroke-linejoin="round"/>
<path d="M118.625 176.438C118.53 177.28 118.394 178.108 118.245 178.936C117.789 180.971 117.481 183.036 117.321 185.115C117.199 188.048 117.932 191.211 120.173 193.099" stroke="black" stroke-width="1.73316" stroke-linecap="round" stroke-linejoin="round"/>
<path d="M143.014 175.746C144.042 176.267 144.963 176.976 145.73 177.837C146.635 178.841 147.315 180.026 147.726 181.313C148.134 182.63 148.246 184.022 148.052 185.387C147.911 186.504 147.566 187.586 147.033 188.578C145.945 190.227 144.771 191.818 143.516 193.344C142.914 194.139 142.482 195.05 142.249 196.02C142.015 196.989 141.984 197.997 142.159 198.979C141.404 198.954 140.669 198.734 140.025 198.342C139.38 197.949 138.848 197.397 138.479 196.739C137.651 195.476 137.216 194.023 136.51 192.665C136.215 191.97 135.775 191.345 135.22 190.833C134.665 190.32 134.008 189.931 133.292 189.691C132.504 189.585 131.704 189.64 130.938 189.852C130.173 190.064 129.458 190.43 128.838 190.927C127.385 191.877 126.122 193.004 124.615 193.941C123.229 194.897 121.621 195.481 119.944 195.639H119.781" stroke="black" stroke-width="1.73316" stroke-linecap="round" stroke-linejoin="round"/>
<path d="M145.717 177.838C146.015 179.196 145.717 181.911 144.725 182.808C143.666 183.735 142.392 184.384 141.018 184.695L140.217 184.899C136.144 185.808 131.785 185.564 128.214 187.614C126.136 188.823 124.548 190.724 122.552 192.055C121.831 192.517 121.088 192.943 120.325 193.331L119.782 193.616L119.225 193.928C118.85 194.129 118.488 194.351 118.139 194.594C115.856 196.385 114.059 198.719 112.911 201.383C111.621 203.949 110.575 206.651 109.041 209.068" stroke="black" stroke-width="1.73316" stroke-linecap="round" stroke-linejoin="round"/>
<path d="M149.367 166.263C148.744 166.167 149.121 165.978 147.534 167.87C143.55 172.619 141.01 178.411 140.215 184.558L140.337 184.45" stroke="black" stroke-width="1.73316" stroke-linecap="round" stroke-linejoin="round"/>
<path d="M144.32 200.648C142.442 203.919 141.472 207.632 141.509 211.403" stroke="black" stroke-width="1.73316" stroke-linecap="round" stroke-linejoin="round"/>
<path d="M155.952 202.604C151.692 205.231 147.943 208.608 144.886 212.571C144.451 213.141 144.03 213.711 143.623 214.295" stroke="black" stroke-width="1.73316" stroke-linecap="round" stroke-linejoin="round"/>
<path d="M150.619 229.733C152.104 232.619 154.272 235.098 156.935 236.954C159.597 238.809 162.674 239.985 165.895 240.379" stroke="black" stroke-width="1.73316" stroke-linecap="round" stroke-linejoin="round"/>
<path d="M151.498 218.422L171.323 239.415" stroke="black" stroke-width="1.73316" stroke-linecap="round" stroke-linejoin="round"/>
<path d="M148.443 185.44C152.721 191.442 160.379 194.334 164.575 200.377C167.698 204.885 168.512 210.574 168.893 216.033C169.273 221.491 169.368 227.126 171.31 232.246C172.108 234.231 173.014 236.171 174.025 238.057C174.351 238.709 174.664 239.415 174.962 239.999C176.303 242.587 176.896 245.498 176.673 248.404C175.763 250.146 174.341 251.567 172.6 252.478" stroke="black" stroke-width="1.73316" stroke-linecap="round" stroke-linejoin="round"/>
<path d="M176.729 248.445C176.484 247.221 175.773 246.14 174.746 245.43C173.723 244.73 172.582 244.219 171.379 243.923L170.876 243.801C167.592 242.958 164.164 242.838 160.828 243.448" stroke="black" stroke-width="1.73316" stroke-linecap="round" stroke-linejoin="round"/>
<path d="M153.4 239.823H153.482H153.618L160.787 243.421L165.567 245.824C167.286 246.477 168.745 247.674 169.722 249.233" stroke="black" stroke-width="1.73316" stroke-linecap="round" stroke-linejoin="round"/>
<path d="M170.808 244.086C171.444 246.901 171.933 249.747 172.274 252.613C172.507 254.633 172.53 256.672 172.342 258.696C172.251 260.195 171.868 261.662 171.215 263.014C170.556 264.376 169.392 265.428 167.97 265.947C167.265 266.181 166.509 266.21 165.788 266.033C165.068 265.855 164.412 265.477 163.896 264.943" stroke="black" stroke-width="1.73316" stroke-linecap="round" stroke-linejoin="round"/>
<path d="M165.037 264.671L163.896 264.548C160.224 264.083 156.731 262.692 153.743 260.507C150.755 258.322 148.371 255.414 146.814 252.056" stroke="black" stroke-width="1.73316" stroke-linecap="round" stroke-linejoin="round"/>
<path d="M144.818 248.146C144.066 248.796 143.094 249.131 142.102 249.083C141.79 249.083 141.464 249.083 141.152 248.975C137.774 248.613 134.48 247.695 131.402 246.259C128.921 245.204 126.749 243.536 125.088 241.411C124.278 240.338 123.746 239.081 123.54 237.751C123.333 236.422 123.46 235.063 123.907 233.794" stroke="black" stroke-width="1.73316" stroke-linecap="round" stroke-linejoin="round"/>
<path d="M127.411 238.683C126.384 237.463 125.475 236.149 124.695 234.758C124.506 234.416 124.338 234.062 124.193 233.699C123.719 232.581 123.514 231.367 123.595 230.155C123.642 229.353 123.878 228.572 124.284 227.879C124.69 227.185 125.254 226.597 125.931 226.163" stroke="black" stroke-width="1.73316" stroke-linecap="round" stroke-linejoin="round"/>
<path d="M131.036 233.482C130.355 231.955 129.438 230.543 128.32 229.3C127.504 228.33 126.878 227.215 126.474 226.014C126.361 225.611 126.301 225.196 126.297 224.778C126.292 224.106 126.436 223.442 126.721 222.834C127.005 222.225 127.421 221.688 127.94 221.261C128.369 220.905 128.869 220.646 129.407 220.501C130.223 220.284 131.087 220.327 131.878 220.623H131.959C132.312 221.928 133.056 223.094 134.091 223.963C135.124 224.831 136.244 225.591 137.431 226.231" stroke="black" stroke-width="1.73316" stroke-linecap="round" stroke-linejoin="round"/>
<path d="M131.797 220.785C131.797 220.785 131.797 220.677 131.797 220.623C131.875 219.436 132.354 218.311 133.155 217.432C133.611 217.085 134.143 216.851 134.706 216.747C135.27 216.643 135.85 216.673 136.4 216.834C137.514 217.162 138.569 217.666 139.523 218.328L143.474 220.772C144.147 221.142 144.768 221.598 145.321 222.13C146.679 223.569 146.815 225.701 146.923 227.656" stroke="black" stroke-width="1.73316" stroke-linecap="round" stroke-linejoin="round"/>
<path d="M129.245 219.835C128.645 219.44 128.15 218.904 127.806 218.273C127.646 217.954 127.606 217.588 127.694 217.242C127.781 216.896 127.989 216.592 128.281 216.386C128.946 216.033 129.747 216.386 130.508 216.386C131.504 216.243 132.402 215.711 133.006 214.906C133.609 214.099 134.442 213.493 135.396 213.168C136.395 213.091 137.392 213.343 138.234 213.888L142.701 216.114L143.407 216.468C144.866 217.094 146.203 217.972 147.359 219.061C147.555 219.265 147.736 219.483 147.902 219.713C149.033 221.397 149.651 223.374 149.681 225.402C149.669 227.697 149.542 229.991 149.3 232.273C149.191 233.766 149.273 235.268 149.545 236.74C149.704 237.529 149.959 238.295 150.305 239.022" stroke="black" stroke-width="1.73316" stroke-linecap="round" stroke-linejoin="round"/>
<path d="M138.777 224.03C139.103 224.88 139.561 225.673 140.135 226.379" stroke="black" stroke-width="1.73316" stroke-linecap="round" stroke-linejoin="round"/>
<path d="M132.611 230.495C132.642 231.33 132.948 232.132 133.48 232.776" stroke="black" stroke-width="1.73316" stroke-linecap="round" stroke-linejoin="round"/>
<path d="M128.525 235.953C128.473 236.614 128.575 237.279 128.824 237.894C128.894 238.063 128.976 238.226 129.068 238.383" stroke="black" stroke-width="1.73316" stroke-linecap="round" stroke-linejoin="round"/>
<path d="M145.662 242.633C145.621 242.567 145.593 242.493 145.58 242.416C145.556 242.28 145.569 242.14 145.618 242.011C145.668 241.881 145.751 241.768 145.86 241.683C145.969 241.598 146.099 241.544 146.237 241.527C146.374 241.51 146.513 241.531 146.639 241.588C146.722 241.62 146.797 241.671 146.857 241.737C147.005 241.839 147.112 241.991 147.159 242.165C147.206 242.339 147.19 242.524 147.113 242.687C147.037 242.85 146.905 242.98 146.741 243.055C146.577 243.13 146.392 243.144 146.218 243.095C146.095 243.07 145.979 243.015 145.882 242.935C145.785 242.854 145.709 242.751 145.662 242.633Z" stroke="black" stroke-width="0.86658" stroke-linecap="round" stroke-linejoin="round"/>
<path d="M148.144 248.255C147.507 247.62 147.08 246.805 146.922 245.919C146.933 245.013 147.271 244.14 147.872 243.462C148.433 242.601 149.271 241.958 150.249 241.642C150.735 241.537 151.241 241.559 151.717 241.706C152.193 241.854 152.622 242.122 152.964 242.484C153.291 242.85 153.535 243.282 153.681 243.75C153.826 244.219 153.869 244.713 153.806 245.2C153.635 246.195 153.091 247.089 152.285 247.698C151.475 248.3 150.497 248.632 149.488 248.649C149.249 248.683 149.005 248.666 148.773 248.598C148.541 248.53 148.327 248.413 148.144 248.255Z" stroke="black" stroke-width="0.86658" stroke-linecap="round" stroke-linejoin="round"/>
<path d="M145.431 242.809C144.947 243.633 144.689 244.57 144.684 245.525C144.602 246.297 144.734 247.077 145.064 247.779C145.087 247.834 145.119 247.884 145.159 247.929C145.432 248.376 145.798 248.76 146.232 249.056C147.036 249.613 147.972 249.95 148.947 250.033C149.524 250.09 150.105 250.058 150.672 249.938C151.418 249.778 152.126 249.471 152.753 249.035C153.38 248.599 153.914 248.043 154.324 247.399C155.151 246.092 155.438 244.515 155.126 243C154.976 242.16 154.595 241.38 154.026 240.746C153.828 240.542 153.609 240.36 153.374 240.202C152.493 239.635 151.44 239.395 150.4 239.524H150.278C148.925 239.767 147.693 240.455 146.775 241.479" stroke="black" stroke-width="0.86658" stroke-linecap="round" stroke-linejoin="round"/>
<path d="M149.732 236.74C150.082 236.718 150.432 236.769 150.761 236.888C151.091 237.007 151.392 237.192 151.647 237.432C152.512 238.077 153.192 238.939 153.616 239.931" stroke="black" stroke-width="1.73316" stroke-linecap="round" stroke-linejoin="round"/>
<path d="M141.129 249.586C141.685 250.455 142.483 251.144 143.424 251.568C143.727 251.719 144.052 251.82 144.388 251.867C144.663 251.901 144.941 251.901 145.216 251.867H145.583C145.964 251.829 146.341 251.756 146.71 251.65C146.98 251.595 147.244 251.513 147.497 251.405C148.036 251.221 148.509 250.88 148.855 250.428" stroke="black" stroke-width="1.73316" stroke-linecap="round" stroke-linejoin="round"/>
<path d="M151.459 133.708L152.043 134.441C152.233 134.685 152.409 134.943 152.586 135.215C152.927 135.741 153.24 136.285 153.523 136.844" stroke="black" stroke-width="0.86658" stroke-linecap="round" stroke-linejoin="round"/>
<path d="M152.275 132.186L152.683 132.892C152.995 133.435 153.321 133.978 153.688 134.494C153.837 134.738 154 134.983 154.163 135.214" stroke="black" stroke-width="0.86658" stroke-linecap="round" stroke-linejoin="round"/>
<path d="M18.3496 39.1455C23.8715 43.907 29.226 48.8587 34.413 54.0004C39.6543 59.201 44.7327 64.5916 49.5938 70.1588" stroke="black" stroke-width="0.86658" stroke-linecap="round" stroke-linejoin="round"/>
<path d="M33.6367 54.7876L34.4107 54.0001C41.5904 46.7166 49.5086 40.2001 58.0373 34.5557" stroke="black" stroke-width="0.86658" stroke-linecap="round" stroke-linejoin="round"/>
<path d="M44.8685 44.2107C44.1903 42.0561 43.0399 40.0799 41.501 38.4263C41.2829 38.1753 41.007 37.981 40.6972 37.8604C40.3873 37.7398 40.0527 37.6963 39.7222 37.7338C39.3951 37.85 39.116 38.0721 38.9291 38.3647C38.7422 38.6573 38.6582 39.0039 38.6903 39.3496C38.7787 40.0454 39.0663 40.7009 39.5186 41.237C40.1152 42.117 40.9102 42.8445 41.8394 43.361C42.7686 43.8775 43.8062 44.1686 44.8685 44.2107Z" stroke="black" stroke-width="0.86658" stroke-linecap="round" stroke-linejoin="round"/>
<path d="M49.1172 41.2095C49.5895 42.7796 50.2554 44.2849 51.0996 45.6904C51.4257 46.2976 51.891 46.8188 52.4575 47.2112C52.7507 47.3942 53.0895 47.4912 53.4351 47.4912C53.7808 47.4912 54.1195 47.3942 54.4128 47.2112C54.6757 46.9911 54.8695 46.6997 54.9706 46.3721C55.0718 46.0445 55.0762 45.6945 54.9831 45.3645C54.787 44.7044 54.4108 44.112 53.8968 43.6537C52.5766 42.3895 50.915 41.5398 49.1172 41.2095Z" stroke="black" stroke-width="0.86658" stroke-linecap="round" stroke-linejoin="round"/>
<path d="M60.1826 28.2969C59.9042 28.9952 59.796 29.7497 59.8668 30.4982C59.9376 31.2466 60.1855 31.9675 60.59 32.6012C61.0061 33.2264 61.5632 33.745 62.2165 34.1153C62.8699 34.4856 63.6011 34.6972 64.3512 34.7331" stroke="black" stroke-width="0.86658" stroke-linecap="round" stroke-linejoin="round"/>
<path d="M66.579 26.3682C65.7888 26.8046 65.0661 27.3535 64.4336 27.9976H64.5422" stroke="black" stroke-width="0.86658" stroke-linecap="round" stroke-linejoin="round"/>
<path d="M69.0369 29.7764C68.343 30.3466 67.5641 30.8048 66.7285 31.1342" stroke="black" stroke-width="0.86658" stroke-linecap="round" stroke-linejoin="round"/>
<path d="M65.2588 22.1729H65.0824C64.3656 22.2757 63.6607 22.4485 62.9777 22.6888C62.5527 22.8223 62.1395 22.9903 61.742 23.1912C60.85 23.5915 60.0146 24.1074 59.2572 24.7256C58.9183 24.9902 58.6005 25.2807 58.3066 25.5946L57.9264 25.9748C57.5596 26.3933 57.2365 26.8483 56.9624 27.3327C56.7029 27.7546 56.5062 28.212 56.3785 28.6905C56.3344 28.8424 56.2981 28.9966 56.2699 29.1522C56.1679 29.7316 56.1679 30.3244 56.2699 30.9038C56.3224 31.22 56.4089 31.5296 56.5279 31.8272C56.715 32.4138 56.9654 32.9784 57.2747 33.5109L57.4784 33.8503C57.6413 34.1355 57.8178 34.4206 58.0079 34.6922C58.1508 34.9204 58.3096 35.1382 58.4832 35.344C58.9955 36.0237 59.5832 36.6432 60.2348 37.1907C60.5242 37.4308 60.828 37.653 61.1445 37.856C61.2939 37.9646 61.4705 38.0597 61.6334 38.1547C62.1808 38.4556 62.7589 38.6969 63.3579 38.8744C63.876 39.0274 64.4083 39.1274 64.9466 39.1731C65.5276 39.2547 66.1172 39.2547 66.6982 39.1731C67.0868 39.1089 67.4686 39.0089 67.8388 38.8744C68.0801 38.7843 68.3158 38.68 68.5449 38.5621C69.3011 38.1566 69.9885 37.6342 70.5816 37.0142C71.1255 36.4464 71.608 35.8229 72.021 35.1539L72.0889 35.0589C72.5921 34.3026 72.9384 33.4529 73.1073 32.5604C73.237 31.3272 73.0403 30.0817 72.5369 28.9485C72.2943 28.3206 72.0038 27.7123 71.6679 27.129C71.225 26.35 70.6868 25.6294 70.0656 24.9836C69.9163 24.8207 69.7533 24.6577 69.5904 24.5083L68.9115 23.9516C68.3667 23.5527 67.7792 23.2157 67.1599 22.9468C66.5728 22.5867 65.9305 22.3252 65.2588 22.1729Z" stroke="black" stroke-width="0.86658" stroke-linecap="round" stroke-linejoin="round"/>
<path d="M65.2608 22.1456C65.389 20.3772 65.0617 18.6054 64.3103 16.9994C64.0824 16.4267 63.7299 15.9117 63.2783 15.4921C63.0371 15.2499 62.7294 15.0848 62.3942 15.0178C62.0589 14.9508 61.7114 14.985 61.3956 15.1159C61.0799 15.2469 60.8101 15.4688 60.6207 15.7533C60.4313 16.0379 60.3308 16.3724 60.3318 16.7142C60.2882 17.4535 60.433 18.1917 60.7527 18.8596C61.2804 20.1685 62.0088 21.387 62.9117 22.4715" stroke="black" stroke-width="0.86658" stroke-linecap="round" stroke-linejoin="round"/>
<path d="M61.7192 23.056C61.0279 21.5198 60.077 20.1142 58.9084 18.9009C58.3491 18.2264 57.5872 17.7503 56.7359 17.5431C56.3105 17.4573 55.8684 17.5338 55.4966 17.7574C55.1247 17.981 54.8499 18.3357 54.7263 18.7516C54.6881 19.3001 54.847 19.8442 55.1743 20.286C56.2558 21.8723 57.5747 23.2828 59.085 24.4682" stroke="black" stroke-width="0.86658" stroke-linecap="round" stroke-linejoin="round"/>
<path d="M58.2704 25.5264C57.2131 24.2565 55.8546 23.2716 54.319 22.6614C53.7927 22.4196 53.2119 22.3212 52.6353 22.3762C52.3476 22.4046 52.0754 22.5199 51.8547 22.7066C51.6341 22.8933 51.4753 23.1428 51.3997 23.4217C51.3878 23.7572 51.4614 24.0901 51.6134 24.3893C51.7654 24.6886 51.9909 24.9444 52.2687 25.1327C53.5007 26.2062 55.0306 26.8788 56.6545 27.0608" stroke="black" stroke-width="0.86658" stroke-linecap="round" stroke-linejoin="round"/>
<path d="M56.0133 28.432C54.3157 27.7572 52.4817 27.4965 50.6633 27.6716C50.1819 27.7129 49.7169 27.8664 49.3055 28.1197C49.101 28.2473 48.9286 28.4202 48.8015 28.6251C48.6743 28.8299 48.5959 29.0611 48.5723 29.301C48.5757 29.5728 48.6471 29.8394 48.7799 30.0766C48.9127 30.3137 49.1027 30.5139 49.3327 30.6588C49.7893 30.9303 50.2984 31.1015 50.8263 31.1612C52.6389 31.4649 54.497 31.3488 56.2577 30.8218" stroke="black" stroke-width="0.86658" stroke-linecap="round" stroke-linejoin="round"/>
<path d="M56.4077 31.7451C55.416 31.8505 54.4406 32.0739 53.5019 32.4105C52.4631 32.7641 51.5672 33.4455 50.9491 34.3522C50.7849 34.5681 50.6787 34.8225 50.6407 35.0911C50.6027 35.3597 50.6341 35.6335 50.7319 35.8865C50.84 36.0497 50.9821 36.1876 51.1485 36.2907C51.3149 36.3939 51.5016 36.4598 51.6959 36.484C52.0904 36.5203 52.4881 36.4741 52.8637 36.3483C54.5556 35.8863 56.1052 35.0088 57.3717 33.7955" stroke="black" stroke-width="0.86658" stroke-linecap="round" stroke-linejoin="round"/>
<path d="M58.4572 35.2485C57.0629 36.1167 55.8538 37.2518 54.8996 38.5888C54.6426 38.9137 54.4449 39.2815 54.3157 39.6751C54.26 39.8749 54.2457 40.0839 54.2737 40.2894C54.3017 40.4949 54.3715 40.6924 54.4787 40.87C54.6501 41.0764 54.8753 41.2314 55.1293 41.3177C55.3834 41.404 55.6564 41.4182 55.918 41.3589C56.4232 41.2277 56.8891 40.9761 57.2759 40.6256C58.4317 39.7074 59.3803 38.5552 60.0595 37.2445" stroke="black" stroke-width="0.86658" stroke-linecap="round" stroke-linejoin="round"/>
<path d="M61.0951 37.856C60.2477 38.8385 59.6018 39.9781 59.1941 41.2098C58.9356 41.8461 58.8422 42.5374 58.9225 43.2195C58.9691 43.5597 59.1056 43.8813 59.3181 44.151C59.5305 44.4208 59.8111 44.6289 60.131 44.7539C60.5589 44.8488 61.0062 44.8021 61.4054 44.6208C61.8045 44.4396 62.134 44.1337 62.3443 43.7491C62.754 42.9765 62.9903 42.1238 63.0368 41.2506L63.3219 38.9558" stroke="black" stroke-width="0.86658" stroke-linecap="round" stroke-linejoin="round"/>
<path d="M64.9641 39.1729C64.498 40.0909 64.2688 41.1109 64.2973 42.1401C64.3257 43.1693 64.611 44.1751 65.127 45.066C65.2169 45.2664 65.3499 45.4446 65.5165 45.5878C65.6832 45.7309 65.8793 45.8356 66.0911 45.8942C66.3464 45.8986 66.5978 45.8308 66.8164 45.6987C67.0349 45.5666 67.2118 45.3755 67.3267 45.1474C67.8278 44.1904 67.9444 43.0781 67.6526 42.038C67.4353 40.9925 67.0008 40.0012 66.7293 38.9692" stroke="black" stroke-width="0.86658" stroke-linecap="round" stroke-linejoin="round"/>
<path d="M68.5098 38.3313C69.2404 40.4339 70.6312 42.2439 72.4747 43.4912C72.8246 43.7719 73.2618 43.9209 73.7103 43.9121C73.9734 43.8691 74.2179 43.7496 74.4135 43.5685C74.6091 43.3874 74.7471 43.1527 74.8102 42.8938C74.9334 42.3687 74.8906 41.8184 74.688 41.3186C73.9955 39.309 72.5154 38.2771 70.7909 37.0278" stroke="black" stroke-width="0.86658" stroke-linecap="round" stroke-linejoin="round"/>
<path d="M4.51172 46.0171C8.63959 43.0389 12.7946 40.0969 16.9768 37.1911C32.7912 26.1563 48.8863 15.5333 65.262 5.32227" stroke="black" stroke-width="0.86658" stroke-linecap="round" stroke-linejoin="round"/>
<path d="M3.01706 48.3794C2.93909 49.9975 3.48876 51.5833 4.55144 52.806C4.60113 51.1921 4.05494 49.6163 3.01706 48.3794Z" stroke="black" stroke-width="0.86658" stroke-linecap="round" stroke-linejoin="round"/>
<path d="M4.93359 52.7368C6.07567 53.7094 7.10504 54.8071 8.00235 56.0092C16.7674 66.8042 26.6334 76.6566 37.4406 85.4067C38.2145 85.8412 39.1515 85.2709 39.8575 84.7278L68.6304 62.4318" stroke="black" stroke-width="0.86658" stroke-linecap="round" stroke-linejoin="round"/>
<path d="M78.6504 55.5352C85.1003 50.6578 91.8039 46.1253 98.733 41.9567C98.4241 41.6353 98.185 41.2534 98.0307 40.8351C97.8765 40.4168 97.8105 39.9711 97.8368 39.5261C97.8296 39.3949 97.8296 39.2635 97.8368 39.1323" stroke="black" stroke-width="0.86658" stroke-linecap="round" stroke-linejoin="round"/>
<path d="M72.1875 34.8818C73.684 36.4665 75.601 37.5922 77.714 38.1271C78.2311 38.3172 78.7991 38.3172 79.3162 38.1271C79.6808 37.9085 79.9534 37.5648 80.0833 37.1601C80.2132 36.7553 80.1916 36.3173 80.0223 35.9274C79.6531 35.1547 79.0496 34.518 78.2978 34.1078C76.782 33.1667 75.0745 32.5774 73.3009 32.3833" stroke="black" stroke-width="0.86658" stroke-linecap="round" stroke-linejoin="round"/>
<path d="M73.1129 30.442C75.2276 30.81 77.4038 30.5504 79.3726 29.6952C79.7077 29.5959 80.0161 29.4222 80.2747 29.1871C80.5333 28.952 80.7355 28.6615 80.8662 28.3373C80.9238 27.9779 80.8603 27.6095 80.6858 27.29C80.5113 26.9705 80.2357 26.718 79.9022 26.5722C79.2233 26.2896 78.4727 26.2279 77.7567 26.3956C76.0083 26.7914 74.3287 27.4458 72.7734 28.3373L73.1129 30.442Z" stroke="black" stroke-width="0.86658" stroke-linecap="round" stroke-linejoin="round"/>
<path d="M72.064 26.8164C73.6235 26.3508 75.1195 25.6941 76.5177 24.8611C76.9714 24.6149 77.3801 24.2935 77.7262 23.9106C77.8892 23.726 78.0139 23.5111 78.0932 23.278C78.1724 23.0449 78.2046 22.7983 78.1879 22.5527C78.1178 22.2432 77.9623 21.9595 77.7391 21.7339C77.5158 21.5083 77.2339 21.3497 76.9251 21.2763C76.3074 21.1325 75.6589 21.2094 75.092 21.4936C74.5236 21.7683 73.9902 22.1102 73.5033 22.512L70.5703 24.7253" stroke="black" stroke-width="0.86658" stroke-linecap="round" stroke-linejoin="round"/>
<path d="M68.9694 23.6943C69.9203 22.7742 70.7342 21.7225 71.3864 20.5713C71.7117 19.9936 71.9092 19.3527 71.9654 18.692C72.0216 18.0314 71.9353 17.3665 71.7123 16.7421C71.6069 16.4288 71.4188 16.1498 71.1678 15.9347C70.9168 15.7195 70.6123 15.5762 70.2866 15.52C70.0027 15.5356 69.7256 15.613 69.4747 15.7467C69.2238 15.8804 69.005 16.0671 68.8337 16.294C68.1184 17.1533 67.6492 18.1904 67.4758 19.2949C67.2967 20.3898 67.2195 21.4989 67.245 22.608" stroke="black" stroke-width="0.86658" stroke-linecap="round" stroke-linejoin="round"/>
<path d="M117.84 197.471C117.647 197.526 117.474 197.637 117.344 197.789C117.214 197.942 117.131 198.129 117.107 198.328C117.083 198.528 117.118 198.729 117.208 198.909C117.298 199.088 117.439 199.236 117.614 199.336C117.788 199.435 117.988 199.481 118.188 199.467C118.388 199.453 118.58 199.381 118.739 199.258C118.898 199.136 119.017 198.969 119.082 198.78C119.147 198.59 119.154 198.385 119.103 198.191C119.024 197.933 118.849 197.714 118.614 197.58C118.379 197.447 118.102 197.408 117.84 197.471Z" stroke="black" stroke-width="1.73316" stroke-linecap="round" stroke-linejoin="round"/>
<path d="M67.8533 55.5894C67.765 56.1835 67.765 56.7875 67.8533 57.3817C67.9101 57.67 68.0312 57.9418 68.2075 58.1769C68.3838 58.412 68.6109 58.6043 68.8717 58.7396C69.2526 58.8821 69.6725 58.8808 70.0525 58.7358C70.4325 58.5908 70.7465 58.3121 70.9357 57.952C71.1091 57.5829 71.1804 57.1742 71.1422 56.7682C71.104 56.3622 70.9576 55.9739 70.7184 55.6436" stroke="black" stroke-width="1.73316" stroke-linecap="round" stroke-linejoin="round"/>
</svg>
