<svg width="136" height="211" viewBox="0 0 136 211" fill="none" xmlns="http://www.w3.org/2000/svg">
<path d="M112.581 99.0101L113.391 98.4801C113.121 98.1001 112.881 97.7001 112.651 97.3001L113.471 96.8201C113.418 95.3277 113.007 93.8699 112.271 92.5701C111.74 91.8409 111.347 91.0208 111.111 90.1501C110.691 90.1433 110.277 90.0511 109.894 89.8792C109.51 89.7072 109.166 89.4592 108.881 89.1501C108.322 89.0849 107.785 88.8934 107.31 88.5903C106.835 88.2871 106.436 87.8802 106.141 87.4001C105.711 87.5216 105.255 87.5184 104.827 87.3909C104.398 87.2635 104.015 87.017 103.721 86.6801C103.493 86.7082 103.262 86.689 103.042 86.6236C102.821 86.5582 102.617 86.4481 102.441 86.3001C102.182 86.0046 101.829 85.807 101.441 85.7401C101.203 85.7611 100.97 85.8219 100.751 85.9201C100.643 85.9715 100.522 85.9905 100.403 85.9745C100.284 85.9585 100.172 85.9084 100.081 85.8301C99.3912 85.8301 98.8912 85.7701 98.4012 85.7201C98.2447 85.7102 98.0877 85.7102 97.9312 85.7201C97.567 85.7908 97.2091 85.8912 96.8612 86.0201C96.6893 86.0757 96.5055 86.0836 96.3295 86.0432C96.1534 86.0027 95.9916 85.9152 95.8612 85.7901C92.9717 87.5733 90.5129 89.9741 88.6612 92.8201L88.2412 92.5501C88.0784 92.4132 87.9452 92.2447 87.8495 92.0547C87.7538 91.8648 87.6977 91.6574 87.6846 91.4451C87.6715 91.2328 87.7017 91.0202 87.7733 90.8199C87.8449 90.6196 87.9565 90.4359 88.1012 90.2801C87.8157 89.8388 87.6906 89.3127 87.7471 88.7901C87.8035 88.2675 88.038 87.7802 88.4112 87.4101C88.2916 87.22 88.2126 87.0073 88.1792 86.7852C88.1457 86.5632 88.1584 86.3366 88.2167 86.1197C88.2749 85.9028 88.3773 85.7003 88.5174 85.5248C88.6576 85.3494 88.8325 85.2048 89.0312 85.1001C88.898 84.8831 88.8186 84.6374 88.7994 84.3834C88.7803 84.1295 88.822 83.8747 88.9212 83.6401C89.1897 83.1194 89.6319 82.709 90.1712 82.4801C89.8912 81.7301 90.3212 80.7901 91.5212 80.2401C91.4829 80.0137 91.4964 79.7816 91.5607 79.5612C91.625 79.3408 91.7384 79.1378 91.8924 78.9675C92.0463 78.7971 92.2369 78.6639 92.4497 78.5778C92.6625 78.4916 92.8921 78.4548 93.1212 78.4701C93.175 78.2302 93.2765 78.0036 93.4198 77.8038C93.5631 77.604 93.7452 77.4351 93.9552 77.3072C94.1652 77.1793 94.3989 77.0951 94.6421 77.0595C94.8854 77.0239 95.1334 77.0377 95.3712 77.1001C95.4333 76.8778 95.539 76.6702 95.6822 76.4892C95.8253 76.3082 96.003 76.1575 96.205 76.0458C96.4069 75.9341 96.629 75.8637 96.8584 75.8387C97.0879 75.8137 97.32 75.8346 97.5412 75.9001C97.8112 75.4465 98.2178 75.0899 98.7028 74.8815C99.1878 74.6732 99.7263 74.6236 100.241 74.7401C100.651 74.0201 101.651 73.7401 103.041 74.3701C103.371 73.5301 104.491 73.1201 106.041 73.6901C106.227 73.4996 106.45 73.3483 106.696 73.2449C106.941 73.1416 107.205 73.0884 107.471 73.0884C107.738 73.0884 108.001 73.1416 108.247 73.2449C108.493 73.3483 108.715 73.4996 108.901 73.6901C109.581 73.0001 110.821 72.9601 112.271 73.6901C112.439 73.5166 112.648 73.3881 112.879 73.3164C113.109 73.2448 113.354 73.2322 113.591 73.2801C114.061 73.3701 114.471 73.7201 115.121 74.4501C115.335 74.2922 115.585 74.1887 115.848 74.1486C116.111 74.1086 116.38 74.133 116.631 74.2201C117.116 74.3975 117.514 74.7559 117.741 75.2201C118.801 74.9801 119.981 75.7101 120.741 77.0601C120.938 76.9325 121.164 76.8557 121.397 76.8365C121.631 76.8173 121.866 76.8563 122.081 76.9501C122.528 77.1954 122.879 77.5824 123.081 78.0501C123.901 78.0501 124.681 78.6401 125.451 79.8301C125.682 79.7765 125.922 79.7863 126.148 79.8585C126.373 79.9306 126.575 80.0625 126.731 80.2401C127.048 80.7198 127.208 81.2856 127.191 81.8601C127.597 81.751 128.026 81.7685 128.421 81.9101C128.609 82.0324 128.765 82.1978 128.877 82.3926C128.988 82.5874 129.051 82.806 129.061 83.0301C129.28 83.1945 129.532 83.3101 129.799 83.3687C130.067 83.4274 130.344 83.4278 130.611 83.3701C130.901 83.7401 130.291 84.2301 130.361 84.6901C130.398 84.8209 130.466 84.9405 130.561 85.0382C130.655 85.136 130.772 85.2088 130.901 85.2501C131.159 85.3294 131.398 85.4624 131.601 85.6401C131.566 86.066 131.639 86.4939 131.814 86.8839C131.989 87.2738 132.26 87.6131 132.601 87.8701C132.541 88.1801 132.361 88.4801 132.461 88.7801C132.561 89.0801 133.011 89.2201 133.371 89.2601C133.463 89.7127 133.373 90.1832 133.121 90.5701C133.489 90.9093 133.738 91.3584 133.83 91.8504C133.922 92.3424 133.852 92.8509 133.631 93.3001C133.831 93.9301 134.021 94.5601 134.221 95.1801C134.366 95.5596 134.434 95.9641 134.421 96.3701C134.345 96.825 134.128 97.2446 133.801 97.5701C134.012 97.781 134.187 98.0241 134.321 98.2901C134.385 98.4244 134.418 98.5713 134.418 98.7201C134.418 98.8689 134.385 99.0158 134.321 99.1501C134.161 99.4401 133.811 99.5901 133.661 99.8801C133.601 100.034 133.586 100.202 133.616 100.364C133.646 100.527 133.72 100.678 133.831 100.8C134.142 101.088 134.403 101.426 134.601 101.8C134.111 101.75 133.751 102.29 133.711 102.8C133.671 103.31 133.851 103.8 133.831 104.26C133.829 104.529 133.744 104.792 133.589 105.011C133.433 105.231 133.214 105.398 132.961 105.49C133.177 105.834 133.266 106.242 133.211 106.645C133.156 107.047 132.961 107.417 132.661 107.69V108.21C132.78 108.515 132.778 108.853 132.655 109.156C132.533 109.459 132.299 109.704 132.001 109.84C132.237 109.945 132.423 110.136 132.521 110.374C132.619 110.613 132.621 110.88 132.527 111.12C132.433 111.36 132.249 111.554 132.016 111.662C131.782 111.77 131.515 111.784 131.271 111.7C131.287 112.152 131.149 112.595 130.88 112.958C130.611 113.321 130.228 113.583 129.791 113.7C129.938 113.847 130.035 114.035 130.069 114.24C130.104 114.444 130.074 114.654 129.984 114.841C129.894 115.028 129.748 115.182 129.567 115.282C129.385 115.382 129.177 115.423 128.971 115.4C129.007 115.566 129.001 115.739 128.952 115.901C128.903 116.064 128.813 116.212 128.691 116.33C128.445 116.476 128.179 116.588 127.901 116.66C127.641 116.77 127.361 116.95 127.311 117.23C127.223 117.695 127.24 118.173 127.361 118.63C126.713 118.435 126.03 118.387 125.361 118.49C125.264 118.855 125.03 119.168 124.708 119.363C124.385 119.559 123.999 119.623 123.631 119.54C123.449 120.03 123.143 120.465 122.741 120.8C122.549 120.907 122.331 120.957 122.111 120.945C121.891 120.933 121.68 120.858 121.501 120.73C121.279 121.15 120.903 121.467 120.451 121.615C119.999 121.762 119.508 121.728 119.081 121.52H118.431C119.489 120.889 120.394 120.032 121.081 119.01C121.639 118.193 122.005 117.261 122.153 116.282C122.3 115.304 122.224 114.305 121.931 113.36C121.657 112.526 121.142 111.792 120.451 111.25C119.82 110.813 119.099 110.522 118.341 110.4C116.468 109.991 114.51 110.286 112.841 111.23H112.711C111.791 109.38 111.911 107.23 112.021 105.14C112.131 103.05 112.191 100.88 111.151 99.1401L112.101 98.4701C112.321 98.6201 112.451 98.8101 112.581 99.0101Z" fill="#1D1D1B"/>
<path d="M129.111 176.19C130.098 178.096 130.535 180.24 130.371 182.38C130.191 181.479 129.667 180.682 128.911 180.16C128.158 179.644 127.317 179.268 126.431 179.05L126.061 178.96C123.642 178.339 121.117 178.251 118.661 178.7V178.76L113.341 176.12C113.028 175.389 112.528 174.755 111.891 174.28C111.703 174.103 111.481 173.967 111.239 173.879C110.996 173.792 110.738 173.754 110.481 173.77H110.341C110.141 172.686 110.08 171.58 110.161 170.48C110.339 168.799 110.432 167.11 110.441 165.42C110.419 163.926 109.964 162.47 109.131 161.23L111.781 160.23L126.381 175.69L128.381 174.69C128.661 175.24 128.891 175.71 129.111 176.19Z" fill="#878787"/>
<path d="M128.9 180.18C129.656 180.703 130.18 181.499 130.36 182.4C129.689 183.683 128.642 184.73 127.36 185.4H127.1C126.848 183.29 126.488 181.193 126.02 179.12V178.91L126.39 179C127.291 179.236 128.142 179.636 128.9 180.18Z" fill="black"/>
<path d="M106.911 155.98L104.421 155.12C104.393 152.343 105.108 149.609 106.491 147.2L104.871 145.96C104.742 145.237 104.765 144.495 104.937 143.781C105.109 143.067 105.427 142.396 105.871 141.81C106.795 140.686 107.659 139.515 108.461 138.3C108.853 137.57 109.107 136.773 109.211 135.95H109.511C112.661 140.37 118.301 142.5 121.391 146.95C123.691 150.27 124.291 154.46 124.571 158.48C124.851 162.5 124.921 166.65 126.351 170.42C126.938 171.882 127.606 173.311 128.351 174.7L126.351 175.7L111.751 160.24L109.101 161.24C108.979 161.071 108.845 160.911 108.701 160.76C107.85 159.958 106.865 159.312 105.791 158.85L105.271 158.59L105.951 157.22C106.281 156.82 106.591 156.4 106.911 155.98Z" fill="#878787"/>
<path d="M114.401 178.391C114.631 179.506 114.419 180.668 113.811 181.631C113.508 182.105 113.115 182.514 112.653 182.835C112.191 183.156 111.67 183.382 111.121 183.501C110.703 183.588 110.275 183.612 109.851 183.571C109.133 183.509 108.443 183.261 107.851 182.85C107.531 182.633 107.262 182.35 107.061 182.021C107.032 181.988 107.008 181.951 106.991 181.91C106.748 181.393 106.651 180.819 106.711 180.251C106.715 179.547 106.905 178.857 107.261 178.251L107.431 178.151C107.472 178.227 107.53 178.294 107.601 178.344C107.673 178.394 107.754 178.427 107.841 178.441C107.968 178.477 108.105 178.466 108.225 178.411C108.346 178.356 108.443 178.26 108.5 178.14C108.556 178.02 108.568 177.884 108.533 177.755C108.499 177.627 108.42 177.516 108.311 177.441C108.267 177.392 108.212 177.354 108.151 177.331L108.201 177.23C108.877 176.477 109.784 175.97 110.781 175.79H110.871C111.637 175.696 112.412 175.873 113.061 176.29C113.234 176.407 113.395 176.541 113.541 176.691C113.985 177.163 114.283 177.753 114.401 178.391ZM113.501 180.051C113.547 179.692 113.515 179.328 113.408 178.983C113.301 178.638 113.121 178.32 112.881 178.051C112.629 177.784 112.313 177.586 111.962 177.478C111.612 177.369 111.239 177.353 110.881 177.431C110.161 177.663 109.543 178.137 109.131 178.771C108.687 179.27 108.439 179.913 108.431 180.581C108.547 181.233 108.861 181.833 109.331 182.301C109.463 182.426 109.621 182.52 109.794 182.577C109.967 182.634 110.15 182.652 110.331 182.631C111.074 182.619 111.794 182.374 112.391 181.931C112.989 181.47 113.387 180.797 113.501 180.051Z" fill="#A55DA1"/>
<path d="M113.241 176.12L113.111 176.37C112.462 175.953 111.687 175.776 110.921 175.87V175.53C110.666 174.995 110.478 174.431 110.361 173.85H110.501C110.759 173.835 111.017 173.872 111.259 173.959C111.502 174.047 111.724 174.183 111.911 174.36C112.549 174.835 113.049 175.47 113.361 176.2L113.241 176.12Z" fill="#A55DA1"/>
<path d="M106.56 188.86C107.155 189.827 107.46 190.945 107.44 192.08C107.234 192.962 107.234 193.879 107.44 194.76C107.721 195.259 108.094 195.7 108.54 196.06C110.024 197.546 110.858 199.56 110.86 201.66H110.56C110.7 204.36 108.91 206.9 106.56 208.31C104.165 209.604 101.5 210.316 98.7795 210.39C94.2946 210.648 89.7955 210.491 85.3395 209.92C78.1572 209.249 71.0863 207.687 64.2896 205.27C63.057 204.928 61.9515 204.233 61.1096 203.27C61.0483 203.201 61.0023 203.12 60.9747 203.032C60.9471 202.944 60.9385 202.852 60.9496 202.76C60.9496 202.59 61.2396 202.46 61.3596 202.6L61.1696 202.25L61.4095 202.12C58.1468 182.73 59.9236 162.826 66.5695 144.32L65.8795 144.07C65.0118 141.222 64.4289 138.294 64.1396 135.33V135.14C60.5262 132.633 56.9862 130.023 53.5195 127.31L53.6396 127.36C53.8252 127.397 54.0167 127.392 54.2001 127.345C54.3835 127.298 54.5542 127.211 54.6996 127.09C55.9529 126.09 56.9389 124.795 57.5695 123.32C58.8395 120.85 60.0095 118.32 61.1195 115.78C63.4295 110.45 65.4595 104.97 67.5195 99.4001L67.6595 99.1201C70.2637 105.256 73.7431 110.982 77.9895 116.12C80.7495 119.46 83.8595 122.58 85.9895 126.36L86.1295 126.86C84.5695 127.28 83.0262 127.74 81.4995 128.24C80.5762 128.436 79.7453 128.936 79.1396 129.66C78.3596 130.85 78.9295 132.51 78.3095 133.79C77.6895 135.07 76.1595 135.54 74.7795 135.89C76.3792 136.006 77.9852 135.779 79.4905 135.226C80.9958 134.672 82.3659 133.805 83.5096 132.68L83.9196 132.57C84.1144 133.368 84.1852 134.191 84.1295 135.01C83.9944 136.245 84.0517 137.493 84.2996 138.71C84.5442 139.532 85.0012 140.274 85.6245 140.862C86.2479 141.45 87.0154 141.863 87.8495 142.06L87.9695 142.36L88.3795 142.13L88.4695 143.58C89.7041 143.464 90.8884 143.034 91.9095 142.33C92.9795 141.64 93.9095 140.81 95.0195 140.11C95.4761 139.744 96.0023 139.475 96.5661 139.318C97.13 139.162 97.7197 139.122 98.2996 139.2C98.8271 139.377 99.3111 139.663 99.7197 140.041C100.128 140.418 100.452 140.878 100.67 141.39C101.19 142.39 101.51 143.45 102.12 144.39C102.391 144.875 102.783 145.282 103.258 145.571C103.733 145.86 104.274 146.021 104.83 146.04L106.45 147.28C105.067 149.689 104.352 152.423 104.38 155.2L106.87 156.06C106.55 156.48 106.24 156.9 105.94 157.33L105.26 158.7L101.97 157.06C101.35 156.659 100.615 156.473 99.8795 156.53C99.1773 156.77 98.5637 157.216 98.1195 157.81C97.6746 158.403 97.0129 158.795 96.2795 158.9C95.7195 158.9 95.1296 158.61 94.6396 158.9C94.4247 159.052 94.2713 159.275 94.2071 159.53C94.1429 159.785 94.1721 160.055 94.2896 160.29C94.5433 160.754 94.9073 161.149 95.3495 161.44L95.4295 161.93C95.0335 162.037 94.6652 162.228 94.3495 162.49C93.9677 162.804 93.6609 163.2 93.4515 163.648C93.2422 164.096 93.1356 164.586 93.1396 165.08C93.1428 165.388 93.1865 165.694 93.2695 165.99L92.8695 166.1C92.3711 166.42 91.9554 166.853 91.6565 167.364C91.3575 167.875 91.1838 168.449 91.1495 169.04C91.0898 169.933 91.2405 170.827 91.5895 171.65L91.4496 171.7C91.1202 172.634 91.0273 173.636 91.1791 174.615C91.3309 175.593 91.7227 176.52 92.3195 177.31C93.5424 178.875 95.1424 180.103 96.9695 180.88C99.2363 181.938 101.662 182.614 104.15 182.88V183.33C104.559 183.97 105.147 184.478 105.84 184.79C106.063 184.901 106.303 184.975 106.55 185.01C106.752 185.035 106.957 185.035 107.16 185.01V185.29C107.473 186.506 107.293 187.796 106.66 188.88L106.56 188.86ZM87.3896 146.31C87.5764 146.25 87.7342 146.123 87.8322 145.952C87.9301 145.782 87.9613 145.582 87.9196 145.39C87.8809 145.247 87.8007 145.119 87.689 145.021C87.5774 144.923 87.4393 144.861 87.2923 144.842C87.1453 144.823 86.9958 144.848 86.8629 144.913C86.73 144.979 86.6196 145.083 86.5456 145.211C86.4716 145.34 86.4373 145.487 86.4471 145.635C86.4569 145.783 86.5104 145.925 86.6007 146.042C86.691 146.16 86.8141 146.248 86.9545 146.296C87.0949 146.344 87.2463 146.348 87.3896 146.31Z" fill="#878787"/>
<path d="M109.85 183.57V183.85C109.595 184.183 109.247 184.434 108.85 184.57C108.663 184.649 108.469 184.71 108.27 184.75C107.999 184.828 107.721 184.882 107.44 184.91H107.17C106.968 184.935 106.763 184.935 106.56 184.91C106.313 184.875 106.074 184.801 105.85 184.69C105.157 184.377 104.57 183.87 104.16 183.23V182.78C104.39 182.78 104.63 182.84 104.86 182.86C105.591 182.895 106.307 182.648 106.86 182.17L107.11 182.01C107.312 182.339 107.581 182.622 107.9 182.84C108.477 183.246 109.148 183.497 109.85 183.57Z" fill="#A55DA1"/>
<path d="M108.991 132.96C109.292 133.93 109.374 134.955 109.231 135.96C109.128 136.783 108.874 137.579 108.481 138.31C107.68 139.524 106.815 140.696 105.891 141.82C105.448 142.405 105.13 143.076 104.958 143.79C104.786 144.505 104.763 145.247 104.891 145.97C104.336 145.951 103.795 145.79 103.32 145.501C102.845 145.212 102.453 144.805 102.181 144.32C101.571 143.39 101.251 142.32 100.731 141.32C100.514 140.808 100.19 140.348 99.7816 139.97C99.373 139.593 98.889 139.306 98.3614 139.13C97.7816 139.052 97.1918 139.092 96.628 139.248C96.0642 139.405 95.538 139.674 95.0814 140.04C94.0114 140.74 93.0814 141.57 91.9714 142.26C90.9503 142.964 89.766 143.394 88.5314 143.51L88.4414 142.06L88.8414 141.85C89.4035 141.564 89.9508 141.25 90.4814 140.91C91.9514 139.91 93.1214 138.53 94.6514 137.64C97.2814 136.09 100.521 136.27 103.491 135.64L104.081 135.49C105.093 135.261 106.031 134.783 106.811 134.1C107.551 133.39 107.811 131.45 107.541 130.44C108.196 131.169 108.69 132.028 108.991 132.96Z" fill="#878787"/>
<path d="M103.471 135.35C103.756 133.075 104.376 130.854 105.311 128.76L105.531 128.86C106.288 129.244 106.966 129.766 107.531 130.4C107.751 131.4 107.531 133.4 106.801 134.06C106.021 134.744 105.082 135.221 104.071 135.45L103.481 135.6L103.471 135.35Z" fill="#878787"/>
<path d="M99.2502 113.56L99.4002 113.67C98.7782 114.601 98.0862 115.484 97.3303 116.31L97.2102 116.43C96.5452 115.858 95.7292 115.49 94.8603 115.37C93.9919 115.258 93.1114 115.282 92.2502 115.44C91.1576 115.638 90.162 116.194 89.4203 117.02C88.8903 116.91 88.3502 116.78 87.8202 116.65L87.7603 118.28L87.6902 118.46C87.5395 118.41 87.3925 118.35 87.2502 118.28C86.5297 115.282 86.2202 112.201 86.3303 109.12V108.96C86.5235 108.97 86.717 108.97 86.9102 108.96V109.12C86.8015 109.824 86.8597 110.543 87.0803 111.22C88.8038 111.07 90.5402 111.243 92.2003 111.73C94.5669 112.29 96.9169 112.9 99.2502 113.56Z" fill="black"/>
<path d="M83.9603 132.5L83.5503 132.61C82.4067 133.735 81.0366 134.603 79.5312 135.156C78.0259 135.71 76.42 135.936 74.8203 135.82C76.2003 135.47 77.7403 135 78.3503 133.72C78.9603 132.44 78.4003 130.78 79.1803 129.59C79.786 128.866 80.617 128.366 81.5403 128.17C83.0736 127.67 84.617 127.21 86.1703 126.79C87.1703 126.51 88.1703 126.25 89.1703 126.01V125.72C89.4403 125.8 89.7203 125.87 90.0003 125.93L89.9003 126.35C89.4462 128.131 88.6291 129.8 87.5003 131.25H87.2903C86.9548 132.749 86.7275 134.269 86.6103 135.8C86.5203 137.96 87.0603 140.29 88.7103 141.68L88.8203 141.89L88.4203 142.1L88.0103 142.33L87.8903 142.03C87.0561 141.834 86.2886 141.42 85.6653 140.832C85.042 140.244 84.5849 139.502 84.3403 138.68C84.0925 137.463 84.0352 136.215 84.1703 134.98C84.2301 134.148 84.1592 133.311 83.9603 132.5Z" fill="#878787"/>
<path d="M42.9508 24.8799C43.056 25.048 43.173 25.2084 43.3008 25.3599C42.2739 25.9993 41.3835 26.8353 40.6808 27.8199C40.4914 28.0592 40.3459 28.33 40.2508 28.6199C40.2097 28.767 40.1992 28.921 40.2198 29.0723C40.2405 29.2237 40.2918 29.3692 40.3708 29.4999C40.497 29.652 40.6628 29.766 40.8499 29.8296C41.037 29.8931 41.2381 29.9036 41.4308 29.8599C41.8028 29.7633 42.1459 29.5781 42.4308 29.3199C43.282 28.6438 43.9806 27.7952 44.4808 26.83L44.6008 26.6899C44.8139 26.8668 45.0376 27.0304 45.2707 27.1799L45.2108 27.2799C44.5867 28.0035 44.111 28.8428 43.8108 29.7499C43.6204 30.2185 43.5516 30.7276 43.6108 31.2299C43.6451 31.4805 43.7456 31.7173 43.9021 31.916C44.0586 32.1146 44.2652 32.2679 44.5008 32.3599C44.8159 32.4298 45.1453 32.3955 45.4393 32.262C45.7332 32.1286 45.9759 31.9032 46.1308 31.6199C46.4325 31.051 46.6065 30.423 46.6408 29.7799L46.8508 28.0899L46.9008 27.9299C47.2823 28.0426 47.6743 28.1163 48.0708 28.15V28.2499C47.7276 28.9261 47.5588 29.6772 47.5797 30.4352C47.6007 31.1931 47.8107 31.9338 48.1908 32.5899C48.257 32.7375 48.3549 32.8688 48.4776 32.9742C48.6004 33.0797 48.7448 33.1567 48.9008 33.2C49.0888 33.2031 49.274 33.1532 49.4349 33.0559C49.5959 32.9586 49.7261 32.8179 49.8108 32.65C50.1798 31.9451 50.2657 31.1259 50.0508 30.3599C49.8908 29.5899 49.5708 28.8599 49.3708 28.0999C49.6569 28.0526 49.9381 27.979 50.2108 27.8799C50.3885 27.8136 50.5621 27.7368 50.7308 27.65C51.2688 29.1984 52.2931 30.5313 53.6508 31.45C53.9084 31.6567 54.2305 31.7664 54.5608 31.7599C54.7545 31.7282 54.9346 31.6402 55.0786 31.5068C55.2227 31.3735 55.3243 31.2007 55.3708 31.0099C55.4615 30.6233 55.43 30.218 55.2808 29.8499C54.7708 28.3699 53.6808 27.6099 52.4108 26.6899L52.2308 26.5099C52.6313 26.0918 52.9866 25.6326 53.2908 25.14L53.3408 25.0699C54.4429 26.237 55.8546 27.066 57.4108 27.46C57.7916 27.6 58.2099 27.6 58.5908 27.46C58.8592 27.299 59.06 27.0459 59.1557 26.7478C59.2514 26.4497 59.2354 26.1271 59.1108 25.8399C58.8388 25.2708 58.3944 24.802 57.8408 24.4999C56.7244 23.8069 55.4669 23.3729 54.1608 23.2299H54.0408C54.1363 22.3218 53.9914 21.4045 53.6208 20.5699C53.4421 20.1075 53.2281 19.6595 52.9808 19.2299L53.2508 19.1599C54.3993 18.817 55.501 18.3334 56.5308 17.7199C56.8649 17.5386 57.1658 17.302 57.4208 17.02C57.5408 16.8841 57.6326 16.7257 57.691 16.554C57.7494 16.3824 57.7731 16.2008 57.7608 16.02C57.7091 15.792 57.5946 15.583 57.4302 15.4169C57.2658 15.2507 57.0582 15.134 56.8308 15.08C56.3759 14.974 55.8983 15.0306 55.4808 15.2399C55.0622 15.4422 54.6693 15.694 54.3108 15.9899L52.1508 17.6199L51.8008 17.7C51.6908 17.58 51.5708 17.4599 51.4508 17.3499L50.9508 16.9399C51.651 16.2623 52.2505 15.4878 52.7308 14.64C52.9703 14.2145 53.1157 13.7425 53.1571 13.256C53.1985 12.7695 53.135 12.2798 52.9708 11.8199C52.8932 11.5892 52.7546 11.3837 52.5698 11.2253C52.3849 11.0668 52.1607 10.9613 51.9208 10.9199C51.7117 10.9314 51.5076 10.9884 51.3228 11.0869C51.138 11.1853 50.977 11.3228 50.8508 11.4899C50.324 12.1228 49.9785 12.8865 49.8508 13.7C49.7189 14.5063 49.662 15.3231 49.6808 16.14V16.2299C49.2324 16.0183 48.753 15.8799 48.2608 15.8199C48.3552 14.5176 48.1141 13.2127 47.5608 12.0299C47.3929 11.6081 47.1333 11.229 46.8008 10.9199C46.6232 10.7415 46.3965 10.6199 46.1496 10.5706C45.9027 10.5213 45.6468 10.5464 45.4142 10.6429C45.1817 10.7393 44.983 10.9027 44.8435 11.1123C44.704 11.3219 44.63 11.5682 44.6308 11.8199C44.5986 12.3644 44.7053 12.908 44.9408 13.4C45.3293 14.3639 45.8658 15.2613 46.5308 16.0599L46.5808 16.2C46.2678 16.2982 45.9635 16.4219 45.6708 16.5699V16.4899C45.1616 15.3586 44.4614 14.3235 43.6008 13.4299C43.1889 12.9332 42.6278 12.5825 42.0008 12.4299C41.6875 12.3667 41.3619 12.423 41.088 12.5877C40.8142 12.7524 40.6118 13.0136 40.5207 13.3199C40.4927 13.7239 40.6097 14.1246 40.8508 14.45C41.6472 15.6182 42.6186 16.657 43.7308 17.5299L43.8808 17.71C43.6312 17.9048 43.3971 18.1188 43.1808 18.3499C42.4021 17.4147 41.4017 16.6894 40.2707 16.2399C39.8831 16.0619 39.4554 15.9894 39.0308 16.0299C38.8189 16.0509 38.6184 16.1357 38.4559 16.2733C38.2934 16.4108 38.1765 16.5945 38.1208 16.7999C38.1121 17.047 38.1662 17.2921 38.2782 17.5125C38.3901 17.7329 38.5562 17.9213 38.7608 18.0599C39.6681 18.8506 40.7948 19.3459 41.9907 19.4799L42.2208 19.6199C42.0297 19.9306 41.8848 20.2675 41.7908 20.6199L41.5207 20.5299C40.2705 20.033 38.9199 19.841 37.5808 19.9699C37.2263 20.0004 36.8838 20.1134 36.5808 20.2999C36.4302 20.394 36.3032 20.5213 36.2096 20.6721C36.1159 20.823 36.0582 20.9933 36.0408 21.1699C36.0433 21.3701 36.0959 21.5664 36.1937 21.7411C36.2915 21.9157 36.4314 22.0632 36.6008 22.1699C36.9371 22.3698 37.312 22.4959 37.7008 22.5399C39.0357 22.7636 40.4041 22.678 41.7008 22.2899H41.6608C41.6994 22.5228 41.7631 22.7507 41.8508 22.9699H41.7407C41.0105 23.0475 40.2921 23.2121 39.6008 23.46C38.8357 23.7204 38.176 24.2222 37.7208 24.89C37.5998 25.049 37.5217 25.2363 37.4936 25.4341C37.4656 25.6319 37.4887 25.8336 37.5608 26.02C37.6404 26.1401 37.7451 26.2417 37.8676 26.3176C37.9902 26.3936 38.1277 26.4421 38.2707 26.46C38.5612 26.4867 38.8542 26.4526 39.1308 26.3599C40.3768 26.0197 41.5181 25.3735 42.4508 24.4799L42.5508 24.4199C42.6608 24.4699 42.8108 24.6799 42.9508 24.8799ZM25.5508 39.2C21.7308 35.4066 17.7874 31.7599 13.7208 28.2599L12.7208 26.8199C9.64076 28.9599 6.58077 31.1266 3.54077 33.3199L2.35077 34.4L2.72076 34.8099L2.44076 35.0599C2.38334 36.2516 2.78815 37.4195 3.57077 38.3199H3.85076C4.69186 39.0362 5.44994 39.8446 6.11077 40.7299C12.5659 48.68 19.8317 55.9359 27.7908 62.3799C28.3608 62.6999 29.0508 62.2799 29.5708 61.8799L50.7608 45.46L50.9208 45.2199C51.2491 45.4614 51.6091 45.6566 51.9907 45.7999L51.8608 46.0999C48.4074 48.9132 44.9374 51.6933 41.4508 54.4399C37.1508 57.8399 32.8174 61.1933 28.4508 64.4999L28.1308 64.2899C19.2326 57.129 11.1806 48.9763 4.13076 39.9899C2.9267 39.3406 1.98418 38.2948 1.46295 37.03C0.941711 35.7652 0.873801 34.3591 1.27075 33.0499C16.395 21.2371 32.2719 10.4209 48.8008 0.669922H49.0608C49.5046 1.14485 49.8451 1.70671 50.0608 2.31995C57.7508 10.7399 65.7008 18.93 73.8508 27.08L72.1708 28.1199C66.2841 32.0599 60.4007 36.0099 54.5207 39.9699C52.7907 40.0999 50.9908 40.48 49.6708 39.46L49.4408 39.52C49.204 39.7155 49.012 39.9594 48.8774 40.2354C48.7429 40.5114 48.669 40.813 48.6608 41.1199C48.6265 41.7236 48.747 42.3259 49.0108 42.8699C49.203 43.3042 49.4518 43.711 49.7508 44.08L49.5308 44.2599L38.2808 53.1199L36.7308 51.1199C33.1508 46.9999 29.4108 43.03 25.5508 39.2ZM59.7608 20.27C59.8032 20.0052 59.7564 19.7339 59.6279 19.4986C59.4994 19.2633 59.2964 19.0773 59.0508 18.9699C58.5508 18.7618 57.998 18.7163 57.4708 18.8399C56.1831 19.1314 54.9462 19.6134 53.8008 20.27L54.0508 21.8499C55.6082 22.1209 57.2108 21.9297 58.6608 21.2999C58.9106 21.2237 59.1397 21.0912 59.3303 20.9127C59.521 20.7341 59.6683 20.5143 59.7608 20.27ZM40.2908 34.27C40.4844 34.1079 40.6271 33.8933 40.7016 33.652C40.7761 33.4107 40.7793 33.153 40.7108 32.9099C40.5663 32.4238 40.2893 31.9875 39.9108 31.65C38.9395 30.7063 37.7117 30.0698 36.3808 29.8199C36.7286 30.9763 37.219 32.0848 37.8408 33.1199C38.0809 33.5671 38.4236 33.9509 38.8408 34.2399C39.0588 34.3752 39.3106 34.446 39.5672 34.4443C39.8238 34.4425 40.0746 34.3682 40.2908 34.2299V34.27ZM33.2908 32.0299C32.7913 30.4431 31.9441 28.9878 30.8108 27.77C30.6501 27.5851 30.447 27.4421 30.2187 27.3532C29.9905 27.2644 29.7441 27.2324 29.5008 27.2599C29.2598 27.3456 29.0543 27.509 28.9166 27.7245C28.779 27.9401 28.7171 28.1953 28.7407 28.45C28.8059 28.9624 29.0177 29.445 29.3508 29.8399C29.7905 30.4753 30.3715 31.0001 31.0482 31.3731C31.7249 31.7461 32.4788 31.9573 33.2508 31.9899L33.2908 32.0299Z" fill="#A55DA1"/>
<path d="M61.1497 115.73C60.0397 118.28 58.8698 120.8 57.5998 123.27C56.9691 124.745 55.9831 126.04 54.7298 127.04C54.5844 127.161 54.4137 127.249 54.2303 127.295C54.0469 127.342 53.8554 127.347 53.6698 127.31L53.5498 127.26C53.4185 127.182 53.307 127.074 53.2237 126.946C53.1405 126.818 53.0879 126.672 53.0698 126.52C53.0434 126.184 53.0738 125.846 53.1598 125.52C54.183 120.342 55.9372 115.335 58.3697 110.65H58.4498C59.3164 112.35 60.2164 114.044 61.1497 115.73Z" fill="black"/>
<path d="M59.0508 18.9701C59.2964 19.0776 59.4994 19.2635 59.6279 19.4988C59.7564 19.7341 59.8032 20.0055 59.7608 20.2702C59.6645 20.5089 59.5156 20.7228 59.3251 20.896C59.1347 21.0691 58.9076 21.197 58.6608 21.2702C57.2108 21.9 55.6082 22.0912 54.0508 21.8202L53.8008 20.2402C54.9462 19.5836 56.1831 19.1016 57.4708 18.8102C58.0012 18.6961 58.554 18.752 59.0508 18.9701Z" fill="white"/>
<path d="M59.1411 25.8903C59.2657 26.1775 59.2817 26.5001 59.186 26.7982C59.0904 27.0962 58.8896 27.3493 58.6211 27.5103C58.2402 27.6503 57.822 27.6503 57.4411 27.5103C55.885 27.1164 54.4732 26.2874 53.3711 25.1203C53.7417 24.5633 53.9967 23.9376 54.1211 23.2803H54.2411C55.5473 23.4232 56.8048 23.8572 57.9211 24.5503C58.4562 24.8605 58.8823 25.3286 59.1411 25.8903Z" fill="white"/>
<path d="M57.7901 15.9904C57.8024 16.1713 57.7787 16.3528 57.7203 16.5244C57.6619 16.6961 57.5701 16.8545 57.4501 16.9904C57.1951 17.2724 56.8942 17.5091 56.5601 17.6904C55.5303 18.3038 54.4286 18.7875 53.2801 19.1304L53.0101 19.2004C52.6839 18.6267 52.2875 18.096 51.8301 17.6204L52.1801 17.5404L54.3401 15.9103C54.6986 15.6144 55.0915 15.3626 55.5101 15.1603C55.9276 14.951 56.4052 14.8944 56.8601 15.0004C57.094 15.0582 57.3063 15.1824 57.4713 15.358C57.6363 15.5337 57.747 15.7533 57.7901 15.9904Z" fill="white"/>
<path d="M55.261 29.8801C55.4102 30.2481 55.4417 30.6534 55.351 31.04C55.3045 31.2308 55.2028 31.4036 55.0588 31.5369C54.9148 31.6703 54.7347 31.7583 54.541 31.79C54.2107 31.7965 53.8886 31.6868 53.631 31.48C52.2733 30.5614 51.249 29.2285 50.7109 27.6801C51.2679 27.3814 51.7741 26.9967 52.2109 26.54L52.391 26.72C53.661 27.64 54.751 28.4001 55.261 29.8801Z" fill="white"/>
<path d="M50.7098 27.6799C50.5412 27.7667 50.3676 27.8435 50.1899 27.9099C49.9172 28.009 49.636 28.0826 49.3499 28.1299C48.922 28.19 48.4878 28.19 48.0599 28.1299C47.6634 28.0963 47.2714 28.0226 46.8899 27.9099C46.4488 27.7792 46.023 27.6015 45.6199 27.3799C45.4999 27.3099 45.3699 27.2399 45.2599 27.1599C45.0267 27.0104 44.803 26.8468 44.5899 26.6699C44.1099 26.2667 43.6772 25.8105 43.2999 25.3099C43.1721 25.1584 43.0551 24.998 42.9499 24.83C42.8099 24.63 42.6799 24.42 42.5599 24.21L42.4099 23.96C42.1821 23.5678 41.9977 23.152 41.8599 22.7199C41.774 22.5268 41.707 22.3259 41.6599 22.1199C41.5847 21.6932 41.5847 21.2567 41.6599 20.83C41.6806 20.7153 41.7073 20.6018 41.7398 20.4899C41.8339 20.1375 41.9788 19.8006 42.1699 19.4899C42.3718 19.1332 42.6097 18.7981 42.8799 18.4899L43.1599 18.21C43.3763 17.9788 43.6103 17.7648 43.8599 17.5699C44.4177 17.1147 45.0329 16.7347 45.6899 16.4399C45.9826 16.2919 46.2869 16.1682 46.5999 16.0699C47.1029 15.8929 47.622 15.7657 48.1498 15.6899H48.2799C48.7721 15.7499 49.2515 15.8883 49.6999 16.0999C50.156 16.2979 50.5886 16.5461 50.9898 16.8399L51.4898 17.2499C51.6098 17.3599 51.7299 17.4799 51.8399 17.5999C52.2973 18.0755 52.6937 18.6063 53.0198 19.1799C53.2672 19.6095 53.4812 20.0575 53.6599 20.52C54.0306 21.3545 54.1754 22.2718 54.0799 23.1799C53.9555 23.8373 53.7005 24.463 53.3299 25.02L53.2799 25.0899C52.9757 25.5826 52.6204 26.0419 52.2199 26.46C51.7861 26.9459 51.2761 27.3579 50.7098 27.6799Z" fill="white"/>
<path d="M53.0205 11.7601C53.1848 12.2199 53.2483 12.7096 53.2069 13.1961C53.1655 13.6826 53.0201 14.1546 52.7805 14.5801C52.3002 15.4279 51.7008 16.2025 51.0005 16.8801C50.5993 16.5863 50.1667 16.3381 49.7105 16.1401V16.05C49.6917 15.2332 49.7487 14.4164 49.8805 13.61C50.0082 12.7966 50.3538 12.033 50.8805 11.4001C51.0067 11.233 51.1678 11.0954 51.3526 10.9969C51.5374 10.8985 51.7415 10.8416 51.9506 10.8301C52.1976 10.8706 52.4285 10.9791 52.6175 11.1433C52.8064 11.3075 52.946 11.5211 53.0205 11.7601Z" fill="white"/>
<path d="M50.0314 30.3902C50.2463 31.1562 50.1604 31.9754 49.7914 32.6802C49.7068 32.8482 49.5765 32.9888 49.4155 33.0861C49.2546 33.1834 49.0694 33.2333 48.8814 33.2302C48.7255 33.187 48.581 33.1099 48.4583 33.0045C48.3355 32.899 48.2376 32.7678 48.1714 32.6202C47.7913 31.9641 47.5813 31.2233 47.5603 30.4654C47.5394 29.7074 47.7082 28.9563 48.0514 28.2802V28.1802C48.4793 28.2402 48.9135 28.2402 49.3414 28.1802C49.5514 28.8902 49.8714 29.6202 50.0314 30.3902Z" fill="white"/>
<path d="M47.5704 11.9503C48.1237 13.133 48.3647 14.4379 48.2703 15.7403H48.1404C47.6125 15.816 47.0934 15.9433 46.5903 16.1203L46.5404 15.9803C45.8754 15.1816 45.3389 14.2842 44.9504 13.3203C44.7149 12.8284 44.6082 12.2847 44.6404 11.7403C44.6396 11.4885 44.7136 11.2422 44.8531 11.0326C44.9926 10.823 45.1913 10.6596 45.4238 10.5632C45.6564 10.4667 45.9123 10.4416 46.1592 10.4909C46.4061 10.5403 46.6327 10.6618 46.8103 10.8402C47.1429 11.1493 47.4025 11.5285 47.5704 11.9503Z" fill="white"/>
<path d="M46.8907 27.96L46.8407 28.1199L46.6307 29.8099C46.5964 30.453 46.4224 31.081 46.1207 31.65C45.9658 31.9332 45.7232 32.1585 45.4292 32.292C45.1352 32.4254 44.8058 32.4598 44.4907 32.39C44.2551 32.2979 44.0485 32.1446 43.892 31.946C43.7355 31.7473 43.635 31.5105 43.6007 31.2599C43.5415 30.7576 43.6103 30.2485 43.8007 29.7799C44.101 28.8728 44.5766 28.0336 45.2007 27.3099L45.2607 27.21C45.3707 27.29 45.5007 27.3599 45.6207 27.4299C46.0238 27.6515 46.4496 27.8292 46.8907 27.96Z" fill="white"/>
<path d="M45.6609 16.4102V16.4902C45.004 16.785 44.3887 17.1649 43.8309 17.6202L43.6809 17.4402C42.5687 16.5673 41.5973 15.5285 40.8009 14.3602C40.5598 14.0349 40.4428 13.6342 40.4709 13.2302C40.562 12.9239 40.7643 12.6627 41.0382 12.498C41.3121 12.3333 41.6376 12.277 41.9509 12.3402C42.5779 12.4928 43.139 12.8435 43.5509 13.3402C44.4268 14.2336 45.1407 15.2724 45.6609 16.4102Z" fill="white"/>
<path d="M44.5904 26.7201L44.4704 26.8601C43.9703 27.8254 43.2717 28.6739 42.4205 29.3501C42.1356 29.6082 41.7925 29.7935 41.4205 29.8901C41.2278 29.9339 41.0267 29.9233 40.8396 29.8598C40.6525 29.7963 40.4867 29.6821 40.3605 29.5301C40.2815 29.3993 40.2301 29.2539 40.2095 29.1025C40.1889 28.9512 40.1994 28.7973 40.2404 28.6501C40.3355 28.3602 40.4811 28.0894 40.6705 27.8501C41.3732 26.8655 42.2636 26.0295 43.2905 25.3901C43.6727 25.8807 44.1087 26.3268 44.5904 26.7201Z" fill="white"/>
<path d="M43.1495 18.2604L42.8695 18.5404C42.5993 18.8486 42.3614 19.1836 42.1595 19.5404L41.9295 19.4004C40.7335 19.2664 39.6068 18.771 38.6995 17.9804C38.4949 17.8417 38.3288 17.6534 38.2169 17.433C38.105 17.2126 38.0508 16.9674 38.0595 16.7204C38.1152 16.5149 38.2321 16.3313 38.3946 16.1937C38.5572 16.0562 38.7576 15.9714 38.9695 15.9504C39.3941 15.9099 39.8219 15.9823 40.2095 16.1604C41.3404 16.6098 42.3408 17.3352 43.1195 18.2704L43.1495 18.2604Z" fill="white"/>
<path d="M42.5609 24.2601L42.4609 24.3201C41.5282 25.2136 40.3869 25.8599 39.1409 26.2001C38.8643 26.2928 38.5714 26.3268 38.2809 26.3C38.1378 26.2822 38.0003 26.2337 37.8777 26.1577C37.7552 26.0818 37.6505 25.9802 37.5709 25.86C37.4989 25.6737 37.4757 25.472 37.5037 25.2742C37.5317 25.0764 37.61 24.8891 37.7309 24.73C38.1861 24.0623 38.8459 23.5605 39.6109 23.3C40.3022 23.0522 41.0206 22.8877 41.7509 22.8101H41.8609C41.9987 23.2421 42.1831 23.6579 42.4109 24.05L42.5609 24.2601Z" fill="white"/>
<path d="M41.46 20.3704L41.73 20.4604C41.6975 20.5723 41.6708 20.6857 41.65 20.8004C41.5749 21.2271 41.5749 21.6636 41.65 22.0903H41.66C40.3633 22.4785 38.9949 22.564 37.66 22.3403C37.2713 22.2964 36.8963 22.1702 36.56 21.9703C36.3907 21.8636 36.2507 21.7162 36.1529 21.5416C36.0551 21.3669 36.0025 21.1705 36 20.9703C36.0174 20.7937 36.0752 20.6234 36.1688 20.4725C36.2624 20.3217 36.3894 20.1944 36.54 20.1004C36.843 19.9138 37.1855 19.8009 37.54 19.7704C38.8757 19.6574 40.2192 19.863 41.46 20.3704Z" fill="white"/>
<path d="M40.7106 32.8701C40.7791 33.1131 40.776 33.3708 40.7014 33.6121C40.6269 33.8533 40.4843 34.068 40.2906 34.23C40.0746 34.3648 39.8252 34.4363 39.5706 34.4363C39.316 34.4363 39.0666 34.3648 38.8506 34.23C38.4334 33.941 38.0907 33.5572 37.8506 33.11C37.2289 32.0749 36.7385 30.9664 36.3906 29.8101C37.7216 30.0599 38.9494 30.6964 39.9206 31.6401C40.2909 31.9706 40.564 32.3959 40.7106 32.8701Z" fill="white"/>
<path d="M25.5511 39.2001C29.4111 43.0301 33.1511 47.0001 36.7311 51.1001L38.2811 53.1001L31.4311 58.4901C30.3511 59.3501 29.1011 60.2501 27.7411 60.0501C18.9916 52.0699 10.6478 43.656 2.74109 34.8401L2.37109 34.4301L3.5611 33.3501C6.6011 31.1568 9.66109 28.9901 12.7411 26.8501L13.7411 28.2901C17.8011 31.7834 21.7378 35.4201 25.5511 39.2001Z" fill="#A55DA1"/>
<path d="M30.7702 27.7301C31.9035 28.9479 32.7508 30.4033 33.2502 31.9901C32.4679 31.959 31.7038 31.7447 31.0194 31.3643C30.3351 30.9839 29.7496 30.4481 29.3102 29.8001C28.9772 29.4052 28.7654 28.9225 28.7002 28.4101C28.6766 28.1555 28.7385 27.9002 28.8761 27.6847C29.0137 27.4692 29.2193 27.3057 29.4602 27.2201C29.7036 27.1925 29.95 27.2245 30.1782 27.3133C30.4064 27.4022 30.6096 27.5452 30.7702 27.7301Z" fill="white"/>
<path d="M48.7304 0.620117C32.2016 10.3711 16.3247 21.1873 1.20045 33.0001C0.8035 34.3093 0.87138 35.7154 1.39262 36.9802C1.91385 38.245 2.85637 39.2908 4.06043 39.9401C11.1102 48.9265 19.1623 57.0792 28.0604 64.2401" stroke="#222120" stroke-linecap="round" stroke-linejoin="round"/>
<path d="M2.25977 34.3101L2.33975 34.4001L2.70975 34.8101C10.6165 43.626 18.9603 52.0399 27.7097 60.0201C29.0697 60.2201 30.3197 59.3201 31.3997 58.4601L38.2498 53.0701L49.4698 44.2401" stroke="#222120" stroke-linecap="round" stroke-linejoin="round"/>
<path d="M48.9902 0.640137C49.4341 1.11506 49.7746 1.67686 49.9902 2.2901C57.6802 10.7101 65.6302 18.9001 73.7802 27.0501L72.1703 28.1201C66.2836 32.0601 60.4002 36.0101 54.5202 39.9701" stroke="#222120" stroke-linecap="round" stroke-linejoin="round"/>
<path d="M28.4199 64.4503C32.7933 61.117 37.1266 57.7637 41.4199 54.3903C44.9133 51.6437 48.3833 48.8636 51.8299 46.0503" stroke="#222120" stroke-linecap="round" stroke-linejoin="round"/>
<path d="M58.6602 41.3699L74.6602 30.5199L72.6602 28.5898" stroke="#222120" stroke-linecap="round" stroke-linejoin="round"/>
<path d="M49.44 39.5503C49.207 39.7425 49.0171 39.9817 48.8827 40.2522C48.7483 40.5227 48.6724 40.8185 48.66 41.1203C48.6257 41.7239 48.7462 42.3263 49.01 42.8703C49.2022 43.3045 49.451 43.7114 49.75 44.0803C50.0862 44.5103 50.4877 44.8848 50.94 45.1903C51.2684 45.4318 51.6284 45.627 52.01 45.7703L52.24 45.8703C52.9544 46.1226 53.7125 46.2279 54.4686 46.1798C55.2247 46.1317 55.9633 45.9311 56.64 45.5903" stroke="#222120" stroke-linecap="round" stroke-linejoin="round"/>
<path d="M49.4311 48.1201C48.6944 49.0585 48.2148 50.1725 48.0395 51.3526C47.8641 52.5327 47.9991 53.7381 48.4311 54.8501" stroke="#222120" stroke-linecap="round" stroke-linejoin="round"/>
<path d="M53.6603 46.2202C53.5638 47.0261 53.7424 47.8409 54.1671 48.5325C54.5919 49.2241 55.2379 49.7519 56.0003 50.0302" stroke="#222120" stroke-linecap="round" stroke-linejoin="round"/>
<path d="M41.4609 54.4199C43.7209 57.1839 45.2785 60.4536 46.0009 63.95C46.7118 67.4336 47.2425 70.9516 47.5909 74.4899C49.2656 87.0298 52.9459 99.2187 58.4909 110.59C59.3309 112.33 60.2176 114.043 61.1509 115.73" stroke="#222120" stroke-linecap="round" stroke-linejoin="round"/>
<path d="M49.6602 39.4902C50.9802 40.4902 52.7802 40.1302 54.5102 40.0002C55.5704 39.8347 56.6558 40.0097 57.6102 40.5002C57.9946 40.7422 58.3331 41.0503 58.6102 41.4102C58.9836 41.9034 59.318 42.425 59.6102 42.9702C60.6102 44.8602 61.6102 46.9702 61.1102 49.0402C60.3602 51.9502 56.9001 53.3502 55.7101 55.9202C56.9714 65.3386 59.3377 74.5756 62.7602 83.4402C64.1702 87.0702 65.7602 90.9002 65.1402 94.7302L67.5802 99.3502" stroke="#222120" stroke-linecap="round" stroke-linejoin="round"/>
<path d="M58.4108 110.63C55.9783 115.315 54.2241 120.322 53.2008 125.5C53.1148 125.826 53.0844 126.164 53.1108 126.5C53.1289 126.652 53.1816 126.798 53.2648 126.926C53.348 127.054 53.4595 127.162 53.5908 127.24L53.7107 127.29C53.8964 127.327 54.0879 127.322 54.2713 127.275C54.4547 127.228 54.6253 127.141 54.7707 127.02C56.024 126.02 57.0101 124.724 57.6408 123.25C58.9108 120.78 60.0808 118.25 61.1908 115.71C63.5008 110.38 65.5308 104.9 67.5908 99.3301L67.6608 99.1201C70.2649 105.256 73.7444 110.982 77.9907 116.12C80.7507 119.46 83.8607 122.58 85.9907 126.36" stroke="#222120" stroke-linecap="round" stroke-linejoin="round"/>
<path d="M66.1811 112.32C64.0485 117.718 62.6005 123.362 61.8711 129.12" stroke="#222120" stroke-linecap="round" stroke-linejoin="round"/>
<path d="M70.0909 110.25C68.7909 118.35 67.7476 126.483 66.9609 134.65" stroke="#222120" stroke-linecap="round" stroke-linejoin="round"/>
<path d="M53.5898 127.28C57.0565 129.994 60.5965 132.604 64.2098 135.11" stroke="#222120" stroke-linecap="round" stroke-linejoin="round"/>
<path d="M66.3702 119.82C65.7002 124.97 65.0302 130.1 64.2402 135.11V135.3C64.5296 138.264 65.1125 141.192 65.9803 144.04" stroke="#222120" stroke-linecap="round" stroke-linejoin="round"/>
<path d="M72.4806 114.91C71.9563 123.338 70.4151 131.672 67.8906 139.73" stroke="#222120" stroke-linecap="round" stroke-linejoin="round"/>
<path d="M76.1007 124.27C72.293 130.607 69.1241 137.307 66.6408 144.27C59.9949 162.776 58.218 182.68 61.4807 202.07" stroke="#222120" stroke-linecap="round" stroke-linejoin="round"/>
<path d="M66.7695 171.27C68.2663 182.957 72.8041 194.046 79.9295 203.43" stroke="#222120" stroke-linecap="round" stroke-linejoin="round"/>
<path d="M70.5508 144.84C71.2243 162.087 76.1799 178.896 84.9708 193.75" stroke="#222120" stroke-linecap="round" stroke-linejoin="round"/>
<path d="M80.4199 164.34C84.788 176.663 91.9798 187.794 101.42 196.84" stroke="#222120" stroke-linecap="round" stroke-linejoin="round"/>
<path d="M107.17 185.21C107.483 186.426 107.304 187.716 106.67 188.8" stroke="#222120" stroke-linecap="round" stroke-linejoin="round"/>
<path d="M88.7812 93.1201C89.2446 92.817 89.8063 92.7025 90.3513 92.8C90.8917 92.8989 91.3762 93.1947 91.7112 93.6301" stroke="#222120" stroke-width="0.5" stroke-linecap="round" stroke-linejoin="round"/>
<path d="M98.75 94.7799C99.3103 94.2861 99.9952 93.9551 100.73 93.8229C101.465 93.6907 102.223 93.7623 102.92 94.0299C104.312 94.5896 105.482 95.5909 106.25 96.88" stroke="#222120" stroke-width="0.5" stroke-linecap="round" stroke-linejoin="round"/>
<path d="M97.4004 101.03C97.6062 100.438 97.8958 99.8794 98.2604 99.37C98.6442 98.8796 99.1781 98.5284 99.7804 98.37C100.503 98.2357 101.25 98.3901 101.86 98.8C102.469 99.2019 103.006 99.702 103.45 100.28C104.017 100.951 104.548 101.652 105.04 102.38" stroke="#222120" stroke-width="0.5" stroke-linecap="round" stroke-linejoin="round"/>
<path d="M87.1504 98.87C87.1487 98.4523 87.2699 98.0434 87.4989 97.694C87.7278 97.3446 88.0544 97.0703 88.4381 96.9051C88.8217 96.7399 89.2455 96.6912 89.6566 96.7649C90.0678 96.8387 90.4481 97.0318 90.7504 97.3201C91.382 98.0757 91.735 99.0253 91.7504 100.01" stroke="#222120" stroke-width="0.5" stroke-linecap="round" stroke-linejoin="round"/>
<path d="M89.2605 102C88.698 102.294 88.1878 102.68 87.7505 103.14C87.5426 103.339 87.3938 103.592 87.3205 103.87C87.2992 104.029 87.3122 104.191 87.3588 104.344C87.4054 104.498 87.4844 104.64 87.5905 104.76C87.7903 105.008 88.0303 105.221 88.3005 105.39" stroke="#222120" stroke-width="0.5" stroke-linecap="round" stroke-linejoin="round"/>
<path d="M87.9414 104.31C88.239 104.344 88.5176 104.474 88.7356 104.679C88.9537 104.885 89.0995 105.155 89.1514 105.45" stroke="#222120" stroke-width="0.5" stroke-linecap="round" stroke-linejoin="round"/>
<path d="M91.6602 104.82C92.0307 104.732 92.4204 104.778 92.7602 104.95C93.1023 105.129 93.3659 105.428 93.5002 105.79" stroke="#222120" stroke-width="0.5" stroke-linecap="round" stroke-linejoin="round"/>
<path d="M94.0508 106.2C94.3458 106.144 94.634 106.057 94.9108 105.94C95.1882 105.818 95.417 105.607 95.5608 105.34C95.6784 105.083 95.7031 104.794 95.6308 104.52C95.5539 104.253 95.4171 104.007 95.2308 103.8" stroke="#222120" stroke-width="0.5" stroke-linecap="round" stroke-linejoin="round"/>
<path d="M86.13 106.06C85.8091 106.538 85.4021 106.951 84.93 107.28C84.745 107.371 84.5846 107.506 84.4623 107.672C84.3399 107.838 84.2592 108.031 84.2269 108.235C84.1945 108.438 84.2116 108.647 84.2765 108.843C84.3414 109.039 84.4523 109.216 84.6 109.36C84.9305 109.728 85.2955 110.062 85.69 110.36" stroke="#222120" stroke-width="0.5" stroke-linecap="round" stroke-linejoin="round"/>
<path d="M85.1797 108.69C85.55 108.84 85.9414 108.931 86.3397 108.96C86.5329 108.97 86.7265 108.97 86.9197 108.96H87.8497C90.3144 109.018 92.7383 109.601 94.9597 110.67C96.5245 111.575 98.1639 112.344 99.8597 112.97C99.7097 113.19 99.5597 113.41 99.3997 113.62C98.7776 114.551 98.0857 115.434 97.3297 116.26L97.2097 116.38C96.6397 116.976 96.002 117.502 95.3097 117.95C94.8975 118.209 94.4624 118.43 94.0097 118.61C91.9595 119.31 89.7232 119.228 87.7297 118.38C87.579 118.33 87.432 118.27 87.2897 118.2C86.9897 118.07 86.6897 117.93 86.4097 117.78" stroke="#222120" stroke-width="0.5" stroke-linecap="round" stroke-linejoin="round"/>
<path d="M86.3303 109.12C86.2202 112.201 86.5297 115.283 87.2502 118.28" stroke="#222120" stroke-width="0.5" stroke-linecap="round" stroke-linejoin="round"/>
<path d="M86.9205 109.12C86.8117 109.824 86.8699 110.543 87.0905 111.22C88.814 111.07 90.5504 111.243 92.2105 111.73C94.5705 112.29 96.9038 112.9 99.2105 113.56" stroke="#222120" stroke-width="0.5" stroke-linecap="round" stroke-linejoin="round"/>
<path d="M89.4199 117.03C91.3516 117.463 93.3041 117.797 95.2699 118.03" stroke="#222120" stroke-width="0.5" stroke-linecap="round" stroke-linejoin="round"/>
<path d="M87.7598 118.28L87.8198 116.65C88.3498 116.78 88.8898 116.91 89.4198 117.02" stroke="#222120" stroke-width="0.5" stroke-linecap="round" stroke-linejoin="round"/>
<path d="M99.2402 110.79C99.7526 111.425 100.075 112.192 100.171 113.002C100.266 113.813 100.131 114.633 99.7802 115.37" stroke="#222120" stroke-width="0.5" stroke-linecap="round" stroke-linejoin="round"/>
<path d="M104.32 185.85C105.168 186.77 105.919 187.775 106.56 188.85C107.155 189.817 107.461 190.934 107.44 192.07C107.235 192.951 107.235 193.868 107.44 194.75C107.722 195.248 108.095 195.69 108.54 196.05C110.025 197.535 110.859 199.549 110.86 201.65" stroke="#222120" stroke-linecap="round" stroke-linejoin="round"/>
<path d="M88.2705 92.5501C88.1077 92.4132 87.9744 92.2447 87.8788 92.0547C87.7831 91.8648 87.727 91.6574 87.7139 91.4451C87.7008 91.2328 87.731 91.0202 87.8026 90.8199C87.8742 90.6196 87.9858 90.4359 88.1305 90.2801C87.845 89.8388 87.7199 89.3127 87.7764 88.7901C87.8328 88.2675 88.0673 87.7802 88.4405 87.4101C88.3209 87.22 88.2419 87.0073 88.2085 86.7852C88.175 86.5632 88.1877 86.3366 88.246 86.1197C88.3042 85.9028 88.4066 85.7003 88.5467 85.5248C88.6869 85.3494 88.8618 85.2048 89.0605 85.1001C88.9273 84.8831 88.8479 84.6374 88.8287 84.3834C88.8096 84.1295 88.8513 83.8747 88.9505 83.6401C89.219 83.1194 89.6612 82.709 90.2005 82.4801C89.9205 81.7301 90.3505 80.7901 91.5505 80.2401C91.5123 80.0137 91.5257 79.7816 91.59 79.5612C91.6543 79.3408 91.7677 79.1378 91.9216 78.9675C92.0756 78.7971 92.2662 78.6639 92.479 78.5778C92.6919 78.4916 92.9214 78.4548 93.1505 78.4701C93.2043 78.2302 93.3058 78.0036 93.4491 77.8038C93.5924 77.604 93.7745 77.4351 93.9845 77.3072C94.1945 77.1793 94.4281 77.0951 94.6714 77.0595C94.9147 77.0239 95.1627 77.0377 95.4005 77.1001C95.4626 76.8778 95.5683 76.6702 95.7115 76.4892C95.8546 76.3082 96.0323 76.1575 96.2343 76.0458C96.4362 75.9341 96.6583 75.8637 96.8877 75.8387C97.1172 75.8137 97.3493 75.8346 97.5705 75.9001C97.8405 75.4465 98.2471 75.0899 98.7321 74.8815C99.2171 74.6732 99.7556 74.6236 100.27 74.7401C100.68 74.0201 101.681 73.7401 103.071 74.3701C103.401 73.5301 104.52 73.1201 106.07 73.6901C106.257 73.4996 106.479 73.3483 106.725 73.2449C106.97 73.1416 107.234 73.0884 107.501 73.0884C107.767 73.0884 108.031 73.1416 108.276 73.2449C108.522 73.3483 108.744 73.4996 108.931 73.6901C109.611 73.0001 110.851 72.9601 112.301 73.6901C112.469 73.5166 112.677 73.3881 112.908 73.3164C113.139 73.2448 113.384 73.2322 113.621 73.2801C114.091 73.3701 114.5 73.7201 115.15 74.4501C115.365 74.2922 115.614 74.1887 115.877 74.1486C116.14 74.1086 116.409 74.133 116.661 74.2201C117.146 74.3975 117.544 74.7559 117.77 75.2201C118.83 74.9801 120.01 75.7101 120.77 77.0601C120.967 76.9325 121.193 76.8557 121.427 76.8365C121.661 76.8173 121.895 76.8563 122.111 76.9501C122.557 77.1954 122.909 77.5824 123.111 78.0501C123.931 78.0501 124.711 78.6401 125.481 79.8301C125.711 79.7765 125.952 79.7863 126.177 79.8585C126.402 79.9306 126.604 80.0625 126.76 80.2401C127.077 80.7198 127.238 81.2856 127.221 81.8601C127.626 81.751 128.055 81.7685 128.45 81.9101C128.639 82.0324 128.795 82.1978 128.906 82.3926C129.017 82.5874 129.081 82.806 129.091 83.0301C129.309 83.1945 129.561 83.3101 129.829 83.3687C130.096 83.4274 130.373 83.4278 130.64 83.3701C130.93 83.7401 130.32 84.2301 130.39 84.6901C130.427 84.8209 130.496 84.9405 130.59 85.0382C130.684 85.136 130.801 85.2088 130.931 85.2501C131.189 85.3294 131.427 85.4624 131.63 85.6401C131.595 86.066 131.669 86.4939 131.843 86.8839C132.018 87.2738 132.289 87.6131 132.63 87.8701C132.57 88.1801 132.391 88.4801 132.491 88.7801C132.591 89.0801 133.041 89.2201 133.401 89.2601C133.492 89.7127 133.402 90.1832 133.151 90.5701C133.519 90.9093 133.767 91.3584 133.859 91.8504C133.951 92.3424 133.881 92.8509 133.661 93.3001C133.861 93.9301 134.051 94.5601 134.251 95.1801C134.395 95.5596 134.463 95.9641 134.45 96.3701C134.374 96.825 134.157 97.2446 133.83 97.5701C134.041 97.781 134.216 98.0241 134.351 98.2901C134.414 98.4244 134.448 98.5713 134.448 98.7201C134.448 98.8689 134.414 99.0158 134.351 99.1501C134.191 99.4401 133.841 99.5901 133.691 99.8801C133.631 100.034 133.615 100.202 133.645 100.364C133.675 100.527 133.75 100.678 133.861 100.8C134.172 101.088 134.432 101.426 134.63 101.8C134.14 101.75 133.781 102.29 133.741 102.8C133.701 103.31 133.881 103.8 133.861 104.26C133.858 104.529 133.774 104.792 133.618 105.011C133.463 105.231 133.244 105.398 132.991 105.49C133.207 105.834 133.295 106.242 133.24 106.645C133.185 107.047 132.991 107.417 132.691 107.69" stroke="#222120" stroke-linecap="round" stroke-linejoin="round"/>
<path d="M119.16 121.55C119.587 121.758 120.078 121.792 120.53 121.645C120.982 121.498 121.358 121.18 121.58 120.76C121.759 120.888 121.97 120.963 122.19 120.975C122.41 120.988 122.628 120.937 122.82 120.83C123.222 120.495 123.528 120.061 123.71 119.57C124.078 119.653 124.464 119.589 124.787 119.394C125.109 119.198 125.343 118.885 125.44 118.52C126.109 118.417 126.792 118.465 127.44 118.66C127.319 118.203 127.302 117.725 127.39 117.26C127.44 116.98 127.72 116.8 127.98 116.69C128.258 116.618 128.524 116.507 128.77 116.36C128.892 116.242 128.982 116.094 129.031 115.932C129.08 115.769 129.086 115.596 129.05 115.43C129.256 115.453 129.464 115.412 129.646 115.312C129.827 115.212 129.973 115.058 130.063 114.871C130.153 114.684 130.183 114.474 130.148 114.27C130.114 114.066 130.017 113.877 129.87 113.73C130.307 113.613 130.69 113.352 130.959 112.988C131.228 112.625 131.366 112.182 131.35 111.73C131.594 111.814 131.861 111.8 132.094 111.692C132.328 111.584 132.512 111.39 132.606 111.15C132.7 110.91 132.698 110.643 132.6 110.404C132.502 110.166 132.316 109.975 132.08 109.87C132.378 109.734 132.612 109.49 132.734 109.187C132.857 108.883 132.859 108.545 132.74 108.24" stroke="#222120" stroke-linecap="round" stroke-linejoin="round"/>
<path d="M85.9805 99.1203C86.5193 96.8865 87.425 94.7577 88.6605 92.8203C90.4932 89.9651 92.9348 87.5507 95.8105 85.7503C95.9408 85.8754 96.1026 85.9628 96.2787 86.0033C96.4548 86.0438 96.6385 86.0358 96.8105 85.9802C97.1584 85.8513 97.5162 85.751 97.8805 85.6803C98.037 85.6704 98.194 85.6704 98.3505 85.6803C98.8405 85.6803 99.3505 85.7702 100.03 85.7902C100.121 85.8685 100.233 85.9186 100.352 85.9346C100.471 85.9506 100.592 85.9317 100.7 85.8803C100.919 85.7821 101.152 85.7213 101.39 85.7003C101.778 85.7671 102.131 85.9648 102.39 86.2603C102.566 86.4083 102.771 86.5184 102.991 86.5838C103.211 86.6492 103.442 86.6684 103.67 86.6403C103.964 86.9771 104.348 87.2236 104.776 87.3511C105.204 87.4786 105.66 87.4817 106.09 87.3603C106.385 87.8403 106.785 88.2473 107.259 88.5504C107.734 88.8536 108.271 89.045 108.83 89.1103C109.115 89.4193 109.459 89.6674 109.843 89.8393C110.226 90.0112 110.64 90.1034 111.06 90.1103C111.296 90.9809 111.69 91.801 112.22 92.5302C112.956 93.83 113.368 95.2878 113.42 96.7802" stroke="#222120" stroke-linecap="round" stroke-linejoin="round"/>
<path d="M132.5 107.05C132.5 106.75 132.61 106.44 132.66 106.13" stroke="#222120" stroke-linecap="round" stroke-linejoin="round"/>
<path d="M111.23 99.1201C112.23 100.91 112.23 103.12 112.1 105.12C111.97 107.12 111.87 109.36 112.79 111.21" stroke="#222120" stroke-linecap="round" stroke-linejoin="round"/>
<path d="M85.9395 99.29C83.6874 102.149 82.4085 105.653 82.2895 109.29C82.1895 113.02 83.2895 116.66 84.4295 120.21C84.7491 121.541 85.3416 122.79 86.1695 123.88C86.9735 124.759 88.0159 125.384 89.1695 125.68C89.4395 125.76 89.7195 125.83 89.9995 125.89C90.9203 126.061 91.8533 126.158 92.7895 126.18C95.7847 126.326 98.7831 125.968 101.66 125.12C104.559 124.258 107.142 122.565 109.09 120.25C109.335 120.799 109.689 121.292 110.131 121.699C110.573 122.107 111.093 122.42 111.66 122.62C111.863 122.705 112.074 122.772 112.29 122.82C113.701 123.104 115.164 122.983 116.51 122.47C117.211 122.213 117.882 121.877 118.51 121.47C119.567 120.839 120.472 119.982 121.16 118.96C121.717 118.143 122.084 117.211 122.231 116.232C122.378 115.254 122.302 114.255 122.01 113.31C121.735 112.476 121.22 111.742 120.53 111.2C119.899 110.763 119.178 110.472 118.42 110.35C116.547 109.94 114.588 110.236 112.92 111.18" stroke="#222120" stroke-linecap="round" stroke-linejoin="round"/>
<path d="M120.081 117.71C120.395 117.225 120.563 116.659 120.563 116.08C120.563 115.502 120.395 114.936 120.081 114.45C119.768 113.966 119.354 113.556 118.867 113.247C118.38 112.938 117.833 112.738 117.261 112.66C116.11 112.509 114.941 112.704 113.901 113.22C113.83 113.242 113.764 113.278 113.708 113.326C113.651 113.375 113.604 113.434 113.571 113.5C113.511 113.7 113.681 113.88 113.871 114L114.041 114.08C114.791 114.39 115.571 114.65 116.311 115.01C117.058 115.347 117.703 115.875 118.181 116.54C118.445 116.919 118.604 117.36 118.641 117.82C118.677 118.16 118.629 118.503 118.501 118.82C118.348 119.206 118.063 119.525 117.697 119.72C117.331 119.916 116.907 119.976 116.501 119.89C116.189 119.78 115.905 119.601 115.67 119.368C115.434 119.135 115.254 118.852 115.141 118.54C114.871 117.94 114.731 117.29 114.451 116.69C114.327 116.383 114.133 116.108 113.885 115.887C113.637 115.667 113.341 115.507 113.021 115.42H112.881C112.802 115.411 112.722 115.423 112.649 115.457C112.577 115.491 112.515 115.544 112.471 115.61C112.331 115.88 112.631 116.15 112.831 116.37C113.078 116.657 113.213 117.022 113.213 117.4C113.213 117.778 113.078 118.144 112.831 118.43C112.567 118.701 112.213 118.866 111.836 118.896C111.459 118.925 111.084 118.817 110.781 118.59" stroke="#222120" stroke-width="0.5" stroke-linecap="round" stroke-linejoin="round"/>
<path d="M89.2606 98.3799C89.0549 98.6767 88.9276 99.0207 88.8906 99.3799" stroke="#222120" stroke-linecap="round" stroke-linejoin="round"/>
<path d="M100.051 100.01C99.8587 100.256 99.7376 100.55 99.7012 100.86" stroke="#222120" stroke-linecap="round" stroke-linejoin="round"/>
<path d="M89.1313 126.01C88.1313 126.25 87.1313 126.51 86.1313 126.79C84.5713 127.21 83.0279 127.67 81.5013 128.17C80.5779 128.366 79.747 128.866 79.1413 129.59C78.3613 130.78 78.9312 132.44 78.3112 133.72C77.6912 135 76.1612 135.47 74.7812 135.82C76.3809 135.936 77.9869 135.71 79.4922 135.156C80.9975 134.603 82.3676 133.735 83.5113 132.61" stroke="#222120" stroke-linecap="round" stroke-linejoin="round"/>
<path d="M80.2207 130.39C80.7865 130.122 81.4323 130.076 82.0304 130.261C82.6285 130.446 83.1353 130.849 83.4507 131.39C83.6792 131.748 83.8512 132.14 83.9607 132.55C84.1555 133.348 84.2264 134.171 84.1707 134.99C84.0356 136.225 84.0929 137.473 84.3407 138.69C84.5853 139.512 85.0424 140.254 85.6657 140.842C86.289 141.43 87.0565 141.843 87.8907 142.04" stroke="#222120" stroke-linecap="round" stroke-linejoin="round"/>
<path d="M89.9 126.35C89.4459 128.131 88.6288 129.799 87.5 131.25" stroke="#222120" stroke-linecap="round" stroke-linejoin="round"/>
<path d="M87.571 129.37C87.501 129.99 87.401 130.6 87.291 131.21C86.9555 132.709 86.7282 134.229 86.611 135.76C86.521 137.92 87.061 140.25 88.711 141.64" stroke="#222120" stroke-linecap="round" stroke-linejoin="round"/>
<path d="M105.53 128.86C106.287 129.244 106.966 129.766 107.53 130.4C108.196 131.14 108.697 132.012 109 132.96C109.301 133.93 109.383 134.955 109.24 135.96C109.137 136.783 108.882 137.58 108.49 138.31C107.688 139.525 106.824 140.696 105.9 141.82C105.456 142.406 105.138 143.077 104.966 143.791C104.794 144.505 104.772 145.247 104.9 145.97C104.344 145.952 103.803 145.79 103.328 145.501C102.854 145.212 102.461 144.805 102.19 144.32C101.58 143.39 101.26 142.32 100.74 141.32C100.522 140.808 100.199 140.348 99.79 139.971C99.3815 139.593 98.8974 139.307 98.3699 139.13C97.7901 139.052 97.2003 139.092 96.6365 139.249C96.0727 139.405 95.5465 139.674 95.0899 140.04C94.0199 140.74 93.0899 141.57 91.9799 142.26C90.9588 142.964 89.7745 143.394 88.5399 143.51H88.4199" stroke="#222120" stroke-linecap="round" stroke-linejoin="round"/>
<path d="M107.52 130.4C107.74 131.4 107.52 133.4 106.79 134.06C106.01 134.744 105.071 135.221 104.06 135.45L103.47 135.6C100.47 136.27 97.2598 136.09 94.6298 137.6C93.0998 138.49 91.9297 139.89 90.4597 140.87C89.9292 141.211 89.3818 141.525 88.8198 141.81L88.4198 142.02L88.0098 142.25C87.7339 142.398 87.4668 142.562 87.2097 142.74C85.5289 144.059 84.2053 145.778 83.3598 147.74C82.4098 149.63 81.6398 151.62 80.5098 153.4" stroke="#222120" stroke-linecap="round" stroke-linejoin="round"/>
<path d="M111.571 122.81C111.4 123 111.189 123.15 110.955 123.25C110.72 123.35 110.466 123.398 110.211 123.39C109.752 123.319 109.3 123.209 108.861 123.06C105.927 126.558 104.056 130.823 103.471 135.35L103.561 135.27" stroke="#222120" stroke-linecap="round" stroke-linejoin="round"/>
<path d="M106.491 147.2C105.108 149.609 104.393 152.343 104.421 155.12" stroke="#222120" stroke-linecap="round" stroke-linejoin="round"/>
<path d="M115.06 148.64C111.923 150.575 109.162 153.062 106.91 155.98C106.59 156.4 106.28 156.82 105.98 157.25" stroke="#222120" stroke-linecap="round" stroke-linejoin="round"/>
<path d="M111.131 168.62C112.224 170.745 113.821 172.571 115.782 173.938C117.743 175.304 120.008 176.17 122.381 176.46" stroke="#222120" stroke-linecap="round" stroke-linejoin="round"/>
<path d="M111.781 160.29L126.381 175.75" stroke="#222120" stroke-linecap="round" stroke-linejoin="round"/>
<path d="M109.531 136C112.681 140.42 118.321 142.55 121.411 147C123.711 150.32 124.311 154.51 124.591 158.53C124.871 162.55 124.941 166.7 126.371 170.47C126.959 171.932 127.627 173.361 128.371 174.75C128.611 175.23 128.841 175.75 129.061 176.18C130.049 178.086 130.485 180.23 130.321 182.37C129.651 183.653 128.604 184.7 127.321 185.37" stroke="#222120" stroke-linecap="round" stroke-linejoin="round"/>
<path d="M130.36 182.4C130.18 181.499 129.657 180.703 128.9 180.18C128.147 179.665 127.307 179.289 126.42 179.07L126.05 178.98C123.632 178.36 121.107 178.271 118.65 178.72" stroke="#222120" stroke-linecap="round" stroke-linejoin="round"/>
<path d="M113.18 176.05H113.24H113.34L118.62 178.7L122.14 180.47C123.406 180.95 124.481 181.832 125.2 182.98" stroke="#222120" stroke-linecap="round" stroke-linejoin="round"/>
<path d="M126 179.19C126.468 181.264 126.829 183.36 127.08 185.47C127.252 186.958 127.269 188.459 127.13 189.95C127.063 191.054 126.781 192.134 126.3 193.13C125.814 194.134 124.957 194.908 123.91 195.29C123.391 195.462 122.834 195.484 122.303 195.353C121.773 195.222 121.29 194.944 120.91 194.55" stroke="#222120" stroke-linecap="round" stroke-linejoin="round"/>
<path d="M121.75 194.351L120.91 194.261C118.206 193.917 115.633 192.893 113.433 191.284C111.232 189.675 109.477 187.534 108.33 185.061" stroke="#222120" stroke-linecap="round" stroke-linejoin="round"/>
<path d="M106.861 182.18C106.307 182.658 105.591 182.905 104.861 182.87C104.631 182.87 104.391 182.87 104.161 182.79C101.673 182.524 99.2472 181.848 96.9805 180.79C95.1533 180.013 93.5534 178.785 92.3305 177.22C91.7337 176.43 91.3418 175.504 91.19 174.525C91.0382 173.546 91.1311 172.545 91.4605 171.61" stroke="#222120" stroke-linecap="round" stroke-linejoin="round"/>
<path d="M94.0396 175.21C93.2833 174.312 92.6137 173.344 92.0396 172.32C91.9003 172.068 91.7767 171.808 91.6696 171.54C91.3205 170.717 91.1698 169.823 91.2296 168.93C91.2638 168.339 91.4375 167.765 91.7365 167.254C92.0354 166.743 92.4511 166.31 92.9496 165.99" stroke="#222120" stroke-linecap="round" stroke-linejoin="round"/>
<path d="M96.7108 171.38C96.2091 170.255 95.5343 169.216 94.7108 168.3C94.1101 167.585 93.6487 166.765 93.3508 165.88C93.2678 165.584 93.2241 165.278 93.2208 164.97C93.2168 164.475 93.3234 163.986 93.5328 163.538C93.7421 163.09 94.0489 162.694 94.4308 162.38C94.7465 162.118 95.1148 161.927 95.5108 161.82C96.1121 161.66 96.7482 161.692 97.3308 161.91H97.3908C97.6504 162.871 98.1983 163.73 98.9608 164.37C99.7218 165.009 100.546 165.568 101.421 166.04" stroke="#222120" stroke-linecap="round" stroke-linejoin="round"/>
<path d="M97.2695 162.03C97.2695 162.03 97.2695 161.95 97.2695 161.91C97.3273 161.036 97.6799 160.208 98.2695 159.56C98.6058 159.305 98.9972 159.132 99.4122 159.056C99.8273 158.979 100.255 159.001 100.66 159.12C101.48 159.361 102.257 159.733 102.96 160.22L105.87 162.02C106.365 162.292 106.822 162.628 107.23 163.02C108.23 164.08 108.33 165.65 108.41 167.09" stroke="#222120" stroke-linecap="round" stroke-linejoin="round"/>
<path d="M95.3906 161.33C94.9484 161.04 94.5844 160.645 94.3306 160.18C94.2132 159.945 94.1839 159.675 94.2481 159.42C94.3123 159.165 94.4658 158.942 94.6806 158.79C95.1706 158.53 95.7606 158.79 96.3206 158.79C97.054 158.685 97.7157 158.293 98.1606 157.7C98.6048 157.106 99.2183 156.66 99.9206 156.42C100.657 156.363 101.391 156.549 102.011 156.95L105.301 158.59L105.821 158.85C106.895 159.312 107.88 159.958 108.731 160.76C108.875 160.911 109.009 161.071 109.131 161.24C109.964 162.481 110.419 163.936 110.441 165.43C110.432 167.121 110.339 168.809 110.161 170.49C110.08 171.59 110.14 172.696 110.341 173.78C110.458 174.361 110.646 174.925 110.901 175.46" stroke="#222120" stroke-linecap="round" stroke-linejoin="round"/>
<path d="M102.41 164.42C102.65 165.046 102.988 165.63 103.41 166.15" stroke="#222120" stroke-linecap="round" stroke-linejoin="round"/>
<path d="M97.8711 169.18C97.894 169.795 98.1189 170.386 98.5111 170.86" stroke="#222120" stroke-linecap="round" stroke-linejoin="round"/>
<path d="M94.8613 173.2C94.823 173.687 94.8983 174.177 95.0813 174.63C95.1331 174.754 95.1933 174.874 95.2612 174.99" stroke="#222120" stroke-linecap="round" stroke-linejoin="round"/>
<path d="M107.481 178.12C107.451 178.071 107.43 178.016 107.421 177.96C107.403 177.859 107.413 177.756 107.449 177.661C107.485 177.566 107.547 177.482 107.627 177.42C107.707 177.357 107.803 177.317 107.904 177.305C108.005 177.293 108.108 177.308 108.201 177.35C108.262 177.373 108.317 177.411 108.361 177.46C108.47 177.535 108.549 177.647 108.584 177.775C108.618 177.903 108.606 178.039 108.55 178.159C108.493 178.279 108.396 178.375 108.276 178.43C108.155 178.485 108.019 178.496 107.891 178.46C107.8 178.442 107.714 178.401 107.643 178.342C107.571 178.282 107.516 178.206 107.481 178.12Z" stroke="#222120" stroke-width="0.5" stroke-linecap="round" stroke-linejoin="round"/>
<path d="M109.31 182.26C108.841 181.793 108.527 181.192 108.41 180.54C108.418 179.872 108.667 179.23 109.11 178.73C109.523 178.096 110.14 177.623 110.86 177.39C111.219 177.312 111.591 177.329 111.942 177.437C112.292 177.546 112.608 177.743 112.86 178.01C113.101 178.279 113.281 178.598 113.388 178.943C113.495 179.288 113.526 179.652 113.48 180.01C113.354 180.743 112.954 181.401 112.36 181.85C111.764 182.293 111.043 182.538 110.3 182.55C110.124 182.576 109.944 182.563 109.774 182.513C109.603 182.463 109.445 182.377 109.31 182.26Z" stroke="#222120" stroke-width="0.5" stroke-linecap="round" stroke-linejoin="round"/>
<path d="M107.31 178.251C106.954 178.857 106.764 179.547 106.759 180.251C106.699 180.819 106.796 181.393 107.04 181.91C107.057 181.951 107.08 181.988 107.11 182.021C107.311 182.35 107.58 182.633 107.899 182.85C108.492 183.261 109.181 183.509 109.899 183.571C110.324 183.612 110.752 183.588 111.17 183.501C111.719 183.382 112.24 183.156 112.702 182.835C113.164 182.514 113.557 182.105 113.86 181.631C114.468 180.668 114.68 179.506 114.449 178.391C114.339 177.773 114.059 177.198 113.639 176.73C113.494 176.581 113.333 176.447 113.16 176.331C112.51 175.913 111.736 175.736 110.97 175.831H110.879C109.883 176.01 108.975 176.517 108.3 177.271" stroke="#222120" stroke-width="0.5" stroke-linecap="round" stroke-linejoin="round"/>
<path d="M110.48 173.78C110.738 173.764 110.996 173.801 111.238 173.889C111.481 173.977 111.703 174.113 111.89 174.29C112.528 174.764 113.028 175.399 113.34 176.13" stroke="#222120" stroke-linecap="round" stroke-linejoin="round"/>
<path d="M104.141 183.24C104.55 183.88 105.138 184.388 105.831 184.7C106.054 184.811 106.294 184.885 106.541 184.92C106.743 184.945 106.948 184.945 107.151 184.92H107.421C107.702 184.892 107.979 184.839 108.251 184.76C108.45 184.72 108.644 184.66 108.831 184.58C109.228 184.444 109.575 184.194 109.831 183.86" stroke="#222120" stroke-linecap="round" stroke-linejoin="round"/>
<path d="M111.75 97.9004L112.18 98.4404C112.32 98.6204 112.45 98.8104 112.58 99.0104C112.831 99.3977 113.062 99.7983 113.27 100.21" stroke="#222120" stroke-width="0.5" stroke-linecap="round" stroke-linejoin="round"/>
<path d="M112.35 96.7803L112.65 97.3003C112.88 97.7003 113.12 98.1003 113.39 98.4803C113.5 98.6603 113.62 98.8403 113.74 99.0103" stroke="#222120" stroke-width="0.5" stroke-linecap="round" stroke-linejoin="round"/>
<path d="M13.7207 28.2603C17.7874 31.7669 21.7307 35.4136 25.5507 39.2003C29.4107 43.0303 33.1507 47.0002 36.7307 51.1002" stroke="#222120" stroke-width="0.5" stroke-linecap="round" stroke-linejoin="round"/>
<path d="M24.9805 39.7798L25.5505 39.1999C30.8381 33.8359 36.6695 29.0367 42.9505 24.8799" stroke="#222120" stroke-width="0.5" stroke-linecap="round" stroke-linejoin="round"/>
<path d="M33.2502 31.9901C32.7508 30.4033 31.9035 28.9479 30.7702 27.7301C30.6096 27.5452 30.4064 27.4022 30.1782 27.3133C29.95 27.2245 29.7036 27.1925 29.4602 27.2201C29.2193 27.3057 29.0137 27.4692 28.8761 27.6847C28.7385 27.9002 28.6766 28.1555 28.7002 28.4101C28.7654 28.9225 28.9772 29.4052 29.3102 29.8001C29.7496 30.4481 30.3351 30.9839 31.0194 31.3643C31.7038 31.7447 32.4679 31.959 33.2502 31.9901Z" stroke="#222120" stroke-width="0.5" stroke-linecap="round" stroke-linejoin="round"/>
<path d="M36.3809 29.7803C36.7287 30.9366 37.2191 32.0452 37.8409 33.0803C38.081 33.5275 38.4237 33.9113 38.8409 34.2003C39.0568 34.3351 39.3063 34.4065 39.5609 34.4065C39.8154 34.4065 40.0649 34.3351 40.2809 34.2003C40.4745 34.0382 40.6172 33.8236 40.6917 33.5823C40.7662 33.3411 40.7694 33.0833 40.7009 32.8403C40.5564 32.3541 40.2794 31.9179 39.9008 31.5803C38.9285 30.6493 37.7048 30.0235 36.3809 29.7803Z" stroke="#222120" stroke-width="0.5" stroke-linecap="round" stroke-linejoin="round"/>
<path d="M44.5313 20.27C44.3263 20.7843 44.2466 21.34 44.2987 21.8912C44.3509 22.4424 44.5335 22.9733 44.8313 23.44C45.1378 23.9004 45.5481 24.2823 46.0292 24.5551C46.5104 24.8278 47.0489 24.9836 47.6013 25.01" stroke="#222120" stroke-width="0.5" stroke-linecap="round" stroke-linejoin="round"/>
<path d="M49.2401 18.8501C48.6582 19.1715 48.126 19.5758 47.6602 20.0501H47.7401" stroke="#222120" stroke-width="0.5" stroke-linecap="round" stroke-linejoin="round"/>
<path d="M51.0496 21.3604C50.5386 21.7803 49.965 22.1177 49.3496 22.3604" stroke="#222120" stroke-width="0.5" stroke-linecap="round" stroke-linejoin="round"/>
<path d="M48.2701 15.7603H48.1401C47.6123 15.836 47.0931 15.9633 46.5901 16.1403C46.2772 16.2385 45.9728 16.3623 45.6801 16.5103C45.0232 16.805 44.4079 17.185 43.8501 17.6403C43.6005 17.8351 43.3665 18.0491 43.1501 18.2802L42.8701 18.5602C42.5999 18.8684 42.362 19.2035 42.1601 19.5602C41.969 19.871 41.8242 20.2078 41.7301 20.5602C41.6976 20.6721 41.6709 20.7856 41.6501 20.9003C41.575 21.327 41.575 21.7635 41.6501 22.1902C41.6888 22.4231 41.7525 22.6511 41.8401 22.8702C41.9779 23.3023 42.1623 23.7181 42.3901 24.1102L42.5401 24.3602C42.6601 24.5702 42.7901 24.7802 42.9301 24.9802C43.0353 25.1483 43.1523 25.3087 43.2801 25.4603C43.6574 25.9608 44.0902 26.417 44.5701 26.8203C44.7832 26.9971 45.007 27.1607 45.2401 27.3102C45.3501 27.3902 45.4801 27.4602 45.6001 27.5302C46.0033 27.7518 46.429 27.9295 46.8701 28.0602C47.2517 28.1729 47.6437 28.2466 48.0401 28.2802C48.468 28.3403 48.9022 28.3403 49.3301 28.2802C49.6163 28.2329 49.8975 28.1593 50.1701 28.0602C50.3478 27.9939 50.5214 27.9171 50.6901 27.8303C51.247 27.5316 51.7533 27.1469 52.1901 26.6902C52.5906 26.2721 52.9459 25.8129 53.2501 25.3203L53.3001 25.2502C53.6707 24.6933 53.9257 24.0675 54.0501 23.4102C54.1456 22.5021 54.0008 21.5848 53.6301 20.7502C53.4514 20.2878 53.2375 19.8398 52.9901 19.4102C52.6639 18.8366 52.2676 18.3058 51.8101 17.8303C51.7001 17.7103 51.5801 17.5902 51.4601 17.4802L50.9601 17.0703C50.5589 16.7765 50.1262 16.5283 49.6701 16.3303C49.2377 16.065 48.7648 15.8725 48.2701 15.7603Z" stroke="#222120" stroke-width="0.5" stroke-linecap="round" stroke-linejoin="round"/>
<path d="M48.2703 15.7403C48.3647 14.4379 48.1237 13.133 47.5704 11.9503C47.4025 11.5285 47.1429 11.1493 46.8103 10.8402C46.6327 10.6618 46.4061 10.5403 46.1592 10.4909C45.9123 10.4416 45.6564 10.4667 45.4238 10.5632C45.1913 10.6596 44.9926 10.823 44.8531 11.0326C44.7136 11.2422 44.6396 11.4885 44.6404 11.7403C44.6082 12.2847 44.7149 12.8284 44.9504 13.3203C45.3389 14.2842 45.8754 15.1816 46.5404 15.9803" stroke="#222120" stroke-width="0.5" stroke-linecap="round" stroke-linejoin="round"/>
<path d="M45.66 16.41C45.1508 15.2786 44.4506 14.2435 43.5899 13.35C43.178 12.8532 42.6169 12.5025 41.9899 12.35C41.6767 12.2868 41.3511 12.3431 41.0772 12.5078C40.8034 12.6725 40.601 12.9337 40.51 13.24C40.4819 13.6439 40.5989 14.0446 40.8399 14.37C41.6364 15.5382 42.6077 16.5771 43.7199 17.45" stroke="#222120" stroke-width="0.5" stroke-linecap="round" stroke-linejoin="round"/>
<path d="M43.1195 18.2304C42.3408 17.2952 41.3404 16.5698 40.2095 16.1204C39.8219 15.9423 39.3941 15.8698 38.9695 15.9103C38.7576 15.9313 38.5572 16.0162 38.3946 16.1537C38.2321 16.2912 38.1152 16.4749 38.0595 16.6804C38.0508 16.9274 38.105 17.1726 38.2169 17.393C38.3288 17.6133 38.4949 17.8017 38.6995 17.9404C39.6068 18.731 40.7335 19.2263 41.9295 19.3604" stroke="#222120" stroke-width="0.5" stroke-linecap="round" stroke-linejoin="round"/>
<path d="M41.4604 20.37C40.2102 19.873 38.8596 19.6811 37.5204 19.81C37.1659 19.8404 36.8235 19.9535 36.5204 20.14C36.3699 20.234 36.2429 20.3613 36.1493 20.5122C36.0556 20.663 35.9979 20.8333 35.9805 21.01C35.983 21.2101 36.0356 21.4065 36.1334 21.5811C36.2312 21.7558 36.3711 21.9032 36.5405 22.01C36.8768 22.2099 37.2517 22.336 37.6405 22.38C38.9754 22.6036 40.3438 22.5181 41.6405 22.13" stroke="#222120" stroke-width="0.5" stroke-linecap="round" stroke-linejoin="round"/>
<path d="M41.7509 22.8101C41.0206 22.8877 40.3022 23.0522 39.6109 23.3C38.8459 23.5605 38.1861 24.0623 37.7309 24.73C37.61 24.8891 37.5317 25.0764 37.5037 25.2742C37.4757 25.472 37.4989 25.6737 37.5709 25.86C37.6505 25.9802 37.7552 26.0818 37.8777 26.1577C38.0003 26.2337 38.1378 26.2822 38.2809 26.3C38.5714 26.3268 38.8643 26.2928 39.1409 26.2001C40.3869 25.8599 41.5282 25.2136 42.4609 24.3201" stroke="#222120" stroke-width="0.5" stroke-linecap="round" stroke-linejoin="round"/>
<path d="M43.2612 25.3901C42.2343 26.0295 41.3439 26.8655 40.6412 27.8501C40.4518 28.0894 40.3062 28.3602 40.2111 28.6501C40.1701 28.7973 40.1596 28.9512 40.1802 29.1025C40.2008 29.2539 40.2522 29.3993 40.3312 29.5301C40.4574 29.6821 40.6232 29.7963 40.8103 29.8598C40.9974 29.9233 41.1985 29.9339 41.3912 29.8901C41.7632 29.7935 42.1063 29.6082 42.3912 29.3501C43.2424 28.6739 43.941 27.8254 44.4412 26.8601" stroke="#222120" stroke-width="0.5" stroke-linecap="round" stroke-linejoin="round"/>
<path d="M45.2007 27.3101C44.5766 28.0337 44.101 28.8729 43.8007 29.78C43.6103 30.2486 43.5415 30.7578 43.6007 31.2601C43.635 31.5106 43.7355 31.7474 43.892 31.9461C44.0485 32.1448 44.2551 32.298 44.4907 32.3901C44.8058 32.46 45.1352 32.4256 45.4292 32.2921C45.7232 32.1587 45.9658 31.9334 46.1207 31.6501C46.4224 31.0811 46.5964 30.4532 46.6307 29.8101L46.8407 28.1201" stroke="#222120" stroke-width="0.5" stroke-linecap="round" stroke-linejoin="round"/>
<path d="M48.0514 28.2798C47.7082 28.956 47.5394 29.7071 47.5603 30.4651C47.5813 31.223 47.7913 31.9638 48.1714 32.6199C48.2376 32.7675 48.3355 32.8987 48.4583 33.0042C48.581 33.1096 48.7255 33.1867 48.8814 33.2299C49.0694 33.233 49.2546 33.1831 49.4155 33.0858C49.5765 32.9885 49.7068 32.8478 49.7914 32.6799C50.1604 31.9751 50.2463 31.1559 50.0314 30.3899C49.8714 29.6199 49.5514 28.8899 49.3514 28.1299" stroke="#222120" stroke-width="0.5" stroke-linecap="round" stroke-linejoin="round"/>
<path d="M50.6602 27.6602C51.1982 29.2086 52.2225 30.5416 53.5802 31.4602C53.8378 31.6669 54.1599 31.7767 54.4901 31.7702C54.6839 31.7385 54.864 31.6505 55.008 31.5171C55.1521 31.3837 55.2537 31.2109 55.3002 31.0202C55.3909 30.6335 55.3594 30.2282 55.2101 29.8602C54.7001 28.3802 53.6101 27.6202 52.3401 26.7002" stroke="#222120" stroke-width="0.5" stroke-linecap="round" stroke-linejoin="round"/>
<path d="M3.53125 33.3201C6.57125 31.1268 9.63124 28.9601 12.7112 26.8201C24.3579 18.6935 36.2112 10.8701 48.2712 3.3501" stroke="#222120" stroke-width="0.5" stroke-linecap="round" stroke-linejoin="round"/>
<path d="M2.43115 35.0601C2.37373 36.2517 2.77854 37.4196 3.56116 38.3201C3.59776 37.1315 3.19551 35.971 2.43115 35.0601Z" stroke="#222120" stroke-width="0.5" stroke-linecap="round" stroke-linejoin="round"/>
<path d="M3.83984 38.27C4.68094 38.9863 5.43902 39.7947 6.09985 40.68C12.5549 48.6301 19.8208 55.886 27.7798 62.33C28.3498 62.65 29.0398 62.23 29.5598 61.83L50.7498 45.41" stroke="#222120" stroke-width="0.5" stroke-linecap="round" stroke-linejoin="round"/>
<path d="M58.1309 40.33C62.8809 36.738 67.8179 33.4 72.9209 30.33C72.6933 30.0933 72.5172 29.8121 72.4037 29.504C72.2901 29.196 72.2415 28.8677 72.2609 28.54C72.2556 28.4434 72.2556 28.3466 72.2609 28.25" stroke="#222120" stroke-width="0.5" stroke-linecap="round" stroke-linejoin="round"/>
<path d="M53.3711 25.1203C54.4732 26.2874 55.885 27.1164 57.4411 27.5103C57.822 27.6503 58.2402 27.6503 58.6211 27.5103C58.8896 27.3493 59.0904 27.0962 59.186 26.7982C59.2817 26.5001 59.2657 26.1775 59.1411 25.8903C58.8692 25.3213 58.4248 24.8524 57.8711 24.5503C56.7548 23.8572 55.4973 23.4232 54.1911 23.2803" stroke="#222120" stroke-width="0.5" stroke-linecap="round" stroke-linejoin="round"/>
<path d="M54.0508 21.8503C55.6082 22.1213 57.2108 21.9301 58.6608 21.3003C58.9076 21.2271 59.1347 21.0992 59.3251 20.9261C59.5156 20.7529 59.6645 20.539 59.7608 20.3003C59.8032 20.0356 59.7564 19.7643 59.6279 19.529C59.4994 19.2937 59.2964 19.1077 59.0508 19.0003C58.5508 18.7922 57.998 18.7467 57.4708 18.8703C56.1831 19.1617 54.9462 19.6437 53.8008 20.3003L54.0508 21.8503Z" stroke="#222120" stroke-width="0.5" stroke-linecap="round" stroke-linejoin="round"/>
<path d="M53.2797 19.18C54.4282 18.8371 55.5299 18.3534 56.5597 17.74C56.8938 17.5587 57.1948 17.322 57.4497 17.04C57.5697 16.9041 57.6616 16.7457 57.7199 16.5741C57.7783 16.4024 57.802 16.2209 57.7897 16.04C57.7381 15.812 57.6236 15.6031 57.4592 15.4369C57.2948 15.2708 57.0871 15.154 56.8597 15.1C56.4048 14.994 55.9272 15.0507 55.5097 15.26C55.0911 15.4623 54.6983 15.7141 54.3397 16.01L52.1797 17.64" stroke="#222120" stroke-width="0.5" stroke-linecap="round" stroke-linejoin="round"/>
<path d="M51.0001 16.8804C51.7003 16.2028 52.2997 15.4282 52.7801 14.5804C53.0196 14.1549 53.165 13.6829 53.2064 13.1964C53.2479 12.7099 53.1843 12.2202 53.02 11.7604C52.9424 11.5296 52.8039 11.3241 52.619 11.1657C52.4342 11.0073 52.21 10.9018 51.9701 10.8604C51.761 10.8719 51.557 10.9288 51.3722 11.0273C51.1874 11.1257 51.0262 11.2633 50.9 11.4304C50.3733 12.0632 50.0277 12.8269 49.9 13.6404C49.7682 14.4467 49.7113 15.2635 49.7301 16.0804" stroke="#222120" stroke-width="0.5" stroke-linecap="round" stroke-linejoin="round"/>
<path d="M86.9904 144.86C86.8483 144.9 86.7213 144.982 86.6253 145.094C86.5293 145.206 86.4686 145.344 86.4508 145.491C86.433 145.638 86.4589 145.786 86.5253 145.918C86.5917 146.05 86.6956 146.16 86.824 146.233C86.9523 146.306 87.0994 146.34 87.2468 146.33C87.3942 146.319 87.5353 146.266 87.6525 146.176C87.7696 146.086 87.8575 145.963 87.9052 145.823C87.9529 145.684 87.9582 145.533 87.9205 145.39C87.8623 145.2 87.7336 145.039 87.5607 144.94C87.3878 144.842 87.1838 144.813 86.9904 144.86Z" stroke="#222120" stroke-linecap="round" stroke-linejoin="round"/>
<path d="M50.1796 40.3701C50.1146 40.8077 50.1146 41.2525 50.1796 41.6901C50.2215 41.9025 50.3106 42.1026 50.4405 42.2758C50.5703 42.4489 50.7375 42.5905 50.9296 42.6901C51.2102 42.7951 51.5194 42.7941 51.7992 42.6873C52.0791 42.5805 52.3104 42.3753 52.4497 42.1101C52.5774 41.8383 52.6299 41.5373 52.6017 41.2383C52.5736 40.9393 52.4658 40.6533 52.2896 40.4101" stroke="#222120" stroke-linecap="round" stroke-linejoin="round"/>
</svg>
