<svg width="168" height="513" viewBox="0 0 168 513" fill="none" xmlns="http://www.w3.org/2000/svg">
<path d="M159.773 184.985L157.723 185.909C157.604 185.209 157.278 184.56 156.786 184.049C154.871 181.931 151.749 181.333 148.897 181.496C146.743 181.521 144.621 182.017 142.679 182.949L141.321 180.057C140.493 180.451 139.665 180.858 138.85 181.279L135.143 181.184C135.252 180.858 135.361 180.532 135.456 180.22C137.642 172.888 133.216 165.163 133.704 157.546C132.27 165.657 129.995 173.598 126.916 181.238C126.06 183.383 125.123 185.678 125.626 187.932C126.278 190.864 129.251 193.091 129.156 196.078C129.149 196.324 129.122 196.57 129.074 196.811C128.854 197.647 128.456 198.425 127.908 199.092C127.359 199.76 126.674 200.302 125.897 200.681C124.102 201.502 122.177 202.003 120.208 202.161H120.1C119.853 201.011 119.508 199.884 119.068 198.794L118.837 198.21C116.773 198.952 114.56 199.181 112.388 198.875C111.451 198.943 110.596 198.984 109.672 199.133L108.098 199.337C107.134 199.459 106.156 199.581 105.192 199.676C99.9059 200.255 94.6062 200.59 89.2929 200.681C88.2611 200.681 87.2156 200.681 86.1702 200.681C83.0655 200.681 79.9563 200.595 76.8426 200.423C74.2765 200.423 71.7239 200.314 69.1578 200.206V198.766C63.6318 194.137 62.9394 185.664 65.0846 178.794C67.2298 171.924 71.7103 166.059 75.2404 159.786C77.6843 155.428 79.7481 150.54 79.1914 145.57C78.7915 142.835 77.9332 140.187 76.6525 137.736H76.7747C82.9206 130.595 89.2205 123.58 95.6743 116.692C97.4122 114.818 99.1772 112.953 100.969 111.098C108.002 103.739 115.207 96.5429 122.584 89.5098L121.919 88.8174C121.456 88.6738 121.003 88.5015 120.561 88.3015L120.752 87.8941C121.324 87.5898 121.963 87.4307 122.612 87.4307C123.26 87.4307 123.899 87.5898 124.472 87.8941C125.619 88.5108 126.683 89.2729 127.635 90.1615C129.845 91.9996 132.26 93.576 134.831 94.8593C137.615 96.217 140.588 97.3032 143.399 98.6609C146.274 99.9184 148.821 101.823 150.839 104.228C152.801 106.926 153.972 110.119 154.22 113.447C154.423 116.77 154.423 120.103 154.22 123.426C153.948 133.066 155.998 142.638 158.564 151.938C161.13 161.239 164.213 170.403 166.113 179.867C166.708 182.253 166.901 184.722 166.684 187.171C166.358 189.602 165.883 191.679 163.819 193.023L163.276 193.159C163.129 192.695 162.952 192.242 162.746 191.801L159.773 184.985Z" fill="#406BB2"/>
<path d="M152.93 206.248C152.331 202.744 150.381 199.614 147.5 197.532C145.778 196.342 143.734 195.704 141.641 195.704C139.548 195.704 137.504 196.342 135.782 197.532C135.185 198.808 134.533 200.084 133.854 201.32L133.651 201.197C132.904 200.885 131.234 199.65 131.193 198.849C131.182 198.232 131.288 197.619 131.505 197.043C131.505 196.866 131.628 196.69 131.696 196.513C133.008 193.048 134.904 189.833 137.303 187.009C135.945 187.376 134.588 185.869 134.492 184.429C134.487 183.31 134.709 182.202 135.144 181.171L138.851 181.266C139.665 180.845 140.494 180.438 141.322 180.044L142.68 182.936C141.551 183.509 140.56 184.32 139.774 185.312C142.111 184.568 144.579 184.328 147.016 184.609C149.453 184.89 151.802 185.685 153.908 186.941C154.818 187.498 155.917 188.177 156.868 187.688C157.169 187.504 157.41 187.237 157.562 186.919C157.713 186.601 157.77 186.245 157.723 185.896L159.773 184.973L162.801 191.653C163.007 192.093 163.184 192.547 163.331 193.01C163.495 193.528 163.532 194.077 163.439 194.612C163.222 195.617 162.082 196.445 161.145 195.97C161.873 196.507 162.445 197.227 162.805 198.057C163.165 198.887 163.3 199.797 163.195 200.695C162.95 202.485 162.38 204.216 161.511 205.8C158.321 212.385 154.723 218.726 148.464 222.351C149.165 221.761 149.734 221.03 150.134 220.206C152.264 216.583 153.323 212.431 153.188 208.23C153.15 207.564 153.064 206.902 152.93 206.248Z" fill="#406BB2"/>
<path d="M157.724 185.937C157.77 186.286 157.714 186.642 157.562 186.96C157.41 187.278 157.169 187.545 156.868 187.729C155.918 188.218 154.818 187.539 153.908 186.982C151.802 185.726 149.453 184.931 147.016 184.65C144.58 184.369 142.111 184.609 139.774 185.353C140.56 184.361 141.552 183.55 142.68 182.977C144.622 182.045 146.744 181.549 148.898 181.524C151.75 181.429 154.872 181.959 156.787 184.077C157.279 184.588 157.606 185.237 157.724 185.937Z" fill="#406BB2"/>
<path d="M153.189 208.217C153.324 212.417 152.264 216.57 150.134 220.192C149.734 221.016 149.165 221.747 148.464 222.337C148.351 222.417 148.233 222.49 148.111 222.554C147.973 222.636 147.827 222.704 147.676 222.758C145.959 223.229 144.138 223.157 142.463 222.554C141.707 222.195 141.058 221.643 140.582 220.954C140.105 220.266 139.818 219.465 139.747 218.631C143.779 214.143 148.18 210.001 152.903 206.248C153.045 206.897 153.141 207.555 153.189 208.217Z" fill="black"/>
<path d="M147.485 197.531C150.367 199.614 152.317 202.743 152.916 206.248C148.193 210.001 143.792 214.143 139.76 218.63C133.317 225.804 127.864 233.809 123.548 242.431L123.467 242.513C118.939 236.44 115.397 229.69 112.972 222.514L113.393 222.378C117.548 219.95 121.357 216.972 124.716 213.525C128.272 209.866 131.334 205.758 133.826 201.306C134.505 200.07 135.184 198.794 135.754 197.518C137.479 196.327 139.526 195.69 141.622 195.692C143.718 195.695 145.763 196.336 147.485 197.531Z" fill="white"/>
<path d="M82.0838 269.749L81.7172 269.871C80.9115 269.519 80.1862 269.006 79.5855 268.364C77.8881 266.193 76.8091 263.603 76.4627 260.869C73.3694 245.192 73.2359 229.075 76.069 213.349L76.2183 211.163L77.0466 211.258C77.0466 210.688 77.0466 210.104 77.0466 209.533H77.5625C80.4291 209.71 83.3039 209.71 86.1705 209.533H86.9037C87.0076 206.699 86.7614 203.863 86.1705 201.088V200.83C87.216 200.83 88.2614 200.83 89.2933 200.83V201.116C89.9049 203.702 90.1516 206.362 90.0265 209.018H90.298C95.7028 209.151 101.105 208.668 106.401 207.578H106.577C106.738 205.003 106.272 202.426 105.219 200.07V199.812C106.183 199.717 107.161 199.595 108.125 199.473L108.193 200.043C108.193 200.043 108.709 203.22 109.13 205.84C109.13 205.84 109.13 205.935 109.13 205.99C109.238 206.927 109.374 207.891 109.591 208.936C109.591 208.624 109.456 208.04 109.333 207.307H109.673L119.951 205.786H120.521C120.528 205.84 120.528 205.895 120.521 205.949L120.63 206.112C121.811 208.651 123.128 211.149 124.554 213.566L124.689 213.702C121.33 217.148 117.521 220.126 113.366 222.554L112.945 222.69C115.37 229.867 118.912 236.616 123.44 242.689L123.522 242.608C125.801 238.034 128.41 233.633 131.329 229.438L132.035 229.94C136.8 250.999 136.216 272.844 135.619 294.419C135.09 313.237 134.56 332.069 134.669 350.941C135.58 352.092 136.134 353.485 136.261 354.947C136.389 356.41 136.086 357.877 135.388 359.169C138.484 365.849 139.149 373.642 139.692 381.096C141.267 402.386 142.838 423.657 144.404 444.91V445.195C142.831 447.108 140.737 448.523 138.375 449.268C136.961 449.735 135.491 450.009 134.003 450.083C130.051 450.118 126.112 449.606 122.3 448.562C120.706 448.254 119.267 447.405 118.227 446.159V446.009C113.843 398.485 105.302 351.436 92.7012 305.403C89.4879 293.373 85.9488 281.489 82.0838 269.749Z" fill="#406BB2"/>
<path d="M138.566 461.297C142.504 467.385 144.336 474.597 143.779 481.826C143.711 481.934 143.63 482.043 143.576 482.152C141.859 484.755 140.33 487.477 139 490.298C137.193 494.02 135.708 497.891 134.56 501.866C133.678 504.975 132.89 508.315 130.623 510.61C123.101 511.139 115.688 511.547 108.329 511.967C106.509 512.076 104.351 511.967 103.346 510.474C103.012 509.011 103.022 507.49 103.375 506.032C103.729 504.574 104.416 503.217 105.383 502.069C106.74 500.413 108.682 499.259 110.189 497.698C110.34 497.549 110.481 497.39 110.61 497.222C114.193 497.353 117.724 498.12 121.037 499.49C122.403 500.224 123.926 500.62 125.477 500.644C127.609 500.44 129.211 498.662 130.406 496.897C136.04 488.655 137.683 478.418 139.204 468.547C138.862 466.143 138.649 463.723 138.566 461.297Z" fill="#406BB2"/>
<path d="M143.575 482.152L143.779 482.288C142.824 491.409 142.697 500.598 143.398 509.741V509.959C143.421 509.979 143.44 510.004 143.453 510.032C143.465 510.06 143.472 510.091 143.472 510.122C143.472 510.152 143.465 510.183 143.453 510.211C143.44 510.239 143.421 510.264 143.398 510.285C143.291 510.358 143.161 510.392 143.032 510.38C142.095 510.38 141.158 510.38 140.208 510.38C139.76 503.591 139.407 496.924 139.04 490.312C140.356 487.488 141.872 484.761 143.575 482.152Z" fill="#406BB2"/>
<path d="M138.565 461.299C138.664 463.708 138.891 466.11 139.244 468.495C137.724 478.366 136.081 488.603 130.446 496.844C129.251 498.609 127.649 500.388 125.518 500.592C123.967 500.568 122.444 500.172 121.078 499.438C117.764 498.068 114.233 497.3 110.65 497.17C112.676 494.617 114.151 491.672 114.982 488.521C116.719 483.09 118.009 477.578 119.313 472.039C121.091 464.422 122.884 456.655 122.354 448.849V448.414C126.167 449.458 130.105 449.97 134.058 449.935C135.545 449.861 137.015 449.587 138.43 449.12L139.203 449.31C138.619 453.278 138.406 457.292 138.565 461.299Z" fill="white"/>
<path d="M104.636 38.9489C100.704 37.5106 97.211 35.0811 94.4945 31.896C91.7779 28.7109 89.9302 24.878 89.1303 20.7689C87.2484 21.587 85.5932 22.8496 84.3067 24.4482C83.0202 26.0469 82.1409 27.9339 81.7442 29.9472C81.6226 28.0396 81.9947 26.1328 82.8247 24.411C83.6547 22.6891 84.9146 21.2103 86.4827 20.1172H86.3198L86.5506 17.6733C87.7924 16.2135 89.3457 15.0508 91.0962 14.2706C92.8467 13.4905 94.7499 13.1129 96.6657 13.1656C98.3625 10.8863 100.682 9.14638 103.346 8.1556L105.233 6.79787C105.693 6.28555 106.213 5.82977 106.781 5.44013C115.62 -0.886892 126.359 20.6603 128.776 26.0776C133.419 36.4643 140.235 51.087 131.003 60.8627C131.99 58.7364 132.495 56.4183 132.483 54.074C128.518 62.2204 123.25 71.4937 113.664 73.734C115.145 72.5488 116.28 70.9872 116.95 69.2128C115.011 71.208 112.706 72.812 110.162 73.9376C108.19 74.8087 106.098 75.3764 103.957 75.6213C106.169 74.2139 107.891 72.1552 108.885 69.7287C105.218 71.8834 101.331 73.6404 97.2903 74.9695C99.3404 73.476 101.649 69.9867 103.672 66.3615C105.505 63.0758 107.093 59.6679 108.016 57.5634H108.206C109.54 57.6866 110.884 57.4697 112.111 56.9331C113.339 56.3966 114.41 55.5578 115.226 54.495C116.838 52.3321 117.744 49.7242 117.819 47.0274C117.941 44.9094 117.493 42.4247 115.62 41.4336C113.746 40.4424 111.465 41.4336 109.646 42.5605C109.944 44.9691 109.582 47.4135 108.599 49.6326C107.616 51.8517 106.049 53.7622 104.065 55.1602C105.022 54.1379 105.758 52.9286 106.225 51.6085C106.692 50.2884 106.882 48.8859 106.781 47.4891C106.583 44.6859 105.772 41.9605 104.405 39.5056L104.636 38.9489Z" fill="#1D1D1B"/>
<path d="M121.946 88.7651L122.612 89.4575C115.244 96.4725 108.039 103.668 100.997 111.045L100.779 110.828C91.8909 110.675 83.1218 108.755 74.9825 105.18L74.4258 105.004C75.9059 100.459 77.656 96.0067 79.6666 91.6706C81.0244 91.304 82.3142 90.9238 83.6041 90.4486C84.5394 90.1173 85.4473 89.7133 86.3195 89.2403C88.4381 88.1522 90.113 86.3621 91.058 84.1759C92.0491 81.5555 91.5196 78.6364 90.9901 75.8938H89.9854C95.3778 74.0927 100.148 70.7967 103.739 66.3896C101.716 70.0148 99.4081 73.5042 97.3579 74.9977C101.398 73.6685 105.286 71.9116 108.953 69.7568C107.959 72.1833 106.237 74.242 104.024 75.6494C106.166 75.4045 108.258 74.8369 110.229 73.9658L112.13 74.0608C111.836 77.2849 112.65 80.513 114.438 83.212C115.96 85.4877 118.111 87.271 120.629 88.3442C121.06 88.5104 121.499 88.651 121.946 88.7651Z" fill="white"/>
<path d="M109.7 199.215C110.583 199.066 111.438 199.025 112.416 198.957C114.588 199.263 116.801 199.035 118.865 198.292L119.096 198.876C119.96 201.042 120.464 203.335 120.589 205.664H120.019L109.741 207.185H109.402C109.402 206.778 109.266 206.33 109.198 205.827C109.198 205.827 109.198 205.732 109.198 205.678C109.037 203.724 108.724 201.786 108.261 199.881L108.193 199.31L109.768 199.107L109.7 199.215Z" fill="#1D1D1B"/>
<path d="M72.0771 39.8993C72.8912 38.511 73.5993 37.0632 74.1952 35.5682C75.5529 32.296 76.2997 28.7795 78.0647 25.7518C79.8298 22.724 82.776 20.1172 86.3197 20.1172H86.4826C84.9145 21.2103 83.6547 22.6891 82.8247 24.4109C81.9947 26.1328 81.6225 28.0395 81.7442 29.9471C82.1409 27.9338 83.0202 26.0469 84.3067 24.4482C85.5931 22.8496 87.2484 21.587 89.1302 20.7689C89.9301 24.878 91.7779 28.7108 94.4944 31.896C97.2109 35.0811 100.704 37.5106 104.636 38.9489L104.486 39.3562C105.854 41.8111 106.665 44.5365 106.862 47.3397C106.963 48.7365 106.774 50.139 106.306 51.4592C105.839 52.7793 105.104 53.9885 104.147 55.0108C106.131 53.6128 107.698 51.7023 108.68 49.4832C109.663 47.2641 110.025 44.8197 109.727 42.4111C111.546 41.3249 113.8 40.2931 115.701 41.2842C117.602 42.2754 118.023 44.76 117.901 46.8781C117.826 49.5749 116.92 52.1828 115.307 54.3456C114.492 55.4084 113.42 56.2472 112.193 56.7838C110.965 57.3204 109.622 57.5372 108.288 57.4141H108.098C107.174 59.5185 105.586 62.9264 103.753 66.2121C100.161 70.6192 95.3916 73.9152 89.9992 75.7162C87.948 76.6229 85.6384 76.7579 83.4957 76.0964C83.2709 76.0088 83.053 75.9045 82.8439 75.7842C81.6231 75.0252 80.551 74.0497 79.6804 72.9058C76.6253 69.4763 74.02 65.671 71.9278 61.5823C69.8685 56.8284 68.8945 51.6754 69.0766 46.4979L68.5606 46.3621L67.8682 45.724C69.4816 43.9435 70.8932 41.9901 72.0771 39.8993Z" fill="white"/>
<path d="M72.0771 39.8992C70.8915 41.9806 69.48 43.9248 67.8682 45.6967L68.5606 46.3349L69.0766 46.4706C68.8529 51.6986 69.8088 56.9098 71.8735 61.7179C73.9657 65.8067 76.5709 69.6119 79.6261 73.0414C80.4967 74.1854 81.5687 75.1609 82.7896 75.9198L82.6267 76.1778C81.3932 76.8593 80.0286 77.27 78.6238 77.3824C77.2191 77.4947 75.8065 77.3062 74.4803 76.8295C71.8138 75.8348 69.3037 74.4631 67.0264 72.7563C69.1081 75.175 71.5378 77.2707 74.2359 78.9747C71.5457 78.3728 69.0105 77.2168 66.792 75.5804C64.5735 73.944 62.7205 71.8632 61.3511 69.4706C58.6382 64.6585 57.4233 59.1462 57.8617 53.6395C56.3625 56.0203 55.6705 58.8209 55.8881 61.626C56.1058 64.4312 57.2216 67.0915 59.07 69.2126C54.6031 66.4972 52.8788 60.8354 53.3812 55.7847C53.8835 50.7339 56.1645 46.0769 58.2011 41.4199C61.3646 34.1968 63.9851 26.7021 67.8818 19.8455C71.7784 12.989 77.1414 6.66196 84.2695 3.29478C91.3976 -0.0723888 100.562 0.0633958 106.631 5.04627L106.849 5.34497C106.281 5.73461 105.761 6.19038 105.301 6.7027L103.414 8.06043C100.75 9.05122 98.4304 10.7911 96.7335 13.0705C94.8178 13.0178 92.9145 13.3954 91.164 14.1755C89.4135 14.9556 87.8602 16.1183 86.6184 17.5781L86.3876 20.022C82.844 20.022 79.8705 22.6424 78.1326 25.6566C76.3947 28.6708 75.5665 32.2009 74.2631 35.473C73.6497 37.0026 72.9189 38.4824 72.0771 39.8992Z" fill="#1D1D1B"/>
<path d="M105.247 199.989C106.299 202.346 106.765 204.922 106.604 207.498H106.428C101.132 208.588 95.7299 209.07 90.3251 208.937H90.0535C90.1787 206.282 89.9319 203.622 89.3203 201.035V200.75C94.6336 200.65 99.9333 200.315 105.219 199.745L105.247 199.989Z" fill="#1D1D1B"/>
<path d="M100.78 110.828L100.997 111.045C99.187 112.91 97.422 114.775 95.7022 116.639C87.7919 115.961 80.1082 113.65 73.1367 109.851C73.5078 108.248 73.9604 106.66 74.4944 105.085L75.0511 105.261C83.1752 108.799 91.9201 110.691 100.78 110.828Z" fill="#D1D0D1"/>
<path d="M95.6607 116.625C89.1979 123.504 82.898 130.519 76.761 137.669H76.6388C75.6477 135.592 74.5615 133.596 73.7469 131.41C71.4883 124.853 71.1492 117.787 72.7693 111.044C72.8644 110.61 72.9594 110.162 73.0816 109.687C80.0456 113.539 87.7347 115.902 95.6607 116.625Z" fill="#D1D0D1"/>
<path d="M60.7259 207.593H60.8345C62.4033 208.142 64.0038 208.595 65.6273 208.951H65.7902C65.7367 209.488 65.7367 210.029 65.7902 210.567C66.8368 210.809 67.9067 210.937 68.9809 210.947C69.5919 210.947 70.135 211.042 70.6645 211.055C69.3068 221.008 67.7725 232.345 68.7501 242.283C69.6733 251.787 72.9862 261.387 79.5441 268.27C80.1447 268.912 80.87 269.425 81.6757 269.777L82.0423 269.655C85.8711 281.422 89.4193 293.239 92.6869 305.105C89.3949 327.261 88.1179 349.669 88.8717 372.055C88.9803 375.558 88.9667 379.509 88.0299 381.07C88.4473 401.031 87.431 420.996 84.9886 440.811H84.8663C82.6328 441.423 80.3663 441.908 78.0777 442.263C71.68 443.295 65.1653 443.377 58.7436 442.508L57.6982 442.372L57.6031 441.951C55.9648 419.549 54.3174 397.141 52.661 374.73C49.8369 336.32 47.0128 297.842 47.9632 259.323C48.3977 241.496 49.8233 223.058 58.1598 207.294C57.4272 203.653 57.9992 199.871 59.7755 196.609L60.2507 196.012C60.821 196.677 61.3641 197.369 61.9886 197.967L61.717 198.238C60.6297 201.229 60.2894 204.441 60.7259 207.593Z" fill="#406BB2"/>
<path d="M86.1576 201.021C86.7485 203.795 86.9948 206.631 86.8908 209.466H86.1576C83.291 209.642 80.4163 209.642 77.5496 209.466H77.0337C76.9386 206.642 76.8572 203.831 76.7621 200.994L76.6807 200.709L76.83 200.505C79.9347 200.686 83.0439 200.772 86.1576 200.763V201.021Z" fill="#1D1D1B"/>
<path d="M54.4132 162.299H53.1505C51.8032 159.81 50.6809 157.207 49.7969 154.519L50.6387 154.22C50.0513 138.247 51.4423 122.263 54.7798 106.632C55.4858 103.359 56.409 99.8429 58.9752 97.752C62.2609 95.0366 67.0536 95.4303 71.0046 93.8418C73.0684 93.0135 74.8742 91.6422 76.9108 90.7461C78.9474 89.85 81.6357 89.1305 83.5365 90.2981L83.6044 90.4746C82.3145 90.9498 80.984 91.33 79.667 91.6966C77.6563 96.0326 75.9062 100.485 74.4261 105.029C73.9192 106.604 73.4666 108.193 73.0684 109.795C72.9462 110.23 72.8512 110.678 72.7561 111.153C71.136 117.896 71.4751 124.962 73.7337 131.519C74.5483 133.65 75.6345 135.701 76.6257 137.778C77.9772 140.215 78.9046 142.864 79.3683 145.612C79.9249 150.581 77.8612 155.469 75.4173 159.827C71.8872 166.114 67.4338 172.047 65.2614 178.836C63.089 185.624 63.7679 194.178 69.3346 198.808V200.247L66.5513 200.125V199.881H66.1168C64.852 199.826 63.6422 199.348 62.6817 198.523L62.1658 198.048C61.5412 197.437 60.9981 196.758 60.4279 196.092C60.0037 195.582 59.5504 195.097 59.0702 194.64C57.6038 193.282 55.7573 192.372 54.3996 190.92C54.1324 190.635 53.8874 190.331 53.6664 190.01C52.1151 187.445 51.4075 184.458 51.6434 181.47C51.9742 176.598 52.7053 171.762 53.8293 167.01C53.938 165.476 54.2231 163.901 54.4132 162.299ZM75.1593 147.907C75.777 147.743 76.309 147.35 76.647 146.807C76.9851 146.265 77.1036 145.614 76.9786 144.987C76.9325 144.647 76.8158 144.319 76.6358 144.026C76.4558 143.733 76.2166 143.48 75.9334 143.285C75.6503 143.09 75.3294 142.955 74.9915 142.891C74.6535 142.827 74.3058 142.834 73.9707 142.912C73.6356 142.99 73.3205 143.137 73.0455 143.343C72.7704 143.55 72.5416 143.812 72.3735 144.112C72.2055 144.412 72.1021 144.744 72.0697 145.086C72.0374 145.429 72.077 145.774 72.1858 146.101C72.3668 146.719 72.7722 147.246 73.3224 147.58C73.8726 147.914 74.5277 148.031 75.1593 147.907Z" fill="#406BB2"/>
<path d="M79.6396 268.364C73.0818 261.481 69.7689 251.895 68.8457 242.378C67.8681 232.371 69.348 221.034 70.7601 211.15C72.8374 211.15 74.4124 211.082 76.286 211.245L76.1367 213.431C73.3036 229.157 73.4371 245.274 76.5304 260.951C76.887 263.656 77.9605 266.215 79.6396 268.364Z" fill="#406BB2"/>
<path d="M30.1369 509.022C29.3766 509.321 28.4805 508.37 28.2361 507.583C28.1472 507.185 28.1551 506.771 28.259 506.377C28.363 505.982 28.56 505.618 28.8335 505.316C29.3893 504.715 30.0408 504.21 30.7615 503.822L44.814 495.2L44.9226 495.282C47.7739 497.604 52.7839 498.635 56.056 496.979C59.3281 495.323 61.2697 492.091 63.1162 488.996C66.5015 483.284 69.8913 477.573 73.2856 471.861C74.2602 470.361 75.0361 468.741 75.5938 467.041C75.8739 466.188 75.9822 465.288 75.9123 464.394C75.8424 463.499 75.5957 462.626 75.1865 461.827L75.2951 460.605H75.716C77.3484 462.199 78.3756 464.311 78.6215 466.58C78.8804 468.835 78.8804 471.113 78.6215 473.368C78.3862 476.084 78.187 478.822 78.0241 481.582L75.5938 481.42C74.5677 482.355 73.6145 483.367 72.7425 484.447C68.3842 489.715 65.7231 496.327 62.6274 502.505C61.681 504.786 60.1779 506.793 58.2555 508.343C55.4179 510.312 51.6841 510.19 48.2355 510L30.1369 509.022Z" fill="#406BB2"/>
<path d="M75.553 481.461L77.9833 481.624C77.4402 490.381 77.1279 499.274 76.3812 507.91L73.5979 507.774L73.53 507.502C73.2675 499.845 73.0185 492.187 72.7832 484.529C73.6275 483.438 74.5534 482.412 75.553 481.461Z" fill="#406BB2"/>
<path d="M77.0733 209.493C77.0733 210.063 77.0733 210.647 77.0733 211.217L76.2451 211.122C74.3714 210.959 72.7964 211.122 70.7191 211.027C70.1896 211.027 69.6465 211.027 69.0355 210.918C67.9613 210.908 66.8914 210.781 65.8448 210.538C65.7913 210.001 65.7913 209.46 65.8448 208.923C65.8309 208.674 65.8309 208.425 65.8448 208.176C68.7386 208.519 71.6609 208.551 74.5615 208.271C74.5615 206.411 74.6429 204.646 74.7787 202.84C71.9003 202.718 68.9676 202.731 66.0485 202.745C65.9083 202.002 65.8446 201.247 65.8584 200.491V199.921H66.2929V200.165L69.0762 200.288C71.6424 200.396 74.1949 200.464 76.761 200.505L76.6116 200.708L76.6931 200.993C76.8968 203.858 76.9782 206.71 77.0733 209.493Z" fill="white"/>
<path d="M76.9784 144.987C77.1034 145.613 76.9848 146.264 76.6468 146.806C76.3088 147.349 75.7768 147.742 75.1591 147.906C74.5275 148.03 73.8723 147.914 73.3222 147.579C72.772 147.245 72.3666 146.718 72.1856 146.1C72.0767 145.774 72.0372 145.428 72.0695 145.086C72.1018 144.743 72.2053 144.411 72.3733 144.111C72.5413 143.811 72.7702 143.549 73.0452 143.342C73.3203 143.136 73.6354 142.989 73.9705 142.911C74.3056 142.833 74.6533 142.826 74.9913 142.89C75.3292 142.954 75.65 143.089 75.9332 143.284C76.2163 143.479 76.4556 143.732 76.6355 144.025C76.8155 144.318 76.9323 144.646 76.9784 144.987Z" fill="white"/>
<path d="M75.1857 461.827C75.5949 462.626 75.8416 463.499 75.9115 464.394C75.9814 465.288 75.8732 466.188 75.593 467.041C75.0354 468.741 74.2595 470.361 73.2849 471.861C69.8905 477.564 66.5007 483.275 63.1155 488.996C61.2689 492.091 59.2731 495.35 56.0552 496.979C52.8374 498.608 47.7731 497.604 44.9219 495.282V495.2C49.2259 488.602 49.1852 480.265 51.7105 472.852C53.204 468.345 55.8788 464.285 57.2772 459.75C58.9201 454.482 58.7572 448.888 58.635 443.335L58.73 442.629C65.1516 443.498 71.6664 443.416 78.0641 442.385C76.8693 448.372 75.946 454.333 75.3486 460.619L75.1857 461.827Z" fill="white"/>
<path d="M74.8329 202.948C74.6971 204.713 74.6563 206.478 74.6156 208.379C71.715 208.659 68.7927 208.628 65.899 208.284C65.885 208.533 65.885 208.782 65.899 209.031H65.6818C64.0583 208.675 62.4578 208.222 60.889 207.673H60.7803C60.3618 204.566 60.6971 201.404 61.7579 198.454L62.0295 198.183L62.5454 198.658C63.5059 199.483 64.7156 199.961 65.9805 200.016V200.64C65.9667 201.396 66.0304 202.151 66.1705 202.894C69.0218 202.84 71.9545 202.826 74.8329 202.948Z" fill="#1D1D1B"/>
<path d="M50.5304 163.397L48.1408 164.619C49.1542 169.106 49.123 173.766 48.0495 178.239C46.976 182.712 44.889 186.878 41.9496 190.416L42.5334 193.933C39.0614 194.544 35.5323 194.767 32.011 194.598C33.7081 194.598 35.2152 193.01 36.1521 191.462C37.0864 189.915 37.8512 188.271 38.433 186.56C39.8327 182.482 40.1569 178.111 39.3744 173.87C38.592 169.63 36.7292 165.663 33.9661 162.352L33.7353 162.542C32.2554 162.406 30.8026 162.257 29.3634 162.094V161.904C29.3233 161.464 29.419 161.023 29.6375 160.639C29.856 160.256 30.1868 159.948 30.5854 159.759C31.4074 159.382 32.3014 159.187 33.2058 159.188L40.1845 158.591C39.508 158.17 38.9699 157.56 38.6368 156.835C38.3038 156.111 38.1905 155.306 38.3109 154.518C38.658 152.911 39.3532 151.4 40.3475 150.092C45.0568 142.715 48.7599 134.743 51.3586 126.386H51.6437C50.6461 135.623 50.3194 144.921 50.6662 154.206L49.8244 154.504C50.7084 157.192 51.8307 159.796 53.178 162.284H54.4407C54.2506 163.886 53.9655 165.461 53.6668 167.05L51.5351 166.642C51.3448 165.521 51.0069 164.43 50.5304 163.397Z" fill="#406BB2"/>
<path d="M51.5077 166.658L53.6393 167.065C52.5153 171.817 51.7842 176.653 51.4534 181.525C51.2176 184.513 51.9251 187.5 53.4764 190.065L53.0555 190.323C49.79 192.133 46.2338 193.36 42.5467 193.948L41.9629 190.431C44.902 186.891 46.9877 182.721 48.0589 178.246C49.1301 173.771 49.158 169.109 48.1406 164.621L50.5166 163.345C50.9942 164.4 51.3275 165.514 51.5077 166.658Z" fill="#406BB2"/>
<path d="M39.6685 175.821C40.0326 179.447 39.6159 183.109 38.4466 186.561L38.0936 186.439C34.2014 184.565 30.3092 182.723 26.4171 180.913C18.0263 176.957 9.58121 173.133 1.08181 169.44C1.058 166.791 1.59474 164.168 2.65679 161.742C3.41712 160.275 4.58476 158.918 4.69338 157.261C4.72696 157.047 4.714 156.828 4.65543 156.62C4.59685 156.411 4.49404 156.218 4.35395 156.053H4.61192C12.5713 159.196 20.9127 161.269 29.4177 162.217C30.8568 162.38 32.3096 162.529 33.7895 162.665L34.0204 162.475C37.1618 166.279 39.1248 170.918 39.6685 175.821Z" fill="white"/>
<path d="M38.0941 186.439L38.4471 186.561C37.8652 188.272 37.1005 189.916 36.1661 191.463C35.2293 193.01 33.7222 194.599 32.025 194.599C31.7864 194.6 31.5488 194.568 31.319 194.504C30.1805 194.051 29.2612 193.175 28.7529 192.06C26.8927 188.851 25.9532 185.191 26.0374 181.483L26.4176 180.913C30.3188 182.723 34.211 184.565 38.0941 186.439Z" fill="black"/>
<path d="M106.523 5.08728C100.413 0.104411 91.3028 -0.0313733 84.1611 3.3358C77.0195 6.70297 71.67 13.03 67.7733 19.8865C63.8766 26.7431 61.2562 34.2378 58.0927 41.4609C56.0561 46.1179 53.7751 50.7749 53.2728 55.8257C52.7704 60.8764 54.4947 66.5111 58.9616 69.2537C57.1132 67.1325 55.9974 64.4722 55.7797 61.6671C55.5621 58.8619 56.2541 56.0614 57.7532 53.6805C57.3134 59.2139 58.5431 64.7521 61.2834 69.5795C62.6528 71.9721 64.5058 74.0529 66.7243 75.6893C68.9428 77.3257 71.478 78.4817 74.1683 79.0836C71.4701 77.3796 69.0404 75.2839 66.9587 72.8652C69.236 74.5721 71.7462 75.9437 74.4126 76.9384C75.7388 77.4152 77.1513 77.6036 78.5561 77.4913C79.9609 77.3789 81.3255 76.9682 82.559 76.2867" stroke="#1D1D1B" stroke-linecap="round" stroke-linejoin="round"/>
<path d="M65.4248 48.1815C66.2867 47.4011 67.1027 46.5715 67.8687 45.6968C69.4805 43.9249 70.892 41.9807 72.0777 39.8993C72.8918 38.511 73.5998 37.0632 74.1957 35.5682C75.5535 32.296 76.3002 28.7795 78.0653 25.7518C79.8303 22.724 82.7766 20.1172 86.3203 20.1172H86.4832C84.9151 21.2103 83.6552 22.6891 82.8252 24.4109C81.9952 26.1328 81.6231 28.0395 81.7447 29.9471C82.1414 27.9338 83.0207 26.0469 84.3072 24.4482C85.5937 22.8496 87.2489 21.587 89.1308 20.7689C89.9307 24.878 91.7784 28.7108 94.4949 31.896C97.2115 35.0811 100.705 37.5106 104.636 38.9489C105.495 39.2683 106.375 39.5269 107.27 39.7228" stroke="#1D1D1B" stroke-linecap="round" stroke-linejoin="round"/>
<path d="M104.486 39.3564C105.853 41.8113 106.665 44.5368 106.862 47.3399C106.963 48.7367 106.773 50.1392 106.306 51.4594C105.839 52.7795 105.104 53.9887 104.146 55.0111C106.13 53.6131 107.697 51.7026 108.68 49.4834C109.663 47.2643 110.025 44.82 109.727 42.4113C111.546 41.3252 113.8 40.2933 115.701 41.2844C117.602 42.2756 118.023 44.7602 117.9 46.8783C117.825 49.5751 116.92 52.183 115.307 54.3458C114.491 55.4086 113.42 56.2474 112.192 56.784C110.965 57.3206 109.622 57.5375 108.288 57.4143" stroke="#1D1D1B" stroke-linecap="round" stroke-linejoin="round"/>
<path d="M68.5068 46.3354C69.0261 45.7659 69.6605 45.3135 70.3681 45.0081C71.0757 44.7027 71.8401 44.5514 72.6107 44.5642C73.3812 44.5771 74.1402 44.7537 74.8372 45.0825C75.5342 45.4113 76.1533 45.8847 76.6532 46.4712" stroke="#1D1D1B" stroke-linecap="round" stroke-linejoin="round"/>
<path d="M87.5137 45.8465C88.0633 45.0027 88.7999 44.2967 89.6664 43.7834C90.5329 43.2701 91.5059 42.9633 92.5101 42.8867C93.5125 42.8239 94.5166 42.9782 95.4539 43.339C96.3912 43.6999 97.2396 44.2588 97.941 44.9776L99.2988 44.2444" stroke="#1D1D1B" stroke-linecap="round" stroke-linejoin="round"/>
<path d="M91.6696 44.7324C91.5994 45.3675 91.6832 46.0102 91.914 46.6061" stroke="#1D1D1B" stroke-linecap="round" stroke-linejoin="round"/>
<path d="M73.6398 46.1318C73.4895 46.6953 73.5325 47.2929 73.762 47.829" stroke="#1D1D1B" stroke-linecap="round" stroke-linejoin="round"/>
<path d="M67.542 40.0218C69.0106 39.5473 70.5847 39.5049 72.0768 39.8997C72.9838 40.1271 73.8433 40.5132 74.6158 41.0401" stroke="#1D1D1B" stroke-width="0.5" stroke-linecap="round" stroke-linejoin="round"/>
<path d="M85.2197 39.9397C86.8332 38.846 88.6517 38.0908 90.5653 37.7197C92.4789 37.3487 94.4478 37.3695 96.3531 37.7808" stroke="#1D1D1B" stroke-width="0.5" stroke-linecap="round" stroke-linejoin="round"/>
<path d="M78.3368 55.6904C77.8051 56.2201 77.3728 56.841 77.0605 57.5234C76.9081 57.8655 76.8455 58.2409 76.8788 58.6139C76.9121 58.9869 77.0401 59.3453 77.2506 59.655C77.6444 60.0045 78.1161 60.2546 78.6263 60.3845C79.1365 60.5144 79.6704 60.5203 80.1833 60.4018" stroke="#1D1D1B" stroke-width="0.5" stroke-linecap="round" stroke-linejoin="round"/>
<path d="M81.5947 58.9481C81.8389 58.9282 82.0829 58.9874 82.2907 59.117C82.4986 59.2466 82.6592 59.4397 82.7488 59.6677" stroke="#1D1D1B" stroke-width="0.5" stroke-linecap="round" stroke-linejoin="round"/>
<path d="M77.5625 65.506C78.623 66.0153 79.7962 66.2443 80.9704 66.1713L87.4468 66.2799C87.8573 66.3118 88.2703 66.2751 88.6687 66.1713C88.8657 66.1151 89.0474 66.0151 89.2003 65.8787C89.3531 65.7423 89.4731 65.5731 89.5512 65.3838" stroke="#1D1D1B" stroke-width="0.5" stroke-linecap="round" stroke-linejoin="round"/>
<path d="M82.3145 69.7422L84.8127 69.8644" stroke="#1D1D1B" stroke-width="0.5" stroke-linecap="round" stroke-linejoin="round"/>
<path d="M86.5498 17.6729C87.7916 16.2131 89.3449 15.0504 91.0954 14.2703C92.8459 13.4902 94.7491 13.1126 96.6649 13.1653C98.3617 10.886 100.682 9.14606 103.345 8.15527" stroke="#1D1D1B" stroke-linecap="round" stroke-linejoin="round"/>
<path d="M103.713 66.2796C105.546 62.9938 107.134 59.5859 108.058 57.4814" stroke="#1D1D1B" stroke-linecap="round" stroke-linejoin="round"/>
<path d="M105.233 6.79787C105.693 6.28555 106.213 5.82977 106.781 5.44013C115.619 -0.886892 126.359 20.6603 128.776 26.0776C133.419 36.4643 140.235 51.087 131.002 60.8627C131.99 58.7364 132.495 56.4183 132.482 54.074C128.518 62.2204 123.25 71.4937 113.664 73.734C115.145 72.5488 116.28 70.9872 116.95 69.2128C115.011 71.208 112.706 72.812 110.161 73.9376C108.19 74.8087 106.098 75.3764 103.956 75.6213C106.169 74.2139 107.891 72.1552 108.885 69.7287C105.218 71.8834 101.331 73.6404 97.29 74.9695C99.3402 73.476 101.648 69.9867 103.671 66.3615" stroke="#1D1D1B" stroke-linecap="round" stroke-linejoin="round"/>
<path d="M69.0768 46.498C68.8531 51.726 69.8091 56.9372 71.8737 61.7454C73.9659 65.8342 76.5712 69.6394 79.6263 73.0689C80.4969 74.2128 81.569 75.1883 82.7898 75.9472C82.9989 76.0675 83.2168 76.1719 83.4416 76.2595C85.5843 76.921 87.894 76.786 89.9451 75.8794C95.3375 74.0783 100.107 70.7823 103.699 66.3752" stroke="#1D1D1B" stroke-linecap="round" stroke-linejoin="round"/>
<path d="M79.668 91.6694C81.0257 91.3028 82.3155 90.9227 83.6054 90.4475C84.5407 90.1162 85.4486 89.7121 86.3208 89.2391C88.4394 88.151 90.1143 86.3609 91.0593 84.1747C92.0505 81.5543 91.521 78.6352 90.9914 75.8926" stroke="#1D1D1B" stroke-linecap="round" stroke-linejoin="round"/>
<path d="M112.089 73.9648C111.795 77.189 112.609 80.417 114.397 83.1159C115.919 85.3917 118.07 87.175 120.588 88.2482C121.03 88.4482 121.483 88.6205 121.946 88.7641" stroke="#1D1D1B" stroke-linecap="round" stroke-linejoin="round"/>
<path d="M83.5365 90.2717C81.6357 89.1041 78.961 89.8237 76.9108 90.7198C74.8606 91.6159 73.0684 92.9872 71.0047 93.8154C67.0537 95.404 62.2609 95.0238 58.9752 97.7257C56.4091 99.8573 55.4858 103.333 54.7798 106.605C51.4423 122.237 50.0514 138.221 50.6387 154.194" stroke="#1D1D1B" stroke-linecap="round" stroke-linejoin="round"/>
<path d="M47.6914 145.069C48.4093 151.093 50.2515 156.928 53.1223 162.272" stroke="#1D1D1B" stroke-linecap="round" stroke-linejoin="round"/>
<path d="M51.331 126.347C48.7322 134.704 45.0291 142.676 40.3198 150.053C39.3255 151.361 38.6303 152.872 38.2832 154.479C38.1628 155.267 38.2762 156.072 38.6092 156.796C38.9422 157.52 39.4803 158.131 40.1569 158.552L33.2053 159.19C32.3238 159.198 31.4539 159.393 30.6527 159.76C30.2542 159.95 29.9233 160.258 29.7048 160.641C29.4864 161.025 29.3907 161.466 29.4308 161.906" stroke="#1D1D1B" stroke-linecap="round" stroke-linejoin="round"/>
<path d="M33.0162 161.254C33.3556 161.607 33.6815 161.974 33.9802 162.354C37.3225 166.378 39.3288 171.343 39.7206 176.56C40.1123 181.776 38.87 186.985 36.1661 191.463C35.2293 193.011 33.7222 194.6 32.025 194.6C31.7864 194.601 31.5488 194.569 31.319 194.505C30.1805 194.051 29.2612 193.176 28.7529 192.061C26.8927 188.852 25.9532 185.192 26.0374 181.484" stroke="#1D1D1B" stroke-linecap="round" stroke-linejoin="round"/>
<path d="M31.8467 194.598H32.0639C35.5852 194.767 39.1144 194.544 42.5863 193.933C46.2734 193.345 49.8296 192.118 53.0952 190.308" stroke="#1D1D1B" stroke-linecap="round" stroke-linejoin="round"/>
<path d="M57.903 106.727C54.1922 117.874 52.7202 129.644 53.5719 141.362C54.0199 147.418 55.0925 153.473 54.7123 159.542C54.7123 160.466 54.563 161.389 54.4408 162.258C54.2507 163.86 53.9656 165.435 53.6669 167.023C52.5429 171.775 51.8117 176.611 51.4809 181.483C51.2451 184.471 51.9527 187.458 53.504 190.023C53.7249 190.345 53.97 190.649 54.2371 190.933C55.5949 192.386 57.4414 193.296 58.9077 194.653C59.388 195.111 59.8413 195.596 60.2655 196.106C60.8357 196.771 61.3788 197.464 62.0034 198.061L62.5193 198.536C63.4798 199.361 64.6895 199.839 65.9544 199.894H66.3888C66.7475 199.855 67.0967 199.754 67.4207 199.595" stroke="#1D1D1B" stroke-linecap="round" stroke-linejoin="round"/>
<path d="M43.4023 156.474C46.5754 157.808 49.1232 160.297 50.5304 163.439C50.9987 164.477 51.3274 165.573 51.508 166.697" stroke="#1D1D1B" stroke-linecap="round" stroke-linejoin="round"/>
<path d="M48.1414 164.62C49.1549 169.107 49.1237 173.767 48.0502 178.24C46.9767 182.712 44.8896 186.879 41.9502 190.417" stroke="#1D1D1B" stroke-linecap="round" stroke-linejoin="round"/>
<path d="M73.8144 143.02C73.2243 143.261 72.7377 143.701 72.4398 144.265C72.1419 144.828 72.0518 145.478 72.1851 146.102C72.3661 146.719 72.7715 147.247 73.3216 147.581C73.8718 147.915 74.5269 148.032 75.1585 147.907C75.7762 147.744 76.3082 147.351 76.6462 146.808C76.9843 146.266 77.1028 145.615 76.9778 144.988C76.8011 144.319 76.3751 143.742 75.7871 143.376C75.199 143.01 74.4933 142.882 73.8144 143.02Z" stroke="#1D1D1B" stroke-linecap="round" stroke-linejoin="round"/>
<path d="M79.6668 91.6699C77.6561 96.006 75.906 100.458 74.4259 105.003C73.919 106.578 73.4664 108.166 73.0682 109.768C72.946 110.203 72.851 110.651 72.7559 111.126C71.1358 117.869 71.4749 124.935 73.7335 131.492C74.5481 133.624 75.6343 135.674 76.6255 137.751C77.9799 140.197 78.9074 142.855 79.3681 145.613C79.9247 150.582 77.861 155.47 75.4171 159.828C71.887 166.114 67.4336 172.048 65.2612 178.836C63.0889 185.625 63.7677 194.179 69.3344 198.808" stroke="#1D1D1B" stroke-linecap="round" stroke-linejoin="round"/>
<path d="M76.8018 137.683C82.9478 130.541 89.2476 123.526 95.7014 116.638C97.4393 114.765 99.2043 112.9 100.997 111.044C108.03 103.685 115.235 96.4895 122.612 89.4564C122.693 89.375 122.761 89.2935 122.842 89.2256" stroke="#1D1D1B" stroke-linecap="round" stroke-linejoin="round"/>
<path d="M120.778 87.8404C121.351 87.5361 121.99 87.377 122.638 87.377C123.287 87.377 123.926 87.5361 124.498 87.8404C125.646 88.4571 126.709 89.2191 127.662 90.1078C129.872 91.9458 132.286 93.5222 134.858 94.8055C137.641 96.1633 140.615 97.2495 143.425 98.6072C146.301 99.8646 148.848 101.77 150.866 104.174C152.828 106.873 153.999 110.065 154.246 113.393C154.45 116.716 154.45 120.049 154.246 123.372C153.975 133.012 156.025 142.584 158.591 151.885C161.157 161.185 164.239 170.35 166.14 179.813C166.735 182.199 166.928 184.668 166.71 187.118C166.384 189.548 165.909 191.625 163.846 192.97" stroke="#1D1D1B" stroke-linecap="round" stroke-linejoin="round"/>
<path d="M148.26 106.13C140.467 109.836 135.592 118.051 133.746 126.496C131.899 134.941 132.66 143.685 133.42 152.293" stroke="#1D1D1B" stroke-linecap="round" stroke-linejoin="round"/>
<path d="M133.677 157.574C132.243 165.686 129.968 173.626 126.889 181.267C126.033 183.412 125.097 185.706 125.599 187.96C126.251 190.893 129.224 193.12 129.129 196.107C129.122 196.353 129.095 196.598 129.048 196.84C128.827 197.675 128.429 198.453 127.881 199.121C127.333 199.789 126.647 200.33 125.871 200.709C124.075 201.531 122.15 202.031 120.182 202.189" stroke="#1D1D1B" stroke-linecap="round" stroke-linejoin="round"/>
<path d="M121.757 118.675C122.317 128.742 124.614 138.636 128.545 147.92" stroke="#1D1D1B" stroke-linecap="round" stroke-linejoin="round"/>
<path d="M95.4434 141.675C101.12 158.441 109.95 173.967 121.457 187.417" stroke="#1D1D1B" stroke-linecap="round" stroke-linejoin="round"/>
<path d="M84.5 173.011C93.1736 181.836 103.904 188.368 115.728 192.019" stroke="#1D1D1B" stroke-linecap="round" stroke-linejoin="round"/>
<path d="M143.957 124.173C146.305 140.142 145.18 156.43 140.657 171.924" stroke="#1D1D1B" stroke-linecap="round" stroke-linejoin="round"/>
<path d="M153.08 155.116C151.544 162.629 148.14 169.633 143.182 175.482" stroke="#1D1D1B" stroke-linecap="round" stroke-linejoin="round"/>
<path d="M138.836 181.306C139.651 180.886 140.479 180.478 141.307 180.085C146.164 177.727 151.15 175.646 156.242 173.853" stroke="#1D1D1B" stroke-linecap="round" stroke-linejoin="round"/>
<path d="M133.677 157.111C133.677 157.261 133.677 157.424 133.677 157.573C133.188 165.19 137.614 172.915 135.428 180.247C135.333 180.559 135.225 180.885 135.116 181.211C134.68 182.242 134.459 183.351 134.464 184.47C134.573 185.909 135.822 187.416 137.275 187.049C134.876 189.874 132.979 193.088 131.667 196.553C131.667 196.73 131.531 196.906 131.477 197.083C131.26 197.66 131.154 198.272 131.165 198.889C131.165 199.69 132.876 200.925 133.622 201.238" stroke="#1D1D1B" stroke-linecap="round" stroke-linejoin="round"/>
<path d="M148.111 222.555C147.973 222.636 147.827 222.704 147.676 222.758C145.959 223.229 144.138 223.158 142.463 222.555C141.707 222.195 141.058 221.643 140.582 220.955C140.105 220.266 139.818 219.465 139.747 218.631" stroke="#1D1D1B" stroke-linecap="round" stroke-linejoin="round"/>
<path d="M113.407 222.378C117.563 219.95 121.372 216.972 124.731 213.525C128.286 209.866 131.349 205.758 133.841 201.306C134.52 200.07 135.199 198.794 135.769 197.518C137.491 196.328 139.535 195.69 141.628 195.69C143.721 195.69 145.764 196.328 147.486 197.518C150.368 199.6 152.318 202.73 152.917 206.234C153.05 206.884 153.136 207.542 153.175 208.203C153.31 212.403 152.251 216.556 150.12 220.178C149.72 221.003 149.151 221.734 148.45 222.324" stroke="#1D1D1B" stroke-linecap="round" stroke-linejoin="round"/>
<path d="M152.97 206.222C148.247 209.975 143.846 214.117 139.814 218.604C133.371 225.778 127.918 233.783 123.603 242.405" stroke="#1D1D1B" stroke-linecap="round" stroke-linejoin="round"/>
<path d="M148.11 222.555C148.233 222.491 148.351 222.418 148.463 222.338C154.777 218.713 158.32 212.372 161.511 205.787C162.38 204.203 162.95 202.472 163.195 200.682C163.3 199.784 163.165 198.874 162.805 198.044C162.445 197.214 161.872 196.494 161.145 195.957C162.027 196.5 163.222 195.672 163.439 194.599C163.532 194.064 163.494 193.515 163.331 192.997C163.184 192.534 163.007 192.08 162.801 191.64L159.773 184.987L159.665 184.756" stroke="#1D1D1B" stroke-linecap="round" stroke-linejoin="round"/>
<path d="M157.724 185.937C157.77 186.286 157.714 186.642 157.562 186.96C157.41 187.278 157.169 187.545 156.868 187.729C155.918 188.218 154.818 187.539 153.908 186.982C151.802 185.726 149.453 184.931 147.016 184.65C144.58 184.369 142.111 184.609 139.774 185.353C140.56 184.361 141.552 183.55 142.68 182.977C144.622 182.045 146.744 181.549 148.898 181.524C151.75 181.429 154.872 181.959 156.787 184.077C157.279 184.588 157.606 185.237 157.724 185.937Z" stroke="#1D1D1B" stroke-linecap="round" stroke-linejoin="round"/>
<path d="M74.9834 105.179C83.1228 108.753 91.8919 110.673 100.78 110.827" stroke="#1D1D1B" stroke-linecap="round" stroke-linejoin="round"/>
<path d="M73.0557 109.728C80.0271 113.527 87.7108 115.838 95.6211 116.516" stroke="#1D1D1B" stroke-linecap="round" stroke-linejoin="round"/>
<path d="M1 169.372C9.4994 173.083 17.9445 176.907 26.3353 180.845C30.2546 182.655 34.1603 184.515 38.0525 186.425" stroke="#1D1D1B" stroke-linecap="round" stroke-linejoin="round"/>
<path d="M4.57031 155.932C12.5297 159.075 20.8711 161.148 29.376 162.096C30.8152 162.259 32.268 162.408 33.7479 162.544" stroke="#1D1D1B" stroke-linecap="round" stroke-linejoin="round"/>
<path d="M59.7618 196.744C57.9855 200.006 57.4135 203.789 58.1461 207.43C49.8097 223.193 48.384 241.631 47.9496 259.458C46.9991 297.963 49.8232 336.441 52.6473 374.865C54.3038 397.267 55.9511 419.675 57.5894 442.086" stroke="#1D1D1B" stroke-linecap="round" stroke-linejoin="round"/>
<path d="M92.7822 305.213C105.383 351.246 113.924 398.295 118.308 445.82" stroke="#1D1D1B" stroke-linecap="round" stroke-linejoin="round"/>
<path d="M80.8887 265.947C81.3096 267.21 81.7305 268.473 82.1378 269.749C85.9666 281.516 89.5148 293.333 92.7824 305.199" stroke="#1D1D1B" stroke-linecap="round" stroke-linejoin="round"/>
<path d="M119.056 198.849C119.919 201.015 120.424 203.308 120.549 205.637C120.556 205.691 120.556 205.746 120.549 205.8" stroke="#1D1D1B" stroke-linecap="round" stroke-linejoin="round"/>
<path d="M71.8877 187.784C75.7572 191.559 81.2017 193.215 86.5376 194.111C91.8735 195.007 97.318 195.143 102.559 196.46C105.567 197.415 108.621 198.217 111.71 198.863H112.375C114.547 199.169 116.761 198.94 118.824 198.198C119.545 197.937 120.229 197.586 120.861 197.153H120.78" stroke="#1D1D1B" stroke-linecap="round" stroke-linejoin="round"/>
<path d="M120.67 205.936C121.851 208.475 123.168 210.973 124.594 213.389" stroke="#1D1D1B" stroke-linecap="round" stroke-linejoin="round"/>
<path d="M122.395 333.372C126.075 345.228 130.636 356.792 136.04 367.967" stroke="#1D1D1B" stroke-linecap="round" stroke-linejoin="round"/>
<path d="M120.615 350.249C124.249 361.394 129.689 371.865 136.718 381.246" stroke="#1D1D1B" stroke-linecap="round" stroke-linejoin="round"/>
<path d="M84.5552 361.763L73.123 384.573" stroke="#1D1D1B" stroke-linecap="round" stroke-linejoin="round"/>
<path d="M83.3454 376.562C76.8526 395.502 69.2544 414.044 60.5898 432.094" stroke="#1D1D1B" stroke-linecap="round" stroke-linejoin="round"/>
<path d="M112.09 219.663C112.37 220.613 112.669 221.564 112.986 222.514C115.411 229.691 118.953 236.44 123.481 242.514C123.821 242.962 124.16 243.423 124.513 243.871" stroke="#1D1D1B" stroke-linecap="round" stroke-linejoin="round"/>
<path d="M95.3758 212.833C93.3664 218.97 91.3479 225.102 89.3203 231.23" stroke="#1D1D1B" stroke-linecap="round" stroke-linejoin="round"/>
<path d="M98.7296 211.978C96.7476 222.656 95.3471 233.434 94.5342 244.264" stroke="#1D1D1B" stroke-linecap="round" stroke-linejoin="round"/>
<path d="M70.747 211.096C69.3892 221.048 67.855 232.385 68.8325 242.324C69.7558 251.828 73.0687 261.427 79.6265 268.311C79.9795 268.677 80.3326 269.03 80.6991 269.383" stroke="#1D1D1B" stroke-linecap="round" stroke-linejoin="round"/>
<path d="M76.1237 213.377C73.2906 229.103 73.4241 245.22 76.5174 260.898C76.8638 263.632 77.9428 266.221 79.6402 268.392C80.2409 269.034 80.9662 269.547 81.7718 269.899" stroke="#1D1D1B" stroke-linecap="round" stroke-linejoin="round"/>
<path d="M54.0596 242.147C60.3494 252.16 67.6961 261.469 75.9734 269.913" stroke="#1D1D1B" stroke-linecap="round" stroke-linejoin="round"/>
<path d="M58.1602 282.513L77.8608 275.493" stroke="#1D1D1B" stroke-linecap="round" stroke-linejoin="round"/>
<path d="M83.6457 280.463L73.8564 287.754" stroke="#1D1D1B" stroke-linecap="round" stroke-linejoin="round"/>
<path d="M132.076 229.791C136.842 250.849 136.258 272.695 135.661 294.27C135.131 313.088 134.602 331.92 134.71 350.792C135.621 351.943 136.175 353.336 136.303 354.798C136.431 356.26 136.127 357.728 135.43 359.02" stroke="#1D1D1B" stroke-linecap="round" stroke-linejoin="round"/>
<path d="M133.025 354.784C133.946 356.116 134.75 357.524 135.429 358.993C138.524 365.673 139.189 373.467 139.733 380.921C141.308 402.21 142.878 423.481 144.444 444.734" stroke="#1D1D1B" stroke-linecap="round" stroke-linejoin="round"/>
<path d="M118.309 445.969C119.349 447.215 120.788 448.064 122.382 448.372C126.194 449.416 130.133 449.928 134.085 449.893C135.573 449.819 137.043 449.545 138.457 449.078C140.819 448.333 142.913 446.918 144.486 445.005" stroke="#1D1D1B" stroke-linecap="round" stroke-linejoin="round"/>
<path d="M57.6445 442.493L58.69 442.629C65.1116 443.498 71.6264 443.416 78.0241 442.384C80.3127 442.029 82.5792 441.544 84.8127 440.932" stroke="#1D1D1B" stroke-linecap="round" stroke-linejoin="round"/>
<path d="M92.7836 305.199C89.4656 327.32 88.1568 349.697 88.8733 372.054C88.9819 375.557 88.9684 379.508 88.0315 381.069C88.449 401.03 87.4326 420.994 84.9902 440.809" stroke="#1D1D1B" stroke-linecap="round" stroke-linejoin="round"/>
<path d="M58.635 443.336C58.7979 448.848 58.9608 454.483 57.2772 459.751C55.9195 464.286 53.204 468.345 51.7105 472.853C49.1987 480.321 49.2395 488.603 44.9219 495.201" stroke="#1D1D1B" stroke-linecap="round" stroke-linejoin="round"/>
<path d="M78.0109 442.385C76.8161 448.372 75.8928 454.333 75.2954 460.619L75.1732 461.827C75.5824 462.626 75.8292 463.499 75.8991 464.394C75.969 465.288 75.8607 466.188 75.5805 467.041C75.0229 468.741 74.247 470.361 73.2724 471.861C69.8781 477.564 66.4882 483.275 63.103 488.996C61.2565 492.091 59.2606 495.35 56.0428 496.979C52.825 498.608 47.7606 497.604 44.9094 495.282L44.8008 495.2" stroke="#1D1D1B" stroke-linecap="round" stroke-linejoin="round"/>
<path d="M72.3069 456.615C72.9967 458.736 73.2323 460.978 72.9984 463.195C72.7645 465.413 72.0663 467.557 70.9492 469.486" stroke="#1D1D1B" stroke-linecap="round" stroke-linejoin="round"/>
<path d="M76.3818 507.909L73.5984 507.773H73.5713" stroke="#1D1D1B" stroke-linecap="round" stroke-linejoin="round"/>
<path d="M75.7295 460.605C77.3619 462.199 78.3891 464.311 78.635 466.58C78.8939 468.835 78.8939 471.113 78.635 473.368C78.3997 476.084 78.2005 478.822 78.0376 481.582C77.4945 490.34 77.1822 499.233 76.4355 507.868" stroke="#1D1D1B" stroke-linecap="round" stroke-linejoin="round"/>
<path d="M72.7559 484.529C73.0003 492.187 73.2492 499.844 73.5026 507.502" stroke="#1D1D1B" stroke-linecap="round" stroke-linejoin="round"/>
<path d="M75.5534 481.461C74.5273 482.396 73.5741 483.408 72.7022 484.489C68.3438 489.757 65.6827 496.369 62.5871 502.547C61.6407 504.827 60.1376 506.835 58.2152 508.385C55.3775 510.353 51.6438 510.231 48.1951 510.041L30.1373 509.023H29.6621" stroke="#1D1D1B" stroke-linecap="round" stroke-linejoin="round"/>
<path d="M44.814 495.201L30.7615 503.823C30.0408 504.211 29.3893 504.715 28.8335 505.316C28.56 505.619 28.363 505.983 28.259 506.377C28.1551 506.772 28.1472 507.185 28.2361 507.584C28.4805 508.371 29.3766 509.322 30.1369 509.023" stroke="#1D1D1B" stroke-linecap="round" stroke-linejoin="round"/>
<path d="M122.312 448.808C122.842 456.615 121.05 464.381 119.271 471.998C117.913 477.537 116.678 483.077 114.94 488.481C114.105 491.633 112.625 494.578 110.595 497.129C110.466 497.297 110.325 497.456 110.174 497.604C108.667 499.166 106.766 500.32 105.368 501.976C104.401 503.124 103.714 504.48 103.361 505.939C103.007 507.397 102.997 508.918 103.331 510.381C104.336 511.915 106.495 511.983 108.314 511.874C115.7 511.481 123.086 511.073 130.608 510.517C132.876 508.222 133.663 504.882 134.546 501.773C135.693 497.797 137.179 493.927 138.985 490.205C140.315 487.384 141.844 484.662 143.561 482.058C143.561 481.95 143.697 481.841 143.765 481.733C144.321 474.503 142.489 467.291 138.551 461.204" stroke="#1D1D1B" stroke-linecap="round" stroke-linejoin="round"/>
<path d="M139.19 449.27C138.608 453.251 138.399 457.278 138.565 461.299C138.664 463.708 138.891 466.11 139.244 468.495C137.724 478.366 136.081 488.603 130.446 496.844C129.251 498.609 127.649 500.388 125.518 500.592C123.967 500.568 122.444 500.172 121.078 499.438C117.764 498.068 114.233 497.3 110.65 497.17" stroke="#1D1D1B" stroke-linecap="round" stroke-linejoin="round"/>
<path d="M136.8 465.209C137.072 466.633 137.06 468.096 136.764 469.515C136.468 470.934 135.894 472.281 135.076 473.478V473.315" stroke="#1D1D1B" stroke-linecap="round" stroke-linejoin="round"/>
<path d="M143.779 482.329C142.824 491.45 142.697 500.639 143.398 509.782" stroke="#1D1D1B" stroke-linecap="round" stroke-linejoin="round"/>
<path d="M139.027 490.244C139.394 496.856 139.747 503.482 140.195 510.311C141.145 510.311 142.082 510.393 143.019 510.311C143.149 510.323 143.278 510.29 143.386 510.216C143.409 510.196 143.427 510.171 143.44 510.143C143.453 510.115 143.459 510.084 143.459 510.053C143.459 510.023 143.453 509.992 143.44 509.964C143.427 509.936 143.409 509.911 143.386 509.89" stroke="#1D1D1B" stroke-linecap="round" stroke-linejoin="round"/>
<path d="M61.7179 198.374C60.6571 201.324 60.3218 204.486 60.7403 207.593C60.7403 207.661 60.7403 207.729 60.7403 207.797" stroke="#1D1D1B" stroke-linecap="round" stroke-linejoin="round"/>
<path d="M86.1562 201.021C86.7471 203.796 86.9934 206.632 86.8894 209.467C86.8894 209.847 86.8894 210.254 86.8894 210.675" stroke="#1D1D1B" stroke-linecap="round" stroke-linejoin="round"/>
<path d="M89.3203 201.021C89.9319 203.608 90.1787 206.268 90.0535 208.923C90.0535 209.507 90.0535 210.118 89.9449 210.784" stroke="#1D1D1B" stroke-linecap="round" stroke-linejoin="round"/>
<path d="M105.247 199.989C106.3 202.346 106.766 204.922 106.605 207.498C106.605 207.851 106.605 208.204 106.605 208.57" stroke="#1D1D1B" stroke-linecap="round" stroke-linejoin="round"/>
<path d="M109.13 205.759C108.709 203.139 108.193 199.962 108.193 199.962C108.656 201.867 108.969 203.805 109.13 205.759Z" stroke="#1D1D1B" stroke-linecap="round" stroke-linejoin="round"/>
<path d="M109.66 209.113C109.653 209.077 109.653 209.041 109.66 209.005C109.66 209.005 109.66 208.923 109.66 208.869C109.66 208.557 109.524 207.973 109.402 207.24C109.402 206.832 109.266 206.384 109.198 205.882" stroke="#1D1D1B" stroke-linecap="round" stroke-linejoin="round"/>
<path d="M109.157 205.909C109.266 206.846 109.402 207.81 109.619 208.856" stroke="#1D1D1B" stroke-linecap="round" stroke-linejoin="round"/>
<path d="M109.157 205.907C109.157 205.907 109.157 205.813 109.157 205.759" stroke="#1D1D1B" stroke-linecap="round" stroke-linejoin="round"/>
<path d="M109.699 207.171L119.977 205.65" stroke="#1D1D1B" stroke-linecap="round" stroke-linejoin="round"/>
<path d="M108.805 199.405C109.103 199.324 109.402 199.269 109.701 199.215C110.583 199.066 111.439 199.025 112.416 198.957" stroke="#1D1D1B" stroke-linecap="round" stroke-linejoin="round"/>
<path d="M90.3252 208.937C95.73 209.071 101.132 208.588 106.428 207.498" stroke="#1D1D1B" stroke-linecap="round" stroke-linejoin="round"/>
<path d="M77.5898 209.425C80.4565 209.601 83.3312 209.601 86.1979 209.425" stroke="#1D1D1B" stroke-linecap="round" stroke-linejoin="round"/>
<path d="M65.9131 200.601C65.8993 201.356 65.963 202.112 66.1032 202.854C69.0223 202.854 71.955 202.854 74.8334 202.949C74.6976 204.714 74.6569 206.48 74.6162 208.38C71.7156 208.661 68.7933 208.629 65.8995 208.285C65.8856 208.534 65.8856 208.783 65.8995 209.032C65.846 209.569 65.846 210.111 65.8995 210.648C66.9461 210.89 68.016 211.018 69.0902 211.028C69.7012 211.028 70.2443 211.123 70.7738 211.137C72.8511 211.137 74.4261 211.069 76.2998 211.232L77.128 211.327" stroke="#1D1D1B" stroke-linecap="round" stroke-linejoin="round"/>
<path d="M76.8018 201.021C76.8968 203.859 76.9783 206.67 77.0733 209.494C77.0733 210.064 77.0733 210.648 77.0733 211.218" stroke="#1D1D1B" stroke-linecap="round" stroke-linejoin="round"/>
<path d="M66.4023 200.193L69.1857 200.316C71.7518 200.424 74.3043 200.492 76.8704 200.533L76.7211 200.736" stroke="#1D1D1B" stroke-linecap="round" stroke-linejoin="round"/>
<path d="M60.8359 207.58C62.4047 208.129 64.0053 208.582 65.6287 208.938" stroke="#1D1D1B" stroke-linecap="round" stroke-linejoin="round"/>
<path d="M65.3828 205.352L71.5741 205.46" stroke="white" stroke-linecap="round" stroke-linejoin="round"/>
<path d="M76.7744 200.506H76.8695C79.9741 200.687 83.0833 200.773 86.1971 200.764C87.2425 200.764 88.288 200.764 89.3198 200.764C94.6331 200.664 99.9328 200.329 105.219 199.759C106.183 199.664 107.16 199.542 108.124 199.42L109.699 199.216H109.903" stroke="#1D1D1B" stroke-linecap="round" stroke-linejoin="round"/>
</svg>
