<svg width="288" height="884" viewBox="0 0 288 884" fill="none" xmlns="http://www.w3.org/2000/svg">
<path d="M275.209 318.721L271.669 320.316C271.465 319.107 270.901 317.987 270.051 317.104C266.744 313.446 261.351 312.414 256.427 312.696C252.707 312.739 249.042 313.595 245.687 315.204L243.343 310.21C241.912 310.89 240.482 311.594 239.075 312.321L232.673 312.156C232.861 311.594 233.049 311.031 233.213 310.492C236.988 297.831 229.344 284.49 230.188 271.336C227.711 285.344 223.782 299.056 218.464 312.25C216.986 315.955 215.368 319.917 216.236 323.809C217.361 328.874 222.497 332.719 222.333 337.877C222.32 338.302 222.273 338.726 222.192 339.143C221.811 340.586 221.124 341.929 220.177 343.082C219.23 344.235 218.046 345.171 216.705 345.825C213.604 347.243 210.279 348.108 206.88 348.381H206.692C206.266 346.395 205.67 344.45 204.91 342.566L204.512 341.558C200.947 342.84 197.124 343.235 193.374 342.707C191.756 342.824 190.278 342.894 188.684 343.152L185.964 343.504C184.299 343.715 182.611 343.926 180.946 344.09C171.816 345.091 162.664 345.669 153.487 345.825C151.705 345.825 149.9 345.825 148.094 345.825C142.732 345.825 137.362 345.677 131.985 345.38C127.553 345.38 123.145 345.192 118.713 345.005V342.519C109.169 334.524 107.973 319.894 111.678 308.03C115.383 296.166 123.121 286.037 129.218 275.205C133.439 267.679 137.003 259.238 136.042 250.657C135.351 245.933 133.868 241.359 131.657 237.128H131.868C142.482 224.796 153.362 212.682 164.508 200.787C167.51 197.551 170.558 194.331 173.653 191.127C185.8 178.419 198.243 165.992 210.983 153.847L209.834 152.652C209.035 152.404 208.252 152.106 207.49 151.761L207.818 151.057C208.807 150.532 209.91 150.257 211.03 150.257C212.151 150.257 213.254 150.532 214.243 151.057C216.225 152.122 218.061 153.438 219.706 154.973C223.522 158.147 227.693 160.869 232.134 163.085C236.941 165.43 242.076 167.305 246.93 169.65C251.897 171.821 256.295 175.111 259.78 179.263C263.17 183.923 265.192 189.437 265.619 195.183C265.971 200.922 265.971 206.677 265.619 212.416C265.15 229.063 268.691 245.592 273.122 261.653C277.554 277.714 282.877 293.54 286.16 309.882C287.188 314.003 287.52 318.266 287.145 322.496C286.582 326.693 285.761 330.28 282.197 332.602L281.259 332.836C281.006 332.035 280.701 331.252 280.345 330.491L275.209 318.721Z" fill="#406BB2"/>
<path d="M263.39 355.44C262.355 349.388 258.988 343.983 254.011 340.387C251.037 338.332 247.508 337.232 243.893 337.232C240.278 337.232 236.749 338.332 233.775 340.387C232.743 342.591 231.617 344.795 230.445 346.929L230.093 346.718C228.804 346.179 225.919 344.045 225.849 342.662C225.829 341.597 226.012 340.539 226.388 339.543C226.388 339.238 226.599 338.934 226.717 338.629C228.983 332.645 232.258 327.093 236.401 322.216C234.056 322.849 231.711 320.247 231.547 317.762C231.538 315.829 231.92 313.915 232.673 312.135L239.074 312.299C240.481 311.572 241.911 310.868 243.342 310.188L245.687 315.183C243.738 316.173 242.026 317.572 240.669 319.286C244.705 318 248.968 317.586 253.176 318.071C257.384 318.556 261.441 319.929 265.079 322.099C266.65 323.061 268.549 324.233 270.19 323.389C270.71 323.071 271.126 322.61 271.389 322.061C271.651 321.511 271.748 320.897 271.668 320.294L275.208 318.699L280.438 330.235C280.794 330.996 281.099 331.779 281.352 332.58C281.635 333.474 281.699 334.422 281.54 335.346C281.164 337.081 279.195 338.512 277.577 337.691C278.834 338.618 279.823 339.862 280.445 341.294C281.067 342.727 281.299 344.299 281.118 345.85C280.695 348.942 279.71 351.93 278.21 354.666C272.699 366.038 266.486 376.987 255.676 383.247C256.886 382.228 257.869 380.966 258.56 379.543C262.24 373.287 264.069 366.116 263.836 358.863C263.769 357.713 263.62 356.569 263.39 355.44Z" fill="#406BB2"/>
<path d="M271.669 320.364C271.749 320.967 271.652 321.581 271.39 322.13C271.128 322.68 270.711 323.141 270.192 323.459C268.55 324.303 266.651 323.13 265.08 322.169C261.442 319.999 257.385 318.626 253.177 318.141C248.969 317.656 244.706 318.07 240.67 319.356C242.027 317.642 243.739 316.243 245.688 315.252C249.042 313.643 252.707 312.787 256.427 312.744C261.352 312.58 266.745 313.494 270.051 317.152C270.901 318.035 271.465 319.155 271.669 320.364Z" fill="#406BB2"/>
<path d="M263.837 358.839C264.07 366.093 262.241 373.263 258.561 379.519C257.87 380.942 256.888 382.204 255.677 383.223C255.483 383.362 255.279 383.487 255.067 383.598C254.829 383.739 254.578 383.857 254.317 383.95C251.351 384.763 248.206 384.64 245.313 383.598C244.007 382.977 242.887 382.024 242.065 380.836C241.242 379.647 240.745 378.263 240.623 376.823C247.587 369.073 255.187 361.921 263.345 355.439C263.59 356.56 263.754 357.696 263.837 358.839Z" fill="black"/>
<path d="M253.987 340.386C258.964 343.982 262.332 349.387 263.367 355.439C255.209 361.92 247.609 369.073 240.645 376.822C229.518 389.21 220.101 403.033 212.647 417.923L212.507 418.064C204.687 407.576 198.57 395.921 194.381 383.528L195.108 383.293C202.285 379.1 208.863 373.958 214.664 368.006C220.804 361.687 226.094 354.593 230.398 346.905C231.57 344.771 232.743 342.567 233.728 340.363C236.706 338.306 240.241 337.207 243.861 337.211C247.481 337.215 251.013 338.323 253.987 340.386Z" fill="white"/>
<path d="M141.036 465.096L140.403 465.307C139.012 464.699 137.759 463.813 136.722 462.705C133.79 458.955 131.927 454.484 131.328 449.762C125.986 422.69 125.755 394.857 130.648 367.7L130.906 363.926L132.337 364.09C132.337 363.105 132.337 362.097 132.337 361.112H133.228C138.179 361.417 143.143 361.417 148.094 361.112H149.36C149.54 356.217 149.115 351.319 148.094 346.528V346.083C149.9 346.083 151.705 346.083 153.487 346.083V346.575C154.544 351.043 154.97 355.636 154.754 360.221H155.223C164.557 360.451 173.887 359.618 183.033 357.736H183.338C183.615 353.288 182.811 348.839 180.993 344.77V344.324C182.658 344.16 184.346 343.949 186.011 343.738L186.128 344.723C186.128 344.723 187.019 350.209 187.746 354.735C187.746 354.735 187.746 354.899 187.746 354.992C187.933 356.61 188.168 358.275 188.543 360.08C188.543 359.541 188.309 358.533 188.098 357.267H188.684L206.434 354.641H207.419C207.431 354.734 207.431 354.829 207.419 354.922L207.607 355.204C209.647 359.588 211.921 363.902 214.384 368.076L214.618 368.31C208.817 374.262 202.239 379.404 195.062 383.597L194.335 383.831C198.524 396.225 204.641 407.88 212.461 418.368L212.601 418.227C216.538 410.329 221.044 402.728 226.084 395.484L227.304 396.352C235.534 432.717 234.526 470.442 233.494 507.698C232.58 540.194 231.665 572.714 231.853 605.305C233.426 607.292 234.383 609.698 234.604 612.223C234.824 614.748 234.3 617.283 233.096 619.513C238.442 631.049 239.591 644.507 240.529 657.379C243.249 694.143 245.961 730.875 248.665 767.576V768.069C245.949 771.372 242.332 773.815 238.254 775.103C235.812 775.909 233.272 776.382 230.704 776.509C223.877 776.57 217.075 775.686 210.491 773.883C207.738 773.352 205.253 771.886 203.456 769.733V769.476C195.886 687.407 181.135 606.159 159.373 526.666C153.823 505.893 147.711 485.369 141.036 465.096Z" fill="#406BB2"/>
<path d="M238.582 795.876C245.384 806.389 248.547 818.843 247.586 831.327C247.469 831.514 247.329 831.702 247.235 831.889C244.27 836.385 241.629 841.086 239.333 845.957C236.212 852.385 233.647 859.069 231.665 865.933C230.141 871.303 228.781 877.07 224.865 881.033C211.874 881.947 199.071 882.651 186.362 883.377C183.22 883.565 179.492 883.377 177.756 880.798C177.179 878.272 177.197 875.646 177.807 873.128C178.417 870.609 179.604 868.267 181.274 866.285C183.619 863.425 186.972 861.432 189.574 858.735C189.835 858.479 190.078 858.205 190.301 857.915C196.489 858.14 202.587 859.466 208.31 861.83C210.67 863.098 213.299 863.782 215.978 863.823C219.659 863.472 222.426 860.4 224.489 857.352C234.221 843.12 237.058 825.442 239.684 808.396C239.094 804.245 238.726 800.066 238.582 795.876Z" fill="#406BB2"/>
<path d="M247.234 831.89L247.586 832.124C245.938 847.875 245.718 863.742 246.929 879.532V879.908C246.969 879.943 247.001 879.986 247.023 880.035C247.045 880.083 247.056 880.136 247.056 880.189C247.056 880.242 247.045 880.295 247.023 880.343C247.001 880.392 246.969 880.435 246.929 880.47C246.744 880.597 246.52 880.655 246.296 880.634C244.678 880.634 243.06 880.634 241.419 880.634C240.645 868.911 240.035 857.399 239.402 845.981C241.675 841.104 244.293 836.395 247.234 831.89Z" fill="#406BB2"/>
<path d="M238.582 795.878C238.752 800.038 239.144 804.186 239.754 808.305C237.128 825.35 234.29 843.029 224.559 857.261C222.496 860.309 219.729 863.38 216.047 863.732C213.369 863.691 210.739 863.007 208.38 861.739C202.657 859.374 196.559 858.048 190.371 857.823C193.869 853.415 196.416 848.33 197.851 842.888C200.853 833.51 203.08 823.99 205.331 814.424C208.403 801.271 211.498 787.86 210.584 774.378V773.628C217.168 775.43 223.97 776.314 230.797 776.254C233.365 776.126 235.905 775.653 238.347 774.847L239.684 775.175C238.675 782.027 238.306 788.958 238.582 795.878Z" fill="white"/>
<path d="M179.983 66.535C173.194 64.0512 167.161 59.8558 162.469 54.3555C157.778 48.8552 154.587 42.2363 153.205 35.1404C149.955 36.5532 147.096 38.7335 144.875 41.4942C142.653 44.2548 141.134 47.5134 140.449 50.9901C140.239 47.6959 140.882 44.4032 142.315 41.4298C143.749 38.4563 145.924 35.9026 148.633 34.015H148.351L148.75 29.7946C150.894 27.2738 153.577 25.2659 156.6 23.9188C159.624 22.5716 162.911 21.9196 166.219 22.0105C169.15 18.0744 173.156 15.0698 177.756 13.3589L181.015 11.0142C181.81 10.1295 182.708 9.34247 183.688 8.66962C198.954 -2.25634 217.501 34.9528 221.675 44.3079C229.695 62.2443 241.466 87.4959 225.521 104.377C227.226 100.705 228.099 96.7023 228.077 92.6541C221.23 106.722 212.132 122.736 195.577 126.604C198.134 124.558 200.094 121.861 201.251 118.797C197.902 122.242 193.922 125.012 189.527 126.956C186.122 128.46 182.509 129.44 178.811 129.863C182.632 127.433 185.606 123.878 187.323 119.688C180.989 123.409 174.276 126.443 167.298 128.738C170.839 126.159 174.825 120.133 178.319 113.873C181.484 108.199 184.228 102.314 185.822 98.6798H186.151C188.454 98.8925 190.775 98.518 192.894 97.5914C195.014 96.6648 196.865 95.2163 198.273 93.381C201.059 89.6461 202.623 85.1426 202.752 80.4855C202.963 76.8279 202.189 72.5372 198.954 70.8256C195.718 69.114 191.778 70.8257 188.636 72.7717C189.151 76.9311 188.526 81.1522 186.829 84.9843C185.131 88.8164 182.425 92.1157 178.999 94.5298C180.652 92.7644 181.921 90.6762 182.729 88.3964C183.536 86.1167 183.862 83.6948 183.688 81.2827C183.348 76.4421 181.947 71.7355 179.585 67.4963L179.983 66.535Z" fill="#1D1D1B"/>
<path d="M209.881 152.56L211.03 153.756C198.305 165.87 185.862 178.296 173.7 191.035L173.324 190.66C157.974 190.395 142.829 187.079 128.772 180.906L127.811 180.602C130.367 172.754 133.389 165.065 136.862 157.577C139.207 156.944 141.434 156.288 143.662 155.467C145.277 154.895 146.845 154.197 148.352 153.381C152.01 151.501 154.903 148.41 156.535 144.635C158.247 140.11 157.332 135.069 156.418 130.333H154.683C163.996 127.223 172.233 121.531 178.436 113.92C174.942 120.181 170.956 126.206 167.415 128.785C174.394 126.49 181.107 123.456 187.441 119.735C185.724 123.925 182.75 127.48 178.929 129.911C182.627 129.488 186.24 128.508 189.645 127.003L192.928 127.168C192.42 132.735 193.826 138.31 196.914 142.97C199.541 146.9 203.257 149.98 207.606 151.833C208.35 152.12 209.109 152.363 209.881 152.56Z" fill="white"/>
<path d="M188.73 343.293C190.254 343.035 191.731 342.965 193.419 342.848C197.17 343.375 200.993 342.981 204.558 341.699L204.956 342.707C206.448 346.448 207.319 350.408 207.536 354.43H206.551L188.8 357.056H188.214C188.214 356.353 187.979 355.579 187.862 354.711C187.862 354.711 187.862 354.547 187.862 354.454C187.584 351.079 187.043 347.732 186.244 344.442L186.127 343.457L188.847 343.106L188.73 343.293Z" fill="#1D1D1B"/>
<path d="M123.753 68.1759C125.159 65.7784 126.382 63.2782 127.411 60.6965C129.756 55.046 131.046 48.9733 134.094 43.7448C137.143 38.5163 142.231 34.0146 148.351 34.0146H148.632C145.924 35.9022 143.748 38.456 142.315 41.4294C140.881 44.4028 140.239 47.6955 140.449 50.9897C141.134 47.513 142.653 44.2545 144.874 41.4938C147.096 38.7331 149.955 36.5528 153.205 35.14C154.586 42.2359 157.778 48.8548 162.469 54.3551C167.161 59.8554 173.194 64.0508 179.983 66.5346L179.725 67.238C182.087 71.4772 183.488 76.1837 183.829 81.0244C184.003 83.4364 183.676 85.8585 182.869 88.1382C182.062 90.4179 180.792 92.506 179.139 94.2715C182.566 91.8573 185.272 88.5581 186.969 84.726C188.667 80.8939 189.291 76.6728 188.777 72.5134C191.919 70.6377 195.811 68.8558 199.094 70.5674C202.377 72.2789 203.104 76.5696 202.893 80.2272C202.763 84.8842 201.199 89.3877 198.414 93.1227C197.005 94.958 195.155 96.4065 193.035 97.3332C190.915 98.2598 188.595 98.6342 186.291 98.4215H185.963C184.368 102.056 181.625 107.941 178.459 113.615C172.256 121.225 164.019 126.917 154.706 130.027C151.163 131.593 147.174 131.826 143.474 130.684C143.086 130.532 142.709 130.352 142.348 130.144C140.24 128.834 138.388 127.149 136.885 125.174C131.608 119.251 127.109 112.68 123.496 105.619C119.939 97.4102 118.257 88.5116 118.571 79.5707L117.68 79.3362L116.484 78.2343C119.271 75.1597 121.709 71.7864 123.753 68.1759Z" fill="white"/>
<path d="M123.753 68.1757C121.705 71.7698 119.267 75.1273 116.484 78.1872L117.68 79.2892L118.571 79.5236C118.184 88.5516 119.835 97.5507 123.401 105.854C127.014 112.915 131.514 119.486 136.79 125.408C138.294 127.383 140.145 129.068 142.254 130.379L141.972 130.824C139.842 132.001 137.485 132.71 135.059 132.904C132.633 133.098 130.193 132.773 127.903 131.949C123.298 130.232 118.963 127.863 115.03 124.916C118.625 129.092 122.821 132.711 127.481 135.654C122.835 134.615 118.456 132.618 114.625 129.792C110.794 126.967 107.593 123.373 105.228 119.242C100.543 110.932 98.4448 101.413 99.202 91.9033C96.6129 96.0147 95.4176 100.851 95.7936 105.695C96.1695 110.539 98.0965 115.133 101.289 118.796C93.5743 114.107 90.5963 104.33 91.4639 95.6077C92.3315 86.8857 96.2709 78.8437 99.7882 70.8016C105.252 58.3282 109.777 45.3858 116.507 33.5455C123.237 21.7051 132.499 10.7792 144.81 4.96448C157.12 -0.850191 172.948 -0.615708 183.43 7.98907L183.805 8.50489C182.824 9.17774 181.927 9.96481 181.132 10.8495L177.872 13.1941C173.273 14.9051 169.266 17.9097 166.336 21.8458C163.027 21.7548 159.74 22.4069 156.717 23.754C153.693 25.1012 151.011 27.1091 148.866 29.63L148.468 33.8503C142.348 33.8503 137.212 38.3754 134.211 43.5805C131.209 48.7855 129.779 54.8816 127.528 60.5322C126.469 63.1735 125.206 65.729 123.753 68.1757Z" fill="#1D1D1B"/>
<path d="M181.039 344.631C182.857 348.7 183.661 353.149 183.383 357.597H183.079C173.933 359.479 164.603 360.313 155.268 360.082H154.799C155.016 355.497 154.589 350.904 153.533 346.436V345.944C162.709 345.772 171.862 345.194 180.992 344.209L181.039 344.631Z" fill="#1D1D1B"/>
<path d="M173.325 190.66L173.701 191.036C170.574 194.256 167.526 197.476 164.556 200.695C150.894 199.525 137.624 195.533 125.584 188.972C126.225 186.206 127.007 183.462 127.929 180.743L128.89 181.047C142.921 187.157 158.024 190.424 173.325 190.66Z" fill="#D1D0D1"/>
<path d="M164.484 200.67C153.322 212.549 142.442 224.663 131.843 237.012H131.632C129.92 233.424 128.044 229.978 126.637 226.203C122.737 214.88 122.151 202.678 124.949 191.034C125.113 190.283 125.277 189.51 125.488 188.689C137.516 195.342 150.795 199.422 164.484 200.67Z" fill="#D1D0D1"/>
<path d="M104.149 357.761H104.337C107.046 358.709 109.811 359.492 112.614 360.106H112.896C112.803 361.034 112.803 361.968 112.896 362.896C114.703 363.315 116.551 363.535 118.406 363.553C119.461 363.553 120.399 363.717 121.314 363.74C118.969 380.926 116.319 400.504 118.007 417.667C119.602 434.079 125.323 450.656 136.649 462.543C137.687 463.652 138.939 464.537 140.331 465.145L140.964 464.934C147.576 485.254 153.704 505.66 159.347 526.152C153.662 564.412 151.457 603.108 152.758 641.766C152.946 647.815 152.923 654.638 151.305 657.334C152.026 691.803 150.27 726.28 146.052 760.498H145.841C141.984 761.556 138.069 762.393 134.117 763.007C123.068 764.788 111.816 764.93 100.726 763.429L98.9203 763.194L98.7562 762.467C95.9267 723.781 93.0816 685.087 90.2208 646.385C85.3435 580.055 80.4662 513.609 82.1076 447.092C82.858 416.307 85.3201 384.467 99.7176 357.246C98.4523 350.958 99.4402 344.426 102.508 338.793L103.329 337.762C104.314 338.911 105.251 340.106 106.33 341.138L105.861 341.607C103.983 346.772 103.396 352.318 104.149 357.761Z" fill="#406BB2"/>
<path d="M148.07 346.411C149.091 351.202 149.516 356.1 149.337 360.995H148.07C143.12 361.3 138.155 361.3 133.204 360.995H132.313C132.149 356.118 132.008 351.265 131.844 346.365L131.703 345.872L131.961 345.521C137.323 345.833 142.693 345.982 148.07 345.966V346.411Z" fill="#1D1D1B"/>
<path d="M93.2479 279.543H91.0672C88.7404 275.246 86.8021 270.75 85.2754 266.108L86.7292 265.593C85.7148 238.009 88.1171 210.407 93.8811 183.413C95.1004 177.763 96.6949 171.69 101.127 168.08C106.801 163.39 115.079 164.07 121.902 161.327C125.466 159.897 128.585 157.529 132.102 155.981C135.62 154.434 140.263 153.191 143.545 155.208L143.663 155.512C141.435 156.333 139.137 156.989 136.862 157.623C133.39 165.11 130.367 172.799 127.811 180.647C126.936 183.366 126.154 186.11 125.466 188.876C125.255 189.627 125.091 190.4 124.927 191.221C122.129 202.866 122.715 215.067 126.615 226.39C128.022 230.071 129.898 233.612 131.61 237.199C133.944 241.408 135.546 245.982 136.347 250.728C137.308 259.309 133.744 267.75 129.523 275.276C123.426 286.131 115.735 296.377 111.983 308.101C108.232 319.824 109.404 334.595 119.018 342.59V345.075L114.211 344.864V344.442H113.461C111.276 344.348 109.187 343.522 107.528 342.098L106.637 341.277C105.558 340.222 104.621 339.05 103.636 337.901C102.903 337.02 102.12 336.182 101.291 335.392C98.7583 333.047 95.5693 331.477 93.2244 328.968C92.7631 328.477 92.3399 327.952 91.9583 327.397C89.2791 322.968 88.057 317.809 88.4644 312.649C89.0357 304.236 90.2984 295.885 92.2396 287.679C92.4272 285.03 92.9196 282.31 93.2479 279.543ZM129.077 254.69C130.144 254.407 131.063 253.728 131.647 252.792C132.231 251.855 132.435 250.731 132.22 249.649C132.14 249.06 131.938 248.495 131.627 247.988C131.317 247.482 130.903 247.046 130.414 246.709C129.925 246.372 129.371 246.14 128.788 246.029C128.204 245.918 127.604 245.93 127.025 246.064C126.446 246.199 125.902 246.453 125.427 246.81C124.952 247.166 124.557 247.618 124.266 248.137C123.976 248.655 123.798 249.229 123.742 249.82C123.686 250.412 123.754 251.008 123.942 251.572C124.255 252.638 124.955 253.55 125.905 254.127C126.855 254.704 127.987 254.905 129.077 254.69Z" fill="#406BB2"/>
<path d="M136.813 462.705C125.488 450.818 119.766 434.265 118.172 417.829C116.483 400.549 119.039 380.972 121.478 363.903C125.066 363.903 127.786 363.785 131.022 364.067L130.764 367.842C125.871 394.999 126.101 422.831 131.444 449.904C132.059 454.573 133.913 458.993 136.813 462.705Z" fill="#406BB2"/>
<path d="M51.3203 878.29C50.0072 878.806 48.4596 877.165 48.0375 875.805C47.884 875.117 47.8976 874.403 48.0771 873.721C48.2566 873.04 48.5968 872.412 49.0692 871.889C50.0291 870.852 51.1543 869.98 52.399 869.31L76.6683 854.422L76.8559 854.562C81.7801 858.572 90.4326 860.354 96.0838 857.493C101.735 854.633 105.088 849.052 108.277 843.707C114.124 833.844 119.978 823.981 125.84 814.118C127.523 811.527 128.863 808.729 129.826 805.794C130.31 804.321 130.497 802.768 130.377 801.222C130.256 799.677 129.83 798.171 129.123 796.791L129.311 794.681H130.037C132.857 797.433 134.631 801.08 135.056 804.997C135.503 808.892 135.503 812.825 135.056 816.72C134.649 821.409 134.305 826.138 134.024 830.905L129.826 830.624C128.054 832.239 126.408 833.987 124.902 835.852C117.375 844.949 112.779 856.368 107.433 867.036C105.799 870.975 103.203 874.441 99.8825 877.118C94.9817 880.517 88.5333 880.306 82.5774 879.978L51.3203 878.29Z" fill="#406BB2"/>
<path d="M129.756 830.696L133.954 830.978C133.016 846.1 132.476 861.458 131.187 876.37L126.38 876.135L126.262 875.666C125.809 862.443 125.379 849.219 124.973 835.995C126.431 834.11 128.03 832.339 129.756 830.696Z" fill="#406BB2"/>
<path d="M132.381 361.042C132.381 362.027 132.381 363.035 132.381 364.02L130.951 363.856C127.715 363.575 124.995 363.856 121.407 363.692C120.493 363.692 119.555 363.692 118.5 363.504C116.644 363.487 114.797 363.267 112.989 362.848C112.897 361.92 112.897 360.985 112.989 360.058C112.965 359.628 112.965 359.198 112.989 358.768C117.987 359.361 123.034 359.416 128.043 358.932C128.043 355.72 128.184 352.672 128.418 349.554C123.447 349.343 118.382 349.366 113.341 349.39C113.099 348.107 112.989 346.803 113.013 345.497V344.513H113.763V344.935L118.57 345.146C123.002 345.333 127.41 345.451 131.842 345.521L131.584 345.873L131.725 346.365C132.076 351.312 132.217 356.236 132.381 361.042Z" fill="white"/>
<path d="M132.217 249.648C132.433 250.731 132.229 251.855 131.645 252.791C131.061 253.728 130.142 254.406 129.075 254.689C127.985 254.904 126.853 254.703 125.903 254.126C124.953 253.549 124.253 252.638 123.94 251.571C123.752 251.007 123.684 250.411 123.74 249.819C123.795 249.228 123.974 248.655 124.264 248.136C124.554 247.618 124.95 247.166 125.425 246.809C125.9 246.452 126.444 246.198 127.023 246.064C127.601 245.929 128.202 245.917 128.786 246.028C129.369 246.139 129.923 246.371 130.412 246.708C130.901 247.046 131.314 247.482 131.625 247.988C131.936 248.494 132.138 249.06 132.217 249.648Z" fill="white"/>
<path d="M129.123 796.791C129.829 798.171 130.255 799.677 130.376 801.222C130.497 802.768 130.31 804.321 129.826 805.794C128.863 808.729 127.523 811.527 125.84 814.118C119.978 823.965 114.123 833.828 108.277 843.707C105.088 849.052 101.641 854.68 96.0833 857.493C90.526 860.307 81.7797 858.572 76.8555 854.562V854.422C84.2887 843.027 84.2183 828.631 88.5798 815.829C91.1592 808.045 95.7786 801.035 98.1938 793.204C101.031 784.106 100.75 774.447 100.539 764.857L100.703 763.638C111.793 765.139 123.045 764.997 134.094 763.216C132.03 773.556 130.436 783.849 129.404 794.704L129.123 796.791Z" fill="white"/>
<path d="M128.513 349.741C128.278 352.789 128.208 355.837 128.138 359.119C123.128 359.603 118.081 359.548 113.084 358.955C113.059 359.385 113.059 359.815 113.084 360.245H112.708C109.905 359.631 107.14 358.848 104.431 357.9H104.243C103.521 352.535 104.1 347.075 105.932 341.98L106.401 341.511L107.292 342.332C108.951 343.756 111.04 344.582 113.224 344.677V345.755C113.2 347.06 113.31 348.364 113.553 349.647C118.477 349.553 123.542 349.53 128.513 349.741Z" fill="#1D1D1B"/>
<path d="M86.5426 281.442L82.4156 283.552C84.1658 291.3 84.1119 299.347 82.2579 307.071C80.404 314.795 76.7995 321.99 71.723 328.1L72.7313 334.172C66.7351 335.228 60.64 335.614 54.5586 335.321C57.4896 335.321 60.0925 332.578 61.7104 329.905C63.3241 327.234 64.6449 324.396 65.6498 321.441C68.067 314.398 68.627 306.85 67.2756 299.527C65.9243 292.204 62.7072 285.353 57.9352 279.636L57.5366 279.965C54.9807 279.73 52.4717 279.472 49.9861 279.191V278.863C49.9169 278.104 50.0821 277.341 50.4594 276.679C50.8367 276.017 51.4081 275.486 52.0965 275.158C53.5161 274.507 55.0601 274.171 56.622 274.173L68.6747 273.142C67.5063 272.414 66.5769 271.36 66.0017 270.11C65.4265 268.86 65.2308 267.468 65.4388 266.108C66.0383 263.334 67.2389 260.725 68.9561 258.464C77.0893 245.726 83.4847 231.959 87.9729 217.527H88.4653C86.7424 233.479 86.1781 249.535 86.777 265.569L85.3232 266.084C86.8499 270.726 88.7882 275.222 91.115 279.519H93.2958C92.9675 282.286 92.4751 285.006 91.9592 287.749L88.2777 287.045C87.9489 285.109 87.3655 283.225 86.5426 281.442Z" fill="#406BB2"/>
<path d="M88.2285 287.071L91.9099 287.774C89.9687 295.98 88.706 304.331 88.1347 312.744C87.7274 317.905 88.9494 323.063 91.6286 327.492L90.9017 327.937C85.2619 331.063 79.1202 333.182 72.7524 334.197L71.7441 328.125C76.8201 322.01 80.4222 314.811 82.2722 307.082C84.1222 299.354 84.1704 291.304 82.4133 283.554L86.5168 281.35C87.3416 283.171 87.9174 285.095 88.2285 287.071Z" fill="#406BB2"/>
<path d="M67.7831 302.897C68.4117 309.158 67.6921 315.482 65.6726 321.442L65.063 321.232C58.3411 317.996 51.6191 314.815 44.8971 311.689C30.4059 304.858 15.8208 298.254 1.14194 291.877C1.10081 287.303 2.02779 282.773 3.86199 278.583C5.17511 276.051 7.1917 273.706 7.37929 270.846C7.43728 270.476 7.4149 270.098 7.31374 269.738C7.21258 269.378 7.03501 269.044 6.79307 268.759H7.2386C20.9848 274.187 35.3908 277.767 50.0793 279.403C52.5648 279.685 55.0738 279.943 57.6297 280.177L58.0284 279.849C63.4538 286.418 66.844 294.428 67.7831 302.897Z" fill="white"/>
<path d="M65.0619 321.232L65.6715 321.443C64.6666 324.397 63.3458 327.235 61.7321 329.907C60.1142 332.58 57.5114 335.323 54.5803 335.323C54.1683 335.324 53.7579 335.269 53.361 335.159C51.3947 334.376 49.807 332.864 48.9292 330.938C45.7166 325.397 44.0939 319.077 44.2395 312.674L44.896 311.689C51.6336 314.815 58.3556 317.996 65.0619 321.232Z" fill="black"/>
<path d="M183.242 8.06085C172.69 -0.543931 156.956 -0.778413 144.622 5.03626C132.288 10.8509 123.049 21.7769 116.32 33.6173C109.59 45.4576 105.064 58.4 99.6007 70.8734C96.0834 78.9155 92.144 86.9575 91.2764 95.6795C90.4088 104.402 93.3868 114.132 101.101 118.868C97.909 115.205 95.982 110.611 95.6061 105.767C95.2301 100.923 96.4253 96.0865 99.0144 91.975C98.2548 101.531 100.379 111.094 105.111 119.431C107.476 123.562 110.676 127.156 114.508 129.981C118.339 132.807 122.718 134.804 127.364 135.843C122.704 132.9 118.508 129.281 114.913 125.105C118.846 128.052 123.181 130.421 127.786 132.138C130.076 132.962 132.516 133.287 134.942 133.093C137.368 132.899 139.725 132.19 141.855 131.013" stroke="#1D1D1B" stroke-linecap="round" stroke-linejoin="round"/>
<path d="M112.264 82.478C113.752 81.1305 115.161 79.6979 116.484 78.1874C119.268 75.1275 121.706 71.7701 123.753 68.1759C125.16 65.7784 126.382 63.2782 127.411 60.6965C129.756 55.046 131.046 48.9733 134.094 43.7448C137.143 38.5163 142.231 34.0146 148.351 34.0146H148.632C145.924 35.9022 143.748 38.456 142.315 41.4294C140.882 44.4028 140.239 47.6955 140.449 50.9897C141.134 47.513 142.653 44.2545 144.874 41.4938C147.096 38.7331 149.955 36.5528 153.205 35.14C154.586 42.2359 157.778 48.8548 162.469 54.3551C167.161 59.8554 173.194 64.0508 179.983 66.5346C181.466 67.0862 182.987 67.5328 184.532 67.8711" stroke="#1D1D1B" stroke-linecap="round" stroke-linejoin="round"/>
<path d="M179.725 67.2388C182.087 71.478 183.488 76.1845 183.828 81.0252C184.002 83.4373 183.676 85.8593 182.869 88.139C182.061 90.4187 180.792 92.5069 179.139 94.2723C182.565 91.8581 185.271 88.5589 186.969 84.7268C188.666 80.8947 189.291 76.6736 188.776 72.5142C191.918 70.6385 195.811 68.8566 199.094 70.5682C202.376 72.2797 203.103 76.5704 202.892 80.228C202.763 84.885 201.199 89.3886 198.413 93.1235C197.005 94.9588 195.154 96.4073 193.034 97.334C190.915 98.2606 188.594 98.635 186.29 98.4223" stroke="#1D1D1B" stroke-linecap="round" stroke-linejoin="round"/>
<path d="M117.586 79.2904C118.483 78.307 119.578 77.5256 120.8 76.9982C122.022 76.4709 123.343 76.2096 124.673 76.2318C126.004 76.2539 127.315 76.559 128.519 77.1268C129.723 77.6946 130.792 78.5121 131.655 79.5249" stroke="#1D1D1B" stroke-linecap="round" stroke-linejoin="round"/>
<path d="M150.414 78.4459C151.363 76.9886 152.635 75.7695 154.132 74.8831C155.628 73.9967 157.309 73.4669 159.043 73.3346C160.774 73.2262 162.509 73.4926 164.127 74.1158C165.746 74.7389 167.211 75.7041 168.423 76.9454L170.767 75.6792" stroke="#1D1D1B" stroke-linecap="round" stroke-linejoin="round"/>
<path d="M157.59 76.522C157.469 77.6187 157.614 78.7285 158.012 79.7575" stroke="#1D1D1B" stroke-linecap="round" stroke-linejoin="round"/>
<path d="M126.451 78.9385C126.191 79.9115 126.266 80.9434 126.662 81.8693" stroke="#1D1D1B" stroke-linecap="round" stroke-linejoin="round"/>
<path d="M115.92 68.3883C118.456 67.5689 121.175 67.4956 123.752 68.1773C125.318 68.5702 126.803 69.2369 128.137 70.1468" stroke="#1D1D1B" stroke-width="0.5" stroke-linecap="round" stroke-linejoin="round"/>
<path d="M146.451 68.2454C149.238 66.3568 152.378 65.0526 155.683 64.4118C158.988 63.7711 162.389 63.807 165.679 64.5174" stroke="#1D1D1B" stroke-width="0.5" stroke-linecap="round" stroke-linejoin="round"/>
<path d="M134.564 95.4448C133.646 96.3596 132.899 97.4317 132.36 98.6101C132.097 99.2008 131.989 99.8491 132.046 100.493C132.104 101.137 132.325 101.756 132.688 102.291C133.368 102.895 134.183 103.327 135.064 103.551C135.945 103.775 136.867 103.785 137.753 103.581" stroke="#1D1D1B" stroke-width="0.5" stroke-linecap="round" stroke-linejoin="round"/>
<path d="M140.191 101.07C140.613 101.036 141.035 101.138 141.393 101.362C141.752 101.586 142.03 101.919 142.184 102.313" stroke="#1D1D1B" stroke-width="0.5" stroke-linecap="round" stroke-linejoin="round"/>
<path d="M133.227 112.396C135.058 113.275 137.084 113.671 139.112 113.544L150.297 113.732C151.006 113.787 151.719 113.724 152.408 113.544C152.748 113.447 153.062 113.275 153.326 113.039C153.589 112.804 153.797 112.512 153.932 112.185" stroke="#1D1D1B" stroke-width="0.5" stroke-linecap="round" stroke-linejoin="round"/>
<path d="M141.434 119.71L145.748 119.921" stroke="#1D1D1B" stroke-width="0.5" stroke-linecap="round" stroke-linejoin="round"/>
<path d="M148.75 29.7937C150.895 27.2728 153.577 25.265 156.6 23.9178C159.624 22.5707 162.911 21.9186 166.219 22.0096C169.15 18.0735 173.156 15.0689 177.756 13.3579" stroke="#1D1D1B" stroke-linecap="round" stroke-linejoin="round"/>
<path d="M178.391 113.731C181.556 108.057 184.3 102.172 185.894 98.5381" stroke="#1D1D1B" stroke-linecap="round" stroke-linejoin="round"/>
<path d="M181.014 11.0142C181.809 10.1295 182.707 9.34247 183.687 8.66962C198.953 -2.25634 217.5 34.9528 221.674 44.3079C229.694 62.2443 241.465 87.4959 225.52 104.377C227.225 100.705 228.098 96.7023 228.076 92.6541C221.229 106.722 212.131 122.736 195.576 126.604C198.133 124.558 200.093 121.861 201.25 118.797C197.901 122.242 193.921 125.012 189.526 126.956C186.121 128.46 182.508 129.44 178.81 129.863C182.631 127.433 185.605 123.878 187.322 119.688C180.988 123.409 174.275 126.443 167.297 128.738C170.838 126.159 174.824 120.133 178.318 113.873" stroke="#1D1D1B" stroke-linecap="round" stroke-linejoin="round"/>
<path d="M118.571 79.5708C118.184 88.5988 119.835 97.5979 123.401 105.901C127.014 112.962 131.514 119.533 136.79 125.455C138.294 127.431 140.145 129.115 142.254 130.426C142.615 130.633 142.991 130.814 143.379 130.965C147.08 132.107 151.069 131.874 154.611 130.309C163.924 127.198 172.162 121.507 178.365 113.896" stroke="#1D1D1B" stroke-linecap="round" stroke-linejoin="round"/>
<path d="M136.863 157.576C139.208 156.943 141.436 156.287 143.663 155.466C145.279 154.894 146.847 154.196 148.353 153.379C152.012 151.5 154.905 148.409 156.537 144.634C158.248 140.109 157.334 135.068 156.419 130.332" stroke="#1D1D1B" stroke-linecap="round" stroke-linejoin="round"/>
<path d="M192.856 127.003C192.348 132.571 193.754 138.145 196.842 142.806C199.469 146.736 203.185 149.815 207.534 151.668C208.297 152.014 209.08 152.311 209.879 152.559" stroke="#1D1D1B" stroke-linecap="round" stroke-linejoin="round"/>
<path d="M143.544 155.162C140.261 153.145 135.642 154.388 132.101 155.935C128.56 157.483 125.465 159.851 121.901 161.281C115.077 164.024 106.8 163.368 101.126 168.034C96.6937 171.715 95.0992 177.717 93.8799 183.368C88.1159 210.361 85.7136 237.964 86.728 265.547" stroke="#1D1D1B" stroke-linecap="round" stroke-linejoin="round"/>
<path d="M81.6387 249.792C82.8786 260.193 86.0601 270.27 91.0181 279.498" stroke="#1D1D1B" stroke-linecap="round" stroke-linejoin="round"/>
<path d="M87.924 217.459C83.4359 231.89 77.0403 245.658 68.9071 258.396C67.19 260.656 65.9894 263.265 65.3898 266.04C65.1819 267.4 65.3777 268.792 65.9529 270.042C66.5281 271.292 67.4574 272.346 68.6258 273.074L56.6201 274.176C55.0977 274.19 53.5954 274.525 52.2117 275.16C51.5233 275.488 50.952 276.019 50.5746 276.681C50.1973 277.344 50.0321 278.106 50.1013 278.865" stroke="#1D1D1B" stroke-linecap="round" stroke-linejoin="round"/>
<path d="M56.292 277.74C56.8783 278.349 57.4411 278.982 57.9569 279.639C63.7293 286.588 67.1944 295.162 67.8709 304.171C68.5474 313.179 66.4019 322.174 61.7321 329.908C60.1142 332.581 57.5114 335.324 54.5803 335.324C54.1683 335.325 53.7579 335.27 53.361 335.16C51.3947 334.377 49.807 332.865 48.9292 330.939C45.7166 325.398 44.0939 319.078 44.2395 312.675" stroke="#1D1D1B" stroke-linecap="round" stroke-linejoin="round"/>
<path d="M54.2734 335.321H54.6486C60.7301 335.613 66.8251 335.228 72.8213 334.172C79.1891 333.157 85.3308 331.038 90.9706 327.912" stroke="#1D1D1B" stroke-linecap="round" stroke-linejoin="round"/>
<path d="M99.2734 183.578C92.8646 202.828 90.3225 223.154 91.7933 243.39C92.5671 253.847 94.4195 264.304 93.763 274.784C93.763 276.378 93.5051 277.973 93.294 279.473C92.9658 282.24 92.4733 284.96 91.9575 287.703C90.0162 295.909 88.7535 304.26 88.1822 312.673C87.7748 317.834 88.9969 322.992 91.6761 327.421C92.0577 327.976 92.4809 328.501 92.9423 328.992C95.2871 331.501 98.4761 333.072 101.009 335.416C101.838 336.206 102.621 337.044 103.353 337.925C104.338 339.074 105.276 340.27 106.355 341.301L107.246 342.122C108.905 343.546 110.994 344.372 113.178 344.466H113.929C114.548 344.399 115.151 344.225 115.711 343.951" stroke="#1D1D1B" stroke-linecap="round" stroke-linejoin="round"/>
<path d="M74.2305 269.485C79.7105 271.789 84.1107 276.088 86.541 281.513C87.3498 283.306 87.9175 285.198 88.2293 287.14" stroke="#1D1D1B" stroke-linecap="round" stroke-linejoin="round"/>
<path d="M82.4152 283.553C84.1655 291.301 84.1116 299.348 82.2576 307.072C80.4036 314.796 76.7992 321.991 71.7227 328.101" stroke="#1D1D1B" stroke-linecap="round" stroke-linejoin="round"/>
<path d="M126.755 246.251C125.736 246.667 124.896 247.428 124.382 248.401C123.867 249.374 123.711 250.497 123.942 251.573C124.254 252.64 124.954 253.551 125.904 254.128C126.855 254.705 127.986 254.906 129.077 254.691C130.144 254.408 131.063 253.73 131.646 252.793C132.23 251.856 132.435 250.733 132.219 249.65C131.914 248.494 131.178 247.498 130.162 246.866C129.147 246.234 127.928 246.014 126.755 246.251Z" stroke="#1D1D1B" stroke-linecap="round" stroke-linejoin="round"/>
<path d="M136.862 157.577C133.389 165.065 130.367 172.753 127.811 180.601C126.935 183.321 126.154 186.064 125.466 188.831C125.255 189.581 125.091 190.355 124.927 191.176C122.128 202.82 122.714 215.022 126.615 226.345C128.022 230.026 129.898 233.567 131.609 237.154C133.949 241.377 135.55 245.968 136.346 250.729C137.307 259.311 133.743 267.751 129.522 275.277C123.426 286.133 115.735 296.379 111.983 308.102C108.231 319.825 109.403 334.596 119.017 342.592" stroke="#1D1D1B" stroke-linecap="round" stroke-linejoin="round"/>
<path d="M131.914 237.035C142.528 224.702 153.409 212.589 164.555 200.693C167.556 197.458 170.604 194.238 173.7 191.034C185.846 178.326 198.289 165.899 211.03 153.754C211.171 153.613 211.288 153.473 211.428 153.355" stroke="#1D1D1B" stroke-linecap="round" stroke-linejoin="round"/>
<path d="M207.863 150.963C208.853 150.438 209.956 150.163 211.076 150.163C212.196 150.163 213.299 150.438 214.288 150.963C216.27 152.028 218.107 153.344 219.752 154.879C223.568 158.053 227.738 160.775 232.18 162.991C236.987 165.336 242.122 167.212 246.976 169.556C251.943 171.728 256.34 175.018 259.826 179.169C263.215 183.83 265.237 189.343 265.664 195.089C266.016 200.828 266.016 206.583 265.664 212.322C265.195 228.969 268.736 245.499 273.168 261.559C277.6 277.62 282.922 293.446 286.205 309.788C287.233 313.909 287.566 318.172 287.19 322.402C286.627 326.599 285.807 330.187 282.242 332.508" stroke="#1D1D1B" stroke-linecap="round" stroke-linejoin="round"/>
<path d="M255.323 182.547C241.864 188.948 233.446 203.133 230.256 217.716C227.067 232.3 228.381 247.399 229.694 262.264" stroke="#1D1D1B" stroke-linecap="round" stroke-linejoin="round"/>
<path d="M230.14 271.385C227.663 285.393 223.734 299.105 218.416 312.299C216.938 316.003 215.32 319.965 216.188 323.858C217.314 328.922 222.449 332.767 222.285 337.925C222.273 338.35 222.226 338.774 222.144 339.191C221.763 340.634 221.076 341.977 220.129 343.13C219.182 344.284 217.998 345.219 216.657 345.874C213.556 347.292 210.231 348.157 206.832 348.429" stroke="#1D1D1B" stroke-linecap="round" stroke-linejoin="round"/>
<path d="M209.553 204.211C210.521 221.596 214.487 238.682 221.277 254.715" stroke="#1D1D1B" stroke-linecap="round" stroke-linejoin="round"/>
<path d="M164.107 243.929C173.912 272.882 189.161 299.693 209.035 322.92" stroke="#1D1D1B" stroke-linecap="round" stroke-linejoin="round"/>
<path d="M145.209 298.042C160.189 313.283 178.721 324.562 199.141 330.867" stroke="#1D1D1B" stroke-linecap="round" stroke-linejoin="round"/>
<path d="M247.891 213.706C251.947 241.283 250.004 269.41 242.193 296.167" stroke="#1D1D1B" stroke-linecap="round" stroke-linejoin="round"/>
<path d="M263.649 267.14C260.997 280.113 255.118 292.209 246.555 302.31" stroke="#1D1D1B" stroke-linecap="round" stroke-linejoin="round"/>
<path d="M239.049 312.367C240.456 311.64 241.886 310.937 243.317 310.257C251.704 306.185 260.316 302.592 269.11 299.495" stroke="#1D1D1B" stroke-linecap="round" stroke-linejoin="round"/>
<path d="M230.14 270.586C230.14 270.844 230.14 271.126 230.14 271.384C229.296 284.537 236.94 297.878 233.165 310.539C233.001 311.078 232.813 311.641 232.626 312.204C231.874 313.984 231.491 315.898 231.5 317.831C231.688 320.316 233.845 322.919 236.354 322.286C232.211 327.163 228.936 332.714 226.67 338.698C226.67 339.003 226.435 339.307 226.342 339.612C225.966 340.608 225.783 341.666 225.802 342.731C225.802 344.114 228.757 346.248 230.046 346.787" stroke="#1D1D1B" stroke-linecap="round" stroke-linejoin="round"/>
<path d="M255.067 383.599C254.829 383.739 254.578 383.857 254.317 383.95C251.351 384.763 248.206 384.64 245.313 383.599C244.007 382.977 242.887 382.025 242.065 380.836C241.242 379.647 240.745 378.263 240.623 376.823" stroke="#1D1D1B" stroke-linecap="round" stroke-linejoin="round"/>
<path d="M195.133 383.293C202.31 379.1 208.888 373.958 214.689 368.006C220.829 361.687 226.119 354.593 230.423 346.905C231.595 344.771 232.768 342.567 233.753 340.363C236.727 338.308 240.256 337.208 243.871 337.208C247.486 337.208 251.015 338.308 253.989 340.363C258.966 343.959 262.334 349.364 263.368 355.416C263.597 356.537 263.746 357.673 263.814 358.815C264.047 366.069 262.218 373.24 258.538 379.495C257.847 380.918 256.864 382.181 255.654 383.199" stroke="#1D1D1B" stroke-linecap="round" stroke-linejoin="round"/>
<path d="M263.46 355.394C255.302 361.875 247.702 369.027 240.738 376.777C229.61 389.164 220.194 402.988 212.74 417.878" stroke="#1D1D1B" stroke-linecap="round" stroke-linejoin="round"/>
<path d="M255.066 383.598C255.278 383.487 255.482 383.362 255.676 383.223C266.58 376.963 272.7 366.013 278.21 354.642C279.71 351.906 280.695 348.918 281.118 345.826C281.299 344.275 281.067 342.703 280.445 341.27C279.823 339.837 278.834 338.594 277.577 337.667C279.101 338.605 281.165 337.175 281.54 335.322C281.7 334.398 281.635 333.45 281.352 332.556C281.099 331.755 280.794 330.972 280.438 330.211L275.209 318.722L275.021 318.324" stroke="#1D1D1B" stroke-linecap="round" stroke-linejoin="round"/>
<path d="M271.669 320.364C271.749 320.967 271.652 321.581 271.39 322.13C271.128 322.68 270.711 323.141 270.192 323.459C268.55 324.303 266.651 323.13 265.08 322.169C261.442 319.999 257.385 318.626 253.177 318.141C248.969 317.656 244.706 318.07 240.67 319.356C242.027 317.642 243.739 316.243 245.688 315.252C249.042 313.643 252.707 312.787 256.427 312.744C261.352 312.58 266.745 313.494 270.051 317.152C270.901 318.035 271.465 319.155 271.669 320.364Z" stroke="#1D1D1B" stroke-linecap="round" stroke-linejoin="round"/>
<path d="M128.771 180.905C142.829 187.078 157.973 190.393 173.324 190.658" stroke="#1D1D1B" stroke-linecap="round" stroke-linejoin="round"/>
<path d="M125.443 188.761C137.483 195.321 150.753 199.313 164.415 200.484" stroke="#1D1D1B" stroke-linecap="round" stroke-linejoin="round"/>
<path d="M1 291.758C15.6789 298.167 30.2639 304.771 44.7552 311.57C51.5241 314.697 58.2695 317.909 64.9914 321.207" stroke="#1D1D1B" stroke-linecap="round" stroke-linejoin="round"/>
<path d="M7.16602 268.549C20.9122 273.977 35.3183 277.557 50.0067 279.194C52.4922 279.475 55.0013 279.733 57.5572 279.967" stroke="#1D1D1B" stroke-linecap="round" stroke-linejoin="round"/>
<path d="M102.485 339.027C99.4167 344.659 98.4289 351.192 99.6941 357.479C85.2966 384.7 82.8345 416.54 82.0842 447.325C80.4428 513.819 85.3201 580.265 90.1974 646.618C93.0582 685.305 95.9033 723.999 98.7327 762.701" stroke="#1D1D1B" stroke-linecap="round" stroke-linejoin="round"/>
<path d="M159.512 526.339C181.274 605.832 196.025 687.079 203.595 769.148" stroke="#1D1D1B" stroke-linecap="round" stroke-linejoin="round"/>
<path d="M138.973 458.531C139.7 460.712 140.427 462.892 141.13 465.096C147.742 485.416 153.87 505.822 159.514 526.314" stroke="#1D1D1B" stroke-linecap="round" stroke-linejoin="round"/>
<path d="M204.887 342.661C206.379 346.402 207.25 350.362 207.466 354.384C207.478 354.477 207.478 354.572 207.466 354.665" stroke="#1D1D1B" stroke-linecap="round" stroke-linejoin="round"/>
<path d="M123.426 323.554C130.109 330.072 139.512 332.932 148.727 334.48C157.942 336.027 167.345 336.262 176.396 338.536C181.591 340.185 186.866 341.57 192.201 342.686H193.35C197.101 343.213 200.924 342.819 204.488 341.537C205.732 341.087 206.914 340.48 208.005 339.732H207.864" stroke="#1D1D1B" stroke-linecap="round" stroke-linejoin="round"/>
<path d="M207.676 354.899C209.716 359.283 211.99 363.597 214.452 367.771" stroke="#1D1D1B" stroke-linecap="round" stroke-linejoin="round"/>
<path d="M210.654 574.966C217.01 595.439 224.887 615.409 234.22 634.707" stroke="#1D1D1B" stroke-linecap="round" stroke-linejoin="round"/>
<path d="M207.582 604.11C213.858 623.355 223.253 641.438 235.392 657.638" stroke="#1D1D1B" stroke-linecap="round" stroke-linejoin="round"/>
<path d="M145.302 623.993L125.559 663.382" stroke="#1D1D1B" stroke-linecap="round" stroke-linejoin="round"/>
<path d="M143.214 649.55C132.001 682.256 118.878 714.276 103.914 745.446" stroke="#1D1D1B" stroke-linecap="round" stroke-linejoin="round"/>
<path d="M192.857 378.604C193.342 380.246 193.858 381.887 194.405 383.528C198.594 395.922 204.711 407.577 212.531 418.065C213.117 418.838 213.703 419.635 214.313 420.409" stroke="#1D1D1B" stroke-linecap="round" stroke-linejoin="round"/>
<path d="M163.991 366.81C160.521 377.407 157.035 387.997 153.533 398.579" stroke="#1D1D1B" stroke-linecap="round" stroke-linejoin="round"/>
<path d="M169.783 365.333C166.36 383.773 163.941 402.386 162.537 421.088" stroke="#1D1D1B" stroke-linecap="round" stroke-linejoin="round"/>
<path d="M121.455 363.81C119.11 380.996 116.461 400.574 118.149 417.736C119.744 434.149 125.465 450.725 136.791 462.613C137.4 463.246 138.01 463.855 138.643 464.465" stroke="#1D1D1B" stroke-linecap="round" stroke-linejoin="round"/>
<path d="M130.742 367.75C125.849 394.907 126.08 422.739 131.422 449.811C132.02 454.533 133.884 459.005 136.815 462.754C137.853 463.863 139.105 464.748 140.497 465.356" stroke="#1D1D1B" stroke-linecap="round" stroke-linejoin="round"/>
<path d="M92.6367 417.432C103.5 434.723 116.188 450.798 130.483 465.38" stroke="#1D1D1B" stroke-linecap="round" stroke-linejoin="round"/>
<path d="M99.7168 487.137L133.741 475.016" stroke="#1D1D1B" stroke-linecap="round" stroke-linejoin="round"/>
<path d="M143.733 483.598L126.826 496.188" stroke="#1D1D1B" stroke-linecap="round" stroke-linejoin="round"/>
<path d="M227.375 396.095C235.605 432.46 234.597 470.185 233.565 507.442C232.651 539.938 231.736 572.458 231.924 605.048C233.498 607.036 234.454 609.441 234.675 611.966C234.896 614.492 234.371 617.026 233.167 619.257" stroke="#1D1D1B" stroke-linecap="round" stroke-linejoin="round"/>
<path d="M229.016 611.942C230.605 614.241 231.994 616.673 233.166 619.21C238.512 630.746 239.661 644.204 240.599 657.076C243.319 693.84 246.032 730.572 248.736 767.273" stroke="#1D1D1B" stroke-linecap="round" stroke-linejoin="round"/>
<path d="M203.598 769.406C205.394 771.559 207.879 773.025 210.632 773.556C217.217 775.359 224.019 776.242 230.845 776.182C233.414 776.055 235.953 775.581 238.395 774.776C242.474 773.488 246.09 771.045 248.807 767.742" stroke="#1D1D1B" stroke-linecap="round" stroke-linejoin="round"/>
<path d="M98.8281 763.404L100.634 763.638C111.724 765.14 122.976 764.997 134.025 763.216C137.977 762.603 141.892 761.765 145.749 760.708" stroke="#1D1D1B" stroke-linecap="round" stroke-linejoin="round"/>
<path d="M159.514 526.315C153.784 564.515 151.523 603.156 152.761 641.764C152.949 647.814 152.925 654.636 151.307 657.333C152.028 691.802 150.273 726.278 146.055 760.496" stroke="#1D1D1B" stroke-linecap="round" stroke-linejoin="round"/>
<path d="M100.539 764.858C100.82 774.378 101.101 784.108 98.1938 793.205C95.8489 801.036 91.1592 808.046 88.5798 815.831C84.2418 828.726 84.3121 843.028 76.8555 854.423" stroke="#1D1D1B" stroke-linecap="round" stroke-linejoin="round"/>
<path d="M134.002 763.216C131.938 773.556 130.344 783.849 129.312 794.704L129.101 796.791C129.808 798.171 130.234 799.677 130.355 801.222C130.475 802.768 130.288 804.321 129.805 805.794C128.841 808.729 127.502 811.527 125.818 814.118C119.956 823.965 114.102 833.828 108.255 843.707C105.066 849.052 101.619 854.68 96.062 857.493C90.5046 860.307 81.7583 858.572 76.834 854.562L76.6465 854.422" stroke="#1D1D1B" stroke-linecap="round" stroke-linejoin="round"/>
<path d="M124.152 787.79C125.343 791.451 125.75 795.323 125.346 799.153C124.942 802.982 123.736 806.684 121.807 810.017" stroke="#1D1D1B" stroke-linecap="round" stroke-linejoin="round"/>
<path d="M131.188 876.369L126.381 876.135H126.334" stroke="#1D1D1B" stroke-linecap="round" stroke-linejoin="round"/>
<path d="M130.062 794.681C132.882 797.433 134.656 801.08 135.08 804.997C135.528 808.892 135.528 812.825 135.08 816.72C134.674 821.409 134.33 826.138 134.049 830.905C133.111 846.028 132.571 861.385 131.282 876.297" stroke="#1D1D1B" stroke-linecap="round" stroke-linejoin="round"/>
<path d="M124.926 835.994C125.348 849.218 125.778 862.441 126.215 875.665" stroke="#1D1D1B" stroke-linecap="round" stroke-linejoin="round"/>
<path d="M129.756 830.696C127.984 832.311 126.338 834.059 124.832 835.925C117.305 845.022 112.709 856.44 107.363 867.108C105.729 871.047 103.133 874.514 99.8125 877.19C94.9118 880.59 88.4634 880.379 82.5074 880.051L51.3206 878.292H50.5" stroke="#1D1D1B" stroke-linecap="round" stroke-linejoin="round"/>
<path d="M76.6683 854.424L52.399 869.313C51.1543 869.983 50.0291 870.854 49.0692 871.892C48.5968 872.415 48.2566 873.043 48.0771 873.724C47.8976 874.405 47.884 875.12 48.0375 875.807C48.4596 877.167 50.0072 878.808 51.3203 878.293" stroke="#1D1D1B" stroke-linecap="round" stroke-linejoin="round"/>
<path d="M210.512 774.309C211.427 787.79 208.331 801.201 205.26 814.355C202.915 823.921 200.781 833.487 197.78 842.819C196.337 848.262 193.782 853.347 190.276 857.754C190.053 858.044 189.81 858.318 189.549 858.574C186.946 861.271 183.663 863.264 181.248 866.124C179.579 868.106 178.392 870.448 177.781 872.967C177.171 875.485 177.154 878.111 177.731 880.637C179.466 883.287 183.195 883.404 186.337 883.217C199.093 882.537 211.849 881.833 224.839 880.872C228.755 876.909 230.115 871.142 231.639 865.772C233.622 858.908 236.187 852.224 239.307 845.796C241.604 840.925 244.245 836.224 247.209 831.728C247.209 831.541 247.444 831.353 247.561 831.166C248.522 818.682 245.359 806.228 238.557 795.715" stroke="#1D1D1B" stroke-linecap="round" stroke-linejoin="round"/>
<path d="M239.66 775.104C238.655 781.98 238.294 788.935 238.582 795.878C238.752 800.038 239.144 804.186 239.754 808.304C237.128 825.35 234.29 843.028 224.559 857.26C222.496 860.308 219.729 863.38 216.047 863.731C213.369 863.69 210.739 863.006 208.38 861.738C202.657 859.374 196.559 858.048 190.371 857.823" stroke="#1D1D1B" stroke-linecap="round" stroke-linejoin="round"/>
<path d="M235.533 802.63C236.002 805.089 235.98 807.616 235.469 810.067C234.958 812.517 233.968 814.843 232.555 816.909V816.628" stroke="#1D1D1B" stroke-linecap="round" stroke-linejoin="round"/>
<path d="M247.586 832.195C245.938 847.946 245.718 863.813 246.929 879.604" stroke="#1D1D1B" stroke-linecap="round" stroke-linejoin="round"/>
<path d="M239.381 845.864C240.014 857.283 240.624 868.724 241.397 880.518C243.039 880.518 244.657 880.658 246.275 880.518C246.499 880.539 246.722 880.481 246.908 880.354C246.948 880.318 246.98 880.275 247.002 880.227C247.024 880.178 247.035 880.125 247.035 880.072C247.035 880.019 247.024 879.967 247.002 879.918C246.98 879.869 246.948 879.826 246.908 879.791" stroke="#1D1D1B" stroke-linecap="round" stroke-linejoin="round"/>
<path d="M105.861 341.84C104.029 346.935 103.45 352.395 104.173 357.76C104.173 357.878 104.173 357.995 104.173 358.112" stroke="#1D1D1B" stroke-linecap="round" stroke-linejoin="round"/>
<path d="M148.068 346.414C149.089 351.204 149.514 356.102 149.335 360.997C149.335 361.654 149.335 362.357 149.335 363.084" stroke="#1D1D1B" stroke-linecap="round" stroke-linejoin="round"/>
<path d="M153.533 346.414C154.589 350.881 155.016 355.474 154.799 360.059C154.799 361.068 154.799 362.123 154.612 363.271" stroke="#1D1D1B" stroke-linecap="round" stroke-linejoin="round"/>
<path d="M181.039 344.63C182.857 348.699 183.662 353.148 183.384 357.596C183.384 358.206 183.384 358.815 183.384 359.448" stroke="#1D1D1B" stroke-linecap="round" stroke-linejoin="round"/>
<path d="M187.745 354.595C187.018 350.07 186.127 344.584 186.127 344.584C186.925 347.874 187.466 351.221 187.745 354.595Z" stroke="#1D1D1B" stroke-linecap="round" stroke-linejoin="round"/>
<path d="M188.661 360.387C188.649 360.325 188.649 360.261 188.661 360.199C188.661 360.199 188.661 360.059 188.661 359.965C188.661 359.426 188.426 358.417 188.215 357.151C188.215 356.448 187.981 355.674 187.863 354.807" stroke="#1D1D1B" stroke-linecap="round" stroke-linejoin="round"/>
<path d="M187.793 354.853C187.981 356.471 188.215 358.136 188.59 359.941" stroke="#1D1D1B" stroke-linecap="round" stroke-linejoin="round"/>
<path d="M187.793 354.849C187.793 354.849 187.793 354.687 187.793 354.594" stroke="#1D1D1B" stroke-linecap="round" stroke-linejoin="round"/>
<path d="M188.729 357.032L206.479 354.406" stroke="#1D1D1B" stroke-linecap="round" stroke-linejoin="round"/>
<path d="M187.184 343.622C187.699 343.481 188.215 343.387 188.731 343.294C190.255 343.036 191.733 342.965 193.421 342.848" stroke="#1D1D1B" stroke-linecap="round" stroke-linejoin="round"/>
<path d="M155.27 360.082C164.604 360.312 173.934 359.479 183.08 357.597" stroke="#1D1D1B" stroke-linecap="round" stroke-linejoin="round"/>
<path d="M133.275 360.925C138.226 361.23 143.191 361.23 148.142 360.925" stroke="#1D1D1B" stroke-linecap="round" stroke-linejoin="round"/>
<path d="M113.106 345.686C113.083 346.991 113.193 348.295 113.435 349.578C118.476 349.578 123.541 349.578 128.512 349.742C128.278 352.79 128.207 355.838 128.137 359.12C123.128 359.604 118.081 359.549 113.083 358.956C113.059 359.386 113.059 359.816 113.083 360.246C112.991 361.173 112.991 362.108 113.083 363.036C114.89 363.455 116.738 363.675 118.593 363.692C119.649 363.692 120.587 363.856 121.501 363.88C125.089 363.88 127.809 363.763 131.045 364.044L132.475 364.208" stroke="#1D1D1B" stroke-linecap="round" stroke-linejoin="round"/>
<path d="M131.914 346.414C132.078 351.314 132.219 356.167 132.383 361.044C132.383 362.029 132.383 363.037 132.383 364.022" stroke="#1D1D1B" stroke-linecap="round" stroke-linejoin="round"/>
<path d="M113.953 344.983L118.76 345.194C123.192 345.381 127.6 345.499 132.032 345.569L131.774 345.921" stroke="#1D1D1B" stroke-linecap="round" stroke-linejoin="round"/>
<path d="M104.34 357.738C107.049 358.686 109.813 359.469 112.617 360.083" stroke="#1D1D1B" stroke-linecap="round" stroke-linejoin="round"/>
<path d="M112.193 353.891L122.886 354.079" stroke="white" stroke-linecap="round" stroke-linejoin="round"/>
<path d="M131.865 345.522H132.029C137.391 345.835 142.761 345.983 148.139 345.968C149.944 345.968 151.75 345.968 153.532 345.968C162.708 345.796 171.861 345.218 180.99 344.233C182.655 344.069 184.343 343.858 186.008 343.647L188.728 343.295H189.08" stroke="#1D1D1B" stroke-linecap="round" stroke-linejoin="round"/>
</svg>
