<svg width="430" height="456" viewBox="0 0 430 456" fill="none" xmlns="http://www.w3.org/2000/svg">
<path d="M389.523 64.5366H86.8926V454.673H389.523V64.5366Z" fill="#EDEDED" stroke="#1D1D1B" stroke-miterlimit="10"/>
<path d="M252.855 27.7915C257.598 34.4979 262.326 41.2043 267.04 47.9809C255.942 40.1942 253.599 35.3818 252.855 27.7915Z" fill="white"/>
<path d="M220.584 19.9907V19.2892C224.009 12.2567 229.815 6.66474 236.971 3.5053C243.795 0.272072 251.571 -0.33719 258.816 1.79362V2.08825C266.786 1.51136 274.734 3.47618 281.517 7.70031V7.77046H281.152H280.885C276.515 7.50935 272.201 8.86241 268.763 11.5726V12.0076C265.945 12.1647 263.164 12.7173 260.5 13.6491C256.144 15.0989 252.509 18.1613 250.342 22.2075L249.051 23.6105C245.417 24.958 241.492 25.321 237.672 24.6628V24.8311C236.556 26.2091 235.026 27.1926 233.309 27.6371C231.741 28.0952 230.127 28.3822 228.497 28.493C225.116 28.8016 221.412 29.0963 218.942 31.4393C217.904 32.5499 217.151 33.8969 216.75 35.3637C216.349 36.8305 216.312 38.3729 216.641 39.8574C217.353 42.8246 218.735 45.5891 220.682 47.9388L221.594 48.0229C221.482 48.9822 221.425 49.9473 221.426 50.9132C221.425 53.0219 221.679 55.123 222.183 57.1706H219.181C218.563 56.1745 217.96 55.1783 217.385 54.1541C215.333 50.5617 213.579 46.8079 212.138 42.93C211.68 46.457 212.194 50.0421 213.625 53.2983C210.192 48.7803 208.37 43.2439 208.448 37.5705C208.446 34.7411 209.084 31.9478 210.313 29.3994C211.543 26.8509 213.332 24.6131 215.547 22.8529C217.146 21.7653 218.831 20.8081 220.584 19.9907Z" fill="#1D1D1B"/>
<path d="M245.097 57.507C244.606 58.7269 244.606 60.0893 245.097 61.3092C245.097 61.4495 245.237 61.5898 245.378 61.6178C245.518 61.6459 245.728 61.2811 245.7 61.0145C245.843 60.4196 245.863 59.8017 245.76 59.1986C245.656 58.5956 245.43 58.02 245.097 57.507ZM223.953 85.1885C223.794 85.4154 223.696 85.6795 223.669 85.9552C223.642 86.231 223.686 86.5092 223.797 86.7629C223.909 87.0167 224.084 87.2375 224.305 87.4041C224.527 87.5706 224.787 87.6773 225.062 87.7139C225.455 87.7139 225.862 87.7139 226.254 87.8402V88.1909C226.065 89.1639 226.065 90.1642 226.254 91.1372V91.3196L240.481 92.1053V91.937C237.25 88.9018 233.556 86.4011 229.537 84.529C228.61 84.0934 227.601 83.8591 226.577 83.8416C226.063 83.8343 225.555 83.9533 225.098 84.1881C224.64 84.423 224.247 84.7665 223.953 85.1885ZM221.596 48.1348C221.997 44.1169 223.256 40.2317 225.286 36.7416C227.317 33.2514 230.073 30.2375 233.368 27.9034V27.721C235.085 27.2764 236.614 26.2929 237.731 24.915V24.7466C241.55 25.4049 245.476 25.0419 249.11 23.6943C249.927 29.2509 252.072 34.5286 255.362 39.0809C258.651 43.6331 262.989 47.3258 268.008 49.8465L267.924 50.0149C269.136 52.9047 270.076 55.9015 270.73 58.9661C271.398 62.0373 272.609 64.9643 274.308 67.6087C275.175 68.9187 276.325 70.0182 277.672 70.8266C279.019 71.635 280.53 72.1318 282.094 72.2807C283.753 72.2921 285.371 71.7649 286.704 70.7781C288.037 69.7914 289.014 68.3986 289.488 66.809C291.483 65.1836 294.042 64.4165 296.602 64.6764C297.863 64.818 299.067 65.2787 300.101 66.0152C301.134 66.7517 301.963 67.7396 302.508 68.8854C303.275 71.0367 303.3 73.3828 302.578 75.5497C301.633 79.158 299.739 82.4474 297.093 85.0762C294.405 87.7121 290.98 89.4688 287.272 90.113C286.347 90.3143 285.39 90.3143 284.466 90.113C283.338 89.7717 282.353 89.0723 281.659 88.1208C280.913 87.137 280.378 86.0098 280.088 84.8096C280.157 87.0369 279.466 89.2212 278.129 91.0039C276.792 92.7866 274.889 94.0616 272.731 94.6197C270.574 95.1778 268.291 94.9857 266.258 94.075C264.224 93.1642 262.56 91.589 261.54 89.6079C262.024 92.758 263.498 95.6721 265.749 97.9278C268.164 100.162 271.036 101.843 274.167 102.852C271.433 104.103 269.065 106.035 267.293 108.464C260.712 109.208 253.164 111.537 246.626 112.674C240.088 113.81 232.947 114.301 226.984 111.341C225.892 110.667 224.954 109.772 224.229 108.714C223.504 107.655 223.009 106.457 222.775 105.195C222.354 102.789 222.101 100.356 222.017 97.9138C221.498 91.7967 219.66 85.8759 218.931 79.7868C218.666 77.4579 218.619 75.1094 218.79 72.7718L222.073 72.9963C222.072 72.7958 222.12 72.5981 222.214 72.421C222.906 71.3154 223.778 70.3336 224.795 69.5168C227.601 67.0054 230.407 64.2695 231.502 60.7059L230.323 60.3691C229.495 59.0039 228.557 57.7088 227.517 56.4968C227.119 55.9416 226.561 55.5208 225.918 55.2902C225.576 55.2189 225.222 55.2273 224.884 55.3149C224.545 55.4025 224.232 55.5669 223.968 55.7953C223.444 56.2761 223.024 56.8585 222.733 57.507H222.298V57.2544C221.794 55.2068 221.54 53.1057 221.54 50.997C221.504 50.0427 221.523 49.087 221.596 48.1348Z" fill="white"/>
<path d="M222.187 57.2823V57.5349L222.622 60.6917C220.227 64.2945 218.877 68.4903 218.721 72.8137C218.55 75.1513 218.597 77.4999 218.862 79.8288C219.591 85.9179 221.429 91.8386 221.948 97.9557C222.032 100.398 222.285 102.831 222.706 105.237C222.94 106.499 223.435 107.697 224.16 108.756C224.885 109.814 225.823 110.709 226.915 111.383C232.878 114.343 240.019 113.908 246.557 112.715C246.847 116.54 246.52 120.387 245.589 124.108L245.28 124.024C244.191 124.501 243.071 124.904 241.927 125.23C237.715 126.443 233.294 126.749 228.955 126.128C224.617 125.506 220.459 123.971 216.757 121.625C216.322 121.358 215.901 121.063 215.494 120.769C211.285 117.652 207.939 113.516 205.769 108.75C203.599 103.983 202.678 98.743 203.092 93.5222C201.241 96.7549 200.338 100.444 200.487 104.166C200.636 107.888 201.83 111.493 203.934 114.567C201.025 113.471 198.506 111.537 196.696 109.01C194.885 106.483 193.864 103.476 193.762 100.369C193.762 94.8831 196.568 89.7761 199.893 85.4549C203.667 80.6145 208.199 76.4054 211.776 71.4247C215.354 66.444 218.006 60.397 217.192 54.322L217.346 54.2378C217.922 55.262 218.525 56.2581 219.142 57.2543L222.187 57.2823Z" fill="#1D1D1B"/>
<path d="M224.726 56.8762C224.42 57.3833 224.242 57.9568 224.205 58.548C224.168 59.1392 224.275 59.7304 224.516 60.2715C224.628 60.51 224.881 60.7765 225.119 60.6643C225.197 60.607 225.257 60.5297 225.294 60.4408C225.331 60.3519 225.344 60.2546 225.33 60.1592C225.407 59.0316 225.2 57.9025 224.726 56.8762ZM222.734 60.6924L222.229 57.5075H222.664C222.976 56.8804 223.41 56.3222 223.941 55.866C224.205 55.6376 224.519 55.4732 224.857 55.3856C225.195 55.298 225.549 55.2895 225.891 55.3609C226.534 55.5915 227.092 56.0123 227.49 56.5675C228.53 57.7795 229.468 59.0746 230.296 60.4398L231.475 60.7765C230.437 64.3402 227.533 67.0761 224.769 69.5875C223.752 70.4043 222.879 71.386 222.187 72.4917C222.093 72.6688 222.045 72.8665 222.047 73.0669L218.764 72.8425C218.935 68.5026 220.31 64.2958 222.734 60.6924Z" fill="white"/>
<path d="M259.995 415.444C260.198 417.103 260.198 418.78 259.995 420.439C259.995 420.846 259.883 421.281 259.813 421.758H259.728C264.737 431.579 270.195 441.47 275.162 451.221L276.901 454.658H169.711C153.408 429.811 139.35 398.538 144.288 370.155C149.18 346.635 159.244 324.498 173.752 305.35L174.201 305.265C174.291 305.739 174.408 306.208 174.551 306.668L177.61 305.911C177.484 305.38 177.399 304.841 177.358 304.297H177.554C190.468 310.848 204.527 314.84 218.957 316.055H219.153C219.041 314.612 219.041 313.162 219.153 311.719V311.383C221.258 311.551 223.362 311.649 225.481 311.677V312.182C224.995 313.877 224.834 315.647 225.004 317.402L225.663 317.317C232.742 318.764 239.916 319.702 247.129 320.123H248.182C248.182 320.937 248.182 321.765 248.182 322.607C249.992 322.831 251.801 323.014 253.625 323.14L253.485 324.964C261.322 352.485 263.677 381.277 260.416 409.706L258.031 410.323C259.124 411.828 259.801 413.594 259.995 415.444Z" fill="#D1D0D1"/>
<path d="M307.559 136.076C308.773 136.3 310.001 136.441 311.235 136.497V136.595C309.475 141.222 306.905 145.498 303.645 149.222L303.532 149.124C300.75 146.634 298.113 143.988 295.633 141.197L295.381 141.001C296.67 139.22 297.621 137.218 298.187 135.094L298.019 134.715C298.742 134.403 299.437 134.027 300.095 133.593L300.305 133.901C302.65 134.852 305.078 135.58 307.559 136.076Z" fill="#50AE36"/>
<path d="M280.383 150.766L285.686 161.05V161.274L285.364 161.387C281.549 162.656 277.569 163.36 273.55 163.477V163.309C272.357 159.679 271.42 155.971 270.744 152.211V151.762C273.554 151.753 276.353 151.433 279.092 150.808C279.485 150.724 279.892 150.625 280.285 150.513L280.383 150.766Z" fill="#50AE36"/>
<path d="M177.331 304.438C177.373 304.981 177.458 305.521 177.584 306.051L174.525 306.809C174.382 306.348 174.265 305.88 174.175 305.406C173.62 302.669 173.859 299.832 174.862 297.226L175.241 296.861C176.054 297.758 176.967 298.558 177.963 299.246L177.752 299.541C177.289 301.129 177.146 302.794 177.331 304.438Z" fill="#D1D0D1"/>
<path d="M267.936 49.819C262.917 47.2983 258.579 43.6055 255.289 39.0533C252 34.5011 249.855 29.2233 249.037 23.6668L250.328 22.2638C252.496 18.2176 256.13 15.1551 260.486 13.7054C263.15 12.7736 265.932 12.221 268.749 12.0638V11.6289C272.188 8.91868 276.501 7.56563 280.872 7.82674H281.138H281.503C294.579 9.34199 306.406 17.6478 313.52 28.7317C320.633 39.8155 323.341 53.6352 322.471 66.9077C323.816 69.9324 325.486 72.802 327.452 75.4661C331.156 80.6432 335.505 85.2872 338.886 90.7309C342.256 95.9495 344.418 101.855 345.214 108.016C346.018 114.192 344.891 120.465 341.987 125.975C342.769 123.126 342.954 120.147 342.532 117.223C342.109 114.3 341.088 111.495 339.532 108.984C339.602 112.958 338.804 116.9 337.195 120.535C335.587 124.169 333.205 127.409 330.215 130.029C328.588 131.441 326.787 132.639 324.856 133.593C320.65 135.719 315.969 136.729 311.261 136.525C310.027 136.469 308.799 136.328 307.585 136.104C305.092 135.587 302.654 134.835 300.303 133.86L300.093 133.551C299.435 133.985 298.74 134.361 298.016 134.673C296.33 135.421 294.535 135.894 292.699 136.076C288.697 136.268 284.69 135.794 280.843 134.673C278.382 134.181 276.014 133.3 273.828 132.064C272.747 131.432 271.812 130.577 271.086 129.556C270.361 128.536 269.861 127.372 269.619 126.143C269.375 127.909 269.654 129.707 270.422 131.316C271.19 132.925 272.414 134.273 273.941 135.192C270.908 133.703 268.348 131.401 266.547 128.542C264.746 125.683 263.774 122.38 263.741 119.002C263.807 115.241 265.059 111.598 267.318 108.591C269.091 106.162 271.458 104.23 274.193 102.979C271.062 101.97 268.189 100.289 265.775 98.0546C263.524 95.7989 262.049 92.8848 261.566 89.7347C262.586 91.7158 264.25 93.291 266.283 94.2017C268.317 95.1125 270.6 95.3046 272.757 94.7465C274.914 94.1884 276.818 92.9133 278.155 91.1306C279.491 89.3479 280.182 87.1636 280.114 84.9364C280.404 86.1366 280.939 87.2638 281.685 88.2475C282.379 89.199 283.364 89.8985 284.491 90.2398C285.416 90.4411 286.373 90.4411 287.297 90.2398C291.011 89.555 294.427 87.7538 297.09 85.0767C299.737 82.4574 301.636 79.178 302.59 75.5783C303.311 73.4113 303.287 71.0653 302.52 68.914C301.974 67.7681 301.146 66.7803 300.112 66.0438C299.079 65.3073 297.875 64.8465 296.613 64.7049C294.053 64.4451 291.495 65.2121 289.5 66.8375C289.026 68.4271 288.049 69.82 286.716 70.8067C285.382 71.7934 283.765 72.3207 282.106 72.3093C280.542 72.1604 279.031 71.6635 277.684 70.8552C276.336 70.0468 275.187 68.9473 274.319 67.6372C272.587 64.9722 271.351 62.0156 270.672 58.9105C270.017 55.8458 269.078 52.849 267.866 49.9593L267.936 49.819ZM252.853 27.7916C253.653 35.3819 255.94 40.1943 267.038 47.981C262.324 41.2044 257.595 34.498 252.853 27.7916Z" fill="#1D1D1B"/>
<path d="M347.966 300.145C349.447 301.007 350.595 302.341 351.229 303.933C351.862 305.525 351.943 307.284 351.459 308.927L350.772 309.054C350.217 306.708 348.929 304.6 347.096 303.035C342.964 299.268 337.809 296.808 332.282 295.965C326.755 295.121 321.101 295.931 316.033 298.293H313.83C311.857 302.974 308.492 306.937 304.192 309.643C302.195 310.832 300.035 311.721 297.78 312.281C296.315 312.656 294.823 312.918 293.318 313.066C292.463 313.179 291.593 313.235 290.737 313.277H289.516C285.224 313.247 280.938 312.914 276.693 312.281L254.876 309.475L252.196 309.208L248.745 309.783C241.078 311.086 233.315 311.729 225.539 311.705C223.434 311.705 221.33 311.579 219.211 311.411C216.555 311.186 213.908 310.836 211.27 310.359C203.18 308.959 195.44 305.995 188.485 301.632H187.349C184.021 301.989 180.678 301.105 177.963 299.148C176.967 298.46 176.054 297.66 175.241 296.763C174.996 296.515 174.767 296.253 174.553 295.978C171.609 292.041 169.944 287.296 169.783 282.382C169.636 277.505 169.989 272.625 170.835 267.819L175.297 236.153L179.758 204.501L180.264 201.302C179.328 200.713 178.458 200.082 177.654 199.408L181.428 198.005C172.137 181.568 167.021 163.102 166.528 144.228L165.125 143.316C168.592 138.604 173.326 134.974 178.776 132.849C184.851 130.268 191.403 129.075 197.885 127.742C204.367 126.409 210.877 124.936 216.7 121.779L216.77 121.681C220.961 124.351 225.737 125.964 230.688 126.381V127.027C231.161 130.587 232.105 134.069 233.494 137.381C234.926 140.887 236.812 144.189 239.106 147.202C241.429 150.243 244.158 152.953 247.215 155.255C248.127 155.943 249.053 156.574 250.021 157.177C252.967 159.02 256.135 160.482 259.45 161.527C264.072 162.977 268.904 163.641 273.746 163.491C277.765 163.374 281.745 162.67 285.56 161.4L285.882 161.288C289.477 160.037 292.881 158.295 295.998 156.111C298.864 154.097 301.474 151.741 303.771 149.096C307.031 145.372 309.602 141.096 311.361 136.469V136.371C316.069 136.574 320.751 135.565 324.956 133.438C335.689 141.113 349.944 143.47 359.274 152.8C365.967 159.464 369.221 168.977 370.077 178.391C370.933 187.805 369.572 197.262 368.225 206.62C365.924 222.726 363.614 238.838 361.294 254.953C360.228 262.403 359.12 269.966 356.019 276.827C353.856 281.825 350.374 286.142 345.946 289.313L346.212 289.706C347.885 292.913 348.499 296.567 347.966 300.145Z" fill="#50AE36"/>
<path d="M429.201 308.423C428.989 309.465 428.55 310.449 427.914 311.302C427.279 312.156 426.463 312.859 425.525 313.361L425.202 313.544C423.156 314.504 420.882 314.874 418.636 314.61C416.392 314.414 414.217 313.796 411.902 313.459C408.092 314.526 404.169 315.138 400.215 315.283C397.874 317.665 394.983 319.434 391.797 320.432L391.053 320.811C389.756 318.189 388.215 315.695 386.451 313.361L387.111 312.87C388.913 311.668 390.629 310.341 392.246 308.9L392.723 309.433C396.092 308.874 399.387 307.932 402.544 306.627C407.731 306.391 412.928 306.56 418.089 307.132C421.793 307.525 425.413 307.946 429.201 308.423Z" fill="white"/>
<path d="M425.708 313.684L426.886 314.273C426.525 314.672 426.104 315.013 425.638 315.283C419.52 318.889 411.215 316.883 405.322 320.895C403.47 321.779 401.66 322.551 399.836 323.21C397.768 323.999 395.643 324.632 393.48 325.104L393.017 325.273C392.468 323.773 391.831 322.306 391.109 320.881L391.853 320.502C395.039 319.503 397.93 317.735 400.271 315.353C404.225 315.208 408.148 314.596 411.958 313.529C414.273 313.866 416.448 314.483 418.693 314.68C420.938 314.944 423.212 314.574 425.259 313.614L425.581 313.431L425.708 313.684Z" fill="white"/>
<path d="M423.21 326.115C423.184 326.841 422.954 327.546 422.547 328.149C422.141 328.752 421.573 329.228 420.909 329.524C419.579 330.088 418.143 330.356 416.7 330.31C413.405 330.365 410.114 330.078 406.879 329.454H406.668C403.328 331.573 399.573 332.951 395.655 333.495H395.416C394.911 330.624 394.141 327.805 393.115 325.077L393.578 324.908C395.741 324.436 397.866 323.803 399.934 323.014L400.032 323.281C402.936 323.281 405.855 323.281 409.11 323.281C413.702 324.698 418.426 325.648 423.21 326.115Z" fill="white"/>
<path d="M386.506 313.361C388.27 315.694 389.811 318.189 391.108 320.811C391.83 322.236 392.467 323.702 393.016 325.202C394.042 327.931 394.812 330.749 395.317 333.62V333.873C388.414 340.215 379.884 345.672 370.82 347.903C366.888 348.826 362.864 349.306 358.825 349.334C353.521 349.41 348.234 348.725 343.125 347.3L342.592 347.426C341.7 343.943 341.56 340.309 342.182 336.768C342.804 333.226 344.173 329.857 346.197 326.886H346.324C346.569 325.576 347.176 324.361 348.078 323.378C349.088 322.32 350.235 321.4 351.487 320.642L353.269 319.478C356.671 317.254 360.219 315.262 363.889 313.515C364.297 313.428 364.709 313.363 365.124 313.319L365.04 312.715C368.085 309.474 372.63 308.254 376.713 306.486C381.497 304.315 385.891 301.371 389.719 297.773C398.109 296.715 406.339 294.642 414.23 291.6C414.608 295.725 411.802 299.653 408.211 301.73C404.619 303.806 400.368 304.396 396.271 304.957C393.583 307.965 390.523 310.619 387.166 312.856L386.506 313.361Z" fill="white"/>
<path d="M358.826 349.994C358.95 351.206 358.757 352.429 358.265 353.543C357.773 354.658 356.999 355.625 356.02 356.349C355.357 356.852 354.605 357.223 353.803 357.444C353.439 357.545 353.069 357.625 352.695 357.682C351.513 357.847 350.31 357.702 349.201 357.261C346.673 356.012 344.723 353.837 343.758 351.186C343.223 349.981 342.791 348.732 342.467 347.454L343 347.328C348.151 348.756 353.481 349.432 358.826 349.334V349.994Z" fill="black"/>
<path d="M349.507 311.242C351.682 313.381 352.987 316.251 353.169 319.296L353.268 319.45L351.486 320.614C350.234 321.372 349.087 322.292 348.076 323.35L347.796 323.084C345.501 322.858 343.185 323.001 340.935 323.505L340.725 323.168C338.078 324.641 335.791 326.681 334.027 329.144C332.263 331.606 331.067 334.429 330.525 337.408C329.29 344.802 334.916 352.842 341.047 357.149C337.862 359.464 333.92 358.65 330.342 357.668C325.394 356.425 320.589 354.671 316.004 352.435C311.004 349.94 306.543 346.489 302.871 342.277C302.013 335.192 300.327 328.233 297.848 321.54L297.203 321.372C297.694 318.358 297.892 315.304 297.792 312.252C300.047 311.692 302.208 310.804 304.204 309.615C308.504 306.908 311.869 302.946 313.843 298.264H316.046C321.115 295.909 326.767 295.105 332.291 295.954C337.816 296.803 342.966 299.266 347.094 303.035C348.928 304.6 350.215 306.708 350.77 309.054C350.912 309.771 350.912 310.51 350.77 311.228L349.507 311.242Z" fill="#50AE36"/>
<path d="M349.257 357.234C350.366 357.674 351.57 357.819 352.751 357.654C348.876 358.542 344.833 358.368 341.05 357.149C334.918 352.856 329.292 344.803 330.527 337.409C331.07 334.429 332.266 331.607 334.029 329.144C335.793 326.682 338.08 324.641 340.727 323.168L340.937 323.505C343.187 323.001 345.503 322.859 347.798 323.084L348.079 323.351C347.178 324.333 346.57 325.548 346.325 326.858H346.199C344.154 329.831 342.768 333.207 342.134 336.759C341.5 340.311 341.633 343.958 342.523 347.455C342.848 348.733 343.279 349.981 343.814 351.187C344.785 353.826 346.734 355.991 349.257 357.234Z" fill="#50AE36"/>
<path d="M303.531 149.026L303.644 149.124C301.347 151.769 298.737 154.125 295.871 156.139L288.519 147.511L288.379 147.286C289.261 146.771 290.11 146.2 290.918 145.575C292.633 144.268 294.137 142.706 295.38 140.945L295.633 141.141C298.113 143.918 300.751 146.55 303.531 149.026Z" fill="#50AE36"/>
<path d="M263.658 418.742H263.574C272.513 388.15 273.632 355.805 266.829 324.669V323.379H267.502C267.502 323 267.502 322.621 267.502 322.242H268.078C274.747 323.322 281.529 323.534 288.253 322.874L288.548 322.972C289.547 320.096 289.892 317.033 289.558 314.007V313.347H290.778C291.634 313.347 292.504 313.249 293.36 313.137L293.458 314.035C293.375 316.675 293.042 319.301 292.462 321.877L296.896 321.471H297.204L297.85 321.639C300.319 328.314 302.001 335.254 302.858 342.319C304.562 357.674 303.488 373.21 299.688 388.184C294.426 410.099 284.9 430.723 275.444 451.165L275.191 451.292C270.238 441.555 264.781 431.649 259.758 421.828H259.842C259.842 421.351 259.968 420.916 260.024 420.509L262.55 420.818C262.929 420.089 263.307 419.485 263.658 418.742Z" fill="#D1D0D1"/>
<path d="M246.275 139.766C244.614 137.351 243.402 134.656 242.697 131.811C242.227 129.888 242.029 127.91 242.108 125.932L241.926 125.273C243.069 124.946 244.19 124.543 245.279 124.066L245.588 124.15C246.519 120.429 246.846 116.583 246.556 112.758C253.094 111.565 260.586 109.236 267.222 108.549C264.962 111.555 263.71 115.199 263.644 118.959C263.678 122.338 264.65 125.641 266.451 128.5C268.252 131.358 270.811 133.661 273.844 135.15C272.317 134.23 271.094 132.882 270.326 131.274C269.558 129.665 269.278 127.866 269.523 126.101C269.764 127.33 270.264 128.493 270.99 129.514C271.716 130.535 272.651 131.39 273.732 132.021C275.917 133.257 278.285 134.138 280.747 134.631C284.594 135.751 288.6 136.226 292.603 136.034C294.438 135.852 296.234 135.378 297.92 134.631L298.088 135.01C297.522 137.134 296.571 139.136 295.282 140.916C294.04 142.678 292.535 144.239 290.821 145.546C290.012 146.171 289.164 146.743 288.281 147.258C285.758 148.718 283.042 149.818 280.214 150.527C279.821 150.639 279.414 150.737 279.021 150.822C276.283 151.447 273.483 151.767 270.674 151.776C267.401 151.769 264.146 151.297 261.007 150.373C258.581 149.662 256.26 148.634 254.104 147.314C253.342 146.851 252.606 146.345 251.901 145.799C249.721 144.095 247.823 142.059 246.275 139.766Z" fill="white"/>
<path d="M293.319 313.039C294.824 312.891 296.316 312.628 297.781 312.253C297.88 315.305 297.683 318.359 297.191 321.373H296.883L292.449 321.779C293.029 319.203 293.362 316.576 293.445 313.937L293.319 313.039Z" fill="#1D1D1B"/>
<path d="M288.52 147.469L295.872 156.097C292.755 158.281 289.351 160.023 285.756 161.274V161.05L280.453 150.766L280.383 150.513C283.211 149.804 285.926 148.704 288.45 147.244L288.52 147.469Z" fill="#50AE36"/>
<path d="M289.532 313.936C289.866 316.962 289.521 320.025 288.521 322.901L288.227 322.803C281.503 323.463 274.721 323.251 268.051 322.172H267.476C267.476 321.105 267.476 320.039 267.476 319.043C263.169 318.889 258.862 318.734 254.554 318.608C254.388 315.757 254.482 312.897 254.835 310.064V309.559L276.652 312.365C280.898 312.998 285.183 313.331 289.475 313.361L289.532 313.936ZM267.939 315.83L267.631 312.856C264.249 312.856 260.812 312.856 257.374 312.715C256.942 313.734 256.844 314.864 257.094 315.942L267.939 315.83Z" fill="#1D1D1B"/>
<path d="M273.619 163.309V163.477C268.777 163.627 263.944 162.963 259.322 161.513L259.42 161.19C259.94 157.753 260.473 154.315 260.992 150.878L261.104 150.401C264.243 151.325 267.498 151.798 270.771 151.804V152.253C271.462 156 272.414 159.694 273.619 163.309Z" fill="#50AE36"/>
<path d="M267.629 312.856L267.882 315.816L257.092 315.942C256.842 314.864 256.941 313.734 257.373 312.715C260.866 312.856 264.304 312.926 267.629 312.856Z" fill="white"/>
<path d="M267.448 319.029C267.448 320.026 267.448 321.092 267.448 322.158C267.448 322.537 267.448 322.916 267.448 323.295H266.774C262.41 323.474 258.039 323.399 253.684 323.07C251.86 322.944 250.05 322.761 248.24 322.537C248.24 321.695 248.24 320.867 248.24 320.054C248.24 316.518 248.479 313.221 248.801 309.952V309.77L252.253 309.194L254.947 309.531V310.036C254.594 312.87 254.5 315.73 254.666 318.581C258.833 318.721 263.14 318.875 267.448 319.029Z" fill="white"/>
<path d="M266.828 324.613C273.631 355.749 272.512 388.094 263.573 418.686H263.657C263.307 419.359 262.928 420.089 262.563 420.692L260.037 420.383C260.24 418.724 260.24 417.047 260.037 415.388C259.872 413.531 259.218 411.75 258.143 410.225L260.529 409.608C263.782 381.198 261.427 352.425 253.598 324.922L253.738 323.098C258.093 323.427 262.464 323.502 266.828 323.323V324.613Z" fill="#D1D0D1"/>
<path d="M261.106 150.401L260.994 150.878C260.475 154.315 259.941 157.753 259.422 161.19L259.324 161.513C256.01 160.468 252.842 159.006 249.896 157.164C248.942 156.56 248.016 155.929 247.09 155.241L247.23 155.045L251.678 146.234L251.986 145.827C252.691 146.374 253.427 146.879 254.189 147.342C256.349 148.663 258.675 149.692 261.106 150.401Z" fill="#50AE36"/>
<path d="M252 145.897L251.691 146.304L247.244 155.115L247.104 155.312C244.046 153.009 241.318 150.3 238.994 147.258L239.205 147.09L246.22 139.836C247.812 142.152 249.763 144.198 252 145.897Z" fill="#50AE36"/>
<path d="M248.73 309.798V309.98C248.408 313.249 248.169 316.546 248.169 320.082H247.117C239.904 319.661 232.73 318.723 225.651 317.276L224.991 317.36C224.821 315.606 224.983 313.835 225.468 312.141V311.636C233.261 311.69 241.043 311.075 248.73 309.798Z" fill="#1D1D1B"/>
<path d="M246.275 139.766L239.26 147.019L239.05 147.188C236.756 144.174 234.869 140.872 233.438 137.366C236.016 135.126 238.933 133.308 242.08 131.979L242.768 131.811C243.45 134.651 244.638 137.346 246.275 139.766Z" fill="#50AE36"/>
<path d="M242.697 131.867L242.009 132.036C238.862 133.364 235.945 135.183 233.367 137.423C231.977 134.111 231.034 130.629 230.561 127.069V126.423C234.337 126.753 238.143 126.382 241.785 125.329L241.967 125.989C241.933 127.973 242.179 129.952 242.697 131.867Z" fill="#50AE36"/>
<path d="M240.468 91.937V92.1054L226.242 91.3197V91.1794C226.052 90.2064 226.052 89.2061 226.242 88.2331V87.8823C231.179 88.4178 235.99 89.7889 240.468 91.937Z" fill="white"/>
<path d="M233.311 27.7212V27.9036C230.016 30.2377 227.26 33.2516 225.23 36.7418C223.199 40.2319 221.941 44.1171 221.54 48.1351L220.628 48.0509C218.681 45.7013 217.299 42.9367 216.587 39.9695C216.258 38.485 216.295 36.9426 216.696 35.4758C217.097 34.009 217.85 32.6621 218.888 31.5514C221.357 29.2084 225.061 28.9138 228.443 28.6051C230.093 28.4892 231.726 28.1928 233.311 27.7212Z" fill="#1D1D1B"/>
<path d="M229.522 84.5292C233.541 86.4013 237.235 88.902 240.466 91.9372C235.995 89.776 231.189 88.3907 226.253 87.8404C225.86 87.8404 225.454 87.7421 225.061 87.7141C224.786 87.6775 224.525 87.5708 224.304 87.4043C224.082 87.2377 223.908 87.0169 223.796 86.7631C223.685 86.5094 223.641 86.2312 223.668 85.9554C223.695 85.6797 223.793 85.4156 223.952 85.1887C224.238 84.7583 224.626 84.405 225.081 84.1603C225.537 83.9156 226.045 83.7869 226.562 83.7856C227.59 83.8207 228.599 84.0742 229.522 84.5292Z" fill="white"/>
<path d="M219.171 311.453V311.79C219.058 313.233 219.058 314.682 219.171 316.125H218.974C204.545 314.911 190.486 310.918 177.571 304.368H177.375C177.184 302.71 177.327 301.031 177.796 299.429L178.006 299.135C180.722 301.091 184.065 301.975 187.392 301.618H188.529C195.467 305.996 203.192 308.979 211.272 310.401C213.881 310.85 216.514 311.201 219.171 311.453Z" fill="#1D1D1B"/>
<path d="M177.653 199.394C178.495 200.067 179.365 200.699 180.263 201.288L179.758 204.487L175.296 236.139H175.03C162.185 251.373 147.886 265.32 132.336 277.78L132.589 278.103C130.177 285.126 125.846 291.332 120.088 296.02C114.35 300.668 107.989 304.489 101.189 307.37C97.6957 308.941 93.9917 310.415 90.1755 310.176C89.6006 310.132 89.0289 310.052 88.4638 309.938C85.8596 309.328 83.4246 308.144 81.3365 306.472C78.842 304.412 76.5494 302.12 74.4898 299.625C72.9044 297.815 71.2488 295.879 70.8981 293.508C70.7979 293.159 70.7229 292.802 70.6736 292.442C70.529 291.435 70.6153 290.408 70.9261 289.439C82.949 268.881 97.1549 249.679 113.297 232.168L113.802 232.393C127.64 201.871 144.366 172.743 163.75 145.406C164.146 144.669 164.586 143.957 165.068 143.273L166.471 144.185C166.964 163.06 172.081 181.526 181.371 197.963L177.653 199.394ZM157.562 208.443C163.932 208.219 170.189 206.634 174.132 203C171.239 202.454 168.306 202.144 165.363 202.074C162.404 202.011 159.475 202.676 156.833 204.01C156.125 204.351 155.516 204.868 155.065 205.511C154.845 205.836 154.727 206.22 154.727 206.613C154.727 207.005 154.845 207.389 155.065 207.714C155.398 208.019 155.796 208.243 156.229 208.369C156.662 208.496 157.118 208.521 157.562 208.443Z" fill="#50AE36"/>
<path d="M174.131 203C170.259 206.634 163.931 208.219 157.562 208.444C157.117 208.521 156.661 208.496 156.228 208.369C155.795 208.243 155.397 208.019 155.064 207.714C154.844 207.389 154.727 207.005 154.727 206.613C154.727 206.22 154.844 205.836 155.064 205.511C155.516 204.868 156.124 204.351 156.832 204.01C159.474 202.676 162.403 202.011 165.363 202.074C168.306 202.144 171.238 202.454 174.131 203Z" fill="#50AE36"/>
<path d="M88.4645 309.923V310.036C85.5148 311.962 82.9148 314.377 80.7759 317.177C80.2043 317.096 79.6376 316.983 79.0783 316.84C75.3297 315.662 72.1316 313.171 70.0709 309.825C67.8621 306.185 66.1671 302.257 65.0341 298.152C65.0341 298.04 65.0341 297.928 64.9219 297.815C66.7739 295.823 68.696 294.097 70.5339 292.372H70.6321C70.6814 292.732 70.7564 293.088 70.8566 293.438C71.2074 295.809 72.8629 297.745 74.4483 299.555C76.508 302.05 78.8006 304.342 81.2951 306.402C83.3902 308.099 85.8406 309.303 88.4645 309.923Z" fill="#50AE36"/>
<path d="M35.2616 311.004L35.1915 310.527L64.3461 298.433L65.0055 298.223C66.1385 302.327 67.8335 306.255 70.0423 309.896C72.103 313.242 75.301 315.732 79.0497 316.911L78.8673 317.486C72.1328 324.08 69.8038 334.434 62.2696 340.173C58.3693 343.161 53.3184 344.648 50.0634 348.324C46.1983 350.738 43.1594 354.271 41.3507 358.454C40.7166 358.416 40.109 358.186 39.6081 357.795C39.1071 357.404 38.7364 356.871 38.5447 356.265C38.2339 354.332 38.3146 352.356 38.7822 350.454C39.2497 348.553 40.0946 346.764 41.2665 345.196C43.543 342.098 46.2231 339.319 49.2356 336.932C38.4324 341.884 28.1062 346.753 17.7801 351.467C16.4278 352.172 14.9673 352.646 13.4588 352.87C12.696 352.997 11.9137 352.936 11.18 352.691C10.4464 352.447 9.78374 352.026 9.24973 351.467C15.9727 344.442 23.7558 338.515 32.3153 333.901L12.0137 339.022C10.0923 339.615 8.08921 339.899 6.07892 339.864C5.07087 339.831 4.08504 339.559 3.20222 339.071C2.3194 338.584 1.56471 337.894 1 337.058C3.80603 335.44 6.70559 333.953 9.69869 332.597C7.56611 332.863 2.33286 332.512 1.75763 331.039C10.6968 325.864 20.2201 321.771 30.1266 318.847C27.4483 318.63 24.7536 318.739 22.1013 319.17C19.8584 321.755 16.6998 323.37 13.2904 323.673C12.4894 323.822 11.6637 323.764 10.8913 323.505C10.5114 323.37 10.1824 323.121 9.94898 322.792C9.71555 322.463 9.58898 322.07 9.58645 321.667C13.2483 318.258 16.826 314.75 21.3437 313.038C25.8614 311.327 30.5194 311.649 35.2616 311.004Z" fill="white"/>
<path d="M227.754 14.2104C226.281 17.0165 223.475 18.5177 220.585 19.9909C218.833 20.7903 217.149 21.7286 215.548 22.7969C213.333 24.5571 211.543 26.795 210.314 29.3434C209.085 31.8919 208.447 34.6851 208.449 37.5145C208.358 43.2071 210.181 48.7652 213.626 53.2984C212.21 50.0676 211.696 46.5138 212.138 43.0143C213.579 46.8922 215.334 50.646 217.386 54.2384C217.961 55.2626 218.564 56.2588 219.182 57.2549" stroke="#1D1D1B" stroke-linecap="round" stroke-linejoin="round"/>
<path d="M217.234 54.3784C218.048 60.4535 215.396 66.5145 211.818 71.4812C208.241 76.4478 203.709 80.6569 199.935 85.5113C196.567 89.8326 193.747 94.9396 193.804 100.425C193.906 103.532 194.927 106.539 196.737 109.066C198.548 111.593 201.067 113.527 203.975 114.624C201.872 111.549 200.677 107.944 200.529 104.222C200.38 100.5 201.282 96.8113 203.134 93.5786C202.708 98.8025 203.619 104.049 205.781 108.823C207.944 113.597 211.286 117.742 215.494 120.867C215.901 121.162 216.322 121.457 216.757 121.723C220.459 124.07 224.616 125.605 228.955 126.226C233.294 126.848 237.715 126.542 241.927 125.329C243.07 125.002 244.191 124.599 245.28 124.122" stroke="#1D1D1B" stroke-linecap="round" stroke-linejoin="round"/>
<path d="M244.859 126.69C245.14 125.848 245.378 125.006 245.589 124.15C246.52 120.429 246.847 116.583 246.557 112.758" stroke="#1D1D1B" stroke-linecap="round" stroke-linejoin="round"/>
<path d="M267.22 108.493C260.64 109.236 253.092 111.565 246.554 112.702C240.016 113.838 232.875 114.329 226.912 111.369C225.82 110.695 224.882 109.8 224.157 108.742C223.432 107.683 222.936 106.485 222.703 105.224C222.282 102.817 222.029 100.384 221.945 97.942C221.426 91.8249 219.588 85.9042 218.858 79.8151C218.594 77.4862 218.547 75.1377 218.718 72.8C218.909 68.4705 220.299 64.2789 222.731 60.692L222.226 57.5072V57.2546C221.722 55.207 221.467 53.1059 221.468 50.9972C221.468 50.0313 221.524 49.0663 221.636 48.107C222.037 44.089 223.296 40.2038 225.326 36.7137C227.357 33.2235 230.113 30.2096 233.408 27.8755" stroke="#1D1D1B" stroke-linecap="round" stroke-linejoin="round"/>
<path d="M231.711 22.8105C233.591 23.7305 235.595 24.3732 237.66 24.7186C241.479 25.3769 245.404 25.0139 249.038 23.6664" stroke="#1D1D1B" stroke-linecap="round" stroke-linejoin="round"/>
<path d="M237.673 24.8872C236.556 26.2652 235.027 27.2487 233.31 27.6932C231.741 28.1513 230.128 28.4383 228.497 28.5491C225.116 28.8577 221.412 29.1524 218.943 31.4954C217.904 32.606 217.152 33.953 216.751 35.4198C216.35 36.8866 216.313 38.429 216.642 39.9135C217.354 42.8807 218.736 45.6452 220.683 47.9949" stroke="#1D1D1B" stroke-linecap="round" stroke-linejoin="round"/>
<path d="M250.33 22.2078C252.498 18.1616 256.133 15.0992 260.488 13.6494C263.152 12.7176 265.934 12.165 268.752 12.0079C270.463 11.8956 272.189 11.8816 273.901 11.9237" stroke="#1D1D1B" stroke-linecap="round" stroke-linejoin="round"/>
<path d="M268.723 11.5723C272.161 8.86204 276.475 7.50899 280.845 7.7701" stroke="#1D1D1B" stroke-linecap="round" stroke-linejoin="round"/>
<path d="M220.545 19.2892C223.97 12.2567 229.776 6.66474 236.932 3.5053C243.757 0.272072 251.532 -0.33719 258.777 1.79362" stroke="#1D1D1B" stroke-linecap="round" stroke-linejoin="round"/>
<path d="M253.598 3.0279C255.279 2.56886 256.997 2.25437 258.733 2.08788C266.703 1.51098 274.65 3.4758 281.433 7.69994" stroke="#1D1D1B" stroke-linecap="round" stroke-linejoin="round"/>
<path d="M249.037 23.6665C249.855 29.2231 252 34.5008 255.289 39.053C258.579 43.6053 262.917 47.298 267.936 49.8187H268.006" stroke="#1D1D1B" stroke-linecap="round" stroke-linejoin="round"/>
<path d="M267.04 47.9809C255.942 40.1942 253.655 35.3538 252.855 27.7915C257.598 34.4979 262.326 41.2043 267.04 47.9809Z" stroke="#1D1D1B" stroke-linecap="round" stroke-linejoin="round"/>
<path d="M267.853 49.9873C269.065 52.8771 270.004 55.8739 270.659 58.9385C271.326 62.0097 272.538 64.9367 274.236 67.5811C275.104 68.8912 276.253 69.9906 277.6 70.799C278.948 71.6074 280.459 72.1042 282.023 72.2531C283.682 72.2646 285.299 71.7373 286.633 70.7506C287.966 69.7638 288.943 68.371 289.417 66.7814C291.412 65.156 293.97 64.389 296.53 64.6488C297.791 64.7904 298.996 65.2512 300.029 65.9876C301.063 66.7241 301.891 67.712 302.437 68.8578C303.204 71.0092 303.228 73.3552 302.507 75.5222C301.586 79.133 299.716 82.4319 297.091 85.0767C294.404 87.7126 290.979 89.4692 287.27 90.1135C286.346 90.3148 285.389 90.3148 284.464 90.1135C283.337 89.7722 282.352 89.0727 281.658 88.1212C280.912 87.1375 280.377 86.0103 280.087 84.8101C280.155 87.0373 279.464 89.2217 278.128 91.0044C276.791 92.787 274.887 94.0621 272.73 94.6202C270.573 95.1783 268.29 94.9862 266.256 94.0754C264.223 93.1647 262.559 91.5895 261.539 89.6084C261.399 89.3138 261.272 89.0192 261.16 88.7105" stroke="#1D1D1B" stroke-linecap="round" stroke-linejoin="round"/>
<path d="M261.555 89.6226C262.038 92.7726 263.512 95.6868 265.764 97.9424C268.178 100.177 271.051 101.858 274.182 102.867C271.447 104.117 269.08 106.05 267.307 108.479C265.047 111.486 263.795 115.129 263.729 118.889C263.763 122.268 264.734 125.571 266.536 128.43C268.337 131.289 270.896 133.591 273.929 135.08C272.402 134.16 271.179 132.813 270.411 131.204C269.642 129.595 269.363 127.797 269.608 126.031C269.849 127.26 270.349 128.423 271.075 129.444C271.801 130.465 272.735 131.32 273.817 131.952C276.002 133.188 278.37 134.069 280.832 134.561C284.679 135.682 288.685 136.156 292.688 135.964C294.523 135.782 296.318 135.309 298.005 134.561C298.729 134.249 299.424 133.873 300.081 133.439C301.238 132.69 302.25 131.74 303.07 130.633" stroke="#1D1D1B" stroke-linecap="round" stroke-linejoin="round"/>
<path d="M300.277 133.804C302.628 134.779 305.067 135.531 307.559 136.048C308.773 136.272 310.001 136.413 311.235 136.469C315.943 136.673 320.624 135.663 324.83 133.537C326.761 132.582 328.562 131.385 330.19 129.973C333.179 127.353 335.561 124.113 337.17 120.479C338.778 116.844 339.576 112.902 339.506 108.928C339.506 108.76 339.506 108.605 339.506 108.437" stroke="#1D1D1B" stroke-linecap="round" stroke-linejoin="round"/>
<path d="M320.172 58.0684C320.4 61.12 321.165 64.1074 322.431 66.8933C323.776 69.918 325.446 72.7876 327.411 75.4517C331.115 80.6288 335.465 85.2728 338.846 90.7165C342.233 95.9357 344.409 101.846 345.216 108.016C346.02 114.191 344.892 120.465 341.989 125.974C342.771 123.126 342.956 120.146 342.533 117.223C342.111 114.299 341.09 111.494 339.533 108.984" stroke="#1D1D1B" stroke-linecap="round" stroke-linejoin="round"/>
<path d="M281.113 7.75635H281.478C294.554 9.2716 306.382 17.5774 313.495 28.6613C320.608 39.7451 323.316 53.5648 322.446 66.8373" stroke="#1D1D1B" stroke-linecap="round" stroke-linejoin="round"/>
<path d="M298.16 134.996C297.594 137.12 296.643 139.122 295.354 140.903C294.111 142.664 292.607 144.226 290.892 145.533C290.084 146.158 289.236 146.729 288.353 147.245C285.829 148.704 283.114 149.805 280.286 150.514C279.893 150.626 279.486 150.724 279.093 150.808C276.354 151.434 273.555 151.754 270.745 151.762C267.473 151.756 264.218 151.284 261.078 150.359C258.653 149.649 256.331 148.62 254.176 147.301C253.413 146.838 252.678 146.332 251.973 145.785C249.756 144.081 247.823 142.035 246.249 139.724C244.587 137.31 243.375 134.615 242.671 131.769C242.2 129.847 242.002 127.868 242.082 125.891" stroke="#1D1D1B" stroke-linecap="round" stroke-linejoin="round"/>
<path d="M216.684 121.766C210.862 124.88 204.338 126.396 197.87 127.728C191.402 129.061 184.836 130.254 178.761 132.835C173.31 134.96 168.576 138.59 165.109 143.302C164.627 143.986 164.187 144.698 163.79 145.434C144.407 172.772 127.681 201.9 113.843 232.421C112.908 234.535 111.972 236.668 111.037 238.819" stroke="#1D1D1B" stroke-linecap="round" stroke-linejoin="round"/>
<path d="M113.297 232.169C97.1557 249.676 82.9499 268.872 70.9261 289.426C70.6153 290.395 70.529 291.421 70.6736 292.428C70.7229 292.789 70.7979 293.145 70.8981 293.495C71.2488 295.866 72.9044 297.802 74.4898 299.612C76.5494 302.106 78.842 304.399 81.3365 306.459C83.4246 308.13 85.8596 309.314 88.4638 309.924C89.0289 310.039 89.6006 310.118 90.1755 310.163C93.9917 310.429 97.6957 308.956 101.189 307.356C107.988 304.48 114.349 300.664 120.088 296.02C125.846 291.333 130.177 285.126 132.589 278.104" stroke="#1D1D1B" stroke-linecap="round" stroke-linejoin="round"/>
<path d="M125.77 282.915C127.986 281.232 130.175 279.525 132.336 277.794C147.888 265.316 162.187 251.35 175.029 236.097" stroke="#1D1D1B" stroke-linecap="round" stroke-linejoin="round"/>
<path d="M172.644 211.109C152.757 230.89 129.832 247.36 104.738 259.892" stroke="#1D1D1B" stroke-linecap="round" stroke-linejoin="round"/>
<path d="M94.2461 270.218C104.376 273.151 115.291 271.846 125.323 268.451C135.354 265.055 144.474 259.682 153.566 254.42" stroke="#1D1D1B" stroke-linecap="round" stroke-linejoin="round"/>
<path d="M70.5749 292.442C68.6668 294.168 66.7447 295.894 64.9629 297.886C64.9629 297.998 64.9629 298.111 65.0751 298.223C66.2081 302.327 67.9031 306.256 70.112 309.896C72.1726 313.242 75.3707 315.732 79.1193 316.911C79.6786 317.054 80.2453 317.167 80.8169 317.248C82.9559 314.448 85.5559 312.033 88.5055 310.106" stroke="#1D1D1B" stroke-linecap="round" stroke-linejoin="round"/>
<path d="M166.527 144.214C167.02 163.089 172.136 181.554 181.427 197.991" stroke="#1D1D1B" stroke-linecap="round" stroke-linejoin="round"/>
<path d="M165.307 180.875C167.406 188.177 171.72 194.648 177.653 199.394C178.495 200.068 179.365 200.699 180.263 201.288" stroke="#1D1D1B" stroke-linecap="round" stroke-linejoin="round"/>
<path d="M174.131 203C171.238 202.454 168.306 202.144 165.363 202.074C162.403 202.011 159.474 202.676 156.832 204.01C156.124 204.351 155.516 204.868 155.064 205.511C154.844 205.836 154.727 206.22 154.727 206.613C154.727 207.005 154.844 207.389 155.064 207.714C155.397 208.019 155.795 208.243 156.228 208.369C156.661 208.496 157.117 208.521 157.562 208.444C163.931 208.219 170.259 206.634 174.131 203Z" stroke="#1D1D1B" stroke-linecap="round" stroke-linejoin="round"/>
<path d="M179.758 204.487L175.297 236.139L170.821 267.805C169.975 272.611 169.622 277.491 169.769 282.369C169.93 287.282 171.595 292.027 174.539 295.964C174.752 296.239 174.982 296.501 175.226 296.75C176.039 297.646 176.953 298.447 177.948 299.135C180.664 301.091 184.007 301.975 187.334 301.618" stroke="#1D1D1B" stroke-linecap="round" stroke-linejoin="round"/>
<path d="M176.25 290.408C179.641 294.835 183.781 298.634 188.484 301.632C195.423 306.009 203.148 308.992 211.227 310.415C213.865 310.892 216.512 311.242 219.168 311.467C221.273 311.635 223.377 311.734 225.496 311.762C233.281 311.791 241.054 311.153 248.73 309.853L252.181 309.278" stroke="#1D1D1B" stroke-linecap="round" stroke-linejoin="round"/>
<path d="M236.244 307.244L252.196 309.208L254.89 309.545L276.707 312.351C280.953 312.984 285.238 313.317 289.531 313.347H290.751C291.607 313.347 292.477 313.249 293.333 313.136C294.838 312.989 296.329 312.726 297.794 312.351C300.049 311.791 302.21 310.902 304.206 309.713C308.506 307.007 311.871 303.044 313.845 298.363C315.788 293.209 316.74 287.735 316.651 282.228" stroke="#1D1D1B" stroke-linecap="round" stroke-linejoin="round"/>
<path d="M191.334 239.394C203.471 261.703 221.225 280.453 242.839 293.789" stroke="#1D1D1B" stroke-linecap="round" stroke-linejoin="round"/>
<path d="M185.734 270.878C197.548 283.111 212.242 292.185 228.47 297.269" stroke="#1D1D1B" stroke-linecap="round" stroke-linejoin="round"/>
<path d="M359.961 167.279C351.96 180.059 346.412 194.219 343.602 209.033" stroke="#1D1D1B" stroke-linecap="round" stroke-linejoin="round"/>
<path d="M339.504 218.588C349.098 210.635 355.784 199.726 358.515 187.567" stroke="#1D1D1B" stroke-linecap="round" stroke-linejoin="round"/>
<path d="M339.504 215.571C337.049 228.002 334.608 240.474 330.651 252.526C326.695 264.578 321.209 276.237 313.184 286.058" stroke="#1D1D1B" stroke-linecap="round" stroke-linejoin="round"/>
<path d="M360.019 216.82C356.491 230.189 350.921 242.933 343.505 254.603C336.098 266.253 327.983 277.437 319.205 288.093" stroke="#1D1D1B" stroke-linecap="round" stroke-linejoin="round"/>
<path d="M321.225 291.208C330.611 290.071 337.486 280.488 346.928 279.983" stroke="#1D1D1B" stroke-linecap="round" stroke-linejoin="round"/>
<path d="M316.031 298.293C321.099 295.931 326.753 295.121 332.28 295.965C337.807 296.809 342.962 299.269 347.094 303.035C348.927 304.6 350.215 306.708 350.77 309.054C350.912 309.772 350.912 310.511 350.77 311.229" stroke="#1D1D1B" stroke-linecap="round" stroke-linejoin="round"/>
<path d="M310.49 311.327C313.488 307.782 317.652 305.424 322.234 304.676C326.783 303.965 331.425 304.098 335.927 305.069C339.923 305.666 343.748 307.1 347.151 309.278C347.981 309.86 348.752 310.523 349.452 311.256C351.627 313.396 352.931 316.265 353.114 319.31" stroke="#1D1D1B" stroke-linecap="round" stroke-linejoin="round"/>
<path d="M324.844 133.564C335.577 141.239 349.831 143.596 359.161 152.926C365.854 159.59 369.109 169.103 369.965 178.517C370.821 187.931 369.46 197.388 368.113 206.746C365.812 222.852 363.501 238.964 361.182 255.08C360.116 262.53 359.007 270.092 355.907 276.953C353.743 281.952 350.261 286.268 345.833 289.439C344.115 290.653 342.222 291.599 340.221 292.245" stroke="#1D1D1B" stroke-linecap="round" stroke-linejoin="round"/>
<path d="M346.1 289.833C347.784 292.991 348.437 296.597 347.966 300.145C349.446 301.008 350.595 302.341 351.228 303.934C351.862 305.526 351.943 307.284 351.459 308.928" stroke="#1D1D1B" stroke-linecap="round" stroke-linejoin="round"/>
<path d="M344.794 321.484C343.404 321.892 342.063 322.452 340.795 323.154C338.149 324.627 335.861 326.668 334.098 329.13C332.334 331.592 331.138 334.415 330.595 337.395C329.361 344.788 334.987 352.828 341.118 357.135" stroke="#1D1D1B" stroke-linecap="round" stroke-linejoin="round"/>
<path d="M347.489 334.841C346.907 333.203 346.488 331.511 346.24 329.791C346.135 328.814 346.163 327.827 346.324 326.858C346.569 325.548 347.177 324.333 348.078 323.351C349.089 322.292 350.235 321.372 351.487 320.615L353.269 319.45C356.672 317.227 360.22 315.235 363.89 313.488C364.298 313.4 364.71 313.335 365.125 313.291C369.811 312.828 374.819 315.143 379.519 313.445C379.721 315.233 379.345 317.037 378.446 318.595C377.547 320.153 376.173 321.382 374.525 322.102C372.864 322.783 371.083 323.12 369.288 323.091C367.494 323.062 365.724 322.668 364.086 321.934" stroke="#1D1D1B" stroke-linecap="round" stroke-linejoin="round"/>
<path d="M364.97 323C364.241 324.051 363.255 324.899 362.106 325.461C360.956 326.024 359.682 326.282 358.404 326.212" stroke="#1D1D1B" stroke-linecap="round" stroke-linejoin="round"/>
<path d="M371.789 325.175C372.42 329.384 370.007 333.593 366.583 336.146C363.019 338.506 358.928 339.951 354.672 340.355" stroke="#1D1D1B" stroke-linecap="round" stroke-linejoin="round"/>
<path d="M383.84 310.134C384.782 311.164 385.672 312.241 386.506 313.361C388.27 315.694 389.81 318.189 391.107 320.811C391.829 322.236 392.466 323.702 393.016 325.202C394.041 327.931 394.811 330.749 395.317 333.62V333.873" stroke="#1D1D1B" stroke-linecap="round" stroke-linejoin="round"/>
<path d="M343.057 347.3C348.188 348.732 353.499 349.417 358.827 349.335C362.906 349.292 366.968 348.788 370.935 347.833C380.054 345.659 388.528 340.201 395.431 333.803" stroke="#1D1D1B" stroke-linecap="round" stroke-linejoin="round"/>
<path d="M346.198 326.886C344.154 329.859 342.768 333.234 342.134 336.787C341.5 340.339 341.633 343.985 342.523 347.482C342.847 348.76 343.279 350.008 343.813 351.214C344.778 353.864 346.728 356.04 349.257 357.289C350.365 357.729 351.569 357.874 352.751 357.71C353.127 357.666 353.498 357.586 353.859 357.471C354.643 357.236 355.376 356.855 356.02 356.349C356.974 355.614 357.723 354.646 358.195 353.538C358.667 352.43 358.845 351.219 358.713 350.021" stroke="#1D1D1B" stroke-linecap="round" stroke-linejoin="round"/>
<path d="M340.936 323.505C343.186 323.001 345.502 322.859 347.796 323.084" stroke="#1D1D1B" stroke-linecap="round" stroke-linejoin="round"/>
<path d="M302.873 342.319C306.544 346.531 311.006 349.982 316.005 352.477C320.591 354.713 325.396 356.467 330.344 357.71C333.922 358.693 337.864 359.506 341.049 357.191C344.833 358.41 348.875 358.584 352.75 357.696C353.124 357.638 353.494 357.559 353.859 357.458" stroke="#1D1D1B" stroke-linecap="round" stroke-linejoin="round"/>
<path d="M365.041 312.688C368.086 309.447 372.631 308.226 376.714 306.458C381.498 304.287 385.892 301.343 389.72 297.746C398.11 296.687 406.34 294.614 414.231 291.572C414.61 295.697 411.804 299.626 408.212 301.702C404.62 303.778 400.369 304.368 396.272 304.929C393.586 307.947 390.526 310.611 387.167 312.856" stroke="#1D1D1B" stroke-linecap="round" stroke-linejoin="round"/>
<path d="M392.778 309.433C396.147 308.874 399.442 307.932 402.599 306.627C407.786 306.391 412.983 306.56 418.144 307.132C421.764 307.539 425.384 307.96 429.172 308.437C428.96 309.479 428.52 310.463 427.885 311.316C427.25 312.17 426.434 312.873 425.496 313.375L425.173 313.558C423.127 314.518 420.853 314.888 418.607 314.624C416.362 314.428 414.188 313.81 411.873 313.474C408.063 314.54 404.14 315.152 400.186 315.297C397.845 317.679 394.954 319.448 391.768 320.446" stroke="#1D1D1B" stroke-linecap="round" stroke-linejoin="round"/>
<path d="M393.48 325.034C395.643 324.562 397.768 323.929 399.836 323.14C401.66 322.48 403.47 321.737 405.322 320.825C411.215 316.882 419.52 318.889 425.638 315.213C426.104 314.943 426.525 314.602 426.886 314.203L425.708 313.613" stroke="#1D1D1B" stroke-linecap="round" stroke-linejoin="round"/>
<path d="M399.934 323.406C402.838 323.406 405.756 323.406 409.011 323.406C413.64 324.792 418.397 325.704 423.21 326.128C423.183 326.855 422.954 327.559 422.547 328.162C422.14 328.765 421.573 329.241 420.909 329.537C419.579 330.101 418.143 330.369 416.7 330.323C413.405 330.378 410.114 330.091 406.879 329.467" stroke="#1D1D1B" stroke-linecap="round" stroke-linejoin="round"/>
<path d="M406.527 329.523C403.187 331.643 399.432 333.02 395.514 333.564" stroke="#1D1D1B" stroke-linecap="round" stroke-linejoin="round"/>
<path d="M64.3441 298.433L35.1895 310.527" stroke="#1D1D1B" stroke-linecap="round" stroke-linejoin="round"/>
<path d="M37.3784 310.653C36.6769 310.794 35.9754 310.92 35.2598 311.004C30.5738 311.649 25.7334 311.453 21.3419 313.123C16.9505 314.792 13.2465 318.342 9.58468 321.751C9.58721 322.154 9.71378 322.547 9.94721 322.876C10.1806 323.205 10.5096 323.454 10.8895 323.589C11.6619 323.848 12.4876 323.906 13.2886 323.757C16.698 323.454 19.8566 321.839 22.0996 319.254C24.7518 318.823 27.4465 318.715 30.1248 318.931C20.2196 321.846 10.6963 325.93 1.75586 331.095C2.3311 332.498 7.56434 332.919 9.69692 332.653L10.1739 332.568" stroke="#1D1D1B" stroke-linecap="round" stroke-linejoin="round"/>
<path d="M29.3956 325.483C22.6632 327.332 16.0937 329.729 9.75338 332.652C6.76028 334.027 3.86072 335.524 1.05469 337.142C1.6194 337.978 2.37409 338.668 3.25691 339.155C4.13973 339.643 5.12555 339.915 6.1336 339.948C8.14389 339.983 10.147 339.698 12.0683 339.106L32.3138 333.901L32.7488 333.789" stroke="#1D1D1B" stroke-linecap="round" stroke-linejoin="round"/>
<path d="M36.1324 332.049C34.8697 332.653 33.621 333.298 32.3864 333.957C23.8487 338.567 16.085 344.485 9.37695 351.495C9.91096 352.054 10.5737 352.475 11.3073 352.719C12.0409 352.964 12.8232 353.025 13.586 352.898C15.0945 352.674 16.555 352.2 17.9073 351.495C28.2335 346.711 38.5597 341.912 49.3629 336.96C46.3503 339.347 43.6702 342.126 41.3937 345.224C40.2218 346.792 39.377 348.581 38.9094 350.482C38.4418 352.384 38.3611 354.36 38.6719 356.293C38.8636 356.899 39.2343 357.432 39.7353 357.823C40.2362 358.214 40.8438 358.444 41.4779 358.482C43.2867 354.299 46.3255 350.766 50.1906 348.352C53.4456 344.676 58.4965 343.189 62.3969 340.201C69.889 334.462 72.218 324.066 78.9945 317.444" stroke="#1D1D1B" stroke-linecap="round" stroke-linejoin="round"/>
<path d="M40.5098 331.347C41.3295 329.964 42.446 328.781 43.7788 327.882" stroke="#1D1D1B" stroke-linecap="round" stroke-linejoin="round"/>
<path d="M37.3788 320.376C36.1568 321.505 35.1699 322.864 34.4746 324.375" stroke="#1D1D1B" stroke-linecap="round" stroke-linejoin="round"/>
<path d="M33.1152 317.822L34.883 316.041" stroke="#1D1D1B" stroke-linecap="round" stroke-linejoin="round"/>
<path d="M248.758 310.05C248.436 313.319 248.197 316.616 248.197 320.152C248.197 320.965 248.197 321.793 248.197 322.635C250.007 322.859 251.817 323.042 253.641 323.168C257.996 323.497 262.367 323.572 266.731 323.392H267.405C267.405 323.014 267.405 322.635 267.405 322.256C267.405 321.19 267.405 320.123 267.405 319.127C263.097 318.973 258.79 318.819 254.483 318.692C254.316 315.842 254.41 312.982 254.763 310.148" stroke="#1D1D1B" stroke-linecap="round" stroke-linejoin="round"/>
<path d="M267.629 312.856L267.882 315.816L257.092 315.942C256.842 314.864 256.941 313.734 257.373 312.715C260.866 312.856 264.304 312.926 267.629 312.856Z" stroke="#1D1D1B" stroke-linecap="round" stroke-linejoin="round"/>
<path d="M225.537 312.21C225.051 313.905 224.89 315.675 225.06 317.43C225.086 317.797 225.133 318.162 225.2 318.524L225.088 318.159" stroke="#1D1D1B" stroke-linecap="round" stroke-linejoin="round"/>
<path d="M219.141 311.748C219.029 313.19 219.029 314.64 219.141 316.083C219.141 316.658 219.141 317.219 219.281 317.781" stroke="#1D1D1B" stroke-linecap="round" stroke-linejoin="round"/>
<path d="M177.751 299.429C177.282 301.031 177.139 302.71 177.33 304.368C177.372 304.911 177.456 305.451 177.583 305.981C177.653 306.304 177.751 306.627 177.849 306.935" stroke="#1D1D1B" stroke-linecap="round" stroke-linejoin="round"/>
<path d="M174.862 297.114C173.859 299.72 173.62 302.557 174.175 305.294C174.265 305.768 174.382 306.236 174.525 306.697" stroke="#1D1D1B" stroke-linecap="round" stroke-linejoin="round"/>
<path d="M177.527 304.34C190.442 310.89 204.501 314.882 218.93 316.097" stroke="#1D1D1B" stroke-linecap="round" stroke-linejoin="round"/>
<path d="M225.68 317.346C232.759 318.793 239.933 319.73 247.146 320.152" stroke="#1D1D1B" stroke-linecap="round" stroke-linejoin="round"/>
<path d="M268.049 322.172C274.719 323.251 281.5 323.463 288.224 322.803" stroke="#1D1D1B" stroke-linecap="round" stroke-linejoin="round"/>
<path d="M289.529 313.936C289.864 316.962 289.519 320.025 288.519 322.901C288.39 323.311 288.241 323.714 288.07 324.108" stroke="#1D1D1B" stroke-linecap="round" stroke-linejoin="round"/>
<path d="M293.416 313.936C293.332 316.576 292.999 319.202 292.419 321.779C292.217 322.569 291.968 323.347 291.676 324.108" stroke="#1D1D1B" stroke-linecap="round" stroke-linejoin="round"/>
<path d="M292.449 321.779L296.883 321.373" stroke="#1D1D1B" stroke-linecap="round" stroke-linejoin="round"/>
<path d="M297.779 312.253C297.878 315.305 297.681 318.359 297.189 321.373" stroke="#1D1D1B" stroke-linecap="round" stroke-linejoin="round"/>
<path d="M173.724 305.377C159.217 324.526 149.153 346.663 144.261 370.183C139.322 398.552 153.381 429.839 169.684 454.686" stroke="#1D1D1B" stroke-linecap="round" stroke-linejoin="round"/>
<path d="M256.84 408.949C257.313 409.34 257.737 409.788 258.103 410.282C259.177 411.806 259.831 413.587 259.997 415.445C260.199 417.103 260.199 418.781 259.997 420.439C259.997 420.846 259.884 421.281 259.814 421.758" stroke="#1D1D1B" stroke-linecap="round" stroke-linejoin="round"/>
<path d="M257.121 416.566C257.991 418.306 258.861 420.046 259.773 421.8C264.782 431.621 270.239 441.512 275.206 451.263L276.946 454.7" stroke="#1D1D1B" stroke-linecap="round" stroke-linejoin="round"/>
<path d="M198.727 328.836C221.991 350.053 241.447 375.099 256.25 402.888" stroke="#1D1D1B" stroke-linecap="round" stroke-linejoin="round"/>
<path d="M184.219 362.859C198.249 366.353 212.504 370.001 224.429 378.11C235.443 385.588 243.693 396.349 251.732 406.97" stroke="#1D1D1B" stroke-linecap="round" stroke-linejoin="round"/>
<path d="M205.49 394.638C219.447 396.155 233.121 399.631 246.107 404.964" stroke="#1D1D1B" stroke-linecap="round" stroke-linejoin="round"/>
<path d="M266.829 324.613C273.632 355.749 272.513 388.094 263.574 418.685" stroke="#1D1D1B" stroke-linecap="round" stroke-linejoin="round"/>
<path d="M253.598 324.922C261.435 352.443 263.79 381.235 260.529 409.664" stroke="#1D1D1B" stroke-linecap="round" stroke-linejoin="round"/>
<path d="M262.564 420.748C262.929 420.088 263.308 419.415 263.659 418.742C275.423 397.25 284.952 374.608 292.098 351.172" stroke="#1D1D1B" stroke-linecap="round" stroke-linejoin="round"/>
<path d="M265.047 423.82C272.234 419.122 278.764 413.488 284.465 407.068" stroke="#1D1D1B" stroke-linecap="round" stroke-linejoin="round"/>
<path d="M266.688 426.317C269.864 426.023 273.04 426.88 275.639 428.731V428.618" stroke="#1D1D1B" stroke-linecap="round" stroke-linejoin="round"/>
<path d="M275.443 451.123C284.9 430.681 294.426 410.057 299.687 388.142C303.482 373.181 304.556 357.66 302.858 342.32C302 335.235 300.314 328.275 297.835 321.583" stroke="#1D1D1B" stroke-linecap="round" stroke-linejoin="round"/>
<path d="M222.254 45.4832C223.228 45.4584 224.191 45.6936 225.045 46.1646C225.898 46.6356 226.61 47.3254 227.108 48.163" stroke="#1D1D1B" stroke-width="0.5" stroke-linecap="round" stroke-linejoin="round"/>
<path d="M241.041 48.6406C242.322 47.3791 243.848 46.3944 245.526 45.7476C247.203 45.1008 248.996 44.8057 250.792 44.8805C254.373 45.0551 257.85 46.1417 260.894 48.0373" stroke="#1D1D1B" stroke-width="0.5" stroke-linecap="round" stroke-linejoin="round"/>
<path d="M242.373 59.4715C242.533 58.4951 242.973 57.5864 243.641 56.8564C244.309 56.1263 245.175 55.6066 246.133 55.3607C247.777 55.0961 249.462 55.3104 250.988 55.978C253.646 56.9236 256.166 58.2213 258.48 59.8363" stroke="#1D1D1B" stroke-linecap="round" stroke-linejoin="round"/>
<path d="M245.095 57.5073C244.604 58.7272 244.604 60.0896 245.095 61.3095C245.095 61.4498 245.235 61.5901 245.375 61.6182C245.516 61.6462 245.726 61.2814 245.698 61.0149C245.841 60.4199 245.861 59.802 245.758 59.199C245.654 58.5959 245.428 58.0203 245.095 57.5073Z" stroke="#1D1D1B" stroke-width="0.5" stroke-linecap="round" stroke-linejoin="round"/>
<path d="M224.726 56.876C224.42 57.3831 224.241 57.9566 224.204 58.5478C224.168 59.139 224.274 59.7302 224.515 60.2713C224.628 60.5098 224.88 60.7764 225.119 60.6641C225.196 60.6068 225.257 60.5296 225.294 60.4406C225.331 60.3517 225.343 60.2544 225.329 60.159C225.407 59.0314 225.199 57.9024 224.726 56.876Z" stroke="#1D1D1B" stroke-width="0.5" stroke-linecap="round" stroke-linejoin="round"/>
<path d="M222.73 57.5075C223.042 56.8804 223.476 56.3222 224.007 55.866C224.272 55.6376 224.585 55.4732 224.923 55.3856C225.262 55.298 225.615 55.2895 225.957 55.3609C226.601 55.5915 227.158 56.0123 227.557 56.5675C228.596 57.7795 229.535 59.0746 230.363 60.4398" stroke="#1D1D1B" stroke-linecap="round" stroke-linejoin="round"/>
<path d="M229.357 51.4038C230.421 52.6122 231.177 54.0592 231.563 55.6223C231.949 57.1854 231.953 58.8184 231.573 60.3831C231.573 60.5094 231.503 60.6356 231.475 60.7479C230.437 64.3115 227.533 67.0474 224.769 69.5588C223.752 70.3757 222.879 71.3574 222.187 72.4631C222.093 72.6402 222.045 72.8379 222.047 73.0383C222.049 73.2307 222.087 73.4211 222.159 73.5995C222.307 73.9641 222.516 74.3009 222.776 74.5956C223.899 75.9691 225.235 77.1533 226.733 78.1032" stroke="#1D1D1B" stroke-width="0.5" stroke-linecap="round" stroke-linejoin="round"/>
<path d="M228.963 76.3218C229.45 76.3191 229.931 76.4306 230.367 76.6475C230.803 76.8644 231.182 77.1805 231.474 77.5705" stroke="#1D1D1B" stroke-width="0.5" stroke-linecap="round" stroke-linejoin="round"/>
<path d="M233.746 79.1275C234.516 78.837 235.18 78.319 235.648 77.6423C236.117 76.9657 236.369 76.1624 236.37 75.3394" stroke="#1D1D1B" stroke-width="0.5" stroke-linecap="round" stroke-linejoin="round"/>
<path d="M240.466 91.9372C237.235 88.9021 233.541 86.4014 229.522 84.5293C228.595 84.0937 227.586 83.8593 226.562 83.8418C226.045 83.8431 225.537 83.9718 225.081 84.2165C224.626 84.4612 224.238 84.8144 223.952 85.2448C223.793 85.4717 223.695 85.7358 223.668 86.0116C223.641 86.2874 223.685 86.5655 223.796 86.8193C223.908 87.0731 224.082 87.2939 224.304 87.4604C224.525 87.627 224.786 87.7337 225.061 87.7702C225.454 87.7702 225.86 87.7702 226.253 87.8965C231.185 88.4291 235.991 89.7955 240.466 91.9372Z" stroke="#1D1D1B" stroke-width="0.5" stroke-linecap="round" stroke-linejoin="round"/>
<path d="M226.21 88.1914C226.021 89.1644 226.021 90.1647 226.21 91.1377" stroke="#1D1D1B" stroke-width="0.5" stroke-linecap="round" stroke-linejoin="round"/>
<path d="M225.006 91.25H226.226L240.453 92.0357H240.621" stroke="#1D1D1B" stroke-width="0.5" stroke-linecap="round" stroke-linejoin="round"/>
<path d="M227.164 96.9321C229.127 97.9649 231.366 98.3528 233.562 98.0405" stroke="#1D1D1B" stroke-width="0.5" stroke-linecap="round" stroke-linejoin="round"/>
<path d="M230.617 127.013C231.09 130.573 232.034 134.055 233.423 137.367C234.855 140.873 236.742 144.175 239.035 147.188C241.359 150.229 244.087 152.939 247.145 155.241C248.057 155.929 248.983 156.56 249.951 157.163C252.897 159.006 256.065 160.468 259.379 161.513C264.001 162.963 268.834 163.627 273.676 163.477C277.694 163.36 281.674 162.656 285.489 161.387L285.812 161.274C289.406 160.023 292.81 158.281 295.928 156.097C298.793 154.083 301.403 151.727 303.7 149.082C306.961 145.358 309.531 141.082 311.291 136.455" stroke="#1D1D1B" stroke-width="0.5" stroke-linecap="round" stroke-linejoin="round"/>
<path d="M295.688 141.099C298.167 143.889 300.805 146.536 303.586 149.026" stroke="#1D1D1B" stroke-width="0.5" stroke-linecap="round" stroke-linejoin="round"/>
<path d="M299.533 134.828C302.892 136.473 306.115 138.383 309.172 140.538" stroke="#1D1D1B" stroke-width="0.5" stroke-linecap="round" stroke-linejoin="round"/>
<path d="M295.941 156.181L295.871 156.097L288.52 147.469" stroke="#1D1D1B" stroke-width="0.5" stroke-linecap="round" stroke-linejoin="round"/>
<path d="M285.686 161.05L280.383 150.766" stroke="#1D1D1B" stroke-width="0.5" stroke-linecap="round" stroke-linejoin="round"/>
<path d="M270.771 152.21C271.447 155.971 272.385 159.679 273.578 163.308" stroke="#1D1D1B" stroke-width="0.5" stroke-linecap="round" stroke-linejoin="round"/>
<path d="M260.991 150.878C260.472 154.315 259.939 157.753 259.42 161.19" stroke="#1D1D1B" stroke-width="0.5" stroke-linecap="round" stroke-linejoin="round"/>
<path d="M251.69 146.234L247.242 155.045" stroke="#1D1D1B" stroke-width="0.5" stroke-linecap="round" stroke-linejoin="round"/>
<path d="M246.33 139.696L239.314 146.949" stroke="#1D1D1B" stroke-width="0.5" stroke-linecap="round" stroke-linejoin="round"/>
<path d="M242.008 131.979C238.861 133.308 235.944 135.127 233.365 137.367" stroke="#1D1D1B" stroke-width="0.5" stroke-linecap="round" stroke-linejoin="round"/>
<path d="M169.713 454.687H276.931" stroke="#1D1D1B" stroke-linecap="round" stroke-linejoin="round"/>
</svg>
