<svg width="629" height="667" viewBox="0 0 629 667" fill="none" xmlns="http://www.w3.org/2000/svg">
<path d="M569.524 94.7007H126.352V665.959H569.524V94.7007Z" fill="#EDEDED" stroke="#1D1D1B" stroke-miterlimit="10"/>
<path d="M322.133 29.475V28.4478C327.149 18.1504 335.651 9.9624 346.13 5.33617C356.124 0.601908 367.511 -0.290205 378.12 2.82984V3.26126C389.792 2.41654 401.43 5.29353 411.363 11.4787V11.5815H410.829H410.439C404.039 11.1991 397.722 13.1803 392.687 17.1488V17.7856C388.561 18.0158 384.487 18.8249 380.586 20.1893C374.208 22.3121 368.885 26.7963 365.711 32.7209L363.82 34.7753C358.499 36.7484 352.751 37.2799 347.158 36.3161V36.5626C345.522 38.5803 343.283 40.0204 340.768 40.6713C338.471 41.3421 336.108 41.7622 333.721 41.9245C328.769 42.3764 323.345 42.8079 319.729 46.2387C318.208 47.8649 317.107 49.8372 316.519 51.985C315.932 54.1327 315.877 56.3912 316.36 58.5649C317.402 62.9096 319.426 66.9576 322.277 70.398L323.612 70.5213C323.448 71.926 323.365 73.339 323.366 74.7533C323.365 77.841 323.737 80.9175 324.475 83.9158H320.078C319.174 82.4572 318.291 80.9986 317.449 79.4989C314.444 74.2386 311.875 68.7421 309.764 63.0639C309.094 68.2284 309.847 73.4778 311.942 78.2457C306.916 71.6303 304.247 63.5236 304.361 55.2162C304.359 51.0732 305.293 46.9833 307.093 43.2517C308.893 39.5201 311.513 36.2433 314.757 33.6659C317.099 32.0734 319.566 30.6719 322.133 29.475Z" fill="#1D1D1B"/>
<path d="M358.027 84.4087C357.308 86.1949 357.308 88.1899 358.027 89.9761C358.027 90.1815 358.232 90.3869 358.438 90.428C358.643 90.4691 358.951 89.935 358.91 89.5446C359.12 88.6735 359.149 87.7687 358.997 86.8857C358.845 86.0027 358.515 85.1599 358.027 84.4087ZM327.064 124.941C326.831 125.274 326.688 125.66 326.648 126.064C326.608 126.468 326.672 126.875 326.835 127.247C326.998 127.618 327.255 127.942 327.579 128.186C327.903 128.43 328.285 128.586 328.687 128.639C329.263 128.639 329.858 128.639 330.434 128.824V129.338C330.157 130.762 330.157 132.227 330.434 133.652V133.919L351.267 135.069V134.823C346.536 130.379 341.126 126.717 335.241 123.976C333.884 123.338 332.406 122.995 330.906 122.969C330.153 122.959 329.409 123.133 328.739 123.477C328.07 123.821 327.494 124.323 327.064 124.941ZM323.612 70.6855C324.2 64.8022 326.042 59.1133 329.016 54.0029C331.99 48.8924 336.025 44.4793 340.85 41.0615V40.7945C343.365 40.1435 345.605 38.7034 347.24 36.6857V36.4392C352.833 37.4031 358.581 36.8716 363.903 34.8984C365.101 43.0346 368.241 50.7626 373.058 57.4282C377.876 64.0938 384.228 69.5009 391.578 73.1919L391.455 73.4384C393.23 77.6698 394.606 82.0578 395.564 86.5453C396.541 91.0422 398.316 95.3281 400.803 99.2002C402.073 101.118 403.757 102.728 405.73 103.912C407.703 105.096 409.915 105.823 412.206 106.041C414.635 106.058 417.004 105.286 418.956 103.841C420.909 102.396 422.34 100.357 423.034 98.0292C425.955 95.6492 429.701 94.5261 433.45 94.9065C435.297 95.1138 437.061 95.7885 438.574 96.8669C440.088 97.9453 441.301 99.3918 442.1 101.07C443.223 104.22 443.259 107.655 442.203 110.828C440.818 116.111 438.045 120.928 434.169 124.777C430.234 128.637 425.218 131.209 419.787 132.152C418.433 132.447 417.032 132.447 415.678 132.152C414.028 131.652 412.585 130.628 411.569 129.235C410.476 127.795 409.693 126.144 409.268 124.387C409.368 127.648 408.356 130.846 406.399 133.457C404.441 136.067 401.654 137.934 398.495 138.751C395.336 139.568 391.992 139.287 389.014 137.953C386.036 136.62 383.6 134.313 382.106 131.413C382.814 136.025 384.973 140.292 388.27 143.595C391.805 146.867 396.013 149.328 400.598 150.806C396.593 152.637 393.126 155.466 390.53 159.023C380.894 160.112 369.84 163.522 360.266 165.186C350.692 166.851 340.234 167.57 331.502 163.235C329.903 162.248 328.529 160.938 327.468 159.388C326.406 157.838 325.681 156.084 325.338 154.237C324.722 150.713 324.351 147.15 324.229 143.575C323.469 134.617 320.777 125.948 319.709 117.032C319.321 113.622 319.252 110.183 319.503 106.76L324.311 107.089C324.308 106.795 324.379 106.506 324.516 106.247C325.53 104.628 326.808 103.19 328.297 101.994C332.406 98.3168 336.515 94.3108 338.118 89.0927L336.392 88.5996C335.179 86.6006 333.805 84.7043 332.283 82.9296C331.699 82.1167 330.882 81.5005 329.941 81.1628C329.44 81.0583 328.922 81.0707 328.426 81.199C327.931 81.3272 327.472 81.5679 327.085 81.9024C326.318 82.6064 325.703 83.4592 325.277 84.4087H324.64V84.0389C323.902 81.0407 323.529 77.9642 323.53 74.8765C323.477 73.4791 323.504 72.0798 323.612 70.6855Z" fill="white"/>
<path d="M324.475 84.0801V84.4498L325.112 89.0722C321.605 94.3476 319.628 100.491 319.401 106.822C319.15 110.245 319.218 113.684 319.606 117.094C320.674 126.01 323.366 134.679 324.126 143.636C324.248 147.212 324.619 150.774 325.236 154.298C325.578 156.145 326.303 157.9 327.365 159.45C328.426 161 329.801 162.31 331.399 163.297C340.131 167.631 350.589 166.994 360.163 165.248C360.588 170.849 360.11 176.481 358.746 181.93L358.294 181.806C356.698 182.504 355.058 183.095 353.383 183.573C347.215 185.349 340.741 185.797 334.387 184.887C328.034 183.977 321.945 181.729 316.524 178.293C315.887 177.903 315.271 177.472 314.675 177.04C308.511 172.477 303.61 166.421 300.433 159.441C297.255 152.462 295.906 144.789 296.513 137.144C293.802 141.878 292.48 147.279 292.698 152.729C292.916 158.18 294.665 163.458 297.745 167.96C293.486 166.354 289.797 163.523 287.146 159.822C284.495 156.122 283 151.719 282.85 147.17C282.85 139.137 286.959 131.659 291.828 125.332C297.355 118.244 303.991 112.081 309.23 104.788C314.47 97.4951 318.353 88.6408 317.161 79.7453L317.387 79.6221C318.229 81.1218 319.113 82.5804 320.017 84.039L324.475 84.0801Z" fill="#1D1D1B"/>
<path d="M328.193 83.4847C327.745 84.2272 327.483 85.0671 327.429 85.9327C327.375 86.7983 327.532 87.6641 327.885 88.4563C328.049 88.8055 328.419 89.1958 328.768 89.0315C328.882 88.9475 328.97 88.8345 329.024 88.7042C329.079 88.574 329.097 88.4315 329.076 88.2919C329.19 86.6408 328.886 84.9876 328.193 83.4847ZM325.275 89.0726L324.536 84.4091H325.173C325.629 83.4909 326.265 82.6736 327.042 82.0055C327.429 81.6711 327.889 81.4304 328.384 81.3021C328.879 81.1738 329.397 81.1615 329.898 81.266C330.84 81.6036 331.657 82.2198 332.24 83.0327C333.763 84.8074 335.137 86.7038 336.35 88.7028L338.075 89.1958C336.555 94.4139 332.302 98.4199 328.255 102.097C326.765 103.293 325.487 104.731 324.474 106.35C324.337 106.609 324.266 106.899 324.269 107.192L319.461 106.863C319.711 100.509 321.725 94.3489 325.275 89.0726Z" fill="white"/>
<path d="M379.844 608.519C380.141 610.947 380.141 613.403 379.844 615.832C379.844 616.428 379.68 617.065 379.577 617.763H379.454C386.788 632.144 394.781 646.627 402.054 660.905L404.602 665.938H247.632C223.758 629.555 203.171 583.763 210.403 542.204C217.566 507.764 232.304 475.35 253.549 447.312L254.206 447.189C254.339 447.883 254.51 448.569 254.72 449.243L259.199 448.134C259.014 447.357 258.891 446.567 258.829 445.771H259.117C278.029 455.363 298.617 461.208 319.747 462.987H320.035C319.871 460.874 319.871 458.752 320.035 456.639V456.146C323.117 456.393 326.199 456.536 329.301 456.577V457.317C328.59 459.798 328.353 462.391 328.603 464.959L329.568 464.836C339.935 466.955 350.44 468.328 361.003 468.945H362.544C362.544 470.136 362.544 471.348 362.544 472.581C365.195 472.91 367.845 473.177 370.516 473.362L370.311 476.032C381.787 516.33 385.236 558.489 380.46 600.116L376.968 601.02C378.568 603.224 379.56 605.81 379.844 608.519Z" fill="#D1D0D1"/>
<path d="M449.496 199.454C451.274 199.782 453.073 199.988 454.879 200.07V200.214C452.302 206.988 448.538 213.25 443.764 218.703L443.599 218.559C439.525 214.914 435.663 211.038 432.032 206.952L431.662 206.664C433.549 204.057 434.942 201.126 435.771 198.016L435.525 197.461C436.585 197.003 437.602 196.454 438.565 195.817L438.874 196.269C442.307 197.661 445.863 198.727 449.496 199.454Z" fill="#50AE36"/>
<path d="M409.699 220.963L417.465 236.021V236.35L416.993 236.514C411.406 238.372 405.578 239.404 399.693 239.575V239.329C397.947 234.014 396.573 228.584 395.584 223.079V222.421C399.698 222.409 403.798 221.94 407.809 221.024C408.384 220.901 408.98 220.757 409.555 220.593L409.699 220.963Z" fill="#50AE36"/>
<path d="M258.789 445.978C258.85 446.774 258.974 447.564 259.158 448.34L254.679 449.45C254.469 448.775 254.298 448.089 254.166 447.395C253.354 443.389 253.703 439.233 255.172 435.418L255.727 434.884C256.918 436.197 258.255 437.369 259.713 438.377L259.405 438.808C258.727 441.134 258.517 443.571 258.789 445.978Z" fill="#D1D0D1"/>
<path d="M391.476 73.1505C384.126 69.4596 377.774 64.0525 372.956 57.3869C368.139 50.7213 364.999 42.9933 363.801 34.8571L365.691 32.8027C368.865 26.8782 374.188 22.3939 380.566 20.2711C384.467 18.9067 388.541 18.0976 392.668 17.8675V17.2306C397.702 13.2622 404.02 11.281 410.419 11.6633H410.81H411.344C430.492 13.882 447.812 26.0439 458.229 42.2734C468.646 58.5029 472.611 78.7384 471.337 98.1727C473.308 102.602 475.753 106.804 478.631 110.704C484.055 118.285 490.424 125.085 495.376 133.056C500.311 140.697 503.477 149.344 504.642 158.366C505.82 167.409 504.169 176.594 499.917 184.662C501.061 180.491 501.333 176.128 500.714 171.847C500.096 167.567 498.6 163.46 496.321 159.783C496.424 165.602 495.256 171.374 492.9 176.696C490.544 182.018 487.056 186.762 482.679 190.599C480.296 192.666 477.658 194.419 474.83 195.817C468.672 198.93 461.816 200.409 454.921 200.111C453.115 200.028 451.317 199.822 449.538 199.494C445.888 198.737 442.318 197.636 438.875 196.207L438.567 195.755C437.604 196.391 436.586 196.941 435.526 197.399C433.056 198.493 430.428 199.187 427.739 199.453C421.878 199.734 416.012 199.04 410.378 197.399C406.773 196.678 403.305 195.388 400.105 193.578C398.521 192.653 397.153 191.401 396.09 189.906C395.027 188.412 394.295 186.708 393.941 184.908C393.583 187.494 393.992 190.128 395.117 192.483C396.242 194.839 398.033 196.812 400.27 198.159C395.828 195.978 392.08 192.607 389.442 188.421C386.805 184.235 385.382 179.399 385.333 174.451C385.429 168.945 387.263 163.61 390.572 159.208C393.168 155.651 396.634 152.821 400.639 150.991C396.054 149.513 391.847 147.052 388.312 143.78C385.015 140.477 382.856 136.21 382.148 131.597C383.642 134.498 386.078 136.805 389.056 138.138C392.034 139.472 395.377 139.753 398.537 138.936C401.696 138.119 404.483 136.252 406.441 133.641C408.398 131.031 409.41 127.833 409.31 124.571C409.735 126.329 410.518 127.979 411.611 129.42C412.627 130.813 414.069 131.837 415.72 132.337C417.074 132.632 418.475 132.632 419.829 132.337C425.267 131.334 430.27 128.697 434.17 124.777C438.047 120.941 440.827 116.14 442.224 110.869C443.28 107.696 443.244 104.261 442.121 101.11C441.322 99.4327 440.109 97.9862 438.595 96.9078C437.082 95.8294 435.318 95.1547 433.472 94.9474C429.723 94.5669 425.976 95.69 423.055 98.07C422.361 100.398 420.93 102.437 418.978 103.882C417.025 105.327 414.656 106.099 412.227 106.082C409.937 105.864 407.724 105.137 405.751 103.953C403.778 102.769 402.095 101.159 400.824 99.241C398.287 95.3387 396.478 91.0096 395.482 86.4628C394.524 81.9754 393.148 77.5874 391.373 73.356L391.476 73.1505ZM369.389 40.8969C370.56 52.0111 373.909 59.0576 390.161 70.4593C383.258 60.5367 376.334 50.7168 369.389 40.8969Z" fill="#1D1D1B"/>
<path d="M508.669 439.691C510.837 440.954 512.519 442.907 513.447 445.238C514.374 447.57 514.493 450.145 513.785 452.552L512.778 452.736C511.965 449.302 510.08 446.215 507.395 443.923C501.343 438.408 493.795 434.806 485.701 433.571C477.607 432.335 469.328 433.521 461.906 436.979H458.681C455.79 443.835 450.863 449.636 444.566 453.599C441.642 455.34 438.479 456.641 435.176 457.461C433.031 458.011 430.847 458.395 428.643 458.612C427.39 458.776 426.116 458.858 424.862 458.92H423.075C416.789 458.876 410.514 458.389 404.296 457.461L372.347 453.353L368.423 452.962L363.369 453.805C352.143 455.712 340.773 456.654 329.386 456.619C326.304 456.619 323.222 456.434 320.12 456.188C316.23 455.859 312.354 455.346 308.491 454.647C296.644 452.597 285.31 448.257 275.125 441.869H273.461C268.587 442.392 263.692 441.097 259.715 438.233C258.257 437.225 256.92 436.053 255.73 434.74C255.372 434.377 255.036 433.993 254.723 433.59C250.412 427.825 247.974 420.877 247.737 413.683C247.522 406.541 248.039 399.396 249.278 392.359L255.812 345.991L262.345 299.645L263.085 294.961C261.715 294.098 260.441 293.174 259.263 292.188L264.79 290.133C251.185 266.065 243.692 239.027 242.971 211.389L240.916 210.054C245.993 203.154 252.926 197.839 260.907 194.728C269.803 190.948 279.398 189.202 288.89 187.25C298.383 185.299 307.916 183.142 316.442 178.519L316.545 178.375C322.682 182.285 329.676 184.647 336.926 185.258V186.203C337.62 191.416 339.001 196.514 341.036 201.364C343.132 206.497 345.895 211.332 349.254 215.744C352.656 220.198 356.652 224.165 361.129 227.537C362.465 228.543 363.821 229.468 365.239 230.351C369.553 233.05 374.192 235.19 379.045 236.72C385.814 238.843 392.891 239.815 399.981 239.596C405.866 239.424 411.695 238.393 417.281 236.535L417.754 236.37C423.017 234.538 428.002 231.987 432.567 228.79C436.764 225.84 440.586 222.391 443.949 218.518C448.724 213.064 452.488 206.803 455.065 200.029V199.885C461.959 200.183 468.815 198.704 474.974 195.591C490.691 206.829 511.566 210.28 525.229 223.941C535.029 233.7 539.796 247.628 541.049 261.413C542.302 275.198 540.309 289.044 538.337 302.747C534.967 326.331 531.584 349.922 528.187 373.52C526.626 384.429 525.003 395.502 520.462 405.548C517.294 412.867 512.195 419.188 505.71 423.831L506.1 424.407C508.55 429.102 509.449 434.453 508.669 439.691Z" fill="#50AE36"/>
<path d="M627.628 451.812C627.318 453.339 626.674 454.779 625.744 456.029C624.814 457.279 623.619 458.308 622.245 459.044L621.773 459.311C618.776 460.718 615.445 461.259 612.157 460.872C608.87 460.585 605.685 459.681 602.295 459.188C596.716 460.749 590.971 461.646 585.181 461.858C581.753 465.346 577.519 467.935 572.853 469.398L571.764 469.953C569.865 466.113 567.609 462.461 565.025 459.044L565.991 458.325C568.63 456.565 571.143 454.622 573.511 452.511L574.209 453.292C579.144 452.473 583.969 451.094 588.591 449.183C596.187 448.838 603.799 449.085 611.356 449.922C616.78 450.498 622.081 451.114 627.628 451.812Z" fill="white"/>
<path d="M622.512 459.516L624.237 460.379C623.708 460.964 623.091 461.463 622.409 461.858C613.451 467.138 601.288 464.2 592.659 470.076C589.947 471.37 587.296 472.5 584.625 473.465C581.596 474.621 578.485 475.548 575.318 476.239L574.64 476.485C573.836 474.289 572.903 472.142 571.846 470.055L572.935 469.5C577.601 468.038 581.835 465.448 585.262 461.961C591.052 461.748 596.797 460.852 602.377 459.29C605.767 459.783 608.951 460.687 612.239 460.975C615.527 461.361 618.857 460.82 621.854 459.414L622.327 459.146L622.512 459.516Z" fill="white"/>
<path d="M618.856 477.718C618.818 478.782 618.481 479.814 617.886 480.696C617.29 481.579 616.459 482.276 615.486 482.71C613.539 483.536 611.436 483.928 609.323 483.86C604.498 483.94 599.678 483.521 594.941 482.607H594.632C589.741 485.71 584.241 487.728 578.504 488.524H578.155C577.415 484.32 576.287 480.193 574.785 476.198L575.463 475.951C578.63 475.26 581.741 474.333 584.77 473.178L584.914 473.568C589.167 473.568 593.441 473.568 598.207 473.568C604.933 475.643 611.851 477.034 618.856 477.718Z" fill="white"/>
<path d="M565.105 459.043C567.689 462.46 569.945 466.112 571.844 469.952C572.901 472.038 573.834 474.185 574.639 476.382C576.14 480.378 577.268 484.504 578.008 488.708V489.078C567.9 498.364 555.408 506.355 542.135 509.622C536.376 510.973 530.484 511.676 524.568 511.717C516.802 511.828 509.059 510.825 501.578 508.738L500.797 508.923C499.491 503.822 499.287 498.502 500.197 493.316C501.108 488.131 503.112 483.198 506.077 478.847H506.262C506.621 476.929 507.511 475.149 508.83 473.711C510.31 472.161 511.989 470.814 513.823 469.705L516.432 468C521.415 464.744 526.611 461.827 531.985 459.269C532.583 459.141 533.186 459.045 533.793 458.981L533.67 458.098C538.129 453.352 544.785 451.565 550.764 448.977C557.77 445.797 564.204 441.487 569.81 436.219C582.096 434.669 594.149 431.633 605.704 427.18C606.258 433.22 602.149 438.972 596.89 442.012C591.63 445.053 585.405 445.916 579.405 446.737C575.468 451.142 570.988 455.028 566.071 458.303L565.105 459.043Z" fill="white"/>
<path d="M524.572 512.684C524.754 514.458 524.471 516.249 523.75 517.881C523.03 519.513 521.897 520.929 520.462 521.99C519.492 522.725 518.39 523.269 517.216 523.592C516.682 523.74 516.141 523.857 515.593 523.942C513.863 524.182 512.1 523.97 510.477 523.325C506.774 521.496 503.919 518.31 502.505 514.43C501.723 512.665 501.091 510.837 500.615 508.965L501.396 508.78C508.939 510.871 516.745 511.861 524.572 511.718V512.684Z" fill="black"/>
<path d="M510.927 455.942C514.111 459.074 516.022 463.275 516.289 467.734L516.433 467.96L513.824 469.665C511.99 470.774 510.311 472.121 508.831 473.671L508.42 473.28C505.06 472.951 501.668 473.159 498.373 473.897L498.065 473.404C494.189 475.56 490.84 478.548 488.257 482.154C485.674 485.759 483.923 489.892 483.128 494.256C481.32 505.082 489.559 516.854 498.538 523.161C493.874 526.55 488.1 525.359 482.861 523.921C475.615 522.1 468.578 519.532 461.863 516.258C454.542 512.605 448.009 507.551 442.633 501.384C441.376 491.01 438.907 480.82 435.277 471.021L434.332 470.774C435.051 466.361 435.34 461.889 435.195 457.421C438.497 456.601 441.661 455.299 444.584 453.559C450.881 449.596 455.809 443.794 458.699 436.939H461.925C469.348 433.49 477.625 432.313 485.715 433.556C493.806 434.799 501.348 438.406 507.393 443.924C510.078 446.215 511.963 449.302 512.776 452.737C512.983 453.788 512.983 454.87 512.776 455.921L510.927 455.942Z" fill="#50AE36"/>
<path d="M510.559 523.284C512.182 523.929 513.945 524.141 515.675 523.9C510.001 525.2 504.081 524.945 498.54 523.161C489.561 516.875 481.322 505.082 483.13 494.256C483.925 489.893 485.676 485.76 488.259 482.154C490.842 478.549 494.191 475.56 498.067 473.404L498.375 473.897C501.67 473.159 505.062 472.951 508.422 473.281L508.833 473.671C507.513 475.109 506.624 476.889 506.265 478.807H506.08C503.086 483.16 501.056 488.103 500.128 493.304C499.2 498.506 499.394 503.845 500.697 508.965C501.172 510.837 501.805 512.665 502.587 514.43C504.009 518.295 506.864 521.465 510.559 523.284Z" fill="#50AE36"/>
<path d="M443.6 218.416L443.764 218.559C440.401 222.432 436.578 225.882 432.382 228.831L421.616 216.197L421.41 215.868C422.703 215.114 423.945 214.277 425.129 213.362C427.64 211.448 429.843 209.162 431.663 206.583L432.032 206.87C435.666 210.935 439.528 214.79 443.6 218.416Z" fill="#50AE36"/>
<path d="M385.208 613.347H385.085C398.174 568.554 399.813 521.192 389.851 475.602V473.712H390.837C390.837 473.157 390.837 472.602 390.837 472.048H391.68C401.447 473.628 411.378 473.939 421.225 472.972L421.656 473.116C423.119 468.905 423.625 464.42 423.135 459.989V459.023H424.923C426.176 459.023 427.45 458.879 428.703 458.715L428.847 460.03C428.725 463.895 428.237 467.74 427.388 471.514L433.881 470.918H434.333L435.278 471.164C438.895 480.938 441.356 491.101 442.613 501.446C445.107 523.929 443.534 546.677 437.969 568.603C430.265 600.692 416.314 630.891 402.466 660.824L402.096 661.009C394.844 646.751 386.851 632.247 379.496 617.867H379.619C379.619 617.168 379.804 616.531 379.886 615.936L383.585 616.388C384.139 615.319 384.694 614.436 385.208 613.347Z" fill="#D1D0D1"/>
<path d="M359.752 204.856C357.319 201.32 355.544 197.374 354.513 193.208C353.824 190.393 353.533 187.496 353.65 184.6L353.383 183.635C355.057 183.156 356.698 182.566 358.293 181.868L358.745 181.991C360.109 176.543 360.588 170.91 360.163 165.31C369.737 163.563 380.709 160.153 390.427 159.146C387.118 163.549 385.284 168.884 385.188 174.39C385.237 179.337 386.66 184.173 389.297 188.36C391.934 192.546 395.683 195.917 400.124 198.097C397.888 196.751 396.097 194.777 394.972 192.422C393.847 190.066 393.438 187.432 393.796 184.847C394.15 186.646 394.882 188.35 395.945 189.845C397.007 191.34 398.376 192.591 399.96 193.516C403.16 195.326 406.628 196.616 410.233 197.337C415.866 198.978 421.733 199.672 427.594 199.392C430.283 199.125 432.911 198.432 435.381 197.337L435.628 197.892C434.798 201.002 433.406 203.933 431.518 206.541C429.699 209.12 427.495 211.406 424.985 213.32C423.801 214.235 422.559 215.072 421.266 215.827C417.57 217.964 413.594 219.575 409.452 220.613C408.877 220.778 408.281 220.921 407.706 221.045C403.695 221.961 399.595 222.429 395.481 222.442C390.689 222.432 385.922 221.741 381.325 220.387C377.773 219.347 374.374 217.841 371.217 215.909C370.1 215.231 369.023 214.49 367.991 213.69C364.798 211.195 362.018 208.214 359.752 204.856Z" fill="white"/>
<path d="M428.641 458.572C430.845 458.355 433.029 457.971 435.175 457.421C435.32 461.89 435.031 466.362 434.312 470.775H433.86L427.367 471.371C428.216 467.597 428.704 463.752 428.826 459.887L428.641 458.572Z" fill="#1D1D1B"/>
<path d="M421.616 216.134L432.382 228.769C427.817 231.966 422.832 234.517 417.568 236.349V236.021L409.802 220.962L409.699 220.592C413.841 219.554 417.817 217.943 421.513 215.806L421.616 216.134Z" fill="#50AE36"/>
<path d="M423.095 459.885C423.585 464.317 423.079 468.801 421.616 473.013L421.185 472.869C411.338 473.835 401.407 473.525 391.64 471.944H390.797C390.797 470.383 390.797 468.822 390.797 467.363C384.49 467.137 378.182 466.911 371.875 466.726C371.631 462.552 371.769 458.364 372.286 454.215V453.476L404.234 457.584C410.452 458.511 416.727 458.999 423.013 459.043L423.095 459.885ZM391.475 462.659L391.023 458.303C386.072 458.303 381.038 458.303 376.004 458.098C375.371 459.59 375.227 461.244 375.593 462.823L391.475 462.659Z" fill="#1D1D1B"/>
<path d="M399.796 239.328V239.575C392.705 239.794 385.628 238.822 378.859 236.699L379.003 236.226C379.763 231.193 380.544 226.16 381.304 221.127L381.469 220.428C386.066 221.782 390.832 222.473 395.625 222.483V223.14C396.637 228.626 398.031 234.036 399.796 239.328Z" fill="#50AE36"/>
<path d="M391.023 458.304L391.392 462.639L375.593 462.824C375.226 461.245 375.37 459.591 376.004 458.099C381.12 458.304 386.153 458.407 391.023 458.304Z" fill="white"/>
<path d="M390.754 467.343C390.754 468.802 390.754 470.363 390.754 471.924C390.754 472.479 390.754 473.034 390.754 473.588H389.768C383.377 473.85 376.977 473.741 370.599 473.26C367.928 473.075 365.277 472.808 362.627 472.479C362.627 471.246 362.627 470.034 362.627 468.843C362.627 463.666 362.976 458.838 363.449 454.051V453.784L368.503 452.942L372.448 453.435V454.175C371.931 458.324 371.793 462.511 372.037 466.686C378.139 466.891 384.447 467.117 390.754 467.343Z" fill="white"/>
<path d="M389.851 475.52C399.813 521.111 398.174 568.472 385.085 613.265H385.208C384.694 614.251 384.14 615.32 383.605 616.203L379.907 615.751C380.204 613.322 380.204 610.866 379.907 608.438C379.664 605.717 378.707 603.109 377.133 600.878L380.626 599.974C385.391 558.374 381.943 516.243 370.477 475.972L370.682 473.301C377.06 473.782 383.461 473.892 389.851 473.63V475.52Z" fill="#D1D0D1"/>
<path d="M381.469 220.429L381.304 221.127C380.544 226.16 379.763 231.194 379.003 236.227L378.859 236.699C374.006 235.169 369.367 233.029 365.053 230.331C363.655 229.447 362.299 228.523 360.943 227.516L361.149 227.229L367.662 214.327L368.114 213.731C369.146 214.531 370.223 215.272 371.34 215.95C374.503 217.884 377.909 219.39 381.469 220.429Z" fill="#50AE36"/>
<path d="M368.136 213.834L367.684 214.43L361.171 227.332L360.965 227.619C356.488 224.248 352.492 220.281 349.09 215.827L349.398 215.581L359.671 204.959C362.002 208.349 364.86 211.345 368.136 213.834Z" fill="#50AE36"/>
<path d="M363.346 453.826V454.093C362.873 458.879 362.524 463.707 362.524 468.884H360.983C350.42 468.267 339.915 466.894 329.548 464.775L328.582 464.899C328.333 462.33 328.57 459.737 329.281 457.256V456.517C340.692 456.597 352.089 455.696 363.346 453.826Z" fill="#1D1D1B"/>
<path d="M359.751 204.856L349.478 215.477L349.169 215.723C345.811 211.311 343.048 206.476 340.951 201.343C344.728 198.062 348.999 195.4 353.607 193.454L354.614 193.208C355.614 197.367 357.354 201.312 359.751 204.856Z" fill="#50AE36"/>
<path d="M354.514 193.291L353.508 193.537C348.899 195.483 344.628 198.146 340.851 201.426C338.817 196.576 337.435 191.478 336.742 186.265V185.32C342.273 185.802 347.845 185.259 353.179 183.717L353.446 184.683C353.396 187.588 353.756 190.486 354.514 193.291Z" fill="#50AE36"/>
<path d="M351.244 134.823V135.069L330.411 133.919V133.714C330.134 132.289 330.134 130.824 330.411 129.399V128.886C337.642 129.67 344.687 131.677 351.244 134.823Z" fill="white"/>
<path d="M340.767 40.7939V41.061C335.942 44.4788 331.906 48.8919 328.932 54.0023C325.959 59.1128 324.116 64.8017 323.529 70.685L322.193 70.5617C319.343 67.1213 317.318 63.0733 316.276 58.7286C315.794 56.5549 315.849 54.2964 316.436 52.1487C317.023 50.001 318.125 48.0286 319.646 46.4024C323.262 42.9716 328.686 42.5402 333.637 42.0882C336.054 41.9185 338.445 41.4845 340.767 40.7939Z" fill="#1D1D1B"/>
<path d="M335.221 123.976C341.106 126.717 346.516 130.378 351.247 134.823C344.7 131.658 337.662 129.63 330.434 128.824C329.859 128.824 329.263 128.68 328.688 128.639C328.286 128.585 327.904 128.429 327.579 128.185C327.255 127.941 326.999 127.618 326.836 127.247C326.673 126.875 326.608 126.468 326.648 126.064C326.688 125.66 326.832 125.273 327.065 124.941C327.484 124.311 328.052 123.794 328.718 123.435C329.385 123.077 330.129 122.889 330.886 122.887C332.392 122.938 333.87 123.309 335.221 123.976Z" fill="white"/>
<path d="M320.056 456.25V456.743C319.892 458.856 319.892 460.978 320.056 463.091H319.769C298.638 461.312 278.05 455.466 259.138 445.875H258.85C258.571 443.448 258.781 440.989 259.467 438.644L259.775 438.212C263.752 441.077 268.647 442.371 273.52 441.849H275.184C285.345 448.258 296.657 452.626 308.489 454.709C312.311 455.366 316.166 455.88 320.056 456.25Z" fill="#1D1D1B"/>
<path d="M259.263 292.167C260.496 293.153 261.77 294.077 263.085 294.94L262.345 299.624L255.812 345.971H255.421C236.611 368.278 215.672 388.699 192.9 406.945L193.27 407.417C189.739 417.7 183.397 426.788 174.964 433.651C166.562 440.458 157.246 446.053 147.289 450.271C142.173 452.572 136.749 454.729 131.16 454.38C130.318 454.315 129.481 454.198 128.654 454.031C124.84 453.137 121.274 451.404 118.217 448.956C114.564 445.941 111.206 442.584 108.19 438.931C105.868 436.281 103.444 433.446 102.93 429.974C102.784 429.462 102.674 428.94 102.602 428.413C102.39 426.938 102.516 425.435 102.972 424.016C120.578 393.913 141.381 365.798 165.02 340.157L165.759 340.486C186.024 295.794 210.517 253.143 238.902 213.115C239.483 212.036 240.128 210.993 240.834 209.992L242.888 211.328C243.61 238.965 251.102 266.003 264.708 290.071L259.263 292.167ZM229.842 305.418C239.17 305.089 248.333 302.767 254.106 297.447C249.87 296.647 245.575 296.193 241.265 296.091C236.932 295.999 232.642 296.972 228.773 298.926C227.737 299.426 226.846 300.182 226.185 301.124C225.862 301.6 225.69 302.162 225.69 302.737C225.69 303.312 225.862 303.873 226.185 304.349C226.672 304.795 227.255 305.124 227.889 305.309C228.523 305.494 229.191 305.531 229.842 305.418Z" fill="#50AE36"/>
<path d="M254.104 297.447C248.433 302.768 239.167 305.089 229.839 305.418C229.189 305.532 228.521 305.494 227.886 305.309C227.252 305.124 226.669 304.796 226.182 304.35C225.86 303.873 225.688 303.312 225.688 302.737C225.688 302.162 225.86 301.6 226.182 301.124C226.843 300.182 227.735 299.426 228.771 298.926C232.64 296.972 236.93 295.999 241.263 296.091C245.573 296.194 249.867 296.647 254.104 297.447Z" fill="#50AE36"/>
<path d="M128.65 454.01V454.174C124.33 456.995 120.523 460.531 117.391 464.631C116.554 464.512 115.724 464.347 114.905 464.138C109.415 462.412 104.732 458.765 101.714 453.866C98.4795 448.536 95.9974 442.784 94.3382 436.774C94.3382 436.609 94.3382 436.445 94.1738 436.281C96.8859 433.363 99.7006 430.836 102.392 428.31H102.536C102.608 428.837 102.718 429.359 102.865 429.871C103.378 433.343 105.803 436.178 108.124 438.828C111.141 442.481 114.498 445.837 118.151 448.853C121.219 451.338 124.807 453.101 128.65 454.01Z" fill="#50AE36"/>
<path d="M50.7431 455.592L50.6404 454.894L93.3345 437.185L94.3002 436.877C95.9594 442.887 98.4415 448.639 101.676 453.969C104.694 458.868 109.377 462.515 114.866 464.241L114.599 465.083C104.737 474.739 101.327 489.9 90.2937 498.303C84.582 502.678 77.1855 504.856 72.4189 510.238C66.7589 513.773 62.3087 518.947 59.66 525.071C58.7314 525.015 57.8416 524.678 57.1081 524.106C56.3745 523.534 55.8315 522.753 55.5508 521.866C55.0957 519.035 55.2139 516.142 55.8986 513.357C56.5833 510.573 57.8205 507.954 59.5367 505.657C62.8704 501.122 66.7951 497.053 71.2067 493.557C55.3865 500.809 40.2648 507.938 25.1431 514.84C23.1628 515.873 21.024 516.567 18.815 516.895C17.6979 517.081 16.5523 516.991 15.478 516.633C14.4037 516.275 13.4332 515.659 12.6512 514.84C22.4964 504.554 33.894 495.875 46.4285 489.12L16.6988 496.618C13.8851 497.485 10.9518 497.901 8.00789 497.851C6.5317 497.802 5.08805 497.404 3.79525 496.69C2.50244 495.976 1.39727 494.966 0.570312 493.742C4.67947 491.372 8.9256 489.195 13.3087 487.209C10.1857 487.599 2.52216 487.086 1.67979 484.929C14.7703 477.351 28.7162 471.358 43.2234 467.076C39.3012 466.759 35.3552 466.918 31.4712 467.549C28.1866 471.335 23.5611 473.699 18.5684 474.143C17.3954 474.361 16.1863 474.276 15.0551 473.897C14.4988 473.698 14.0171 473.334 13.6752 472.852C13.3334 472.371 13.148 471.796 13.1443 471.205C18.5068 466.213 23.746 461.077 30.3617 458.571C36.9774 456.065 43.7986 456.537 50.7431 455.592Z" fill="white"/>
<path d="M332.631 21.0112C330.474 25.12 326.365 27.3181 322.132 29.4752C319.568 30.6457 317.101 32.0197 314.756 33.584C311.512 36.1614 308.892 39.4382 307.092 43.1697C305.292 46.9013 304.358 50.9913 304.36 55.1343C304.228 63.4697 306.898 71.6082 311.942 78.2459C309.869 73.5152 309.116 68.3115 309.764 63.1874C311.874 68.8656 314.444 74.3621 317.448 79.6224C318.29 81.1221 319.174 82.5807 320.078 84.0393" stroke="#1D1D1B" stroke-linecap="round" stroke-linejoin="round"/>
<path d="M317.225 79.8267C318.416 88.7221 314.533 97.5969 309.294 104.869C304.055 112.142 297.419 118.305 291.892 125.413C286.961 131.741 282.831 139.218 282.913 147.251C283.063 151.8 284.558 156.203 287.21 159.904C289.861 163.604 293.549 166.436 297.809 168.041C294.729 163.539 292.979 158.261 292.761 152.811C292.543 147.361 293.865 141.959 296.576 137.226C295.952 144.875 297.287 152.557 300.454 159.547C303.62 166.538 308.515 172.607 314.677 177.183C315.273 177.615 315.889 178.046 316.526 178.436C321.947 181.872 328.036 184.12 334.389 185.03C340.743 185.94 347.217 185.492 353.385 183.716C355.06 183.238 356.7 182.647 358.296 181.949" stroke="#1D1D1B" stroke-linecap="round" stroke-linejoin="round"/>
<path d="M357.678 185.709C358.089 184.477 358.438 183.244 358.746 181.991C360.11 176.543 360.589 170.91 360.164 165.31" stroke="#1D1D1B" stroke-linecap="round" stroke-linejoin="round"/>
<path d="M390.425 159.065C380.789 160.153 369.735 163.564 360.161 165.228C350.586 166.892 340.129 167.611 331.397 163.276C329.798 162.289 328.424 160.979 327.362 159.429C326.301 157.88 325.575 156.125 325.233 154.278C324.616 150.754 324.246 147.191 324.123 143.616C323.363 134.659 320.672 125.989 319.603 117.073C319.216 113.663 319.147 110.224 319.398 106.801C319.678 100.462 321.712 94.3244 325.274 89.0722L324.534 84.4088V84.039C323.796 81.0407 323.424 77.9642 323.425 74.8765C323.424 73.4622 323.507 72.0492 323.671 70.6445C324.258 64.7612 326.101 59.0723 329.075 53.9618C332.049 48.8514 336.084 44.4383 340.909 41.0205" stroke="#1D1D1B" stroke-linecap="round" stroke-linejoin="round"/>
<path d="M338.426 33.6045C341.179 34.9515 344.114 35.8926 347.137 36.3984C352.73 37.3623 358.479 36.8308 363.8 34.8577" stroke="#1D1D1B" stroke-linecap="round" stroke-linejoin="round"/>
<path d="M347.158 36.644C345.523 38.6617 343.283 40.1018 340.769 40.7528C338.472 41.4235 336.109 41.8437 333.721 42.0059C328.77 42.4579 323.346 42.8893 319.73 46.3201C318.209 47.9464 317.107 49.9187 316.52 52.0664C315.933 54.2142 315.878 56.4726 316.36 58.6463C317.402 62.991 319.427 67.0391 322.277 70.4795" stroke="#1D1D1B" stroke-linecap="round" stroke-linejoin="round"/>
<path d="M365.688 32.7213C368.862 26.7968 374.185 22.3125 380.563 20.1897C384.464 18.8253 388.538 18.0162 392.664 17.7861C395.171 17.6217 397.698 17.6012 400.204 17.6628" stroke="#1D1D1B" stroke-linecap="round" stroke-linejoin="round"/>
<path d="M392.627 17.1481C397.662 13.1797 403.979 11.1984 410.379 11.5808" stroke="#1D1D1B" stroke-linecap="round" stroke-linejoin="round"/>
<path d="M322.072 28.4478C327.089 18.1504 335.59 9.9624 346.07 5.33617C356.064 0.601909 367.45 -0.290205 378.06 2.82984" stroke="#1D1D1B" stroke-linecap="round" stroke-linejoin="round"/>
<path d="M370.477 4.63704C372.939 3.96489 375.455 3.50441 377.996 3.26062C389.668 2.41589 401.306 5.29288 411.239 11.4781" stroke="#1D1D1B" stroke-linecap="round" stroke-linejoin="round"/>
<path d="M363.801 34.8569C364.999 42.9931 368.139 50.7211 372.956 57.3867C377.774 64.0523 384.126 69.4594 391.476 73.1504H391.579" stroke="#1D1D1B" stroke-linecap="round" stroke-linejoin="round"/>
<path d="M390.159 70.4598C373.907 59.0581 370.558 51.9705 369.387 40.8975C376.331 50.7173 383.255 60.5372 390.159 70.4598Z" stroke="#1D1D1B" stroke-linecap="round" stroke-linejoin="round"/>
<path d="M391.351 73.3975C393.126 77.6288 394.502 82.0169 395.46 86.5043C396.438 91.0013 398.212 95.2871 400.699 99.1592C401.97 101.078 403.653 102.687 405.626 103.871C407.599 105.055 409.812 105.782 412.102 106C414.531 106.017 416.9 105.245 418.853 103.8C420.805 102.355 422.236 100.316 422.93 97.9883C425.851 95.6083 429.598 94.4851 433.347 94.8656C435.194 95.0729 436.957 95.7476 438.471 96.826C439.984 97.9044 441.198 99.3509 441.996 101.029C443.119 104.179 443.156 107.614 442.099 110.787C440.751 116.074 438.013 120.905 434.169 124.777C430.233 128.637 425.218 131.209 419.786 132.152C418.433 132.447 417.031 132.447 415.677 132.152C414.027 131.653 412.584 130.628 411.568 129.235C410.475 127.795 409.692 126.144 409.267 124.387C409.367 127.648 408.356 130.847 406.398 133.457C404.44 136.067 401.653 137.934 398.494 138.751C395.335 139.569 391.992 139.287 389.014 137.954C386.035 136.62 383.599 134.314 382.106 131.413C381.9 130.981 381.715 130.55 381.551 130.098" stroke="#1D1D1B" stroke-linecap="round" stroke-linejoin="round"/>
<path d="M382.127 131.433C382.835 136.046 384.994 140.313 388.291 143.616C391.826 146.887 396.033 149.348 400.618 150.826C396.613 152.657 393.146 155.487 390.551 159.044C387.242 163.446 385.408 168.781 385.312 174.287C385.361 179.234 386.783 184.071 389.421 188.257C392.058 192.443 395.807 195.814 400.248 197.995C398.012 196.648 396.22 194.674 395.096 192.319C393.971 189.963 393.562 187.33 393.92 184.744C394.274 186.544 395.006 188.247 396.069 189.742C397.131 191.237 398.5 192.488 400.084 193.413C403.284 195.224 406.752 196.513 410.357 197.235C415.99 198.875 421.857 199.57 427.718 199.289C430.406 199.023 433.035 198.329 435.505 197.235C436.565 196.777 437.582 196.227 438.546 195.591C440.239 194.495 441.721 193.103 442.922 191.482" stroke="#1D1D1B" stroke-linecap="round" stroke-linejoin="round"/>
<path d="M438.834 196.125C442.277 197.554 445.847 198.655 449.497 199.412C451.275 199.74 453.074 199.946 454.88 200.029C461.775 200.327 468.63 198.848 474.789 195.735C477.617 194.338 480.255 192.584 482.638 190.517C487.015 186.681 490.503 181.936 492.859 176.614C495.215 171.292 496.383 165.521 496.28 159.701C496.28 159.455 496.28 159.229 496.28 158.982" stroke="#1D1D1B" stroke-linecap="round" stroke-linejoin="round"/>
<path d="M467.965 85.23C468.299 89.6983 469.418 94.0727 471.273 98.152C473.243 102.581 475.689 106.783 478.566 110.684C483.991 118.264 490.36 125.064 495.311 133.035C500.271 140.677 503.458 149.332 504.639 158.365C505.816 167.408 504.166 176.594 499.914 184.661C501.058 180.49 501.33 176.128 500.711 171.847C500.093 167.566 498.597 163.459 496.318 159.783" stroke="#1D1D1B" stroke-linecap="round" stroke-linejoin="round"/>
<path d="M410.768 11.5601H411.302C430.45 13.7788 447.771 25.9406 458.187 42.1701C468.604 58.3997 472.569 78.6352 471.295 98.0695" stroke="#1D1D1B" stroke-linecap="round" stroke-linejoin="round"/>
<path d="M435.729 197.872C434.899 200.982 433.507 203.913 431.619 206.521C429.8 209.1 427.596 211.386 425.086 213.3C423.902 214.215 422.66 215.052 421.367 215.807C417.671 217.944 413.695 219.555 409.553 220.593C408.978 220.758 408.382 220.901 407.807 221.025C403.796 221.941 399.696 222.409 395.582 222.422C390.79 222.412 386.023 221.721 381.426 220.367C377.874 219.327 374.475 217.821 371.318 215.889C370.201 215.211 369.124 214.47 368.092 213.67C364.845 211.174 362.016 208.179 359.709 204.795C357.276 201.259 355.501 197.313 354.47 193.147C353.781 190.332 353.49 187.435 353.607 184.539" stroke="#1D1D1B" stroke-linecap="round" stroke-linejoin="round"/>
<path d="M316.421 178.499C307.894 183.06 298.34 185.278 288.869 187.23C279.397 189.182 269.782 190.928 260.885 194.708C252.904 197.819 245.971 203.134 240.894 210.034C240.188 211.035 239.543 212.077 238.963 213.156C210.577 253.185 186.085 295.836 165.82 340.527C164.45 343.622 163.081 346.745 161.711 349.895" stroke="#1D1D1B" stroke-linecap="round" stroke-linejoin="round"/>
<path d="M165.02 340.157C141.382 365.791 120.579 393.9 102.972 423.996C102.516 425.414 102.39 426.918 102.602 428.392C102.674 428.92 102.784 429.442 102.93 429.954C103.444 433.426 105.868 436.261 108.19 438.911C111.206 442.563 114.564 445.92 118.217 448.936C121.274 451.384 124.84 453.117 128.654 454.01C129.481 454.178 130.318 454.295 131.16 454.36C136.749 454.75 142.173 452.593 147.289 450.251C157.245 446.039 166.56 440.451 174.964 433.652C183.397 426.788 189.739 417.7 193.27 407.417" stroke="#1D1D1B" stroke-linecap="round" stroke-linejoin="round"/>
<path d="M183.285 414.463C186.531 411.998 189.737 409.499 192.901 406.965C215.676 388.693 236.615 368.244 255.421 345.909" stroke="#1D1D1B" stroke-linecap="round" stroke-linejoin="round"/>
<path d="M251.928 309.321C222.806 338.285 189.234 362.4 152.486 380.751" stroke="#1D1D1B" stroke-linecap="round" stroke-linejoin="round"/>
<path d="M137.119 395.871C151.953 400.165 167.938 398.255 182.628 393.283C197.318 388.311 210.673 380.443 223.987 372.739" stroke="#1D1D1B" stroke-linecap="round" stroke-linejoin="round"/>
<path d="M102.457 428.413C99.6624 430.94 96.8476 433.467 94.2383 436.384C94.2383 436.548 94.2383 436.713 94.4026 436.877C96.0618 442.887 98.544 448.639 101.779 453.969C104.796 458.869 109.479 462.516 114.969 464.241C115.788 464.451 116.618 464.616 117.455 464.734C120.587 460.635 124.395 457.099 128.714 454.278" stroke="#1D1D1B" stroke-linecap="round" stroke-linejoin="round"/>
<path d="M242.971 211.369C243.693 239.006 251.185 266.044 264.79 290.113" stroke="#1D1D1B" stroke-linecap="round" stroke-linejoin="round"/>
<path d="M241.184 265.05C244.258 275.742 250.575 285.217 259.264 292.167C260.497 293.154 261.77 294.078 263.085 294.941" stroke="#1D1D1B" stroke-linecap="round" stroke-linejoin="round"/>
<path d="M254.104 297.447C249.867 296.647 245.573 296.194 241.263 296.091C236.93 295.999 232.64 296.972 228.771 298.926C227.735 299.426 226.843 300.182 226.182 301.124C225.86 301.6 225.688 302.162 225.688 302.737C225.688 303.312 225.86 303.873 226.182 304.35C226.669 304.796 227.252 305.124 227.886 305.309C228.521 305.494 229.189 305.532 229.839 305.418C239.167 305.089 248.433 302.768 254.104 297.447Z" stroke="#1D1D1B" stroke-linecap="round" stroke-linejoin="round"/>
<path d="M262.344 299.625L255.81 345.972L249.256 392.339C248.017 399.376 247.5 406.521 247.715 413.663C247.952 420.857 250.39 427.805 254.701 433.57C255.014 433.973 255.35 434.357 255.708 434.72C256.898 436.033 258.236 437.205 259.694 438.213C263.671 441.077 268.565 442.372 273.439 441.849" stroke="#1D1D1B" stroke-linecap="round" stroke-linejoin="round"/>
<path d="M257.209 425.434C262.174 431.917 268.238 437.48 275.125 441.869C285.285 448.279 296.598 452.647 308.43 454.729C312.292 455.428 316.169 455.941 320.059 456.27C323.14 456.517 326.222 456.66 329.325 456.702C340.725 456.745 352.108 455.81 363.349 453.908L368.403 453.065" stroke="#1D1D1B" stroke-linecap="round" stroke-linejoin="round"/>
<path d="M345.061 450.086L368.421 452.962L372.366 453.455L404.315 457.564C410.532 458.491 416.807 458.978 423.093 459.022H424.881C426.134 459.022 427.408 458.879 428.661 458.714C430.865 458.498 433.05 458.113 435.195 457.564C438.497 456.744 441.661 455.442 444.584 453.702C450.881 449.739 455.809 443.937 458.699 437.082C461.545 429.536 462.939 421.52 462.808 413.457" stroke="#1D1D1B" stroke-linecap="round" stroke-linejoin="round"/>
<path d="M279.295 350.737C297.068 383.402 323.068 410.858 354.719 430.385" stroke="#1D1D1B" stroke-linecap="round" stroke-linejoin="round"/>
<path d="M271.098 396.837C288.397 414.75 309.915 428.036 333.68 435.48" stroke="#1D1D1B" stroke-linecap="round" stroke-linejoin="round"/>
<path d="M526.236 245.143C514.519 263.856 506.394 284.59 502.279 306.281" stroke="#1D1D1B" stroke-linecap="round" stroke-linejoin="round"/>
<path d="M496.279 320.271C510.329 308.627 520.12 292.652 524.119 274.849" stroke="#1D1D1B" stroke-linecap="round" stroke-linejoin="round"/>
<path d="M496.28 315.854C492.685 334.056 489.11 352.319 483.316 369.966C477.522 387.613 469.489 404.685 457.736 419.065" stroke="#1D1D1B" stroke-linecap="round" stroke-linejoin="round"/>
<path d="M526.315 317.683C521.149 337.259 512.992 355.92 502.132 373.007C491.285 390.066 479.401 406.442 466.547 422.045" stroke="#1D1D1B" stroke-linecap="round" stroke-linejoin="round"/>
<path d="M469.508 426.605C483.253 424.941 493.32 410.91 507.148 410.17" stroke="#1D1D1B" stroke-linecap="round" stroke-linejoin="round"/>
<path d="M461.906 436.98C469.328 433.521 477.607 432.335 485.701 433.571C493.795 434.807 501.343 438.409 507.395 443.924C510.079 446.215 511.965 449.302 512.778 452.737C512.985 453.788 512.985 454.87 512.778 455.921" stroke="#1D1D1B" stroke-linecap="round" stroke-linejoin="round"/>
<path d="M453.791 456.065C458.18 450.875 464.279 447.422 470.988 446.328C477.651 445.286 484.448 445.481 491.041 446.903C496.892 447.776 502.494 449.877 507.477 453.066C508.693 453.918 509.821 454.889 510.847 455.963C514.031 459.095 515.942 463.296 516.209 467.755" stroke="#1D1D1B" stroke-linecap="round" stroke-linejoin="round"/>
<path d="M474.809 195.776C490.526 207.013 511.401 210.465 525.064 224.126C534.864 233.884 539.631 247.813 540.884 261.598C542.137 275.383 540.144 289.229 538.172 302.932C534.802 326.516 531.419 350.107 528.022 373.705C526.461 384.613 524.838 395.687 520.297 405.732C517.129 413.052 512.03 419.372 505.545 424.016C503.029 425.793 500.258 427.178 497.327 428.125" stroke="#1D1D1B" stroke-linecap="round" stroke-linejoin="round"/>
<path d="M505.936 424.592C508.403 429.216 509.359 434.497 508.668 439.692C510.837 440.955 512.519 442.908 513.446 445.239C514.374 447.57 514.493 450.145 513.784 452.552" stroke="#1D1D1B" stroke-linecap="round" stroke-linejoin="round"/>
<path d="M504.022 470.938C501.986 471.534 500.022 472.354 498.167 473.383C494.291 475.539 490.941 478.527 488.358 482.133C485.776 485.738 484.024 489.871 483.23 494.235C481.422 505.061 489.661 516.833 498.639 523.14" stroke="#1D1D1B" stroke-linecap="round" stroke-linejoin="round"/>
<path d="M507.969 490.496C507.116 488.098 506.504 485.62 506.14 483.101C505.986 481.67 506.027 480.226 506.263 478.807C506.622 476.889 507.512 475.109 508.831 473.671C510.312 472.121 511.99 470.774 513.824 469.665L516.433 467.96C521.416 464.704 526.612 461.787 531.987 459.229C532.584 459.101 533.187 459.005 533.795 458.941C540.657 458.263 547.992 461.653 554.875 459.167C555.169 461.784 554.618 464.427 553.302 466.708C551.986 468.989 549.974 470.788 547.56 471.843C545.129 472.84 542.52 473.333 539.892 473.291C537.264 473.248 534.672 472.672 532.274 471.596" stroke="#1D1D1B" stroke-linecap="round" stroke-linejoin="round"/>
<path d="M533.569 473.157C532.501 474.697 531.057 475.938 529.374 476.761C527.69 477.585 525.824 477.963 523.953 477.861" stroke="#1D1D1B" stroke-linecap="round" stroke-linejoin="round"/>
<path d="M543.554 476.341C544.479 482.504 540.945 488.668 535.932 492.406C530.711 495.861 524.721 497.978 518.488 498.57" stroke="#1D1D1B" stroke-linecap="round" stroke-linejoin="round"/>
<path d="M561.203 454.318C562.583 455.827 563.886 457.404 565.107 459.043C567.69 462.46 569.946 466.113 571.846 469.952C572.903 472.039 573.836 474.186 574.64 476.382C576.142 480.378 577.27 484.504 578.01 488.708V489.078" stroke="#1D1D1B" stroke-linecap="round" stroke-linejoin="round"/>
<path d="M501.477 508.739C508.991 510.835 516.769 511.839 524.57 511.717C530.544 511.655 536.492 510.917 542.301 509.519C555.656 506.335 568.065 498.344 578.174 488.976" stroke="#1D1D1B" stroke-linecap="round" stroke-linejoin="round"/>
<path d="M506.079 478.848C503.085 483.201 501.056 488.144 500.128 493.345C499.199 498.546 499.393 503.886 500.696 509.006C501.172 510.877 501.804 512.705 502.587 514.47C504 518.351 506.855 521.537 510.558 523.366C512.182 524.011 513.944 524.223 515.674 523.982C516.225 523.917 516.769 523.8 517.297 523.633C518.446 523.288 519.519 522.73 520.462 521.989C521.859 520.914 522.956 519.496 523.647 517.873C524.338 516.251 524.6 514.477 524.406 512.724" stroke="#1D1D1B" stroke-linecap="round" stroke-linejoin="round"/>
<path d="M498.375 473.897C501.67 473.159 505.061 472.951 508.422 473.281" stroke="#1D1D1B" stroke-linecap="round" stroke-linejoin="round"/>
<path d="M442.635 501.445C448.011 507.613 454.545 512.666 461.866 516.319C468.581 519.593 475.618 522.161 482.863 523.982C488.103 525.42 493.876 526.611 498.54 523.222C504.081 525.006 510.001 525.261 515.675 523.961C516.222 523.876 516.764 523.76 517.298 523.612" stroke="#1D1D1B" stroke-linecap="round" stroke-linejoin="round"/>
<path d="M533.672 458.058C538.13 453.312 544.787 451.525 550.766 448.936C557.771 445.757 564.206 441.447 569.812 436.179C582.098 434.628 594.151 431.593 605.705 427.14C606.26 433.179 602.151 438.932 596.891 441.972C591.632 445.013 585.406 445.875 579.407 446.697C575.473 451.116 570.992 455.017 566.073 458.304" stroke="#1D1D1B" stroke-linecap="round" stroke-linejoin="round"/>
<path d="M574.29 453.292C579.224 452.473 584.05 451.094 588.672 449.183C596.268 448.838 603.879 449.085 611.437 449.922C616.737 450.518 622.038 451.135 627.586 451.833C627.275 453.36 626.632 454.799 625.701 456.049C624.771 457.299 623.576 458.329 622.203 459.064L621.73 459.331C618.733 460.738 615.403 461.279 612.115 460.893C608.827 460.605 605.643 459.701 602.253 459.208C596.673 460.77 590.928 461.666 585.138 461.879C581.71 465.366 577.477 467.956 572.811 469.418" stroke="#1D1D1B" stroke-linecap="round" stroke-linejoin="round"/>
<path d="M575.318 476.136C578.486 475.445 581.597 474.517 584.626 473.362C587.297 472.397 589.947 471.308 592.659 469.973C601.288 464.2 613.451 467.138 622.409 461.755C623.092 461.36 623.709 460.861 624.238 460.276L622.512 459.413" stroke="#1D1D1B" stroke-linecap="round" stroke-linejoin="round"/>
<path d="M584.77 473.752C589.023 473.752 593.296 473.752 598.063 473.752C604.841 475.782 611.807 477.117 618.855 477.738C618.817 478.802 618.481 479.834 617.885 480.716C617.289 481.599 616.458 482.296 615.486 482.73C613.539 483.556 611.435 483.948 609.322 483.88C604.497 483.961 599.678 483.541 594.94 482.627" stroke="#1D1D1B" stroke-linecap="round" stroke-linejoin="round"/>
<path d="M594.427 482.709C589.536 485.812 584.036 487.829 578.299 488.626" stroke="#1D1D1B" stroke-linecap="round" stroke-linejoin="round"/>
<path d="M93.3328 437.185L50.6387 454.894" stroke="#1D1D1B" stroke-linecap="round" stroke-linejoin="round"/>
<path d="M53.8454 455.078C52.8181 455.284 51.7909 455.468 50.743 455.592C43.8807 456.537 36.7924 456.249 30.3616 458.694C23.9308 461.139 18.5067 466.336 13.1442 471.328C13.1479 471.919 13.3333 472.494 13.6751 472.975C14.017 473.457 14.4987 473.821 15.055 474.019C16.1862 474.398 17.3953 474.483 18.5683 474.266C23.561 473.821 28.1865 471.457 31.4711 467.671C35.3551 467.04 39.3012 466.882 43.2233 467.199C28.718 471.468 14.7721 477.447 1.67969 485.01C2.52206 487.065 10.1856 487.681 13.3086 487.291L14.0072 487.167" stroke="#1D1D1B" stroke-linecap="round" stroke-linejoin="round"/>
<path d="M42.1548 476.793C32.2959 479.5 22.6756 483.012 13.3907 487.291C9.00763 489.305 4.7615 491.496 0.652344 493.865C1.47931 495.089 2.58448 496.099 3.87728 496.813C5.17008 497.528 6.61373 497.925 8.08992 497.974C11.0338 498.025 13.9671 497.609 16.7808 496.741L46.4284 489.12L47.0653 488.955" stroke="#1D1D1B" stroke-linecap="round" stroke-linejoin="round"/>
<path d="M52.0148 486.407C50.1657 487.291 48.3371 488.236 46.5291 489.201C34.0265 495.951 22.6573 504.616 12.834 514.881C13.616 515.7 14.5864 516.315 15.6608 516.673C16.7351 517.031 17.8807 517.121 18.9977 516.935C21.2068 516.608 23.3456 515.913 25.3258 514.881C40.4475 507.876 55.5692 500.85 71.3895 493.598C66.9779 497.093 63.0532 501.163 59.7195 505.698C58.0033 507.995 56.7661 510.614 56.0814 513.398C55.3967 516.182 55.2784 519.076 55.7336 521.907C56.0143 522.794 56.5572 523.575 57.2908 524.147C58.0244 524.719 58.9141 525.055 59.8427 525.112C62.4915 518.987 66.9416 513.814 72.6017 510.279C77.3683 504.897 84.7648 502.719 90.4765 498.343C101.448 489.941 104.859 474.718 114.782 465.021" stroke="#1D1D1B" stroke-linecap="round" stroke-linejoin="round"/>
<path d="M58.4277 485.38C59.6282 483.355 61.2632 481.622 63.2149 480.306" stroke="#1D1D1B" stroke-linecap="round" stroke-linejoin="round"/>
<path d="M53.8448 469.315C52.0553 470.968 50.6099 472.958 49.5918 475.17" stroke="#1D1D1B" stroke-linecap="round" stroke-linejoin="round"/>
<path d="M47.5977 465.576L50.1864 462.967" stroke="#1D1D1B" stroke-linecap="round" stroke-linejoin="round"/>
<path d="M363.39 454.195C362.918 458.982 362.568 463.809 362.568 468.986C362.568 470.178 362.568 471.39 362.568 472.623C365.219 472.951 367.869 473.218 370.54 473.403C376.918 473.884 383.319 473.994 389.709 473.732H390.696C390.696 473.177 390.696 472.623 390.696 472.068C390.696 470.507 390.696 468.945 390.696 467.487C384.388 467.261 378.08 467.035 371.773 466.85C371.529 462.676 371.667 458.488 372.184 454.339" stroke="#1D1D1B" stroke-linecap="round" stroke-linejoin="round"/>
<path d="M391.023 458.304L391.392 462.639L375.593 462.824C375.226 461.245 375.37 459.591 376.004 458.099C381.12 458.304 386.153 458.407 391.023 458.304Z" stroke="#1D1D1B" stroke-linecap="round" stroke-linejoin="round"/>
<path d="M329.384 457.359C328.674 459.84 328.437 462.432 328.686 465.001C328.724 465.539 328.793 466.074 328.891 466.604L328.727 466.069" stroke="#1D1D1B" stroke-linecap="round" stroke-linejoin="round"/>
<path d="M320.016 456.68C319.851 458.793 319.851 460.915 320.016 463.028C320.016 463.87 320.016 464.692 320.221 465.514" stroke="#1D1D1B" stroke-linecap="round" stroke-linejoin="round"/>
<path d="M259.408 438.644C258.722 440.989 258.513 443.448 258.792 445.875C258.853 446.671 258.977 447.461 259.162 448.237C259.264 448.71 259.408 449.182 259.552 449.634" stroke="#1D1D1B" stroke-linecap="round" stroke-linejoin="round"/>
<path d="M255.172 435.254C253.703 439.069 253.354 443.224 254.166 447.231C254.298 447.925 254.469 448.611 254.679 449.285" stroke="#1D1D1B" stroke-linecap="round" stroke-linejoin="round"/>
<path d="M259.078 445.834C277.99 455.425 298.578 461.271 319.709 463.05" stroke="#1D1D1B" stroke-linecap="round" stroke-linejoin="round"/>
<path d="M329.59 464.877C339.957 466.996 350.462 468.369 361.025 468.986" stroke="#1D1D1B" stroke-linecap="round" stroke-linejoin="round"/>
<path d="M391.639 471.945C401.406 473.525 411.337 473.836 421.183 472.869" stroke="#1D1D1B" stroke-linecap="round" stroke-linejoin="round"/>
<path d="M423.094 459.886C423.583 464.317 423.078 468.802 421.614 473.013C421.426 473.613 421.206 474.203 420.957 474.78" stroke="#1D1D1B" stroke-linecap="round" stroke-linejoin="round"/>
<path d="M428.784 459.886C428.662 463.751 428.174 467.596 427.325 471.37C427.028 472.526 426.665 473.665 426.236 474.78" stroke="#1D1D1B" stroke-linecap="round" stroke-linejoin="round"/>
<path d="M427.367 471.37L433.86 470.774" stroke="#1D1D1B" stroke-linecap="round" stroke-linejoin="round"/>
<path d="M435.177 457.421C435.323 461.89 435.034 466.362 434.314 470.775" stroke="#1D1D1B" stroke-linecap="round" stroke-linejoin="round"/>
<path d="M253.508 447.354C232.263 475.392 217.525 507.806 210.362 542.245C203.13 583.785 223.717 629.597 247.591 665.98" stroke="#1D1D1B" stroke-linecap="round" stroke-linejoin="round"/>
<path d="M375.221 599.008C375.914 599.581 376.535 600.236 377.07 600.959C378.644 603.191 379.601 605.799 379.844 608.52C380.14 610.948 380.14 613.404 379.844 615.833C379.844 616.429 379.679 617.066 379.576 617.764" stroke="#1D1D1B" stroke-linecap="round" stroke-linejoin="round"/>
<path d="M375.633 610.162C376.907 612.71 378.18 615.257 379.516 617.825C386.851 632.205 394.843 646.689 402.116 660.967L404.664 666" stroke="#1D1D1B" stroke-linecap="round" stroke-linejoin="round"/>
<path d="M290.123 481.703C324.191 512.769 352.683 549.443 374.361 590.132" stroke="#1D1D1B" stroke-linecap="round" stroke-linejoin="round"/>
<path d="M268.879 531.522C289.425 536.637 310.299 541.979 327.763 553.853C343.892 564.803 355.972 580.56 367.745 596.111" stroke="#1D1D1B" stroke-linecap="round" stroke-linejoin="round"/>
<path d="M300.025 578.053C320.464 580.274 340.487 585.364 359.505 593.173" stroke="#1D1D1B" stroke-linecap="round" stroke-linejoin="round"/>
<path d="M389.853 475.519C399.815 521.109 398.176 568.471 385.086 613.264" stroke="#1D1D1B" stroke-linecap="round" stroke-linejoin="round"/>
<path d="M370.477 475.971C381.953 516.269 385.402 558.428 380.626 600.055" stroke="#1D1D1B" stroke-linecap="round" stroke-linejoin="round"/>
<path d="M383.605 616.285C384.14 615.319 384.694 614.333 385.208 613.347C402.435 581.877 416.39 548.725 426.854 514.409" stroke="#1D1D1B" stroke-linecap="round" stroke-linejoin="round"/>
<path d="M387.242 620.784C397.767 613.904 407.329 605.655 415.678 596.254" stroke="#1D1D1B" stroke-linecap="round" stroke-linejoin="round"/>
<path d="M389.646 624.44C394.298 624.01 398.95 625.264 402.755 627.974V627.81" stroke="#1D1D1B" stroke-linecap="round" stroke-linejoin="round"/>
<path d="M402.469 660.762C416.317 630.83 430.267 600.631 437.972 568.541C443.529 546.635 445.102 523.908 442.615 501.446C441.359 491.072 438.89 480.881 435.26 471.082" stroke="#1D1D1B" stroke-linecap="round" stroke-linejoin="round"/>
<path d="M324.578 66.8029C326.005 66.7666 327.415 67.111 328.665 67.8006C329.914 68.4903 330.957 69.5003 331.687 70.7267" stroke="#1D1D1B" stroke-width="0.5" stroke-linecap="round" stroke-linejoin="round"/>
<path d="M352.088 71.4257C353.964 69.5786 356.199 68.1367 358.656 67.1896C361.112 66.2425 363.737 65.8104 366.367 65.92C371.611 66.1756 376.703 67.7667 381.16 70.5423" stroke="#1D1D1B" stroke-width="0.5" stroke-linecap="round" stroke-linejoin="round"/>
<path d="M354.041 87.2851C354.275 85.8555 354.92 84.5249 355.898 83.4559C356.876 82.387 358.144 81.626 359.547 81.2658C361.955 80.8784 364.422 81.1922 366.656 82.1697C370.549 83.5544 374.239 85.4545 377.628 87.8193" stroke="#1D1D1B" stroke-linecap="round" stroke-linejoin="round"/>
<path d="M358.027 84.4082C357.309 86.1944 357.309 88.1893 358.027 89.9755C358.027 90.181 358.233 90.3864 358.438 90.4275C358.644 90.4686 358.952 89.9345 358.911 89.5441C359.12 88.6729 359.15 87.7682 358.998 86.8852C358.846 86.0022 358.516 85.1594 358.027 84.4082Z" stroke="#1D1D1B" stroke-width="0.5" stroke-linecap="round" stroke-linejoin="round"/>
<path d="M328.192 83.4854C327.744 84.2279 327.482 85.0677 327.428 85.9333C327.375 86.799 327.531 87.6647 327.884 88.4569C328.048 88.8062 328.418 89.1965 328.767 89.0321C328.881 88.9482 328.969 88.8351 329.024 88.7049C329.078 88.5747 329.096 88.4322 329.076 88.2926C329.189 86.6414 328.885 84.9882 328.192 83.4854Z" stroke="#1D1D1B" stroke-width="0.5" stroke-linecap="round" stroke-linejoin="round"/>
<path d="M325.275 84.4091C325.732 83.4909 326.367 82.6736 327.145 82.0055C327.532 81.6711 327.991 81.4304 328.487 81.3021C328.982 81.1738 329.5 81.1615 330.001 81.266C330.943 81.6036 331.76 82.2198 332.343 83.0327C333.865 84.8074 335.24 86.7038 336.452 88.7028" stroke="#1D1D1B" stroke-linecap="round" stroke-linejoin="round"/>
<path d="M334.972 75.4717C336.53 77.2411 337.638 79.3599 338.203 81.6486C338.769 83.9374 338.774 86.3285 338.218 88.6196C338.218 88.8045 338.116 88.9894 338.074 89.1538C336.554 94.3719 332.301 98.3779 328.254 102.055C326.764 103.251 325.486 104.689 324.473 106.308C324.336 106.567 324.265 106.857 324.268 107.15C324.271 107.432 324.326 107.711 324.432 107.972C324.649 108.506 324.954 108.999 325.336 109.43C326.98 111.441 328.936 113.175 331.13 114.566" stroke="#1D1D1B" stroke-width="0.5" stroke-linecap="round" stroke-linejoin="round"/>
<path d="M334.396 111.958C335.11 111.954 335.814 112.117 336.453 112.434C337.092 112.752 337.647 113.215 338.074 113.786" stroke="#1D1D1B" stroke-width="0.5" stroke-linecap="round" stroke-linejoin="round"/>
<path d="M341.404 116.067C342.532 115.641 343.504 114.883 344.19 113.892C344.876 112.901 345.245 111.725 345.246 110.52" stroke="#1D1D1B" stroke-width="0.5" stroke-linecap="round" stroke-linejoin="round"/>
<path d="M351.247 134.823C346.516 130.379 341.106 126.717 335.221 123.976C333.864 123.338 332.386 122.995 330.886 122.969C330.129 122.971 329.385 123.16 328.718 123.518C328.052 123.876 327.484 124.393 327.065 125.024C326.832 125.356 326.688 125.743 326.648 126.146C326.608 126.55 326.673 126.957 326.836 127.329C326.999 127.701 327.255 128.024 327.579 128.268C327.904 128.512 328.286 128.668 328.688 128.721C329.263 128.721 329.859 128.721 330.434 128.906C337.657 129.686 344.694 131.687 351.247 134.823Z" stroke="#1D1D1B" stroke-width="0.5" stroke-linecap="round" stroke-linejoin="round"/>
<path d="M330.37 129.338C330.093 130.763 330.093 132.227 330.37 133.652" stroke="#1D1D1B" stroke-width="0.5" stroke-linecap="round" stroke-linejoin="round"/>
<path d="M328.604 133.816H330.391L351.224 134.967H351.471" stroke="#1D1D1B" stroke-width="0.5" stroke-linecap="round" stroke-linejoin="round"/>
<path d="M331.77 142.136C334.644 143.649 337.922 144.216 341.138 143.759" stroke="#1D1D1B" stroke-width="0.5" stroke-linecap="round" stroke-linejoin="round"/>
<path d="M336.822 186.182C337.515 191.395 338.897 196.494 340.931 201.343C343.028 206.477 345.791 211.312 349.15 215.724C352.552 220.177 356.548 224.145 361.025 227.516C362.361 228.523 363.717 229.447 365.134 230.331C369.448 233.029 374.088 235.169 378.941 236.699C385.71 238.822 392.787 239.795 399.877 239.575C405.762 239.404 411.59 238.372 417.177 236.514L417.649 236.35C422.913 234.518 427.898 231.967 432.463 228.769C436.66 225.82 440.482 222.37 443.845 218.497C448.62 213.044 452.384 206.783 454.961 200.008" stroke="#1D1D1B" stroke-width="0.5" stroke-linecap="round" stroke-linejoin="round"/>
<path d="M432.113 206.808C435.745 210.894 439.607 214.77 443.681 218.415" stroke="#1D1D1B" stroke-width="0.5" stroke-linecap="round" stroke-linejoin="round"/>
<path d="M437.746 197.626C442.665 200.036 447.384 202.832 451.861 205.987" stroke="#1D1D1B" stroke-width="0.5" stroke-linecap="round" stroke-linejoin="round"/>
<path d="M432.482 228.892L432.379 228.769L421.613 216.135" stroke="#1D1D1B" stroke-width="0.5" stroke-linecap="round" stroke-linejoin="round"/>
<path d="M417.466 236.021L409.699 220.963" stroke="#1D1D1B" stroke-width="0.5" stroke-linecap="round" stroke-linejoin="round"/>
<path d="M395.625 223.079C396.614 228.584 397.988 234.014 399.734 239.329" stroke="#1D1D1B" stroke-width="0.5" stroke-linecap="round" stroke-linejoin="round"/>
<path d="M381.305 221.127C380.545 226.16 379.764 231.193 379.004 236.227" stroke="#1D1D1B" stroke-width="0.5" stroke-linecap="round" stroke-linejoin="round"/>
<path d="M367.681 214.328L361.168 227.229" stroke="#1D1D1B" stroke-width="0.5" stroke-linecap="round" stroke-linejoin="round"/>
<path d="M359.835 204.754L349.562 215.375" stroke="#1D1D1B" stroke-width="0.5" stroke-linecap="round" stroke-linejoin="round"/>
<path d="M353.506 193.454C348.898 195.4 344.626 198.063 340.85 201.343" stroke="#1D1D1B" stroke-width="0.5" stroke-linecap="round" stroke-linejoin="round"/>
<path d="M247.633 665.98H404.644" stroke="#1D1D1B" stroke-linecap="round" stroke-linejoin="round"/>
</svg>
