<svg width="598" height="635" viewBox="0 0 598 635" fill="none" xmlns="http://www.w3.org/2000/svg">
<path d="M542.097 90.1436H120.525V633.613H542.097V90.1436Z" fill="#EDEDED" stroke="black" stroke-width="0.961384" stroke-miterlimit="10"/>
<path d="M597.368 429.882C597.073 431.335 596.46 432.704 595.575 433.894C594.69 435.083 593.554 436.062 592.247 436.762L591.798 437.016C588.947 438.354 585.779 438.869 582.651 438.501C579.524 438.228 576.495 437.368 573.27 436.899C567.962 438.384 562.497 439.237 556.989 439.439C553.729 442.757 549.701 445.221 545.263 446.612L544.227 447.14C542.42 443.487 540.274 440.013 537.816 436.762L538.735 436.078C541.245 434.403 543.636 432.555 545.888 430.547L546.553 431.289C551.247 430.51 555.837 429.199 560.234 427.381C567.459 427.053 574.7 427.288 581.889 428.084C587.049 428.631 592.091 429.218 597.368 429.882Z" fill="white"/>
<path d="M592.503 437.212L594.145 438.033C593.641 438.589 593.054 439.063 592.405 439.44C583.884 444.463 572.314 441.668 564.105 447.257C561.525 448.489 559.004 449.564 556.463 450.482C553.582 451.581 550.622 452.463 547.61 453.121L546.965 453.355C546.199 451.266 545.312 449.223 544.307 447.238L545.342 446.71C549.781 445.319 553.809 442.855 557.069 439.537C562.577 439.335 568.042 438.482 573.349 436.997C576.574 437.466 579.604 438.326 582.731 438.599C585.859 438.967 589.027 438.452 591.878 437.114L592.327 436.86L592.503 437.212Z" fill="white"/>
<path d="M589.028 454.528C588.992 455.54 588.672 456.522 588.105 457.361C587.539 458.201 586.748 458.865 585.823 459.277C583.971 460.063 581.97 460.436 579.959 460.372C575.37 460.448 570.785 460.048 566.278 459.179H565.985C561.333 462.131 556.101 464.051 550.643 464.808H550.311C549.607 460.809 548.534 456.883 547.105 453.082L547.75 452.847C550.763 452.189 553.723 451.308 556.604 450.208L556.741 450.58C560.786 450.58 564.852 450.58 569.386 450.58C575.784 452.554 582.364 453.877 589.028 454.528Z" fill="white"/>
<path d="M537.897 436.762C540.354 440.013 542.5 443.487 544.307 447.14C545.313 449.125 546.2 451.168 546.965 453.257C548.394 457.059 549.467 460.984 550.171 464.984V465.336C540.555 474.17 528.672 481.773 516.046 484.88C510.568 486.166 504.963 486.834 499.336 486.874C491.948 486.98 484.583 486.025 477.466 484.04L476.723 484.216C475.481 479.363 475.286 474.302 476.152 469.368C477.018 464.435 478.925 459.742 481.746 455.603H481.922C482.263 453.778 483.11 452.085 484.365 450.717C485.773 449.242 487.37 447.961 489.114 446.905L491.596 445.283C496.336 442.186 501.279 439.411 506.391 436.977C506.959 436.856 507.533 436.764 508.111 436.703L507.994 435.863C512.235 431.348 518.567 429.648 524.255 427.185C530.919 424.16 537.039 420.06 542.372 415.048C554.06 413.573 565.525 410.686 576.516 406.449C577.044 412.195 573.135 417.667 568.132 420.56C563.128 423.452 557.207 424.273 551.5 425.055C547.755 429.245 543.492 432.943 538.815 436.058L537.897 436.762Z" fill="white"/>
<path d="M411.642 217.69C415.634 214.884 419.27 211.602 422.469 207.918C427.011 202.729 430.592 196.773 433.043 190.328V190.191C439.601 190.475 446.122 189.068 451.981 186.106C466.932 196.797 486.79 200.08 499.786 213.077C509.109 222.361 513.643 235.612 514.836 248.726C516.028 261.84 514.132 275.013 512.256 288.049C509.05 310.486 505.832 332.93 502.601 355.38C501.116 365.758 499.572 376.292 495.252 385.849C492.239 392.813 487.388 398.826 481.219 403.244L481.591 403.791C483.938 408.19 484.847 413.214 484.19 418.156C486.253 419.357 487.853 421.215 488.735 423.433C489.618 425.651 489.731 428.101 489.057 430.391L488.099 430.567C487.326 427.299 485.532 424.362 482.978 422.182C477.222 416.935 470.042 413.509 462.342 412.333C454.642 411.158 446.767 412.286 439.707 415.576H436.639C433.889 422.098 429.202 427.618 423.212 431.388C420.431 433.044 417.421 434.282 414.28 435.062C412.239 435.585 410.161 435.95 408.065 436.156C406.873 436.313 405.661 436.391 404.469 436.45H402.768C396.789 436.408 390.819 435.944 384.905 435.062L354.513 431.153L350.8 430.977L345.992 431.779C335.313 433.593 324.498 434.489 313.666 434.456C310.734 434.456 307.802 434.28 304.851 434.046C301.151 433.733 297.463 433.244 293.789 432.58C282.519 430.63 271.738 426.501 262.049 420.423H260.466C255.83 420.921 251.174 419.689 247.391 416.964C246.004 416.005 244.732 414.89 243.599 413.641C243.259 413.296 242.939 412.93 242.642 412.547C238.541 407.063 236.221 400.452 235.997 393.608C235.792 386.814 236.283 380.016 237.462 373.321L243.677 329.21L249.893 285.118L250.596 280.662C249.293 279.841 248.081 278.961 246.961 278.023L252.218 276.069C239.276 253.171 232.149 227.448 231.462 201.155L229.508 199.885C234.337 193.321 240.932 188.265 248.524 185.305C256.987 181.709 266.114 180.047 275.144 178.191C284.173 176.334 293.242 174.282 301.353 169.884L301.451 169.748C307.288 173.467 313.941 175.714 320.839 176.295V177.194C321.498 182.154 322.812 187.004 324.747 191.618C326.742 196.501 329.37 201.101 332.565 205.299C335.802 209.536 339.603 213.31 343.862 216.517C345.132 217.475 346.422 218.354 347.771 219.195C351.874 221.762 356.288 223.798 360.904 225.253C367.343 227.274 374.075 228.199 380.82 227.99C386.418 227.825 391.962 226.844 397.276 225.078L397.726 224.921C402.673 223.158 407.355 220.724 411.642 217.69Z" fill="#50AE36"/>
<path d="M499.338 487.792C499.511 489.48 499.241 491.184 498.556 492.736C497.871 494.289 496.793 495.636 495.429 496.645C494.505 497.345 493.457 497.862 492.341 498.17C491.833 498.31 491.317 498.421 490.797 498.502C489.151 498.731 487.474 498.529 485.93 497.915C482.407 496.176 479.691 493.145 478.347 489.453C477.603 487.773 477.001 486.034 476.549 484.254L477.292 484.078C484.467 486.067 491.893 487.009 499.338 486.873V487.792Z" fill="black"/>
<path d="M474.127 450.423C470.44 452.475 467.253 455.318 464.796 458.748C462.34 462.178 460.673 466.11 459.918 470.261C458.198 480.561 466.035 491.76 474.576 497.76C470.139 500.985 464.648 499.851 459.664 498.483C452.771 496.751 446.077 494.308 439.689 491.193C432.725 487.717 426.51 482.91 421.396 477.043C420.2 467.174 417.852 457.479 414.399 448.156L413.5 447.922C414.184 443.724 414.459 439.469 414.321 435.218C417.462 434.438 420.472 433.2 423.253 431.544C429.243 427.774 433.93 422.254 436.68 415.732H439.748C446.809 412.451 454.683 411.332 462.379 412.514C470.075 413.696 477.249 417.128 483 422.377C485.554 424.557 487.347 427.494 488.12 430.762C488.318 431.762 488.318 432.791 488.12 433.791H486.42C489.449 436.771 491.267 440.768 491.521 445.01L491.658 445.225L489.176 446.847C487.431 447.902 485.834 449.184 484.426 450.658L484.036 450.287C480.839 449.973 477.613 450.171 474.478 450.873L474.127 450.423Z" fill="#50AE36"/>
<path d="M486.005 497.877C487.549 498.49 489.226 498.692 490.871 498.463C485.474 499.7 479.842 499.457 474.571 497.759C466.03 491.779 458.193 480.56 459.913 470.26C460.669 466.109 462.335 462.178 464.792 458.748C467.248 455.317 470.435 452.474 474.122 450.423L474.415 450.892C477.549 450.19 480.775 449.992 483.972 450.306L484.363 450.677C483.108 452.045 482.261 453.738 481.92 455.563H481.744C478.896 459.705 476.965 464.407 476.082 469.355C475.199 474.303 475.384 479.383 476.623 484.254C477.076 486.035 477.677 487.774 478.421 489.453C479.774 493.13 482.489 496.146 486.005 497.877Z" fill="#50AE36"/>
<path d="M417.485 186.203C416.569 186.808 415.601 187.331 414.593 187.767C412.243 188.808 409.743 189.468 407.185 189.721C401.61 189.988 396.029 189.328 390.67 187.767C387.241 187.081 383.942 185.853 380.898 184.131C379.391 183.251 378.089 182.061 377.078 180.639C376.068 179.217 375.371 177.596 375.035 175.884C374.694 178.343 375.083 180.849 376.153 183.09C377.223 185.331 378.927 187.208 381.054 188.49C376.829 186.415 373.264 183.208 370.755 179.226C368.246 175.243 366.893 170.642 366.846 165.936C366.937 160.697 368.682 155.622 371.83 151.434C374.299 148.05 377.597 145.358 381.406 143.616C377.045 142.21 373.043 139.869 369.68 136.756C366.544 133.614 364.49 129.554 363.816 125.166C365.237 127.926 367.555 130.12 370.388 131.389C373.221 132.657 376.401 132.925 379.406 132.148C382.411 131.37 385.062 129.594 386.925 127.111C388.787 124.627 389.749 121.585 389.654 118.482C390.058 120.154 390.803 121.724 391.843 123.094C392.809 124.42 394.182 125.394 395.752 125.87C397.04 126.15 398.373 126.15 399.661 125.87C404.838 124.945 409.611 122.463 413.342 118.756C417.029 115.107 419.674 110.539 421.003 105.524C422.008 102.505 421.974 99.2373 420.905 96.2405C420.145 94.6443 418.991 93.2682 417.551 92.2422C416.112 91.2163 414.434 90.5744 412.677 90.3772C409.111 90.0152 405.547 91.0837 402.768 93.3479C402.108 95.5623 400.747 97.5026 398.89 98.8771C397.032 100.252 394.779 100.986 392.468 100.97C390.289 100.763 388.185 100.071 386.308 98.9446C384.431 97.8185 382.83 96.2869 381.621 94.462C379.208 90.7495 377.486 86.6309 376.54 82.3054C375.628 78.0362 374.319 73.8616 372.631 69.8361L372.748 69.6016C365.757 66.0902 359.714 60.9461 355.131 54.6047C350.549 48.2634 347.561 40.9113 346.422 33.1709L348.22 31.2165C351.24 25.5801 356.303 21.314 362.37 19.2944C366.081 17.9964 369.956 17.2267 373.882 17.0077V16.4019C378.671 12.6265 384.68 10.7416 390.768 11.1054H391.139H391.647C409.863 13.2161 426.339 24.7864 436.248 40.2264C446.157 55.6664 449.929 74.9176 448.717 93.4066C450.591 97.62 452.918 101.617 455.655 105.329C460.815 112.54 466.874 119.01 471.584 126.593C476.277 133.876 479.282 142.116 480.379 150.711C481.499 159.314 479.929 168.052 475.884 175.727C476.973 171.759 477.231 167.609 476.642 163.536C476.054 159.464 474.631 155.557 472.463 152.059C472.561 157.595 471.45 163.086 469.209 168.149C466.968 173.212 463.65 177.726 459.486 181.376C457.219 183.342 454.71 185.01 452.02 186.34C446.161 189.302 439.64 190.708 433.081 190.425C431.362 190.356 429.651 190.16 427.961 189.838C424.489 189.118 421.093 188.071 417.817 186.711L417.485 186.203ZM371.478 67.0803C364.911 57.6404 358.324 48.2982 351.718 38.956C352.754 49.5295 356.018 56.2332 371.478 67.0803Z" fill="black"/>
<path d="M433.044 190.347V190.484C430.593 196.929 427.013 202.885 422.471 208.074L422.314 207.937C418.439 204.469 414.765 200.782 411.311 196.894L410.959 196.621C412.754 194.14 414.079 191.351 414.868 188.393L414.633 187.865C415.642 187.43 416.61 186.906 417.526 186.301L417.819 186.731C421.094 188.091 424.491 189.138 427.963 189.858C429.642 190.145 431.341 190.309 433.044 190.347Z" fill="#50AE36"/>
<path d="M422.311 207.84L422.467 207.976C419.268 211.661 415.632 214.942 411.64 217.749L401.399 205.729L401.203 205.416C402.433 204.699 403.614 203.902 404.741 203.032C407.129 201.211 409.225 199.036 410.956 196.582L411.308 196.856C414.764 200.723 418.437 204.39 422.311 207.84Z" fill="#50AE36"/>
<path d="M401.398 450.052C402.79 446.046 403.271 441.779 402.805 437.563V436.645H404.505C405.698 436.645 406.909 436.508 408.102 436.352L408.238 437.602C408.123 441.28 407.658 444.938 406.851 448.528L413.027 447.961H413.457L414.356 448.195C417.817 457.523 420.172 467.225 421.372 477.102C423.745 498.491 422.249 520.133 416.955 540.992C409.626 571.52 396.355 600.25 383.183 628.726L382.831 628.902C375.932 615.339 368.329 601.54 361.332 587.859H361.449C361.449 587.195 361.625 586.589 361.703 586.022L365.221 586.452C365.73 585.534 366.257 584.595 366.746 583.657H366.629C379.08 541.043 380.639 495.985 371.163 452.612V450.814H372.101C372.101 450.287 372.101 449.759 372.101 449.231H372.902C382.193 450.735 391.64 451.03 401.007 450.111L401.398 450.052Z" fill="#C9C9C9"/>
<path d="M321.934 84.8661L320.293 84.397C319.139 82.4953 317.832 80.6912 316.384 79.0028C315.829 78.2295 315.052 77.6432 314.156 77.322C313.679 77.2226 313.186 77.2343 312.715 77.3564C312.244 77.4784 311.807 77.7074 311.439 78.0256C311.063 78.3334 310.728 78.688 310.442 79.081C310.288 79.2704 310.15 79.4731 310.032 79.6869L308.976 79.9214C307.978 75.7913 307.707 71.5189 308.175 67.2957C308.734 61.6986 310.486 56.2865 313.315 51.4246C316.144 46.5628 319.983 42.3644 324.573 39.1128V38.8587C326.965 38.2394 329.095 36.8694 330.651 34.9499V34.7153C335.971 35.6323 341.44 35.1266 346.501 33.2495C347.641 40.9899 350.628 48.3419 355.211 54.6833C359.793 61.0247 365.836 66.1688 372.828 69.6802L372.71 69.9147C374.399 73.9402 375.708 78.1148 376.619 82.384C377.549 86.6622 379.237 90.7395 381.603 94.4233C382.811 96.2482 384.413 97.7798 386.29 98.9059C388.166 100.032 390.271 100.724 392.45 100.932C394.761 100.947 397.014 100.213 398.872 98.8384C400.729 97.4639 402.09 95.5236 402.75 93.3093C405.529 91.045 409.093 89.9765 412.659 90.3385C414.416 90.5357 416.093 91.1776 417.533 92.2036C418.973 93.2295 420.127 94.6056 420.887 96.2018C421.955 99.1986 421.99 102.467 420.985 105.485C419.668 110.512 417.029 115.094 413.343 118.756C409.6 122.428 404.828 124.875 399.662 125.772C398.374 126.053 397.041 126.053 395.753 125.772C394.183 125.297 392.811 124.323 391.844 122.997C390.805 121.627 390.06 120.056 389.655 118.385C389.751 121.487 388.788 124.53 386.926 127.013C385.064 129.497 382.412 131.273 379.407 132.05C376.402 132.828 373.222 132.56 370.389 131.291C367.556 130.023 365.239 127.828 363.818 125.069C364.491 129.457 366.545 133.516 369.681 136.659C373.044 139.771 377.046 142.113 381.408 143.519C377.598 145.26 374.3 147.953 371.831 151.336C362.665 152.372 352.15 155.617 343.042 157.2C333.934 158.783 323.986 159.467 315.68 155.343C314.159 154.404 312.852 153.158 311.842 151.683C310.832 150.209 310.142 148.54 309.817 146.783C309.23 143.43 308.878 140.041 308.761 136.639C308.038 128.118 305.478 119.87 304.462 111.388C304.041 108.108 303.963 104.794 304.227 101.498L308.84 101.87C308.837 101.59 308.904 101.315 309.035 101.068C309.999 99.5281 311.215 98.1606 312.631 97.0227C316.442 93.6415 320.488 89.8304 321.934 84.8661ZM314.625 127.453L334.443 128.548V128.313C329.942 124.085 324.796 120.602 319.198 117.994C317.906 117.387 316.501 117.061 315.074 117.036C314.354 117.038 313.646 117.217 313.012 117.558C312.378 117.899 311.837 118.391 311.439 118.991C311.217 119.307 311.081 119.675 311.043 120.059C311.005 120.443 311.066 120.83 311.221 121.184C311.377 121.537 311.62 121.845 311.929 122.077C312.237 122.309 312.6 122.458 312.983 122.508C313.53 122.508 314.097 122.509 314.644 122.684V123.173C314.381 124.528 314.381 125.922 314.644 127.277L314.625 127.453ZM341.752 85.257C341.951 84.4282 341.98 83.5675 341.835 82.7274C341.691 81.8873 341.376 81.0855 340.912 80.3709C340.228 82.0702 340.228 83.9681 340.912 85.6674C340.912 85.8629 341.107 86.0583 341.303 86.0974C341.498 86.1365 341.791 85.6283 341.752 85.257Z" fill="white"/>
<path d="M341.597 173.186C342.895 168.003 343.35 162.645 342.946 157.316C352.053 155.655 362.49 152.411 371.735 151.453C368.587 155.641 366.843 160.717 366.751 165.955C366.798 170.662 368.151 175.263 370.66 179.245C373.169 183.228 376.734 186.435 380.96 188.509C378.832 187.228 377.128 185.35 376.058 183.11C374.988 180.869 374.599 178.363 374.94 175.903C375.276 177.615 375.973 179.236 376.984 180.658C377.994 182.08 379.297 183.271 380.803 184.151C383.847 185.873 387.146 187.1 390.575 187.786C395.934 189.347 401.515 190.008 407.09 189.74C409.648 189.487 412.148 188.827 414.498 187.786L414.732 188.314C413.943 191.272 412.618 194.061 410.823 196.542C409.092 198.996 406.996 201.171 404.608 202.992C403.482 203.862 402.3 204.658 401.071 205.376C397.555 207.41 393.772 208.942 389.833 209.93C389.285 210.086 388.719 210.223 388.171 210.34C384.356 211.212 380.456 211.658 376.543 211.669C371.984 211.661 367.45 211.002 363.076 209.715C359.697 208.725 356.464 207.293 353.461 205.454C352.399 204.809 351.374 204.104 350.392 203.343C347.304 200.969 344.612 198.119 342.418 194.9C340.104 191.536 338.415 187.782 337.434 183.819C336.779 181.141 336.502 178.384 336.613 175.629L336.359 174.711C337.952 174.256 339.513 173.694 341.03 173.03L341.597 173.186Z" fill="white"/>
<path d="M408.083 436.312C410.179 436.106 412.257 435.74 414.297 435.218C414.436 439.469 414.161 443.723 413.477 447.921H413.047L406.871 448.487C407.678 444.898 408.143 441.24 408.259 437.563L408.083 436.312Z" fill="black"/>
<path d="M401.396 205.67L411.638 217.689C407.295 220.732 402.553 223.158 397.546 224.901V224.589L390.158 210.263L390.061 209.911C394 208.923 397.783 207.391 401.299 205.357L401.396 205.67Z" fill="#50AE36"/>
<path d="M402.804 437.563C403.27 441.779 402.789 446.046 401.397 450.052L400.986 449.915C391.619 450.835 382.173 450.539 372.882 449.036H372.08C372.08 447.55 372.08 446.065 372.08 444.677C366.08 444.462 360.08 444.247 354.08 444.071C353.848 440.1 353.979 436.116 354.471 432.169V431.465L384.862 435.374C390.777 436.256 396.746 436.72 402.726 436.762L402.804 437.563ZM372.725 440.202L372.295 436.058C367.585 436.058 362.797 436.058 358.008 435.863C357.406 437.282 357.269 438.856 357.617 440.358L372.725 440.202Z" fill="black"/>
<path d="M397.453 224.589V224.902L397.004 225.058C391.689 226.824 386.145 227.805 380.548 227.97V227.736C378.886 222.68 377.58 217.514 376.639 212.276V211.651C380.552 211.639 384.452 211.193 388.268 210.322C388.815 210.204 389.382 210.067 389.929 209.911L390.027 210.263L397.453 224.589Z" fill="#50AE36"/>
<path d="M359.984 3.15072C371.086 2.34709 382.158 5.08413 391.607 10.9685V11.0662H391.098H390.727C384.639 10.7024 378.63 12.5873 373.841 16.3627V16.9686C369.915 17.1875 366.04 17.9573 362.329 19.2553C356.262 21.2748 351.199 25.5409 348.179 31.1773L346.381 33.1317C341.319 35.0089 335.851 35.5146 330.531 34.5976V34.8321C328.975 36.7516 326.844 38.1217 324.452 38.741C322.267 39.3791 320.02 39.7788 317.749 39.9332C313.038 40.3631 307.879 40.7736 304.439 44.0375C302.992 45.5846 301.944 47.461 301.386 49.5043C300.827 51.5475 300.775 53.6961 301.234 55.7641C302.225 59.8974 304.15 63.7485 306.862 67.0216L308.133 67.1389C307.665 71.362 307.936 75.6344 308.934 79.7645C308.934 79.7645 308.934 79.7645 308.934 79.8818H304.752C303.892 78.4941 303.051 77.1065 302.25 75.6797C299.392 70.6754 296.948 65.4462 294.94 60.0443C294.321 64.9629 295.058 69.9571 297.071 74.4875C292.289 68.1939 289.75 60.4816 289.859 52.5783C289.857 48.6369 290.745 44.7459 292.458 41.1958C294.17 37.6457 296.662 34.5284 299.748 32.0763C301.979 30.5882 304.325 29.281 306.765 28.1675V27.1902C311.536 17.3938 319.624 9.60406 329.592 5.20288C339.099 0.69891 349.931 -0.149806 360.023 2.81847L359.984 3.15072Z" fill="black"/>
<path d="M359.025 571.774C360.523 573.897 361.433 576.378 361.664 578.966C361.946 581.277 361.946 583.613 361.664 585.924C361.664 586.491 361.507 587.096 361.41 587.761H361.292C368.27 601.442 375.872 615.221 382.791 628.804L385.215 633.592H235.896C213.185 598.979 193.602 555.415 200.482 515.877C207.296 483.113 221.316 452.276 241.525 425.602L242.15 425.484C242.267 426.146 242.43 426.799 242.639 427.439L246.899 426.383C246.724 425.644 246.606 424.893 246.548 424.136H246.821C264.811 433.26 284.396 438.822 304.497 440.514H304.77C304.614 438.504 304.614 436.485 304.77 434.475V434.006C307.702 434.24 310.633 434.377 313.585 434.416V435.12C312.908 437.48 312.683 439.946 312.92 442.39L313.839 442.273C323.7 444.289 333.693 445.595 343.742 446.182H345.207C345.207 447.315 345.207 448.468 345.207 449.641C347.729 449.954 350.25 450.208 352.791 450.384L352.595 452.925C363.513 491.262 366.793 531.37 362.25 570.972L359.025 571.774Z" fill="#C9C9C9"/>
<path d="M380.64 227.736V227.971C373.895 228.18 367.163 227.255 360.725 225.234L360.861 224.785C361.585 219.997 362.327 215.208 363.05 210.42L363.207 209.755C367.58 211.043 372.114 211.701 376.673 211.71V212.335C377.636 217.555 378.962 222.701 380.64 227.736Z" fill="#50AE36"/>
<path d="M372.296 436.058L372.648 440.182L357.618 440.358C357.27 438.856 357.407 437.282 358.009 435.863C362.876 436.058 367.664 436.156 372.296 436.058Z" fill="white"/>
<path d="M372.045 444.658C372.045 446.046 372.045 447.531 372.045 449.016C372.045 449.544 372.045 450.072 372.045 450.6H371.107C365.028 450.849 358.939 450.745 352.872 450.287C350.332 450.111 347.81 449.857 345.289 449.544C345.289 448.372 345.289 447.218 345.289 446.085C345.289 441.16 345.621 436.567 346.071 432.013V431.759L350.879 430.958L354.631 431.427V432.13C354.139 436.078 354.009 440.062 354.24 444.033C360.045 444.228 366.045 444.443 372.045 444.658Z" fill="white"/>
<path d="M371.182 452.436C380.659 495.809 379.1 540.867 366.648 583.481H366.765C366.277 584.419 365.749 585.436 365.241 586.276L361.723 585.846C362.005 583.535 362.005 581.199 361.723 578.888C361.492 576.3 360.582 573.819 359.084 571.696L362.407 570.836C366.939 531.26 363.659 491.179 352.752 452.866L352.947 450.326C359.014 450.783 365.103 450.888 371.182 450.638V452.436Z" fill="#C9C9C9"/>
<path d="M363.21 209.755L363.054 210.42C362.331 215.208 361.588 219.996 360.865 224.785L360.728 225.234C356.111 223.779 351.698 221.743 347.594 219.176C346.265 218.335 344.975 217.456 343.686 216.498L343.881 216.224L350.077 203.951L350.507 203.384C351.489 204.145 352.513 204.85 353.575 205.495C356.584 207.335 359.824 208.767 363.21 209.755Z" fill="#50AE36"/>
<path d="M350.526 203.481L350.096 204.048L343.9 216.321L343.705 216.595C339.446 213.388 335.645 209.613 332.408 205.377L332.701 205.142L342.474 195.038C344.691 198.263 347.409 201.113 350.526 203.481Z" fill="#50AE36"/>
<path d="M345.975 431.797V432.051C345.525 436.605 345.193 441.198 345.193 446.123H343.727C333.679 445.536 323.686 444.23 313.824 442.214L312.906 442.332C312.669 439.888 312.894 437.422 313.57 435.061V434.358C324.425 434.434 335.267 433.577 345.975 431.797Z" fill="black"/>
<path d="M310.027 79.6872C310.146 79.4735 310.283 79.2707 310.438 79.0813L312.529 79.4722C312.103 80.1786 311.853 80.9776 311.802 81.8011C311.751 82.6246 311.9 83.4483 312.236 84.2019L312.353 84.4169L309.324 87.0163C306.257 91.2949 304.473 96.3596 304.183 101.616C303.919 104.912 303.998 108.226 304.418 111.505C305.434 119.988 307.995 128.235 308.718 136.757C308.834 140.158 309.187 143.548 309.773 146.9C310.099 148.657 310.789 150.327 311.799 151.801C312.808 153.275 314.116 154.522 315.636 155.461C323.943 159.584 333.891 158.979 342.998 157.317C343.403 162.645 342.947 168.004 341.65 173.187L341.22 173.07C339.702 173.734 338.142 174.296 336.549 174.751C330.682 176.441 324.523 176.867 318.479 176.001C312.435 175.135 306.643 172.997 301.486 169.728C300.88 169.357 300.294 168.946 299.727 168.536C293.844 164.196 289.165 158.427 286.132 151.776C283.099 145.125 281.811 137.809 282.392 130.522C279.813 135.025 278.555 140.164 278.763 145.349C278.97 150.534 280.634 155.556 283.564 159.839C279.512 158.311 276.003 155.617 273.481 152.097C270.959 148.576 269.537 144.388 269.395 140.06C269.395 132.418 273.303 125.304 277.935 119.284C283.193 112.541 289.506 106.678 294.489 99.7397C299.473 92.8014 303.167 84.3778 302.034 75.9151L302.249 75.7979C303.05 77.2246 303.89 78.6122 304.75 79.9999H308.933C308.933 79.9999 308.933 79.9999 308.933 79.8826L310.027 79.6872Z" fill="black"/>
<path d="M342.551 194.94L332.779 205.044L332.486 205.279C329.291 201.081 326.662 196.482 324.668 191.598C328.26 188.477 332.324 185.944 336.707 184.093L337.665 183.858C338.616 187.815 340.271 191.569 342.551 194.94Z" fill="#50AE36"/>
<path d="M337.57 183.936L336.612 184.171C332.229 186.022 328.165 188.555 324.573 191.676C322.638 187.062 321.323 182.212 320.664 177.252V176.353C325.925 176.812 331.226 176.295 336.3 174.829L336.554 175.747C336.506 178.511 336.849 181.268 337.57 183.936Z" fill="#50AE36"/>
<path d="M334.461 128.312V128.547L314.643 127.452V127.257C314.379 125.902 314.379 124.508 314.643 123.153V122.664C321.521 123.41 328.223 125.32 334.461 128.312Z" fill="white"/>
<path d="M324.493 38.8589V39.113C319.903 42.3645 316.064 46.5629 313.235 51.4248C310.406 56.2866 308.654 61.6988 308.095 67.2959L306.825 67.1786C304.113 63.9056 302.187 60.0544 301.196 55.9211C300.737 53.8531 300.79 51.7046 301.348 49.6613C301.907 47.618 302.954 45.7416 304.401 44.1945C307.841 40.9306 313.001 40.5202 317.711 40.0902C320.01 39.9287 322.284 39.5158 324.493 38.8589Z" fill="black"/>
<path d="M320.292 84.3972L321.934 84.8662C320.487 89.8305 316.442 93.6416 312.592 97.1401C311.175 98.278 309.959 99.6455 308.995 101.186C308.865 101.432 308.798 101.708 308.8 101.987L304.188 101.616C304.477 96.3594 306.261 91.2947 309.328 87.0161L312.357 84.4167C312.533 84.6708 312.826 84.8662 313.08 84.749C313.188 84.6691 313.272 84.5615 313.324 84.4376C313.376 84.3138 313.393 84.1782 313.373 84.0454C313.481 82.4745 313.192 80.9018 312.533 79.472L310.442 79.0811C310.728 78.6882 311.062 78.3335 311.438 78.0257C311.807 77.7075 312.243 77.4785 312.715 77.3565C313.186 77.2345 313.679 77.2227 314.155 77.3221C315.051 77.6433 315.828 78.2296 316.383 79.0029C317.831 80.6913 319.138 82.4954 320.292 84.3972Z" fill="white"/>
<path d="M319.217 117.994C324.815 120.602 329.961 124.086 334.462 128.314C328.233 125.303 321.538 123.373 314.663 122.607C314.116 122.607 313.549 122.47 313.002 122.431C312.619 122.38 312.256 122.231 311.948 121.999C311.639 121.767 311.395 121.46 311.24 121.106C311.085 120.753 311.024 120.365 311.062 119.981C311.1 119.597 311.236 119.229 311.458 118.913C311.856 118.313 312.397 117.821 313.031 117.48C313.665 117.14 314.373 116.96 315.093 116.958C316.526 117.007 317.931 117.36 319.217 117.994Z" fill="white"/>
<path d="M304.788 434.104V434.573C304.632 436.583 304.632 438.602 304.788 440.612H304.514C284.413 438.92 264.829 433.359 246.839 424.234H246.565C246.3 421.925 246.499 419.585 247.152 417.354L247.445 416.944C251.228 419.669 255.884 420.901 260.52 420.403H262.103C271.768 426.501 282.529 430.657 293.784 432.638C297.42 433.263 301.087 433.752 304.788 434.104Z" fill="black"/>
<path d="M246.96 278.003C248.133 278.941 249.345 279.821 250.596 280.642L249.892 285.098L243.677 329.19H243.306C225.412 350.411 205.494 369.839 183.832 387.197L184.184 387.647C180.824 397.429 174.792 406.075 166.77 412.605C158.777 419.081 149.915 424.403 140.444 428.416C135.577 430.605 130.417 432.657 125.101 432.325C124.3 432.263 123.504 432.153 122.717 431.993C119.089 431.143 115.697 429.494 112.788 427.165C109.314 424.296 106.12 421.103 103.251 417.628C101.042 415.107 98.7361 412.409 98.2474 409.106C98.1079 408.619 98.0034 408.123 97.9347 407.621C97.7333 406.218 97.8536 404.788 98.2865 403.439C115.035 374.8 134.824 348.052 157.31 323.659L158.014 323.971C177.291 281.454 200.59 240.878 227.592 202.796C228.144 201.77 228.757 200.778 229.429 199.826L231.383 201.096C232.07 227.389 239.197 253.112 252.14 276.01L246.96 278.003ZM218.973 290.609C227.846 290.296 236.563 288.088 242.055 283.026C238.025 282.265 233.939 281.834 229.839 281.736C225.717 281.648 221.637 282.575 217.957 284.433C216.971 284.909 216.123 285.628 215.494 286.524C215.187 286.977 215.023 287.512 215.023 288.059C215.023 288.606 215.187 289.14 215.494 289.593C215.957 290.017 216.512 290.33 217.115 290.506C217.718 290.682 218.354 290.717 218.973 290.609Z" fill="#50AE36"/>
<path d="M247.39 416.943L247.097 417.354C246.444 419.585 246.245 421.924 246.511 424.233C246.569 424.99 246.687 425.742 246.863 426.48L242.602 427.536C242.394 426.896 242.231 426.243 242.114 425.581C241.341 421.77 241.674 417.817 243.071 414.188L243.599 413.68C244.734 414.908 246.006 416.003 247.39 416.943Z" fill="#C9C9C9"/>
<path d="M242.053 283.025C236.659 288.087 227.844 290.296 218.971 290.608C218.352 290.717 217.716 290.681 217.113 290.505C216.51 290.329 215.955 290.016 215.492 289.592C215.185 289.139 215.021 288.605 215.021 288.058C215.021 287.511 215.185 286.976 215.492 286.524C216.121 285.628 216.969 284.908 217.955 284.432C221.635 282.574 225.716 281.648 229.838 281.735C233.938 281.833 238.023 282.264 242.053 283.025Z" fill="#50AE36"/>
<path d="M122.717 431.973V432.13C118.608 434.814 114.987 438.178 112.007 442.078C111.211 441.965 110.421 441.808 109.642 441.609C104.42 439.967 99.9653 436.497 97.0947 431.837C94.0177 426.766 91.6565 421.293 90.0782 415.576C90.0782 415.419 90.0782 415.263 89.9219 415.107C92.5017 412.331 95.1793 409.927 97.7396 407.523H97.8764C97.9451 408.025 98.0496 408.522 98.1891 409.009C98.6777 412.312 100.984 415.009 103.192 417.53C106.062 421.005 109.255 424.199 112.73 427.068C115.649 429.432 119.062 431.109 122.717 431.973Z" fill="#50AE36"/>
<path d="M48.6042 433.478L48.5065 432.814L89.1196 415.966L90.0382 415.673C91.6165 421.391 93.9777 426.863 97.0546 431.934C99.9252 436.595 104.38 440.065 109.602 441.706L109.348 442.508C99.9668 451.694 96.7224 466.117 86.2271 474.111C80.7938 478.274 73.7578 480.346 69.2235 485.466C63.8393 488.829 59.6061 493.751 57.0865 499.577C56.2031 499.524 55.3567 499.204 54.6589 498.659C53.9611 498.115 53.4446 497.372 53.1776 496.528C52.7446 493.835 52.8571 491.082 53.5085 488.433C54.1598 485.784 55.3367 483.293 56.9692 481.108C60.1404 476.793 63.8739 472.922 68.0704 469.596C53.0212 476.495 38.6366 483.277 24.252 489.844C22.3683 490.826 20.3337 491.487 18.2323 491.799C17.1697 491.975 16.08 491.89 15.058 491.549C14.0361 491.209 13.1129 490.623 12.369 489.844C21.7343 480.058 32.5763 471.801 44.4999 465.375L16.2193 472.508C13.5427 473.333 10.7524 473.729 7.95201 473.681C6.54777 473.635 5.17449 473.256 3.9447 472.577C2.71491 471.897 1.66361 470.936 0.876953 469.772C4.78582 467.518 8.82499 465.446 12.9944 463.557C10.0237 463.928 2.73367 463.44 1.93235 461.388C14.3848 454.179 27.651 448.477 41.451 444.404C37.7201 444.102 33.9663 444.253 30.2716 444.853C27.1471 448.455 22.7471 450.704 17.9978 451.127C16.8819 451.334 15.7318 451.253 14.6557 450.892C14.1266 450.704 13.6683 450.357 13.3431 449.899C13.0179 449.441 12.8416 448.894 12.8381 448.332C17.9392 443.583 22.923 438.697 29.2162 436.312C35.5095 433.928 41.9982 434.377 48.6042 433.478Z" fill="white"/>
<path d="M316.751 20.0376C314.699 23.9465 310.79 26.0377 306.764 28.0899C304.324 29.2034 301.978 30.5106 299.747 31.9987C296.661 34.4508 294.169 37.5681 292.457 41.1182C290.744 44.6683 289.856 48.5593 289.858 52.5007C289.732 60.4306 292.272 68.1733 297.07 74.4881C295.098 69.9875 294.382 65.0369 294.998 60.1621C297.005 65.5641 299.45 70.7932 302.308 75.7976C303.109 77.2243 303.949 78.612 304.809 79.9996" stroke="black" stroke-width="0.961384" stroke-linecap="round" stroke-linejoin="round"/>
<path d="M302.095 75.9927C303.229 84.4554 299.535 92.8985 294.551 99.8172C289.567 106.736 283.255 112.599 277.997 119.362C273.306 125.381 269.378 132.495 269.456 140.137C269.599 144.465 271.021 148.654 273.543 152.174C276.065 155.695 279.574 158.389 283.626 159.916C280.696 155.633 279.032 150.611 278.824 145.426C278.617 140.241 279.875 135.103 282.453 130.6C281.86 137.877 283.129 145.185 286.142 151.835C289.154 158.486 293.81 164.26 299.672 168.613C300.239 169.024 300.825 169.434 301.431 169.805C306.588 173.074 312.379 175.212 318.423 176.078C324.467 176.944 330.626 176.518 336.493 174.828C338.086 174.373 339.647 173.812 341.164 173.148" stroke="black" stroke-width="0.961384" stroke-linecap="round" stroke-linejoin="round"/>
<path d="M340.576 176.724C340.967 175.552 341.299 174.379 341.592 173.187C342.89 168.003 343.345 162.645 342.941 157.317" stroke="black" stroke-width="0.961384" stroke-linecap="round" stroke-linejoin="round"/>
<path d="M324.572 39.1133C319.982 42.3648 316.143 46.5632 313.314 51.4251C310.485 56.2869 308.732 61.6991 308.174 67.2962C307.706 71.5194 307.977 75.7918 308.975 79.9219C308.975 79.9219 308.975 79.9219 308.975 80.0391" stroke="black" stroke-width="0.961384" stroke-linecap="round" stroke-linejoin="round"/>
<path d="M309.326 87.0156C306.259 91.2942 304.476 96.3589 304.186 101.615C303.922 104.911 304 108.225 304.421 111.505C305.437 119.987 307.997 128.235 308.72 136.756C308.837 140.157 309.189 143.547 309.776 146.899C310.101 148.657 310.791 150.326 311.801 151.8C312.811 153.275 314.118 154.521 315.639 155.46C323.945 159.584 333.893 158.978 343.001 157.317C352.109 155.655 362.545 152.411 371.79 151.453" stroke="black" stroke-width="0.961384" stroke-linecap="round" stroke-linejoin="round"/>
<path d="M322.264 32.0186C324.883 33.3001 327.674 34.1954 330.55 34.6766C335.871 35.5936 341.339 35.0879 346.401 33.2108" stroke="black" stroke-width="0.961384" stroke-linecap="round" stroke-linejoin="round"/>
<path d="M330.573 34.9106C329.017 36.8302 326.887 38.2002 324.495 38.8195C322.31 39.4576 320.062 39.8574 317.791 40.0117C313.081 40.4417 307.921 40.8521 304.481 44.116C303.035 45.6632 301.987 47.5396 301.428 49.5828C300.87 51.6261 300.817 53.7747 301.276 55.8426C302.267 59.976 304.193 63.8271 306.905 67.1002" stroke="black" stroke-width="0.961384" stroke-linecap="round" stroke-linejoin="round"/>
<path d="M348.199 31.1777C351.219 25.5413 356.282 21.2752 362.349 19.2556C366.06 17.9577 369.936 17.1879 373.861 16.969C376.245 16.8126 378.649 16.7931 381.034 16.8517" stroke="black" stroke-width="0.961384" stroke-linecap="round" stroke-linejoin="round"/>
<path d="M373.824 16.3633C378.614 12.5879 384.623 10.703 390.711 11.0668" stroke="black" stroke-width="0.961384" stroke-linecap="round" stroke-linejoin="round"/>
<path d="M306.707 27.1126C311.479 17.3161 319.566 9.52642 329.535 5.12524C339.042 0.621274 349.873 -0.227443 359.965 2.74083" stroke="black" stroke-width="0.961384" stroke-linecap="round" stroke-linejoin="round"/>
<path d="M352.752 4.46052C355.095 3.82107 357.488 3.38298 359.905 3.15105C371.008 2.34742 382.079 5.08446 391.528 10.9688" stroke="black" stroke-width="0.961384" stroke-linecap="round" stroke-linejoin="round"/>
<path d="M346.404 33.2095C347.544 40.9499 350.531 48.3019 355.114 54.6433C359.696 60.9846 365.739 66.1287 372.731 69.6401H372.828" stroke="black" stroke-width="0.961384" stroke-linecap="round" stroke-linejoin="round"/>
<path d="M371.474 67.0808C356.015 56.2337 352.829 49.4909 351.715 38.9565C358.321 48.2987 364.907 57.6409 371.474 67.0808Z" stroke="black" stroke-width="0.961384" stroke-linecap="round" stroke-linejoin="round"/>
<path d="M372.612 69.8765C374.3 73.902 375.609 78.0766 376.521 82.3458C377.451 86.624 379.138 90.7013 381.504 94.3851C382.713 96.21 384.314 97.7416 386.191 98.8677C388.068 99.9938 390.173 100.686 392.351 100.893C394.662 100.909 396.915 100.175 398.773 98.8002C400.63 97.4257 401.991 95.4854 402.651 93.271C405.43 91.0068 408.994 89.9383 412.56 90.3003C414.317 90.4975 415.995 91.1394 417.434 92.1653C418.874 93.1913 420.029 94.5674 420.788 96.1636C421.857 99.1604 421.891 102.429 420.886 105.447C419.604 110.477 416.999 115.073 413.342 118.757C409.599 122.429 404.827 124.876 399.661 125.773C398.373 126.054 397.04 126.054 395.752 125.773C394.182 125.298 392.81 124.323 391.843 122.998C390.804 121.628 390.059 120.057 389.654 118.386C389.75 121.488 388.787 124.531 386.925 127.014C385.063 129.498 382.411 131.274 379.406 132.051C376.401 132.829 373.221 132.561 370.388 131.292C367.555 130.024 365.238 127.829 363.817 125.07C363.621 124.659 363.445 124.249 363.289 123.819" stroke="black" stroke-width="0.961384" stroke-linecap="round" stroke-linejoin="round"/>
<path d="M363.834 125.089C364.507 129.477 366.561 133.536 369.697 136.679C373.06 139.791 377.062 142.133 381.424 143.539C377.614 145.281 374.316 147.973 371.847 151.356C368.699 155.545 366.955 160.62 366.863 165.858C366.91 170.565 368.264 175.166 370.772 179.148C373.281 183.131 376.847 186.338 381.072 188.413C378.945 187.131 377.241 185.254 376.17 183.013C375.1 180.772 374.712 178.266 375.052 175.806C375.388 177.519 376.085 179.139 377.096 180.562C378.107 181.984 379.409 183.174 380.916 184.054C383.96 185.776 387.258 187.003 390.688 187.689C396.047 189.25 401.628 189.911 407.203 189.644C409.76 189.39 412.261 188.731 414.61 187.689C415.618 187.254 416.586 186.731 417.503 186.126C419.113 185.083 420.524 183.759 421.666 182.217" stroke="black" stroke-width="0.961384" stroke-linecap="round" stroke-linejoin="round"/>
<path d="M417.777 186.633C421.053 187.992 424.449 189.039 427.921 189.76C429.611 190.081 431.322 190.277 433.041 190.346C439.6 190.63 446.121 189.223 451.98 186.261C454.67 184.932 457.179 183.263 459.446 181.297C463.61 177.647 466.928 173.134 469.169 168.07C471.41 163.007 472.521 157.517 472.423 151.98C472.423 151.746 472.423 151.531 472.423 151.296" stroke="black" stroke-width="0.961384" stroke-linecap="round" stroke-linejoin="round"/>
<path d="M445.492 81.1323C445.821 85.3814 446.886 89.541 448.639 93.4257C450.513 97.6392 452.84 101.637 455.577 105.348C460.737 112.56 466.796 119.029 471.506 126.612C476.224 133.882 479.255 142.116 480.379 150.71C481.499 159.313 479.929 168.052 475.884 175.727C476.973 171.759 477.231 167.609 476.642 163.536C476.054 159.463 474.631 155.556 472.463 152.059" stroke="black" stroke-width="0.961384" stroke-linecap="round" stroke-linejoin="round"/>
<path d="M391.082 11.0469H391.59C409.805 13.1577 426.281 24.7279 436.19 40.1679C446.099 55.608 449.871 74.8591 448.66 93.3481" stroke="black" stroke-width="0.961384" stroke-linecap="round" stroke-linejoin="round"/>
<path d="M414.828 188.295C414.039 191.253 412.714 194.042 410.919 196.523C409.188 198.977 407.092 201.152 404.704 202.972C403.578 203.843 402.396 204.639 401.167 205.357C397.651 207.391 393.868 208.923 389.929 209.911C389.381 210.067 388.815 210.204 388.267 210.321C384.452 211.193 380.552 211.638 376.639 211.65C372.08 211.641 367.546 210.983 363.172 209.696C359.793 208.706 356.56 207.274 353.557 205.435C352.495 204.79 351.47 204.085 350.488 203.324C347.4 200.95 344.708 198.1 342.514 194.881C340.2 191.517 338.511 187.763 337.53 183.799C336.875 181.122 336.598 178.365 336.709 175.61" stroke="black" stroke-width="0.961384" stroke-linecap="round" stroke-linejoin="round"/>
<path d="M301.335 169.865C293.224 174.204 284.136 176.314 275.126 178.171C266.116 180.028 256.969 181.689 248.507 185.285C240.914 188.245 234.319 193.301 229.49 199.865C228.818 200.818 228.205 201.81 227.653 202.836C200.65 240.917 177.352 281.494 158.075 324.011C156.772 326.956 155.469 329.926 154.166 332.923" stroke="black" stroke-width="0.961384" stroke-linecap="round" stroke-linejoin="round"/>
<path d="M157.31 323.66C134.825 348.047 115.036 374.788 98.2865 403.42C97.8536 404.77 97.7333 406.2 97.9347 407.603C98.0034 408.105 98.1079 408.601 98.2474 409.088C98.7361 412.391 101.042 415.088 103.251 417.609C106.12 421.084 109.314 424.278 112.788 427.147C115.697 429.475 119.089 431.125 122.717 431.974C123.504 432.134 124.3 432.245 125.101 432.307C130.417 432.678 135.577 430.626 140.444 428.398C149.914 424.391 158.776 419.075 166.77 412.606C174.792 406.076 180.824 397.43 184.184 387.648" stroke="black" stroke-width="0.961384" stroke-linecap="round" stroke-linejoin="round"/>
<path d="M174.684 394.35C177.772 392.005 180.821 389.627 183.83 387.217C205.495 369.834 225.414 350.38 243.304 329.131" stroke="black" stroke-width="0.961384" stroke-linecap="round" stroke-linejoin="round"/>
<path d="M239.981 294.323C212.279 321.878 180.343 344.82 145.387 362.278" stroke="black" stroke-width="0.961384" stroke-linecap="round" stroke-linejoin="round"/>
<path d="M130.764 376.663C144.875 380.748 160.08 378.93 174.054 374.201C188.029 369.471 200.732 361.985 213.397 354.656" stroke="black" stroke-width="0.961384" stroke-linecap="round" stroke-linejoin="round"/>
<path d="M97.7943 407.622C95.1363 410.026 92.4587 412.429 89.9766 415.205C89.9766 415.361 89.9766 415.518 90.1329 415.674C91.7112 421.392 94.0724 426.864 97.1493 431.935C100.02 436.596 104.475 440.065 109.697 441.707C110.476 441.906 111.265 442.063 112.062 442.176C115.041 438.276 118.663 434.912 122.772 432.228" stroke="black" stroke-width="0.961384" stroke-linecap="round" stroke-linejoin="round"/>
<path d="M231.463 201.135C232.15 227.428 239.277 253.151 252.219 276.049" stroke="black" stroke-width="0.961384" stroke-linecap="round" stroke-linejoin="round"/>
<path d="M229.762 252.205C232.686 262.377 238.696 271.391 246.961 278.003C248.133 278.941 249.345 279.821 250.596 280.642" stroke="black" stroke-width="0.961384" stroke-linecap="round" stroke-linejoin="round"/>
<path d="M242.053 283.025C238.023 282.264 233.938 281.833 229.838 281.735C225.716 281.648 221.635 282.574 217.955 284.432C216.969 284.908 216.121 285.628 215.492 286.524C215.185 286.976 215.021 287.511 215.021 288.058C215.021 288.605 215.185 289.139 215.492 289.592C215.955 290.016 216.51 290.329 217.113 290.505C217.716 290.681 218.352 290.717 218.971 290.608C227.844 290.296 236.659 288.087 242.053 283.025Z" stroke="black" stroke-width="0.961384" stroke-linecap="round" stroke-linejoin="round"/>
<path d="M249.89 285.097L243.675 329.189L237.441 373.301C236.262 379.995 235.77 386.793 235.975 393.588C236.2 400.432 238.519 407.042 242.62 412.526C242.917 412.91 243.237 413.275 243.578 413.621C244.71 414.87 245.982 415.985 247.369 416.943C251.152 419.668 255.809 420.9 260.444 420.403" stroke="black" stroke-width="0.961384" stroke-linecap="round" stroke-linejoin="round"/>
<path d="M245.004 404.787C249.727 410.955 255.495 416.247 262.047 420.422C271.712 426.52 282.473 430.676 293.728 432.657C297.402 433.321 301.09 433.81 304.79 434.123C307.722 434.357 310.653 434.494 313.605 434.533C324.449 434.574 335.277 433.685 345.97 431.875L350.778 431.074" stroke="black" stroke-width="0.961384" stroke-linecap="round" stroke-linejoin="round"/>
<path d="M328.578 428.241L350.8 430.977L354.553 431.446L384.944 435.355C390.858 436.237 396.828 436.7 402.808 436.742H404.508C405.7 436.742 406.912 436.606 408.104 436.449C410.201 436.243 412.278 435.877 414.319 435.355C417.46 434.574 420.47 433.336 423.251 431.68C429.241 427.91 433.928 422.391 436.678 415.869C439.384 408.69 440.711 401.064 440.587 393.393" stroke="black" stroke-width="0.961384" stroke-linecap="round" stroke-linejoin="round"/>
<path d="M266.016 333.724C282.923 364.8 307.655 390.92 337.763 409.497" stroke="black" stroke-width="0.961384" stroke-linecap="round" stroke-linejoin="round"/>
<path d="M258.215 377.582C274.671 394.623 295.14 407.263 317.747 414.344" stroke="black" stroke-width="0.961384" stroke-linecap="round" stroke-linejoin="round"/>
<path d="M500.922 233.266C489.776 251.069 482.047 270.794 478.133 291.43" stroke="black" stroke-width="0.961384" stroke-linecap="round" stroke-linejoin="round"/>
<path d="M472.42 304.74C485.785 293.663 495.099 278.465 498.902 261.528" stroke="black" stroke-width="0.961384" stroke-linecap="round" stroke-linejoin="round"/>
<path d="M472.423 300.538C469.003 317.854 465.602 335.229 460.091 352.018C454.579 368.806 446.937 385.048 435.758 398.729" stroke="black" stroke-width="0.961384" stroke-linecap="round" stroke-linejoin="round"/>
<path d="M500.999 302.277C496.085 320.901 488.326 338.654 477.995 354.91C467.677 371.139 456.372 386.719 444.145 401.563" stroke="black" stroke-width="0.961384" stroke-linecap="round" stroke-linejoin="round"/>
<path d="M446.957 405.901C460.032 404.318 469.609 390.969 482.762 390.266" stroke="black" stroke-width="0.961384" stroke-linecap="round" stroke-linejoin="round"/>
<path d="M439.727 415.771C446.786 412.481 454.662 411.352 462.362 412.528C470.061 413.703 477.241 417.13 482.998 422.377C485.552 424.557 487.345 427.494 488.118 430.761C488.316 431.762 488.316 432.791 488.118 433.791" stroke="black" stroke-width="0.961384" stroke-linecap="round" stroke-linejoin="round"/>
<path d="M432.004 433.928C436.179 428.99 441.98 425.705 448.363 424.664C454.701 423.673 461.167 423.859 467.438 425.211C473.004 426.043 478.333 428.041 483.073 431.075C484.234 431.88 485.308 432.803 486.279 433.83C489.308 436.81 491.125 440.807 491.38 445.049" stroke="black" stroke-width="0.961384" stroke-linecap="round" stroke-linejoin="round"/>
<path d="M452.002 186.301C466.953 196.992 486.81 200.275 499.807 213.272C509.13 222.556 513.664 235.807 514.857 248.921C516.049 262.036 514.153 275.208 512.277 288.245C509.071 310.681 505.853 333.125 502.622 355.575C501.136 365.953 499.592 376.487 495.273 386.044C492.26 393.008 487.409 399.021 481.24 403.439C478.847 405.129 476.211 406.447 473.423 407.348" stroke="black" stroke-width="0.961384" stroke-linecap="round" stroke-linejoin="round"/>
<path d="M481.609 403.986C483.956 408.385 484.866 413.409 484.209 418.351C486.271 419.552 487.872 421.41 488.754 423.628C489.636 425.846 489.749 428.296 489.075 430.586" stroke="black" stroke-width="0.961384" stroke-linecap="round" stroke-linejoin="round"/>
<path d="M479.791 448.078C477.855 448.645 475.986 449.425 474.221 450.403C470.534 452.455 467.348 455.298 464.891 458.728C462.434 462.158 460.768 466.09 460.012 470.241C458.293 480.541 466.13 491.74 474.671 497.74" stroke="black" stroke-width="0.961384" stroke-linecap="round" stroke-linejoin="round"/>
<path d="M483.545 466.683C482.734 464.401 482.151 462.045 481.805 459.647C481.659 458.287 481.698 456.913 481.923 455.563C482.264 453.738 483.111 452.045 484.366 450.677C485.774 449.202 487.371 447.921 489.115 446.865L491.597 445.243C496.337 442.146 501.28 439.371 506.392 436.937C506.96 436.816 507.534 436.724 508.112 436.663C514.64 436.018 521.617 439.243 528.165 436.878C528.445 439.368 527.921 441.882 526.669 444.052C525.417 446.222 523.503 447.934 521.207 448.937C518.894 449.886 516.412 450.355 513.912 450.315C511.412 450.274 508.947 449.726 506.666 448.703" stroke="black" stroke-width="0.961384" stroke-linecap="round" stroke-linejoin="round"/>
<path d="M507.896 450.189C506.881 451.654 505.507 452.834 503.906 453.618C502.305 454.401 500.53 454.762 498.75 454.664" stroke="black" stroke-width="0.961384" stroke-linecap="round" stroke-linejoin="round"/>
<path d="M517.395 453.218C518.274 459.081 514.913 464.944 510.144 468.501C505.178 471.788 499.479 473.802 493.551 474.365" stroke="black" stroke-width="0.961384" stroke-linecap="round" stroke-linejoin="round"/>
<path d="M534.186 432.267C535.498 433.702 536.737 435.202 537.899 436.762C540.356 440.013 542.503 443.487 544.31 447.14C545.315 449.125 546.202 451.168 546.968 453.257C548.396 457.059 549.469 460.984 550.173 464.984V465.336" stroke="black" stroke-width="0.961384" stroke-linecap="round" stroke-linejoin="round"/>
<path d="M477.367 484.04C484.516 486.035 491.914 486.989 499.335 486.874C505.018 486.814 510.676 486.113 516.202 484.783C528.906 481.753 540.71 474.15 550.326 465.238" stroke="black" stroke-width="0.961384" stroke-linecap="round" stroke-linejoin="round"/>
<path d="M481.742 455.603C478.893 459.745 476.963 464.447 476.08 469.395C475.197 474.343 475.381 479.423 476.621 484.294C477.073 486.074 477.675 487.814 478.419 489.493C479.764 493.185 482.48 496.216 486.002 497.956C487.546 498.569 489.223 498.771 490.869 498.542C491.393 498.48 491.91 498.369 492.413 498.21C493.505 497.881 494.526 497.351 495.423 496.646C496.752 495.623 497.796 494.274 498.453 492.73C499.11 491.186 499.359 489.499 499.175 487.832" stroke="black" stroke-width="0.961384" stroke-linecap="round" stroke-linejoin="round"/>
<path d="M474.416 450.892C477.55 450.19 480.776 449.992 483.973 450.306" stroke="black" stroke-width="0.961384" stroke-linecap="round" stroke-linejoin="round"/>
<path d="M421.395 477.102C426.509 482.969 432.724 487.776 439.688 491.252C446.076 494.367 452.77 496.81 459.662 498.542C464.646 499.91 470.138 501.043 474.575 497.819C479.846 499.516 485.477 499.759 490.875 498.522C491.395 498.442 491.911 498.331 492.419 498.19" stroke="black" stroke-width="0.961384" stroke-linecap="round" stroke-linejoin="round"/>
<path d="M507.992 435.823C512.233 431.309 518.566 429.608 524.253 427.146C530.917 424.121 537.038 420.02 542.371 415.009C554.058 413.534 565.523 410.646 576.515 406.409C577.042 412.155 573.134 417.628 568.13 420.52C563.127 423.413 557.205 424.234 551.498 425.015C547.755 429.219 543.493 432.93 538.814 436.058" stroke="black" stroke-width="0.961384" stroke-linecap="round" stroke-linejoin="round"/>
<path d="M546.634 431.289C551.328 430.51 555.918 429.199 560.315 427.381C567.54 427.053 574.781 427.288 581.97 428.084C587.012 428.651 592.055 429.237 597.332 429.902C597.036 431.354 596.424 432.724 595.539 433.913C594.654 435.102 593.518 436.082 592.211 436.781L591.762 437.036C588.911 438.374 585.743 438.888 582.615 438.521C579.488 438.247 576.458 437.387 573.234 436.918C567.926 438.404 562.461 439.257 556.953 439.459C553.693 442.777 549.665 445.24 545.227 446.632" stroke="black" stroke-width="0.961384" stroke-linecap="round" stroke-linejoin="round"/>
<path d="M547.609 453.023C550.622 452.366 553.582 451.484 556.463 450.385C559.004 449.466 561.525 448.43 564.105 447.16C572.313 441.668 583.884 444.463 592.405 439.342C593.054 438.966 593.641 438.491 594.144 437.935L592.503 437.114" stroke="black" stroke-width="0.961384" stroke-linecap="round" stroke-linejoin="round"/>
<path d="M556.604 450.756C560.649 450.756 564.714 450.756 569.249 450.756C575.696 452.686 582.323 453.957 589.028 454.547C588.991 455.56 588.671 456.541 588.105 457.381C587.538 458.22 586.747 458.884 585.822 459.297C583.97 460.082 581.97 460.456 579.959 460.391C575.37 460.467 570.785 460.068 566.278 459.199" stroke="black" stroke-width="0.961384" stroke-linecap="round" stroke-linejoin="round"/>
<path d="M565.786 459.277C561.133 462.229 555.901 464.148 550.443 464.906" stroke="black" stroke-width="0.961384" stroke-linecap="round" stroke-linejoin="round"/>
<path d="M89.119 415.967L48.5059 432.814" stroke="black" stroke-width="0.961384" stroke-linecap="round" stroke-linejoin="round"/>
<path d="M51.5586 432.991C50.5814 433.186 49.6042 433.362 48.6074 433.479C42.0796 434.378 35.3368 434.105 29.2194 436.431C23.1021 438.756 17.9424 443.701 12.8413 448.45C12.8448 449.012 13.0211 449.559 13.3463 450.017C13.6715 450.475 14.1298 450.822 14.6589 451.011C15.735 451.371 16.8851 451.452 18.001 451.245C22.7503 450.822 27.1503 448.573 30.2748 444.971C33.9695 444.371 37.7233 444.22 41.4542 444.522C27.656 448.583 14.3898 454.271 1.93555 461.467C2.73686 463.421 10.0269 464.008 12.9976 463.636L13.6621 463.519" stroke="black" stroke-width="0.961384" stroke-linecap="round" stroke-linejoin="round"/>
<path d="M40.4346 453.648C31.0562 456.224 21.9049 459.564 13.0726 463.636C8.90311 465.551 4.86395 467.636 0.955078 469.89C1.74173 471.054 2.79303 472.015 4.02282 472.695C5.25261 473.374 6.62589 473.752 8.03013 473.799C10.8305 473.847 13.6208 473.451 16.2974 472.626L44.4999 465.375L45.1057 465.219" stroke="black" stroke-width="0.961384" stroke-linecap="round" stroke-linejoin="round"/>
<path d="M49.816 462.795C48.057 463.635 46.3175 464.534 44.5976 465.453C32.7045 471.875 21.8894 480.118 12.5449 489.883C13.2888 490.662 14.212 491.248 15.2339 491.589C16.2559 491.929 17.3456 492.015 18.4082 491.838C20.5096 491.526 22.5442 490.865 24.4279 489.883C38.8125 483.219 53.1971 476.535 68.2463 469.635C64.0498 472.961 60.3163 476.833 57.1451 481.147C55.5126 483.332 54.3357 485.823 53.6844 488.472C53.033 491.121 52.9205 493.874 53.3535 496.567C53.6205 497.411 54.137 498.154 54.8348 498.699C55.5326 499.243 56.379 499.563 57.2624 499.616C59.782 493.79 64.0152 488.868 69.3994 485.505C73.9337 480.385 80.9697 478.313 86.403 474.15C96.8397 466.157 100.084 451.674 109.524 442.449" stroke="black" stroke-width="0.961384" stroke-linecap="round" stroke-linejoin="round"/>
<path d="M55.9141 461.816C57.0556 459.89 58.6104 458.242 60.4663 456.99" stroke="black" stroke-width="0.961384" stroke-linecap="round" stroke-linejoin="round"/>
<path d="M51.5549 446.533C49.8529 448.105 48.4781 449.998 47.5098 452.103" stroke="black" stroke-width="0.961384" stroke-linecap="round" stroke-linejoin="round"/>
<path d="M45.6113 442.975L48.0731 440.494" stroke="black" stroke-width="0.961384" stroke-linecap="round" stroke-linejoin="round"/>
<path d="M346.012 432.149C345.563 436.703 345.23 441.296 345.23 446.221C345.23 447.354 345.23 448.508 345.23 449.68C347.752 449.993 350.273 450.247 352.814 450.423C358.881 450.881 364.969 450.985 371.049 450.736H371.987C371.987 450.208 371.987 449.68 371.987 449.152C371.987 447.667 371.987 446.182 371.987 444.794C365.987 444.579 359.986 444.364 353.986 444.188C353.755 440.217 353.885 436.233 354.377 432.286" stroke="black" stroke-width="0.961384" stroke-linecap="round" stroke-linejoin="round"/>
<path d="M372.296 436.058L372.648 440.182L357.618 440.358C357.27 438.856 357.407 437.282 358.009 435.863C362.876 436.058 367.664 436.156 372.296 436.058Z" stroke="black" stroke-width="0.961384" stroke-linecap="round" stroke-linejoin="round"/>
<path d="M313.666 435.159C312.99 437.519 312.764 439.986 313.002 442.429C313.038 442.941 313.103 443.45 313.197 443.954L313.041 443.445" stroke="black" stroke-width="0.961384" stroke-linecap="round" stroke-linejoin="round"/>
<path d="M304.754 434.514C304.598 436.524 304.598 438.543 304.754 440.552C304.754 441.354 304.754 442.135 304.949 442.917" stroke="black" stroke-width="0.961384" stroke-linecap="round" stroke-linejoin="round"/>
<path d="M247.097 417.354C246.444 419.585 246.245 421.924 246.511 424.234C246.569 424.991 246.687 425.742 246.862 426.481C246.96 426.931 247.097 427.38 247.234 427.81" stroke="black" stroke-width="0.961384" stroke-linecap="round" stroke-linejoin="round"/>
<path d="M243.071 414.129C241.674 417.758 241.341 421.711 242.114 425.522C242.231 426.185 242.394 426.838 242.602 427.477" stroke="black" stroke-width="0.961384" stroke-linecap="round" stroke-linejoin="round"/>
<path d="M246.783 424.195C264.773 433.319 284.358 438.881 304.459 440.573" stroke="black" stroke-width="0.961384" stroke-linecap="round" stroke-linejoin="round"/>
<path d="M313.859 442.312C323.721 444.328 333.714 445.635 343.762 446.221" stroke="black" stroke-width="0.961384" stroke-linecap="round" stroke-linejoin="round"/>
<path d="M372.881 449.036C382.172 450.54 391.619 450.835 400.986 449.916" stroke="black" stroke-width="0.961384" stroke-linecap="round" stroke-linejoin="round"/>
<path d="M402.806 437.563C403.271 441.779 402.791 446.045 401.399 450.051C401.219 450.622 401.011 451.183 400.773 451.732" stroke="black" stroke-width="0.961384" stroke-linecap="round" stroke-linejoin="round"/>
<path d="M408.22 437.563C408.104 441.241 407.64 444.899 406.833 448.488C406.55 449.588 406.204 450.672 405.797 451.732" stroke="black" stroke-width="0.961384" stroke-linecap="round" stroke-linejoin="round"/>
<path d="M406.871 448.488L413.046 447.921" stroke="black" stroke-width="0.961384" stroke-linecap="round" stroke-linejoin="round"/>
<path d="M414.301 435.218C414.44 439.469 414.165 443.723 413.48 447.921" stroke="black" stroke-width="0.961384" stroke-linecap="round" stroke-linejoin="round"/>
<path d="M241.486 425.642C221.277 452.316 207.257 483.153 200.443 515.917C193.563 555.436 213.146 599.019 235.857 633.632" stroke="black" stroke-width="0.961384" stroke-linecap="round" stroke-linejoin="round"/>
<path d="M357.268 569.917C357.927 570.462 358.518 571.086 359.027 571.774C360.524 573.897 361.434 576.378 361.665 578.966C361.947 581.277 361.947 583.613 361.665 585.924C361.665 586.491 361.509 587.096 361.411 587.761" stroke="black" stroke-width="0.961384" stroke-linecap="round" stroke-linejoin="round"/>
<path d="M357.658 580.53C358.87 582.954 360.082 585.377 361.352 587.82C368.329 601.501 375.932 615.28 382.851 628.863L385.274 633.652" stroke="black" stroke-width="0.961384" stroke-linecap="round" stroke-linejoin="round"/>
<path d="M276.316 458.319C308.724 487.874 335.827 522.764 356.448 561.474" stroke="black" stroke-width="0.961384" stroke-linecap="round" stroke-linejoin="round"/>
<path d="M256.105 505.715C275.65 510.581 295.507 515.663 312.12 526.96C327.462 537.377 338.954 552.367 350.153 567.162" stroke="black" stroke-width="0.961384" stroke-linecap="round" stroke-linejoin="round"/>
<path d="M285.738 549.982C305.181 552.096 324.228 556.938 342.319 564.367" stroke="black" stroke-width="0.961384" stroke-linecap="round" stroke-linejoin="round"/>
<path d="M371.185 452.437C380.661 495.81 379.102 540.868 366.65 583.482" stroke="black" stroke-width="0.961384" stroke-linecap="round" stroke-linejoin="round"/>
<path d="M352.752 452.866C363.669 491.204 366.95 531.312 362.407 570.914" stroke="black" stroke-width="0.961384" stroke-linecap="round" stroke-linejoin="round"/>
<path d="M365.24 586.355C365.748 585.436 366.276 584.498 366.765 583.56C383.152 553.621 396.427 522.081 406.381 489.435" stroke="black" stroke-width="0.961384" stroke-linecap="round" stroke-linejoin="round"/>
<path d="M368.701 590.634C378.713 584.09 387.809 576.242 395.751 567.298" stroke="black" stroke-width="0.961384" stroke-linecap="round" stroke-linejoin="round"/>
<path d="M370.99 594.114C375.415 593.704 379.839 594.897 383.459 597.475V597.319" stroke="black" stroke-width="0.961384" stroke-linecap="round" stroke-linejoin="round"/>
<path d="M383.184 628.668C396.356 600.192 409.627 571.462 416.956 540.934C422.243 520.093 423.739 498.472 421.373 477.102C420.178 467.233 417.829 457.538 414.376 448.215" stroke="black" stroke-width="0.961384" stroke-linecap="round" stroke-linejoin="round"/>
<path d="M309.094 63.6021C310.451 63.5676 311.792 63.8951 312.981 64.5511C314.169 65.2071 315.161 66.1679 315.855 67.3346" stroke="black" stroke-width="0.480692" stroke-linecap="round" stroke-linejoin="round"/>
<path d="M335.26 67.9998C337.044 66.2426 339.171 64.8709 341.507 63.9698C343.844 63.0688 346.341 62.6577 348.843 62.7619C353.832 63.0051 358.676 64.5188 362.915 67.1594" stroke="black" stroke-width="0.480692" stroke-linecap="round" stroke-linejoin="round"/>
<path d="M337.115 83.088C337.338 81.7279 337.952 80.462 338.882 79.4451C339.812 78.4281 341.018 77.7041 342.353 77.3615C344.643 76.9929 346.991 77.2915 349.115 78.2214C352.819 79.5387 356.329 81.3464 359.552 83.5961" stroke="black" stroke-width="0.961384" stroke-linecap="round" stroke-linejoin="round"/>
<path d="M340.909 80.3521C340.226 82.0511 340.226 83.9488 340.909 85.6479C340.909 85.8433 341.105 86.0387 341.3 86.0778C341.495 86.1169 341.789 85.6088 341.749 85.2375C341.949 84.4088 341.977 83.5482 341.832 82.7082C341.688 81.8683 341.374 81.0666 340.909 80.3521Z" stroke="black" stroke-width="0.480692" stroke-linecap="round" stroke-linejoin="round"/>
<path d="M312.529 79.4712C312.103 80.1775 311.854 80.9764 311.803 81.7998C311.752 82.6232 311.9 83.4467 312.236 84.2003L312.353 84.4153C312.529 84.6693 312.822 84.8647 313.076 84.7475C313.184 84.6676 313.269 84.5601 313.32 84.4362C313.372 84.3123 313.389 84.1768 313.37 84.044C313.478 82.4733 313.189 80.9008 312.529 79.4712Z" stroke="black" stroke-width="0.480692" stroke-linecap="round" stroke-linejoin="round"/>
<path d="M309.756 80.3517C309.868 80.1366 309.992 79.9278 310.127 79.7264C310.246 79.5127 310.383 79.3099 310.538 79.1205C310.823 78.7276 311.158 78.373 311.534 78.0652C311.903 77.7471 312.339 77.5181 312.81 77.396C313.281 77.274 313.774 77.2623 314.251 77.3617C315.147 77.6829 315.924 78.2691 316.479 79.0424C317.927 80.7306 319.234 82.5346 320.387 84.4362" stroke="black" stroke-width="0.961384" stroke-linecap="round" stroke-linejoin="round"/>
<path d="M318.982 71.8496C320.463 73.533 321.518 75.5487 322.055 77.7261C322.593 79.9035 322.598 82.1783 322.07 84.358C322.07 84.5339 321.972 84.7098 321.933 84.8661C320.486 89.8304 316.441 93.6415 312.59 97.14C311.174 98.2779 309.958 99.6454 308.994 101.186C308.864 101.432 308.796 101.708 308.799 101.987C308.802 102.255 308.855 102.52 308.955 102.769C309.161 103.277 309.452 103.746 309.815 104.156C311.379 106.07 313.24 107.719 315.327 109.042" stroke="black" stroke-width="0.480692" stroke-linecap="round" stroke-linejoin="round"/>
<path d="M318.438 106.561C319.116 106.557 319.786 106.712 320.393 107.014C321 107.316 321.528 107.756 321.935 108.299" stroke="black" stroke-width="0.480692" stroke-linecap="round" stroke-linejoin="round"/>
<path d="M325.098 110.469C326.17 110.064 327.094 109.343 327.747 108.4C328.4 107.458 328.75 106.339 328.752 105.192" stroke="black" stroke-width="0.480692" stroke-linecap="round" stroke-linejoin="round"/>
<path d="M334.462 128.313C329.961 124.085 324.815 120.602 319.217 117.994C317.925 117.387 316.52 117.061 315.093 117.036C314.373 117.038 313.665 117.217 313.031 117.558C312.397 117.899 311.856 118.391 311.458 118.991C311.236 119.307 311.1 119.675 311.062 120.059C311.024 120.443 311.085 120.83 311.24 121.184C311.395 121.537 311.639 121.845 311.948 122.077C312.256 122.309 312.619 122.458 313.002 122.509C313.549 122.509 314.116 122.509 314.663 122.684C321.534 123.426 328.228 125.33 334.462 128.313Z" stroke="black" stroke-width="0.480692" stroke-linecap="round" stroke-linejoin="round"/>
<path d="M314.606 123.095C314.342 124.45 314.342 125.843 314.606 127.198" stroke="black" stroke-width="0.480692" stroke-linecap="round" stroke-linejoin="round"/>
<path d="M312.92 127.355H314.62L334.438 128.45H334.673" stroke="black" stroke-width="0.480692" stroke-linecap="round" stroke-linejoin="round"/>
<path d="M315.934 135.271C318.668 136.71 321.786 137.25 324.845 136.815" stroke="black" stroke-width="0.480692" stroke-linecap="round" stroke-linejoin="round"/>
<path d="M320.74 177.173C321.4 182.133 322.714 186.983 324.649 191.597C326.644 196.481 329.272 201.08 332.467 205.278C335.704 209.515 339.504 213.289 343.763 216.497C345.034 217.454 346.324 218.334 347.672 219.174C351.776 221.741 356.189 223.777 360.806 225.233C367.245 227.253 373.977 228.178 380.722 227.969C386.32 227.804 391.864 226.823 397.178 225.057L397.628 224.901C402.635 223.158 407.377 220.731 411.719 217.689C415.711 214.883 419.347 211.601 422.547 207.917C427.089 202.728 430.669 196.772 433.12 190.327" stroke="black" stroke-width="0.480692" stroke-linecap="round" stroke-linejoin="round"/>
<path d="M411.383 196.797C414.837 200.685 418.511 204.371 422.386 207.839" stroke="black" stroke-width="0.480692" stroke-linecap="round" stroke-linejoin="round"/>
<path d="M416.74 188.06C421.419 190.353 425.908 193.012 430.166 196.014" stroke="black" stroke-width="0.480692" stroke-linecap="round" stroke-linejoin="round"/>
<path d="M411.739 217.806L411.641 217.688L401.4 205.669" stroke="black" stroke-width="0.480692" stroke-linecap="round" stroke-linejoin="round"/>
<path d="M397.448 224.588L390.061 210.263" stroke="black" stroke-width="0.480692" stroke-linecap="round" stroke-linejoin="round"/>
<path d="M376.676 212.276C377.617 217.514 378.923 222.68 380.585 227.735" stroke="black" stroke-width="0.480692" stroke-linecap="round" stroke-linejoin="round"/>
<path d="M363.054 210.418C362.331 215.206 361.588 219.995 360.865 224.783" stroke="black" stroke-width="0.480692" stroke-linecap="round" stroke-linejoin="round"/>
<path d="M350.097 203.95L343.902 216.223" stroke="black" stroke-width="0.480692" stroke-linecap="round" stroke-linejoin="round"/>
<path d="M342.629 194.841L332.857 204.945" stroke="black" stroke-width="0.480692" stroke-linecap="round" stroke-linejoin="round"/>
<path d="M336.609 184.093C332.225 185.944 328.162 188.477 324.57 191.598" stroke="black" stroke-width="0.480692" stroke-linecap="round" stroke-linejoin="round"/>
<path d="M235.896 633.632H385.254" stroke="black" stroke-width="0.961384" stroke-linecap="round" stroke-linejoin="round"/>
</svg>
