<svg width="467" height="496" viewBox="0 0 467 496" fill="none" xmlns="http://www.w3.org/2000/svg">
<path d="M423.34 70.5957H94.2129V494.89H423.34V70.5957Z" fill="#EDEDED" stroke="black" stroke-width="0.961384" stroke-miterlimit="10"/>
<path d="M466.489 335.835C466.258 336.969 465.78 338.038 465.089 338.966C464.398 339.894 463.511 340.659 462.491 341.206L462.14 341.404C459.915 342.449 457.441 342.85 454.999 342.564C452.558 342.35 450.193 341.679 447.675 341.312C443.531 342.472 439.265 343.138 434.965 343.296C432.419 345.886 429.275 347.809 425.81 348.896L425.001 349.308C423.59 346.456 421.915 343.743 419.996 341.206L420.713 340.671C422.673 339.364 424.539 337.921 426.298 336.353L426.817 336.933C430.481 336.325 434.065 335.301 437.498 333.881C443.139 333.625 448.791 333.809 454.404 334.431C458.432 334.858 462.369 335.316 466.489 335.835Z" fill="white"/>
<path d="M462.694 341.557L463.976 342.198C463.583 342.632 463.124 343.003 462.618 343.296C455.965 347.218 446.932 345.036 440.523 349.4C438.509 350.361 436.541 351.2 434.557 351.917C432.308 352.775 429.997 353.464 427.645 353.977L427.142 354.16C426.544 352.529 425.851 350.934 425.066 349.385L425.875 348.973C429.34 347.886 432.485 345.963 435.03 343.373C439.33 343.215 443.597 342.549 447.741 341.389C450.258 341.755 452.623 342.427 455.065 342.64C457.507 342.927 459.98 342.525 462.206 341.481L462.557 341.282L462.694 341.557Z" fill="white"/>
<path d="M459.98 355.076C459.951 355.866 459.701 356.633 459.259 357.288C458.817 357.944 458.199 358.462 457.477 358.784C456.031 359.397 454.469 359.689 452.9 359.639C449.317 359.698 445.737 359.386 442.219 358.708H441.99C438.357 361.012 434.273 362.511 430.012 363.102H429.752C429.203 359.98 428.365 356.915 427.25 353.947L427.754 353.764C430.106 353.251 432.416 352.562 434.666 351.704L434.772 351.994C437.931 351.994 441.105 351.994 444.645 351.994C449.639 353.535 454.777 354.568 459.98 355.076Z" fill="white"/>
<path d="M420.061 341.206C421.979 343.744 423.655 346.456 425.066 349.308C425.851 350.858 426.543 352.452 427.141 354.084C428.256 357.052 429.094 360.116 429.643 363.239V363.514C422.136 370.41 412.859 376.346 403.002 378.772C398.725 379.776 394.349 380.298 389.956 380.328C384.188 380.411 378.438 379.666 372.881 378.116L372.302 378.253C371.332 374.465 371.18 370.513 371.856 366.662C372.532 362.81 374.021 359.146 376.223 355.915H376.36C376.627 354.49 377.288 353.168 378.268 352.1C379.367 350.949 380.614 349.949 381.976 349.125L383.913 347.858C387.614 345.44 391.473 343.273 395.464 341.373C395.908 341.279 396.356 341.207 396.807 341.16L396.715 340.504C400.026 336.979 404.97 335.651 409.41 333.729C414.613 331.367 419.392 328.166 423.555 324.253C432.679 323.102 441.63 320.847 450.212 317.54C450.624 322.026 447.572 326.298 443.666 328.556C439.76 330.814 435.136 331.455 430.681 332.066C427.757 335.337 424.43 338.224 420.778 340.656L420.061 341.206Z" fill="white"/>
<path d="M321.489 170.173C324.606 167.983 327.445 165.421 329.943 162.544C333.489 158.494 336.284 153.843 338.197 148.811V148.705C343.318 148.926 348.409 147.828 352.983 145.516C364.656 153.862 380.159 156.425 390.305 166.572C397.584 173.82 401.124 184.165 402.055 194.404C402.985 204.642 401.505 214.927 400.04 225.104C397.538 242.621 395.025 260.143 392.503 277.67C391.343 285.772 390.138 293.997 386.765 301.458C384.413 306.895 380.626 311.589 375.81 315.038L376.1 315.465C377.932 318.9 378.642 322.822 378.129 326.68C379.739 327.618 380.989 329.069 381.678 330.8C382.366 332.532 382.455 334.445 381.928 336.232L381.181 336.37C380.577 333.818 379.177 331.526 377.183 329.824C372.689 325.727 367.083 323.052 361.072 322.134C355.061 321.217 348.912 322.098 343.401 324.666H341.005C338.858 329.758 335.199 334.067 330.522 337.01C328.351 338.303 326.002 339.27 323.549 339.879C321.956 340.287 320.334 340.573 318.697 340.733C317.766 340.856 316.82 340.917 315.889 340.962H314.562C309.894 340.93 305.233 340.568 300.616 339.879L276.889 336.827L273.989 336.69L270.236 337.316C261.898 338.732 253.455 339.431 244.998 339.406C242.709 339.406 240.421 339.269 238.117 339.086C235.228 338.841 232.349 338.46 229.48 337.941C220.682 336.419 212.265 333.195 204.7 328.45H203.464C199.845 328.839 196.21 327.877 193.256 325.75C192.174 325.001 191.18 324.131 190.296 323.156C190.031 322.886 189.781 322.6 189.549 322.301C186.347 318.02 184.536 312.859 184.361 307.516C184.201 302.211 184.585 296.904 185.505 291.677L190.357 257.239L195.21 222.815L195.759 219.336C194.742 218.696 193.796 218.009 192.921 217.277L197.025 215.751C186.921 197.874 181.357 177.792 180.821 157.265L179.295 156.273C183.065 151.148 188.214 147.201 194.141 144.89C200.748 142.082 207.874 140.785 214.924 139.336C221.973 137.886 229.053 136.284 235.385 132.851L235.462 132.744C240.019 135.648 245.213 137.402 250.598 137.856V138.558C251.113 142.43 252.139 146.216 253.65 149.818C255.207 153.631 257.259 157.222 259.753 160.499C262.28 163.807 265.247 166.754 268.573 169.258C269.565 170.006 270.572 170.692 271.624 171.348C274.828 173.353 278.274 174.942 281.878 176.078C286.905 177.656 292.161 178.378 297.427 178.215C301.797 178.086 306.125 177.32 310.274 175.941L310.625 175.819C314.487 174.442 318.143 172.543 321.489 170.173Z" fill="#50AE36"/>
<path d="M389.956 381.046C390.091 382.364 389.881 383.694 389.345 384.906C388.81 386.118 387.969 387.17 386.904 387.958C386.183 388.504 385.365 388.908 384.493 389.148C384.097 389.258 383.694 389.344 383.288 389.407C382.003 389.586 380.694 389.428 379.488 388.95C376.738 387.591 374.617 385.225 373.568 382.343C372.987 381.031 372.517 379.674 372.164 378.284L372.744 378.146C378.346 379.699 384.143 380.434 389.956 380.328V381.046Z" fill="black"/>
<path d="M370.273 351.871C367.395 353.473 364.907 355.693 362.989 358.37C361.071 361.048 359.77 364.118 359.18 367.359C357.838 375.4 363.956 384.143 370.624 388.828C367.161 391.345 362.873 390.46 358.982 389.392C353.601 388.04 348.375 386.133 343.388 383.701C337.951 380.987 333.099 377.234 329.106 372.653C328.173 364.948 326.339 357.379 323.643 350.101L322.941 349.918C323.476 346.641 323.69 343.319 323.582 340C326.035 339.391 328.384 338.424 330.555 337.132C335.232 334.188 338.891 329.879 341.038 324.787H343.434C348.946 322.226 355.093 321.352 361.102 322.275C367.11 323.198 372.711 325.877 377.201 329.975C379.195 331.677 380.595 333.97 381.199 336.521C381.353 337.302 381.353 338.105 381.199 338.886H379.871C382.236 341.213 383.655 344.333 383.854 347.645L383.96 347.813L382.022 349.079C380.661 349.903 379.414 350.903 378.315 352.054L378.01 351.765C375.514 351.52 372.995 351.674 370.548 352.222L370.273 351.871Z" fill="#50AE36"/>
<path d="M379.547 388.919C380.752 389.398 382.062 389.555 383.346 389.376C379.132 390.342 374.736 390.152 370.621 388.827C363.953 384.158 357.834 375.4 359.177 367.358C359.767 364.118 361.068 361.048 362.986 358.37C364.904 355.692 367.391 353.473 370.27 351.871L370.499 352.237C372.946 351.689 375.464 351.534 377.96 351.779L378.265 352.069C377.285 353.137 376.625 354.459 376.358 355.884H376.221C373.997 359.117 372.49 362.788 371.8 366.652C371.111 370.515 371.255 374.481 372.223 378.283C372.576 379.673 373.046 381.031 373.627 382.342C374.683 385.213 376.803 387.568 379.547 388.919Z" fill="#50AE36"/>
<path d="M326.052 145.591C325.337 146.063 324.581 146.472 323.794 146.812C321.96 147.625 320.008 148.14 318.011 148.337C313.658 148.546 309.301 148.03 305.118 146.812C302.44 146.276 299.865 145.318 297.488 143.974C296.312 143.287 295.296 142.357 294.506 141.247C293.717 140.137 293.173 138.871 292.911 137.534C292.645 139.455 292.948 141.411 293.784 143.161C294.619 144.91 295.95 146.376 297.61 147.376C294.312 145.757 291.528 143.253 289.569 140.144C287.611 137.034 286.554 133.442 286.517 129.768C286.589 125.678 287.951 121.716 290.408 118.446C292.336 115.804 294.911 113.702 297.885 112.343C294.48 111.245 291.356 109.417 288.73 106.987C286.282 104.534 284.678 101.364 284.152 97.9385C285.262 100.093 287.071 101.806 289.283 102.797C291.494 103.787 293.977 103.996 296.323 103.389C298.669 102.782 300.739 101.395 302.193 99.4566C303.647 97.5178 304.399 95.1423 304.324 92.7201C304.64 94.0253 305.222 95.2512 306.033 96.3211C306.788 97.3559 307.859 98.1166 309.085 98.4878C310.09 98.7067 311.131 98.7067 312.137 98.4878C316.179 97.7658 319.905 95.8283 322.818 92.9337C325.696 90.085 327.761 86.5186 328.799 82.6036C329.583 80.2469 329.557 77.6955 328.723 75.3558C328.129 74.1096 327.228 73.0353 326.104 72.2343C324.98 71.4334 323.67 70.9322 322.299 70.7783C319.515 70.4957 316.732 71.3299 314.563 73.0976C314.047 74.8263 312.985 76.3411 311.535 77.4143C310.085 78.4874 308.325 79.0608 306.521 79.0484C304.82 78.8865 303.177 78.3461 301.712 77.467C300.246 76.5878 298.996 75.3921 298.053 73.9673C296.169 71.0689 294.825 67.8535 294.086 64.4765C293.374 61.1435 292.352 57.8843 291.034 54.7415L291.126 54.5584C285.667 51.817 280.949 47.801 277.372 42.8502C273.794 37.8994 271.462 32.1595 270.572 26.1165L271.976 24.5906C274.334 20.1902 278.287 16.8596 283.023 15.2829C285.921 14.2696 288.946 13.6686 292.011 13.4977V13.0247C295.75 10.0771 300.441 8.60561 305.194 8.88958H305.484H305.881C320.102 10.5375 332.964 19.5706 340.701 31.6248C348.437 43.6791 351.382 58.7088 350.436 73.1433C351.899 76.4329 353.715 79.5537 355.852 82.4511C359.881 88.0815 364.611 93.132 368.288 99.0524C371.952 104.738 374.298 111.172 375.154 117.881C376.029 124.598 374.803 131.42 371.645 137.412C372.495 134.314 372.697 131.074 372.237 127.895C371.778 124.715 370.667 121.665 368.975 118.934C369.051 123.256 368.184 127.543 366.434 131.496C364.684 135.449 362.094 138.973 358.843 141.822C357.073 143.357 355.115 144.66 353.014 145.698C348.44 148.01 343.349 149.108 338.229 148.887C336.887 148.833 335.55 148.68 334.231 148.429C331.52 147.866 328.869 147.049 326.312 145.988L326.052 145.591ZM290.134 52.5901C285.007 45.2202 279.865 37.9266 274.707 30.633C275.516 38.8879 278.064 44.1216 290.134 52.5901Z" fill="black"/>
<path d="M338.199 148.826V148.933C336.286 153.965 333.49 158.615 329.944 162.666L329.822 162.559C326.797 159.851 323.929 156.973 321.232 153.938L320.957 153.724C322.359 151.787 323.393 149.61 324.009 147.3L323.826 146.888C324.613 146.548 325.368 146.14 326.084 145.667L326.313 146.003C328.87 147.064 331.521 147.882 334.232 148.445C335.543 148.669 336.869 148.796 338.199 148.826Z" fill="#50AE36"/>
<path d="M329.821 162.483L329.943 162.59C327.445 165.466 324.607 168.028 321.49 170.219L313.494 160.835L313.342 160.591C314.302 160.03 315.224 159.409 316.104 158.729C317.968 157.308 319.604 155.61 320.956 153.694L321.23 153.907C323.929 156.927 326.797 159.79 329.821 162.483Z" fill="#50AE36"/>
<path d="M313.493 351.582C314.58 348.454 314.955 345.123 314.592 341.832V341.115H315.919C316.85 341.115 317.796 341.008 318.727 340.886L318.833 341.862C318.743 344.733 318.38 347.589 317.75 350.392L322.572 349.949H322.907L323.609 350.132C326.312 357.415 328.15 364.989 329.087 372.7C330.939 389.399 329.771 406.295 325.639 422.58C319.917 446.414 309.556 468.844 299.272 491.076L298.997 491.213C293.611 480.624 287.675 469.851 282.213 459.17H282.304C282.304 458.651 282.442 458.178 282.503 457.736L285.249 458.071C285.646 457.354 286.058 456.622 286.44 455.889H286.348C296.069 422.62 297.286 387.443 289.888 353.581V352.177H290.62C290.62 351.765 290.62 351.353 290.62 350.941H291.246C298.5 352.115 305.875 352.346 313.188 351.628L313.493 351.582Z" fill="#C9C9C9"/>
<path d="M251.455 66.4756L250.174 66.1094C249.273 64.6246 248.252 63.2162 247.122 61.898C246.689 61.2942 246.082 60.8366 245.382 60.5858C245.01 60.5082 244.626 60.5173 244.258 60.6126C243.89 60.7079 243.549 60.8867 243.261 61.1351C242.968 61.3754 242.706 61.6523 242.483 61.959C242.363 62.1069 242.255 62.2652 242.163 62.4321L241.339 62.6152C240.56 59.3907 240.348 56.0552 240.713 52.7581C241.149 48.3884 242.518 44.163 244.726 40.3673C246.935 36.5716 249.932 33.2938 253.515 30.7553V30.5569C255.383 30.0735 257.046 29.0038 258.261 27.5052V27.3221C262.414 28.038 266.683 27.6432 270.635 26.1777C271.525 32.2208 273.857 37.9606 277.435 42.9114C281.012 47.8622 285.73 51.8783 291.189 54.6197L291.097 54.8028C292.415 57.9456 293.437 61.2047 294.149 64.5377C294.875 67.8778 296.192 71.061 298.04 73.937C298.983 75.3618 300.233 76.5575 301.698 77.4367C303.164 78.3158 304.807 78.8562 306.508 79.0181C308.312 79.0305 310.071 78.4571 311.521 77.3839C312.971 76.3108 314.034 74.796 314.549 73.0673C316.719 71.2996 319.501 70.4654 322.285 70.748C323.657 70.9019 324.967 71.4031 326.091 72.204C327.215 73.005 328.116 74.0793 328.709 75.3255C329.543 77.6652 329.57 80.2166 328.786 82.5733C327.758 86.4975 325.698 90.0749 322.82 92.9339C319.897 95.8006 316.172 97.711 312.139 98.4117C311.133 98.6306 310.092 98.6306 309.087 98.4117C307.861 98.0405 306.79 97.2798 306.035 96.245C305.224 95.1751 304.642 93.9492 304.326 92.644C304.401 95.0662 303.649 97.4418 302.195 99.3805C300.741 101.319 298.671 102.706 296.325 103.313C293.979 103.92 291.496 103.711 289.285 102.721C287.073 101.73 285.264 100.017 284.154 97.8624C284.68 101.288 286.284 104.458 288.732 106.911C291.358 109.341 294.482 111.169 297.887 112.266C294.913 113.626 292.338 115.728 290.41 118.37C283.254 119.179 275.045 121.712 267.935 122.947C260.824 124.183 253.057 124.717 246.573 121.498C245.385 120.765 244.365 119.792 243.576 118.641C242.788 117.49 242.249 116.186 241.995 114.815C241.537 112.197 241.262 109.551 241.171 106.895C240.606 100.243 238.608 93.8036 237.814 87.1814C237.486 84.6211 237.425 82.0336 237.631 79.4606L241.232 79.7505C241.23 79.5325 241.283 79.3175 241.385 79.1249C242.137 77.9224 243.086 76.8548 244.192 75.9664C247.168 73.3267 250.326 70.3512 251.455 66.4756ZM245.749 99.7239L261.221 100.578V100.395C257.707 97.0944 253.689 94.3748 249.319 92.3388C248.311 91.865 247.213 91.6102 246.1 91.5911C245.538 91.5925 244.984 91.7325 244.489 91.9986C243.994 92.2648 243.573 92.6489 243.261 93.117C243.088 93.3638 242.982 93.651 242.952 93.9509C242.922 94.2508 242.97 94.5534 243.092 94.8293C243.213 95.1053 243.403 95.3454 243.644 95.5266C243.885 95.7077 244.168 95.8238 244.467 95.8635C244.894 95.8635 245.337 95.8635 245.764 96.0009V96.3823C245.558 97.4405 245.558 98.5284 245.764 99.5866L245.749 99.7239ZM266.927 66.7807C267.083 66.1337 267.105 65.4617 266.992 64.8059C266.879 64.15 266.634 63.524 266.271 62.9661C265.738 64.2928 265.738 65.7745 266.271 67.1012C266.271 67.2538 266.424 67.4063 266.577 67.4369C266.729 67.4674 266.958 67.0706 266.927 66.7807Z" fill="white"/>
<path d="M266.806 135.428C267.819 131.382 268.174 127.198 267.859 123.039C274.969 121.742 283.117 119.209 290.335 118.461C287.877 121.731 286.515 125.693 286.444 129.783C286.48 133.457 287.537 137.049 289.496 140.159C291.454 143.268 294.238 145.772 297.537 147.391C295.876 146.391 294.545 144.925 293.71 143.176C292.875 141.426 292.571 139.47 292.837 137.549C293.1 138.886 293.643 140.152 294.433 141.262C295.222 142.372 296.238 143.302 297.415 143.988C299.791 145.333 302.367 146.291 305.044 146.827C309.228 148.045 313.585 148.561 317.937 148.352C319.934 148.155 321.886 147.64 323.72 146.827L323.904 147.239C323.288 149.548 322.253 151.726 320.852 153.662C319.5 155.578 317.864 157.276 316 158.698C315.12 159.377 314.198 159.999 313.238 160.559C310.493 162.147 307.54 163.344 304.464 164.115C304.037 164.237 303.594 164.343 303.167 164.435C300.189 165.115 297.144 165.463 294.088 165.473C290.529 165.466 286.989 164.952 283.575 163.947C280.937 163.174 278.413 162.056 276.068 160.62C275.239 160.117 274.439 159.567 273.672 158.972C271.261 157.119 269.16 154.894 267.447 152.381C265.64 149.754 264.322 146.824 263.556 143.729C263.044 141.638 262.829 139.486 262.915 137.336L262.717 136.619C263.96 136.263 265.179 135.825 266.364 135.306L266.806 135.428Z" fill="white"/>
<path d="M318.714 340.855C320.35 340.694 321.972 340.408 323.565 340C323.673 343.319 323.459 346.641 322.925 349.918H322.589L317.768 350.36C318.398 347.558 318.76 344.702 318.851 341.831L318.714 340.855Z" fill="black"/>
<path d="M313.493 160.789L321.488 170.173C318.098 172.548 314.396 174.442 310.487 175.803V175.559L304.719 164.374L304.643 164.1C307.718 163.329 310.671 162.132 313.416 160.544L313.493 160.789Z" fill="#50AE36"/>
<path d="M314.591 341.831C314.955 345.122 314.579 348.453 313.493 351.581L313.172 351.474C305.859 352.192 298.484 351.961 291.23 350.788H290.605C290.605 349.628 290.605 348.468 290.605 347.385C285.92 347.217 281.236 347.049 276.552 346.912C276.371 343.812 276.473 340.701 276.857 337.62V337.07L300.584 340.122C305.201 340.811 309.862 341.173 314.53 341.205L314.591 341.831ZM291.108 343.891L290.773 340.656C287.095 340.656 283.357 340.656 279.619 340.503C279.148 341.612 279.041 342.84 279.313 344.013L291.108 343.891Z" fill="black"/>
<path d="M310.414 175.559V175.803L310.063 175.925C305.914 177.304 301.586 178.07 297.216 178.199V178.015C295.919 174.068 294.899 170.035 294.164 165.946V165.458C297.219 165.448 300.264 165.1 303.243 164.42C303.67 164.328 304.113 164.222 304.54 164.1L304.616 164.374L310.414 175.559Z" fill="#50AE36"/>
<path d="M281.16 2.67903C289.828 2.05163 298.472 4.18847 305.849 8.78245V8.85874H305.452H305.162C300.409 8.57477 295.718 10.0463 291.979 12.9938V13.4668C288.914 13.6377 285.889 14.2387 282.991 15.2521C278.255 16.8288 274.302 20.1594 271.944 24.5598L270.54 26.0856C266.589 27.5512 262.319 27.946 258.166 27.23V27.4131C256.951 28.9118 255.288 29.9814 253.42 30.4648C251.715 30.963 249.96 31.2751 248.187 31.3956C244.509 31.7313 240.481 32.0517 237.796 34.5999C236.666 35.8078 235.848 37.2727 235.412 38.8679C234.976 40.4631 234.935 42.1406 235.293 43.755C236.067 46.982 237.57 49.9886 239.688 52.544L240.679 52.6355C240.314 55.9326 240.526 59.2681 241.305 62.4925C241.305 62.4925 241.305 62.4925 241.305 62.5841H238.04C237.368 61.5007 236.712 60.4174 236.087 59.3035C233.856 55.3965 231.947 51.314 230.38 47.0967C229.897 50.9367 230.472 54.8358 232.043 58.3727C228.31 53.4592 226.328 47.4381 226.413 41.2679C226.411 38.1907 227.105 35.153 228.442 32.3814C229.779 29.6098 231.724 27.176 234.134 25.2617C235.875 24.0999 237.707 23.0794 239.611 22.21V21.447C243.337 13.7988 249.651 7.71725 257.433 4.28118C264.855 0.76487 273.312 0.102264 281.191 2.41964L281.16 2.67903Z" fill="black"/>
<path d="M280.411 446.612C281.58 448.269 282.291 450.206 282.471 452.227C282.692 454.031 282.692 455.855 282.471 457.659C282.471 458.101 282.349 458.574 282.273 459.093H282.181C287.629 469.774 293.564 480.531 298.966 491.136L300.858 494.875H184.283C166.552 467.852 151.263 433.84 156.634 402.972C161.954 377.393 172.9 353.318 188.677 332.493L189.165 332.401C189.257 332.918 189.384 333.428 189.547 333.927L192.873 333.103C192.736 332.527 192.644 331.94 192.599 331.349H192.812C206.857 338.472 222.147 342.814 237.84 344.135H238.054C237.932 342.566 237.932 340.99 238.054 339.42V339.054C240.343 339.237 242.631 339.344 244.935 339.375V339.924C244.407 341.767 244.231 343.692 244.417 345.6L245.134 345.509C252.833 347.082 260.635 348.102 268.479 348.56H269.624C269.624 349.445 269.624 350.346 269.624 351.261C271.592 351.505 273.56 351.704 275.544 351.841L275.391 353.824C283.915 383.755 286.476 415.068 282.929 445.986L280.411 446.612Z" fill="#C9C9C9"/>
<path d="M297.287 178.016V178.199C292.021 178.362 286.765 177.64 281.738 176.063L281.845 175.712C282.41 171.974 282.989 168.235 283.554 164.497L283.676 163.978C287.09 164.983 290.63 165.497 294.189 165.504V165.992C294.941 170.067 295.976 174.085 297.287 178.016Z" fill="#50AE36"/>
<path d="M290.772 340.657L291.047 343.876L279.313 344.013C279.041 342.841 279.148 341.612 279.618 340.504C283.418 340.656 287.156 340.733 290.772 340.657Z" fill="white"/>
<path d="M290.578 347.37C290.578 348.453 290.578 349.613 290.578 350.773C290.578 351.185 290.578 351.597 290.578 352.009H289.846C285.1 352.203 280.346 352.122 275.61 351.765C273.626 351.627 271.658 351.429 269.689 351.185C269.689 350.269 269.689 349.369 269.689 348.484C269.689 344.639 269.949 341.053 270.3 337.498V337.299L274.053 336.674L276.983 337.04V337.589C276.599 340.671 276.497 343.781 276.678 346.882C281.21 347.034 285.894 347.202 290.578 347.37Z" fill="white"/>
<path d="M289.904 353.443C297.303 387.305 296.086 422.482 286.364 455.752H286.456C286.075 456.484 285.663 457.278 285.266 457.934L282.519 457.598C282.74 455.794 282.74 453.97 282.519 452.166C282.339 450.146 281.628 448.209 280.459 446.551L283.053 445.88C286.592 414.982 284.031 383.69 275.516 353.779L275.668 351.795C280.405 352.153 285.158 352.234 289.904 352.04V353.443Z" fill="#C9C9C9"/>
<path d="M283.679 163.978L283.557 164.497C282.992 168.235 282.412 171.974 281.848 175.712L281.741 176.063C278.137 174.927 274.691 173.337 271.487 171.333C270.45 170.677 269.443 169.99 268.436 169.242L268.588 169.029L273.425 159.446L273.761 159.004C274.527 159.598 275.327 160.148 276.156 160.652C278.506 162.088 281.035 163.207 283.679 163.978Z" fill="#50AE36"/>
<path d="M273.776 159.08L273.44 159.522L268.603 169.105L268.45 169.318C265.125 166.815 262.158 163.868 259.631 160.56L259.86 160.377L267.489 152.488C269.22 155.006 271.343 157.231 273.776 159.08Z" fill="#50AE36"/>
<path d="M270.223 337.33V337.528C269.872 341.083 269.612 344.669 269.612 348.514H268.468C260.623 348.056 252.821 347.036 245.122 345.462L244.405 345.554C244.22 343.646 244.396 341.72 244.924 339.878V339.328C253.399 339.388 261.863 338.719 270.223 337.33Z" fill="black"/>
<path d="M242.16 62.4325C242.253 62.2656 242.36 62.1073 242.48 61.9594L244.113 62.2646C243.78 62.8161 243.586 63.4399 243.546 64.0828C243.506 64.7257 243.622 65.3688 243.884 65.9572L243.976 66.125L241.611 68.1544C239.216 71.4948 237.824 75.4488 237.598 79.5525C237.391 82.1256 237.453 84.713 237.781 87.2734C238.574 93.8956 240.573 100.335 241.138 106.987C241.229 109.643 241.504 112.289 241.962 114.907C242.216 116.278 242.755 117.582 243.543 118.733C244.331 119.884 245.352 120.857 246.539 121.59C253.024 124.809 260.791 124.336 267.901 123.039C268.217 127.199 267.861 131.383 266.848 135.429L266.513 135.338C265.328 135.856 264.109 136.295 262.866 136.65C258.285 137.969 253.477 138.302 248.758 137.626C244.04 136.95 239.518 135.281 235.492 132.729C235.019 132.439 234.561 132.118 234.119 131.798C229.526 128.41 225.873 123.906 223.505 118.713C221.136 113.52 220.131 107.809 220.584 102.12C218.571 105.636 217.589 109.647 217.751 113.695C217.913 117.744 219.212 121.664 221.5 125.008C218.336 123.815 215.597 121.712 213.628 118.964C211.659 116.215 210.549 112.945 210.438 109.566C210.438 103.6 213.489 98.0459 217.105 93.3463C221.21 88.0821 226.139 83.5045 230.029 78.0877C233.92 72.6709 236.804 66.0945 235.919 59.4875L236.087 59.396C236.713 60.5099 237.369 61.5932 238.04 62.6766H241.306C241.306 62.6766 241.306 62.6766 241.306 62.585L242.16 62.4325Z" fill="black"/>
<path d="M267.551 152.412L259.922 160.301L259.693 160.484C257.199 157.206 255.147 153.615 253.59 149.803C256.394 147.366 259.567 145.389 262.989 143.943L263.737 143.76C264.479 146.85 265.771 149.78 267.551 152.412Z" fill="#50AE36"/>
<path d="M263.662 143.821L262.914 144.004C259.491 145.449 256.319 147.427 253.515 149.863C252.004 146.261 250.978 142.475 250.463 138.603V137.901C254.57 138.259 258.709 137.855 262.67 136.71L262.868 137.428C262.831 139.585 263.098 141.738 263.662 143.821Z" fill="#50AE36"/>
<path d="M261.234 100.395V100.578L245.762 99.7232V99.5706C245.556 98.5124 245.556 97.4245 245.762 96.3663V95.9849C251.132 96.5672 256.364 98.0584 261.234 100.395Z" fill="white"/>
<path d="M253.453 30.5571V30.7555C249.87 33.294 246.873 36.5718 244.664 40.3675C242.456 44.1632 241.087 48.3886 240.651 52.7583L239.659 52.6668C237.542 50.1114 236.039 47.1048 235.265 43.8778C234.907 42.2634 234.948 40.5859 235.384 38.9907C235.82 37.3955 236.638 35.9306 237.767 34.7227C240.453 32.1745 244.481 31.8541 248.158 31.5184C249.953 31.3924 251.729 31.07 253.453 30.5571Z" fill="black"/>
<path d="M250.175 66.1094L251.456 66.4756C250.327 70.3513 247.169 73.3267 244.163 76.058C243.057 76.9464 242.108 78.014 241.355 79.2165C241.253 79.4091 241.201 79.6241 241.203 79.8421L237.602 79.5522C237.828 75.4485 239.22 71.4944 241.615 68.154L243.98 66.1247C244.117 66.323 244.346 66.4756 244.544 66.3841C244.628 66.3217 244.694 66.2377 244.734 66.141C244.775 66.0443 244.788 65.9384 244.773 65.8347C244.857 64.6084 244.632 63.3805 244.117 62.2642L242.484 61.9591C242.707 61.6523 242.969 61.3754 243.262 61.1351C243.55 60.8867 243.891 60.7079 244.259 60.6126C244.627 60.5174 245.011 60.5082 245.383 60.5858C246.083 60.8366 246.69 61.2943 247.123 61.898C248.253 63.2162 249.274 64.6247 250.175 66.1094Z" fill="white"/>
<path d="M249.334 92.3395C253.705 94.3755 257.722 97.0951 261.236 100.396C256.374 98.0456 251.147 96.539 245.779 95.9405C245.352 95.9405 244.909 95.8337 244.482 95.8031C244.183 95.7634 243.9 95.6474 243.659 95.4662C243.418 95.2851 243.228 95.0449 243.107 94.769C242.986 94.493 242.938 94.1905 242.968 93.8905C242.997 93.5906 243.104 93.3034 243.277 93.0566C243.588 92.5885 244.01 92.2044 244.505 91.9382C245 91.6721 245.553 91.5321 246.115 91.5308C247.233 91.5689 248.331 91.8446 249.334 92.3395Z" fill="white"/>
<path d="M238.068 339.13V339.497C237.946 341.066 237.946 342.642 238.068 344.212H237.854C222.161 342.89 206.871 338.549 192.826 331.425H192.613C192.405 329.622 192.561 327.796 193.07 326.054L193.299 325.733C196.253 327.861 199.888 328.822 203.507 328.434H204.743C212.289 333.195 220.69 336.439 229.477 337.986C232.315 338.474 235.179 338.856 238.068 339.13Z" fill="black"/>
<path d="M192.921 217.26C193.836 217.993 194.782 218.679 195.759 219.32L195.209 222.799L190.357 257.222H190.067C176.098 273.79 160.547 288.958 143.635 302.51L143.91 302.861C141.287 310.498 136.578 317.248 130.315 322.346C124.075 327.402 117.156 331.557 109.761 334.69C105.962 336.399 101.934 338.001 97.7835 337.742C97.1582 337.694 96.5365 337.607 95.9219 337.482C93.0897 336.819 90.4415 335.531 88.1706 333.714C85.4577 331.474 82.9644 328.98 80.7244 326.267C79.0002 324.299 77.1997 322.193 76.8182 319.615C76.7093 319.234 76.6277 318.847 76.5741 318.455C76.4168 317.36 76.5107 316.243 76.8487 315.19C89.9243 292.831 105.374 271.948 122.93 252.904L123.479 253.148C138.529 219.955 156.718 188.276 177.799 158.545C178.23 157.744 178.709 156.97 179.234 156.226L180.759 157.218C181.296 177.745 186.86 197.828 196.964 215.704L192.921 217.26ZM171.07 227.102C177.998 226.858 184.803 225.134 189.091 221.182C185.944 220.588 182.755 220.251 179.554 220.175C176.336 220.106 173.15 220.829 170.277 222.28C169.507 222.652 168.845 223.214 168.354 223.913C168.115 224.267 167.987 224.684 167.987 225.111C167.987 225.538 168.115 225.955 168.354 226.309C168.716 226.64 169.149 226.884 169.62 227.021C170.091 227.159 170.587 227.187 171.07 227.102Z" fill="#50AE36"/>
<path d="M193.257 325.733L193.028 326.053C192.519 327.795 192.363 329.621 192.571 331.424C192.616 332.015 192.708 332.602 192.845 333.179L189.519 334.003C189.357 333.504 189.229 332.994 189.138 332.477C188.535 329.501 188.794 326.415 189.885 323.582L190.297 323.185C191.184 324.144 192.177 324.999 193.257 325.733Z" fill="#C9C9C9"/>
<path d="M189.09 221.181C184.879 225.133 177.997 226.857 171.07 227.101C170.587 227.186 170.09 227.158 169.619 227.021C169.149 226.883 168.716 226.639 168.354 226.308C168.114 225.954 167.986 225.537 167.986 225.11C167.986 224.683 168.114 224.266 168.354 223.912C168.845 223.213 169.507 222.651 170.276 222.28C173.15 220.829 176.335 220.105 179.553 220.174C182.754 220.25 185.944 220.587 189.09 221.181Z" fill="#50AE36"/>
<path d="M95.9242 337.467V337.589C92.7163 339.685 89.8887 342.311 87.5625 345.356C86.9408 345.268 86.3245 345.146 85.7162 344.99C81.6393 343.708 78.1613 340.999 75.9202 337.361C73.518 333.401 71.6746 329.129 70.4424 324.665C70.4424 324.543 70.4424 324.421 70.3203 324.299C72.3344 322.133 74.4249 320.256 76.4237 318.379H76.5305C76.5841 318.771 76.6657 319.158 76.7747 319.539C77.1561 322.117 78.9567 324.223 80.6809 326.191C82.9208 328.904 85.4141 331.398 88.1271 333.637C90.4056 335.483 93.0706 336.792 95.9242 337.467Z" fill="#50AE36"/>
<path d="M38.0622 338.642L37.9859 338.123L69.6931 324.971L70.4103 324.742C71.6425 329.206 73.4859 333.478 75.8881 337.437C78.1292 341.076 81.6072 343.784 85.6841 345.066L85.4857 345.692C78.1616 352.863 75.6287 364.124 67.4349 370.365C63.193 373.615 57.6999 375.232 54.1599 379.23C49.9564 381.855 46.6515 385.698 44.6844 390.247C43.9947 390.205 43.3339 389.955 42.7892 389.53C42.2444 389.105 41.8411 388.525 41.6327 387.866C41.2946 385.764 41.3825 383.614 41.891 381.546C42.3995 379.478 43.3183 377.533 44.5928 375.827C47.0687 372.459 49.9834 369.436 53.2597 366.84C41.5106 372.226 30.2803 377.521 19.05 382.648C17.5794 383.415 15.991 383.93 14.3504 384.174C13.5208 384.312 12.67 384.245 11.8721 383.979C11.0743 383.713 10.3536 383.256 9.77281 382.648C17.0845 375.008 25.549 368.562 34.8579 363.544L12.7787 369.114C10.6891 369.758 8.51068 370.067 6.32438 370.029C5.22807 369.993 4.15593 369.698 3.19581 369.167C2.2357 368.637 1.41493 367.886 0.800781 366.977C3.85249 365.218 7.00593 363.6 10.2611 362.125C7.94178 362.415 2.25034 362.034 1.62474 360.431C11.3466 354.803 21.7037 350.352 32.4775 347.172C29.5647 346.936 26.6341 347.054 23.7496 347.523C21.3103 350.335 17.8751 352.09 14.1673 352.421C13.2961 352.582 12.3981 352.519 11.5581 352.238C11.1449 352.09 10.7872 351.82 10.5333 351.462C10.2794 351.104 10.1418 350.677 10.139 350.239C14.1215 346.531 18.0124 342.716 22.9257 340.855C27.8389 338.993 32.9048 339.344 38.0622 338.642Z" fill="white"/>
<path d="M247.407 15.8633C245.805 18.915 242.754 20.5477 239.61 22.1498C237.706 23.0192 235.874 24.0397 234.133 25.2015C231.723 27.1158 229.778 29.5496 228.441 32.3212C227.104 35.0928 226.41 38.1306 226.412 41.2077C226.313 47.3987 228.296 53.4435 232.042 58.3736C230.503 54.8599 229.944 50.9949 230.425 47.1891C231.992 51.4065 233.9 55.4889 236.131 59.3959C236.757 60.5098 237.413 61.5932 238.084 62.6765" stroke="black" stroke-width="0.961384" stroke-linecap="round" stroke-linejoin="round"/>
<path d="M235.967 59.5479C236.852 66.1548 233.968 72.7465 230.077 78.148C226.186 83.5495 221.258 88.1271 217.153 93.4066C213.491 98.1062 210.424 103.66 210.485 109.626C210.597 113.005 211.707 116.276 213.676 119.024C215.645 121.772 218.384 123.876 221.548 125.068C219.26 121.724 217.961 117.804 217.799 113.756C217.637 109.708 218.619 105.696 220.632 102.18C220.169 107.861 221.16 113.567 223.512 118.759C225.864 123.952 229.499 128.46 234.075 131.858C234.517 132.179 234.975 132.499 235.448 132.789C239.474 135.341 243.996 137.01 248.715 137.686C253.433 138.362 258.241 138.029 262.822 136.71C264.066 136.355 265.284 135.917 266.469 135.398" stroke="black" stroke-width="0.961384" stroke-linecap="round" stroke-linejoin="round"/>
<path d="M266.01 138.191C266.315 137.275 266.574 136.36 266.803 135.429C267.816 131.382 268.172 127.199 267.856 123.039" stroke="black" stroke-width="0.961384" stroke-linecap="round" stroke-linejoin="round"/>
<path d="M253.515 30.7554C249.931 33.2939 246.934 36.5717 244.726 40.3674C242.517 44.1631 241.149 48.3884 240.713 52.7582C240.347 56.0553 240.559 59.3908 241.339 62.6152C241.339 62.6152 241.339 62.6152 241.339 62.7068" stroke="black" stroke-width="0.961384" stroke-linecap="round" stroke-linejoin="round"/>
<path d="M241.613 68.1538C239.218 71.4942 237.826 75.4482 237.6 79.5519C237.393 82.125 237.455 84.7124 237.783 87.2728C238.576 93.895 240.575 100.334 241.14 106.987C241.231 109.642 241.506 112.289 241.964 114.906C242.218 116.278 242.757 117.581 243.545 118.732C244.333 119.883 245.354 120.856 246.541 121.589C253.026 124.809 260.793 124.336 267.903 123.039C275.014 121.742 283.162 119.209 290.379 118.461" stroke="black" stroke-width="0.961384" stroke-linecap="round" stroke-linejoin="round"/>
<path d="M251.711 25.2168C253.756 26.2173 255.935 26.9163 258.181 27.292C262.334 28.0079 266.603 27.6131 270.555 26.1476" stroke="black" stroke-width="0.961384" stroke-linecap="round" stroke-linejoin="round"/>
<path d="M258.198 27.4746C256.983 28.9732 255.32 30.0428 253.453 30.5263C251.747 31.0245 249.992 31.3366 248.219 31.4571C244.542 31.7928 240.513 32.1132 237.828 34.6614C236.698 35.8693 235.88 37.3342 235.444 38.9294C235.008 40.5246 234.967 42.202 235.325 43.8165C236.099 47.0435 237.603 50.0501 239.72 52.6054" stroke="black" stroke-width="0.961384" stroke-linecap="round" stroke-linejoin="round"/>
<path d="M271.961 24.5603C274.318 20.1599 278.272 16.8293 283.008 15.2526C285.905 14.2392 288.931 13.6383 291.995 13.4673C293.857 13.3453 295.734 13.33 297.595 13.3758" stroke="black" stroke-width="0.961384" stroke-linecap="round" stroke-linejoin="round"/>
<path d="M291.967 12.9944C295.706 10.0469 300.397 8.57534 305.15 8.85931" stroke="black" stroke-width="0.961384" stroke-linecap="round" stroke-linejoin="round"/>
<path d="M239.566 21.3865C243.292 13.7382 249.606 7.6567 257.388 4.22063C264.81 0.704323 273.267 0.0417174 281.146 2.35909" stroke="black" stroke-width="0.961384" stroke-linecap="round" stroke-linejoin="round"/>
<path d="M275.516 3.70184C277.345 3.20261 279.213 2.86059 281.1 2.67952C289.768 2.05211 298.412 4.18896 305.789 8.78294" stroke="black" stroke-width="0.961384" stroke-linecap="round" stroke-linejoin="round"/>
<path d="M270.559 26.1465C271.448 32.1895 273.78 37.9294 277.358 42.8802C280.936 47.831 285.653 51.847 291.112 54.5884H291.188" stroke="black" stroke-width="0.961384" stroke-linecap="round" stroke-linejoin="round"/>
<path d="M290.131 52.5904C278.062 44.1219 275.575 38.8577 274.705 30.6333C279.862 37.9269 285.005 45.2205 290.131 52.5904Z" stroke="black" stroke-width="0.961384" stroke-linecap="round" stroke-linejoin="round"/>
<path d="M291.019 54.7729C292.337 57.9158 293.359 61.1749 294.07 64.5079C294.796 67.848 296.114 71.0312 297.961 73.9072C298.905 75.3319 300.155 76.5277 301.62 77.4068C303.085 78.286 304.729 78.8263 306.43 78.9883C308.234 79.0007 309.993 78.4272 311.443 77.3541C312.893 76.281 313.956 74.7662 314.471 73.0374C316.64 71.2697 319.423 70.4355 322.207 70.7181C323.579 70.8721 324.888 71.3732 326.012 72.1742C327.136 72.9752 328.038 74.0495 328.631 75.2957C329.465 77.6354 329.492 80.1868 328.707 82.5435C327.706 86.4705 325.672 90.0582 322.817 92.9346C319.895 95.8013 316.17 97.7117 312.136 98.4124C311.131 98.6313 310.09 98.6313 309.085 98.4124C307.859 98.0412 306.788 97.2805 306.033 96.2457C305.221 95.1758 304.64 93.9499 304.324 92.6447C304.399 95.0669 303.647 97.4425 302.193 99.3812C300.739 101.32 298.669 102.707 296.323 103.314C293.977 103.921 291.494 103.712 289.283 102.721C287.071 101.731 285.262 100.018 284.152 97.8631C284 97.5427 283.862 97.2222 283.74 96.8865" stroke="black" stroke-width="0.961384" stroke-linecap="round" stroke-linejoin="round"/>
<path d="M284.166 97.8779C284.692 101.304 286.295 104.473 288.744 106.926C291.369 109.356 294.494 111.184 297.899 112.282C294.924 113.642 292.35 115.744 290.422 118.385C287.964 121.655 286.603 125.618 286.531 129.707C286.568 133.382 287.624 136.974 289.583 140.083C291.542 143.192 294.326 145.696 297.624 147.316C295.963 146.315 294.633 144.85 293.797 143.1C292.962 141.351 292.658 139.394 292.924 137.474C293.187 138.811 293.731 140.076 294.52 141.186C295.309 142.296 296.326 143.226 297.502 143.913C299.879 145.257 302.454 146.215 305.131 146.751C309.315 147.97 313.672 148.485 318.025 148.277C320.021 148.079 321.973 147.564 323.808 146.751C324.595 146.411 325.351 146.003 326.066 145.53C327.324 144.716 328.424 143.682 329.316 142.479" stroke="black" stroke-width="0.961384" stroke-linecap="round" stroke-linejoin="round"/>
<path d="M326.281 145.926C328.838 146.988 331.49 147.805 334.2 148.368C335.52 148.619 336.856 148.772 338.198 148.825C343.319 149.047 348.41 147.949 352.984 145.636C355.084 144.598 357.043 143.296 358.812 141.761C362.063 138.911 364.654 135.387 366.404 131.435C368.153 127.482 369.02 123.195 368.944 118.873C368.944 118.69 368.944 118.522 368.944 118.339" stroke="black" stroke-width="0.961384" stroke-linecap="round" stroke-linejoin="round"/>
<path d="M347.918 63.5605C348.175 66.8779 349.006 70.1253 350.375 73.1582C351.838 76.4477 353.654 79.5686 355.791 82.4659C359.82 88.0963 364.55 93.1469 368.227 99.0672C371.91 104.743 374.277 111.172 375.154 117.881C376.029 124.597 374.803 131.42 371.645 137.412C372.495 134.314 372.697 131.074 372.237 127.894C371.778 124.715 370.667 121.664 368.975 118.934" stroke="black" stroke-width="0.961384" stroke-linecap="round" stroke-linejoin="round"/>
<path d="M305.439 8.84375H305.836C320.057 10.4917 332.92 19.5247 340.656 31.579C348.392 43.6332 351.337 58.6629 350.391 73.0975" stroke="black" stroke-width="0.961384" stroke-linecap="round" stroke-linejoin="round"/>
<path d="M323.978 147.224C323.362 149.533 322.328 151.711 320.926 153.647C319.575 155.563 317.938 157.261 316.074 158.683C315.194 159.362 314.272 159.984 313.312 160.544C310.567 162.132 307.614 163.329 304.538 164.1C304.111 164.222 303.669 164.328 303.241 164.42C300.263 165.1 297.218 165.448 294.163 165.458C290.604 165.451 287.064 164.937 283.649 163.932C281.011 163.159 278.487 162.041 276.142 160.605C275.313 160.102 274.513 159.552 273.747 158.957C271.335 157.104 269.234 154.879 267.521 152.366C265.714 149.739 264.396 146.809 263.63 143.714C263.118 141.624 262.903 139.471 262.989 137.321" stroke="black" stroke-width="0.961384" stroke-linecap="round" stroke-linejoin="round"/>
<path d="M235.373 132.835C229.041 136.223 221.946 137.871 214.912 139.32C207.878 140.77 200.737 142.067 194.13 144.874C188.202 147.185 183.053 151.133 179.283 156.257C178.759 157.001 178.28 157.775 177.849 158.577C156.768 188.307 138.578 219.986 123.528 253.18C122.511 255.479 121.494 257.798 120.477 260.138" stroke="black" stroke-width="0.961384" stroke-linecap="round" stroke-linejoin="round"/>
<path d="M122.93 252.905C105.375 271.945 89.9252 292.822 76.8487 315.175C76.5107 316.229 76.4168 317.346 76.5741 318.441C76.6277 318.833 76.7093 319.22 76.8182 319.6C77.1997 322.179 79.0002 324.285 80.7244 326.253C82.9644 328.966 85.4577 331.459 88.1706 333.699C90.4415 335.517 93.0897 336.805 95.9219 337.468C96.5365 337.593 97.1582 337.679 97.7835 337.728C101.934 338.017 105.962 336.415 109.761 334.676C117.155 331.547 124.074 327.397 130.315 322.347C136.578 317.249 141.287 310.499 143.91 302.862" stroke="black" stroke-width="0.961384" stroke-linecap="round" stroke-linejoin="round"/>
<path d="M136.492 308.095C138.903 306.264 141.283 304.407 143.633 302.525C160.547 288.954 176.098 273.766 190.065 257.177" stroke="black" stroke-width="0.961384" stroke-linecap="round" stroke-linejoin="round"/>
<path d="M187.472 230.001C165.845 251.514 140.912 269.426 113.621 283.055" stroke="black" stroke-width="0.961384" stroke-linecap="round" stroke-linejoin="round"/>
<path d="M102.205 294.286C113.222 297.475 125.093 296.056 136.003 292.364C146.913 288.671 156.831 282.827 166.718 277.105" stroke="black" stroke-width="0.961384" stroke-linecap="round" stroke-linejoin="round"/>
<path d="M76.4667 318.456C74.3915 320.332 72.3011 322.209 70.3633 324.376C70.3633 324.498 70.3633 324.62 70.4853 324.742C71.7175 329.206 73.5609 333.478 75.9632 337.437C78.2043 341.076 81.6823 343.785 85.7592 345.066C86.3674 345.222 86.9838 345.344 87.6054 345.433C89.9316 342.388 92.7593 339.762 95.9671 337.666" stroke="black" stroke-width="0.961384" stroke-linecap="round" stroke-linejoin="round"/>
<path d="M180.822 157.249C181.358 177.776 186.923 197.858 197.027 215.735" stroke="black" stroke-width="0.961384" stroke-linecap="round" stroke-linejoin="round"/>
<path d="M179.494 197.119C181.777 205.061 186.469 212.098 192.922 217.26C193.837 217.993 194.783 218.679 195.76 219.32" stroke="black" stroke-width="0.961384" stroke-linecap="round" stroke-linejoin="round"/>
<path d="M189.09 221.181C185.944 220.587 182.754 220.25 179.553 220.174C176.335 220.105 173.15 220.829 170.276 222.28C169.507 222.651 168.845 223.213 168.354 223.912C168.114 224.266 167.986 224.683 167.986 225.11C167.986 225.537 168.114 225.954 168.354 226.308C168.716 226.639 169.149 226.883 169.619 227.021C170.09 227.158 170.587 227.186 171.07 227.101C177.997 226.857 184.879 225.133 189.09 221.181Z" stroke="black" stroke-width="0.961384" stroke-linecap="round" stroke-linejoin="round"/>
<path d="M195.21 222.799L190.358 257.222L185.49 291.661C184.57 296.887 184.186 302.194 184.346 307.499C184.521 312.842 186.332 318.003 189.534 322.285C189.766 322.584 190.016 322.869 190.281 323.139C191.165 324.114 192.159 324.985 193.241 325.733C196.195 327.86 199.83 328.822 203.449 328.434" stroke="black" stroke-width="0.961384" stroke-linecap="round" stroke-linejoin="round"/>
<path d="M191.395 316.242C195.082 321.058 199.585 325.189 204.7 328.449C212.246 333.21 220.647 336.454 229.434 338.001C232.303 338.52 235.181 338.901 238.07 339.145C240.359 339.328 242.648 339.435 244.952 339.466C253.419 339.498 261.872 338.804 270.22 337.391L273.974 336.765" stroke="black" stroke-width="0.961384" stroke-linecap="round" stroke-linejoin="round"/>
<path d="M256.641 334.553L273.99 336.689L276.919 337.056L300.646 340.107C305.264 340.796 309.924 341.158 314.593 341.191H315.92C316.851 341.191 317.797 341.084 318.728 340.962C320.364 340.801 321.987 340.515 323.58 340.107C326.032 339.498 328.382 338.532 330.553 337.239C335.23 334.295 338.889 329.986 341.036 324.895C343.149 319.29 344.184 313.336 344.087 307.347" stroke="black" stroke-width="0.961384" stroke-linecap="round" stroke-linejoin="round"/>
<path d="M207.797 260.762C220.996 285.024 240.305 305.416 263.811 319.92" stroke="black" stroke-width="0.961384" stroke-linecap="round" stroke-linejoin="round"/>
<path d="M201.709 295.003C214.557 308.307 230.537 318.176 248.187 323.704" stroke="black" stroke-width="0.961384" stroke-linecap="round" stroke-linejoin="round"/>
<path d="M391.192 182.333C382.49 196.232 376.456 211.632 373.4 227.743" stroke="black" stroke-width="0.961384" stroke-linecap="round" stroke-linejoin="round"/>
<path d="M368.941 238.135C379.376 229.486 386.647 217.621 389.617 204.398" stroke="black" stroke-width="0.961384" stroke-linecap="round" stroke-linejoin="round"/>
<path d="M368.945 234.854C366.275 248.373 363.62 261.938 359.317 275.045C355.014 288.152 349.048 300.832 340.32 311.513" stroke="black" stroke-width="0.961384" stroke-linecap="round" stroke-linejoin="round"/>
<path d="M391.252 236.211C387.416 250.751 381.358 264.611 373.293 277.303C365.237 289.973 356.411 302.136 346.865 313.725" stroke="black" stroke-width="0.961384" stroke-linecap="round" stroke-linejoin="round"/>
<path d="M349.062 317.112C359.27 315.876 366.747 305.455 377.016 304.905" stroke="black" stroke-width="0.961384" stroke-linecap="round" stroke-linejoin="round"/>
<path d="M343.418 324.818C348.93 322.249 355.078 321.368 361.089 322.286C367.101 323.204 372.706 325.879 377.2 329.975C379.194 331.678 380.594 333.97 381.198 336.521C381.352 337.302 381.352 338.106 381.198 338.886" stroke="black" stroke-width="0.961384" stroke-linecap="round" stroke-linejoin="round"/>
<path d="M337.389 338.994C340.649 335.139 345.177 332.574 350.16 331.761C355.108 330.988 360.157 331.132 365.052 332.188C369.398 332.837 373.558 334.397 377.259 336.766C378.166 337.395 379.004 338.116 379.762 338.917C382.127 341.244 383.546 344.364 383.744 347.676" stroke="black" stroke-width="0.961384" stroke-linecap="round" stroke-linejoin="round"/>
<path d="M353 145.667C364.673 154.014 380.175 156.577 390.322 166.724C397.601 173.972 401.141 184.317 402.072 194.556C403.002 204.794 401.522 215.079 400.057 225.256C397.555 242.773 395.042 260.295 392.52 277.822C391.36 285.924 390.155 294.148 386.782 301.61C384.43 307.047 380.643 311.741 375.827 315.19C373.958 316.509 371.9 317.538 369.723 318.242" stroke="black" stroke-width="0.961384" stroke-linecap="round" stroke-linejoin="round"/>
<path d="M376.115 315.617C377.948 319.051 378.657 322.973 378.145 326.832C379.755 327.77 381.004 329.22 381.693 330.952C382.382 332.683 382.47 334.596 381.944 336.384" stroke="black" stroke-width="0.961384" stroke-linecap="round" stroke-linejoin="round"/>
<path d="M374.695 350.041C373.183 350.484 371.724 351.093 370.346 351.856C367.468 353.458 364.98 355.677 363.062 358.355C361.144 361.033 359.843 364.103 359.253 367.344C357.91 375.385 364.029 384.128 370.697 388.813" stroke="black" stroke-width="0.961384" stroke-linecap="round" stroke-linejoin="round"/>
<path d="M377.627 364.566C376.994 362.784 376.539 360.944 376.269 359.073C376.154 358.01 376.185 356.938 376.36 355.884C376.627 354.459 377.288 353.137 378.268 352.069C379.367 350.918 380.614 349.917 381.976 349.094L383.913 347.827C387.614 345.409 391.473 343.242 395.464 341.342C395.908 341.248 396.356 341.176 396.807 341.129C401.903 340.625 407.351 343.143 412.462 341.296C412.681 343.24 412.272 345.203 411.294 346.897C410.317 348.591 408.822 349.928 407.03 350.711C405.224 351.452 403.287 351.818 401.335 351.786C399.383 351.755 397.459 351.327 395.678 350.528" stroke="black" stroke-width="0.961384" stroke-linecap="round" stroke-linejoin="round"/>
<path d="M396.639 351.688C395.846 352.832 394.773 353.754 393.523 354.365C392.273 354.977 390.888 355.258 389.498 355.182" stroke="black" stroke-width="0.961384" stroke-linecap="round" stroke-linejoin="round"/>
<path d="M404.053 354.053C404.74 358.631 402.115 363.208 398.392 365.985C394.515 368.552 390.066 370.124 385.438 370.563" stroke="black" stroke-width="0.961384" stroke-linecap="round" stroke-linejoin="round"/>
<path d="M417.164 337.696C418.189 338.817 419.156 339.988 420.063 341.206C421.982 343.744 423.657 346.456 425.068 349.308C425.853 350.858 426.546 352.453 427.143 354.084C428.258 357.052 429.096 360.117 429.646 363.239V363.514" stroke="black" stroke-width="0.961384" stroke-linecap="round" stroke-linejoin="round"/>
<path d="M372.805 378.116C378.386 379.674 384.162 380.419 389.955 380.329C394.392 380.282 398.81 379.734 403.123 378.696C413.041 376.331 422.258 370.395 429.765 363.438" stroke="black" stroke-width="0.961384" stroke-linecap="round" stroke-linejoin="round"/>
<path d="M376.22 355.916C373.996 359.149 372.489 362.82 371.8 366.683C371.11 370.546 371.254 374.512 372.222 378.315C372.575 379.705 373.045 381.063 373.626 382.374C374.675 385.256 376.796 387.623 379.546 388.981C380.752 389.46 382.061 389.617 383.345 389.439C383.755 389.39 384.158 389.303 384.551 389.179C385.404 388.923 386.201 388.509 386.901 387.958C387.939 387.159 388.754 386.107 389.267 384.901C389.78 383.696 389.974 382.379 389.83 381.077" stroke="black" stroke-width="0.961384" stroke-linecap="round" stroke-linejoin="round"/>
<path d="M370.498 352.237C372.945 351.689 375.463 351.534 377.959 351.779" stroke="black" stroke-width="0.961384" stroke-linecap="round" stroke-linejoin="round"/>
<path d="M329.105 372.699C333.098 377.28 337.95 381.033 343.387 383.746C348.374 386.178 353.601 388.086 358.982 389.438C362.873 390.506 367.16 391.391 370.624 388.873C374.739 390.198 379.136 390.388 383.35 389.423C383.756 389.36 384.159 389.273 384.555 389.163" stroke="black" stroke-width="0.961384" stroke-linecap="round" stroke-linejoin="round"/>
<path d="M396.713 340.473C400.024 336.948 404.968 335.621 409.408 333.698C414.611 331.336 419.389 328.135 423.553 324.223C432.677 323.071 441.628 320.817 450.209 317.509C450.621 321.995 447.57 326.267 443.663 328.525C439.757 330.784 435.134 331.425 430.678 332.035C427.757 335.317 424.429 338.214 420.776 340.656" stroke="black" stroke-width="0.961384" stroke-linecap="round" stroke-linejoin="round"/>
<path d="M426.882 336.933C430.547 336.325 434.13 335.301 437.563 333.881C443.204 333.625 448.857 333.809 454.469 334.431C458.406 334.873 462.343 335.331 466.463 335.85C466.232 336.984 465.754 338.053 465.063 338.981C464.372 339.91 463.485 340.674 462.465 341.221L462.114 341.419C459.888 342.464 457.415 342.866 454.973 342.579C452.531 342.365 450.166 341.694 447.649 341.328C443.505 342.487 439.238 343.153 434.938 343.311C432.393 345.901 429.249 347.825 425.783 348.911" stroke="black" stroke-width="0.961384" stroke-linecap="round" stroke-linejoin="round"/>
<path d="M427.645 353.901C429.997 353.388 432.307 352.699 434.557 351.841C436.54 351.124 438.509 350.315 440.523 349.323C446.931 345.036 455.964 347.218 462.617 343.22C463.124 342.926 463.582 342.556 463.975 342.121L462.693 341.48" stroke="black" stroke-width="0.961384" stroke-linecap="round" stroke-linejoin="round"/>
<path d="M434.666 352.131C437.825 352.131 440.998 352.131 444.538 352.131C449.572 353.638 454.746 354.63 459.98 355.091C459.951 355.881 459.702 356.648 459.259 357.303C458.817 357.959 458.2 358.477 457.478 358.799C456.032 359.412 454.47 359.704 452.9 359.653C449.317 359.713 445.738 359.401 442.219 358.723" stroke="black" stroke-width="0.961384" stroke-linecap="round" stroke-linejoin="round"/>
<path d="M441.835 358.784C438.203 361.088 434.118 362.587 429.857 363.178" stroke="black" stroke-width="0.961384" stroke-linecap="round" stroke-linejoin="round"/>
<path d="M69.6936 324.971L37.9863 338.124" stroke="black" stroke-width="0.961384" stroke-linecap="round" stroke-linejoin="round"/>
<path d="M40.3684 338.262C39.6055 338.414 38.8426 338.552 38.0644 338.643C32.968 339.345 27.7038 339.131 22.9279 340.947C18.152 342.763 14.1237 346.623 10.1412 350.331C10.144 350.77 10.2816 351.197 10.5355 351.554C10.7894 351.912 11.1472 352.183 11.5603 352.33C12.4004 352.612 13.2983 352.675 14.1695 352.513C17.8774 352.183 21.3125 350.427 23.7519 347.615C26.6363 347.147 29.5669 347.029 32.4797 347.264C21.7073 350.435 11.3502 354.876 1.62695 360.493C2.25255 362.019 7.94399 362.477 10.2633 362.187L10.7821 362.096" stroke="black" stroke-width="0.961384" stroke-linecap="round" stroke-linejoin="round"/>
<path d="M31.6856 354.39C24.3637 356.4 17.2191 359.008 10.3236 362.187C7.06843 363.682 3.91499 365.31 0.863281 367.07C1.47743 367.978 2.2982 368.729 3.25831 369.259C4.21843 369.79 5.29057 370.085 6.38688 370.121C8.57318 370.159 10.7516 369.85 12.8412 369.206L34.8593 363.545L35.3324 363.423" stroke="black" stroke-width="0.961384" stroke-linecap="round" stroke-linejoin="round"/>
<path d="M39.0082 361.53C37.6349 362.186 36.2769 362.888 34.9342 363.605C25.649 368.618 17.2055 375.054 9.91016 382.678C10.4909 383.286 11.2116 383.743 12.0095 384.009C12.8073 384.275 13.6581 384.342 14.4877 384.204C16.1283 383.96 17.7167 383.445 19.1874 382.678C30.4176 377.475 41.6479 372.256 53.397 366.87C50.1207 369.467 47.206 372.489 44.7302 375.857C43.4556 377.564 42.5368 379.508 42.0283 381.577C41.5198 383.645 41.432 385.794 41.77 387.896C41.9785 388.555 42.3817 389.135 42.9265 389.56C43.4713 389.985 44.1321 390.235 44.8217 390.277C46.7888 385.728 50.0938 381.885 54.2973 379.26C57.8373 375.262 63.3303 373.645 67.5722 370.395C75.7203 364.154 78.2532 352.848 85.6231 345.646" stroke="black" stroke-width="0.961384" stroke-linecap="round" stroke-linejoin="round"/>
<path d="M43.7676 360.766C44.6588 359.262 45.8727 357.975 47.3216 356.998" stroke="black" stroke-width="0.961384" stroke-linecap="round" stroke-linejoin="round"/>
<path d="M40.3651 348.834C39.0363 350.062 37.9631 351.539 37.207 353.183" stroke="black" stroke-width="0.961384" stroke-linecap="round" stroke-linejoin="round"/>
<path d="M35.7246 346.057L37.6465 344.12" stroke="black" stroke-width="0.961384" stroke-linecap="round" stroke-linejoin="round"/>
<path d="M270.253 337.604C269.902 341.159 269.643 344.745 269.643 348.59C269.643 349.475 269.643 350.375 269.643 351.291C271.611 351.535 273.579 351.733 275.563 351.871C280.3 352.228 285.053 352.31 289.799 352.115H290.532C290.532 351.703 290.532 351.291 290.532 350.879C290.532 349.719 290.532 348.56 290.532 347.476C285.847 347.308 281.163 347.141 276.478 347.003C276.297 343.903 276.4 340.793 276.784 337.711" stroke="black" stroke-width="0.961384" stroke-linecap="round" stroke-linejoin="round"/>
<path d="M290.772 340.657L291.047 343.876L279.313 344.013C279.041 342.841 279.148 341.612 279.618 340.504C283.418 340.656 287.156 340.733 290.772 340.657Z" stroke="black" stroke-width="0.961384" stroke-linecap="round" stroke-linejoin="round"/>
<path d="M245 339.955C244.472 341.797 244.296 343.723 244.481 345.63C244.51 346.03 244.561 346.427 244.634 346.82L244.512 346.424" stroke="black" stroke-width="0.961384" stroke-linecap="round" stroke-linejoin="round"/>
<path d="M238.043 339.45C237.921 341.019 237.921 342.596 238.043 344.165C238.043 344.79 238.043 345.401 238.195 346.011" stroke="black" stroke-width="0.961384" stroke-linecap="round" stroke-linejoin="round"/>
<path d="M193.029 326.054C192.52 327.795 192.364 329.622 192.572 331.424C192.617 332.016 192.709 332.602 192.846 333.179C192.922 333.53 193.029 333.881 193.136 334.216" stroke="black" stroke-width="0.961384" stroke-linecap="round" stroke-linejoin="round"/>
<path d="M189.885 323.536C188.794 326.37 188.535 329.456 189.138 332.431C189.229 332.948 189.357 333.458 189.519 333.957" stroke="black" stroke-width="0.961384" stroke-linecap="round" stroke-linejoin="round"/>
<path d="M192.783 331.394C206.828 338.518 222.118 342.86 237.811 344.181" stroke="black" stroke-width="0.961384" stroke-linecap="round" stroke-linejoin="round"/>
<path d="M245.15 345.539C252.849 347.113 260.651 348.133 268.496 348.591" stroke="black" stroke-width="0.961384" stroke-linecap="round" stroke-linejoin="round"/>
<path d="M291.229 350.789C298.482 351.962 305.857 352.193 313.17 351.475" stroke="black" stroke-width="0.961384" stroke-linecap="round" stroke-linejoin="round"/>
<path d="M314.593 341.832C314.956 345.123 314.581 348.453 313.494 351.581C313.354 352.027 313.191 352.465 313.006 352.893" stroke="black" stroke-width="0.961384" stroke-linecap="round" stroke-linejoin="round"/>
<path d="M318.82 341.832C318.729 344.702 318.367 347.558 317.736 350.36C317.516 351.22 317.246 352.065 316.928 352.893" stroke="black" stroke-width="0.961384" stroke-linecap="round" stroke-linejoin="round"/>
<path d="M317.768 350.36L322.589 349.917" stroke="black" stroke-width="0.961384" stroke-linecap="round" stroke-linejoin="round"/>
<path d="M323.567 340C323.675 343.319 323.46 346.641 322.926 349.918" stroke="black" stroke-width="0.961384" stroke-linecap="round" stroke-linejoin="round"/>
<path d="M188.648 332.524C172.87 353.349 161.925 377.424 156.605 403.003C151.234 433.856 166.523 467.883 184.253 494.905" stroke="black" stroke-width="0.961384" stroke-linecap="round" stroke-linejoin="round"/>
<path d="M279.039 445.162C279.554 445.588 280.015 446.075 280.412 446.612C281.581 448.269 282.292 450.206 282.472 452.227C282.693 454.031 282.693 455.855 282.472 457.659C282.472 458.101 282.35 458.574 282.274 459.093" stroke="black" stroke-width="0.961384" stroke-linecap="round" stroke-linejoin="round"/>
<path d="M279.346 453.448C280.292 455.34 281.238 457.232 282.23 459.14C287.677 469.821 293.612 480.578 299.014 491.183L300.906 494.921" stroke="black" stroke-width="0.961384" stroke-linecap="round" stroke-linejoin="round"/>
<path d="M215.84 358.036C241.141 381.11 262.3 408.349 278.4 438.571" stroke="black" stroke-width="0.961384" stroke-linecap="round" stroke-linejoin="round"/>
<path d="M200.061 395.039C215.319 398.838 230.822 402.805 243.792 411.625C255.77 419.757 264.742 431.461 273.485 443.011" stroke="black" stroke-width="0.961384" stroke-linecap="round" stroke-linejoin="round"/>
<path d="M223.197 429.599C238.376 431.249 253.247 435.029 267.371 440.829" stroke="black" stroke-width="0.961384" stroke-linecap="round" stroke-linejoin="round"/>
<path d="M289.905 353.443C297.304 387.305 296.087 422.482 286.365 455.752" stroke="black" stroke-width="0.961384" stroke-linecap="round" stroke-linejoin="round"/>
<path d="M275.516 353.778C284.039 383.709 286.6 415.022 283.053 445.94" stroke="black" stroke-width="0.961384" stroke-linecap="round" stroke-linejoin="round"/>
<path d="M285.264 457.995C285.66 457.278 286.072 456.546 286.454 455.813C299.248 432.44 309.612 407.816 317.383 382.328" stroke="black" stroke-width="0.961384" stroke-linecap="round" stroke-linejoin="round"/>
<path d="M287.965 461.336C295.781 456.226 302.882 450.1 309.083 443.117" stroke="black" stroke-width="0.961384" stroke-linecap="round" stroke-linejoin="round"/>
<path d="M289.754 464.053C293.208 463.733 296.663 464.664 299.488 466.677V466.555" stroke="black" stroke-width="0.961384" stroke-linecap="round" stroke-linejoin="round"/>
<path d="M299.273 491.03C309.558 468.798 319.918 446.368 325.64 422.535C329.767 406.264 330.935 389.384 329.089 372.7C328.155 364.995 326.322 357.426 323.626 350.148" stroke="black" stroke-width="0.961384" stroke-linecap="round" stroke-linejoin="round"/>
<path d="M241.43 49.8745C242.489 49.8475 243.537 50.1033 244.464 50.6154C245.392 51.1276 246.167 51.8777 246.708 52.7885" stroke="black" stroke-width="0.480692" stroke-linecap="round" stroke-linejoin="round"/>
<path d="M261.857 53.3077C263.251 51.9358 264.911 50.8649 266.735 50.1614C268.559 49.458 270.509 49.137 272.462 49.2184C276.357 49.4083 280.138 50.5901 283.448 52.6516" stroke="black" stroke-width="0.480692" stroke-linecap="round" stroke-linejoin="round"/>
<path d="M263.307 65.0872C263.48 64.0253 263.96 63.037 264.686 62.2431C265.412 61.4491 266.354 60.8839 267.396 60.6164C269.184 60.3287 271.017 60.5617 272.675 61.2878C275.567 62.3162 278.307 63.7275 280.823 65.4839" stroke="black" stroke-width="0.961384" stroke-linecap="round" stroke-linejoin="round"/>
<path d="M266.269 62.9512C265.736 64.2777 265.736 65.7592 266.269 67.0857C266.269 67.2383 266.422 67.3908 266.575 67.4213C266.727 67.4518 266.956 67.0552 266.925 66.7653C267.081 66.1183 267.103 65.4465 266.99 64.7907C266.877 64.1349 266.632 63.509 266.269 62.9512Z" stroke="black" stroke-width="0.480692" stroke-linecap="round" stroke-linejoin="round"/>
<path d="M244.112 62.2637C243.779 62.8151 243.585 63.4388 243.545 64.0816C243.505 64.7245 243.621 65.3674 243.883 65.9558L243.975 66.1236C244.112 66.3219 244.341 66.4745 244.539 66.3829C244.623 66.3206 244.689 66.2366 244.729 66.1399C244.77 66.0432 244.783 65.9374 244.768 65.8337C244.852 64.6075 244.627 63.3798 244.112 62.2637Z" stroke="black" stroke-width="0.480692" stroke-linecap="round" stroke-linejoin="round"/>
<path d="M241.947 62.9514C242.035 62.7835 242.132 62.6205 242.237 62.4632C242.33 62.2964 242.437 62.1381 242.558 61.9902C242.781 61.6835 243.042 61.4066 243.336 61.1663C243.623 60.9179 243.964 60.7391 244.332 60.6439C244.7 60.5486 245.085 60.5394 245.456 60.6171C246.156 60.8678 246.763 61.3255 247.196 61.9292C248.326 63.2473 249.347 64.6556 250.247 66.1403" stroke="black" stroke-width="0.961384" stroke-linecap="round" stroke-linejoin="round"/>
<path d="M249.151 56.3135C250.308 57.6277 251.131 59.2014 251.551 60.9013C251.97 62.6012 251.974 64.3773 251.562 66.0789C251.562 66.2163 251.485 66.3536 251.455 66.4757C250.326 70.3513 247.167 73.3268 244.161 76.058C243.055 76.9464 242.106 78.0141 241.354 79.2166C241.252 79.4092 241.199 79.6242 241.201 79.8422C241.204 80.0514 241.245 80.2584 241.323 80.4525C241.484 80.849 241.711 81.2153 241.995 81.5359C243.216 83.0295 244.668 84.3175 246.298 85.3505" stroke="black" stroke-width="0.480692" stroke-linecap="round" stroke-linejoin="round"/>
<path d="M248.725 83.4127C249.254 83.4097 249.777 83.5309 250.251 83.7667C250.725 84.0025 251.138 84.3462 251.455 84.7702" stroke="black" stroke-width="0.480692" stroke-linecap="round" stroke-linejoin="round"/>
<path d="M253.924 86.4635C254.761 86.1476 255.483 85.5843 255.992 84.8485C256.502 84.1127 256.776 83.2393 256.777 82.3442" stroke="black" stroke-width="0.480692" stroke-linecap="round" stroke-linejoin="round"/>
<path d="M261.236 100.395C257.722 97.0946 253.705 94.375 249.334 92.339C248.326 91.8652 247.229 91.6104 246.115 91.5913C245.553 91.5927 245 91.7326 244.505 91.9988C244.01 92.265 243.588 92.6491 243.277 93.1172C243.104 93.364 242.997 93.6512 242.968 93.9511C242.938 94.251 242.986 94.5535 243.107 94.8295C243.228 95.1055 243.418 95.3456 243.659 95.5268C243.9 95.7079 244.183 95.8239 244.482 95.8637C244.909 95.8637 245.352 95.8637 245.779 96.001C251.143 96.5803 256.37 98.0662 261.236 100.395Z" stroke="black" stroke-width="0.480692" stroke-linecap="round" stroke-linejoin="round"/>
<path d="M245.734 96.3213C245.529 97.3791 245.529 98.4667 245.734 99.5245" stroke="black" stroke-width="0.480692" stroke-linecap="round" stroke-linejoin="round"/>
<path d="M244.416 99.6475H245.744L261.216 100.502H261.399" stroke="black" stroke-width="0.480692" stroke-linecap="round" stroke-linejoin="round"/>
<path d="M246.771 105.827C248.906 106.95 251.341 107.372 253.729 107.032" stroke="black" stroke-width="0.480692" stroke-linecap="round" stroke-linejoin="round"/>
<path d="M250.523 138.541C251.038 142.413 252.064 146.2 253.575 149.802C255.132 153.615 257.184 157.206 259.679 160.483C262.205 163.791 265.173 166.737 268.498 169.241C269.49 169.989 270.497 170.676 271.55 171.332C274.754 173.336 278.199 174.925 281.803 176.062C286.83 177.639 292.086 178.361 297.352 178.198C301.722 178.069 306.05 177.303 310.2 175.924L310.551 175.802C314.46 174.442 318.162 172.547 321.552 170.172C324.669 167.981 327.507 165.419 330.005 162.543C333.551 158.492 336.347 153.842 338.26 148.81" stroke="black" stroke-width="0.480692" stroke-linecap="round" stroke-linejoin="round"/>
<path d="M321.289 153.861C323.986 156.896 326.854 159.774 329.879 162.482" stroke="black" stroke-width="0.480692" stroke-linecap="round" stroke-linejoin="round"/>
<path d="M325.471 147.041C329.123 148.83 332.628 150.907 335.953 153.25" stroke="black" stroke-width="0.480692" stroke-linecap="round" stroke-linejoin="round"/>
<path d="M321.567 170.263L321.491 170.171L313.496 160.788" stroke="black" stroke-width="0.480692" stroke-linecap="round" stroke-linejoin="round"/>
<path d="M310.41 175.559L304.643 164.375" stroke="black" stroke-width="0.480692" stroke-linecap="round" stroke-linejoin="round"/>
<path d="M294.193 165.946C294.928 170.035 295.948 174.068 297.245 178.015" stroke="black" stroke-width="0.480692" stroke-linecap="round" stroke-linejoin="round"/>
<path d="M283.558 164.496C282.994 168.234 282.414 171.972 281.85 175.71" stroke="black" stroke-width="0.480692" stroke-linecap="round" stroke-linejoin="round"/>
<path d="M273.442 159.446L268.605 169.028" stroke="black" stroke-width="0.480692" stroke-linecap="round" stroke-linejoin="round"/>
<path d="M267.613 152.334L259.984 160.223" stroke="black" stroke-width="0.480692" stroke-linecap="round" stroke-linejoin="round"/>
<path d="M262.91 143.944C259.488 145.389 256.316 147.366 253.512 149.803" stroke="black" stroke-width="0.480692" stroke-linecap="round" stroke-linejoin="round"/>
<path d="M184.285 494.905H300.891" stroke="black" stroke-width="0.961384" stroke-linecap="round" stroke-linejoin="round"/>
</svg>
