<svg width="123" height="123" viewBox="0 0 123 123" fill="none" xmlns="http://www.w3.org/2000/svg">
<g clip-path="url(#clip0_301_6373)">
<rect width="122.062" height="122.061" fill="white"/>
<rect x="45.7729" width="76.2883" height="36.6184" fill="#50AE36"/>
<rect y="42.7214" width="76.2883" height="36.6184" fill="#50AE36"/>
<rect y="85.4426" width="21.3607" height="36.6184" fill="#50AE36"/>
<rect x="76.2881" y="85.4426" width="45.773" height="36.6184" fill="#50AE36"/>
<rect x="85.4434" y="42.7214" width="36.6184" height="36.6184" fill="black"/>
<rect x="30.5156" y="85.4426" width="36.6184" height="36.6184" fill="black"/>
<rect width="36.6184" height="36.6184" fill="black"/>
<path d="M17.6407 8.56299C20.9306 8.56299 23.5877 9.27157 25.6123 10.6887C27.6621 12.0806 28.687 14.219 28.687 17.1039H21.3608C21.3608 14.8263 20.1208 13.6875 17.6407 13.6875C15.1607 13.6875 13.9207 15.1174 13.9207 17.977V20.1407C13.9207 22.975 15.2113 24.3922 17.7926 24.3922C20.3738 24.3922 21.6644 23.2281 21.6644 20.8999H28.687C28.687 23.8101 27.6621 25.9738 25.6123 27.391C23.5877 28.8081 20.9306 29.5167 17.6407 29.5167C14.1231 29.5167 11.3647 28.631 9.36551 26.8595C7.3663 25.0881 6.3667 22.4815 6.3667 19.0399C6.3667 15.5982 7.3663 12.9916 9.36551 11.2202C11.3647 9.44871 14.1231 8.56299 17.6407 8.56299Z" fill="white"/>
<path d="M48.3199 93.0671C51.6098 93.0671 54.2669 93.7757 56.2915 95.1929C58.3413 96.5847 59.3662 98.7231 59.3662 101.608H52.04C52.04 99.3305 50.8 98.1917 48.3199 98.1917C45.8399 98.1917 44.5999 99.6215 44.5999 102.481V104.645C44.5999 107.479 45.8905 108.896 48.4718 108.896C51.053 108.896 52.3436 107.732 52.3436 105.404H59.3662C59.3662 108.314 58.3413 110.478 56.2915 111.895C54.2669 113.312 51.6098 114.021 48.3199 114.021C44.8023 114.021 42.0439 113.135 40.0447 111.364C38.0455 109.592 37.0459 106.986 37.0459 103.544C37.0459 100.102 38.0455 97.4958 40.0447 95.7243C42.0439 93.9529 44.8023 93.0671 48.3199 93.0671Z" fill="white"/>
<path d="M106.565 47.0593C109.272 47.0593 111.36 47.9451 112.828 49.7165C114.296 51.488 115.03 54.1072 115.03 57.5742C115.03 61.0158 114.296 63.6224 112.828 65.3938C111.36 67.14 109.272 68.0131 106.565 68.0131C104.236 68.0131 102.364 67.2539 100.947 65.7355V75.0356H93.3926V47.5148H99.542L100.187 50.3618C101.655 48.1602 103.781 47.0593 106.565 47.0593ZM104.211 52.6394C103.098 52.6394 102.262 53.0316 101.706 53.8161C101.149 54.6006 100.871 55.6256 100.871 56.8909V58.1435C100.871 59.4089 101.149 60.4464 101.706 61.2562C102.262 62.0407 103.098 62.433 104.211 62.433C106.387 62.433 107.476 61.1297 107.476 58.5231V56.5113C107.476 53.93 106.387 52.6394 104.211 52.6394Z" fill="white"/>
</g>
<defs>
<clipPath id="clip0_301_6373">
<rect width="122.062" height="122.061" fill="white"/>
</clipPath>
</defs>
</svg>
