<svg width="385" height="261" viewBox="0 0 385 261" fill="none" xmlns="http://www.w3.org/2000/svg">
<path d="M38.4616 29.1748C48.3091 29.1748 56.2629 31.2892 62.3229 35.5181C68.4587 39.6714 71.5265 46.0524 71.5265 54.6612H49.5968C49.5968 47.8648 45.8851 44.4666 38.4616 44.4666C31.038 44.4666 27.3263 48.7332 27.3263 57.2664V63.723C27.3263 72.1807 31.1895 76.4095 38.9161 76.4095C46.6426 76.4095 50.5058 72.9358 50.5058 65.9884H71.5265C71.5265 74.6727 68.4587 81.1292 62.3229 85.3581C56.2629 89.5869 48.3091 91.7013 38.4616 91.7013C27.9323 91.7013 19.6755 89.0583 13.6912 83.7722C7.70698 78.4862 4.71484 70.7081 4.71484 60.4381C4.71484 50.168 7.70698 42.39 13.6912 37.1039C19.6755 31.8178 27.9323 29.1748 38.4616 29.1748Z" fill="black"/>
<path d="M112.885 29.1748C122.051 29.1748 129.512 30.7229 135.269 33.819C141.026 36.8396 143.905 41.7858 143.905 48.6577V71.9919C143.905 73.2756 144.208 74.3329 144.814 75.1635C145.42 75.9942 146.329 76.4095 147.541 76.4095H151.632V89.4359C151.404 89.5869 150.798 89.8512 149.813 90.2288C148.904 90.5308 147.579 90.8329 145.837 91.135C144.094 91.5125 142.087 91.7013 139.814 91.7013C135.421 91.7013 131.785 91.0595 128.906 89.7757C126.104 88.4164 124.172 86.5663 123.112 84.2253C120.233 86.4908 117.014 88.3032 113.453 89.6624C109.893 91.0217 105.727 91.7013 100.955 91.7013C86.8651 91.7013 79.8203 86.1132 79.8203 74.937C79.8203 69.1223 81.3732 64.7047 84.4789 61.6841C87.6604 58.5879 92.2055 56.4735 98.114 55.3408C104.022 54.2081 111.749 53.6417 121.294 53.6417V50.6966C121.294 48.3556 120.46 46.581 118.794 45.3728C117.203 44.1646 115.12 43.5604 112.544 43.5604C110.196 43.5604 108.151 43.9758 106.409 44.8064C104.742 45.6371 103.909 46.9586 103.909 48.771V49.2241H81.6383C81.5626 48.8465 81.5247 48.3179 81.5247 47.6383C81.5247 41.9746 84.2138 37.4815 89.5921 34.1588C95.0461 30.8361 102.81 29.1748 112.885 29.1748ZM121.294 64.2893C114.855 64.2893 110.083 65.0067 106.977 66.4415C103.947 67.8008 102.432 69.6509 102.432 71.9919C102.432 75.7676 105.007 77.6555 110.158 77.6555C113.113 77.6555 115.688 76.8626 117.885 75.2768C120.157 73.691 121.294 71.7276 121.294 69.3866V64.2893Z" fill="black"/>
<path d="M187.536 29.1748C195.566 29.1748 202.345 30.7606 207.875 33.9323C213.481 37.0284 216.283 41.8613 216.283 48.4312H195.263C195.263 46.2412 194.278 44.6932 192.308 43.787C190.945 43.0318 189.241 42.6543 187.195 42.6543C181.741 42.6543 179.014 43.938 179.014 46.5055C179.014 47.9403 179.961 48.9598 181.855 49.5639C183.749 50.168 186.854 50.8099 191.172 51.4895C196.475 52.2447 200.906 53.1509 204.466 54.2081C208.027 55.1898 211.132 57.0021 213.784 59.6452C216.435 62.2127 217.761 65.8374 217.761 70.5193C217.761 78.1464 214.882 83.5835 209.125 86.8306C203.444 90.0778 195.982 91.7013 186.741 91.7013C181.438 91.7013 176.439 90.9839 171.742 89.5492C167.046 88.0388 163.22 85.7356 160.266 82.6395C157.312 79.5434 155.835 75.6166 155.835 70.8592H176.855V71.3122C176.931 73.8798 177.992 75.6921 180.037 76.7493C182.158 77.731 184.393 78.2219 186.741 78.2219C193.028 78.2219 196.172 76.7493 196.172 73.8042C196.172 72.2939 195.187 71.199 193.217 70.5193C191.248 69.8397 188.029 69.1223 183.559 68.3672C178.181 67.461 173.75 66.4793 170.265 65.4221C166.856 64.3649 163.864 62.5902 161.289 60.0982C158.713 57.5307 157.426 53.9815 157.426 49.4506C157.426 42.1256 160.19 36.9151 165.72 33.819C171.326 30.7229 178.598 29.1748 187.536 29.1748Z" fill="black"/>
<path d="M259.498 29.1748C270.482 29.1748 278.853 31.7423 284.61 36.8773C290.442 42.0124 293.359 49.866 293.359 60.4381V64.2893H248.363C248.363 68.5937 249.31 71.8409 251.204 74.0308C253.173 76.2207 256.241 77.3157 260.407 77.3157C264.195 77.3157 266.96 76.5228 268.702 74.937C270.52 73.3512 271.429 71.2367 271.429 68.5937H293.359C293.359 75.8432 290.594 81.5068 285.064 85.5846C279.534 89.6624 271.467 91.7013 260.862 91.7013C249.727 91.7013 241.091 89.1338 234.955 83.9988C228.819 78.7882 225.752 70.9347 225.752 60.4381C225.752 50.168 228.744 42.39 234.728 37.1039C240.712 31.8178 248.969 29.1748 259.498 29.1748ZM260.407 43.5604C253.287 43.5604 249.31 46.9209 248.477 53.6417H270.52C270.52 50.5456 269.611 48.0913 267.793 46.279C266.051 44.4666 263.589 43.5604 260.407 43.5604Z" fill="black"/>
<path d="M92.1701 107.679C100.275 107.679 106.525 110.322 110.918 115.608C115.312 120.894 117.509 128.71 117.509 139.055C117.509 149.325 115.312 157.103 110.918 162.389C106.525 167.6 100.275 170.205 92.1701 170.205C85.2011 170.205 79.5956 167.94 75.3536 163.409V191.161H52.7421V109.038H71.1494L73.0811 117.533C77.4746 110.964 83.8376 107.679 92.1701 107.679ZM85.1253 124.33C81.7923 124.33 79.2926 125.5 77.6261 127.841C75.9596 130.182 75.1263 133.24 75.1263 137.016V140.754C75.1263 144.53 75.9596 147.626 77.6261 150.043C79.2926 152.384 81.7923 153.554 85.1253 153.554C91.6399 153.554 94.8971 149.665 94.8971 141.887V135.883C94.8971 128.181 91.6399 124.33 85.1253 124.33Z" fill="black"/>
<path d="M158.072 107.679C167.238 107.679 174.699 109.227 180.456 112.323C186.213 115.343 189.092 120.29 189.092 127.161V150.496C189.092 151.779 189.395 152.837 190.001 153.667C190.607 154.498 191.516 154.913 192.728 154.913H196.818V167.94C196.591 168.091 195.985 168.355 195 168.733C194.091 169.035 192.766 169.337 191.023 169.639C189.281 170.016 187.274 170.205 185.001 170.205C180.608 170.205 176.972 169.563 174.093 168.279C171.29 166.92 169.359 165.07 168.298 162.729C165.42 164.995 162.2 166.807 158.64 168.166C155.08 169.525 150.914 170.205 146.141 170.205C132.052 170.205 125.007 164.617 125.007 153.441C125.007 147.626 126.56 143.208 129.666 140.188C132.847 137.092 137.392 134.977 143.301 133.845C149.209 132.712 156.936 132.145 166.48 132.145V129.2C166.48 126.859 165.647 125.085 163.98 123.877C162.39 122.668 160.307 122.064 157.731 122.064C155.383 122.064 153.338 122.48 151.595 123.31C149.929 124.141 149.096 125.462 149.096 127.275V127.728H126.825C126.749 127.35 126.711 126.822 126.711 126.142C126.711 120.478 129.4 115.985 134.779 112.663C140.233 109.34 147.997 107.679 158.072 107.679ZM166.48 142.793C160.041 142.793 155.269 143.511 152.163 144.945C149.133 146.305 147.618 148.155 147.618 150.496C147.618 154.271 150.194 156.159 155.345 156.159C158.299 156.159 160.875 155.366 163.071 153.781C165.344 152.195 166.48 150.231 166.48 147.89V142.793Z" fill="black"/>
<path d="M240.677 107.565C242.419 107.565 243.972 107.792 245.335 108.245C246.699 108.623 247.381 108.849 247.381 108.925V127.841H240.109C235.412 127.841 232.003 129.049 229.882 131.466C227.837 133.882 226.814 137.469 226.814 142.227V168.846H204.203V109.038H222.724L224.201 118.1C225.564 114.626 227.723 112.021 230.678 110.284C233.632 108.471 236.965 107.565 240.677 107.565Z" fill="black"/>
<path d="M125.865 186.182C135.713 186.182 143.666 188.297 149.726 192.526C155.862 196.679 158.93 203.06 158.93 211.669H137C137 204.872 133.289 201.474 125.865 201.474C118.442 201.474 114.73 205.741 114.73 214.274V220.731C114.73 229.188 118.593 233.417 126.32 233.417C134.046 233.417 137.909 229.943 137.909 222.996H158.93C158.93 231.68 155.862 238.137 149.726 242.366C143.666 246.594 135.713 248.709 125.865 248.709C115.336 248.709 107.079 246.066 101.095 240.78C95.1105 235.494 92.1184 227.716 92.1184 217.446C92.1184 207.176 95.1105 199.398 101.095 194.111C107.079 188.825 115.336 186.182 125.865 186.182Z" fill="black"/>
<path d="M200.289 186.182C209.455 186.182 216.916 187.73 222.673 190.827C228.43 193.847 231.309 198.793 231.309 205.665V228.999C231.309 230.283 231.612 231.34 232.218 232.171C232.824 233.002 233.733 233.417 234.945 233.417H239.035V246.443C238.808 246.594 238.202 246.859 237.217 247.236C236.308 247.538 234.982 247.84 233.24 248.143C231.498 248.52 229.491 248.709 227.218 248.709C222.825 248.709 219.189 248.067 216.31 246.783C213.507 245.424 211.576 243.574 210.515 241.233C207.637 243.498 204.417 245.311 200.857 246.67C197.297 248.029 193.13 248.709 188.358 248.709C174.269 248.709 167.224 243.121 167.224 231.945C167.224 226.13 168.777 221.712 171.883 218.692C175.064 215.596 179.609 213.481 185.518 212.348C191.426 211.216 199.153 210.649 208.697 210.649V207.704C208.697 205.363 207.864 203.589 206.197 202.38C204.607 201.172 202.523 200.568 199.948 200.568C197.6 200.568 195.554 200.983 193.812 201.814C192.146 202.645 191.312 203.966 191.312 205.779V206.232H169.042C168.966 205.854 168.928 205.325 168.928 204.646C168.928 198.982 171.617 194.489 176.996 191.166C182.45 187.844 190.214 186.182 200.289 186.182ZM208.697 221.297C202.258 221.297 197.486 222.014 194.38 223.449C191.35 224.808 189.835 226.658 189.835 228.999C189.835 232.775 192.411 234.663 197.562 234.663C200.516 234.663 203.092 233.87 205.288 232.284C207.561 230.699 208.697 228.735 208.697 226.394V221.297Z" fill="black"/>
<path d="M274.94 186.182C282.969 186.182 289.749 187.768 295.279 190.94C300.884 194.036 303.687 198.869 303.687 205.439H282.666C282.666 203.249 281.682 201.701 279.712 200.795C278.349 200.039 276.644 199.662 274.599 199.662C269.145 199.662 266.418 200.946 266.418 203.513C266.418 204.948 267.365 205.967 269.259 206.571C271.152 207.176 274.258 207.817 278.576 208.497C283.878 209.252 288.31 210.158 291.87 211.216C295.43 212.197 298.536 214.01 301.187 216.653C303.838 219.22 305.164 222.845 305.164 227.527C305.164 235.154 302.286 240.591 296.529 243.838C290.847 247.085 283.386 248.709 274.144 248.709C268.842 248.709 263.842 247.992 259.146 246.557C254.449 245.046 250.624 242.743 247.67 239.647C244.715 236.551 243.238 232.624 243.238 227.867H264.259V228.32C264.335 230.887 265.395 232.7 267.441 233.757C269.562 234.739 271.796 235.229 274.144 235.229C280.432 235.229 283.575 233.757 283.575 230.812C283.575 229.302 282.591 228.207 280.621 227.527C278.652 226.847 275.432 226.13 270.963 225.375C265.585 224.469 261.153 223.487 257.669 222.43C254.26 221.372 251.268 219.598 248.692 217.106C246.117 214.538 244.829 210.989 244.829 206.458C244.829 199.133 247.594 193.923 253.124 190.827C258.729 187.73 266.001 186.182 274.94 186.182Z" fill="black"/>
<path d="M346.902 186.182C357.886 186.182 366.256 188.75 372.013 193.885C377.846 199.02 380.762 206.874 380.762 217.446V221.297H335.767C335.767 225.601 336.714 228.848 338.607 231.038C340.577 233.228 343.645 234.323 347.811 234.323C351.598 234.323 354.363 233.53 356.106 231.945C357.924 230.359 358.833 228.244 358.833 225.601H380.762C380.762 232.851 377.997 238.514 372.468 242.592C366.938 246.67 358.87 248.709 348.265 248.709C337.13 248.709 328.495 246.141 322.359 241.006C316.223 235.796 313.155 227.942 313.155 217.446C313.155 207.176 316.147 199.398 322.132 194.111C328.116 188.825 336.373 186.182 346.902 186.182ZM347.811 200.568C340.69 200.568 336.714 203.928 335.88 210.649H357.924C357.924 207.553 357.015 205.099 355.197 203.287C353.454 201.474 350.992 200.568 347.811 200.568Z" fill="black"/>
<rect x="292.213" y="108.104" width="38.0495" height="18.2071" fill="#FF4B4B"/>
<rect x="269.383" y="129.346" width="38.0495" height="18.2071" fill="#FF4B4B"/>
<rect x="269.383" y="150.588" width="10.6538" height="18.2071" fill="#FF4B4B"/>
<rect x="307.432" y="150.588" width="22.8297" height="18.2071" fill="#FF4B4B"/>
<rect x="311.998" y="129.346" width="18.2637" height="18.2071" fill="black"/>
<rect x="284.602" y="150.588" width="18.2637" height="18.2071" fill="black"/>
<rect x="269.383" y="108.104" width="18.2637" height="18.2071" fill="black"/>
</svg>
