<svg width="477" height="517" viewBox="0 0 477 517" fill="none" xmlns="http://www.w3.org/2000/svg">
<rect x="210.268" y="288.348" width="142.907" height="68.5957" fill="#0B6CFF"/>
<rect x="124.523" y="368.376" width="142.907" height="68.5957" fill="#0B6CFF"/>
<rect x="124.523" y="448.403" width="40.0139" height="68.5957" fill="#0B6CFF"/>
<rect x="267.43" y="448.403" width="85.7441" height="68.5957" fill="#0B6CFF"/>
<rect x="284.58" y="368.376" width="68.5953" height="68.5957" fill="black"/>
<rect x="181.688" y="448.403" width="68.5953" height="68.5957" fill="black"/>
<rect x="124.523" y="288.348" width="68.5953" height="68.5957" fill="black"/>
<path d="M157.568 304.388C163.731 304.388 168.708 305.716 172.501 308.37C176.341 310.978 178.261 314.983 178.261 320.388H164.537C164.537 316.121 162.214 313.988 157.568 313.988C152.923 313.988 150.6 316.666 150.6 322.023V326.076C150.6 331.386 153.017 334.04 157.853 334.04C162.688 334.04 165.106 331.86 165.106 327.498H178.261C178.261 332.95 176.341 337.003 172.501 339.658C168.708 342.313 163.731 343.64 157.568 343.64C150.979 343.64 145.812 341.981 142.067 338.662C138.322 335.344 136.449 330.461 136.449 324.014C136.449 317.567 138.322 312.684 142.067 309.366C145.812 306.047 150.979 304.388 157.568 304.388Z" fill="white"/>
<path d="M215.039 462.686C221.202 462.686 226.179 464.013 229.972 466.668C233.811 469.275 235.731 473.281 235.731 478.685H222.008C222.008 474.418 219.685 472.285 215.039 472.285C210.393 472.285 208.07 474.964 208.07 480.32V484.374C208.07 489.683 210.488 492.338 215.323 492.338C220.159 492.338 222.576 490.157 222.576 485.796H235.731C235.731 491.247 233.811 495.301 229.972 497.955C226.179 500.61 221.202 501.937 215.039 501.937C208.45 501.937 203.282 500.278 199.537 496.96C195.792 493.641 193.92 488.759 193.92 482.311C193.92 475.864 195.792 470.982 199.537 467.663C203.282 464.345 208.45 462.686 215.039 462.686Z" fill="white"/>
<path d="M324.145 376.502C329.217 376.502 333.128 378.161 335.878 381.48C338.627 384.798 340.002 389.704 340.002 396.199C340.002 402.646 338.627 407.529 335.878 410.847C333.128 414.118 329.217 415.754 324.145 415.754C319.784 415.754 316.276 414.332 313.621 411.487V428.909H299.471V377.355H310.99L312.199 382.688C314.949 378.564 318.931 376.502 324.145 376.502ZM319.736 386.955C317.651 386.955 316.086 387.69 315.043 389.159C314 390.629 313.479 392.549 313.479 394.919V397.266C313.479 399.636 314 401.579 315.043 403.096C316.086 404.566 317.651 405.301 319.736 405.301C323.813 405.301 325.852 402.859 325.852 397.977V394.208C325.852 389.373 323.813 386.955 319.736 386.955Z" fill="white"/>
<path d="M392.633 229.391C397.256 227.376 401.224 224.106 404.086 219.953C406.571 216.101 407.791 211.57 407.578 206.991L408.208 206.11C411.794 208.768 415.546 211.196 419.44 213.378L420.887 214.605C420.076 215.32 419.413 216.188 418.938 217.16C418.463 218.132 418.184 219.188 418.119 220.268C418.078 221.208 418.25 222.146 418.62 223.012C418.99 223.878 419.55 224.649 420.258 225.27V225.585C419.718 228.846 418.302 231.899 416.164 234.42C414.025 236.941 411.243 238.834 408.113 239.899L406.571 240.308L405.816 239.522L392.633 229.391Z" fill="#0B6CFF"/>
<path d="M444.547 206.928C445.87 207.201 447.055 207.93 447.895 208.988C448.735 210.047 449.176 211.367 449.141 212.717C449.04 214.065 448.637 215.373 447.962 216.544C447.286 217.715 446.356 218.719 445.239 219.481C442.991 221.002 440.469 222.071 437.813 222.627C435.174 223.148 432.576 223.863 430.042 224.767C427.93 226 425.534 226.661 423.088 226.686C422.035 226.544 421.054 226.07 420.288 225.333C419.58 224.712 419.02 223.941 418.65 223.075C418.279 222.209 418.108 221.271 418.148 220.331C418.214 219.251 418.493 218.195 418.968 217.223C419.443 216.251 420.105 215.383 420.917 214.668L421.61 214.07C423.859 212.663 426.42 211.831 429.066 211.647C431.049 211.27 432.024 211.05 433.786 210.641L435.705 210.2C436.347 209.981 436.977 209.729 437.593 209.445C439.607 207.929 442.029 207.052 444.547 206.928Z" fill="white"/>
<path d="M433.791 210.579C441.437 208.313 444.646 202.965 451.536 201.14C454.949 200.133 458.56 199.997 462.04 200.745C465.519 201.492 468.755 203.099 471.453 205.419C473.074 206.95 474.351 208.808 475.199 210.87C476.047 212.932 476.447 215.15 476.373 217.378C476.299 219.607 475.751 221.793 474.767 223.794C473.784 225.795 472.386 227.564 470.667 228.983C464.374 234.143 455.438 234.017 448.453 237.981C444.031 241.136 439.912 244.696 436.151 248.615C431.997 252.138 426.428 254.907 421.237 253.271C420.67 252.799 413.906 247.23 409.973 243.833C407.99 241.882 406.606 240.403 406.543 240.403L408.085 239.994C411.214 238.929 413.997 237.036 416.135 234.515C418.274 231.994 419.689 228.941 420.23 225.68V225.365C420.996 226.102 421.977 226.576 423.03 226.718C425.475 226.694 427.872 226.032 429.984 224.799C432.518 223.895 435.116 223.18 437.755 222.659C440.411 222.103 442.934 221.034 445.181 219.513C446.298 218.751 447.228 217.748 447.904 216.577C448.579 215.406 448.982 214.098 449.082 212.749C449.118 211.399 448.677 210.079 447.837 209.021C446.997 207.963 445.812 207.233 444.489 206.961C441.978 207.066 439.556 207.921 437.535 209.415C436.919 209.699 436.289 209.951 435.647 210.17L433.791 210.579Z" fill="#1D1D1B"/>
<path d="M346.128 163.259C346.695 167.734 346.32 172.278 345.027 176.599C343.662 181.121 341.534 185.378 338.734 189.183C336.829 191.904 334.725 194.48 332.441 196.891C330.51 198.879 328.404 200.69 326.148 202.302C316.111 209.444 305.004 211.74 292.859 213.722C295.188 210.576 297.61 207.43 300.128 204.284C302.645 201.138 304.879 198.527 307.333 195.727L308.591 194.311C314.14 192.47 319.036 189.061 322.687 184.495C326.29 179.94 329.451 175.052 332.126 169.898L341.566 153.286L342.321 153.727C344.353 156.544 345.66 159.817 346.128 163.259Z" fill="#0B6CFF"/>
<path d="M290.531 170.812C298.962 169.065 307.057 165.974 314.507 161.657C318.639 159.089 322.282 155.808 325.267 151.967L321.617 151.338C322.878 149.955 323.749 148.262 324.142 146.433C324.534 144.603 324.434 142.702 323.851 140.924L323.6 139.666C327.545 138.878 331.387 137.644 335.053 135.985C336.72 135.261 338.388 134.506 340.024 133.657C342.163 134.254 344.334 134.758 346.568 135.167L346.317 136.646C347.764 140.578 345.153 146.996 343.17 150.551L341.534 153.477L332.095 170.088C329.419 175.243 326.258 180.131 322.656 184.686C319.005 189.252 314.109 192.661 308.56 194.502L307.301 195.918C302.696 195.909 298.145 194.92 293.951 193.016C289.757 191.112 286.017 188.336 282.98 184.875L278.795 183.648C279.617 180.091 280.733 176.608 282.13 173.234V172.605C284.899 171.976 287.699 171.378 290.531 170.812Z" fill="#0B6CFF"/>
<path d="M282.98 184.716C286.017 188.178 289.757 190.953 293.951 192.857C298.145 194.761 302.696 195.75 307.301 195.759C304.847 198.559 302.424 201.422 300.096 204.316L299.215 203.593C294.372 204.263 289.445 203.28 285.231 200.802C281.016 198.324 277.762 194.496 275.994 189.939L275.648 189.75C276.529 188.145 277.442 186.604 278.386 184.999C278.386 184.496 278.669 183.993 278.795 183.489L282.98 184.716Z" fill="#0B6CFF"/>
<path d="M282.038 172.447V173.076C280.641 176.449 279.525 179.933 278.703 183.49C278.703 183.993 278.42 184.497 278.294 185C277.35 186.573 276.438 188.146 275.557 189.751C272.473 195.141 269.557 200.594 266.81 206.11L260.359 202.964C262.114 195.412 263.354 187.749 264.072 180.029L263.758 174.838C269.898 174.455 276.006 173.656 282.038 172.447Z" fill="#0B6CFF"/>
<path d="M285.217 200.792C289.444 203.255 294.37 204.24 299.219 203.592L300.1 204.316C297.583 207.462 295.16 210.608 292.832 213.754C283.212 226.739 274.657 240.479 267.252 254.842C266.847 255.759 266.638 256.75 266.638 257.752C266.638 258.754 266.847 259.745 267.252 260.662C268.073 262.415 269.053 264.089 270.178 265.665C273.99 271.508 276.56 278.072 277.729 284.95L276.659 285.611L277.666 287.215C278.635 288.524 279.311 290.026 279.648 291.62C279.798 292.419 279.701 293.244 279.369 293.986C279.037 294.728 278.487 295.351 277.792 295.772L276.345 295.584C276.779 296.273 277.068 297.044 277.194 297.849C277.298 298.378 277.243 298.927 277.035 299.425C276.828 299.923 276.478 300.349 276.03 300.649C275.593 300.869 275.103 300.965 274.615 300.926C274.127 300.888 273.658 300.715 273.261 300.429C272.45 299.848 271.766 299.11 271.248 298.258C267.023 292.215 263.537 285.687 260.864 278.815C261.966 283.723 263.728 289.386 265.112 295.112C265.553 296.937 265.71 299.328 264.074 300.208C263.499 300.435 262.87 300.487 262.266 300.358C261.661 300.23 261.108 299.926 260.676 299.485C259.858 298.578 259.246 297.505 258.882 296.339C256.218 289.208 253.764 281.993 251.52 274.694C250.009 278.249 248.373 281.93 246.548 285.422C245.667 287.058 244.126 288.883 242.364 288.348C242.012 288.212 241.695 288 241.434 287.729C241.173 287.457 240.975 287.131 240.853 286.775C240.689 286.343 240.603 285.884 240.602 285.422C240.712 284.202 240.999 283.005 241.451 281.867C242.515 277.184 242.949 272.381 242.741 267.584C242.546 262.751 244.111 258.011 247.146 254.244C250.009 245.341 253.25 236.595 256.806 228.037C259.889 220.655 263.235 213.387 266.843 206.235C269.59 200.698 272.506 195.245 275.59 189.875L275.936 190.064C277.762 194.566 281.025 198.338 285.217 200.792Z" fill="white"/>
<path d="M234.524 285.36C234.931 285.865 235.241 286.441 235.437 287.059C235.521 287.296 235.551 287.55 235.524 287.8C235.497 288.051 235.413 288.292 235.279 288.506C234.977 288.843 234.59 289.094 234.159 289.232C233.728 289.371 233.267 289.391 232.825 289.292C230.865 289.127 229.011 288.332 227.539 287.027L226.941 287.279C224.833 282.308 222.599 277.369 220.648 272.367H220.932C225.947 276.161 230.508 280.521 234.524 285.36Z" fill="white"/>
<path d="M234.778 190.852C233.394 193.998 231.915 196.892 230.436 199.849L229.618 199.44C224.517 200.438 219.232 199.8 214.515 197.616C209.882 195.447 206.075 191.838 203.66 187.328L202.496 186.951L203.062 185.189C204.199 182.095 205.176 178.945 205.989 175.75H206.492C209.496 180.341 213.62 184.091 218.476 186.645C223.332 189.199 228.758 190.474 234.243 190.348L234.778 190.852Z" fill="#0B6CFF"/>
<path d="M256.556 227.723C244.94 235.148 231.421 239.049 217.635 238.955H216.723V237.948C218.359 223.287 224.557 211.71 230.504 199.943C231.983 196.986 233.462 193.997 234.846 190.946C236.23 187.894 237.237 185.44 238.244 182.577C242.163 180.247 245.465 177.01 247.872 173.139C250.232 174.575 252.983 175.235 255.738 175.026C258.475 175.026 261.213 175.026 263.919 174.806L264.233 179.997C263.515 187.717 262.275 195.38 260.521 202.932L266.971 206.078C263.342 213.209 259.996 220.477 256.934 227.88L256.556 227.723Z" fill="#0B6CFF"/>
<path d="M333.705 60.6984C329.968 63.964 325.615 66.4482 320.903 68.0044C316.191 69.5606 311.215 70.1572 306.268 69.7591C302.728 75.5691 297.975 80.5452 292.332 84.3464C286.689 88.1476 280.292 90.6839 273.577 91.7816V92.4424C273.738 93.3814 274.169 94.253 274.817 94.9513C275.465 95.6496 276.302 96.1444 277.227 96.375C275.635 96.894 274.176 97.7558 272.953 98.8997C271.73 100.044 270.773 101.442 270.149 102.995C269.525 104.549 269.249 106.221 269.341 107.893C269.434 109.564 269.891 111.196 270.682 112.672C268.834 110.481 267.21 108.109 265.837 105.593C264.883 103.856 264.183 101.992 263.76 100.056C263.164 97.696 263.29 95.2116 264.12 92.9236C264.95 90.6356 266.446 88.6488 268.417 87.2198C263.27 89.5371 259.159 93.6704 256.87 98.8288C254.632 104.015 254.418 109.852 256.272 115.188C253.268 113.551 250.64 111.302 248.559 108.587C246.478 105.872 244.989 102.75 244.189 99.4243C243.388 96.0982 243.294 92.6414 243.912 89.2767C244.53 85.912 245.846 82.714 247.776 79.8894C243.428 82.2088 239.872 85.7761 237.568 90.1324C235.263 94.4887 234.315 99.4348 234.845 104.334C231.745 99.5728 230.513 93.8347 231.384 88.2204C232.255 82.6062 235.168 77.511 239.564 73.9119C235.83 75.3969 232.53 77.7977 229.968 80.8931C227.405 83.9885 225.663 87.6789 224.902 91.6244C224.001 88.3382 223.917 84.8817 224.656 81.5555C225.396 78.2294 226.936 75.1341 229.144 72.5388C231.352 69.9435 234.161 67.9267 237.326 66.6637C240.491 65.4007 243.916 64.9297 247.304 65.2917C241.167 63.5286 234.701 63.2268 228.426 64.4107C222.046 65.6503 216.402 69.33 212.694 74.667C210.92 77.3396 209.893 80.4385 209.722 83.6419C209.55 86.8452 210.24 90.0359 211.719 92.8827C208.742 88.5447 206.932 83.5135 206.463 78.2733C205.995 73.0332 206.884 67.7606 209.044 62.9635C212.448 56.3951 217.392 50.7493 223.455 46.5095C227.851 42.8578 232.964 40.1678 238.463 38.6129L239.722 38.3612V38.0466C237.247 36.2614 234.365 35.124 231.338 34.7382C228.311 34.3523 225.235 34.7301 222.392 35.8374C219.548 36.9446 217.027 38.746 215.059 41.0772C213.09 43.4084 211.736 46.1954 211.121 49.1838C210.304 46.6737 210.173 43.9904 210.743 41.4129C211.39 38.3204 212.845 35.4545 214.959 33.1073C219.001 28.9145 224.395 26.2847 230.188 25.6825C235.949 25.0945 241.769 25.5528 247.367 27.0353C248.5 27.287 249.601 27.5702 250.703 27.8848L251.3 25.714C252.602 22.9609 254.539 20.5558 256.951 18.6963C259.363 16.8368 262.182 15.576 265.176 15.0174C271.529 14.1373 277.968 14.0739 284.338 14.8286C295.054 8.59873 306.761 4.2568 318.948 1.99256C331.257 -0.241097 343.956 1.44244 355.257 6.80606C370.989 14.7027 381.215 30.7792 385.337 47.7051C386.91 53.9972 387.665 60.7298 389.081 67.1793C390.255 73.7188 392.796 79.9368 396.538 85.4265C398.427 88.1549 400.874 90.4518 403.716 92.1655C406.557 93.8792 409.73 94.9707 413.025 95.3682C416.307 95.6342 419.592 94.9022 422.45 93.2685C425.308 91.6347 427.605 89.1753 429.041 86.213C429.333 88.5142 429.012 90.8517 428.112 92.9894C427.211 95.1272 425.763 96.9895 423.912 98.3883C420.143 101.148 415.453 102.343 410.823 101.723C406.439 101.175 402.279 99.4706 398.772 96.7838C402.766 102.007 407.164 106.909 411.924 111.445C416.692 115.986 420.576 121.373 423.377 127.332C424.747 130.296 425.441 133.527 425.408 136.792C425.375 140.057 424.617 143.273 423.188 146.209C421.639 149.121 419.124 151.404 416.076 152.667C413.028 153.929 409.636 154.093 406.481 153.13C410.825 151.873 414.492 148.942 416.675 144.982C417.779 143.025 418.199 140.756 417.869 138.534C417.538 136.312 416.476 134.263 414.85 132.712C411.828 139.034 406.783 144.165 400.513 147.294C394.243 150.423 387.109 151.37 380.24 149.984C387.514 146.484 393.543 140.841 397.514 133.813C393.149 140.216 387.022 145.216 379.874 148.209C372.727 151.201 364.864 152.059 357.24 150.676C363.95 149.326 370.036 145.824 374.576 140.703C369.02 143.324 362.903 144.535 356.768 144.227C362.794 142.417 367.959 138.482 371.304 133.153C363.38 136.098 354.785 136.741 346.511 135.009C344.277 134.6 342.106 134.096 339.966 133.499C343.395 131.86 346.573 129.741 349.405 127.207C357.963 119.184 362.368 103.233 369.322 99.2693L369.511 99.0176C370.536 92.2198 370.247 85.2887 368.661 78.5996C368.129 80.4103 367.224 82.09 366.005 83.5311C364.786 84.9721 363.279 86.1426 361.582 86.968C363.017 84.5238 363.946 81.8161 364.313 79.0057C364.681 76.1953 364.48 73.3396 363.721 70.6086C361.103 78.6557 355.806 85.5621 348.712 90.1765C341.617 94.7909 333.156 96.8344 324.737 95.966C328.131 95.0391 331.218 93.2286 333.683 90.7194C336.148 88.2101 337.904 85.0918 338.77 81.6827C340.404 74.8137 339.988 67.6168 337.575 60.9816C336.408 67.2222 332.993 72.8186 327.978 76.712C327.412 77.1524 326.814 77.5613 326.216 77.9703C325.761 77.3025 325.267 76.6617 324.737 76.0512C329.482 72.1835 332.667 66.7304 333.705 60.6984Z" fill="#1D1D1B"/>
<path d="M296.1 152.439C295.408 151.967 294.37 152.03 295.188 151.873C294.516 151.847 293.847 151.978 293.236 152.257C292.624 152.536 292.085 152.953 291.664 153.477C291.319 153.868 291.128 154.372 291.128 154.893C291.128 155.414 291.319 155.918 291.664 156.309C292.048 156.53 292.477 156.66 292.92 156.687C293.362 156.714 293.804 156.639 294.212 156.466C294.756 156.386 295.276 156.19 295.738 155.891C296.199 155.593 296.591 155.199 296.887 154.736C297.041 154.321 297.046 153.866 296.903 153.447C296.76 153.029 296.476 152.672 296.1 152.439ZM294.905 146.65C295.647 146.572 296.396 146.572 297.139 146.65C299.24 146.785 301.274 147.445 303.054 148.569C305.225 149.954 306.955 151.998 309.347 153.225C311.18 154.174 313.252 154.564 315.305 154.345C317.357 154.127 319.301 153.311 320.894 151.999C321.182 151.753 321.455 151.49 321.712 151.212L325.362 151.841C322.377 155.683 318.733 158.964 314.601 161.531C307.13 165.901 299.002 169.035 290.531 170.812C287.699 171.462 284.868 172.06 282.036 172.605C276.032 173.768 269.956 174.525 263.85 174.87C261.144 175.059 258.406 175.122 255.669 175.091C252.914 175.299 250.163 174.639 247.803 173.203C245.396 177.075 242.094 180.311 238.175 182.641C237.168 185.504 236.004 188.304 234.777 191.01L234.242 190.79C228.757 190.915 223.33 189.64 218.475 187.086C213.619 184.532 209.495 180.783 206.491 176.192H205.987C205.174 179.386 204.198 182.536 203.061 185.63L202.495 187.392C197.502 203.342 194.687 219.893 194.126 236.596H193.937C189.186 234.331 187.644 235.244 179.746 229.77C165.364 219.017 153.543 205.21 145.136 189.343C141.825 183.153 139.107 176.664 137.018 169.963C134.914 163.86 130.771 158.67 125.286 155.265C119.801 151.861 113.31 150.452 106.907 151.275C106.666 151.26 106.425 151.26 106.184 151.275C97.2793 152.942 91.018 140.893 94.2274 132.398C97.4367 123.904 105.869 118.839 113.609 114.151C121.349 109.464 129.561 103.675 131.669 94.8657C139.347 62.9645 177.355 35.5307 209.637 41.3824L210.927 41.697C210.357 44.2746 210.488 46.9577 211.305 49.4678C211.92 46.4794 213.274 43.6925 215.243 41.3613C217.211 39.0301 219.732 37.2287 222.576 36.1215C225.419 35.0143 228.495 34.6364 231.522 35.0223C234.549 35.4082 237.431 36.5456 239.906 38.3308V38.6453L238.647 38.8971C233.147 40.452 228.035 43.1419 223.639 46.7937C217.576 51.0335 212.631 56.6793 209.228 63.2477C207.068 68.0448 206.179 73.3172 206.647 78.5573C207.116 83.7975 208.926 88.8289 211.903 93.1669C210.424 90.3201 209.734 87.1294 209.906 83.9261C210.077 80.7228 211.104 77.6238 212.878 74.9512C216.586 69.6142 222.23 65.9345 228.61 64.6949C234.885 63.511 241.351 63.8126 247.488 65.5757C244.1 65.2138 240.675 65.6847 237.51 66.9477C234.345 68.2108 231.536 70.2277 229.328 72.823C227.12 75.4183 225.58 78.5136 224.84 81.8398C224.101 85.1659 224.185 88.6222 225.086 91.9084C225.847 87.9629 227.589 84.2725 230.152 81.1771C232.714 78.0817 236.014 75.6809 239.748 74.196C235.352 77.795 232.439 82.8902 231.568 88.5044C230.697 94.1187 231.929 99.857 235.029 104.619C234.499 99.719 235.447 94.7729 237.752 90.4166C240.056 86.0603 243.612 82.493 247.96 80.1736C246.03 82.9982 244.714 86.196 244.096 89.5607C243.478 92.9255 243.572 96.3824 244.373 99.7085C245.173 103.035 246.662 106.156 248.743 108.871C250.824 111.586 253.452 113.835 256.456 115.472C254.602 110.136 254.816 104.3 257.054 99.113C259.343 93.9546 263.454 89.8213 268.601 87.504C266.63 88.9331 265.134 90.9198 264.304 93.2078C263.473 95.4958 263.348 97.98 263.944 100.34C264.367 102.276 265.067 104.14 266.021 105.877H265.769C263.808 108.327 262.625 111.307 262.371 114.434C262.142 117.585 262.269 120.751 262.748 123.873C263.692 131.643 265.14 139.603 269.765 145.895C271.462 148.497 274.026 150.414 277.002 151.306C280.123 151.773 283.312 151.256 286.126 149.828C288.89 148.365 291.845 147.295 294.905 146.65Z" fill="#0B6CFF"/>
<path d="M220.524 300.714C220.681 301.941 220.713 303.388 219.737 304.112C219.244 304.426 218.654 304.551 218.076 304.464C217.497 304.378 216.97 304.085 216.591 303.64C215.839 302.729 215.321 301.649 215.081 300.493C215.081 300.147 214.892 299.833 214.766 299.487C214.699 298.605 214.551 297.731 214.325 296.876C212.882 291.283 211.117 285.779 209.039 280.39C210.959 286.682 212.878 292.975 214.766 299.487C214.844 299.977 214.844 300.476 214.766 300.965C214.69 301.658 214.386 302.305 213.902 302.806C213.418 303.307 212.781 303.634 212.091 303.734C210.235 303.923 208.945 302.067 208.033 300.588C205.138 295.082 202.715 284.858 201.331 283.253L195.038 281.743L195.227 280.893C194.003 266.046 193.677 251.138 194.251 236.251C194.813 219.547 197.628 202.996 202.621 187.046L203.785 187.424C206.199 191.933 210.007 195.542 214.64 197.711C219.356 199.895 224.642 200.534 229.743 199.536L230.561 199.945C224.614 211.711 218.416 223.289 216.78 237.95V238.956C215.71 248.583 215.175 257.549 218.51 266.673C219.234 268.624 219.989 270.543 220.807 272.462C222.852 277.464 225.086 282.404 227.1 287.374C228.075 289.765 229.051 292.157 229.932 294.579C230.592 296.341 231.127 298.543 229.932 299.927C229.386 300.434 228.698 300.761 227.96 300.862C227.223 300.963 226.472 300.835 225.81 300.493C224.525 299.71 223.446 298.632 222.663 297.347C221.209 295.308 219.965 293.126 218.951 290.835C218.162 287.638 217.196 284.487 216.056 281.397C216.597 284.658 217.57 287.832 218.951 290.835C219.665 294.095 220.19 297.393 220.524 300.714Z" fill="white"/>
<path d="M201.302 283.158C201.895 288.347 200.488 293.567 197.369 297.756C196.205 299.36 194.002 300.902 192.398 299.706C190.793 298.511 191.297 296.56 191.706 295.082L194.852 281.648L201.302 283.158Z" fill="white"/>
<path d="M76.2624 222.501L76.4512 222.815L68.2391 227.44L67.4211 226.937C65.7672 230.015 63.1625 232.475 59.9955 233.952C57.8164 234.963 55.444 235.489 53.042 235.494C50.1609 238.705 46.9318 241.585 43.414 244.083L42.6903 243.076C41.4684 241.474 40.7328 239.555 40.571 237.547C40.4093 235.539 40.8281 233.527 41.7778 231.75C42.9213 229.961 44.2968 228.332 45.8682 226.905C47.4538 225.459 48.7093 223.689 49.5494 221.714C49.9556 220.73 50.0796 219.653 49.9073 218.602C49.735 217.552 49.2733 216.57 48.5741 215.768L47.284 215.17C49.5081 210.575 51.3599 205.809 52.8217 200.918L54.1433 201.359L56.5974 198.213L57.4154 198.842C62.0983 201.164 66.2137 204.487 69.4704 208.575C72.7272 212.664 75.0459 217.417 76.2624 222.501Z" fill="#0B6CFF"/>
<path d="M15.7285 254.715C18.8749 253.016 20.4796 245.875 21.0459 242.446C21.6123 239.016 21.5494 235.524 22.4619 232.189C23.8602 227.894 26.3036 224.013 29.5727 220.895C31.901 218.472 34.4497 216.239 36.8409 213.848C37.6275 213.061 38.3826 212.243 39.1377 211.394C42.1258 208.142 44.4135 204.311 45.8587 200.138C47.3039 195.966 47.8757 191.54 47.5387 187.138C46.5318 178.423 40.4593 165.776 31.8067 163.699C32.3411 163.668 32.8768 163.668 33.4113 163.699C39.3893 163.411 45.2522 165.414 49.8041 169.299C52.8439 172.861 54.7696 177.237 55.3417 181.884C56.0399 186.757 55.5764 191.727 53.9887 196.387C53.5797 197.866 53.1393 199.533 52.6673 200.854C51.2055 205.745 49.3537 210.511 47.1296 215.106L48.4197 215.704C49.1189 216.506 49.5805 217.488 49.7528 218.538C49.9251 219.589 49.8012 220.666 49.395 221.65C48.5602 223.61 47.3158 225.369 45.7452 226.809C44.1738 228.237 42.7984 229.866 41.6549 231.655C40.7052 233.431 40.2863 235.443 40.448 237.451C40.6098 239.459 41.3454 241.379 42.5673 242.98L43.291 243.987C35.1389 249.8 25.6654 253.487 15.7285 254.715Z" fill="#1D1D1B"/>
<path d="M7.07422 217.593C9.8428 222.218 12.9009 226.662 16.2303 230.901" stroke="#222120" stroke-width="0.5" stroke-linecap="round" stroke-linejoin="round"/>
<path d="M5.71875 227.441C8.4506 232.167 11.6102 236.632 15.1579 240.78" stroke="#222120" stroke-width="0.5" stroke-linecap="round" stroke-linejoin="round"/>
<path d="M4.8418 238.262C6.1477 241.474 8.20924 244.323 10.8514 246.568" stroke="#222120" stroke-width="0.5" stroke-linecap="round" stroke-linejoin="round"/>
<path d="M209.512 41.0672C177.23 35.2155 139.222 62.6493 131.545 94.5506C129.437 103.36 121.225 109.148 113.484 113.836C105.744 118.524 97.3119 123.62 94.1026 132.083C90.8933 140.546 97.2491 152.596 106.059 150.96C106.3 150.944 106.542 150.944 106.783 150.96C113.185 150.137 119.676 151.546 125.161 154.95C130.646 158.354 134.79 163.545 136.894 169.647C138.982 176.349 141.7 182.838 145.011 189.027C153.419 204.895 165.239 218.702 179.622 229.454C187.614 234.929 189.061 234.016 193.812 236.281" stroke="#222120" stroke-linecap="round" stroke-linejoin="round"/>
<path d="M106.845 151.211C87.5305 163.835 70.5064 179.655 56.503 197.994L54.0488 201.14" stroke="#222120" stroke-linecap="round" stroke-linejoin="round"/>
<path d="M15.7285 254.716C25.6982 253.503 35.2059 249.815 43.3854 243.988C46.9031 241.491 50.1323 238.61 53.0134 235.399" stroke="#222120" stroke-linecap="round" stroke-linejoin="round"/>
<path d="M46.4062 233.984C48.4827 234.921 50.7355 235.404 53.0137 235.399C55.4158 235.394 57.7881 234.868 59.9672 233.858C63.1342 232.381 65.7389 229.92 67.3928 226.842C67.9829 225.855 68.4479 224.798 68.7772 223.696" stroke="#222120" stroke-linecap="round" stroke-linejoin="round"/>
<path d="M68.2383 227.44L76.4504 222.91C98.6011 210.871 121.203 199.702 144.255 189.404" stroke="#222120" stroke-linecap="round" stroke-linejoin="round"/>
<path d="M57.3828 198.623C62.0961 200.964 66.2328 204.319 69.4967 208.448C72.7605 212.576 75.0706 217.375 76.2612 222.501" stroke="#222120" stroke-linecap="round" stroke-linejoin="round"/>
<path d="M31.9316 163.699C32.4661 163.668 33.0019 163.668 33.5363 163.699C39.5144 163.411 45.3772 165.414 49.929 169.299C52.9689 172.861 54.8946 177.237 55.4667 181.884C56.165 186.757 55.7014 191.727 54.1138 196.387C53.7048 197.866 53.2642 199.533 52.7923 200.854C51.3305 205.745 49.4787 210.511 47.2547 215.106C45.5168 218.772 43.4082 222.251 40.9619 225.488" stroke="#222120" stroke-linecap="round" stroke-linejoin="round"/>
<path d="M15.6633 254.591C13.7462 254.987 11.758 254.863 9.90479 254.232C8.05155 253.602 6.40057 252.487 5.12287 251.004C2.61223 247.978 1.17403 244.206 1.03259 240.276C0.891605 236.373 1.20836 232.466 1.97647 228.636C3.98748 214.175 7.53144 199.969 12.5484 186.258C13.3665 184.119 14.2789 182.011 15.2543 179.966C16.9232 175.978 19.2646 172.307 22.1764 169.112C24.7659 166.357 28.156 164.486 31.8673 163.764" stroke="#222120" stroke-linecap="round" stroke-linejoin="round"/>
<path d="M48.5455 215.674C49.2447 216.477 49.7064 217.458 49.8786 218.509C50.0509 219.559 49.9271 220.637 49.5209 221.62C48.6532 223.604 47.3649 225.375 45.7452 226.811C44.1737 228.239 42.7984 229.868 41.6549 231.656C40.7052 233.433 40.2862 235.445 40.448 237.453C40.6098 239.461 41.3454 241.38 42.5673 242.982" stroke="#222120" stroke-linecap="round" stroke-linejoin="round"/>
<path d="M31.8671 163.7C40.3939 165.777 46.4664 178.424 47.5991 187.139C47.9362 191.541 47.3643 195.967 45.9191 200.139C44.474 204.312 42.1864 208.143 39.1983 211.395C38.4431 212.244 37.688 213.062 36.9014 213.849C34.5101 216.24 31.9615 218.473 29.6332 220.896C26.3641 224.014 23.9207 227.895 22.5223 232.19C21.6099 235.525 21.7043 239.049 21.1065 242.447C20.5087 245.844 18.8096 253.017 15.7891 254.716" stroke="#222120" stroke-linecap="round" stroke-linejoin="round"/>
<path d="M10.1875 208.342C13.0363 213.548 16.2869 218.523 19.9099 223.223" stroke="#222120" stroke-width="0.5" stroke-linecap="round" stroke-linejoin="round"/>
<path d="M13.7461 197.929C17.7525 204.096 21.9477 210.104 26.3317 215.956" stroke="#222120" stroke-width="0.5" stroke-linecap="round" stroke-linejoin="round"/>
<path d="M17.4258 188.082C22.396 196.078 28.0267 203.644 34.259 210.702" stroke="#222120" stroke-width="0.5" stroke-linecap="round" stroke-linejoin="round"/>
<path d="M21.0117 177.542C26.0399 185.94 31.9235 193.794 38.5686 200.981" stroke="#222120" stroke-width="0.5" stroke-linecap="round" stroke-linejoin="round"/>
<path d="M27.6836 173.265C31.3387 180.046 36.1762 186.119 41.9682 191.198" stroke="#222120" stroke-width="0.5" stroke-linecap="round" stroke-linejoin="round"/>
<path d="M217.475 238.954C231.314 239.079 244.892 235.177 256.553 227.723" stroke="#222120" stroke-linecap="round" stroke-linejoin="round"/>
<path d="M292.826 213.693C304.971 211.648 316.078 209.414 326.115 202.272C328.37 200.661 330.477 198.85 332.408 196.861C334.692 194.45 336.795 191.874 338.701 189.153C341.5 185.348 343.629 181.092 344.993 176.569C346.287 172.248 346.662 167.704 346.095 163.23C345.593 159.815 344.265 156.575 342.225 153.792" stroke="#222120" stroke-linecap="round" stroke-linejoin="round"/>
<path d="M332.352 196.859C344.515 200.693 356.326 205.566 367.654 211.426C374.857 215.834 381.762 220.71 388.326 226.023L392.636 229.39L405.694 239.52" stroke="#222120" stroke-linecap="round" stroke-linejoin="round"/>
<path d="M345.973 163.198H346.13C360.312 168.701 373.445 176.597 384.957 186.542C392.571 193.212 400.091 200.102 408.24 206.079C411.826 208.737 415.578 211.165 419.473 213.347" stroke="#222120" stroke-linecap="round" stroke-linejoin="round"/>
<path d="M420.164 225.269C420.93 226.006 421.911 226.48 422.964 226.622C425.409 226.598 427.806 225.936 429.918 224.703C432.452 223.799 435.05 223.084 437.689 222.564C440.345 222.007 442.867 220.939 445.115 219.418C446.231 218.656 447.162 217.652 447.838 216.481C448.513 215.31 448.916 214.002 449.016 212.653C449.051 211.303 448.611 209.983 447.771 208.925C446.931 207.867 445.746 207.137 444.423 206.865C441.912 206.97 439.49 207.825 437.469 209.319C436.853 209.603 436.223 209.855 435.581 210.074L433.662 210.514C431.9 210.923 430.924 211.143 428.942 211.521C426.295 211.705 423.735 212.537 421.485 213.943L420.793 214.541C419.981 215.256 419.319 216.125 418.844 217.096C418.368 218.068 418.09 219.124 418.024 220.204C417.974 221.155 418.141 222.105 418.512 222.983C418.882 223.86 419.447 224.642 420.164 225.269Z" stroke="#222120" stroke-linecap="round" stroke-linejoin="round"/>
<path d="M402.637 232.253C403.778 233.345 405.154 234.162 406.659 234.641C408.163 235.121 409.758 235.251 411.321 235.022" stroke="#222120" stroke-linecap="round" stroke-linejoin="round"/>
<path d="M421.233 253.27C420.667 252.798 413.902 247.229 409.969 243.832" stroke="#222120" stroke-linecap="round" stroke-linejoin="round"/>
<path d="M409.941 243.8C413.27 247.422 417.057 250.594 421.206 253.238" stroke="#222120" stroke-linecap="round" stroke-linejoin="round"/>
<path d="M409.877 243.737C408.492 242.542 407.486 241.661 407.202 241.315C406.916 241.007 406.663 240.669 406.447 240.308C406.447 240.308 407.895 241.787 409.877 243.737Z" stroke="#222120" stroke-linecap="round" stroke-linejoin="round"/>
<path d="M407.576 206.992C407.774 211.563 406.542 216.083 404.053 219.922C401.191 224.075 397.223 227.344 392.6 229.36" stroke="#222120" stroke-linecap="round" stroke-linejoin="round"/>
<path d="M421.238 253.269C426.43 254.873 431.999 252.136 436.152 248.613C439.914 244.694 444.032 241.134 448.455 237.979C455.44 234.015 464.501 234.141 470.668 228.981C472.387 227.562 473.785 225.793 474.769 223.792C475.753 221.792 476.3 219.605 476.374 217.376C476.449 215.148 476.049 212.93 475.2 210.868C474.352 208.806 473.075 206.948 471.455 205.417C468.745 203.119 465.503 201.535 462.024 200.809C458.546 200.084 454.941 200.24 451.538 201.264C444.647 202.963 441.438 208.311 433.792 210.702" stroke="#222120" stroke-linecap="round" stroke-linejoin="round"/>
<path d="M330.366 141.898C329.282 145.483 327.554 148.841 325.269 151.808C322.284 155.65 318.64 158.93 314.508 161.498C307.068 165.87 298.973 169.014 290.532 170.81C287.701 171.461 284.869 172.058 282.037 172.604C276.033 173.766 269.957 174.523 263.851 174.869C261.145 175.058 258.408 175.12 255.67 175.089C252.915 175.297 250.164 174.637 247.804 173.201L247.584 173.044" stroke="#222120" stroke-linecap="round" stroke-linejoin="round"/>
<path d="M230.5 115.847C233.883 114.337 237.724 114.213 241.198 115.501C244.644 116.83 247.449 119.432 249.032 122.769C250.462 126.583 251.053 130.661 250.763 134.724V141.394" stroke="#222120" stroke-linecap="round" stroke-linejoin="round"/>
<path d="M130.697 122.864C150.437 121.322 170.267 121.322 190.007 122.864" stroke="#222120" stroke-linecap="round" stroke-linejoin="round"/>
<path d="M159.926 107.261C174.687 108.484 189.252 111.451 203.315 116.102" stroke="#222120" stroke-linecap="round" stroke-linejoin="round"/>
<path d="M188.272 153.821C193.612 158.081 199.367 161.791 205.452 164.895L169.205 188.113" stroke="#222120" stroke-linecap="round" stroke-linejoin="round"/>
<path d="M264.164 179.902C263.446 187.622 262.206 195.284 260.451 202.837" stroke="#222120" stroke-linecap="round" stroke-linejoin="round"/>
<path d="M287.482 180.248C293.037 176.748 299.305 174.534 305.826 173.768" stroke="#222120" stroke-linecap="round" stroke-linejoin="round"/>
<path d="M218.794 290.834C219.808 293.125 221.052 295.307 222.507 297.347C223.29 298.631 224.368 299.71 225.653 300.493C226.315 300.834 227.066 300.962 227.803 300.861C228.541 300.76 229.23 300.433 229.775 299.926C231.033 298.542 230.498 296.34 229.775 294.578C228.894 292.156 227.918 289.765 226.943 287.374C224.835 282.403 222.601 277.463 220.65 272.461C219.832 270.542 219.077 268.623 218.353 266.672C215.018 257.549 215.553 248.582 216.623 238.955V237.949C218.259 223.288 224.457 211.71 230.404 199.944C231.883 196.987 233.362 193.998 234.746 190.946C236.131 187.895 237.137 185.441 238.144 182.578C242.063 180.248 245.365 177.011 247.772 173.139C248.839 171.499 249.725 169.748 250.415 167.917C252.717 161.788 252.895 155.063 250.919 148.82" stroke="#222120" stroke-linecap="round" stroke-linejoin="round"/>
<path d="M218.797 290.834C218.009 287.637 217.042 284.486 215.902 281.396C216.443 284.657 217.417 287.831 218.797 290.834Z" stroke="#222120" stroke-linecap="round" stroke-linejoin="round"/>
<path d="M214.797 299.55C214.797 299.896 215.017 300.21 215.111 300.556C215.352 301.712 215.87 302.792 216.622 303.703C217.001 304.148 217.528 304.441 218.107 304.527C218.685 304.614 219.275 304.489 219.768 304.174C220.744 303.451 220.712 302.004 220.555 300.777C220.138 297.451 219.529 294.153 218.73 290.898" stroke="#222120" stroke-linecap="round" stroke-linejoin="round"/>
<path d="M214.797 299.547C214.729 298.665 214.582 297.792 214.356 296.936C212.913 291.344 211.148 285.84 209.07 280.451C210.99 286.806 212.909 293.192 214.797 299.547Z" stroke="#222120" stroke-linecap="round" stroke-linejoin="round"/>
<path d="M215.272 130.731C212.377 132.084 203.316 147.091 204.574 156.875C205.109 161.059 206.62 165.149 206.745 169.459C206.778 171.664 206.524 173.864 205.99 176.003C205.177 179.197 204.201 182.347 203.064 185.441L202.498 187.203C197.505 203.153 194.69 219.704 194.128 236.408C193.554 251.295 193.88 266.203 195.104 281.05L194.915 281.9L191.768 295.334C191.359 296.938 191.139 298.983 192.461 299.958C193.782 300.934 196.268 299.612 197.432 298.008C200.551 293.819 201.957 288.599 201.365 283.41C202.749 285.015 205.172 295.239 208.067 300.745C208.948 302.381 210.269 304.237 212.126 303.891C212.815 303.791 213.452 303.465 213.936 302.964C214.42 302.463 214.724 301.815 214.8 301.122C214.878 300.633 214.878 300.134 214.8 299.644" stroke="#222120" stroke-linecap="round" stroke-linejoin="round"/>
<path d="M282.128 173.077C280.73 176.45 279.615 179.933 278.793 183.49C278.793 183.994 278.509 184.497 278.383 185C277.44 186.573 276.527 188.147 275.646 189.751C272.563 195.141 269.647 200.594 266.899 206.11C263.27 213.242 259.925 220.509 256.862 227.913C253.307 236.47 250.066 245.216 247.203 254.12C244.168 257.886 242.603 262.626 242.798 267.459C243.005 272.256 242.571 277.06 241.508 281.742C241.055 282.88 240.769 284.078 240.658 285.297C240.66 285.76 240.745 286.218 240.91 286.65C241.031 287.007 241.23 287.332 241.491 287.604C241.752 287.876 242.069 288.087 242.42 288.223C244.182 288.758 245.724 286.933 246.605 285.297C248.493 281.805 250.066 278.124 251.576 274.569C253.8 281.868 256.254 289.083 258.939 296.214C259.303 297.38 259.914 298.453 260.732 299.36C261.165 299.801 261.718 300.105 262.322 300.234C262.927 300.362 263.555 300.31 264.13 300.084C265.766 299.203 265.609 296.938 265.169 294.987C263.784 289.261 262.022 283.598 260.921 278.691C263.593 285.563 267.079 292.09 271.304 298.133C271.822 298.985 272.507 299.724 273.318 300.304C273.715 300.591 274.183 300.763 274.671 300.802C275.16 300.841 275.649 300.745 276.087 300.524C276.535 300.224 276.885 299.799 277.092 299.3C277.299 298.802 277.354 298.254 277.251 297.724C277.124 296.92 276.835 296.149 276.401 295.459L275.992 294.767L266.836 279.32" stroke="#222120" stroke-linecap="round" stroke-linejoin="round"/>
<path d="M277.853 295.71C278.548 295.288 279.098 294.665 279.43 293.923C279.761 293.181 279.859 292.356 279.709 291.557C279.372 289.964 278.696 288.461 277.727 287.152L276.72 285.548L270.207 275.197" stroke="#222120" stroke-linecap="round" stroke-linejoin="round"/>
<path d="M277.791 284.887C276.622 278.009 274.052 271.445 270.239 265.602C269.115 264.027 268.135 262.352 267.313 260.6C266.908 259.683 266.699 258.692 266.699 257.69C266.699 256.687 266.908 255.696 267.313 254.779C274.719 240.417 283.273 226.676 292.893 213.692C295.222 210.546 297.644 207.399 300.162 204.253C302.679 201.107 304.913 198.496 307.367 195.696L308.625 194.28C314.174 192.44 319.071 189.03 322.721 184.465C326.324 179.909 329.485 175.021 332.161 169.867L341.6 153.255L343.236 150.33C345.249 146.775 347.861 140.357 346.382 136.424C346.292 136.161 346.176 135.909 346.036 135.669" stroke="#222120" stroke-linecap="round" stroke-linejoin="round"/>
<path d="M275.996 189.94C277.764 194.498 281.018 198.325 285.232 200.803C289.447 203.281 294.374 204.265 299.217 203.594" stroke="#222120" stroke-linecap="round" stroke-linejoin="round"/>
<path d="M282.982 184.717C286.02 188.178 289.76 190.954 293.954 192.858C298.147 194.762 302.698 195.751 307.304 195.76" stroke="#222120" stroke-linecap="round" stroke-linejoin="round"/>
<path d="M203.66 187.328C206.075 191.838 209.882 195.447 214.515 197.616C219.232 199.8 224.517 200.438 229.618 199.44" stroke="#222120" stroke-linecap="round" stroke-linejoin="round"/>
<path d="M220.869 272.24C225.925 276.068 230.518 280.47 234.556 285.359C234.963 285.864 235.272 286.44 235.468 287.058C235.553 287.295 235.583 287.549 235.556 287.799C235.529 288.05 235.445 288.291 235.311 288.505C235.009 288.842 234.622 289.093 234.191 289.231C233.759 289.37 233.299 289.39 232.857 289.291C230.897 289.126 229.043 288.331 227.571 287.026" stroke="#222120" stroke-linecap="round" stroke-linejoin="round"/>
<path d="M313.471 90.6182L310.607 94.8653" stroke="#222120" stroke-linecap="round" stroke-linejoin="round"/>
<path d="M348.614 103.609C347.511 104.915 346.61 106.379 345.939 107.951" stroke="#222120" stroke-linecap="round" stroke-linejoin="round"/>
<path d="M322.279 118.459C323.278 119.668 324.536 120.636 325.961 121.291C326.664 121.624 327.432 121.797 328.21 121.797C328.988 121.797 329.757 121.624 330.46 121.291C331.022 120.948 331.507 120.491 331.881 119.949C332.255 119.407 332.51 118.792 332.631 118.145C332.87 116.899 332.705 115.609 332.159 114.464" stroke="#222120" stroke-width="0.5" stroke-linecap="round" stroke-linejoin="round"/>
<path d="M302.838 118.617C310.648 124.695 320.252 128.014 330.149 128.055" stroke="#222120" stroke-width="0.5" stroke-linecap="round" stroke-linejoin="round"/>
<path d="M279.111 96.7192C279.426 97.7574 279.772 98.7956 280.118 99.8653C282.738 109.018 286.899 117.656 292.421 125.411C297.343 132.021 304.294 136.838 312.211 139.128C314.553 139.733 316.968 140.008 319.385 139.946C320.798 139.905 322.207 139.768 323.601 139.537C327.547 138.75 331.389 137.515 335.054 135.856C336.722 135.133 338.39 134.378 340.026 133.528C343.455 131.889 346.633 129.771 349.465 127.236C358.023 119.214 362.428 103.263 369.381 99.299" stroke="#222120" stroke-linecap="round" stroke-linejoin="round"/>
<path d="M250.949 26.8149C250.949 26.4374 251.201 26.0598 251.358 25.6823C252.66 22.9291 254.597 20.524 257.009 18.6646C259.421 16.8051 262.24 15.5443 265.234 14.9856C271.587 14.1056 278.026 14.0421 284.395 14.7969C295.112 8.56699 306.819 4.22506 319.006 1.96082C331.315 -0.272835 344.014 1.4107 355.315 6.77432C371.047 14.671 381.273 30.7474 385.395 47.6733C386.968 53.9655 387.723 60.6981 389.139 67.1475C390.312 73.687 392.854 79.905 396.596 85.3948C398.485 88.1231 400.931 90.4201 403.773 92.1337C406.615 93.8474 409.788 94.939 413.083 95.3365C416.364 95.6025 419.65 94.8705 422.508 93.2367C425.366 91.603 427.663 89.1436 429.098 86.1813C429.39 88.4825 429.07 90.8199 428.17 92.9577C427.269 95.0955 425.82 96.9578 423.97 98.3566C420.201 101.116 415.511 102.311 410.881 101.692C406.496 101.144 402.337 99.439 398.83 96.7522C402.824 101.975 407.222 106.877 411.982 111.413C416.75 115.954 420.633 121.342 423.435 127.301C424.805 130.264 425.498 133.495 425.466 136.76C425.433 140.025 424.675 143.241 423.246 146.177C421.696 149.089 419.182 151.372 416.134 152.635C413.086 153.898 409.694 154.062 406.539 153.098C410.883 151.841 414.55 148.91 416.733 144.95C417.837 142.993 418.257 140.724 417.927 138.502C417.596 136.28 416.534 134.231 414.908 132.68C411.886 139.002 406.841 144.134 400.571 147.262C394.301 150.391 387.166 151.338 380.298 149.952C387.572 146.453 393.601 140.809 397.571 133.781C393.206 140.201 387.071 145.214 379.91 148.214C372.75 151.213 364.872 152.068 357.235 150.676C363.944 149.325 370.031 145.824 374.571 140.703C369.015 143.324 362.898 144.534 356.763 144.226C362.789 142.416 367.954 138.482 371.299 133.152C363.375 136.097 354.78 136.741 346.505 135.008C344.271 134.599 342.1 134.096 339.961 133.498" stroke="#222120" stroke-linecap="round" stroke-linejoin="round"/>
<path d="M299.908 31.5957C291.644 35.3895 282.337 36.2658 273.51 34.0811C265.801 32.571 258.376 29.8654 250.761 27.789C249.66 27.4744 248.559 27.1912 247.426 26.9395C241.828 25.457 236.008 24.9987 230.247 25.5867C224.454 26.1889 219.06 28.8187 215.018 33.0115C212.903 35.3587 211.448 38.2245 210.802 41.3171C210.232 43.8946 210.362 46.5778 211.18 49.0879C211.795 46.0994 213.149 43.3125 215.118 40.9813C217.086 38.6501 219.607 36.8488 222.451 35.7416C225.294 34.6343 228.37 34.2564 231.397 34.6423C234.424 35.0282 237.306 36.1656 239.78 37.9508" stroke="#222120" stroke-linecap="round" stroke-linejoin="round"/>
<path d="M273.354 46.7296C267.99 43.8729 262.389 41.4835 256.615 39.5881C251.204 37.8409 245.455 37.4095 239.845 38.3297L238.586 38.5813C233.087 40.1362 227.974 42.8263 223.578 46.478C217.515 50.7178 212.571 56.3636 209.167 62.932C207.007 67.7291 206.118 73.0015 206.587 78.2417C207.055 83.4818 208.865 88.5131 211.842 92.8511C210.363 90.0043 209.673 86.8135 209.845 83.6102C210.017 80.4069 211.043 77.308 212.817 74.6353C216.525 69.2984 222.169 65.6187 228.549 64.3791C234.824 63.1952 241.29 63.4969 247.428 65.2601C244.039 64.8981 240.614 65.3691 237.449 66.6321C234.284 67.8951 231.475 69.912 229.267 72.5074C227.059 75.1027 225.519 78.1979 224.779 81.5241C224.04 84.8503 224.124 88.3066 225.025 91.5927C225.786 87.6473 227.528 83.9568 230.091 80.8614C232.653 77.766 235.953 75.3652 239.687 73.8803C235.291 77.4794 232.378 82.5745 231.507 88.1888C230.636 93.803 231.868 99.5411 234.968 104.303C234.438 99.4032 235.386 94.4572 237.691 90.1009C239.995 85.7446 243.551 82.1773 247.899 79.8579C245.969 82.6826 244.653 85.8804 244.035 89.2451C243.417 92.6098 243.511 96.0666 244.312 99.3927C245.112 102.719 246.601 105.84 248.682 108.555C250.763 111.271 253.391 113.519 256.395 115.157C254.541 109.821 254.755 103.984 256.993 98.7972C259.282 93.6387 263.393 89.5054 268.54 87.1882C266.569 88.6172 265.073 90.6041 264.243 92.8922C263.412 95.1802 263.287 97.6643 263.883 100.024C264.306 101.96 265.006 103.825 265.96 105.561C267.333 108.077 268.957 110.449 270.805 112.64C270.014 111.164 269.557 109.533 269.464 107.861C269.372 106.189 269.648 104.517 270.272 102.964C270.896 101.41 271.853 100.012 273.076 98.868C274.299 97.7242 275.758 96.8624 277.35 96.3434" stroke="#222120" stroke-linecap="round" stroke-linejoin="round"/>
<path d="M270.426 92.1588C271.496 92.1588 272.534 91.9385 273.572 91.7498C280.287 90.652 286.685 88.1157 292.327 84.3145C297.97 80.5133 302.724 75.5372 306.263 69.7272C311.21 70.1254 316.186 69.5287 320.898 67.9725C325.611 66.4163 329.963 63.9322 333.7 60.6665C332.675 66.7371 329.477 72.2278 324.701 76.1139C320.653 79.5745 315.603 81.6474 310.291 82.0285C315.877 82.4132 321.441 81.0141 326.18 78.0329C326.778 77.6239 327.376 77.2149 327.942 76.7744C332.957 72.881 336.371 67.2846 337.538 61.044C339.952 67.6792 340.368 74.8763 338.734 81.7453C337.868 85.1544 336.112 88.2727 333.647 90.782C331.182 93.2912 328.095 95.1015 324.701 96.0284C333.12 96.8968 341.581 94.8535 348.675 90.2391C355.769 85.6247 361.067 78.7181 363.685 70.671C364.443 73.4021 364.645 76.2577 364.277 79.0681C363.91 81.8785 362.981 84.5864 361.545 87.0306C363.243 86.2052 364.75 85.0345 365.969 83.5935C367.188 82.1524 368.092 80.4729 368.625 78.6622C370.211 85.3513 370.499 92.2824 369.474 99.0802" stroke="#222120" stroke-linecap="round" stroke-linejoin="round"/>
<path d="M317.496 69.2549C320.162 71.2101 322.582 73.4814 324.701 76.019C325.231 76.6295 325.725 77.2702 326.18 77.9381C327.557 79.7332 328.768 81.6497 329.799 83.664" stroke="#222120" stroke-width="0.5" stroke-linecap="round" stroke-linejoin="round"/>
<path d="M348.586 94.8022C351.092 92.9994 354.124 92.0771 357.209 92.1796C360.294 92.282 363.259 93.4034 365.639 95.3685" stroke="#222120" stroke-width="0.5" stroke-linecap="round" stroke-linejoin="round"/>
<path d="M273.699 92.3159C273.86 93.2549 274.291 94.1268 274.939 94.8251C275.587 95.5234 276.425 96.0179 277.349 96.2485C277.916 96.4415 278.512 96.5373 279.111 96.5317" stroke="#222120" stroke-linecap="round" stroke-linejoin="round"/>
<path d="M279.016 100.181C277.54 105.406 277.345 110.91 278.45 116.226C279.552 121.522 281.34 126.651 283.767 131.485C284.896 134.03 286.379 136.402 288.172 138.532C290.659 141.275 293.973 143.131 297.611 143.817C298.35 143.948 299.096 144.032 299.845 144.069C304.334 144.242 308.71 142.636 312.022 139.602" stroke="#222120" stroke-linecap="round" stroke-linejoin="round"/>
<path d="M265.677 105.687C263.716 108.136 262.532 111.116 262.279 114.244C262.05 117.394 262.176 120.56 262.656 123.682C263.6 131.453 265.047 139.413 269.673 145.705C271.37 148.306 273.934 150.223 276.909 151.116C280.031 151.582 283.22 151.066 286.034 149.637C288.837 148.231 291.824 147.225 294.907 146.649C295.649 146.57 296.398 146.57 297.141 146.649C299.242 146.783 301.276 147.443 303.056 148.568C305.227 149.952 306.957 151.997 309.349 153.224C311.182 154.172 313.254 154.562 315.307 154.344C317.359 154.126 319.303 153.31 320.896 151.997C321.184 151.751 321.457 151.488 321.714 151.21C322.975 149.828 323.846 148.135 324.239 146.305C324.631 144.476 324.531 142.575 323.948 140.797" stroke="#222120" stroke-linecap="round" stroke-linejoin="round"/>
<path d="M295.19 151.936C294.518 151.91 293.85 152.042 293.238 152.32C292.626 152.599 292.088 153.017 291.666 153.54C291.321 153.931 291.131 154.435 291.131 154.956C291.131 155.478 291.321 155.981 291.666 156.372C292.05 156.593 292.48 156.723 292.922 156.75C293.364 156.777 293.807 156.702 294.215 156.529C294.759 156.449 295.279 156.253 295.74 155.954C296.202 155.656 296.593 155.262 296.889 154.799C297.055 154.398 297.08 153.952 296.96 153.535C296.84 153.118 296.582 152.754 296.229 152.502C295.411 151.936 294.309 151.936 295.19 151.936Z" stroke="#222120" stroke-width="0.5" stroke-linecap="round" stroke-linejoin="round"/>
<path d="M206.494 176.033C209.498 180.624 213.622 184.373 218.478 186.928C223.334 189.482 228.76 190.756 234.245 190.631" stroke="#222120" stroke-miterlimit="10"/>
<path d="M420.165 225.584C419.624 228.845 418.209 231.899 416.07 234.419C413.932 236.94 411.149 238.834 408.02 239.899" stroke="#222120" stroke-linecap="round" stroke-linejoin="round"/>
</svg>
