<svg width="183" height="202" viewBox="0 0 183 202" fill="none" xmlns="http://www.w3.org/2000/svg">
<rect x="76.2969" y="110.527" width="57.9227" height="27.442" fill="#FFED00"/>
<rect x="41.543" y="142.543" width="57.9227" height="27.442" fill="#FFED00"/>
<rect x="41.543" y="174.559" width="16.2183" height="27.442" fill="#FFED00"/>
<rect x="99.4668" y="174.559" width="34.7536" height="27.442" fill="#FFED00"/>
<rect x="106.416" y="142.543" width="27.8029" height="27.442" fill="black"/>
<rect x="64.7129" y="174.559" width="27.8029" height="27.442" fill="black"/>
<rect x="41.543" y="110.527" width="27.8029" height="27.442" fill="black"/>
<path d="M54.9369 116.945C57.4347 116.945 59.4522 117.476 60.9893 118.538C62.5457 119.581 63.3239 121.184 63.3239 123.346H57.7613C57.7613 121.639 56.8199 120.786 54.9369 120.786C53.0539 120.786 52.1124 121.857 52.1124 124V125.622C52.1124 127.746 53.0923 128.808 55.0522 128.808C57.012 128.808 57.9919 127.935 57.9919 126.191H63.3239C63.3239 128.372 62.5457 129.993 60.9893 131.055C59.4522 132.117 57.4347 132.648 54.9369 132.648C52.2661 132.648 50.1718 131.984 48.6538 130.657C47.1359 129.329 46.377 127.376 46.377 124.797C46.377 122.218 47.1359 120.264 48.6538 118.937C50.1718 117.609 52.2661 116.945 54.9369 116.945Z" fill="white"/>
<path d="M78.2318 180.271C80.7296 180.271 82.7471 180.802 84.2843 181.865C85.8406 182.908 86.6188 184.51 86.6188 186.672H81.0563C81.0563 184.965 80.1148 184.112 78.2318 184.112C76.3488 184.112 75.4073 185.183 75.4073 187.326V188.948C75.4073 191.072 76.3872 192.134 78.3471 192.134C80.3069 192.134 81.2868 191.262 81.2868 189.517H86.6188C86.6188 191.698 85.8406 193.319 84.2843 194.381C82.7471 195.443 80.7296 195.974 78.2318 195.974C75.561 195.974 73.4667 195.311 71.9488 193.983C70.4308 192.655 69.6719 190.702 69.6719 188.123C69.6719 185.544 70.4308 183.59 71.9488 182.263C73.4667 180.935 75.561 180.271 78.2318 180.271Z" fill="white"/>
<path d="M122.454 145.794C124.51 145.794 126.095 146.458 127.21 147.785C128.324 149.113 128.881 151.076 128.881 153.674C128.881 156.253 128.324 158.206 127.21 159.534C126.095 160.842 124.51 161.497 122.454 161.497C120.686 161.497 119.265 160.928 118.189 159.79V166.759H112.453V146.135H117.122L117.612 148.269C118.727 146.619 120.341 145.794 122.454 145.794ZM120.667 149.976C119.822 149.976 119.188 150.27 118.765 150.858C118.342 151.445 118.131 152.214 118.131 153.162V154.101C118.131 155.049 118.342 155.826 118.765 156.433C119.188 157.021 119.822 157.315 120.667 157.315C122.32 157.315 123.146 156.338 123.146 154.385V152.877C123.146 150.943 122.32 149.976 120.667 149.976Z" fill="white"/>
<path d="M180.584 79.2037C181.204 79.7894 181.692 80.5003 182.017 81.289C182.341 82.0778 182.494 82.9265 182.466 83.779C182.438 84.6314 182.228 85.468 181.852 86.2334C181.476 86.9988 180.941 87.6755 180.283 88.2186C177.876 90.1925 174.458 90.1443 171.786 91.6609C170.094 92.8678 168.519 94.2298 167.08 95.729C165.491 97.077 163.361 98.1362 161.375 97.5104C161.158 97.3298 158.57 95.1995 157.066 93.8996C156.308 93.1534 155.778 92.5876 155.754 92.5876L156.344 92.4312C157.541 92.0238 158.605 91.2993 159.423 90.3349C160.241 89.3706 160.783 88.2024 160.99 86.9548V86.8345C161.283 87.1164 161.658 87.2977 162.061 87.352C162.996 87.3427 163.913 87.0896 164.721 86.6178C165.69 86.272 166.684 85.9985 167.694 85.7994C168.71 85.5864 169.674 85.1776 170.534 84.5958C170.961 84.3043 171.317 83.9202 171.576 83.4722C171.834 83.0243 171.988 82.5238 172.027 82.0081C172.04 81.4914 171.871 80.9865 171.55 80.5816C171.229 80.1768 170.775 79.8978 170.269 79.7934C169.309 79.8338 168.382 80.1608 167.609 80.7323C167.374 80.841 167.133 80.9374 166.887 81.0211L166.153 81.1897C169.078 80.3231 170.305 78.277 172.941 77.5789C174.249 77.1877 175.635 77.1315 176.97 77.4154C178.306 77.6993 179.548 78.3143 180.584 79.2037Z" fill="#1D1D1B"/>
<path d="M170.292 79.7812C170.798 79.8856 171.251 80.1646 171.573 80.5694C171.894 80.9743 172.063 81.4792 172.049 81.9959C172.011 82.5116 171.857 83.0121 171.598 83.4601C171.34 83.9081 170.984 84.2921 170.557 84.5836C169.697 85.1654 168.732 85.5743 167.716 85.7872C166.706 85.9863 165.713 86.2599 164.743 86.6057C163.935 87.0775 163.019 87.3305 162.083 87.3398C161.68 87.2855 161.305 87.1043 161.012 86.8223C160.741 86.5849 160.527 86.2897 160.385 85.9585C160.244 85.6273 160.178 85.2685 160.194 84.9086C160.219 84.4955 160.325 84.0915 160.507 83.7197C160.689 83.3479 160.942 83.0157 161.253 82.7421L161.518 82.5134C162.378 81.9752 163.358 81.6569 164.37 81.5866C165.128 81.4422 165.502 81.3579 166.176 81.2015L166.91 81.033C167.155 80.9493 167.396 80.8529 167.632 80.7442C168.402 80.1641 169.329 79.8286 170.292 79.7812Z" fill="white"/>
<path d="M91.9865 15.2811V15.1608C91.0399 14.4778 89.9374 14.0427 88.7795 13.895C87.6216 13.7474 86.4451 13.892 85.3574 14.3156C84.2697 14.7392 83.3053 15.4283 82.5522 16.3202C81.7992 17.212 81.2813 18.2782 81.0459 19.4215C80.7332 18.4612 80.6834 17.4347 80.9015 16.4486C81.1487 15.2655 81.7052 14.1691 82.5143 13.2711C84.0604 11.6671 86.1237 10.661 88.3397 10.4306C90.5435 10.2057 92.7698 10.3811 94.9113 10.9482C95.3446 11.0445 95.7658 11.1528 96.1871 11.2732L96.4158 10.4427C96.9138 9.38941 97.6546 8.4693 98.5773 7.75792C99.5 7.04654 100.578 6.5642 101.724 6.35047C104.154 6.01379 106.617 5.98952 109.053 6.27826C113.153 3.8949 117.631 2.23381 122.293 1.36758C127.001 0.513052 131.859 1.15712 136.182 3.20908C142.2 6.2301 146.112 12.3805 147.689 18.8558C148.291 21.263 148.579 23.8387 149.121 26.306C149.57 28.8078 150.542 31.1866 151.974 33.2869C152.696 34.3306 153.632 35.2094 154.719 35.865C155.806 36.5206 157.02 36.9382 158.28 37.0902C159.536 37.192 160.792 36.912 161.885 36.2869C162.979 35.6619 163.858 34.721 164.407 33.5877C164.518 34.4681 164.396 35.3624 164.051 36.1802C163.707 36.998 163.153 37.7105 162.445 38.2456C161.003 39.3014 159.209 39.7586 157.438 39.5215C155.761 39.312 154.17 38.6598 152.828 37.6319C154.356 39.63 156.038 41.5053 157.859 43.2406C159.683 44.9781 161.169 47.039 162.24 49.3187C162.764 50.4525 163.03 51.6887 163.017 52.9377C163.005 54.1866 162.715 55.4172 162.168 56.5403C161.575 57.6544 160.614 58.5279 159.448 59.0109C158.282 59.494 156.984 59.5567 155.777 59.1882C157.439 58.7073 158.841 57.586 159.677 56.0709C160.099 55.3223 160.26 54.4543 160.133 53.6041C160.007 52.7539 159.6 51.9702 158.978 51.3769C157.823 53.7953 155.892 55.7586 153.494 56.9556C151.096 58.1525 148.366 58.5147 145.739 57.9846C148.522 56.6458 150.828 54.4868 152.347 51.7981C150.675 54.2582 148.324 56.179 145.58 57.3266C142.836 58.4742 139.818 58.7989 136.893 58.2614C139.459 57.7448 141.788 56.4053 143.524 54.446C141.399 55.4488 139.059 55.9118 136.712 55.7941C139.017 55.1016 140.993 53.5963 142.273 51.5575C139.241 52.6842 135.953 52.9303 132.788 52.2675C131.934 52.1111 131.103 51.9185 130.285 51.6898C131.597 51.0628 132.812 50.2523 133.896 49.2826C137.169 46.2135 138.854 40.1113 141.514 38.5947L141.587 38.4984C141.979 35.8978 141.868 33.2462 141.262 30.6871C141.058 31.3799 140.712 32.0225 140.246 32.5738C139.779 33.1251 139.203 33.5729 138.554 33.8886C139.103 32.9536 139.458 31.9177 139.598 30.8425C139.739 29.7673 139.662 28.6748 139.372 27.63C138.371 30.7086 136.344 33.3508 133.63 35.1161C130.917 36.8814 127.68 37.6632 124.459 37.331C125.758 36.9764 126.938 36.2838 127.882 35.3238C128.825 34.3638 129.496 33.1709 129.827 31.8666C130.452 29.2388 130.293 26.4855 129.37 23.947C128.924 26.3345 127.618 28.4755 125.699 29.965C125.483 30.1335 125.254 30.2899 125.025 30.4464C124.851 30.1909 124.662 29.9458 124.459 29.7122C126.286 28.2255 127.51 26.125 127.902 23.8025C126.472 25.0519 124.807 26.0023 123.005 26.5977C121.202 27.193 119.299 27.4212 117.406 27.2689C116.052 29.4916 114.234 31.3953 112.075 32.8495C109.917 34.3037 107.47 35.2741 104.901 35.694V35.9468C104.963 36.306 105.127 36.6396 105.375 36.9067C105.623 37.1739 105.944 37.3631 106.297 37.4513C105.688 37.6499 105.13 37.9796 104.662 38.4172C104.195 38.8548 103.828 39.3896 103.59 39.984C103.351 40.5785 103.246 41.2181 103.281 41.8577C103.316 42.4973 103.491 43.1213 103.794 43.6859C103.087 42.8477 102.466 41.9404 101.94 40.9778C101.575 40.3134 101.308 39.6 101.146 38.8595C100.918 37.9567 100.966 37.0063 101.283 36.131C101.601 35.2557 102.173 34.4956 102.927 33.9489C100.959 34.8354 99.3858 36.4167 98.51 38.3901C97.6539 40.3744 97.5723 42.6073 98.2813 44.6488C97.1322 44.0224 96.1272 43.162 95.331 42.1232C94.5349 41.0845 93.9653 39.8904 93.6591 38.618C93.3529 37.3455 93.3169 36.023 93.5533 34.7357C93.7897 33.4485 94.2933 32.2251 95.0316 31.1445C93.3681 32.0318 92.0081 33.3966 91.1266 35.0631C90.245 36.7297 89.8822 38.622 90.0848 40.4964C88.8992 38.6748 88.4278 36.4795 88.761 34.3316C89.0942 32.1838 90.2085 30.2345 91.8902 28.8576C90.4618 29.4257 89.1994 30.3442 88.2192 31.5284C87.239 32.7126 86.5727 34.1245 86.2815 35.6339C85.937 34.3767 85.9047 33.0544 86.1875 31.7819C86.4703 30.5094 87.0597 29.3253 87.9043 28.3324C88.7489 27.3395 89.8232 26.5679 91.0339 26.0847C92.2446 25.6015 93.5549 25.4213 94.8511 25.5598C92.5032 24.8853 90.03 24.7699 87.6295 25.2228C85.1891 25.6971 83.03 27.1047 81.6116 29.1465C80.9328 30.169 80.5403 31.3545 80.4746 32.58C80.409 33.8055 80.6728 35.0262 81.2385 36.1153C80.0997 34.4558 79.4074 32.5309 79.2282 30.5262C79.049 28.5214 79.389 26.5044 80.2154 24.6692C81.5173 22.1563 83.4087 19.9964 85.7278 18.3744C87.4095 16.9773 89.3653 15.9482 91.469 15.3534L91.9865 15.2811Z" fill="#1D1D1B"/>
<path d="M160.699 82.2491L161.252 82.7185C160.942 82.992 160.688 83.3242 160.507 83.696C160.325 84.0678 160.218 84.4718 160.193 84.8849C160.178 85.2448 160.243 85.6036 160.385 85.9348C160.527 86.266 160.741 86.5612 161.012 86.7987V86.919C160.805 88.1666 160.263 89.3348 159.445 90.2992C158.627 91.2635 157.563 91.988 156.366 92.3954L155.776 92.5519L155.487 92.251L150.492 88.3754C152.261 87.6042 153.778 86.3534 154.873 84.7646C155.803 83.284 156.249 81.5511 156.149 79.8058L156.39 79.4688C157.766 80.4861 159.205 81.4148 160.699 82.2491Z" fill="#FFED00"/>
<path d="M156.404 79.4687L156.163 79.8058C156.238 81.5547 155.767 83.2837 154.815 84.7525C153.72 86.3413 152.203 87.5921 150.434 88.3633L148.785 87.0754C146.274 85.0427 143.633 83.1772 140.877 81.4908C136.544 79.2491 132.026 77.3847 127.373 75.9182C128.247 74.9958 129.051 74.0102 129.78 72.9694C130.851 71.5135 131.665 69.8853 132.187 68.155C132.682 66.5019 132.826 64.7636 132.609 63.0518C138.047 65.1534 143.083 68.1743 147.497 71.9824C150.41 74.546 153.286 77.1819 156.404 79.4687Z" fill="white"/>
<path d="M125.012 30.4349C125.241 30.2784 125.47 30.122 125.686 29.9535C127.605 28.464 128.911 26.323 129.357 23.9355C130.281 26.474 130.44 29.2273 129.815 31.8551C129.483 33.1594 128.812 34.3523 127.869 35.3123C126.926 36.2723 125.745 36.9649 124.447 37.3195C127.667 37.6517 130.904 36.87 133.618 35.1046C136.331 33.3393 138.358 30.6971 139.359 27.6185C139.649 28.6634 139.726 29.7558 139.586 30.831C139.445 31.9062 139.09 32.9421 138.541 33.8772C139.19 33.5614 139.766 33.1136 140.233 32.5623C140.699 32.011 141.045 31.3684 141.249 30.6756C141.856 33.2347 141.966 35.8863 141.574 38.4869L141.502 38.5833C138.842 40.0998 137.157 46.202 133.883 49.2712C132.8 50.2408 131.584 51.0513 130.272 51.6783C129.646 52.0033 129.068 52.2922 128.37 52.569C126.968 53.2036 125.499 53.676 123.989 53.9772C123.456 54.0655 122.917 54.1178 122.377 54.1336C121.452 54.1574 120.528 54.052 119.632 53.8207C116.604 52.9447 113.945 51.1017 112.062 48.5731C109.949 45.6062 108.358 42.3012 107.356 38.7999C107.223 38.4027 107.091 38.0055 106.971 37.5963V37.5241C106.741 37.5262 106.513 37.4896 106.297 37.4158C105.943 37.3276 105.623 37.1383 105.375 36.8712C105.127 36.604 104.962 36.2705 104.9 35.9113V35.6585C107.469 35.2386 109.916 34.2682 112.075 32.814C114.233 31.3598 116.052 29.4561 117.406 27.2334C118.833 27.3501 120.27 27.2487 121.666 26.9325V27.089C122.686 27.837 123.612 28.7058 124.423 29.6766C122.874 31.0006 120.942 31.7936 118.91 31.9394C121.052 32.0989 123.19 31.572 125.012 30.4349Z" fill="white"/>
<path d="M132.716 52.8329C133.269 54.3374 132.271 56.7927 131.512 58.1527L130.886 59.2721L127.276 65.627C126.252 67.5989 125.043 69.469 123.665 71.2117C122.268 72.9584 120.395 74.2628 118.273 74.9669L117.791 75.5085C116.029 75.5052 114.289 75.1267 112.684 74.3983C111.08 73.6699 109.649 72.6082 108.487 71.2839L106.887 70.8146C107.201 69.4536 107.628 68.121 108.163 66.8306V66.5899C109.246 66.3893 110.329 66.1606 111.412 65.9039C114.637 65.2355 117.734 64.0529 120.584 62.4014C122.164 61.4191 123.558 60.164 124.7 58.6944L123.304 58.4536C123.786 57.9246 124.119 57.2771 124.269 56.5771C124.42 55.8772 124.381 55.15 124.158 54.4697L124.062 53.9883C125.571 53.6871 127.041 53.2147 128.443 52.5801C129.081 52.3033 129.719 52.0144 130.345 51.6895C131.163 51.9181 131.994 52.1107 132.848 52.2672L132.716 52.8329Z" fill="#FFED00"/>
<path d="M132.642 63.0751C132.859 64.787 132.716 66.5253 132.221 68.1784C131.699 69.9087 130.885 71.537 129.814 72.9928C129.085 74.0336 128.281 75.0192 127.407 75.9415C126.668 76.7023 125.862 77.3952 125 78.0118C121.16 80.7439 116.911 81.6225 112.266 82.3808C113.156 81.1772 114.083 79.9736 115.046 78.77C116.009 77.5664 116.863 76.5674 117.802 75.4962L118.284 74.9546C120.406 74.2504 122.279 72.9461 123.676 71.1994C125.054 69.4567 126.263 67.5867 127.286 65.6148L130.897 59.2598L131.186 59.4283C131.963 60.5061 132.463 61.7585 132.642 63.0751Z" fill="#FFED00"/>
<path d="M127.888 23.8389C127.496 26.1613 126.272 28.2618 124.446 29.7485C123.635 28.7777 122.709 27.9088 121.689 27.1608V27.0043C123.987 26.481 126.117 25.3931 127.888 23.8389Z" fill="white"/>
<path d="M79.0347 67.9139C78.7237 69.1359 78.3501 70.3411 77.9154 71.5247L77.6987 72.1987C75.7878 78.3004 74.7108 84.6325 74.4972 91.0229H74.4249C72.6075 90.1563 72.0177 90.5054 68.9967 88.4111C63.4949 84.2974 58.9733 79.0153 55.7572 72.9449C54.4905 70.5771 53.4507 68.0946 52.652 65.5308C51.8471 63.1962 50.262 61.2104 48.1639 59.9081C46.0658 58.6058 43.5828 58.0667 41.1336 58.3815C41.0414 58.3756 40.9489 58.3756 40.8567 58.3815C37.4506 59.0194 35.0554 54.4096 36.2831 51.1599C37.5107 47.9102 40.7364 45.9724 43.6972 44.1791C46.6581 42.3857 49.7994 40.1711 50.6058 36.801C53.5426 24.5966 68.082 14.1012 80.4309 16.3399L80.9243 16.4603C80.7062 17.4464 80.7561 18.4729 81.0688 19.4332C81.3042 18.2899 81.822 17.2237 82.5751 16.3319C83.3282 15.44 84.2926 14.7509 85.3803 14.3273C86.468 13.9037 87.6444 13.7591 88.8023 13.9067C89.9603 14.0544 91.0628 14.4895 92.0094 15.1724V15.2928L91.528 15.3891C89.4242 15.984 87.4685 17.0131 85.7869 18.4101C83.4677 20.0321 81.5762 22.192 80.2744 24.7049C79.448 26.5401 79.108 28.5572 79.2872 30.562C79.4664 32.5667 80.1587 34.4915 81.2974 36.1511C80.7318 35.062 80.468 33.8413 80.5336 32.6158C80.5992 31.3903 80.9918 30.2047 81.6706 29.1823C83.089 27.1405 85.2481 25.7328 87.6885 25.2586C90.089 24.8056 92.5622 24.9211 94.9101 25.5956C93.6139 25.4571 92.3035 25.6373 91.0929 26.1205C89.8822 26.6037 88.8079 27.3752 87.9633 28.3681C87.1187 29.361 86.5293 30.5452 86.2465 31.8176C85.9637 33.0901 85.996 34.4125 86.3405 35.6697C86.6317 34.1603 87.298 32.7484 88.2782 31.5642C89.2584 30.38 90.5208 29.4615 91.9493 28.8934C90.2675 30.2703 89.1531 32.2196 88.82 34.3674C88.4868 36.5153 88.9582 38.7105 90.1439 40.5322C89.9412 38.6577 90.304 36.7655 91.1855 35.0989C92.0671 33.4323 93.4271 32.0676 95.0906 31.1802C94.3523 32.2608 93.8487 33.4843 93.6123 34.7715C93.3759 36.0588 93.412 37.3812 93.7182 38.6537C94.0244 39.9261 94.5939 41.1203 95.39 42.159C96.1862 43.1978 97.1912 44.0581 98.3403 44.6846C97.6313 42.6431 97.7129 40.4101 98.569 38.4259C99.4448 36.4524 101.017 34.8711 102.986 33.9846C102.232 34.5313 101.66 35.2914 101.342 36.1667C101.025 37.042 100.977 37.9925 101.205 38.8953C101.367 39.6358 101.634 40.3492 101.999 41.0136H101.903C101.153 41.9508 100.7 43.0909 100.603 44.2874C100.516 45.4926 100.564 46.7038 100.748 47.8981C101.109 50.871 101.662 53.9161 103.432 56.3233C104.081 57.3186 105.061 58.0521 106.2 58.3935C107.394 58.5719 108.614 58.3742 109.69 57.8278C110.763 57.2898 111.905 56.9049 113.084 56.6844C113.368 56.6544 113.655 56.6544 113.939 56.6844C114.741 56.7428 115.518 56.9948 116.202 57.4186C117.032 57.9482 117.694 58.7305 118.609 59.1999C119.31 59.5628 120.103 59.7118 120.888 59.6283C121.673 59.5449 122.417 59.2327 123.026 58.7305C123.136 58.6364 123.241 58.5359 123.339 58.4296L124.735 58.6703C123.593 60.1399 122.2 61.3951 120.619 62.3774C117.752 64.0655 114.63 65.2768 111.375 65.9641C110.292 66.2128 109.209 66.4415 108.126 66.6501C105.829 67.095 103.505 67.3844 101.169 67.5167C100.134 67.5889 99.0866 67.613 98.0394 67.601C96.9856 67.6807 95.9333 67.4282 95.0304 66.8788C94.1096 68.3599 92.8465 69.5982 91.3475 70.4896C90.9623 71.5849 90.517 72.656 90.0476 73.6911L89.843 73.6069C87.7447 73.6548 85.6689 73.1672 83.8115 72.1901C81.9541 71.2129 80.3763 69.7785 79.2273 68.0223L79.0347 67.9139ZM113.758 59.8137C113.822 59.6603 113.831 59.4899 113.785 59.3303C113.74 59.1707 113.641 59.0314 113.506 58.9351C113.241 58.7545 112.844 58.7786 113.157 58.7184C112.9 58.7085 112.644 58.7589 112.41 58.8655C112.176 58.9721 111.97 59.1319 111.809 59.3323C111.677 59.4818 111.604 59.6744 111.604 59.8739C111.604 60.0734 111.677 60.266 111.809 60.4155C111.955 60.5003 112.12 60.5499 112.289 60.5603C112.458 60.5708 112.627 60.5418 112.783 60.4757C112.983 60.4387 113.172 60.3607 113.34 60.2468C113.508 60.1329 113.65 59.9854 113.758 59.8137Z" fill="#FFED00"/>
<path d="M124.122 54.47C124.345 55.1502 124.383 55.8774 124.233 56.5774C124.083 57.2773 123.75 57.9249 123.267 58.4539C123.169 58.5602 123.064 58.6607 122.954 58.7548C122.345 59.257 121.601 59.5692 120.816 59.6526C120.031 59.7361 119.238 59.5871 118.537 59.2242C117.659 58.7548 116.997 58.0205 116.13 57.4428C115.446 57.019 114.67 56.7671 113.867 56.7086L114.072 55.6374C114.354 55.6873 114.64 55.7195 114.926 55.7337C116.643 55.7998 118.317 55.1856 119.584 54.0246V53.832C120.48 54.0634 121.404 54.1687 122.328 54.145C122.869 54.1291 123.408 54.0768 123.941 53.9885L124.122 54.47Z" fill="white"/>
<path d="M119.669 53.8314V54.024C118.402 55.1849 116.728 55.7991 115.011 55.7331C114.724 55.7188 114.439 55.6867 114.156 55.6368C112.765 55.3742 111.497 54.6642 110.546 53.6147C109.86 52.8 109.292 51.8924 108.861 50.9187C107.932 49.0694 107.248 47.1072 106.827 45.0813C106.404 43.0475 106.478 40.9418 107.043 38.9429L107.464 38.8105C108.467 42.3119 110.058 45.6169 112.171 48.5837C114.035 51.0995 116.667 52.9413 119.669 53.8314Z" fill="white"/>
<path d="M108.488 71.2848C109.65 72.6091 111.081 73.6708 112.685 74.3992C114.289 75.1276 116.03 75.506 117.792 75.5094C116.853 76.5806 115.926 77.6759 115.035 78.7832L114.698 78.5063C112.846 78.7629 110.961 78.3868 109.349 77.4388C107.737 76.4908 106.492 75.0264 105.816 73.2828L105.684 73.2106C106.021 72.5967 106.37 72.007 106.731 71.3931C106.731 71.2006 106.839 71.008 106.887 70.8154L108.488 71.2848Z" fill="#FFED00"/>
<path d="M106.092 109.86L106.477 110.474C106.848 110.974 107.106 111.549 107.235 112.159C107.293 112.464 107.255 112.78 107.128 113.064C107.002 113.348 106.791 113.586 106.525 113.747L105.972 113.675C106.138 113.939 106.248 114.234 106.297 114.542C106.336 114.744 106.315 114.954 106.236 115.145C106.157 115.335 106.023 115.498 105.851 115.613C105.684 115.697 105.497 115.734 105.31 115.719C105.123 115.704 104.944 115.638 104.792 115.529C104.482 115.307 104.22 115.024 104.022 114.698C102.406 112.386 101.072 109.889 100.05 107.26C100.471 109.138 101.145 111.304 101.675 113.495C101.843 114.193 101.903 115.107 101.278 115.444C101.058 115.531 100.817 115.551 100.586 115.502C100.355 115.452 100.143 115.336 99.9777 115.168C99.6649 114.821 99.4309 114.41 99.2917 113.964C98.2727 111.236 97.3339 108.476 96.4753 105.683C95.8976 107.043 95.2717 108.451 94.5736 109.787C94.2366 110.413 93.6468 111.111 92.9728 110.907C92.8384 110.855 92.7171 110.774 92.6172 110.67C92.5174 110.566 92.4416 110.441 92.3951 110.305C92.3321 110.14 92.2995 109.964 92.2988 109.787C92.3412 109.321 92.4507 108.863 92.6238 108.427C93.0307 106.636 93.1967 104.798 93.1173 102.963C93.0426 101.114 93.6413 99.3009 94.8023 97.8599C95.8976 94.4537 97.1373 91.1077 98.4973 87.834C99.6768 85.0095 100.957 82.2292 102.337 79.4931C103.388 77.3747 104.503 75.2885 105.683 73.2344L105.815 73.3066C106.491 75.0502 107.736 76.5147 109.348 77.4627C110.96 78.4107 112.845 78.7868 114.698 78.5302L115.035 78.807C114.072 80.0106 113.145 81.2142 112.254 82.4178C108.574 87.3852 105.302 92.642 102.469 98.1367C102.314 98.4874 102.234 98.8667 102.234 99.2501C102.234 99.6335 102.314 100.013 102.469 100.363C102.784 101.034 103.158 101.674 103.588 102.277C105.047 104.512 106.03 107.024 106.477 109.655L106.092 109.86Z" fill="white"/>
<path d="M114.108 55.6368L113.904 56.7081C113.619 56.6781 113.333 56.6781 113.049 56.7081C111.87 56.9286 110.727 57.3135 109.655 57.8515C108.578 58.3979 107.358 58.5956 106.164 58.4171C105.026 58.0757 104.045 57.3424 103.396 56.347C101.627 53.9398 101.073 50.8466 100.712 47.9218C100.529 46.7275 100.48 45.5163 100.568 44.3111C100.665 43.1146 101.117 41.9744 101.868 41.0373H101.964C102.489 41.9999 103.11 42.9071 103.817 43.7453C103.515 43.1807 103.34 42.5567 103.305 41.9171C103.269 41.2775 103.375 40.638 103.613 40.0435C103.852 39.4491 104.218 38.9142 104.686 38.4766C105.154 38.039 105.712 37.7093 106.321 37.5107C106.538 37.5846 106.766 37.6212 106.995 37.6191V37.6913C107.115 38.0885 107.248 38.4857 107.38 38.8949L106.959 39.0273C106.394 41.0262 106.32 43.1318 106.742 45.1656C107.164 47.1914 107.848 49.1538 108.776 51.003C109.208 51.9767 109.775 52.8844 110.461 53.6991C111.434 54.7243 112.714 55.4046 114.108 55.6368Z" fill="white"/>
<path d="M113.507 58.9347C113.642 59.0309 113.741 59.1703 113.787 59.3299C113.832 59.4895 113.823 59.6599 113.759 59.8133C113.646 59.9905 113.496 60.1412 113.32 60.2554C113.143 60.3696 112.944 60.4446 112.736 60.4753C112.58 60.5414 112.411 60.5704 112.242 60.5599C112.073 60.5495 111.908 60.4999 111.761 60.4151C111.629 60.2656 111.557 60.073 111.557 59.8735C111.557 59.674 111.629 59.4814 111.761 59.3319C111.923 59.1315 112.129 58.9717 112.363 58.8651C112.597 58.7585 112.853 58.7081 113.11 58.718C112.821 58.7421 113.242 58.7421 113.507 58.9347Z" fill="white"/>
<path d="M108.125 66.5898V66.8305C107.59 68.1209 107.163 69.4535 106.849 70.8145C106.849 71.007 106.741 71.1996 106.693 71.3922C106.331 71.994 105.982 72.5958 105.645 73.2096C104.466 75.2718 103.351 77.3579 102.299 79.4682L99.832 78.2646C100.503 75.3754 100.978 72.4439 101.252 69.4905L101.132 67.5046C103.481 67.3581 105.817 67.0524 108.125 66.5898Z" fill="#FFED00"/>
<path d="M99.8682 78.2177L102.336 79.4212C100.947 82.1494 99.6676 84.9297 98.4961 87.7621L98.3156 87.6899C93.8721 90.5303 88.7008 92.0228 83.4271 91.9868H83.0781V91.6016C83.704 85.9929 86.0751 81.5636 88.3499 77.0622C88.9156 75.9308 89.4812 74.7874 90.0108 73.6199C90.5404 72.4524 90.9255 71.5137 91.3107 70.4184C92.8097 69.527 94.0728 68.2887 94.9937 66.8076C95.8965 67.357 96.9488 67.6095 98.0027 67.5297C99.0498 67.5297 100.097 67.5297 101.132 67.4455L101.252 69.4314C100.99 72.3881 100.528 75.3236 99.8682 78.2177Z" fill="#FFED00"/>
<path d="M90.3131 110.498C90.3456 110.589 90.3571 110.686 90.3466 110.781C90.3362 110.877 90.3042 110.97 90.2529 111.051C90.1373 111.18 89.9894 111.276 89.8244 111.329C89.6594 111.382 89.4833 111.39 89.3141 111.352C88.5643 111.289 87.8551 110.985 87.2921 110.486L87.0634 110.582C86.257 108.68 85.4025 106.791 84.6562 104.877H84.7646C86.6984 106.341 88.4554 108.026 90.0002 109.896C90.1381 110.077 90.2439 110.281 90.3131 110.498Z" fill="white"/>
<path d="M89.8454 73.5465L90.05 73.6307C89.5204 74.8343 88.9548 75.9416 88.3891 77.073L88.0761 76.9165C86.1249 77.2983 84.103 77.054 82.2989 76.2185C80.5266 75.3886 79.0701 74.008 78.1465 72.2827L77.7012 72.1383L77.9178 71.4643C78.3525 70.2807 78.7261 69.0755 79.0371 67.8535H79.2297C80.3659 69.6298 81.9381 71.0856 83.7963 72.0822C85.6546 73.0787 87.7371 73.5828 89.8454 73.5465Z" fill="#FFED00"/>
<path d="M88.0737 76.9169L88.3866 77.0734C86.1118 81.5748 83.7408 86.0041 83.1149 91.6128V91.998C82.7057 95.6809 82.501 99.1112 83.7768 102.602C84.0537 103.348 84.3425 104.082 84.6555 104.816C85.4378 106.73 86.2924 108.62 87.0627 110.521C87.4358 111.436 87.8089 112.351 88.1459 113.277C88.3986 113.951 88.6033 114.794 88.1459 115.324C87.9373 115.518 87.6739 115.642 87.3918 115.681C87.1096 115.72 86.8224 115.671 86.5692 115.54C86.0778 115.241 85.6651 114.828 85.3656 114.337C84.8091 113.556 84.3333 112.722 83.9454 111.845C83.6437 110.622 83.274 109.416 82.838 108.234C83.045 109.482 83.4174 110.696 83.9454 111.845C84.2509 113.09 84.484 114.352 84.6434 115.624C84.7036 116.094 84.7156 116.648 84.3425 116.924C84.1539 117.045 83.9282 117.093 83.7069 117.059C83.4857 117.026 83.284 116.914 83.1389 116.744C82.8515 116.396 82.6532 115.982 82.5612 115.54C82.5612 115.408 82.489 115.287 82.4409 115.155C82.4141 114.818 82.3577 114.483 82.2724 114.156C81.7203 112.017 81.0452 109.911 80.2503 107.849C80.9845 110.256 81.7187 112.664 82.4409 115.155C82.4708 115.342 82.4708 115.533 82.4409 115.721C82.4117 115.986 82.2954 116.233 82.1102 116.425C81.9251 116.617 81.6815 116.742 81.4178 116.78C80.7077 116.852 80.2142 116.142 79.8652 115.576C78.7579 113.47 77.8311 109.558 77.3015 108.945L74.8943 108.367L74.9665 108.042C74.4984 102.362 74.3738 96.6582 74.5934 90.9629C74.8071 84.5725 75.8841 78.2404 77.795 72.1387L78.2403 72.2831C79.1639 74.0084 80.6204 75.389 82.3927 76.2189C84.1684 77.0341 86.1534 77.278 88.0737 76.9169Z" fill="white"/>
<path d="M77.2421 108.944C77.4687 110.929 76.9308 112.926 75.7376 114.529C75.2923 115.142 74.4498 115.732 73.8359 115.275C73.2221 114.817 73.4147 114.071 73.5712 113.506L74.7748 108.366L77.2421 108.944Z" fill="white"/>
<path d="M55.7099 72.8854L55.4211 73.0419C46.5947 76.9736 37.9489 81.2464 29.4837 85.8602L29.4115 85.7398C28.956 83.7787 28.0723 81.9427 26.8238 80.3634C25.5753 78.784 23.9929 77.5004 22.1899 76.6046L21.877 76.3638C27.2337 69.3482 33.7459 63.2959 41.1344 58.4664V58.322C43.5837 58.0072 46.0666 58.5464 48.1648 59.8487C50.2629 61.1509 51.848 63.1367 52.6528 65.4713C53.4362 68.0334 54.4597 70.5158 55.7099 72.8854Z" fill="white"/>
<path d="M26.03 87.3999C25.3974 88.5775 24.401 89.5189 23.1895 90.0839C22.3559 90.4705 21.4484 90.6718 20.5296 90.6738C19.4275 91.9021 18.1922 93.0041 16.8466 93.9595L16.5698 93.5744C16.1024 92.9616 15.821 92.2273 15.7591 91.4591C15.6972 90.6909 15.8574 89.9212 16.2207 89.2415C16.6581 88.5572 17.1843 87.9339 17.7854 87.3879C18.3919 86.8347 18.8722 86.1574 19.1936 85.402C19.349 85.0256 19.3964 84.6134 19.3305 84.2116C19.2646 83.8097 19.0879 83.4342 18.8205 83.1272L18.327 82.8985C19.1778 81.1407 19.8862 79.3173 20.4453 77.4462L20.9509 77.6147C21.2638 77.1935 21.5647 76.7722 21.8897 76.4111L22.2026 76.6519C24.0055 77.5477 25.588 78.8313 26.8365 80.4107C28.085 81.99 28.9687 83.826 29.4241 85.7871L29.4963 85.9075L26.3429 87.6286L26.03 87.3999Z" fill="#FFED00"/>
<path d="M18.3149 82.8995L18.8084 83.1282C19.0758 83.4352 19.2524 83.8107 19.3183 84.2126C19.3842 84.6144 19.3368 85.0266 19.1815 85.403C18.8496 86.1618 18.3567 86.8393 17.7371 87.3889C17.136 87.9349 16.6099 88.5582 16.1725 89.2425C15.8092 89.9222 15.6489 90.6919 15.7108 91.4601C15.7727 92.2283 16.0541 92.9626 16.5215 93.5754L16.7983 93.9605C13.6695 96.1898 10.0325 97.6007 6.21875 98.0648C7.42234 97.4148 8.03618 94.6827 8.25282 93.3708C8.46947 92.0589 8.44541 90.7229 8.79446 89.4471C9.32938 87.8037 10.264 86.319 11.5146 85.1261C12.4052 84.1994 13.3802 83.3448 14.2949 82.4301C14.5958 82.1292 14.8846 81.8163 15.1735 81.4913C16.3165 80.2474 17.1916 78.7817 17.7445 77.1853C18.2973 75.589 18.516 73.896 18.3871 72.2116C18.0019 68.8777 15.679 64.0392 12.3691 63.2448C12.5736 63.233 12.7785 63.233 12.9829 63.2448C15.2697 63.1345 17.5124 63.9008 19.2537 65.3873C20.4165 66.7497 21.1531 68.4239 21.372 70.2016C21.6391 72.0661 21.4618 73.9673 20.8544 75.7502C20.698 76.3159 20.5295 76.9537 20.349 77.4593C19.8164 79.3238 19.1363 81.143 18.3149 82.8995Z" fill="#1D1D1B"/>
<path d="M18.423 72.2112C18.5519 73.8957 18.3332 75.5886 17.7804 77.1849C17.2275 78.7813 16.3524 80.247 15.2094 81.491C14.9205 81.8159 14.6317 82.1288 14.3308 82.4297L13.2957 81.2261C10.9116 78.5262 8.75771 75.6315 6.85646 72.5723L5.03906 71.8742C5.352 71.0558 5.70102 70.2493 6.07413 69.467C6.71254 67.9415 7.60821 66.537 8.72205 65.3147C9.71262 64.2608 11.0094 63.545 12.4291 63.2686C15.7149 64.0389 18.0379 68.8773 18.423 72.2112Z" fill="white"/>
<path d="M13.2947 81.2266L14.3298 82.4302C13.4151 83.3449 12.4402 84.1995 11.5495 85.1262C10.299 86.3191 9.36432 87.8038 8.8294 89.4472C8.48036 90.723 8.51645 92.071 8.28777 93.3709C8.05909 94.6708 7.40915 97.4149 6.2537 98.0649C5.52033 98.2163 4.7598 98.169 4.05088 97.9278C3.34196 97.6865 2.71041 97.2602 2.22165 96.6928C1.26126 95.535 0.711103 94.0918 0.656998 92.5885C0.603067 91.0951 0.724237 89.6005 1.01806 88.1352C1.78733 82.603 3.143 77.1683 5.06215 71.9229L6.87959 72.621C8.77539 75.6626 10.9212 78.5411 13.2947 81.2266Z" fill="white"/>
<path d="M2.94336 83.8623C4.00242 85.6315 5.17225 87.3319 6.44582 88.9535" stroke="#222120" stroke-width="0.5" stroke-linecap="round" stroke-linejoin="round"/>
<path d="M2.42578 87.6289C3.4708 89.4368 4.67945 91.145 6.03656 92.7321" stroke="#222120" stroke-width="0.5" stroke-linecap="round" stroke-linejoin="round"/>
<path d="M2.08984 91.7686C2.58939 92.9972 3.37799 94.0872 4.38871 94.9461" stroke="#222120" stroke-width="0.5" stroke-linecap="round" stroke-linejoin="round"/>
<path d="M80.385 16.3285C68.0361 14.0898 53.4967 24.5852 50.56 36.7896C49.7536 40.1597 46.6122 42.3743 43.6514 44.1676C40.6905 45.961 37.4649 47.9108 36.2372 51.1484C35.0096 54.3861 37.4408 58.9959 40.8109 58.37C40.9031 58.3641 40.9955 58.3641 41.0877 58.37C43.537 58.0552 46.0199 58.5944 48.1181 59.8967C50.2162 61.199 51.8012 63.1848 52.6061 65.5193C53.4049 68.0832 54.4446 70.5656 55.7113 72.9334C58.9274 79.0038 63.449 84.2859 68.9509 88.3997C72.008 90.4939 72.5617 90.1448 74.3791 91.0114" stroke="#222120" stroke-linecap="round" stroke-linejoin="round"/>
<path d="M41.1084 58.4658C33.7199 63.2953 27.2076 69.3476 21.8509 76.3632C21.5259 76.7725 21.225 77.1937 20.9121 77.5668" stroke="#222120" stroke-linecap="round" stroke-linejoin="round"/>
<path d="M6.25391 98.0648C10.0676 97.6008 13.7046 96.1899 16.8335 93.9606C18.1791 93.0052 19.4144 91.9032 20.5165 90.6748" stroke="#222120" stroke-linecap="round" stroke-linejoin="round"/>
<path d="M17.9883 90.1321C18.7826 90.4907 19.6443 90.6753 20.5158 90.6737C21.4347 90.6717 22.3422 90.4704 23.1758 90.0839C24.3872 89.5189 25.3836 88.5774 26.0163 87.3999C26.242 87.0222 26.4199 86.6179 26.5458 86.1963" stroke="#222120" stroke-linecap="round" stroke-linejoin="round"/>
<path d="M26.3438 87.6296L29.4851 85.8964C37.9584 81.2907 46.6042 77.0179 55.4226 73.0781" stroke="#222120" stroke-linecap="round" stroke-linejoin="round"/>
<path d="M22.1895 76.6045C23.9924 77.5003 25.5749 78.7839 26.8234 80.3633C28.0719 81.9427 28.9555 83.7787 29.411 85.7397" stroke="#222120" stroke-linecap="round" stroke-linejoin="round"/>
<path d="M12.4531 63.2448C12.6576 63.233 12.8625 63.233 13.067 63.2448C15.3537 63.1345 17.5964 63.9008 19.3377 65.3873C20.5005 66.7497 21.2372 68.4239 21.456 70.2016C21.7231 72.0661 21.5458 73.9673 20.9385 75.7502C20.782 76.3159 20.6135 76.9537 20.433 77.4593C19.8738 79.3304 19.1654 81.1537 18.3147 82.9116C17.6454 84.3118 16.8391 85.6422 15.9075 86.8834" stroke="#222120" stroke-linecap="round" stroke-linejoin="round"/>
<path d="M6.23026 98.0163C5.49689 98.1677 4.73637 98.1204 4.02744 97.8791C3.31852 97.6379 2.68698 97.2115 2.19822 96.6442C1.23782 95.4864 0.687666 94.0433 0.633561 92.5399C0.579629 91.0465 0.7008 89.5519 0.994624 88.0866C1.7639 82.5544 3.11957 77.1196 5.03871 71.8742C5.35165 71.0558 5.70067 70.2493 6.07379 69.467C6.71219 67.9415 7.60786 66.537 8.72171 65.3147C9.71227 64.2608 11.0091 63.545 12.4288 63.2686" stroke="#222120" stroke-linecap="round" stroke-linejoin="round"/>
<path d="M18.8078 83.1279C19.0753 83.435 19.2518 83.8105 19.3178 84.2123C19.3837 84.6141 19.3363 85.0264 19.1809 85.4027C18.849 86.1615 18.3562 86.8391 17.7366 87.3886C17.1355 87.9347 16.6093 88.558 16.1719 89.2422C15.8086 89.9219 15.6484 90.6916 15.7102 91.4599C15.7721 92.2281 16.0535 92.9623 16.5209 93.5751" stroke="#222120" stroke-linecap="round" stroke-linejoin="round"/>
<path d="M12.4296 63.2451C15.6914 64.0395 18.0143 68.8779 18.4476 72.2119C18.5765 73.8963 18.3578 75.5893 17.805 77.1856C17.2521 78.782 16.3771 80.2477 15.234 81.4916C14.9452 81.8166 14.6563 82.1295 14.3554 82.4304C13.4407 83.3451 12.4658 84.1997 11.5751 85.1264C10.3246 86.3193 9.38989 87.804 8.85497 89.4474C8.50592 90.7232 8.54205 92.0712 8.31337 93.3711C8.08469 94.671 7.43475 97.4151 6.2793 98.065" stroke="#222120" stroke-linecap="round" stroke-linejoin="round"/>
<path d="M4.13477 80.3232C5.22451 82.3147 6.46798 84.2182 7.85386 86.0162" stroke="#222120" stroke-width="0.5" stroke-linecap="round" stroke-linejoin="round"/>
<path d="M5.49609 76.3398C7.02867 78.6989 8.63346 80.9977 10.3105 83.2364" stroke="#222120" stroke-width="0.5" stroke-linecap="round" stroke-linejoin="round"/>
<path d="M6.9043 72.5723C8.80555 75.6314 10.9595 78.5262 13.3435 81.2261" stroke="#222120" stroke-width="0.5" stroke-linecap="round" stroke-linejoin="round"/>
<path d="M8.27539 68.54C10.1988 71.7526 12.4495 74.7575 14.9914 77.5068" stroke="#222120" stroke-width="0.5" stroke-linecap="round" stroke-linejoin="round"/>
<path d="M10.8281 66.9033C12.2263 69.4974 14.0768 71.8207 16.2924 73.7637" stroke="#222120" stroke-width="0.5" stroke-linecap="round" stroke-linejoin="round"/>
<path d="M83.4297 92.0341C88.7238 92.0817 93.9176 90.5889 98.3783 87.7373" stroke="#222120" stroke-linecap="round" stroke-linejoin="round"/>
<path d="M112.254 82.3695C116.9 81.5872 121.148 80.7326 124.988 78.0005C125.851 77.3839 126.656 76.6911 127.395 75.9303C128.269 75.0079 129.073 74.0223 129.802 72.9815C130.873 71.5257 131.687 69.8974 132.209 68.1671C132.704 66.514 132.848 64.7757 132.631 63.0639C132.439 61.7576 131.931 60.5181 131.15 59.4531" stroke="#222120" stroke-linecap="round" stroke-linejoin="round"/>
<path d="M127.373 75.9307C132.026 77.3972 136.544 79.2615 140.877 81.5032C143.633 83.1896 146.274 85.0552 148.785 87.0879L150.434 88.3758L155.429 92.2514" stroke="#222120" stroke-linecap="round" stroke-linejoin="round"/>
<path d="M132.584 63.0518H132.644C138.069 65.1571 143.093 68.1778 147.497 71.9824C150.409 74.534 153.286 77.1699 156.403 79.4567C157.775 80.4736 159.21 81.4023 160.7 82.237" stroke="#222120" stroke-linecap="round" stroke-linejoin="round"/>
<path d="M160.964 86.7988C161.257 87.0807 161.633 87.262 162.036 87.3163C162.971 87.307 163.888 87.054 164.695 86.5822C165.665 86.2364 166.659 85.9629 167.668 85.7637C168.684 85.5508 169.649 85.142 170.509 84.5601C170.936 84.2686 171.292 83.8846 171.55 83.4366C171.809 82.9886 171.963 82.4881 172.001 81.9724C172.015 81.4557 171.846 80.9508 171.525 80.546C171.204 80.1411 170.75 79.8621 170.244 79.7578C169.284 79.7982 168.357 80.1251 167.584 80.6966C167.349 80.8053 167.108 80.9017 166.862 80.9854L166.128 81.1539C165.454 81.3104 165.081 81.3947 164.322 81.5391C163.31 81.6094 162.33 81.9277 161.47 82.4659L161.205 82.6946C160.895 82.9681 160.641 83.3003 160.459 83.6721C160.278 84.0439 160.171 84.448 160.146 84.861C160.127 85.2249 160.19 85.5884 160.332 85.924C160.474 86.2597 160.69 86.5588 160.964 86.7988Z" stroke="#222120" stroke-linecap="round" stroke-linejoin="round"/>
<path d="M154.26 89.4707C154.696 89.8883 155.223 90.2007 155.798 90.3843C156.374 90.5678 156.984 90.6175 157.582 90.5298" stroke="#222120" stroke-linecap="round" stroke-linejoin="round"/>
<path d="M161.373 97.5112C161.157 97.3306 158.569 95.2003 157.064 93.9004" stroke="#222120" stroke-linecap="round" stroke-linejoin="round"/>
<path d="M157.053 93.8887C158.326 95.2743 159.775 96.4881 161.362 97.4995" stroke="#222120" stroke-linecap="round" stroke-linejoin="round"/>
<path d="M157.027 93.8636C156.497 93.4063 156.112 93.0692 156.004 92.9368C155.894 92.819 155.797 92.69 155.715 92.5518C155.715 92.5518 156.268 93.1174 157.027 93.8636Z" stroke="#222120" stroke-linecap="round" stroke-linejoin="round"/>
<path d="M156.151 79.8057C156.226 81.5546 155.755 83.2836 154.803 84.7524C153.708 86.3412 152.191 87.592 150.422 88.3632" stroke="#222120" stroke-linecap="round" stroke-linejoin="round"/>
<path d="M161.373 97.5106C163.359 98.1244 165.489 97.0772 167.078 95.7292C168.517 94.23 170.092 92.868 171.784 91.6611C174.456 90.1445 177.922 90.1927 180.281 88.2188C180.939 87.6757 181.474 86.999 181.85 86.2336C182.226 85.4682 182.436 84.6316 182.464 83.7791C182.493 82.9267 182.34 82.078 182.015 81.2892C181.691 80.5005 181.202 79.7896 180.582 79.2039C179.546 78.3246 178.306 77.7186 176.975 77.4411C175.644 77.1636 174.265 77.2235 172.964 77.6151C170.328 78.2651 169.1 80.3112 166.175 81.2259" stroke="#222120" stroke-linecap="round" stroke-linejoin="round"/>
<path d="M126.614 54.9033C126.204 56.2769 125.543 57.5625 124.664 58.6947C123.522 60.1643 122.128 61.4194 120.548 62.4017C117.702 64.0741 114.605 65.2771 111.376 65.9643C110.293 66.2131 109.21 66.4418 108.127 66.6504C105.83 67.0952 103.506 67.3847 101.17 67.5169C100.135 67.5892 99.0876 67.6132 98.0405 67.6012C96.9867 67.6809 95.9344 67.4284 95.0315 66.8791L94.9473 66.8189" stroke="#222120" stroke-linecap="round" stroke-linejoin="round"/>
<path d="M88.4102 44.9374C89.7044 44.3596 91.1735 44.312 92.5024 44.805C93.8208 45.3134 94.8936 46.3087 95.4993 47.5853C96.0464 49.0445 96.2722 50.6046 96.1613 52.159V54.7106" stroke="#222120" stroke-linecap="round" stroke-linejoin="round"/>
<path d="M50.2344 47.6222C57.7854 47.0322 65.371 47.0322 72.9221 47.6222" stroke="#222120" stroke-linecap="round" stroke-linejoin="round"/>
<path d="M61.4141 41.6514C67.0608 42.1191 72.6321 43.2543 78.0116 45.0335" stroke="#222120" stroke-linecap="round" stroke-linejoin="round"/>
<path d="M72.2606 59.4648C74.303 61.0945 76.5047 62.5139 78.8322 63.7015L64.9668 72.584" stroke="#222120" stroke-linecap="round" stroke-linejoin="round"/>
<path d="M101.291 69.4424C101.017 72.3958 100.542 75.3273 99.8711 78.2165" stroke="#222120" stroke-linecap="round" stroke-linejoin="round"/>
<path d="M110.209 69.5751C112.334 68.236 114.731 67.3889 117.226 67.0957" stroke="#222120" stroke-linecap="round" stroke-linejoin="round"/>
<path d="M83.9325 111.881C84.3204 112.757 84.7963 113.592 85.3528 114.372C85.6523 114.864 86.065 115.276 86.5563 115.576C86.8095 115.706 87.0968 115.756 87.379 115.717C87.6611 115.678 87.9245 115.553 88.133 115.359C88.6145 114.83 88.4099 113.987 88.133 113.313C87.796 112.386 87.4229 111.472 87.0498 110.557C86.2434 108.655 85.3889 106.766 84.6426 104.852C84.3297 104.118 84.0408 103.384 83.764 102.637C82.4882 99.1469 82.6928 95.7167 83.102 92.0337V91.6486C83.7279 86.0398 86.099 81.6106 88.3738 77.1092C88.9395 75.9778 89.5052 74.8344 90.0347 73.6669C90.5643 72.4994 90.9495 71.5606 91.3346 70.4653C92.8336 69.5739 94.0967 68.3356 95.0176 66.8545C95.4257 66.227 95.7647 65.5571 96.0286 64.8566C96.9093 62.5116 96.9771 59.9389 96.2212 57.5508" stroke="#222120" stroke-linecap="round" stroke-linejoin="round"/>
<path d="M83.9354 111.881C83.6338 110.658 83.2641 109.453 82.8281 108.271C83.0351 109.518 83.4075 110.732 83.9354 111.881Z" stroke="#222120" stroke-linecap="round" stroke-linejoin="round"/>
<path d="M82.4062 115.215C82.4062 115.348 82.4905 115.468 82.5266 115.6C82.6185 116.042 82.8168 116.456 83.1043 116.804C83.2494 116.974 83.4511 117.086 83.6723 117.119C83.8935 117.153 84.1193 117.105 84.3079 116.984C84.681 116.708 84.669 116.154 84.6088 115.685C84.4494 114.412 84.2163 113.15 83.9107 111.905" stroke="#222120" stroke-linecap="round" stroke-linejoin="round"/>
<path d="M82.4054 115.215C82.3786 114.878 82.3222 114.543 82.2369 114.216C81.6848 112.077 81.0097 109.971 80.2148 107.909C80.949 110.34 81.6832 112.784 82.4054 115.215Z" stroke="#222120" stroke-linecap="round" stroke-linejoin="round"/>
<path d="M82.5861 50.6309C81.4788 51.1484 78.0124 56.8895 78.4939 60.6327C78.6985 62.2335 79.2762 63.7982 79.3244 65.4471C79.3368 66.2906 79.2397 67.1321 79.0355 67.9506C78.7245 69.1726 78.3509 70.3777 77.9161 71.5614L77.6995 72.2354C75.7886 78.3371 74.7116 84.6691 74.4979 91.0595C74.2783 96.7548 74.4029 102.458 74.8711 108.138L74.7988 108.463L73.5952 113.603C73.4388 114.217 73.3545 114.999 73.86 115.372C74.3656 115.745 75.3164 115.24 75.7617 114.626C76.9548 113.023 77.4928 111.026 77.2662 109.041C77.7958 109.655 78.7225 113.567 79.8299 115.673C80.1669 116.299 80.6724 117.009 81.3825 116.877C81.6462 116.838 81.8898 116.713 82.0749 116.522C82.2601 116.33 82.3764 116.082 82.4056 115.817C82.4355 115.63 82.4355 115.439 82.4056 115.252" stroke="#222120" stroke-linecap="round" stroke-linejoin="round"/>
<path d="M108.162 66.8311C107.628 68.1215 107.201 69.4541 106.886 70.815C106.886 71.0076 106.778 71.2001 106.73 71.3927C106.369 71.9945 106.02 72.5963 105.683 73.2102C104.503 75.2723 103.388 77.3585 102.337 79.4688C100.949 82.1969 99.6688 84.9773 98.4973 87.8097C97.1373 91.0835 95.8976 94.4294 94.8023 97.8356C93.6413 99.2766 93.0426 101.09 93.1173 102.939C93.1967 104.774 93.0307 106.612 92.6238 108.403C92.4507 108.839 92.3412 109.297 92.2988 109.763C92.2995 109.94 92.3321 110.115 92.3951 110.281C92.4416 110.417 92.5174 110.542 92.6172 110.646C92.7171 110.75 92.8384 110.831 92.9728 110.883C93.6468 111.087 94.2366 110.389 94.5736 109.763C95.2958 108.427 95.8976 107.019 96.4753 105.659C97.3258 108.451 98.2646 111.212 99.2917 113.94C99.4309 114.386 99.6649 114.796 99.9777 115.143C100.143 115.312 100.355 115.428 100.586 115.477C100.817 115.527 101.058 115.507 101.278 115.42C101.903 115.083 101.843 114.217 101.675 113.47C101.145 111.28 100.471 109.113 100.05 107.236C101.072 109.865 102.406 112.362 104.022 114.674C104.22 115 104.482 115.282 104.792 115.504C104.944 115.614 105.123 115.68 105.31 115.695C105.497 115.71 105.684 115.673 105.851 115.589C106.023 115.474 106.157 115.311 106.236 115.12C106.315 114.93 106.336 114.72 106.297 114.517C106.248 114.21 106.138 113.915 105.972 113.651L105.815 113.386L102.313 107.476" stroke="#222120" stroke-linecap="round" stroke-linejoin="round"/>
<path d="M106.526 113.747C106.792 113.586 107.003 113.347 107.13 113.063C107.256 112.78 107.294 112.464 107.236 112.158C107.107 111.549 106.849 110.974 106.478 110.473L106.093 109.859L103.602 105.899" stroke="#222120" stroke-linecap="round" stroke-linejoin="round"/>
<path d="M106.503 109.607C106.056 106.976 105.072 104.464 103.614 102.229C103.184 101.626 102.809 100.986 102.495 100.315C102.34 99.9644 102.26 99.5852 102.26 99.2018C102.26 98.8184 102.34 98.4392 102.495 98.0885C105.328 92.5938 108.6 87.337 112.28 82.3696C113.17 81.166 114.097 79.9624 115.06 78.7588C116.023 77.5552 116.878 76.5562 117.816 75.485L118.298 74.9434C120.42 74.2393 122.293 72.9349 123.69 71.1882C125.068 69.4455 126.277 67.5755 127.301 65.6036L130.912 59.2486L131.537 58.1292C132.308 56.7692 133.307 54.3138 132.741 52.8094C132.706 52.7089 132.662 52.6122 132.609 52.5205" stroke="#222120" stroke-linecap="round" stroke-linejoin="round"/>
<path d="M105.816 73.2822C106.493 75.0259 107.737 76.4902 109.35 77.4382C110.962 78.3863 112.846 78.7624 114.699 78.5058" stroke="#222120" stroke-linecap="round" stroke-linejoin="round"/>
<path d="M108.488 71.2842C109.65 72.6085 111.081 73.6702 112.685 74.3986C114.289 75.127 116.03 75.5055 117.792 75.5088" stroke="#222120" stroke-linecap="round" stroke-linejoin="round"/>
<path d="M78.1445 72.2832C79.0681 74.0085 80.5247 75.3891 82.2969 76.219C84.1011 77.0545 86.123 77.2988 88.0742 76.917" stroke="#222120" stroke-linecap="round" stroke-linejoin="round"/>
<path d="M84.7285 104.769C86.6624 106.233 88.4194 107.917 89.9642 109.788C90.1198 109.981 90.2382 110.201 90.3132 110.438C90.3457 110.528 90.3571 110.625 90.3467 110.721C90.3363 110.817 90.3042 110.909 90.253 110.991C90.1374 111.12 89.9894 111.216 89.8244 111.269C89.6594 111.322 89.4833 111.33 89.3142 111.292C88.5644 111.229 87.8552 110.925 87.2922 110.425" stroke="#222120" stroke-linecap="round" stroke-linejoin="round"/>
<path d="M120.15 35.2852L119.055 36.91" stroke="#222120" stroke-linecap="round" stroke-linejoin="round"/>
<path d="M133.595 40.2559C133.174 40.7555 132.829 41.3154 132.572 41.9168" stroke="#222120" stroke-linecap="round" stroke-linejoin="round"/>
<path d="M123.52 45.9367C123.901 46.3992 124.383 46.7695 124.928 47.02C125.197 47.1474 125.491 47.2135 125.788 47.2135C126.086 47.2135 126.38 47.1474 126.649 47.02C126.864 46.889 127.049 46.714 127.192 46.5066C127.335 46.2992 127.433 46.0641 127.479 45.8164C127.571 45.3397 127.508 44.8463 127.299 44.4082" stroke="#222120" stroke-width="0.5" stroke-linecap="round" stroke-linejoin="round"/>
<path d="M116.082 45.9971C119.07 48.3222 122.743 49.592 126.529 49.6078" stroke="#222120" stroke-width="0.5" stroke-linecap="round" stroke-linejoin="round"/>
<path d="M107.008 37.6201C107.128 38.0173 107.261 38.4145 107.393 38.8237C108.395 42.3251 109.987 45.6301 112.099 48.5969C113.982 51.1255 116.641 52.9685 119.67 53.8445C120.565 54.0759 121.489 54.1812 122.414 54.1575C122.954 54.1416 123.493 54.0893 124.027 54.001C125.536 53.6998 127.006 53.2274 128.408 52.5928C129.046 52.316 129.684 52.0271 130.309 51.7022C131.621 51.0751 132.837 50.2646 133.92 49.295C137.194 46.2258 138.879 40.1236 141.539 38.6071" stroke="#222120" stroke-linecap="round" stroke-linejoin="round"/>
<path d="M96.2344 10.876C96.2344 10.7316 96.3307 10.5871 96.3908 10.4427C96.8889 9.38941 97.6297 8.4693 98.5524 7.75792C99.4751 7.04654 100.553 6.5642 101.699 6.35047C104.129 6.01379 106.592 5.98952 109.029 6.27826C113.128 3.8949 117.606 2.23381 122.268 1.36758C126.977 0.513052 131.834 1.15712 136.158 3.20908C142.176 6.2301 146.087 12.3805 147.664 18.8558C148.266 21.263 148.555 23.8387 149.096 26.306C149.545 28.8078 150.517 31.1866 151.949 33.2869C152.671 34.3306 153.607 35.2094 154.694 35.865C155.781 36.5206 156.995 36.9382 158.256 37.0902C159.511 37.192 160.767 36.912 161.861 36.2869C162.954 35.6619 163.833 34.721 164.382 33.5877C164.494 34.4681 164.371 35.3624 164.026 36.1802C163.682 36.998 163.128 37.7105 162.42 38.2456C160.978 39.3014 159.184 39.7586 157.413 39.5215C155.736 39.312 154.145 38.6598 152.803 37.6319C154.331 39.63 156.013 41.5053 157.834 43.2406C159.658 44.9781 161.144 47.039 162.215 49.3187C162.739 50.4525 163.005 51.6887 162.992 52.9377C162.98 54.1866 162.69 55.4172 162.143 56.5403C161.55 57.6544 160.589 58.5279 159.423 59.0109C158.257 59.494 156.959 59.5567 155.752 59.1882C157.414 58.7073 158.817 57.586 159.652 56.0709C160.074 55.3223 160.235 54.4543 160.108 53.6041C159.982 52.7539 159.576 51.9702 158.954 51.3769C157.798 53.7953 155.868 55.7586 153.469 56.9556C151.071 58.1525 148.342 58.5147 145.714 57.9846C148.497 56.6458 150.803 54.4868 152.322 51.7981C150.652 54.2539 148.305 56.1721 145.566 57.3194C142.827 58.4668 139.813 58.794 136.892 58.2614C139.458 57.7448 141.787 56.4053 143.524 54.446C141.398 55.4488 139.058 55.9118 136.711 55.7941C139.016 55.1016 140.992 53.5963 142.272 51.5575C139.241 52.6842 135.953 52.9303 132.788 52.2675C131.933 52.1111 131.102 51.9185 130.284 51.6898" stroke="#222120" stroke-linecap="round" stroke-linejoin="round"/>
<path d="M114.963 12.7054C111.802 14.1568 108.242 14.492 104.865 13.6562C101.916 13.0785 99.076 12.0434 96.1633 11.2491C95.742 11.1287 95.3208 11.0203 94.8875 10.9241C92.746 10.3569 90.5197 10.1816 88.3159 10.4065C86.0999 10.6369 84.0366 11.643 82.4904 13.247C81.6814 14.145 81.1249 15.2414 80.8776 16.4245C80.6595 17.4106 80.7094 18.4371 81.022 19.3974C81.2575 18.2541 81.7753 17.1879 82.5284 16.296C83.2815 15.4042 84.2459 14.7151 85.3336 14.2915C86.4213 13.8679 87.5978 13.7233 88.7557 13.8709C89.9136 14.0186 91.0161 14.4537 91.9627 15.1366" stroke="#222120" stroke-linecap="round" stroke-linejoin="round"/>
<path d="M104.804 18.4954C102.752 17.4025 100.61 16.4884 98.4007 15.7633C96.3311 15.0949 94.1318 14.9298 91.9856 15.2819L91.5042 15.3781C89.4004 15.973 87.4446 17.0021 85.763 18.3992C83.4439 20.0212 81.5524 22.1811 80.2506 24.694C79.4241 26.5292 79.0842 28.5463 79.2633 30.551C79.4425 32.5557 80.1348 34.4805 81.2736 36.1401C80.7079 35.051 80.4442 33.8303 80.5098 32.6048C80.5754 31.3793 80.968 30.1938 81.6467 29.1713C83.0652 27.1295 85.2243 25.7218 87.6647 25.2476C90.0652 24.7946 92.5384 24.9101 94.8863 25.5846C93.5901 25.4461 92.2797 25.6263 91.069 26.1095C89.8584 26.5927 88.7841 27.3643 87.9394 28.3572C87.0948 29.3501 86.5055 30.5342 86.2227 31.8067C85.9399 33.0792 85.9721 34.4015 86.3167 35.6587C86.6078 34.1493 87.2742 32.7374 88.2543 31.5532C89.2345 30.369 90.497 29.4505 91.9254 28.8824C90.2436 30.2593 89.1293 32.2086 88.7961 34.3564C88.463 36.5043 88.9344 38.6995 90.12 40.5212C89.9174 38.6467 90.2802 36.7545 91.1617 35.088C92.0433 33.4214 93.4033 32.0566 95.0668 31.1693C94.3284 32.2499 93.8248 33.4733 93.5884 34.7605C93.352 36.0478 93.3881 37.3702 93.6943 38.6427C94.0005 39.9151 94.57 41.1093 95.3662 42.148C96.1623 43.1868 97.1674 44.0472 98.3165 44.6736C97.6075 42.6321 97.6891 40.3991 98.5452 38.4149C99.421 36.4414 100.994 34.8601 102.962 33.9736C102.209 34.5203 101.636 35.2805 101.319 36.1558C101.001 37.0311 100.953 37.9815 101.181 38.8843C101.343 39.6248 101.61 40.3382 101.975 41.0026C102.501 41.9652 103.122 42.8725 103.829 43.7107C103.526 43.1461 103.351 42.522 103.316 41.8824C103.281 41.2428 103.386 40.6033 103.625 40.0088C103.864 39.4144 104.23 38.8796 104.698 38.442C105.165 38.0044 105.723 37.6747 106.332 37.4761" stroke="#222120" stroke-linecap="round" stroke-linejoin="round"/>
<path d="M103.686 35.8751C104.095 35.8751 104.492 35.7909 104.889 35.7187C107.458 35.2987 109.905 34.3284 112.063 32.8741C114.222 31.4199 116.04 29.5162 117.394 27.2935C119.287 27.4458 121.19 27.2176 122.993 26.6222C124.795 26.0269 126.461 25.0765 127.89 23.8271C127.498 26.1496 126.274 28.2501 124.448 29.7368C122.899 31.0608 120.967 31.8538 118.935 31.9996C121.072 32.1468 123.2 31.6115 125.013 30.471C125.242 30.3145 125.471 30.158 125.687 29.9895C127.606 28.5 128.912 26.359 129.358 23.9716C130.281 26.51 130.44 29.2634 129.816 31.8912C129.484 33.1955 128.813 34.3884 127.87 35.3484C126.926 36.3084 125.746 37.0009 124.448 37.3555C127.668 37.6877 130.905 36.9061 133.618 35.1407C136.332 33.3754 138.359 30.7331 139.36 27.6546C139.65 28.6994 139.727 29.7919 139.587 30.867C139.446 31.9422 139.091 32.9782 138.542 33.9133C139.191 33.5975 139.767 33.1496 140.234 32.5983C140.7 32.047 141.046 31.4045 141.25 30.7117C141.856 33.2708 141.967 35.9224 141.575 38.523" stroke="#222120" stroke-linecap="round" stroke-linejoin="round"/>
<path d="M121.689 27.1123C122.709 27.8603 123.635 28.7293 124.446 29.7001C124.648 29.9336 124.837 30.1787 125.011 30.4342C125.538 31.121 126.001 31.8542 126.396 32.6248" stroke="#222120" stroke-width="0.5" stroke-linecap="round" stroke-linejoin="round"/>
<path d="M133.582 36.8862C134.541 36.1965 135.7 35.8436 136.881 35.8828C138.061 35.922 139.195 36.351 140.105 37.1028" stroke="#222120" stroke-width="0.5" stroke-linecap="round" stroke-linejoin="round"/>
<path d="M104.936 35.9346C104.997 36.2938 105.162 36.6273 105.41 36.8945C105.658 37.1616 105.978 37.3509 106.332 37.4391C106.549 37.5129 106.777 37.5495 107.006 37.5474" stroke="#222120" stroke-linecap="round" stroke-linejoin="round"/>
<path d="M106.973 38.9434C106.408 40.9423 106.334 43.048 106.756 45.0817C107.178 47.1076 107.862 49.0699 108.79 50.9191C109.222 51.8928 109.789 52.8005 110.475 53.6152C111.426 54.6646 112.694 55.3746 114.086 55.6372C114.369 55.6871 114.654 55.7193 114.941 55.7335C116.658 55.7995 118.332 55.1854 119.599 54.0244" stroke="#222120" stroke-linecap="round" stroke-linejoin="round"/>
<path d="M101.868 41.0498C101.117 41.987 100.665 43.1271 100.568 44.3236C100.48 45.5288 100.529 46.74 100.712 47.9344C101.073 50.9073 101.627 53.9524 103.396 56.3595C104.045 57.3549 105.026 58.0882 106.164 58.4297C107.358 58.6081 108.578 58.4104 109.655 57.864C110.727 57.3261 111.87 56.9412 113.049 56.7206C113.333 56.6906 113.619 56.6906 113.904 56.7206C114.706 56.7791 115.482 57.031 116.166 57.4548C116.997 57.9844 117.659 58.7667 118.573 59.2361C119.275 59.599 120.067 59.748 120.853 59.6646C121.638 59.5811 122.381 59.2689 122.991 58.7667C123.101 58.6726 123.205 58.5722 123.304 58.4658C123.786 57.9368 124.119 57.2893 124.269 56.5893C124.419 55.8894 124.381 55.1622 124.158 54.4819" stroke="#222120" stroke-linecap="round" stroke-linejoin="round"/>
<path d="M113.158 58.7434C112.901 58.7335 112.646 58.7839 112.412 58.8905C112.177 58.9971 111.972 59.1569 111.81 59.3573C111.678 59.5068 111.605 59.6994 111.605 59.8989C111.605 60.0984 111.678 60.2909 111.81 60.4404C111.957 60.5252 112.122 60.5748 112.291 60.5852C112.46 60.5957 112.629 60.5668 112.785 60.5007C112.993 60.47 113.192 60.395 113.369 60.2808C113.545 60.1666 113.695 60.0158 113.808 59.8386C113.872 59.6852 113.881 59.5148 113.835 59.3552C113.789 59.1956 113.691 59.0563 113.556 58.96C113.243 58.7434 112.821 58.7434 113.158 58.7434Z" stroke="#222120" stroke-width="0.5" stroke-linecap="round" stroke-linejoin="round"/>
<path d="M79.2285 67.9629C80.3776 69.7192 81.9553 71.1536 83.8127 72.1307C85.6702 73.1079 87.746 73.5955 89.8442 73.5476" stroke="#222120" stroke-miterlimit="10"/>
<path d="M160.962 86.9189C160.755 88.1665 160.214 89.3348 159.396 90.2991C158.578 91.2635 157.514 91.9879 156.316 92.3954" stroke="#222120" stroke-linecap="round" stroke-linejoin="round"/>
</svg>
