<svg width="300" height="316" viewBox="0 0 300 316" fill="none" xmlns="http://www.w3.org/2000/svg">
<rect x="126.764" y="180.458" width="84.4691" height="40.5454" fill="#0B6CFF"/>
<rect x="76.084" y="227.761" width="84.4691" height="40.5454" fill="#0B6CFF"/>
<rect x="76.084" y="275.062" width="23.6513" height="40.5454" fill="#0B6CFF"/>
<rect x="160.553" y="275.062" width="50.6814" height="40.5454" fill="#0B6CFF"/>
<rect x="170.691" y="227.761" width="40.5452" height="40.5454" fill="black"/>
<rect x="109.871" y="275.062" width="40.5451" height="40.5454" fill="black"/>
<rect x="76.084" y="180.458" width="40.5451" height="40.5454" fill="black"/>
<path d="M95.6158 189.938C99.2584 189.938 102.201 190.723 104.442 192.292C106.712 193.833 107.847 196.201 107.847 199.395H99.7348C99.7348 196.874 98.3618 195.613 95.6158 195.613C92.8698 195.613 91.4968 197.196 91.4968 200.362V202.758C91.4968 205.896 92.9259 207.465 95.7839 207.465C98.642 207.465 100.071 206.176 100.071 203.598H107.847C107.847 206.821 106.712 209.216 104.442 210.786C102.201 212.355 99.2584 213.139 95.6158 213.139C91.721 213.139 88.6668 212.159 86.4532 210.197C84.2396 208.236 83.1328 205.35 83.1328 201.539C83.1328 197.728 84.2396 194.842 86.4532 192.881C88.6668 190.919 91.721 189.938 95.6158 189.938Z" fill="white"/>
<path d="M129.587 283.506C133.229 283.506 136.171 284.29 138.413 285.86C140.682 287.401 141.817 289.768 141.817 292.963H133.705C133.705 290.441 132.332 289.18 129.587 289.18C126.841 289.18 125.468 290.763 125.468 293.929V296.325C125.468 299.463 126.897 301.033 129.755 301.033C132.613 301.033 134.042 299.744 134.042 297.166H141.817C141.817 300.388 140.682 302.784 138.413 304.353C136.171 305.922 133.229 306.707 129.587 306.707C125.692 306.707 122.637 305.726 120.424 303.765C118.21 301.803 117.104 298.917 117.104 295.106C117.104 291.296 118.21 288.409 120.424 286.448C122.637 284.487 125.692 283.506 129.587 283.506Z" fill="white"/>
<path d="M194.075 232.564C197.073 232.564 199.385 233.545 201.01 235.506C202.635 237.468 203.447 240.368 203.447 244.206C203.447 248.017 202.635 250.903 201.01 252.865C199.385 254.798 197.073 255.765 194.075 255.765C191.497 255.765 189.423 254.924 187.854 253.243V263.54H179.49V233.068H186.299L187.014 236.221C188.639 233.783 190.993 232.564 194.075 232.564ZM191.469 238.742C190.236 238.742 189.311 239.177 188.695 240.045C188.078 240.914 187.77 242.049 187.77 243.45V244.837C187.77 246.238 188.078 247.387 188.695 248.283C189.311 249.152 190.236 249.586 191.469 249.586C193.879 249.586 195.083 248.143 195.083 245.257V243.03C195.083 240.171 193.879 238.742 191.469 238.742Z" fill="white"/>
<path d="M263.324 134.146L264.232 134.915C263.723 135.363 263.307 135.907 263.01 136.517C262.712 137.126 262.537 137.788 262.496 138.465C262.471 139.055 262.578 139.643 262.81 140.186C263.042 140.728 263.393 141.212 263.837 141.601V141.798C263.498 143.843 262.611 145.757 261.271 147.337C259.93 148.918 258.186 150.105 256.224 150.773L255.257 151.029L254.784 150.536L246.697 144.264L247.25 143.554C249.918 142.496 252.197 140.644 253.778 138.248C255.297 135.827 256.028 132.995 255.869 130.142L256.263 129.589C258.518 131.256 260.876 132.778 263.324 134.146Z" fill="#0B6CFF"/>
<path d="M42.6397 142.586C41.6029 144.516 39.9701 146.059 37.9849 146.985C36.6189 147.618 35.1317 147.948 33.626 147.951C31.8199 149.964 29.7957 151.77 27.5905 153.336L27.1369 152.705C26.3709 151.7 25.9098 150.497 25.8084 149.238C25.707 147.979 25.9695 146.718 26.5649 145.604C27.2817 144.483 28.1439 143.461 29.129 142.567C30.1229 141.66 30.91 140.55 31.4366 139.312C31.6912 138.695 31.769 138.02 31.661 137.361C31.5529 136.703 31.2635 136.088 30.8252 135.584L30.0165 135.21C31.4107 132.329 32.5715 129.341 33.4879 126.275L34.3163 126.551C34.8291 125.861 35.3222 125.17 35.8548 124.579L36.3675 124.973C39.3221 126.441 41.9153 128.545 43.9613 131.133C46.0073 133.721 47.4553 136.73 48.2017 139.943L48.32 140.141L43.1525 142.961L42.6397 142.586Z" fill="#0B6CFF"/>
<path d="M295.911 129.155C296.927 130.115 297.727 131.28 298.259 132.572C298.79 133.865 299.041 135.256 298.995 136.653C298.948 138.05 298.605 139.421 297.988 140.675C297.371 141.929 296.495 143.038 295.417 143.928C291.473 147.163 285.871 147.084 281.493 149.569C278.721 151.547 276.139 153.779 273.781 156.236C271.177 158.445 267.686 160.18 264.432 159.155C264.077 158.859 259.836 155.368 257.371 153.238C256.128 152.015 255.26 151.088 255.221 151.088L256.187 150.831C258.149 150.164 259.893 148.976 261.234 147.396C262.575 145.816 263.462 143.902 263.801 141.857V141.66C264.281 142.122 264.895 142.419 265.556 142.508C267.089 142.493 268.591 142.078 269.915 141.305C271.503 140.738 273.132 140.29 274.787 139.964C276.452 139.615 278.033 138.945 279.441 137.991C280.141 137.513 280.725 136.884 281.148 136.15C281.572 135.416 281.824 134.596 281.887 133.751C281.909 132.904 281.633 132.076 281.106 131.413C280.58 130.75 279.837 130.292 279.007 130.121C277.433 130.188 275.915 130.723 274.649 131.66C274.263 131.838 273.867 131.996 273.465 132.133L272.262 132.409C277.055 130.989 279.067 127.636 283.386 126.492C285.53 125.851 287.8 125.759 289.988 126.225C292.177 126.69 294.213 127.697 295.911 129.155Z" fill="#1D1D1B"/>
<path d="M279.042 130.102C279.872 130.273 280.614 130.73 281.141 131.393C281.667 132.057 281.944 132.884 281.922 133.731C281.859 134.576 281.606 135.396 281.183 136.13C280.759 136.864 280.176 137.494 279.476 137.971C278.067 138.925 276.486 139.595 274.821 139.944C273.166 140.27 271.538 140.718 269.949 141.285C268.626 142.058 267.123 142.473 265.59 142.488C264.93 142.399 264.315 142.102 263.835 141.64C263.391 141.251 263.04 140.767 262.808 140.224C262.576 139.682 262.469 139.094 262.494 138.504C262.535 137.827 262.71 137.165 263.008 136.556C263.305 135.946 263.721 135.402 264.23 134.954L264.664 134.579C266.074 133.697 267.679 133.175 269.338 133.06C270.581 132.823 271.192 132.685 272.297 132.429L273.5 132.153C273.902 132.016 274.297 131.858 274.683 131.68C275.945 130.729 277.464 130.179 279.042 130.102Z" fill="white"/>
<path d="M150.722 24.4029V24.2057C149.171 23.0865 147.364 22.3734 145.467 22.1315C143.569 21.8896 141.641 22.1265 139.859 22.8206C138.076 23.5148 136.496 24.6441 135.262 26.1056C134.028 27.5671 133.179 29.3143 132.793 31.1879C132.281 29.6142 132.199 27.932 132.557 26.3161C132.962 24.3773 133.874 22.5806 135.2 21.1091C137.733 18.4805 141.114 16.8318 144.746 16.4543C148.357 16.0856 152.006 16.373 155.515 17.3024C156.225 17.4602 156.915 17.6377 157.606 17.8349L157.98 16.474C158.797 14.748 160.01 13.2402 161.523 12.0744C163.035 10.9087 164.802 10.1182 166.678 9.76798C170.661 9.21625 174.698 9.17648 178.69 9.64964C185.408 5.74396 192.747 3.02188 200.386 1.60237C208.102 0.202024 216.063 1.25748 223.147 4.62008C233.009 9.57071 239.419 19.6495 242.003 30.2608C242.989 34.2055 243.463 38.4264 244.35 42.4697C245.086 46.5695 246.679 50.4678 249.025 53.9094C250.209 55.6199 251.742 57.0599 253.524 58.1343C255.305 59.2086 257.294 59.893 259.36 60.1422C261.417 60.3089 263.476 59.85 265.268 58.8258C267.059 57.8015 268.499 56.2597 269.399 54.4025C269.582 55.8452 269.381 57.3106 268.817 58.6509C268.252 59.9911 267.344 61.1586 266.184 62.0356C263.822 63.7656 260.882 64.5149 257.979 64.1264C255.231 63.783 252.624 62.7142 250.425 61.0298C252.929 64.3042 255.685 67.3773 258.669 70.2209C261.658 73.0682 264.093 76.4455 265.849 80.1813C266.708 82.0393 267.143 84.065 267.122 86.1118C267.102 88.1585 266.626 90.1751 265.731 92.0155C264.759 93.8413 263.183 95.2726 261.273 96.0643C259.362 96.8559 257.235 96.9585 255.257 96.3547C257.981 95.5666 260.279 93.7292 261.648 91.2464C262.34 90.0196 262.603 88.5971 262.396 87.2039C262.189 85.8107 261.523 84.5264 260.504 83.5541C258.609 87.5172 255.447 90.7345 251.516 92.696C247.586 94.6576 243.114 95.2511 238.808 94.3824C243.368 92.1884 247.147 88.6504 249.636 84.2444C246.897 88.2758 243.044 91.4235 238.548 93.3041C234.051 95.1847 229.105 95.7168 224.311 94.836C228.517 93.9894 232.333 91.7943 235.179 88.5836C231.696 90.2269 227.861 90.9857 224.015 90.7927C227.793 89.6579 231.031 87.1911 233.127 83.85C228.16 85.6964 222.772 86.0997 217.585 85.0136C216.185 84.7572 214.824 84.4417 213.483 84.0669C215.632 83.0394 217.625 81.7112 219.4 80.1222C224.765 75.0927 227.526 65.0928 231.885 62.6076L232.003 62.4498C232.646 58.1881 232.465 53.8428 231.471 49.6492C231.137 50.7844 230.57 51.8374 229.805 52.7409C229.041 53.6443 228.097 54.3781 227.033 54.8956C227.932 53.3632 228.515 51.6657 228.745 49.9038C228.976 48.1419 228.849 46.3516 228.374 44.6394C226.733 49.6844 223.412 54.0142 218.965 56.9071C214.518 59.8 209.214 61.0811 203.936 60.5367C206.064 59.9556 207.999 58.8205 209.544 57.2474C211.09 55.6743 212.19 53.7193 212.733 51.5821C213.757 47.2757 213.497 42.7638 211.984 38.604C211.252 42.5164 209.112 46.0249 205.968 48.4658C205.613 48.7419 205.238 48.9983 204.863 49.2547C204.578 48.836 204.269 48.4343 203.936 48.0516C206.93 45.6153 208.935 42.173 209.577 38.3672C207.235 40.4145 204.507 41.9721 201.553 42.9477C198.599 43.9233 195.479 44.2972 192.378 44.0476C190.16 47.69 187.18 50.8097 183.642 53.1928C180.105 55.5758 176.095 57.166 171.886 57.8542V58.2684C171.986 58.8571 172.257 59.4037 172.663 59.8414C173.069 60.2792 173.594 60.5893 174.173 60.7338C173.175 61.0592 172.261 61.5995 171.494 62.3167C170.728 63.0338 170.128 63.9102 169.737 64.8843C169.345 65.8584 169.173 66.9066 169.23 67.9547C169.288 69.0028 169.575 70.0254 170.071 70.9507C168.912 69.5771 167.895 68.0903 167.033 66.5129C166.435 65.4241 165.997 64.255 165.732 63.0415C165.358 61.562 165.437 60.0046 165.957 58.5702C166.477 57.1358 167.416 55.8902 168.651 54.9943C165.425 56.4471 162.847 59.0384 161.412 62.2723C160.009 65.524 159.876 69.1832 161.038 72.5286C159.154 71.502 157.507 70.0921 156.203 68.3899C154.898 66.6876 153.965 64.7309 153.463 62.6457C152.961 60.5605 152.902 58.3932 153.29 56.2838C153.677 54.1743 154.502 52.1695 155.712 50.3987C152.986 51.8528 150.757 54.0892 149.313 56.8203C147.868 59.5514 147.274 62.6523 147.606 65.724C145.663 62.7387 144.89 59.1412 145.436 55.6215C145.982 52.1018 147.808 48.9075 150.564 46.6511C148.223 47.5821 146.155 49.0872 144.548 51.0278C142.942 52.9684 141.85 55.282 141.373 57.7556C140.808 55.6954 140.756 53.5285 141.219 51.4432C141.682 49.358 142.648 47.4175 144.032 45.7904C145.416 44.1633 147.177 42.8989 149.161 42.107C151.145 41.3152 153.292 41.0199 155.416 41.2469C151.569 40.1415 147.516 39.9524 143.582 40.6947C139.583 41.4718 136.045 43.7786 133.72 47.1245C132.608 48.8 131.965 50.7429 131.857 52.7511C131.75 54.7593 132.182 56.7598 133.109 58.5446C131.243 55.8249 130.108 52.6706 129.815 49.3854C129.521 46.1002 130.078 42.7948 131.432 39.7874C133.566 35.6695 136.665 32.1299 140.466 29.4719C143.221 27.1825 146.426 25.4961 149.874 24.5213L150.722 24.4029Z" fill="#1D1D1B"/>
<path d="M204.272 95.6237L201.984 95.2292C202.775 94.3623 203.321 93.3012 203.567 92.1542C203.813 91.0073 203.75 89.8155 203.385 88.7007L203.227 87.9118C205.7 87.4183 208.109 86.644 210.406 85.6041C211.452 85.1504 212.497 84.6771 213.523 84.1445C214.864 84.5193 216.225 84.8348 217.625 85.0912L217.468 86.0183C218.375 88.4838 216.738 92.5073 215.495 94.7361L214.47 96.5704L208.552 106.985C206.875 110.216 204.894 113.28 202.635 116.136C200.347 118.999 197.278 121.136 193.799 122.29L193.01 123.178C190.123 123.172 187.27 122.552 184.641 121.358C182.013 120.165 179.668 118.425 177.764 116.255L175.141 115.485C175.656 113.255 176.355 111.072 177.231 108.957V108.562C179.006 108.234 180.782 107.859 182.557 107.438C187.842 106.343 192.916 104.405 197.586 101.699C200.155 100.083 202.419 98.0267 204.272 95.6237Z" fill="#0B6CFF"/>
<path d="M217.351 102.725C217.706 105.53 217.471 108.379 216.661 111.088C215.805 113.923 214.471 116.592 212.716 118.977C211.618 120.546 210.412 122.035 209.106 123.435C207.815 124.829 206.387 126.091 204.846 127.202C198.554 131.679 191.592 133.119 183.979 134.362C185.438 132.389 186.957 130.417 188.535 128.445C190.113 126.472 191.513 124.835 193.051 123.08L193.84 122.192C197.319 121.038 200.388 118.901 202.677 116.038C204.935 113.183 206.916 110.118 208.594 106.887L214.511 96.4727L214.984 96.7488C216.251 98.5169 217.063 100.569 217.351 102.725Z" fill="#0B6CFF"/>
<path d="M155.714 108.859C154.204 111.286 152.135 113.316 149.678 114.776C149.047 116.571 148.317 118.326 147.548 120.023L147.213 119.885C143.774 119.963 140.373 119.164 137.329 117.563C134.285 115.962 131.699 113.611 129.816 110.733H129.501C128.991 112.735 128.379 114.71 127.667 116.65L127.312 117.754C124.18 127.754 122.415 138.13 122.065 148.602H121.947C118.968 147.182 118.002 147.754 113.051 144.322C104.035 137.581 96.6256 128.925 91.3553 118.977C89.2795 115.097 87.5757 111.029 86.2667 106.828C84.9477 103.002 82.3502 99.7477 78.912 97.6136C75.4737 95.4795 71.4049 94.5959 67.3911 95.1118C67.2401 95.1021 67.0885 95.1021 66.9375 95.1118C61.3557 96.1571 57.4307 88.603 59.4425 83.2776C61.4543 77.9522 66.7403 74.7767 71.5923 71.8379C76.4443 68.8991 81.5921 65.2699 82.9136 59.7473C87.7262 39.7475 111.552 22.5485 131.789 26.2171L132.597 26.4144C132.24 28.0303 132.322 29.7124 132.834 31.2861C133.22 29.4125 134.069 27.6654 135.303 26.2039C136.537 24.7424 138.117 23.6131 139.9 22.9189C141.682 22.2247 143.61 21.9878 145.507 22.2297C147.405 22.4716 149.212 23.1847 150.763 24.3039V24.5012L149.974 24.6589C146.527 25.6337 143.322 27.3202 140.566 29.6096C136.765 32.2676 133.666 35.8072 131.532 39.9251C130.178 42.9325 129.621 46.2379 129.915 49.5231C130.208 52.8083 131.343 55.9627 133.209 58.6823C132.282 56.8975 131.85 54.8971 131.957 52.8888C132.065 50.8806 132.708 48.9377 133.82 47.2622C136.145 43.9163 139.683 41.6094 143.682 40.8323C147.616 40.09 151.669 40.2792 155.516 41.3846C153.392 41.1577 151.245 41.4529 149.261 42.2447C147.277 43.0366 145.516 44.301 144.132 45.9281C142.748 47.5552 141.783 49.4957 141.319 51.581C140.856 53.6662 140.909 55.8331 141.473 57.8933C141.95 55.4197 143.042 53.1061 144.648 51.1655C146.255 49.2249 148.324 47.7198 150.664 46.7889C147.908 49.0452 146.082 52.2395 145.536 55.7592C144.99 59.279 145.763 62.8763 147.706 65.8616C147.374 62.7898 147.968 59.6891 149.413 56.958C150.857 54.2269 153.086 51.9905 155.812 50.5364C154.602 52.3072 153.777 54.312 153.39 56.4215C153.002 58.5309 153.061 60.6981 153.563 62.7832C154.065 64.8684 154.998 66.8253 156.303 68.5276C157.608 70.2299 159.254 71.6397 161.138 72.6663C159.976 69.3209 160.109 65.6616 161.512 62.4099C162.948 59.176 165.525 56.5847 168.751 55.1319C167.516 56.0278 166.577 57.2735 166.057 58.7079C165.537 60.1423 165.458 61.6997 165.832 63.1792C166.097 64.3927 166.536 65.5618 167.134 66.6506H166.976C165.747 68.1864 165.005 70.0548 164.846 72.0155C164.702 73.9905 164.782 75.9753 165.082 77.9326C165.674 82.8043 166.581 87.7944 169.481 91.7391C170.545 93.3702 172.152 94.572 174.017 95.1315C175.974 95.4239 177.973 95.1 179.737 94.2045C181.494 93.323 183.367 92.6922 185.299 92.3308C185.765 92.2816 186.234 92.2816 186.699 92.3308C188.014 92.4266 189.287 92.8394 190.407 93.5339C191.768 94.4017 192.853 95.6837 194.352 96.453C195.501 97.0477 196.8 97.2918 198.087 97.155C199.374 97.0183 200.592 96.5068 201.591 95.6838C201.771 95.5297 201.942 95.365 202.104 95.1907L204.392 95.5851C202.52 97.9934 200.236 100.05 197.646 101.66C192.943 104.399 187.828 106.357 182.498 107.459C180.723 107.866 178.948 108.241 177.173 108.583C173.409 109.312 169.6 109.786 165.773 110.003C164.076 110.121 162.36 110.161 160.644 110.141C158.907 110.242 157.182 109.794 155.714 108.859ZM186.404 97.38C186.508 97.1286 186.523 96.8493 186.448 96.5878C186.373 96.3263 186.211 96.0979 185.989 95.9401C185.555 95.6443 184.905 95.6837 185.417 95.5851C184.996 95.5689 184.577 95.6515 184.194 95.8261C183.81 96.0008 183.473 96.2627 183.208 96.591C182.992 96.8361 182.873 97.1517 182.873 97.4786C182.873 97.8055 182.992 98.1211 183.208 98.3662C183.449 98.5051 183.718 98.5864 183.996 98.6035C184.273 98.6206 184.55 98.5731 184.806 98.4648C185.133 98.4041 185.443 98.2764 185.718 98.0897C185.993 97.903 186.227 97.6614 186.404 97.38Z" fill="#0B6CFF"/>
<path d="M177.764 116.176C179.668 118.347 182.012 120.086 184.641 121.28C187.27 122.474 190.123 123.094 193.01 123.099C191.471 124.855 189.953 126.65 188.493 128.464L187.941 128.011C184.905 128.431 181.816 127.815 179.175 126.261C176.533 124.708 174.493 122.308 173.385 119.451L173.168 119.332C173.72 118.326 174.292 117.36 174.884 116.354C174.884 116.038 175.061 115.723 175.14 115.407L177.764 116.176Z" fill="#0B6CFF"/>
<path d="M173.64 185.644C173.912 186.076 174.094 186.56 174.173 187.064C174.238 187.396 174.203 187.74 174.073 188.052C173.944 188.364 173.724 188.631 173.443 188.82C173.169 188.958 172.862 189.018 172.556 188.993C172.25 188.969 171.956 188.861 171.707 188.681C171.199 188.318 170.77 187.855 170.445 187.321C167.797 183.532 165.612 179.44 163.936 175.131C164.627 178.208 165.731 181.758 166.599 185.348C166.875 186.492 166.974 187.991 165.948 188.543C165.588 188.685 165.194 188.718 164.815 188.637C164.436 188.557 164.089 188.366 163.818 188.09C163.305 187.521 162.922 186.848 162.694 186.117C161.024 181.647 159.485 177.123 158.078 172.548C157.132 174.776 156.106 177.084 154.962 179.273C154.41 180.299 153.443 181.443 152.339 181.108C152.119 181.022 151.92 180.89 151.756 180.719C151.593 180.549 151.468 180.345 151.392 180.121C151.289 179.851 151.235 179.563 151.234 179.273C151.304 178.509 151.483 177.758 151.767 177.045C152.434 174.109 152.706 171.097 152.576 168.09C152.453 165.06 153.434 162.089 155.337 159.727C157.132 154.145 159.163 148.662 161.392 143.297C163.325 138.669 165.422 134.113 167.684 129.629C169.406 126.158 171.234 122.739 173.167 119.373L173.384 119.491C174.492 122.348 176.532 124.748 179.174 126.302C181.816 127.855 184.904 128.472 187.94 128.051L188.492 128.505C186.914 130.477 185.396 132.449 183.936 134.422C177.906 142.562 172.543 151.176 167.901 160.181C167.647 160.756 167.516 161.377 167.516 162.005C167.516 162.634 167.647 163.255 167.901 163.83C168.416 164.928 169.03 165.978 169.735 166.966C172.125 170.629 173.736 174.744 174.469 179.056L173.798 179.471L174.429 180.476C175.037 181.297 175.461 182.239 175.672 183.238C175.766 183.739 175.705 184.256 175.497 184.721C175.289 185.186 174.944 185.577 174.508 185.841L173.64 185.644Z" fill="white"/>
<path d="M177.172 108.485V108.879C176.296 110.994 175.596 113.178 175.081 115.408C175.081 115.723 174.903 116.039 174.825 116.355C174.233 117.341 173.661 118.327 173.109 119.333C171.176 122.712 169.348 126.131 167.625 129.589L163.582 127.617C164.682 122.882 165.459 118.078 165.909 113.238L165.712 109.984C169.562 109.744 173.39 109.243 177.172 108.485Z" fill="#0B6CFF"/>
<path d="M163.641 127.537L167.685 129.509C165.41 133.98 163.313 138.536 161.393 143.178L161.097 143.059C153.815 147.714 145.341 150.16 136.699 150.101H136.127V149.47C137.153 140.278 141.038 133.02 144.766 125.643C145.693 123.789 146.62 121.916 147.488 120.002C148.356 118.089 148.987 116.551 149.618 114.756C152.074 113.295 154.144 111.266 155.653 108.839C157.133 109.739 158.857 110.153 160.584 110.022C162.3 110.022 164.016 110.022 165.712 109.884L165.91 113.139C165.48 117.984 164.722 122.794 163.641 127.537Z" fill="#0B6CFF"/>
<path d="M147.983 180.437C148.036 180.586 148.055 180.745 148.038 180.902C148.021 181.06 147.968 181.211 147.884 181.345C147.695 181.556 147.452 181.713 147.182 181.8C146.912 181.887 146.623 181.9 146.346 181.838C145.117 181.734 143.955 181.236 143.032 180.418L142.658 180.576C141.336 177.459 139.936 174.363 138.713 171.227H138.89C142.059 173.626 144.939 176.386 147.47 179.451C147.696 179.748 147.869 180.082 147.983 180.437Z" fill="white"/>
<path d="M147.212 119.885L147.547 120.023C146.679 121.995 145.752 123.81 144.825 125.664L144.312 125.408C141.115 126.033 137.801 125.633 134.845 124.264C131.941 122.904 129.554 120.641 128.04 117.814L127.311 117.577L127.666 116.473C128.378 114.533 128.99 112.558 129.5 110.556H129.815C131.677 113.467 134.254 115.852 137.299 117.485C140.344 119.118 143.757 119.944 147.212 119.885Z" fill="#0B6CFF"/>
<path d="M144.312 125.408L144.824 125.664C141.097 133.041 137.211 140.299 136.185 149.49V150.122C135.515 156.157 135.18 161.778 137.27 167.498C137.724 168.721 138.197 169.924 138.71 171.127C139.992 174.263 141.393 177.36 142.655 180.476C143.266 181.975 143.878 183.474 144.43 184.993C144.844 186.098 145.179 187.478 144.43 188.346C144.088 188.664 143.657 188.869 143.194 188.932C142.732 188.996 142.261 188.915 141.846 188.701C141.041 188.21 140.365 187.534 139.874 186.729C138.962 185.45 138.182 184.082 137.546 182.646C137.052 180.641 136.446 178.666 135.732 176.729C136.071 178.773 136.681 180.763 137.546 182.646C138.047 184.686 138.429 186.754 138.69 188.839C138.789 189.608 138.809 190.516 138.197 190.969C137.888 191.166 137.518 191.245 137.156 191.19C136.793 191.136 136.463 190.952 136.225 190.673C135.754 190.103 135.429 189.426 135.278 188.701C135.278 188.484 135.16 188.287 135.081 188.07C135.037 187.517 134.945 186.969 134.805 186.433C133.9 182.927 132.794 179.476 131.491 176.098C132.694 180.042 133.898 183.987 135.081 188.07C135.13 188.377 135.13 188.69 135.081 188.997C135.033 189.431 134.843 189.837 134.539 190.151C134.236 190.465 133.837 190.67 133.404 190.733C132.241 190.851 131.432 189.687 130.86 188.76C129.046 185.309 127.527 178.898 126.659 177.893L122.714 176.946L122.833 176.413C122.065 167.105 121.861 157.759 122.221 148.425C122.571 137.953 124.336 127.577 127.468 117.578L128.197 117.814C129.711 120.642 132.098 122.904 135.002 124.264C137.912 125.6 141.165 126 144.312 125.408Z" fill="white"/>
<path d="M126.56 177.893C126.932 181.146 126.05 184.418 124.095 187.044C123.365 188.05 121.984 189.017 120.978 188.267C119.973 187.518 120.288 186.295 120.545 185.368L122.517 176.946L126.56 177.893Z" fill="white"/>
<path d="M29.9942 135.21L30.8028 135.585C31.2412 136.088 31.5305 136.703 31.6385 137.362C31.7465 138.02 31.6689 138.696 31.4143 139.313C30.8704 140.556 30.0628 141.667 29.0474 142.567C28.0623 143.462 27.2002 144.483 26.4834 145.605C25.888 146.718 25.6254 147.98 25.7268 149.239C25.8282 150.498 26.2894 151.701 27.0553 152.705L27.509 153.336C22.3816 156.989 16.4215 159.302 10.1719 160.062C12.1442 158.997 13.1501 154.52 13.5052 152.37C13.8602 150.22 13.8208 148.031 14.3928 145.94C15.2694 143.247 16.801 140.814 18.8503 138.859C20.3098 137.34 21.9075 135.94 23.4065 134.441C23.8996 133.948 24.3729 133.435 24.8463 132.903C26.7194 130.864 28.1535 128.462 29.0594 125.846C29.9653 123.23 30.3238 120.456 30.1125 117.696C29.4813 112.232 25.6747 104.303 20.2507 103.001C20.5857 102.982 20.9215 102.982 21.2565 103.001C25.0039 102.821 28.6792 104.076 31.5326 106.512C33.4382 108.745 34.6453 111.489 35.0039 114.402C35.4416 117.457 35.151 120.573 34.1558 123.494C33.8994 124.421 33.6233 125.467 33.3275 126.295C32.4548 129.351 31.3402 132.332 29.9942 135.21Z" fill="#1D1D1B"/>
<path d="M4.80859 136.788C6.54411 139.687 8.46114 142.473 10.5482 145.131" stroke="black" stroke-width="0.5" stroke-linecap="round" stroke-linejoin="round"/>
<path d="M3.95898 142.962C5.67148 145.925 7.65215 148.724 9.87608 151.325" stroke="black" stroke-width="0.5" stroke-linecap="round" stroke-linejoin="round"/>
<path d="M3.4082 149.747C4.22683 151.76 5.51913 153.546 7.17542 154.954" stroke="black" stroke-width="0.5" stroke-linecap="round" stroke-linejoin="round"/>
<path d="M131.71 26.1188C111.473 22.4502 87.6472 39.6492 82.8347 59.649C81.5132 65.1716 76.3653 68.8008 71.5133 71.7396C66.6613 74.6784 61.3754 77.8736 59.3635 83.1793C57.3517 88.4849 61.3359 96.0391 66.8586 95.0135C67.0096 95.0038 67.1611 95.0038 67.3122 95.0135C71.3259 94.4976 75.3948 95.3812 78.8331 97.5153C82.2713 99.6494 84.8688 102.904 86.1877 106.729C87.4967 110.931 89.2005 114.999 91.2764 118.879C96.5467 128.827 103.956 137.483 112.972 144.224C117.982 147.656 118.889 147.084 121.868 148.504" stroke="black" stroke-linecap="round" stroke-linejoin="round"/>
<path d="M67.3502 95.1704C55.2423 103.085 44.5706 113.003 35.7923 124.499C35.2598 125.17 34.7667 125.86 34.2539 126.472" stroke="black" stroke-linecap="round" stroke-linejoin="round"/>
<path d="M10.2324 160.061C16.4821 159.301 22.4421 156.989 27.5695 153.336C29.7747 151.77 31.7989 149.964 33.6049 147.951" stroke="black" stroke-linecap="round" stroke-linejoin="round"/>
<path d="M29.4609 147.064C30.7626 147.652 32.1748 147.955 33.6029 147.952C35.1087 147.949 36.5958 147.619 37.9618 146.985C39.9471 146.06 41.5799 144.517 42.6166 142.587C42.9865 141.968 43.2781 141.306 43.4845 140.615" stroke="black" stroke-linecap="round" stroke-linejoin="round"/>
<path d="M43.1484 142.961L48.2963 140.12C62.1818 132.573 76.3499 125.571 90.8008 119.115" stroke="black" stroke-linecap="round" stroke-linejoin="round"/>
<path d="M36.3457 124.895C39.3003 126.363 41.8935 128.466 43.9394 131.054C45.9854 133.642 47.4335 136.651 48.1799 139.865" stroke="black" stroke-linecap="round" stroke-linejoin="round"/>
<path d="M20.3867 103.001C20.7217 102.982 21.0576 102.982 21.3926 103.001C25.14 102.821 28.8152 104.076 31.6686 106.512C33.5742 108.745 34.7814 111.489 35.14 114.402C35.5777 117.457 35.2871 120.573 34.2919 123.494C34.0355 124.421 33.7594 125.467 33.4635 126.295C32.5472 129.361 31.3864 132.349 29.9922 135.23C28.8955 137.525 27.5741 139.705 26.0475 141.739" stroke="black" stroke-linecap="round" stroke-linejoin="round"/>
<path d="M10.1919 159.982C8.99012 160.23 7.74382 160.152 6.58209 159.757C5.42036 159.362 4.38542 158.663 3.58448 157.733C2.01065 155.836 1.10909 153.471 1.02043 151.007C0.932051 148.56 1.13062 146.111 1.61212 143.71C2.87274 134.644 5.09432 125.738 8.23929 117.142C8.7521 115.801 9.32406 114.479 9.93549 113.197C10.9817 110.697 12.4494 108.396 14.2747 106.393C15.898 104.666 18.0231 103.493 20.3496 103.04" stroke="black" stroke-linecap="round" stroke-linejoin="round"/>
<path d="M30.8043 135.584C31.2427 136.088 31.532 136.703 31.64 137.361C31.748 138.02 31.6704 138.695 31.4158 139.312C30.8719 140.556 30.0643 141.666 29.0489 142.567C28.0638 143.461 27.2017 144.483 26.4849 145.604C25.8895 146.718 25.6269 147.979 25.7283 149.238C25.8297 150.497 26.2908 151.7 27.0568 152.705" stroke="black" stroke-linecap="round" stroke-linejoin="round"/>
<path d="M20.3502 103.001C25.6953 104.303 29.502 112.232 30.2121 117.696C30.4233 120.456 30.0649 123.23 29.1589 125.846C28.253 128.462 26.819 130.864 24.9459 132.903C24.4725 133.435 23.9991 133.948 23.506 134.441C22.007 135.94 20.4094 137.34 18.9499 138.859C16.9006 140.814 15.3689 143.247 14.4923 145.94C13.9203 148.031 13.9795 150.24 13.6048 152.37C13.23 154.5 12.165 158.997 10.2715 160.062" stroke="black" stroke-linecap="round" stroke-linejoin="round"/>
<path d="M6.75977 130.988C8.54557 134.252 10.5833 137.371 12.8544 140.318" stroke="black" stroke-width="0.5" stroke-linecap="round" stroke-linejoin="round"/>
<path d="M8.99023 124.46C11.5017 128.326 14.1315 132.093 16.8797 135.762" stroke="black" stroke-width="0.5" stroke-linecap="round" stroke-linejoin="round"/>
<path d="M11.2988 118.288C14.4145 123.301 17.9442 128.044 21.851 132.469" stroke="black" stroke-width="0.5" stroke-linecap="round" stroke-linejoin="round"/>
<path d="M13.5449 111.679C16.6969 116.944 20.3851 121.868 24.5507 126.373" stroke="black" stroke-width="0.5" stroke-linecap="round" stroke-linejoin="round"/>
<path d="M17.7266 108.997C20.0178 113.248 23.0503 117.055 26.6811 120.239" stroke="black" stroke-width="0.5" stroke-linecap="round" stroke-linejoin="round"/>
<path d="M136.699 150.181C145.375 150.259 153.886 147.813 161.196 143.14" stroke="black" stroke-linecap="round" stroke-linejoin="round"/>
<path d="M183.934 134.342C191.547 133.06 198.509 131.659 204.801 127.182C206.343 126.071 207.77 124.809 209.062 123.415C210.367 122.015 211.573 120.526 212.671 118.957C214.426 116.572 215.76 113.903 216.616 111.068C217.426 108.359 217.662 105.51 217.306 102.705C216.992 100.565 216.159 98.5333 214.88 96.7881" stroke="black" stroke-linecap="round" stroke-linejoin="round"/>
<path d="M210.504 124.303C217.536 126.537 224.344 129.422 230.839 132.922C235.354 135.686 239.683 138.743 243.797 142.074L246.598 144.263L254.685 150.535" stroke="black" stroke-linecap="round" stroke-linejoin="round"/>
<path d="M217.252 102.687H217.351C226.241 106.137 234.474 111.087 241.69 117.321C246.463 121.503 251.177 125.822 256.285 129.57C258.533 131.236 260.885 132.758 263.326 134.126" stroke="black" stroke-linecap="round" stroke-linejoin="round"/>
<path d="M263.759 141.601C264.239 142.063 264.854 142.36 265.514 142.449C267.047 142.434 268.549 142.019 269.873 141.246C271.462 140.68 273.09 140.231 274.745 139.905C276.41 139.556 277.991 138.886 279.4 137.933C280.1 137.455 280.683 136.826 281.106 136.092C281.53 135.357 281.782 134.537 281.845 133.692C281.867 132.845 281.591 132.018 281.065 131.355C280.538 130.691 279.795 130.234 278.966 130.063C277.392 130.129 275.874 130.665 274.607 131.601C274.221 131.779 273.826 131.937 273.423 132.075L272.22 132.351C271.116 132.607 270.504 132.745 269.262 132.982C267.602 133.097 265.997 133.619 264.587 134.501L264.153 134.876C263.644 135.324 263.229 135.868 262.931 136.478C262.633 137.087 262.459 137.749 262.418 138.426C262.386 139.022 262.491 139.618 262.723 140.168C262.955 140.718 263.309 141.208 263.759 141.601Z" stroke="black" stroke-linecap="round" stroke-linejoin="round"/>
<path d="M252.775 145.979C253.491 146.664 254.353 147.176 255.297 147.477C256.24 147.777 257.24 147.859 258.219 147.715" stroke="black" stroke-linecap="round" stroke-linejoin="round"/>
<path d="M264.43 159.155C264.075 158.86 259.835 155.368 257.369 153.238" stroke="black" stroke-linecap="round" stroke-linejoin="round"/>
<path d="M257.35 153.218C259.436 155.488 261.81 157.478 264.411 159.135" stroke="black" stroke-linecap="round" stroke-linejoin="round"/>
<path d="M257.31 153.178C256.442 152.429 255.811 151.876 255.634 151.659C255.454 151.466 255.295 151.255 255.16 151.028C255.16 151.028 256.067 151.955 257.31 153.178Z" stroke="black" stroke-linecap="round" stroke-linejoin="round"/>
<path d="M255.868 130.141C255.992 133.007 255.22 135.84 253.659 138.247C252.078 140.643 249.799 142.496 247.131 143.553" stroke="black" stroke-linecap="round" stroke-linejoin="round"/>
<path d="M264.432 159.155C267.686 160.161 271.177 158.445 273.781 156.236C276.139 153.779 278.72 151.547 281.493 149.569C285.871 147.084 291.552 147.163 295.417 143.928C296.495 143.038 297.371 141.929 297.988 140.675C298.605 139.421 298.948 138.05 298.994 136.653C299.041 135.256 298.79 133.865 298.259 132.573C297.727 131.28 296.926 130.115 295.91 129.155C294.212 127.714 292.18 126.721 289.999 126.267C287.818 125.812 285.558 125.91 283.425 126.552C279.106 127.617 277.094 130.97 272.301 132.469" stroke="black" stroke-linecap="round" stroke-linejoin="round"/>
<path d="M207.469 89.3325C206.798 91.5834 205.714 93.6902 204.274 95.5455C202.403 97.9538 200.119 100.011 197.528 101.62C192.865 104.361 187.79 106.332 182.499 107.459C180.724 107.866 178.949 108.241 177.174 108.583C173.41 109.312 169.601 109.786 165.773 110.003C164.077 110.121 162.361 110.161 160.645 110.141C158.918 110.272 157.194 109.858 155.714 108.958L155.576 108.859" stroke="black" stroke-linecap="round" stroke-linejoin="round"/>
<path d="M144.865 73.0008C146.986 72.0538 149.394 71.9758 151.571 72.7837C153.732 73.6168 155.49 75.2478 156.482 77.3399C157.379 79.7311 157.749 82.2877 157.567 84.8349V89.0163" stroke="black" stroke-linecap="round" stroke-linejoin="round"/>
<path d="M82.3047 77.3999C94.6789 76.4331 107.11 76.4331 119.484 77.3999" stroke="black" stroke-linecap="round" stroke-linejoin="round"/>
<path d="M100.627 67.6172C109.88 68.3836 119.01 70.244 127.826 73.1595" stroke="black" stroke-linecap="round" stroke-linejoin="round"/>
<path d="M118.396 96.8076C121.743 99.4782 125.351 101.804 129.165 103.75L106.443 118.306" stroke="black" stroke-linecap="round" stroke-linejoin="round"/>
<path d="M165.968 113.159C165.518 117.999 164.74 122.802 163.641 127.537" stroke="black" stroke-linecap="round" stroke-linejoin="round"/>
<path d="M180.586 113.376C184.068 111.181 187.997 109.793 192.085 109.312" stroke="black" stroke-linecap="round" stroke-linejoin="round"/>
<path d="M137.528 182.704C138.164 184.141 138.944 185.508 139.855 186.787C140.346 187.592 141.023 188.269 141.828 188.759C142.243 188.973 142.714 189.054 143.176 188.99C143.638 188.927 144.07 188.722 144.412 188.404C145.201 187.537 144.865 186.156 144.412 185.052C143.859 183.533 143.248 182.034 142.637 180.535C141.315 177.418 139.915 174.322 138.692 171.186C138.179 169.983 137.706 168.779 137.252 167.557C135.161 161.837 135.497 156.215 136.167 150.18V149.549C137.193 140.358 141.078 133.099 144.806 125.723C145.733 123.869 146.66 121.995 147.528 120.082C148.396 118.169 149.027 116.63 149.658 114.835C152.115 113.375 154.184 111.345 155.694 108.918C156.362 107.89 156.918 106.792 157.35 105.644C158.794 101.801 158.905 97.5853 157.666 93.6719" stroke="black" stroke-linecap="round" stroke-linejoin="round"/>
<path d="M137.527 182.705C137.033 180.701 136.427 178.725 135.713 176.788C136.052 178.832 136.662 180.822 137.527 182.705Z" stroke="black" stroke-linecap="round" stroke-linejoin="round"/>
<path d="M135.021 188.168C135.021 188.385 135.16 188.582 135.219 188.799C135.369 189.524 135.694 190.201 136.165 190.772C136.403 191.051 136.734 191.234 137.096 191.289C137.459 191.343 137.829 191.265 138.138 191.068C138.749 190.614 138.73 189.707 138.631 188.937C138.37 186.853 137.988 184.785 137.487 182.744" stroke="black" stroke-linecap="round" stroke-linejoin="round"/>
<path d="M135.021 188.168C134.977 187.615 134.885 187.067 134.745 186.531C133.841 183.025 132.734 179.574 131.432 176.195C132.635 180.179 133.838 184.183 135.021 188.168Z" stroke="black" stroke-linecap="round" stroke-linejoin="round"/>
<path d="M135.318 82.3311C133.503 83.1792 127.823 92.5873 128.612 98.7214C128.947 101.345 129.894 103.909 129.973 106.611C129.993 107.993 129.834 109.372 129.499 110.713C128.99 112.716 128.378 114.691 127.665 116.63L127.31 117.735C124.179 127.734 122.414 138.111 122.064 148.583C121.704 157.916 121.908 167.262 122.675 176.571L122.557 177.103L120.584 185.525C120.328 186.531 120.19 187.813 121.018 188.424C121.847 189.036 123.405 188.208 124.135 187.202C126.09 184.575 126.971 181.303 126.6 178.05C127.468 179.056 128.987 185.466 130.801 188.918C131.354 189.943 132.182 191.107 133.346 190.89C133.778 190.827 134.177 190.623 134.48 190.308C134.784 189.994 134.974 189.588 135.022 189.154C135.071 188.847 135.071 188.534 135.022 188.227" stroke="black" stroke-linecap="round" stroke-linejoin="round"/>
<path d="M177.23 108.878C176.354 110.993 175.655 113.177 175.139 115.407C175.139 115.723 174.962 116.038 174.883 116.354C174.291 117.34 173.719 118.326 173.167 119.332C171.234 122.711 169.406 126.13 167.684 129.588C165.409 134.059 163.312 138.615 161.392 143.257C159.163 148.622 157.132 154.105 155.337 159.687C153.434 162.048 152.453 165.019 152.576 168.049C152.706 171.057 152.434 174.068 151.767 177.004C151.483 177.717 151.304 178.468 151.234 179.233C151.235 179.523 151.289 179.81 151.392 180.081C151.468 180.304 151.593 180.509 151.756 180.679C151.92 180.849 152.119 180.982 152.339 181.067C153.443 181.402 154.41 180.258 154.962 179.233C156.146 177.043 157.132 174.736 158.078 172.507C159.472 177.083 161.011 181.606 162.694 186.077C162.922 186.808 163.305 187.48 163.818 188.049C164.089 188.326 164.436 188.516 164.815 188.597C165.194 188.677 165.588 188.645 165.948 188.503C166.974 187.951 166.875 186.53 166.599 185.308C165.731 181.718 164.627 178.168 163.936 175.091C165.612 179.399 167.797 183.491 170.445 187.28C170.77 187.814 171.199 188.277 171.707 188.641C171.956 188.821 172.25 188.929 172.556 188.953C172.862 188.977 173.169 188.917 173.443 188.779C173.724 188.591 173.944 188.324 174.073 188.012C174.203 187.699 174.238 187.356 174.173 187.024C174.094 186.519 173.912 186.036 173.64 185.603L173.384 185.17L167.644 175.485" stroke="black" stroke-linecap="round" stroke-linejoin="round"/>
<path d="M174.551 185.762C174.986 185.498 175.331 185.107 175.539 184.642C175.747 184.176 175.808 183.659 175.714 183.158C175.503 182.159 175.079 181.218 174.472 180.397L173.841 179.391L169.758 172.902" stroke="black" stroke-linecap="round" stroke-linejoin="round"/>
<path d="M174.508 178.977C173.775 174.665 172.164 170.55 169.774 166.887C169.069 165.899 168.455 164.849 167.94 163.751C167.686 163.176 167.555 162.555 167.555 161.926C167.555 161.298 167.686 160.677 167.94 160.102C172.582 151.097 177.944 142.483 183.975 134.343C185.434 132.37 186.953 130.398 188.531 128.426C190.109 126.453 191.509 124.816 193.048 123.061L193.837 122.173C197.315 121.019 200.384 118.882 202.673 116.02C204.931 113.164 206.913 110.099 208.59 106.868L214.507 96.4537L215.533 94.6194C216.795 92.3906 218.432 88.367 217.505 85.9016C217.449 85.737 217.376 85.5784 217.288 85.4282" stroke="black" stroke-linecap="round" stroke-linejoin="round"/>
<path d="M173.385 119.452C174.493 122.31 176.533 124.709 179.175 126.263C181.816 127.816 184.905 128.433 187.941 128.012" stroke="black" stroke-linecap="round" stroke-linejoin="round"/>
<path d="M177.764 116.176C179.668 118.346 182.012 120.086 184.641 121.28C187.27 122.474 190.123 123.094 193.01 123.099" stroke="black" stroke-linecap="round" stroke-linejoin="round"/>
<path d="M128.037 117.815C129.551 120.642 131.937 122.905 134.842 124.265C137.798 125.634 141.112 126.034 144.309 125.408" stroke="black" stroke-linecap="round" stroke-linejoin="round"/>
<path d="M138.83 171.048C141.999 173.448 144.878 176.208 147.41 179.273C147.665 179.59 147.859 179.951 147.982 180.338C148.035 180.487 148.054 180.646 148.037 180.803C148.02 180.96 147.967 181.111 147.883 181.245C147.694 181.457 147.451 181.614 147.181 181.701C146.91 181.788 146.622 181.8 146.345 181.739C145.116 181.635 143.954 181.137 143.031 180.318" stroke="black" stroke-linecap="round" stroke-linejoin="round"/>
<path d="M196.875 57.1826L195.08 59.8453" stroke="black" stroke-linecap="round" stroke-linejoin="round"/>
<path d="M218.907 65.3291C218.216 66.1479 217.651 67.0653 217.23 68.051" stroke="black" stroke-linecap="round" stroke-linejoin="round"/>
<path d="M202.398 74.6391C203.024 75.397 203.813 76.0038 204.706 76.4143C205.147 76.6231 205.629 76.7314 206.116 76.7314C206.604 76.7314 207.086 76.6231 207.527 76.4143C207.879 76.1996 208.183 75.9129 208.417 75.573C208.652 75.2332 208.812 74.8478 208.887 74.4419C209.038 73.6608 208.934 72.8522 208.592 72.1343" stroke="black" stroke-width="0.5" stroke-linecap="round" stroke-linejoin="round"/>
<path d="M190.211 74.7378C195.107 78.5481 201.127 80.6288 207.331 80.6549" stroke="black" stroke-width="0.5" stroke-linecap="round" stroke-linejoin="round"/>
<path d="M175.34 61.0088C175.537 61.6597 175.754 62.3105 175.971 62.9812C177.613 68.7189 180.221 74.1349 183.683 78.9967C186.769 83.1405 191.126 86.1606 196.089 87.5962C197.557 87.9753 199.071 88.1479 200.586 88.109C201.472 88.083 202.355 87.9974 203.229 87.8526C205.702 87.3591 208.111 86.5849 210.408 85.545C211.454 85.0914 212.499 84.618 213.525 84.0855C215.674 83.058 217.667 81.7297 219.442 80.1407C224.807 75.1112 227.568 65.1113 231.927 62.6261" stroke="black" stroke-linecap="round" stroke-linejoin="round"/>
<path d="M157.684 17.1841C157.684 16.9474 157.841 16.7107 157.94 16.474C158.756 14.748 159.97 13.2402 161.482 12.0744C162.994 10.9087 164.761 10.1182 166.638 9.76798C170.621 9.21625 174.657 9.17648 178.65 9.64964C185.367 5.74396 192.706 3.02188 200.346 1.60237C208.062 0.202024 216.023 1.25748 223.107 4.62008C232.969 9.57071 239.379 19.6495 241.963 30.2608C242.949 34.2055 243.422 38.4264 244.31 42.4697C245.045 46.5695 246.638 50.4678 248.984 53.9094C250.169 55.6199 251.702 57.0599 253.483 58.1343C255.265 59.2086 257.254 59.893 259.32 60.1422C261.376 60.3089 263.436 59.85 265.227 58.8258C267.019 57.8015 268.459 56.2597 269.359 54.4025C269.542 55.8452 269.341 57.3106 268.777 58.6509C268.212 59.9911 267.304 61.1586 266.144 62.0356C263.781 63.7656 260.841 64.5149 257.939 64.1264C255.191 63.783 252.583 62.7142 250.385 61.0298C252.888 64.3042 255.645 67.3773 258.629 70.2209C261.618 73.0682 264.052 76.4455 265.809 80.1813C266.667 82.0393 267.102 84.065 267.082 86.1118C267.061 88.1585 266.586 90.1751 265.69 92.0155C264.719 93.8413 263.143 95.2726 261.232 96.0643C259.321 96.8559 257.195 96.9585 255.217 96.3547C257.94 95.5667 260.239 93.7292 261.607 91.2464C262.3 90.0196 262.563 88.5971 262.356 87.2039C262.149 85.8107 261.483 84.5264 260.464 83.5541C258.569 87.5172 255.406 90.7345 251.476 92.696C247.546 94.6576 243.073 95.2511 238.768 94.3824C243.328 92.1884 247.107 88.6504 249.596 84.2444C246.859 88.2688 243.013 91.4121 238.525 93.2923C234.036 95.1725 229.098 95.7087 224.31 94.836C228.516 93.9894 232.332 91.7943 235.178 88.5836C231.695 90.2269 227.86 90.9857 224.014 90.7927C227.792 89.6579 231.03 87.1911 233.126 83.85C228.159 85.6964 222.771 86.0997 217.584 85.0136C216.184 84.7572 214.823 84.4417 213.482 84.067" stroke="black" stroke-linecap="round" stroke-linejoin="round"/>
<path d="M188.375 20.1807C183.195 22.5592 177.36 23.1085 171.827 21.7389C166.995 20.7922 162.34 19.0959 157.567 17.7942C156.876 17.5969 156.186 17.4194 155.476 17.2616C151.967 16.3322 148.318 16.0449 144.707 16.4135C141.075 16.791 137.694 18.4397 135.161 21.0683C133.835 22.5398 132.923 24.3365 132.518 26.2753C132.16 27.8912 132.242 29.5734 132.754 31.1471C133.14 29.2735 133.989 27.5263 135.223 26.0648C136.457 24.6033 138.037 23.474 139.82 22.7799C141.602 22.0857 143.53 21.8488 145.428 22.0907C147.325 22.3326 149.132 23.0457 150.683 24.1649" stroke="black" stroke-linecap="round" stroke-linejoin="round"/>
<path d="M171.727 29.6695C168.365 27.8785 164.854 26.3806 161.234 25.1923C157.843 24.0969 154.239 23.8265 150.721 24.4034L149.933 24.5611C146.485 25.5359 143.28 27.2224 140.524 29.5118C136.724 32.1698 133.624 35.7094 131.491 39.8273C130.137 42.8347 129.58 46.1401 129.873 49.4253C130.167 52.7105 131.301 55.8647 133.167 58.5843C132.24 56.7996 131.808 54.7993 131.916 52.791C132.023 50.7828 132.667 48.8399 133.779 47.1644C136.103 43.8185 139.641 41.5116 143.641 40.7345C147.574 39.9922 151.627 40.1814 155.475 41.2868C153.351 41.0599 151.203 41.3551 149.22 42.1469C147.236 42.9388 145.475 44.2032 144.091 45.8303C142.707 47.4574 141.741 49.3979 141.278 51.4832C140.814 53.5684 140.867 55.7353 141.432 57.7955C141.909 55.3219 143.001 53.0083 144.607 51.0677C146.213 49.1271 148.282 47.622 150.623 46.6911C147.867 48.9474 146.041 52.1417 145.495 55.6614C144.949 59.1812 145.721 62.7785 147.664 65.7638C147.332 62.692 147.927 59.5913 149.371 56.8602C150.816 54.1291 153.045 51.8927 155.771 50.4386C154.561 52.2094 153.736 54.2142 153.348 56.3237C152.961 58.4331 153.02 60.6003 153.522 62.6854C154.023 64.7706 154.957 66.7275 156.261 68.4298C157.566 70.1321 159.213 71.5419 161.096 72.5685C159.934 69.2231 160.068 65.5638 161.471 62.3121C162.906 59.0782 165.483 56.4869 168.709 55.0341C167.474 55.93 166.536 57.1757 166.016 58.6101C165.495 60.0445 165.417 61.6019 165.79 63.0814C166.056 64.2949 166.494 65.464 167.092 66.5528C167.953 68.1302 168.971 69.617 170.13 70.9906C169.634 70.0654 169.347 69.0426 169.289 67.9945C169.231 66.9464 169.404 65.8983 169.795 64.9242C170.186 63.9501 170.786 63.0737 171.553 62.3566C172.32 61.6394 173.234 61.0992 174.232 60.7738" stroke="black" stroke-linecap="round" stroke-linejoin="round"/>
<path d="M169.891 58.1496C170.561 58.1496 171.212 58.0116 171.863 57.8932C176.072 57.205 180.083 55.6149 183.62 53.2318C187.157 50.8488 190.137 47.7291 192.356 44.0867C195.457 44.3363 198.576 43.9622 201.53 42.9866C204.484 42.011 207.213 40.4536 209.555 38.4062C208.913 42.2121 206.907 45.6543 203.914 48.0906C201.376 50.2602 198.21 51.5597 194.88 51.7987C198.382 52.0399 201.87 51.1627 204.841 49.2937C205.216 49.0373 205.59 48.7809 205.945 48.5047C209.089 46.0638 211.229 42.5553 211.961 38.6429C213.474 42.8027 213.735 47.3148 212.711 51.6211C212.167 53.7584 211.067 55.7134 209.522 57.2865C207.976 58.8596 206.041 59.9945 203.914 60.5756C209.191 61.12 214.495 59.8391 218.942 56.9462C223.389 54.0533 226.71 49.7233 228.351 44.6784C228.827 46.3905 228.953 48.1808 228.723 49.9427C228.492 51.7047 227.91 53.4023 227.01 54.9347C228.074 54.4172 229.019 53.6832 229.783 52.7798C230.547 51.8764 231.114 50.8234 231.448 49.6882C232.442 53.8818 232.623 58.2272 231.981 62.4889" stroke="black" stroke-linecap="round" stroke-linejoin="round"/>
<path d="M199.4 43.791C201.072 45.0168 202.588 46.4408 203.917 48.0316C204.249 48.4144 204.559 48.8161 204.844 49.2348C205.707 50.3601 206.467 51.5617 207.112 52.8245" stroke="black" stroke-width="0.5" stroke-linecap="round" stroke-linejoin="round"/>
<path d="M218.889 59.8067C220.459 58.6765 222.36 58.0983 224.294 58.1625C226.228 58.2268 228.087 58.9298 229.579 60.1618" stroke="black" stroke-width="0.5" stroke-linecap="round" stroke-linejoin="round"/>
<path d="M171.945 58.248C172.046 58.8367 172.316 59.3833 172.723 59.8211C173.129 60.2589 173.654 60.5689 174.233 60.7135C174.589 60.8345 174.962 60.8945 175.338 60.8911" stroke="black" stroke-linecap="round" stroke-linejoin="round"/>
<path d="M175.28 63.1792C174.354 66.4549 174.232 69.9055 174.925 73.2383C175.616 76.5582 176.736 79.7738 178.258 82.8042C178.965 84.3998 179.895 85.8872 181.019 87.2223C182.578 88.942 184.656 90.1056 186.936 90.5359C187.4 90.6177 187.867 90.6704 188.337 90.6937C191.151 90.8019 193.894 89.7955 195.97 87.893" stroke="black" stroke-linecap="round" stroke-linejoin="round"/>
<path d="M166.914 66.6309C165.685 68.1667 164.943 70.035 164.784 71.9958C164.641 73.9707 164.72 75.9556 165.021 77.9128C165.613 82.7846 166.52 87.7747 169.419 91.7194C170.483 93.3505 172.09 94.5523 173.956 95.1118C175.912 95.4042 177.911 95.0803 179.676 94.1848C181.433 93.3033 183.305 92.6725 185.238 92.3111C185.703 92.2619 186.172 92.2619 186.638 92.3111C187.953 92.4069 189.225 92.8196 190.346 93.5142C191.707 94.382 192.792 95.664 194.291 96.4332C195.44 97.028 196.739 97.2722 198.026 97.1354C199.312 96.9987 200.531 96.4871 201.529 95.6641C201.71 95.5099 201.881 95.3453 202.042 95.171C202.832 94.3041 203.379 93.2429 203.625 92.0959C203.871 90.949 203.808 89.7573 203.443 88.6425" stroke="black" stroke-linecap="round" stroke-linejoin="round"/>
<path d="M185.414 95.625C184.993 95.6088 184.574 95.6914 184.19 95.8661C183.806 96.0407 183.469 96.3026 183.205 96.631C182.989 96.876 182.869 97.1917 182.869 97.5186C182.869 97.8454 182.989 98.161 183.205 98.406C183.445 98.545 183.715 98.6262 183.992 98.6433C184.269 98.6604 184.547 98.613 184.802 98.5047C185.143 98.4545 185.469 98.3316 185.759 98.1444C186.048 97.9573 186.293 97.7101 186.479 97.4198C186.583 97.1684 186.599 96.8891 186.523 96.6276C186.448 96.3661 186.286 96.1379 186.065 95.9801C185.552 95.625 184.862 95.625 185.414 95.625Z" stroke="black" stroke-width="0.5" stroke-linecap="round" stroke-linejoin="round"/>
<path d="M129.814 110.733C131.697 113.611 134.283 115.962 137.327 117.563C140.371 119.164 143.772 119.963 147.211 119.885" stroke="black" stroke-miterlimit="10"/>
<path d="M263.758 141.797C263.419 143.842 262.532 145.756 261.191 147.337C259.851 148.917 258.106 150.104 256.145 150.772" stroke="black" stroke-linecap="round" stroke-linejoin="round"/>
</svg>
