<svg width="153" height="168" viewBox="0 0 153 168" fill="none" xmlns="http://www.w3.org/2000/svg">
<rect x="63.873" y="92" width="48.1248" height="22.8" fill="#FFED00"/>
<rect x="35" y="118.601" width="48.1248" height="22.8" fill="#FFED00"/>
<rect x="35" y="145.199" width="13.4749" height="22.8" fill="#FFED00"/>
<rect x="83.125" y="145.199" width="28.8749" height="22.8" fill="#FFED00"/>
<rect x="88.9004" y="118.601" width="23.0999" height="22.8" fill="black"/>
<rect x="54.25" y="145.199" width="23.0999" height="22.8" fill="black"/>
<rect x="35" y="92" width="23.0999" height="22.8" fill="black"/>
<path d="M46.1276 97.3311C48.2029 97.3311 49.8791 97.7722 51.1563 98.6546C52.4493 99.5212 53.0959 100.853 53.0959 102.649H48.4743C48.4743 101.231 47.6921 100.522 46.1276 100.522C44.5631 100.522 43.7809 101.412 43.7809 103.193V104.54C43.7809 106.305 44.595 107.187 46.2234 107.187C47.8517 107.187 48.6659 106.462 48.6659 105.012H53.0959C53.0959 106.825 52.4493 108.172 51.1563 109.054C49.8791 109.936 48.2029 110.378 46.1276 110.378C43.9086 110.378 42.1685 109.826 40.9074 108.723C39.6462 107.62 39.0156 105.997 39.0156 103.854C39.0156 101.711 39.6462 100.088 40.9074 98.9855C42.1685 97.8825 43.9086 97.3311 46.1276 97.3311Z" fill="white"/>
<path d="M65.4811 149.947C67.5564 149.947 69.2327 150.388 70.5098 151.271C71.8029 152.137 72.4494 153.469 72.4494 155.265H67.8278C67.8278 153.847 67.0456 153.138 65.4811 153.138C63.9166 153.138 63.1344 154.028 63.1344 155.809V157.156C63.1344 158.921 63.9486 159.803 65.5769 159.803C67.2052 159.803 68.0194 159.078 68.0194 157.629H72.4494C72.4494 159.441 71.8029 160.788 70.5098 161.67C69.2327 162.553 67.5564 162.994 65.4811 162.994C63.2621 162.994 61.522 162.442 60.2609 161.339C58.9997 160.236 58.3691 158.613 58.3691 156.471C58.3691 154.328 58.9997 152.705 60.2609 151.602C61.522 150.499 63.2621 149.947 65.4811 149.947Z" fill="white"/>
<path d="M102.223 121.301C103.931 121.301 105.249 121.852 106.174 122.955C107.1 124.058 107.563 125.689 107.563 127.848C107.563 129.991 107.1 131.614 106.174 132.717C105.249 133.804 103.931 134.347 102.223 134.347C100.755 134.347 99.5733 133.875 98.6793 132.929V138.72H93.9141V121.584H97.7933L98.2004 123.357C99.1263 121.986 100.467 121.301 102.223 121.301ZM100.739 124.775C100.036 124.775 99.5094 125.019 99.1582 125.508C98.807 125.996 98.6314 126.634 98.6314 127.422V128.202C98.6314 128.99 98.807 129.636 99.1582 130.14C99.5094 130.629 100.036 130.873 100.739 130.873C102.112 130.873 102.798 130.062 102.798 128.439V127.186C102.798 125.579 102.112 124.775 100.739 124.775Z" fill="white"/>
<path d="M150.521 65.9756C151.036 66.4622 151.442 67.0528 151.711 67.7082C151.981 68.3635 152.108 69.0687 152.084 69.7769C152.061 70.4851 151.887 71.1803 151.574 71.8162C151.261 72.4521 150.817 73.0143 150.271 73.4656C148.271 75.1056 145.431 75.0655 143.211 76.3255C141.805 77.3283 140.496 78.4599 139.301 79.7055C137.981 80.8255 136.211 81.7056 134.561 81.1856C134.381 81.0356 132.231 79.2656 130.981 78.1856C130.351 77.5656 129.911 77.0956 129.891 77.0956L130.381 76.9656C131.375 76.6271 132.26 76.0251 132.939 75.2239C133.619 74.4227 134.069 73.4521 134.241 72.4156V72.3156C134.484 72.5498 134.796 72.7004 135.131 72.7456C135.908 72.7378 136.67 72.5275 137.341 72.1355C138.146 71.8483 138.972 71.621 139.811 71.4555C140.655 71.2786 141.456 70.939 142.171 70.4555C142.526 70.2133 142.821 69.8943 143.036 69.5221C143.251 69.1499 143.379 68.7341 143.411 68.3056C143.422 67.8763 143.282 67.4568 143.015 67.1204C142.748 66.784 142.371 66.5522 141.951 66.4656C141.153 66.4991 140.383 66.7708 139.741 67.2456C139.545 67.3359 139.345 67.416 139.141 67.4856L138.531 67.6256C140.961 66.9056 141.981 65.2056 144.171 64.6256C145.257 64.3006 146.408 64.2539 147.518 64.4898C148.628 64.7257 149.66 65.2366 150.521 65.9756Z" fill="#1D1D1B"/>
<path d="M141.97 66.4551C142.391 66.5418 142.767 66.7736 143.034 67.1099C143.301 67.4463 143.441 67.8658 143.43 68.2951C143.398 68.7236 143.27 69.1394 143.055 69.5116C142.841 69.8838 142.545 70.2029 142.19 70.4451C141.476 70.9285 140.674 71.2682 139.83 71.4451C138.991 71.6105 138.165 71.8379 137.36 72.1251C136.689 72.5171 135.927 72.7274 135.15 72.7351C134.815 72.69 134.503 72.5394 134.26 72.3051C134.035 72.1079 133.857 71.8626 133.739 71.5874C133.622 71.3122 133.567 71.0141 133.58 70.7151C133.601 70.3719 133.689 70.0362 133.84 69.7273C133.991 69.4184 134.202 69.1424 134.46 68.9151L134.68 68.7251C135.395 68.2779 136.209 68.0135 137.05 67.9551C137.68 67.8351 137.99 67.7651 138.55 67.6351L139.16 67.4951C139.364 67.4255 139.564 67.3454 139.76 67.2551C140.4 66.7732 141.17 66.4944 141.97 66.4551Z" fill="white"/>
<path d="M76.9104 12.8654V12.7654C76.1239 12.198 75.2078 11.8364 74.2458 11.7138C73.2838 11.5911 72.3063 11.7112 71.4026 12.0632C70.4989 12.4151 69.6976 12.9877 69.0719 13.7287C68.4462 14.4697 68.016 15.3555 67.8204 16.3054C67.5606 15.5076 67.5192 14.6547 67.7004 13.8354C67.9058 12.8524 68.3682 11.9415 69.0404 11.1954C70.325 9.86271 72.0393 9.02682 73.8804 8.8354C75.7114 8.64851 77.5612 8.79421 79.3404 9.26543C79.7004 9.34543 80.0504 9.43541 80.4004 9.53541L80.5904 8.84541C81.0042 7.9703 81.6197 7.20584 82.3863 6.61479C83.1529 6.02374 84.0488 5.62299 85.0004 5.44542C87.0195 5.16569 89.0661 5.14552 91.0904 5.38542C94.4962 3.40521 98.217 2.02511 102.09 1.3054C106.002 0.595422 110.039 1.13054 113.63 2.8354C118.63 5.3454 121.88 10.4554 123.19 15.8354C123.69 17.8354 123.93 19.9754 124.38 22.0254C124.753 24.104 125.561 26.0804 126.75 27.8254C127.351 28.6926 128.128 29.4227 129.031 29.9674C129.935 30.5121 130.943 30.8591 131.99 30.9854C133.033 31.07 134.077 30.8373 134.986 30.318C135.894 29.7987 136.624 29.017 137.08 28.0754C137.173 28.8068 137.071 29.5498 136.785 30.2293C136.499 30.9088 136.039 31.5008 135.45 31.9454C134.253 32.8225 132.762 33.2024 131.29 33.0054C129.897 32.8314 128.575 32.2895 127.46 31.4354C128.73 33.0956 130.127 34.6537 131.64 36.0954C133.156 37.539 134.39 39.2513 135.28 41.1454C135.716 42.0874 135.936 43.1145 135.926 44.1522C135.916 45.1899 135.675 46.2123 135.22 47.1454C134.728 48.0711 133.929 48.7968 132.96 49.1981C131.991 49.5995 130.913 49.6516 129.91 49.3454C131.291 48.9459 132.457 48.0142 133.15 46.7554C133.501 46.1335 133.635 45.4122 133.53 44.7059C133.425 43.9995 133.087 43.3484 132.57 42.8554C131.61 44.8647 130.006 46.4959 128.014 47.4904C126.021 48.4849 123.753 48.7858 121.57 48.3454C123.882 47.233 125.798 45.4393 127.06 43.2054C125.672 45.2493 123.718 46.8453 121.438 47.7987C119.159 48.7522 116.651 49.022 114.22 48.5754C116.353 48.1462 118.287 47.0333 119.73 45.4054C117.965 46.2386 116.02 46.6233 114.07 46.5254C115.986 45.9501 117.627 44.6994 118.69 43.0054C116.172 43.9416 113.44 44.1461 110.81 43.5954C110.1 43.4654 109.41 43.3054 108.73 43.1154C109.82 42.5945 110.83 41.9211 111.73 41.1154C114.45 38.5654 115.85 33.4954 118.06 32.2354L118.12 32.1554C118.446 29.9947 118.354 27.7916 117.85 25.6654C117.681 26.241 117.394 26.7749 117.006 27.2329C116.619 27.691 116.14 28.063 115.6 28.3254C116.057 27.5485 116.352 26.6878 116.469 25.7945C116.585 24.9012 116.521 23.9935 116.28 23.1254C115.448 25.6833 113.765 27.8785 111.51 29.3452C109.255 30.8119 106.566 31.4615 103.89 31.1854C104.969 30.8908 105.95 30.3154 106.734 29.5178C107.517 28.7202 108.075 27.729 108.35 26.6454C108.87 24.4621 108.737 22.1745 107.97 20.0654C107.599 22.049 106.514 23.8279 104.92 25.0654C104.74 25.2054 104.55 25.3354 104.36 25.4654C104.216 25.2531 104.059 25.0495 103.89 24.8554C105.408 23.6202 106.425 21.875 106.75 19.9454C105.563 20.9834 104.179 21.7731 102.682 22.2677C101.184 22.7624 99.6025 22.9519 98.0304 22.8254C96.9054 24.6721 95.3945 26.2538 93.6012 27.462C91.8078 28.6703 89.7744 29.4765 87.6404 29.8254V30.0354C87.6916 30.3339 87.8285 30.611 88.0345 30.833C88.2404 31.0549 88.5066 31.2121 88.8004 31.2854C88.2944 31.4504 87.8307 31.7243 87.4421 32.0879C87.0534 32.4515 86.7492 32.8958 86.5509 33.3897C86.3526 33.8836 86.265 34.415 86.2943 34.9464C86.3235 35.4778 86.469 35.9963 86.7204 36.4654C86.1329 35.769 85.6169 35.0152 85.1804 34.2154C84.8772 33.6634 84.6549 33.0707 84.5204 32.4554C84.331 31.7053 84.3708 30.9157 84.6346 30.1884C84.8984 29.4612 85.3741 28.8297 86.0004 28.3754C84.3647 29.112 83.058 30.4258 82.3304 32.0654C81.6191 33.714 81.5513 35.5693 82.1404 37.2654C81.1857 36.7449 80.3506 36.0301 79.6891 35.1671C79.0277 34.304 78.5545 33.3119 78.3001 32.2547C78.0457 31.1975 78.0157 30.0987 78.2121 29.0292C78.4085 27.9597 78.8269 26.9433 79.4404 26.0454C78.0583 26.7827 76.9283 27.9165 76.1959 29.3012C75.4634 30.6859 75.162 32.2581 75.3304 33.8154C74.3453 32.3019 73.9536 30.478 74.2304 28.6934C74.5073 26.9089 75.4331 25.2894 76.8304 24.1454C75.6436 24.6174 74.5947 25.3805 73.7803 26.3644C72.9659 27.3483 72.4123 28.5213 72.1704 29.7754C71.8841 28.7309 71.8573 27.6323 72.0923 26.575C72.3273 25.5178 72.8169 24.5339 73.5187 23.709C74.2204 22.8841 75.113 22.243 76.1189 21.8415C77.1248 21.44 78.2135 21.2903 79.2904 21.4054C77.3397 20.845 75.2848 20.7491 73.2904 21.1254C71.2628 21.5195 69.4689 22.689 68.2904 24.3854C67.7265 25.2349 67.4003 26.2199 67.3458 27.2381C67.2913 28.2563 67.5104 29.2706 67.9804 30.1754C67.0342 28.7966 66.459 27.1973 66.3102 25.5317C66.1613 23.8661 66.4438 22.1902 67.1304 20.6654C68.212 18.5776 69.7835 16.7831 71.7104 15.4354C73.1076 14.2747 74.7325 13.4197 76.4804 12.9254L76.9104 12.8654Z" fill="#1D1D1B"/>
<path d="M134 68.5054L134.46 68.8953C134.202 69.1226 133.991 69.3986 133.84 69.7075C133.689 70.0164 133.6 70.3521 133.58 70.6953C133.567 70.9943 133.621 71.2924 133.739 71.5676C133.857 71.8428 134.034 72.0881 134.26 72.2853V72.3853C134.088 73.4219 133.638 74.3925 132.958 75.1937C132.279 75.995 131.394 76.5969 130.4 76.9354L129.91 77.0654L129.67 76.8154L125.52 73.5953C126.989 72.9546 128.25 71.9154 129.16 70.5953C129.932 69.3652 130.302 67.9254 130.22 66.4753L130.42 66.1953C131.563 67.0406 132.758 67.8122 134 68.5054Z" fill="#FFED00"/>
<path d="M130.431 66.1956L130.231 66.4756C130.293 67.9287 129.902 69.3653 129.111 70.5856C128.201 71.9057 126.94 72.9449 125.471 73.5856L124.101 72.5156C122.014 70.8268 119.82 69.2768 117.531 67.8757C113.93 66.0132 110.177 64.4641 106.311 63.2457C107.037 62.4793 107.705 61.6604 108.311 60.7957C109.2 59.5861 109.877 58.2333 110.311 56.7957C110.722 55.4222 110.841 53.9779 110.661 52.5557C115.179 54.3018 119.363 56.8117 123.031 59.9756C125.451 62.1056 127.841 64.2956 130.431 66.1956Z" fill="white"/>
<path d="M104.351 25.4556C104.541 25.3256 104.731 25.1957 104.911 25.0557C106.505 23.8181 107.59 22.0393 107.961 20.0557C108.728 22.1647 108.86 24.4523 108.341 26.6356C108.065 27.7192 107.507 28.7104 106.724 29.508C105.94 30.3056 104.959 30.8811 103.881 31.1757C106.556 31.4517 109.245 30.8022 111.5 29.3354C113.755 27.8687 115.439 25.6735 116.271 23.1157C116.512 23.9837 116.576 24.8914 116.459 25.7847C116.342 26.678 116.047 27.5388 115.591 28.3157C116.13 28.0533 116.609 27.6812 116.996 27.2231C117.384 26.7651 117.671 26.2312 117.841 25.6556C118.345 27.7818 118.436 29.9849 118.111 32.1456L118.051 32.2256C115.841 33.4856 114.441 38.5557 111.721 41.1057C110.821 41.9113 109.81 42.5847 108.721 43.1057C108.201 43.3757 107.721 43.6156 107.141 43.8456C105.976 44.3729 104.755 44.7654 103.501 45.0156C103.057 45.089 102.61 45.1324 102.161 45.1456C101.392 45.1653 100.625 45.0778 99.8806 44.8856C97.3643 44.1578 95.1552 42.6265 93.5906 40.5256C91.8356 38.0607 90.5133 35.3147 89.6806 32.4056C89.5706 32.0756 89.4606 31.7456 89.3606 31.4056V31.3456C89.1702 31.3474 88.9809 31.317 88.8006 31.2557C88.5068 31.1824 88.2407 31.0251 88.0347 30.8032C87.8287 30.5812 87.6918 30.3041 87.6406 30.0057V29.7957C89.7747 29.4467 91.8081 28.6405 93.6014 27.4323C95.3948 26.2241 96.9057 24.6424 98.0306 22.7957C99.2165 22.8926 100.41 22.8083 101.571 22.5457V22.6757C102.418 23.2971 103.187 24.019 103.861 24.8256C102.574 25.9256 100.969 26.5845 99.2806 26.7056C101.06 26.8382 102.836 26.4003 104.351 25.4556Z" fill="white"/>
<path d="M110.751 44.0652C111.211 45.3152 110.381 47.3552 109.751 48.4852L109.231 49.4152L106.231 54.6952C105.381 56.3336 104.376 57.8873 103.231 59.3352C102.071 60.7864 100.515 61.8702 98.751 62.4552L98.351 62.9052C96.8872 62.9024 95.4408 62.588 94.108 61.9828C92.7751 61.3776 91.5865 60.4955 90.621 59.3952L89.291 59.0052C89.5523 57.8745 89.9068 56.7673 90.351 55.6952V55.4952C91.251 55.3286 92.151 55.1386 93.051 54.9252C95.7305 54.3699 98.3034 53.3873 100.671 52.0152C101.984 51.1991 103.142 50.1563 104.091 48.9352L102.931 48.7352C103.332 48.2957 103.609 47.7577 103.733 47.1761C103.858 46.5946 103.826 45.9904 103.641 45.4252L103.561 45.0252C104.815 44.775 106.036 44.3825 107.201 43.8552C107.731 43.6252 108.261 43.3852 108.781 43.1152C109.461 43.3052 110.151 43.4652 110.861 43.5952L110.751 44.0652Z" fill="#FFED00"/>
<path d="M110.69 52.5753C110.87 53.9975 110.751 55.4418 110.34 56.8153C109.906 58.2529 109.23 59.6057 108.34 60.8153C107.734 61.6801 107.066 62.4989 106.34 63.2653C105.726 63.8973 105.057 64.473 104.34 64.9853C101.15 67.2553 97.6198 67.9853 93.7598 68.6153C94.4998 67.6153 95.2698 66.6153 96.0698 65.6153C96.8698 64.6153 97.5798 63.7853 98.3598 62.8953L98.7598 62.4453C100.523 61.8602 102.079 60.7765 103.24 59.3253C104.385 57.8773 105.389 56.3237 106.24 54.6853L109.24 49.4053L109.48 49.5453C110.126 50.4408 110.541 51.4813 110.69 52.5753Z" fill="#FFED00"/>
<path d="M106.74 19.9756C106.414 21.9052 105.398 23.6503 103.88 24.8856C103.206 24.079 102.437 23.3571 101.59 22.7356V22.6056C103.499 22.1708 105.269 21.2669 106.74 19.9756Z" fill="white"/>
<path d="M66.1503 56.595C65.8919 57.6103 65.5815 58.6116 65.2203 59.595L65.0403 60.155C63.4526 65.2246 62.5578 70.4856 62.3803 75.795H62.3203C60.8103 75.075 60.3203 75.3651 57.8103 73.6251C53.2391 70.2072 49.4823 65.8186 46.8103 60.775C45.7578 58.8077 44.894 56.7452 44.2303 54.615C43.5616 52.6754 42.2446 51.0255 40.5014 49.9435C38.7582 48.8615 36.6953 48.4135 34.6603 48.675C34.5837 48.6702 34.5068 48.6702 34.4303 48.675C31.6003 49.205 29.6103 45.375 30.6303 42.675C31.6503 39.975 34.3303 38.3651 36.7903 36.8751C39.2503 35.3851 41.8603 33.545 42.5303 30.7451C44.9703 20.6051 57.0503 11.885 67.3103 13.745L67.7203 13.845C67.5391 14.6643 67.5805 15.5172 67.8403 16.3151C68.0359 15.3652 68.4661 14.4793 69.0918 13.7383C69.7175 12.9973 70.5188 12.4248 71.4225 12.0728C72.3262 11.7209 73.3036 11.6008 74.2657 11.7234C75.2277 11.8461 76.1438 12.2076 76.9303 12.775V12.875L76.5303 12.955C74.7824 13.4493 73.1575 14.3043 71.7603 15.465C69.8334 16.8127 68.2619 18.6072 67.1803 20.695C66.4936 22.2198 66.2112 23.8957 66.36 25.5613C66.5089 27.227 67.0841 28.8262 68.0303 30.205C67.5603 29.3001 67.3411 28.2859 67.3957 27.2678C67.4502 26.2496 67.7763 25.2645 68.3403 24.415C69.5187 22.7187 71.3126 21.549 73.3403 21.155C75.3347 20.7787 77.3895 20.8746 79.3403 21.4351C78.2634 21.32 77.1746 21.4697 76.1688 21.8712C75.1629 22.2726 74.2703 22.9136 73.5685 23.7386C72.8668 24.5635 72.3771 25.5474 72.1422 26.6046C71.9072 27.6618 71.934 28.7605 72.2203 29.805C72.4622 28.551 73.0158 27.3779 73.8302 26.394C74.6446 25.4101 75.6935 24.647 76.8803 24.175C75.483 25.319 74.5571 26.9386 74.2803 28.7231C74.0035 30.5076 74.3952 32.3315 75.3803 33.845C75.2119 32.2876 75.5133 30.7155 76.2458 29.3308C76.9782 27.9461 78.1081 26.8122 79.4903 26.075C78.8768 26.9728 78.4584 27.9893 78.262 29.0588C78.0656 30.1283 78.0956 31.2271 78.35 32.2843C78.6044 33.3415 79.0776 34.3337 79.739 35.1967C80.4005 36.0598 81.2355 36.7746 82.1903 37.295C81.6012 35.5989 81.669 33.7436 82.3803 32.095C83.1079 30.4554 84.4146 29.1416 86.0503 28.405C85.424 28.8593 84.9483 29.4907 84.6845 30.218C84.4207 30.9453 84.3809 31.7349 84.5703 32.485C84.7048 33.1003 84.9271 33.6931 85.2303 34.2451H85.1503C84.527 35.0237 84.1509 35.9709 84.0703 36.965C83.9975 37.9664 84.0378 38.9727 84.1903 39.965C84.4903 42.435 84.9503 44.965 86.4203 46.965C86.9597 47.792 87.7745 48.4014 88.7203 48.6851C89.7123 48.8333 90.7258 48.669 91.6203 48.215C92.5112 47.7681 93.4605 47.4483 94.4403 47.265C94.6763 47.2401 94.9143 47.2401 95.1503 47.265C95.817 47.3136 96.462 47.5229 97.0303 47.8751C97.7203 48.3151 98.2703 48.965 99.0303 49.355C99.613 49.6566 100.271 49.7803 100.924 49.711C101.576 49.6417 102.194 49.3823 102.7 48.965C102.792 48.8869 102.879 48.8034 102.96 48.715L104.12 48.915C103.172 50.1361 102.014 51.1789 100.7 51.9951C98.3185 53.3976 95.7247 54.404 93.0203 54.975C92.1203 55.1817 91.2203 55.3717 90.3203 55.545C88.412 55.9146 86.4809 56.1551 84.5403 56.265C83.6803 56.325 82.8103 56.345 81.9403 56.335C81.0647 56.4013 80.1904 56.1915 79.4403 55.735C78.6751 56.9656 77.6257 57.9944 76.3803 58.735C76.0603 59.645 75.6903 60.535 75.3003 61.395L75.1303 61.325C73.387 61.3648 71.6623 60.9597 70.119 60.1479C68.5758 59.336 67.265 58.1442 66.3103 56.6851L66.1503 56.595ZM95.0003 49.865C95.053 49.7376 95.0609 49.596 95.0228 49.4634C94.9846 49.3308 94.9027 49.215 94.7903 49.135C94.5703 48.985 94.2403 49.005 94.5003 48.955C94.2867 48.9468 94.0743 48.9887 93.8798 49.0772C93.6853 49.1658 93.5143 49.2986 93.3803 49.465C93.2706 49.5893 93.2101 49.7493 93.2101 49.915C93.2101 50.0808 93.2706 50.2408 93.3803 50.365C93.5022 50.4355 93.6388 50.4767 93.7794 50.4853C93.9199 50.494 94.0606 50.4699 94.1903 50.415C94.3559 50.3843 94.5134 50.3195 94.6529 50.2248C94.7923 50.1302 94.9106 50.0077 95.0003 49.865Z" fill="#FFED00"/>
<path d="M103.61 45.4255C103.795 45.9907 103.827 46.5949 103.702 47.1765C103.577 47.758 103.301 48.296 102.9 48.7355C102.818 48.8239 102.731 48.9074 102.64 48.9855C102.134 49.4028 101.516 49.6622 100.863 49.7315C100.211 49.8008 99.5526 49.6771 98.9698 49.3755C98.2398 48.9855 97.6898 48.3755 96.9698 47.8955C96.4016 47.5434 95.7566 47.3341 95.0898 47.2855L95.2599 46.3955C95.4946 46.437 95.7317 46.4637 95.9698 46.4755C97.3965 46.5304 98.7872 46.0201 99.8398 45.0555V44.8955C100.584 45.0877 101.351 45.1752 102.12 45.1555C102.569 45.1423 103.017 45.0989 103.46 45.0255L103.61 45.4255Z" fill="white"/>
<path d="M99.9099 44.895V45.0551C98.8573 46.0196 97.4666 46.5299 96.0399 46.475C95.8018 46.4632 95.5647 46.4365 95.3299 46.395C94.1736 46.1768 93.1201 45.5869 92.3299 44.715C91.7599 44.0381 91.2886 43.284 90.9299 42.475C90.1584 40.9386 89.5903 39.3082 89.2399 37.6251C88.8889 35.9353 88.9507 34.1858 89.4199 32.525L89.7699 32.415C90.6026 35.3241 91.9249 38.0701 93.6799 40.535C95.229 42.6253 97.4155 44.1555 99.9099 44.895Z" fill="white"/>
<path d="M90.621 59.3958C91.5865 60.4961 92.7751 61.3782 94.108 61.9834C95.4408 62.5886 96.8872 62.903 98.351 62.9058C97.571 63.7958 96.801 64.7059 96.061 65.6259L95.781 65.3958C94.2419 65.609 92.6759 65.2965 91.3365 64.5089C89.9971 63.7212 88.9628 62.5045 88.401 61.0558L88.291 60.9958C88.571 60.4858 88.861 59.9958 89.161 59.4858C89.161 59.3258 89.251 59.1659 89.291 59.0059L90.621 59.3958Z" fill="#FFED00"/>
<path d="M88.6299 91.4456L88.9499 91.9556C89.2579 92.3717 89.4727 92.8492 89.5799 93.3557C89.6275 93.6096 89.5965 93.8719 89.4911 94.1078C89.3857 94.3436 89.2108 94.5418 88.9899 94.6757L88.5299 94.6157C88.6678 94.8349 88.7596 95.0798 88.7999 95.3356C88.8328 95.5039 88.8153 95.6782 88.7494 95.8365C88.6836 95.9949 88.5724 96.1303 88.4299 96.2256C88.2909 96.2957 88.1353 96.3262 87.9801 96.3138C87.8249 96.3015 87.6761 96.2468 87.5499 96.1556C87.2922 95.9711 87.0745 95.7364 86.9099 95.4656C85.5671 93.5448 84.4592 91.47 83.6099 89.2856C83.9599 90.8456 84.5199 92.6456 84.9599 94.4656C85.0999 95.0456 85.1499 95.8056 84.6299 96.0856C84.4472 96.1576 84.2474 96.1741 84.0553 96.1332C83.8632 96.0923 83.6874 95.9958 83.5499 95.8557C83.29 95.5673 83.0955 95.2262 82.9799 94.8557C82.1333 92.589 81.3533 90.2956 80.6399 87.9756C80.1599 89.1056 79.6399 90.2756 79.0599 91.3856C78.7799 91.9056 78.2899 92.4857 77.7299 92.3157C77.6183 92.2724 77.5174 92.2052 77.4345 92.1188C77.3516 92.0325 77.2886 91.929 77.2499 91.8157C77.1976 91.6783 77.1705 91.5326 77.1699 91.3856C77.2051 90.9979 77.2961 90.6174 77.4399 90.2557C77.778 88.7673 77.9159 87.2405 77.8499 85.7156C77.7879 84.1794 78.2853 82.6729 79.2499 81.4756C80.1599 78.6456 81.1899 75.8656 82.3199 73.1456C83.2999 70.799 84.3633 68.489 85.5099 66.2156C86.3833 64.4556 87.3099 62.7223 88.2899 61.0156L88.3999 61.0756C88.9617 62.5243 89.996 63.741 91.3354 64.5287C92.6748 65.3163 94.2408 65.6289 95.7799 65.4156L96.0599 65.6456C95.2599 66.6456 94.4899 67.6456 93.7499 68.6456C90.6924 72.7728 87.9736 77.1403 85.6199 81.7056C85.4912 81.997 85.4248 82.3121 85.4248 82.6307C85.4248 82.9492 85.4912 83.2643 85.6199 83.5557C85.8811 84.1127 86.1924 84.6449 86.5499 85.1456C87.7615 87.0029 88.5784 89.0894 88.9499 91.2756L88.6299 91.4456Z" fill="white"/>
<path d="M95.291 46.395L95.121 47.285C94.885 47.26 94.647 47.26 94.411 47.285C93.4312 47.4682 92.482 47.788 91.591 48.235C90.6966 48.689 89.683 48.8532 88.691 48.705C87.7453 48.4213 86.9305 47.812 86.391 46.985C84.921 44.985 84.461 42.415 84.161 39.985C84.0085 38.9927 83.9683 37.9863 84.041 36.985C84.1217 35.9909 84.4978 35.0436 85.121 34.265H85.201C85.6376 35.0647 86.1535 35.8185 86.741 36.515C86.4896 36.0459 86.3442 35.5274 86.3149 34.996C86.2856 34.4646 86.3732 33.9332 86.5715 33.4393C86.7698 32.9455 87.0741 32.501 87.4627 32.1375C87.8514 31.7739 88.315 31.4999 88.821 31.335C89.0013 31.3963 89.1906 31.4267 89.381 31.425V31.485C89.481 31.815 89.591 32.145 89.701 32.485L89.351 32.595C88.8818 34.2558 88.82 36.0052 89.171 37.6949C89.5214 39.3781 90.0895 41.0085 90.861 42.545C91.2197 43.3539 91.691 44.1081 92.261 44.785C93.0691 45.6368 94.1328 46.202 95.291 46.395Z" fill="white"/>
<path d="M94.7901 49.1351C94.9025 49.2151 94.9845 49.3309 95.0226 49.4635C95.0608 49.5961 95.0528 49.7377 95.0001 49.8652C94.9061 50.0123 94.7815 50.1376 94.6349 50.2325C94.4882 50.3273 94.3229 50.3897 94.1501 50.4151C94.0204 50.47 93.8798 50.4941 93.7392 50.4855C93.5987 50.4768 93.4621 50.4356 93.3401 50.3652C93.2304 50.2409 93.1699 50.0809 93.1699 49.9151C93.1699 49.7494 93.2304 49.5894 93.3401 49.4651C93.4741 49.2987 93.6452 49.1659 93.8396 49.0773C94.0341 48.9888 94.2466 48.9469 94.4601 48.9551C94.2201 48.9751 94.5701 48.9751 94.7901 49.1351Z" fill="white"/>
<path d="M90.3197 55.4951V55.6951C89.8755 56.7672 89.521 57.8744 89.2597 59.0051C89.2597 59.1651 89.1697 59.3251 89.1297 59.4851C88.8297 59.9851 88.5397 60.4851 88.2597 60.9951C87.2797 62.7085 86.353 64.4417 85.4797 66.1951L83.4297 65.1951C83.9873 62.7945 84.3816 60.359 84.6097 57.9051L84.5097 56.2551C86.4613 56.1334 88.4024 55.8795 90.3197 55.4951Z" fill="#FFED00"/>
<path d="M83.4597 65.1558L85.5098 66.1558C84.3564 68.4224 83.2931 70.7324 82.3198 73.0858L82.1698 73.0258C78.4779 75.3857 74.1814 76.6257 69.7997 76.5958H69.5098V76.2758C70.0298 71.6158 71.9998 67.9357 73.8898 64.1957C74.3598 63.2557 74.8297 62.3058 75.2697 61.3358C75.7097 60.3658 76.0298 59.5858 76.3498 58.6758C77.5952 57.9352 78.6446 56.9063 79.4098 55.6758C80.1599 56.1322 81.0342 56.342 81.9098 56.2758C82.7798 56.2758 83.6498 56.2757 84.5098 56.2057L84.6098 57.8558C84.392 60.3123 84.0077 62.7512 83.4597 65.1558Z" fill="#FFED00"/>
<path d="M75.5203 91.9756C75.5473 92.0511 75.5568 92.1317 75.5482 92.2114C75.5395 92.291 75.5129 92.3678 75.4703 92.4357C75.3742 92.5429 75.2513 92.6226 75.1142 92.6665C74.9771 92.7104 74.8308 92.7171 74.6903 92.6857C74.0673 92.633 73.4781 92.3805 73.0103 91.9656L72.8203 92.0457C72.1503 90.4657 71.4403 88.8957 70.8203 87.3057H70.9103C72.517 88.5224 73.9768 89.9217 75.2603 91.4756C75.3748 91.6263 75.4628 91.7954 75.5203 91.9756Z" fill="white"/>
<path d="M75.131 61.2749L75.301 61.3449C74.861 62.3449 74.391 63.2649 73.921 64.2049L73.661 64.0749C72.0399 64.3921 70.36 64.1891 68.861 63.4949C67.3885 62.8054 66.1784 61.6584 65.411 60.2249L65.041 60.1049L65.221 59.5449C65.5822 58.5615 65.8926 57.5602 66.151 56.5449H66.311C67.255 58.0208 68.5612 59.2303 70.1052 60.0583C71.6491 60.8863 73.3793 61.3051 75.131 61.2749Z" fill="#FFED00"/>
<path d="M73.6604 64.0754L73.9204 64.2054C72.0304 67.9454 70.0604 71.6255 69.5404 76.2855V76.6055C69.2004 79.6655 69.0304 82.5155 70.0904 85.4155C70.3204 86.0355 70.5604 86.6455 70.8204 87.2555C71.4704 88.8455 72.1804 90.4155 72.8204 91.9955C73.1304 92.7555 73.4404 93.5155 73.7204 94.2855C73.9304 94.8455 74.1004 95.5455 73.7204 95.9855C73.5471 96.1466 73.3283 96.2504 73.0939 96.2826C72.8594 96.3148 72.6208 96.2739 72.4104 96.1655C72.0022 95.9166 71.6593 95.5737 71.4104 95.1655C70.9481 94.5172 70.5527 93.8236 70.2304 93.0955C69.9798 92.0791 69.6727 91.0776 69.3104 90.0955C69.4824 91.1319 69.7918 92.1408 70.2304 93.0955C70.4843 94.13 70.6779 95.1785 70.8104 96.2355C70.8604 96.6255 70.8704 97.0855 70.5604 97.3155C70.4037 97.4154 70.2161 97.4552 70.0323 97.4276C69.8485 97.4 69.6809 97.3069 69.5604 97.1655C69.3216 96.8761 69.1568 96.5328 69.0804 96.1655C69.0804 96.0555 69.0204 95.9555 68.9804 95.8455C68.9582 95.5652 68.9113 95.2875 68.8404 95.0154C68.3817 93.2379 67.8208 91.4883 67.1604 89.7755C67.7704 91.7755 68.3804 93.7755 68.9804 95.8455C69.0053 96.0011 69.0053 96.1598 68.9804 96.3155C68.9562 96.5356 68.8595 96.7414 68.7057 96.9006C68.5519 97.0599 68.3495 97.1636 68.1304 97.1954C67.5404 97.2554 67.1304 96.6654 66.8404 96.1954C65.9204 94.4454 65.1504 91.1955 64.7104 90.6855L62.7104 90.2054L62.7704 89.9355C62.3814 85.216 62.2779 80.4774 62.4604 75.7455C62.6379 70.4361 63.5327 65.175 65.1204 60.1055L65.4904 60.2255C66.2578 61.6589 67.4679 62.806 68.9404 63.4955C70.4158 64.1728 72.065 64.3754 73.6604 64.0754Z" fill="white"/>
<path d="M64.661 90.6851C64.8493 92.3344 64.4023 93.9935 63.411 95.3251C63.041 95.8351 62.341 96.3251 61.831 95.9451C61.321 95.5651 61.481 94.9451 61.611 94.4751L62.611 90.2051L64.661 90.6851Z" fill="white"/>
<path d="M46.7701 60.7255L46.5302 60.8555C39.1968 64.1222 32.0135 67.6722 24.9802 71.5055L24.9202 71.4055C24.5417 69.7762 23.8076 68.2507 22.7702 66.9385C21.7329 65.6263 20.4181 64.5598 18.9202 63.8155L18.6602 63.6155C23.1108 57.7866 28.5214 52.758 34.6602 48.7455V48.6255C36.6951 48.364 38.7581 48.812 40.5013 49.894C42.2445 50.976 43.5615 52.6258 44.2302 54.5655C44.881 56.6942 45.7314 58.7567 46.7701 60.7255Z" fill="white"/>
<path d="M22.1108 72.7853C21.5851 73.7636 20.7573 74.5458 19.7507 75.0153C19.0582 75.3364 18.3042 75.5037 17.5408 75.5053C16.6251 76.5259 15.5988 77.4415 14.4808 78.2353L14.2507 77.9153C13.8624 77.4062 13.6286 76.7961 13.5772 76.1578C13.5258 75.5196 13.6589 74.88 13.9607 74.3153C14.3242 73.7468 14.7613 73.2289 15.2608 72.7753C15.7647 72.3156 16.1637 71.7529 16.4307 71.1253C16.5598 70.8126 16.5992 70.4701 16.5445 70.1362C16.4897 69.8024 16.343 69.4904 16.1207 69.2353L15.7107 69.0453C16.4176 67.5848 17.0062 66.0699 17.4707 64.5153L17.8908 64.6553C18.1508 64.3053 18.4008 63.9553 18.6708 63.6553L18.9307 63.8553C20.4287 64.5996 21.7435 65.6661 22.7808 66.9783C23.8182 68.2905 24.5523 69.8159 24.9307 71.4453L24.9907 71.5453L22.3707 72.9753L22.1108 72.7853Z" fill="#FFED00"/>
<path d="M15.7004 69.0457L16.1104 69.2357C16.3326 69.4908 16.4794 69.8028 16.5341 70.1367C16.5889 70.4705 16.5495 70.813 16.4204 71.1257C16.1446 71.7562 15.7352 72.3191 15.2204 72.7757C14.721 73.2294 14.2838 73.7473 13.9204 74.3158C13.6186 74.8805 13.4854 75.52 13.5368 76.1583C13.5883 76.7965 13.822 77.4066 14.2104 77.9157L14.4404 78.2357C11.8408 80.0879 8.819 81.2602 5.65039 81.6457C6.65039 81.1057 7.16039 78.8357 7.34039 77.7457C7.52039 76.6557 7.50041 75.5457 7.79041 74.4857C8.23484 73.1204 9.0114 71.8868 10.0504 70.8957C10.7904 70.1257 11.6004 69.4157 12.3604 68.6557C12.6104 68.4057 12.8504 68.1457 13.0904 67.8757C14.0401 66.8422 14.7672 65.6244 15.2265 64.2981C15.6858 62.9718 15.8675 61.5652 15.7604 60.1657C15.4404 57.3957 13.5104 53.3757 10.7604 52.7157C10.9303 52.7059 11.1005 52.7059 11.2704 52.7157C13.1703 52.6241 15.0337 53.2607 16.4804 54.4957C17.4465 55.6277 18.0586 57.0187 18.2404 58.4957C18.4623 60.0448 18.315 61.6244 17.8104 63.1057C17.6804 63.5757 17.5404 64.1057 17.3904 64.5257C16.948 66.0749 16.3829 67.5863 15.7004 69.0457Z" fill="#1D1D1B"/>
<path d="M15.7899 60.1653C15.897 61.5649 15.7153 62.9714 15.256 64.2977C14.7967 65.6241 14.0696 66.8418 13.1199 67.8754C12.8799 68.1454 12.6399 68.4053 12.3899 68.6553L11.5299 67.6553C9.54913 65.4121 7.75955 63.007 6.1799 60.4653L4.66992 59.8853C4.92992 59.2053 5.21991 58.5353 5.52991 57.8853C6.06032 56.6178 6.80448 55.4509 7.72992 54.4354C8.55293 53.5598 9.63038 52.965 10.8099 52.7354C13.5399 53.3754 15.4699 57.3953 15.7899 60.1653Z" fill="white"/>
<path d="M11.5299 67.6558L12.3899 68.6558C11.6299 69.4158 10.8199 70.1258 10.0799 70.8958C9.04089 71.8868 8.26433 73.1204 7.8199 74.4858C7.5299 75.5458 7.55989 76.6658 7.36989 77.7458C7.17989 78.8258 6.63988 81.1058 5.67988 81.6458C5.07057 81.7716 4.43869 81.7323 3.84968 81.5319C3.26068 81.3314 2.73596 80.9772 2.32988 80.5058C1.53193 79.5438 1.07484 78.3448 1.02989 77.0958C0.985081 75.8549 1.08575 74.6131 1.32988 73.3958C1.96902 68.7993 3.09538 64.2839 4.68989 59.9258L6.1999 60.5058C7.77502 63.0329 9.55784 65.4245 11.5299 67.6558Z" fill="white"/>
<path d="M2.92969 69.8457C3.80961 71.3156 4.78155 72.7284 5.83969 74.0757" stroke="#222120" stroke-width="0.5" stroke-linecap="round" stroke-linejoin="round"/>
<path d="M2.5 72.9756C3.36825 74.4777 4.37245 75.8969 5.5 77.2156" stroke="#222120" stroke-width="0.5" stroke-linecap="round" stroke-linejoin="round"/>
<path d="M2.2207 76.415C2.63575 77.4359 3.29096 78.3415 4.13071 79.0551" stroke="#222120" stroke-width="0.5" stroke-linecap="round" stroke-linejoin="round"/>
<path d="M67.2707 13.7353C57.0107 11.8753 44.9308 20.5953 42.4908 30.7353C41.8208 33.5353 39.2108 35.3753 36.7508 36.8653C34.2908 38.3553 31.6108 39.9752 30.5908 42.6652C29.5708 45.3552 31.5908 49.1852 34.3908 48.6652C34.4674 48.6604 34.5442 48.6604 34.6208 48.6652C36.6557 48.4037 38.7187 48.8517 40.4619 49.9337C42.2051 51.0157 43.5221 52.6656 44.1908 54.6052C44.8544 56.7354 45.7183 58.7979 46.7708 60.7652C49.4428 65.8088 53.1996 70.1974 57.7708 73.6153C60.3108 75.3553 60.7708 75.0652 62.2808 75.7852" stroke="#222120" stroke-linecap="round" stroke-linejoin="round"/>
<path d="M34.6394 48.7451C28.5006 52.7576 23.09 57.7862 18.6394 63.6151C18.3694 63.9551 18.1194 64.3051 17.8594 64.6151" stroke="#222120" stroke-linecap="round" stroke-linejoin="round"/>
<path d="M5.67969 81.6458C8.84829 81.2603 11.8701 80.088 14.4697 78.2358C15.5877 77.442 16.614 76.5264 17.5297 75.5059" stroke="#222120" stroke-linecap="round" stroke-linejoin="round"/>
<path d="M15.4297 75.0552C16.0896 75.3531 16.8056 75.5066 17.5297 75.5052C18.2931 75.5035 19.0471 75.3363 19.7397 75.0151C20.7462 74.5457 21.5741 73.7635 22.0997 72.7852C22.2872 72.4713 22.4351 72.1354 22.5397 71.7852" stroke="#222120" stroke-linecap="round" stroke-linejoin="round"/>
<path d="M22.3711 72.9758L24.9811 71.5358C32.0211 67.7091 39.2044 64.1591 46.5311 60.8857" stroke="#222120" stroke-linecap="round" stroke-linejoin="round"/>
<path d="M18.9199 63.8154C20.4179 64.5597 21.7327 65.6262 22.77 66.9384C23.8073 68.2506 24.5415 69.7761 24.9199 71.4054" stroke="#222120" stroke-linecap="round" stroke-linejoin="round"/>
<path d="M10.8301 52.7157C10.9999 52.7059 11.1702 52.7059 11.3401 52.7157C13.24 52.6241 15.1034 53.2607 16.5501 54.4957C17.5162 55.6277 18.1283 57.0187 18.3101 58.4957C18.532 60.0448 18.3847 61.6244 17.8801 63.1057C17.7501 63.5757 17.6101 64.1057 17.4601 64.5257C16.9955 66.0803 16.407 67.5952 15.7001 69.0557C15.1441 70.2191 14.4741 71.3245 13.7001 72.3557" stroke="#222120" stroke-linecap="round" stroke-linejoin="round"/>
<path d="M5.66035 81.6053C5.05104 81.7312 4.41916 81.6918 3.83015 81.4914C3.24115 81.291 2.71643 80.9367 2.31035 80.4653C1.5124 79.5034 1.05531 78.3044 1.01036 77.0554C0.965549 75.8145 1.06622 74.5727 1.31035 73.3553C1.94949 68.7589 3.07585 64.2435 4.67036 59.8853C4.93036 59.2053 5.22035 58.5353 5.53035 57.8853C6.06076 56.6178 6.80492 55.4509 7.73036 54.4354C8.55337 53.5598 9.63082 52.965 10.8103 52.7354" stroke="#222120" stroke-linecap="round" stroke-linejoin="round"/>
<path d="M16.1098 69.2354C16.332 69.4904 16.4787 69.8024 16.5335 70.1363C16.5882 70.4701 16.5488 70.8127 16.4198 71.1254C16.144 71.7558 15.7345 72.3187 15.2197 72.7753C14.7203 73.229 14.2832 73.7469 13.9198 74.3154C13.6179 74.8801 13.4848 75.5196 13.5362 76.1579C13.5876 76.7962 13.8214 77.4062 14.2097 77.9153" stroke="#222120" stroke-linecap="round" stroke-linejoin="round"/>
<path d="M10.8112 52.7158C13.5212 53.3758 15.4512 57.3958 15.8112 60.1658C15.9183 61.5653 15.7365 62.9719 15.2772 64.2982C14.8179 65.6245 14.0909 66.8423 13.1412 67.8759C12.9012 68.1459 12.6612 68.4058 12.4112 68.6558C11.6512 69.4158 10.8412 70.1258 10.1012 70.8958C9.06218 71.8869 8.28559 73.1205 7.84116 74.4858C7.55116 75.5458 7.58117 76.6658 7.39117 77.7458C7.20117 78.8258 6.66117 81.1058 5.70117 81.6458" stroke="#222120" stroke-linecap="round" stroke-linejoin="round"/>
<path d="M3.91992 66.9053C4.82533 68.5599 5.85846 70.1414 7.00992 71.6353" stroke="#222120" stroke-width="0.5" stroke-linecap="round" stroke-linejoin="round"/>
<path d="M5.05078 63.5957C6.32411 65.5557 7.65745 67.4657 9.05078 69.3257" stroke="#222120" stroke-width="0.5" stroke-linecap="round" stroke-linejoin="round"/>
<path d="M6.2207 60.4658C7.80035 63.0075 9.58993 65.4126 11.5707 67.6558" stroke="#222120" stroke-width="0.5" stroke-linecap="round" stroke-linejoin="round"/>
<path d="M7.35938 57.1152C8.95745 59.7844 10.8274 62.281 12.9394 64.5652" stroke="#222120" stroke-width="0.5" stroke-linecap="round" stroke-linejoin="round"/>
<path d="M9.48047 55.7559C10.6422 57.9111 12.1796 59.8414 14.0204 61.4558" stroke="#222120" stroke-width="0.5" stroke-linecap="round" stroke-linejoin="round"/>
<path d="M69.8008 76.6354C74.1994 76.675 78.5146 75.4347 82.2208 73.0654" stroke="#222120" stroke-linecap="round" stroke-linejoin="round"/>
<path d="M93.75 68.6054C97.61 67.9554 101.14 67.2454 104.33 64.9754C105.047 64.4631 105.716 63.8875 106.33 63.2554C107.056 62.4891 107.724 61.6702 108.33 60.8054C109.22 59.5959 109.896 58.243 110.33 56.8054C110.741 55.432 110.86 53.9877 110.68 52.5654C110.521 51.4801 110.098 50.4502 109.45 49.5654" stroke="#222120" stroke-linecap="round" stroke-linejoin="round"/>
<path d="M106.311 63.2559C110.177 64.4743 113.93 66.0233 117.531 67.8858C119.82 69.2869 122.014 70.837 124.101 72.5258L125.471 73.5958L129.621 76.8159" stroke="#222120" stroke-linecap="round" stroke-linejoin="round"/>
<path d="M110.641 52.5557H110.691C115.198 54.3049 119.372 56.8146 123.031 59.9756C125.451 62.0956 127.841 64.2857 130.431 66.1857C131.57 67.0306 132.763 67.8021 134.001 68.4957" stroke="#222120" stroke-linecap="round" stroke-linejoin="round"/>
<path d="M134.22 72.2855C134.463 72.5198 134.775 72.6704 135.11 72.7155C135.887 72.7078 136.649 72.4975 137.32 72.1055C138.125 71.8183 138.951 71.591 139.79 71.4255C140.634 71.2486 141.436 70.909 142.15 70.4255C142.505 70.1833 142.801 69.8643 143.015 69.4921C143.23 69.1198 143.358 68.704 143.39 68.2755C143.401 67.8463 143.261 67.4268 142.994 67.0904C142.727 66.754 142.35 66.5222 141.93 66.4355C141.132 66.4691 140.362 66.7407 139.72 67.2155C139.524 67.3058 139.324 67.3859 139.12 67.4555L138.51 67.5955C137.95 67.7255 137.64 67.7955 137.01 67.9155C136.169 67.9739 135.355 68.2384 134.64 68.6855L134.42 68.8755C134.162 69.1028 133.951 69.3788 133.8 69.6877C133.649 69.9966 133.561 70.3323 133.54 70.6755C133.524 70.9779 133.577 71.2798 133.695 71.5587C133.813 71.8376 133.992 72.0861 134.22 72.2855Z" stroke="#222120" stroke-linecap="round" stroke-linejoin="round"/>
<path d="M128.65 74.5059C129.013 74.8528 129.45 75.1124 129.929 75.2649C130.407 75.4174 130.914 75.4587 131.41 75.3858" stroke="#222120" stroke-linecap="round" stroke-linejoin="round"/>
<path d="M134.56 81.1855C134.38 81.0355 132.23 79.2655 130.98 78.1855" stroke="#222120" stroke-linecap="round" stroke-linejoin="round"/>
<path d="M130.971 78.1758C132.029 79.327 133.232 80.3355 134.551 81.1758" stroke="#222120" stroke-linecap="round" stroke-linejoin="round"/>
<path d="M130.949 78.1554C130.509 77.7754 130.189 77.4954 130.099 77.3854C130.008 77.2875 129.928 77.1803 129.859 77.0654C129.859 77.0654 130.319 77.5354 130.949 78.1554Z" stroke="#222120" stroke-linecap="round" stroke-linejoin="round"/>
<path d="M130.221 66.4756C130.284 67.9287 129.892 69.3652 129.101 70.5856C128.191 71.9056 126.93 72.9448 125.461 73.5856" stroke="#222120" stroke-linecap="round" stroke-linejoin="round"/>
<path d="M134.561 81.1853C136.211 81.6953 137.981 80.8253 139.301 79.7053C140.496 78.4597 141.805 77.3281 143.211 76.3253C145.431 75.0653 148.311 75.1053 150.271 73.4653C150.817 73.0141 151.261 72.4519 151.574 71.816C151.887 71.18 152.06 70.4849 152.084 69.7767C152.108 69.0684 151.981 68.3633 151.711 67.7079C151.441 67.0526 151.036 66.462 150.521 65.9753C149.659 65.2448 148.629 64.7413 147.523 64.5107C146.418 64.2802 145.272 64.3299 144.19 64.6553C142 65.1953 140.981 66.8953 138.551 67.6553" stroke="#222120" stroke-linecap="round" stroke-linejoin="round"/>
<path d="M105.681 45.7852C105.341 46.9264 104.791 47.9945 104.061 48.9352C103.112 50.1562 101.954 51.199 100.641 52.0151C98.2766 53.4047 95.7036 54.4042 93.0211 54.9752C92.1211 55.1818 91.2211 55.3718 90.3211 55.5452C88.4128 55.9147 86.4818 56.1553 84.5411 56.2651C83.6811 56.3251 82.8111 56.3451 81.9411 56.3351C81.0655 56.4014 80.1912 56.1916 79.4411 55.7352L79.3711 55.6852" stroke="#222120" stroke-linecap="round" stroke-linejoin="round"/>
<path d="M73.9395 37.5053C75.0147 37.0252 76.2354 36.9856 77.3394 37.3952C78.4348 37.8177 79.3262 38.6446 79.8294 39.7052C80.284 40.9176 80.4716 42.2138 80.3795 43.5053V45.6253" stroke="#222120" stroke-linecap="round" stroke-linejoin="round"/>
<path d="M42.2207 39.7358C48.4945 39.2456 54.7969 39.2456 61.0707 39.7358" stroke="#222120" stroke-linecap="round" stroke-linejoin="round"/>
<path d="M51.5098 34.7754C56.2013 35.164 60.8302 36.1072 65.2997 37.5854" stroke="#222120" stroke-linecap="round" stroke-linejoin="round"/>
<path d="M60.5209 49.5752C62.2179 50.9292 64.0472 52.1085 65.981 53.0952L54.4609 60.4752" stroke="#222120" stroke-linecap="round" stroke-linejoin="round"/>
<path d="M84.641 57.8652C84.4128 60.3191 84.0186 62.7547 83.4609 65.1552" stroke="#222120" stroke-linecap="round" stroke-linejoin="round"/>
<path d="M92.0508 57.975C93.8163 56.8624 95.8082 56.1586 97.8808 55.915" stroke="#222120" stroke-linecap="round" stroke-linejoin="round"/>
<path d="M70.2196 93.1254C70.5419 93.8535 70.9372 94.547 71.3996 95.1953C71.6484 95.6036 71.9913 95.9464 72.3996 96.1953C72.6099 96.3037 72.8486 96.3447 73.083 96.3124C73.3175 96.2802 73.5363 96.1765 73.7096 96.0153C74.1096 95.5753 73.9396 94.8754 73.7096 94.3154C73.4296 93.5454 73.1196 92.7853 72.8096 92.0253C72.1396 90.4453 71.4296 88.8753 70.8096 87.2853C70.5496 86.6753 70.3096 86.0653 70.0796 85.4453C69.0196 82.5453 69.1896 79.6953 69.5296 76.6353V76.3154C70.0496 71.6554 72.0196 67.9754 73.9096 64.2354C74.3796 63.2954 74.8496 62.3454 75.2896 61.3754C75.7296 60.4054 76.0496 59.6253 76.3696 58.7153C77.615 57.9747 78.6644 56.9459 79.4296 55.7153C79.7686 55.1939 80.0503 54.6374 80.2696 54.0554C81.0013 52.1071 81.0576 49.9695 80.4296 47.9854" stroke="#222120" stroke-linecap="round" stroke-linejoin="round"/>
<path d="M70.2208 93.125C69.9702 92.1087 69.663 91.1071 69.3008 90.125C69.4728 91.1614 69.7822 92.1703 70.2208 93.125Z" stroke="#222120" stroke-linecap="round" stroke-linejoin="round"/>
<path d="M68.9512 95.8955C68.9512 96.0055 69.0211 96.1055 69.0511 96.2155C69.1276 96.5829 69.2923 96.9261 69.5312 97.2155C69.6517 97.357 69.8193 97.4501 70.0031 97.4777C70.1869 97.5052 70.3744 97.4654 70.5312 97.3655C70.8412 97.1355 70.8312 96.6755 70.7812 96.2855C70.6487 95.2285 70.455 94.1801 70.2012 93.1455" stroke="#222120" stroke-linecap="round" stroke-linejoin="round"/>
<path d="M68.9509 95.8952C68.9286 95.615 68.8817 95.3373 68.8109 95.0652C68.3522 93.2877 67.7912 91.5381 67.1309 89.8252C67.7409 91.8452 68.3509 93.8752 68.9509 95.8952Z" stroke="#222120" stroke-linecap="round" stroke-linejoin="round"/>
<path d="M69.0995 42.2354C68.1795 42.6654 65.2995 47.4353 65.6995 50.5453C65.8695 51.8753 66.3495 53.1753 66.3895 54.5453C66.3999 55.2461 66.3192 55.9453 66.1495 56.6254C65.8911 57.6406 65.5807 58.642 65.2195 59.6254L65.0395 60.1854C63.4519 65.2549 62.5571 70.5159 62.3795 75.8253C62.197 80.5572 62.3005 85.2959 62.6895 90.0153L62.6295 90.2853L61.6295 94.5554C61.4995 95.0654 61.4295 95.7153 61.8495 96.0253C62.2695 96.3353 63.0595 95.9153 63.4295 95.4053C64.4208 94.0738 64.8678 92.4146 64.6795 90.7653C65.1195 91.2753 65.8895 94.5253 66.8095 96.2753C67.0895 96.7953 67.5095 97.3853 68.0995 97.2753C68.3186 97.2434 68.521 97.1398 68.6748 96.9805C68.8286 96.8213 68.9253 96.6154 68.9495 96.3953C68.9744 96.2396 68.9744 96.081 68.9495 95.9254" stroke="#222120" stroke-linecap="round" stroke-linejoin="round"/>
<path d="M90.3499 55.6953C89.9057 56.7675 89.5512 57.8746 89.2899 59.0054C89.2899 59.1654 89.1999 59.3254 89.1599 59.4854C88.8599 59.9854 88.5699 60.4854 88.2899 60.9954C87.3099 62.7087 86.3833 64.442 85.5099 66.1953C84.3566 68.462 83.2932 70.772 82.3199 73.1254C81.1899 75.8454 80.1599 78.6253 79.2499 81.4553C78.2853 82.6526 77.7879 84.1591 77.8499 85.6953C77.9159 87.2201 77.778 88.747 77.4399 90.2354C77.2961 90.5971 77.2051 90.9777 77.1699 91.3654C77.1705 91.5123 77.1976 91.658 77.2499 91.7953C77.2886 91.9087 77.3516 92.0122 77.4345 92.0986C77.5174 92.185 77.6183 92.2521 77.7299 92.2953C78.2899 92.4653 78.7799 91.8854 79.0599 91.3654C79.6599 90.2554 80.1599 89.0853 80.6399 87.9553C81.3466 90.2753 82.1266 92.5687 82.9799 94.8353C83.0955 95.2059 83.29 95.547 83.5499 95.8353C83.6874 95.9755 83.8632 96.072 84.0553 96.1129C84.2474 96.1538 84.4472 96.1373 84.6299 96.0654C85.1499 95.7854 85.0999 95.0653 84.9599 94.4453C84.5199 92.6253 83.9599 90.8253 83.6099 89.2653C84.4592 91.4497 85.5671 93.5245 86.9099 95.4453C87.0745 95.7161 87.2922 95.9508 87.5499 96.1353C87.6761 96.2264 87.8249 96.2812 87.9801 96.2935C88.1353 96.3059 88.2909 96.2754 88.4299 96.2053C88.5724 96.11 88.6836 95.9746 88.7494 95.8163C88.8153 95.6579 88.8328 95.4837 88.7999 95.3154C88.7596 95.0595 88.6678 94.8146 88.5299 94.5953L88.3999 94.3754L85.4899 89.4653" stroke="#222120" stroke-linecap="round" stroke-linejoin="round"/>
<path d="M88.9905 94.6753C89.2115 94.5414 89.3863 94.3433 89.4917 94.1074C89.5971 93.8716 89.6281 93.6092 89.5805 93.3553C89.4733 92.8488 89.2585 92.3714 88.9506 91.9553L88.6306 91.4453L86.5605 88.1553" stroke="#222120" stroke-linecap="round" stroke-linejoin="round"/>
<path d="M88.9705 91.2357C88.599 89.0494 87.7821 86.9629 86.5705 85.1057C86.213 84.6049 85.9017 84.0727 85.6405 83.5156C85.5118 83.2242 85.4453 82.9092 85.4453 82.5906C85.4453 82.2721 85.5118 81.9571 85.6405 81.6656C87.9941 77.1004 90.713 72.7328 93.7704 68.6057C94.5104 67.6057 95.2804 66.6057 96.0804 65.6057C96.8804 64.6057 97.5905 63.7756 98.3705 62.8856L98.7704 62.4357C100.534 61.8506 102.09 60.7669 103.25 59.3157C104.395 57.8677 105.4 56.314 106.25 54.6757L109.25 49.3956L109.77 48.4656C110.41 47.3356 111.24 45.2957 110.77 44.0457C110.742 43.9622 110.705 43.8818 110.66 43.8057" stroke="#222120" stroke-linecap="round" stroke-linejoin="round"/>
<path d="M88.4004 61.0557C88.9622 62.5044 89.9965 63.721 91.3359 64.5087C92.6753 65.2963 94.2413 65.6088 95.7804 65.3956" stroke="#222120" stroke-linecap="round" stroke-linejoin="round"/>
<path d="M90.6211 59.3955C91.5865 60.4958 92.7752 61.3779 94.1081 61.9831C95.4409 62.5883 96.8873 62.9027 98.3511 62.9055" stroke="#222120" stroke-linecap="round" stroke-linejoin="round"/>
<path d="M65.4102 60.2256C66.1775 61.6591 67.3877 62.8061 68.8602 63.4956C70.3591 64.1898 72.039 64.3927 73.6602 64.0756" stroke="#222120" stroke-linecap="round" stroke-linejoin="round"/>
<path d="M70.8809 87.2158C72.4876 88.4325 73.9474 89.8319 75.2309 91.3858C75.3602 91.5462 75.4585 91.7294 75.5208 91.9258C75.5478 92.0013 75.5574 92.0819 75.5487 92.1616C75.54 92.2412 75.5134 92.3179 75.4709 92.3858C75.3748 92.493 75.2519 92.5728 75.1148 92.6167C74.9777 92.6606 74.8314 92.6672 74.6909 92.6358C74.0679 92.5832 73.4786 92.3306 73.0109 91.9158" stroke="#222120" stroke-linecap="round" stroke-linejoin="round"/>
<path d="M100.31 29.4854L99.4004 30.8353" stroke="#222120" stroke-linecap="round" stroke-linejoin="round"/>
<path d="M111.481 33.6152C111.13 34.0304 110.844 34.4955 110.631 34.9952" stroke="#222120" stroke-linecap="round" stroke-linejoin="round"/>
<path d="M103.109 38.3354C103.427 38.7196 103.827 39.0273 104.279 39.2354C104.503 39.3413 104.747 39.3962 104.994 39.3962C105.242 39.3962 105.486 39.3413 105.709 39.2354C105.888 39.1266 106.042 38.9812 106.161 38.8089C106.28 38.6366 106.361 38.4412 106.399 38.2354C106.475 37.8394 106.423 37.4294 106.249 37.0654" stroke="#222120" stroke-width="0.5" stroke-linecap="round" stroke-linejoin="round"/>
<path d="M96.9297 38.3857C99.4119 40.3176 102.464 41.3725 105.61 41.3857" stroke="#222120" stroke-width="0.5" stroke-linecap="round" stroke-linejoin="round"/>
<path d="M89.3906 31.4258C89.4906 31.7558 89.6006 32.0858 89.7106 32.4258C90.5433 35.3349 91.8656 38.0808 93.6206 40.5458C95.1852 42.6467 97.3943 44.1779 99.9106 44.9058C100.655 45.098 101.422 45.1855 102.191 45.1658C102.64 45.1526 103.087 45.1092 103.531 45.0358C104.785 44.7856 106.006 44.393 107.171 43.8658C107.701 43.6358 108.231 43.3958 108.751 43.1258C109.84 42.6048 110.851 41.9314 111.751 41.1258C114.471 38.5758 115.871 33.5058 118.081 32.2458" stroke="#222120" stroke-linecap="round" stroke-linejoin="round"/>
<path d="M80.4395 9.20543C80.4395 9.08543 80.5195 8.96541 80.5695 8.84541C80.9833 7.97031 81.5987 7.20584 82.3654 6.61479C83.132 6.02374 84.0279 5.62299 84.9795 5.44542C86.9986 5.16569 89.0452 5.14552 91.0695 5.38542C94.4753 3.40521 98.1961 2.02511 102.069 1.3054C105.981 0.595422 110.018 1.13054 113.609 2.8354C118.609 5.3454 121.859 10.4554 123.169 15.8354C123.669 17.8354 123.909 19.9754 124.359 22.0254C124.732 24.104 125.54 26.0804 126.729 27.8254C127.33 28.6926 128.107 29.4227 129.011 29.9674C129.914 30.5121 130.922 30.8591 131.969 30.9854C133.012 31.07 134.056 30.8373 134.965 30.318C135.873 29.7987 136.603 29.017 137.059 28.0754C137.152 28.8068 137.05 29.5498 136.764 30.2293C136.478 30.9088 136.018 31.5008 135.429 31.9454C134.232 32.8225 132.741 33.2024 131.269 33.0054C129.876 32.8314 128.554 32.2895 127.439 31.4354C128.709 33.0956 130.107 34.6537 131.619 36.0954C133.135 37.539 134.369 39.2513 135.259 41.1454C135.695 42.0874 135.915 43.1145 135.905 44.1522C135.895 45.1899 135.654 46.2123 135.199 47.1454C134.707 48.0711 133.908 48.7968 132.939 49.1981C131.97 49.5995 130.892 49.6515 129.889 49.3454C131.27 48.9458 132.436 48.0142 133.129 46.7554C133.48 46.1335 133.614 45.4122 133.509 44.7059C133.404 43.9995 133.066 43.3484 132.549 42.8554C131.589 44.8647 129.985 46.4959 127.993 47.4904C126 48.4849 123.733 48.7858 121.549 48.3454C123.862 47.233 125.777 45.4393 127.039 43.2054C125.652 45.2458 123.702 46.8395 121.426 47.7927C119.151 48.746 116.647 49.0179 114.219 48.5754C116.352 48.1462 118.286 47.0333 119.729 45.4054C117.964 46.2386 116.019 46.6233 114.069 46.5254C115.985 45.9501 117.626 44.6994 118.689 43.0054C116.171 43.9416 113.439 44.1461 110.809 43.5954C110.099 43.4654 109.409 43.3054 108.729 43.1154" stroke="#222120" stroke-linecap="round" stroke-linejoin="round"/>
<path d="M96.0012 10.7253C93.3747 11.9312 90.4167 12.2097 87.6112 11.5153C85.1612 11.0353 82.8012 10.1753 80.3812 9.51527C80.0312 9.41527 79.6812 9.32525 79.3212 9.24525C77.542 8.77403 75.6923 8.62836 73.8612 8.81526C72.0201 9.00668 70.3058 9.84257 69.0212 11.1753C68.349 11.9213 67.8867 12.8323 67.6812 13.8153C67.5 14.6345 67.5414 15.4874 67.8012 16.2853C67.9968 15.3354 68.4271 14.4495 69.0528 13.7085C69.6785 12.9676 70.4797 12.395 71.3835 12.043C72.2872 11.6911 73.2646 11.571 74.2267 11.6936C75.1887 11.8163 76.1047 12.1778 76.8912 12.7453" stroke="#222120" stroke-linecap="round" stroke-linejoin="round"/>
<path d="M87.5597 15.5356C85.8548 14.6276 84.0749 13.8681 82.2397 13.2656C80.5201 12.7103 78.6929 12.5731 76.9097 12.8656L76.5097 12.9456C74.7618 13.4398 73.1368 14.2949 71.7397 15.4556C69.8128 16.8033 68.2413 18.5978 67.1597 20.6856C66.4731 22.2104 66.1906 23.8863 66.3395 25.5519C66.4883 27.2175 67.0635 28.8167 68.0097 30.1956C67.5397 29.2907 67.3206 28.2765 67.3751 27.2583C67.4296 26.2401 67.7557 25.2551 68.3197 24.4056C69.4982 22.7092 71.292 21.5396 73.3197 21.1456C75.3141 20.7693 77.369 20.8652 79.3197 21.4256C78.2428 21.3106 77.1541 21.4603 76.1482 21.8617C75.1423 22.2632 74.2497 22.9043 73.548 23.7292C72.8462 24.5541 72.3566 25.538 72.1216 26.5952C71.8866 27.6525 71.9134 28.7511 72.1997 29.7956C72.4416 28.5415 72.9952 27.3685 73.8096 26.3846C74.624 25.4007 75.6729 24.6376 76.8597 24.1656C75.4624 25.3096 74.5366 26.9291 74.2597 28.7136C73.9829 30.4982 74.3746 32.3221 75.3597 33.8356C75.1913 32.2782 75.4927 30.7061 76.2252 29.3214C76.9576 27.9368 78.0876 26.8029 79.4697 26.0656C78.8562 26.9635 78.4378 27.9799 78.2414 29.0494C78.045 30.1189 78.0749 31.2177 78.3294 32.2749C78.5838 33.3321 79.057 34.3242 79.7184 35.1873C80.3799 36.0503 81.2149 36.7651 82.1697 37.2856C81.5806 35.5895 81.6484 33.7342 82.3597 32.0856C83.0874 30.4459 84.394 29.1322 86.0297 28.3956C85.4034 28.8498 84.9277 29.4814 84.6639 30.2086C84.4001 30.9359 84.3603 31.7255 84.5497 32.4756C84.6842 33.0909 84.9064 33.6836 85.2097 34.2356C85.6462 35.0354 86.1622 35.7892 86.7497 36.4856C86.4983 36.0165 86.3528 35.498 86.3236 34.9666C86.2943 34.4352 86.3819 33.9038 86.5802 33.4099C86.7785 32.916 87.0827 32.4717 87.4714 32.1081C87.86 31.7445 88.3237 31.4706 88.8297 31.3056" stroke="#222120" stroke-linecap="round" stroke-linejoin="round"/>
<path d="M86.6309 29.9758C86.9709 29.9758 87.3009 29.9058 87.6309 29.8458C89.7649 29.4969 91.7983 28.6907 93.5916 27.4825C95.385 26.2743 96.8959 24.6926 98.0208 22.8458C99.593 22.9724 101.175 22.7827 102.672 22.2881C104.17 21.7934 105.553 21.0038 106.741 19.9658C106.415 21.8954 105.399 23.6406 103.881 24.8759C102.594 25.9758 100.989 26.6347 99.3008 26.7559C101.076 26.8781 102.845 26.4334 104.351 25.4858C104.541 25.3558 104.731 25.2258 104.911 25.0858C106.505 23.8483 107.59 22.0694 107.961 20.0858C108.728 22.1949 108.86 24.4825 108.341 26.6658C108.065 27.7494 107.508 28.7406 106.724 29.5382C105.941 30.3358 104.959 30.9112 103.881 31.2058C106.556 31.4818 109.246 30.8324 111.5 29.3657C113.755 27.8989 115.439 25.7036 116.271 23.1458C116.512 24.0139 116.576 24.9216 116.459 25.8149C116.342 26.7082 116.047 27.5689 115.591 28.3458C116.13 28.0835 116.609 27.7113 116.997 27.2533C117.384 26.7953 117.672 26.2614 117.841 25.6859C118.345 27.812 118.437 30.0151 118.111 32.1758" stroke="#222120" stroke-linecap="round" stroke-linejoin="round"/>
<path d="M101.59 22.6953C102.437 23.3168 103.206 24.0387 103.88 24.8453C104.048 25.0394 104.205 25.243 104.35 25.4553C104.788 26.0259 105.172 26.6351 105.5 27.2753" stroke="#222120" stroke-width="0.5" stroke-linecap="round" stroke-linejoin="round"/>
<path d="M111.471 30.8156C112.267 30.2425 113.231 29.9494 114.211 29.9819C115.192 30.0145 116.134 30.3709 116.891 30.9956" stroke="#222120" stroke-width="0.5" stroke-linecap="round" stroke-linejoin="round"/>
<path d="M87.6699 30.0254C87.7211 30.3238 87.858 30.601 88.064 30.8229C88.27 31.0449 88.5361 31.2021 88.8299 31.2754C89.0102 31.3367 89.1995 31.3672 89.3899 31.3654" stroke="#222120" stroke-linecap="round" stroke-linejoin="round"/>
<path d="M89.3613 32.5254C88.8921 34.1862 88.8303 35.9357 89.1813 37.6254C89.5317 39.3086 90.0998 40.939 90.8713 42.4754C91.23 43.2844 91.7013 44.0385 92.2713 44.7154C93.0615 45.5873 94.115 46.1772 95.2713 46.3954C95.5061 46.4368 95.7432 46.4636 95.9813 46.4754C97.408 46.5303 98.7987 46.02 99.8513 45.0554" stroke="#222120" stroke-linecap="round" stroke-linejoin="round"/>
<path d="M85.121 34.2754C84.4978 35.0541 84.1217 36.0013 84.041 36.9954C83.9683 37.9968 84.0085 39.0031 84.161 39.9954C84.461 42.4654 84.921 44.9954 86.391 46.9954C86.9305 47.8224 87.7453 48.4317 88.691 48.7154C89.683 48.8636 90.6966 48.6994 91.591 48.2454C92.482 47.7985 93.4312 47.4787 94.411 47.2954C94.647 47.2705 94.885 47.2705 95.121 47.2954C95.7877 47.344 96.4328 47.5533 97.001 47.9054C97.691 48.3454 98.241 48.9954 99.001 49.3854C99.5837 49.6869 100.242 49.8107 100.895 49.7414C101.547 49.6721 102.165 49.4127 102.671 48.9954C102.763 48.9173 102.849 48.8338 102.931 48.7454C103.332 48.3059 103.609 47.7679 103.733 47.1863C103.858 46.6048 103.826 46.0006 103.641 45.4354" stroke="#222120" stroke-linecap="round" stroke-linejoin="round"/>
<path d="M94.5011 48.9756C94.2876 48.9674 94.0751 49.0093 93.8806 49.0978C93.6862 49.1864 93.5151 49.3192 93.3811 49.4856C93.2715 49.6099 93.2109 49.7699 93.2109 49.9356C93.2109 50.1014 93.2715 50.2613 93.3811 50.3856C93.5031 50.456 93.6397 50.4972 93.7802 50.5059C93.9208 50.5146 94.0615 50.4906 94.1911 50.4356C94.3639 50.4102 94.5292 50.3479 94.6759 50.253C94.8225 50.1581 94.9471 50.0328 95.0411 49.8856C95.0938 49.7581 95.1018 49.6165 95.0636 49.4839C95.0255 49.3513 94.9435 49.2356 94.8311 49.1556C94.5711 48.9756 94.2211 48.9756 94.5011 48.9756Z" stroke="#222120" stroke-width="0.5" stroke-linecap="round" stroke-linejoin="round"/>
<path d="M66.3105 56.6357C67.2652 58.0949 68.5761 59.2867 70.1193 60.0986C71.6626 60.9104 73.3873 61.3156 75.1306 61.2758" stroke="#222120" stroke-miterlimit="10"/>
<path d="M134.219 72.3857C134.048 73.4223 133.598 74.3929 132.918 75.1942C132.238 75.9954 131.354 76.5973 130.359 76.9358" stroke="#222120" stroke-linecap="round" stroke-linejoin="round"/>
</svg>
