<svg width="200" height="211" viewBox="0 0 200 211" fill="none" xmlns="http://www.w3.org/2000/svg">
<rect x="84.75" y="120.505" width="56.2498" height="27.0001" fill="#FDF539"/>
<rect x="51" y="152.005" width="56.2498" height="27.0001" fill="#FDF539"/>
<rect x="51" y="183.504" width="15.7499" height="27.0001" fill="#FDF539"/>
<rect x="107.25" y="183.504" width="33.7499" height="27.0001" fill="#FDF539"/>
<rect x="114" y="152.005" width="26.9999" height="27.0001" fill="black"/>
<rect x="73.5" y="183.504" width="26.9999" height="27.0001" fill="black"/>
<rect x="51" y="120.505" width="26.9999" height="27.0001" fill="black"/>
<path d="M64.006 126.819C66.4318 126.819 68.391 127.341 69.8837 128.386C71.3951 129.412 72.1508 130.989 72.1508 133.116H66.749C66.749 131.437 65.8347 130.597 64.006 130.597C62.1774 130.597 61.2631 131.652 61.2631 133.76V135.356C61.2631 137.445 62.2148 138.49 64.118 138.49C66.0212 138.49 66.9729 137.632 66.9729 135.915H72.1508C72.1508 138.061 71.3951 139.656 69.8837 140.701C68.391 141.746 66.4318 142.269 64.006 142.269C61.4124 142.269 59.3786 141.616 57.9045 140.31C56.4304 139.003 55.6934 137.081 55.6934 134.544C55.6934 132.006 56.4304 130.084 57.9045 128.778C59.3786 127.472 61.4124 126.819 64.006 126.819Z" fill="white"/>
<path d="M86.6271 189.126C89.0528 189.126 91.0121 189.649 92.5048 190.694C94.0162 191.72 94.7719 193.297 94.7719 195.424H89.3701C89.3701 193.745 88.4557 192.905 86.6271 192.905C84.7985 192.905 83.8842 193.959 83.8842 196.068V197.663C83.8842 199.753 84.8359 200.798 86.7391 200.798C88.6423 200.798 89.594 199.94 89.594 198.223H94.7719C94.7719 200.369 94.0162 201.964 92.5048 203.009C91.0121 204.054 89.0528 204.576 86.6271 204.576C84.0335 204.576 81.9997 203.923 80.5256 202.617C79.0515 201.311 78.3145 199.389 78.3145 196.851C78.3145 194.314 79.0515 192.392 80.5256 191.086C81.9997 189.78 84.0335 189.126 86.6271 189.126Z" fill="white"/>
<path d="M129.573 155.203C131.57 155.203 133.109 155.856 134.192 157.162C135.274 158.469 135.815 160.4 135.815 162.956C135.815 165.494 135.274 167.416 134.192 168.722C133.109 170.009 131.57 170.653 129.573 170.653C127.857 170.653 126.476 170.093 125.431 168.974V175.831H119.861V155.539H124.396L124.871 157.638C125.954 156.015 127.521 155.203 129.573 155.203ZM127.838 159.318C127.017 159.318 126.401 159.607 125.991 160.185C125.58 160.764 125.375 161.519 125.375 162.452V163.376C125.375 164.309 125.58 165.074 125.991 165.671C126.401 166.249 127.017 166.539 127.838 166.539C129.443 166.539 130.245 165.578 130.245 163.656V162.172C130.245 160.269 129.443 159.318 127.838 159.318Z" fill="white"/>
<path d="M175.688 89.6645L176.292 90.1767C175.953 90.4752 175.676 90.8377 175.478 91.2434C175.28 91.6492 175.163 92.0901 175.136 92.5408C175.119 92.9336 175.191 93.3251 175.345 93.6866C175.5 94.048 175.733 94.3702 176.029 94.6293V94.7606C175.803 96.122 175.213 97.3969 174.32 98.4492C173.427 99.5016 172.266 100.292 170.959 100.737L170.316 100.908L170 100.579L164.615 96.4024L164.983 95.9295C166.76 95.2252 168.278 93.9918 169.331 92.3964C170.342 90.7844 170.829 88.8983 170.723 86.9982L170.985 86.6304C172.487 87.7406 174.057 88.754 175.688 89.6645Z" fill="#FFED00"/>
<path d="M28.7284 95.2857C28.038 96.5707 26.9506 97.598 25.6286 98.2146C24.719 98.6365 23.7286 98.8561 22.7259 98.8583C21.5232 100.199 20.1753 101.401 18.7068 102.444L18.4047 102.024C17.8946 101.355 17.5876 100.554 17.52 99.7153C17.4525 98.877 17.6273 98.037 18.0238 97.2953C18.5011 96.5486 19.0753 95.8684 19.7313 95.2725C20.3932 94.6688 20.9173 93.9297 21.268 93.1054C21.4375 92.6946 21.4893 92.2448 21.4174 91.8063C21.3455 91.3678 21.1527 90.958 20.8608 90.623L20.3223 90.3734C21.2507 88.4551 22.0238 86.4654 22.634 84.4235L23.1856 84.6074C23.5271 84.1477 23.8555 83.688 24.2101 83.2939L24.5516 83.5566C26.5191 84.5343 28.246 85.935 29.6085 87.6585C30.9709 89.382 31.9352 91.3856 32.4322 93.5256L32.511 93.657L29.0698 95.5352L28.7284 95.2857Z" fill="#FFED00"/>
<path d="M197.387 86.3412C198.064 86.9803 198.597 87.7561 198.951 88.6168C199.305 89.4776 199.472 90.4038 199.441 91.334C199.41 92.2642 199.181 93.1772 198.771 94.0125C198.36 94.8477 197.777 95.5862 197.059 96.1788C194.432 98.3329 190.702 98.2803 187.786 99.9352C185.94 101.252 184.221 102.739 182.651 104.375C180.917 105.846 178.592 107.002 176.425 106.319C176.188 106.122 173.364 103.797 171.723 102.378C170.895 101.564 170.317 100.947 170.291 100.947L170.935 100.776C172.241 100.331 173.403 99.5407 174.295 98.4883C175.188 97.4359 175.779 96.1612 176.005 94.7997V94.6684C176.324 94.9761 176.734 95.1739 177.173 95.2332C178.194 95.223 179.195 94.9468 180.076 94.4319C181.134 94.0546 182.218 93.7561 183.32 93.5388C184.429 93.3064 185.482 92.8603 186.42 92.2254C186.886 91.9072 187.275 91.4882 187.557 90.9993C187.839 90.5104 188.007 89.9643 188.049 89.4015C188.063 88.8377 187.879 88.2866 187.529 87.8448C187.178 87.403 186.683 87.0986 186.131 86.9847C185.083 87.0288 184.072 87.3856 183.228 88.0093C182.971 88.1279 182.708 88.2331 182.44 88.3245L181.639 88.5084C184.831 87.5627 186.171 85.3299 189.047 84.5681C190.474 84.1412 191.986 84.0799 193.444 84.3897C194.901 84.6995 196.257 85.3705 197.387 86.3412Z" fill="#1D1D1B"/>
<path d="M186.155 86.9717C186.707 87.0855 187.202 87.39 187.553 87.8318C187.903 88.2736 188.087 88.8246 188.073 89.3884C188.031 89.9513 187.863 90.4973 187.581 90.9862C187.299 91.4751 186.91 91.8942 186.444 92.2123C185.506 92.8473 184.453 93.2934 183.344 93.5257C182.242 93.743 181.158 94.0416 180.1 94.4189C179.219 94.9338 178.218 95.2099 177.197 95.2201C176.758 95.1608 176.348 94.963 176.028 94.6553C175.733 94.3963 175.499 94.0741 175.344 93.7127C175.19 93.3512 175.118 92.9597 175.135 92.5669C175.163 92.1162 175.279 91.6753 175.477 91.2695C175.676 90.8638 175.952 90.5013 176.291 90.2028L176.58 89.9532C177.519 89.3659 178.588 89.0185 179.693 88.9418C180.52 88.7842 180.928 88.6923 181.663 88.5215L182.464 88.3377C182.732 88.2463 182.995 88.1411 183.252 88.0225C184.093 87.3895 185.104 87.0233 186.155 86.9717Z" fill="white"/>
<path d="M100.704 16.5845V16.4532C99.671 15.7079 98.4678 15.233 97.2043 15.0719C95.9407 14.9108 94.6569 15.0686 93.4699 15.5308C92.2829 15.9931 91.2305 16.7451 90.4087 17.7184C89.5869 18.6916 89.0217 19.8551 88.7649 21.1028C88.4237 20.0548 88.3693 18.9346 88.6072 17.8585C88.8771 16.5674 89.4844 15.371 90.3673 14.3911C92.0545 12.6406 94.3061 11.5427 96.7243 11.2913C99.1293 11.0458 101.559 11.2372 103.896 11.8561C104.369 11.9612 104.828 12.0794 105.288 12.2108L105.537 11.3045C106.081 10.1551 106.889 9.15099 107.896 8.37469C108.903 7.59838 110.08 7.07202 111.33 6.83879C113.982 6.47138 116.67 6.44489 119.329 6.75998C123.802 4.1591 128.689 2.34642 133.776 1.40113C138.915 0.468611 144.216 1.17146 148.933 3.41069C155.501 6.70742 159.769 13.4191 161.49 20.4854C162.147 23.1123 162.462 25.923 163.053 28.6156C163.543 31.3457 164.604 33.9416 166.166 36.2335C166.954 37.3726 167.976 38.3315 169.162 39.047C170.348 39.7624 171.673 40.2181 173.048 40.384C174.418 40.4951 175.789 40.1895 176.982 39.5074C178.175 38.8254 179.134 37.7986 179.734 36.5619C179.856 37.5226 179.722 38.4985 179.346 39.3909C178.97 40.2834 178.365 41.0609 177.593 41.6449C176.019 42.797 174.062 43.2959 172.129 43.0372C170.299 42.8086 168.562 42.0968 167.098 40.9751C168.766 43.1556 170.601 45.202 172.589 47.0957C174.579 48.9917 176.2 51.2408 177.369 53.7286C177.941 54.9658 178.231 56.3148 178.217 57.6778C178.204 59.0407 177.887 60.3836 177.291 61.6092C176.644 62.825 175.594 63.7782 174.322 64.3053C173.05 64.8325 171.634 64.9009 170.316 64.4988C172.13 63.974 173.661 62.7504 174.572 61.097C175.033 60.2801 175.208 59.3328 175.07 58.405C174.932 57.4773 174.489 56.622 173.81 55.9746C172.549 58.6137 170.442 60.7561 167.825 62.0624C165.208 63.3686 162.23 63.7638 159.362 63.1853C162.399 61.7243 164.915 59.3683 166.573 56.4342C164.749 59.1188 162.183 61.215 159.189 62.4673C156.195 63.7196 152.901 64.074 149.708 63.4874C152.509 62.9236 155.05 61.4619 156.946 59.3238C154.626 60.4181 152.073 60.9234 149.511 60.7949C152.027 60.0392 154.183 58.3965 155.579 56.1716C152.272 57.4011 148.684 57.6698 145.23 56.9465C144.297 56.7758 143.391 56.5656 142.498 56.3161C143.929 55.6318 145.256 54.7473 146.438 53.6892C150.011 50.3399 151.849 43.6808 154.752 42.0258L154.831 41.9207C155.259 39.0828 155.138 36.1891 154.476 33.3965C154.254 34.1525 153.876 34.8537 153.367 35.4554C152.859 36.057 152.23 36.5456 151.521 36.8902C152.12 35.8698 152.508 34.7394 152.661 33.5661C152.815 32.3928 152.731 31.2006 152.414 30.0604C151.321 33.42 149.11 36.3033 146.148 38.2297C143.187 40.1562 139.655 41.0093 136.141 40.6467C137.557 40.2598 138.846 39.5039 139.875 38.4564C140.904 37.4088 141.637 36.1069 141.999 34.6837C142.681 31.816 142.507 28.8114 141.499 26.0413C141.012 28.6466 139.587 30.9831 137.493 32.6085C137.257 32.7924 137.008 32.9631 136.758 33.1338C136.568 32.855 136.362 32.5875 136.141 32.3327C138.134 30.7103 139.469 28.418 139.897 25.8836C138.337 27.247 136.52 28.2842 134.553 28.9339C132.586 29.5835 130.509 29.8326 128.444 29.6663C126.966 32.0919 124.982 34.1694 122.626 35.7563C120.271 37.3432 117.6 38.4021 114.797 38.8604V39.1363C114.864 39.5283 115.044 39.8923 115.315 40.1838C115.585 40.4753 115.935 40.6818 116.321 40.7781C115.656 40.9947 115.047 41.3545 114.537 41.8321C114.026 42.3096 113.627 42.8933 113.366 43.5419C113.106 44.1906 112.991 44.8886 113.029 45.5866C113.068 46.2845 113.259 46.9655 113.589 47.5817C112.817 46.6669 112.14 45.6769 111.566 44.6264C111.168 43.9014 110.876 43.1229 110.699 42.3148C110.451 41.3296 110.503 40.2924 110.849 39.3372C111.196 38.382 111.821 37.5526 112.643 36.956C110.495 37.9234 108.779 39.649 107.823 41.8026C106.889 43.9679 106.8 46.4047 107.573 48.6324C106.319 47.9488 105.223 47.01 104.354 45.8764C103.485 44.7428 102.863 43.4397 102.529 42.0512C102.195 40.6626 102.156 39.2194 102.414 37.8146C102.672 36.4099 103.221 35.0749 104.027 33.8956C102.212 34.864 100.728 36.3533 99.7656 38.1719C98.8035 39.9906 98.4076 42.0556 98.6288 44.1011C97.3349 42.1132 96.8205 39.7175 97.1841 37.3736C97.5477 35.0298 98.7637 32.9026 100.599 31.4001C99.0401 32.02 97.6625 33.0223 96.5928 34.3146C95.5232 35.6069 94.796 37.1476 94.4783 38.7948C94.1023 37.4228 94.0671 35.9799 94.3758 34.5912C94.6844 33.2026 95.3275 31.9104 96.2492 30.8269C97.1709 29.7434 98.3433 28.9013 99.6644 28.3741C100.986 27.8468 102.416 27.6501 103.83 27.8013C101.268 27.0652 98.5689 26.9393 95.9494 27.4335C93.2862 27.9511 90.93 29.4872 89.3822 31.7153C88.6415 32.8311 88.2131 34.1248 88.1415 35.4622C88.0699 36.7995 88.3577 38.1317 88.975 39.3202C87.7323 37.5091 86.9768 35.4086 86.7813 33.2209C86.5857 31.0332 86.9567 28.8321 87.8586 26.8293C89.2793 24.0871 91.3433 21.7301 93.8741 19.96C95.7092 18.4355 97.8435 17.3125 100.139 16.6633L100.704 16.5845Z" fill="#1D1D1B"/>
<path d="M136.364 64.0124L134.841 63.7497C135.367 63.1724 135.731 62.4658 135.895 61.702C136.058 60.9382 136.017 60.1446 135.773 59.4022L135.668 58.8769C137.315 58.5482 138.919 58.0326 140.449 57.3401C141.145 57.038 141.841 56.7228 142.524 56.3682C143.418 56.6177 144.324 56.8278 145.256 56.9986L145.151 57.6159C145.755 59.2577 144.665 61.9371 143.838 63.4213L143.155 64.6428L139.215 71.5778C138.097 73.7297 136.778 75.7704 135.274 77.6722C133.75 79.5783 131.706 81.0017 129.39 81.7701L128.865 82.3611C126.942 82.3574 125.042 81.9445 123.292 81.1496C121.541 80.3547 119.98 79.1961 118.712 77.751L116.965 77.2387C117.308 75.7536 117.774 74.2995 118.357 72.8913V72.6286C119.539 72.4096 120.721 72.1601 121.903 71.8799C125.423 71.1505 128.802 69.86 131.912 68.0578C133.623 66.9822 135.13 65.6126 136.364 64.0124Z" fill="#FFED00"/>
<path d="M145.073 68.7412C145.31 70.6093 145.153 72.5063 144.613 74.3103C144.044 76.1985 143.155 77.9753 141.986 79.564C141.256 80.6084 140.452 81.6002 139.583 82.5323C138.723 83.4604 137.772 84.3008 136.746 85.041C132.556 88.0226 127.919 88.9814 122.85 89.8088C123.822 88.4954 124.833 87.182 125.884 85.8685C126.934 84.5551 127.867 83.4649 128.891 82.2959L129.417 81.7049C131.733 80.9365 133.777 79.513 135.301 77.6069C136.805 75.7051 138.124 73.6645 139.241 71.5126L143.182 64.5776L143.497 64.7615C144.34 65.939 144.882 67.3056 145.073 68.7412Z" fill="#FFED00"/>
<path d="M104.027 72.8259C103.022 74.4422 101.644 75.7935 100.008 76.7662C99.5879 77.9614 99.1019 79.1304 98.5896 80.2599L98.3664 80.168C96.0766 80.2203 93.8114 79.6881 91.7844 78.6218C89.7575 77.5555 88.0358 75.9901 86.7818 74.0736H86.5717C86.2323 75.4071 85.8246 76.7223 85.3502 78.0139L85.1138 78.7494C83.0284 85.408 81.8532 92.3181 81.62 99.2917H81.5412C79.5579 98.346 78.9143 98.7269 75.6176 96.4415C69.6136 91.9524 64.6793 86.1882 61.1697 79.5638C59.7874 76.9799 58.6528 74.2708 57.7811 71.473C56.9028 68.9253 55.1731 66.7583 52.8834 65.3372C50.5938 63.916 47.8843 63.3277 45.2115 63.6712C45.1109 63.6648 45.01 63.6648 44.9094 63.6712C41.1923 64.3673 38.5786 59.3368 39.9183 55.7905C41.258 52.2443 44.778 50.1296 48.0091 48.1726C51.2402 46.2156 54.6682 43.7988 55.5482 40.1212C58.753 26.8029 74.6194 15.3497 88.0953 17.7927L88.6338 17.9241C88.3958 19.0002 88.4502 20.1204 88.7914 21.1683C89.0483 19.9207 89.6134 18.7572 90.4352 17.7839C91.257 16.8107 92.3094 16.0587 93.4964 15.5964C94.6834 15.1341 95.9672 14.9763 97.2308 15.1374C98.4944 15.2985 99.6975 15.7734 100.731 16.5187V16.6501L100.205 16.7551C97.9094 17.4043 95.7752 18.5273 93.9401 20.0519C91.4093 21.8219 89.3452 24.179 87.9245 26.9212C87.0227 28.9239 86.6517 31.125 86.8472 33.3127C87.0427 35.5004 87.7982 37.6009 89.0409 39.412C88.4236 38.2235 88.1358 36.8913 88.2074 35.554C88.279 34.2167 88.7074 32.9229 89.4481 31.8071C90.996 29.579 93.3521 28.0428 96.0153 27.5253C98.6349 27.031 101.334 27.157 103.896 27.8931C102.481 27.742 101.052 27.9386 99.7303 28.4659C98.4092 28.9932 97.2368 29.8352 96.3151 30.9187C95.3934 32.0022 94.7503 33.2945 94.4417 34.6831C94.1331 36.0717 94.1683 37.5147 94.5443 38.8866C94.862 37.2394 95.5892 35.6987 96.6588 34.4064C97.7284 33.1141 99.1061 32.1118 100.665 31.4919C98.8296 32.9945 97.6136 35.1216 97.25 37.4655C96.8864 39.8093 97.4009 42.2049 98.6947 44.1928C98.4736 42.1473 98.8695 40.0825 99.8315 38.2638C100.793 36.4451 102.278 34.9558 104.093 33.9875C103.287 35.1667 102.738 36.5017 102.48 37.9065C102.222 39.3112 102.261 40.7543 102.595 42.1429C102.929 43.5315 103.551 44.8346 104.42 45.9682C105.288 47.1018 106.385 48.0406 107.639 48.7242C106.866 46.4965 106.955 44.0597 107.889 41.8943C108.845 39.7408 110.561 38.0152 112.709 37.0477C111.887 37.6443 111.262 38.4738 110.915 39.4291C110.569 40.3843 110.517 41.4214 110.765 42.4066C110.942 43.2147 111.234 43.9932 111.632 44.7183H111.527C110.708 45.741 110.214 46.9852 110.109 48.2909C110.013 49.606 110.066 50.9278 110.266 52.2312C110.66 55.4754 111.264 58.7984 113.195 61.4252C113.904 62.5114 114.974 63.3117 116.216 63.6843C117.519 63.879 118.85 63.6633 120.025 63.067C121.195 62.48 122.442 62.06 123.729 61.8193C124.039 61.7865 124.351 61.7865 124.661 61.8193C125.537 61.8831 126.384 62.1579 127.131 62.6204C128.037 63.1984 128.759 64.0521 129.758 64.5643C130.523 64.9603 131.388 65.1229 132.245 65.0318C133.102 64.9408 133.913 64.6002 134.578 64.0521C134.698 63.9495 134.812 63.8398 134.919 63.7238L136.443 63.9864C135.197 65.5901 133.676 66.9599 131.951 68.0318C128.819 69.8556 125.413 71.1597 121.864 71.8933C120.682 72.1648 119.5 72.4143 118.318 72.642C115.811 73.1274 113.275 73.4433 110.726 73.5876C109.596 73.6664 108.454 73.6927 107.311 73.6796C106.154 73.747 105.005 73.4483 104.027 72.8259ZM124.464 65.1817C124.534 65.0142 124.544 64.8282 124.494 64.6541C124.444 64.48 124.336 64.3279 124.189 64.2228C123.9 64.0258 123.466 64.0521 123.808 63.9864C123.527 63.9756 123.248 64.0306 122.993 64.1469C122.737 64.2632 122.513 64.4376 122.337 64.6563C122.193 64.8195 122.113 65.0296 122.113 65.2473C122.113 65.465 122.193 65.6752 122.337 65.8384C122.497 65.9309 122.676 65.985 122.861 65.9964C123.045 66.0078 123.23 65.9762 123.401 65.904C123.618 65.8636 123.825 65.7786 124.008 65.6542C124.191 65.5299 124.347 65.369 124.464 65.1817Z" fill="#FFED00"/>
<path d="M118.711 77.6987C119.979 79.1439 121.54 80.3024 123.291 81.0973C125.041 81.8922 126.941 82.3052 128.864 82.3089C127.839 83.4779 126.828 84.6731 125.856 85.8815L125.488 85.5793C123.467 85.8594 121.41 85.4489 119.65 84.4144C117.891 83.3798 116.533 81.7818 115.795 79.8791L115.65 79.8003C116.018 79.1304 116.399 78.4868 116.793 77.8169C116.793 77.6068 116.911 77.3967 116.964 77.1865L118.711 77.6987Z" fill="#FFED00"/>
<path d="M115.966 123.959C116.147 124.247 116.267 124.568 116.32 124.904C116.363 125.125 116.34 125.354 116.254 125.562C116.167 125.77 116.021 125.948 115.834 126.073C115.652 126.165 115.447 126.205 115.243 126.189C115.04 126.173 114.844 126.101 114.678 125.981C114.34 125.739 114.054 125.431 113.838 125.075C112.074 122.552 110.619 119.827 109.503 116.958C109.963 119.007 110.699 121.371 111.277 123.762C111.46 124.524 111.526 125.522 110.843 125.889C110.603 125.984 110.341 126.006 110.088 125.952C109.836 125.898 109.605 125.771 109.425 125.587C109.083 125.209 108.828 124.761 108.676 124.274C107.564 121.297 106.539 118.285 105.603 115.238C104.972 116.722 104.289 118.258 103.527 119.716C103.16 120.399 102.516 121.161 101.78 120.938C101.634 120.881 101.501 120.793 101.392 120.679C101.283 120.566 101.201 120.43 101.15 120.281C101.081 120.101 101.046 119.909 101.045 119.716C101.091 119.207 101.211 118.707 101.4 118.232C101.844 116.277 102.025 114.272 101.938 112.269C101.857 110.251 102.51 108.273 103.777 106.7C104.972 102.983 106.325 99.3317 107.809 95.7592C109.096 92.677 110.493 89.6429 111.999 86.657C113.146 84.3454 114.363 82.0688 115.65 79.8271L115.795 79.906C116.533 81.8087 117.891 83.4068 119.65 84.4413C121.41 85.4759 123.466 85.8863 125.488 85.6063L125.856 85.9084C124.805 87.2218 123.794 88.5353 122.822 89.8487C118.806 95.2695 115.235 101.006 112.143 107.002C111.974 107.385 111.887 107.799 111.887 108.217C111.887 108.636 111.974 109.049 112.143 109.432C112.487 110.164 112.895 110.863 113.365 111.52C114.956 113.96 116.029 116.7 116.517 119.572L116.071 119.848L116.491 120.518C116.895 121.064 117.178 121.691 117.318 122.356C117.381 122.69 117.34 123.035 117.202 123.344C117.063 123.654 116.834 123.914 116.543 124.09L115.966 123.959Z" fill="white"/>
<path d="M118.317 72.5767V72.8393C117.734 74.2475 117.268 75.7017 116.925 77.1868C116.925 77.397 116.807 77.6071 116.754 77.8173C116.36 78.474 115.979 79.1307 115.612 79.8006C114.324 82.0509 113.107 84.3275 111.96 86.6304L109.268 85.317C110 82.164 110.518 78.965 110.817 75.742L110.686 73.5749C113.249 73.415 115.799 73.0815 118.317 72.5767Z" fill="#FFED00"/>
<path d="M109.307 85.2639L111.999 86.5773C110.485 89.5545 109.088 92.5885 107.81 95.6794L107.613 95.6006C102.763 98.7003 97.1202 100.329 91.3652 100.29H90.9844V99.8693C91.6674 93.7487 94.2548 88.9152 96.7372 84.003C97.3546 82.7683 97.9718 81.5206 98.5498 80.2465C99.1277 78.9725 99.548 77.948 99.9683 76.7528C101.604 75.7801 102.982 74.4288 103.987 72.8125C104.973 73.412 106.121 73.6875 107.271 73.6005C108.414 73.6005 109.556 73.6005 110.686 73.5086L110.817 75.6758C110.531 78.9023 110.027 82.1057 109.307 85.2639Z" fill="#FFED00"/>
<path d="M98.8782 120.491C98.9137 120.59 98.9262 120.696 98.9148 120.801C98.9034 120.905 98.8685 121.006 98.8126 121.095C98.6864 121.236 98.5249 121.341 98.3449 121.399C98.1648 121.456 97.9726 121.465 97.7881 121.424C96.9698 121.355 96.1959 121.023 95.5815 120.478L95.332 120.583C94.452 118.508 93.5194 116.446 92.7051 114.357H92.8233C94.9336 115.955 96.851 117.793 98.5368 119.834C98.6872 120.032 98.8027 120.254 98.8782 120.491Z" fill="white"/>
<path d="M98.3659 80.1681L98.5891 80.2601C98.0112 81.5735 97.3939 82.7818 96.7766 84.0165L96.4351 83.8457C94.3058 84.2623 92.0994 83.9958 90.1306 83.084C88.1966 82.1784 86.6071 80.6718 85.5992 78.789L85.1133 78.6314L85.3497 77.8959C85.8241 76.6042 86.2318 75.2891 86.5712 73.9556H86.7813C88.0212 75.894 89.7369 77.4827 91.7647 78.5702C93.7926 79.6577 96.0652 80.2078 98.3659 80.1681Z" fill="#FFED00"/>
<path d="M96.4347 83.8462L96.7762 84.0169C94.2938 88.9292 91.7063 93.7627 91.0233 99.8833V100.304C90.5767 104.323 90.3534 108.066 91.7457 111.875C92.0478 112.689 92.363 113.491 92.7045 114.292C93.5582 116.38 94.4908 118.442 95.3314 120.517C95.7385 121.516 96.1457 122.514 96.5135 123.525C96.7893 124.261 97.0126 125.18 96.5135 125.758C96.2858 125.97 95.9984 126.106 95.6905 126.148C95.3826 126.191 95.0691 126.137 94.7929 125.994C94.2566 125.668 93.8063 125.217 93.4794 124.681C92.8722 123.83 92.3529 122.919 91.9296 121.962C91.6004 120.627 91.197 119.312 90.7212 118.022C90.9471 119.383 91.3535 120.708 91.9296 121.962C92.263 123.321 92.5174 124.698 92.6913 126.086C92.757 126.599 92.7701 127.203 92.363 127.505C92.1571 127.636 91.9108 127.688 91.6694 127.652C91.428 127.616 91.2078 127.494 91.0495 127.308C90.7358 126.928 90.5194 126.477 90.4191 125.994C90.4191 125.85 90.3403 125.719 90.2878 125.574C90.2585 125.206 90.197 124.841 90.1039 124.484C89.5014 122.149 88.7647 119.851 87.8973 117.602C88.6985 120.228 89.4997 122.855 90.2878 125.574C90.3204 125.779 90.3204 125.987 90.2878 126.192C90.2559 126.481 90.129 126.751 89.9269 126.96C89.7249 127.169 89.4591 127.305 89.1713 127.347C88.3964 127.426 87.8579 126.651 87.477 126.034C86.2686 123.735 85.2573 119.467 84.6794 118.797L82.0525 118.166L82.1313 117.812C81.6204 111.613 81.4844 105.389 81.7241 99.1741C81.9573 92.2005 83.1325 85.2904 85.2179 78.6318L85.7038 78.7894C86.7117 80.6722 88.3012 82.1788 90.2352 83.0844C92.173 83.9741 94.3391 84.2402 96.4347 83.8462Z" fill="white"/>
<path d="M84.613 118.797C84.8603 120.963 84.2732 123.142 82.9712 124.891C82.4852 125.561 81.5658 126.204 80.8959 125.705C80.2261 125.206 80.4363 124.392 80.607 123.774L81.9205 118.166L84.613 118.797Z" fill="white"/>
<path d="M20.3075 90.3735L20.846 90.623C21.1379 90.9581 21.3306 91.3679 21.4025 91.8064C21.4745 92.2449 21.4228 92.6947 21.2532 93.1054C20.891 93.9335 20.3532 94.6729 19.677 95.2726C19.0211 95.8684 18.4469 96.5486 17.9696 97.2953C17.5731 98.0371 17.3983 98.8771 17.4658 99.7154C17.5333 100.554 17.8404 101.355 18.3505 102.024L18.6526 102.444C15.2381 104.877 11.2692 106.416 7.10742 106.923C8.42086 106.214 9.09072 103.232 9.32714 101.8C9.56356 100.369 9.5373 98.9108 9.9182 97.5186C10.5019 95.7253 11.5219 94.105 12.8865 92.8033C13.8585 91.792 14.9224 90.8594 15.9206 89.8612C16.249 89.5328 16.5642 89.1914 16.8794 88.8368C18.1268 87.4793 19.0817 85.8798 19.685 84.1378C20.2883 82.3957 20.527 80.5483 20.3863 78.7101C19.966 75.0719 17.4311 69.7918 13.8191 68.925C14.0422 68.912 14.2658 68.912 14.4889 68.925C16.9844 68.8046 19.4318 69.6408 21.332 71.2629C22.6009 72.7497 23.4048 74.5767 23.6436 76.5167C23.9351 78.5513 23.7416 80.626 23.0788 82.5716C22.9081 83.189 22.7242 83.8851 22.5272 84.4367C21.9461 86.4714 21.2039 88.4566 20.3075 90.3735Z" fill="#1D1D1B"/>
<path d="M3.53516 91.4238C4.69088 93.3544 5.96746 95.2101 7.35727 96.9797" stroke="black" stroke-width="0.5" stroke-linecap="round" stroke-linejoin="round"/>
<path d="M2.9707 95.5356C4.11109 97.5086 5.43006 99.3727 6.91102 101.105" stroke="black" stroke-width="0.5" stroke-linecap="round" stroke-linejoin="round"/>
<path d="M2.60352 100.054C3.14866 101.394 4.00923 102.584 5.11219 103.521" stroke="black" stroke-width="0.5" stroke-linecap="round" stroke-linejoin="round"/>
<path d="M88.0433 17.7273C74.5674 15.2843 58.701 26.7375 55.4962 40.0557C54.6162 43.7334 51.1882 46.1501 47.9571 48.1071C44.7261 50.0642 41.206 52.1919 39.8663 55.7251C38.5266 59.2582 41.1798 64.2887 44.8574 63.6057C44.958 63.5993 45.0589 63.5993 45.1595 63.6057C47.8323 63.2622 50.5419 63.8506 52.8315 65.2717C55.1211 66.6929 56.8508 68.8599 57.7291 71.4075C58.6008 74.2054 59.7354 76.9143 61.1178 79.4983C64.6274 86.1227 69.5616 91.8869 75.5656 96.376C78.9017 98.6614 79.5059 98.2805 81.4892 99.2262" stroke="black" stroke-linecap="round" stroke-linejoin="round"/>
<path d="M45.184 63.7104C37.1212 68.9807 30.0146 75.5853 24.169 83.2413C23.8144 83.6879 23.486 84.1476 23.1445 84.5547" stroke="black" stroke-linecap="round" stroke-linejoin="round"/>
<path d="M7.14844 106.922C11.3102 106.416 15.2791 104.876 18.6936 102.444C20.162 101.401 21.51 100.198 22.7127 98.8579" stroke="black" stroke-linecap="round" stroke-linejoin="round"/>
<path d="M19.9531 98.2676C20.8199 98.659 21.7603 98.8605 22.7114 98.8587C23.7141 98.8565 24.7044 98.6369 25.614 98.215C26.9361 97.5985 28.0234 96.5711 28.7138 95.2861C28.9601 94.8739 29.1542 94.4327 29.2917 93.9727" stroke="black" stroke-linecap="round" stroke-linejoin="round"/>
<path d="M29.0684 95.5348L32.4965 93.6434C41.7431 88.6173 51.1779 83.9546 60.8011 79.6553" stroke="black" stroke-linecap="round" stroke-linejoin="round"/>
<path d="M24.5371 83.5044C26.5046 84.482 28.2315 85.8827 29.5939 87.6062C30.9564 89.3298 31.9207 91.3333 32.4177 93.4734" stroke="black" stroke-linecap="round" stroke-linejoin="round"/>
<path d="M13.9102 68.925C14.1333 68.912 14.3569 68.912 14.58 68.925C17.0755 68.8046 19.5229 69.6408 21.423 71.2629C22.692 72.7497 23.4959 74.5767 23.7347 76.5167C24.0262 78.5513 23.8327 80.626 23.1699 82.5716C22.9992 83.189 22.8153 83.8851 22.6183 84.4367C22.0081 86.4786 21.2351 88.4683 20.3066 90.3866C19.5763 91.9146 18.6964 93.3665 17.6798 94.721" stroke="black" stroke-linecap="round" stroke-linejoin="round"/>
<path d="M7.12109 106.87C6.32079 107.035 5.49085 106.983 4.71723 106.72C3.94361 106.457 3.25443 105.991 2.72106 105.372C1.67301 104.109 1.07265 102.534 1.01361 100.894C0.954751 99.2638 1.08698 97.6328 1.40762 96.0338C2.2471 89.9966 3.7265 84.0659 5.8208 78.3417C6.16229 77.4486 6.54317 76.5686 6.95034 75.7148C7.64701 74.0501 8.62442 72.5174 9.83992 71.1835C10.9209 70.0335 12.3361 69.2524 13.8853 68.9507" stroke="black" stroke-linecap="round" stroke-linejoin="round"/>
<path d="M20.8475 90.6226C21.1394 90.9576 21.3321 91.3674 21.404 91.8059C21.476 92.2444 21.4243 92.6942 21.2547 93.105C20.8925 93.933 20.3547 94.6724 19.6785 95.2721C19.0226 95.868 18.4484 96.5482 17.9711 97.2949C17.5747 98.0366 17.3998 98.8766 17.4673 99.7149C17.5348 100.553 17.8419 101.354 18.352 102.023" stroke="black" stroke-linecap="round" stroke-linejoin="round"/>
<path d="M13.8855 68.9253C17.4449 69.7922 19.9798 75.0722 20.4527 78.7104C20.5934 80.5486 20.3547 82.396 19.7514 84.1381C19.1481 85.8801 18.1932 87.4796 16.9458 88.8371C16.6306 89.1917 16.3154 89.5332 15.987 89.8615C14.9888 90.8597 13.9249 91.7923 12.953 92.8036C11.5883 94.1053 10.5683 95.7256 9.98457 97.5189C9.60367 98.9111 9.6431 100.382 9.39354 101.801C9.14399 103.219 8.43473 106.214 7.17383 106.923" stroke="black" stroke-linecap="round" stroke-linejoin="round"/>
<path d="M4.83594 87.562C6.02514 89.7353 7.3821 91.8124 8.89446 93.7746" stroke="black" stroke-width="0.5" stroke-linecap="round" stroke-linejoin="round"/>
<path d="M6.32031 83.2148C7.99276 85.7892 9.74401 88.2978 11.5741 90.7408" stroke="black" stroke-width="0.5" stroke-linecap="round" stroke-linejoin="round"/>
<path d="M7.85742 79.1045C9.93219 82.4429 12.2827 85.6018 14.8843 88.5481" stroke="black" stroke-width="0.5" stroke-linecap="round" stroke-linejoin="round"/>
<path d="M9.35352 74.7036C11.4525 78.2094 13.9085 81.4885 16.6825 84.4888" stroke="black" stroke-width="0.5" stroke-linecap="round" stroke-linejoin="round"/>
<path d="M12.1387 72.918C13.6645 75.7488 15.6839 78.2841 18.1017 80.4045" stroke="black" stroke-width="0.5" stroke-linecap="round" stroke-linejoin="round"/>
<path d="M91.3652 100.343C97.1425 100.395 102.81 98.7657 107.678 95.6538" stroke="black" stroke-linecap="round" stroke-linejoin="round"/>
<path d="M122.82 89.7955C127.89 88.9417 132.527 88.0092 136.716 85.0277C137.743 84.2874 138.693 83.4471 139.554 82.519C140.423 81.5869 141.226 80.595 141.957 79.5506C143.126 77.962 144.014 76.1851 144.584 74.2969C145.124 72.4929 145.28 70.596 145.044 68.7279C144.834 67.3024 144.28 65.9498 143.428 64.7876" stroke="black" stroke-linecap="round" stroke-linejoin="round"/>
<path d="M140.514 83.1104C145.196 84.5979 149.73 86.5195 154.055 88.8501C157.062 90.6904 159.945 92.7262 162.685 94.9445L164.55 96.4024L169.935 100.579" stroke="black" stroke-linecap="round" stroke-linejoin="round"/>
<path d="M145.006 68.7153H145.072C150.992 71.0128 156.474 74.3092 161.279 78.461C164.458 81.2455 167.597 84.122 170.999 86.6175C172.496 87.7272 174.062 88.7406 175.688 89.6516" stroke="black" stroke-linecap="round" stroke-linejoin="round"/>
<path d="M175.977 94.6294C176.297 94.9371 176.706 95.1349 177.146 95.1942C178.167 95.184 179.167 94.9079 180.048 94.393C181.106 94.0157 182.191 93.7172 183.293 93.4999C184.401 93.2675 185.454 92.8214 186.392 92.1864C186.859 91.8683 187.247 91.4492 187.529 90.9604C187.811 90.4715 187.979 89.9253 188.021 89.3625C188.036 88.7987 187.852 88.2477 187.501 87.8059C187.151 87.3641 186.656 87.0596 186.103 86.9458C185.055 86.9898 184.044 87.3466 183.201 87.9702C182.944 88.0888 182.681 88.194 182.413 88.2855L181.611 88.4694C180.876 88.6401 180.469 88.7321 179.641 88.8897C178.536 88.9663 177.467 89.3137 176.528 89.901L176.24 90.1506C175.901 90.4491 175.624 90.8116 175.426 91.2174C175.227 91.6231 175.111 92.064 175.084 92.5148C175.063 92.9119 175.132 93.3085 175.287 93.6748C175.442 94.0411 175.678 94.3675 175.977 94.6294Z" stroke="black" stroke-linecap="round" stroke-linejoin="round"/>
<path d="M168.662 97.5449C169.139 98.0006 169.713 98.3416 170.341 98.5419C170.969 98.7422 171.635 98.7964 172.287 98.7007" stroke="black" stroke-linecap="round" stroke-linejoin="round"/>
<path d="M176.425 106.319C176.188 106.122 173.364 103.797 171.723 102.379" stroke="black" stroke-linecap="round" stroke-linejoin="round"/>
<path d="M171.709 102.365C173.099 103.877 174.679 105.202 176.411 106.306" stroke="black" stroke-linecap="round" stroke-linejoin="round"/>
<path d="M171.682 102.339C171.104 101.84 170.683 101.472 170.565 101.327C170.446 101.199 170.34 101.058 170.25 100.907C170.25 100.907 170.854 101.524 171.682 102.339Z" stroke="black" stroke-linecap="round" stroke-linejoin="round"/>
<path d="M170.723 86.998C170.805 88.9066 170.291 90.7934 169.252 92.3963C168.199 93.9917 166.681 95.2251 164.904 95.9294" stroke="black" stroke-linecap="round" stroke-linejoin="round"/>
<path d="M176.424 106.319C178.591 106.989 180.916 105.846 182.65 104.375C184.22 102.739 185.939 101.253 187.785 99.9354C190.701 98.2805 194.484 98.3331 197.058 96.179C197.776 95.5864 198.359 94.848 198.77 94.0127C199.18 93.1774 199.409 92.2644 199.44 91.3342C199.471 90.404 199.304 89.4778 198.95 88.617C198.596 87.7563 198.063 86.9805 197.386 86.3414C196.255 85.3818 194.902 84.7205 193.45 84.4177C191.998 84.1149 190.493 84.1802 189.072 84.6076C186.196 85.3169 184.856 87.5497 181.664 88.5479" stroke="black" stroke-linecap="round" stroke-linejoin="round"/>
<path d="M138.492 59.8228C138.045 61.3217 137.324 62.7246 136.364 63.9601C135.118 65.5639 133.597 66.9335 131.872 68.0055C128.767 69.8306 125.387 71.1433 121.864 71.8933C120.682 72.1647 119.5 72.4143 118.318 72.6419C115.811 73.1274 113.275 73.4433 110.726 73.5876C109.596 73.6664 108.454 73.6927 107.311 73.6795C106.161 73.7665 105.013 73.491 104.027 72.8915L103.936 72.8258" stroke="black" stroke-linecap="round" stroke-linejoin="round"/>
<path d="M96.8027 48.9472C98.2151 48.3166 99.8183 48.2646 101.268 48.8027C102.707 49.3575 103.878 50.4436 104.539 51.8367C105.136 53.4291 105.382 55.1315 105.261 56.8278V59.6123" stroke="black" stroke-linecap="round" stroke-linejoin="round"/>
<path d="M55.1426 51.8764C63.3828 51.2326 71.6607 51.2326 79.9009 51.8764" stroke="black" stroke-linecap="round" stroke-linejoin="round"/>
<path d="M67.3438 45.3618C73.5058 45.8722 79.5856 47.1111 85.4561 49.0526" stroke="black" stroke-linecap="round" stroke-linejoin="round"/>
<path d="M79.1762 64.8008C81.4051 66.5792 83.8078 68.1282 86.3476 69.4241L71.2168 79.1173" stroke="black" stroke-linecap="round" stroke-linejoin="round"/>
<path d="M110.857 75.689C110.557 78.912 110.039 82.1109 109.307 85.2639" stroke="black" stroke-linecap="round" stroke-linejoin="round"/>
<path d="M120.59 75.8336C122.909 74.3723 125.525 73.4479 128.247 73.1279" stroke="black" stroke-linecap="round" stroke-linejoin="round"/>
<path d="M91.9177 122.001C92.3411 122.957 92.8603 123.868 93.4676 124.72C93.7945 125.256 94.2448 125.706 94.781 126.033C95.0573 126.176 95.3708 126.229 95.6787 126.187C95.9867 126.145 96.274 126.009 96.5016 125.797C97.027 125.219 96.8037 124.3 96.5016 123.564C96.1339 122.553 95.7267 121.554 95.3195 120.556C94.4395 118.481 93.507 116.419 92.6927 114.331C92.3512 113.529 92.0359 112.728 91.7338 111.914C90.3416 108.105 90.5649 104.362 91.0115 100.342V99.9222C91.6944 93.8015 94.2819 88.9681 96.7643 84.0558C97.3816 82.8212 97.999 81.5734 98.5769 80.2994C99.1548 79.0253 99.5751 78.0008 99.9954 76.8056C101.631 75.8328 103.01 74.4815 104.015 72.8653C104.46 72.1804 104.83 71.4494 105.118 70.685C106.079 68.126 106.153 65.3184 105.328 62.7124" stroke="black" stroke-linecap="round" stroke-linejoin="round"/>
<path d="M91.9174 122.001C91.5882 120.666 91.1848 119.351 90.709 118.061C90.9349 119.422 91.3413 120.747 91.9174 122.001Z" stroke="black" stroke-linecap="round" stroke-linejoin="round"/>
<path d="M90.248 125.639C90.248 125.784 90.34 125.915 90.3794 126.06C90.4797 126.542 90.6961 126.993 91.0098 127.373C91.1681 127.559 91.3883 127.681 91.6297 127.717C91.8711 127.754 92.1174 127.701 92.3233 127.57C92.7304 127.268 92.7173 126.664 92.6516 126.152C92.4776 124.763 92.2233 123.386 91.8898 122.027" stroke="black" stroke-linecap="round" stroke-linejoin="round"/>
<path d="M90.2479 125.639C90.2186 125.271 90.1571 124.906 90.064 124.549C89.4615 122.214 88.7248 119.916 87.8574 117.667C88.6586 120.32 89.4598 122.986 90.2479 125.639Z" stroke="black" stroke-linecap="round" stroke-linejoin="round"/>
<path d="M90.445 55.1602C89.2366 55.7249 85.4539 61.99 85.9793 66.0748C86.2026 67.8217 86.8331 69.5292 86.8856 71.3286C86.8991 72.249 86.7932 73.1674 86.5703 74.0606C86.231 75.3941 85.8233 76.7092 85.3488 78.0009L85.1124 78.7364C83.0271 85.395 81.8519 92.305 81.6187 99.2785C81.379 105.494 81.5149 111.718 82.0258 117.916L81.947 118.271L80.6336 123.879C80.4629 124.549 80.3709 125.403 80.9226 125.81C81.4742 126.217 82.5118 125.666 82.9978 124.996C84.2998 123.247 84.8869 121.068 84.6396 118.901C85.2175 119.571 86.2288 123.84 87.4372 126.138C87.805 126.821 88.3566 127.596 89.1316 127.452C89.4194 127.41 89.6851 127.274 89.8872 127.065C90.0892 126.855 90.2161 126.585 90.248 126.296C90.2806 126.092 90.2806 125.883 90.248 125.679" stroke="black" stroke-linecap="round" stroke-linejoin="round"/>
<path d="M118.356 72.8389C117.773 74.2471 117.307 75.7013 116.964 77.1864C116.964 77.3966 116.846 77.6067 116.793 77.8169C116.399 78.4736 116.018 79.1303 115.65 79.8002C114.363 82.0505 113.146 84.3271 111.999 86.63C110.484 89.6071 109.088 92.6412 107.809 95.7322C106.325 99.3047 104.972 102.956 103.777 106.673C102.51 108.246 101.857 110.224 101.938 112.242C102.025 114.245 101.844 116.25 101.4 118.205C101.211 118.68 101.091 119.18 101.045 119.689C101.046 119.882 101.081 120.074 101.15 120.254C101.201 120.403 101.283 120.539 101.392 120.652C101.501 120.766 101.634 120.854 101.78 120.911C102.516 121.134 103.16 120.372 103.527 119.689C104.315 118.231 104.972 116.695 105.603 115.21C106.531 118.258 107.555 121.27 108.676 124.247C108.828 124.734 109.083 125.182 109.425 125.56C109.605 125.744 109.836 125.871 110.088 125.925C110.341 125.979 110.603 125.957 110.843 125.862C111.526 125.495 111.46 124.549 111.277 123.735C110.699 121.344 109.963 118.98 109.503 116.931C110.619 119.8 112.074 122.525 113.838 125.048C114.054 125.404 114.34 125.712 114.678 125.954C114.844 126.074 115.04 126.146 115.243 126.162C115.447 126.178 115.652 126.138 115.834 126.046C116.021 125.921 116.167 125.743 116.254 125.535C116.34 125.327 116.363 125.098 116.32 124.877C116.267 124.541 116.147 124.22 115.966 123.932L115.795 123.643L111.973 117.194" stroke="black" stroke-linecap="round" stroke-linejoin="round"/>
<path d="M116.571 124.037C116.861 123.861 117.09 123.601 117.229 123.291C117.367 122.981 117.408 122.637 117.345 122.303C117.205 121.638 116.923 121.011 116.518 120.464L116.098 119.794L113.379 115.473" stroke="black" stroke-linecap="round" stroke-linejoin="round"/>
<path d="M116.542 119.519C116.054 116.648 114.981 113.907 113.39 111.468C112.92 110.81 112.512 110.111 112.168 109.379C111.999 108.997 111.912 108.583 111.912 108.164C111.912 107.746 111.999 107.332 112.168 106.949C115.26 100.953 118.831 95.2167 122.847 89.7959C123.819 88.4825 124.83 87.1691 125.881 85.8556C126.931 84.5422 127.864 83.452 128.888 82.283L129.414 81.692C131.73 80.9236 133.774 79.5002 135.298 77.5941C136.802 75.6923 138.121 73.6516 139.238 71.4997L143.179 64.5647L143.862 63.3432C144.702 61.8591 145.792 59.1797 145.175 57.5379C145.138 57.4283 145.089 57.3227 145.031 57.2227" stroke="black" stroke-linecap="round" stroke-linejoin="round"/>
<path d="M115.795 79.8799C116.533 81.7827 117.891 83.3807 119.651 84.4152C121.41 85.4497 123.467 85.8602 125.488 85.5802" stroke="black" stroke-linecap="round" stroke-linejoin="round"/>
<path d="M118.711 77.6987C119.979 79.1439 121.54 80.3025 123.291 81.0974C125.041 81.8923 126.941 82.3053 128.864 82.3089" stroke="black" stroke-linecap="round" stroke-linejoin="round"/>
<path d="M85.5977 78.7896C86.6055 80.6723 88.195 82.1789 90.129 83.0845C92.0978 83.9963 94.3043 84.2628 96.4335 83.8463" stroke="black" stroke-linecap="round" stroke-linejoin="round"/>
<path d="M92.7832 114.239C94.8935 115.837 96.8109 117.675 98.4967 119.716C98.6666 119.927 98.7957 120.167 98.8775 120.425C98.913 120.524 98.9255 120.63 98.9141 120.735C98.9028 120.839 98.8678 120.94 98.8119 121.029C98.6857 121.17 98.5243 121.275 98.3442 121.332C98.1641 121.39 97.9719 121.399 97.7874 121.358C96.9692 121.288 96.1952 120.957 95.5808 120.412" stroke="black" stroke-linecap="round" stroke-linejoin="round"/>
<path d="M131.437 38.4136L130.242 40.1867" stroke="black" stroke-linecap="round" stroke-linejoin="round"/>
<path d="M146.109 43.8384C145.648 44.3837 145.272 44.9946 144.992 45.6509" stroke="black" stroke-linecap="round" stroke-linejoin="round"/>
<path d="M135.115 50.0381C135.532 50.5428 136.057 50.9469 136.652 51.2203C136.945 51.3593 137.266 51.4314 137.591 51.4314C137.916 51.4314 138.237 51.3593 138.53 51.2203C138.765 51.0773 138.967 50.8864 139.123 50.6601C139.279 50.4338 139.386 50.1771 139.436 49.9068C139.536 49.3867 139.467 48.8482 139.239 48.3701" stroke="black" stroke-width="0.5" stroke-linecap="round" stroke-linejoin="round"/>
<path d="M127 50.1035C130.26 52.6409 134.269 54.0265 138.401 54.0438" stroke="black" stroke-width="0.5" stroke-linecap="round" stroke-linejoin="round"/>
<path d="M117.096 40.9614C117.227 41.3949 117.371 41.8283 117.516 42.2749C118.61 46.0958 120.346 49.7024 122.652 52.94C124.707 55.6994 127.608 57.7106 130.913 58.6666C131.891 58.919 132.898 59.034 133.908 59.0081C134.498 58.9908 135.086 58.9337 135.668 58.8373C137.315 58.5087 138.919 57.9931 140.449 57.3006C141.145 56.9985 141.841 56.6833 142.524 56.3287C143.955 55.6444 145.282 54.7599 146.464 53.7018C150.037 50.3525 151.876 43.6934 154.778 42.0385" stroke="black" stroke-linecap="round" stroke-linejoin="round"/>
<path d="M105.34 11.7773C105.34 11.6197 105.445 11.4621 105.511 11.3045C106.054 10.1551 106.862 9.15099 107.869 8.37469C108.876 7.59838 110.053 7.07202 111.303 6.83879C113.955 6.47138 116.643 6.44489 119.302 6.75998C123.775 4.1591 128.662 2.34642 133.75 1.40113C138.888 0.468611 144.189 1.17146 148.907 3.41069C155.474 6.70742 159.743 13.4191 161.463 20.4854C162.12 23.1123 162.435 25.923 163.026 28.6156C163.516 31.3457 164.577 33.9416 166.139 36.2335C166.928 37.3726 167.949 38.3315 169.135 39.047C170.321 39.7624 171.646 40.2181 173.021 40.384C174.391 40.4951 175.763 40.1895 176.956 39.5074C178.149 38.8254 179.108 37.7986 179.707 36.5619C179.829 37.5226 179.695 38.4985 179.319 39.3909C178.943 40.2834 178.338 41.0609 177.566 41.6449C175.993 42.797 174.035 43.2959 172.102 43.0372C170.272 42.8086 168.536 42.0968 167.071 40.9751C168.739 43.1556 170.575 45.202 172.562 47.0957C174.552 48.9917 176.173 51.2408 177.343 53.7286C177.914 54.9658 178.204 56.3148 178.19 57.6778C178.177 59.0407 177.86 60.3836 177.264 61.6092C176.617 62.825 175.567 63.7782 174.295 64.3053C173.023 64.8325 171.607 64.9009 170.289 64.4988C172.103 63.974 173.634 62.7504 174.545 61.097C175.006 60.2801 175.181 59.3328 175.043 58.405C174.905 57.4773 174.462 56.622 173.783 55.9746C172.522 58.6137 170.415 60.7561 167.798 62.0624C165.181 63.3686 162.203 63.7638 159.335 63.1853C162.372 61.7243 164.889 59.3683 166.546 56.4342C164.724 59.1142 162.163 61.2074 159.174 62.4594C156.184 63.7115 152.896 64.0686 149.708 63.4874C152.509 62.9236 155.05 61.4619 156.945 59.3238C154.626 60.4181 152.072 60.9234 149.511 60.7949C152.026 60.0392 154.183 58.3965 155.579 56.1716C152.271 57.4011 148.683 57.6698 145.229 56.9465C144.296 56.7758 143.39 56.5656 142.497 56.3161" stroke="black" stroke-linecap="round" stroke-linejoin="round"/>
<path d="M125.776 13.773C122.326 15.3568 118.441 15.7227 114.756 14.8106C111.538 14.1802 108.438 13.0506 105.26 12.1837C104.8 12.0524 104.341 11.9342 103.868 11.8291C101.531 11.2102 99.1013 11.0188 96.6963 11.2643C94.2781 11.5157 92.0265 12.6136 90.3393 14.3641C89.4564 15.344 88.8491 16.5404 88.5793 17.8315C88.3413 18.9076 88.3957 20.0278 88.7369 21.0757C88.9938 19.8281 89.5589 18.6646 90.3807 17.6913C91.2025 16.7181 92.2549 15.9661 93.4419 15.5038C94.6289 15.0416 95.9127 14.8838 97.1763 15.0449C98.4399 15.206 99.643 15.6808 100.676 16.4261" stroke="black" stroke-linecap="round" stroke-linejoin="round"/>
<path d="M114.692 20.0918C112.453 18.8991 110.115 17.9016 107.704 17.1103C105.446 16.3809 103.046 16.2008 100.704 16.5849L100.178 16.69C97.8826 17.3391 95.7483 18.4622 93.9132 19.9867C91.3824 21.7568 89.3183 24.1138 87.8976 26.856C86.9958 28.8588 86.6248 31.0599 86.8203 33.2476C87.0159 35.4353 87.7714 37.5357 89.0141 39.3468C88.3968 38.1583 88.1089 36.8262 88.1805 35.4889C88.2521 34.1515 88.6805 32.8578 89.4212 31.742C90.9691 29.5139 93.3253 27.9777 95.9884 27.4602C98.608 26.9659 101.307 27.0919 103.869 27.828C102.455 27.6768 101.025 27.8735 99.7035 28.4008C98.3823 28.9281 97.2099 29.7701 96.2883 30.8536C95.3666 31.9371 94.7234 33.2293 94.4148 34.618C94.1062 36.0066 94.1414 37.4495 94.5174 38.8215C94.8351 37.1743 95.5623 35.6336 96.6319 34.3413C97.7015 33.049 99.0792 32.0467 100.638 31.4268C98.8028 32.9293 97.5867 35.0565 97.2231 37.4004C96.8596 39.7442 97.374 42.1398 98.6679 44.1277C98.4467 42.0822 98.8426 40.0173 99.8046 38.1986C100.767 36.38 102.251 34.8907 104.066 33.9224C103.26 35.1016 102.711 36.4366 102.453 37.8413C102.195 39.2461 102.234 40.6892 102.568 42.0778C102.902 43.4664 103.524 44.7695 104.393 45.9031C105.262 47.0367 106.358 47.9755 107.612 48.6591C106.839 46.4314 106.928 43.9945 107.862 41.8292C108.818 39.6756 110.534 37.95 112.682 36.9826C111.86 37.5792 111.235 38.4087 110.888 39.3639C110.542 40.3192 110.49 41.3563 110.738 42.3415C110.915 43.1496 111.207 43.9281 111.605 44.6531C112.179 45.7036 112.856 46.6936 113.628 47.6084C113.298 46.9922 113.107 46.3112 113.068 45.6132C113.03 44.9152 113.145 44.2173 113.405 43.5686C113.666 42.92 114.065 42.3363 114.576 41.8588C115.086 41.3812 115.695 41.0215 116.36 40.8048" stroke="black" stroke-linecap="round" stroke-linejoin="round"/>
<path d="M113.469 39.0572C113.915 39.0572 114.349 38.9653 114.782 38.8865C117.585 38.4282 120.256 37.3693 122.611 35.7824C124.967 34.1954 126.951 32.118 128.429 29.6924C130.494 29.8586 132.571 29.6095 134.538 28.9598C136.505 28.3101 138.322 27.273 139.882 25.9097C139.454 28.4441 138.119 30.7363 136.126 32.3587C134.436 33.8035 132.328 34.6689 130.11 34.828C132.442 34.9886 134.764 34.4045 136.743 33.1599C136.992 32.9891 137.242 32.8184 137.478 32.6345C139.572 31.009 140.997 28.6726 141.484 26.0673C142.492 28.8374 142.665 31.8421 141.984 34.7097C141.622 36.133 140.889 37.4348 139.86 38.4824C138.831 39.53 137.542 40.2858 136.126 40.6727C139.64 41.0353 143.172 40.1822 146.133 38.2558C149.095 36.3294 151.306 33.4459 152.399 30.0864C152.716 31.2266 152.8 32.4187 152.646 33.5921C152.493 34.7654 152.105 35.8959 151.506 36.9163C152.215 36.5717 152.843 36.0829 153.352 35.4813C153.861 34.8797 154.239 34.1785 154.461 33.4226C155.123 36.2152 155.244 39.1088 154.816 41.9468" stroke="black" stroke-linecap="round" stroke-linejoin="round"/>
<path d="M133.119 29.4956C134.232 30.3119 135.242 31.2601 136.127 32.3195C136.348 32.5744 136.554 32.8419 136.744 33.1207C137.319 33.8701 137.825 34.6703 138.255 35.5112" stroke="black" stroke-width="0.5" stroke-linecap="round" stroke-linejoin="round"/>
<path d="M146.098 40.1606C147.144 39.408 148.409 39.0229 149.697 39.0657C150.985 39.1085 152.223 39.5766 153.216 40.397" stroke="black" stroke-width="0.5" stroke-linecap="round" stroke-linejoin="round"/>
<path d="M114.836 39.123C114.903 39.5151 115.083 39.879 115.354 40.1706C115.624 40.4621 115.974 40.6686 116.359 40.7648C116.596 40.8454 116.845 40.8854 117.095 40.8831" stroke="black" stroke-linecap="round" stroke-linejoin="round"/>
<path d="M117.056 42.4067C116.44 44.5881 116.359 46.886 116.82 49.1053C117.28 51.3161 118.026 53.4575 119.04 55.4755C119.511 56.538 120.13 57.5285 120.878 58.4176C121.916 59.5628 123.3 60.3376 124.819 60.6241C125.127 60.6786 125.439 60.7137 125.751 60.7292C127.625 60.8013 129.452 60.1311 130.834 58.8642" stroke="black" stroke-linecap="round" stroke-linejoin="round"/>
<path d="M111.486 44.7051C110.668 45.7278 110.174 46.972 110.068 48.2777C109.972 49.5929 110.025 50.9146 110.225 52.218C110.619 55.4622 111.224 58.7852 113.154 61.4121C113.863 62.4983 114.933 63.2985 116.175 63.6711C117.478 63.8659 118.809 63.6502 119.984 63.0539C121.154 62.4668 122.401 62.0468 123.688 61.8061C123.998 61.7733 124.311 61.7733 124.621 61.8061C125.496 61.8699 126.344 62.1448 127.09 62.6073C127.996 63.1852 128.718 64.0389 129.717 64.5511C130.482 64.9472 131.347 65.1098 132.204 65.0187C133.061 64.9277 133.872 64.587 134.537 64.039C134.657 63.9363 134.771 63.8266 134.879 63.7106C135.405 63.1333 135.769 62.4266 135.932 61.6628C136.096 60.899 136.054 60.1055 135.811 59.3631" stroke="black" stroke-linecap="round" stroke-linejoin="round"/>
<path d="M123.806 64.0131C123.525 64.0022 123.246 64.0572 122.991 64.1735C122.736 64.2899 122.511 64.4643 122.335 64.6829C122.191 64.8461 122.111 65.0563 122.111 65.274C122.111 65.4917 122.191 65.7018 122.335 65.865C122.495 65.9575 122.674 66.0116 122.859 66.023C123.044 66.0344 123.228 66.0028 123.399 65.9307C123.626 65.8972 123.843 65.8154 124.035 65.6908C124.228 65.5661 124.392 65.4016 124.515 65.2082C124.584 65.0408 124.595 64.8548 124.545 64.6807C124.495 64.5065 124.387 64.3545 124.239 64.2495C123.898 64.013 123.438 64.0131 123.806 64.0131Z" stroke="black" stroke-width="0.5" stroke-linecap="round" stroke-linejoin="round"/>
<path d="M86.7812 74.0737C88.0352 75.9903 89.7569 77.5556 91.7838 78.6219C93.8108 79.6883 96.0761 80.2204 98.3658 80.1681" stroke="black" stroke-miterlimit="10"/>
<path d="M175.976 94.7598C175.75 96.1212 175.16 97.3961 174.267 98.4484C173.374 99.5008 172.213 100.291 170.906 100.736" stroke="black" stroke-linecap="round" stroke-linejoin="round"/>
</svg>
