<svg width="242" height="319" viewBox="0 0 242 319" fill="none" xmlns="http://www.w3.org/2000/svg">
<path d="M189.442 285.529C189.568 286.101 189.85 286.628 190.258 287.049V287.105C192.091 290.861 193.802 294.695 195.367 298.574C195.792 301.559 196.563 301.928 196.977 305.069C197.345 307.864 197.614 310.994 195.859 313.219C194.45 315.03 192.102 315.723 189.811 316.17L189.453 314.136C189.733 303.191 188.123 298.373 184.881 287.91V287.764C185.237 287.902 185.623 287.94 185.999 287.876C186.549 287.715 187.047 287.41 187.441 286.993C188.045 286.445 188.626 285.875 189.162 285.271L189.442 285.529Z" fill="#E94D4F"/>
<path d="M150.249 126.721C149.608 118.593 147.851 110.592 145.028 102.943L145.587 102.73C147.555 108.007 149.317 113.347 150.875 118.75C162.171 157.992 162.865 199.527 152.887 239.125L152.485 239.025C147.119 224.593 143.765 209.445 140.411 194.365C138.846 187.255 137.27 179.989 138.176 172.767L138.779 170.173C143.466 163.745 146.798 156.431 148.572 148.676C149.953 142.885 150.591 136.943 150.473 130.991C150.473 129.571 150.372 128.163 150.249 126.721Z" fill="#D1D0D1"/>
<path d="M105.431 119.186L102.949 112.422L103.799 112.109C106.355 119.087 109.411 125.872 112.943 132.41C116.647 139.246 120.711 145.881 125.117 152.287C129.242 158.335 133.613 164.215 138.085 169.972L138.789 170.173L138.185 172.767C137.258 179.988 138.834 187.299 140.421 194.364C143.775 209.445 147.129 224.548 152.506 239.08L152.908 239.181C152.908 239.393 152.808 239.606 152.752 239.818L152.103 240.154C147.816 231.793 143.976 223.21 140.6 214.442C138.107 208.115 135.76 201.731 133.423 195.348L105.431 119.186Z" fill="#D1D0D1"/>
<path d="M34.6465 142.069C34.5086 141.876 34.313 141.732 34.0879 141.658C33.8629 141.584 33.62 141.583 33.3944 141.656C33.1708 141.732 32.9725 141.869 32.8207 142.05C32.669 142.231 32.5697 142.45 32.5336 142.684C32.5012 142.916 32.5226 143.153 32.5963 143.376C32.6699 143.599 32.7938 143.802 32.9584 143.97L31.8405 144.271C32.2028 144.657 32.6822 144.913 33.2044 144.998C33.7279 145.064 34.2589 144.96 34.7182 144.7C35.1775 144.44 35.5405 144.039 35.7532 143.556C35.9405 143.106 35.9758 142.608 35.8538 142.136L34.6465 142.069ZM67.4009 122.931L68.1164 120.807L68.6977 120.997C69.2619 121.501 69.6531 122.169 69.8156 122.908C69.9387 123.543 69.9387 124.196 69.8156 124.831C69.5258 126.192 69.0121 127.495 68.2952 128.688C66.6408 131.863 65.0235 135.056 63.4436 138.268C62.4486 140.269 61.4649 142.282 60.5147 144.305C58.5248 148.464 56.602 152.648 54.7463 156.859C52.9502 160.906 51.21 164.979 49.5257 169.078C48.6985 171.101 47.8824 173.124 47.1222 175.17C45.7436 178.705 44.5495 182.31 43.5449 185.969C43.0978 187.612 42.7065 189.323 42.3712 190.955C42.2929 191.335 42.2258 191.704 42.1588 192.073L43.5226 192.33C44.7534 198.17 44.2363 204.243 42.0358 209.792L44.4393 210.798C44.3722 210.999 44.2939 211.2 44.2157 211.39C42.7531 214.585 40.1141 217.091 36.8487 218.388C33.4226 219.726 29.81 220.526 26.1392 220.758C22.4816 221.329 18.756 221.306 15.1056 220.691C11.4093 219.804 8.06158 217.835 5.49067 215.035C2.91976 212.235 1.24252 208.732 0.673489 204.973C0.416342 202.165 0.43881 199.337 0.740563 196.533C0.810756 194.097 1.16339 191.678 1.79139 189.323C2.40408 187.024 3.84552 185.033 5.83819 183.733C12.4242 157.439 22.727 132.219 36.4351 108.834H36.8264L37.43 109.449C41.0409 112.993 45.6019 115.441 50.0735 117.833C52.7965 119.377 55.633 120.711 58.5583 121.824C60.4391 122.503 62.4011 122.932 64.3938 123.098C65.3976 123.193 66.4082 123.193 67.4121 123.098L67.4009 122.931Z" fill="#E94D4F"/>
<path d="M206.648 208.327C205.963 207.688 205.418 206.915 205.045 206.056C204.672 205.198 204.48 204.271 204.48 203.335C204.48 202.399 204.672 201.473 205.045 200.614C205.418 199.756 205.963 198.983 206.648 198.344L206.916 197.874C204.657 196.653 202.754 194.866 201.393 192.687L201.561 192.262C197.448 190.743 193.925 187.956 191.5 184.303C192.271 179.474 193.054 174.656 193.736 169.77C195.916 154.008 196.81 137.653 192.059 122.472L194.507 121.164C195.307 122.802 195.915 124.528 196.318 126.306C197.369 130.286 198.424 134.266 199.482 138.246C202.184 140.248 204.009 143.215 204.579 146.529C206.433 147.13 208.017 148.365 209.051 150.017C210.343 151.858 211.115 154.013 211.287 156.255V156.356C212.271 156.567 213.172 157.06 213.88 157.775C214.741 158.781 214.886 160.212 215.635 161.297C216.753 162.862 218.754 163.354 220.442 164.237C225.439 166.841 227.351 173.012 231.521 176.802C233.645 178.736 236.54 180.301 237.502 183.185C238.758 184.377 239.76 185.81 240.448 187.399C241.135 188.987 241.495 190.699 241.504 192.43C241.507 195.891 241.002 199.333 240.006 202.648C237.359 213.017 234.195 223.248 230.526 233.301C230.101 234.419 229.665 235.603 229.24 236.744C228.883 237.694 228.514 238.633 228.122 239.583C227.653 240.791 227.172 241.987 226.691 243.183C226.211 244.379 225.82 245.318 225.384 246.38C224.948 247.442 224.445 248.616 223.964 249.734C223.17 251.589 222.343 253.445 221.504 255.323L221.426 255.424C220.494 253.134 219.277 250.971 217.804 248.985C217.076 247.999 216.284 247.062 215.434 246.179C215.009 245.732 214.573 245.296 214.115 244.882C213.113 243.945 212.045 243.082 210.918 242.3C206.55 239.47 201.566 237.733 196.385 237.236C195.524 237.135 194.686 237.079 193.859 237.057C194.046 236.262 194.43 235.528 194.977 234.922C199.282 228.943 202.589 222.306 204.769 215.269C204.385 214.084 204.351 212.812 204.673 211.608C204.994 210.405 205.656 209.319 206.58 208.483L206.648 208.327ZM231.834 188.093C231.834 187.69 231.409 187.433 231.04 187.277C229.763 186.793 228.446 186.419 227.105 186.159C217.95 184.068 208.671 181.967 198.889 182.403C209.208 185.589 219.705 188.808 230.504 188.864C231.074 188.842 231.834 188.652 231.834 188.082V188.093Z" fill="#E94D4F"/>
<path d="M145.585 102.764L145.026 102.976C143.908 99.7569 142.533 96.5932 141.068 93.4966L141.504 93.2954C144.804 94.2985 147.793 96.126 150.19 98.6054C152.661 100.987 154.796 103.692 157.155 106.185C158.25 107.34 159.394 108.458 160.587 109.538C164.77 113.243 169.474 116.312 174.549 118.649L167.842 123.602C165.921 122.654 164.091 121.531 162.376 120.248C161.089 119.135 159.646 118.216 158.094 117.52C157.31 117.187 156.447 117.08 155.605 117.212C154.764 117.345 153.976 117.711 153.332 118.269L150.906 118.75C149.326 113.377 147.552 108.048 145.585 102.764Z" fill="#E94D4F"/>
<path d="M231.038 187.266C231.406 187.422 231.831 187.68 231.831 188.082C231.831 188.484 231.071 188.842 230.501 188.842C219.702 188.786 209.205 185.567 198.887 182.381C208.668 181.945 217.947 184.046 227.103 186.137C228.444 186.4 229.76 186.778 231.038 187.266Z" fill="#E94D4F"/>
<path d="M221.446 255.402C220.607 256.455 219.416 257.169 218.092 257.414C216.464 257.456 214.865 256.974 213.531 256.039C214.873 253.803 216.192 251.456 217.533 249.164L217.824 248.963C219.297 250.949 220.514 253.112 221.446 255.402Z" fill="#1D1D1B"/>
<path d="M196.452 237.213V237.414L195.468 239.125L195.077 238.901C194.694 238.782 194.368 238.525 194.162 238.181C193.955 237.837 193.883 237.428 193.959 237.034C194.753 237.057 195.591 237.112 196.452 237.213Z" fill="#1D1D1B"/>
<path d="M167.811 123.602L174.518 118.649C169.443 116.312 164.739 113.243 160.556 109.539L160.656 109.427C167.059 111.788 173.658 113.58 180.376 114.782C182.159 115.029 183.922 115.403 185.653 115.899C186.805 116.256 187.898 116.784 188.894 117.464L189.096 117.185C190.13 117.329 191.117 117.706 191.985 118.287C192.852 118.868 193.577 119.638 194.104 120.539C194.238 120.762 194.372 120.986 194.495 121.209L192.047 122.517C196.798 137.698 195.904 154.053 193.724 169.816C193.064 174.645 192.282 179.463 191.488 184.348C189.755 195.259 188.134 206.17 188 217.203C187.911 227.488 189.118 238.03 186.256 247.89V248.08C185.473 247.928 184.667 247.935 183.886 248.098C183.105 248.261 182.364 248.578 181.706 249.03C179.269 250.752 178.476 253.96 176.81 256.431C176.342 257.044 175.913 257.686 175.524 258.353C175.127 259.027 174.999 259.825 175.167 260.589C175.254 260.891 175.394 261.175 175.58 261.428L174.462 262.288C176.697 265.223 178.679 268.342 180.387 271.612L180.667 271.768C180.22 272.562 179.75 273.356 179.258 274.127C178.388 275.36 177.64 276.674 177.022 278.051C176.747 278.743 176.584 279.475 176.542 280.219C176.48 280.984 176.606 281.751 176.911 282.455C177.194 283.158 177.708 283.744 178.368 284.118C179.028 284.492 179.795 284.631 180.544 284.512C180.995 284.405 181.418 284.203 181.785 283.92L182.142 284.031C182.212 284.695 182.42 285.336 182.753 285.914C183.086 286.491 183.537 286.993 184.076 287.385C184.322 287.559 184.589 287.702 184.87 287.81V287.955C188.112 298.419 189.722 303.237 189.442 314.181L189.8 316.216L189.017 316.35C177.785 318.453 166.304 318.893 154.944 317.658C146.683 316.652 138.622 314.494 130.462 312.851C107.444 308.189 84.9633 315.02 62.4153 308.379H62.1581C62.1173 278.301 64.8944 248.284 70.453 218.724C66.015 211.602 62.8912 203.742 61.2303 195.516L60.6602 195.203L61.5433 194.231C64.4526 191.149 67.5197 188.219 70.7324 185.455L70.1735 184.214L70.8666 183.018C71.0454 181.554 71.2131 180.078 71.3696 178.602C72.1714 172.806 72.1224 166.923 71.2243 161.141C71.2243 160.94 71.1461 160.727 71.1013 160.526C69.5922 153.148 65.9143 146.295 64.6958 138.861L63.4102 138.224C64.9827 135.004 66.5999 131.811 68.2619 128.643C68.9787 127.451 69.4925 126.148 69.7822 124.787C69.9053 124.152 69.9053 123.499 69.7822 122.864L70.2517 122.763C76.0131 121.622 81.5613 119.589 86.696 116.738L87.0314 116.95C85.2117 120.162 82.808 123.006 79.9439 125.334C82.5898 127.707 85.8674 129.26 89.379 129.806V130.376C86.2343 132.353 82.9373 134.076 79.5191 135.53C83.4094 146.239 91.1453 155.026 98.5234 163.757C112.447 180.329 125.471 197.636 137.538 215.605L140.601 214.398C143.977 223.166 147.817 231.749 152.104 240.109L152.753 239.774C152.753 239.561 152.865 239.349 152.909 239.137C162.887 199.539 162.193 158.004 150.897 118.761L153.323 118.281C153.967 117.722 154.755 117.356 155.597 117.223C156.439 117.091 157.301 117.198 158.085 117.532C159.637 118.228 161.08 119.147 162.367 120.259C164.075 121.537 165.898 122.656 167.811 123.602ZM146.895 254.519C146.959 254.023 146.906 253.52 146.742 253.048C146.577 252.577 146.304 252.15 145.945 251.802C145.583 251.46 145.153 251.199 144.683 251.035C144.213 250.871 143.713 250.809 143.217 250.852V251.97H143.027C142.539 252.019 142.078 252.217 141.706 252.537C141.334 252.857 141.069 253.283 140.948 253.759C140.913 253.917 140.894 254.078 140.892 254.239L139.774 254.184C139.713 254.913 139.901 255.641 140.307 256.25C140.713 256.859 141.313 257.313 142.01 257.537C142.715 257.737 143.462 257.736 144.167 257.534C144.872 257.333 145.507 256.939 146.001 256.397C146.479 255.874 146.79 255.22 146.895 254.519Z" fill="#E94D4F"/>
<path d="M185.125 256.732C185.792 256.93 186.486 257.021 187.182 257C185.84 260.477 184.488 263.965 182.9 267.33L182.52 267.151C181.961 265.675 181.402 264.2 180.832 262.679L180.352 262.601C180.593 262.433 180.822 262.246 181.033 262.042C182.629 260.56 183.844 258.716 184.577 256.665L185.125 256.732Z" fill="#E94D4F"/>
<path d="M182.566 267.151L182.946 267.329C182.264 268.805 181.515 270.269 180.71 271.689L180.431 271.533C178.722 268.263 176.74 265.144 174.506 262.209L175.624 261.349C175.949 261.785 176.346 262.163 176.798 262.467C177.448 262.992 178.264 263.269 179.1 263.249C179.579 263.179 180.032 262.99 180.42 262.701L180.9 262.78C181.448 264.222 182.007 265.675 182.566 267.151Z" fill="#E94D4F"/>
<path d="M140.936 254.261C140.938 254.099 140.957 253.938 140.992 253.78C141.113 253.305 141.378 252.878 141.75 252.558C142.122 252.238 142.583 252.041 143.071 251.992H143.261V250.874C143.757 250.83 144.257 250.893 144.727 251.056C145.197 251.22 145.627 251.482 145.989 251.824C146.348 252.172 146.621 252.598 146.786 253.07C146.951 253.541 147.003 254.045 146.939 254.541C146.817 255.239 146.491 255.885 146 256.396C145.515 256.948 144.885 257.353 144.182 257.567C143.479 257.78 142.73 257.793 142.02 257.604C141.324 257.379 140.724 256.925 140.318 256.316C139.912 255.707 139.724 254.979 139.785 254.25L140.936 254.261Z" fill="#E94D4F"/>
<path d="M140.578 214.409L137.515 215.616C125.448 197.647 112.424 180.34 98.5004 163.768C91.167 155.037 83.4311 146.25 79.4961 135.541C82.9143 134.087 86.2113 132.364 89.356 130.387C90.7672 129.47 92.0952 128.43 93.3245 127.28C94.9455 125.748 96.354 124.004 98.0309 122.54C99.649 120.982 101.727 119.99 103.956 119.711L105.387 119.186L133.334 195.315C135.738 201.698 138.085 208.081 140.578 214.409Z" fill="#E94D4F"/>
<path d="M140.244 116.794L139.775 117.543L139.205 118.873C139.485 119.239 139.69 119.657 139.808 120.103C139.892 120.542 139.892 120.994 139.808 121.433C139.456 123.636 138.726 125.761 137.651 127.716C137.651 127.716 137.651 127.772 137.651 127.805L135.885 126.687C135.303 126.456 134.673 126.372 134.051 126.441C132.971 126.533 131.971 127.047 131.268 127.872C130.972 128.288 130.655 128.687 130.317 129.068C130.082 129.298 129.788 129.461 129.468 129.538C129.289 129.588 129.099 129.588 128.92 129.538C128.395 129.348 128.138 128.767 127.802 128.331C126.684 126.967 124.527 126.9 123.331 125.581C122.874 125.053 122.607 124.388 122.57 123.691C122.533 122.598 122.763 121.512 123.241 120.528C123.99 118.907 125.097 117.386 125.298 115.609L125.209 115.419C126.563 114.804 128.003 114.397 129.479 114.212L129.881 114.156C131.059 113.663 132.335 113.451 133.608 113.539C134.881 113.626 136.116 114.01 137.215 114.659C138.305 115.249 139.322 115.966 140.244 116.794Z" fill="#E94D4F"/>
<path d="M148.584 148.676C146.809 156.431 143.478 163.745 138.791 170.173L138.087 169.972C133.615 164.215 129.244 158.335 125.119 152.287L125.231 152.209C126.252 148.743 127.098 145.237 127.769 141.689L130.619 142.259C133.472 138.119 134.698 133.072 134.062 128.084L133.973 126.408C134.595 126.338 135.225 126.422 135.806 126.653L137.573 127.771C137.573 127.771 137.573 127.715 137.573 127.682L137.83 127.816C142.186 134.344 145.794 141.341 148.584 148.676Z" fill="#E94D4F"/>
<path d="M134.063 128.084C134.699 133.072 133.473 138.119 130.62 142.259L127.77 141.689C128.527 137.748 129.079 133.77 129.424 129.772V129.504C129.744 129.426 130.038 129.264 130.274 129.034C130.611 128.653 130.928 128.253 131.224 127.838C131.927 127.013 132.927 126.499 134.007 126.407L134.063 128.084Z" fill="#E94D4F"/>
<path d="M125.151 115.352L125.241 115.542C125.039 117.32 123.933 118.84 123.184 120.461C122.705 121.445 122.475 122.531 122.513 123.625H122.166C120.759 123.245 119.458 122.545 118.366 121.579L118.131 121.411L118.556 120.807C120.241 118.445 122.515 116.565 125.151 115.352Z" fill="#E94D4F"/>
<path d="M102.949 112.423L105.431 119.186L104 119.711C101.771 119.99 99.6929 120.982 98.0748 122.54C96.398 124.004 94.9894 125.748 93.3685 127.279C92.1391 128.43 90.8112 129.469 89.3999 130.387V129.817C85.8883 129.271 82.6107 127.718 79.9648 125.346C82.8289 123.017 85.2326 120.173 87.0523 116.961L87.2424 116.648C89.2211 113.406 90.965 110.008 93.2231 106.945C95.3772 104.029 97.9632 101.458 100.892 99.3208L101.272 99.3879C101.11 100.193 101.043 101.015 101.071 101.836C101.224 103.884 101.66 105.9 102.368 107.828C102.837 109.259 103.318 110.667 103.832 112.076L102.949 112.423Z" fill="#E94D4F"/>
<path d="M60.1889 156.534L57.2152 157.943L54.7559 156.825C56.6116 152.614 58.5344 148.43 60.5242 144.271L61.0385 144.606C61.3068 153.482 64.258 157.876 67.7459 161.8C67.8337 161.94 67.9514 162.058 68.0906 162.147C68.2298 162.236 68.3869 162.293 68.5507 162.314C68.6613 162.3 68.7679 162.265 68.8645 162.209C68.9611 162.154 69.0457 162.08 69.1133 161.991C69.181 161.903 69.2303 161.802 69.2585 161.694C69.2867 161.586 69.2931 161.474 69.2774 161.364C69.2673 161.249 69.241 161.136 69.1991 161.028L71.1443 160.626C71.1443 160.827 71.2337 161.039 71.2672 161.241C72.1654 167.023 72.2143 172.906 71.4126 178.702L70.6524 178.624C67.1645 171.231 63.6767 163.868 60.1889 156.534Z" fill="#E94D4F"/>
<path d="M70.6537 178.569L71.4138 178.647C71.2573 180.123 71.0896 181.598 70.9108 183.063L70.2177 184.259C66.0367 184.952 61.8334 185.492 57.6078 185.88H54.5783C54.4901 176.498 55.3742 167.132 57.2165 157.932L60.1901 156.524C63.678 163.88 67.1658 171.228 70.6537 178.569Z" fill="#E94D4F"/>
<path d="M71.1027 160.57L69.1575 160.973C69.0312 160.658 68.8578 160.364 68.6433 160.101C65.225 155.419 62.6523 150.175 61.0416 144.607L60.5273 144.361C61.4776 142.337 62.4613 140.325 63.4562 138.324L64.7418 138.961C65.9603 146.34 69.6382 153.192 71.1027 160.57Z" fill="#E94D4F"/>
<path d="M48.8774 205.041C48.4526 206.215 48.1955 207.456 47.6812 208.596C47.4171 209.322 46.9693 209.967 46.3816 210.469C45.7938 210.97 45.0861 211.311 44.3275 211.458L44.1487 211.391C44.2269 211.201 44.3052 210.999 44.3722 210.798L41.9688 209.792C44.1775 204.259 44.7101 198.198 43.5003 192.364L42.1364 192.107C42.2035 191.727 42.2706 191.358 42.3488 190.989C42.6842 189.312 43.0755 187.635 43.5226 186.003L44.0928 186.149C44.3722 186.607 44.6405 187.054 44.8865 187.501C46.2295 190.247 46.8855 193.277 46.7981 196.333C46.6469 199.899 46.1413 203.442 45.2889 206.908C48.2178 203.554 49.2575 198.792 47.29 192.822L49.3469 192.453C48.2749 187.001 48.1464 181.405 48.9668 175.909L47.1334 175.216C47.8936 173.17 48.7097 171.146 49.5369 169.123C51.2436 164.994 52.9838 160.921 54.7575 156.904L57.2169 158.022C55.3746 167.222 54.4905 176.588 54.5787 185.97H57.6082C61.8338 185.582 66.0371 185.042 70.2181 184.349L70.777 185.59C67.5643 188.354 64.4972 191.283 61.5879 194.365L60.7047 195.338C59.8526 196.335 58.9177 197.259 57.91 198.099C56.5832 199.22 54.9444 199.907 53.2148 200.066C53.0667 201.194 52.6166 202.261 51.9121 203.155C51.2077 204.048 50.2751 204.735 49.2127 205.142L48.8774 205.041Z" fill="#E94D4F"/>
<path d="M69.278 161.308C69.2937 161.418 69.2873 161.531 69.2591 161.638C69.2309 161.746 69.1816 161.847 69.1139 161.936C69.0463 162.024 68.9617 162.098 68.8651 162.154C68.7685 162.209 68.6619 162.245 68.5513 162.258C68.3875 162.237 68.2304 162.18 68.0912 162.091C67.952 162.003 67.8343 161.884 67.7465 161.744C64.2586 157.82 61.3074 153.427 61.0391 144.551C62.6575 150.142 65.2456 155.405 68.6855 160.101C68.9 160.364 69.0734 160.658 69.1997 160.973C69.2416 161.08 69.2679 161.193 69.278 161.308Z" fill="#E94D4F"/>
<path d="M49.3692 192.441L47.3122 192.81C46.6917 190.96 45.8865 189.178 44.9088 187.489C44.6726 187.022 44.4075 186.57 44.1151 186.137L43.5449 185.991C44.5525 182.324 45.7502 178.712 47.1334 175.17L48.9667 175.863C48.1498 181.371 48.2859 186.979 49.3692 192.441Z" fill="#E94D4F"/>
<path d="M47.3117 192.811C49.2792 198.781 48.2395 203.576 45.3106 206.896C46.163 203.43 46.6686 199.888 46.8198 196.321C46.9072 193.266 46.2512 190.235 44.9082 187.49C45.8859 189.178 46.6912 190.961 47.3117 192.811Z" fill="#E94D4F"/>
<path d="M35.8668 142.137C35.9888 142.608 35.9535 143.107 35.7662 143.556C35.5535 144.039 35.1905 144.441 34.7312 144.701C34.2719 144.96 33.7409 145.065 33.2174 144.998C32.6951 144.913 32.2157 144.658 31.8535 144.272L32.9714 143.97C32.8068 143.803 32.6829 143.6 32.6092 143.377C32.5356 143.154 32.5142 142.917 32.5466 142.684C32.5827 142.451 32.682 142.232 32.8337 142.05C32.9854 141.869 33.1838 141.733 33.4074 141.656C33.633 141.583 33.8758 141.584 34.1009 141.658C34.3259 141.733 34.5215 141.877 34.6594 142.07L35.8668 142.137Z" fill="#E94D4F"/>
<path d="M99.7539 80.8081C99.8433 81.0429 99.9328 81.2776 99.9998 81.5124C100.458 83.2139 100.809 84.9427 101.051 86.6883C101.289 88.6857 102.061 90.582 103.286 92.1772C104.98 93.8116 107.156 94.8546 109.491 95.1508C114.544 96.1122 119.731 95.7097 124.851 95.3073C126.6 95.2797 128.327 94.8995 129.926 94.1894C131.623 93.2258 132.899 91.6629 133.503 89.8072C133.901 88.6891 134.123 87.5164 134.163 86.3305" stroke="#1D1D1B" stroke-linecap="round" stroke-linejoin="round"/>
<path d="M102.804 96.1123C102.006 97.0791 101.467 98.2333 101.239 99.466C101.077 100.272 101.009 101.093 101.037 101.914C101.19 103.962 101.627 105.979 102.334 107.906C102.804 109.337 103.284 110.746 103.799 112.154C106.355 119.132 109.411 125.917 112.943 132.455C116.647 139.291 120.711 145.926 125.117 152.331C129.242 158.379 133.613 164.259 138.085 170.017" stroke="#1D1D1B" stroke-linecap="round" stroke-linejoin="round"/>
<path d="M139.853 91.0039C140.267 91.8312 140.68 92.6696 141.072 93.4968C142.536 96.5934 143.866 99.7571 145.029 102.977C147.849 110.615 149.605 118.604 150.249 126.721C150.372 128.129 150.44 129.538 150.462 130.958C150.588 136.908 149.957 142.851 148.584 148.643C146.809 156.398 143.478 163.712 138.791 170.14" stroke="#1D1D1B" stroke-linecap="round" stroke-linejoin="round"/>
<path d="M103.24 100.237L105.61 101.981L112.06 106.744C114.561 108.82 117.401 110.45 120.456 111.562C123.396 112.456 126.627 112.389 129.399 113.708C133.686 109.595 137.044 104.614 139.248 99.0971C139.628 98.1581 139.974 97.1967 140.276 96.2241" stroke="#1D1D1B" stroke-linecap="round" stroke-linejoin="round"/>
<path d="M140.57 81.5684C140.07 84.6836 139.698 87.8212 139.452 90.9811C139.243 93.679 139.139 96.3768 139.139 99.0747" stroke="#1D1D1B" stroke-linecap="round" stroke-linejoin="round"/>
<path d="M113.168 132.31C114.369 128.505 116.036 124.863 118.131 121.467L118.556 120.863C120.238 118.489 122.512 116.596 125.152 115.374C126.506 114.759 127.946 114.352 129.422 114.167L129.825 114.111C131.002 113.618 132.278 113.406 133.551 113.494C134.824 113.581 136.059 113.965 137.158 114.614C138.273 115.232 139.309 115.983 140.244 116.85C141.194 117.699 142.088 118.616 142.971 119.544L149.98 126.832" stroke="#1D1D1B" stroke-linecap="round" stroke-linejoin="round"/>
<path d="M118.367 121.611C119.46 122.577 120.76 123.277 122.168 123.657" stroke="#1D1D1B" stroke-linecap="round" stroke-linejoin="round"/>
<path d="M125.241 115.542C125.04 117.319 123.933 118.839 123.184 120.46C122.706 121.444 122.476 122.53 122.514 123.624C122.55 124.321 122.818 124.985 123.274 125.513C124.392 126.832 126.628 126.899 127.746 128.263C128.103 128.699 128.36 129.28 128.863 129.471C129.043 129.521 129.232 129.521 129.411 129.471C129.731 129.393 130.025 129.231 130.261 129.001C130.598 128.619 130.916 128.22 131.211 127.805C131.914 126.98 132.914 126.466 133.995 126.374C134.617 126.304 135.246 126.389 135.828 126.62" stroke="#1D1D1B" stroke-linecap="round" stroke-linejoin="round"/>
<path d="M137.572 127.838C137.572 127.838 137.572 127.782 137.572 127.749C138.647 125.794 139.377 123.669 139.73 121.466C139.814 121.026 139.814 120.575 139.73 120.136C139.611 119.69 139.406 119.272 139.126 118.906L139.696 117.576" stroke="#1D1D1B" stroke-linecap="round" stroke-linejoin="round"/>
<path d="M133.992 114.423L138.017 117.866" stroke="#1D1D1B" stroke-linecap="round" stroke-linejoin="round"/>
<path d="M134.06 128.083C134.696 133.071 133.47 138.118 130.617 142.258" stroke="#1D1D1B" stroke-linecap="round" stroke-linejoin="round"/>
<path d="M129.421 129.772C129.075 133.77 128.523 137.748 127.766 141.689C127.095 145.229 126.25 148.735 125.229 152.208" stroke="#1D1D1B" stroke-linecap="round" stroke-linejoin="round"/>
<path d="M137.873 127.838C142.212 134.357 145.804 141.343 148.583 148.665C148.638 148.799 148.694 148.922 148.739 149.056" stroke="#1D1D1B" stroke-linecap="round" stroke-linejoin="round"/>
<path d="M138.177 172.767C137.249 179.989 138.825 187.3 140.413 194.365C143.766 209.445 147.12 224.548 152.497 239.081" stroke="#1D1D1B" stroke-linecap="round" stroke-linejoin="round"/>
<path d="M70.2402 122.808C76.0016 121.667 81.5498 119.634 86.6845 116.783" stroke="#1D1D1B" stroke-linecap="round" stroke-linejoin="round"/>
<path d="M100.859 99.3545C97.93 101.492 95.344 104.062 93.1899 106.979C90.9541 110.042 89.1879 113.44 87.2092 116.682L87.0191 116.995C85.1994 120.207 82.7957 123.05 79.9316 125.379C82.5775 127.752 85.8551 129.305 89.3667 129.851" stroke="#1D1D1B" stroke-linecap="round" stroke-linejoin="round"/>
<path d="M104.003 119.711C101.774 119.99 99.6958 120.982 98.0777 122.539C96.4009 124.004 94.9923 125.748 93.3714 127.279C92.1421 128.429 90.8141 129.469 89.4028 130.387C86.2582 132.364 82.9611 134.087 79.543 135.54C83.4333 146.25 91.1691 155.037 98.5473 163.767C112.471 180.339 125.495 197.647 137.562 215.616" stroke="#1D1D1B" stroke-linecap="round" stroke-linejoin="round"/>
<path d="M101.631 108.834C102.067 110.03 102.503 111.215 102.95 112.411L105.432 119.175L133.379 195.303C135.716 201.687 138.063 208.07 140.556 214.397C143.932 223.166 147.772 231.748 152.059 240.109C153.814 243.463 155.67 246.816 157.649 250.047C165.865 272.215 168.615 285.82 170.292 309.441" stroke="#1D1D1B" stroke-linecap="round" stroke-linejoin="round"/>
<path d="M145.141 101.557C145.297 101.959 145.442 102.362 145.588 102.764C147.555 108.04 149.318 113.38 150.875 118.783C162.171 158.026 162.865 199.561 152.888 239.159C152.888 239.371 152.787 239.584 152.731 239.796" stroke="#1D1D1B" stroke-linecap="round" stroke-linejoin="round"/>
<path d="M153.301 118.302C153.945 117.744 154.733 117.378 155.575 117.245C156.417 117.113 157.279 117.22 158.063 117.553C159.615 118.249 161.058 119.168 162.345 120.281C164.06 121.564 165.89 122.687 167.811 123.635C171.749 125.57 175.986 126.825 180.343 127.346C179.938 159.653 173.303 191.579 160.802 221.373" stroke="#1D1D1B" stroke-linecap="round" stroke-linejoin="round"/>
<path d="M141.529 93.2954C144.829 94.2985 147.818 96.126 150.215 98.6054C152.686 100.987 154.821 103.692 157.18 106.185C158.275 107.34 159.419 108.458 160.612 109.538C164.795 113.243 169.499 116.312 174.574 118.649L167.867 123.602" stroke="#1D1D1B" stroke-linecap="round" stroke-linejoin="round"/>
<path d="M61.2773 195.561C62.9383 203.786 66.062 211.647 70.5 218.769C64.9265 248.328 62.1344 278.344 62.1605 308.424V308.726" stroke="#1D1D1B" stroke-linecap="round" stroke-linejoin="round"/>
<path d="M166.75 235.838C168.561 245.924 170.965 255.895 173.949 265.698" stroke="#1D1D1B" stroke-linecap="round" stroke-linejoin="round"/>
<path d="M172.359 259.538C173.097 260.41 173.813 261.304 174.506 262.21C176.74 265.145 178.722 268.264 180.431 271.533" stroke="#1D1D1B" stroke-linecap="round" stroke-linejoin="round"/>
<path d="M180.387 224.28C183.058 232.807 182.846 241.977 179.783 250.372" stroke="#1D1D1B" stroke-linecap="round" stroke-linejoin="round"/>
<path d="M192.08 122.517C196.831 137.698 195.937 154.053 193.757 169.815C193.097 174.645 192.315 179.463 191.521 184.348C189.788 195.259 188.167 206.17 188.033 217.203C187.944 227.488 189.151 238.03 186.289 247.89" stroke="#1D1D1B" stroke-linecap="round" stroke-linejoin="round"/>
<path d="M160.689 109.382C167.093 111.743 173.691 113.535 180.409 114.737C182.192 114.985 183.955 115.358 185.686 115.854C186.839 116.211 187.931 116.739 188.928 117.42C189.419 117.741 189.872 118.116 190.28 118.537" stroke="#1D1D1B" stroke-linecap="round" stroke-linejoin="round"/>
<path d="M201.046 144.104L199.503 138.291C198.453 134.303 197.387 130.324 196.306 126.351C195.903 124.573 195.295 122.847 194.495 121.209C194.372 120.985 194.238 120.762 194.104 120.538C193.577 119.637 192.852 118.867 191.985 118.286C191.117 117.706 190.13 117.329 189.096 117.185" stroke="#1D1D1B" stroke-linecap="round" stroke-linejoin="round"/>
<path d="M199.492 138.279C202.194 140.282 204.02 143.249 204.59 146.563C206.444 147.164 208.027 148.399 209.061 150.051C210.353 151.892 211.126 154.046 211.297 156.289" stroke="#1D1D1B" stroke-linecap="round" stroke-linejoin="round"/>
<path d="M198.842 151.08C202.454 153.315 206.365 155.027 210.457 156.166L211.284 156.401C212.268 156.612 213.169 157.106 213.878 157.821C214.738 158.827 214.884 160.258 215.633 161.342C216.751 162.907 218.752 163.399 220.44 164.282C225.437 166.887 227.348 173.058 231.518 176.847C233.642 178.781 236.537 180.346 237.499 183.23C238.755 184.422 239.757 185.855 240.445 187.444C241.133 189.033 241.492 190.744 241.501 192.475C241.504 195.936 240.999 199.379 240.003 202.693C237.356 213.062 234.193 223.293 230.523 233.346C230.098 234.464 229.662 235.649 229.237 236.789C228.88 237.739 228.511 238.678 228.12 239.628C227.65 240.836 227.169 242.032 226.689 243.228C226.208 244.424 225.817 245.363 225.381 246.425C224.945 247.487 224.442 248.661 223.961 249.779C223.167 251.635 222.34 253.49 221.502 255.368L221.423 255.469C220.584 256.522 219.393 257.236 218.07 257.481C216.441 257.523 214.842 257.041 213.509 256.106" stroke="#1D1D1B" stroke-linecap="round" stroke-linejoin="round"/>
<path d="M224.32 249.89C224.678 249.829 225.014 249.678 225.298 249.451C225.581 249.224 225.803 248.929 225.941 248.594C226.065 248.251 226.103 247.884 226.052 247.523C226.002 247.163 225.864 246.82 225.651 246.525" stroke="#1D1D1B" stroke-linecap="round" stroke-linejoin="round"/>
<path d="M227.148 243.407C227.535 243.324 227.892 243.142 228.185 242.876C228.477 242.611 228.694 242.274 228.814 241.897C228.943 241.516 228.966 241.107 228.881 240.713C228.797 240.32 228.607 239.957 228.333 239.662" stroke="#1D1D1B" stroke-linecap="round" stroke-linejoin="round"/>
<path d="M229.586 236.923C229.941 236.825 230.267 236.642 230.534 236.388C230.801 236.135 231.002 235.819 231.117 235.47C231.221 235.118 231.236 234.747 231.162 234.388C231.088 234.029 230.927 233.694 230.693 233.413" stroke="#1D1D1B" stroke-linecap="round" stroke-linejoin="round"/>
<path d="M193.926 237.034C194.753 237.034 195.591 237.112 196.452 237.213C201.633 237.71 206.617 239.447 210.985 242.277C212.112 243.059 213.18 243.922 214.182 244.859C214.64 245.273 215.076 245.709 215.501 246.156C216.351 247.039 217.143 247.977 217.871 248.962C219.344 250.948 220.561 253.111 221.493 255.401" stroke="#1D1D1B" stroke-linecap="round" stroke-linejoin="round"/>
<path d="M195.052 238.902C194.668 238.783 194.342 238.527 194.136 238.182C193.93 237.838 193.858 237.43 193.934 237.035C194.121 236.241 194.505 235.507 195.052 234.9C199.357 228.922 202.664 222.285 204.844 215.248C204.46 214.062 204.426 212.791 204.747 211.587C205.069 210.383 205.731 209.298 206.655 208.462" stroke="#1D1D1B" stroke-linecap="round" stroke-linejoin="round"/>
<path d="M191.4 184.08C191.445 184.153 191.494 184.224 191.546 184.292C193.971 187.945 197.494 190.732 201.607 192.252C203.497 192.962 205.483 193.385 207.498 193.504" stroke="#1D1D1B" stroke-linecap="round" stroke-linejoin="round"/>
<path d="M201.393 192.677C203.409 195.892 206.575 198.219 210.246 199.183" stroke="#1D1D1B" stroke-linecap="round" stroke-linejoin="round"/>
<path d="M206.644 198.333C205.96 198.973 205.415 199.745 205.042 200.604C204.669 201.463 204.477 202.389 204.477 203.325C204.477 204.261 204.669 205.187 205.042 206.046C205.415 206.905 205.96 207.677 206.644 208.316" stroke="#1D1D1B" stroke-linecap="round" stroke-linejoin="round"/>
<path d="M208.848 207.601C211.198 209.983 214.105 211.742 217.306 212.718C220.507 213.694 223.902 213.857 227.181 213.19" stroke="#1D1D1B" stroke-linecap="round" stroke-linejoin="round"/>
<path d="M208.703 199.384C209.469 200.628 210.505 201.685 211.733 202.476C212.962 203.268 214.352 203.773 215.802 203.956C218.718 204.294 221.67 203.778 224.298 202.469C226.904 201.156 229.331 199.514 231.519 197.584" stroke="#1D1D1B" stroke-linecap="round" stroke-linejoin="round"/>
<path d="M213.812 199.384C217.546 200.279 221.47 199.619 225.182 198.647C228.893 197.674 232.56 196.411 236.361 196.008" stroke="#1D1D1B" stroke-linecap="round" stroke-linejoin="round"/>
<path d="M195.287 185.309C200.92 188.274 206.999 190.298 213.285 191.301C219.569 192.303 225.928 192.748 232.29 192.631" stroke="#1D1D1B" stroke-linecap="round" stroke-linejoin="round"/>
<path d="M198.887 182.381C209.205 185.567 219.702 188.786 230.501 188.842C231.071 188.842 231.831 188.652 231.831 188.082C231.831 187.512 231.406 187.422 231.038 187.266C229.76 186.782 228.444 186.408 227.103 186.148C217.947 184.046 208.668 181.945 198.887 182.381Z" stroke="#1D1D1B" stroke-linecap="round" stroke-linejoin="round"/>
<path d="M196.385 174.723C208.736 174.782 220.904 177.706 231.934 183.264" stroke="#1D1D1B" stroke-linecap="round" stroke-linejoin="round"/>
<path d="M194.473 166.261L213.354 169.547" stroke="#1D1D1B" stroke-linecap="round" stroke-linejoin="round"/>
<path d="M195.188 158.849C201.266 161.568 207.645 163.557 214.192 164.774" stroke="#1D1D1B" stroke-linecap="round" stroke-linejoin="round"/>
<path d="M196.427 237.393L195.443 239.103C194.408 240.865 193.485 242.691 192.682 244.57L193.554 244.671C199.202 245.432 204.525 247.755 208.925 251.378C210.498 252.621 211.809 254.164 212.781 255.917C212.918 256.16 213.041 256.41 213.15 256.666L213.53 256.006C214.872 253.77 216.191 251.423 217.533 249.131" stroke="#1D1D1B" stroke-linecap="round" stroke-linejoin="round"/>
<path d="M36.3776 108.834C22.6695 132.219 12.3668 157.439 5.78072 183.733C4.96465 186.942 4.22684 190.172 3.54492 193.403" stroke="#1D1D1B" stroke-linecap="round" stroke-linejoin="round"/>
<path d="M6.01524 183.565L5.78048 183.7C3.80216 185.018 2.38079 187.02 1.78958 189.323C1.18165 191.691 0.85151 194.122 0.805828 196.567C0.483967 199.358 0.439031 202.173 0.671679 204.973C1.25301 208.719 2.93575 212.208 5.50575 214.995C8.07575 217.782 11.4168 219.741 15.1038 220.624C18.7542 221.239 22.4798 221.261 26.1374 220.691C29.8046 220.48 33.4171 219.703 36.8469 218.388C40.0914 217.087 42.7126 214.59 44.1692 211.412C44.2474 211.222 44.3257 211.021 44.3927 210.82" stroke="#1D1D1B" stroke-linecap="round" stroke-linejoin="round"/>
<path d="M44.3516 211.457C45.1102 211.311 45.8179 210.97 46.4056 210.468C46.9934 209.967 47.4411 209.322 47.7053 208.595C48.2195 207.478 48.4766 206.214 48.9014 205.041C49.002 204.772 49.1026 204.515 49.2144 204.258C49.6504 203.285 50.2653 202.391 50.6565 201.385C50.8868 200.899 51.0127 200.371 51.0261 199.834C51.0396 199.297 50.9404 198.763 50.7348 198.266" stroke="#1D1D1B" stroke-linecap="round" stroke-linejoin="round"/>
<path d="M49.168 205.142C50.2386 204.741 51.1806 204.057 51.8932 203.163C52.6059 202.27 53.0627 201.199 53.2148 200.066C54.9702 199.89 56.627 199.171 57.9547 198.009C58.9624 197.169 59.8973 196.246 60.7494 195.248L61.6326 194.275C64.5418 191.193 67.609 188.264 70.8217 185.5C71.4048 188.012 72.2986 190.442 73.4823 192.733" stroke="#1D1D1B" stroke-linecap="round" stroke-linejoin="round"/>
<path d="M57.6094 185.88C61.835 185.492 66.0383 184.952 70.2193 184.259" stroke="#1D1D1B" stroke-linecap="round" stroke-linejoin="round"/>
<path d="M68.6999 120.997C69.2642 121.501 69.6553 122.17 69.8178 122.909C69.9409 123.544 69.9409 124.196 69.8178 124.831C69.5281 126.192 69.0143 127.496 68.2975 128.688C66.643 131.863 65.0257 135.057 63.4458 138.269C62.4509 140.27 61.4671 142.282 60.5169 144.305C58.527 148.464 56.6042 152.649 54.7485 156.859C52.9524 160.906 51.2122 164.979 49.5279 169.078C48.7007 171.101 47.8846 173.125 47.1244 175.171C45.7458 178.706 44.5518 182.31 43.5472 185.969C43.1 187.613 42.7087 189.323 42.3734 190.955C42.2951 191.335 42.228 191.704 42.161 192.073C41.5916 195.997 40.8042 199.886 39.8022 203.722C38.5502 207.869 36.3591 211.927 32.793 214.386" stroke="#1D1D1B" stroke-linecap="round" stroke-linejoin="round"/>
<path d="M41.5215 210.921C41.6892 210.552 41.8457 210.172 41.991 209.803C44.1998 204.27 44.7324 198.209 43.5225 192.375" stroke="#1D1D1B" stroke-linecap="round" stroke-linejoin="round"/>
<path d="M44.9089 187.49C44.6727 187.023 44.4077 186.571 44.1152 186.137C44.3947 186.596 44.663 187.087 44.9089 187.49ZM44.9089 187.49C46.252 190.235 46.908 193.266 46.8205 196.321C46.6693 199.888 46.1638 203.43 45.3114 206.897C48.2403 203.543 49.2799 198.781 47.3124 192.811C46.6919 190.961 45.8867 189.178 44.9089 187.49Z" stroke="#1D1D1B" stroke-linecap="round" stroke-linejoin="round"/>
<path d="M48.9671 175.908C48.1501 181.416 48.2863 187.024 49.3695 192.486" stroke="#1D1D1B" stroke-linecap="round" stroke-linejoin="round"/>
<path d="M57.2165 157.943C55.3742 167.143 54.4901 176.508 54.5783 185.89C54.5783 187.455 54.5783 189.02 54.6901 190.586" stroke="#1D1D1B" stroke-linecap="round" stroke-linejoin="round"/>
<path d="M59.9902 156.121L60.1915 156.535C63.6793 163.883 67.1672 171.228 70.655 178.569" stroke="#1D1D1B" stroke-linecap="round" stroke-linejoin="round"/>
<path d="M60.7188 172.331C63.2866 175.571 66.2158 178.508 69.4495 181.084" stroke="#1D1D1B" stroke-linecap="round" stroke-linejoin="round"/>
<path d="M64.7383 138.906C65.9568 146.34 69.6347 153.193 71.1439 160.571C71.1439 160.772 71.2333 160.984 71.2668 161.186C72.165 166.968 72.2139 172.851 71.4121 178.647C71.2556 180.123 71.088 181.598 70.9091 183.063" stroke="#1D1D1B" stroke-linecap="round" stroke-linejoin="round"/>
<path d="M61.0391 144.607C62.6575 150.199 65.2456 155.462 68.6855 160.157C68.9 160.42 69.0734 160.714 69.1997 161.029C69.2416 161.137 69.2679 161.25 69.278 161.365C69.2937 161.475 69.2873 161.587 69.2591 161.695C69.2309 161.803 69.1816 161.904 69.1139 161.992C69.0463 162.081 68.9617 162.155 68.8651 162.21C68.7685 162.266 68.6619 162.301 68.5513 162.315C68.3875 162.294 68.2304 162.237 68.0912 162.148C67.952 162.059 67.8343 161.941 67.7465 161.801C64.2586 157.821 61.3074 153.428 61.0391 144.607Z" stroke="#1D1D1B" stroke-linecap="round" stroke-linejoin="round"/>
<path d="M36.7715 108.834L37.3752 109.449C40.986 112.993 45.547 115.441 50.0186 117.833C52.7416 119.377 55.5781 120.711 58.5035 121.824C60.4021 122.508 62.3832 122.936 64.3948 123.098C65.3987 123.193 66.4092 123.193 67.4131 123.098H67.7261" stroke="#1D1D1B" stroke-linecap="round" stroke-linejoin="round"/>
<path d="M37.4297 109.371C39.0059 105.022 40.5822 100.673 42.2143 96.2354C43.131 96.4366 44.0477 96.6601 44.9532 96.9061C49.6433 98.2828 54.1827 100.129 58.5021 102.417C60.9168 103.647 63.3761 105.022 64.8965 107.247C66.026 108.979 66.628 111.003 66.6292 113.071C66.6592 113.758 66.633 114.445 66.551 115.128C66.551 115.262 66.551 115.396 66.4951 115.53C66.0665 118.103 65.3619 120.621 64.3934 123.043" stroke="#1D1D1B" stroke-linecap="round" stroke-linejoin="round"/>
<path d="M69.0894 106.598C69.6466 106.889 70.1225 107.314 70.4738 107.836C70.8252 108.357 71.041 108.957 71.1016 109.583C71.1126 109.758 71.1126 109.933 71.1016 110.108C71.0689 111.534 70.7811 112.943 70.252 114.267L68.0162 120.807L67.3008 122.931" stroke="#1D1D1B" stroke-linecap="round" stroke-linejoin="round"/>
<path d="M66.9316 115.597C67.2794 114.41 67.9488 113.342 68.8656 112.512C69.801 111.697 70.5615 110.7 71.1014 109.583" stroke="#1D1D1B" stroke-linecap="round" stroke-linejoin="round"/>
<path d="M45.0876 96.4256C46.2055 94.2569 47.2563 92.077 48.4413 89.9083C48.3276 88.9499 48.1293 88.0034 47.8488 87.08C47.301 85.1013 46.865 83.1003 46.4402 81.0992C45.4043 76.2923 44.3684 71.489 43.3325 66.6895C42.8485 65.1051 42.7792 63.4231 43.1312 61.8043C43.6998 60.4261 44.5488 59.1813 45.6242 58.1488C47.7941 55.6713 49.7045 52.978 51.3254 50.1111C52.0979 48.5341 53.0227 47.0364 54.0867 45.6395C55.301 44.1611 57.0308 43.1983 58.9272 42.9453L60.1568 43.3142C63.2292 44.2552 66.2201 45.444 69.1 46.8692C70.189 47.39 71.088 48.2381 71.6712 49.295L71.9507 49.7198C72.4361 50.6287 73.0625 51.455 73.8064 52.168C74.4548 52.7269 75.3044 53.1965 75.4833 54.0349C75.5106 54.504 75.3832 54.9691 75.1207 55.3589C74.8582 55.7486 74.475 56.0415 74.03 56.1924C73.8104 56.2886 73.582 56.3635 73.3481 56.416C71.9724 56.6878 70.5448 56.4239 69.3572 55.6782L68.9883 55.4323C67.8032 54.5302 66.7918 53.4204 66.0035 52.1568C65.847 51.9444 65.7128 51.732 65.5675 51.5196C64.2506 51.8955 62.8627 51.9491 61.5207 51.6761C60.2664 51.4475 59.0811 50.9351 58.0552 50.1781" stroke="#1D1D1B" stroke-linecap="round" stroke-linejoin="round"/>
<path d="M61.4745 51.9219C60.3361 53.6205 58.8454 55.0541 57.1035 56.1252" stroke="#1D1D1B" stroke-linecap="round" stroke-linejoin="round"/>
<path d="M52.1758 56.1695C53.8054 56.0142 55.4484 56.0781 57.061 56.3595C58.5965 56.6182 60.097 57.0533 61.5326 57.6563C62.1285 57.9169 62.7105 58.208 63.2765 58.5283C63.6454 58.7295 64.0032 58.953 64.3944 59.1766C65.3779 59.2391 66.3446 59.4619 67.2562 59.8362C69.2254 60.6579 70.8898 62.0723 72.0185 63.883C72.0504 65.5908 71.7622 67.2894 71.1689 68.8912" stroke="#1D1D1B" stroke-linecap="round" stroke-linejoin="round"/>
<path d="M61.2871 70.5231C64.4931 69.7195 67.8025 69.4067 71.1023 69.5952C71.8289 69.5952 72.5444 69.6959 73.2598 69.7741C73.6511 69.7741 74.0535 69.8747 74.4448 69.9418" stroke="#1D1D1B" stroke-linecap="round" stroke-linejoin="round"/>
<path d="M65.4442 52.5928C65.3004 53.6164 64.9386 54.5971 64.3831 55.4689C63.8277 56.3406 63.0916 57.0829 62.2246 57.6457" stroke="#1D1D1B" stroke-linecap="round" stroke-linejoin="round"/>
<path d="M69.346 56.0137C68.9388 57.0914 68.353 58.0929 67.6133 58.9761L67.2891 59.345" stroke="#1D1D1B" stroke-linecap="round" stroke-linejoin="round"/>
<path d="M73.7312 56.7173C73.7312 56.9632 73.6418 57.2092 73.5859 57.4551C73.1838 59.1764 72.3792 60.7778 71.2383 62.1279" stroke="#1D1D1B" stroke-linecap="round" stroke-linejoin="round"/>
<path d="M61.677 60.9097C61.9203 62.1298 61.8891 63.3887 61.5855 64.5953C61.2819 65.8018 60.7137 66.9257 59.9219 67.8854" stroke="#1D1D1B" stroke-linecap="round" stroke-linejoin="round"/>
<path d="M50.6328 60.9771C53.3781 62.9808 55.7922 65.4025 57.7874 68.1539C58.4916 69.0483 59.1736 69.965 59.8443 70.8705L60.1909 71.34L64.6625 77.3319C66.1145 79.1689 67.3978 81.1332 68.4968 83.2009C69.4005 85.043 70.0079 87.0161 70.2967 89.0475" stroke="#1D1D1B" stroke-linecap="round" stroke-linejoin="round"/>
<path d="M69.2666 96.4028L67.9922 100.819" stroke="#1D1D1B" stroke-linecap="round" stroke-linejoin="round"/>
<path d="M50.8789 88.5332C51.1873 90.0056 51.3706 91.5015 51.4267 93.0048" stroke="#1D1D1B" stroke-linecap="round" stroke-linejoin="round"/>
<path d="M82.1469 54.1577C80.5003 56.9017 79.6704 60.0584 79.7546 63.2574C77.4794 65.1477 75.3355 67.1907 73.3379 69.3723" stroke="#1D1D1B" stroke-linecap="round" stroke-linejoin="round"/>
<path d="M60.1797 43.3253C60.3064 43.0804 60.4969 42.8743 60.7311 42.7287C60.9652 42.5831 61.2343 42.5034 61.51 42.4981C62.0577 42.4908 62.6036 42.5623 63.1309 42.7105L63.8352 42.8223C65.7756 42.9884 67.7244 43.0369 69.6707 42.9676C71.8642 42.8567 74.0428 43.3848 75.9421 44.4879C76.8692 45.1862 77.7401 45.9562 78.5468 46.7908C80.0992 48.177 81.8612 49.3089 83.7674 50.1445L84.058 50.2786C84.1021 50.5901 84.1021 50.9062 84.058 51.2177C83.9912 52.1018 83.5964 52.929 82.9512 53.5371C82.3059 54.1451 81.4567 54.4901 80.5702 54.5043C79.6721 54.4633 78.7958 54.2146 78.0102 53.7777C76.2024 53.0206 74.6007 51.8442 73.3374 50.3457C72.9908 50.3457 72.5213 49.6526 72.2195 49.6414" stroke="#1D1D1B" stroke-linecap="round" stroke-linejoin="round"/>
<path d="M87.043 49.5852C87.5237 49.5182 87.9261 49.4176 88.4068 49.3058L88.9546 49.194V49.1381C88.8617 47.3774 89.4411 45.6472 90.5755 44.2976C91.8962 42.3971 93.6566 40.8439 95.7067 39.7701C96.9655 39.0883 98.3603 38.6953 99.7899 38.6195C101.22 38.5437 102.648 38.787 103.972 39.3317C105.296 39.8765 106.482 40.7091 107.444 41.769C108.406 42.829 109.121 44.0899 109.535 45.4602L109.669 45.8515C110.511 48.5081 110.36 51.3802 109.244 53.9339C108.684 55.2053 107.878 56.3536 106.873 57.3128C105.868 58.272 104.683 59.0232 103.387 59.5234C102.09 60.0038 100.706 60.2034 99.3258 60.1089C97.9459 60.0145 96.6019 59.6282 95.3825 58.9756C93.6362 57.9748 92.1949 56.518 91.2127 54.7611C90.1714 53.0305 89.4164 51.143 88.9769 49.1716" stroke="#1D1D1B" stroke-linecap="round" stroke-linejoin="round"/>
<path d="M109.656 45.4377C110.203 44.7942 110.891 44.2859 111.667 43.9523C112.442 43.6188 113.285 43.4691 114.128 43.5149C115.804 43.6044 117.447 44.0143 118.968 44.7222" stroke="#1D1D1B" stroke-linecap="round" stroke-linejoin="round"/>
<path d="M140.242 45.6725C140.242 45.4489 140.242 45.2254 140.153 45.013C139.88 43.613 139.27 42.3007 138.375 41.1897C136.964 39.5784 135.139 38.3831 133.098 37.733C131.057 37.0828 128.877 37.0025 126.794 37.5007C126.469 37.5643 126.148 37.6464 125.832 37.7466C124.582 38.1098 123.418 38.7231 122.411 39.5494C121.404 40.3756 120.575 41.3977 119.975 42.5536C119.56 43.2559 119.233 44.0069 119.002 44.7894C118.841 45.2777 118.721 45.7788 118.644 46.2873C118.47 47.7454 118.702 49.2234 119.315 50.5577C119.934 52.0937 120.853 53.4909 122.018 54.6676C123.183 55.8442 124.571 56.7767 126.101 57.4105C127.644 58.0328 129.32 58.2565 130.972 58.0612C132.625 57.8658 134.202 57.2576 135.558 56.2926C137.461 54.7098 138.85 52.5969 139.549 50.2224C140.083 48.7675 140.318 47.2203 140.242 45.6725Z" stroke="#1D1D1B" stroke-linecap="round" stroke-linejoin="round"/>
<path d="M140.578 45.6611H143.116H143.507" stroke="#1D1D1B" stroke-linecap="round" stroke-linejoin="round"/>
<path d="M143.898 45.7178C144.811 47.5483 145.889 49.2919 147.118 50.9272" stroke="#1D1D1B" stroke-linecap="round" stroke-linejoin="round"/>
<path d="M97.3842 21.3359C95.0417 22.1693 93.0122 23.7031 91.5711 25.7293C90.1417 27.7565 89.0994 30.0305 88.4969 32.4367C87.3994 36.5714 87.1861 40.891 87.8709 45.1137C88.0624 46.3101 88.3275 47.4936 88.6646 48.6574L88.2398 48.8362L88.1168 48.8922" stroke="#1D1D1B" stroke-linecap="round" stroke-linejoin="round"/>
<path d="M88.3393 49.0601C88.2845 48.9938 88.2359 48.9227 88.1939 48.8477C88.0712 48.621 88.006 48.3676 88.0039 48.1099" stroke="#1D1D1B" stroke-linecap="round" stroke-linejoin="round"/>
<path d="M89.7265 10.314C87.147 11.6466 84.8021 13.391 82.7843 15.4787C78.8902 19.4305 76.2764 24.4635 75.2832 29.9219C76.0881 27.9903 77.3008 26.2552 78.8381 24.8355C78.3439 26.1708 77.9698 27.5476 77.7202 28.9494C77.1701 32.1115 77.2422 35.3506 77.9326 38.485C77.9457 35.8375 78.6221 33.2355 79.9001 30.9168C79.4096 33.0706 79.4518 35.3116 80.0231 37.4454C80.6025 39.5696 81.3502 41.6442 82.2589 43.6497" stroke="#1D1D1B" stroke-linecap="round" stroke-linejoin="round"/>
<path d="M82.459 15.154C83.3133 12.9393 84.6775 10.9572 86.4411 9.36839C88.2047 7.7796 90.318 6.62885 92.6095 6.00954C94.8544 5.37792 97.1925 5.14337 99.5181 5.31645C101.92 5.49338 104.287 6.00124 106.55 6.82562" stroke="#1D1D1B" stroke-linecap="round" stroke-linejoin="round"/>
<path d="M99.5527 4.86981C101.747 4.06204 104.092 3.74355 106.423 3.93665C108.754 4.12975 111.014 4.82977 113.046 5.98771" stroke="#1D1D1B" stroke-linecap="round" stroke-linejoin="round"/>
<path d="M107.199 3.75147C110.212 1.78863 113.77 0.833476 117.361 1.0238C117.99 1.0446 118.617 1.10434 119.239 1.20266C121.655 1.55314 123.994 2.30904 126.159 3.43846C126.606 3.66204 127.053 3.90797 127.489 4.16509C128.807 4.88889 129.978 5.85181 130.943 7.00457C132.152 8.5413 132.751 10.4694 132.627 12.4203C132.504 14.3712 131.665 16.2081 130.273 17.5799" stroke="#1D1D1B" stroke-linecap="round" stroke-linejoin="round"/>
<path d="M132.285 14.5284C133.934 13.4414 135.913 12.9704 137.875 13.1981C140.362 13.328 142.729 14.3065 144.582 15.9705C145.49 16.8043 146.195 17.8358 146.641 18.9853C147.086 20.1348 147.262 21.3715 147.153 22.5996" stroke="#1D1D1B" stroke-linecap="round" stroke-linejoin="round"/>
<path d="M141.906 16.2832C143.782 17.7738 145.351 19.6153 146.523 21.705L147.093 22.5993C148.412 24.5463 149.56 26.6034 150.525 28.7478C151.694 31.2984 152.116 34.1278 151.744 36.9085C151.199 35.6124 150.296 34.4991 149.139 33.7001C150.523 36.399 151.092 39.4417 150.779 42.4584C150.465 45.475 149.282 48.3356 147.373 50.6922" stroke="#1D1D1B" stroke-linecap="round" stroke-linejoin="round"/>
<path d="M129.902 18.1162H130.081C130.942 18.3829 131.764 18.7586 132.529 19.2341C134.325 20.3958 135.831 21.952 136.934 23.784C138.465 26.4747 139.595 29.3746 140.288 32.3918C141.456 36.7285 142.393 41.1243 143.094 45.5606C143.104 45.6273 143.104 45.6952 143.094 45.7618C143.72 49.5962 144.211 53.4418 144.48 57.2874C145.473 55.3763 146.317 53.3918 147.006 51.3513C147.062 51.206 147.118 51.0495 147.163 50.893C147.194 50.8203 147.22 50.7456 147.241 50.6694" stroke="#1D1D1B" stroke-linecap="round" stroke-linejoin="round"/>
<path d="M86.8398 68.2544C86.9017 69.3743 87.2265 70.4639 87.7877 71.4349C88.349 72.406 89.1311 73.2313 90.0706 73.8439C90.0173 74.8462 90.3088 75.8364 90.8966 76.65C91.4844 77.4635 92.333 78.0513 93.3013 78.3155" stroke="#1D1D1B" stroke-linecap="round" stroke-linejoin="round"/>
<path d="M89.6233 54.7056C89.6427 57.5472 90.0183 60.3752 90.7412 63.1234C90.2158 62.5197 89.6904 61.916 89.1873 61.29C88.6843 60.664 88.2259 60.105 87.7676 59.5014" stroke="#1D1D1B" stroke-linecap="round" stroke-linejoin="round"/>
<path d="M90.6855 62.9219V63.0784C90.9538 64.4758 91.2333 65.862 91.5016 67.2593C92.2171 70.9037 92.9437 74.548 93.6592 78.1924C93.6592 78.3936 93.7374 78.5948 93.7821 78.7961C94.1933 81.5521 94.9833 84.2381 96.1297 86.7778C97.0274 88.5906 98.3889 90.1334 100.076 91.2494C100.722 91.6552 101.422 91.9676 102.155 92.1773" stroke="#1D1D1B" stroke-linecap="round" stroke-linejoin="round"/>
<path d="M100.033 91.3945C101.125 92.8614 102.112 94.4043 102.984 96.0115C104.038 97.905 104.932 99.8831 105.656 101.925" stroke="#1D1D1B" stroke-linecap="round" stroke-linejoin="round"/>
<path d="M147.354 51.5195C147.871 50.8955 148.469 50.3429 149.132 49.8762C149.468 49.6497 149.846 49.4933 150.243 49.4164C150.641 49.3396 151.05 49.3439 151.446 49.429C152.888 49.8314 153.514 51.4971 153.861 52.9504C154.487 55.5328 154.889 58.4169 153.548 60.7086C152.734 61.8199 151.853 62.8802 150.909 63.8835C149.911 65.3674 149.156 67.0015 148.673 68.724C148.187 70.456 147.469 72.1143 146.538 73.6539C146.071 74.4231 145.446 75.0841 144.704 75.593C143.962 76.1019 143.12 76.4469 142.234 76.6052" stroke="#1D1D1B" stroke-linecap="round" stroke-linejoin="round"/>
<path d="M145.062 58.394L144.995 58.64C144.417 60.6894 144.009 62.7834 143.777 64.9002C143.307 68.4551 143.095 72.066 142.335 75.5762C142.268 75.9003 142.189 76.2357 142.111 76.5599C141.693 78.2554 141.151 79.918 140.49 81.5345C139.238 84.5855 137.564 87.4455 135.516 90.0306" stroke="#1D1D1B" stroke-linecap="round" stroke-linejoin="round"/>
<path d="M63.8555 42.688C64.0448 42.3375 64.3076 42.0322 64.626 41.793C64.9444 41.5537 65.3108 41.3861 65.7 41.3018C66.4787 41.1359 67.2791 41.0982 68.07 41.19C69.7021 41.2794 71.323 41.4359 72.944 41.5924C74.4546 41.6886 75.9523 41.932 77.4156 42.3191C78.6565 42.6768 79.8303 43.2469 81.0823 43.5935C81.4497 43.7004 81.823 43.7862 82.2002 43.8506C83.9279 44.109 85.6743 44.2212 87.4208 44.186C87.5177 44.5008 87.5924 44.8221 87.6444 45.1474C87.7393 45.721 87.7393 46.3064 87.6444 46.8801C87.5143 47.7938 87.0671 48.6327 86.3811 49.2501C86.0333 49.5469 85.6191 49.7557 85.1735 49.8589C84.7279 49.962 84.2641 49.9564 83.8212 49.8425" stroke="#1D1D1B" stroke-linecap="round" stroke-linejoin="round"/>
<path d="M84.5173 51.251C84.9435 50.8479 85.4732 50.5707 86.0474 50.4504C86.6217 50.33 87.218 50.3711 87.7703 50.5691C88.198 50.8231 88.5551 51.1803 88.809 51.608C89.0629 52.0357 89.2055 52.5203 89.2236 53.0173C89.4472 55.2531 88.2063 57.2877 87.6809 59.4452C87.5768 59.8827 87.5058 60.3274 87.4685 60.7755C87.3344 62.6648 88.0163 64.6658 87.2226 66.4656C86.8684 67.0104 86.5653 67.5867 86.3171 68.1872C84.6067 72.3793 85.3333 77.5888 82.9634 81.602C81.9796 83.29 80.5152 84.6427 79.3973 86.2525C78.3891 87.9239 77.4856 89.6562 76.692 91.4395C75.8966 93.2924 74.5139 94.8322 72.757 95.8217C71.5161 99.1754 70.2193 102.943 68.9449 106.587C68.1624 108.823 67.3799 111.003 66.6309 113.071" stroke="#1D1D1B" stroke-linecap="round" stroke-linejoin="round"/>
<path d="M193.523 244.995C192.738 245.525 192.118 246.265 191.734 247.13C191.612 247.004 191.464 246.906 191.299 246.845C191.135 246.783 190.959 246.758 190.784 246.773C190.432 246.812 190.089 246.906 189.767 247.052L186.994 248.092C186.994 248.092 187.05 248.17 186.994 248.181" stroke="#1D1D1B" stroke-linecap="round" stroke-linejoin="round"/>
<path d="M188.036 248.572C187.716 248.39 187.374 248.251 187.018 248.158C186.781 248.066 186.533 248.006 186.28 247.979C185.497 247.828 184.691 247.834 183.91 247.997C183.129 248.16 182.388 248.477 181.731 248.93C179.294 250.651 178.5 253.859 176.834 256.33C176.366 256.944 175.937 257.586 175.549 258.253C175.151 258.926 175.024 259.725 175.191 260.489C175.278 260.79 175.418 261.074 175.604 261.327C175.93 261.763 176.327 262.141 176.778 262.445C177.429 262.97 178.245 263.247 179.081 263.227C179.559 263.157 180.013 262.969 180.4 262.68C180.642 262.512 180.87 262.325 181.082 262.121C182.677 260.638 183.893 258.794 184.626 256.744C184.872 256.06 185.059 255.357 185.185 254.642" stroke="#1D1D1B" stroke-linecap="round" stroke-linejoin="round"/>
<path d="M185.127 256.732C185.794 256.931 186.488 257.021 187.184 257.001H187.363" stroke="#1D1D1B" stroke-linecap="round" stroke-linejoin="round"/>
<path d="M189.955 250.371C190.526 251.656 190.625 253.101 190.235 254.451" stroke="#1D1D1B" stroke-linecap="round" stroke-linejoin="round"/>
<path d="M187.242 256.967C185.9 260.443 184.548 263.931 182.96 267.296C182.278 268.772 181.529 270.236 180.724 271.656C180.277 272.45 179.808 273.243 179.316 274.015C178.446 275.248 177.697 276.562 177.08 277.939C176.804 278.631 176.642 279.363 176.599 280.107C176.537 280.872 176.664 281.639 176.968 282.343C177.252 283.046 177.766 283.632 178.426 284.006C179.085 284.379 179.852 284.518 180.601 284.4C181.052 284.293 181.475 284.091 181.842 283.808C182.453 283.302 182.988 282.711 183.43 282.052C188.577 275.054 192.577 267.28 195.279 259.024" stroke="#1D1D1B" stroke-linecap="round" stroke-linejoin="round"/>
<path d="M182.188 283.964C182.257 284.627 182.465 285.269 182.798 285.846C183.131 286.424 183.582 286.925 184.121 287.318C184.367 287.492 184.634 287.634 184.915 287.742C185.271 287.88 185.657 287.919 186.033 287.854C186.583 287.693 187.081 287.388 187.475 286.971C188.079 286.423 188.66 285.853 189.197 285.25C191.953 282.341 194.117 278.924 195.569 275.188C196.888 271.835 197.637 268.168 199.459 265.016" stroke="#1D1D1B" stroke-linecap="round" stroke-linejoin="round"/>
<path d="M194.18 254.954C194.046 256.005 193.912 257.056 193.789 258.107" stroke="#1D1D1B" stroke-linecap="round" stroke-linejoin="round"/>
<path d="M199.569 259.157C199.873 260.377 199.779 261.662 199.301 262.824" stroke="#1D1D1B" stroke-linecap="round" stroke-linejoin="round"/>
<path d="M204.905 264.658C204.997 265.568 204.847 266.486 204.469 267.319" stroke="#1D1D1B" stroke-linecap="round" stroke-linejoin="round"/>
<path d="M189.443 285.53C189.569 286.103 189.852 286.629 190.259 287.05C190.7 287.51 191.276 287.818 191.903 287.928C192.53 288.039 193.176 287.947 193.747 287.665C194.679 287.104 195.449 286.31 195.983 285.362C200.198 279.18 205.094 273.311 207.732 266.358C209.074 262.781 209.901 258.801 212.617 256.096" stroke="#1D1D1B" stroke-linecap="round" stroke-linejoin="round"/>
<path d="M206.568 257.861C207.014 259.506 207.251 261.2 207.273 262.903" stroke="#1D1D1B" stroke-linecap="round" stroke-linejoin="round"/>
<path d="M124.391 249.388L148.202 248.985" stroke="#1D1D1B" stroke-linecap="round" stroke-linejoin="round"/>
<path d="M148.237 255.815C140.442 263.322 131.43 269.453 121.586 273.948" stroke="#1D1D1B" stroke-linecap="round" stroke-linejoin="round"/>
<path d="M147.588 260.79C144.874 266.982 141.409 272.817 137.27 278.162" stroke="#1D1D1B" stroke-linecap="round" stroke-linejoin="round"/>
<path d="M175.391 271.309C176.227 284.922 177.75 298.484 179.952 311.944" stroke="#1D1D1B" stroke-linecap="round" stroke-linejoin="round"/>
<path d="M184.867 287.911C188.109 298.375 189.719 303.193 189.439 314.137" stroke="#1D1D1B" stroke-linecap="round" stroke-linejoin="round"/>
<path d="M190.213 287.104C192.046 290.861 193.757 294.695 195.322 298.574C195.791 299.692 196.25 300.899 196.697 302.073" stroke="#1D1D1B" stroke-linecap="round" stroke-linejoin="round"/>
<path d="M180.881 262.725C181.451 264.2 181.999 265.676 182.569 267.196" stroke="#1D1D1B" stroke-linecap="round" stroke-linejoin="round"/>
<path d="M176.73 259.471L178.676 260.735C178.823 260.856 179.001 260.933 179.19 260.958C179.536 260.958 179.782 260.645 179.961 260.354C180.328 259.845 180.566 259.254 180.654 258.633C180.691 258.312 180.635 257.987 180.495 257.697C180.354 257.406 180.135 257.161 179.861 256.99C179.517 256.842 179.136 256.806 178.771 256.886C178.407 256.967 178.076 257.159 177.826 257.437C177.313 258.025 176.939 258.72 176.73 259.471Z" stroke="#1D1D1B" stroke-width="0.5" stroke-linecap="round" stroke-linejoin="round"/>
<path d="M177.783 280.208C178.623 281.172 179.603 282.005 180.69 282.678L181.886 281.192C182.134 280.912 182.338 280.595 182.49 280.253C182.639 279.826 182.644 279.362 182.505 278.932C182.366 278.502 182.089 278.13 181.718 277.872C181.332 277.633 180.887 277.507 180.433 277.507C179.979 277.507 179.533 277.633 179.147 277.872C178.751 278.125 178.42 278.469 178.183 278.875C177.946 279.281 177.809 279.738 177.783 280.208Z" stroke="#1D1D1B" stroke-width="0.5" stroke-linecap="round" stroke-linejoin="round"/>
<path d="M184.088 283.797L185.798 285.552C185.866 285.649 185.952 285.731 186.052 285.795C186.152 285.858 186.263 285.901 186.38 285.921C186.611 285.913 186.831 285.817 186.994 285.652C187.387 285.431 187.733 285.135 188.011 284.78C188.289 284.425 188.494 284.019 188.615 283.584C188.66 283.048 188.522 282.512 188.224 282.064C188.137 281.858 188.005 281.675 187.837 281.528C187.67 281.38 187.471 281.273 187.255 281.214C187.04 281.155 186.814 281.145 186.595 281.186C186.375 281.227 186.168 281.317 185.988 281.449C185.532 281.696 185.129 282.03 184.803 282.433C184.477 282.836 184.234 283.299 184.088 283.797Z" stroke="#1D1D1B" stroke-width="0.5" stroke-linecap="round" stroke-linejoin="round"/>
<path d="M193.075 282.802C192.537 283.07 192.093 283.495 191.801 284.02C191.663 284.286 191.592 284.581 191.592 284.881C191.592 285.18 191.663 285.476 191.801 285.742C191.94 286.007 192.161 286.222 192.43 286.354C192.699 286.487 193.003 286.531 193.299 286.48C193.829 286.28 194.274 285.905 194.562 285.418C194.826 285.125 195.004 284.765 195.076 284.378C195.075 284.159 195.022 283.943 194.921 283.748C194.82 283.554 194.674 283.387 194.495 283.26C194.088 282.949 193.587 282.787 193.075 282.802Z" stroke="#1D1D1B" stroke-width="0.5" stroke-linecap="round" stroke-linejoin="round"/>
<path d="M211.959 245.419C211.814 245.85 211.758 246.306 211.794 246.76C211.831 247.213 211.959 247.655 212.171 248.057C212.391 248.46 212.714 248.796 213.107 249.032C213.5 249.268 213.949 249.395 214.407 249.399C214.861 249.401 215.303 249.256 215.668 248.986C216.033 248.716 216.3 248.335 216.431 247.901" stroke="#1D1D1B" stroke-width="0.5" stroke-linecap="round" stroke-linejoin="round"/>
<path d="M213.802 245.218C213.653 245.265 213.52 245.351 213.415 245.467C213.311 245.583 213.24 245.724 213.209 245.877C213.119 246.13 213.087 246.401 213.116 246.668C213.145 246.935 213.234 247.192 213.377 247.42C213.534 247.637 213.764 247.79 214.025 247.851C214.285 247.913 214.559 247.879 214.797 247.755C215.019 247.601 215.178 247.37 215.244 247.107C215.312 246.856 215.335 246.595 215.311 246.336" stroke="#1D1D1B" stroke-width="0.5" stroke-linecap="round" stroke-linejoin="round"/>
<path d="M139.771 254.161C139.71 254.891 139.898 255.619 140.304 256.228C140.71 256.837 141.31 257.291 142.007 257.515C142.71 257.717 143.456 257.72 144.161 257.522C144.865 257.325 145.501 256.935 145.998 256.397C146.464 255.885 146.771 255.248 146.881 254.564C146.945 254.068 146.892 253.565 146.727 253.093C146.562 252.622 146.289 252.195 145.931 251.847C145.569 251.505 145.139 251.244 144.669 251.08C144.198 250.916 143.699 250.854 143.203 250.897" stroke="#1D1D1B" stroke-width="0.5" stroke-linecap="round" stroke-linejoin="round"/>
<path d="M142.056 256.318C141.709 256.1 141.424 255.796 141.228 255.436C141.032 255.076 140.932 254.671 140.938 254.262C140.94 254.1 140.958 253.939 140.994 253.781C141.115 253.305 141.38 252.879 141.751 252.559C142.123 252.239 142.585 252.041 143.073 251.992H143.263C143.722 252 144.169 252.139 144.551 252.392C144.933 252.646 145.235 253.004 145.42 253.423" stroke="#1D1D1B" stroke-width="0.5" stroke-linecap="round" stroke-linejoin="round"/>
<path d="M32.961 143.97C32.7964 143.803 32.6725 143.6 32.5988 143.377C32.5252 143.154 32.5037 142.917 32.5362 142.684C32.5723 142.451 32.6716 142.232 32.8233 142.05C32.975 141.869 33.1734 141.733 33.397 141.656C33.6226 141.583 33.8654 141.584 34.0905 141.658C34.3155 141.733 34.5111 141.877 34.649 142.07" stroke="#1D1D1B" stroke-width="0.5" stroke-linecap="round" stroke-linejoin="round"/>
<path d="M31.1934 142.885C31.2482 143.409 31.481 143.898 31.8529 144.271C32.2151 144.657 32.6946 144.912 33.2168 144.998C33.7403 145.064 34.2713 144.96 34.7306 144.7C35.1899 144.44 35.5529 144.039 35.7656 143.556C35.9529 143.106 35.9882 142.608 35.8662 142.136C35.7491 141.579 35.4356 141.083 34.983 140.739" stroke="#1D1D1B" stroke-width="0.5" stroke-linecap="round" stroke-linejoin="round"/>
<path d="M34.579 135.742C34.3832 136.098 34.3218 136.513 34.4059 136.911C34.49 137.309 34.714 137.664 35.0374 137.91C35.3785 138.137 35.7791 138.258 36.1888 138.258C36.5985 138.258 36.9991 138.137 37.3402 137.91C37.6702 137.677 37.9425 137.372 38.1363 137.017C38.33 136.662 38.4401 136.268 38.4581 135.865C38.4886 135.53 38.4388 135.192 38.3128 134.881C38.2439 134.728 38.1436 134.591 38.0185 134.479C37.8933 134.368 37.746 134.283 37.5862 134.232" stroke="#1D1D1B" stroke-width="0.5" stroke-linecap="round" stroke-linejoin="round"/>
<path d="M35.5746 137.083C35.4626 136.881 35.3929 136.657 35.3698 136.427C35.3468 136.196 35.3708 135.963 35.4405 135.742C35.5123 135.521 35.6466 135.325 35.8271 135.178C36.0075 135.032 36.2265 134.94 36.4578 134.915C36.6897 134.897 36.9198 134.967 37.1036 135.109C37.2874 135.252 37.4118 135.457 37.4527 135.686" stroke="#1D1D1B" stroke-width="0.5" stroke-linecap="round" stroke-linejoin="round"/>
<path d="M36.1229 130.264C35.9445 130.664 35.9106 131.113 36.0268 131.535C36.143 131.957 36.4022 132.326 36.7601 132.578C37.132 132.809 37.5667 132.918 38.0036 132.89C38.4406 132.862 38.8578 132.698 39.1971 132.422C39.5252 132.134 39.7676 131.762 39.8978 131.346C40.028 130.93 40.0408 130.486 39.9349 130.063C39.8884 129.803 39.7708 129.561 39.5952 129.363C39.4196 129.166 39.1928 129.021 38.94 128.945" stroke="#1D1D1B" stroke-width="0.5" stroke-linecap="round" stroke-linejoin="round"/>
<path d="M37.319 131.751C37.1896 131.579 37.1054 131.378 37.0742 131.165C37.0429 130.952 37.0656 130.735 37.1402 130.533C37.23 130.339 37.3735 130.174 37.5538 130.059C37.7341 129.945 37.9436 129.884 38.1574 129.884C38.3713 129.906 38.5703 130.003 38.7182 130.159C38.866 130.315 38.9526 130.519 38.9623 130.734" stroke="#1D1D1B" stroke-width="0.5" stroke-linecap="round" stroke-linejoin="round"/>
<path d="M92.3398 32.9957C92.6634 31.5328 93.2916 30.1546 94.1834 28.9508C95.0752 27.7469 96.2106 26.7445 97.5157 26.0088" stroke="#1D1D1B" stroke-width="0.5" stroke-linecap="round" stroke-linejoin="round"/>
<path d="M93.7168 33.5771C95.7776 31.6088 98.5248 30.5219 101.374 30.5476C104.192 30.5971 106.994 30.9722 109.725 31.6655C111.349 32.0751 113.032 32.2037 114.7 32.0455C116.936 31.7102 118.791 30.4581 120.781 29.5191C122.892 28.4838 125.195 27.8976 127.544 27.7975C129.917 27.6886 132.264 28.3301 134.252 29.6309" stroke="#1D1D1B" stroke-width="0.5" stroke-linecap="round" stroke-linejoin="round"/>
<path d="M111.994 36.8857C112.273 37.6997 112.363 38.5662 112.259 39.4201C112.154 40.274 111.857 41.093 111.391 41.8157" stroke="#1D1D1B" stroke-width="0.5" stroke-linecap="round" stroke-linejoin="round"/>
<path d="M115.101 35.3877C114.781 36.7155 114.82 38.1045 115.213 39.4126C115.605 40.7206 116.339 41.901 117.337 42.8329" stroke="#1D1D1B" stroke-width="0.5" stroke-linecap="round" stroke-linejoin="round"/>
<path d="M119.686 38.9541C120.435 37.421 121.552 36.0974 122.937 35.1015C124.323 34.1056 125.934 33.4685 127.626 33.247C129.318 33.0256 131.038 33.2267 132.633 33.8325C134.228 34.4382 135.649 35.4297 136.767 36.7183" stroke="#1D1D1B" stroke-width="0.5" stroke-linecap="round" stroke-linejoin="round"/>
<path d="M110.875 54.0571C110.898 55.2209 110.713 56.3795 110.328 57.4779C110.073 58.27 109.882 59.0812 109.757 59.9038C109.729 60.2311 109.729 60.5602 109.757 60.8875C109.76 61.3987 109.867 61.904 110.07 62.3728C110.274 62.8417 110.571 63.2643 110.942 63.6152C111.051 63.706 111.167 63.7883 111.289 63.8611" stroke="#1D1D1B" stroke-width="0.5" stroke-linecap="round" stroke-linejoin="round"/>
<path d="M92.0605 40.7312C93.0132 39.6398 94.2078 38.7863 95.5491 38.2389C96.8903 37.6916 98.341 37.4655 99.7852 37.5787C102.671 37.8486 105.491 38.6045 108.125 39.8145" stroke="#1D1D1B" stroke-width="0.5" stroke-linecap="round" stroke-linejoin="round"/>
<path d="M108.618 59.8369C107.804 60.674 107.126 61.6317 106.605 62.6764C106.35 63.1984 106.217 63.7719 106.217 64.3532C106.217 64.9345 106.35 65.508 106.605 66.0301C106.667 66.1368 106.738 66.2378 106.818 66.3319C107.175 66.7784 107.657 67.1091 108.202 67.2822C108.747 67.4553 109.331 67.463 109.881 67.3045" stroke="#1D1D1B" stroke-width="0.5" stroke-linecap="round" stroke-linejoin="round"/>
<path d="M108.35 66.0524C108.49 65.8256 108.688 65.6405 108.924 65.5166C109.16 65.3927 109.425 65.3345 109.691 65.3481H109.836C110.416 65.4313 110.973 65.6248 111.48 65.9182L113.134 66.7455" stroke="#1D1D1B" stroke-width="0.5" stroke-linecap="round" stroke-linejoin="round"/>
<path d="M109.412 65.6943C109.482 65.9402 109.628 66.1578 109.829 66.3163C110.029 66.4748 110.275 66.5662 110.53 66.5775" stroke="#1D1D1B" stroke-width="0.5" stroke-linecap="round" stroke-linejoin="round"/>
<path d="M116.936 66.4879C117.509 66.1718 118.049 65.7972 118.545 65.37C118.795 65.1508 119.097 65.0005 119.423 64.9339C119.748 64.8672 120.085 64.8865 120.401 64.9899C120.57 65.072 120.718 65.1926 120.833 65.3421C120.947 65.4915 121.025 65.6657 121.061 65.8506C121.098 66.0355 121.087 66.2267 121.031 66.4066C120.974 66.5864 120.873 66.7489 120.736 66.8791" stroke="#1D1D1B" stroke-width="0.5" stroke-linecap="round" stroke-linejoin="round"/>
<path d="M122.3 67.2813C122.79 66.9649 123.18 66.5172 123.427 65.9894C123.674 65.4617 123.768 64.875 123.698 64.2966C123.527 63.1404 123.048 62.0516 122.312 61.1441C121.63 60.2162 120.825 59.3666 120.188 58.394" stroke="#1D1D1B" stroke-width="0.5" stroke-linecap="round" stroke-linejoin="round"/>
<path d="M97.6155 20.7993L97.2466 20.9111C94.0829 21.9619 90.7404 22.3979 87.5656 23.3929C84.3907 24.3878 80.9699 26.1764 79.2148 29.1612" stroke="#1D1D1B" stroke-width="0.5" stroke-linecap="round" stroke-linejoin="round"/>
<path d="M90.498 24.2534C86.4239 26.3664 83.0929 29.6741 80.9512 33.7332" stroke="#1D1D1B" stroke-width="0.5" stroke-linecap="round" stroke-linejoin="round"/>
<path d="M84.685 31.6992C84.2073 34.0515 83.457 36.34 82.4492 38.5184L82.6281 38.4402" stroke="#1D1D1B" stroke-width="0.5" stroke-linecap="round" stroke-linejoin="round"/>
<path d="M83.7344 17.4344C86.898 13.6224 92.018 11.9679 96.948 11.5319C98.6446 11.3241 100.364 11.4035 102.034 11.7667C103.717 12.1305 105.215 13.0816 106.26 14.4496C106.77 15.1371 107.087 15.9486 107.177 16.7998C107.267 17.651 107.128 18.5108 106.774 19.2901" stroke="#1D1D1B" stroke-width="0.5" stroke-linecap="round" stroke-linejoin="round"/>
<path d="M112.891 19.4016C113.797 18.4829 114.49 17.3753 114.919 16.1578C115.348 14.9403 115.503 13.6431 115.372 12.3589" stroke="#1D1D1B" stroke-width="0.5" stroke-linecap="round" stroke-linejoin="round"/>
<path d="M118.936 3.50586C121.083 3.92835 123.165 4.63119 125.129 5.59633C127.105 6.58015 128.623 8.2909 129.366 10.3698C129.683 11.7105 129.658 13.1096 129.293 14.4381C128.928 15.7667 128.234 16.9818 127.275 17.9715" stroke="#1D1D1B" stroke-width="0.5" stroke-linecap="round" stroke-linejoin="round"/>
<path d="M127.645 12.0352C127.567 13.1656 127.223 14.2617 126.64 15.2333C126.057 16.205 125.252 17.0245 124.291 17.6247" stroke="#1D1D1B" stroke-width="0.5" stroke-linecap="round" stroke-linejoin="round"/>
<path d="M125.408 14.4272C124.624 15.7958 123.459 16.9067 122.055 17.6245" stroke="#1D1D1B" stroke-width="0.5" stroke-linecap="round" stroke-linejoin="round"/>
<path d="M122.815 15.6016L120.68 17.3678" stroke="#1D1D1B" stroke-width="0.5" stroke-linecap="round" stroke-linejoin="round"/>
<path d="M122.367 12.9849C121.372 15.086 119.767 16.8389 117.762 18.0154" stroke="#1D1D1B" stroke-width="0.5" stroke-linecap="round" stroke-linejoin="round"/>
<path d="M117.147 16.1826C116.885 16.9829 116.428 17.7052 115.816 18.2843" stroke="#1D1D1B" stroke-width="0.5" stroke-linecap="round" stroke-linejoin="round"/>
<path d="M132.285 17.6584C133.725 16.8822 135.384 16.6145 136.995 16.8985C138.606 17.1825 140.074 18.0017 141.161 19.2235" stroke="#1D1D1B" stroke-width="0.5" stroke-linecap="round" stroke-linejoin="round"/>
<path d="M133.961 19.022C140.517 21.2069 145.98 25.8301 149.22 31.9337" stroke="#1D1D1B" stroke-width="0.5" stroke-linecap="round" stroke-linejoin="round"/>
<path d="M140.699 28.3457C143.671 31.5579 146.038 35.2807 147.686 39.3346" stroke="#1D1D1B" stroke-width="0.5" stroke-linecap="round" stroke-linejoin="round"/>
<path d="M141.617 31.8774C143.637 36.1925 145.657 40.5002 147.676 44.8004" stroke="#1D1D1B" stroke-width="0.5" stroke-linecap="round" stroke-linejoin="round"/>
<path d="M141.107 61.3564C138.454 64.754 136.746 68.7915 136.154 73.0609" stroke="#1D1D1B" stroke-width="0.5" stroke-linecap="round" stroke-linejoin="round"/>
<path d="M123.832 64.5205C124.682 70.3448 130.539 74.5034 131.3 80.3276" stroke="#1D1D1B" stroke-width="0.5" stroke-linecap="round" stroke-linejoin="round"/>
<path d="M106.102 67.2148C105.32 70.6915 103.732 73.9222 102.503 77.2759C102.141 78.1338 101.94 79.0508 101.91 79.9813C101.924 80.3351 101.988 80.6852 102.1 81.0209C102.283 81.58 102.655 82.0581 103.151 82.3736" stroke="#1D1D1B" stroke-width="0.5" stroke-linecap="round" stroke-linejoin="round"/>
<path d="M104.639 79.9919C104.903 80.0874 105.183 80.1287 105.464 80.1134C105.744 80.098 106.019 80.0263 106.271 79.9025C108.674 79.0641 111.089 78.2257 113.526 77.5102C114.027 77.6257 114.535 77.7078 115.046 77.7561C115.415 77.7561 115.773 77.8344 116.164 77.8567C117.722 77.3137 119.368 77.0709 121.016 77.1413C123.458 77.4887 125.871 78.0117 128.238 78.7063" stroke="#1D1D1B" stroke-width="0.5" stroke-linecap="round" stroke-linejoin="round"/>
<path d="M111.344 80.8867C115.094 81.3395 118.885 81.3395 122.635 80.8867" stroke="#1D1D1B" stroke-width="0.5" stroke-linecap="round" stroke-linejoin="round"/>
<path d="M114.529 69.708C114.585 71.1277 114.641 72.5475 114.686 73.9672C114.677 74.304 114.738 74.6389 114.865 74.951C114.967 75.1471 115.138 75.2985 115.345 75.3758C115.455 75.4037 115.571 75.4037 115.681 75.3758" stroke="#1D1D1B" stroke-width="0.5" stroke-linecap="round" stroke-linejoin="round"/>
<path d="M145.129 58.6855C146.285 56.72 147.749 54.9535 149.466 53.4537C149.897 53.0508 150.438 52.786 151.02 52.6935H151.166C151.43 52.6892 151.688 52.7789 151.893 52.9468C152.097 53.1147 152.236 53.3498 152.283 53.6102" stroke="#1D1D1B" stroke-width="0.5" stroke-linecap="round" stroke-linejoin="round"/>
<path d="M151.119 53.0737C151.548 54.8764 151.547 56.7546 151.115 58.5568C150.684 60.3589 149.835 62.0343 148.637 63.4478C148.501 63.655 148.288 63.7997 148.045 63.8503C147.886 63.8482 147.733 63.7915 147.61 63.6897C147.488 63.588 147.405 63.4473 147.374 63.2913C147.324 62.9804 147.324 62.6633 147.374 62.3523C147.433 61.8254 147.362 61.292 147.167 60.7989C146.973 60.3058 146.66 59.8681 146.256 59.524C146.597 60.5166 146.597 61.5945 146.256 62.5871C145.891 63.5719 145.211 64.4089 144.322 64.9682" stroke="#1D1D1B" stroke-width="0.5" stroke-linecap="round" stroke-linejoin="round"/>
<path d="M147.121 65.5825C146.768 67.6368 145.755 69.5202 144.237 70.9484C144.092 71.0826 143.812 71.1832 143.723 71.0043" stroke="#1D1D1B" stroke-width="0.5" stroke-linecap="round" stroke-linejoin="round"/>
<path d="M148.795 54.3369C149.018 54.3633 149.228 54.4564 149.398 54.6039C149.567 54.7515 149.688 54.9467 149.745 55.1641C149.872 55.5916 149.91 56.0406 149.857 56.4833C149.862 57.8165 149.635 59.1404 149.186 60.3959" stroke="#1D1D1B" stroke-width="0.5" stroke-linecap="round" stroke-linejoin="round"/>
<path d="M88.418 67.3379C89.0078 69.8045 90.4094 72.0013 92.3977 73.5758L92.2747 73.4416" stroke="#1D1D1B" stroke-width="0.5" stroke-linecap="round" stroke-linejoin="round"/>
<path d="M88.9874 61.4131C88.8598 62.5229 89.0236 63.6468 89.4627 64.674C89.9018 65.7012 90.6011 66.5963 91.4915 67.2709" stroke="#1D1D1B" stroke-width="0.5" stroke-linecap="round" stroke-linejoin="round"/>
<path d="M93.6035 63.7271C95.6951 67.6786 97.2693 71.8829 98.2875 76.2364" stroke="#1D1D1B" stroke-width="0.5" stroke-linecap="round" stroke-linejoin="round"/>
<path d="M97.4062 49.0377C98.2894 47.9023 99.5868 47.1635 101.014 46.9833C102.441 46.803 103.881 47.1961 105.019 48.0763" stroke="#1D1D1B" stroke-width="0.5" stroke-linecap="round" stroke-linejoin="round"/>
<path d="M105.755 50.1333C105.393 51.692 104.825 53.1957 104.067 54.6049C103.686 55.3075 103.17 55.928 102.548 56.4306C101.927 56.9332 101.212 57.3081 100.445 57.5338" stroke="#1D1D1B" stroke-width="0.5" stroke-linecap="round" stroke-linejoin="round"/>
<path d="M123.934 46.7795C124.385 46.255 124.936 45.8259 125.555 45.5172C126.174 45.2084 126.848 45.0264 127.538 44.9816C128.229 44.9368 128.921 45.0303 129.575 45.2564C130.228 45.4826 130.83 45.837 131.345 46.2988" stroke="#1D1D1B" stroke-width="0.5" stroke-linecap="round" stroke-linejoin="round"/>
<path d="M124.211 49.1826C124.686 51.0805 125.846 52.7357 127.468 53.8295C129.091 54.9233 131.06 55.3785 132.998 55.1075" stroke="#1D1D1B" stroke-width="0.5" stroke-linecap="round" stroke-linejoin="round"/>
<path d="M101.631 47.2266L101.866 49.6859" stroke="#1D1D1B" stroke-linecap="round" stroke-linejoin="round"/>
<path d="M127.543 45.4268C127.543 46.1199 127.644 46.813 127.688 47.5061" stroke="#1D1D1B" stroke-linecap="round" stroke-linejoin="round"/>
<path d="M146.863 208.517C146.67 209.142 146.695 209.813 146.932 210.422C147.17 211.031 147.606 211.542 148.171 211.871C148.759 212.172 149.427 212.281 150.081 212.182C150.735 212.084 151.341 211.784 151.815 211.323C152.409 210.707 152.745 209.887 152.754 209.031C152.755 208.657 152.681 208.286 152.537 207.941C152.393 207.595 152.182 207.282 151.916 207.019C151.648 206.76 151.319 206.572 150.96 206.473C150.6 206.373 150.222 206.365 149.859 206.449" stroke="#1D1D1B" stroke-width="0.5" stroke-linecap="round" stroke-linejoin="round"/>
<path d="M149.031 210.831C148.835 210.735 148.667 210.59 148.544 210.41C148.42 210.23 148.346 210.021 148.327 209.803C148.314 209.584 148.345 209.364 148.418 209.156C148.491 208.949 148.604 208.759 148.752 208.596C148.888 208.426 149.057 208.286 149.25 208.184C149.442 208.082 149.653 208.021 149.87 208.003C150.098 207.995 150.324 208.052 150.522 208.167C150.719 208.282 150.881 208.449 150.988 208.651" stroke="#1D1D1B" stroke-width="0.5" stroke-linecap="round" stroke-linejoin="round"/>
<path d="M144.883 183.733C144.705 183.688 144.539 183.605 144.396 183.489C144.253 183.372 144.138 183.226 144.059 183.06C143.979 182.894 143.937 182.713 143.936 182.529C143.934 182.345 143.973 182.163 144.05 181.995C144.127 181.828 144.24 181.68 144.381 181.561C144.521 181.443 144.686 181.357 144.864 181.309C145.042 181.262 145.228 181.254 145.409 181.286C145.59 181.319 145.762 181.391 145.912 181.497" stroke="#1D1D1B" stroke-width="0.5" stroke-linecap="round" stroke-linejoin="round"/>
<path d="M142.301 183.074C142.395 183.641 142.651 184.168 143.038 184.593C143.426 185.017 143.928 185.32 144.484 185.465C145.04 185.61 145.626 185.591 146.172 185.41C146.717 185.229 147.198 184.893 147.557 184.445C147.916 183.996 148.137 183.452 148.194 182.88C148.25 182.309 148.14 181.733 147.876 181.222C147.612 180.712 147.206 180.288 146.706 180.004C146.207 179.72 145.636 179.586 145.062 179.619" stroke="#1D1D1B" stroke-width="0.5" stroke-linecap="round" stroke-linejoin="round"/>
<path d="M115.393 99.0635L121.552 107.235" stroke="#1D1D1B" stroke-width="0.5" stroke-linecap="round" stroke-linejoin="round"/>
<path d="M129.557 97.1743C128.393 98.859 127.833 100.888 127.969 102.931C128.115 104.957 128.49 106.96 129.087 108.901" stroke="#1D1D1B" stroke-width="0.5" stroke-linecap="round" stroke-linejoin="round"/>
</svg>
