<svg width="299" height="393" viewBox="0 0 299 393" fill="none" xmlns="http://www.w3.org/2000/svg">
<path d="M234.007 351.878C234.163 352.584 234.511 353.233 235.014 353.752V353.821C237.275 358.453 239.384 363.182 241.314 367.966C241.838 371.646 242.789 372.101 243.299 375.975C243.754 379.422 244.085 383.282 241.92 386.025C240.183 388.258 237.288 389.113 234.462 389.664L234.021 387.155C234.366 373.659 232.381 367.717 228.383 354.814V354.635C228.821 354.804 229.298 354.852 229.761 354.773C230.44 354.573 231.054 354.197 231.54 353.684C232.284 353.008 233.001 352.305 233.663 351.561L234.007 351.878Z" fill="#E94D4F"/>
<path d="M185.673 156.037C184.882 146.014 182.716 136.147 179.235 126.715L179.924 126.453C182.351 132.96 184.524 139.545 186.445 146.208C200.375 194.601 201.231 245.821 188.927 294.653L188.43 294.529C181.813 276.732 177.677 258.052 173.542 239.455C171.612 230.687 169.668 221.726 170.784 212.821L171.529 209.622C177.308 201.695 181.417 192.676 183.605 183.112C185.308 175.971 186.095 168.643 185.949 161.303C185.949 159.552 185.825 157.815 185.673 156.037Z" fill="#D1D0D1"/>
<path d="M130.404 146.745L127.344 138.405L128.391 138.019C131.544 146.624 135.312 154.99 139.668 163.054C144.236 171.484 149.247 179.665 154.681 187.565C159.768 195.023 165.158 202.274 170.673 209.374L171.541 209.622L170.797 212.82C169.652 221.726 171.596 230.742 173.554 239.454C177.689 258.051 181.825 276.676 188.456 294.598L188.952 294.722C188.952 294.984 188.828 295.246 188.759 295.507L187.96 295.921C182.673 285.611 177.938 275.027 173.774 264.214C170.7 256.411 167.805 248.539 164.924 240.668L130.404 146.745Z" fill="#D1D0D1"/>
<path d="M43.1138 174.965C42.9437 174.727 42.7025 174.549 42.425 174.458C42.1475 174.366 41.848 174.365 41.5698 174.455C41.2941 174.549 41.0494 174.717 40.8623 174.941C40.6752 175.164 40.5528 175.435 40.5083 175.723C40.4682 176.01 40.4947 176.302 40.5855 176.577C40.6763 176.851 40.8291 177.102 41.0321 177.308L39.6536 177.68C40.1003 178.156 40.6914 178.471 41.3354 178.577C41.981 178.658 42.6358 178.53 43.2022 178.209C43.7686 177.889 44.2163 177.394 44.4786 176.798C44.7096 176.244 44.7531 175.629 44.6027 175.047L43.1138 174.965ZM83.5062 151.363L84.3885 148.744L85.1053 148.978C85.8011 149.6 86.2835 150.425 86.4839 151.336C86.6357 152.119 86.6357 152.924 86.4839 153.707C86.1266 155.385 85.493 156.992 84.609 158.463C82.5687 162.378 80.5744 166.316 78.626 170.277C77.3991 172.745 76.1859 175.227 75.0141 177.722C72.5602 182.85 70.1891 188.011 67.9007 193.203C65.6857 198.194 63.5397 203.216 61.4627 208.271C60.4425 210.766 59.4362 213.262 58.4987 215.784C56.7986 220.144 55.3261 224.589 54.0873 229.101C53.5358 231.128 53.0533 233.237 52.6398 235.25C52.5433 235.719 52.4606 236.174 52.3778 236.629L54.0597 236.946C55.5775 244.148 54.9398 251.637 52.2262 258.479L55.1901 259.72C55.1074 259.968 55.0109 260.216 54.9144 260.45C53.1108 264.39 49.8564 267.481 45.8296 269.08C41.6046 270.73 37.1495 271.716 32.6228 272.003C28.1123 272.706 23.5179 272.679 19.0162 271.92C14.458 270.826 10.3297 268.398 7.15924 264.945C3.98883 261.492 1.92048 257.172 1.21876 252.537C0.901651 249.074 0.929358 245.587 1.30148 242.129C1.38804 239.125 1.8229 236.141 2.59734 233.237C3.35291 230.402 5.13046 227.947 7.5878 226.344C15.7096 193.919 28.4148 162.817 45.3195 133.979H45.802L46.5465 134.738C50.9993 139.108 56.6239 142.127 62.1382 145.077C65.4962 146.98 68.9941 148.626 72.6016 149.999C74.921 150.836 77.3405 151.364 79.7978 151.57C81.0357 151.687 82.282 151.687 83.5199 151.57L83.5062 151.363Z" fill="#E94D4F"/>
<path d="M255.223 256.673C254.379 255.885 253.706 254.932 253.247 253.873C252.787 252.814 252.549 251.672 252.549 250.517C252.549 249.363 252.787 248.221 253.247 247.162C253.706 246.103 254.379 245.15 255.223 244.362L255.554 243.783C252.768 242.277 250.421 240.073 248.743 237.387L248.95 236.863C243.879 234.989 239.534 231.552 236.543 227.047C237.494 221.092 238.459 215.15 239.3 209.126C241.988 189.688 243.091 169.519 237.232 150.798L240.251 149.185C241.238 151.206 241.988 153.334 242.485 155.527C243.781 160.434 245.081 165.342 246.386 170.25C249.718 172.719 251.969 176.378 252.672 180.465C254.959 181.206 256.911 182.729 258.187 184.766C259.78 187.036 260.732 189.693 260.944 192.459V192.583C262.157 192.844 263.268 193.452 264.142 194.334C265.204 195.574 265.383 197.339 266.306 198.676C267.685 200.606 270.153 201.213 272.234 202.302C278.397 205.514 280.754 213.124 285.896 217.797C288.515 220.182 292.086 222.112 293.272 225.669C294.821 227.138 296.056 228.905 296.905 230.865C297.753 232.824 298.196 234.935 298.207 237.07C298.211 241.337 297.588 245.583 296.36 249.67C293.096 262.457 289.194 275.073 284.669 287.47C284.145 288.849 283.608 290.31 283.084 291.716C282.643 292.888 282.188 294.046 281.705 295.218C281.126 296.707 280.533 298.182 279.941 299.657C279.348 301.132 278.865 302.29 278.328 303.6C277.79 304.909 277.17 306.357 276.577 307.735C275.598 310.024 274.578 312.312 273.544 314.628L273.448 314.752C272.298 311.929 270.797 309.261 268.981 306.812C268.083 305.596 267.106 304.441 266.058 303.352C265.534 302.8 264.997 302.263 264.432 301.752C263.196 300.597 261.879 299.533 260.489 298.568C255.103 295.078 248.956 292.936 242.567 292.323C241.506 292.199 240.472 292.13 239.452 292.102C239.683 291.123 240.157 290.217 240.83 289.469C246.14 282.097 250.218 273.912 252.907 265.234C252.432 263.772 252.391 262.205 252.787 260.72C253.183 259.235 254.001 257.897 255.14 256.866L255.223 256.673ZM286.282 231.721C286.282 231.224 285.758 230.907 285.303 230.714C283.728 230.117 282.105 229.656 280.451 229.336C269.16 226.758 257.718 224.166 245.655 224.704C258.38 228.633 271.325 232.603 284.642 232.672C285.345 232.644 286.282 232.41 286.282 231.707V231.721Z" fill="#E94D4F"/>
<path d="M179.923 126.494L179.234 126.756C177.855 122.786 176.159 118.884 174.354 115.066L174.891 114.817C178.96 116.054 182.647 118.308 185.603 121.366C188.649 124.302 191.282 127.638 194.191 130.712C195.542 132.137 196.953 133.516 198.424 134.848C203.582 139.416 209.383 143.201 215.642 146.084L207.37 152.191C205.001 151.022 202.745 149.637 200.629 148.055C199.042 146.683 197.264 145.55 195.349 144.691C194.382 144.28 193.319 144.148 192.281 144.311C191.242 144.475 190.271 144.926 189.477 145.615L186.485 146.208C184.537 139.581 182.349 133.01 179.923 126.494Z" fill="#E94D4F"/>
<path d="M285.302 230.701C285.757 230.894 286.281 231.211 286.281 231.707C286.281 232.203 285.344 232.645 284.641 232.645C271.323 232.576 258.379 228.605 245.654 224.676C257.717 224.139 269.159 226.731 280.45 229.308C282.104 229.633 283.727 230.099 285.302 230.701Z" fill="#E94D4F"/>
<path d="M273.473 314.725C272.438 316.023 270.97 316.904 269.337 317.206C267.329 317.258 265.358 316.664 263.713 315.511C265.367 312.753 266.994 309.858 268.648 307.032L269.007 306.784C270.823 309.233 272.323 311.901 273.473 314.725Z" fill="#1D1D1B"/>
<path d="M242.65 292.295V292.543L241.436 294.653L240.954 294.377C240.481 294.23 240.079 293.914 239.825 293.489C239.571 293.064 239.482 292.561 239.575 292.075C240.554 292.102 241.588 292.171 242.65 292.295Z" fill="#1D1D1B"/>
<path d="M207.33 152.19L215.602 146.083C209.343 143.201 203.542 139.416 198.383 134.848L198.507 134.71C206.404 137.622 214.541 139.831 222.825 141.313C225.024 141.619 227.199 142.08 229.332 142.692C230.754 143.132 232.102 143.782 233.33 144.622L233.578 144.277C234.853 144.455 236.071 144.92 237.141 145.636C238.211 146.352 239.104 147.302 239.754 148.413C239.92 148.689 240.085 148.964 240.237 149.24L237.218 150.853C243.077 169.574 241.974 189.743 239.286 209.181C238.472 215.136 237.507 221.078 236.529 227.102C234.392 240.557 232.393 254.012 232.227 267.619C232.117 280.302 233.606 293.302 230.077 305.461V305.695C229.111 305.508 228.117 305.516 227.154 305.717C226.19 305.918 225.277 306.309 224.466 306.867C221.461 308.99 220.482 312.947 218.428 315.993C217.851 316.75 217.321 317.542 216.842 318.364C216.353 319.195 216.195 320.18 216.401 321.121C216.509 321.493 216.682 321.843 216.911 322.155L215.533 323.217C218.288 326.836 220.732 330.683 222.839 334.714L223.184 334.907C222.632 335.886 222.053 336.865 221.447 337.816C220.374 339.337 219.451 340.957 218.69 342.655C218.35 343.509 218.149 344.412 218.097 345.329C218.021 346.272 218.177 347.219 218.552 348.086C218.902 348.954 219.535 349.676 220.349 350.137C221.163 350.598 222.109 350.769 223.032 350.623C223.588 350.491 224.11 350.242 224.562 349.892L225.004 350.03C225.089 350.848 225.346 351.639 225.757 352.351C226.168 353.064 226.724 353.682 227.389 354.166C227.692 354.381 228.021 354.557 228.367 354.69V354.869C232.365 367.773 234.35 373.714 234.006 387.211L234.447 389.72L233.482 389.885C219.63 392.478 205.472 393.022 191.463 391.498C181.275 390.257 171.335 387.597 161.272 385.57C132.887 379.821 105.164 388.244 77.3577 380.056H77.0407C76.9903 342.963 80.415 305.947 87.2697 269.494C81.7968 260.711 77.9447 251.018 75.8964 240.874L75.1934 240.488L76.2824 239.289C79.8701 235.488 83.6525 231.876 87.6144 228.467L86.9251 226.937L87.7798 225.462C88.0004 223.656 88.2071 221.836 88.4001 220.016C89.3889 212.868 89.3285 205.614 88.2209 198.483C88.2209 198.235 88.1244 197.973 88.0693 197.725C86.2082 188.626 81.6727 180.175 80.17 171.008L78.5847 170.222C80.5239 166.252 82.5182 162.314 84.5677 158.408C85.4517 156.937 86.0852 155.33 86.4426 153.652C86.5943 152.869 86.5943 152.064 86.4426 151.28L87.0216 151.156C94.1264 149.749 100.968 147.242 107.3 143.726L107.714 143.988C105.47 147.949 102.506 151.455 98.9739 154.327C102.237 157.253 106.279 159.168 110.609 159.841V160.545C106.731 162.982 102.665 165.107 98.45 166.9C103.247 180.107 112.787 190.942 121.886 201.709C139.056 222.145 155.117 243.489 169.998 265.647L173.776 264.159C177.939 274.972 182.674 285.556 187.961 295.866L188.761 295.452C188.761 295.19 188.899 294.928 188.954 294.667C201.258 245.835 200.402 194.614 186.472 146.221L189.464 145.628C190.258 144.94 191.229 144.488 192.268 144.325C193.306 144.161 194.369 144.293 195.337 144.705C197.251 145.563 199.03 146.696 200.617 148.068C202.724 149.645 204.971 151.024 207.33 152.19ZM181.537 313.636C181.616 313.025 181.551 312.404 181.348 311.822C181.144 311.24 180.808 310.714 180.365 310.286C179.919 309.864 179.389 309.541 178.809 309.339C178.229 309.137 177.613 309.06 177.001 309.114V310.493H176.767C176.165 310.553 175.596 310.797 175.138 311.192C174.679 311.586 174.353 312.112 174.203 312.698C174.16 312.893 174.136 313.092 174.134 313.291L172.755 313.222C172.681 314.122 172.913 315.02 173.413 315.771C173.914 316.522 174.654 317.081 175.513 317.358C176.383 317.604 177.304 317.603 178.173 317.354C179.042 317.106 179.825 316.62 180.434 315.952C181.024 315.307 181.408 314.5 181.537 313.636Z" fill="#E94D4F"/>
<path d="M228.683 316.365C229.506 316.61 230.362 316.722 231.22 316.696C229.566 320.984 227.898 325.285 225.94 329.434L225.471 329.214C224.782 327.394 224.093 325.574 223.39 323.699L222.797 323.603C223.095 323.396 223.376 323.166 223.638 322.914C225.605 321.086 227.104 318.811 228.008 316.283L228.683 316.365Z" fill="#E94D4F"/>
<path d="M225.527 329.213L225.996 329.434C225.155 331.254 224.232 333.06 223.239 334.81L222.894 334.617C220.788 330.586 218.343 326.74 215.588 323.12L216.966 322.059C217.368 322.596 217.857 323.062 218.414 323.437C219.217 324.085 220.223 324.427 221.254 324.402C221.844 324.315 222.403 324.083 222.881 323.727L223.473 323.823C224.149 325.602 224.838 327.394 225.527 329.213Z" fill="#E94D4F"/>
<path d="M174.188 313.319C174.19 313.12 174.213 312.921 174.256 312.726C174.406 312.14 174.732 311.614 175.191 311.22C175.65 310.825 176.219 310.581 176.821 310.521H177.055V309.142C177.667 309.088 178.283 309.165 178.863 309.367C179.442 309.569 179.973 309.892 180.419 310.314C180.861 310.742 181.198 311.268 181.401 311.85C181.605 312.432 181.67 313.053 181.591 313.664C181.44 314.525 181.037 315.321 180.433 315.952C179.834 316.633 179.058 317.133 178.191 317.396C177.324 317.659 176.4 317.674 175.525 317.441C174.666 317.164 173.926 316.605 173.425 315.854C172.925 315.103 172.693 314.205 172.768 313.305L174.188 313.319Z" fill="#E94D4F"/>
<path d="M173.747 264.172L169.97 265.661C155.089 243.503 139.028 222.159 121.858 201.723C112.814 190.956 103.274 180.121 98.4219 166.914C102.637 165.121 106.703 162.996 110.581 160.558C112.321 159.427 113.959 158.144 115.475 156.726C117.474 154.837 119.211 152.687 121.279 150.881C123.274 148.96 125.837 147.737 128.585 147.393L130.35 146.745L164.814 240.626C167.778 248.498 170.673 256.37 173.747 264.172Z" fill="#E94D4F"/>
<path d="M173.335 143.795L172.756 144.719L172.053 146.359C172.399 146.811 172.652 147.326 172.798 147.876C172.901 148.418 172.901 148.974 172.798 149.516C172.363 152.233 171.463 154.854 170.137 157.264C170.137 157.264 170.137 157.333 170.137 157.374L167.959 155.996C167.242 155.71 166.465 155.606 165.698 155.692C164.366 155.805 163.133 156.439 162.265 157.457C161.901 157.969 161.51 158.461 161.094 158.932C160.803 159.216 160.441 159.416 160.046 159.511C159.825 159.573 159.591 159.573 159.37 159.511C158.723 159.277 158.405 158.56 157.992 158.022C156.613 156.34 153.953 156.258 152.478 154.631C151.915 153.98 151.585 153.16 151.54 152.301C151.493 150.953 151.777 149.613 152.367 148.4C153.291 146.401 154.656 144.526 154.904 142.334L154.794 142.1C156.464 141.341 158.239 140.839 160.06 140.611L160.556 140.542C162.008 139.934 163.581 139.673 165.151 139.781C166.721 139.889 168.245 140.362 169.599 141.162C170.944 141.89 172.198 142.774 173.335 143.795Z" fill="#E94D4F"/>
<path d="M183.618 183.112C181.43 192.676 177.321 201.695 171.542 209.622L170.673 209.374C165.159 202.274 159.769 195.023 154.682 187.565L154.819 187.468C156.079 183.195 157.122 178.871 157.949 174.496L161.464 175.199C164.982 170.093 166.494 163.869 165.71 157.719L165.6 155.651C166.367 155.565 167.144 155.669 167.861 155.954L170.039 157.333C170.039 157.333 170.039 157.264 170.039 157.222L170.356 157.388C175.729 165.438 180.177 174.067 183.618 183.112Z" fill="#E94D4F"/>
<path d="M165.713 157.718C166.496 163.869 164.984 170.093 161.467 175.199L157.951 174.496C158.885 169.636 159.566 164.73 159.991 159.8V159.469C160.386 159.374 160.748 159.174 161.039 158.89C161.456 158.419 161.847 157.927 162.211 157.415C163.078 156.397 164.312 155.763 165.644 155.65L165.713 157.718Z" fill="#E94D4F"/>
<path d="M154.724 142.017L154.834 142.251C154.586 144.443 153.221 146.318 152.298 148.317C151.708 149.531 151.424 150.87 151.47 152.219H151.043C149.307 151.75 147.703 150.887 146.356 149.696L146.066 149.489L146.59 148.745C148.669 145.832 151.473 143.513 154.724 142.017Z" fill="#E94D4F"/>
<path d="M127.344 138.405L130.404 146.745L128.639 147.393C125.891 147.737 123.328 148.96 121.333 150.881C119.265 152.687 117.528 154.837 115.529 156.726C114.013 158.144 112.376 159.427 110.635 160.558V159.855C106.305 159.182 102.263 157.267 99 154.341C102.532 151.469 105.496 147.962 107.74 144.002L107.975 143.616C110.415 139.618 112.565 135.427 115.35 131.649C118.006 128.053 121.195 124.883 124.807 122.248L125.276 122.33C125.076 123.324 124.993 124.337 125.028 125.349C125.216 127.875 125.754 130.361 126.627 132.739C127.206 134.503 127.799 136.24 128.433 137.977L127.344 138.405Z" fill="#E94D4F"/>
<path d="M74.614 192.803L70.9469 194.54L67.9141 193.162C70.2025 187.969 72.5737 182.808 75.0275 177.68L75.6617 178.094C75.9925 189.04 79.632 194.457 83.9332 199.296C84.0415 199.469 84.1867 199.615 84.3583 199.725C84.5299 199.834 84.7237 199.905 84.9257 199.93C85.062 199.914 85.1935 199.87 85.3127 199.801C85.4318 199.733 85.5361 199.642 85.6195 199.532C85.7029 199.423 85.7638 199.299 85.7985 199.166C85.8333 199.033 85.8412 198.895 85.8218 198.759C85.8094 198.617 85.7769 198.478 85.7253 198.345L88.124 197.849C88.124 198.097 88.2343 198.359 88.2757 198.607C89.3833 205.738 89.4436 212.992 88.4549 220.14L87.5175 220.044C83.2163 210.927 78.9151 201.847 74.614 192.803Z" fill="#E94D4F"/>
<path d="M87.5169 219.975L88.4544 220.072C88.2614 221.891 88.0546 223.711 87.834 225.517L86.9793 226.992C81.8234 227.847 76.6399 228.513 71.4289 228.991H67.6929C67.5842 217.421 68.6745 205.872 70.9464 194.527L74.6134 192.79C78.9146 201.861 83.2158 210.923 87.5169 219.975Z" fill="#E94D4F"/>
<path d="M88.0707 197.78L85.6719 198.277C85.5162 197.888 85.3024 197.526 85.0378 197.201C80.8224 191.428 77.6498 184.961 75.6634 178.094L75.0293 177.791C76.2011 175.296 77.4142 172.814 78.6412 170.347L80.2265 171.132C81.7292 180.231 86.2647 188.682 88.0707 197.78Z" fill="#E94D4F"/>
<path d="M60.6642 252.62C60.1403 254.068 59.8232 255.598 59.1891 257.004C58.8634 257.9 58.3112 258.695 57.5864 259.314C56.8616 259.932 55.9889 260.353 55.0533 260.533L54.8328 260.451C54.9293 260.216 55.0258 259.968 55.1085 259.72L52.1445 258.479C54.8684 251.656 55.5252 244.181 54.0332 236.987L52.3513 236.67C52.434 236.202 52.5167 235.747 52.6132 235.292C53.0268 233.224 53.5093 231.156 54.0608 229.143L54.7638 229.322C55.1085 229.888 55.4393 230.439 55.7426 230.99C57.3988 234.376 58.2078 238.114 58.1 241.881C57.9135 246.279 57.2901 250.648 56.2389 254.923C59.8508 250.787 61.1329 244.914 58.7066 237.553L61.2432 237.098C59.9212 230.373 59.7627 223.472 60.7744 216.695L58.5136 215.84C59.451 213.317 60.4574 210.822 61.4775 208.327C63.5821 203.235 65.7281 198.212 67.9155 193.259L70.9484 194.637C68.6764 205.982 67.5861 217.532 67.6949 229.102H71.4309C76.6419 228.624 81.8253 227.958 86.9812 227.103L87.6705 228.633C83.7087 232.042 79.9263 235.654 76.3386 239.455L75.2495 240.654C74.1987 241.884 73.0458 243.023 71.8031 244.059C70.1669 245.442 68.1459 246.289 66.013 246.486C65.8303 247.877 65.2753 249.193 64.4066 250.294C63.5379 251.396 62.3878 252.242 61.0777 252.745L60.6642 252.62Z" fill="#E94D4F"/>
<path d="M85.8222 198.69C85.8416 198.826 85.8337 198.964 85.7989 199.097C85.7642 199.23 85.7034 199.355 85.6199 199.464C85.5365 199.573 85.4322 199.664 85.3131 199.732C85.194 199.801 85.0624 199.845 84.9262 199.862C84.7241 199.836 84.5304 199.765 84.3587 199.656C84.1871 199.546 84.0419 199.4 83.9336 199.227C79.6324 194.389 75.993 188.971 75.6621 178.025C77.6579 184.92 80.8496 191.411 85.0916 197.201C85.3562 197.525 85.57 197.888 85.7257 198.276C85.7773 198.409 85.8098 198.548 85.8222 198.69Z" fill="#E94D4F"/>
<path d="M61.2683 237.083L58.7318 237.538C57.9665 235.257 56.9735 233.058 55.7678 230.976C55.4765 230.4 55.1496 229.843 54.789 229.308L54.0859 229.129C55.3284 224.607 56.8055 220.153 58.5112 215.784L60.772 216.639C59.7646 223.432 59.9325 230.347 61.2683 237.083Z" fill="#E94D4F"/>
<path d="M58.7335 237.539C61.1598 244.9 59.8777 250.814 56.2658 254.909C57.317 250.634 57.9404 246.265 58.1269 241.867C58.2347 238.1 57.4257 234.362 55.7695 230.977C56.9753 233.059 57.9683 235.257 58.7335 237.539Z" fill="#E94D4F"/>
<path d="M44.6171 175.047C44.7675 175.629 44.724 176.244 44.493 176.798C44.2307 177.394 43.783 177.889 43.2166 178.209C42.6502 178.53 41.9954 178.659 41.3498 178.577C40.7059 178.471 40.1147 178.156 39.668 177.681L41.0465 177.308C40.8436 177.102 40.6907 176.852 40.5999 176.577C40.5091 176.302 40.4827 176.01 40.5227 175.723C40.5672 175.435 40.6897 175.164 40.8767 174.941C41.0638 174.717 41.3085 174.549 41.5842 174.455C41.8624 174.365 42.1619 174.366 42.4394 174.458C42.7169 174.549 42.9582 174.727 43.1282 174.965L44.6171 175.047Z" fill="#E94D4F"/>
<path d="M123.402 99.4185C123.513 99.708 123.623 99.9975 123.706 100.287C124.271 102.385 124.704 104.517 125.002 106.67C125.295 109.133 126.247 111.472 127.759 113.439C129.847 115.454 132.531 116.74 135.41 117.106C141.641 118.291 148.038 117.795 154.351 117.299C156.509 117.265 158.638 116.796 160.61 115.92C162.703 114.732 164.277 112.804 165.022 110.516C165.512 109.137 165.786 107.691 165.835 106.229" stroke="#1D1D1B" stroke-linecap="round" stroke-linejoin="round"/>
<path d="M127.166 118.292C126.182 119.484 125.518 120.907 125.236 122.427C125.037 123.421 124.954 124.434 124.988 125.446C125.176 127.972 125.715 130.458 126.587 132.836C127.166 134.6 127.759 136.337 128.393 138.074C131.545 146.679 135.314 155.046 139.67 163.109C144.237 171.539 149.249 179.721 154.683 187.62C159.77 195.078 165.16 202.33 170.674 209.429" stroke="#1D1D1B" stroke-linecap="round" stroke-linejoin="round"/>
<path d="M172.853 111.991C173.363 113.011 173.873 114.045 174.355 115.065C176.161 118.884 177.802 122.786 179.235 126.756C182.713 136.175 184.879 146.028 185.673 156.037C185.825 157.774 185.908 159.511 185.935 161.262C186.091 168.6 185.312 175.929 183.619 183.071C181.431 192.634 177.323 201.653 171.543 209.581" stroke="#1D1D1B" stroke-linecap="round" stroke-linejoin="round"/>
<path d="M127.703 123.378L130.626 125.529L138.58 131.402C141.664 133.963 145.166 135.973 148.933 137.343C152.559 138.446 156.543 138.363 159.962 139.99C165.248 134.918 169.389 128.775 172.107 121.972C172.576 120.814 173.003 119.629 173.375 118.429" stroke="#1D1D1B" stroke-linecap="round" stroke-linejoin="round"/>
<path d="M173.735 100.356C173.12 104.198 172.66 108.067 172.357 111.964C172.099 115.291 171.971 118.618 171.971 121.945" stroke="#1D1D1B" stroke-linecap="round" stroke-linejoin="round"/>
<path d="M139.945 162.93C141.426 158.237 143.482 153.746 146.066 149.558L146.59 148.813C148.664 145.885 151.468 143.552 154.724 142.044C156.394 141.286 158.17 140.784 159.99 140.556L160.486 140.487C161.938 139.879 163.511 139.618 165.081 139.726C166.651 139.834 168.175 140.307 169.53 141.107C170.904 141.869 172.182 142.795 173.335 143.864C174.506 144.912 175.609 146.042 176.698 147.186L185.342 156.175" stroke="#1D1D1B" stroke-linecap="round" stroke-linejoin="round"/>
<path d="M146.357 149.736C147.704 150.927 149.309 151.791 151.045 152.259" stroke="#1D1D1B" stroke-linecap="round" stroke-linejoin="round"/>
<path d="M154.833 142.251C154.585 144.443 153.221 146.318 152.297 148.317C151.707 149.53 151.423 150.87 151.47 152.218C151.515 153.077 151.845 153.897 152.407 154.548C153.786 156.175 156.543 156.257 157.922 157.939C158.363 158.477 158.68 159.194 159.3 159.428C159.521 159.49 159.755 159.49 159.976 159.428C160.371 159.333 160.732 159.133 161.023 158.849C161.44 158.378 161.831 157.886 162.195 157.374C163.062 156.357 164.296 155.722 165.628 155.609C166.395 155.523 167.171 155.628 167.889 155.913" stroke="#1D1D1B" stroke-linecap="round" stroke-linejoin="round"/>
<path d="M170.041 157.415C170.041 157.415 170.041 157.346 170.041 157.305C171.367 154.894 172.267 152.273 172.702 149.557C172.805 149.015 172.805 148.459 172.702 147.917C172.556 147.367 172.303 146.852 171.957 146.4L172.66 144.76" stroke="#1D1D1B" stroke-linecap="round" stroke-linejoin="round"/>
<path d="M165.627 140.873L170.59 145.119" stroke="#1D1D1B" stroke-linecap="round" stroke-linejoin="round"/>
<path d="M165.711 157.718C166.494 163.869 164.982 170.093 161.465 175.199" stroke="#1D1D1B" stroke-linecap="round" stroke-linejoin="round"/>
<path d="M159.988 159.8C159.562 164.731 158.881 169.636 157.948 174.496C157.121 178.861 156.077 183.186 154.818 187.468" stroke="#1D1D1B" stroke-linecap="round" stroke-linejoin="round"/>
<path d="M170.412 157.416C175.763 165.455 180.193 174.07 183.619 183.098C183.688 183.264 183.757 183.416 183.812 183.581" stroke="#1D1D1B" stroke-linecap="round" stroke-linejoin="round"/>
<path d="M170.784 212.821C169.64 221.726 171.584 230.742 173.541 239.455C177.677 258.052 181.813 276.677 188.444 294.598" stroke="#1D1D1B" stroke-linecap="round" stroke-linejoin="round"/>
<path d="M87.0078 151.212C94.1127 149.805 100.955 147.297 107.287 143.781" stroke="#1D1D1B" stroke-linecap="round" stroke-linejoin="round"/>
<path d="M124.766 122.29C121.154 124.925 117.965 128.095 115.309 131.691C112.552 135.469 110.374 139.66 107.934 143.658L107.699 144.044C105.455 148.004 102.491 151.511 98.959 154.383C102.222 157.309 106.264 159.224 110.594 159.897" stroke="#1D1D1B" stroke-linecap="round" stroke-linejoin="round"/>
<path d="M128.642 147.393C125.894 147.737 123.331 148.96 121.335 150.881C119.267 152.687 117.53 154.837 115.532 156.726C114.016 158.144 112.378 159.427 110.638 160.558C106.76 162.996 102.694 165.121 98.4785 166.914C103.276 180.121 112.816 190.956 121.914 201.723C139.085 222.159 155.145 243.503 170.027 265.661" stroke="#1D1D1B" stroke-linecap="round" stroke-linejoin="round"/>
<path d="M125.719 133.979C126.256 135.455 126.794 136.916 127.345 138.391L130.406 146.731L164.87 240.613C167.752 248.484 170.647 256.356 173.721 264.159C177.884 274.972 182.619 285.556 187.906 295.866C190.071 300.002 192.359 304.138 194.799 308.122C204.932 335.459 208.323 352.236 210.391 381.366" stroke="#1D1D1B" stroke-linecap="round" stroke-linejoin="round"/>
<path d="M179.373 125.005C179.566 125.501 179.745 125.997 179.924 126.494C182.351 133.001 184.524 139.586 186.445 146.249C200.375 194.642 201.231 245.862 188.927 294.694C188.927 294.956 188.803 295.218 188.734 295.48" stroke="#1D1D1B" stroke-linecap="round" stroke-linejoin="round"/>
<path d="M189.438 145.656C190.232 144.967 191.203 144.516 192.241 144.352C193.28 144.189 194.343 144.321 195.31 144.732C197.225 145.591 199.003 146.724 200.59 148.096C202.706 149.678 204.962 151.063 207.331 152.232C212.188 154.618 217.413 156.166 222.785 156.809C222.286 196.65 214.104 236.02 198.688 272.761" stroke="#1D1D1B" stroke-linecap="round" stroke-linejoin="round"/>
<path d="M174.92 114.817C178.989 116.054 182.675 118.308 185.631 121.366C188.678 124.302 191.311 127.638 194.22 130.712C195.571 132.137 196.982 133.516 198.452 134.848C203.611 139.416 209.412 143.201 215.671 146.084L207.399 152.191" stroke="#1D1D1B" stroke-linecap="round" stroke-linejoin="round"/>
<path d="M75.9531 240.93C78.0014 251.074 81.8535 260.767 87.3264 269.549C80.4532 306.001 77.0101 343.017 77.0422 380.111V380.484" stroke="#1D1D1B" stroke-linecap="round" stroke-linejoin="round"/>
<path d="M206.021 290.6C208.255 303.038 211.219 315.333 214.9 327.422" stroke="#1D1D1B" stroke-linecap="round" stroke-linejoin="round"/>
<path d="M212.939 319.826C213.849 320.901 214.732 322.004 215.586 323.121C218.342 326.74 220.786 330.587 222.893 334.618" stroke="#1D1D1B" stroke-linecap="round" stroke-linejoin="round"/>
<path d="M222.84 276.346C226.135 286.861 225.873 298.17 222.096 308.522" stroke="#1D1D1B" stroke-linecap="round" stroke-linejoin="round"/>
<path d="M237.26 150.853C243.119 169.574 242.016 189.743 239.328 209.181C238.515 215.136 237.55 221.078 236.571 227.102C234.434 240.557 232.435 254.012 232.27 267.619C232.159 280.302 233.648 293.302 230.119 305.461" stroke="#1D1D1B" stroke-linecap="round" stroke-linejoin="round"/>
<path d="M198.549 134.655C206.445 137.566 214.583 139.776 222.867 141.258C225.066 141.564 227.24 142.025 229.374 142.637C230.796 143.077 232.143 143.727 233.372 144.567C233.977 144.963 234.537 145.425 235.04 145.945" stroke="#1D1D1B" stroke-linecap="round" stroke-linejoin="round"/>
<path d="M248.315 177.474L246.413 170.305C245.117 165.388 243.803 160.48 242.47 155.582C241.973 153.389 241.223 151.261 240.237 149.24C240.085 148.965 239.92 148.689 239.754 148.413C239.104 147.302 238.211 146.353 237.141 145.636C236.071 144.92 234.853 144.455 233.578 144.277" stroke="#1D1D1B" stroke-linecap="round" stroke-linejoin="round"/>
<path d="M246.398 170.292C249.73 172.761 251.982 176.42 252.685 180.507C254.971 181.248 256.923 182.771 258.199 184.808C259.792 187.078 260.745 189.735 260.956 192.5" stroke="#1D1D1B" stroke-linecap="round" stroke-linejoin="round"/>
<path d="M245.598 186.076C250.052 188.832 254.875 190.944 259.921 192.349L260.941 192.638C262.155 192.899 263.266 193.507 264.14 194.389C265.201 195.63 265.38 197.394 266.304 198.731C267.682 200.661 270.15 201.268 272.232 202.357C278.394 205.569 280.751 213.179 285.894 217.852C288.513 220.237 292.083 222.167 293.269 225.724C294.818 227.193 296.054 228.961 296.902 230.92C297.75 232.879 298.193 234.99 298.204 237.125C298.208 241.393 297.586 245.638 296.357 249.725C293.093 262.513 289.192 275.129 284.667 287.526C284.143 288.904 283.605 290.366 283.081 291.772C282.64 292.944 282.185 294.102 281.703 295.273C281.124 296.762 280.531 298.237 279.938 299.712C279.345 301.187 278.863 302.346 278.325 303.655C277.787 304.965 277.167 306.412 276.574 307.791C275.596 310.079 274.575 312.368 273.541 314.684L273.445 314.808C272.41 316.106 270.942 316.987 269.309 317.289C267.301 317.341 265.329 316.747 263.685 315.594" stroke="#1D1D1B" stroke-linecap="round" stroke-linejoin="round"/>
<path d="M277.018 307.929C277.459 307.853 277.874 307.667 278.223 307.387C278.573 307.107 278.846 306.744 279.017 306.33C279.169 305.908 279.216 305.455 279.153 305.01C279.091 304.566 278.921 304.143 278.658 303.779" stroke="#1D1D1B" stroke-linecap="round" stroke-linejoin="round"/>
<path d="M280.504 299.933C280.98 299.831 281.421 299.606 281.782 299.279C282.143 298.952 282.41 298.536 282.558 298.072C282.717 297.601 282.745 297.097 282.641 296.611C282.536 296.126 282.303 295.678 281.965 295.314" stroke="#1D1D1B" stroke-linecap="round" stroke-linejoin="round"/>
<path d="M283.51 291.937C283.948 291.817 284.349 291.591 284.679 291.278C285.008 290.965 285.256 290.576 285.398 290.145C285.526 289.712 285.544 289.254 285.453 288.811C285.362 288.369 285.163 287.956 284.875 287.608" stroke="#1D1D1B" stroke-linecap="round" stroke-linejoin="round"/>
<path d="M239.535 292.075C240.555 292.075 241.589 292.171 242.651 292.295C249.039 292.908 255.186 295.05 260.572 298.54C261.962 299.505 263.28 300.569 264.515 301.725C265.08 302.235 265.618 302.773 266.142 303.324C267.19 304.413 268.166 305.569 269.064 306.784C270.88 309.233 272.381 311.901 273.531 314.725" stroke="#1D1D1B" stroke-linecap="round" stroke-linejoin="round"/>
<path d="M240.925 294.378C240.452 294.231 240.05 293.914 239.796 293.49C239.541 293.065 239.452 292.561 239.546 292.075C239.777 291.096 240.251 290.19 240.925 289.442C246.234 282.07 250.312 273.885 253.001 265.207C252.527 263.745 252.485 262.178 252.881 260.693C253.278 259.208 254.095 257.87 255.234 256.839" stroke="#1D1D1B" stroke-linecap="round" stroke-linejoin="round"/>
<path d="M236.42 226.772C236.475 226.862 236.535 226.95 236.599 227.034C239.59 231.538 243.935 234.975 249.006 236.849C251.337 237.726 253.786 238.246 256.271 238.393" stroke="#1D1D1B" stroke-linecap="round" stroke-linejoin="round"/>
<path d="M248.742 237.373C251.229 241.339 255.133 244.208 259.661 245.396" stroke="#1D1D1B" stroke-linecap="round" stroke-linejoin="round"/>
<path d="M255.22 244.349C254.377 245.137 253.704 246.09 253.244 247.149C252.784 248.207 252.547 249.35 252.547 250.504C252.547 251.658 252.784 252.801 253.244 253.859C253.704 254.918 254.377 255.871 255.22 256.659" stroke="#1D1D1B" stroke-linecap="round" stroke-linejoin="round"/>
<path d="M257.938 255.777C260.836 258.715 264.421 260.885 268.368 262.088C272.316 263.292 276.502 263.492 280.546 262.67" stroke="#1D1D1B" stroke-linecap="round" stroke-linejoin="round"/>
<path d="M257.758 245.644C258.702 247.179 259.979 248.482 261.494 249.458C263.009 250.434 264.724 251.057 266.512 251.283C270.108 251.7 273.748 251.063 276.989 249.449C280.202 247.829 283.195 245.805 285.895 243.425" stroke="#1D1D1B" stroke-linecap="round" stroke-linejoin="round"/>
<path d="M264.059 245.645C268.663 246.748 273.502 245.934 278.079 244.735C282.656 243.536 287.177 241.978 291.865 241.481" stroke="#1D1D1B" stroke-linecap="round" stroke-linejoin="round"/>
<path d="M241.215 228.288C248.161 231.945 255.658 234.441 263.41 235.677C271.158 236.913 279.001 237.462 286.846 237.318" stroke="#1D1D1B" stroke-linecap="round" stroke-linejoin="round"/>
<path d="M245.654 224.676C258.379 228.605 271.323 232.576 284.641 232.645C285.344 232.645 286.281 232.41 286.281 231.707C286.281 231.004 285.757 230.894 285.302 230.701C283.727 230.104 282.103 229.643 280.45 229.322C269.159 226.73 257.717 224.139 245.654 224.676Z" stroke="#1D1D1B" stroke-linecap="round" stroke-linejoin="round"/>
<path d="M242.566 215.233C257.797 215.306 272.804 218.911 286.405 225.765" stroke="#1D1D1B" stroke-linecap="round" stroke-linejoin="round"/>
<path d="M240.211 204.797L263.495 208.85" stroke="#1D1D1B" stroke-linecap="round" stroke-linejoin="round"/>
<path d="M241.092 195.657C248.587 199.01 256.454 201.463 264.528 202.964" stroke="#1D1D1B" stroke-linecap="round" stroke-linejoin="round"/>
<path d="M242.62 292.517L241.407 294.626C240.13 296.799 238.993 299.05 238.002 301.367L239.077 301.491C246.042 302.43 252.607 305.295 258.033 309.763C259.973 311.295 261.589 313.198 262.789 315.36C262.957 315.659 263.109 315.968 263.244 316.283L263.712 315.47C265.367 312.713 266.993 309.818 268.648 306.992" stroke="#1D1D1B" stroke-linecap="round" stroke-linejoin="round"/>
<path d="M45.2506 133.979C28.3459 162.817 15.6407 193.919 7.51888 226.344C6.51251 230.301 5.60265 234.285 4.76172 238.269" stroke="#1D1D1B" stroke-linecap="round" stroke-linejoin="round"/>
<path d="M7.80712 226.137L7.51762 226.303C5.07798 227.928 3.32516 230.398 2.59609 233.237C1.8464 236.157 1.43928 239.155 1.38294 242.17C0.986026 245.612 0.930612 249.084 1.21751 252.537C1.9344 257.157 4.00953 261.459 7.17882 264.896C10.3481 268.333 14.4683 270.749 19.015 271.837C23.5166 272.596 28.111 272.623 32.6215 271.92C37.1439 271.66 41.5988 270.702 45.8283 269.08C49.8294 267.476 53.0618 264.396 54.858 260.478C54.9545 260.243 55.051 259.995 55.1337 259.747" stroke="#1D1D1B" stroke-linecap="round" stroke-linejoin="round"/>
<path d="M55.0801 260.533C56.0156 260.353 56.8883 259.932 57.6131 259.314C58.3379 258.695 58.8901 257.9 59.2158 257.004C59.85 255.626 60.167 254.068 60.6909 252.62C60.815 252.289 60.939 251.972 61.0769 251.655C61.6145 250.456 62.3728 249.353 62.8553 248.112C63.1392 247.514 63.2945 246.862 63.3111 246.199C63.3277 245.537 63.2053 244.878 62.9518 244.266" stroke="#1D1D1B" stroke-linecap="round" stroke-linejoin="round"/>
<path d="M61.0215 252.745C62.3418 252.251 63.5034 251.408 64.3822 250.305C65.2611 249.203 65.8244 247.883 66.0119 246.486C68.1767 246.269 70.2198 245.382 71.8571 243.949C73.0998 242.913 74.2527 241.774 75.3036 240.544L76.3926 239.345C79.9803 235.544 83.7627 231.932 87.7246 228.523C88.4437 231.621 89.5458 234.617 91.0056 237.442" stroke="#1D1D1B" stroke-linecap="round" stroke-linejoin="round"/>
<path d="M71.4297 228.991C76.6407 228.513 81.8242 227.847 86.9801 226.992" stroke="#1D1D1B" stroke-linecap="round" stroke-linejoin="round"/>
<path d="M85.1061 148.979C85.802 149.6 86.2843 150.425 86.4847 151.336C86.6365 152.119 86.6365 152.924 86.4847 153.707C86.1274 155.385 85.4938 156.993 84.6098 158.463C82.5695 162.378 80.5752 166.316 78.6268 170.278C77.3999 172.745 76.1867 175.227 75.0149 177.722C72.5611 182.85 70.1899 188.011 67.9015 193.203C65.6866 198.194 63.5406 203.216 61.4635 208.271C60.4434 210.766 59.437 213.262 58.4996 215.785C56.7994 220.144 55.327 224.589 54.0881 229.102C53.5367 231.128 53.0542 233.237 52.6406 235.25C52.5441 235.719 52.4614 236.174 52.3787 236.629C51.6766 241.467 50.7055 246.263 49.4699 250.993C47.9259 256.108 45.2238 261.112 40.8262 264.145" stroke="#1D1D1B" stroke-linecap="round" stroke-linejoin="round"/>
<path d="M51.5938 259.872C51.8005 259.417 51.9935 258.948 52.1728 258.493C54.8966 251.669 55.5534 244.195 54.0614 237.001" stroke="#1D1D1B" stroke-linecap="round" stroke-linejoin="round"/>
<path d="M55.7698 230.977C55.4785 230.401 55.1516 229.844 54.791 229.309C55.1357 229.874 55.4665 230.48 55.7698 230.977ZM55.7698 230.977C57.426 234.362 58.235 238.1 58.1272 241.867C57.9407 246.266 57.3173 250.634 56.2661 254.909C59.878 250.773 61.1601 244.9 58.7338 237.539C57.9685 235.257 56.9755 233.059 55.7698 230.977Z" stroke="#1D1D1B" stroke-linecap="round" stroke-linejoin="round"/>
<path d="M60.7732 216.694C59.7658 223.487 59.9337 230.403 61.2695 237.139" stroke="#1D1D1B" stroke-linecap="round" stroke-linejoin="round"/>
<path d="M70.9464 194.54C68.6745 205.885 67.5842 217.435 67.6929 229.005C67.6929 230.935 67.6929 232.865 67.8308 234.795" stroke="#1D1D1B" stroke-linecap="round" stroke-linejoin="round"/>
<path d="M74.3672 192.293L74.6153 192.804C78.9165 201.865 83.2177 210.923 87.5188 219.975" stroke="#1D1D1B" stroke-linecap="round" stroke-linejoin="round"/>
<path d="M75.2637 212.283C78.4303 216.279 82.0425 219.9 86.0304 223.077" stroke="#1D1D1B" stroke-linecap="round" stroke-linejoin="round"/>
<path d="M80.2246 171.063C81.7273 180.231 86.2628 188.682 88.1239 197.78C88.1239 198.029 88.2342 198.29 88.2755 198.539C89.3831 205.669 89.4435 212.924 88.4547 220.072C88.2617 221.892 88.0549 223.711 87.8344 225.517" stroke="#1D1D1B" stroke-linecap="round" stroke-linejoin="round"/>
<path d="M75.6621 178.094C77.6579 184.989 80.8496 191.48 85.0916 197.27C85.3562 197.595 85.57 197.957 85.7257 198.346C85.7773 198.478 85.8098 198.617 85.8222 198.759C85.8416 198.895 85.8337 199.034 85.7989 199.166C85.7642 199.299 85.7034 199.424 85.6199 199.533C85.5365 199.642 85.4322 199.733 85.3131 199.802C85.194 199.87 85.0624 199.914 84.9262 199.931C84.7241 199.905 84.5304 199.835 84.3587 199.725C84.1871 199.616 84.0419 199.469 83.9336 199.297C79.6324 194.389 75.993 188.971 75.6621 178.094Z" stroke="#1D1D1B" stroke-linecap="round" stroke-linejoin="round"/>
<path d="M45.7344 133.979L46.4788 134.738C50.9316 139.108 56.5562 142.127 62.0705 145.077C65.4285 146.98 68.9264 148.626 72.534 149.999C74.8754 150.842 77.3184 151.37 79.7991 151.57C81.037 151.687 82.2833 151.687 83.5212 151.57H83.9072" stroke="#1D1D1B" stroke-linecap="round" stroke-linejoin="round"/>
<path d="M46.5469 134.642C48.4907 129.279 50.4345 123.916 52.4472 118.443C53.5776 118.692 54.7081 118.967 55.8247 119.27C61.6086 120.968 67.2064 123.245 72.5331 126.067C75.5108 127.583 78.5437 129.279 80.4186 132.022C81.8115 134.159 82.5539 136.654 82.5554 139.205C82.5923 140.052 82.56 140.9 82.4589 141.741C82.4589 141.907 82.4589 142.072 82.3899 142.238C81.8614 145.41 80.9925 148.516 79.7982 151.502" stroke="#1D1D1B" stroke-linecap="round" stroke-linejoin="round"/>
<path d="M85.5866 131.223C86.2737 131.581 86.8605 132.106 87.2938 132.749C87.7271 133.391 87.9932 134.132 88.068 134.903C88.0816 135.119 88.0816 135.336 88.068 135.551C88.0276 137.31 87.6728 139.046 87.0203 140.68L84.2631 148.744L83.3809 151.364" stroke="#1D1D1B" stroke-linecap="round" stroke-linejoin="round"/>
<path d="M82.9258 142.32C83.3547 140.856 84.1801 139.539 85.3107 138.515C86.4642 137.51 87.4021 136.281 88.0679 134.903" stroke="#1D1D1B" stroke-linecap="round" stroke-linejoin="round"/>
<path d="M55.9898 118.678C57.3684 116.003 58.6643 113.315 60.1256 110.641C59.9854 109.459 59.7409 108.292 59.3949 107.153C58.7194 104.713 58.1818 102.245 57.6579 99.7775C56.3804 93.8496 55.1029 87.9263 53.8255 82.0076C53.2287 80.0538 53.1432 77.9795 53.5773 75.9832C54.2785 74.2837 55.3254 72.7486 56.6516 71.4753C59.3275 68.4201 61.6834 65.0987 63.6823 61.5633C64.6348 59.6185 65.7753 57.7716 67.0874 56.0489C68.5849 54.2258 70.7181 53.0385 73.0566 52.7266L74.5731 53.1815C78.3619 54.3419 82.0502 55.808 85.6017 57.5654C86.9446 58.2077 88.0532 59.2536 88.7725 60.5569L89.1171 61.0808C89.7157 62.2016 90.4881 63.2206 91.4055 64.0998C92.2051 64.7891 93.2528 65.3682 93.4734 66.4021C93.5071 66.9806 93.3501 67.5542 93.0263 68.0348C92.7026 68.5155 92.2301 68.8766 91.6813 69.0627C91.4104 69.1813 91.1288 69.2737 90.8403 69.3384C89.1438 69.6736 87.3833 69.3482 85.9188 68.4286L85.4639 68.1253C84.0024 67.0129 82.7553 65.6442 81.7831 64.086C81.5901 63.8241 81.4246 63.5622 81.2454 63.3003C79.6215 63.7638 77.9099 63.83 76.255 63.4933C74.7082 63.2113 73.2464 62.5795 71.9814 61.646" stroke="#1D1D1B" stroke-linecap="round" stroke-linejoin="round"/>
<path d="M76.1988 63.7959C74.795 65.8906 72.9566 67.6585 70.8086 68.9794" stroke="#1D1D1B" stroke-linecap="round" stroke-linejoin="round"/>
<path d="M64.7305 69.0345C66.74 68.843 68.7662 68.9218 70.7549 69.2688C72.6484 69.5878 74.4988 70.1244 76.2692 70.868C77.004 71.1894 77.7218 71.5483 78.4198 71.9433C78.8747 72.1914 79.3158 72.4671 79.7983 72.7428C81.0112 72.8198 82.2033 73.0946 83.3275 73.5562C85.7558 74.5695 87.8084 76.3137 89.2003 78.5467C89.2396 80.6527 88.8842 82.7474 88.1525 84.7227" stroke="#1D1D1B" stroke-linecap="round" stroke-linejoin="round"/>
<path d="M75.9648 86.7353C79.9185 85.7444 83.9995 85.3585 88.0688 85.5911C88.9648 85.5911 89.8471 85.7151 90.7294 85.8116C91.2119 85.8116 91.7082 85.9357 92.1907 86.0184" stroke="#1D1D1B" stroke-linecap="round" stroke-linejoin="round"/>
<path d="M81.0934 64.6235C80.9161 65.8858 80.4699 67.0953 79.7849 68.1703C79.1 69.2453 78.1922 70.1607 77.123 70.8547" stroke="#1D1D1B" stroke-linecap="round" stroke-linejoin="round"/>
<path d="M85.9038 68.8418C85.4016 70.1709 84.6793 71.4059 83.767 72.495L83.3672 72.95" stroke="#1D1D1B" stroke-linecap="round" stroke-linejoin="round"/>
<path d="M91.3106 69.71C91.3106 70.0132 91.2003 70.3165 91.1313 70.6198C90.6355 72.7425 89.6433 74.7174 88.2363 76.3823" stroke="#1D1D1B" stroke-linecap="round" stroke-linejoin="round"/>
<path d="M76.4476 74.8799C76.7477 76.3845 76.7091 77.937 76.3348 79.4249C75.9604 80.9128 75.2596 82.2987 74.2832 83.4822" stroke="#1D1D1B" stroke-linecap="round" stroke-linejoin="round"/>
<path d="M62.8281 74.9629C66.2135 77.4339 69.1906 80.4203 71.651 83.8133C72.5195 84.9162 73.3605 86.0467 74.1876 87.1633L74.615 87.7423L80.1293 95.1315C81.9199 97.3969 83.5025 99.8192 84.8578 102.369C85.9722 104.641 86.7213 107.074 87.0773 109.579" stroke="#1D1D1B" stroke-linecap="round" stroke-linejoin="round"/>
<path d="M85.8079 118.65L84.2363 124.095" stroke="#1D1D1B" stroke-linecap="round" stroke-linejoin="round"/>
<path d="M63.1309 108.944C63.5112 110.76 63.7372 112.605 63.8064 114.459" stroke="#1D1D1B" stroke-linecap="round" stroke-linejoin="round"/>
<path d="M101.689 66.5532C99.6588 69.9371 98.6354 73.8299 98.7392 77.7749C95.9334 80.1059 93.2896 82.6253 90.8262 85.3157" stroke="#1D1D1B" stroke-linecap="round" stroke-linejoin="round"/>
<path d="M74.5996 53.1946C74.7559 52.8926 74.9908 52.6384 75.2796 52.4589C75.5683 52.2793 75.9002 52.1811 76.2401 52.1745C76.9155 52.1655 77.5887 52.2537 78.2391 52.4364L79.1076 52.5743C81.5005 52.7791 83.9036 52.8389 86.3037 52.7534C89.0088 52.6167 91.6954 53.268 94.0376 54.6283C95.1809 55.4894 96.2549 56.439 97.2497 57.4682C99.1641 59.1777 101.337 60.5735 103.688 61.6039L104.046 61.7694C104.1 62.1534 104.1 62.5433 104.046 62.9274C103.964 64.0176 103.477 65.0378 102.681 65.7876C101.885 66.5375 100.838 66.9629 99.7449 66.9804C98.6374 66.9298 97.5568 66.6231 96.5879 66.0843C94.3586 65.1507 92.3834 63.7 90.8255 61.8521C90.3981 61.8521 89.8191 60.9973 89.4469 60.9836" stroke="#1D1D1B" stroke-linecap="round" stroke-linejoin="round"/>
<path d="M107.727 60.915C108.319 60.8323 108.816 60.7082 109.408 60.5703L110.084 60.4325V60.3636C109.969 58.1924 110.684 56.0587 112.083 54.3943C113.712 52.0507 115.882 50.1353 118.411 48.8111C119.963 47.9704 121.683 47.4857 123.446 47.3922C125.209 47.2987 126.971 47.5987 128.603 48.2705C130.236 48.9423 131.698 49.969 132.885 51.2762C134.072 52.5833 134.952 54.1382 135.464 55.828L135.629 56.3105C136.668 59.5867 136.481 63.1285 135.105 66.2777C134.414 67.8456 133.42 69.2616 132.181 70.4445C130.941 71.6273 129.48 72.5538 127.881 73.1706C126.282 73.763 124.575 74.0091 122.874 73.8927C121.172 73.7762 119.515 73.2998 118.011 72.4951C115.857 71.2609 114.08 69.4644 112.869 67.2978C111.585 65.1636 110.653 62.836 110.111 60.4049" stroke="#1D1D1B" stroke-linecap="round" stroke-linejoin="round"/>
<path d="M135.615 55.8001C136.289 55.0066 137.138 54.3797 138.095 53.9683C139.051 53.557 140.09 53.3724 141.13 53.4289C143.196 53.5393 145.222 54.0447 147.099 54.9177" stroke="#1D1D1B" stroke-linecap="round" stroke-linejoin="round"/>
<path d="M173.335 56.0898C173.335 55.8141 173.335 55.5384 173.224 55.2764C172.888 53.5501 172.135 51.9318 171.032 50.5617C169.292 48.5746 167.042 47.1006 164.525 46.2988C162.008 45.4971 159.32 45.3981 156.75 46.0124C156.35 46.0909 155.954 46.1921 155.565 46.3157C154.022 46.7636 152.587 47.5199 151.345 48.5388C150.103 49.5578 149.081 50.8181 148.341 52.2435C147.829 53.1097 147.426 54.0358 147.142 55.0007C146.943 55.6029 146.795 56.2209 146.701 56.848C146.485 58.6461 146.771 60.4687 147.528 62.1142C148.291 64.0084 149.424 65.7314 150.86 67.1824C152.297 68.6334 154.009 69.7834 155.896 70.5649C157.799 71.3323 159.865 71.6083 161.903 71.3673C163.942 71.1264 165.886 70.3764 167.558 69.1863C169.905 67.2345 171.618 64.6288 172.48 61.7006C173.138 59.9065 173.429 57.9984 173.335 56.0898Z" stroke="#1D1D1B" stroke-linecap="round" stroke-linejoin="round"/>
<path d="M173.748 56.0757H176.877H177.36" stroke="#1D1D1B" stroke-linecap="round" stroke-linejoin="round"/>
<path d="M177.844 56.145C178.97 58.4023 180.299 60.5526 181.814 62.5692" stroke="#1D1D1B" stroke-linecap="round" stroke-linejoin="round"/>
<path d="M120.481 26.0781C117.592 27.1059 115.09 28.9973 113.313 31.4959C111.55 33.9959 110.265 36.8002 109.521 39.7674C108.168 44.8662 107.905 50.1931 108.749 55.4005C108.986 56.8759 109.313 58.3354 109.728 59.7706L109.204 59.9911L109.053 60.0601" stroke="#1D1D1B" stroke-linecap="round" stroke-linejoin="round"/>
<path d="M109.328 60.2665C109.26 60.1848 109.2 60.0971 109.148 60.0046C108.997 59.725 108.917 59.4126 108.914 59.0947" stroke="#1D1D1B" stroke-linecap="round" stroke-linejoin="round"/>
<path d="M111.036 12.4858C107.855 14.1292 104.963 16.2804 102.475 18.8549C97.6727 23.7283 94.4494 29.9348 93.2246 36.6661C94.2172 34.284 95.7126 32.1444 97.6085 30.3936C96.999 32.0403 96.5377 33.7381 96.2299 35.4668C95.5515 39.3663 95.6405 43.3606 96.4918 47.2261C96.508 43.9612 97.3422 40.7524 98.9181 37.893C98.3133 40.5491 98.3653 43.3126 99.0698 45.944C99.7844 48.5635 100.706 51.1219 101.827 53.5951" stroke="#1D1D1B" stroke-linecap="round" stroke-linejoin="round"/>
<path d="M102.074 18.455C103.128 15.7239 104.81 13.2796 106.985 11.3203C109.16 9.36099 111.766 7.9419 114.592 7.17818C117.36 6.39927 120.243 6.11002 123.111 6.32347C126.074 6.54165 128.992 7.16794 131.783 8.18456" stroke="#1D1D1B" stroke-linecap="round" stroke-linejoin="round"/>
<path d="M123.154 5.77207C125.861 4.77594 128.752 4.38318 131.626 4.62131C134.501 4.85943 137.288 5.72269 139.794 7.15065" stroke="#1D1D1B" stroke-linecap="round" stroke-linejoin="round"/>
<path d="M132.584 4.39308C136.299 1.97253 140.687 0.794644 145.115 1.02934C145.891 1.05499 146.665 1.12867 147.431 1.24992C150.411 1.68213 153.296 2.61429 155.965 4.00708C156.516 4.2828 157.068 4.58608 157.605 4.90315C159.23 5.79573 160.675 6.98318 161.865 8.40475C163.355 10.2998 164.094 12.6775 163.942 15.0834C163.789 17.4892 162.755 19.7545 161.038 21.4461" stroke="#1D1D1B" stroke-linecap="round" stroke-linejoin="round"/>
<path d="M163.52 17.6828C165.553 16.3423 167.993 15.7614 170.412 16.0423C173.479 16.2024 176.399 17.4091 178.684 19.4611C179.804 20.4893 180.673 21.7613 181.222 23.1789C181.772 24.5965 181.989 26.1215 181.855 27.6361" stroke="#1D1D1B" stroke-linecap="round" stroke-linejoin="round"/>
<path d="M175.387 19.8472C177.7 21.6854 179.634 23.9563 181.08 26.5333L181.783 27.6361C183.41 30.0371 184.826 32.5739 186.016 35.2183C187.457 38.3637 187.978 41.8528 187.518 45.282C186.847 43.6837 185.732 42.3108 184.306 41.3255C186.012 44.6537 186.715 48.406 186.328 52.1261C185.942 55.8462 184.482 59.3737 182.128 62.2798" stroke="#1D1D1B" stroke-linecap="round" stroke-linejoin="round"/>
<path d="M160.582 22.1079H160.803C161.864 22.4368 162.878 22.9001 163.822 23.4865C166.036 24.9191 167.893 26.8381 169.253 29.0973C171.141 32.4155 172.534 35.9916 173.389 39.7124C174.83 45.0603 175.985 50.4812 176.849 55.952C176.862 56.0342 176.862 56.118 176.849 56.2002C177.621 60.9287 178.228 65.671 178.559 70.4133C179.783 68.0566 180.825 65.6093 181.674 63.093C181.743 62.9138 181.812 62.7209 181.867 62.5279C181.906 62.4382 181.938 62.3461 181.964 62.2521" stroke="#1D1D1B" stroke-linecap="round" stroke-linejoin="round"/>
<path d="M107.479 83.937C107.555 85.3181 107.955 86.6617 108.647 87.8592C109.34 89.0567 110.304 90.0744 111.463 90.8299C111.397 92.0659 111.756 93.2871 112.481 94.2903C113.206 95.2936 114.253 96.0184 115.447 96.3442" stroke="#1D1D1B" stroke-linecap="round" stroke-linejoin="round"/>
<path d="M110.911 67.229C110.935 70.7332 111.399 74.2207 112.29 77.6097C111.642 76.8653 110.994 76.1209 110.374 75.3489C109.753 74.5769 109.188 73.8876 108.623 73.1431" stroke="#1D1D1B" stroke-linecap="round" stroke-linejoin="round"/>
<path d="M112.221 77.3608V77.5539C112.552 79.2771 112.896 80.9865 113.227 82.7097C114.109 87.2039 115.005 91.6981 115.888 96.1922C115.888 96.4404 115.984 96.6885 116.039 96.9367C116.546 100.335 117.521 103.648 118.934 106.78C120.041 109.015 121.72 110.918 123.801 112.294C124.597 112.794 125.461 113.18 126.365 113.438" stroke="#1D1D1B" stroke-linecap="round" stroke-linejoin="round"/>
<path d="M123.748 112.474C125.095 114.283 126.311 116.185 127.387 118.167C128.687 120.502 129.789 122.942 130.682 125.46" stroke="#1D1D1B" stroke-linecap="round" stroke-linejoin="round"/>
<path d="M182.103 63.3C182.741 62.5304 183.478 61.849 184.295 61.2735C184.709 60.9941 185.175 60.8013 185.665 60.7065C186.156 60.6118 186.66 60.617 187.149 60.722C188.927 61.2183 189.699 63.2724 190.126 65.0646C190.898 68.2491 191.395 71.8058 189.74 74.6319C188.737 76.0023 187.65 77.3098 186.487 78.5471C185.255 80.377 184.324 82.3922 183.73 84.5163C183.13 86.6522 182.244 88.6973 181.097 90.5958C180.521 91.5444 179.75 92.3596 178.835 92.9871C177.92 93.6146 176.881 94.0401 175.789 94.2353" stroke="#1D1D1B" stroke-linecap="round" stroke-linejoin="round"/>
<path d="M179.277 71.7778L179.194 72.0811C178.481 74.6085 177.978 77.1907 177.692 79.8012C177.113 84.1851 176.851 88.6379 175.913 92.9666C175.831 93.3664 175.734 93.78 175.638 94.1797C175.121 96.2706 174.453 98.3209 173.639 100.314C172.094 104.077 170.029 107.604 167.504 110.792" stroke="#1D1D1B" stroke-linecap="round" stroke-linejoin="round"/>
<path d="M79.1348 52.409C79.3682 51.9769 79.6923 51.6004 80.085 51.3053C80.4776 51.0103 80.9294 50.8036 81.4094 50.6996C82.3696 50.4951 83.3568 50.4485 84.332 50.5617C86.3447 50.672 88.3437 50.865 90.3426 51.058C92.2055 51.1766 94.0524 51.4767 95.8569 51.9541C97.3872 52.3952 98.8347 53.0983 100.379 53.5257C100.832 53.6575 101.292 53.7634 101.757 53.8427C103.888 54.1614 106.041 54.2998 108.195 54.2563C108.315 54.6446 108.407 55.0408 108.471 55.4419C108.588 56.1494 108.588 56.8712 108.471 57.5787C108.31 58.7054 107.759 59.7399 106.913 60.5013C106.484 60.8674 105.973 61.1249 105.424 61.2521C104.874 61.3792 104.302 61.3723 103.756 61.232" stroke="#1D1D1B" stroke-linecap="round" stroke-linejoin="round"/>
<path d="M104.612 62.9691C105.138 62.4719 105.791 62.1302 106.499 61.9817C107.207 61.8333 107.943 61.884 108.624 62.1282C109.151 62.4414 109.591 62.8818 109.904 63.4093C110.218 63.9367 110.393 64.5343 110.416 65.1473C110.691 67.9044 109.161 70.4134 108.513 73.0741C108.385 73.6136 108.297 74.162 108.251 74.7146C108.086 77.0444 108.927 79.5121 107.948 81.7316C107.511 82.4034 107.138 83.1141 106.831 83.8546C104.722 89.0243 105.618 95.4485 102.696 100.398C101.483 102.479 99.6766 104.147 98.2981 106.132C97.0548 108.194 95.9406 110.33 94.9619 112.529C93.9811 114.814 92.2759 116.713 90.1093 117.933C88.5791 122.069 86.9799 126.715 85.4083 131.209C84.4433 133.966 83.4783 136.654 82.5547 139.205" stroke="#1D1D1B" stroke-linecap="round" stroke-linejoin="round"/>
<path d="M239.037 301.891C238.069 302.544 237.305 303.456 236.832 304.524C236.681 304.368 236.498 304.248 236.295 304.171C236.093 304.095 235.876 304.065 235.66 304.083C235.226 304.131 234.803 304.247 234.405 304.427L230.986 305.709C230.986 305.709 231.055 305.806 230.986 305.82" stroke="#1D1D1B" stroke-linecap="round" stroke-linejoin="round"/>
<path d="M232.27 306.302C231.876 306.078 231.454 305.907 231.016 305.792C230.724 305.678 230.418 305.604 230.106 305.571C229.14 305.384 228.146 305.392 227.183 305.593C226.219 305.794 225.306 306.185 224.495 306.743C221.49 308.866 220.511 312.823 218.457 315.869C217.88 316.626 217.35 317.418 216.871 318.24C216.382 319.071 216.224 320.056 216.43 320.997C216.538 321.369 216.711 321.719 216.94 322.031C217.342 322.569 217.831 323.035 218.388 323.41C219.19 324.058 220.197 324.4 221.228 324.375C221.818 324.288 222.377 324.056 222.854 323.7C223.153 323.493 223.434 323.262 223.695 323.01C225.663 321.182 227.161 318.908 228.065 316.379C228.369 315.537 228.6 314.67 228.755 313.788" stroke="#1D1D1B" stroke-linecap="round" stroke-linejoin="round"/>
<path d="M228.684 316.366C229.506 316.61 230.362 316.722 231.22 316.697H231.441" stroke="#1D1D1B" stroke-linecap="round" stroke-linejoin="round"/>
<path d="M234.639 308.521C235.342 310.106 235.465 311.888 234.983 313.553" stroke="#1D1D1B" stroke-linecap="round" stroke-linejoin="round"/>
<path d="M231.291 316.655C229.637 320.942 227.969 325.243 226.011 329.393C225.17 331.213 224.247 333.019 223.254 334.769C222.703 335.748 222.124 336.727 221.517 337.678C220.445 339.199 219.521 340.819 218.76 342.517C218.42 343.371 218.22 344.274 218.167 345.191C218.091 346.134 218.247 347.081 218.622 347.949C218.972 348.816 219.606 349.538 220.42 349.999C221.233 350.46 222.179 350.631 223.103 350.485C223.659 350.353 224.18 350.104 224.633 349.754C225.387 349.131 226.046 348.402 226.59 347.59C232.938 338.96 237.871 329.373 241.203 319.191" stroke="#1D1D1B" stroke-linecap="round" stroke-linejoin="round"/>
<path d="M225.059 349.948C225.144 350.766 225.401 351.557 225.812 352.269C226.223 352.982 226.779 353.6 227.444 354.084C227.747 354.298 228.076 354.474 228.422 354.608C228.861 354.777 229.337 354.825 229.801 354.745C230.48 354.546 231.093 354.17 231.579 353.656C232.324 352.981 233.041 352.278 233.702 351.533C237.101 347.946 239.77 343.732 241.56 339.126C243.187 334.99 244.111 330.469 246.358 326.581" stroke="#1D1D1B" stroke-linecap="round" stroke-linejoin="round"/>
<path d="M239.85 314.174C239.684 315.47 239.519 316.766 239.367 318.061" stroke="#1D1D1B" stroke-linecap="round" stroke-linejoin="round"/>
<path d="M246.495 319.356C246.87 320.86 246.754 322.445 246.164 323.878" stroke="#1D1D1B" stroke-linecap="round" stroke-linejoin="round"/>
<path d="M253.073 326.14C253.187 327.262 253.001 328.394 252.535 329.421" stroke="#1D1D1B" stroke-linecap="round" stroke-linejoin="round"/>
<path d="M234.008 351.878C234.163 352.584 234.511 353.233 235.014 353.753C235.557 354.32 236.267 354.699 237.041 354.836C237.814 354.972 238.611 354.858 239.315 354.511C240.464 353.819 241.414 352.84 242.073 351.671C247.27 344.048 253.308 336.81 256.561 328.235C258.216 323.824 259.236 318.916 262.586 315.58" stroke="#1D1D1B" stroke-linecap="round" stroke-linejoin="round"/>
<path d="M255.125 317.758C255.675 319.785 255.967 321.874 255.994 323.975" stroke="#1D1D1B" stroke-linecap="round" stroke-linejoin="round"/>
<path d="M153.785 307.309L183.149 306.812" stroke="#1D1D1B" stroke-linecap="round" stroke-linejoin="round"/>
<path d="M183.191 315.235C173.579 324.493 162.466 332.053 150.326 337.596" stroke="#1D1D1B" stroke-linecap="round" stroke-linejoin="round"/>
<path d="M182.392 321.369C179.046 329.005 174.773 336.2 169.668 342.792" stroke="#1D1D1B" stroke-linecap="round" stroke-linejoin="round"/>
<path d="M216.678 334.342C217.709 351.129 219.587 367.854 222.302 384.453" stroke="#1D1D1B" stroke-linecap="round" stroke-linejoin="round"/>
<path d="M228.365 354.814C232.363 367.718 234.348 373.66 234.004 387.156" stroke="#1D1D1B" stroke-linecap="round" stroke-linejoin="round"/>
<path d="M234.957 353.821C237.218 358.453 239.327 363.182 241.257 367.966C241.836 369.344 242.401 370.833 242.953 372.28" stroke="#1D1D1B" stroke-linecap="round" stroke-linejoin="round"/>
<path d="M223.447 323.755C224.15 325.575 224.826 327.394 225.529 329.269" stroke="#1D1D1B" stroke-linecap="round" stroke-linejoin="round"/>
<path d="M218.33 319.744L220.729 321.301C220.91 321.451 221.13 321.546 221.363 321.577C221.79 321.577 222.094 321.191 222.314 320.833C222.766 320.204 223.059 319.476 223.169 318.71C223.214 318.314 223.146 317.914 222.972 317.555C222.799 317.196 222.528 316.894 222.19 316.683C221.767 316.501 221.297 316.457 220.847 316.556C220.397 316.655 219.989 316.892 219.681 317.234C219.049 317.959 218.587 318.817 218.33 319.744Z" stroke="#1D1D1B" stroke-width="0.5" stroke-linecap="round" stroke-linejoin="round"/>
<path d="M219.627 345.316C220.663 346.505 221.871 347.532 223.211 348.363L224.686 346.529C224.993 346.184 225.244 345.794 225.431 345.371C225.615 344.845 225.622 344.273 225.45 343.743C225.278 343.213 224.937 342.753 224.48 342.435C224.003 342.141 223.454 341.985 222.894 341.985C222.334 341.985 221.785 342.141 221.309 342.435C220.82 342.747 220.412 343.171 220.12 343.672C219.827 344.174 219.658 344.737 219.627 345.316Z" stroke="#1D1D1B" stroke-width="0.5" stroke-linecap="round" stroke-linejoin="round"/>
<path d="M227.402 349.741L229.512 351.906C229.595 352.025 229.701 352.127 229.824 352.205C229.947 352.283 230.085 352.336 230.228 352.361C230.514 352.352 230.786 352.233 230.987 352.03C231.471 351.757 231.897 351.391 232.24 350.954C232.583 350.516 232.836 350.015 232.986 349.48C233.04 348.818 232.87 348.158 232.503 347.605C232.396 347.351 232.233 347.125 232.026 346.943C231.819 346.762 231.574 346.629 231.309 346.556C231.043 346.483 230.765 346.472 230.494 346.522C230.223 346.572 229.967 346.683 229.746 346.846C229.183 347.15 228.687 347.562 228.284 348.059C227.882 348.556 227.582 349.128 227.402 349.741Z" stroke="#1D1D1B" stroke-width="0.5" stroke-linecap="round" stroke-linejoin="round"/>
<path d="M238.485 348.514C237.822 348.845 237.274 349.369 236.914 350.016C236.745 350.345 236.656 350.709 236.656 351.078C236.656 351.447 236.745 351.811 236.914 352.139C237.086 352.467 237.358 352.731 237.69 352.895C238.021 353.058 238.397 353.112 238.761 353.049C239.415 352.803 239.964 352.341 240.319 351.74C240.645 351.379 240.865 350.936 240.953 350.458C240.952 350.187 240.887 349.921 240.762 349.681C240.637 349.442 240.457 349.235 240.236 349.079C239.735 348.696 239.117 348.496 238.485 348.514Z" stroke="#1D1D1B" stroke-width="0.5" stroke-linecap="round" stroke-linejoin="round"/>
<path d="M261.772 302.414C261.592 302.946 261.523 303.508 261.568 304.068C261.613 304.627 261.771 305.171 262.034 305.667C262.304 306.164 262.702 306.579 263.187 306.87C263.672 307.161 264.225 307.317 264.791 307.322C265.35 307.325 265.896 307.146 266.345 306.813C266.795 306.48 267.125 306.011 267.286 305.475" stroke="#1D1D1B" stroke-width="0.5" stroke-linecap="round" stroke-linejoin="round"/>
<path d="M264.044 302.167C263.861 302.224 263.696 302.33 263.568 302.473C263.439 302.616 263.351 302.791 263.314 302.98C263.202 303.292 263.163 303.625 263.198 303.955C263.234 304.284 263.344 304.601 263.52 304.882C263.714 305.149 263.998 305.338 264.319 305.414C264.64 305.49 264.978 305.448 265.271 305.296C265.546 305.105 265.742 304.821 265.823 304.496C265.907 304.187 265.935 303.865 265.905 303.545" stroke="#1D1D1B" stroke-width="0.5" stroke-linecap="round" stroke-linejoin="round"/>
<path d="M172.754 313.195C172.679 314.094 172.911 314.992 173.412 315.743C173.912 316.494 174.652 317.054 175.511 317.331C176.379 317.58 177.298 317.583 178.167 317.339C179.037 317.096 179.821 316.616 180.433 315.952C181.008 315.32 181.386 314.535 181.522 313.691C181.601 313.08 181.536 312.459 181.333 311.877C181.129 311.296 180.793 310.77 180.35 310.341C179.904 309.919 179.374 309.596 178.794 309.394C178.214 309.192 177.598 309.116 176.986 309.169" stroke="#1D1D1B" stroke-width="0.5" stroke-linecap="round" stroke-linejoin="round"/>
<path d="M175.568 315.856C175.14 315.586 174.789 315.212 174.548 314.767C174.306 314.323 174.183 313.825 174.19 313.319C174.192 313.12 174.215 312.921 174.259 312.726C174.408 312.14 174.735 311.614 175.193 311.219C175.652 310.825 176.221 310.581 176.823 310.521H177.057C177.623 310.53 178.174 310.701 178.645 311.014C179.117 311.327 179.489 311.768 179.718 312.285" stroke="#1D1D1B" stroke-width="0.5" stroke-linecap="round" stroke-linejoin="round"/>
<path d="M41.0342 177.308C40.8312 177.102 40.6784 176.852 40.5876 176.577C40.4967 176.302 40.4703 176.01 40.5103 175.723C40.5549 175.435 40.6773 175.164 40.8644 174.941C41.0515 174.717 41.2961 174.549 41.5718 174.455C41.85 174.365 42.1495 174.366 42.4271 174.458C42.7046 174.549 42.9458 174.727 43.1158 174.965" stroke="#1D1D1B" stroke-width="0.5" stroke-linecap="round" stroke-linejoin="round"/>
<path d="M38.8535 175.971C38.9211 176.617 39.2082 177.221 39.6669 177.681C40.1136 178.156 40.7048 178.471 41.3487 178.577C41.9943 178.659 42.6491 178.53 43.2155 178.209C43.7819 177.889 44.2296 177.394 44.4919 176.798C44.7229 176.244 44.7664 175.629 44.616 175.047C44.4715 174.361 44.085 173.749 43.5269 173.324" stroke="#1D1D1B" stroke-width="0.5" stroke-linecap="round" stroke-linejoin="round"/>
<path d="M43.0303 167.162C42.7888 167.602 42.7131 168.113 42.8168 168.604C42.9205 169.095 43.1968 169.532 43.5955 169.836C44.0162 170.116 44.5102 170.265 45.0155 170.265C45.5207 170.265 46.0147 170.116 46.4354 169.836C46.8423 169.549 47.1781 169.172 47.4171 168.735C47.656 168.297 47.7918 167.811 47.814 167.313C47.8516 166.901 47.7902 166.485 47.6348 166.1C47.5498 165.912 47.4261 165.743 47.2718 165.605C47.1174 165.467 46.9358 165.364 46.7387 165.301" stroke="#1D1D1B" stroke-width="0.5" stroke-linecap="round" stroke-linejoin="round"/>
<path d="M44.2572 168.816C44.119 168.566 44.033 168.291 44.0046 168.006C43.9762 167.722 44.0058 167.435 44.0918 167.162C44.1804 166.889 44.3459 166.648 44.5685 166.467C44.791 166.286 45.0611 166.173 45.3463 166.142C45.6323 166.12 45.9161 166.206 46.1427 166.382C46.3694 166.557 46.5228 166.811 46.5732 167.093" stroke="#1D1D1B" stroke-width="0.5" stroke-linecap="round" stroke-linejoin="round"/>
<path d="M44.9345 160.407C44.7146 160.9 44.6727 161.454 44.816 161.974C44.9594 162.495 45.279 162.949 45.7203 163.26C46.1789 163.545 46.7151 163.68 47.2539 163.645C47.7927 163.61 48.3072 163.408 48.7256 163.067C49.1302 162.713 49.4292 162.254 49.5897 161.741C49.7503 161.228 49.7661 160.68 49.6355 160.158C49.5781 159.838 49.4331 159.539 49.2166 159.296C49 159.053 48.7204 158.874 48.4085 158.78" stroke="#1D1D1B" stroke-width="0.5" stroke-linecap="round" stroke-linejoin="round"/>
<path d="M46.4086 162.241C46.249 162.029 46.1452 161.78 46.1067 161.518C46.0681 161.255 46.0961 160.987 46.188 160.738C46.2988 160.499 46.4758 160.296 46.6982 160.155C46.9205 160.013 47.1788 159.938 47.4425 159.938C47.7062 159.965 47.9517 160.085 48.134 160.277C48.3163 160.47 48.4231 160.721 48.4351 160.986" stroke="#1D1D1B" stroke-width="0.5" stroke-linecap="round" stroke-linejoin="round"/>
<path d="M114.262 40.4565C114.661 38.6525 115.435 36.9529 116.535 35.4684C117.635 33.9838 119.035 32.7476 120.645 31.8403" stroke="#1D1D1B" stroke-width="0.5" stroke-linecap="round" stroke-linejoin="round"/>
<path d="M115.957 41.1732C118.498 38.7459 121.886 37.4056 125.4 37.4372C128.875 37.4983 132.33 37.9609 135.698 38.8158C137.701 39.321 139.776 39.4795 141.833 39.2845C144.59 38.8709 146.879 37.3269 149.332 36.1689C151.936 34.8922 154.776 34.1693 157.673 34.0459C160.599 33.9116 163.493 34.7026 165.944 36.3068" stroke="#1D1D1B" stroke-width="0.5" stroke-linecap="round" stroke-linejoin="round"/>
<path d="M138.498 45.2539C138.842 46.2576 138.953 47.3262 138.824 48.3792C138.696 49.4322 138.329 50.4422 137.754 51.3334" stroke="#1D1D1B" stroke-width="0.5" stroke-linecap="round" stroke-linejoin="round"/>
<path d="M142.329 43.4067C141.935 45.0442 141.982 46.757 142.466 48.3701C142.951 49.9833 143.855 51.4388 145.086 52.5881" stroke="#1D1D1B" stroke-width="0.5" stroke-linecap="round" stroke-linejoin="round"/>
<path d="M147.982 47.8048C148.906 45.9142 150.284 44.282 151.993 43.0538C153.701 41.8257 155.688 41.04 157.774 40.7669C159.86 40.4938 161.982 40.7419 163.949 41.4889C165.916 42.2358 167.668 43.4585 169.047 45.0476" stroke="#1D1D1B" stroke-width="0.5" stroke-linecap="round" stroke-linejoin="round"/>
<path d="M137.119 66.4292C137.148 67.8644 136.919 69.2931 136.444 70.6476C136.13 71.6244 135.895 72.6248 135.741 73.6392C135.706 74.0428 135.706 74.4487 135.741 74.8523C135.744 75.4827 135.875 76.1058 136.127 76.684C136.378 77.2622 136.744 77.7834 137.202 78.216C137.336 78.3281 137.479 78.4295 137.63 78.5193" stroke="#1D1D1B" stroke-width="0.5" stroke-linecap="round" stroke-linejoin="round"/>
<path d="M113.916 49.9963C115.091 48.6505 116.564 47.598 118.218 46.923C119.872 46.248 121.661 45.9692 123.442 46.1088C127.001 46.4416 130.478 47.3738 133.726 48.8659" stroke="#1D1D1B" stroke-width="0.5" stroke-linecap="round" stroke-linejoin="round"/>
<path d="M134.334 73.5566C133.331 74.5889 132.494 75.77 131.852 77.0582C131.537 77.7019 131.373 78.4093 131.373 79.1261C131.373 79.8429 131.537 80.5502 131.852 81.1939C131.928 81.3256 132.016 81.4502 132.114 81.5662C132.555 82.1168 133.149 82.5246 133.821 82.738C134.493 82.9515 135.214 82.9611 135.892 82.7655" stroke="#1D1D1B" stroke-width="0.5" stroke-linecap="round" stroke-linejoin="round"/>
<path d="M134.004 81.2215C134.176 80.9417 134.421 80.7135 134.712 80.5607C135.003 80.4079 135.33 80.3362 135.658 80.353H135.837C136.552 80.4555 137.24 80.6942 137.864 81.056L139.904 82.0762" stroke="#1D1D1B" stroke-width="0.5" stroke-linecap="round" stroke-linejoin="round"/>
<path d="M135.312 80.7798C135.399 81.083 135.579 81.3513 135.826 81.5468C136.073 81.7422 136.376 81.8549 136.691 81.8689" stroke="#1D1D1B" stroke-width="0.5" stroke-linecap="round" stroke-linejoin="round"/>
<path d="M144.59 81.7587C145.297 81.369 145.963 80.907 146.575 80.3801C146.883 80.1099 147.256 79.9246 147.657 79.8424C148.058 79.7602 148.474 79.784 148.863 79.9114C149.072 80.0127 149.255 80.1614 149.396 80.3457C149.537 80.53 149.633 80.7448 149.677 80.9729C149.723 81.2009 149.71 81.4367 149.64 81.6584C149.57 81.8802 149.445 82.0807 149.277 82.2412" stroke="#1D1D1B" stroke-width="0.5" stroke-linecap="round" stroke-linejoin="round"/>
<path d="M151.207 82.7375C151.811 82.3473 152.292 81.7952 152.597 81.1444C152.901 80.4935 153.017 79.7701 152.93 79.0567C152.719 77.631 152.129 76.2883 151.221 75.1691C150.38 74.0249 149.387 72.9772 148.602 71.7778" stroke="#1D1D1B" stroke-width="0.5" stroke-linecap="round" stroke-linejoin="round"/>
<path d="M120.768 25.4165L120.313 25.5544C116.411 26.8502 112.289 27.3879 108.374 28.6148C104.459 29.8418 100.241 32.0475 98.0762 35.7283" stroke="#1D1D1B" stroke-width="0.5" stroke-linecap="round" stroke-linejoin="round"/>
<path d="M111.988 29.6763C106.964 32.282 102.856 36.361 100.215 41.3666" stroke="#1D1D1B" stroke-width="0.5" stroke-linecap="round" stroke-linejoin="round"/>
<path d="M104.82 38.8579C104.231 41.7587 103.305 44.5808 102.062 47.2673L102.283 47.1707" stroke="#1D1D1B" stroke-width="0.5" stroke-linecap="round" stroke-linejoin="round"/>
<path d="M103.648 21.2668C107.55 16.5659 113.864 14.5256 119.943 13.9879C122.036 13.7316 124.156 13.8295 126.216 14.2774C128.291 14.7261 130.138 15.899 131.427 17.586C132.056 18.4339 132.446 19.4345 132.558 20.4842C132.669 21.5339 132.498 22.5942 132.061 23.5553" stroke="#1D1D1B" stroke-width="0.5" stroke-linecap="round" stroke-linejoin="round"/>
<path d="M139.602 23.6928C140.72 22.5599 141.574 21.1939 142.103 19.6926C142.632 18.1912 142.823 16.5915 142.662 15.0078" stroke="#1D1D1B" stroke-width="0.5" stroke-linecap="round" stroke-linejoin="round"/>
<path d="M147.059 4.08984C149.706 4.61085 152.274 5.47758 154.696 6.66778C157.133 7.88102 159.005 9.99069 159.921 12.5543C160.313 14.2077 160.282 15.933 159.831 17.5714C159.381 19.2097 158.525 20.7082 157.343 21.9287" stroke="#1D1D1B" stroke-width="0.5" stroke-linecap="round" stroke-linejoin="round"/>
<path d="M157.798 14.6079C157.703 16.002 157.278 17.3536 156.559 18.5518C155.84 19.7501 154.847 20.7607 153.662 21.5008" stroke="#1D1D1B" stroke-width="0.5" stroke-linecap="round" stroke-linejoin="round"/>
<path d="M155.04 17.5586C154.073 19.2463 152.636 20.6163 150.904 21.5014" stroke="#1D1D1B" stroke-width="0.5" stroke-linecap="round" stroke-linejoin="round"/>
<path d="M151.842 19.0063L149.209 21.1845" stroke="#1D1D1B" stroke-width="0.5" stroke-linecap="round" stroke-linejoin="round"/>
<path d="M151.291 15.7798C150.063 18.3709 148.084 20.5325 145.611 21.9834" stroke="#1D1D1B" stroke-width="0.5" stroke-linecap="round" stroke-linejoin="round"/>
<path d="M144.851 19.7231C144.529 20.71 143.965 21.6008 143.211 22.3149" stroke="#1D1D1B" stroke-width="0.5" stroke-linecap="round" stroke-linejoin="round"/>
<path d="M163.52 21.5425C165.295 20.5853 167.341 20.2551 169.328 20.6054C171.314 20.9556 173.124 21.9658 174.465 23.4725" stroke="#1D1D1B" stroke-width="0.5" stroke-linecap="round" stroke-linejoin="round"/>
<path d="M165.586 23.2241C173.67 25.9185 180.408 31.6198 184.404 39.1467" stroke="#1D1D1B" stroke-width="0.5" stroke-linecap="round" stroke-linejoin="round"/>
<path d="M173.898 34.7222C177.563 38.6834 180.482 43.2743 182.515 48.2736" stroke="#1D1D1B" stroke-width="0.5" stroke-linecap="round" stroke-linejoin="round"/>
<path d="M175.029 39.0776C177.52 44.399 180.011 49.7111 182.501 55.014" stroke="#1D1D1B" stroke-width="0.5" stroke-linecap="round" stroke-linejoin="round"/>
<path d="M174.398 75.4312C171.127 79.6209 169.021 84.5999 168.291 89.8649" stroke="#1D1D1B" stroke-width="0.5" stroke-linecap="round" stroke-linejoin="round"/>
<path d="M153.096 79.3325C154.143 86.5149 161.367 91.6433 162.305 98.8257" stroke="#1D1D1B" stroke-width="0.5" stroke-linecap="round" stroke-linejoin="round"/>
<path d="M131.232 82.6553C130.267 86.9427 128.31 90.9267 126.793 95.0625C126.347 96.1203 126.099 97.2512 126.062 98.3987C126.079 98.835 126.158 99.2667 126.297 99.6807C126.522 100.37 126.98 100.96 127.593 101.349" stroke="#1D1D1B" stroke-width="0.5" stroke-linecap="round" stroke-linejoin="round"/>
<path d="M129.426 98.4119C129.751 98.5296 130.098 98.5806 130.443 98.5616C130.789 98.5427 131.128 98.4542 131.439 98.3016C134.402 97.2676 137.38 96.2337 140.385 95.3514C141.003 95.4938 141.629 95.5951 142.26 95.6547C142.715 95.6547 143.156 95.7512 143.639 95.7788C145.56 95.1091 147.59 94.8097 149.622 94.8965C152.633 95.3249 155.609 95.9699 158.528 96.8265" stroke="#1D1D1B" stroke-width="0.5" stroke-linecap="round" stroke-linejoin="round"/>
<path d="M137.697 99.5151C142.322 100.073 146.997 100.073 151.621 99.5151" stroke="#1D1D1B" stroke-width="0.5" stroke-linecap="round" stroke-linejoin="round"/>
<path d="M141.625 85.7295C141.694 87.4803 141.763 89.2311 141.818 90.9819C141.807 91.3972 141.882 91.8102 142.039 92.195C142.165 92.437 142.376 92.6236 142.631 92.7189C142.767 92.7533 142.909 92.7533 143.045 92.7189" stroke="#1D1D1B" stroke-width="0.5" stroke-linecap="round" stroke-linejoin="round"/>
<path d="M179.359 72.1365C180.785 69.7127 182.591 67.5342 184.708 65.6847C185.239 65.1878 185.906 64.8613 186.624 64.7473H186.804C187.13 64.7419 187.448 64.8526 187.7 65.0596C187.953 65.2666 188.124 65.5565 188.182 65.8777" stroke="#1D1D1B" stroke-width="0.5" stroke-linecap="round" stroke-linejoin="round"/>
<path d="M186.747 65.2163C187.276 67.4394 187.274 69.7556 186.742 71.9779C186.211 74.2002 185.164 76.2664 183.687 78.0095C183.518 78.265 183.255 78.4434 182.956 78.5058C182.76 78.5032 182.571 78.4333 182.42 78.3078C182.27 78.1823 182.167 78.0089 182.129 77.8165C182.066 77.4331 182.066 77.042 182.129 76.6585C182.202 76.0088 182.114 75.351 181.874 74.7429C181.633 74.1349 181.248 73.595 180.75 73.1707C181.17 74.3948 181.17 75.724 180.75 76.948C180.3 78.1626 179.462 79.1947 178.365 79.8844" stroke="#1D1D1B" stroke-width="0.5" stroke-linecap="round" stroke-linejoin="round"/>
<path d="M181.814 80.6426C181.378 83.1759 180.13 85.4985 178.257 87.2597C178.078 87.4252 177.733 87.5493 177.623 87.3287" stroke="#1D1D1B" stroke-width="0.5" stroke-linecap="round" stroke-linejoin="round"/>
<path d="M183.879 66.7739C184.154 66.8065 184.413 66.9212 184.622 67.1032C184.831 67.2852 184.981 67.5259 185.051 67.7941C185.207 68.3212 185.254 68.8749 185.189 69.4208C185.194 71.0649 184.914 72.6975 184.361 74.2458" stroke="#1D1D1B" stroke-width="0.5" stroke-linecap="round" stroke-linejoin="round"/>
<path d="M109.424 82.8066C110.151 85.8484 111.88 88.5575 114.332 90.4991L114.18 90.3337" stroke="#1D1D1B" stroke-width="0.5" stroke-linecap="round" stroke-linejoin="round"/>
<path d="M110.126 75.5005C109.969 76.8691 110.171 78.2551 110.712 79.5218C111.254 80.7886 112.116 81.8923 113.214 82.7243" stroke="#1D1D1B" stroke-width="0.5" stroke-linecap="round" stroke-linejoin="round"/>
<path d="M115.82 78.354C118.4 83.227 120.341 88.4117 121.597 93.7803" stroke="#1D1D1B" stroke-width="0.5" stroke-linecap="round" stroke-linejoin="round"/>
<path d="M120.508 60.2392C121.597 58.839 123.197 57.9279 124.957 57.7057C126.717 57.4834 128.493 57.9681 129.896 59.0536" stroke="#1D1D1B" stroke-width="0.5" stroke-linecap="round" stroke-linejoin="round"/>
<path d="M130.804 61.5903C130.357 63.5125 129.657 65.3668 128.722 67.1046C128.252 67.9711 127.616 68.7362 126.849 69.3561C126.083 69.9759 125.202 70.4382 124.256 70.7165" stroke="#1D1D1B" stroke-width="0.5" stroke-linecap="round" stroke-linejoin="round"/>
<path d="M153.221 57.4547C153.777 56.808 154.457 56.2787 155.22 55.898C155.983 55.5173 156.815 55.2928 157.666 55.2376C158.517 55.1824 159.371 55.2976 160.177 55.5765C160.983 55.8554 161.726 56.2924 162.361 56.8619" stroke="#1D1D1B" stroke-width="0.5" stroke-linecap="round" stroke-linejoin="round"/>
<path d="M153.564 60.4185C154.15 62.759 155.581 64.8 157.582 66.1489C159.582 67.4978 162.011 68.0592 164.4 67.7249" stroke="#1D1D1B" stroke-width="0.5" stroke-linecap="round" stroke-linejoin="round"/>
<path d="M125.719 58.0059L126.008 61.0387" stroke="#1D1D1B" stroke-linecap="round" stroke-linejoin="round"/>
<path d="M157.674 55.7866C157.674 56.6413 157.798 57.4961 157.853 58.3508" stroke="#1D1D1B" stroke-linecap="round" stroke-linejoin="round"/>
<path d="M181.496 256.907C181.259 257.678 181.289 258.505 181.582 259.256C181.875 260.007 182.413 260.637 183.109 261.043C183.835 261.414 184.659 261.548 185.465 261.427C186.271 261.306 187.019 260.936 187.603 260.368C188.336 259.608 188.75 258.597 188.761 257.542C188.763 257.08 188.672 256.623 188.494 256.197C188.317 255.771 188.056 255.384 187.727 255.06C187.397 254.741 186.991 254.509 186.548 254.386C186.105 254.264 185.639 254.253 185.191 254.357" stroke="#1D1D1B" stroke-width="0.5" stroke-linecap="round" stroke-linejoin="round"/>
<path d="M184.171 259.762C183.929 259.643 183.722 259.464 183.569 259.242C183.417 259.02 183.325 258.762 183.302 258.493C183.286 258.223 183.325 257.952 183.414 257.696C183.504 257.44 183.644 257.205 183.826 257.004C183.994 256.795 184.203 256.623 184.44 256.497C184.677 256.371 184.937 256.295 185.205 256.274C185.486 256.264 185.765 256.334 186.009 256.476C186.253 256.617 186.452 256.824 186.583 257.073" stroke="#1D1D1B" stroke-width="0.5" stroke-linecap="round" stroke-linejoin="round"/>
<path d="M179.056 226.344C178.836 226.289 178.63 226.186 178.454 226.043C178.279 225.899 178.137 225.719 178.039 225.514C177.94 225.31 177.889 225.086 177.887 224.859C177.885 224.632 177.933 224.408 178.028 224.201C178.123 223.995 178.262 223.813 178.435 223.666C178.609 223.52 178.813 223.414 179.032 223.355C179.251 223.297 179.48 223.287 179.704 223.327C179.927 223.367 180.139 223.456 180.324 223.587" stroke="#1D1D1B" stroke-width="0.5" stroke-linecap="round" stroke-linejoin="round"/>
<path d="M175.873 225.531C175.989 226.23 176.305 226.881 176.783 227.404C177.26 227.928 177.88 228.302 178.565 228.48C179.251 228.659 179.974 228.636 180.647 228.412C181.319 228.189 181.913 227.775 182.355 227.222C182.798 226.668 183.07 225.998 183.14 225.293C183.21 224.588 183.074 223.877 182.748 223.248C182.423 222.618 181.922 222.097 181.306 221.746C180.69 221.395 179.986 221.23 179.278 221.271" stroke="#1D1D1B" stroke-width="0.5" stroke-linecap="round" stroke-linejoin="round"/>
<path d="M142.689 121.931L150.285 132.008" stroke="#1D1D1B" stroke-width="0.5" stroke-linecap="round" stroke-linejoin="round"/>
<path d="M160.154 119.601C158.719 121.679 158.029 124.181 158.197 126.701C158.376 129.199 158.839 131.669 159.575 134.062" stroke="#1D1D1B" stroke-width="0.5" stroke-linecap="round" stroke-linejoin="round"/>
</svg>
