<svg width="374" height="492" viewBox="0 0 374 492" fill="none" xmlns="http://www.w3.org/2000/svg">
<path d="M292.904 440.526C293.098 441.411 293.535 442.224 294.165 442.875V442.961C296.997 448.763 299.639 454.686 302.057 460.679C302.713 465.289 303.905 465.859 304.544 470.712C305.114 475.029 305.529 479.864 302.817 483.301C300.641 486.098 297.014 487.169 293.474 487.86L292.921 484.717C293.353 467.811 290.866 460.368 285.857 444.204V443.98C286.407 444.192 287.004 444.252 287.584 444.152C288.435 443.903 289.204 443.432 289.812 442.788C290.745 441.942 291.643 441.061 292.472 440.129L292.904 440.526Z" fill="#E94D4F"/>
<path d="M232.353 195.206C231.363 182.651 228.649 170.291 224.288 158.476L225.152 158.147C228.191 166.298 230.914 174.547 233.32 182.893C250.771 243.513 251.844 307.674 236.429 368.843L235.807 368.688C227.518 346.394 222.336 322.995 217.155 299.699C214.737 288.716 212.302 277.491 213.701 266.336L214.634 262.33C221.874 252.399 227.021 241.102 229.763 229.122C231.895 220.177 232.882 210.997 232.699 201.803C232.699 199.61 232.543 197.434 232.353 195.206Z" fill="#D1D0D1"/>
<path d="M163.115 183.567L159.281 173.119L160.594 172.636C164.543 183.415 169.264 193.896 174.721 203.996C180.443 214.556 186.721 224.805 193.529 234.699C199.901 244.042 206.654 253.125 213.562 262.019L214.65 262.329L213.718 266.336C212.284 277.491 214.719 288.785 217.172 299.699C222.353 322.994 227.534 346.324 235.841 368.774L236.463 368.929C236.463 369.257 236.308 369.585 236.221 369.913L235.22 370.431C228.596 357.516 222.664 344.258 217.448 330.713C213.597 320.939 209.97 311.079 206.361 301.219L163.115 183.567Z" fill="#D1D0D1"/>
<path d="M53.759 218.916C53.546 218.618 53.2438 218.396 52.8961 218.281C52.5484 218.166 52.1733 218.165 51.8247 218.277C51.4793 218.396 51.1728 218.606 50.9385 218.886C50.7041 219.166 50.5507 219.505 50.4949 219.866C50.4448 220.225 50.4779 220.591 50.5917 220.935C50.7055 221.28 50.8969 221.593 51.1512 221.852L49.4241 222.318C49.9838 222.914 50.7244 223.308 51.5311 223.44C52.3399 223.543 53.1602 223.382 53.8698 222.98C54.5794 222.579 55.1402 221.959 55.4688 221.213C55.7582 220.518 55.8127 219.748 55.6242 219.02L53.759 218.916ZM104.362 189.352L105.467 186.071L106.365 186.365C107.237 187.143 107.841 188.176 108.092 189.317C108.282 190.298 108.282 191.307 108.092 192.288C107.644 194.39 106.851 196.403 105.743 198.245C103.187 203.15 100.689 208.083 98.2478 213.045C96.7107 216.136 95.1909 219.244 93.7229 222.37C90.6488 228.794 87.6782 235.258 84.8114 241.763C82.0366 248.014 79.3481 254.305 76.746 260.637C75.468 263.763 74.2073 266.889 73.0329 270.049C70.903 275.51 69.0583 281.078 67.5063 286.73C66.8155 289.269 66.211 291.911 65.6929 294.432C65.572 295.019 65.4684 295.589 65.3648 296.159L67.4718 296.556C69.3733 305.578 68.5743 314.96 65.1748 323.53L68.888 325.084C68.7843 325.395 68.6635 325.706 68.5426 325.999C66.283 330.934 62.206 334.806 57.1613 336.81C51.8683 338.877 46.2872 340.111 40.6162 340.471C34.9655 341.352 29.2098 341.317 23.5702 340.367C17.8598 338.997 12.6879 335.955 8.71613 331.63C4.74432 327.304 2.15315 321.893 1.27406 316.087C0.876792 311.748 0.911502 307.381 1.37768 303.049C1.48612 299.286 2.03091 295.548 3.00111 291.911C3.94766 288.36 6.17453 285.284 9.25302 283.277C19.4278 242.659 35.3446 203.7 56.5223 167.576H57.1268L58.0594 168.526C63.6377 174 70.6841 177.782 77.5923 181.477C81.7991 183.862 86.1812 185.923 90.7006 187.642C93.6062 188.691 96.6373 189.353 99.7158 189.611C101.267 189.758 102.828 189.758 104.379 189.611L104.362 189.352Z" fill="#E94D4F"/>
<path d="M319.482 321.267C318.425 320.28 317.582 319.086 317.006 317.76C316.43 316.433 316.133 315.003 316.133 313.557C316.133 312.111 316.43 310.68 317.006 309.354C317.582 308.027 318.425 306.833 319.482 305.846L319.896 305.121C316.406 303.234 313.466 300.473 311.364 297.108L311.624 296.452C305.27 294.105 299.827 289.799 296.08 284.157C297.272 276.697 298.481 269.254 299.534 261.707C302.902 237.359 304.284 212.094 296.944 188.644L300.726 186.623C301.962 189.154 302.901 191.82 303.524 194.567C305.147 200.714 306.776 206.862 308.411 213.01C312.585 216.103 315.406 220.686 316.287 225.806C319.151 226.734 321.597 228.642 323.195 231.194C325.191 234.037 326.384 237.366 326.649 240.829V240.985C328.169 241.312 329.561 242.074 330.656 243.178C331.985 244.732 332.21 246.943 333.367 248.618C335.094 251.035 338.185 251.795 340.793 253.159C348.513 257.183 351.466 266.715 357.908 272.569C361.19 275.557 365.663 277.975 367.148 282.43C369.089 284.27 370.637 286.484 371.7 288.939C372.762 291.393 373.317 294.037 373.331 296.711C373.336 302.057 372.556 307.375 371.017 312.495C366.928 328.513 362.04 344.316 356.371 359.846C355.715 361.572 355.041 363.403 354.385 365.164C353.833 366.632 353.263 368.083 352.658 369.551C351.933 371.416 351.19 373.263 350.448 375.111C349.705 376.959 349.1 378.409 348.427 380.05C347.753 381.69 346.976 383.504 346.234 385.23C345.007 388.097 343.729 390.964 342.434 393.865L342.313 394.02C340.873 390.483 338.993 387.141 336.718 384.073C335.592 382.551 334.369 381.103 333.056 379.739C332.4 379.048 331.726 378.375 331.018 377.736C329.471 376.288 327.82 374.955 326.079 373.747C319.331 369.375 311.631 366.692 303.627 365.924C302.297 365.769 301.002 365.682 299.724 365.648C300.013 364.421 300.607 363.286 301.451 362.349C308.103 353.114 313.212 342.862 316.58 331.991C315.986 330.16 315.934 328.196 316.43 326.337C316.927 324.477 317.95 322.8 319.378 321.509L319.482 321.267ZM358.392 290.011C358.392 289.389 357.736 288.992 357.166 288.75C355.192 288.002 353.158 287.425 351.087 287.023C336.942 283.794 322.608 280.548 307.496 281.221C323.437 286.143 339.653 291.116 356.337 291.202C357.218 291.168 358.392 290.874 358.392 289.994V290.011Z" fill="#E94D4F"/>
<path d="M225.151 158.2L224.288 158.528C222.561 153.555 220.436 148.667 218.174 143.884L218.847 143.573C223.945 145.123 228.563 147.946 232.267 151.776C236.083 155.454 239.382 159.633 243.026 163.484C244.719 165.268 246.486 166.995 248.328 168.665C254.791 174.387 262.058 179.128 269.899 182.739L259.537 190.389C256.569 188.924 253.742 187.19 251.091 185.208C249.103 183.489 246.875 182.07 244.477 180.995C243.265 180.479 241.933 180.314 240.632 180.519C239.332 180.723 238.114 181.289 237.12 182.152L233.372 182.894C230.931 174.594 228.191 166.362 225.151 158.2Z" fill="#E94D4F"/>
<path d="M357.166 288.734C357.736 288.975 358.392 289.373 358.392 289.994C358.392 290.616 357.218 291.168 356.337 291.168C339.654 291.082 323.437 286.109 307.496 281.187C322.608 280.514 336.942 283.76 351.087 286.989C353.159 287.397 355.193 287.98 357.166 288.734Z" fill="#E94D4F"/>
<path d="M342.349 393.986C341.052 395.612 339.213 396.716 337.167 397.094C334.652 397.159 332.182 396.415 330.121 394.97C332.194 391.516 334.231 387.89 336.304 384.35L336.753 384.039C339.028 387.107 340.908 390.449 342.349 393.986Z" fill="#1D1D1B"/>
<path d="M303.733 365.89V366.2L302.213 368.843L301.608 368.497C301.016 368.313 300.513 367.917 300.194 367.385C299.876 366.853 299.764 366.222 299.881 365.613C301.108 365.648 302.403 365.734 303.733 365.89Z" fill="#1D1D1B"/>
<path d="M259.485 190.388L269.847 182.738C262.007 179.128 254.739 174.386 248.276 168.664L248.432 168.491C258.324 172.138 268.518 174.906 278.897 176.763C281.651 177.146 284.375 177.723 287.048 178.49C288.829 179.041 290.518 179.856 292.057 180.907L292.368 180.476C293.965 180.699 295.491 181.281 296.831 182.178C298.171 183.075 299.291 184.264 300.105 185.656C300.312 186.002 300.519 186.347 300.709 186.692L296.927 188.713C304.267 212.164 302.885 237.428 299.518 261.777C298.499 269.237 297.29 276.68 296.064 284.226C293.387 301.08 290.883 317.935 290.675 334.979C290.537 350.866 292.402 367.15 287.981 382.381V382.675C286.771 382.441 285.526 382.45 284.319 382.703C283.112 382.955 281.968 383.444 280.952 384.143C277.187 386.802 275.961 391.758 273.387 395.575C272.664 396.523 272.001 397.515 271.401 398.545C270.788 399.585 270.59 400.819 270.849 401.999C270.984 402.465 271.2 402.903 271.488 403.294L269.761 404.624C273.213 409.157 276.275 413.975 278.914 419.026L279.346 419.267C278.655 420.493 277.93 421.72 277.17 422.911C275.826 424.816 274.67 426.846 273.716 428.972C273.29 430.042 273.039 431.173 272.973 432.323C272.877 433.503 273.073 434.689 273.543 435.776C273.982 436.862 274.775 437.768 275.795 438.345C276.814 438.922 277.999 439.137 279.156 438.954C279.853 438.788 280.506 438.476 281.073 438.038L281.626 438.211C281.733 439.236 282.054 440.226 282.569 441.119C283.084 442.011 283.78 442.786 284.613 443.392C284.993 443.661 285.405 443.881 285.84 444.048V444.272C290.848 460.436 293.335 467.879 292.903 484.785L293.456 487.928L292.247 488.135C274.894 491.383 257.157 492.064 239.606 490.155C226.844 488.601 214.392 485.268 201.784 482.73C166.224 475.529 131.493 486.08 96.6587 475.822H96.2615C96.1985 429.359 100.489 382.991 109.076 337.327C102.22 326.326 97.394 314.184 94.8281 301.477L93.9473 300.994L95.3116 299.492C99.8062 294.731 104.545 290.206 109.508 285.936L108.644 284.019L109.715 282.171C109.992 279.909 110.251 277.629 110.492 275.35C111.731 266.396 111.655 257.309 110.268 248.376C110.268 248.065 110.147 247.737 110.078 247.426C107.746 236.029 102.064 225.443 100.182 213.96L98.1958 212.975C100.625 208.002 103.124 203.069 105.691 198.176C106.799 196.334 107.592 194.321 108.04 192.218C108.23 191.237 108.23 190.229 108.04 189.248L108.765 189.093C117.666 187.33 126.237 184.19 134.17 179.785L134.688 180.113C131.877 185.074 128.164 189.467 123.739 193.065C127.826 196.729 132.89 199.129 138.315 199.972V200.853C133.457 203.906 128.363 206.568 123.083 208.814C129.093 225.357 141.044 238.93 152.442 252.417C173.953 278.017 194.073 304.752 212.716 332.509L217.448 330.644C222.664 344.189 228.596 357.447 235.22 370.362L236.221 369.844C236.221 369.516 236.394 369.188 236.463 368.86C251.878 307.691 250.805 243.53 233.355 182.911L237.102 182.168C238.097 181.306 239.314 180.74 240.615 180.535C241.916 180.331 243.248 180.495 244.459 181.011C246.858 182.086 249.086 183.506 251.074 185.225C253.714 187.199 256.529 188.927 259.485 190.388ZM227.172 392.622C227.271 391.856 227.19 391.078 226.935 390.35C226.68 389.621 226.258 388.962 225.704 388.426C225.145 387.897 224.481 387.493 223.754 387.24C223.028 386.987 222.256 386.89 221.49 386.958V388.684H221.196C220.442 388.76 219.729 389.066 219.155 389.56C218.58 390.054 218.171 390.713 217.984 391.448C217.93 391.691 217.901 391.94 217.897 392.19L216.17 392.104C216.077 393.23 216.367 394.355 216.994 395.296C217.622 396.237 218.548 396.937 219.624 397.284C220.714 397.592 221.869 397.591 222.958 397.28C224.047 396.968 225.027 396.36 225.79 395.523C226.529 394.715 227.01 393.705 227.172 392.622Z" fill="#E94D4F"/>
<path d="M286.238 396.041C287.268 396.347 288.341 396.487 289.416 396.456C287.343 401.826 285.253 407.214 282.801 412.412L282.214 412.136C281.35 409.856 280.487 407.577 279.606 405.228L278.863 405.107C279.237 404.848 279.589 404.559 279.917 404.244C282.381 401.954 284.259 399.105 285.392 395.938L286.238 396.041Z" fill="#E94D4F"/>
<path d="M282.282 412.135L282.869 412.412C281.816 414.691 280.659 416.953 279.415 419.146L278.983 418.905C276.344 413.854 273.282 409.036 269.83 404.503L271.557 403.173C272.06 403.846 272.673 404.43 273.371 404.9C274.376 405.711 275.637 406.139 276.928 406.109C277.667 406 278.367 405.709 278.966 405.262L279.709 405.383C280.555 407.611 281.419 409.856 282.282 412.135Z" fill="#E94D4F"/>
<path d="M217.966 392.225C217.969 391.975 217.998 391.726 218.052 391.482C218.24 390.748 218.649 390.089 219.223 389.595C219.798 389.101 220.51 388.795 221.265 388.719H221.558V386.992C222.324 386.925 223.096 387.021 223.823 387.274C224.549 387.527 225.214 387.932 225.772 388.46C226.327 388.997 226.748 389.656 227.003 390.385C227.258 391.113 227.339 391.891 227.24 392.657C227.052 393.735 226.547 394.733 225.789 395.523C225.04 396.376 224.067 397.002 222.981 397.331C221.895 397.661 220.738 397.681 219.641 397.388C218.565 397.041 217.638 396.34 217.011 395.4C216.384 394.459 216.094 393.334 216.187 392.208L217.966 392.225Z" fill="#E94D4F"/>
<path d="M217.415 330.661L212.683 332.526C194.04 304.769 173.919 278.033 152.409 252.434C141.079 238.947 129.128 225.374 123.049 208.831C128.33 206.585 133.423 203.923 138.281 200.87C140.462 199.452 142.513 197.846 144.412 196.069C146.917 193.703 149.093 191.009 151.683 188.747C154.183 186.341 157.394 184.809 160.837 184.378L163.047 183.566L206.223 301.166C209.937 311.027 213.563 320.887 217.415 330.661Z" fill="#E94D4F"/>
<path d="M216.897 179.872L216.171 181.029L215.291 183.084C215.723 183.649 216.04 184.295 216.223 184.983C216.353 185.662 216.353 186.359 216.223 187.038C215.678 190.441 214.551 193.724 212.89 196.743C212.89 196.743 212.89 196.829 212.89 196.881L210.161 195.154C209.263 194.797 208.29 194.667 207.329 194.774C205.66 194.916 204.115 195.71 203.029 196.985C202.572 197.626 202.082 198.243 201.561 198.833C201.196 199.188 200.743 199.438 200.248 199.558C199.971 199.635 199.679 199.635 199.402 199.558C198.59 199.264 198.193 198.366 197.675 197.693C195.948 195.586 192.614 195.482 190.767 193.445C190.062 192.629 189.649 191.603 189.592 190.526C189.534 188.837 189.889 187.159 190.628 185.639C191.785 183.135 193.495 180.787 193.806 178.041L193.668 177.748C195.761 176.797 197.985 176.169 200.265 175.882L200.887 175.796C202.706 175.035 204.677 174.708 206.644 174.843C208.611 174.978 210.519 175.57 212.216 176.573C213.901 177.485 215.471 178.592 216.897 179.872Z" fill="#E94D4F"/>
<path d="M229.78 229.122C227.039 241.101 221.892 252.399 214.651 262.329L213.563 262.018C206.655 253.125 199.902 244.042 193.529 234.699L193.702 234.578C195.279 229.225 196.586 223.809 197.622 218.329L202.026 219.209C206.433 212.813 208.327 205.017 207.346 197.313L207.208 194.722C208.169 194.614 209.141 194.745 210.04 195.102L212.769 196.829C212.769 196.829 212.769 196.743 212.769 196.691L213.166 196.898C219.896 206.981 225.469 217.791 229.78 229.122Z" fill="#E94D4F"/>
<path d="M207.344 197.313C208.326 205.018 206.432 212.814 202.025 219.21L197.621 218.329C198.791 212.241 199.644 206.097 200.177 199.921V199.506C200.672 199.387 201.125 199.136 201.49 198.781C202.011 198.191 202.501 197.575 202.958 196.933C204.044 195.659 205.589 194.864 207.258 194.723L207.344 197.313Z" fill="#E94D4F"/>
<path d="M193.58 177.645L193.718 177.938C193.408 180.684 191.698 183.032 190.541 185.536C189.802 187.056 189.446 188.734 189.504 190.423H188.969C186.794 189.837 184.785 188.755 183.097 187.263L182.734 187.004L183.391 186.072C185.995 182.423 189.508 179.518 193.58 177.645Z" fill="#E94D4F"/>
<path d="M159.282 173.12L163.116 183.567L160.905 184.379C157.462 184.81 154.251 186.342 151.752 188.748C149.161 191.01 146.985 193.704 144.481 196.07C142.582 197.847 140.53 199.453 138.35 200.871V199.99C132.925 199.147 127.861 196.747 123.773 193.082C128.198 189.485 131.912 185.092 134.723 180.131L135.017 179.647C138.073 174.639 140.768 169.39 144.256 164.658C147.584 160.153 151.579 156.182 156.104 152.881L156.691 152.984C156.441 154.229 156.337 155.498 156.38 156.766C156.616 159.93 157.29 163.045 158.383 166.022C159.109 168.233 159.851 170.409 160.646 172.584L159.282 173.12Z" fill="#E94D4F"/>
<path d="M93.2216 241.262L88.6276 243.438L84.8281 241.711C87.695 235.207 90.6656 228.742 93.7397 222.318L94.5341 222.836C94.9486 236.548 99.508 243.334 104.896 249.396C105.032 249.612 105.214 249.795 105.429 249.932C105.644 250.07 105.887 250.158 106.14 250.19C106.311 250.169 106.475 250.114 106.625 250.028C106.774 249.943 106.905 249.828 107.009 249.692C107.114 249.555 107.19 249.399 107.233 249.232C107.277 249.066 107.287 248.892 107.262 248.722C107.247 248.545 107.206 248.37 107.142 248.204L110.147 247.582C110.147 247.893 110.285 248.221 110.337 248.532C111.724 257.465 111.8 266.552 110.561 275.506L109.387 275.385C103.998 263.965 98.61 252.59 93.2216 241.262Z" fill="#E94D4F"/>
<path d="M109.387 275.298L110.562 275.419C110.32 277.698 110.061 279.978 109.784 282.24L108.714 284.088C102.254 285.158 95.7608 285.993 89.2325 286.592H84.5522C84.416 272.099 85.7819 257.631 88.6281 243.42L93.222 241.244C98.6104 252.607 103.999 263.958 109.387 275.298Z" fill="#E94D4F"/>
<path d="M110.078 247.496L107.073 248.117C106.878 247.631 106.61 247.176 106.279 246.77C100.998 239.538 97.0231 231.438 94.5347 222.836L93.7402 222.456C95.2082 219.33 96.728 216.222 98.2651 213.131L100.251 214.115C102.134 225.513 107.816 236.098 110.078 247.496Z" fill="#E94D4F"/>
<path d="M75.7435 316.191C75.0872 318.004 74.69 319.921 73.8955 321.683C73.4875 322.804 72.7957 323.801 71.8877 324.576C70.9797 325.351 69.8864 325.877 68.7144 326.103L68.4381 326C68.5589 325.706 68.6798 325.395 68.7835 325.085L65.0703 323.53C68.4827 314.983 69.3055 305.62 67.4364 296.608L65.3294 296.211C65.433 295.624 65.5366 295.054 65.6575 294.484C66.1756 291.894 66.7801 289.304 67.4709 286.783L68.3517 287.007C68.7835 287.715 69.198 288.406 69.5779 289.096C71.6527 293.338 72.6662 298.019 72.5312 302.739C72.2975 308.248 71.5165 313.72 70.1996 319.075C74.7245 313.894 76.3307 306.538 73.2911 297.316L76.4688 296.747C74.8127 288.324 74.6141 279.679 75.8816 271.189L73.0493 270.118C74.2237 266.958 75.4844 263.832 76.7624 260.707C79.3991 254.329 82.0875 248.037 84.8277 241.832L88.6272 243.559C85.781 257.77 84.4151 272.238 84.5514 286.731H89.2317C95.7599 286.132 102.254 285.297 108.713 284.227L109.576 286.143C104.613 290.414 99.8746 294.939 95.38 299.699L94.0156 301.202C92.6992 302.743 91.2548 304.17 89.698 305.467C87.6482 307.199 85.1164 308.26 82.4444 308.506C82.2155 310.249 81.5202 311.897 80.4319 313.277C79.3436 314.657 77.9028 315.718 76.2616 316.347L75.7435 316.191Z" fill="#E94D4F"/>
<path d="M107.264 248.636C107.288 248.806 107.278 248.979 107.234 249.146C107.191 249.312 107.115 249.468 107.01 249.605C106.906 249.742 106.775 249.856 106.626 249.942C106.476 250.027 106.312 250.082 106.141 250.104C105.888 250.071 105.645 249.983 105.43 249.846C105.215 249.709 105.033 249.525 104.897 249.309C99.5091 243.248 94.9496 236.461 94.5352 222.75C97.0354 231.387 101.034 239.517 106.348 246.771C106.68 247.177 106.947 247.631 107.143 248.118C107.207 248.284 107.248 248.458 107.264 248.636Z" fill="#E94D4F"/>
<path d="M76.5038 296.729L73.326 297.299C72.3674 294.441 71.1234 291.687 69.6129 289.079C69.248 288.358 68.8384 287.66 68.3867 286.989L67.5059 286.765C69.0624 281.1 70.9128 275.521 73.0497 270.049L75.882 271.119C74.6199 279.629 74.8302 288.291 76.5038 296.729Z" fill="#E94D4F"/>
<path d="M73.3264 297.299C76.366 306.521 74.7599 313.929 70.235 319.058C71.5519 313.703 72.3329 308.231 72.5665 302.721C72.7016 298.002 71.6881 293.32 69.6133 289.079C71.1238 291.688 72.3678 294.441 73.3264 297.299Z" fill="#E94D4F"/>
<path d="M55.6415 219.02C55.83 219.749 55.7754 220.519 55.4861 221.213C55.1575 221.959 54.5967 222.579 53.8871 222.981C53.1775 223.382 52.3572 223.544 51.5484 223.441C50.7416 223.309 50.001 222.914 49.4414 222.318L51.1685 221.852C50.9142 221.594 50.7227 221.28 50.6089 220.936C50.4951 220.591 50.462 220.225 50.5122 219.866C50.568 219.505 50.7214 219.167 50.9557 218.887C51.1901 218.607 51.4966 218.396 51.842 218.278C52.1905 218.165 52.5657 218.167 52.9134 218.281C53.2611 218.396 53.5633 218.619 53.7763 218.917L55.6415 219.02Z" fill="#E94D4F"/>
<path d="M154.342 124.283C154.48 124.646 154.618 125.008 154.722 125.371C155.43 128 155.972 130.67 156.345 133.367C156.713 136.452 157.906 139.381 159.799 141.846C162.415 144.37 165.778 145.982 169.384 146.439C177.191 147.924 185.204 147.302 193.114 146.681C195.817 146.638 198.484 146.051 200.955 144.954C203.577 143.465 205.548 141.051 206.481 138.185C207.095 136.457 207.439 134.646 207.5 132.814" stroke="#1D1D1B" stroke-linecap="round" stroke-linejoin="round"/>
<path d="M159.057 147.924C157.824 149.417 156.991 151.2 156.639 153.104C156.389 154.349 156.285 155.618 156.328 156.886C156.564 160.049 157.238 163.165 158.331 166.142C159.057 168.353 159.799 170.529 160.594 172.704C164.543 183.484 169.264 193.964 174.721 204.064C180.443 214.624 186.721 224.873 193.528 234.768C199.901 244.111 206.654 253.194 213.562 262.087" stroke="#1D1D1B" stroke-linecap="round" stroke-linejoin="round"/>
<path d="M216.291 140.033C216.93 141.311 217.569 142.606 218.174 143.884C220.436 148.668 222.491 153.555 224.287 158.528C228.644 170.327 231.357 182.669 232.353 195.207C232.543 197.383 232.646 199.558 232.681 201.752C232.875 210.944 231.9 220.124 229.779 229.071C227.038 241.05 221.891 252.348 214.65 262.278" stroke="#1D1D1B" stroke-linecap="round" stroke-linejoin="round"/>
<path d="M159.73 154.296L163.392 156.99L173.357 164.347C177.22 167.555 181.608 170.073 186.327 171.789C190.869 173.171 195.86 173.067 200.143 175.105C206.766 168.752 211.954 161.056 215.359 152.535C215.946 151.084 216.481 149.599 216.948 148.097" stroke="#1D1D1B" stroke-linecap="round" stroke-linejoin="round"/>
<path d="M217.396 125.458C216.625 130.27 216.049 135.117 215.669 139.998C215.347 144.166 215.186 148.333 215.186 152.501" stroke="#1D1D1B" stroke-linecap="round" stroke-linejoin="round"/>
<path d="M175.066 203.84C176.922 197.962 179.497 192.336 182.735 187.09L183.391 186.157C185.988 182.49 189.502 179.566 193.58 177.678C195.673 176.728 197.897 176.099 200.178 175.813L200.799 175.727C202.618 174.965 204.589 174.639 206.556 174.774C208.523 174.909 210.431 175.501 212.129 176.504C213.851 177.459 215.452 178.618 216.896 179.958C218.364 181.27 219.745 182.686 221.109 184.119L231.938 195.379" stroke="#1D1D1B" stroke-linecap="round" stroke-linejoin="round"/>
<path d="M183.098 187.314C184.785 188.806 186.795 189.888 188.97 190.475" stroke="#1D1D1B" stroke-linecap="round" stroke-linejoin="round"/>
<path d="M193.718 177.938C193.407 180.683 191.698 183.032 190.54 185.536C189.802 187.056 189.446 188.734 189.504 190.423C189.561 191.499 189.974 192.526 190.679 193.341C192.406 195.379 195.86 195.483 197.587 197.589C198.139 198.263 198.537 199.161 199.314 199.454C199.591 199.532 199.883 199.532 200.16 199.454C200.655 199.335 201.108 199.084 201.473 198.729C201.994 198.14 202.484 197.523 202.941 196.881C204.027 195.607 205.572 194.812 207.241 194.671C208.202 194.563 209.175 194.694 210.073 195.051" stroke="#1D1D1B" stroke-linecap="round" stroke-linejoin="round"/>
<path d="M212.768 196.933C212.768 196.933 212.768 196.846 212.768 196.795C214.428 193.775 215.556 190.492 216.101 187.09C216.23 186.411 216.23 185.713 216.101 185.035C215.918 184.346 215.601 183.701 215.168 183.135L216.049 181.08" stroke="#1D1D1B" stroke-linecap="round" stroke-linejoin="round"/>
<path d="M207.242 176.211L213.46 181.53" stroke="#1D1D1B" stroke-linecap="round" stroke-linejoin="round"/>
<path d="M207.345 197.312C208.326 205.017 206.432 212.813 202.025 219.209" stroke="#1D1D1B" stroke-linecap="round" stroke-linejoin="round"/>
<path d="M200.178 199.92C199.644 206.096 198.791 212.241 197.622 218.328C196.585 223.797 195.279 229.213 193.701 234.578" stroke="#1D1D1B" stroke-linecap="round" stroke-linejoin="round"/>
<path d="M213.234 196.933C219.937 207.003 225.487 217.794 229.779 229.104C229.866 229.311 229.952 229.501 230.021 229.709" stroke="#1D1D1B" stroke-linecap="round" stroke-linejoin="round"/>
<path d="M213.7 266.336C212.267 277.492 214.702 288.785 217.155 299.699C222.336 322.995 227.517 346.325 235.824 368.774" stroke="#1D1D1B" stroke-linecap="round" stroke-linejoin="round"/>
<path d="M108.748 189.162C117.649 187.399 126.22 184.259 134.153 179.854" stroke="#1D1D1B" stroke-linecap="round" stroke-linejoin="round"/>
<path d="M156.053 152.933C151.528 156.234 147.533 160.205 144.205 164.71C140.751 169.442 138.023 174.691 134.966 179.699L134.672 180.183C131.861 185.144 128.147 189.537 123.723 193.134C127.81 196.799 132.874 199.199 138.299 200.042" stroke="#1D1D1B" stroke-linecap="round" stroke-linejoin="round"/>
<path d="M160.905 184.379C157.462 184.81 154.251 186.342 151.752 188.748C149.161 191.01 146.985 193.704 144.481 196.07C142.582 197.846 140.53 199.453 138.35 200.871C133.492 203.924 128.398 206.586 123.117 208.831C129.127 225.375 141.078 238.948 152.477 252.435C173.988 278.034 194.108 304.77 212.751 332.527" stroke="#1D1D1B" stroke-linecap="round" stroke-linejoin="round"/>
<path d="M157.244 167.576C157.918 169.424 158.591 171.254 159.282 173.102L163.116 183.55L206.292 301.15C209.902 311.01 213.529 320.87 217.38 330.645C222.596 344.189 228.528 357.447 235.151 370.363C237.863 375.543 240.73 380.724 243.786 385.715C256.48 419.958 260.729 440.974 263.319 477.463" stroke="#1D1D1B" stroke-linecap="round" stroke-linejoin="round"/>
<path d="M224.461 156.334C224.703 156.956 224.927 157.577 225.152 158.199C228.191 166.35 230.914 174.599 233.321 182.945C250.771 243.565 251.844 307.726 236.429 368.895C236.429 369.223 236.274 369.551 236.188 369.879" stroke="#1D1D1B" stroke-linecap="round" stroke-linejoin="round"/>
<path d="M237.068 182.203C238.063 181.34 239.28 180.774 240.581 180.57C241.882 180.365 243.214 180.53 244.426 181.046C246.824 182.121 249.052 183.54 251.04 185.259C253.69 187.241 256.517 188.975 259.485 190.44C265.569 193.429 272.115 195.368 278.846 196.173C278.22 246.08 267.97 295.397 248.657 341.42" stroke="#1D1D1B" stroke-linecap="round" stroke-linejoin="round"/>
<path d="M218.883 143.572C223.98 145.122 228.599 147.945 232.302 151.775C236.119 155.453 239.417 159.632 243.061 163.483C244.754 165.268 246.521 166.994 248.364 168.664C254.826 174.386 262.094 179.127 269.934 182.738L259.572 190.388" stroke="#1D1D1B" stroke-linecap="round" stroke-linejoin="round"/>
<path d="M94.8965 301.547C97.4625 314.253 102.288 326.395 109.145 337.397C100.534 383.058 96.2206 429.426 96.2609 475.892V476.358" stroke="#1D1D1B" stroke-linecap="round" stroke-linejoin="round"/>
<path d="M257.844 363.766C260.641 379.346 264.355 394.747 268.966 409.89" stroke="#1D1D1B" stroke-linecap="round" stroke-linejoin="round"/>
<path d="M266.514 400.376C267.654 401.723 268.759 403.104 269.83 404.503C273.282 409.037 276.344 413.855 278.983 418.905" stroke="#1D1D1B" stroke-linecap="round" stroke-linejoin="round"/>
<path d="M278.915 345.91C283.042 359.083 282.715 373.248 277.982 386.215" stroke="#1D1D1B" stroke-linecap="round" stroke-linejoin="round"/>
<path d="M296.979 188.713C304.319 212.164 302.938 237.428 299.57 261.777C298.551 269.237 297.342 276.68 296.116 284.226C293.439 301.08 290.935 317.935 290.727 334.979C290.589 350.866 292.454 367.151 288.033 382.382" stroke="#1D1D1B" stroke-linecap="round" stroke-linejoin="round"/>
<path d="M248.484 168.422C258.377 172.069 268.571 174.837 278.949 176.694C281.704 177.077 284.428 177.654 287.101 178.42C288.882 178.971 290.57 179.786 292.11 180.838C292.868 181.334 293.569 181.914 294.199 182.565" stroke="#1D1D1B" stroke-linecap="round" stroke-linejoin="round"/>
<path d="M310.829 222.06L308.446 213.08C306.823 206.921 305.176 200.773 303.507 194.637C302.884 191.89 301.945 189.224 300.709 186.693C300.519 186.348 300.312 186.003 300.104 185.657C299.29 184.265 298.171 183.076 296.831 182.179C295.491 181.281 293.964 180.699 292.367 180.477" stroke="#1D1D1B" stroke-linecap="round" stroke-linejoin="round"/>
<path d="M308.43 213.062C312.604 216.156 315.424 220.739 316.305 225.859C319.169 226.787 321.615 228.695 323.213 231.246C325.209 234.09 326.402 237.419 326.667 240.882" stroke="#1D1D1B" stroke-linecap="round" stroke-linejoin="round"/>
<path d="M307.428 232.835C313.008 236.287 319.05 238.933 325.372 240.692L326.65 241.055C328.17 241.382 329.562 242.144 330.657 243.248C331.986 244.802 332.211 247.013 333.368 248.688C335.095 251.105 338.186 251.865 340.794 253.229C348.514 257.253 351.467 266.785 357.909 272.639C361.191 275.627 365.664 278.044 367.149 282.5C369.09 284.34 370.638 286.554 371.7 289.008C372.763 291.463 373.318 294.107 373.332 296.781C373.337 302.127 372.557 307.445 371.018 312.565C366.929 328.583 362.041 344.386 356.372 359.915C355.716 361.642 355.042 363.473 354.386 365.234C353.834 366.702 353.264 368.153 352.659 369.62C351.934 371.485 351.191 373.333 350.448 375.181C349.706 377.029 349.101 378.479 348.428 380.12C347.754 381.76 346.977 383.574 346.234 385.3C345.008 388.167 343.73 391.034 342.435 393.935L342.314 394.09C341.018 395.716 339.178 396.82 337.133 397.198C334.617 397.264 332.147 396.519 330.087 395.074" stroke="#1D1D1B" stroke-linecap="round" stroke-linejoin="round"/>
<path d="M346.787 385.473C347.34 385.378 347.86 385.145 348.298 384.795C348.735 384.444 349.077 383.989 349.291 383.47C349.482 382.941 349.541 382.374 349.463 381.817C349.385 381.26 349.172 380.731 348.842 380.275" stroke="#1D1D1B" stroke-linecap="round" stroke-linejoin="round"/>
<path d="M351.156 375.457C351.753 375.33 352.305 375.047 352.757 374.638C353.209 374.229 353.545 373.707 353.73 373.126C353.928 372.536 353.964 371.904 353.833 371.297C353.703 370.689 353.41 370.127 352.987 369.672" stroke="#1D1D1B" stroke-linecap="round" stroke-linejoin="round"/>
<path d="M354.922 365.441C355.471 365.291 355.974 365.007 356.387 364.615C356.799 364.224 357.109 363.736 357.288 363.196C357.447 362.653 357.471 362.079 357.356 361.525C357.242 360.971 356.993 360.454 356.632 360.019" stroke="#1D1D1B" stroke-linecap="round" stroke-linejoin="round"/>
<path d="M299.828 365.613C301.106 365.613 302.401 365.734 303.731 365.89C311.735 366.658 319.435 369.341 326.183 373.712C327.924 374.921 329.575 376.254 331.122 377.701C331.83 378.34 332.504 379.014 333.16 379.705C334.473 381.069 335.696 382.517 336.821 384.039C339.097 387.107 340.977 390.449 342.417 393.986" stroke="#1D1D1B" stroke-linecap="round" stroke-linejoin="round"/>
<path d="M301.573 368.497C300.981 368.313 300.478 367.917 300.159 367.385C299.84 366.853 299.729 366.222 299.846 365.613C300.135 364.386 300.729 363.252 301.573 362.315C308.225 353.08 313.334 342.828 316.702 331.957C316.108 330.126 316.056 328.162 316.552 326.302C317.049 324.443 318.072 322.766 319.5 321.475" stroke="#1D1D1B" stroke-linecap="round" stroke-linejoin="round"/>
<path d="M295.926 283.812C295.995 283.925 296.07 284.034 296.15 284.14C299.897 289.782 305.34 294.088 311.694 296.435C314.613 297.533 317.682 298.185 320.795 298.369" stroke="#1D1D1B" stroke-linecap="round" stroke-linejoin="round"/>
<path d="M311.365 297.092C314.481 302.059 319.372 305.653 325.043 307.142" stroke="#1D1D1B" stroke-linecap="round" stroke-linejoin="round"/>
<path d="M319.482 305.83C318.425 306.817 317.582 308.011 317.006 309.337C316.43 310.664 316.133 312.095 316.133 313.541C316.133 314.987 316.43 316.417 317.006 317.744C317.582 319.07 318.425 320.264 319.482 321.251" stroke="#1D1D1B" stroke-linecap="round" stroke-linejoin="round"/>
<path d="M322.885 320.146C326.515 323.826 331.007 326.544 335.952 328.051C340.898 329.559 346.142 329.809 351.208 328.78" stroke="#1D1D1B" stroke-linecap="round" stroke-linejoin="round"/>
<path d="M322.66 307.453C323.844 309.375 325.443 311.008 327.341 312.23C329.239 313.453 331.387 314.234 333.627 314.516C338.132 315.038 342.692 314.24 346.752 312.219C350.778 310.19 354.528 307.654 357.909 304.673" stroke="#1D1D1B" stroke-linecap="round" stroke-linejoin="round"/>
<path d="M330.553 307.452C336.321 308.834 342.383 307.815 348.117 306.313C353.851 304.81 359.515 302.859 365.387 302.237" stroke="#1D1D1B" stroke-linecap="round" stroke-linejoin="round"/>
<path d="M301.936 285.712C310.637 290.292 320.03 293.419 329.741 294.968C339.448 296.516 349.273 297.204 359.101 297.023" stroke="#1D1D1B" stroke-linecap="round" stroke-linejoin="round"/>
<path d="M307.496 281.187C323.437 286.109 339.654 291.082 356.337 291.168C357.218 291.168 358.392 290.875 358.392 289.994C358.392 289.113 357.736 288.975 357.166 288.734C355.192 287.986 353.159 287.408 351.087 287.007C336.942 283.76 322.608 280.514 307.496 281.187Z" stroke="#1D1D1B" stroke-linecap="round" stroke-linejoin="round"/>
<path d="M303.629 269.357C322.71 269.448 341.509 273.965 358.549 282.551" stroke="#1D1D1B" stroke-linecap="round" stroke-linejoin="round"/>
<path d="M300.676 256.285L329.846 261.362" stroke="#1D1D1B" stroke-linecap="round" stroke-linejoin="round"/>
<path d="M301.781 244.836C311.172 249.036 321.027 252.109 331.141 253.988" stroke="#1D1D1B" stroke-linecap="round" stroke-linejoin="round"/>
<path d="M303.698 366.166L302.178 368.808C300.579 371.53 299.154 374.35 297.912 377.252L299.259 377.408C307.985 378.585 316.209 382.173 323.006 387.769C325.436 389.689 327.462 392.072 328.964 394.78C329.175 395.156 329.365 395.542 329.534 395.937L330.122 394.918C332.194 391.465 334.232 387.838 336.304 384.298" stroke="#1D1D1B" stroke-linecap="round" stroke-linejoin="round"/>
<path d="M56.4363 167.576C35.2585 203.7 19.3418 242.659 9.16699 283.277C7.90624 288.233 6.76639 293.223 5.71289 298.214" stroke="#1D1D1B" stroke-linecap="round" stroke-linejoin="round"/>
<path d="M9.53012 283.018L9.16744 283.225C6.11112 285.261 3.91523 288.354 3.00188 291.911C2.06268 295.569 1.55265 299.325 1.48208 303.101C0.984832 307.412 0.915411 311.762 1.27483 316.087C2.17293 321.874 4.7726 327.263 8.743 331.568C12.7134 335.874 17.875 338.9 23.571 340.263C29.2105 341.213 34.9663 341.248 40.617 340.367C46.2824 340.041 51.8634 338.841 57.1621 336.81C62.1746 334.8 66.2239 330.943 68.4742 326.034C68.5951 325.74 68.716 325.43 68.8197 325.119" stroke="#1D1D1B" stroke-linecap="round" stroke-linejoin="round"/>
<path d="M68.75 326.104C69.922 325.877 71.0153 325.351 71.9233 324.576C72.8314 323.801 73.5231 322.805 73.9311 321.683C74.7256 319.956 75.1228 318.005 75.7791 316.191C75.9345 315.777 76.0899 315.38 76.2627 314.983C76.9362 313.48 77.8861 312.099 78.4905 310.544C78.8462 309.794 79.0408 308.978 79.0616 308.148C79.0824 307.318 78.9291 306.494 78.6114 305.727" stroke="#1D1D1B" stroke-linecap="round" stroke-linejoin="round"/>
<path d="M76.1934 316.346C77.8475 315.727 79.3026 314.671 80.4036 313.29C81.5047 311.91 82.2103 310.256 82.4453 308.506C85.1572 308.234 87.7168 307.123 89.768 305.329C91.3248 304.031 92.7691 302.604 94.0856 301.063L95.4499 299.561C99.9445 294.8 104.683 290.275 109.646 286.005C110.547 289.885 111.928 293.638 113.757 297.178" stroke="#1D1D1B" stroke-linecap="round" stroke-linejoin="round"/>
<path d="M89.2324 286.592C95.7607 285.993 102.254 285.159 108.714 284.088" stroke="#1D1D1B" stroke-linecap="round" stroke-linejoin="round"/>
<path d="M106.365 186.365C107.237 187.144 107.841 188.177 108.092 189.318C108.283 190.299 108.283 191.307 108.092 192.288C107.645 194.391 106.851 196.404 105.744 198.246C103.188 203.15 100.689 208.083 98.2482 213.045C96.7112 216.136 95.1913 219.245 93.7234 222.371C90.6492 228.794 87.6787 235.259 84.8118 241.763C82.037 248.015 79.3486 254.306 76.7465 260.638C75.4685 263.764 74.2077 266.889 73.0333 270.049C70.9035 275.511 69.0588 281.078 67.5068 286.731C66.816 289.269 66.2115 291.912 65.6934 294.433C65.5725 295.02 65.4689 295.59 65.3652 296.16C64.4857 302.221 63.2691 308.228 61.7212 314.154C59.7869 320.56 56.4019 326.829 50.8926 330.628" stroke="#1D1D1B" stroke-linecap="round" stroke-linejoin="round"/>
<path d="M64.3809 325.274C64.6399 324.704 64.8817 324.117 65.1062 323.547C68.5186 314.999 69.3414 305.637 67.4723 296.625" stroke="#1D1D1B" stroke-linecap="round" stroke-linejoin="round"/>
<path d="M69.6129 289.079C69.248 288.357 68.8385 287.66 68.3867 286.989C68.8185 287.697 69.233 288.457 69.6129 289.079ZM69.6129 289.079C71.6878 293.32 72.7012 298.002 72.5662 302.721C72.3325 308.23 71.5515 313.703 70.2347 319.057C74.7595 313.877 76.3657 306.52 73.3261 297.299C72.3674 294.441 71.1234 291.687 69.6129 289.079Z" stroke="#1D1D1B" stroke-linecap="round" stroke-linejoin="round"/>
<path d="M75.8824 271.188C74.6203 279.698 74.8306 288.36 76.5041 296.798" stroke="#1D1D1B" stroke-linecap="round" stroke-linejoin="round"/>
<path d="M88.6281 243.438C85.7819 257.649 84.416 272.117 84.5522 286.609C84.5522 289.027 84.5522 291.445 84.7249 293.862" stroke="#1D1D1B" stroke-linecap="round" stroke-linejoin="round"/>
<path d="M92.9121 240.623L93.223 241.262C98.6114 252.613 104 263.959 109.388 275.299" stroke="#1D1D1B" stroke-linecap="round" stroke-linejoin="round"/>
<path d="M94.0332 265.662C98.0002 270.668 102.526 275.204 107.521 279.184" stroke="#1D1D1B" stroke-linecap="round" stroke-linejoin="round"/>
<path d="M100.252 214.029C102.134 225.513 107.816 236.099 110.148 247.496C110.148 247.807 110.286 248.135 110.338 248.446C111.725 257.378 111.801 266.465 110.562 275.42C110.321 277.699 110.062 279.979 109.785 282.241" stroke="#1D1D1B" stroke-linecap="round" stroke-linejoin="round"/>
<path d="M94.5352 222.836C97.0354 231.473 101.034 239.603 106.348 246.857C106.68 247.263 106.947 247.717 107.143 248.204C107.207 248.37 107.248 248.544 107.264 248.722C107.288 248.892 107.278 249.065 107.234 249.232C107.191 249.398 107.115 249.554 107.01 249.691C106.906 249.828 106.775 249.942 106.626 250.028C106.476 250.113 106.312 250.168 106.141 250.19C105.888 250.157 105.645 250.069 105.43 249.932C105.215 249.795 105.033 249.611 104.897 249.395C99.5091 243.248 94.9496 236.461 94.5352 222.836Z" stroke="#1D1D1B" stroke-linecap="round" stroke-linejoin="round"/>
<path d="M57.041 167.576L57.9736 168.526C63.552 174 70.5983 177.782 77.5065 181.477C81.7133 183.862 86.0954 185.923 90.6148 187.642C93.5481 188.699 96.6087 189.361 99.7164 189.611C101.267 189.758 102.828 189.758 104.379 189.611H104.863" stroke="#1D1D1B" stroke-linecap="round" stroke-linejoin="round"/>
<path d="M58.0586 168.405C60.4937 161.687 62.9289 154.97 65.4504 148.114C66.8665 148.425 68.2827 148.77 69.6816 149.15C76.9275 151.277 83.9403 154.129 90.6134 157.664C94.3439 159.563 98.1434 161.687 100.492 165.124C102.237 167.8 103.167 170.926 103.169 174.121C103.215 175.182 103.175 176.244 103.048 177.298C103.048 177.506 103.048 177.713 102.962 177.92C102.3 181.894 101.211 185.784 99.715 189.525" stroke="#1D1D1B" stroke-linecap="round" stroke-linejoin="round"/>
<path d="M106.968 164.123C107.829 164.572 108.564 165.229 109.107 166.034C109.65 166.84 109.983 167.767 110.077 168.734C110.094 169.004 110.094 169.275 110.077 169.545C110.026 171.748 109.582 173.924 108.764 175.969L105.31 186.072L104.205 189.353" stroke="#1D1D1B" stroke-linecap="round" stroke-linejoin="round"/>
<path d="M103.637 178.024C104.174 176.19 105.208 174.541 106.625 173.258C108.07 171.998 109.245 170.459 110.079 168.733" stroke="#1D1D1B" stroke-linecap="round" stroke-linejoin="round"/>
<path d="M69.8893 148.408C71.6163 145.058 73.2397 141.691 75.0704 138.341C74.8948 136.86 74.5885 135.398 74.1551 133.972C73.3088 130.915 72.6353 127.824 71.979 124.733C70.3786 117.307 68.7782 109.888 67.1778 102.474C66.4301 100.026 66.3231 97.4279 66.8669 94.9272C67.7454 92.7984 69.0569 90.8754 70.7183 89.2804C74.0706 85.4533 77.022 81.2928 79.5262 76.8642C80.7195 74.4281 82.1482 72.1146 83.792 69.9567C85.668 67.673 88.3404 66.1857 91.2701 65.7949L93.1699 66.3648C97.9164 67.8183 102.537 69.6548 106.986 71.8563C108.669 72.6609 110.057 73.971 110.958 75.6035L111.39 76.2598C112.14 77.6638 113.108 78.9402 114.257 80.0416C115.259 80.905 116.571 81.6304 116.848 82.9255C116.89 83.6502 116.693 84.3687 116.288 84.9707C115.882 85.5728 115.29 86.0252 114.603 86.2584C114.263 86.4069 113.91 86.5226 113.549 86.6037C111.424 87.0236 109.218 86.6159 107.383 85.464L106.814 85.0841C104.983 83.6906 103.42 81.9762 102.202 80.0243C101.961 79.6962 101.753 79.3682 101.529 79.04C99.4943 79.6206 97.3501 79.7035 95.2769 79.2818C93.3392 78.9286 91.5079 78.1371 89.923 76.9678" stroke="#1D1D1B" stroke-linecap="round" stroke-linejoin="round"/>
<path d="M95.2078 79.6611C93.4492 82.2851 91.1461 84.4997 88.4551 86.1542" stroke="#1D1D1B" stroke-linecap="round" stroke-linejoin="round"/>
<path d="M80.8398 86.2233C83.3574 85.9834 85.8957 86.0821 88.387 86.5168C90.7592 86.9164 93.0773 87.5886 95.2952 88.52C96.2158 88.9226 97.115 89.3722 97.9894 89.867C98.5594 90.1778 99.112 90.5232 99.7165 90.8685C101.236 90.965 102.729 91.3092 104.138 91.8874C107.18 93.1567 109.751 95.3416 111.495 98.1387C111.544 100.777 111.099 103.401 110.182 105.875" stroke="#1D1D1B" stroke-linecap="round" stroke-linejoin="round"/>
<path d="M94.9141 108.396C99.8671 107.155 104.98 106.672 110.078 106.963C111.2 106.963 112.305 107.119 113.411 107.239C114.015 107.239 114.637 107.395 115.241 107.498" stroke="#1D1D1B" stroke-linecap="round" stroke-linejoin="round"/>
<path d="M101.339 80.6973C101.117 82.2784 100.558 83.7935 99.6999 85.1401C98.8419 86.4867 97.7047 87.6334 96.3652 88.5027" stroke="#1D1D1B" stroke-linecap="round" stroke-linejoin="round"/>
<path d="M107.367 85.9814C106.738 87.6463 105.833 89.1933 104.69 90.5576L104.189 91.1275" stroke="#1D1D1B" stroke-linecap="round" stroke-linejoin="round"/>
<path d="M114.136 87.0693C114.136 87.4492 113.998 87.8292 113.912 88.2091C113.291 90.8681 112.048 93.3418 110.285 95.4274" stroke="#1D1D1B" stroke-linecap="round" stroke-linejoin="round"/>
<path d="M95.5181 93.5449C95.894 95.4297 95.8458 97.3745 95.3768 99.2383C94.9078 101.102 94.0299 102.838 92.8066 104.321" stroke="#1D1D1B" stroke-linecap="round" stroke-linejoin="round"/>
<path d="M78.4551 93.6484C82.6962 96.7437 86.4258 100.485 89.5082 104.735C90.5962 106.116 91.6497 107.532 92.6859 108.931L93.2213 109.657L100.13 118.913C102.373 121.75 104.355 124.785 106.053 127.979C107.449 130.824 108.388 133.872 108.834 137.01" stroke="#1D1D1B" stroke-linecap="round" stroke-linejoin="round"/>
<path d="M107.246 148.373L105.277 155.194" stroke="#1D1D1B" stroke-linecap="round" stroke-linejoin="round"/>
<path d="M78.8359 136.216C79.3124 138.49 79.5955 140.801 79.6822 143.123" stroke="#1D1D1B" stroke-linecap="round" stroke-linejoin="round"/>
<path d="M127.14 83.1152C124.597 87.354 123.314 92.2303 123.444 97.172C119.929 100.092 116.617 103.248 113.531 106.618" stroke="#1D1D1B" stroke-linecap="round" stroke-linejoin="round"/>
<path d="M93.2051 66.3822C93.4009 66.0039 93.6952 65.6855 94.0569 65.4606C94.4186 65.2357 94.8344 65.1126 95.2603 65.1043C96.1064 65.093 96.9498 65.2036 97.7645 65.4324L98.8525 65.6051C101.85 65.8617 104.861 65.9366 107.868 65.8296C111.257 65.6583 114.622 66.4742 117.556 68.1781C118.989 69.2568 120.334 70.4462 121.58 71.7355C123.979 73.8769 126.701 75.6254 129.646 76.9161L130.095 77.1233C130.163 77.6044 130.163 78.0927 130.095 78.5739C129.992 79.9396 129.382 81.2175 128.385 82.1568C127.388 83.0961 126.076 83.6289 124.706 83.6509C123.319 83.5875 121.965 83.2033 120.751 82.5284C117.959 81.3589 115.484 79.5417 113.532 77.2269C112.997 77.2269 112.272 76.1562 111.805 76.139" stroke="#1D1D1B" stroke-linecap="round" stroke-linejoin="round"/>
<path d="M134.705 76.052C135.448 75.9484 136.069 75.793 136.812 75.6203L137.658 75.4476V75.3613C137.515 72.6415 138.41 69.9687 140.163 67.8839C142.203 64.9481 144.922 62.5488 148.09 60.8901C150.035 59.837 152.189 59.2298 154.398 59.1127C156.606 58.9956 158.813 59.3714 160.859 60.2129C162.904 61.0544 164.736 62.3405 166.223 63.978C167.709 65.6154 168.813 67.5631 169.453 69.6798L169.661 70.2843C170.962 74.3881 170.728 78.8247 169.004 82.7695C168.139 84.7336 166.893 86.5073 165.34 87.9891C163.787 89.4708 161.957 90.6313 159.955 91.4039C157.951 92.146 155.812 92.4543 153.681 92.3084C151.549 92.1626 149.473 91.5658 147.589 90.5577C144.891 89.0117 142.664 86.7613 141.147 84.0474C139.538 81.374 138.372 78.4583 137.693 75.4131" stroke="#1D1D1B" stroke-linecap="round" stroke-linejoin="round"/>
<path d="M169.645 69.6448C170.489 68.6508 171.552 67.8655 172.751 67.3503C173.949 66.8351 175.25 66.6038 176.553 66.6746C179.142 66.8129 181.68 67.4459 184.031 68.5396" stroke="#1D1D1B" stroke-linecap="round" stroke-linejoin="round"/>
<path d="M216.895 70.0082C216.895 69.6629 216.895 69.3175 216.757 68.9894C216.335 66.8269 215.393 64.7997 214.011 63.0835C211.831 60.5943 209.012 58.7479 205.858 57.7436C202.705 56.7393 199.337 56.6153 196.119 57.3848C195.617 57.4831 195.121 57.61 194.634 57.7647C192.701 58.3258 190.903 59.2732 189.347 60.5495C187.792 61.8259 186.511 63.4047 185.584 65.1902C184.943 66.2752 184.438 67.4353 184.081 68.644C183.832 69.3983 183.647 70.1724 183.529 70.958C183.259 73.2103 183.618 75.4934 184.565 77.5546C185.521 79.9274 186.94 82.0857 188.74 83.9034C190.54 85.721 192.685 87.1614 195.048 88.1404C197.433 89.1017 200.021 89.4474 202.574 89.1456C205.128 88.8438 207.564 87.9042 209.659 86.4135C212.599 83.9686 214.745 80.7046 215.824 77.0366C216.649 74.7893 217.013 72.3991 216.895 70.0082Z" stroke="#1D1D1B" stroke-linecap="round" stroke-linejoin="round"/>
<path d="M217.414 69.9912H221.334H221.939" stroke="#1D1D1B" stroke-linecap="round" stroke-linejoin="round"/>
<path d="M222.543 70.0771C223.954 72.9048 225.618 75.5983 227.517 78.1244" stroke="#1D1D1B" stroke-linecap="round" stroke-linejoin="round"/>
<path d="M150.68 32.4141C147.061 33.7015 143.926 36.0708 141.7 39.2007C139.491 42.3322 137.881 45.845 136.95 49.5619C135.255 55.9489 134.925 62.6216 135.983 69.1446C136.279 70.9928 136.689 72.821 137.209 74.6188L136.553 74.895L136.363 74.9814" stroke="#1D1D1B" stroke-linecap="round" stroke-linejoin="round"/>
<path d="M136.71 75.2403C136.625 75.138 136.55 75.0281 136.485 74.9122C136.295 74.562 136.195 74.1707 136.191 73.7725" stroke="#1D1D1B" stroke-linecap="round" stroke-linejoin="round"/>
<path d="M138.851 15.3867C134.865 17.4452 131.243 20.14 128.126 23.3649C122.11 29.4695 118.071 37.2441 116.537 45.676C117.781 42.6921 119.654 40.0119 122.029 37.8188C121.266 39.8815 120.688 42.0083 120.302 44.1737C119.452 49.0583 119.564 54.0619 120.63 58.9039C120.65 54.8142 121.695 50.7947 123.67 47.2129C122.912 50.54 122.977 54.0017 123.86 57.2979C124.755 60.5792 125.91 63.784 127.314 66.882" stroke="#1D1D1B" stroke-linecap="round" stroke-linejoin="round"/>
<path d="M127.625 22.8648C128.945 19.4437 131.052 16.3818 133.777 13.9275C136.502 11.4732 139.766 9.69563 143.307 8.73896C146.775 7.76326 150.387 7.40094 153.98 7.66831C157.691 7.94162 161.346 8.72613 164.843 9.9996" stroke="#1D1D1B" stroke-linecap="round" stroke-linejoin="round"/>
<path d="M154.031 6.97735C157.422 5.72954 161.044 5.23756 164.645 5.53585C168.246 5.83413 171.738 6.91548 174.877 8.70422" stroke="#1D1D1B" stroke-linecap="round" stroke-linejoin="round"/>
<path d="M165.844 5.25033C170.498 2.21823 175.995 0.742762 181.543 1.03676C182.515 1.06889 183.484 1.16117 184.444 1.31306C188.177 1.85447 191.791 3.02213 195.134 4.76681C195.825 5.11218 196.516 5.49208 197.19 5.88926C199.225 7.00735 201.035 8.49481 202.526 10.2755C204.393 12.6494 205.319 15.6278 205.128 18.6415C204.937 21.6552 203.642 24.4927 201.49 26.6117" stroke="#1D1D1B" stroke-linecap="round" stroke-linejoin="round"/>
<path d="M204.6 21.8974C207.147 20.2182 210.204 19.4906 213.235 19.8424C217.077 20.043 220.735 21.5546 223.597 24.125C225 25.413 226.088 27.0064 226.777 28.7821C227.466 30.5578 227.737 32.4682 227.569 34.3654" stroke="#1D1D1B" stroke-linecap="round" stroke-linejoin="round"/>
<path d="M219.469 24.6084C222.367 26.911 224.79 29.7557 226.601 32.9837L227.482 34.3652C229.519 37.3728 231.293 40.5505 232.784 43.863C234.59 47.803 235.242 52.1737 234.667 56.4692C233.826 54.4671 232.43 52.7474 230.643 51.5131C232.78 55.6822 233.661 60.3825 233.176 65.0424C232.692 69.7024 230.864 74.1212 227.914 77.7615" stroke="#1D1D1B" stroke-linecap="round" stroke-linejoin="round"/>
<path d="M200.92 27.4414H201.196C202.525 27.8534 203.797 28.4338 204.978 29.1683C207.752 30.9629 210.079 33.3667 211.783 36.1967C214.148 40.3532 215.894 44.8327 216.964 49.4935C218.769 56.1927 220.216 62.9831 221.299 69.8361C221.316 69.939 221.316 70.0439 221.299 70.1469C222.266 76.0701 223.026 82.0105 223.441 87.951C224.974 84.9988 226.279 81.9332 227.344 78.7812C227.43 78.5568 227.516 78.315 227.586 78.0733C227.633 77.961 227.674 77.8456 227.706 77.7279" stroke="#1D1D1B" stroke-linecap="round" stroke-linejoin="round"/>
<path d="M134.395 104.891C134.49 106.621 134.992 108.304 135.859 109.804C136.726 111.304 137.934 112.579 139.386 113.525C139.303 115.073 139.754 116.603 140.662 117.86C141.57 119.116 142.881 120.024 144.377 120.432" stroke="#1D1D1B" stroke-linecap="round" stroke-linejoin="round"/>
<path d="M138.695 83.9609C138.725 88.3505 139.305 92.719 140.422 96.9643C139.61 96.0318 138.799 95.0993 138.021 94.1322C137.244 93.1652 136.536 92.3017 135.828 91.3692" stroke="#1D1D1B" stroke-linecap="round" stroke-linejoin="round"/>
<path d="M140.336 96.6533V96.8951C140.75 99.0537 141.182 101.195 141.597 103.354C142.702 108.983 143.825 114.613 144.93 120.242C144.93 120.553 145.051 120.864 145.12 121.175C145.755 125.432 146.976 129.581 148.747 133.505C150.133 136.305 152.237 138.688 154.843 140.412C155.841 141.039 156.922 141.522 158.055 141.846" stroke="#1D1D1B" stroke-linecap="round" stroke-linejoin="round"/>
<path d="M154.773 140.637C156.461 142.903 157.985 145.286 159.333 147.769C160.96 150.694 162.341 153.749 163.46 156.904" stroke="#1D1D1B" stroke-linecap="round" stroke-linejoin="round"/>
<path d="M227.881 79.0401C228.68 78.0761 229.603 77.2225 230.627 76.5016C231.145 76.1517 231.729 75.9101 232.344 75.7914C232.958 75.6727 233.59 75.6793 234.202 75.8108C236.429 76.4325 237.397 79.0056 237.932 81.2505C238.899 85.2396 239.521 89.6949 237.448 93.235C236.191 94.9516 234.83 96.5895 233.373 98.1393C231.83 100.432 230.664 102.956 229.918 105.617C229.167 108.292 228.058 110.854 226.62 113.232C225.899 114.42 224.933 115.441 223.786 116.228C222.64 117.014 221.339 117.547 219.971 117.791" stroke="#1D1D1B" stroke-linecap="round" stroke-linejoin="round"/>
<path d="M224.339 89.6602L224.235 90.0401C223.341 93.2059 222.712 96.4405 222.353 99.7106C221.627 105.202 221.299 110.78 220.125 116.202C220.021 116.703 219.9 117.221 219.779 117.722C219.133 120.341 218.296 122.909 217.275 125.406C215.341 130.119 212.754 134.537 209.59 138.531" stroke="#1D1D1B" stroke-linecap="round" stroke-linejoin="round"/>
<path d="M98.8867 65.3973C99.1792 64.856 99.5852 64.3844 100.077 64.0148C100.569 63.6452 101.135 63.3863 101.736 63.256C102.939 62.9998 104.176 62.9415 105.398 63.0833C107.919 63.2214 110.423 63.4632 112.928 63.705C115.261 63.8535 117.575 64.2295 119.836 64.8275C121.753 65.38 123.566 66.2608 125.501 66.7961C126.068 66.9612 126.645 67.0938 127.228 67.1933C129.897 67.5925 132.595 67.7658 135.293 67.7113C135.443 68.1977 135.558 68.6939 135.638 69.1964C135.785 70.0826 135.785 70.9869 135.638 71.8731C135.437 73.2845 134.746 74.5803 133.687 75.5341C133.149 75.9927 132.509 76.3152 131.821 76.4745C131.133 76.6338 130.416 76.6252 129.732 76.4493" stroke="#1D1D1B" stroke-linecap="round" stroke-linejoin="round"/>
<path d="M130.803 78.6253C131.461 78.0025 132.28 77.5745 133.167 77.3885C134.054 77.2026 134.975 77.2661 135.828 77.572C136.489 77.9643 137.041 78.516 137.433 79.1767C137.825 79.8374 138.045 80.586 138.074 81.3538C138.419 84.8076 136.502 87.9505 135.69 91.2833C135.529 91.9591 135.42 92.646 135.362 93.3383C135.155 96.2567 136.208 99.3478 134.982 102.128C134.435 102.97 133.967 103.86 133.583 104.787C130.941 111.263 132.063 119.31 128.402 125.51C126.882 128.117 124.62 130.207 122.893 132.694C121.335 135.276 119.939 137.952 118.713 140.706C117.485 143.569 115.348 145.947 112.634 147.476C110.717 152.656 108.714 158.476 106.745 164.105C105.536 167.559 104.327 170.927 103.17 174.121" stroke="#1D1D1B" stroke-linecap="round" stroke-linejoin="round"/>
<path d="M299.207 377.909C297.994 378.727 297.037 379.87 296.444 381.208C296.255 381.012 296.026 380.862 295.772 380.766C295.518 380.67 295.246 380.633 294.976 380.655C294.432 380.715 293.902 380.861 293.404 381.087L289.121 382.693C289.121 382.693 289.207 382.814 289.121 382.831" stroke="#1D1D1B" stroke-linecap="round" stroke-linejoin="round"/>
<path d="M290.728 383.436C290.234 383.155 289.706 382.94 289.156 382.797C288.79 382.654 288.407 382.561 288.017 382.52C286.806 382.286 285.561 382.296 284.354 382.548C283.148 382.8 282.003 383.289 280.987 383.988C277.223 386.647 275.996 391.604 273.423 395.42C272.7 396.368 272.037 397.36 271.437 398.39C270.823 399.43 270.626 400.664 270.884 401.844C271.019 402.31 271.236 402.748 271.523 403.139C272.026 403.813 272.639 404.396 273.337 404.866C274.342 405.677 275.603 406.106 276.894 406.075C277.633 405.966 278.334 405.675 278.932 405.229C279.306 404.969 279.658 404.681 279.986 404.365C282.45 402.075 284.328 399.226 285.461 396.059C285.841 395.003 286.13 393.917 286.324 392.812" stroke="#1D1D1B" stroke-linecap="round" stroke-linejoin="round"/>
<path d="M286.236 396.041C287.267 396.347 288.34 396.487 289.414 396.455H289.69" stroke="#1D1D1B" stroke-linecap="round" stroke-linejoin="round"/>
<path d="M293.697 386.215C294.579 388.199 294.732 390.432 294.129 392.518" stroke="#1D1D1B" stroke-linecap="round" stroke-linejoin="round"/>
<path d="M289.5 396.404C287.428 401.775 285.338 407.163 282.886 412.361C281.832 414.64 280.675 416.902 279.432 419.095C278.741 420.321 278.015 421.548 277.255 422.739C275.912 424.644 274.755 426.674 273.801 428.8C273.375 429.87 273.125 431.001 273.059 432.151C272.963 433.331 273.159 434.517 273.629 435.604C274.067 436.69 274.861 437.596 275.88 438.173C276.9 438.75 278.085 438.964 279.242 438.782C279.938 438.616 280.592 438.304 281.159 437.866C282.103 437.086 282.929 436.173 283.611 435.155C291.563 424.344 297.743 412.336 301.918 399.582" stroke="#1D1D1B" stroke-linecap="round" stroke-linejoin="round"/>
<path d="M281.695 438.108C281.803 439.133 282.124 440.124 282.639 441.016C283.154 441.908 283.85 442.683 284.683 443.289C285.063 443.558 285.475 443.778 285.909 443.945C286.459 444.157 287.056 444.217 287.636 444.118C288.487 443.868 289.255 443.397 289.864 442.754C290.797 441.907 291.695 441.027 292.524 440.094C296.782 435.601 300.125 430.322 302.368 424.552C304.406 419.372 305.563 413.708 308.378 408.838" stroke="#1D1D1B" stroke-linecap="round" stroke-linejoin="round"/>
<path d="M300.226 393.295C300.018 394.918 299.811 396.541 299.621 398.165" stroke="#1D1D1B" stroke-linecap="round" stroke-linejoin="round"/>
<path d="M308.551 399.789C309.021 401.673 308.876 403.658 308.137 405.453" stroke="#1D1D1B" stroke-linecap="round" stroke-linejoin="round"/>
<path d="M316.789 408.285C316.931 409.691 316.699 411.109 316.115 412.395" stroke="#1D1D1B" stroke-linecap="round" stroke-linejoin="round"/>
<path d="M292.902 440.525C293.097 441.41 293.533 442.223 294.163 442.874C294.844 443.584 295.733 444.059 296.702 444.23C297.671 444.401 298.669 444.258 299.551 443.823C300.991 442.956 302.181 441.73 303.006 440.266C309.517 430.717 317.081 421.65 321.157 410.909C323.229 405.383 324.507 399.236 328.704 395.057" stroke="#1D1D1B" stroke-linecap="round" stroke-linejoin="round"/>
<path d="M319.361 397.785C320.05 400.325 320.416 402.942 320.449 405.573" stroke="#1D1D1B" stroke-linecap="round" stroke-linejoin="round"/>
<path d="M192.406 384.696L229.192 384.074" stroke="#1D1D1B" stroke-linecap="round" stroke-linejoin="round"/>
<path d="M229.245 394.625C217.202 406.221 203.281 415.692 188.072 422.635" stroke="#1D1D1B" stroke-linecap="round" stroke-linejoin="round"/>
<path d="M228.243 402.31C224.051 411.875 218.698 420.888 212.303 429.145" stroke="#1D1D1B" stroke-linecap="round" stroke-linejoin="round"/>
<path d="M271.193 418.56C272.486 439.589 274.838 460.539 278.24 481.331" stroke="#1D1D1B" stroke-linecap="round" stroke-linejoin="round"/>
<path d="M285.84 444.204C290.848 460.368 293.335 467.81 292.903 484.717" stroke="#1D1D1B" stroke-linecap="round" stroke-linejoin="round"/>
<path d="M294.096 442.961C296.928 448.763 299.57 454.686 301.988 460.679C302.714 462.406 303.422 464.271 304.113 466.084" stroke="#1D1D1B" stroke-linecap="round" stroke-linejoin="round"/>
<path d="M279.674 405.297C280.555 407.576 281.401 409.856 282.282 412.204" stroke="#1D1D1B" stroke-linecap="round" stroke-linejoin="round"/>
<path d="M273.268 400.272L276.273 402.224C276.5 402.411 276.775 402.531 277.067 402.569C277.602 402.569 277.982 402.085 278.259 401.636C278.825 400.849 279.192 399.937 279.33 398.977C279.386 398.481 279.3 397.98 279.083 397.531C278.866 397.082 278.527 396.703 278.103 396.439C277.573 396.211 276.984 396.155 276.421 396.279C275.857 396.403 275.346 396.7 274.96 397.129C274.168 398.037 273.59 399.111 273.268 400.272Z" stroke="#1D1D1B" stroke-width="0.5" stroke-linecap="round" stroke-linejoin="round"/>
<path d="M274.891 432.305C276.189 433.794 277.702 435.081 279.381 436.122L281.229 433.825C281.613 433.392 281.927 432.903 282.162 432.374C282.392 431.715 282.401 430.999 282.185 430.335C281.97 429.67 281.543 429.095 280.97 428.696C280.373 428.328 279.685 428.133 278.984 428.133C278.282 428.133 277.595 428.328 276.998 428.696C276.385 429.087 275.874 429.619 275.508 430.246C275.142 430.874 274.93 431.58 274.891 432.305Z" stroke="#1D1D1B" stroke-width="0.5" stroke-linecap="round" stroke-linejoin="round"/>
<path d="M284.631 437.849L287.273 440.56C287.378 440.71 287.511 440.837 287.665 440.935C287.819 441.033 287.991 441.099 288.171 441.13C288.529 441.118 288.869 440.97 289.121 440.715C289.728 440.373 290.261 439.915 290.691 439.367C291.121 438.819 291.438 438.192 291.625 437.521C291.694 436.692 291.481 435.865 291.021 435.172C290.887 434.854 290.683 434.571 290.424 434.343C290.164 434.116 289.857 433.95 289.524 433.859C289.192 433.768 288.843 433.753 288.504 433.816C288.165 433.879 287.844 434.018 287.567 434.222C286.862 434.603 286.24 435.119 285.736 435.742C285.232 436.364 284.856 437.08 284.631 437.849Z" stroke="#1D1D1B" stroke-width="0.5" stroke-linecap="round" stroke-linejoin="round"/>
<path d="M298.516 436.312C297.685 436.727 296.999 437.383 296.547 438.194C296.335 438.605 296.225 439.061 296.225 439.524C296.225 439.986 296.335 440.442 296.547 440.854C296.763 441.264 297.103 441.595 297.519 441.8C297.935 442.004 298.405 442.072 298.862 441.993C299.68 441.685 300.369 441.106 300.813 440.353C301.222 439.902 301.497 439.345 301.608 438.747C301.606 438.408 301.524 438.075 301.368 437.774C301.212 437.474 300.986 437.215 300.709 437.02C300.081 436.54 299.307 436.29 298.516 436.312Z" stroke="#1D1D1B" stroke-width="0.5" stroke-linecap="round" stroke-linejoin="round"/>
<path d="M327.686 378.565C327.461 379.231 327.374 379.936 327.431 380.637C327.487 381.337 327.686 382.019 328.014 382.641C328.353 383.263 328.851 383.783 329.459 384.147C330.066 384.512 330.76 384.707 331.468 384.713C332.169 384.717 332.852 384.493 333.416 384.076C333.979 383.659 334.393 383.071 334.594 382.399" stroke="#1D1D1B" stroke-width="0.5" stroke-linecap="round" stroke-linejoin="round"/>
<path d="M330.535 378.254C330.305 378.326 330.099 378.459 329.938 378.638C329.777 378.817 329.667 379.037 329.619 379.273C329.48 379.664 329.43 380.081 329.475 380.494C329.52 380.907 329.658 381.304 329.878 381.656C330.121 381.99 330.476 382.227 330.879 382.322C331.281 382.417 331.705 382.364 332.072 382.174C332.416 381.935 332.661 381.579 332.763 381.172C332.868 380.785 332.903 380.381 332.866 379.981" stroke="#1D1D1B" stroke-width="0.5" stroke-linecap="round" stroke-linejoin="round"/>
<path d="M216.171 392.069C216.078 393.196 216.368 394.321 216.995 395.261C217.623 396.202 218.55 396.903 219.626 397.25C220.712 397.562 221.865 397.566 222.953 397.261C224.042 396.956 225.025 396.354 225.791 395.523C226.511 394.731 226.985 393.747 227.156 392.691C227.254 391.925 227.173 391.147 226.918 390.419C226.664 389.69 226.242 389.031 225.688 388.494C225.129 387.966 224.464 387.562 223.738 387.309C223.012 387.056 222.24 386.96 221.474 387.027" stroke="#1D1D1B" stroke-width="0.5" stroke-linecap="round" stroke-linejoin="round"/>
<path d="M219.694 395.402C219.158 395.064 218.718 394.595 218.415 394.039C218.113 393.482 217.959 392.858 217.967 392.224C217.97 391.975 217.999 391.726 218.053 391.482C218.241 390.747 218.65 390.088 219.224 389.594C219.799 389.1 220.512 388.794 221.266 388.719H221.559C222.268 388.731 222.958 388.945 223.549 389.337C224.14 389.728 224.606 390.281 224.893 390.929" stroke="#1D1D1B" stroke-width="0.5" stroke-linecap="round" stroke-linejoin="round"/>
<path d="M51.1517 221.851C50.8974 221.593 50.7059 221.279 50.5921 220.935C50.4783 220.59 50.4452 220.224 50.4954 219.865C50.5512 219.504 50.7046 219.166 50.9389 218.886C51.1733 218.606 51.4798 218.395 51.8252 218.277C52.1737 218.164 52.5489 218.166 52.8966 218.281C53.2443 218.395 53.5465 218.618 53.7595 218.916" stroke="#1D1D1B" stroke-width="0.5" stroke-linecap="round" stroke-linejoin="round"/>
<path d="M48.4219 220.177C48.5066 220.986 48.8662 221.742 49.4408 222.318C50.0004 222.914 50.7411 223.309 51.5478 223.441C52.3566 223.543 53.1769 223.382 53.8865 222.98C54.5961 222.579 55.1569 221.959 55.4855 221.213C55.7749 220.518 55.8294 219.748 55.6409 219.02C55.46 218.16 54.9757 217.394 54.2766 216.861" stroke="#1D1D1B" stroke-width="0.5" stroke-linecap="round" stroke-linejoin="round"/>
<path d="M53.6563 209.142C53.3538 209.693 53.2588 210.333 53.3888 210.948C53.5187 211.563 53.8649 212.111 54.3644 212.492C54.8914 212.842 55.5103 213.029 56.1432 213.029C56.7762 213.029 57.395 212.842 57.9221 212.492C58.4319 212.132 58.8526 211.66 59.1519 211.112C59.4512 210.564 59.6213 209.955 59.6491 209.332C59.6963 208.815 59.6193 208.294 59.4246 207.812C59.3182 207.576 59.1633 207.364 58.9699 207.192C58.7765 207.019 58.5489 206.889 58.302 206.811" stroke="#1D1D1B" stroke-width="0.5" stroke-linecap="round" stroke-linejoin="round"/>
<path d="M55.1928 211.214C55.0197 210.9 54.912 210.555 54.8764 210.199C54.8408 209.843 54.8779 209.483 54.9856 209.141C55.0966 208.8 55.304 208.497 55.5828 208.271C55.8616 208.044 56.2 207.902 56.5572 207.863C56.9155 207.836 57.271 207.943 57.555 208.164C57.839 208.384 58.0311 208.701 58.0943 209.055" stroke="#1D1D1B" stroke-width="0.5" stroke-linecap="round" stroke-linejoin="round"/>
<path d="M56.0383 200.68C55.7628 201.298 55.7103 201.992 55.8899 202.644C56.0694 203.296 56.4699 203.865 57.0228 204.255C57.5973 204.612 58.269 204.78 58.944 204.737C59.6189 204.694 60.2635 204.441 60.7877 204.013C61.2946 203.569 61.6692 202.995 61.8703 202.352C62.0714 201.709 62.0912 201.023 61.9276 200.369C61.8557 199.968 61.6741 199.594 61.4028 199.289C61.1315 198.984 60.7811 198.761 60.3905 198.643" stroke="#1D1D1B" stroke-width="0.5" stroke-linecap="round" stroke-linejoin="round"/>
<path d="M57.8876 202.978C57.6877 202.712 57.5576 202.401 57.5093 202.072C57.4611 201.743 57.4961 201.407 57.6113 201.095C57.75 200.796 57.9718 200.542 58.2504 200.364C58.5289 200.187 58.8526 200.093 59.1829 200.094C59.5133 200.127 59.8208 200.277 60.0491 200.518C60.2775 200.759 60.4114 201.075 60.4264 201.406" stroke="#1D1D1B" stroke-width="0.5" stroke-linecap="round" stroke-linejoin="round"/>
<path d="M142.893 50.4258C143.392 48.1661 144.363 46.0371 145.741 44.1774C147.118 42.3178 148.873 40.7693 150.889 39.6328" stroke="#1D1D1B" stroke-width="0.5" stroke-linecap="round" stroke-linejoin="round"/>
<path d="M145.016 51.3232C148.199 48.2827 152.444 46.6038 156.846 46.6434C161.198 46.7199 165.528 47.2994 169.747 48.3703C172.256 49.0031 174.856 49.2017 177.432 48.9574C180.886 48.4394 183.753 46.5052 186.827 45.0547C190.089 43.4554 193.647 42.5499 197.276 42.3953C200.942 42.2271 204.568 43.218 207.638 45.2274" stroke="#1D1D1B" stroke-width="0.5" stroke-linecap="round" stroke-linejoin="round"/>
<path d="M173.253 56.4355C173.683 57.6928 173.823 59.0314 173.661 60.3504C173.5 61.6695 173.041 62.9347 172.32 64.051" stroke="#1D1D1B" stroke-width="0.5" stroke-linecap="round" stroke-linejoin="round"/>
<path d="M178.054 54.1211C177.56 56.1722 177.619 58.3178 178.226 60.3385C178.833 62.3591 179.966 64.1825 181.508 65.6221" stroke="#1D1D1B" stroke-width="0.5" stroke-linecap="round" stroke-linejoin="round"/>
<path d="M185.135 59.6296C186.292 57.2614 188.018 55.2168 190.159 53.6784C192.299 52.14 194.788 51.1558 197.401 50.8137C200.015 50.4716 202.673 50.7823 205.137 51.718C207.602 52.6537 209.796 54.1853 211.524 56.1759" stroke="#1D1D1B" stroke-width="0.5" stroke-linecap="round" stroke-linejoin="round"/>
<path d="M171.527 82.959C171.563 84.7568 171.276 86.5464 170.681 88.2432C170.288 89.4668 169.993 90.7199 169.8 91.9905C169.757 92.4962 169.757 93.0045 169.8 93.5101C169.804 94.2998 169.969 95.0803 170.283 95.8046C170.598 96.5288 171.057 97.1817 171.631 97.7237C171.799 97.8641 171.978 97.9911 172.166 98.1036" stroke="#1D1D1B" stroke-width="0.5" stroke-linecap="round" stroke-linejoin="round"/>
<path d="M142.461 62.3746C143.933 60.6887 145.778 59.3703 147.85 58.5247C149.922 57.6792 152.164 57.3299 154.395 57.5048C158.853 57.9217 163.209 59.0894 167.279 60.9586" stroke="#1D1D1B" stroke-width="0.5" stroke-linecap="round" stroke-linejoin="round"/>
<path d="M168.037 91.8877C166.781 93.1807 165.732 94.6603 164.929 96.2739C164.533 97.0803 164.328 97.9663 164.328 98.8642C164.328 99.7621 164.533 100.648 164.929 101.455C165.024 101.619 165.134 101.775 165.257 101.921C165.809 102.611 166.553 103.121 167.395 103.389C168.237 103.656 169.14 103.668 169.989 103.423" stroke="#1D1D1B" stroke-width="0.5" stroke-linecap="round" stroke-linejoin="round"/>
<path d="M167.623 101.489C167.839 101.139 168.146 100.853 168.51 100.662C168.875 100.47 169.284 100.38 169.695 100.401H169.92C170.815 100.53 171.677 100.829 172.459 101.282L175.015 102.56" stroke="#1D1D1B" stroke-width="0.5" stroke-linecap="round" stroke-linejoin="round"/>
<path d="M169.264 100.937C169.372 101.316 169.597 101.652 169.907 101.897C170.217 102.142 170.596 102.283 170.991 102.301" stroke="#1D1D1B" stroke-width="0.5" stroke-linecap="round" stroke-linejoin="round"/>
<path d="M180.887 102.162C181.773 101.674 182.607 101.095 183.374 100.435C183.759 100.096 184.227 99.8642 184.729 99.7612C185.232 99.6583 185.753 99.6881 186.241 99.8477C186.502 99.9745 186.731 100.161 186.908 100.392C187.085 100.623 187.205 100.892 187.26 101.177C187.317 101.463 187.301 101.758 187.213 102.036C187.126 102.314 186.969 102.565 186.759 102.766" stroke="#1D1D1B" stroke-width="0.5" stroke-linecap="round" stroke-linejoin="round"/>
<path d="M189.176 103.389C189.932 102.9 190.535 102.208 190.917 101.393C191.299 100.578 191.444 99.6717 191.335 98.778C191.071 96.9921 190.331 95.3102 189.193 93.9082C188.14 92.4749 186.897 91.1625 185.912 89.6602" stroke="#1D1D1B" stroke-width="0.5" stroke-linecap="round" stroke-linejoin="round"/>
<path d="M151.044 31.585L150.474 31.7577C145.587 33.3809 140.423 34.0544 135.518 35.5913C130.613 37.1282 125.329 39.8912 122.617 44.502" stroke="#1D1D1B" stroke-width="0.5" stroke-linecap="round" stroke-linejoin="round"/>
<path d="M140.042 36.9219C133.748 40.186 128.602 45.2955 125.293 51.5658" stroke="#1D1D1B" stroke-width="0.5" stroke-linecap="round" stroke-linejoin="round"/>
<path d="M131.062 48.4219C130.324 52.0555 129.164 55.5907 127.607 58.9558L127.884 58.8349" stroke="#1D1D1B" stroke-width="0.5" stroke-linecap="round" stroke-linejoin="round"/>
<path d="M129.594 26.3871C134.481 20.4984 142.391 17.9427 150.007 17.2692C152.629 16.9482 155.285 17.0708 157.866 17.6319C160.465 18.1939 162.779 19.6631 164.394 21.7764C165.181 22.8384 165.671 24.0919 165.81 25.4067C165.95 26.7216 165.735 28.0498 165.188 29.2537" stroke="#1D1D1B" stroke-width="0.5" stroke-linecap="round" stroke-linejoin="round"/>
<path d="M174.635 29.4261C176.036 28.007 177.106 26.2959 177.769 24.4152C178.431 22.5345 178.67 20.5307 178.469 18.5469" stroke="#1D1D1B" stroke-width="0.5" stroke-linecap="round" stroke-linejoin="round"/>
<path d="M183.979 4.87012C187.296 5.52276 190.512 6.60846 193.546 8.09936C196.599 9.61912 198.945 12.2618 200.092 15.4731C200.583 17.5442 200.544 19.7055 199.98 21.7577C199.416 23.8099 198.343 25.6871 196.862 27.2158" stroke="#1D1D1B" stroke-width="0.5" stroke-linecap="round" stroke-linejoin="round"/>
<path d="M197.431 18.0469C197.312 19.7932 196.78 21.4863 195.879 22.9872C194.979 24.4882 193.735 25.7541 192.25 26.6812" stroke="#1D1D1B" stroke-width="0.5" stroke-linecap="round" stroke-linejoin="round"/>
<path d="M193.978 21.7422C192.767 23.8563 190.967 25.5724 188.797 26.6811" stroke="#1D1D1B" stroke-width="0.5" stroke-linecap="round" stroke-linejoin="round"/>
<path d="M189.971 23.5547L186.672 26.2831" stroke="#1D1D1B" stroke-width="0.5" stroke-linecap="round" stroke-linejoin="round"/>
<path d="M189.28 19.5137C187.742 22.7594 185.262 25.4672 182.164 27.2846" stroke="#1D1D1B" stroke-width="0.5" stroke-linecap="round" stroke-linejoin="round"/>
<path d="M181.215 24.4531C180.811 25.6893 180.104 26.8051 179.16 27.6997" stroke="#1D1D1B" stroke-width="0.5" stroke-linecap="round" stroke-linejoin="round"/>
<path d="M204.6 26.7331C206.824 25.5341 209.388 25.1205 211.876 25.5592C214.365 25.9979 216.632 27.2633 218.312 29.1507" stroke="#1D1D1B" stroke-width="0.5" stroke-linecap="round" stroke-linejoin="round"/>
<path d="M207.189 28.8398C217.317 32.2149 225.758 39.3566 230.764 48.7852" stroke="#1D1D1B" stroke-width="0.5" stroke-linecap="round" stroke-linejoin="round"/>
<path d="M217.604 43.2422C222.195 48.2042 225.852 53.9549 228.398 60.2173" stroke="#1D1D1B" stroke-width="0.5" stroke-linecap="round" stroke-linejoin="round"/>
<path d="M219.02 48.6982C222.14 55.364 225.26 62.0182 228.38 68.6609" stroke="#1D1D1B" stroke-width="0.5" stroke-linecap="round" stroke-linejoin="round"/>
<path d="M218.225 94.2363C214.127 99.4846 211.488 105.722 210.574 112.317" stroke="#1D1D1B" stroke-width="0.5" stroke-linecap="round" stroke-linejoin="round"/>
<path d="M191.543 99.123C192.856 108.12 201.905 114.544 203.08 123.541" stroke="#1D1D1B" stroke-width="0.5" stroke-linecap="round" stroke-linejoin="round"/>
<path d="M164.152 103.285C162.943 108.656 160.491 113.646 158.591 118.827C158.032 120.152 157.722 121.569 157.676 123.006C157.697 123.553 157.795 124.093 157.969 124.612C158.252 125.476 158.826 126.214 159.593 126.702" stroke="#1D1D1B" stroke-width="0.5" stroke-linecap="round" stroke-linejoin="round"/>
<path d="M161.889 123.023C162.297 123.171 162.73 123.235 163.163 123.211C163.597 123.187 164.021 123.076 164.41 122.885C168.123 121.59 171.854 120.295 175.619 119.19C176.392 119.368 177.177 119.495 177.967 119.57C178.537 119.57 179.09 119.691 179.695 119.725C182.101 118.886 184.644 118.511 187.19 118.62C190.962 119.157 194.691 119.965 198.347 121.038" stroke="#1D1D1B" stroke-width="0.5" stroke-linecap="round" stroke-linejoin="round"/>
<path d="M172.252 124.404C178.045 125.104 183.902 125.104 189.695 124.404" stroke="#1D1D1B" stroke-width="0.5" stroke-linecap="round" stroke-linejoin="round"/>
<path d="M177.174 107.136C177.26 109.329 177.347 111.522 177.416 113.715C177.402 114.235 177.496 114.753 177.692 115.235C177.85 115.538 178.114 115.772 178.435 115.891C178.605 115.934 178.783 115.934 178.953 115.891" stroke="#1D1D1B" stroke-width="0.5" stroke-linecap="round" stroke-linejoin="round"/>
<path d="M224.443 90.1088C226.229 87.0728 228.491 84.3439 231.144 82.027C231.809 81.4046 232.645 80.9957 233.545 80.8528H233.769C234.178 80.8461 234.576 80.9848 234.893 81.2441C235.209 81.5034 235.423 81.8665 235.496 82.2688" stroke="#1D1D1B" stroke-width="0.5" stroke-linecap="round" stroke-linejoin="round"/>
<path d="M233.7 81.4395C234.362 84.2241 234.36 87.1255 233.694 89.9093C233.028 92.6931 231.717 95.2813 229.866 97.4648C229.655 97.7848 229.326 98.0083 228.95 98.0865C228.705 98.0832 228.468 97.9957 228.279 97.8385C228.09 97.6813 227.962 97.464 227.914 97.2231C227.836 96.7427 227.836 96.2529 227.914 95.7725C228.005 94.9586 227.896 94.1346 227.595 93.3729C227.294 92.6112 226.81 91.935 226.187 91.4035C226.713 92.9368 226.713 94.6018 226.187 96.1351C225.623 97.6565 224.573 98.9494 223.199 99.8134" stroke="#1D1D1B" stroke-width="0.5" stroke-linecap="round" stroke-linejoin="round"/>
<path d="M227.518 100.764C226.972 103.937 225.408 106.846 223.062 109.053C222.837 109.26 222.406 109.415 222.268 109.139" stroke="#1D1D1B" stroke-width="0.5" stroke-linecap="round" stroke-linejoin="round"/>
<path d="M230.107 83.3906C230.452 83.4314 230.777 83.5751 231.039 83.8031C231.3 84.0311 231.488 84.3326 231.575 84.6685C231.772 85.3288 231.83 86.0223 231.748 86.7062C231.755 88.7657 231.405 90.8108 230.712 92.7503" stroke="#1D1D1B" stroke-width="0.5" stroke-linecap="round" stroke-linejoin="round"/>
<path d="M136.83 103.475C137.741 107.285 139.907 110.678 142.978 113.111L142.788 112.903" stroke="#1D1D1B" stroke-width="0.5" stroke-linecap="round" stroke-linejoin="round"/>
<path d="M137.711 94.3223C137.514 96.0366 137.767 97.7728 138.446 99.3596C139.124 100.946 140.204 102.329 141.58 103.371" stroke="#1D1D1B" stroke-width="0.5" stroke-linecap="round" stroke-linejoin="round"/>
<path d="M144.844 97.8965C148.075 104.001 150.507 110.495 152.08 117.22" stroke="#1D1D1B" stroke-width="0.5" stroke-linecap="round" stroke-linejoin="round"/>
<path d="M150.715 75.2066C152.079 73.4527 154.084 72.3114 156.288 72.033C158.493 71.7546 160.718 72.3618 162.476 73.7215" stroke="#1D1D1B" stroke-width="0.5" stroke-linecap="round" stroke-linejoin="round"/>
<path d="M163.616 76.8984C163.056 79.3062 162.179 81.629 161.008 83.8059C160.419 84.8913 159.621 85.8497 158.661 86.6262C157.701 87.4026 156.597 87.9817 155.412 88.3303" stroke="#1D1D1B" stroke-width="0.5" stroke-linecap="round" stroke-linejoin="round"/>
<path d="M191.699 71.718C192.396 70.9078 193.247 70.2449 194.204 69.768C195.16 69.291 196.202 69.0098 197.268 68.9407C198.335 68.8715 199.404 69.0158 200.414 69.3652C201.424 69.7146 202.354 70.262 203.15 70.9754" stroke="#1D1D1B" stroke-width="0.5" stroke-linecap="round" stroke-linejoin="round"/>
<path d="M192.131 75.4307C192.865 78.3625 194.657 80.9192 197.163 82.6089C199.67 84.2986 202.712 85.0017 205.705 84.5831" stroke="#1D1D1B" stroke-width="0.5" stroke-linecap="round" stroke-linejoin="round"/>
<path d="M157.244 72.4082L157.607 76.2073" stroke="#1D1D1B" stroke-linecap="round" stroke-linejoin="round"/>
<path d="M197.277 69.6279C197.277 70.6986 197.433 71.7693 197.502 72.8399" stroke="#1D1D1B" stroke-linecap="round" stroke-linejoin="round"/>
<path d="M227.12 321.561C226.823 322.526 226.861 323.563 227.228 324.503C227.594 325.444 228.269 326.233 229.141 326.741C230.05 327.206 231.082 327.374 232.092 327.223C233.102 327.071 234.039 326.607 234.771 325.895C235.689 324.944 236.208 323.677 236.222 322.355C236.223 321.777 236.109 321.204 235.887 320.671C235.665 320.137 235.338 319.653 234.927 319.247C234.512 318.847 234.005 318.557 233.45 318.403C232.895 318.249 232.31 318.236 231.749 318.366" stroke="#1D1D1B" stroke-width="0.5" stroke-linecap="round" stroke-linejoin="round"/>
<path d="M230.471 325.136C230.168 324.987 229.908 324.763 229.718 324.485C229.527 324.206 229.412 323.883 229.383 323.547C229.363 323.208 229.411 322.869 229.524 322.548C229.636 322.228 229.812 321.934 230.04 321.682C230.25 321.42 230.512 321.204 230.809 321.046C231.106 320.889 231.432 320.794 231.767 320.767C232.119 320.755 232.469 320.843 232.774 321.02C233.079 321.197 233.329 321.456 233.494 321.768" stroke="#1D1D1B" stroke-width="0.5" stroke-linecap="round" stroke-linejoin="round"/>
<path d="M224.064 283.277C223.788 283.208 223.531 283.079 223.311 282.899C223.091 282.72 222.913 282.493 222.79 282.237C222.667 281.981 222.602 281.701 222.6 281.416C222.597 281.132 222.658 280.851 222.777 280.593C222.895 280.334 223.07 280.105 223.287 279.922C223.504 279.739 223.759 279.606 224.034 279.532C224.309 279.459 224.596 279.447 224.876 279.497C225.156 279.548 225.421 279.659 225.653 279.823" stroke="#1D1D1B" stroke-width="0.5" stroke-linecap="round" stroke-linejoin="round"/>
<path d="M220.074 282.258C220.219 283.134 220.615 283.949 221.214 284.604C221.812 285.26 222.588 285.728 223.447 285.952C224.306 286.176 225.212 286.147 226.054 285.867C226.897 285.587 227.64 285.069 228.195 284.376C228.749 283.682 229.091 282.843 229.178 281.959C229.265 281.076 229.095 280.186 228.687 279.398C228.279 278.609 227.652 277.956 226.88 277.516C226.109 277.077 225.226 276.87 224.34 276.922" stroke="#1D1D1B" stroke-width="0.5" stroke-linecap="round" stroke-linejoin="round"/>
<path d="M178.504 152.483L188.02 165.107" stroke="#1D1D1B" stroke-width="0.5" stroke-linecap="round" stroke-linejoin="round"/>
<path d="M200.386 149.564C198.587 152.167 197.723 155.302 197.933 158.458C198.158 161.587 198.738 164.681 199.66 167.679" stroke="#1D1D1B" stroke-width="0.5" stroke-linecap="round" stroke-linejoin="round"/>
</svg>
