<svg width="295" height="396" viewBox="0 0 295 396" fill="none" xmlns="http://www.w3.org/2000/svg">
<path d="M251.304 240.328C248.565 238.847 246.258 236.679 244.608 234.038L244.811 233.523C239.824 231.68 235.552 228.301 232.611 223.871C233.547 218.015 234.496 212.173 235.322 206.249C237.966 187.136 239.05 167.304 233.289 148.896L236.258 147.31C237.228 149.296 237.965 151.389 238.454 153.545C239.728 158.371 241.007 163.197 242.29 168.022C245.566 170.451 247.78 174.048 248.471 178.067C250.72 178.796 252.639 180.293 253.894 182.297C255.46 184.529 256.397 187.141 256.605 189.861V189.983C257.798 190.239 258.891 190.837 259.75 191.704C260.793 192.924 260.97 194.659 261.878 195.974C263.233 197.872 265.66 198.468 267.707 199.539C273.766 202.698 276.084 210.18 281.14 214.776C283.716 217.121 287.227 219.019 288.393 222.516C289.916 223.961 291.131 225.699 291.965 227.625C292.799 229.552 293.235 231.627 293.245 233.726C293.249 237.923 292.637 242.097 291.429 246.116C288.22 258.69 284.384 271.095 279.934 283.286C279.419 284.641 278.904 286.078 278.375 287.461C277.941 288.613 277.494 289.752 277.019 290.904C276.45 292.354 275.881 293.818 275.284 295.269C274.688 296.719 274.227 297.858 273.698 299.146C273.17 300.433 272.56 301.857 271.977 303.212C271.014 305.463 270.011 307.713 268.994 309.99L268.9 310.112C267.769 307.335 266.293 304.712 264.508 302.304C263.624 301.109 262.664 299.972 261.634 298.902C261.119 298.359 260.59 297.831 260.034 297.329C258.819 296.193 257.524 295.146 256.157 294.198C250.861 290.766 244.817 288.66 238.535 288.057C237.491 287.935 236.475 287.867 235.472 287.84C235.698 286.877 236.165 285.986 236.827 285.251C242.048 278.002 246.058 269.954 248.702 261.42C248.235 259.983 248.195 258.442 248.584 256.982C248.974 255.522 249.777 254.206 250.898 253.192V253.016C250.068 252.241 249.407 251.304 248.955 250.263C248.503 249.222 248.269 248.099 248.269 246.963C248.269 245.828 248.503 244.705 248.955 243.664C249.407 242.623 250.068 241.686 250.898 240.911L251.304 240.328ZM281.52 228.467C281.52 227.979 281.005 227.667 280.557 227.477C279.008 226.89 277.412 226.437 275.786 226.122C264.684 223.587 253.433 221.038 241.572 221.567C254.083 225.43 266.812 229.334 279.907 229.402C280.598 229.389 281.52 229.158 281.52 228.467Z" fill="#E94D4F"/>
<path d="M280.556 227.475C281.004 227.665 281.519 227.977 281.519 228.465C281.519 228.953 280.597 229.387 279.905 229.387C266.811 229.319 254.082 225.415 241.57 221.552C253.431 221.023 264.683 223.572 275.785 226.106C277.411 226.426 279.008 226.884 280.556 227.475Z" fill="#E94D4F"/>
<path d="M268.924 310.097C267.906 311.374 266.462 312.24 264.857 312.537C262.882 312.588 260.943 312.004 259.326 310.87C260.953 308.159 262.552 305.312 264.179 302.533L264.532 302.289C266.317 304.697 267.793 307.32 268.924 310.097Z" fill="#1D1D1B"/>
<path d="M229.49 142.82L229.734 142.482C230.988 142.656 232.185 143.113 233.237 143.818C234.289 144.522 235.167 145.456 235.807 146.548C235.969 146.819 236.132 147.09 236.281 147.362L233.312 148.948C239.074 167.356 237.989 187.188 235.346 206.301C234.546 212.157 233.597 218 232.635 223.923C230.534 237.154 228.568 250.384 228.405 263.763C228.297 276.234 229.761 289.017 226.291 300.973V301.204C225.341 301.02 224.364 301.028 223.416 301.225C222.469 301.423 221.571 301.808 220.774 302.356C217.818 304.444 216.856 308.334 214.836 311.33C214.269 312.074 213.748 312.853 213.277 313.661C212.796 314.478 212.641 315.446 212.844 316.373C212.95 316.738 213.119 317.082 213.345 317.389L211.99 318.433C214.699 321.992 217.102 325.774 219.174 329.738L219.513 329.928C218.971 330.891 218.401 331.853 217.805 332.788C216.75 334.283 215.842 335.877 215.094 337.546C214.759 338.386 214.563 339.274 214.511 340.176C214.436 341.103 214.589 342.034 214.958 342.887C215.302 343.74 215.925 344.451 216.726 344.904C217.526 345.356 218.456 345.525 219.364 345.381C219.911 345.252 220.424 345.007 220.868 344.663L221.302 344.799C221.387 345.603 221.639 346.38 222.043 347.081C222.447 347.782 222.994 348.389 223.647 348.865C224.291 349.373 225.11 349.607 225.925 349.516C226.592 349.32 227.195 348.95 227.673 348.445C228.405 347.781 229.11 347.089 229.761 346.357L230.1 346.669C230.252 347.364 230.595 348.002 231.089 348.513V348.581C233.972 354.509 236.593 360.559 238.952 366.732L238.477 367.409C239.006 371.408 239.521 375.421 240.036 379.42C240.47 382.808 240.795 386.604 238.68 389.302C236.769 391.742 233.462 392.501 230.412 393.043C216.806 395.598 202.9 396.151 189.135 394.683C179.117 393.45 169.344 390.833 159.462 388.841C131.713 383.147 103.003 382.402 75.7696 374.54C75.7066 338.016 79.0742 301.568 85.8278 265.675C80.4463 257.039 76.6585 247.507 74.6445 237.533L73.9531 237.154L75.024 235.974C78.5518 232.237 82.271 228.685 86.1667 225.333L85.4889 223.829L86.3294 222.378C86.5463 220.602 86.7496 218.813 86.9394 217.024C87.9116 209.995 87.8522 202.862 86.7631 195.85C86.7631 195.606 86.6683 195.348 86.614 195.104C84.784 186.158 80.3242 177.848 78.8467 168.834L77.2878 168.061C79.1946 164.157 81.1556 160.285 83.1709 156.444C84.0401 154.998 84.6631 153.417 85.0145 151.767C85.1637 150.997 85.1637 150.206 85.0145 149.436L85.5838 149.314C92.57 147.93 99.2977 145.465 105.524 142.007L105.931 142.265C103.724 146.159 100.809 149.607 97.3365 152.431C100.545 155.308 104.519 157.192 108.777 157.854V158.545C104.964 160.942 100.966 163.032 96.8214 164.794C101.539 177.78 110.919 188.435 119.866 199.022C136.75 219.117 152.542 240.104 167.175 261.893L170.889 260.429C174.983 271.061 179.639 281.468 184.838 291.606L185.624 291.2C185.624 290.942 185.76 290.685 185.814 290.427C197.913 242.411 197.071 192.046 183.374 144.461L186.315 143.878C187.096 143.201 188.051 142.757 189.072 142.596C190.093 142.435 191.139 142.565 192.09 142.97C193.972 143.814 195.721 144.928 197.282 146.277C199.362 147.833 201.581 149.194 203.91 150.344L212.044 144.339C205.89 141.505 200.185 137.782 195.113 133.291L195.235 133.155C202.999 136.018 211.001 138.191 219.147 139.648C221.309 139.949 223.447 140.402 225.545 141.004C226.943 141.41 228.273 142.022 229.49 142.82ZM178.521 309.025C178.599 308.425 178.535 307.814 178.335 307.242C178.135 306.67 177.804 306.153 177.369 305.731C176.93 305.316 176.409 304.999 175.838 304.801C175.268 304.602 174.662 304.526 174.061 304.579V305.935H173.831C173.239 305.994 172.679 306.234 172.228 306.622C171.777 307.01 171.456 307.527 171.309 308.104C171.267 308.295 171.244 308.49 171.241 308.687L169.886 308.619C169.813 309.503 170.04 310.386 170.533 311.125C171.025 311.863 171.752 312.413 172.597 312.685C173.453 312.927 174.358 312.926 175.213 312.682C176.068 312.437 176.838 311.96 177.436 311.303C178.016 310.668 178.394 309.875 178.521 309.025Z" fill="#E94D4F"/>
<path d="M238.613 288.042V288.286L237.42 290.36L236.946 290.089C236.481 289.944 236.086 289.634 235.836 289.216C235.586 288.798 235.498 288.303 235.59 287.825C236.553 287.852 237.569 287.92 238.613 288.042Z" fill="#1D1D1B"/>
<path d="M224.882 311.709C225.691 311.95 226.533 312.06 227.376 312.035C225.75 316.25 224.109 320.48 222.184 324.56L221.724 324.343C221.046 322.554 220.368 320.764 219.677 318.921L219.094 318.826C219.387 318.623 219.664 318.396 219.921 318.148C221.855 316.351 223.329 314.114 224.218 311.628L224.882 311.709Z" fill="#E94D4F"/>
<path d="M221.779 324.344L222.24 324.561C221.413 326.35 220.505 328.126 219.529 329.848L219.19 329.658C217.119 325.693 214.715 321.911 212.006 318.352L213.361 317.309C213.756 317.837 214.237 318.296 214.785 318.664C215.574 319.301 216.563 319.637 217.577 319.613C218.157 319.528 218.707 319.299 219.177 318.949L219.76 319.044C220.424 320.792 221.102 322.555 221.779 324.344Z" fill="#E94D4F"/>
<path d="M176.935 125.01L176.258 125.267C174.902 121.363 173.235 117.527 171.459 113.772L171.988 113.528C175.989 114.745 179.614 116.961 182.52 119.967C185.516 122.855 188.105 126.135 190.965 129.158C192.294 130.559 193.681 131.914 195.127 133.225C200.199 137.716 205.904 141.438 212.058 144.272L203.925 150.277C201.595 149.128 199.376 147.767 197.296 146.211C195.735 144.862 193.986 143.747 192.104 142.903C191.153 142.499 190.108 142.369 189.087 142.53C188.066 142.69 187.11 143.134 186.329 143.811L183.388 144.394C181.504 137.888 179.321 131.395 176.935 125.01Z" fill="#E94D4F"/>
<path d="M180.569 180.683C182.239 173.66 183.008 166.454 182.86 159.238C182.86 157.516 182.752 155.808 182.602 154.1C181.825 144.244 179.695 134.542 176.272 125.267L176.95 125.01C179.336 131.394 181.477 137.888 183.362 144.435C197.059 192.02 197.9 242.385 185.802 290.401L185.314 290.279C178.793 272.738 174.727 254.371 170.66 236.084C168.762 227.463 166.851 218.652 167.949 209.895L168.681 206.75C174.369 198.956 178.413 190.087 180.569 180.683Z" fill="#D1D0D1"/>
<path d="M185.785 290.402C185.785 290.66 185.663 290.917 185.596 291.175L184.809 291.581C179.611 281.443 174.955 271.036 170.861 260.404C167.838 252.731 164.991 244.991 162.158 237.251L128.269 144.937L125.26 136.736L126.29 136.356C129.392 144.817 133.098 153.044 137.378 160.973C141.87 169.263 146.797 177.308 152.14 185.075C157.142 192.409 162.443 199.539 167.865 206.52L168.719 206.764L167.987 209.909C166.862 218.666 168.773 227.531 170.698 236.098C174.765 254.385 178.831 272.698 185.352 290.321L185.785 290.402Z" fill="#D1D0D1"/>
<path d="M174.114 305.948V304.592C174.715 304.54 175.321 304.615 175.891 304.814C176.462 305.012 176.983 305.33 177.422 305.745C177.857 306.166 178.188 306.683 178.388 307.255C178.588 307.827 178.652 308.438 178.574 309.039C178.429 309.89 178.032 310.679 177.435 311.302C176.847 311.972 176.083 312.463 175.231 312.722C174.378 312.98 173.47 312.996 172.609 312.767C171.765 312.494 171.037 311.944 170.545 311.206C170.053 310.467 169.825 309.584 169.898 308.7L171.254 308.768C171.256 308.571 171.279 308.376 171.322 308.185C171.469 307.608 171.79 307.091 172.241 306.703C172.692 306.315 173.251 306.075 173.843 306.016L174.114 305.948Z" fill="#E94D4F"/>
<path d="M170.861 260.389L167.146 261.853C152.514 240.065 136.721 219.077 119.837 198.983C110.945 188.396 101.565 177.741 96.793 164.755C100.938 162.992 104.936 160.903 108.749 158.506C110.46 157.393 112.071 156.132 113.561 154.737C115.527 152.88 117.235 150.765 119.268 148.99C121.23 147.101 123.75 145.898 126.453 145.56L128.188 144.923L162.077 237.236C164.991 244.977 167.838 252.717 170.861 260.389Z" fill="#E94D4F"/>
<path d="M170.456 142.021L169.886 142.929L169.195 144.543C169.535 144.987 169.783 145.493 169.927 146.034C170.029 146.567 170.029 147.114 169.927 147.647C169.499 150.318 168.614 152.895 167.311 155.265C167.311 155.265 167.311 155.333 167.311 155.373L165.169 154.018C164.464 153.738 163.7 153.635 162.946 153.72C161.636 153.831 160.423 154.454 159.571 155.455C159.213 155.958 158.828 156.443 158.418 156.905C158.132 157.184 157.777 157.381 157.388 157.475C157.171 157.535 156.941 157.535 156.724 157.475C156.087 157.244 155.775 156.539 155.368 156.011C154.013 154.357 151.397 154.276 149.946 152.676C149.393 152.036 149.069 151.23 149.024 150.385C148.979 149.059 149.258 147.742 149.838 146.549C150.746 144.583 152.088 142.74 152.332 140.584L152.224 140.354C153.866 139.608 155.612 139.114 157.402 138.89L157.89 138.822C159.317 138.224 160.864 137.968 162.408 138.074C163.952 138.18 165.45 138.645 166.782 139.432C168.104 140.148 169.337 141.017 170.456 142.021Z" fill="#E94D4F"/>
<path d="M180.568 180.683C178.417 190.087 174.377 198.955 168.694 206.75L167.84 206.506C162.417 199.525 157.117 192.395 152.115 185.061L152.251 184.966C153.489 180.764 154.515 176.512 155.328 172.211L158.785 172.902C162.243 167.881 163.73 161.762 162.96 155.714L162.851 153.68C163.606 153.596 164.369 153.698 165.074 153.978L167.216 155.334C167.216 155.334 167.216 155.266 167.216 155.225L167.528 155.388C172.811 163.303 177.185 171.788 180.568 180.683Z" fill="#E94D4F"/>
<path d="M162.962 155.714C163.732 161.762 162.246 167.882 158.787 172.902L155.33 172.211C156.248 167.432 156.918 162.609 157.336 157.761V157.436C157.725 157.342 158.08 157.145 158.367 156.866C158.776 156.403 159.161 155.919 159.519 155.416C160.371 154.415 161.584 153.792 162.894 153.681L162.962 155.714Z" fill="#E94D4F"/>
<path d="M152.157 140.272L152.266 140.503C152.022 142.658 150.68 144.502 149.772 146.467C149.192 147.661 148.912 148.978 148.958 150.304H148.538C146.831 149.843 145.254 148.994 143.929 147.823L143.645 147.62L144.16 146.888C146.204 144.024 148.961 141.743 152.157 140.272Z" fill="#E94D4F"/>
<path d="M125.236 136.722L128.245 144.923L126.51 145.56C123.808 145.898 121.287 147.102 119.325 148.99C117.292 150.766 115.584 152.88 113.618 154.737C112.128 156.132 110.517 157.393 108.806 158.506V157.815C104.548 157.153 100.574 155.269 97.3652 152.392C100.838 149.568 103.753 146.12 105.959 142.226L106.19 141.846C108.589 137.915 110.704 133.794 113.442 130.08C116.054 126.544 119.19 123.426 122.741 120.835L123.202 120.916C123.006 121.893 122.924 122.889 122.958 123.885C123.143 126.368 123.673 128.813 124.531 131.151C125.1 132.886 125.683 134.594 126.306 136.302L125.236 136.722Z" fill="#E94D4F"/>
<path d="M73.3849 190.212L69.7791 191.92L66.7969 190.565C69.0471 185.459 71.3787 180.384 73.7916 175.342L74.4151 175.748C74.7404 186.512 78.3191 191.839 82.5485 196.597C82.655 196.767 82.7978 196.91 82.9665 197.018C83.1353 197.126 83.3258 197.195 83.5245 197.221C83.6585 197.204 83.7878 197.161 83.9049 197.093C84.0221 197.026 84.1246 196.936 84.2067 196.829C84.2887 196.722 84.3485 196.599 84.3827 196.469C84.4168 196.338 84.4246 196.202 84.4056 196.068C84.3934 195.929 84.3614 195.792 84.3107 195.662L86.0729 192.746C86.0729 192.99 86.7778 195.675 86.8185 195.919C87.9076 202.931 87.9669 210.064 86.9947 217.093L86.0729 216.998C81.8436 208.033 77.6142 199.105 73.3849 190.212Z" fill="#E94D4F"/>
<path d="M86.0717 216.931L86.9935 217.026C86.8037 218.815 86.6004 220.604 86.3835 222.38L85.543 223.831C80.4732 224.671 74.5787 226.165 69.4547 226.635L66.5788 225.796C66.4718 214.42 64.5087 201.868 66.7427 190.713L73.3837 190.199C77.613 199.119 81.8424 208.029 86.0717 216.931Z" fill="#E94D4F"/>
<path d="M86.6185 195.106L84.2598 195.594C84.1067 195.212 83.8964 194.855 83.6363 194.536C79.4913 188.859 76.3717 182.501 74.4185 175.748L73.7949 175.45C74.9471 172.996 76.14 170.556 77.3465 168.13L78.9054 168.903C80.3829 177.849 84.8427 186.159 86.6185 195.106Z" fill="#E94D4F"/>
<path d="M66.5822 225.904H70.2557C75.3797 225.434 80.4766 224.779 85.5464 223.938L86.2242 225.443C82.3285 228.795 78.6093 232.347 75.0815 236.084L74.0106 237.263C72.9773 238.473 71.8437 239.593 70.6217 240.611C69.0129 241.971 67.0256 242.803 64.9284 242.997C64.7487 244.365 64.203 245.659 63.3488 246.742C62.4946 247.825 61.3637 248.658 60.0755 249.152L59.7231 249.03C59.2079 250.453 58.8962 251.958 58.2726 253.34C57.9523 254.221 57.4094 255.003 56.6967 255.611C55.984 256.219 55.1258 256.633 54.2059 256.81L53.989 256.729C54.0839 256.499 54.1788 256.255 54.2602 256.011L51.3457 254.791C54.0241 248.081 54.6699 240.732 53.2028 233.657L51.549 233.346C51.6304 232.885 51.7117 232.437 51.8066 231.99C52.2133 229.957 52.6877 227.924 53.2299 225.944L53.9213 226.121C54.2602 226.676 54.5855 227.219 54.8837 227.761C56.5122 231.09 57.3077 234.765 57.2017 238.47C57.0183 242.794 56.4053 247.09 55.3717 251.293C58.9233 247.227 60.1839 241.452 57.7982 234.213L60.2924 233.766C58.9745 227.157 58.8003 220.371 59.7773 213.704L57.5542 212.863C58.4759 210.383 59.4655 207.929 60.4686 205.475C62.5381 200.469 64.6482 195.53 66.7991 190.659L69.7813 192.015C67.5473 203.17 66.4752 214.527 66.5822 225.904Z" fill="#E94D4F"/>
<path d="M82.1419 149.653V149.463L83.0095 146.887L83.7144 147.118C84.3936 147.733 84.8669 148.542 85.0699 149.436C85.2192 150.206 85.2192 150.997 85.0699 151.767C84.7186 153.417 84.0956 154.998 83.2264 156.444C81.2201 160.294 79.2591 164.166 77.3432 168.061C76.1368 170.487 74.9439 172.927 73.7917 175.381C71.3788 180.424 69.0472 185.498 66.797 190.604C64.6191 195.511 62.5089 200.45 60.4665 205.42C59.4634 207.874 58.4739 210.327 57.5521 212.808C55.8758 217.095 54.4234 221.465 53.2008 225.903C52.6585 227.895 52.1841 229.969 51.7774 231.948C51.6825 232.409 51.6012 232.857 51.5199 233.304L53.1736 233.616C54.6661 240.698 54.039 248.062 51.3708 254.79L54.2852 256.01C54.2039 256.254 54.109 256.498 54.0141 256.728C52.2406 260.602 49.0405 263.641 45.081 265.214C40.9265 266.836 36.5459 267.806 32.0947 268.088C27.6595 268.779 23.1418 268.752 18.7154 268.006C14.2333 266.931 10.1739 264.543 7.05639 261.148C3.93892 257.752 1.90511 253.505 1.21511 248.947C0.903294 245.541 0.930538 242.113 1.29644 238.713C1.38156 235.759 1.80916 232.825 2.57067 229.969C3.31361 227.182 5.06149 224.768 7.47779 223.192C15.464 191.307 27.957 160.725 44.5794 132.369H45.0539L45.7859 133.115C50.1643 137.412 55.695 140.38 61.1172 143.281C64.4191 145.153 67.8586 146.771 71.4059 148.121C73.6865 148.944 76.0656 149.464 78.4819 149.666C79.6996 149.777 80.9251 149.772 82.1419 149.653ZM43.8881 172.697L42.4105 172.616C42.2433 172.382 42.0061 172.207 41.7332 172.117C41.4603 172.027 41.1658 172.026 40.8923 172.114C40.6212 172.207 40.3806 172.372 40.1967 172.592C40.0127 172.812 39.8923 173.078 39.8485 173.361C39.8091 173.643 39.8351 173.93 39.9244 174.201C40.0138 174.471 40.164 174.717 40.3636 174.92L39.0081 175.286C39.4473 175.754 40.0286 176.064 40.6618 176.167C41.2967 176.248 41.9405 176.121 42.4975 175.806C43.0544 175.491 43.4946 175.004 43.7525 174.419C43.9723 173.891 44.0198 173.307 43.8881 172.751V172.697Z" fill="#E94D4F"/>
<path d="M84.4045 195.999C84.4236 196.133 84.4158 196.269 84.3816 196.4C84.3475 196.531 84.2876 196.653 84.2056 196.76C84.1236 196.868 84.021 196.957 83.9039 197.025C83.7867 197.092 83.6574 197.135 83.5234 197.152C83.3248 197.126 83.1342 197.057 82.9655 196.949C82.7967 196.842 82.6539 196.698 82.5474 196.528C78.3181 191.77 74.7394 186.443 74.4141 175.68C76.3765 182.46 79.5149 188.842 83.6861 194.535C83.9462 194.854 84.1565 195.211 84.3096 195.593C84.3604 195.723 84.3923 195.86 84.4045 195.999Z" fill="#E94D4F"/>
<path d="M60.2636 233.752L57.7694 234.199C57.017 231.956 56.0406 229.794 54.855 227.747C54.5685 227.181 54.2471 226.633 53.8925 226.107L53.2012 225.93C54.4229 221.484 55.8753 217.104 57.5525 212.809L59.7756 213.649C58.785 220.328 58.9501 227.128 60.2636 233.752Z" fill="#E94D4F"/>
<path d="M57.768 234.2C60.1537 241.438 58.8931 247.254 55.3415 251.28C56.3751 247.076 56.9881 242.781 57.1715 238.456C57.2775 234.751 56.482 231.076 54.8535 227.747C56.0391 229.795 57.0155 231.956 57.768 234.2Z" fill="#E94D4F"/>
<path d="M43.8899 172.753C44.0378 173.325 43.995 173.929 43.7679 174.474C43.51 175.06 43.0698 175.547 42.5128 175.862C41.9559 176.177 41.312 176.304 40.6772 176.223C40.044 176.119 39.4627 175.81 39.0234 175.342L40.379 174.976C40.1794 174.773 40.0291 174.527 39.9398 174.256C39.8505 173.986 39.8245 173.699 39.8639 173.417C39.9077 173.134 40.0281 172.868 40.212 172.648C40.396 172.428 40.6365 172.263 40.9077 172.17C41.1812 172.082 41.4757 172.083 41.7486 172.173C42.0215 172.263 42.2587 172.438 42.4259 172.671L43.8899 172.753Z" fill="#E94D4F"/>
<path d="M121.359 98.3867C121.468 98.6714 121.576 98.9561 121.658 99.2407C122.214 101.304 122.639 103.4 122.932 105.517C123.22 107.939 124.157 110.238 125.643 112.173C127.696 114.155 130.335 115.419 133.166 115.779C139.293 116.944 145.583 116.456 151.792 115.968C153.913 115.935 156.006 115.474 157.946 114.613C160.004 113.444 161.551 111.549 162.284 109.299C162.765 107.943 163.035 106.521 163.083 105.083" stroke="#1D1D1B" stroke-width="1.74688" stroke-linecap="round" stroke-linejoin="round"/>
<path d="M125.063 116.943C124.095 118.116 123.442 119.515 123.166 121.01C122.969 121.987 122.888 122.983 122.922 123.979C123.107 126.462 123.636 128.907 124.494 131.245C125.063 132.98 125.646 134.688 126.27 136.396C129.372 144.856 133.078 153.083 137.358 161.013C141.849 169.302 146.777 177.347 152.12 185.114C157.122 192.448 162.422 199.578 167.845 206.559" stroke="#1D1D1B" stroke-width="1.74688" stroke-linecap="round" stroke-linejoin="round"/>
<path d="M169.983 110.748C170.485 111.751 170.986 112.754 171.461 113.771C173.236 117.526 174.85 121.362 176.259 125.266C179.679 134.528 181.809 144.216 182.59 154.058C182.739 155.766 182.82 157.474 182.847 159.196C183 166.412 182.235 173.618 180.57 180.641C178.418 190.044 174.378 198.913 168.695 206.708" stroke="#1D1D1B" stroke-width="1.74688" stroke-linecap="round" stroke-linejoin="round"/>
<path d="M125.588 121.946L128.462 124.06L136.283 129.835C139.315 132.353 142.759 134.33 146.463 135.677C150.029 136.762 153.946 136.68 157.308 138.28C162.506 133.293 166.578 127.252 169.25 120.563C169.711 119.424 170.132 118.258 170.498 117.079" stroke="#1D1D1B" stroke-width="1.74688" stroke-linecap="round" stroke-linejoin="round"/>
<path d="M170.85 99.3086C170.245 103.086 169.793 106.891 169.495 110.722C169.242 113.994 169.115 117.265 169.115 120.537" stroke="#1D1D1B" stroke-width="1.74688" stroke-linecap="round" stroke-linejoin="round"/>
<path d="M137.627 160.836C139.083 156.222 141.105 151.805 143.646 147.687L144.161 146.955C146.2 144.076 148.957 141.781 152.159 140.299C153.801 139.553 155.547 139.06 157.337 138.835L157.825 138.767C159.252 138.17 160.799 137.913 162.343 138.019C163.887 138.125 165.385 138.59 166.717 139.377C168.069 140.127 169.325 141.037 170.459 142.089C171.611 143.119 172.695 144.23 173.766 145.355L182.265 154.194" stroke="#1D1D1B" stroke-width="1.74688" stroke-linecap="round" stroke-linejoin="round"/>
<path d="M143.93 147.865C145.254 149.036 146.832 149.885 148.539 150.346" stroke="#1D1D1B" stroke-width="1.74688" stroke-linecap="round" stroke-linejoin="round"/>
<path d="M152.262 140.503C152.018 142.658 150.676 144.502 149.767 146.467C149.187 147.661 148.908 148.978 148.954 150.304C148.998 151.148 149.323 151.954 149.876 152.595C151.231 154.194 153.943 154.275 155.298 155.929C155.732 156.458 156.044 157.163 156.654 157.393C156.871 157.454 157.101 157.454 157.318 157.393C157.706 157.299 158.062 157.103 158.348 156.824C158.758 156.361 159.142 155.877 159.5 155.373C160.353 154.373 161.566 153.749 162.876 153.638C163.63 153.554 164.393 153.656 165.099 153.937" stroke="#1D1D1B" stroke-width="1.74688" stroke-linecap="round" stroke-linejoin="round"/>
<path d="M167.217 155.415C167.217 155.415 167.217 155.347 167.217 155.306C168.52 152.936 169.405 150.359 169.833 147.688C169.935 147.155 169.935 146.608 169.833 146.075C169.689 145.535 169.441 145.028 169.101 144.584L169.792 142.971" stroke="#1D1D1B" stroke-width="1.74688" stroke-linecap="round" stroke-linejoin="round"/>
<path d="M162.881 139.146L167.761 143.322" stroke="#1D1D1B" stroke-width="1.74688" stroke-linecap="round" stroke-linejoin="round"/>
<path d="M162.96 155.715C163.731 161.763 162.244 167.883 158.785 172.903" stroke="#1D1D1B" stroke-width="1.74688" stroke-linecap="round" stroke-linejoin="round"/>
<path d="M157.333 157.76C156.915 162.608 156.245 167.431 155.327 172.21C154.514 176.503 153.488 180.755 152.25 184.966" stroke="#1D1D1B" stroke-width="1.74688" stroke-linecap="round" stroke-linejoin="round"/>
<path d="M167.584 155.414C172.845 163.319 177.201 171.79 180.57 180.668C180.638 180.831 180.706 180.98 180.76 181.143" stroke="#1D1D1B" stroke-width="1.74688" stroke-linecap="round" stroke-linejoin="round"/>
<path d="M167.95 209.895C166.825 218.651 168.737 227.517 170.662 236.084C174.728 254.37 178.795 272.684 185.315 290.306" stroke="#1D1D1B" stroke-width="1.74688" stroke-linecap="round" stroke-linejoin="round"/>
<path d="M85.5723 149.314C92.5585 147.93 99.2861 145.465 105.513 142.008" stroke="#1D1D1B" stroke-width="1.74688" stroke-linecap="round" stroke-linejoin="round"/>
<path d="M122.7 120.875C119.149 123.466 116.013 126.584 113.401 130.12C110.69 133.834 108.548 137.955 106.149 141.886L105.918 142.266C103.712 146.16 100.797 149.608 97.3242 152.432C100.533 155.309 104.507 157.193 108.765 157.855" stroke="#1D1D1B" stroke-width="1.74688" stroke-linecap="round" stroke-linejoin="round"/>
<path d="M126.511 145.559C123.809 145.897 121.289 147.1 119.327 148.988C117.293 150.764 115.585 152.879 113.62 154.736C112.129 156.13 110.519 157.391 108.808 158.504C104.994 160.901 100.996 162.991 96.8516 164.753C101.569 177.74 110.949 188.394 119.896 198.981C136.78 219.076 152.572 240.063 167.205 261.852" stroke="#1D1D1B" stroke-width="1.74688" stroke-linecap="round" stroke-linejoin="round"/>
<path d="M123.633 132.369C124.161 133.82 124.69 135.256 125.232 136.707L128.242 144.908L162.131 237.222C164.964 244.962 167.81 252.702 170.833 260.374C174.927 271.007 179.583 281.414 184.782 291.552C186.91 295.619 189.16 299.686 191.56 303.603C201.536 330.534 207.638 358.744 209.684 387.39" stroke="#1D1D1B" stroke-width="1.74688" stroke-linecap="round" stroke-linejoin="round"/>
<path d="M176.395 123.545C176.584 124.033 176.761 124.521 176.937 125.009C179.323 131.394 181.464 137.887 183.349 144.434C197.046 192.019 197.887 242.384 185.789 290.401C185.789 290.658 185.667 290.916 185.599 291.173" stroke="#1D1D1B" stroke-width="1.74688" stroke-linecap="round" stroke-linejoin="round"/>
<path d="M186.289 143.853C187.07 143.176 188.025 142.731 189.046 142.571C190.067 142.41 191.113 142.54 192.064 142.944C193.946 143.789 195.695 144.903 197.256 146.252C199.336 147.808 201.555 149.169 203.884 150.319C208.659 152.665 213.797 154.187 219.08 154.819C218.589 193.995 210.543 232.708 195.385 268.835" stroke="#1D1D1B" stroke-width="1.74688" stroke-linecap="round" stroke-linejoin="round"/>
<path d="M172.016 113.528C176.017 114.745 179.642 116.961 182.548 119.967C185.544 122.855 188.133 126.135 190.993 129.158C192.322 130.559 193.709 131.914 195.155 133.225C200.227 137.716 205.932 141.438 212.086 144.272L203.953 150.277" stroke="#1D1D1B" stroke-width="1.74688" stroke-linecap="round" stroke-linejoin="round"/>
<path d="M74.7012 237.535C76.7152 247.509 80.503 257.041 85.8845 265.677C79.1127 301.568 75.727 338.017 75.7721 374.541V374.758" stroke="#1D1D1B" stroke-width="1.74688" stroke-linecap="round" stroke-linejoin="round"/>
<path d="M202.596 286.375C204.792 298.605 207.707 310.695 211.325 322.582" stroke="#1D1D1B" stroke-width="1.74688" stroke-linecap="round" stroke-linejoin="round"/>
<path d="M209.4 315.112C210.295 316.17 211.163 317.254 212.003 318.352C214.713 321.911 217.116 325.693 219.188 329.657" stroke="#1D1D1B" stroke-width="1.74688" stroke-linecap="round" stroke-linejoin="round"/>
<path d="M219.136 272.359C222.376 282.7 222.119 293.819 218.404 303.998" stroke="#1D1D1B" stroke-width="1.74688" stroke-linecap="round" stroke-linejoin="round"/>
<path d="M233.315 148.962C239.076 167.37 237.991 187.202 235.348 206.316C234.548 212.172 233.599 218.014 232.637 223.938C230.536 237.168 228.57 250.398 228.408 263.778C228.299 276.249 229.763 289.032 226.293 300.988" stroke="#1D1D1B" stroke-width="1.74688" stroke-linecap="round" stroke-linejoin="round"/>
<path d="M195.248 133.034C203.012 135.897 211.014 138.07 219.16 139.527C221.322 139.828 223.46 140.281 225.558 140.883C226.956 141.315 228.281 141.955 229.489 142.781C230.085 143.17 230.635 143.625 231.13 144.136" stroke="#1D1D1B" stroke-width="1.74688" stroke-linecap="round" stroke-linejoin="round"/>
<path d="M244.186 175.139L242.316 168.09C241.041 163.255 239.749 158.429 238.439 153.613C237.95 151.456 237.213 149.364 236.243 147.377C236.094 147.106 235.931 146.835 235.768 146.564C235.129 145.471 234.25 144.538 233.199 143.833C232.147 143.129 230.949 142.672 229.695 142.497" stroke="#1D1D1B" stroke-width="1.74688" stroke-linecap="round" stroke-linejoin="round"/>
<path d="M242.299 168.077C245.575 170.505 247.789 174.103 248.48 178.122C250.728 178.851 252.648 180.348 253.902 182.351C255.469 184.583 256.406 187.196 256.614 189.915" stroke="#1D1D1B" stroke-width="1.74688" stroke-linecap="round" stroke-linejoin="round"/>
<path d="M241.514 183.596C245.894 186.306 250.636 188.382 255.598 189.764L256.601 190.048C257.794 190.305 258.887 190.903 259.746 191.77C260.79 192.99 260.966 194.725 261.874 196.04C263.23 197.937 265.656 198.534 267.703 199.605C273.762 202.763 276.08 210.246 281.137 214.841C283.712 217.186 287.223 219.084 288.389 222.582C289.912 224.026 291.127 225.764 291.961 227.691C292.795 229.617 293.231 231.693 293.242 233.792C293.245 237.989 292.633 242.163 291.425 246.182C288.216 258.756 284.38 271.161 279.93 283.351C279.415 284.707 278.9 286.144 278.371 287.526C277.938 288.679 277.49 289.817 277.016 290.969C276.446 292.42 275.877 293.884 275.281 295.334C274.684 296.785 274.223 297.923 273.695 299.211C273.166 300.499 272.556 301.922 271.973 303.278C271.011 305.528 270.007 307.778 268.991 310.056L268.896 310.178C267.878 311.454 266.434 312.321 264.829 312.618C262.855 312.669 260.916 312.084 259.299 310.95" stroke="#1D1D1B" stroke-width="1.74688" stroke-linecap="round" stroke-linejoin="round"/>
<path d="M272.408 303.414C272.842 303.34 273.25 303.156 273.594 302.881C273.937 302.606 274.206 302.249 274.374 301.842C274.524 301.427 274.57 300.981 274.508 300.544C274.447 300.107 274.28 299.692 274.021 299.334" stroke="#1D1D1B" stroke-width="1.74688" stroke-linecap="round" stroke-linejoin="round"/>
<path d="M275.836 295.552C276.304 295.452 276.738 295.23 277.093 294.909C277.447 294.588 277.711 294.178 277.856 293.722C278.012 293.259 278.04 292.763 277.937 292.286C277.835 291.809 277.605 291.368 277.273 291.011" stroke="#1D1D1B" stroke-width="1.74688" stroke-linecap="round" stroke-linejoin="round"/>
<path d="M278.791 287.69C279.222 287.572 279.617 287.349 279.941 287.042C280.265 286.734 280.508 286.352 280.648 285.928C280.773 285.502 280.792 285.051 280.702 284.616C280.612 284.182 280.417 283.775 280.133 283.434" stroke="#1D1D1B" stroke-width="1.74688" stroke-linecap="round" stroke-linejoin="round"/>
<path d="M235.551 287.825C236.554 287.825 237.571 287.92 238.614 288.042C244.896 288.645 250.941 290.751 256.237 294.183C257.603 295.131 258.899 296.178 260.114 297.314C260.669 297.816 261.198 298.344 261.713 298.887C262.744 299.957 263.703 301.094 264.587 302.289C266.373 304.697 267.848 307.32 268.979 310.097" stroke="#1D1D1B" stroke-width="1.74688" stroke-linecap="round" stroke-linejoin="round"/>
<path d="M236.919 290.088C236.454 289.943 236.059 289.632 235.808 289.215C235.558 288.797 235.471 288.302 235.563 287.824C235.79 286.861 236.256 285.97 236.919 285.235C242.139 277.986 246.15 269.937 248.793 261.404C248.327 259.967 248.286 258.425 248.676 256.966C249.065 255.506 249.869 254.19 250.989 253.176" stroke="#1D1D1B" stroke-width="1.74688" stroke-linecap="round" stroke-linejoin="round"/>
<path d="M232.486 223.612C232.54 223.701 232.599 223.787 232.663 223.87C235.603 228.299 239.876 231.679 244.863 233.521C247.154 234.383 249.562 234.895 252.006 235.04" stroke="#1D1D1B" stroke-width="1.74688" stroke-linecap="round" stroke-linejoin="round"/>
<path d="M244.607 234.036C247.053 237.935 250.892 240.757 255.343 241.925" stroke="#1D1D1B" stroke-width="1.74688" stroke-linecap="round" stroke-linejoin="round"/>
<path d="M250.974 240.896C250.145 241.671 249.483 242.609 249.031 243.65C248.579 244.691 248.346 245.814 248.346 246.949C248.346 248.084 248.579 249.207 249.031 250.248C249.483 251.29 250.145 252.227 250.974 253.002" stroke="#1D1D1B" stroke-width="1.74688" stroke-linecap="round" stroke-linejoin="round"/>
<path d="M253.646 252.135C256.496 255.024 260.021 257.157 263.903 258.341C267.785 259.524 271.901 259.721 275.878 258.913" stroke="#1D1D1B" stroke-width="1.74688" stroke-linecap="round" stroke-linejoin="round"/>
<path d="M253.469 242.17C254.398 243.679 255.653 244.96 257.143 245.92C258.633 246.879 260.318 247.492 262.077 247.714C265.613 248.124 269.192 247.498 272.379 245.911C275.539 244.318 278.481 242.327 281.136 239.987" stroke="#1D1D1B" stroke-width="1.74688" stroke-linecap="round" stroke-linejoin="round"/>
<path d="M259.664 242.171C264.192 243.255 268.95 242.456 273.45 241.276C277.951 240.097 282.397 238.565 287.006 238.077" stroke="#1D1D1B" stroke-width="1.74688" stroke-linecap="round" stroke-linejoin="round"/>
<path d="M237.201 225.103C244.031 228.698 251.403 231.152 259.026 232.368C266.645 233.584 274.356 234.123 282.07 233.982" stroke="#1D1D1B" stroke-width="1.74688" stroke-linecap="round" stroke-linejoin="round"/>
<path d="M241.57 221.552C254.082 225.415 266.811 229.319 279.905 229.387C280.597 229.387 281.519 229.156 281.519 228.465C281.519 227.774 281.004 227.665 280.556 227.475C279.007 226.888 277.411 226.435 275.785 226.12C264.683 223.571 253.431 221.023 241.57 221.552Z" stroke="#1D1D1B" stroke-width="1.74688" stroke-linecap="round" stroke-linejoin="round"/>
<path d="M238.533 212.267C253.51 212.338 268.265 215.883 281.64 222.623" stroke="#1D1D1B" stroke-width="1.74688" stroke-linecap="round" stroke-linejoin="round"/>
<path d="M236.219 202.005L259.114 205.99" stroke="#1D1D1B" stroke-width="1.74688" stroke-linecap="round" stroke-linejoin="round"/>
<path d="M237.08 193.02C244.451 196.317 252.186 198.728 260.125 200.204" stroke="#1D1D1B" stroke-width="1.74688" stroke-linecap="round" stroke-linejoin="round"/>
<path d="M238.586 288.259L237.393 290.333C236.138 292.469 235.019 294.683 234.045 296.961L235.102 297.083C241.951 298.007 248.406 300.824 253.741 305.217C255.649 306.724 257.238 308.595 258.418 310.72C258.583 311.015 258.732 311.318 258.865 311.629L259.326 310.829C260.953 308.118 262.552 305.271 264.179 302.492" stroke="#1D1D1B" stroke-width="1.74688" stroke-linecap="round" stroke-linejoin="round"/>
<path d="M44.5139 132.369C27.8915 160.725 15.3985 191.307 7.41229 223.192C6.42273 227.082 5.52806 231 4.70117 234.917" stroke="#1D1D1B" stroke-width="1.74688" stroke-linecap="round" stroke-linejoin="round"/>
<path d="M7.69211 222.989L7.40744 223.152C5.00854 224.75 3.285 227.178 2.5681 229.97C1.83093 232.842 1.43061 235.79 1.37521 238.754C0.984926 242.139 0.930437 245.553 1.21254 248.948C1.91746 253.491 3.95794 257.721 7.07431 261.101C10.1907 264.48 14.242 266.856 18.7128 267.926C23.1393 268.672 27.657 268.699 32.0922 268.007C36.539 267.752 40.9195 266.81 45.0784 265.215C49.0127 263.637 52.191 260.609 53.9573 256.756C54.0522 256.526 54.1471 256.282 54.2284 256.038" stroke="#1D1D1B" stroke-width="1.74688" stroke-linecap="round" stroke-linejoin="round"/>
<path d="M54.1758 256.809C55.0957 256.631 55.9538 256.218 56.6665 255.61C57.3792 255.002 57.9222 254.219 58.2425 253.339C58.866 251.983 59.1778 250.451 59.6929 249.028C59.8149 248.703 59.9369 248.391 60.0725 248.079C60.6011 246.9 61.3467 245.815 61.8211 244.595C62.1003 244.007 62.253 243.366 62.2693 242.715C62.2857 242.063 62.1653 241.416 61.916 240.813" stroke="#1D1D1B" stroke-width="1.74688" stroke-linecap="round" stroke-linejoin="round"/>
<path d="M60.0195 249.151C61.3178 248.665 62.46 247.836 63.3242 246.753C64.1884 245.669 64.7422 244.371 64.9267 242.997C67.0552 242.783 69.0643 241.911 70.6742 240.503C71.8962 239.484 73.0298 238.364 74.0631 237.154L75.134 235.975C78.6618 232.238 82.381 228.686 86.2767 225.334C86.9838 228.38 88.0675 231.326 89.5029 234.104" stroke="#1D1D1B" stroke-width="1.74688" stroke-linecap="round" stroke-linejoin="round"/>
<path d="M70.2539 225.796C75.3779 225.326 80.4748 224.671 85.5446 223.83" stroke="#1D1D1B" stroke-width="1.74688" stroke-linecap="round" stroke-linejoin="round"/>
<path d="M83.6968 147.119C84.376 147.734 84.8493 148.544 85.0523 149.437C85.2016 150.207 85.2016 150.999 85.0523 151.769C84.701 153.419 84.078 154.999 83.2088 156.445C81.2025 160.295 79.2415 164.168 77.3257 168.062C76.1192 170.489 74.9263 172.929 73.7741 175.383C71.3612 180.425 69.0296 185.5 66.7794 190.605C64.6015 195.513 62.4913 200.451 60.449 205.422C59.4458 207.875 58.4563 210.329 57.5345 212.81C55.8628 217.096 54.4149 221.467 53.1967 225.904C52.6545 227.897 52.18 229.971 51.7734 231.95C51.6785 232.411 51.5972 232.858 51.5158 233.306C50.8255 238.063 49.8706 242.779 48.6556 247.43C47.1374 252.46 44.4805 257.38 40.1562 260.362" stroke="#1D1D1B" stroke-width="1.74688" stroke-linecap="round" stroke-linejoin="round"/>
<path d="M50.7461 256.16C50.9494 255.712 51.1392 255.251 51.3154 254.804C53.9938 248.094 54.6396 240.745 53.1725 233.671" stroke="#1D1D1B" stroke-width="1.74688" stroke-linecap="round" stroke-linejoin="round"/>
<path d="M54.857 227.749C54.5706 227.182 54.2491 226.635 53.8945 226.108C54.2334 226.664 54.5588 227.261 54.857 227.749ZM54.857 227.749C56.4855 231.078 57.281 234.753 57.175 238.458C56.9916 242.782 56.3786 247.078 55.345 251.281C58.8965 247.214 60.1572 241.44 57.7714 234.201C57.019 231.958 56.0426 229.796 54.857 227.749Z" stroke="#1D1D1B" stroke-width="1.74688" stroke-linecap="round" stroke-linejoin="round"/>
<path d="M59.7741 213.703C58.7835 220.383 58.9486 227.183 60.2621 233.806" stroke="#1D1D1B" stroke-width="1.74688" stroke-linecap="round" stroke-linejoin="round"/>
<path d="M69.7787 191.92C67.5447 203.075 66.4726 214.432 66.5795 225.809C66.5795 227.707 66.5795 229.604 66.7151 231.502" stroke="#1D1D1B" stroke-width="1.74688" stroke-linecap="round" stroke-linejoin="round"/>
<path d="M73.1426 189.71L73.3866 190.212C77.6159 199.122 81.8453 208.028 86.0746 216.93" stroke="#1D1D1B" stroke-width="1.74688" stroke-linecap="round" stroke-linejoin="round"/>
<path d="M74.0234 209.367C77.1371 213.296 80.6891 216.857 84.6103 219.981" stroke="#1D1D1B" stroke-width="1.74688" stroke-linecap="round" stroke-linejoin="round"/>
<path d="M78.9023 168.834C80.3799 177.848 84.8397 186.158 86.6697 195.105C86.6697 195.349 86.7781 195.606 86.8188 195.85C87.9079 202.862 87.9673 209.995 86.995 217.024C86.8052 218.813 86.6019 220.603 86.385 222.379" stroke="#1D1D1B" stroke-width="1.74688" stroke-linecap="round" stroke-linejoin="round"/>
<path d="M74.4141 175.747C76.3765 182.527 79.5149 188.909 83.6861 194.603C83.9462 194.922 84.1565 195.278 84.3096 195.66C84.3604 195.791 84.3923 195.928 84.4045 196.067C84.4236 196.201 84.4158 196.337 84.3816 196.467C84.3475 196.598 84.2876 196.721 84.2056 196.828C84.1236 196.935 84.021 197.025 83.9039 197.092C83.7867 197.159 83.6574 197.202 83.5234 197.219C83.3248 197.194 83.1342 197.125 82.9655 197.017C82.7967 196.909 82.6539 196.765 82.5474 196.596C78.3181 191.77 74.7394 186.442 74.4141 175.747Z" stroke="#1D1D1B" stroke-width="1.74688" stroke-linecap="round" stroke-linejoin="round"/>
<path d="M44.9883 132.369L45.7203 133.115C50.0987 137.412 55.6294 140.38 61.0516 143.281C64.3536 145.153 67.793 146.771 71.3403 148.121C73.6426 148.95 76.0449 149.47 78.4841 149.666C79.7014 149.781 80.9268 149.781 82.1441 149.666H82.5237" stroke="#1D1D1B" stroke-width="1.74688" stroke-linecap="round" stroke-linejoin="round"/>
<path d="M45.7852 133.021C47.6965 127.747 49.6078 122.474 51.5869 117.093C52.6985 117.337 53.8101 117.608 54.9081 117.906C60.5954 119.575 66.0997 121.814 71.3374 124.589C74.2654 126.08 77.2477 127.747 79.0912 130.445C80.4566 132.548 81.1862 135 81.1923 137.507C81.2287 138.34 81.1969 139.174 81.0974 140.002C81.0974 140.164 81.0974 140.327 81.0297 140.49C80.51 143.609 79.6556 146.663 78.4812 149.599" stroke="#1D1D1B" stroke-width="1.74688" stroke-linecap="round" stroke-linejoin="round"/>
<path d="M84.1747 129.659C84.8504 130.012 85.4274 130.528 85.8535 131.16C86.2795 131.792 86.5412 132.52 86.6148 133.279C86.6281 133.491 86.6281 133.703 86.6148 133.916C86.575 135.645 86.2261 137.352 85.5845 138.958L82.8734 146.888L82.0059 149.464" stroke="#1D1D1B" stroke-width="1.74688" stroke-linecap="round" stroke-linejoin="round"/>
<path d="M81.5566 140.571C81.9784 139.132 82.79 137.837 83.9018 136.83C85.036 135.841 85.9582 134.633 86.6129 133.278" stroke="#1D1D1B" stroke-width="1.74688" stroke-linecap="round" stroke-linejoin="round"/>
<path d="M55.0719 117.324C56.4275 114.694 57.7017 112.05 59.1386 109.421C59.0008 108.258 58.7604 107.111 58.4202 105.991C57.7559 103.592 57.2273 101.165 56.7122 98.7388C55.456 92.9099 54.1999 87.0855 52.9437 81.2657C52.3569 79.3445 52.2729 77.3048 52.6997 75.3419C53.3892 73.6708 54.4186 72.1613 55.7226 70.9092C58.3539 67.9051 60.6704 64.6392 62.636 61.1628C63.5726 59.2505 64.694 57.4345 65.9842 55.7405C67.4566 53.9478 69.5542 52.7804 71.8538 52.4736L73.3449 52.921C77.0704 54.0619 80.6972 55.5036 84.1893 57.2317C85.5098 57.8632 86.5998 58.8917 87.3071 60.1732L87.646 60.6883C88.2347 61.7905 88.9941 62.7924 89.8962 63.657C90.6824 64.3348 91.7127 64.9041 91.9296 65.9208C91.9627 66.4896 91.8083 67.0536 91.49 67.5263C91.1716 67.9989 90.707 68.354 90.1673 68.537C89.901 68.6536 89.6241 68.7444 89.3405 68.8081C87.6723 69.1377 85.9412 68.8177 84.5011 67.9135L84.0538 67.6152C82.6168 66.5214 81.3904 65.1756 80.4344 63.6434C80.2447 63.3859 80.082 63.1283 79.9058 62.8708C78.3089 63.3265 76.6259 63.3916 74.9986 63.0605C73.4777 62.7833 72.0404 62.162 70.7964 61.2441" stroke="#1D1D1B" stroke-width="1.74688" stroke-linecap="round" stroke-linejoin="round"/>
<path d="M74.9428 63.3594C73.5624 65.4191 71.7547 67.1575 69.6426 68.4563" stroke="#1D1D1B" stroke-width="1.74688" stroke-linecap="round" stroke-linejoin="round"/>
<path d="M63.666 68.5103C65.642 68.322 67.6344 68.3995 69.5898 68.7407C71.4517 69.0544 73.2712 69.582 75.012 70.3132C75.7346 70.6292 76.4404 70.9821 77.1267 71.3705C77.574 71.6145 78.0078 71.8856 78.4823 72.1567C79.6749 72.2325 80.847 72.5027 81.9525 72.9565C84.3403 73.9529 86.3586 75.668 87.7272 77.8637C87.7658 79.9345 87.4164 81.9943 86.6969 83.9365" stroke="#1D1D1B" stroke-width="1.74688" stroke-linecap="round" stroke-linejoin="round"/>
<path d="M74.7148 85.9143C78.6024 84.9399 82.6153 84.5605 86.6166 84.7892C87.4978 84.7892 88.3653 84.9112 89.2329 85.0061C89.7073 85.0061 90.1953 85.1281 90.6698 85.2094" stroke="#1D1D1B" stroke-width="1.74688" stroke-linecap="round" stroke-linejoin="round"/>
<path d="M79.7556 64.1729C79.5812 65.414 79.1425 66.6033 78.469 67.6604C77.7955 68.7174 76.9029 69.6175 75.8516 70.3" stroke="#1D1D1B" stroke-width="1.74688" stroke-linecap="round" stroke-linejoin="round"/>
<path d="M84.4864 68.3213C83.9927 69.6282 83.2823 70.8425 82.3853 71.9135L81.9922 72.3609" stroke="#1D1D1B" stroke-width="1.74688" stroke-linecap="round" stroke-linejoin="round"/>
<path d="M89.8002 69.1758C89.8002 69.474 89.6918 69.7722 89.624 70.0705C89.1364 72.1577 88.1609 74.0996 86.7773 75.7367" stroke="#1D1D1B" stroke-width="1.74688" stroke-linecap="round" stroke-linejoin="round"/>
<path d="M75.1868 74.2578C75.4819 75.7373 75.444 77.2639 75.0759 78.727C74.7078 80.19 74.0187 81.5528 73.0586 82.7165" stroke="#1D1D1B" stroke-width="1.74688" stroke-linecap="round" stroke-linejoin="round"/>
<path d="M61.7969 74.3389C65.1257 76.7686 68.0531 79.7051 70.4724 83.0415C71.3264 84.1395 72.1398 85.2376 72.9667 86.3356L73.3869 86.9049L78.8091 94.1707C80.5699 96.3982 82.126 98.7801 83.4587 101.287C84.5545 103.521 85.291 105.914 85.6411 108.377" stroke="#1D1D1B" stroke-width="1.74688" stroke-linecap="round" stroke-linejoin="round"/>
<path d="M84.393 117.298L82.8477 122.652" stroke="#1D1D1B" stroke-width="1.74688" stroke-linecap="round" stroke-linejoin="round"/>
<path d="M62.0898 107.754C62.4638 109.539 62.686 111.353 62.7541 113.176" stroke="#1D1D1B" stroke-width="1.74688" stroke-linecap="round" stroke-linejoin="round"/>
<path d="M100.008 66.0713C98.0113 69.3986 97.005 73.2264 97.1071 77.1055C94.3481 79.3976 91.7484 81.875 89.3262 84.5205" stroke="#1D1D1B" stroke-width="1.74688" stroke-linecap="round" stroke-linejoin="round"/>
<path d="M73.3711 52.9354C73.5248 52.6384 73.7558 52.3885 74.0397 52.2119C74.3236 52.0354 74.6499 51.9388 74.9842 51.9323C75.6483 51.9234 76.3103 52.0102 76.9498 52.1898L77.8038 52.3254C80.1567 52.5268 82.5197 52.5856 84.8798 52.5016C87.5397 52.3671 90.1814 53.0076 92.4845 54.3451C93.6087 55.1919 94.6648 56.1256 95.6429 57.1376C97.5254 58.8185 99.6619 60.1911 101.973 61.2043L102.326 61.3669C102.379 61.7446 102.379 62.1279 102.326 62.5056C102.245 63.5777 101.766 64.5808 100.984 65.3181C100.201 66.0554 99.1714 66.4737 98.0965 66.4909C97.0075 66.4412 95.9449 66.1396 94.9922 65.6098C92.8001 64.6918 90.8579 63.2653 89.326 61.4483C88.9058 61.4483 88.3364 60.6078 87.9704 60.5942" stroke="#1D1D1B" stroke-width="1.74688" stroke-linecap="round" stroke-linejoin="round"/>
<path d="M105.947 60.5253C106.53 60.444 107.018 60.322 107.601 60.1864L108.265 60.0509V59.9831C108.153 57.8481 108.855 55.7501 110.231 54.1135C111.832 51.809 113.967 49.9256 116.453 48.6235C117.979 47.7969 119.671 47.3203 121.404 47.2283C123.138 47.1364 124.87 47.4314 126.475 48.092C128.081 48.7525 129.519 49.7621 130.686 51.0475C131.852 52.3328 132.718 53.8617 133.221 55.5233L133.384 55.9978C134.405 59.2192 134.222 62.7018 132.869 65.7985C132.189 67.3402 131.212 68.7326 129.993 69.8957C128.774 71.0588 127.337 71.9697 125.766 72.5762C124.193 73.1588 122.514 73.4008 120.841 73.2863C119.168 73.1718 117.538 72.7034 116.06 71.912C113.942 70.6984 112.194 68.9319 111.003 66.8016C109.741 64.703 108.825 62.4143 108.292 60.0238" stroke="#1D1D1B" stroke-width="1.74688" stroke-linecap="round" stroke-linejoin="round"/>
<path d="M133.369 55.4966C134.032 54.7164 134.866 54.0999 135.807 53.6955C136.748 53.291 137.769 53.1095 138.791 53.1651C140.823 53.2736 142.816 53.7706 144.661 54.629" stroke="#1D1D1B" stroke-width="1.74688" stroke-linecap="round" stroke-linejoin="round"/>
<path d="M170.455 55.7816C170.455 55.5104 170.455 55.2393 170.347 54.9818C170.016 53.2843 169.276 51.693 168.191 50.3458C166.48 48.3918 164.267 46.9425 161.792 46.1541C159.317 45.3658 156.674 45.2684 154.148 45.8724C153.754 45.9496 153.365 46.0492 152.982 46.1707C151.465 46.6111 150.054 47.3548 148.833 48.3567C147.612 49.3586 146.607 50.5979 145.879 51.9995C145.376 52.8512 144.98 53.7618 144.7 54.7107C144.504 55.3028 144.359 55.9104 144.266 56.5271C144.054 58.2952 144.335 60.0873 145.079 61.7053C145.829 63.5679 146.943 65.2621 148.356 66.6889C149.769 68.1157 151.452 69.2465 153.307 70.0149C155.179 70.7695 157.211 71.0409 159.215 70.804C161.219 70.5671 163.131 69.8296 164.775 68.6594C167.083 66.7402 168.767 64.178 169.615 61.2987C170.262 59.5346 170.548 57.6583 170.455 55.7816Z" stroke="#1D1D1B" stroke-width="1.74688" stroke-linecap="round" stroke-linejoin="round"/>
<path d="M170.863 55.7686H173.94H174.415" stroke="#1D1D1B" stroke-width="1.74688" stroke-linecap="round" stroke-linejoin="round"/>
<path d="M174.887 55.835C175.994 58.0546 177.301 60.1689 178.791 62.1519" stroke="#1D1D1B" stroke-width="1.74688" stroke-linecap="round" stroke-linejoin="round"/>
<path d="M118.486 26.2715C115.646 27.2821 113.185 29.1419 111.437 31.5988C109.704 34.057 108.44 36.8145 107.709 39.7322C106.379 44.7459 106.12 49.9838 106.95 55.1042C107.183 56.555 107.504 57.9901 107.913 59.4013L107.398 59.6182L107.249 59.686" stroke="#1D1D1B" stroke-width="1.74688" stroke-linecap="round" stroke-linejoin="round"/>
<path d="M107.52 59.8886C107.454 59.8082 107.395 59.722 107.344 59.631C107.195 59.3561 107.116 59.0489 107.113 58.7363" stroke="#1D1D1B" stroke-width="1.74688" stroke-linecap="round" stroke-linejoin="round"/>
<path d="M109.197 12.9053C106.067 14.5176 103.223 16.6334 100.779 19.1679C96.0574 23.96 92.8879 30.0629 91.6836 36.6818C92.6597 34.3395 94.1301 32.2355 95.9943 30.514C95.395 32.1332 94.9414 33.8026 94.6387 35.5024C93.9716 39.3368 94.0591 43.2645 94.8963 47.0653C94.9121 43.855 95.7324 40.6998 97.2821 37.8882C96.6873 40.4999 96.7385 43.2173 97.4312 45.8047C98.1338 48.3804 99.0404 50.8962 100.142 53.328" stroke="#1D1D1B" stroke-width="1.74688" stroke-linecap="round" stroke-linejoin="round"/>
<path d="M100.387 18.7742C101.423 16.0887 103.077 13.6852 105.215 11.7586C107.354 9.83208 109.917 8.43669 112.695 7.68572C115.417 6.91982 118.252 6.6354 121.073 6.84528C123.986 7.05282 126.857 7.66886 129.599 8.67529" stroke="#1D1D1B" stroke-width="1.74688" stroke-linecap="round" stroke-linejoin="round"/>
<path d="M121.117 6.30153C123.779 5.32203 126.622 4.93583 129.448 5.16998C132.274 5.40413 135.015 6.25297 137.479 7.65709" stroke="#1D1D1B" stroke-width="1.74688" stroke-linecap="round" stroke-linejoin="round"/>
<path d="M130.387 4.94775C134.04 2.56761 138.355 1.4094 142.709 1.64018C143.472 1.6654 144.232 1.73784 144.986 1.85708C147.916 2.28207 150.753 3.19866 153.377 4.56819C153.919 4.8393 154.461 5.13752 154.99 5.4493C156.588 6.32697 158.008 7.4946 159.179 8.89243C160.644 10.7559 161.371 13.0939 161.221 15.4595C161.071 17.8252 160.054 20.0526 158.365 21.716" stroke="#1D1D1B" stroke-width="1.74688" stroke-linecap="round" stroke-linejoin="round"/>
<path d="M160.805 18.016C162.804 16.6979 165.204 16.1267 167.582 16.4029C170.598 16.5604 173.469 17.7469 175.716 19.7647C176.817 20.7757 177.671 22.0265 178.212 23.4204C178.753 24.8143 178.965 26.3139 178.834 27.8031" stroke="#1D1D1B" stroke-width="1.74688" stroke-linecap="round" stroke-linejoin="round"/>
<path d="M172.475 20.1436C174.75 21.9511 176.651 24.1841 178.073 26.718L178.764 27.8024C180.363 30.1633 181.756 32.6578 182.926 35.258C184.343 38.3509 184.855 41.7817 184.404 45.1536C183.743 43.582 182.648 42.2321 181.245 41.2632C182.923 44.5358 183.614 48.2255 183.233 51.8834C182.853 55.5414 181.418 59.01 179.103 61.8676" stroke="#1D1D1B" stroke-width="1.74688" stroke-linecap="round" stroke-linejoin="round"/>
<path d="M157.918 22.3672H158.135C159.178 22.6906 160.176 23.1462 161.104 23.7227C163.28 25.1315 165.107 27.0184 166.444 29.2399C168.301 32.5027 169.671 36.019 170.511 39.6776C171.928 44.9363 173.064 50.2667 173.914 55.6461C173.926 55.7269 173.926 55.8093 173.914 55.8901C174.673 60.5397 175.269 65.2028 175.594 69.866C176.798 67.5486 177.823 65.1421 178.658 62.6679C178.726 62.4917 178.794 62.3019 178.848 62.1122C178.885 62.024 178.917 61.9334 178.943 61.841" stroke="#1D1D1B" stroke-width="1.74688" stroke-linecap="round" stroke-linejoin="round"/>
<path d="M105.701 83.1621C105.776 84.5201 106.17 85.8413 106.851 87.0188C107.531 88.1963 108.479 89.197 109.619 89.9399C109.554 91.1552 109.908 92.356 110.62 93.3425C111.333 94.329 112.362 95.0418 113.536 95.3621" stroke="#1D1D1B" stroke-width="1.74688" stroke-linecap="round" stroke-linejoin="round"/>
<path d="M109.076 66.7344C109.1 70.1801 109.555 73.6093 110.432 76.9417C109.795 76.2097 109.158 75.4777 108.548 74.7186C107.938 73.9595 107.382 73.2817 106.826 72.5497" stroke="#1D1D1B" stroke-width="1.74688" stroke-linecap="round" stroke-linejoin="round"/>
<path d="M110.365 76.6973V76.8871C110.691 78.5815 111.029 80.2624 111.355 81.9568C112.222 86.376 113.103 90.7951 113.971 95.2142C113.971 95.4582 114.066 95.7022 114.12 95.9462C114.619 99.2881 115.577 102.545 116.967 105.625C118.055 107.823 119.706 109.694 121.752 111.047C122.536 111.537 123.385 111.915 124.273 112.172" stroke="#1D1D1B" stroke-width="1.74688" stroke-linecap="round" stroke-linejoin="round"/>
<path d="M121.699 111.223C123.024 113.001 124.22 114.872 125.278 116.821C126.555 119.117 127.639 121.516 128.518 123.992" stroke="#1D1D1B" stroke-width="1.74688" stroke-linecap="round" stroke-linejoin="round"/>
<path d="M179.076 62.8703C179.703 62.1136 180.428 61.4435 181.231 60.8776C181.638 60.6029 182.096 60.4133 182.579 60.3201C183.061 60.227 183.557 60.2321 184.037 60.3354C185.786 60.8234 186.545 62.8432 186.965 64.6054C187.724 67.7367 188.212 71.2341 186.585 74.013C185.599 75.3605 184.53 76.6462 183.386 77.8628C182.175 79.6622 181.26 81.6437 180.675 83.7323C180.086 85.8326 179.215 87.8435 178.086 89.7103C177.52 90.6431 176.762 91.4446 175.862 92.0617C174.962 92.6787 173.941 93.0971 172.867 93.289" stroke="#1D1D1B" stroke-width="1.74688" stroke-linecap="round" stroke-linejoin="round"/>
<path d="M176.301 71.208L176.22 71.5062C175.512 73.9898 175.017 76.5295 174.742 79.0974C174.173 83.408 173.915 87.7865 172.994 92.0429C172.912 92.436 172.817 92.8427 172.722 93.2358C172.215 95.2917 171.558 97.3078 170.757 99.268C169.238 102.968 167.208 106.436 164.725 109.57" stroke="#1D1D1B" stroke-width="1.74688" stroke-linecap="round" stroke-linejoin="round"/>
<path d="M77.832 52.1609C78.0616 51.7359 78.3803 51.3657 78.7664 51.0756C79.1524 50.7855 79.5967 50.5823 80.0687 50.48C81.0129 50.2789 81.9836 50.2331 82.9425 50.3444C84.9216 50.4529 86.8872 50.6427 88.8527 50.8324C90.6845 50.949 92.5005 51.2441 94.275 51.7135C95.7796 52.1473 97.203 52.8387 98.7212 53.2589C99.1667 53.3885 99.6193 53.4926 100.077 53.5706C102.172 53.884 104.289 54.0201 106.407 53.9773C106.525 54.3591 106.615 54.7486 106.678 55.1431C106.793 55.8387 106.793 56.5485 106.678 57.2442C106.521 58.3521 105.978 59.3694 105.147 60.118C104.725 60.478 104.222 60.7312 103.682 60.8562C103.142 60.9813 102.579 60.9745 102.042 60.8365" stroke="#1D1D1B" stroke-width="1.74688" stroke-linecap="round" stroke-linejoin="round"/>
<path d="M102.88 62.545C103.397 62.0561 104.039 61.72 104.736 61.5741C105.432 61.4281 106.155 61.478 106.825 61.7181C107.344 62.0261 107.777 62.4592 108.084 62.9778C108.392 63.4964 108.565 64.084 108.587 64.6868C108.858 67.3979 107.354 69.865 106.717 72.4812C106.59 73.0117 106.504 73.5509 106.459 74.0943C106.296 76.3852 107.123 78.8117 106.161 80.9941C105.731 81.6547 105.364 82.3535 105.063 83.0817C102.989 88.165 103.87 94.4819 100.996 99.3484C99.8032 101.395 98.0274 103.035 96.6719 104.987C95.4494 107.014 94.3538 109.115 93.3914 111.277C92.427 113.524 90.7503 115.391 88.6199 116.591C87.1152 120.658 85.5427 125.226 83.9974 129.645C83.0485 132.356 82.0996 135 81.1914 137.507" stroke="#1D1D1B" stroke-width="1.74688" stroke-linecap="round" stroke-linejoin="round"/>
<path d="M235.061 297.479C234.109 298.121 233.358 299.018 232.892 300.068C232.744 299.915 232.564 299.796 232.365 299.721C232.166 299.646 231.952 299.616 231.74 299.634C231.313 299.681 230.897 299.795 230.506 299.973L227.145 301.233C227.145 301.233 227.212 301.328 227.145 301.342" stroke="#1D1D1B" stroke-width="1.74688" stroke-linecap="round" stroke-linejoin="round"/>
<path d="M228.406 301.816C228.015 301.604 227.601 301.435 227.173 301.314C226.883 301.21 226.583 301.137 226.278 301.097C225.328 300.914 224.351 300.921 223.404 301.119C222.457 301.317 221.558 301.701 220.761 302.25C217.806 304.337 216.844 308.228 214.824 311.223C214.256 311.967 213.736 312.746 213.265 313.555C212.783 314.371 212.628 315.34 212.831 316.266C212.937 316.632 213.107 316.976 213.333 317.283C213.728 317.811 214.209 318.27 214.756 318.638C215.545 319.275 216.535 319.611 217.548 319.587C218.128 319.502 218.678 319.273 219.148 318.923C219.441 318.719 219.718 318.493 219.975 318.245C221.909 316.448 223.383 314.211 224.272 311.725C224.571 310.896 224.797 310.044 224.95 309.176" stroke="#1D1D1B" stroke-width="1.74688" stroke-linecap="round" stroke-linejoin="round"/>
<path d="M224.883 311.711C225.692 311.951 226.534 312.061 227.377 312.036H227.594" stroke="#1D1D1B" stroke-width="1.74688" stroke-linecap="round" stroke-linejoin="round"/>
<path d="M230.738 303.997C231.43 305.555 231.55 307.307 231.077 308.945" stroke="#1D1D1B" stroke-width="1.74688" stroke-linecap="round" stroke-linejoin="round"/>
<path d="M227.445 311.996C225.818 316.212 224.178 320.441 222.253 324.521C221.426 326.311 220.518 328.087 219.542 329.808C219 330.771 218.43 331.733 217.834 332.668C216.78 334.164 215.872 335.757 215.123 337.426C214.788 338.266 214.592 339.154 214.54 340.056C214.465 340.983 214.619 341.914 214.987 342.767C215.332 343.62 215.955 344.331 216.755 344.783C217.555 345.236 218.485 345.405 219.393 345.261C219.94 345.132 220.453 344.887 220.898 344.543C221.639 343.93 222.287 343.214 222.822 342.415C229.064 333.929 233.915 324.502 237.191 314.49" stroke="#1D1D1B" stroke-width="1.74688" stroke-linecap="round" stroke-linejoin="round"/>
<path d="M221.316 344.732C221.401 345.537 221.653 346.314 222.057 347.015C222.461 347.715 223.008 348.323 223.662 348.799C224.306 349.307 225.124 349.541 225.939 349.45C226.606 349.254 227.21 348.884 227.688 348.379C228.42 347.715 229.124 347.023 229.775 346.291C233.117 342.764 235.741 338.62 237.502 334.091C239.101 330.025 240.01 325.579 242.219 321.756" stroke="#1D1D1B" stroke-width="1.74688" stroke-linecap="round" stroke-linejoin="round"/>
<path d="M235.861 309.553C235.699 310.827 235.536 312.101 235.387 313.375" stroke="#1D1D1B" stroke-width="1.74688" stroke-linecap="round" stroke-linejoin="round"/>
<path d="M242.394 314.652C242.762 316.131 242.648 317.689 242.068 319.099" stroke="#1D1D1B" stroke-width="1.74688" stroke-linecap="round" stroke-linejoin="round"/>
<path d="M248.863 321.32C248.975 322.424 248.792 323.537 248.334 324.547" stroke="#1D1D1B" stroke-width="1.74688" stroke-linecap="round" stroke-linejoin="round"/>
<path d="M230.119 346.629C230.272 347.324 230.614 347.962 231.109 348.473C231.643 349.031 232.341 349.403 233.101 349.538C233.862 349.672 234.645 349.56 235.338 349.218C236.468 348.538 237.402 347.575 238.049 346.426C243.16 338.93 249.097 331.813 252.296 323.382C253.923 319.044 254.926 314.218 258.22 310.938" stroke="#1D1D1B" stroke-width="1.74688" stroke-linecap="round" stroke-linejoin="round"/>
<path d="M250.881 313.08C251.422 315.074 251.709 317.128 251.735 319.194" stroke="#1D1D1B" stroke-width="1.74688" stroke-linecap="round" stroke-linejoin="round"/>
<path d="M151.234 302.805L180.108 302.317" stroke="#1D1D1B" stroke-width="1.74688" stroke-linecap="round" stroke-linejoin="round"/>
<path d="M180.149 310.6C170.696 319.702 159.769 327.137 147.832 332.587" stroke="#1D1D1B" stroke-width="1.74688" stroke-linecap="round" stroke-linejoin="round"/>
<path d="M179.361 316.631C176.071 324.14 171.869 331.215 166.85 337.696" stroke="#1D1D1B" stroke-width="1.74688" stroke-linecap="round" stroke-linejoin="round"/>
<path d="M213.074 329.389C214.484 349.451 216.743 369.423 219.852 389.304" stroke="#1D1D1B" stroke-width="1.74688" stroke-linecap="round" stroke-linejoin="round"/>
<path d="M224.568 349.518C228.499 362.206 232.458 375.178 232.132 388.449" stroke="#1D1D1B" stroke-width="1.74688" stroke-linecap="round" stroke-linejoin="round"/>
<path d="M231.049 348.543C233.932 354.471 236.552 360.522 238.911 366.694" stroke="#1D1D1B" stroke-width="1.74688" stroke-linecap="round" stroke-linejoin="round"/>
<path d="M219.732 318.976C220.424 320.765 221.088 322.554 221.779 324.398" stroke="#1D1D1B" stroke-width="1.74688" stroke-linecap="round" stroke-linejoin="round"/>
<path d="M214.701 315.031L217.06 316.563C217.238 316.71 217.454 316.803 217.683 316.834C218.104 316.834 218.402 316.454 218.619 316.102C219.063 315.484 219.352 314.768 219.459 314.014C219.503 313.625 219.436 313.231 219.266 312.879C219.096 312.526 218.829 312.229 218.497 312.021C218.08 311.843 217.619 311.799 217.176 311.896C216.734 311.993 216.333 312.227 216.03 312.564C215.408 313.276 214.954 314.119 214.701 315.031Z" stroke="#1D1D1B" stroke-width="0.873438" stroke-linecap="round" stroke-linejoin="round"/>
<path d="M215.977 340.177C216.995 341.346 218.183 342.355 219.501 343.172L220.951 341.37C221.253 341.03 221.5 340.646 221.683 340.231C221.865 339.714 221.871 339.151 221.702 338.63C221.533 338.108 221.198 337.657 220.748 337.344C220.28 337.054 219.74 336.901 219.189 336.901C218.639 336.901 218.099 337.054 217.63 337.344C217.15 337.651 216.749 338.068 216.461 338.56C216.174 339.053 216.007 339.607 215.977 340.177Z" stroke="#1D1D1B" stroke-width="0.873438" stroke-linecap="round" stroke-linejoin="round"/>
<path d="M223.623 344.527L225.697 346.655C225.779 346.773 225.884 346.873 226.005 346.949C226.126 347.026 226.261 347.078 226.402 347.103C226.683 347.094 226.95 346.977 227.147 346.777C227.624 346.509 228.043 346.149 228.38 345.719C228.717 345.289 228.966 344.796 229.113 344.269C229.167 343.619 229 342.97 228.639 342.426C228.534 342.176 228.373 341.954 228.17 341.775C227.966 341.597 227.725 341.467 227.464 341.395C227.203 341.323 226.929 341.312 226.663 341.361C226.397 341.411 226.145 341.52 225.927 341.68C225.374 341.979 224.886 342.384 224.49 342.873C224.095 343.362 223.8 343.924 223.623 344.527Z" stroke="#1D1D1B" stroke-width="0.873438" stroke-linecap="round" stroke-linejoin="round"/>
<path d="M234.517 343.321C233.865 343.647 233.327 344.162 232.972 344.799C232.806 345.122 232.719 345.48 232.719 345.843C232.719 346.206 232.806 346.564 232.972 346.886C233.141 347.208 233.408 347.468 233.735 347.629C234.061 347.79 234.43 347.843 234.788 347.781C235.431 347.539 235.972 347.085 236.32 346.493C236.641 346.139 236.857 345.703 236.944 345.233C236.943 344.967 236.878 344.705 236.756 344.469C236.633 344.234 236.456 344.031 236.239 343.877C235.746 343.5 235.138 343.304 234.517 343.321Z" stroke="#1D1D1B" stroke-width="0.873438" stroke-linecap="round" stroke-linejoin="round"/>
<path d="M257.414 297.992C257.238 298.515 257.17 299.068 257.214 299.618C257.259 300.168 257.414 300.703 257.672 301.191C257.938 301.679 258.329 302.088 258.806 302.374C259.283 302.66 259.827 302.813 260.383 302.818C260.933 302.821 261.47 302.645 261.912 302.318C262.354 301.99 262.679 301.529 262.837 301.002" stroke="#1D1D1B" stroke-width="0.873438" stroke-linecap="round" stroke-linejoin="round"/>
<path d="M259.653 297.747C259.473 297.804 259.311 297.908 259.184 298.049C259.058 298.189 258.972 298.362 258.934 298.547C258.825 298.854 258.786 299.182 258.821 299.506C258.856 299.83 258.965 300.141 259.138 300.417C259.329 300.68 259.607 300.866 259.923 300.94C260.239 301.015 260.571 300.974 260.859 300.824C261.129 300.637 261.322 300.357 261.402 300.038C261.485 299.734 261.512 299.417 261.483 299.103" stroke="#1D1D1B" stroke-width="0.873438" stroke-linecap="round" stroke-linejoin="round"/>
<path d="M169.887 308.593C169.813 309.477 170.041 310.36 170.533 311.099C171.026 311.837 171.753 312.387 172.598 312.659C173.451 312.904 174.355 312.907 175.21 312.668C176.064 312.429 176.835 311.956 177.437 311.304C178.002 310.682 178.374 309.91 178.508 309.081C178.586 308.48 178.522 307.869 178.322 307.297C178.122 306.725 177.791 306.208 177.356 305.787C176.917 305.372 176.396 305.054 175.825 304.856C175.255 304.657 174.65 304.582 174.048 304.634" stroke="#1D1D1B" stroke-width="0.873438" stroke-linecap="round" stroke-linejoin="round"/>
<path d="M172.651 311.209C172.23 310.944 171.884 310.576 171.647 310.139C171.41 309.702 171.288 309.212 171.295 308.715C171.298 308.519 171.32 308.323 171.363 308.132C171.51 307.555 171.831 307.038 172.282 306.65C172.733 306.262 173.292 306.022 173.884 305.963H174.115C174.671 305.972 175.213 306.141 175.676 306.448C176.14 306.756 176.506 307.189 176.731 307.698" stroke="#1D1D1B" stroke-width="0.873438" stroke-linecap="round" stroke-linejoin="round"/>
<path d="M40.363 174.976C40.1634 174.773 40.0132 174.527 39.9239 174.256C39.8345 173.986 39.8086 173.699 39.8479 173.417C39.8917 173.134 40.0121 172.868 40.1961 172.648C40.38 172.428 40.6206 172.263 40.8917 172.17C41.1653 172.082 41.4597 172.083 41.7326 172.173C42.0055 172.263 42.2427 172.438 42.4099 172.671" stroke="#1D1D1B" stroke-width="0.873438" stroke-linecap="round" stroke-linejoin="round"/>
<path d="M38.2227 173.66C38.2892 174.296 38.5714 174.889 39.0224 175.341C39.4617 175.809 40.043 176.119 40.6762 176.222C41.311 176.303 41.9549 176.176 42.5118 175.861C43.0688 175.546 43.509 175.059 43.7669 174.474C43.994 173.928 44.0368 173.324 43.8889 172.752C43.7469 172.077 43.3668 171.476 42.818 171.058" stroke="#1D1D1B" stroke-width="0.873438" stroke-linecap="round" stroke-linejoin="round"/>
<path d="M42.3287 164.999C42.0913 165.431 42.0168 165.934 42.1188 166.417C42.2207 166.899 42.4924 167.329 42.8845 167.629C43.2982 167.904 43.7839 168.051 44.2807 168.051C44.7775 168.051 45.2633 167.904 45.6769 167.629C46.0771 167.346 46.4073 166.975 46.6422 166.546C46.8772 166.116 47.0107 165.638 47.0325 165.148C47.0695 164.742 47.0091 164.333 46.8563 163.955C46.7728 163.77 46.6512 163.604 46.4994 163.468C46.3476 163.333 46.169 163.231 45.9752 163.169" stroke="#1D1D1B" stroke-width="0.873438" stroke-linecap="round" stroke-linejoin="round"/>
<path d="M43.536 166.626C43.4001 166.38 43.3156 166.109 43.2876 165.83C43.2597 165.55 43.2888 165.268 43.3733 165C43.4605 164.731 43.6232 164.494 43.8421 164.316C44.0609 164.138 44.3265 164.027 44.6069 163.996C44.8881 163.975 45.1672 164.059 45.3901 164.232C45.6129 164.405 45.7638 164.654 45.8133 164.932" stroke="#1D1D1B" stroke-width="0.873438" stroke-linecap="round" stroke-linejoin="round"/>
<path d="M44.2007 158.355C43.9844 158.84 43.9432 159.385 44.0842 159.897C44.2251 160.409 44.5394 160.856 44.9733 161.161C45.4243 161.442 45.9515 161.574 46.4813 161.54C47.0111 161.506 47.517 161.307 47.9285 160.972C48.3263 160.623 48.6203 160.172 48.7781 159.667C48.936 159.163 48.9516 158.624 48.8231 158.111C48.7667 157.796 48.6242 157.503 48.4112 157.263C48.1983 157.024 47.9233 156.848 47.6167 156.756" stroke="#1D1D1B" stroke-width="0.873438" stroke-linecap="round" stroke-linejoin="round"/>
<path d="M45.6513 160.16C45.4944 159.952 45.3923 159.707 45.3544 159.449C45.3165 159.191 45.344 158.927 45.4344 158.683C45.5433 158.447 45.7174 158.248 45.936 158.109C46.1547 157.97 46.4087 157.896 46.668 157.896C46.9273 157.922 47.1687 158.041 47.3479 158.23C47.5271 158.419 47.6322 158.666 47.644 158.927" stroke="#1D1D1B" stroke-width="0.873438" stroke-linecap="round" stroke-linejoin="round"/>
<path d="M112.371 40.4088C112.763 38.635 113.525 36.9637 114.607 35.504C115.688 34.0442 117.065 32.8286 118.647 31.9365" stroke="#1D1D1B" stroke-width="0.873438" stroke-linecap="round" stroke-linejoin="round"/>
<path d="M114.039 41.1135C116.538 38.7267 119.869 37.4088 123.325 37.4399C126.741 37.5 130.139 37.9548 133.451 38.7955C135.42 39.2922 137.461 39.4481 139.483 39.2563C142.194 38.8497 144.444 37.3314 146.857 36.1928C149.417 34.9373 152.21 34.2266 155.058 34.1052C157.936 33.9732 160.781 34.751 163.192 36.3283" stroke="#1D1D1B" stroke-width="0.873438" stroke-linecap="round" stroke-linejoin="round"/>
<path d="M136.205 45.127C136.542 46.1139 136.652 47.1646 136.525 48.2C136.399 49.2355 136.039 50.2286 135.473 51.1049" stroke="#1D1D1B" stroke-width="0.873438" stroke-linecap="round" stroke-linejoin="round"/>
<path d="M139.971 43.3115C139.583 44.9216 139.63 46.6059 140.106 48.192C140.582 49.7782 141.471 51.2095 142.682 52.3395" stroke="#1D1D1B" stroke-width="0.873438" stroke-linecap="round" stroke-linejoin="round"/>
<path d="M145.529 47.6337C146.438 45.7747 147.792 44.1697 149.473 42.9621C151.153 41.7545 153.106 40.9819 155.157 40.7134C157.209 40.4448 159.295 40.6887 161.229 41.4232C163.164 42.1578 164.886 43.36 166.242 44.9226" stroke="#1D1D1B" stroke-width="0.873438" stroke-linecap="round" stroke-linejoin="round"/>
<path d="M134.844 65.9473C134.872 67.3585 134.647 68.7633 134.18 70.0953C133.87 71.0553 133.638 72.0391 133.488 73.0368C133.454 73.4337 133.454 73.8328 133.488 74.2297C133.492 74.8495 133.621 75.4623 133.868 76.0308C134.115 76.5993 134.475 77.1118 134.925 77.5373C135.057 77.6475 135.198 77.7472 135.346 77.8355" stroke="#1D1D1B" stroke-width="0.873438" stroke-linecap="round" stroke-linejoin="round"/>
<path d="M112.031 49.7897C113.186 48.4663 114.635 47.4314 116.261 46.7677C117.888 46.1039 119.647 45.8298 121.398 45.9671C124.898 46.2943 128.317 47.2109 131.511 48.6782" stroke="#1D1D1B" stroke-width="0.873438" stroke-linecap="round" stroke-linejoin="round"/>
<path d="M132.107 72.9561C131.12 73.971 130.297 75.1325 129.667 76.3991C129.357 77.0321 129.195 77.7276 129.195 78.4325C129.195 79.1373 129.357 79.8328 129.667 80.4658C129.741 80.5952 129.828 80.7178 129.924 80.8318C130.357 81.3733 130.942 81.7742 131.603 81.9841C132.264 82.194 132.972 82.2034 133.638 82.0112" stroke="#1D1D1B" stroke-width="0.873438" stroke-linecap="round" stroke-linejoin="round"/>
<path d="M131.783 80.4941C131.953 80.219 132.193 79.9945 132.48 79.8443C132.766 79.694 133.087 79.6235 133.41 79.6401H133.586C134.288 79.7409 134.965 79.9755 135.579 80.3314L137.585 81.3345" stroke="#1D1D1B" stroke-width="0.873438" stroke-linecap="round" stroke-linejoin="round"/>
<path d="M133.07 80.0596C133.155 80.3577 133.332 80.6216 133.575 80.8138C133.819 81.0059 134.116 81.1168 134.426 81.1305" stroke="#1D1D1B" stroke-width="0.873438" stroke-linecap="round" stroke-linejoin="round"/>
<path d="M142.191 81.0223C142.887 80.6391 143.541 80.1848 144.143 79.6667C144.446 79.401 144.813 79.2188 145.207 79.138C145.602 79.0571 146.011 79.0805 146.394 79.2058C146.599 79.3054 146.778 79.4517 146.917 79.6329C147.056 79.8141 147.151 80.0253 147.193 80.2496C147.238 80.4738 147.226 80.7057 147.157 80.9237C147.088 81.1418 146.966 81.3389 146.8 81.4967" stroke="#1D1D1B" stroke-width="0.873438" stroke-linecap="round" stroke-linejoin="round"/>
<path d="M148.701 81.9847C149.294 81.6009 149.768 81.0581 150.067 80.4181C150.367 79.7782 150.48 79.0668 150.395 78.3654C150.188 76.9635 149.607 75.6431 148.714 74.5427C147.887 73.4176 146.911 72.3873 146.139 71.208" stroke="#1D1D1B" stroke-width="0.873438" stroke-linecap="round" stroke-linejoin="round"/>
<path d="M118.768 25.6191L118.32 25.7547C114.484 27.0289 110.431 27.5576 106.581 28.764C102.731 29.9705 98.5833 32.1394 96.4551 35.7587" stroke="#1D1D1B" stroke-width="0.873438" stroke-linecap="round" stroke-linejoin="round"/>
<path d="M110.133 29.8096C105.193 32.3718 101.154 36.3827 98.5566 41.3047" stroke="#1D1D1B" stroke-width="0.873438" stroke-linecap="round" stroke-linejoin="round"/>
<path d="M103.086 38.8359C102.507 41.6882 101.597 44.4633 100.375 47.1048L100.592 47.01" stroke="#1D1D1B" stroke-width="0.873438" stroke-linecap="round" stroke-linejoin="round"/>
<path d="M101.934 21.5394C105.77 16.917 111.978 14.9107 117.956 14.3821C120.014 14.1301 122.099 14.2263 124.124 14.6668C126.164 15.1079 127.981 16.2613 129.248 17.9201C129.866 18.7538 130.25 19.7377 130.36 20.7699C130.47 21.802 130.301 22.8447 129.872 23.7896" stroke="#1D1D1B" stroke-width="0.873438" stroke-linecap="round" stroke-linejoin="round"/>
<path d="M137.287 23.9257C138.387 22.8117 139.227 21.4686 139.747 19.9923C140.267 18.516 140.455 16.943 140.296 15.3857" stroke="#1D1D1B" stroke-width="0.873438" stroke-linecap="round" stroke-linejoin="round"/>
<path d="M144.619 4.65039C147.223 5.1627 149.748 6.01496 152.129 7.18528C154.525 8.37826 156.366 10.4527 157.266 12.9735C157.652 14.5993 157.622 16.2958 157.179 17.9068C156.736 19.5178 155.894 20.9913 154.732 22.1913" stroke="#1D1D1B" stroke-width="0.873438" stroke-linecap="round" stroke-linejoin="round"/>
<path d="M155.178 14.9932C155.084 16.364 154.667 17.693 153.96 18.8712C153.253 20.0494 152.277 21.0432 151.111 21.771" stroke="#1D1D1B" stroke-width="0.873438" stroke-linecap="round" stroke-linejoin="round"/>
<path d="M152.471 17.8945C151.52 19.5541 150.107 20.9011 148.404 21.7714" stroke="#1D1D1B" stroke-width="0.873438" stroke-linecap="round" stroke-linejoin="round"/>
<path d="M149.322 19.3164L146.732 21.4582" stroke="#1D1D1B" stroke-width="0.873438" stroke-linecap="round" stroke-linejoin="round"/>
<path d="M148.778 16.1455C147.571 18.6933 145.625 20.8189 143.193 22.2455" stroke="#1D1D1B" stroke-width="0.873438" stroke-linecap="round" stroke-linejoin="round"/>
<path d="M142.451 20.0215C142.134 20.9919 141.579 21.8678 140.838 22.5699" stroke="#1D1D1B" stroke-width="0.873438" stroke-linecap="round" stroke-linejoin="round"/>
<path d="M160.805 21.8112C162.55 20.87 164.563 20.5453 166.516 20.8897C168.469 21.2341 170.249 22.2274 171.568 23.709" stroke="#1D1D1B" stroke-width="0.873438" stroke-linecap="round" stroke-linejoin="round"/>
<path d="M162.836 23.4639C170.785 26.1132 177.411 31.7193 181.339 39.1205" stroke="#1D1D1B" stroke-width="0.873438" stroke-linecap="round" stroke-linejoin="round"/>
<path d="M171.012 34.7695C174.615 38.6646 177.486 43.1788 179.484 48.0946" stroke="#1D1D1B" stroke-width="0.873438" stroke-linecap="round" stroke-linejoin="round"/>
<path d="M172.125 39.0547C174.574 44.2871 177.023 49.5106 179.472 54.7249" stroke="#1D1D1B" stroke-width="0.873438" stroke-linecap="round" stroke-linejoin="round"/>
<path d="M171.503 74.7998C168.287 78.9196 166.216 83.8155 165.498 88.9925" stroke="#1D1D1B" stroke-width="0.873438" stroke-linecap="round" stroke-linejoin="round"/>
<path d="M150.557 78.6357C151.587 85.6982 158.69 90.7409 159.612 97.8034" stroke="#1D1D1B" stroke-width="0.873438" stroke-linecap="round" stroke-linejoin="round"/>
<path d="M129.058 81.9023C128.109 86.1181 126.184 90.0357 124.693 94.1024C124.254 95.1425 124.011 96.2545 123.975 97.3828C123.991 97.8119 124.069 98.2364 124.205 98.6435C124.427 99.3214 124.877 99.9012 125.479 100.284" stroke="#1D1D1B" stroke-width="0.873438" stroke-linecap="round" stroke-linejoin="round"/>
<path d="M127.281 97.3969C127.602 97.5127 127.942 97.5627 128.282 97.5441C128.622 97.5255 128.955 97.4385 129.26 97.2884C132.175 96.2717 135.103 95.2551 138.058 94.3875C138.665 94.5275 139.281 94.6272 139.901 94.6858C140.349 94.6858 140.783 94.7806 141.257 94.8078C143.146 94.1493 145.142 93.8549 147.14 93.9402C150.101 94.3615 153.028 94.9957 155.897 95.838" stroke="#1D1D1B" stroke-width="0.873438" stroke-linecap="round" stroke-linejoin="round"/>
<path d="M135.414 98.4805C139.961 99.0295 144.558 99.0295 149.105 98.4805" stroke="#1D1D1B" stroke-width="0.873438" stroke-linecap="round" stroke-linejoin="round"/>
<path d="M139.275 84.9248C139.343 86.6464 139.411 88.3679 139.465 90.0895C139.454 90.4978 139.528 90.904 139.682 91.2824C139.806 91.5203 140.014 91.7038 140.265 91.7975C140.398 91.8313 140.538 91.8313 140.672 91.7975" stroke="#1D1D1B" stroke-width="0.873438" stroke-linecap="round" stroke-linejoin="round"/>
<path d="M176.381 71.5609C177.782 69.1777 179.558 67.0355 181.64 65.2169C182.162 64.7283 182.819 64.4073 183.525 64.2951H183.701C184.022 64.2899 184.334 64.3987 184.583 64.6023C184.831 64.8058 184.999 65.0909 185.056 65.4067" stroke="#1D1D1B" stroke-width="0.873438" stroke-linecap="round" stroke-linejoin="round"/>
<path d="M183.646 64.7559C184.166 66.9418 184.164 69.2193 183.642 71.4045C183.119 73.5898 182.09 75.6214 180.637 77.3354C180.471 77.5866 180.213 77.7621 179.918 77.8235C179.726 77.8209 179.54 77.7521 179.392 77.6287C179.243 77.5053 179.142 77.3348 179.105 77.1457C179.044 76.7686 179.044 76.3841 179.105 76.007C179.177 75.3681 179.091 74.7213 178.854 74.1234C178.618 73.5255 178.239 72.9947 177.749 72.5775C178.163 73.7811 178.163 75.0881 177.749 76.2917C177.307 77.4859 176.482 78.5008 175.404 79.179" stroke="#1D1D1B" stroke-width="0.873438" stroke-linecap="round" stroke-linejoin="round"/>
<path d="M178.797 79.9238C178.368 82.4148 177.14 84.6987 175.299 86.4305C175.123 86.5932 174.784 86.7152 174.676 86.4983" stroke="#1D1D1B" stroke-width="0.873438" stroke-linecap="round" stroke-linejoin="round"/>
<path d="M180.828 66.2861C181.099 66.3181 181.353 66.431 181.559 66.6099C181.765 66.7889 181.911 67.0256 181.98 67.2892C182.134 67.8076 182.18 68.352 182.116 68.8888C182.122 70.5055 181.846 72.1108 181.303 73.6333" stroke="#1D1D1B" stroke-width="0.873438" stroke-linecap="round" stroke-linejoin="round"/>
<path d="M107.611 82.0527C108.327 85.0437 110.026 87.7076 112.437 89.6167L112.288 89.4541" stroke="#1D1D1B" stroke-width="0.873438" stroke-linecap="round" stroke-linejoin="round"/>
<path d="M108.305 74.8672C108.15 76.2129 108.349 77.5758 108.881 78.8214C109.414 80.067 110.262 81.1523 111.341 81.9703" stroke="#1D1D1B" stroke-width="0.873438" stroke-linecap="round" stroke-linejoin="round"/>
<path d="M113.904 77.6729C116.44 82.4645 118.349 87.5626 119.584 92.8415" stroke="#1D1D1B" stroke-width="0.873438" stroke-linecap="round" stroke-linejoin="round"/>
<path d="M118.514 59.8625C119.585 58.4857 121.158 57.5898 122.888 57.3713C124.619 57.1527 126.365 57.6294 127.745 58.6967" stroke="#1D1D1B" stroke-width="0.873438" stroke-linecap="round" stroke-linejoin="round"/>
<path d="M128.634 61.1895C128.195 63.0795 127.507 64.9028 126.587 66.6117C126.125 67.4637 125.499 68.216 124.746 68.8255C123.992 69.435 123.125 69.8896 122.195 70.1632" stroke="#1D1D1B" stroke-width="0.873438" stroke-linecap="round" stroke-linejoin="round"/>
<path d="M150.678 57.124C151.225 56.488 151.893 55.9676 152.644 55.5933C153.394 55.2189 154.212 54.9982 155.049 54.9439C155.886 54.8896 156.725 55.0029 157.518 55.2771C158.311 55.5514 159.041 55.9811 159.665 56.5411" stroke="#1D1D1B" stroke-width="0.873438" stroke-linecap="round" stroke-linejoin="round"/>
<path d="M151.018 60.0391C151.594 62.3405 153.001 64.3475 154.968 65.6738C156.935 67.0002 159.323 67.5522 161.672 67.2235" stroke="#1D1D1B" stroke-width="0.873438" stroke-linecap="round" stroke-linejoin="round"/>
<path d="M123.633 57.666L123.917 60.6482" stroke="#1D1D1B" stroke-width="1.74688" stroke-linecap="round" stroke-linejoin="round"/>
<path d="M155.057 55.4824C155.057 56.3229 155.179 57.1633 155.233 58.0038" stroke="#1D1D1B" stroke-width="1.74688" stroke-linecap="round" stroke-linejoin="round"/>
<path d="M178.48 253.244C178.247 254.002 178.276 254.816 178.564 255.554C178.852 256.293 179.381 256.912 180.066 257.311C180.78 257.676 181.59 257.808 182.382 257.689C183.175 257.57 183.91 257.205 184.485 256.647C185.205 255.9 185.613 254.906 185.624 253.868C185.625 253.414 185.536 252.965 185.361 252.546C185.186 252.127 184.93 251.747 184.607 251.428C184.282 251.114 183.883 250.886 183.448 250.765C183.012 250.645 182.553 250.635 182.113 250.737" stroke="#1D1D1B" stroke-width="0.873438" stroke-linecap="round" stroke-linejoin="round"/>
<path d="M181.111 256.052C180.873 255.936 180.67 255.76 180.52 255.542C180.37 255.323 180.28 255.069 180.257 254.805C180.242 254.539 180.279 254.273 180.368 254.021C180.456 253.77 180.594 253.539 180.772 253.341C180.938 253.136 181.143 252.966 181.376 252.842C181.609 252.719 181.865 252.644 182.128 252.623C182.405 252.614 182.679 252.682 182.919 252.821C183.158 252.96 183.354 253.164 183.484 253.409" stroke="#1D1D1B" stroke-width="0.873438" stroke-linecap="round" stroke-linejoin="round"/>
<path d="M176.085 223.194C175.869 223.14 175.667 223.039 175.494 222.898C175.321 222.756 175.181 222.579 175.085 222.378C174.988 222.177 174.937 221.957 174.936 221.733C174.934 221.51 174.981 221.29 175.074 221.087C175.168 220.884 175.305 220.704 175.475 220.561C175.646 220.417 175.846 220.312 176.061 220.255C176.277 220.197 176.503 220.188 176.722 220.227C176.942 220.267 177.15 220.354 177.332 220.483" stroke="#1D1D1B" stroke-width="0.873438" stroke-linecap="round" stroke-linejoin="round"/>
<path d="M172.951 222.393C173.065 223.08 173.376 223.72 173.845 224.235C174.315 224.75 174.924 225.117 175.599 225.293C176.273 225.469 176.984 225.446 177.645 225.226C178.306 225.006 178.89 224.6 179.325 224.055C179.76 223.511 180.028 222.852 180.097 222.159C180.165 221.465 180.032 220.767 179.711 220.148C179.391 219.529 178.899 219.016 178.293 218.671C177.688 218.326 176.995 218.164 176.299 218.204" stroke="#1D1D1B" stroke-width="0.873438" stroke-linecap="round" stroke-linejoin="round"/>
<path d="M140.324 120.523L147.793 130.433" stroke="#1D1D1B" stroke-width="0.873438" stroke-linecap="round" stroke-linejoin="round"/>
<path d="M157.496 118.23C156.084 120.273 155.406 122.734 155.571 125.212C155.748 127.668 156.202 130.096 156.927 132.45" stroke="#1D1D1B" stroke-width="0.873438" stroke-linecap="round" stroke-linejoin="round"/>
</svg>
