<svg width="96" height="97" viewBox="0 0 96 97" fill="none" xmlns="http://www.w3.org/2000/svg">
<g clip-path="url(#clip0_301_156)">
<rect width="96" height="95.9994" transform="translate(0 0.0617676)" fill="white"/>
<rect x="37.125" y="0.0617676" width="61.8748" height="29.6999" fill="#0045E7"/>
<rect y="34.7117" width="61.8748" height="29.6999" fill="#0045E7"/>
<rect y="69.3612" width="17.3249" height="29.6999" fill="#0045E7"/>
<rect x="61.873" y="69.3612" width="37.1249" height="29.6999" fill="#0045E7"/>
<rect x="69.3008" y="34.7117" width="29.6999" height="29.6999" fill="black"/>
<rect x="24.75" y="69.3612" width="29.6999" height="29.6999" fill="black"/>
<rect y="0.0617676" width="29.6999" height="29.6999" fill="black"/>
<path d="M14.308 7.00684C16.9763 7.00684 19.1314 7.58154 20.7734 8.73095C22.436 9.85983 23.2673 11.5942 23.2673 13.9341H17.3252C17.3252 12.0868 16.3195 11.1632 14.308 11.1632C12.2966 11.1632 11.2908 12.3229 11.2908 14.6422V16.3971C11.2908 18.6959 12.3376 19.8453 14.4312 19.8453C16.5247 19.8453 17.5715 18.9012 17.5715 17.0129H23.2673C23.2673 19.3732 22.436 21.1281 20.7734 22.2776C19.1314 23.427 16.9763 24.0017 14.308 24.0017C11.455 24.0017 9.21778 23.2833 7.59629 21.8465C5.97481 20.4098 5.16406 18.2957 5.16406 15.5043C5.16406 12.7128 5.97481 10.5987 7.59629 9.16198C9.21778 7.72522 11.455 7.00684 14.308 7.00684Z" fill="white"/>
<path d="M39.1908 75.5452C41.8591 75.5452 44.0142 76.1199 45.6563 77.2693C47.3188 78.3982 48.1501 80.1325 48.1501 82.4724H42.208C42.208 80.6251 41.2023 79.7015 39.1908 79.7015C37.1794 79.7015 36.1736 80.8612 36.1736 83.1805V84.9354C36.1736 87.2342 37.2204 88.3837 39.314 88.3837C41.4076 88.3837 42.4543 87.4395 42.4543 85.5512H48.1501C48.1501 87.9116 47.3188 89.6665 45.6563 90.8159C44.0142 91.9653 41.8591 92.54 39.1908 92.54C36.3378 92.54 34.1006 91.8216 32.4791 90.3849C30.8576 88.9481 30.0469 86.834 30.0469 84.0426C30.0469 81.2512 30.8576 79.1371 32.4791 77.7003C34.1006 76.2635 36.3378 75.5452 39.1908 75.5452Z" fill="white"/>
<path d="M86.4314 38.23C88.6276 38.23 90.3209 38.9484 91.5114 40.3851C92.7018 41.8219 93.2971 43.9462 93.2971 46.7582C93.2971 49.5496 92.7018 51.6637 91.5114 53.1005C90.3209 54.5167 88.6276 55.2248 86.4314 55.2248C84.5431 55.2248 83.0242 54.6091 81.8748 53.3775V60.9205H75.748V38.5994H80.7357L81.2591 40.9085C82.4495 39.1228 84.1736 38.23 86.4314 38.23ZM84.5226 42.7558C83.6194 42.7558 82.9421 43.0739 82.4906 43.7102C82.039 44.3465 81.8132 45.1777 81.8132 46.204V47.22C81.8132 48.2463 82.039 49.0878 82.4906 49.7446C82.9421 50.3809 83.6194 50.699 84.5226 50.699C86.2877 50.699 87.1703 49.642 87.1703 47.5279V45.8961C87.1703 43.8026 86.2877 42.7558 84.5226 42.7558Z" fill="white"/>
</g>
<defs>
<clipPath id="clip0_301_156">
<rect width="96" height="95.9994" fill="white" transform="translate(0 0.0617676)"/>
</clipPath>
</defs>
</svg>
