<svg width="172" height="116" viewBox="0 0 172 116" fill="none" xmlns="http://www.w3.org/2000/svg">
<path d="M16.8396 12.9644C21.2223 12.9644 24.7622 13.9055 27.4592 15.7876C30.19 17.6362 31.5554 20.4763 31.5554 24.3079H21.7954C21.7954 21.283 20.1435 19.7705 16.8396 19.7705C13.5357 19.7705 11.8837 21.6695 11.8837 25.4675V28.3412C11.8837 32.1056 13.6031 33.9878 17.0418 33.9878C20.4806 33.9878 22.2 32.4417 22.2 29.3495H31.5554C31.5554 33.2147 30.19 36.0884 27.4592 37.9706C24.7622 39.8528 21.2223 40.7939 16.8396 40.7939C12.1534 40.7939 8.47868 39.6175 5.81533 37.2648C3.15199 34.9121 1.82031 31.4502 1.82031 26.8791C1.82031 22.3081 3.15199 18.8462 5.81533 16.4935C8.47868 14.1407 12.1534 12.9644 16.8396 12.9644Z" fill="black"/>
<path d="M49.9624 12.9644C54.0417 12.9644 57.3625 13.6534 59.9247 15.0314C62.4869 16.3758 63.768 18.5773 63.768 21.6359V32.0215C63.768 32.5929 63.9029 33.0635 64.1726 33.4332C64.4423 33.8029 64.8468 33.9878 65.3862 33.9878H67.2067V39.7856C67.1056 39.8528 66.8359 39.9704 66.3976 40.1385C65.9931 40.2729 65.4031 40.4074 64.6277 40.5418C63.8523 40.7099 62.9589 40.7939 61.9475 40.7939C59.9921 40.7939 58.3739 40.5082 57.0928 39.9368C55.8454 39.3318 54.9857 38.5084 54.5137 37.4665C53.2326 38.4748 51.7998 39.2814 50.2153 39.8864C48.6308 40.4914 46.7765 40.7939 44.6526 40.7939C38.3819 40.7939 35.2466 38.3067 35.2466 33.3324C35.2466 30.7443 35.9377 28.7781 37.32 27.4337C38.7359 26.0557 40.7587 25.1146 43.3883 24.6104C46.018 24.1063 49.4567 23.8542 53.7046 23.8542V22.5434C53.7046 21.5014 53.3338 20.7116 52.5921 20.1738C51.8841 19.6361 50.957 19.3672 49.8107 19.3672C48.7656 19.3672 47.8553 19.552 47.0799 19.9217C46.3383 20.2915 45.9674 20.8796 45.9674 21.6863V21.888H36.0557C36.022 21.7199 36.0051 21.4846 36.0051 21.1821C36.0051 18.6613 37.202 16.6615 39.5956 15.1827C42.023 13.7038 45.4786 12.9644 49.9624 12.9644ZM53.7046 28.5933C50.839 28.5933 48.715 28.9126 47.3328 29.5512C45.9843 30.1562 45.31 30.9796 45.31 32.0215C45.31 33.7021 46.4563 34.5423 48.7488 34.5423C50.0636 34.5423 51.2098 34.1894 52.1875 33.4836C53.1989 32.7778 53.7046 31.9039 53.7046 30.862V28.5933Z" fill="black"/>
<path d="M83.1864 12.9644C86.76 12.9644 89.7774 13.6702 92.2384 15.0818C94.7332 16.4599 95.9806 18.6109 95.9806 21.5351H86.6252C86.6252 20.5603 86.1869 19.8713 85.3104 19.468C84.7035 19.1319 83.945 18.9638 83.0347 18.9638C80.6074 18.9638 79.3937 19.5352 79.3937 20.678C79.3937 21.3166 79.8151 21.7703 80.6579 22.0392C81.5008 22.3081 82.883 22.5938 84.8047 22.8963C87.1646 23.2324 89.1368 23.6357 90.7213 24.1063C92.3059 24.5432 93.6881 25.3498 94.8681 26.5262C96.048 27.669 96.638 29.2823 96.638 31.3661C96.638 34.7608 95.3569 37.1808 92.7947 38.626C90.2662 40.0713 86.9455 40.7939 82.8324 40.7939C80.4725 40.7939 78.2474 40.4746 76.1572 39.836C74.067 39.1638 72.3645 38.1387 71.0497 36.7606C69.7348 35.3826 69.0774 33.6349 69.0774 31.5174H78.4329V31.7191C78.4666 32.8618 78.9386 33.6685 79.8488 34.139C80.7928 34.5759 81.7873 34.7944 82.8324 34.7944C85.6306 34.7944 87.0297 34.139 87.0297 32.8282C87.0297 32.156 86.5915 31.6686 85.7149 31.3661C84.8384 31.0636 83.4056 30.7443 81.4165 30.4082C79.0228 30.0049 77.0506 29.568 75.4998 29.0974C73.9827 28.6269 72.651 27.837 71.5048 26.7279C70.3585 25.5851 69.7854 24.0054 69.7854 21.9888C69.7854 18.7286 71.016 16.4094 73.477 15.0314C75.9718 13.6534 79.2083 12.9644 83.1864 12.9644Z" fill="black"/>
<path d="M115.214 12.9644C120.102 12.9644 123.827 14.1071 126.39 16.3926C128.986 18.6782 130.284 22.1737 130.284 26.8791V28.5933H110.258C110.258 30.5091 110.679 31.9543 111.522 32.929C112.399 33.9037 113.764 34.3911 115.618 34.3911C117.304 34.3911 118.535 34.0382 119.31 33.3324C120.119 32.6265 120.524 31.6854 120.524 30.5091H130.284C130.284 33.7357 129.053 36.2565 126.592 38.0714C124.131 39.8864 120.54 40.7939 115.821 40.7939C110.865 40.7939 107.021 39.6511 104.291 37.3656C101.56 35.0465 100.195 31.551 100.195 26.8791C100.195 22.3081 101.526 18.8462 104.19 16.4935C106.853 14.1407 110.528 12.9644 115.214 12.9644ZM115.618 19.3672C112.449 19.3672 110.679 20.8628 110.308 23.8542H120.119C120.119 22.4761 119.714 21.3838 118.905 20.5771C118.13 19.7705 117.034 19.3672 115.618 19.3672Z" fill="black"/>
<path d="M40.743 47.9051C44.3503 47.9051 47.1316 49.0815 49.087 51.4342C51.0424 53.787 52.0201 57.2657 52.0201 61.8703C52.0201 66.4414 51.0424 69.9032 49.087 72.256C47.1316 74.5751 44.3503 75.7347 40.743 75.7347C37.6414 75.7347 35.1466 74.7264 33.2586 72.7097V85.0616H23.1952V48.5101H31.3876L32.2472 52.2913C34.2026 49.3672 37.0345 47.9051 40.743 47.9051ZM37.6076 55.3163C36.1243 55.3163 35.0117 55.8372 34.27 56.8792C33.5283 57.9211 33.1575 59.2823 33.1575 60.9628V62.6266C33.1575 64.3071 33.5283 65.6851 34.27 66.7607C35.0117 67.8026 36.1243 68.3235 37.6076 68.3235C40.507 68.3235 41.9567 66.5926 41.9567 63.1307V60.4587C41.9567 57.0304 40.507 55.3163 37.6076 55.3163Z" fill="black"/>
<path d="M70.0731 47.9051C74.1524 47.9051 77.4732 48.5941 80.0354 49.9722C82.5976 51.3166 83.8787 53.5181 83.8787 56.5767V66.9623C83.8787 67.5337 84.0135 68.0042 84.2832 68.374C84.5529 68.7437 84.9575 68.9285 85.4969 68.9285H87.3174V74.7264C87.2163 74.7936 86.9466 74.9112 86.5083 75.0793C86.1038 75.2137 85.5138 75.3482 84.7384 75.4826C83.963 75.6507 83.0696 75.7347 82.0582 75.7347C80.1028 75.7347 78.4846 75.449 77.2035 74.8776C75.9561 74.2726 75.0964 73.4492 74.6244 72.4072C73.3433 73.4156 71.9105 74.2222 70.326 74.8272C68.7414 75.4322 66.8872 75.7347 64.7633 75.7347C58.4926 75.7347 55.3573 73.2475 55.3573 68.2731C55.3573 65.6851 56.0484 63.7189 57.4306 62.3745C58.8466 60.9964 60.8694 60.0553 63.499 59.5512C66.1287 59.047 69.5674 58.795 73.8153 58.795V57.4841C73.8153 56.4422 73.4444 55.6524 72.7027 55.1146C71.9948 54.5768 71.0676 54.3079 69.9214 54.3079C68.8763 54.3079 67.966 54.4928 67.1906 54.8625C66.4489 55.2322 66.0781 55.8204 66.0781 56.6271V56.8287H56.1664C56.1327 56.6607 56.1158 56.4254 56.1158 56.1229C56.1158 53.6021 57.3126 51.6023 59.7063 50.1234C62.1336 48.6446 65.5892 47.9051 70.0731 47.9051ZM73.8153 63.534C70.9496 63.534 68.8257 63.8533 67.4435 64.4919C66.0949 65.0969 65.4207 65.9204 65.4207 66.9623C65.4207 68.6428 66.5669 69.4831 68.8594 69.4831C70.1742 69.4831 71.3205 69.1302 72.2982 68.4244C73.3096 67.7186 73.8153 66.8447 73.8153 65.8028V63.534Z" fill="black"/>
<path d="M106.837 47.8547C107.612 47.8547 108.304 47.9555 108.91 48.1572C109.517 48.3253 109.821 48.4261 109.821 48.4597V56.8792H106.584C104.494 56.8792 102.977 57.4169 102.033 58.4925C101.123 59.568 100.667 61.1645 100.667 63.282V75.1297H90.6041V48.5101H98.847L99.5044 52.5434C100.111 50.9973 101.072 49.8377 102.387 49.0647C103.702 48.258 105.185 47.8547 106.837 47.8547Z" fill="black"/>
<path d="M55.7392 82.8459C60.1219 82.8459 63.6618 83.787 66.3589 85.6692C69.0897 87.5178 70.455 90.3579 70.455 94.1895H60.6951C60.6951 91.1645 59.0431 89.652 55.7392 89.652C52.4353 89.652 50.7834 91.551 50.7834 95.349V98.2227C50.7834 101.987 52.5027 103.869 55.9415 103.869C59.3802 103.869 61.0996 102.323 61.0996 99.2311H70.455C70.455 103.096 69.0897 105.97 66.3589 107.852C63.6618 109.734 60.1219 110.675 55.7392 110.675C51.0531 110.675 47.3783 109.499 44.715 107.146C42.0516 104.794 40.72 101.332 40.72 96.7607C40.72 92.1896 42.0516 88.7278 44.715 86.375C47.3783 84.0223 51.0531 82.8459 55.7392 82.8459Z" fill="black"/>
<path d="M88.8621 82.8459C92.9414 82.8459 96.2621 83.5349 98.8243 84.913C101.387 86.2574 102.668 88.4589 102.668 91.5174V101.903C102.668 102.474 102.803 102.945 103.072 103.315C103.342 103.684 103.746 103.869 104.286 103.869H106.106V109.667C106.005 109.734 105.736 109.852 105.297 110.02C104.893 110.154 104.303 110.289 103.527 110.423C102.752 110.591 101.859 110.675 100.847 110.675C98.8918 110.675 97.2735 110.39 95.9924 109.818C94.745 109.213 93.8854 108.39 93.4134 107.348C92.1323 108.356 90.6995 109.163 89.1149 109.768C87.5304 110.373 85.6762 110.675 83.5523 110.675C77.2816 110.675 74.1463 108.188 74.1463 103.214C74.1463 100.626 74.8374 98.6597 76.2196 97.3153C77.6356 95.9372 79.6584 94.9961 82.288 94.492C84.9176 93.9878 88.3564 93.7357 92.6043 93.7357V92.4249C92.6043 91.383 92.2334 90.5931 91.4917 90.0554C90.7837 89.5176 89.8566 89.2487 88.7104 89.2487C87.6653 89.2487 86.755 89.4336 85.9796 89.8033C85.2379 90.173 84.8671 90.7612 84.8671 91.5678V91.7695H74.9554C74.9217 91.6015 74.9048 91.3662 74.9048 91.0637C74.9048 88.5429 76.1016 86.5431 78.4953 85.0642C80.9226 83.5853 84.3782 82.8459 88.8621 82.8459ZM92.6043 98.4748C89.7386 98.4748 87.6147 98.7941 86.2325 99.4327C84.8839 100.038 84.2097 100.861 84.2097 101.903C84.2097 103.584 85.3559 104.424 87.6484 104.424C88.9632 104.424 90.1095 104.071 91.0872 103.365C92.0986 102.659 92.6043 101.785 92.6043 100.744V98.4748Z" fill="black"/>
<path d="M122.086 82.8459C125.66 82.8459 128.677 83.5517 131.138 84.9634C133.633 86.3414 134.88 88.4925 134.88 91.4166H125.525C125.525 90.4419 125.087 89.7529 124.21 89.3495C123.603 89.0134 122.845 88.8454 121.934 88.8454C119.507 88.8454 118.293 89.4168 118.293 90.5595C118.293 91.1981 118.715 91.6519 119.558 91.9208C120.4 92.1896 121.783 92.4753 123.704 92.7778C126.064 93.1139 128.036 93.5173 129.621 93.9878C131.206 94.4247 132.588 95.2314 133.768 96.4078C134.948 97.5505 135.538 99.1638 135.538 101.248C135.538 104.642 134.257 107.062 131.694 108.508C129.166 109.953 125.845 110.675 121.732 110.675C119.372 110.675 117.147 110.356 115.057 109.718C112.967 109.045 111.264 108.02 109.949 106.642C108.635 105.264 107.977 103.516 107.977 101.399H117.333V101.601C117.366 102.743 117.838 103.55 118.748 104.021C119.692 104.457 120.687 104.676 121.732 104.676C124.53 104.676 125.929 104.021 125.929 102.71C125.929 102.038 125.491 101.55 124.615 101.248C123.738 100.945 122.305 100.626 120.316 100.29C117.923 99.8865 115.95 99.4495 114.399 98.979C112.882 98.5084 111.551 97.7186 110.404 96.6094C109.258 95.4667 108.685 93.887 108.685 91.8703C108.685 88.6101 109.916 86.291 112.377 84.913C114.871 83.5349 118.108 82.8459 122.086 82.8459Z" fill="black"/>
<path d="M154.113 82.8459C159.002 82.8459 162.727 83.9887 165.289 86.2742C167.885 88.5597 169.183 92.0552 169.183 96.7607V98.4748H149.158C149.158 100.391 149.579 101.836 150.422 102.811C151.298 103.785 152.664 104.273 154.518 104.273C156.204 104.273 157.434 103.92 158.21 103.214C159.019 102.508 159.423 101.567 159.423 100.391H169.183C169.183 103.617 167.953 106.138 165.492 107.953C163.031 109.768 159.44 110.675 154.72 110.675C149.764 110.675 145.921 109.533 143.19 107.247C140.46 104.928 139.094 101.433 139.094 96.7607C139.094 92.1896 140.426 88.7278 143.089 86.375C145.753 84.0223 149.427 82.8459 154.113 82.8459ZM154.518 89.2487C151.349 89.2487 149.579 90.7444 149.208 93.7357H159.019C159.019 92.3577 158.614 91.2653 157.805 90.4587C157.03 89.652 155.934 89.2487 154.518 89.2487Z" fill="black"/>
<rect x="129.773" y="48.0947" width="16.9342" height="8.10367" fill="#4CB232"/>
<rect x="119.613" y="57.5488" width="16.9342" height="8.10367" fill="#4CB232"/>
<rect x="119.613" y="67.0034" width="4.74158" height="8.10367" fill="#4CB232"/>
<rect x="136.547" y="67.0034" width="10.1605" height="8.10367" fill="#4CB232"/>
<rect x="138.58" y="57.5488" width="8.12843" height="8.10367" fill="black"/>
<rect x="126.387" y="67.0034" width="8.12843" height="8.10367" fill="black"/>
<rect x="119.613" y="48.0947" width="8.12843" height="8.10367" fill="black"/>
</svg>
