<svg width="124" height="378" viewBox="0 0 124 378" fill="none" xmlns="http://www.w3.org/2000/svg">
<path d="M117.88 136.12L116.37 136.8C116.283 136.284 116.042 135.807 115.68 135.43C114.27 133.87 111.97 133.43 109.87 133.55C108.283 133.568 106.72 133.934 105.29 134.62L104.29 132.49C103.68 132.78 103.07 133.08 102.47 133.39L99.7396 133.32C99.8196 133.08 99.8996 132.84 99.9696 132.61C101.58 127.21 98.3196 121.52 98.6796 115.91C97.6232 121.884 95.9475 127.733 93.6796 133.36C93.0496 134.94 92.3596 136.63 92.7296 138.29C93.2096 140.45 95.3996 142.09 95.3296 144.29C95.3244 144.471 95.3043 144.652 95.2696 144.83C95.1071 145.445 94.814 146.018 94.4102 146.51C94.0064 147.002 93.5014 147.401 92.9296 147.68C91.6071 148.285 90.1891 148.654 88.7396 148.77H88.6596C88.4777 147.923 88.2234 147.093 87.8996 146.29L87.7296 145.86C86.2096 146.407 84.5792 146.575 82.9796 146.35C82.2896 146.4 81.6596 146.43 80.9796 146.54L79.8196 146.69C79.1096 146.78 78.3896 146.87 77.6796 146.94C73.7862 147.367 69.8829 147.613 65.9696 147.68C65.2096 147.68 64.4396 147.68 63.6696 147.68C61.3829 147.68 59.0929 147.617 56.7996 147.49C54.9096 147.49 53.0296 147.41 51.1396 147.33V146.27C47.0696 142.86 46.5596 136.62 48.1396 131.56C49.7196 126.5 53.0196 122.18 55.6196 117.56C57.4196 114.35 58.9396 110.75 58.5296 107.09C58.2351 105.075 57.6029 103.124 56.6596 101.32H56.7496C61.2762 96.0599 65.9163 90.8932 70.6696 85.8199C71.9496 84.4399 73.2496 83.0666 74.5696 81.6999C79.7496 76.2799 85.0562 70.9799 90.4896 65.7999L89.9996 65.2899C89.6587 65.1842 89.3247 65.0573 88.9996 64.9099L89.1396 64.6099C89.5615 64.3858 90.0319 64.2686 90.5096 64.2686C90.9873 64.2686 91.4577 64.3858 91.8796 64.6099C92.7248 65.0641 93.5079 65.6254 94.2096 66.2799C95.837 67.6337 97.6155 68.7947 99.5096 69.7399C101.56 70.7399 103.75 71.5399 105.82 72.5399C107.938 73.466 109.813 74.8692 111.3 76.6399C112.745 78.6275 113.607 80.979 113.79 83.4299C113.94 85.8776 113.94 88.3322 113.79 90.7799C113.59 97.8799 115.1 104.93 116.99 111.78C118.88 118.63 121.15 125.38 122.55 132.35C122.988 134.107 123.13 135.926 122.97 137.73C122.73 139.52 122.38 141.05 120.86 142.04L120.46 142.14C120.352 141.798 120.221 141.464 120.07 141.14L117.88 136.12Z" fill="#406BB2"/>
<path d="M112.839 151.78C112.397 149.199 110.961 146.894 108.839 145.36C107.57 144.484 106.065 144.014 104.524 144.014C102.982 144.014 101.477 144.484 100.209 145.36C99.7687 146.3 99.2887 147.24 98.7887 148.15L98.6387 148.06C98.0887 147.83 96.8587 146.92 96.8287 146.33C96.8204 145.876 96.8984 145.425 97.0587 145C97.0587 144.87 97.1487 144.74 97.1987 144.61C98.1651 142.058 99.562 139.69 101.329 137.61C100.329 137.88 99.3287 136.77 99.2587 135.71C99.2547 134.886 99.4179 134.069 99.7387 133.31L102.469 133.38C103.069 133.07 103.679 132.77 104.289 132.48L105.289 134.61C104.458 135.032 103.728 135.629 103.149 136.36C104.87 135.812 106.688 135.635 108.483 135.842C110.277 136.049 112.007 136.634 113.559 137.56C114.229 137.97 115.039 138.47 115.739 138.11C115.96 137.975 116.138 137.778 116.25 137.544C116.362 137.309 116.403 137.047 116.369 136.79L117.879 136.11L120.109 141.03C120.261 141.354 120.391 141.688 120.499 142.03C120.619 142.411 120.647 142.816 120.579 143.21C120.419 143.95 119.579 144.56 118.889 144.21C119.425 144.606 119.847 145.136 120.112 145.747C120.377 146.358 120.476 147.028 120.399 147.69C120.219 149.009 119.798 150.283 119.159 151.45C116.809 156.3 114.159 160.97 109.549 163.64C110.065 163.205 110.484 162.667 110.779 162.06C112.348 159.392 113.128 156.334 113.029 153.24C113 152.749 112.937 152.261 112.839 151.78Z" fill="#406BB2"/>
<path d="M116.37 136.82C116.405 137.077 116.363 137.339 116.251 137.573C116.14 137.808 115.962 138.004 115.74 138.14C115.04 138.5 114.23 138 113.56 137.59C112.009 136.664 110.279 136.079 108.484 135.872C106.69 135.665 104.872 135.841 103.15 136.39C103.729 135.659 104.459 135.062 105.29 134.64C106.721 133.953 108.284 133.588 109.87 133.57C111.97 133.5 114.27 133.89 115.68 135.45C116.043 135.827 116.283 136.304 116.37 136.82Z" fill="#406BB2"/>
<path d="M113.029 153.23C113.128 156.323 112.348 159.382 110.779 162.05C110.484 162.657 110.065 163.195 109.549 163.63C109.466 163.689 109.379 163.742 109.289 163.79C109.187 163.85 109.08 163.9 108.969 163.94C107.704 164.286 106.363 164.234 105.129 163.79C104.572 163.525 104.095 163.118 103.744 162.611C103.393 162.104 103.181 161.514 103.129 160.9C106.099 157.595 109.34 154.544 112.819 151.78C112.923 152.258 112.993 152.742 113.029 153.23Z" fill="black"/>
<path d="M108.83 145.36C110.953 146.893 112.389 149.199 112.83 151.78C109.351 154.544 106.11 157.595 103.14 160.9C98.3947 166.183 94.3789 172.079 91.2002 178.43L91.1402 178.49C87.8052 174.017 85.1965 169.046 83.4102 163.76L83.7202 163.66C86.7808 161.871 89.5861 159.678 92.0602 157.14C94.6788 154.444 96.9345 151.419 98.7701 148.14C99.2701 147.23 99.7702 146.29 100.19 145.35C101.46 144.473 102.968 144.004 104.512 144.005C106.055 144.007 107.562 144.48 108.83 145.36Z" fill="white"/>
<path d="M60.6595 198.55L60.3895 198.64C59.7961 198.38 59.2619 198.002 58.8195 197.53C57.5693 195.93 56.7746 194.023 56.5195 192.01C54.2412 180.463 54.1428 168.592 56.2295 157.01L56.3395 155.4L56.9495 155.47C56.9495 155.05 56.9495 154.62 56.9495 154.2H57.3295C59.4408 154.33 61.5581 154.33 63.6695 154.2H64.2095C64.286 152.112 64.1047 150.023 63.6695 147.98V147.79C64.4395 147.79 65.2095 147.79 65.9695 147.79V148C66.4199 149.905 66.6017 151.864 66.5095 153.82H66.7095C70.6902 153.918 74.6692 153.562 78.5695 152.76H78.6995C78.8179 150.863 78.4748 148.965 77.6995 147.23V147.04C78.4095 146.97 79.1295 146.88 79.8395 146.79L79.8895 147.21C79.8895 147.21 80.2695 149.55 80.5795 151.48C80.5795 151.48 80.5795 151.55 80.5795 151.59C80.6595 152.28 80.7595 152.99 80.9195 153.76C80.9195 153.53 80.8195 153.1 80.7295 152.56H80.9795L88.5495 151.44H88.9695C88.9744 151.479 88.9744 151.52 88.9695 151.56L89.0495 151.68C89.9195 153.55 90.8895 155.39 91.9395 157.17L92.0395 157.27C89.5654 159.808 86.7601 162.001 83.6995 163.79L83.3895 163.89C85.1758 169.175 87.7845 174.146 91.1195 178.62L91.1795 178.56C92.8583 175.191 94.78 171.949 96.9295 168.86L97.4495 169.23C100.959 184.74 100.529 200.83 100.089 216.72C99.6995 230.58 99.3095 244.45 99.3895 258.35C100.061 259.197 100.468 260.223 100.563 261.3C100.657 262.377 100.433 263.458 99.9195 264.41C102.199 269.33 102.689 275.07 103.089 280.56C104.249 296.24 105.406 311.906 106.559 327.56V327.77C105.401 329.178 103.859 330.22 102.119 330.77C101.078 331.113 99.9949 331.315 98.8995 331.37C95.9882 331.395 93.0875 331.018 90.2795 330.25C89.1054 330.023 88.0457 329.398 87.2795 328.48V328.37C84.0509 293.367 77.7601 258.714 68.4795 224.81C66.1128 215.95 63.5061 207.196 60.6595 198.55Z" fill="#406BB2"/>
<path d="M102.26 339.63C105.161 344.114 106.51 349.425 106.1 354.75C106.05 354.83 105.99 354.91 105.95 354.99C104.686 356.907 103.559 358.912 102.58 360.99C101.249 363.732 100.155 366.582 99.3099 369.51C98.6599 371.8 98.0799 374.26 96.4099 375.95C90.8699 376.34 85.4099 376.64 79.9899 376.95C78.6499 377.03 77.0599 376.95 76.3199 375.85C76.0738 374.772 76.0812 373.653 76.3415 372.578C76.6017 371.504 77.1079 370.505 77.8199 369.66C78.8199 368.44 80.2499 367.59 81.3599 366.44C81.4712 366.331 81.5748 366.214 81.6699 366.09C84.3088 366.186 86.9095 366.751 89.3499 367.76C90.3562 368.301 91.4776 368.592 92.6199 368.61C94.1899 368.46 95.3699 367.15 96.2499 365.85C100.4 359.78 101.61 352.24 102.73 344.97C102.478 343.199 102.321 341.417 102.26 339.63Z" fill="#406BB2"/>
<path d="M105.949 354.99L106.099 355.09C105.397 361.807 105.303 368.575 105.819 375.31V375.47C105.836 375.485 105.85 375.503 105.859 375.524C105.869 375.545 105.874 375.567 105.874 375.59C105.874 375.612 105.869 375.635 105.859 375.656C105.85 375.676 105.836 375.695 105.819 375.71C105.74 375.764 105.645 375.789 105.549 375.78C104.859 375.78 104.169 375.78 103.469 375.78C103.139 370.78 102.879 365.87 102.609 361C103.579 358.92 104.695 356.911 105.949 354.99Z" fill="#406BB2"/>
<path d="M102.259 339.63C102.332 341.404 102.499 343.173 102.759 344.93C101.639 352.2 100.429 359.74 96.2792 365.81C95.3992 367.11 94.2192 368.42 92.6492 368.57C91.5069 368.552 90.3855 368.26 89.3792 367.72C86.9388 366.711 84.3381 366.146 81.6992 366.05C83.191 364.169 84.2771 362 84.8892 359.68C86.1692 355.68 87.1192 351.62 88.0792 347.54C89.3892 341.93 90.7092 336.21 90.3192 330.46V330.14C93.1272 330.908 96.028 331.285 98.9392 331.26C100.035 331.205 101.118 331.003 102.159 330.66L102.729 330.8C102.299 333.722 102.142 336.678 102.259 339.63Z" fill="white"/>
<path d="M77.2692 28.5598C74.3736 27.5004 71.8008 25.711 69.8 23.3651C67.7992 21.0192 66.4383 18.1962 65.8492 15.1697C64.4632 15.7723 63.244 16.7022 62.2965 17.8797C61.349 19.0571 60.7013 20.4469 60.4092 21.9297C60.3196 20.5248 60.5937 19.1204 61.205 17.8522C61.8163 16.584 62.7442 15.4948 63.8992 14.6898H63.7792L63.9492 12.8897C64.8638 11.8146 66.0078 10.9582 67.2971 10.3836C68.5864 9.80907 69.9882 9.53096 71.3992 9.56976C72.649 7.89099 74.3576 6.6095 76.3192 5.87976L77.7092 4.87976C78.0482 4.50243 78.4309 4.16674 78.8492 3.87976C85.3592 -0.78024 93.2692 15.0897 95.0492 19.0797C98.4692 26.7297 103.489 37.4997 96.6892 44.6997C97.4164 43.1337 97.7886 41.4263 97.7792 39.6997C94.8592 45.6997 90.9792 52.5297 83.9192 54.1797C85.0099 53.3068 85.8457 52.1567 86.3392 50.8498C84.9108 52.3193 83.2133 53.5007 81.3392 54.3297C79.8871 54.9713 78.3463 55.3894 76.7692 55.5698C78.3988 54.5332 79.667 53.0169 80.3992 51.2297C77.698 52.8168 74.8352 54.1108 71.8592 55.0898C73.3692 53.9898 75.0692 51.4198 76.5592 48.7498C77.9092 46.3298 79.0792 43.8197 79.7592 42.2697H79.8992C80.8817 42.3605 81.8712 42.2007 82.7752 41.8055C83.6793 41.4103 84.4685 40.7925 85.0692 40.0098C86.2569 38.4168 86.924 36.496 86.9792 34.5098C87.0692 32.9498 86.7392 31.1197 85.3592 30.3897C83.9792 29.6597 82.2992 30.3898 80.9592 31.2198C81.1787 32.9938 80.9123 34.7941 80.1884 36.4285C79.4645 38.0629 78.3104 39.4701 76.8492 40.4998C77.5541 39.7468 78.0956 38.8561 78.4398 37.8838C78.784 36.9115 78.9234 35.8785 78.8492 34.8498C78.7038 32.7852 78.1064 30.7778 77.0992 28.9698L77.2692 28.5598Z" fill="#1D1D1B"/>
<path d="M90.0195 65.2495L90.5096 65.7596C85.0829 70.9262 79.7762 76.2262 74.5895 81.6595L74.4295 81.4995C67.883 81.3865 61.4244 79.9724 55.4295 77.3395L55.0195 77.2095C56.1097 73.8623 57.3987 70.5831 58.8795 67.3895C59.8795 67.1195 60.8295 66.8395 61.7795 66.4895C62.4684 66.2455 63.1371 65.948 63.7795 65.5995C65.3399 64.7981 66.5735 63.4797 67.2695 61.8695C67.9995 59.9395 67.6095 57.7895 67.2195 55.7695H66.4796C70.4512 54.443 73.9642 52.0154 76.6096 48.7695C75.1196 51.4395 73.4195 54.0095 71.9095 55.1095C74.8855 54.1306 77.7484 52.8366 80.4496 51.2495C79.7174 53.0367 78.4492 54.553 76.8195 55.5895C78.3967 55.4092 79.9375 54.9911 81.3896 54.3495L82.7896 54.4195C82.5729 56.7942 83.1726 59.1717 84.4895 61.1595C85.6102 62.8357 87.1947 64.1492 89.0496 64.9395C89.3665 65.062 89.6903 65.1655 90.0195 65.2495Z" fill="white"/>
<path d="M80.9987 146.6C81.6487 146.49 82.2787 146.46 82.9987 146.41C84.5983 146.635 86.2287 146.467 87.7487 145.92L87.9187 146.35C88.5549 147.946 88.9264 149.635 89.0186 151.35H88.5987L81.0287 152.47H80.7787C80.7787 152.17 80.6787 151.84 80.6287 151.47C80.6287 151.47 80.6287 151.4 80.6287 151.36C80.5099 149.921 80.2792 148.493 79.9387 147.09L79.8887 146.67L81.0487 146.52L80.9987 146.6Z" fill="#1D1D1B"/>
<path d="M53.2895 29.2599C53.8891 28.2374 54.4105 27.1711 54.8495 26.0699C55.8495 23.6599 56.3995 21.0699 57.6995 18.8399C58.9995 16.6099 61.1694 14.6899 63.7794 14.6899H63.8994C62.7445 15.495 61.8166 16.5842 61.2053 17.8524C60.5939 19.1206 60.3199 20.5249 60.4095 21.9299C60.7016 20.4471 61.3493 19.0573 62.2968 17.8799C63.2443 16.7024 64.4634 15.7725 65.8495 15.1699C66.4386 18.1964 67.7995 21.0194 69.8003 23.3653C71.8011 25.7112 74.3739 27.5006 77.2694 28.5599L77.1595 28.8599C78.1667 30.668 78.7641 32.6754 78.9095 34.7399C78.9836 35.7687 78.8443 36.8017 78.5001 37.774C78.1559 38.7463 77.6144 39.6369 76.9095 40.3899C78.3707 39.3603 79.5248 37.9531 80.2487 36.3187C80.9725 34.6843 81.2389 32.8839 81.0194 31.1099C82.3594 30.3099 84.0195 29.5499 85.4195 30.2799C86.8195 31.0099 87.1295 32.8399 87.0395 34.3999C86.9842 36.3862 86.3172 38.307 85.1295 39.8999C84.5288 40.6827 83.7396 41.3005 82.8355 41.6957C81.9314 42.0909 80.9419 42.2507 79.9594 42.1599H79.8195C79.1395 43.7099 77.9694 46.2199 76.6194 48.6399C73.9741 51.8858 70.4611 54.3134 66.4894 55.6399C64.9787 56.3077 63.2777 56.4071 61.6995 55.9199C61.5339 55.8554 61.3735 55.7785 61.2195 55.6899C60.3203 55.1309 59.5307 54.4125 58.8895 53.5699C56.6393 51.044 54.7204 48.2414 53.1794 45.2299C51.6627 41.7286 50.9454 37.9333 51.0795 34.1199L50.6995 34.0199L50.1895 33.5499C51.3778 32.2386 52.4175 30.7999 53.2895 29.2599Z" fill="white"/>
<path d="M53.2891 29.2598C52.4159 30.7927 51.3763 32.2247 50.1891 33.5298L50.6991 33.9998L51.0791 34.0998C50.9144 37.9503 51.6185 41.7884 53.1391 45.3298C54.6801 48.3412 56.5989 51.1439 58.8491 53.6698C59.4903 54.5123 60.2799 55.2308 61.1791 55.7898L61.0591 55.9798C60.1506 56.4817 59.1455 56.7842 58.1109 56.867C57.0763 56.9497 56.0359 56.8109 55.0591 56.4598C53.0952 55.7272 51.2464 54.7169 49.5691 53.4598C51.1023 55.2412 52.8919 56.7847 54.8791 58.0398C52.8977 57.5965 51.0305 56.745 49.3965 55.5398C47.7625 54.3345 46.3977 52.8019 45.3891 51.0398C43.3911 47.4955 42.4962 43.4356 42.8191 39.3798C41.7149 41.1334 41.2052 43.196 41.3655 45.2621C41.5259 47.3281 42.3476 49.2875 43.7091 50.8498C40.4191 48.8498 39.1491 44.6798 39.5191 40.9598C39.8891 37.2398 41.5691 33.8098 43.0691 30.3798C45.3991 25.0598 47.3291 19.5398 50.1991 14.4898C53.0691 9.43977 57.0191 4.77977 62.2691 2.29977C67.5191 -0.180233 74.2691 -0.0802245 78.7391 3.58978L78.8991 3.80978C78.4808 4.09675 78.0982 4.43244 77.7591 4.80978L76.3691 5.80978C74.4075 6.53951 72.6989 7.821 71.4491 9.49978C70.0381 9.46097 68.6364 9.73909 67.347 10.3137C66.0577 10.8882 64.9137 11.7446 63.9991 12.8198L63.8291 14.6198C61.2191 14.6198 59.0291 16.5498 57.7491 18.7698C56.4691 20.9898 55.8591 23.5898 54.8991 25.9998C54.4473 27.1263 53.9091 28.2163 53.2891 29.2598Z" fill="#1D1D1B"/>
<path d="M77.7202 147.17C78.4956 148.905 78.8387 150.803 78.7202 152.7H78.5902C74.69 153.502 70.711 153.858 66.7303 153.76H66.5302C66.6224 151.804 66.4407 149.845 65.9902 147.94V147.73C69.9036 147.656 73.8069 147.41 77.7003 146.99L77.7202 147.17Z" fill="#1D1D1B"/>
<path d="M74.4303 81.4995L74.5903 81.6595C73.257 83.0329 71.957 84.4062 70.6903 85.7795C64.8642 85.2801 59.2049 83.5776 54.0703 80.7795C54.3436 79.5995 54.677 78.4295 55.0703 77.2695L55.4803 77.3995C61.4639 80.0053 67.9047 81.3988 74.4303 81.4995Z" fill="#D1D0D1"/>
<path d="M70.6588 85.7697C65.8988 90.8363 61.2588 96.003 56.7388 101.27H56.6488C55.9188 99.7397 55.1188 98.2696 54.5188 96.6596C52.8553 91.8302 52.6055 86.6262 53.7988 81.6597C53.8688 81.3397 53.9388 81.0097 54.0288 80.6597C59.1579 83.4974 64.8211 85.2376 70.6588 85.7697Z" fill="#D1D0D1"/>
<path d="M44.929 152.77H45.009C46.1644 153.174 47.3433 153.508 48.539 153.77H48.659C48.6195 154.165 48.6195 154.564 48.659 154.96C49.4298 155.138 50.2178 155.232 51.009 155.24C51.459 155.24 51.859 155.31 52.249 155.32C51.249 162.65 50.119 171 50.839 178.32C51.519 185.32 53.959 192.39 58.789 197.46C59.2314 197.933 59.7656 198.31 60.359 198.57L60.629 198.48C63.449 207.146 66.0623 215.85 68.469 224.59C66.0443 240.908 65.1038 257.412 65.659 273.9C65.739 276.48 65.729 279.39 65.039 280.54C65.3464 295.241 64.5979 309.946 62.799 324.54H62.709C61.0639 324.991 59.3946 325.348 57.709 325.61C52.9969 326.369 48.1987 326.43 43.469 325.79L42.699 325.69L42.629 325.38C41.4223 308.88 40.209 292.376 38.989 275.87C36.909 247.58 34.829 219.24 35.529 190.87C35.849 177.74 36.899 164.16 43.039 152.55C42.4994 149.868 42.9207 147.082 44.229 144.68L44.579 144.24C44.999 144.73 45.399 145.24 45.859 145.68L45.659 145.88C44.8581 148.083 44.6075 150.448 44.929 152.77Z" fill="#406BB2"/>
<path d="M63.6597 147.93C64.0949 149.973 64.2763 152.062 64.1997 154.15H63.6597C61.5484 154.28 59.431 154.28 57.3197 154.15H56.9397C56.8697 152.07 56.8097 150 56.7397 147.91L56.6797 147.7L56.7897 147.55C59.0764 147.683 61.3664 147.746 63.6597 147.74V147.93Z" fill="#1D1D1B"/>
<path d="M40.2789 119.41H39.3489C38.3566 117.577 37.53 115.659 36.8789 113.68L37.4989 113.46C37.0663 101.695 38.0908 89.9226 40.5489 78.4097C41.0689 75.9997 41.7489 73.4097 43.6389 71.8697C46.0589 69.8697 49.5889 70.1597 52.4989 68.9897C54.0189 68.3797 55.3489 67.3697 56.8489 66.7097C58.3489 66.0497 60.3289 65.5197 61.7289 66.3797L61.7789 66.5097C60.8289 66.8597 59.8489 67.1397 58.8789 67.4097C57.398 70.6033 56.109 73.8825 55.0189 77.2297C54.6456 78.3897 54.3122 79.5597 54.0189 80.7397C53.9289 81.0597 53.8589 81.3897 53.7889 81.7397C52.5956 86.7062 52.8454 91.9103 54.5089 96.7397C55.1089 98.3097 55.9089 99.8197 56.6389 101.35C57.6344 103.145 58.3174 105.096 58.6589 107.12C59.0689 110.78 57.5489 114.38 55.7489 117.59C53.1489 122.22 49.8689 126.59 48.2689 131.59C46.6689 136.59 47.1689 142.89 51.2689 146.3V147.36L49.2189 147.27V147.09H48.8989C47.9673 147.049 47.0763 146.697 46.3689 146.09L45.9889 145.74C45.5289 145.29 45.1289 144.79 44.7089 144.3C44.3965 143.924 44.0626 143.567 43.7089 143.23C42.6289 142.23 41.2689 141.56 40.2689 140.49C40.0721 140.28 39.8916 140.056 39.7289 139.82C38.5863 137.931 38.0652 135.731 38.2389 133.53C38.4825 129.942 39.021 126.38 39.8489 122.88C39.9289 121.75 40.1389 120.59 40.2789 119.41ZM55.5589 108.81C56.0138 108.689 56.4057 108.4 56.6547 108C56.9036 107.601 56.991 107.121 56.8989 106.66C56.8649 106.409 56.7789 106.167 56.6464 105.951C56.5138 105.735 56.3376 105.55 56.1291 105.406C55.9205 105.262 55.6842 105.163 55.4353 105.116C55.1864 105.068 54.9303 105.073 54.6835 105.131C54.4367 105.188 54.2046 105.296 54.002 105.449C53.7994 105.601 53.6309 105.794 53.5071 106.015C53.3834 106.236 53.3072 106.48 53.2834 106.733C53.2596 106.985 53.2887 107.239 53.3689 107.48C53.5022 107.935 53.8008 108.323 54.206 108.569C54.6112 108.815 55.0937 108.901 55.5589 108.81Z" fill="#406BB2"/>
<path d="M58.86 197.53C54.03 192.46 51.59 185.4 50.91 178.39C50.19 171.02 51.28 162.67 52.32 155.39C53.85 155.39 55.01 155.34 56.39 155.46L56.28 157.07C54.1934 168.652 54.2917 180.523 56.57 192.07C56.8326 194.061 57.6233 195.947 58.86 197.53Z" fill="#406BB2"/>
<path d="M22.4002 374.78C21.8402 375 21.1802 374.3 21.0002 373.72C20.9348 373.426 20.9406 373.122 21.0171 372.831C21.0937 372.541 21.2388 372.273 21.4402 372.05C21.8496 371.607 22.3294 371.235 22.8602 370.95L33.2102 364.6L33.2902 364.66C35.3902 366.37 39.0802 367.13 41.4902 365.91C43.9002 364.69 45.3302 362.31 46.6902 360.03C49.1836 355.823 51.6802 351.616 54.1802 347.41C54.898 346.305 55.4695 345.112 55.8802 343.86C56.0866 343.232 56.1663 342.569 56.1148 341.91C56.0633 341.25 55.8816 340.608 55.5802 340.02L55.6602 339.12H55.9702C57.1725 340.294 57.9291 341.849 58.1102 343.52C58.3009 345.181 58.3009 346.858 58.1102 348.52C57.9369 350.52 57.7902 352.536 57.6702 354.57L55.8802 354.45C55.1245 355.138 54.4224 355.884 53.7802 356.68C50.5702 360.56 48.6102 365.43 46.3302 369.98C45.6332 371.66 44.5261 373.138 43.1102 374.28C41.0202 375.73 38.2702 375.64 35.7302 375.5L22.4002 374.78Z" fill="#406BB2"/>
<path d="M55.8486 354.48L57.6386 354.6C57.2386 361.05 57.0086 367.6 56.4586 373.96L54.4086 373.86L54.3586 373.66C54.1653 368.02 53.9819 362.38 53.8086 356.74C54.4305 355.936 55.1124 355.181 55.8486 354.48Z" fill="#406BB2"/>
<path d="M56.9695 154.17C56.9695 154.59 56.9695 155.02 56.9695 155.44L56.3595 155.37C54.9795 155.25 53.8195 155.37 52.2895 155.3C51.8995 155.3 51.4995 155.3 51.0495 155.22C50.2583 155.212 49.4703 155.118 48.6995 154.94C48.6601 154.544 48.6601 154.145 48.6995 153.75C48.6892 153.566 48.6892 153.383 48.6995 153.2C50.8308 153.453 52.9831 153.476 55.1195 153.27C55.1195 151.9 55.1795 150.6 55.2795 149.27C53.1595 149.18 50.9995 149.19 48.8495 149.2C48.7462 148.653 48.6993 148.096 48.7095 147.54V147.12H49.0295V147.3L51.0795 147.39C52.9695 147.47 54.8495 147.52 56.7395 147.55L56.6295 147.7L56.6895 147.91C56.8395 150.02 56.8995 152.12 56.9695 154.17Z" fill="white"/>
<path d="M56.899 106.66C56.991 107.121 56.9037 107.6 56.6547 108C56.4058 108.399 56.0139 108.689 55.559 108.81C55.0938 108.901 54.6113 108.815 54.2061 108.569C53.8008 108.323 53.5023 107.935 53.369 107.48C53.2887 107.239 53.2596 106.985 53.2834 106.732C53.3072 106.48 53.3834 106.236 53.5072 106.015C53.6309 105.793 53.7995 105.601 54.0021 105.448C54.2046 105.296 54.4367 105.188 54.6836 105.131C54.9304 105.073 55.1864 105.068 55.4354 105.116C55.6843 105.163 55.9206 105.262 56.1291 105.406C56.3377 105.55 56.5139 105.735 56.6464 105.951C56.779 106.167 56.865 106.408 56.899 106.66Z" fill="white"/>
<path d="M55.5791 340.02C55.8805 340.608 56.0622 341.251 56.1136 341.91C56.1651 342.569 56.0854 343.232 55.8791 343.86C55.4683 345.112 54.8969 346.305 54.179 347.41C51.679 351.61 49.1824 355.816 46.6891 360.03C45.3291 362.31 43.859 364.71 41.489 365.91C39.119 367.11 35.3891 366.37 33.2891 364.66V364.6C36.4591 359.74 36.4291 353.6 38.2891 348.14C39.3891 344.82 41.3591 341.83 42.3891 338.49C43.5991 334.61 43.4791 330.49 43.3891 326.4L43.459 325.88C48.1888 326.52 52.9871 326.459 57.6991 325.7C56.8191 330.11 56.1391 334.5 55.6991 339.13L55.5791 340.02Z" fill="white"/>
<path d="M55.3186 149.35C55.2186 150.65 55.1886 151.95 55.1586 153.35C53.0223 153.556 50.87 153.533 48.7386 153.28C48.7283 153.463 48.7283 153.647 48.7386 153.83H48.5787C47.3829 153.568 46.2041 153.234 45.0487 152.83H44.9686C44.6604 150.542 44.9074 148.213 45.6886 146.04L45.8887 145.84L46.2686 146.19C46.9761 146.797 47.8671 147.15 48.7987 147.19V147.65C48.7885 148.207 48.8354 148.763 48.9386 149.31C51.0386 149.27 53.1986 149.26 55.3186 149.35Z" fill="#1D1D1B"/>
<path d="M37.4188 120.22L35.6588 121.12C36.4052 124.425 36.3822 127.857 35.5916 131.151C34.8009 134.445 33.2638 137.514 31.0988 140.12L31.5288 142.71C28.9717 143.16 26.3723 143.325 23.7788 143.2C25.0288 143.2 26.1388 142.03 26.8288 140.89C27.517 139.751 28.0803 138.54 28.5088 137.28C29.5397 134.276 29.7785 131.057 29.2022 127.933C28.6259 124.81 27.2539 121.888 25.2188 119.45L25.0488 119.59C23.9588 119.49 22.8888 119.38 21.8288 119.26V119.12C21.7993 118.796 21.8698 118.471 22.0307 118.189C22.1916 117.906 22.4353 117.68 22.7288 117.54C23.3343 117.262 23.9927 117.119 24.6588 117.12L29.7988 116.68C29.3006 116.37 28.9042 115.92 28.6589 115.387C28.4136 114.854 28.3302 114.26 28.4188 113.68C28.6745 112.497 29.1865 111.384 29.9188 110.42C33.3873 104.987 36.1148 99.115 38.0288 92.96H38.2388C37.504 99.7636 37.2634 106.612 37.5188 113.45L36.8988 113.67C37.5499 115.65 38.3765 117.567 39.3688 119.4H40.2988C40.1588 120.58 39.9488 121.74 39.7288 122.91L38.1588 122.61C38.0186 121.784 37.7698 120.98 37.4188 120.22Z" fill="#406BB2"/>
<path d="M38.1394 122.62L39.7094 122.92C38.8815 126.42 38.343 129.982 38.0994 133.57C37.9257 135.771 38.4468 137.971 39.5894 139.86L39.2794 140.05C36.8742 141.383 34.255 142.286 31.5394 142.72L31.1094 140.13C33.2741 137.522 34.8103 134.451 35.5992 131.155C36.3882 127.859 36.4087 124.425 35.6594 121.12L37.4094 120.18C37.7611 120.957 38.0067 121.777 38.1394 122.62Z" fill="#406BB2"/>
<path d="M29.4186 129.37C29.6867 132.04 29.3798 134.737 28.5186 137.28L28.2586 137.19C25.3919 135.81 22.5253 134.453 19.6586 133.12C13.4786 130.206 7.25861 127.39 0.998606 124.67C0.981065 122.719 1.37639 120.787 2.15861 119C2.71861 117.92 3.57861 116.92 3.65861 115.7C3.68334 115.542 3.6738 115.381 3.63066 115.227C3.58751 115.074 3.51179 114.931 3.40861 114.81H3.59861C9.46086 117.125 15.6045 118.651 21.8686 119.35C22.9286 119.47 23.9986 119.58 25.0886 119.68L25.2586 119.54C27.5724 122.342 29.0181 125.758 29.4186 129.37Z" fill="white"/>
<path d="M28.2588 137.19L28.5188 137.28C28.0903 138.54 27.527 139.75 26.8388 140.89C26.1488 142.03 25.0388 143.2 23.7888 143.2C23.6131 143.2 23.4381 143.177 23.2688 143.13C22.4303 142.796 21.7532 142.151 21.3788 141.33C20.0088 138.966 19.3168 136.271 19.3788 133.54L19.6588 133.12C22.5322 134.453 25.3988 135.81 28.2588 137.19Z" fill="black"/>
<path d="M78.659 3.61956C74.159 -0.0504394 67.449 -0.150448 62.189 2.32955C56.929 4.80955 52.989 9.46955 50.119 14.5196C47.249 19.5696 45.319 25.0896 42.989 30.4096C41.489 33.8396 39.809 37.2696 39.439 40.9896C39.069 44.7096 40.339 48.8596 43.629 50.8796C42.2676 49.3173 41.4458 47.3579 41.2855 45.2919C41.1251 43.2258 41.6348 41.1631 42.739 39.4096C42.4151 43.4851 43.3207 47.5641 45.339 51.1196C46.3476 52.8817 47.7124 54.4143 49.3464 55.6196C50.9804 56.8248 52.8476 57.6762 54.829 58.1196C52.8418 56.8645 51.0522 55.321 49.519 53.5396C51.1963 54.7967 53.0451 55.807 55.009 56.5396C55.9858 56.8907 57.0262 57.0295 58.0608 56.9467C59.0954 56.864 60.1005 56.5615 61.009 56.0596" stroke="#1D1D1B" stroke-linecap="round" stroke-linejoin="round"/>
<path d="M48.3887 35.3599C49.0235 34.7852 49.6245 34.1742 50.1887 33.5299C51.3758 32.2249 52.4154 30.7929 53.2887 29.2599C53.8883 28.2374 54.4098 27.1711 54.8487 26.0699C55.8487 23.6599 56.3987 21.0699 57.6987 18.8399C58.9987 16.6099 61.1687 14.6899 63.7787 14.6899H63.8987C62.7437 15.495 61.8158 16.5842 61.2045 17.8524C60.5931 19.1206 60.3191 20.5249 60.4087 21.9299C60.7008 20.4471 61.3485 19.0573 62.296 17.8799C63.2435 16.7024 64.4626 15.7725 65.8487 15.1699C66.4378 18.1964 67.7987 21.0194 69.7995 23.3653C71.8003 25.7112 74.3731 27.5006 77.2686 28.5599C77.9011 28.7952 78.5494 28.9857 79.2086 29.1299" stroke="#1D1D1B" stroke-linecap="round" stroke-linejoin="round"/>
<path d="M77.1602 28.8599C78.1674 30.6679 78.7648 32.6753 78.9102 34.7399C78.9843 35.7686 78.845 36.8016 78.5008 37.774C78.1566 38.7463 77.6151 39.6369 76.9102 40.3899C78.3714 39.3602 79.5255 37.9531 80.2494 36.3186C80.9732 34.6842 81.2396 32.8839 81.0201 31.1099C82.3601 30.3099 84.0202 29.5499 85.4202 30.2799C86.8202 31.0099 87.1302 32.8399 87.0402 34.3999C86.9849 36.3861 86.3179 38.3069 85.1302 39.8999C84.5295 40.6826 83.7403 41.3005 82.8362 41.6957C81.9321 42.0909 80.9426 42.2506 79.9601 42.1599" stroke="#1D1D1B" stroke-linecap="round" stroke-linejoin="round"/>
<path d="M50.6602 33.9999C51.0426 33.5805 51.5099 33.2472 52.031 33.0223C52.5521 32.7974 53.1152 32.6859 53.6827 32.6954C54.2503 32.7048 54.8093 32.835 55.3226 33.0771C55.836 33.3193 56.2919 33.668 56.6602 34.0999" stroke="#1D1D1B" stroke-linecap="round" stroke-linejoin="round"/>
<path d="M64.6602 33.6398C65.065 33.0182 65.6075 32.4983 66.2457 32.1202C66.8839 31.7421 67.6005 31.5162 68.3401 31.4598C69.0784 31.4135 69.818 31.5271 70.5083 31.7929C71.1987 32.0587 71.8235 32.4704 72.3401 32.9998L73.3401 32.4598" stroke="#1D1D1B" stroke-linecap="round" stroke-linejoin="round"/>
<path d="M67.7189 32.8198C67.6672 33.2876 67.7289 33.7609 67.8989 34.1998" stroke="#1D1D1B" stroke-linecap="round" stroke-linejoin="round"/>
<path d="M54.4398 33.8496C54.3292 34.2646 54.3608 34.7047 54.5298 35.0996" stroke="#1D1D1B" stroke-linecap="round" stroke-linejoin="round"/>
<path d="M49.9492 29.3497C51.0309 29.0002 52.1903 28.969 53.2892 29.2598C53.9572 29.4273 54.5903 29.7117 55.1592 30.0997" stroke="#1D1D1B" stroke-width="0.5" stroke-linecap="round" stroke-linejoin="round"/>
<path d="M62.9688 29.2897C64.1571 28.4842 65.4965 27.9279 66.9059 27.6546C68.3153 27.3814 69.7655 27.3967 71.1688 27.6996" stroke="#1D1D1B" stroke-width="0.5" stroke-linecap="round" stroke-linejoin="round"/>
<path d="M57.8986 40.8896C57.507 41.2798 57.1886 41.737 56.9586 42.2397C56.8463 42.4916 56.8003 42.7681 56.8248 43.0428C56.8493 43.3176 56.9435 43.5815 57.0986 43.8097C57.3886 44.067 57.736 44.2512 58.1118 44.3469C58.4876 44.4426 58.8808 44.447 59.2586 44.3596" stroke="#1D1D1B" stroke-width="0.5" stroke-linecap="round" stroke-linejoin="round"/>
<path d="M60.2988 43.2899C60.4786 43.2752 60.6584 43.3189 60.8115 43.4143C60.9645 43.5098 61.0828 43.652 61.1488 43.8199" stroke="#1D1D1B" stroke-width="0.5" stroke-linecap="round" stroke-linejoin="round"/>
<path d="M57.3301 48.1198C58.1111 48.4949 58.9753 48.6636 59.8401 48.6098L64.6101 48.6898C64.9124 48.7133 65.2166 48.6862 65.5101 48.6098C65.6551 48.5684 65.789 48.4947 65.9016 48.3943C66.0141 48.2938 66.1025 48.1692 66.1601 48.0298" stroke="#1D1D1B" stroke-width="0.5" stroke-linecap="round" stroke-linejoin="round"/>
<path d="M60.8301 51.2397L62.6701 51.3297" stroke="#1D1D1B" stroke-width="0.5" stroke-linecap="round" stroke-linejoin="round"/>
<path d="M63.9492 12.8899C64.8638 11.8147 66.0078 10.9583 67.2971 10.3838C68.5865 9.80919 69.9882 9.53108 71.3992 9.56989C72.649 7.89111 74.3576 6.60962 76.3192 5.87988" stroke="#1D1D1B" stroke-linecap="round" stroke-linejoin="round"/>
<path d="M76.5898 48.69C77.9398 46.27 79.1099 43.76 79.7899 42.21" stroke="#1D1D1B" stroke-linecap="round" stroke-linejoin="round"/>
<path d="M77.7094 4.87976C78.0484 4.50243 78.4311 4.16674 78.8494 3.87976C85.3594 -0.78024 93.2694 15.0897 95.0494 19.0797C98.4694 26.7297 103.489 37.4997 96.6894 44.6997C97.4166 43.1337 97.7888 41.4263 97.7794 39.6997C94.8594 45.6997 90.9794 52.5297 83.9194 54.1797C85.01 53.3068 85.8459 52.1567 86.3394 50.8498C84.9109 52.3193 83.2135 53.5007 81.3394 54.3297C79.8873 54.9713 78.3465 55.3894 76.7693 55.5698C78.399 54.5332 79.6672 53.0169 80.3994 51.2297C77.6982 52.8168 74.8353 54.1108 71.8594 55.0898C73.3694 53.9898 75.0694 51.4198 76.5594 48.7498" stroke="#1D1D1B" stroke-linecap="round" stroke-linejoin="round"/>
<path d="M51.0801 34.1196C50.9154 37.9701 51.6195 41.8083 53.1401 45.3496C54.6811 48.3611 56.5999 51.1637 58.8501 53.6896C59.4913 54.5322 60.2809 55.2506 61.1801 55.8096C61.3341 55.8982 61.4946 55.9751 61.6601 56.0396C63.2383 56.5269 64.9394 56.4274 66.4501 55.7596C70.4217 54.4331 73.9348 52.0055 76.5801 48.7596" stroke="#1D1D1B" stroke-linecap="round" stroke-linejoin="round"/>
<path d="M58.8789 67.3895C59.8789 67.1195 60.8289 66.8395 61.7789 66.4895C62.4678 66.2455 63.1365 65.948 63.7789 65.5995C65.3393 64.7981 66.5729 63.4797 67.2689 61.8695C67.9989 59.9395 67.6089 57.7895 67.2189 55.7695" stroke="#1D1D1B" stroke-linecap="round" stroke-linejoin="round"/>
<path d="M82.7601 54.3496C82.5435 56.7243 83.1432 59.1018 84.4601 61.0896C85.5807 62.7657 87.1653 64.0792 89.0201 64.8696C89.3452 65.0169 89.6792 65.1439 90.0201 65.2496" stroke="#1D1D1B" stroke-linecap="round" stroke-linejoin="round"/>
<path d="M61.7288 66.3597C60.3288 65.4997 58.3587 66.0297 56.8487 66.6897C55.3387 67.3497 54.0187 68.3597 52.4987 68.9697C49.5887 70.1397 46.0588 69.8597 43.6388 71.8497C41.7488 73.4197 41.0688 75.9797 40.5488 78.3897C38.0906 89.9025 37.0662 101.675 37.4987 113.44" stroke="#1D1D1B" stroke-linecap="round" stroke-linejoin="round"/>
<path d="M35.3301 106.72C35.8588 111.156 37.2157 115.454 39.3301 119.39" stroke="#1D1D1B" stroke-linecap="round" stroke-linejoin="round"/>
<path d="M38.0096 92.9297C36.0956 99.0848 33.3681 104.957 29.8996 110.39C29.1673 111.354 28.6553 112.466 28.3996 113.65C28.3109 114.23 28.3944 114.823 28.6397 115.357C28.885 115.89 29.2813 116.339 29.7796 116.65L24.6596 117.12C24.0104 117.126 23.3697 117.269 22.7796 117.54C22.486 117.679 22.2424 117.906 22.0815 118.188C21.9205 118.471 21.8501 118.796 21.8796 119.12" stroke="#1D1D1B" stroke-linecap="round" stroke-linejoin="round"/>
<path d="M24.5188 118.64C24.7688 118.9 25.0088 119.17 25.2288 119.45C27.6906 122.414 29.1683 126.07 29.4568 129.913C29.7453 133.755 28.8303 137.591 26.8388 140.89C26.1488 142.03 25.0388 143.2 23.7888 143.2C23.6131 143.2 23.4381 143.177 23.2688 143.13C22.4303 142.796 21.7532 142.151 21.3788 141.33C20.0088 138.966 19.3168 136.271 19.3788 133.54" stroke="#1D1D1B" stroke-linecap="round" stroke-linejoin="round"/>
<path d="M23.6602 143.2H23.8202C26.4137 143.324 29.013 143.16 31.5702 142.71C34.2858 142.276 36.905 141.373 39.3102 140.04" stroke="#1D1D1B" stroke-linecap="round" stroke-linejoin="round"/>
<path d="M42.8487 78.48C40.1155 86.6902 39.0314 95.3595 39.6587 103.99C39.9887 108.45 40.7787 112.91 40.4987 117.38C40.4987 118.06 40.3887 118.74 40.2987 119.38C40.1587 120.56 39.9487 121.72 39.7287 122.89C38.9008 126.39 38.3623 129.952 38.1187 133.54C37.9449 135.741 38.4661 137.941 39.6087 139.83C39.7714 140.067 39.9519 140.291 40.1487 140.5C41.1487 141.57 42.5087 142.24 43.5887 143.24C43.9424 143.577 44.2762 143.934 44.5887 144.31C45.0087 144.8 45.4087 145.31 45.8687 145.75L46.2487 146.1C46.9561 146.707 47.8471 147.06 48.7787 147.1H49.0987C49.3628 147.071 49.62 146.997 49.8587 146.88" stroke="#1D1D1B" stroke-linecap="round" stroke-linejoin="round"/>
<path d="M32.1699 115.12C34.5069 116.102 36.3835 117.936 37.4199 120.25C37.7648 121.014 38.0069 121.821 38.1399 122.65" stroke="#1D1D1B" stroke-linecap="round" stroke-linejoin="round"/>
<path d="M35.6596 121.12C36.406 124.424 36.383 127.856 35.5924 131.151C34.8017 134.445 33.2646 137.514 31.0996 140.12" stroke="#1D1D1B" stroke-linecap="round" stroke-linejoin="round"/>
<path d="M54.5685 105.21C54.1338 105.387 53.7755 105.712 53.5561 106.127C53.3367 106.542 53.2703 107.02 53.3685 107.48C53.5018 107.934 53.8004 108.323 54.2056 108.569C54.6108 108.815 55.0933 108.901 55.5585 108.81C56.0134 108.689 56.4053 108.399 56.6542 108C56.9032 107.6 56.9905 107.121 56.8985 106.66C56.7683 106.166 56.4545 105.741 56.0214 105.472C55.5883 105.202 55.0685 105.109 54.5685 105.21Z" stroke="#1D1D1B" stroke-linecap="round" stroke-linejoin="round"/>
<path d="M58.8786 67.3896C57.3977 70.5833 56.1087 73.8624 55.0186 77.2097C54.6453 78.3697 54.3119 79.5397 54.0186 80.7197C53.9286 81.0397 53.8586 81.3697 53.7886 81.7197C52.5953 86.6862 52.8451 91.8902 54.5086 96.7196C55.1086 98.2896 55.9086 99.7997 56.6386 101.33C57.6362 103.131 58.3193 105.089 58.6586 107.12C59.0686 110.78 57.5486 114.38 55.7486 117.59C53.1486 122.22 49.8686 126.59 48.2686 131.59C46.6686 136.59 47.1686 142.89 51.2686 146.3" stroke="#1D1D1B" stroke-linecap="round" stroke-linejoin="round"/>
<path d="M56.7695 101.28C61.2962 96.0198 65.9362 90.8532 70.6895 85.7798C71.9695 84.3998 73.2695 83.0265 74.5895 81.6599C79.7695 76.2399 85.0762 70.9399 90.5096 65.7599C90.5696 65.6999 90.6195 65.6398 90.6795 65.5898" stroke="#1D1D1B" stroke-linecap="round" stroke-linejoin="round"/>
<path d="M89.1602 64.5699C89.582 64.3457 90.0524 64.2285 90.5302 64.2285C91.0079 64.2285 91.4783 64.3457 91.9001 64.5699C92.7454 65.024 93.5285 65.5853 94.2302 66.2398C95.8576 67.5936 97.636 68.7546 99.5302 69.6998C101.58 70.6998 103.77 71.4998 105.84 72.4998C107.958 73.426 109.834 74.8292 111.32 76.5999C112.766 78.5875 113.628 80.9389 113.81 83.3898C113.96 85.8375 113.96 88.2921 113.81 90.7398C113.61 97.8398 115.12 104.89 117.01 111.74C118.9 118.59 121.17 125.34 122.57 132.31C123.008 134.067 123.15 135.886 122.99 137.69C122.75 139.48 122.4 141.01 120.88 142" stroke="#1D1D1B" stroke-linecap="round" stroke-linejoin="round"/>
<path d="M109.4 78.04C103.66 80.77 100.07 86.82 98.7101 93.04C97.3501 99.26 97.9101 105.7 98.4701 112.04" stroke="#1D1D1B" stroke-linecap="round" stroke-linejoin="round"/>
<path d="M98.6588 115.93C97.6024 121.904 95.9267 127.752 93.6588 133.38C93.0288 134.96 92.3387 136.65 92.7087 138.31C93.1887 140.47 95.3787 142.11 95.3087 144.31C95.3036 144.491 95.2835 144.672 95.2487 144.85C95.0863 145.465 94.7932 146.038 94.3894 146.53C93.9856 147.022 93.4806 147.421 92.9088 147.7C91.5863 148.305 90.1683 148.673 88.7188 148.79" stroke="#1D1D1B" stroke-linecap="round" stroke-linejoin="round"/>
<path d="M89.8789 87.2798C90.2918 94.6943 91.9834 101.982 94.8789 108.82" stroke="#1D1D1B" stroke-linecap="round" stroke-linejoin="round"/>
<path d="M70.5 104.22C74.6811 116.568 81.1846 128.003 89.66 137.91" stroke="#1D1D1B" stroke-linecap="round" stroke-linejoin="round"/>
<path d="M62.4395 127.3C68.8278 133.8 76.7313 138.611 85.4395 141.3" stroke="#1D1D1B" stroke-linecap="round" stroke-linejoin="round"/>
<path d="M106.229 91.3296C107.959 103.091 107.13 115.088 103.799 126.5" stroke="#1D1D1B" stroke-linecap="round" stroke-linejoin="round"/>
<path d="M112.95 114.12C111.819 119.653 109.312 124.812 105.66 129.12" stroke="#1D1D1B" stroke-linecap="round" stroke-linejoin="round"/>
<path d="M102.459 133.41C103.059 133.1 103.669 132.8 104.279 132.51C107.856 130.773 111.529 129.241 115.279 127.92" stroke="#1D1D1B" stroke-linecap="round" stroke-linejoin="round"/>
<path d="M98.6592 115.59C98.6592 115.7 98.6592 115.82 98.6592 115.93C98.2992 121.54 101.559 127.23 99.9492 132.63C99.8792 132.86 99.7992 133.1 99.7192 133.34C99.3984 134.099 99.2351 134.916 99.2392 135.74C99.3192 136.8 100.239 137.91 101.309 137.64C99.5425 139.72 98.1456 142.088 97.1792 144.64C97.1792 144.77 97.0792 144.9 97.0392 145.03C96.8789 145.455 96.8008 145.906 96.8092 146.36C96.8092 146.95 98.0692 147.86 98.6192 148.09" stroke="#1D1D1B" stroke-linecap="round" stroke-linejoin="round"/>
<path d="M109.289 163.79C109.187 163.85 109.08 163.9 108.969 163.94C107.704 164.286 106.363 164.234 105.129 163.79C104.572 163.525 104.095 163.118 103.744 162.611C103.393 162.104 103.181 161.514 103.129 160.9" stroke="#1D1D1B" stroke-linecap="round" stroke-linejoin="round"/>
<path d="M83.7285 163.66C86.7892 161.872 89.5945 159.678 92.0685 157.14C94.6872 154.445 96.9429 151.419 98.7785 148.14C99.2785 147.23 99.7785 146.29 100.199 145.35C101.467 144.473 102.972 144.004 104.514 144.004C106.055 144.004 107.56 144.473 108.829 145.35C110.951 146.884 112.387 149.189 112.829 151.77C112.926 152.248 112.99 152.733 113.018 153.22C113.118 156.313 112.338 159.372 110.768 162.04C110.474 162.647 110.055 163.185 109.539 163.62" stroke="#1D1D1B" stroke-linecap="round" stroke-linejoin="round"/>
<path d="M112.87 151.76C109.391 154.524 106.15 157.575 103.18 160.88C98.4347 166.163 94.419 172.059 91.2402 178.41" stroke="#1D1D1B" stroke-linecap="round" stroke-linejoin="round"/>
<path d="M109.289 163.79C109.379 163.742 109.466 163.689 109.549 163.63C114.199 160.96 116.809 156.29 119.159 151.44C119.799 150.273 120.219 148.998 120.399 147.68C120.476 147.018 120.377 146.348 120.112 145.737C119.847 145.125 119.425 144.595 118.889 144.2C119.539 144.6 120.419 143.99 120.579 143.2C120.647 142.806 120.62 142.401 120.499 142.02C120.391 141.678 120.261 141.344 120.109 141.02L117.879 136.12L117.799 135.95" stroke="#1D1D1B" stroke-linecap="round" stroke-linejoin="round"/>
<path d="M116.37 136.82C116.405 137.077 116.363 137.339 116.251 137.573C116.14 137.808 115.962 138.004 115.74 138.14C115.04 138.5 114.23 138 113.56 137.59C112.009 136.664 110.279 136.079 108.484 135.872C106.69 135.665 104.872 135.841 103.15 136.39C103.729 135.659 104.459 135.062 105.29 134.64C106.721 133.953 108.284 133.588 109.87 133.57C111.97 133.5 114.27 133.89 115.68 135.45C116.043 135.827 116.283 136.304 116.37 136.82Z" stroke="#1D1D1B" stroke-linecap="round" stroke-linejoin="round"/>
<path d="M55.4297 77.3398C61.4245 79.9727 67.8832 81.3868 74.4297 81.4998" stroke="#1D1D1B" stroke-linecap="round" stroke-linejoin="round"/>
<path d="M54.0098 80.6899C59.1444 83.488 64.8036 85.1905 70.6298 85.6899" stroke="#1D1D1B" stroke-linecap="round" stroke-linejoin="round"/>
<path d="M0.939453 124.62C7.19945 127.353 13.4195 130.17 19.5995 133.07C22.4861 134.403 25.3628 135.773 28.2295 137.18" stroke="#1D1D1B" stroke-linecap="round" stroke-linejoin="round"/>
<path d="M3.57031 114.72C9.43256 117.035 15.5762 118.562 21.8403 119.26C22.9003 119.38 23.9703 119.49 25.0603 119.59" stroke="#1D1D1B" stroke-linecap="round" stroke-linejoin="round"/>
<path d="M44.2192 144.78C42.9109 147.182 42.4896 149.968 43.0292 152.65C36.8892 164.26 35.8392 177.84 35.5192 190.97C34.8192 219.33 36.8992 247.67 38.9792 275.97C40.1992 292.47 41.4125 308.973 42.6192 325.48" stroke="#1D1D1B" stroke-linecap="round" stroke-linejoin="round"/>
<path d="M68.5391 224.67C77.8197 258.574 84.1104 293.227 87.3391 328.23" stroke="#1D1D1B" stroke-linecap="round" stroke-linejoin="round"/>
<path d="M59.7793 195.75C60.0893 196.68 60.3993 197.61 60.6993 198.55C63.5193 207.217 66.1326 215.92 68.5393 224.66" stroke="#1D1D1B" stroke-linecap="round" stroke-linejoin="round"/>
<path d="M87.8887 146.33C88.5249 147.925 88.8964 149.614 88.9886 151.33C88.9936 151.369 88.9936 151.41 88.9886 151.45" stroke="#1D1D1B" stroke-linecap="round" stroke-linejoin="round"/>
<path d="M53.1504 138.18C56.0004 140.96 60.0104 142.18 63.9404 142.84C67.8704 143.5 71.8804 143.6 75.7404 144.57C77.9558 145.273 80.2053 145.864 82.4804 146.34H82.9704C84.57 146.565 86.2004 146.397 87.7204 145.85C88.251 145.658 88.7551 145.399 89.2204 145.08H89.1604" stroke="#1D1D1B" stroke-linecap="round" stroke-linejoin="round"/>
<path d="M89.0801 151.55C89.9501 153.42 90.9201 155.26 91.9701 157.04" stroke="#1D1D1B" stroke-linecap="round" stroke-linejoin="round"/>
<path d="M90.3496 245.41C93.0601 254.142 96.4194 262.659 100.4 270.89" stroke="#1D1D1B" stroke-linecap="round" stroke-linejoin="round"/>
<path d="M89.0391 257.84C91.7154 266.048 95.7221 273.761 100.899 280.67" stroke="#1D1D1B" stroke-linecap="round" stroke-linejoin="round"/>
<path d="M62.4786 266.32L54.0586 283.12" stroke="#1D1D1B" stroke-linecap="round" stroke-linejoin="round"/>
<path d="M61.5901 277.22C56.8079 291.169 51.2117 304.826 44.8301 318.12" stroke="#1D1D1B" stroke-linecap="round" stroke-linejoin="round"/>
<path d="M82.7598 161.66C82.9664 162.36 83.1864 163.06 83.4198 163.76C85.2061 169.046 87.8148 174.017 91.1497 178.49C91.3997 178.82 91.6498 179.16 91.9098 179.49" stroke="#1D1D1B" stroke-linecap="round" stroke-linejoin="round"/>
<path d="M70.4503 156.63C68.9703 161.15 67.4836 165.667 65.9902 170.18" stroke="#1D1D1B" stroke-linecap="round" stroke-linejoin="round"/>
<path d="M72.9201 156C71.4603 163.865 70.4288 171.803 69.8301 179.78" stroke="#1D1D1B" stroke-linecap="round" stroke-linejoin="round"/>
<path d="M52.3095 155.35C51.3095 162.68 50.1795 171.03 50.8995 178.35C51.5795 185.35 54.0196 192.42 58.8496 197.49C59.1096 197.76 59.3696 198.02 59.6396 198.28" stroke="#1D1D1B" stroke-linecap="round" stroke-linejoin="round"/>
<path d="M56.2685 157.03C54.1819 168.612 54.2802 180.483 56.5585 192.03C56.8137 194.043 57.6084 195.951 58.8586 197.55C59.3009 198.023 59.8351 198.4 60.4285 198.66" stroke="#1D1D1B" stroke-linecap="round" stroke-linejoin="round"/>
<path d="M40.0195 178.22C44.6521 185.594 50.0632 192.45 56.1595 198.67" stroke="#1D1D1B" stroke-linecap="round" stroke-linejoin="round"/>
<path d="M43.0391 207.95L57.5491 202.78" stroke="#1D1D1B" stroke-linecap="round" stroke-linejoin="round"/>
<path d="M61.8096 206.44L54.5996 211.81" stroke="#1D1D1B" stroke-linecap="round" stroke-linejoin="round"/>
<path d="M97.4785 169.12C100.989 184.63 100.558 200.72 100.118 216.61C99.7285 230.47 99.3385 244.34 99.4185 258.24C100.09 259.087 100.497 260.113 100.592 261.19C100.686 262.267 100.462 263.348 99.9485 264.3" stroke="#1D1D1B" stroke-linecap="round" stroke-linejoin="round"/>
<path d="M98.1797 261.18C98.8575 262.16 99.4497 263.197 99.9497 264.28C102.23 269.2 102.72 274.94 103.12 280.43C104.28 296.11 105.436 311.776 106.59 327.43" stroke="#1D1D1B" stroke-linecap="round" stroke-linejoin="round"/>
<path d="M87.3398 328.34C88.1061 329.258 89.1658 329.883 90.3398 330.11C93.1478 330.879 96.0486 331.256 98.9598 331.23C100.055 331.175 101.138 330.974 102.18 330.63C103.919 330.081 105.461 329.039 106.62 327.63" stroke="#1D1D1B" stroke-linecap="round" stroke-linejoin="round"/>
<path d="M42.6602 325.78L43.4301 325.88C48.1599 326.52 52.9582 326.46 57.6702 325.7C59.3558 325.438 61.0251 325.081 62.6702 324.63" stroke="#1D1D1B" stroke-linecap="round" stroke-linejoin="round"/>
<path d="M68.5388 224.66C66.095 240.952 65.1311 257.433 65.6588 273.9C65.7388 276.48 65.7288 279.39 65.0388 280.54C65.3463 295.241 64.5977 309.946 62.7988 324.54" stroke="#1D1D1B" stroke-linecap="round" stroke-linejoin="round"/>
<path d="M43.3891 326.4C43.5091 330.46 43.6291 334.61 42.3891 338.49C41.3891 341.83 39.3891 344.82 38.2891 348.14C36.4391 353.64 36.4691 359.74 33.2891 364.6" stroke="#1D1D1B" stroke-linecap="round" stroke-linejoin="round"/>
<path d="M57.6592 325.7C56.7792 330.11 56.0992 334.5 55.6592 339.13L55.5692 340.02C55.8706 340.608 56.0523 341.251 56.1038 341.91C56.1553 342.569 56.0756 343.232 55.8692 343.86C55.4585 345.112 54.8871 346.305 54.1692 347.41C51.6692 351.61 49.1725 355.816 46.6792 360.03C45.3192 362.31 43.8492 364.71 41.4792 365.91C39.1092 367.11 35.3792 366.37 33.2792 364.66L33.1992 364.6" stroke="#1D1D1B" stroke-linecap="round" stroke-linejoin="round"/>
<path d="M53.459 336.18C53.967 337.742 54.1406 339.393 53.9683 341.026C53.796 342.659 53.2817 344.238 52.459 345.66" stroke="#1D1D1B" stroke-linecap="round" stroke-linejoin="round"/>
<path d="M56.4586 373.96L54.4087 373.86H54.3887" stroke="#1D1D1B" stroke-linecap="round" stroke-linejoin="round"/>
<path d="M55.9785 339.12C57.1808 340.294 57.9374 341.849 58.1185 343.52C58.3092 345.181 58.3092 346.858 58.1185 348.52C57.9452 350.52 57.7985 352.536 57.6785 354.57C57.2785 361.02 57.0485 367.57 56.4985 373.93" stroke="#1D1D1B" stroke-linecap="round" stroke-linejoin="round"/>
<path d="M53.7891 356.74C53.9691 362.38 54.1524 368.02 54.3391 373.66" stroke="#1D1D1B" stroke-linecap="round" stroke-linejoin="round"/>
<path d="M55.8488 354.48C55.0931 355.169 54.391 355.914 53.7488 356.71C50.5388 360.59 48.5788 365.46 46.2988 370.01C45.6018 371.69 44.4947 373.168 43.0788 374.31C40.9888 375.76 38.2388 375.67 35.6988 375.53L22.3988 374.78H22.0488" stroke="#1D1D1B" stroke-linecap="round" stroke-linejoin="round"/>
<path d="M33.2102 364.6L22.8602 370.95C22.3294 371.235 21.8496 371.607 21.4402 372.05C21.2388 372.273 21.0937 372.541 21.0171 372.831C20.9406 373.122 20.9348 373.426 21.0002 373.72C21.1802 374.3 21.8402 375 22.4002 374.78" stroke="#1D1D1B" stroke-linecap="round" stroke-linejoin="round"/>
<path d="M90.2902 330.43C90.6802 336.18 89.3602 341.9 88.0502 347.51C87.0502 351.59 86.1402 355.67 84.8602 359.65C84.2451 361.971 83.1555 364.14 81.6602 366.02C81.565 366.143 81.4614 366.26 81.3502 366.37C80.2402 367.52 78.8401 368.37 77.8101 369.59C77.0981 370.435 76.592 371.434 76.3317 372.508C76.0714 373.582 76.064 374.702 76.3101 375.78C77.0501 376.91 78.6402 376.96 79.9802 376.88C85.4202 376.59 90.8601 376.29 96.4001 375.88C98.0701 374.19 98.6502 371.73 99.3002 369.44C100.146 366.512 101.24 363.661 102.57 360.92C103.55 358.842 104.676 356.837 105.94 354.92C105.94 354.84 106.04 354.76 106.09 354.68C106.5 349.355 105.151 344.043 102.25 339.56" stroke="#1D1D1B" stroke-linecap="round" stroke-linejoin="round"/>
<path d="M102.719 330.77C102.29 333.703 102.136 336.669 102.259 339.63C102.332 341.404 102.499 343.173 102.759 344.93C101.639 352.2 100.429 359.74 96.2792 365.81C95.3992 367.11 94.2192 368.42 92.6492 368.57C91.5069 368.552 90.3855 368.261 89.3792 367.72C86.9388 366.711 84.3381 366.146 81.6992 366.05" stroke="#1D1D1B" stroke-linecap="round" stroke-linejoin="round"/>
<path d="M100.959 342.51C101.16 343.558 101.15 344.636 100.932 345.682C100.714 346.727 100.292 347.718 99.6895 348.6V348.48" stroke="#1D1D1B" stroke-linecap="round" stroke-linejoin="round"/>
<path d="M106.1 355.12C105.397 361.837 105.304 368.605 105.82 375.34" stroke="#1D1D1B" stroke-linecap="round" stroke-linejoin="round"/>
<path d="M102.6 360.95C102.87 365.82 103.13 370.7 103.46 375.73C104.16 375.73 104.85 375.79 105.54 375.73C105.635 375.739 105.731 375.714 105.81 375.66C105.827 375.645 105.84 375.626 105.85 375.606C105.859 375.585 105.864 375.562 105.864 375.54C105.864 375.517 105.859 375.495 105.85 375.474C105.84 375.453 105.827 375.435 105.81 375.42" stroke="#1D1D1B" stroke-linecap="round" stroke-linejoin="round"/>
<path d="M45.6593 145.98C44.8781 148.153 44.6311 150.482 44.9393 152.77C44.9393 152.82 44.9393 152.87 44.9393 152.92" stroke="#1D1D1B" stroke-linecap="round" stroke-linejoin="round"/>
<path d="M63.6602 147.93C64.0954 149.973 64.2767 152.062 64.2002 154.15C64.2002 154.43 64.2002 154.73 64.2002 155.04" stroke="#1D1D1B" stroke-linecap="round" stroke-linejoin="round"/>
<path d="M65.9902 147.93C66.4407 149.835 66.6224 151.794 66.5302 153.75C66.5302 154.18 66.5303 154.63 66.4503 155.12" stroke="#1D1D1B" stroke-linecap="round" stroke-linejoin="round"/>
<path d="M77.7188 147.17C78.4941 148.905 78.8372 150.803 78.7188 152.7C78.7187 152.96 78.7188 153.22 78.7188 153.49" stroke="#1D1D1B" stroke-linecap="round" stroke-linejoin="round"/>
<path d="M80.5787 151.42C80.2687 149.49 79.8887 147.15 79.8887 147.15C80.2292 148.553 80.4599 149.981 80.5787 151.42Z" stroke="#1D1D1B" stroke-linecap="round" stroke-linejoin="round"/>
<path d="M80.9689 153.89C80.964 153.863 80.964 153.836 80.9689 153.81C80.9689 153.81 80.9689 153.75 80.9689 153.71C80.9689 153.48 80.8689 153.05 80.7789 152.51C80.7789 152.21 80.6789 151.88 80.6289 151.51" stroke="#1D1D1B" stroke-linecap="round" stroke-linejoin="round"/>
<path d="M80.5996 151.53C80.6796 152.22 80.7796 152.93 80.9396 153.7" stroke="#1D1D1B" stroke-linecap="round" stroke-linejoin="round"/>
<path d="M80.5996 151.53C80.5996 151.53 80.5996 151.46 80.5996 151.42" stroke="#1D1D1B" stroke-linecap="round" stroke-linejoin="round"/>
<path d="M81 152.46L88.57 151.34" stroke="#1D1D1B" stroke-linecap="round" stroke-linejoin="round"/>
<path d="M80.3398 146.74C80.5598 146.68 80.7798 146.64 80.9998 146.6C81.6498 146.49 82.2798 146.46 82.9998 146.41" stroke="#1D1D1B" stroke-linecap="round" stroke-linejoin="round"/>
<path d="M66.7285 153.76C70.7093 153.858 74.6883 153.502 78.5885 152.7" stroke="#1D1D1B" stroke-linecap="round" stroke-linejoin="round"/>
<path d="M57.3496 154.12C59.4609 154.25 61.5783 154.25 63.6896 154.12" stroke="#1D1D1B" stroke-linecap="round" stroke-linejoin="round"/>
<path d="M48.7486 147.62C48.7384 148.176 48.7853 148.733 48.8886 149.28C51.0386 149.28 53.1986 149.28 55.3186 149.35C55.2186 150.65 55.1886 151.95 55.1586 153.35C53.0222 153.556 50.8699 153.533 48.7386 153.28C48.7283 153.463 48.7283 153.646 48.7386 153.83C48.6991 154.225 48.6991 154.624 48.7386 155.02C49.5094 155.198 50.2974 155.292 51.0886 155.3C51.5386 155.3 51.9386 155.37 52.3286 155.38C53.8586 155.38 55.0186 155.33 56.3986 155.45L57.0086 155.52" stroke="#1D1D1B" stroke-linecap="round" stroke-linejoin="round"/>
<path d="M56.7695 147.93C56.8395 150.02 56.8995 152.09 56.9695 154.17C56.9695 154.59 56.9695 155.02 56.9695 155.44" stroke="#1D1D1B" stroke-linecap="round" stroke-linejoin="round"/>
<path d="M49.1094 147.32L51.1594 147.41C53.0494 147.49 54.9294 147.54 56.8194 147.57L56.7094 147.72" stroke="#1D1D1B" stroke-linecap="round" stroke-linejoin="round"/>
<path d="M45.0098 152.76C46.1652 153.164 47.344 153.498 48.5398 153.76" stroke="#1D1D1B" stroke-linecap="round" stroke-linejoin="round"/>
<path d="M48.3594 151.12L52.9194 151.2" stroke="white" stroke-linecap="round" stroke-linejoin="round"/>
<path d="M56.75 147.55H56.82C59.1067 147.683 61.3967 147.746 63.69 147.74C64.46 147.74 65.23 147.74 65.99 147.74C69.9033 147.666 73.8067 147.42 77.7 147C78.41 146.93 79.13 146.84 79.84 146.75L81 146.6H81.15" stroke="#1D1D1B" stroke-linecap="round" stroke-linejoin="round"/>
</svg>
