<svg width="154" height="99" viewBox="0 0 154 99" fill="none" xmlns="http://www.w3.org/2000/svg">
<path d="M150.96 66.1201C151.475 66.6067 151.881 67.1973 152.151 67.8527C152.42 68.5081 152.547 69.2132 152.524 69.9214C152.5 70.6297 152.326 71.3248 152.013 71.9607C151.701 72.5967 151.257 73.1589 150.71 73.6101C148.71 75.2501 145.87 75.2101 143.65 76.4701C142.245 77.4729 140.936 78.6044 139.74 79.8501C138.42 80.9701 136.65 81.8501 135 81.3301C134.82 81.1801 132.67 79.4101 131.42 78.3301C130.79 77.7101 130.35 77.2401 130.33 77.2401L130.82 77.1101C131.815 76.7716 132.699 76.1697 133.379 75.3684C134.059 74.5672 134.508 73.5967 134.68 72.5601V72.4601C134.924 72.6944 135.235 72.845 135.57 72.8901C136.347 72.8824 137.109 72.6721 137.78 72.2801C138.586 71.9928 139.411 71.7655 140.25 71.6001C141.094 71.4232 141.896 71.0835 142.61 70.6001C142.965 70.3579 143.261 70.0388 143.475 69.6666C143.69 69.2944 143.818 68.8786 143.85 68.4501C143.861 68.0209 143.721 67.6013 143.454 67.2649C143.187 66.9286 142.811 66.6968 142.39 66.6101C141.592 66.6436 140.822 66.9153 140.18 67.3901C139.984 67.4804 139.784 67.5605 139.58 67.6301L138.97 67.7701C141.4 67.0501 142.42 65.3501 144.61 64.7701C145.697 64.4451 146.848 64.3984 147.957 64.6343C149.067 64.8702 150.099 65.3811 150.96 66.1201Z" fill="#1D1D1B"/>
<path d="M142.409 66.6001C142.83 66.6868 143.207 66.9186 143.474 67.2549C143.74 67.5913 143.881 68.0109 143.869 68.4401C143.838 68.8686 143.709 69.2844 143.495 69.6566C143.28 70.0288 142.984 70.3479 142.629 70.5901C141.915 71.0735 141.114 71.4132 140.269 71.5901C139.43 71.7555 138.605 71.9829 137.799 72.2701C137.128 72.6621 136.367 72.8724 135.589 72.8801C135.255 72.835 134.943 72.6844 134.699 72.4501C134.474 72.2529 134.296 72.0076 134.179 71.7324C134.061 71.4572 134.007 71.1591 134.019 70.8601C134.04 70.5169 134.129 70.1812 134.28 69.8723C134.431 69.5634 134.641 69.2874 134.899 69.0601L135.119 68.8701C135.834 68.4229 136.648 68.1585 137.489 68.1001C138.119 67.9801 138.429 67.9101 138.989 67.7801L139.599 67.6401C139.803 67.5705 140.004 67.4904 140.199 67.4001C140.839 66.9182 141.609 66.6394 142.409 66.6001Z" fill="white"/>
<path d="M77.3498 13.01V12.91C76.5633 12.3425 75.6473 11.981 74.6853 11.8583C73.7232 11.7357 72.7458 11.8558 71.8421 12.2077C70.9383 12.5597 70.1371 13.1322 69.5114 13.8732C68.8857 14.6142 68.4554 15.5001 68.2598 16.45C68.0001 15.6521 67.9586 14.7992 68.1398 13.9799C68.3453 12.997 68.8077 12.086 69.4798 11.3399C70.7645 10.0072 72.4787 9.17136 74.3198 8.97993C76.1509 8.79304 78.0006 8.93874 79.7798 9.40996C80.1398 9.48996 80.4898 9.57995 80.8398 9.67995L81.0298 8.98994C81.4436 8.11484 82.0591 7.35037 82.8257 6.75932C83.5923 6.16828 84.4882 5.76752 85.4398 5.58995C87.459 5.31022 89.5056 5.29006 91.5298 5.52995C94.9356 3.54975 98.6565 2.16964 102.53 1.44993C106.442 0.739953 110.478 1.27508 114.07 2.97993C119.07 5.48993 122.32 10.5999 123.63 15.9799C124.13 17.9799 124.37 20.1199 124.82 22.1699C125.193 24.2485 126 26.225 127.19 27.9699C127.79 28.8372 128.568 29.5672 129.471 30.112C130.374 30.6567 131.383 31.0036 132.43 31.13C133.473 31.2145 134.517 30.9818 135.425 30.4625C136.333 29.9432 137.064 29.1615 137.52 28.2199C137.613 28.9514 137.511 29.6944 137.225 30.3739C136.938 31.0534 136.478 31.6453 135.89 32.0899C134.692 32.9671 133.201 33.3469 131.73 33.15C130.336 32.9759 129.014 32.434 127.9 31.58C129.169 33.2401 130.567 34.7982 132.08 36.2399C133.595 37.6835 134.829 39.3958 135.72 41.2899C136.155 42.2319 136.376 43.259 136.365 44.2967C136.355 45.3344 136.114 46.3568 135.66 47.2899C135.167 48.2156 134.368 48.9413 133.4 49.3427C132.431 49.744 131.353 49.7961 130.35 49.4899C131.731 49.0904 132.896 48.1588 133.59 46.9C133.941 46.278 134.074 45.5568 133.969 44.8504C133.864 44.1441 133.527 43.4929 133.01 43C132.049 45.0093 130.446 46.6405 128.453 47.635C126.46 48.6295 124.193 48.9304 122.01 48.4899C124.322 47.3776 126.238 45.5838 127.5 43.3499C126.111 45.3939 124.158 46.9898 121.878 47.9433C119.598 48.8967 117.09 49.1665 114.66 48.7199C116.792 48.2907 118.727 47.1778 120.17 45.5499C118.404 46.3831 116.46 46.7678 114.51 46.6699C116.425 46.0946 118.067 44.8439 119.13 43.15C116.611 44.0861 113.88 44.2906 111.25 43.7399C110.54 43.6099 109.85 43.45 109.17 43.26C110.26 42.739 111.27 42.0656 112.17 41.26C114.89 38.71 116.29 33.64 118.5 32.38L118.56 32.2999C118.886 30.1392 118.794 27.9361 118.29 25.8099C118.121 26.3855 117.833 26.9194 117.446 27.3775C117.058 27.8355 116.579 28.2076 116.04 28.4699C116.496 27.693 116.791 26.8323 116.908 25.939C117.025 25.0457 116.961 24.1381 116.72 23.27C115.888 25.8278 114.204 28.023 111.949 29.4898C109.695 30.9565 107.005 31.606 104.33 31.33C105.408 31.0354 106.389 30.4599 107.173 29.6623C107.957 28.8647 108.514 27.8735 108.79 26.7899C109.309 24.6066 109.177 22.319 108.41 20.21C108.039 22.1936 106.954 23.9724 105.36 25.21C105.18 25.35 104.99 25.4799 104.8 25.6099C104.655 25.3977 104.498 25.194 104.33 25C105.848 23.7647 106.864 22.0195 107.19 20.0899C106.002 21.1279 104.619 21.9176 103.121 22.4122C101.624 22.9069 100.042 23.0965 98.4698 22.9699C97.3449 24.8167 95.834 26.3984 94.0406 27.6066C92.2473 28.8148 90.2139 29.621 88.0798 29.9699V30.1799C88.131 30.4784 88.2679 30.7555 88.4739 30.9775C88.6799 31.1995 88.946 31.3567 89.2398 31.4299C88.7338 31.5949 88.2702 31.8689 87.8815 32.2324C87.4929 32.596 87.1887 33.0404 86.9903 33.5343C86.792 34.0281 86.7044 34.5596 86.7337 35.091C86.763 35.6224 86.9084 36.1408 87.1598 36.6099C86.5723 35.9135 86.0564 35.1597 85.6198 34.3599C85.3166 33.8079 85.0943 33.2152 84.9598 32.5999C84.7704 31.8498 84.8102 31.0602 85.074 30.333C85.3379 29.6057 85.8136 28.9742 86.4398 28.52C84.8042 29.2565 83.4975 30.5703 82.7698 32.21C82.0585 33.8586 81.9908 35.7138 82.5798 37.4099C81.6251 36.8895 80.79 36.1747 80.1286 35.3116C79.4671 34.4485 78.9939 33.4564 78.7395 32.3992C78.4851 31.342 78.4552 30.2432 78.6516 29.1737C78.848 28.1042 79.2664 27.0878 79.8798 26.19C78.4977 26.9272 77.3678 28.0611 76.6353 29.4458C75.9029 30.8304 75.6014 32.4026 75.7698 33.96C74.7848 32.4464 74.3931 30.6225 74.6699 28.838C74.9467 27.0534 75.8725 25.4339 77.2698 24.2899C76.083 24.7619 75.0341 25.525 74.2197 26.5089C73.4054 27.4928 72.8517 28.6658 72.6098 29.9199C72.3236 28.8754 72.2968 27.7768 72.5317 26.7196C72.7667 25.6623 73.2564 24.6785 73.9581 23.8535C74.6599 23.0286 75.5524 22.3875 76.5583 21.986C77.5642 21.5846 78.6529 21.4349 79.7298 21.5499C77.7791 20.9895 75.7243 20.8936 73.7298 21.27C71.7022 21.664 69.9083 22.8335 68.7298 24.5299C68.1659 25.3794 67.8397 26.3645 67.7852 27.3826C67.7307 28.4008 67.9498 29.4151 68.4198 30.32C67.4737 28.9411 66.8985 27.3418 66.7496 25.6762C66.6007 24.0106 66.8832 22.3347 67.5698 20.8099C68.6515 18.7222 70.223 16.9276 72.1498 15.5799C73.547 14.4192 75.1719 13.5642 76.9198 13.07L77.3498 13.01Z" fill="#1D1D1B"/>
<path d="M134.439 68.6499L134.899 69.0399C134.641 69.2671 134.43 69.5431 134.279 69.8521C134.128 70.161 134.04 70.4966 134.019 70.8398C134.006 71.1389 134.061 71.437 134.178 71.7122C134.296 71.9873 134.474 72.2326 134.699 72.4299V72.5298C134.527 73.5664 134.077 74.537 133.398 75.3383C132.718 76.1395 131.834 76.7414 130.839 77.0799L130.349 77.2099L130.109 76.9599L125.959 73.7399C127.428 73.0991 128.689 72.0599 129.599 70.7399C130.371 69.5098 130.742 68.0699 130.659 66.6199L130.859 66.3398C132.002 67.1851 133.198 67.9567 134.439 68.6499Z" fill="#0B6CFF"/>
<path d="M130.87 66.3401L130.67 66.6202C130.733 68.0733 130.341 69.5098 129.55 70.7302C128.64 72.0502 127.379 73.0894 125.91 73.7302L124.54 72.6602C122.454 70.9713 120.259 69.4213 117.97 68.0202C114.37 66.1577 110.616 64.6086 106.75 63.3902C107.476 62.6238 108.145 61.8049 108.75 60.9402C109.64 59.7306 110.316 58.3778 110.75 56.9402C111.161 55.5667 111.28 54.1225 111.1 52.7002C115.618 54.4463 119.802 56.9562 123.47 60.1202C125.89 62.2502 128.28 64.4401 130.87 66.3401Z" fill="white"/>
<path d="M104.79 25.6002C104.98 25.4702 105.17 25.3402 105.35 25.2002C106.944 23.9626 108.029 22.1838 108.4 20.2002C109.167 22.3092 109.299 24.5968 108.78 26.7802C108.505 27.8638 107.947 28.8549 107.163 29.6525C106.38 30.4501 105.399 31.0256 104.32 31.3202C106.996 31.5962 109.685 30.9467 111.94 29.48C114.194 28.0133 115.878 25.818 116.71 23.2602C116.951 24.1283 117.015 25.0359 116.898 25.9293C116.781 26.8226 116.486 27.6833 116.03 28.4602C116.57 28.1978 117.048 27.8257 117.436 27.3677C117.823 26.9096 118.111 26.3757 118.28 25.8002C118.784 27.9263 118.876 30.1295 118.55 32.2902L118.49 32.3702C116.28 33.6302 114.88 38.7002 112.16 41.2502C111.26 42.0558 110.25 42.7292 109.16 43.2502C108.64 43.5202 108.16 43.7602 107.58 43.9902C106.415 44.5174 105.194 44.9099 103.94 45.1602C103.497 45.2335 103.049 45.277 102.6 45.2902C101.832 45.3099 101.064 45.2224 100.32 45.0302C97.8037 44.3023 95.5947 42.7711 94.0301 40.6702C92.275 38.2052 90.9528 35.4593 90.1201 32.5502C90.0101 32.2202 89.9001 31.8902 89.8001 31.5502V31.4902C89.6097 31.4919 89.4203 31.4615 89.2401 31.4002C88.9462 31.3269 88.6801 31.1697 88.4742 30.9477C88.2682 30.7257 88.1312 30.4487 88.0801 30.1502V29.9402C90.2141 29.5913 92.2475 28.7851 94.0409 27.5768C95.8342 26.3686 97.3451 24.7869 98.4701 22.9402C99.6559 23.0372 100.85 22.9529 102.01 22.6902V22.8202C102.857 23.4417 103.626 24.1636 104.3 24.9702C103.014 26.0701 101.408 26.729 99.7201 26.8502C101.5 26.9827 103.276 26.5449 104.79 25.6002Z" fill="white"/>
<path d="M111.19 44.2098C111.65 45.4598 110.82 47.4998 110.19 48.6298L109.67 49.5598L106.67 54.8397C105.82 56.4781 104.815 58.0318 103.67 59.4797C102.51 60.931 100.954 62.0147 99.1905 62.5997L98.7905 63.0497C97.3267 63.047 95.8803 62.7325 94.5474 62.1273C93.2146 61.5221 92.0259 60.64 91.0605 59.5397L89.7305 59.1498C89.9917 58.0191 90.3463 56.9119 90.7905 55.8397V55.6398C91.6905 55.4731 92.5904 55.2831 93.4904 55.0698C96.17 54.5144 98.7428 53.5318 101.11 52.1597C102.424 51.3436 103.582 50.3008 104.53 49.0798L103.37 48.8798C103.771 48.4402 104.048 47.9022 104.173 47.3207C104.298 46.7391 104.266 46.135 104.08 45.5698L104 45.1697C105.254 44.9195 106.476 44.527 107.64 43.9998C108.17 43.7698 108.7 43.5298 109.22 43.2598C109.9 43.4498 110.59 43.6097 111.3 43.7397L111.19 44.2098Z" fill="#0B6CFF"/>
<path d="M111.129 52.7198C111.309 54.1421 111.19 55.5864 110.779 56.9598C110.345 58.3974 109.669 59.7503 108.779 60.9598C108.174 61.8246 107.505 62.6434 106.779 63.4098C106.165 64.0419 105.496 64.6175 104.779 65.1298C101.589 67.3998 98.0592 68.1298 94.1992 68.7598C94.9392 67.7598 95.7092 66.7598 96.5092 65.7598C97.3092 64.7598 98.0192 63.9298 98.7992 63.0398L99.1992 62.5898C100.963 62.0047 102.519 60.921 103.679 59.4698C104.824 58.0218 105.829 56.4682 106.679 54.8298L109.679 49.5498L109.919 49.6898C110.565 50.5853 110.98 51.6258 111.129 52.7198Z" fill="#0B6CFF"/>
<path d="M107.179 20.1201C106.854 22.0497 105.837 23.7949 104.319 25.0301C103.646 24.2235 102.877 23.5016 102.029 22.8801V22.7501C103.938 22.3154 105.708 21.4114 107.179 20.1201Z" fill="white"/>
<path d="M66.5897 56.74C66.3313 57.7553 66.0209 58.7566 65.6597 59.74L65.4797 60.3C63.892 65.3696 62.9973 70.6306 62.8197 75.9401H62.7597C61.2497 75.2201 60.7597 75.5101 58.2497 73.7701C53.6785 70.3522 49.9218 65.9636 47.2497 60.92C46.1972 58.9527 45.3334 56.8902 44.6697 54.7601C44.001 52.8204 42.6841 51.1705 40.9408 50.0885C39.1976 49.0065 37.1347 48.5585 35.0997 48.8201C35.0231 48.8152 34.9463 48.8152 34.8697 48.8201C32.0397 49.3501 30.0497 45.5201 31.0697 42.8201C32.0897 40.1201 34.7697 38.5101 37.2297 37.0201C39.6897 35.5301 42.2997 33.6901 42.9697 30.8901C45.4097 20.7501 57.4897 12.03 67.7497 13.89L68.1597 13.99C67.9785 14.8093 68.02 15.6622 68.2797 16.4601C68.4753 15.5102 68.9056 14.6243 69.5313 13.8833C70.157 13.1423 70.9582 12.5698 71.8619 12.2178C72.7656 11.8659 73.7431 11.7458 74.7051 11.8684C75.6672 11.9911 76.5832 12.3526 77.3697 12.92V13.02L76.9697 13.1001C75.2218 13.5943 73.5969 14.4493 72.1997 15.61C70.2729 16.9577 68.7014 18.7522 67.6197 20.84C66.9331 22.3648 66.6506 24.0407 66.7995 25.7064C66.9484 27.372 67.5236 28.9712 68.4697 30.35C67.9997 29.4452 67.7806 28.431 67.8351 27.4128C67.8896 26.3946 68.2158 25.4096 68.7797 24.5601C69.9582 22.8637 71.7521 21.6941 73.7797 21.3C75.7742 20.9237 77.829 21.0196 79.7797 21.5801C78.7028 21.465 77.6141 21.6147 76.6082 22.0162C75.6023 22.4176 74.7097 23.0587 74.008 23.8836C73.3062 24.7085 72.8166 25.6924 72.5816 26.7496C72.3467 27.8069 72.3735 28.9055 72.6597 29.9501C72.9016 28.696 73.4553 27.523 74.2696 26.5391C75.084 25.5552 76.1329 24.7921 77.3197 24.3201C75.9224 25.4641 74.9966 27.0836 74.7198 28.8681C74.443 30.6526 74.8347 32.4765 75.8197 33.99C75.6514 32.4327 75.9528 30.8605 76.6852 29.4758C77.4176 28.0911 78.5476 26.9573 79.9297 26.22C79.3163 27.1179 78.8978 28.1344 78.7014 29.2039C78.505 30.2734 78.535 31.3721 78.7894 32.4293C79.0438 33.4865 79.517 34.4787 80.1785 35.3417C80.84 36.2048 81.675 36.9196 82.6297 37.4401C82.0406 35.7439 82.1084 33.8887 82.8197 32.24C83.5474 30.6004 84.854 29.2866 86.4897 28.55C85.8635 29.0043 85.3878 29.6358 85.124 30.363C84.8601 31.0903 84.8204 31.88 85.0097 32.6301C85.1442 33.2453 85.3665 33.8381 85.6697 34.3901H85.5897C84.9665 35.1687 84.5904 36.116 84.5097 37.11C84.437 38.1114 84.4772 39.1177 84.6297 40.11C84.9297 42.58 85.3897 45.11 86.8597 47.11C87.3992 47.937 88.214 48.5464 89.1597 48.8301C90.1517 48.9783 91.1653 48.814 92.0597 48.36C92.9507 47.9131 93.8999 47.5933 94.8797 47.41C95.1157 47.3851 95.3537 47.3851 95.5897 47.41C96.2564 47.4586 96.9015 47.6679 97.4697 48.0201C98.1597 48.4601 98.7097 49.1101 99.4697 49.5001C100.052 49.8016 100.711 49.9253 101.363 49.856C102.016 49.7867 102.633 49.5273 103.14 49.11C103.231 49.0319 103.318 48.9484 103.4 48.86L104.56 49.0601C103.611 50.2811 102.453 51.324 101.14 52.1401C98.7579 53.5426 96.1641 54.549 93.4597 55.1201C92.5597 55.3267 91.6597 55.5167 90.7597 55.6901C88.8514 56.0596 86.9204 56.3002 84.9797 56.41C84.1197 56.47 83.2497 56.49 82.3797 56.48C81.5042 56.5463 80.6298 56.3365 79.8797 55.8801C79.1146 57.1106 78.0652 58.1395 76.8197 58.8801C76.4997 59.7901 76.1297 60.68 75.7397 61.54L75.5697 61.47C73.8264 61.5099 72.1017 61.1048 70.5585 60.2929C69.0153 59.481 67.7044 58.2893 66.7497 56.8301L66.5897 56.74ZM95.4397 50.0101C95.4924 49.8826 95.5004 49.741 95.4622 49.6084C95.4241 49.4758 95.3421 49.36 95.2297 49.28C95.0097 49.13 94.6797 49.15 94.9397 49.1C94.7262 49.0918 94.5137 49.1337 94.3192 49.2222C94.1248 49.3108 93.9537 49.4436 93.8197 49.61C93.7101 49.7343 93.6495 49.8943 93.6495 50.0601C93.6495 50.2258 93.7101 50.3858 93.8197 50.5101C93.9417 50.5805 94.0783 50.6217 94.2188 50.6304C94.3594 50.639 94.5 50.615 94.6297 50.5601C94.7954 50.5293 94.9529 50.4645 95.0923 50.3699C95.2317 50.2752 95.35 50.1527 95.4397 50.0101Z" fill="#0B6CFF"/>
<path d="M104.049 45.5701C104.235 46.1353 104.266 46.7394 104.142 47.321C104.017 47.9025 103.74 48.4406 103.339 48.8801C103.258 48.9684 103.171 49.0519 103.079 49.1301C102.573 49.5473 101.955 49.8067 101.303 49.876C100.65 49.9454 99.992 49.8216 99.4093 49.5201C98.6793 49.1301 98.1293 48.52 97.4093 48.04C96.8411 47.6879 96.196 47.4786 95.5293 47.4301L95.6993 46.54C95.9341 46.5815 96.1712 46.6082 96.4093 46.6201C97.836 46.6749 99.2267 46.1646 100.279 45.2001V45.04C101.024 45.2322 101.791 45.3198 102.559 45.3C103.008 45.2869 103.456 45.2434 103.899 45.17L104.049 45.5701Z" fill="white"/>
<path d="M100.349 45.04V45.2001C99.2967 46.1646 97.906 46.6749 96.4794 46.6201C96.2413 46.6082 96.0041 46.5815 95.7693 46.54C94.613 46.3219 93.5596 45.732 92.7693 44.86C92.1994 44.1832 91.728 43.429 91.3694 42.6201C90.5978 41.0836 90.0297 39.4533 89.6794 37.7701C89.3283 36.0803 89.3901 34.3308 89.8594 32.67L90.2094 32.5601C91.0421 35.4691 92.3643 38.2151 94.1194 40.6801C95.6685 42.7703 97.855 44.3005 100.349 45.04Z" fill="white"/>
<path d="M91.0605 59.5399C92.0259 60.6401 93.2146 61.5222 94.5474 62.1274C95.8803 62.7326 97.3267 63.0471 98.7905 63.0499C98.0105 63.9399 97.2405 64.8499 96.5005 65.7699L96.2205 65.5399C94.6813 65.7531 93.1153 65.4405 91.7759 64.6529C90.4366 63.8652 89.4022 62.6486 88.8405 61.1999L88.7305 61.1399C89.0105 60.6299 89.3005 60.1399 89.6005 59.6299C89.6005 59.4699 89.6905 59.3099 89.7305 59.1499L91.0605 59.5399Z" fill="#0B6CFF"/>
<path d="M89.0694 91.5901L89.3894 92.1002C89.6973 92.5163 89.9122 92.9937 90.0193 93.5002C90.0669 93.7541 90.036 94.0165 89.9305 94.2523C89.8251 94.4882 89.6503 94.6863 89.4294 94.8202L88.9694 94.7602C89.1072 94.9794 89.1991 95.2243 89.2393 95.4802C89.2723 95.6485 89.2547 95.8227 89.1889 95.9811C89.123 96.1394 89.0119 96.2748 88.8694 96.3702C88.7303 96.4402 88.5747 96.4707 88.4196 96.4584C88.2644 96.446 88.1156 96.3913 87.9893 96.3002C87.7317 96.1157 87.514 95.881 87.3494 95.6102C86.0066 93.6893 84.8987 91.6145 84.0494 89.4302C84.3994 90.9902 84.9594 92.7902 85.3994 94.6102C85.5394 95.1902 85.5894 95.9502 85.0694 96.2302C84.8867 96.3021 84.6868 96.3187 84.4948 96.2778C84.3027 96.2369 84.1269 96.1403 83.9893 96.0002C83.7294 95.7119 83.535 95.3707 83.4194 95.0002C82.5727 92.7335 81.7927 90.4402 81.0794 88.1202C80.5994 89.2502 80.0794 90.4202 79.4994 91.5302C79.2194 92.0502 78.7294 92.6302 78.1694 92.4602C78.0577 92.417 77.9569 92.3497 77.8739 92.2634C77.791 92.177 77.728 92.0735 77.6894 91.9602C77.637 91.8229 77.6099 91.6771 77.6094 91.5302C77.6446 91.1425 77.7355 90.7619 77.8794 90.4002C78.2174 88.9119 78.3553 87.385 78.2894 85.8602C78.2274 84.324 78.7248 82.8174 79.6894 81.6202C80.5994 78.7902 81.6294 76.0102 82.7594 73.2902C83.7394 70.9435 84.8027 68.6335 85.9494 66.3602C86.8227 64.6002 87.7494 62.8668 88.7294 61.1602L88.8394 61.2202C89.4011 62.6689 90.4355 63.8856 91.7748 64.6732C93.1142 65.4609 94.6802 65.7734 96.2194 65.5602L96.4994 65.7902C95.6994 66.7902 94.9294 67.7902 94.1894 68.7902C91.1319 72.9173 88.413 77.2849 86.0594 81.8502C85.9307 82.1416 85.8642 82.4567 85.8642 82.7752C85.8642 83.0938 85.9307 83.4088 86.0594 83.7002C86.3206 84.2573 86.6318 84.7894 86.9893 85.2902C88.201 87.1474 89.0179 89.234 89.3894 91.4202L89.0694 91.5901Z" fill="white"/>
<path d="M95.7305 46.54L95.5605 47.43C95.3245 47.4051 95.0865 47.4051 94.8505 47.43C93.8707 47.6133 92.9214 47.9331 92.0305 48.38C91.136 48.834 90.1225 48.9982 89.1305 48.85C88.1847 48.5663 87.3699 47.957 86.8305 47.13C85.3605 45.13 84.9005 42.56 84.6005 40.13C84.448 39.1377 84.4077 38.1313 84.4805 37.13C84.5611 36.1359 84.9372 35.1886 85.5605 34.41H85.6405C86.077 35.2097 86.5929 35.9635 87.1805 36.66C86.9291 36.1909 86.7836 35.6724 86.7543 35.141C86.7251 34.6096 86.8126 34.0782 87.011 33.5844C87.2093 33.0905 87.5135 32.6461 87.9022 32.2825C88.2908 31.9189 88.7545 31.645 89.2605 31.48C89.4407 31.5413 89.6301 31.5718 89.8205 31.57V31.63C89.9205 31.96 90.0305 32.29 90.1405 32.63L89.7905 32.74C89.3212 34.4008 89.2595 36.1502 89.6105 37.84C89.9609 39.5231 90.529 41.1536 91.3005 42.69C91.6592 43.499 92.1305 44.2531 92.7005 44.93C93.5086 45.7818 94.5723 46.347 95.7305 46.54Z" fill="white"/>
<path d="M95.2296 49.2796C95.342 49.3596 95.4239 49.4754 95.4621 49.608C95.5002 49.7406 95.4923 49.8822 95.4396 50.0097C95.3455 50.1569 95.221 50.2821 95.0743 50.377C94.9277 50.4719 94.7624 50.5342 94.5896 50.5597C94.4599 50.6146 94.3192 50.6387 94.1787 50.63C94.0381 50.6213 93.9015 50.5801 93.7796 50.5097C93.6699 50.3854 93.6094 50.2254 93.6094 50.0597C93.6094 49.8939 93.6699 49.7339 93.7796 49.6097C93.9136 49.4432 94.0846 49.3104 94.2791 49.2218C94.4736 49.1333 94.686 49.0914 94.8996 49.0996C94.6596 49.1196 95.0096 49.1196 95.2296 49.2796Z" fill="white"/>
<path d="M90.7592 55.6401V55.8401C90.315 56.9122 89.9604 58.0194 89.6992 59.1501C89.6992 59.3101 89.6092 59.4701 89.5692 59.6301C89.2692 60.1301 88.9792 60.6301 88.6992 61.1401C87.7192 62.8535 86.7925 64.5868 85.9192 66.3401L83.8691 65.3401C84.4268 62.9395 84.821 60.504 85.0492 58.0501L84.9492 56.4001C86.9008 56.2784 88.8419 56.0245 90.7592 55.6401Z" fill="#0B6CFF"/>
<path d="M83.8992 65.2998L85.9492 66.2998C84.7959 68.5665 83.7325 70.8765 82.7592 73.2298L82.6092 73.1698C78.9173 75.5297 74.6208 76.7697 70.2392 76.7398H69.9492V76.4198C70.4692 71.7598 72.4392 68.0798 74.3292 64.3398C74.7992 63.3998 75.2692 62.4498 75.7092 61.4798C76.1492 60.5098 76.4692 59.7298 76.7892 58.8198C78.0347 58.0792 79.0841 57.0504 79.8492 55.8198C80.5993 56.2762 81.4736 56.486 82.3492 56.4198C83.2192 56.4198 84.0892 56.4198 84.9492 56.3498L85.0492 57.9998C84.8314 60.4564 84.4472 62.8953 83.8992 65.2998Z" fill="#0B6CFF"/>
<path d="M75.9597 92.1202C75.9867 92.1956 75.9963 92.2762 75.9876 92.3559C75.9789 92.4356 75.9523 92.5123 75.9098 92.5802C75.8137 92.6874 75.6908 92.7671 75.5537 92.811C75.4166 92.855 75.2703 92.8616 75.1298 92.8302C74.5068 92.7776 73.9175 92.525 73.4498 92.1102L73.2598 92.1902C72.5898 90.6102 71.8798 89.0402 71.2598 87.4502H71.3498C72.9565 88.6669 74.4163 90.0663 75.6998 91.6202C75.8143 91.7708 75.9022 91.9399 75.9597 92.1202Z" fill="white"/>
<path d="M75.5705 61.4199L75.7404 61.4899C75.3004 62.4899 74.8305 63.4099 74.3605 64.3499L74.1005 64.2199C72.4793 64.5371 70.7994 64.3341 69.3005 63.64C67.828 62.9504 66.6178 61.8034 65.8505 60.3699L65.4805 60.2499L65.6605 59.6899C66.0217 58.7065 66.3321 57.7052 66.5905 56.6899H66.7505C67.6945 58.1658 69.0007 59.3753 70.5446 60.2033C72.0886 61.0313 73.8188 61.4501 75.5705 61.4199Z" fill="#0B6CFF"/>
<path d="M74.0999 64.22L74.3599 64.35C72.4699 68.09 70.4999 71.77 69.9799 76.43V76.75C69.6399 79.81 69.4699 82.66 70.5299 85.56C70.7599 86.18 70.9999 86.79 71.2599 87.4C71.9099 88.99 72.6199 90.56 73.2599 92.14C73.5699 92.9 73.8799 93.66 74.1599 94.43C74.3699 94.99 74.5399 95.69 74.1599 96.13C73.9866 96.2911 73.7678 96.3949 73.5333 96.4271C73.2989 96.4593 73.0602 96.4184 72.8499 96.31C72.4416 96.0611 72.0988 95.7183 71.8499 95.31C71.3875 94.6617 70.9922 93.9681 70.6699 93.24C70.4193 92.2237 70.1121 91.2221 69.7499 90.24C69.9218 91.2764 70.2312 92.2853 70.6699 93.24C70.9238 94.2746 71.1174 95.323 71.2499 96.38C71.2999 96.77 71.3099 97.23 70.9999 97.46C70.8431 97.5599 70.6556 97.5997 70.4718 97.5721C70.288 97.5446 70.1204 97.4515 69.9999 97.31C69.761 97.0206 69.5963 96.6774 69.5199 96.31C69.5199 96.2 69.4599 96.1 69.4199 95.99C69.3976 95.7098 69.3507 95.432 69.2799 95.16C68.8212 93.3824 68.2603 91.6329 67.5999 89.92C68.2099 91.92 68.8199 93.92 69.4199 95.99C69.4447 96.1457 69.4447 96.3043 69.4199 96.46C69.3956 96.6801 69.299 96.8859 69.1452 97.0452C68.9913 97.2044 68.789 97.3081 68.5699 97.34C67.9799 97.4 67.5699 96.81 67.2799 96.34C66.3599 94.59 65.5899 91.34 65.1499 90.83L63.1499 90.35L63.2099 90.08C62.8209 85.3606 62.7174 80.6219 62.8999 75.89C63.0774 70.5806 63.9722 65.3196 65.5599 60.25L65.9299 60.37C66.6972 61.8035 67.9074 62.9505 69.3799 63.64C70.8552 64.3174 72.5044 64.52 74.0999 64.22Z" fill="white"/>
<path d="M65.1005 90.8301C65.2887 92.4795 64.8418 94.1385 63.8505 95.4701C63.4805 95.9801 62.7804 96.4701 62.2704 96.0901C61.7604 95.7101 61.9205 95.0901 62.0505 94.6201L63.0505 90.3501L65.1005 90.8301Z" fill="white"/>
<path d="M47.2096 60.87L46.9696 61C39.6363 64.2667 32.453 67.8167 25.4196 71.6501L25.3596 71.55C24.9812 69.9207 24.247 68.3953 23.2097 67.083C22.1724 65.7708 20.8576 64.7044 19.3596 63.9601L19.0996 63.76C23.5502 57.9311 28.9609 52.9026 35.0996 48.89V48.7701C37.1346 48.5085 39.1975 48.9565 40.9407 50.0385C42.684 51.1205 44.0009 52.7704 44.6696 54.7101C45.3204 56.8388 46.1709 58.9012 47.2096 60.87Z" fill="white"/>
<path d="M22.5502 72.9298C22.0246 73.9082 21.1967 74.6904 20.1902 75.1598C19.4976 75.481 18.7436 75.6482 17.9802 75.6498C17.0645 76.6704 16.0382 77.586 14.9202 78.3798L14.6902 78.0598C14.3019 77.5507 14.0681 76.9406 14.0166 76.3024C13.9652 75.6641 14.0984 75.0246 14.4002 74.4598C14.7636 73.8914 15.2008 73.3735 15.7002 72.9198C16.2041 72.4602 16.6032 71.8975 16.8702 71.2698C16.9993 70.9571 17.0387 70.6146 16.9839 70.2808C16.9292 69.9469 16.7824 69.6349 16.5602 69.3798L16.1502 69.1898C16.857 67.7293 17.4456 66.2144 17.9102 64.6598L18.3302 64.7998C18.5902 64.4498 18.8402 64.0998 19.1102 63.7998L19.3702 63.9998C20.8682 64.7441 22.183 65.8106 23.2203 67.1228C24.2576 68.435 24.9918 69.9604 25.3702 71.5898L25.4302 71.6898L22.8102 73.1198L22.5502 72.9298Z" fill="#0B6CFF"/>
<path d="M16.1399 69.1898L16.5499 69.3798C16.7721 69.6349 16.9188 69.9469 16.9736 70.2807C17.0283 70.6146 16.989 70.9571 16.8599 71.2698C16.5841 71.9002 16.1746 72.4632 15.6599 72.9198C15.1604 73.3734 14.7233 73.8913 14.3599 74.4598C14.058 75.0245 13.9249 75.6641 13.9763 76.3023C14.0277 76.9406 14.2615 77.5506 14.6498 78.0598L14.8799 78.3798C12.2802 80.232 9.25845 81.4042 6.08984 81.7897C7.08984 81.2497 7.59985 78.9798 7.77985 77.8898C7.95985 76.7998 7.93986 75.6898 8.22986 74.6298C8.67429 73.2644 9.45085 72.0308 10.4898 71.0397C11.2298 70.2697 12.0399 69.5598 12.7999 68.7998C13.0499 68.5498 13.2898 68.2898 13.5298 68.0198C14.4795 66.9863 15.2066 65.7685 15.6659 64.4422C16.1252 63.1158 16.307 61.7093 16.1999 60.3098C15.8799 57.5398 13.9499 53.5198 11.1999 52.8598C11.3697 52.8499 11.54 52.8499 11.7098 52.8598C13.6098 52.7681 15.4732 53.4048 16.9199 54.6398C17.886 55.7717 18.498 57.1627 18.6798 58.6398C18.9018 60.1889 18.7544 61.7685 18.2498 63.2498C18.1198 63.7198 17.9799 64.2498 17.8299 64.6698C17.3874 66.2189 16.8223 67.7304 16.1399 69.1898Z" fill="#1D1D1B"/>
<path d="M16.2294 60.3099C16.3365 61.7094 16.1547 63.1159 15.6954 64.4423C15.2361 65.7686 14.509 66.9864 13.5594 68.0199C13.3194 68.2899 13.0794 68.5499 12.8294 68.7999L11.9694 67.7999C9.98858 65.5566 8.199 63.1516 6.61935 60.6099L5.10938 60.0298C5.36937 59.3498 5.65936 58.6798 5.96936 58.0298C6.49978 56.7624 7.24394 55.5955 8.16937 54.5799C8.99238 53.7043 10.0698 53.1096 11.2494 52.8799C13.9794 53.5199 15.9094 57.5399 16.2294 60.3099Z" fill="white"/>
<path d="M11.9693 67.7998L12.8294 68.7998C12.0694 69.5598 11.2593 70.2698 10.5193 71.0398C9.48034 72.0309 8.70379 73.2645 8.25935 74.6298C7.96935 75.6898 7.99934 76.8098 7.80934 77.8898C7.61934 78.9698 7.07934 81.2498 6.11934 81.7898C5.51002 81.9156 4.87814 81.8763 4.28914 81.6759C3.70013 81.4755 3.17541 81.1212 2.76933 80.6498C1.97139 79.6879 1.5143 78.4888 1.46934 77.2398C1.42453 75.999 1.52521 74.7572 1.76933 73.5398C2.40848 68.9433 3.53483 64.428 5.12935 60.0698L6.63936 60.6498C8.21448 63.177 9.99729 65.5686 11.9693 67.7998Z" fill="white"/>
<path d="M3.36914 69.9897C4.24906 71.4596 5.221 72.8724 6.27914 74.2197" stroke="#222120" stroke-width="0.5" stroke-linecap="round" stroke-linejoin="round"/>
<path d="M2.93945 73.1201C3.8077 74.6222 4.81191 76.0415 5.93945 77.3601" stroke="#222120" stroke-width="0.5" stroke-linecap="round" stroke-linejoin="round"/>
<path d="M2.66016 76.5601C3.0752 77.5809 3.73041 78.4865 4.57016 79.2001" stroke="#222120" stroke-width="0.5" stroke-linecap="round" stroke-linejoin="round"/>
<path d="M67.7102 13.8798C57.4502 12.0198 45.3702 20.7398 42.9302 30.8798C42.2602 33.6798 39.6502 35.5198 37.1902 37.0098C34.7302 38.4998 32.0502 40.1198 31.0302 42.8098C30.0102 45.4998 32.0302 49.3298 34.8302 48.8098C34.9068 48.8049 34.9836 48.8049 35.0602 48.8098C37.0952 48.5482 39.1581 48.9962 40.9014 50.0782C42.6446 51.1602 43.9615 52.8101 44.6302 54.7498C45.2939 56.8799 46.1577 58.9424 47.2102 60.9097C49.8823 65.9533 53.639 70.3419 58.2102 73.7598C60.7502 75.4998 61.2102 75.2098 62.7202 75.9298" stroke="#222120" stroke-linecap="round" stroke-linejoin="round"/>
<path d="M35.0808 48.8901C28.942 52.9027 23.5314 57.9312 19.0808 63.7601C18.8108 64.1001 18.5608 64.4501 18.3008 64.7601" stroke="#222120" stroke-linecap="round" stroke-linejoin="round"/>
<path d="M6.11914 81.7899C9.28775 81.4043 12.3095 80.2321 14.9091 78.3799C16.0272 77.5861 17.0535 76.6705 17.9691 75.6499" stroke="#222120" stroke-linecap="round" stroke-linejoin="round"/>
<path d="M15.8691 75.1997C16.5291 75.4977 17.2451 75.6511 17.9691 75.6497C18.7326 75.6481 19.4866 75.4809 20.1791 75.1597C21.1857 74.6903 22.0135 73.908 22.5392 72.9297C22.7267 72.6159 22.8745 72.28 22.9792 71.9297" stroke="#222120" stroke-linecap="round" stroke-linejoin="round"/>
<path d="M22.8105 73.1198L25.4206 71.6798C32.4606 67.8531 39.6439 64.3031 46.9706 61.0298" stroke="#222120" stroke-linecap="round" stroke-linejoin="round"/>
<path d="M19.3594 63.96C20.8574 64.7043 22.1721 65.7707 23.2094 67.0829C24.2468 68.3952 24.981 69.9206 25.3594 71.5499" stroke="#222120" stroke-linecap="round" stroke-linejoin="round"/>
<path d="M11.2695 52.8598C11.4394 52.8499 11.6097 52.8499 11.7795 52.8598C13.6795 52.7681 15.5428 53.4048 16.9895 54.6398C17.9557 55.7717 18.5677 57.1627 18.7495 58.6398C18.9715 60.1889 18.8241 61.7685 18.3195 63.2498C18.1895 63.7198 18.0495 64.2498 17.8995 64.6698C17.4349 66.2244 16.8464 67.7393 16.1396 69.1998C15.5835 70.3631 14.9136 71.4685 14.1396 72.4998" stroke="#222120" stroke-linecap="round" stroke-linejoin="round"/>
<path d="M6.09981 81.7499C5.49049 81.8757 4.85861 81.8364 4.26961 81.6359C3.6806 81.4355 3.15588 81.0812 2.7498 80.6099C1.95186 79.6479 1.49476 78.4489 1.44981 77.1999C1.405 75.9591 1.50568 74.7173 1.7498 73.4999C2.38894 68.9034 3.5153 64.388 5.10982 60.0298C5.36982 59.3498 5.6598 58.6798 5.9698 58.0298C6.50022 56.7624 7.24438 55.5955 8.16981 54.5799C8.99282 53.7043 10.0703 53.1096 11.2498 52.8799" stroke="#222120" stroke-linecap="round" stroke-linejoin="round"/>
<path d="M16.5492 69.3799C16.7714 69.635 16.9182 69.947 16.9729 70.2808C17.0277 70.6147 16.9883 70.9572 16.8592 71.2699C16.5834 71.9003 16.174 72.4633 15.6592 72.9199C15.1598 73.3735 14.7226 73.8914 14.3592 74.4599C14.0574 75.0246 13.9242 75.6642 13.9756 76.3024C14.027 76.9407 14.2608 77.5507 14.6492 78.0599" stroke="#222120" stroke-linecap="round" stroke-linejoin="round"/>
<path d="M11.2506 52.8599C13.9606 53.5199 15.8906 57.5399 16.2506 60.3099C16.3577 61.7094 16.176 63.1159 15.7167 64.4423C15.2574 65.7686 14.5303 66.9864 13.5806 68.0199C13.3406 68.2899 13.1006 68.5499 12.8506 68.7999C12.0906 69.5599 11.2806 70.2699 10.5406 71.0399C9.50163 72.0309 8.72505 73.2645 8.28061 74.6299C7.99061 75.6899 8.02063 76.8099 7.83063 77.8899C7.64063 78.9699 7.10062 81.2499 6.14062 81.7899" stroke="#222120" stroke-linecap="round" stroke-linejoin="round"/>
<path d="M4.35938 67.0498C5.26479 68.7044 6.29792 70.2859 7.44937 71.7798" stroke="#222120" stroke-width="0.5" stroke-linecap="round" stroke-linejoin="round"/>
<path d="M5.49023 63.7397C6.76357 65.6997 8.0969 67.6097 9.49023 69.4697" stroke="#222120" stroke-width="0.5" stroke-linecap="round" stroke-linejoin="round"/>
<path d="M6.66016 60.6099C8.2398 63.1516 10.0294 65.5566 12.0102 67.7999" stroke="#222120" stroke-width="0.5" stroke-linecap="round" stroke-linejoin="round"/>
<path d="M7.80078 57.2598C9.39885 59.9289 11.2688 62.4255 13.3808 64.7098" stroke="#222120" stroke-width="0.5" stroke-linecap="round" stroke-linejoin="round"/>
<path d="M9.91992 55.8999C11.0816 58.0552 12.6191 59.9855 14.4599 61.5999" stroke="#222120" stroke-width="0.5" stroke-linecap="round" stroke-linejoin="round"/>
<path d="M70.2402 76.7799C74.6388 76.8195 78.954 75.5792 82.6602 73.21" stroke="#222120" stroke-linecap="round" stroke-linejoin="round"/>
<path d="M94.1895 68.7499C98.0495 68.0999 101.579 67.3899 104.769 65.1199C105.486 64.6077 106.156 64.032 106.769 63.4C107.495 62.6336 108.164 61.8147 108.769 60.95C109.659 59.7404 110.336 58.3876 110.769 56.95C111.18 55.5765 111.3 54.1322 111.119 52.71C110.96 51.6247 110.538 50.5948 109.889 49.71" stroke="#222120" stroke-linecap="round" stroke-linejoin="round"/>
<path d="M106.75 63.3999C110.616 64.6183 114.37 66.1673 117.97 68.0298C120.259 69.431 122.454 70.981 124.54 72.6699L125.91 73.7399L130.06 76.9599" stroke="#222120" stroke-linecap="round" stroke-linejoin="round"/>
<path d="M111.08 52.7002H111.13C115.638 54.4494 119.812 56.9591 123.47 60.1202C125.89 62.2402 128.28 64.4302 130.87 66.3302C132.01 67.1751 133.202 67.9466 134.44 68.6402" stroke="#222120" stroke-linecap="round" stroke-linejoin="round"/>
<path d="M134.659 72.4301C134.903 72.6643 135.215 72.8149 135.549 72.86C136.327 72.8523 137.088 72.6421 137.759 72.2501C138.565 71.9628 139.39 71.7355 140.229 71.5701C141.073 71.3932 141.875 71.0535 142.589 70.5701C142.944 70.3279 143.24 70.0088 143.455 69.6366C143.669 69.2644 143.797 68.8485 143.829 68.42C143.84 67.9908 143.7 67.5713 143.433 67.2349C143.167 66.8986 142.79 66.6668 142.369 66.5801C141.571 66.6136 140.802 66.8852 140.159 67.36C139.964 67.4503 139.763 67.5304 139.559 67.6L138.949 67.7401C138.389 67.8701 138.079 67.9401 137.449 68.0601C136.608 68.1184 135.794 68.3829 135.079 68.8301L134.859 69.0201C134.601 69.2474 134.391 69.5234 134.24 69.8323C134.089 70.1412 134 70.4769 133.979 70.8201C133.963 71.1224 134.016 71.4244 134.134 71.7032C134.252 71.9821 134.432 72.2307 134.659 72.4301Z" stroke="#222120" stroke-linecap="round" stroke-linejoin="round"/>
<path d="M129.09 74.6499C129.453 74.9969 129.89 75.2564 130.368 75.4089C130.846 75.5614 131.353 75.6028 131.85 75.5298" stroke="#222120" stroke-linecap="round" stroke-linejoin="round"/>
<path d="M135 81.3301C134.82 81.1801 132.67 79.4101 131.42 78.3301" stroke="#222120" stroke-linecap="round" stroke-linejoin="round"/>
<path d="M131.41 78.3198C132.468 79.4711 133.672 80.4796 134.99 81.3198" stroke="#222120" stroke-linecap="round" stroke-linejoin="round"/>
<path d="M131.389 78.2999C130.949 77.9199 130.629 77.6399 130.539 77.5299C130.448 77.432 130.367 77.3248 130.299 77.21C130.299 77.21 130.759 77.6799 131.389 78.2999Z" stroke="#222120" stroke-linecap="round" stroke-linejoin="round"/>
<path d="M130.66 66.6201C130.723 68.0732 130.332 69.5097 129.54 70.7301C128.631 72.0502 127.37 73.0894 125.9 73.7301" stroke="#222120" stroke-linecap="round" stroke-linejoin="round"/>
<path d="M135 81.3299C136.65 81.8399 138.42 80.9698 139.74 79.8498C140.936 78.6042 142.244 77.4726 143.65 76.4698C145.87 75.2098 148.75 75.2498 150.71 73.6098C151.256 73.1586 151.701 72.5964 152.013 71.9605C152.326 71.3246 152.5 70.6294 152.524 69.9212C152.547 69.2129 152.42 68.5078 152.15 67.8525C151.881 67.1971 151.475 66.6065 150.96 66.1199C150.099 65.3893 149.068 64.8858 147.963 64.6553C146.857 64.4247 145.711 64.4744 144.63 64.7998C142.44 65.3398 141.42 67.0398 138.99 67.7998" stroke="#222120" stroke-linecap="round" stroke-linejoin="round"/>
<path d="M106.121 45.9297C105.78 47.0709 105.231 48.139 104.501 49.0797C103.552 50.3007 102.394 51.3436 101.081 52.1597C98.716 53.5492 96.143 54.5487 93.4605 55.1197C92.5605 55.3264 91.6606 55.5164 90.7606 55.6897C88.8523 56.0593 86.9212 56.2998 84.9806 56.4097C84.1206 56.4697 83.2506 56.4897 82.3806 56.4797C81.505 56.5459 80.6307 56.3361 79.8806 55.8797L79.8105 55.8297" stroke="#222120" stroke-linecap="round" stroke-linejoin="round"/>
<path d="M74.3789 37.6498C75.4542 37.1697 76.6748 37.1302 77.7789 37.5398C78.8743 37.9622 79.7656 38.7891 80.2689 39.8498C80.7234 41.0621 80.911 42.3583 80.8189 43.6498V45.7698" stroke="#222120" stroke-linecap="round" stroke-linejoin="round"/>
<path d="M42.6602 39.8798C48.9339 39.3897 55.2364 39.3897 61.5102 39.8798" stroke="#222120" stroke-linecap="round" stroke-linejoin="round"/>
<path d="M51.9492 34.9199C56.6408 35.3085 61.2697 36.2517 65.7392 37.7299" stroke="#222120" stroke-linecap="round" stroke-linejoin="round"/>
<path d="M60.9604 49.7197C62.6574 51.0737 64.4866 52.2531 66.4204 53.2397L54.9004 60.6198" stroke="#222120" stroke-linecap="round" stroke-linejoin="round"/>
<path d="M85.0804 58.0098C84.8523 60.4636 84.458 62.8992 83.9004 65.2997" stroke="#222120" stroke-linecap="round" stroke-linejoin="round"/>
<path d="M92.4902 58.1201C94.2557 57.0075 96.2477 56.3036 98.3203 56.0601" stroke="#222120" stroke-linecap="round" stroke-linejoin="round"/>
<path d="M70.659 93.2699C70.9813 93.998 71.3767 94.6915 71.839 95.3398C72.0879 95.7481 72.4308 96.091 72.839 96.3398C73.0494 96.4483 73.288 96.4892 73.5225 96.457C73.7569 96.4248 73.9757 96.321 74.149 96.1599C74.549 95.7199 74.379 95.0199 74.149 94.4599C73.869 93.6899 73.559 92.9299 73.249 92.1699C72.579 90.5899 71.869 89.0199 71.249 87.4299C70.989 86.8199 70.749 86.2098 70.519 85.5898C69.459 82.6898 69.629 79.8398 69.969 76.7798V76.4599C70.489 71.7999 72.459 68.1199 74.349 64.3799C74.819 63.4399 75.289 62.4899 75.729 61.5199C76.169 60.5499 76.489 59.7699 76.809 58.8599C78.0545 58.1193 79.1039 57.0904 79.869 55.8599C80.2081 55.3385 80.4897 54.7819 80.709 54.1999C81.4407 52.2516 81.4971 50.114 80.869 48.1299" stroke="#222120" stroke-linecap="round" stroke-linejoin="round"/>
<path d="M70.6602 93.27C70.4096 92.2537 70.1025 91.2521 69.7402 90.27C69.9122 91.3065 70.2216 92.3154 70.6602 93.27Z" stroke="#222120" stroke-linecap="round" stroke-linejoin="round"/>
<path d="M69.3906 96.04C69.3906 96.15 69.4606 96.25 69.4906 96.36C69.567 96.7274 69.7318 97.0706 69.9706 97.36C70.0911 97.5015 70.2587 97.5946 70.4425 97.6222C70.6263 97.6498 70.8139 97.61 70.9706 97.5101C71.2806 97.2801 71.2706 96.8201 71.2206 96.4301C71.0881 95.3731 70.8945 94.3246 70.6406 93.29" stroke="#222120" stroke-linecap="round" stroke-linejoin="round"/>
<path d="M69.3903 96.0397C69.368 95.7595 69.3212 95.4818 69.2503 95.2098C68.7916 93.4322 68.2307 91.6826 67.5703 89.9697C68.1803 91.9897 68.7903 94.0197 69.3903 96.0397Z" stroke="#222120" stroke-linecap="round" stroke-linejoin="round"/>
<path d="M69.539 42.3799C68.619 42.8099 65.739 47.5799 66.139 50.6899C66.309 52.0199 66.789 53.3199 66.829 54.6899C66.8393 55.3907 66.7586 56.0899 66.589 56.7699C66.3306 57.7852 66.0202 58.7865 65.659 59.7699L65.479 60.3299C63.8913 65.3995 62.9965 70.6604 62.819 75.9698C62.6365 80.7018 62.74 85.4404 63.129 90.1599L63.069 90.4299L62.069 94.6999C61.939 95.2099 61.869 95.8599 62.289 96.1699C62.709 96.4799 63.499 96.0599 63.869 95.5499C64.8603 94.2183 65.3072 92.5592 65.119 90.9099C65.559 91.4199 66.329 94.6699 67.249 96.4199C67.529 96.9399 67.949 97.5299 68.539 97.4199C68.7581 97.388 68.9604 97.2843 69.1143 97.1251C69.2681 96.9658 69.3647 96.7599 69.389 96.5399C69.4139 96.3842 69.4139 96.2256 69.389 96.0699" stroke="#222120" stroke-linecap="round" stroke-linejoin="round"/>
<path d="M90.7894 55.8398C90.3452 56.912 89.9906 58.0192 89.7294 59.1499C89.7294 59.3099 89.6394 59.4699 89.5994 59.6299C89.2994 60.1299 89.0094 60.6299 88.7294 61.1399C87.7494 62.8532 86.8227 64.5865 85.9494 66.3398C84.796 68.6065 83.7327 70.9166 82.7594 73.2699C81.6294 75.9899 80.5994 78.7699 79.6894 81.5999C78.7248 82.7971 78.2274 84.3036 78.2894 85.8398C78.3553 87.3647 78.2174 88.8915 77.8794 90.3799C77.7355 90.7416 77.6446 91.1222 77.6094 91.5099C77.6099 91.6569 77.637 91.8025 77.6894 91.9399C77.728 92.0532 77.791 92.1567 77.8739 92.2431C77.9569 92.3295 78.0577 92.3966 78.1694 92.4399C78.7294 92.6099 79.2194 92.0299 79.4994 91.5099C80.0994 90.3999 80.5994 89.2299 81.0794 88.0999C81.786 90.4199 82.566 92.7132 83.4194 94.9799C83.535 95.3504 83.7294 95.6916 83.9893 95.9799C84.1269 96.12 84.3027 96.2165 84.4948 96.2574C84.6868 96.2983 84.8867 96.2818 85.0694 96.2099C85.5894 95.9299 85.5394 95.2098 85.3994 94.5898C84.9594 92.7698 84.3994 90.9699 84.0494 89.4099C84.8987 91.5942 86.0066 93.669 87.3494 95.5898C87.514 95.8606 87.7317 96.0954 87.9893 96.2798C88.1156 96.371 88.2644 96.4257 88.4196 96.438C88.5747 96.4504 88.7303 96.4199 88.8694 96.3499C89.0119 96.2545 89.123 96.1192 89.1889 95.9608C89.2547 95.8025 89.2723 95.6282 89.2393 95.4599C89.1991 95.2041 89.1072 94.9591 88.9694 94.7399L88.8394 94.5199L85.9294 89.6099" stroke="#222120" stroke-linecap="round" stroke-linejoin="round"/>
<path d="M89.43 94.8198C89.6509 94.6859 89.8258 94.4878 89.9312 94.252C90.0366 94.0161 90.0676 93.7537 90.02 93.4998C89.9128 92.9934 89.698 92.5159 89.39 92.0998L89.07 91.5898L87 88.2998" stroke="#222120" stroke-linecap="round" stroke-linejoin="round"/>
<path d="M89.4099 91.3802C89.0384 89.194 88.2215 87.1075 87.0099 85.2502C86.6524 84.7494 86.3411 84.2172 86.0799 83.6602C85.9513 83.3688 85.8848 83.0537 85.8848 82.7352C85.8848 82.4166 85.9513 82.1016 86.0799 81.8102C88.4336 77.2449 91.1524 72.8773 94.2099 68.7502C94.9499 67.7502 95.7199 66.7502 96.5199 65.7502C97.3199 64.7502 98.0299 63.9202 98.8099 63.0302L99.2099 62.5802C100.973 61.9952 102.53 60.9114 103.69 59.4602C104.835 58.0123 105.839 56.4586 106.69 54.8202L109.69 49.5402L110.21 48.6102C110.85 47.4802 111.68 45.4402 111.21 44.1902C111.181 44.1067 111.144 44.0263 111.1 43.9502" stroke="#222120" stroke-linecap="round" stroke-linejoin="round"/>
<path d="M88.8398 61.2002C89.4016 62.6489 90.436 63.8655 91.7753 64.6532C93.1147 65.4409 94.6807 65.7534 96.2198 65.5402" stroke="#222120" stroke-linecap="round" stroke-linejoin="round"/>
<path d="M91.0605 59.54C92.026 60.6403 93.2147 61.5224 94.5475 62.1276C95.8803 62.7328 97.3268 63.0473 98.7906 63.05" stroke="#222120" stroke-linecap="round" stroke-linejoin="round"/>
<path d="M65.8496 60.3701C66.617 61.8036 67.8271 62.9506 69.2996 63.6401C70.7986 64.3343 72.4785 64.5373 74.0996 64.2201" stroke="#222120" stroke-linecap="round" stroke-linejoin="round"/>
<path d="M71.3203 87.3599C72.927 88.5766 74.3868 89.9759 75.6703 91.5298C75.7997 91.6903 75.898 91.8734 75.9603 92.0699C75.9873 92.1454 75.9968 92.2259 75.9882 92.3056C75.9795 92.3853 75.9529 92.4619 75.9103 92.5298C75.8142 92.6371 75.6913 92.7168 75.5542 92.7607C75.4171 92.8047 75.2708 92.8113 75.1303 92.7798C74.5073 92.7272 73.9181 92.4747 73.4503 92.0599" stroke="#222120" stroke-linecap="round" stroke-linejoin="round"/>
<path d="M100.75 29.6299L99.8398 30.9799" stroke="#222120" stroke-linecap="round" stroke-linejoin="round"/>
<path d="M111.92 33.7598C111.57 34.1749 111.283 34.64 111.07 35.1398" stroke="#222120" stroke-linecap="round" stroke-linejoin="round"/>
<path d="M103.551 38.4799C103.868 38.8642 104.268 39.1718 104.721 39.3799C104.944 39.4858 105.188 39.5407 105.436 39.5407C105.683 39.5407 105.927 39.4858 106.151 39.3799C106.33 39.2711 106.483 39.1257 106.602 38.9534C106.721 38.7811 106.802 38.5857 106.841 38.3799C106.917 37.9839 106.864 37.574 106.691 37.21" stroke="#222120" stroke-width="0.5" stroke-linecap="round" stroke-linejoin="round"/>
<path d="M97.3691 38.5298C99.8514 40.4616 102.904 41.5166 106.049 41.5298" stroke="#222120" stroke-width="0.5" stroke-linecap="round" stroke-linejoin="round"/>
<path d="M89.8301 31.5698C89.9301 31.8998 90.0401 32.2298 90.1501 32.5698C90.9828 35.4789 92.305 38.2249 94.0601 40.6898C95.6247 42.7907 97.8337 44.322 100.35 45.0498C101.094 45.242 101.862 45.3295 102.63 45.3098C103.079 45.2966 103.527 45.2532 103.97 45.1798C105.224 44.9296 106.445 44.5371 107.61 44.0098C108.14 43.7798 108.67 43.5398 109.19 43.2698C110.28 42.7489 111.29 42.0755 112.19 41.2698C114.91 38.7198 116.31 33.6498 118.52 32.3898" stroke="#222120" stroke-linecap="round" stroke-linejoin="round"/>
<path d="M80.8789 9.34996C80.8789 9.22996 80.9589 9.10994 81.0089 8.98994C81.4227 8.11484 82.0382 7.35037 82.8048 6.75932C83.5714 6.16828 84.4673 5.76752 85.4189 5.58995C87.438 5.31022 89.4847 5.29006 91.5089 5.52995C94.9147 3.54975 98.6356 2.16964 102.509 1.44993C106.421 0.739953 110.457 1.27508 114.049 2.97993C119.049 5.48993 122.299 10.5999 123.609 15.9799C124.109 17.9799 124.349 20.1199 124.799 22.1699C125.172 24.2485 125.979 26.225 127.169 27.9699C127.769 28.8372 128.547 29.5672 129.45 30.112C130.353 30.6567 131.362 31.0036 132.409 31.13C133.452 31.2145 134.496 30.9818 135.404 30.4625C136.313 29.9432 137.043 29.1615 137.499 28.2199C137.592 28.9514 137.49 29.6944 137.204 30.3739C136.918 31.0534 136.457 31.6453 135.869 32.0899C134.671 32.9671 133.18 33.3469 131.709 33.15C130.316 32.9759 128.994 32.434 127.879 31.58C129.148 33.2401 130.546 34.7982 132.059 36.2399C133.574 37.6835 134.809 39.3958 135.699 41.2899C136.134 42.2319 136.355 43.259 136.344 44.2967C136.334 45.3344 136.093 46.3568 135.639 47.2899C135.146 48.2156 134.347 48.9413 133.379 49.3427C132.41 49.744 131.332 49.7961 130.329 49.4899C131.71 49.0904 132.875 48.1588 133.569 46.9C133.92 46.278 134.053 45.5568 133.948 44.8504C133.843 44.1441 133.506 43.4929 132.989 43C132.029 45.0093 130.425 46.6405 128.432 47.635C126.44 48.6295 124.172 48.9304 121.989 48.4899C124.301 47.3776 126.217 45.5838 127.479 43.3499C126.092 45.3903 124.142 46.984 121.866 47.9373C119.59 48.8905 117.086 49.1624 114.659 48.7199C116.791 48.2907 118.726 47.1778 120.169 45.5499C118.403 46.3831 116.459 46.7678 114.509 46.6699C116.424 46.0946 118.066 44.8439 119.129 43.15C116.61 44.0861 113.879 44.2906 111.249 43.7399C110.539 43.6099 109.849 43.45 109.169 43.26" stroke="#222120" stroke-linecap="round" stroke-linejoin="round"/>
<path d="M96.4407 10.8698C93.8142 12.0757 90.8561 12.3542 88.0507 11.6598C85.6007 11.1798 83.2407 10.3198 80.8207 9.6598C80.4707 9.5598 80.1207 9.46978 79.7607 9.38978C77.9815 8.91856 76.1317 8.77289 74.3007 8.95979C72.4596 9.15121 70.7453 9.9871 69.4607 11.3198C68.7885 12.0659 68.3261 12.9768 68.1207 13.9598C67.9395 14.7791 67.9809 15.6319 68.2407 16.4298C68.4363 15.4799 68.8665 14.5941 69.4922 13.8531C70.1179 13.1121 70.9192 12.5395 71.8229 12.1876C72.7266 11.8356 73.7041 11.7155 74.6661 11.8382C75.6281 11.9608 76.5442 12.3223 77.3307 12.8898" stroke="#222120" stroke-linecap="round" stroke-linejoin="round"/>
<path d="M87.9991 15.6801C86.2943 14.7721 84.5144 14.0126 82.6791 13.4101C80.9596 12.8548 79.1323 12.7177 77.3491 13.0101L76.9491 13.0901C75.2012 13.5844 73.5763 14.4394 72.1791 15.6001C70.2523 16.9478 68.6808 18.7424 67.5991 20.8302C66.9125 22.3549 66.63 24.0308 66.7789 25.6964C66.9278 27.362 67.503 28.9612 68.4491 30.3401C67.9791 29.4352 67.76 28.421 67.8145 27.4028C67.869 26.3847 68.1952 25.3996 68.7591 24.5501C69.9376 22.8537 71.7315 21.6841 73.7591 21.2901C75.7536 20.9138 77.8084 21.0097 79.7591 21.5701C78.6822 21.4551 77.5935 21.6048 76.5876 22.0062C75.5817 22.4077 74.6891 23.0488 73.9874 23.8737C73.2857 24.6987 72.796 25.6825 72.561 26.7398C72.3261 27.797 72.3529 28.8956 72.6391 29.9401C72.881 28.6861 73.4347 27.513 74.249 26.5291C75.0634 25.5452 76.1123 24.7821 77.2991 24.3101C75.9018 25.4541 74.976 27.0736 74.6992 28.8582C74.4224 30.6427 74.8141 32.4666 75.7991 33.9801C75.6308 32.4227 75.9322 30.8506 76.6646 29.466C77.3971 28.0813 78.527 26.9474 79.9091 26.2102C79.2957 27.108 78.8773 28.1244 78.6809 29.1939C78.4844 30.2634 78.5144 31.3622 78.7688 32.4194C79.0232 33.4766 79.4964 34.4687 80.1579 35.3318C80.8193 36.1949 81.6544 36.9097 82.6091 37.4301C82.0201 35.734 82.0879 33.8787 82.7991 32.2301C83.5268 30.5905 84.8335 29.2767 86.4691 28.5401C85.8429 28.9944 85.3672 29.6259 85.1033 30.3532C84.8395 31.0804 84.7997 31.87 84.9891 32.6201C85.1236 33.2354 85.3459 33.8281 85.6491 34.3801C86.0857 35.1799 86.6016 35.9337 87.1891 36.6301C86.9377 36.161 86.7923 35.6425 86.763 35.1111C86.7337 34.5797 86.8213 34.0483 87.0196 33.5545C87.2179 33.0606 87.5221 32.6162 87.9108 32.2526C88.2995 31.8891 88.7631 31.6151 89.2691 31.4502" stroke="#222120" stroke-linecap="round" stroke-linejoin="round"/>
<path d="M87.0703 30.1199C87.4103 30.1199 87.7403 30.0499 88.0703 29.9899C90.2044 29.6409 92.2377 28.8348 94.0311 27.6265C95.8245 26.4183 97.3354 24.8366 98.4603 22.9899C100.032 23.1164 101.614 22.9268 103.112 22.4321C104.609 21.9375 105.993 21.1479 107.18 20.1099C106.855 22.0395 105.838 23.7847 104.32 25.0199C103.034 26.1199 101.429 26.7788 99.7403 26.8999C101.516 27.0222 103.284 26.5775 104.79 25.6299C104.98 25.4999 105.17 25.3699 105.35 25.2299C106.944 23.9923 108.029 22.2135 108.4 20.2299C109.167 22.3389 109.3 24.6265 108.78 26.8099C108.505 27.8935 107.947 28.8847 107.163 29.6823C106.38 30.4798 105.399 31.0552 104.32 31.3499C106.996 31.6259 109.685 30.9764 111.94 29.5097C114.195 28.043 115.878 25.8477 116.71 23.2899C116.951 24.1579 117.015 25.0656 116.899 25.9589C116.782 26.8522 116.486 27.713 116.03 28.4899C116.57 28.2275 117.049 27.8554 117.436 27.3973C117.824 26.9393 118.111 26.4055 118.28 25.8299C118.784 27.9561 118.876 30.1592 118.55 32.3199" stroke="#222120" stroke-linecap="round" stroke-linejoin="round"/>
<path d="M102.029 22.8398C102.877 23.4613 103.646 24.1833 104.319 24.9899C104.488 25.1839 104.645 25.3876 104.789 25.5999C105.227 26.1704 105.612 26.7796 105.939 27.4199" stroke="#222120" stroke-width="0.5" stroke-linecap="round" stroke-linejoin="round"/>
<path d="M111.91 30.9601C112.707 30.387 113.67 30.0939 114.651 30.1265C115.631 30.159 116.574 30.5155 117.33 31.1401" stroke="#222120" stroke-width="0.5" stroke-linecap="round" stroke-linejoin="round"/>
<path d="M88.1094 30.1699C88.1605 30.4684 88.2975 30.7455 88.5034 30.9675C88.7094 31.1894 88.9755 31.3466 89.2693 31.4199C89.4496 31.4813 89.639 31.5117 89.8294 31.5099" stroke="#222120" stroke-linecap="round" stroke-linejoin="round"/>
<path d="M89.7988 32.6699C89.3296 34.3307 89.2678 36.0802 89.6188 37.77C89.9692 39.4531 90.5373 41.0835 91.3088 42.6199C91.6675 43.4289 92.1388 44.183 92.7088 44.8599C93.499 45.7318 94.5525 46.3217 95.7088 46.5399C95.9436 46.5814 96.1807 46.6081 96.4188 46.6199C97.8455 46.6748 99.2362 46.1645 100.289 45.2" stroke="#222120" stroke-linecap="round" stroke-linejoin="round"/>
<path d="M85.5605 34.4199C84.9372 35.1986 84.5611 36.1459 84.4805 37.14C84.4077 38.1413 84.448 39.1476 84.6005 40.14C84.9005 42.61 85.3605 45.14 86.8305 47.14C87.3699 47.9669 88.1847 48.5762 89.1305 48.8599C90.1225 49.0082 91.136 48.8439 92.0305 48.39C92.9214 47.943 93.8707 47.6232 94.8505 47.4399C95.0865 47.415 95.3245 47.415 95.5605 47.4399C96.2272 47.4885 96.8722 47.6978 97.4405 48.0499C98.1305 48.4899 98.6805 49.1399 99.4405 49.5299C100.023 49.8314 100.682 49.9553 101.334 49.8859C101.986 49.8166 102.604 49.5572 103.11 49.14C103.202 49.0618 103.289 48.9783 103.37 48.89C103.771 48.4504 104.048 47.9124 104.173 47.3309C104.298 46.7493 104.266 46.1451 104.08 45.58" stroke="#222120" stroke-linecap="round" stroke-linejoin="round"/>
<path d="M94.9406 49.1202C94.7271 49.1119 94.5146 49.1538 94.3201 49.2423C94.1256 49.3309 93.9546 49.4637 93.8206 49.6302C93.7109 49.7544 93.6504 49.9144 93.6504 50.0802C93.6504 50.2459 93.7109 50.4059 93.8206 50.5301C93.9425 50.6006 94.0791 50.6418 94.2197 50.6504C94.3603 50.6591 94.5009 50.6351 94.6306 50.5802C94.8034 50.5547 94.9687 50.4924 95.1153 50.3975C95.262 50.3026 95.3865 50.1773 95.4806 50.0301C95.5333 49.9026 95.5412 49.761 95.5031 49.6285C95.4649 49.4959 95.383 49.3801 95.2706 49.3001C95.0106 49.1201 94.6606 49.1202 94.9406 49.1202Z" stroke="#222120" stroke-width="0.5" stroke-linecap="round" stroke-linejoin="round"/>
<path d="M66.75 56.7798C67.7047 58.239 69.0155 59.4308 70.5588 60.2426C72.102 61.0545 73.8267 61.4596 75.57 61.4198" stroke="#222120" stroke-miterlimit="10"/>
<path d="M134.659 72.5298C134.487 73.5664 134.037 74.537 133.358 75.3382C132.678 76.1394 131.794 76.7413 130.799 77.0798" stroke="#222120" stroke-linecap="round" stroke-linejoin="round"/>
</svg>
