<svg width="307" height="325" viewBox="0 0 307 325" fill="none" xmlns="http://www.w3.org/2000/svg">
<path d="M277.54 46.1304H61.8398V324.2H277.54V46.1304Z" fill="#EDEDED" stroke="#1D1D1B" stroke-miterlimit="10"/>
<path d="M180.129 19.9404C183.509 24.7204 186.879 29.5004 190.239 34.3304C182.329 28.7804 180.659 25.3504 180.129 19.9404Z" fill="white"/>
<path d="M157.128 14.3802V13.8802C159.57 8.8678 163.708 4.88214 168.808 2.63024C173.672 0.325753 179.214 -0.108499 184.378 1.41024V1.62024C190.059 1.20905 195.724 2.60948 200.558 5.62024V5.67024H200.298H200.108C196.993 5.48413 193.919 6.44852 191.468 8.38024V8.69024C189.46 8.80226 187.477 9.19611 185.578 9.86024C182.474 10.8936 179.883 13.0764 178.338 15.9602L177.418 16.9602C174.828 17.9207 172.03 18.1794 169.308 17.7102V17.8302C168.512 18.8124 167.422 19.5134 166.198 19.8302C165.08 20.1567 163.93 20.3613 162.768 20.4402C160.358 20.6602 157.718 20.8702 155.958 22.5402C155.218 23.3318 154.682 24.2919 154.396 25.3374C154.11 26.3828 154.084 27.4821 154.318 28.5402C154.825 30.6551 155.811 32.6255 157.198 34.3002L157.848 34.3602C157.768 35.044 157.728 35.7318 157.728 36.4202C157.728 37.9232 157.909 39.4208 158.268 40.8802H156.128C155.688 40.1702 155.258 39.4602 154.848 38.7302C153.386 36.1697 152.135 33.4942 151.108 30.7302C150.782 33.2441 151.149 35.7994 152.168 38.1202C149.722 34.9 148.423 30.954 148.478 26.9102C148.477 24.8936 148.932 22.9027 149.808 21.0863C150.684 19.2699 151.959 17.6748 153.538 16.4202C154.678 15.6451 155.879 14.9629 157.128 14.3802Z" fill="#1D1D1B"/>
<path d="M174.599 41.12C174.249 41.9895 174.249 42.9606 174.599 43.83C174.599 43.93 174.699 44.03 174.799 44.05C174.899 44.07 175.049 43.81 175.029 43.62C175.131 43.196 175.146 42.7556 175.072 42.3257C174.998 41.8959 174.837 41.4857 174.599 41.12ZM159.529 60.85C159.416 61.0118 159.346 61.2 159.327 61.3965C159.307 61.5931 159.339 61.7914 159.418 61.9722C159.497 62.1531 159.622 62.3105 159.78 62.4292C159.938 62.5479 160.124 62.624 160.319 62.65C160.599 62.65 160.889 62.65 161.169 62.74V62.99C161.034 63.6835 161.034 64.3965 161.169 65.09V65.22L171.309 65.78V65.66C169.006 63.4967 166.373 61.7144 163.509 60.38C162.848 60.0695 162.129 59.9025 161.399 59.89C161.033 59.8848 160.671 59.9697 160.345 60.137C160.019 60.3044 159.739 60.5492 159.529 60.85ZM157.849 34.44C158.135 31.5762 159.032 28.807 160.479 26.3194C161.927 23.8318 163.891 21.6837 166.239 20.02V19.89C167.463 19.5732 168.553 18.8722 169.349 17.89V17.77C172.071 18.2392 174.869 17.9805 177.459 17.02C178.042 20.9805 179.571 24.7422 181.915 27.9868C184.26 31.2314 187.352 33.8634 190.929 35.66L190.869 35.78C191.733 37.8397 192.403 39.9757 192.869 42.16C193.345 44.349 194.209 46.4352 195.419 48.32C196.038 49.2538 196.857 50.0374 197.817 50.6136C198.777 51.1898 199.854 51.5439 200.969 51.65C202.152 51.6582 203.304 51.2823 204.255 50.579C205.205 49.8758 205.902 48.883 206.239 47.75C207.661 46.5915 209.485 46.0448 211.309 46.23C212.208 46.3309 213.067 46.6594 213.803 47.1843C214.54 47.7092 215.13 48.4133 215.519 49.23C216.066 50.7634 216.083 52.4355 215.569 53.98C214.896 56.5518 213.545 58.8963 211.659 60.77C209.744 62.6488 207.303 63.9008 204.659 64.36C204 64.5035 203.318 64.5035 202.659 64.36C201.856 64.1167 201.154 63.6182 200.659 62.94C200.127 62.2389 199.746 61.4354 199.539 60.58C199.588 62.1675 199.096 63.7243 198.143 64.995C197.19 66.2656 195.833 67.1744 194.296 67.5722C192.758 67.9699 191.131 67.833 189.682 67.1839C188.232 66.5348 187.046 65.412 186.319 64C186.664 66.2452 187.715 68.3223 189.319 69.93C191.04 71.5227 193.088 72.7206 195.319 73.44C193.37 74.3312 191.683 75.7086 190.419 77.44C185.729 77.97 180.349 79.63 175.689 80.44C171.029 81.25 165.939 81.6 161.689 79.49C160.911 79.0098 160.242 78.3719 159.726 77.6176C159.209 76.8632 158.856 76.009 158.689 75.11C158.389 73.3946 158.209 71.6604 158.149 69.92C157.779 65.56 156.469 61.34 155.949 57C155.761 55.3401 155.727 53.6662 155.849 52L158.189 52.16C158.188 52.0172 158.222 51.8763 158.289 51.75C158.783 50.962 159.404 50.2622 160.129 49.68C162.129 47.89 164.129 45.94 164.909 43.4L164.069 43.16C163.479 42.187 162.81 41.2639 162.069 40.4C161.785 40.0043 161.388 39.7044 160.929 39.54C160.686 39.4892 160.433 39.4952 160.192 39.5576C159.951 39.62 159.728 39.7372 159.539 39.9C159.166 40.2427 158.867 40.6578 158.659 41.12H158.349V40.94C157.99 39.4806 157.809 37.983 157.809 36.48C157.783 35.7998 157.797 35.1187 157.849 34.44Z" fill="white"/>
<path d="M158.27 40.96V41.14L158.58 43.39C156.873 45.9579 155.911 48.9485 155.8 52.03C155.678 53.6962 155.711 55.3701 155.9 57.03C156.42 61.37 157.73 65.59 158.1 69.95C158.159 71.6905 158.34 73.4246 158.64 75.14C158.806 76.0391 159.159 76.8932 159.676 77.6476C160.193 78.402 160.862 79.0398 161.64 79.52C165.89 81.63 170.98 81.32 175.64 80.47C175.847 83.1962 175.614 85.9379 174.95 88.59L174.73 88.53C173.953 88.8699 173.155 89.1572 172.34 89.39C169.338 90.2546 166.187 90.4725 163.094 90.0295C160.002 89.5865 157.038 88.4926 154.4 86.82C154.09 86.63 153.79 86.42 153.5 86.21C150.5 83.9888 148.114 81.0408 146.568 77.6435C145.021 74.2461 144.365 70.5111 144.66 66.79C143.34 69.0941 142.697 71.7233 142.803 74.3763C142.909 77.0293 143.761 79.5987 145.26 81.79C143.186 81.0085 141.391 79.6301 140.101 77.8289C138.81 76.0277 138.083 73.8846 138.01 71.67C138.01 67.76 140.01 64.12 142.38 61.04C145.07 57.59 148.3 54.59 150.85 51.04C153.4 47.49 155.29 43.18 154.71 38.85L154.82 38.79C155.23 39.52 155.66 40.23 156.1 40.94L158.27 40.96Z" fill="#1D1D1B"/>
<path d="M160.08 40.6703C159.862 41.0318 159.734 41.4406 159.708 41.8619C159.682 42.2833 159.758 42.7047 159.93 43.0903C160.01 43.2603 160.19 43.4503 160.36 43.3703C160.415 43.3295 160.458 43.2744 160.485 43.211C160.511 43.1476 160.52 43.0783 160.51 43.0103C160.565 42.2066 160.418 41.4019 160.08 40.6703ZM158.66 43.3903L158.3 41.1203H158.61C158.832 40.6734 159.142 40.2755 159.52 39.9503C159.709 39.7875 159.932 39.6703 160.173 39.6079C160.414 39.5455 160.666 39.5394 160.91 39.5903C161.369 39.7547 161.766 40.0546 162.05 40.4503C162.791 41.3142 163.46 42.2373 164.05 43.2103L164.89 43.4503C164.15 45.9903 162.08 47.9403 160.11 49.7303C159.385 50.3125 158.763 51.0122 158.27 51.8003C158.203 51.9265 158.169 52.0675 158.17 52.2103L155.83 52.0503C155.952 48.957 156.932 45.9587 158.66 43.3903Z" fill="white"/>
<path d="M185.218 296.24C185.363 297.422 185.363 298.618 185.218 299.8C185.218 300.09 185.138 300.4 185.088 300.74H185.028C188.598 307.74 192.488 314.79 196.028 321.74L197.268 324.19H120.868C109.248 306.48 99.2283 284.19 102.748 263.96C106.235 247.196 113.408 231.418 123.748 217.77L124.068 217.71C124.133 218.048 124.216 218.382 124.318 218.71L126.498 218.17C126.408 217.792 126.348 217.407 126.318 217.02H126.458C135.663 221.689 145.684 224.534 155.968 225.4H156.108C156.028 224.372 156.028 223.338 156.108 222.31V222.07C157.608 222.19 159.108 222.26 160.618 222.28V222.64C160.272 223.848 160.157 225.11 160.278 226.36L160.748 226.3C165.794 227.331 170.907 228 176.048 228.3H176.798C176.798 228.88 176.798 229.47 176.798 230.07C178.088 230.23 179.378 230.36 180.678 230.45L180.578 231.75C186.164 251.366 187.843 271.887 185.518 292.15L183.818 292.59C184.597 293.663 185.08 294.922 185.218 296.24Z" fill="#D1D0D1"/>
<path d="M219.119 97.1201C219.985 97.2798 220.86 97.38 221.739 97.4201V97.4901C220.485 100.788 218.653 103.835 216.329 106.49L216.249 106.42C214.267 104.646 212.387 102.759 210.619 100.77L210.439 100.63C211.358 99.3609 212.036 97.9339 212.439 96.4201L212.319 96.1501C212.835 95.9274 213.331 95.6597 213.799 95.3501L213.949 95.5701C215.62 96.2473 217.351 96.7663 219.119 97.1201Z" fill="#50AE36"/>
<path d="M199.749 107.59L203.529 114.92V115.08L203.299 115.16C200.58 116.065 197.743 116.567 194.879 116.65V116.53C194.029 113.943 193.361 111.3 192.879 108.62V108.3C194.881 108.294 196.877 108.066 198.829 107.62C199.109 107.56 199.399 107.49 199.679 107.41L199.749 107.59Z" fill="#50AE36"/>
<path d="M126.3 217.12C126.33 217.508 126.39 217.892 126.48 218.27L124.3 218.81C124.198 218.482 124.114 218.148 124.05 217.81C123.655 215.86 123.825 213.837 124.54 211.98L124.81 211.72C125.389 212.359 126.04 212.93 126.75 213.42L126.6 213.63C126.27 214.762 126.168 215.948 126.3 217.12Z" fill="#D1D0D1"/>
<path d="M190.878 35.6402C187.301 33.8435 184.209 31.2115 181.864 27.9669C179.52 24.7223 177.991 20.9606 177.408 17.0002L178.328 16.0002C179.873 13.1163 182.464 10.9335 185.568 9.90018C187.467 9.23605 189.45 8.8422 191.458 8.73018V8.42018C193.909 6.48846 196.983 5.52407 200.098 5.71018H200.288H200.548C209.868 6.79018 218.298 12.7102 223.368 20.6102C228.438 28.5102 230.368 38.3602 229.748 47.8202C230.707 49.976 231.898 52.0214 233.298 53.9202C235.938 57.6102 239.038 60.9202 241.448 64.8002C243.85 68.5198 245.391 72.7289 245.958 77.1202C246.531 81.522 245.728 85.9933 243.658 89.9202C244.215 87.8899 244.348 85.7664 244.046 83.6826C243.745 81.5989 243.017 79.5997 241.908 77.8102C241.958 80.6428 241.39 83.4522 240.243 86.0428C239.096 88.6333 237.399 90.9428 235.268 92.8102C234.108 93.8163 232.825 94.6699 231.448 95.3502C228.451 96.8656 225.114 97.5853 221.758 97.4402C220.879 97.4001 220.004 97.2999 219.138 97.1402C217.362 96.7714 215.624 96.2357 213.948 95.5402L213.798 95.3202C213.329 95.6298 212.834 95.8975 212.318 96.1202C211.116 96.653 209.837 96.9906 208.528 97.1202C205.676 97.2568 202.82 96.9189 200.078 96.1202C198.323 95.7691 196.636 95.1413 195.078 94.2602C194.307 93.8099 193.641 93.2008 193.124 92.4732C192.607 91.7456 192.25 90.9162 192.078 90.0402C191.904 91.2987 192.103 92.5808 192.65 93.7274C193.198 94.874 194.07 95.8346 195.158 96.4902C192.996 95.4288 191.172 93.7878 189.888 91.7502C188.605 89.7125 187.912 87.3583 187.888 84.9502C187.935 82.2699 188.828 79.673 190.438 77.5302C191.702 75.7988 193.389 74.4214 195.338 73.5302C193.107 72.8108 191.059 71.6129 189.338 70.0202C187.734 68.4124 186.683 66.3354 186.338 64.0902C187.065 65.5022 188.251 66.6249 189.7 67.274C191.15 67.9232 192.777 68.0601 194.315 67.6623C195.852 67.2646 197.209 66.3557 198.162 65.0851C199.115 63.8145 199.607 62.2576 199.558 60.6702C199.765 61.5256 200.146 62.329 200.678 63.0302C201.173 63.7084 201.875 64.2069 202.678 64.4502C203.337 64.5937 204.019 64.5937 204.678 64.4502C207.325 63.9621 209.76 62.6783 211.658 60.7702C213.545 58.9032 214.898 56.5659 215.578 54.0002C216.092 52.4557 216.075 50.7835 215.528 49.2502C215.139 48.4335 214.549 47.7294 213.812 47.2044C213.075 46.6795 212.217 46.3511 211.318 46.2502C209.494 46.065 207.67 46.6117 206.248 47.7702C205.91 48.9032 205.214 49.8959 204.264 50.5992C203.313 51.3025 202.16 51.6783 200.978 51.6702C199.863 51.564 198.786 51.2099 197.826 50.6338C196.866 50.0576 196.046 49.2739 195.428 48.3402C194.193 46.4406 193.313 44.3334 192.828 42.1202C192.362 39.9358 191.692 37.7999 190.828 35.7402L190.878 35.6402ZM180.128 19.9402C180.698 25.3502 182.328 28.7802 190.238 34.3302C186.878 29.5002 183.508 24.7202 180.128 19.9402Z" fill="#1D1D1B"/>
<path d="M247.92 214.06C248.975 214.675 249.794 215.626 250.245 216.761C250.697 217.895 250.754 219.149 250.41 220.32L249.92 220.41C249.524 218.738 248.606 217.236 247.3 216.12C244.354 213.436 240.681 211.682 236.741 211.081C232.801 210.48 228.772 211.057 225.16 212.74H223.59C222.183 216.077 219.785 218.901 216.72 220.83C215.297 221.678 213.757 222.311 212.15 222.71C211.105 222.978 210.042 223.165 208.97 223.27C208.36 223.35 207.74 223.39 207.13 223.42H206.26C203.2 223.399 200.146 223.162 197.12 222.71L181.57 220.71L179.66 220.52L177.2 220.93C171.736 221.859 166.202 222.317 160.66 222.3C159.16 222.3 157.66 222.21 156.15 222.09C154.256 221.93 152.37 221.68 150.49 221.34C144.723 220.343 139.207 218.23 134.25 215.12H133.44C131.068 215.375 128.685 214.745 126.75 213.35C126.04 212.86 125.389 212.289 124.81 211.65C124.635 211.473 124.472 211.286 124.32 211.09C122.221 208.284 121.035 204.902 120.92 201.4C120.815 197.924 121.066 194.446 121.67 191.02L124.85 168.45L128.03 145.89L128.39 143.61C127.723 143.19 127.103 142.74 126.53 142.26L129.22 141.26C122.598 129.545 118.951 116.383 118.6 102.93L117.6 102.28C120.07 98.9219 123.445 96.3348 127.33 94.8204C131.66 92.9804 136.33 92.1304 140.95 91.1804C145.57 90.2304 150.21 89.1804 154.36 86.9304L154.41 86.8604C157.396 88.7634 160.801 89.913 164.33 90.2104V90.6704C164.667 93.208 165.339 95.6896 166.33 98.0504C167.35 100.549 168.695 102.903 170.33 105.05C171.986 107.218 173.93 109.149 176.11 110.79C176.76 111.28 177.42 111.73 178.11 112.16C180.209 113.474 182.467 114.516 184.83 115.26C188.124 116.294 191.569 116.767 195.02 116.66C197.884 116.577 200.721 116.075 203.44 115.17L203.67 115.09C206.232 114.199 208.658 112.957 210.88 111.4C212.922 109.965 214.783 108.286 216.42 106.4C218.744 103.746 220.576 100.698 221.83 97.4004V97.3304C225.185 97.4755 228.522 96.7558 231.52 95.2404C239.17 100.71 249.33 102.39 255.98 109.04C260.75 113.79 263.07 120.57 263.68 127.28C264.29 133.99 263.32 140.73 262.36 147.4C260.72 158.88 259.073 170.364 257.42 181.85C256.66 187.16 255.87 192.55 253.66 197.44C252.118 201.003 249.636 204.08 246.48 206.34L246.67 206.62C247.862 208.906 248.299 211.511 247.92 214.06Z" fill="#50AE36"/>
<path d="M305.82 219.96C305.668 220.703 305.355 221.404 304.902 222.013C304.45 222.621 303.868 223.122 303.2 223.48L302.97 223.61C301.511 224.295 299.89 224.558 298.29 224.37C296.69 224.23 295.14 223.79 293.49 223.55C290.774 224.31 287.978 224.747 285.16 224.85C283.491 226.548 281.431 227.808 279.16 228.52L278.63 228.79C277.705 226.921 276.607 225.144 275.35 223.48L275.82 223.13C277.104 222.273 278.327 221.328 279.48 220.3L279.82 220.68C282.221 220.282 284.57 219.611 286.82 218.68C290.517 218.512 294.221 218.633 297.9 219.04C300.54 219.32 303.12 219.62 305.82 219.96Z" fill="white"/>
<path d="M303.33 223.71L304.17 224.13C303.912 224.415 303.612 224.658 303.28 224.85C298.92 227.42 293 225.99 288.8 228.85C287.48 229.48 286.19 230.03 284.89 230.5C283.416 231.063 281.901 231.514 280.36 231.85L280.03 231.97C279.638 230.901 279.184 229.856 278.67 228.84L279.2 228.57C281.471 227.858 283.532 226.598 285.2 224.9C288.018 224.797 290.814 224.36 293.53 223.6C295.18 223.84 296.73 224.28 298.33 224.42C299.93 224.608 301.551 224.345 303.01 223.66L303.24 223.53L303.33 223.71Z" fill="white"/>
<path d="M301.55 232.57C301.531 233.088 301.367 233.591 301.077 234.02C300.788 234.45 300.383 234.789 299.91 235C298.962 235.402 297.938 235.593 296.91 235.56C294.561 235.599 292.216 235.395 289.91 234.95H289.76C287.379 236.461 284.702 237.443 281.91 237.83H281.74C281.38 235.784 280.831 233.775 280.1 231.83L280.43 231.71C281.971 231.374 283.485 230.923 284.96 230.36L285.03 230.55C287.1 230.55 289.18 230.55 291.5 230.55C294.773 231.561 298.14 232.237 301.55 232.57Z" fill="white"/>
<path d="M275.389 223.48C276.646 225.144 277.745 226.921 278.669 228.79C279.184 229.806 279.638 230.851 280.029 231.92C280.76 233.865 281.309 235.874 281.669 237.92V238.1C276.749 242.62 270.669 246.51 264.209 248.1C261.406 248.758 258.538 249.1 255.659 249.12C251.879 249.174 248.111 248.686 244.469 247.67L244.089 247.76C243.454 245.277 243.354 242.688 243.797 240.163C244.24 237.639 245.216 235.238 246.659 233.12H246.749C246.924 232.186 247.357 231.32 247.999 230.62C248.72 229.866 249.537 229.21 250.429 228.67L251.699 227.84C254.124 226.255 256.653 224.835 259.269 223.59C259.56 223.528 259.854 223.481 260.149 223.45L260.089 223.02C262.259 220.71 265.499 219.84 268.409 218.58C271.819 217.032 274.95 214.934 277.679 212.37C283.659 211.616 289.525 210.138 295.149 207.97C295.419 210.91 293.419 213.71 290.859 215.19C288.299 216.67 285.269 217.09 282.349 217.49C280.433 219.634 278.252 221.526 275.859 223.12L275.389 223.48Z" fill="white"/>
<path d="M255.66 249.59C255.749 250.454 255.611 251.326 255.26 252.12C254.909 252.915 254.358 253.604 253.66 254.12C253.188 254.478 252.651 254.743 252.08 254.9C251.82 254.972 251.556 255.029 251.29 255.07C250.448 255.188 249.59 255.084 248.8 254.77C246.998 253.88 245.608 252.329 244.92 250.44C244.539 249.581 244.231 248.691 244 247.78L244.38 247.69C248.051 248.708 251.851 249.19 255.66 249.12V249.59Z" fill="black"/>
<path d="M249.018 221.97C250.568 223.495 251.498 225.54 251.628 227.71L251.698 227.82L250.428 228.65C249.536 229.19 248.719 229.846 247.998 230.6L247.798 230.41C246.163 230.25 244.512 230.351 242.908 230.71L242.758 230.47C240.872 231.52 239.242 232.975 237.984 234.73C236.727 236.485 235.875 238.496 235.488 240.62C234.608 245.89 238.618 251.62 242.988 254.69C240.718 256.34 237.908 255.76 235.358 255.06C231.832 254.174 228.407 252.924 225.138 251.33C221.575 249.552 218.395 247.092 215.778 244.09C215.167 239.041 213.965 234.08 212.198 229.31L211.738 229.19C212.088 227.042 212.229 224.865 212.158 222.69C213.766 222.291 215.305 221.658 216.728 220.81C219.793 218.881 222.191 216.057 223.598 212.72H225.168C228.781 211.042 232.81 210.469 236.747 211.074C240.685 211.679 244.356 213.434 247.298 216.12C248.605 217.236 249.523 218.738 249.918 220.41C250.019 220.922 250.019 221.448 249.918 221.96L249.018 221.97Z" fill="#50AE36"/>
<path d="M248.839 254.75C249.63 255.064 250.488 255.168 251.33 255.05C248.568 255.683 245.686 255.559 242.989 254.69C238.619 251.63 234.609 245.89 235.489 240.62C235.876 238.497 236.729 236.485 237.986 234.73C239.243 232.975 240.873 231.52 242.76 230.47L242.909 230.71C244.513 230.351 246.164 230.25 247.8 230.41L247.999 230.6C247.357 231.3 246.924 232.167 246.749 233.1H246.659C245.202 235.219 244.215 237.625 243.763 240.157C243.311 242.689 243.405 245.288 244.04 247.78C244.271 248.691 244.579 249.581 244.959 250.44C245.652 252.322 247.041 253.865 248.839 254.75Z" fill="#50AE36"/>
<path d="M216.249 106.35L216.329 106.42C214.692 108.306 212.832 109.985 210.789 111.42L205.549 105.27L205.449 105.11C206.078 104.743 206.683 104.336 207.259 103.89C208.481 102.959 209.554 101.846 210.439 100.59L210.619 100.73C212.388 102.709 214.267 104.586 216.249 106.35Z" fill="#50AE36"/>
<path d="M187.829 298.59H187.769C194.14 276.786 194.938 253.732 190.089 231.54V230.62H190.569C190.569 230.35 190.569 230.08 190.569 229.81H190.979C195.733 230.58 200.566 230.731 205.359 230.26L205.569 230.33C206.281 228.28 206.527 226.097 206.289 223.94V223.47H207.159C207.769 223.47 208.389 223.4 208.999 223.32L209.069 223.96C209.01 225.842 208.772 227.714 208.359 229.55L211.519 229.26H211.739L212.199 229.38C213.959 234.138 215.157 239.085 215.769 244.12C216.983 255.064 216.217 266.137 213.509 276.81C209.759 292.43 202.969 307.13 196.229 321.7L196.049 321.79C192.519 314.85 188.629 307.79 185.049 300.79H185.109C185.109 300.45 185.199 300.14 185.239 299.85L187.039 300.07C187.309 299.55 187.579 299.12 187.829 298.59Z" fill="#D1D0D1"/>
<path d="M175.44 99.75C174.256 98.0288 173.392 96.108 172.89 94.08C172.554 92.7099 172.413 91.2994 172.47 89.89L172.34 89.42C173.155 89.1871 173.953 88.8998 174.73 88.56L174.95 88.62C175.614 85.9678 175.847 83.2262 175.64 80.5C180.3 79.65 185.64 77.99 190.37 77.5C188.759 79.6428 187.867 82.2398 187.82 84.92C187.844 87.3282 188.536 89.6823 189.82 91.72C191.104 93.7576 192.928 95.3986 195.09 96.46C194.001 95.8044 193.129 94.8438 192.582 93.6972C192.034 92.5506 191.835 91.2686 192.01 90.01C192.182 90.886 192.538 91.7154 193.055 92.443C193.573 93.1706 194.239 93.7798 195.01 94.23C196.567 95.1111 198.255 95.739 200.01 96.09C202.752 96.8887 205.607 97.2266 208.46 97.09C209.768 96.9604 211.048 96.6228 212.25 96.09L212.37 96.36C211.966 97.8738 211.288 99.3008 210.37 100.57C209.484 101.826 208.412 102.938 207.19 103.87C206.614 104.315 206.009 104.723 205.38 105.09C203.581 106.131 201.646 106.915 199.63 107.42C199.35 107.5 199.06 107.57 198.78 107.63C196.828 108.076 194.832 108.304 192.83 108.31C190.497 108.306 188.177 107.969 185.94 107.31C184.211 106.804 182.556 106.071 181.02 105.13C180.477 104.8 179.952 104.439 179.45 104.05C177.896 102.836 176.543 101.385 175.44 99.75Z" fill="white"/>
<path d="M208.97 223.25C210.042 223.145 211.105 222.958 212.15 222.69C212.22 224.866 212.08 227.042 211.73 229.19H211.51L208.35 229.48C208.763 227.644 209 225.772 209.06 223.89L208.97 223.25Z" fill="#1D1D1B"/>
<path d="M205.55 105.24L210.79 111.39C208.568 112.947 206.142 114.188 203.58 115.08V114.92L199.8 107.59L199.75 107.41C201.766 106.905 203.701 106.121 205.5 105.08L205.55 105.24Z" fill="#50AE36"/>
<path d="M206.27 223.89C206.508 226.047 206.262 228.23 205.55 230.28L205.34 230.21C200.547 230.681 195.714 230.529 190.96 229.76H190.55C190.55 229 190.55 228.24 190.55 227.53C187.48 227.42 184.41 227.31 181.34 227.22C181.221 225.188 181.288 223.15 181.54 221.13V220.77L197.09 222.77C200.116 223.221 203.171 223.459 206.23 223.48L206.27 223.89ZM190.88 225.24L190.66 223.12C188.25 223.12 185.8 223.12 183.35 223.02C183.042 223.746 182.972 224.551 183.15 225.32L190.88 225.24Z" fill="#1D1D1B"/>
<path d="M194.928 116.53V116.65C191.477 116.757 188.033 116.284 184.738 115.25L184.808 115.02C185.178 112.57 185.558 110.12 185.928 107.67L186.008 107.33C188.246 107.989 190.566 108.326 192.898 108.33V108.65C193.391 111.321 194.069 113.954 194.928 116.53Z" fill="#50AE36"/>
<path d="M190.659 223.12L190.839 225.23L183.149 225.32C182.971 224.551 183.041 223.746 183.349 223.02C185.839 223.12 188.289 223.17 190.659 223.12Z" fill="white"/>
<path d="M190.53 227.52C190.53 228.23 190.53 228.99 190.53 229.75C190.53 230.02 190.53 230.29 190.53 230.56H190.05C186.939 230.688 183.824 230.634 180.72 230.4C179.42 230.31 178.13 230.18 176.84 230.02C176.84 229.42 176.84 228.83 176.84 228.25C176.84 225.73 177.01 223.38 177.24 221.05V220.92L179.7 220.51L181.62 220.75V221.11C181.368 223.13 181.301 225.168 181.42 227.2C184.39 227.3 187.46 227.41 190.53 227.52Z" fill="white"/>
<path d="M190.088 231.5C194.937 253.692 194.139 276.747 187.768 298.55H187.828C187.578 299.03 187.308 299.55 187.048 299.98L185.248 299.76C185.393 298.578 185.393 297.383 185.248 296.2C185.13 294.876 184.664 293.607 183.898 292.52L185.598 292.08C187.917 271.831 186.239 251.323 180.658 231.72L180.758 230.42C183.862 230.655 186.978 230.708 190.088 230.58V231.5Z" fill="#D1D0D1"/>
<path d="M186.01 107.33L185.93 107.67C185.56 110.12 185.18 112.57 184.81 115.02L184.74 115.25C182.377 114.506 180.119 113.464 178.02 112.15C177.34 111.72 176.68 111.27 176.02 110.78L176.12 110.64L179.29 104.36L179.51 104.07C180.012 104.46 180.536 104.82 181.08 105.15C182.619 106.092 184.277 106.825 186.01 107.33Z" fill="#50AE36"/>
<path d="M179.52 104.12L179.3 104.41L176.13 110.69L176.03 110.83C173.851 109.189 171.906 107.258 170.25 105.09L170.4 104.97L175.4 99.8003C176.535 101.45 177.925 102.909 179.52 104.12Z" fill="#50AE36"/>
<path d="M177.189 220.94V221.07C176.959 223.4 176.789 225.75 176.789 228.27H176.039C170.898 227.97 165.785 227.302 160.739 226.27L160.269 226.33C160.148 225.08 160.263 223.818 160.609 222.61V222.25C166.163 222.289 171.71 221.851 177.189 220.94Z" fill="#1D1D1B"/>
<path d="M175.439 99.7501L170.439 104.92L170.289 105.04C168.654 102.892 167.31 100.539 166.289 98.0401C168.127 96.4433 170.206 95.1473 172.449 94.2001L172.939 94.0801C173.426 96.1047 174.272 98.0253 175.439 99.7501Z" fill="#50AE36"/>
<path d="M172.888 94.1205L172.398 94.2405C170.155 95.1877 168.076 96.4837 166.238 98.0805C165.248 95.7197 164.576 93.2381 164.238 90.7005V90.2405C166.93 90.4753 169.642 90.2109 172.238 89.4604L172.368 89.9305C172.344 91.3446 172.519 92.7551 172.888 94.1205Z" fill="#50AE36"/>
<path d="M171.3 65.66V65.78L161.16 65.22V65.12C161.025 64.4265 161.025 63.7135 161.16 63.02V62.77C164.679 63.1517 168.108 64.129 171.3 65.66Z" fill="white"/>
<path d="M166.199 19.8901V20.0201C163.851 21.6838 161.887 23.832 160.439 26.3196C158.992 28.8072 158.095 31.5763 157.809 34.4401L157.159 34.3801C155.772 32.7054 154.787 30.735 154.279 28.6201C154.045 27.562 154.071 26.4627 154.357 25.4173C154.643 24.3718 155.179 23.4117 155.919 22.6201C157.679 20.9501 160.319 20.7401 162.729 20.5201C163.906 20.4375 165.069 20.2263 166.199 19.8901Z" fill="#1D1D1B"/>
<path d="M163.499 60.3801C166.363 61.7144 168.996 63.4968 171.299 65.6601C168.112 64.1197 164.686 63.1323 161.169 62.7401C160.889 62.7401 160.599 62.6701 160.319 62.6501C160.123 62.624 159.937 62.548 159.779 62.4293C159.621 62.3106 159.497 62.1532 159.417 61.9723C159.338 61.7914 159.306 61.5932 159.326 61.3966C159.345 61.2001 159.415 61.0118 159.529 60.8501C159.733 60.5433 160.009 60.2916 160.333 60.1171C160.658 59.9427 161.02 59.851 161.389 59.8501C162.122 59.8751 162.841 60.0558 163.499 60.3801Z" fill="white"/>
<path d="M156.12 222.12V222.36C156.04 223.389 156.04 224.422 156.12 225.45H155.98C145.695 224.585 135.675 221.739 126.47 217.07H126.33C126.194 215.889 126.296 214.692 126.63 213.55L126.78 213.34C128.716 214.735 131.098 215.365 133.47 215.11H134.28C139.225 218.23 144.731 220.357 150.49 221.37C152.35 221.69 154.227 221.94 156.12 222.12Z" fill="#1D1D1B"/>
<path d="M126.529 142.25C127.129 142.73 127.749 143.18 128.389 143.6L128.029 145.88L124.849 168.44H124.659C115.504 179.298 105.312 189.238 94.229 198.12L94.409 198.35C92.6901 203.355 89.6035 207.779 85.499 211.12C81.4095 214.433 76.8753 217.157 72.029 219.21C69.539 220.33 66.899 221.38 64.179 221.21C63.7692 221.178 63.3618 221.122 62.959 221.04C61.1029 220.605 59.3673 219.761 57.879 218.57C56.1011 217.102 54.467 215.468 52.999 213.69C51.869 212.4 50.689 211.02 50.439 209.33C50.3676 209.081 50.3142 208.827 50.279 208.57C50.1759 207.852 50.2375 207.12 50.459 206.43C59.0284 191.777 69.1536 178.091 80.659 165.61L81.019 165.77C90.8822 144.016 102.803 123.255 116.619 103.77C116.901 103.245 117.215 102.737 117.559 102.25L118.559 102.9C118.91 116.353 122.557 129.514 129.179 141.23L126.529 142.25ZM112.209 148.7C116.749 148.54 121.209 147.41 124.019 144.82C121.957 144.431 119.867 144.21 117.769 144.16C115.66 144.115 113.572 144.589 111.689 145.54C111.185 145.783 110.751 146.152 110.429 146.61C110.272 146.842 110.188 147.115 110.188 147.395C110.188 147.675 110.272 147.948 110.429 148.18C110.666 148.397 110.95 148.557 111.259 148.647C111.567 148.737 111.892 148.755 112.209 148.7Z" fill="#50AE36"/>
<path d="M124.018 144.82C121.258 147.41 116.748 148.54 112.208 148.7C111.892 148.756 111.566 148.737 111.258 148.647C110.949 148.557 110.665 148.397 110.428 148.18C110.271 147.948 110.188 147.675 110.188 147.395C110.188 147.115 110.271 146.842 110.428 146.61C110.75 146.152 111.184 145.783 111.688 145.54C113.571 144.589 115.659 144.115 117.768 144.16C119.866 144.21 121.956 144.431 124.018 144.82Z" fill="#50AE36"/>
<path d="M62.9597 221.03V221.11C60.8574 222.483 59.0042 224.205 57.4797 226.2C57.0723 226.142 56.6683 226.062 56.2697 225.96C53.5978 225.12 51.3185 223.345 49.8497 220.96C48.2753 218.365 47.0672 215.566 46.2597 212.64C46.2597 212.56 46.2597 212.48 46.1797 212.4C47.4997 210.98 48.8697 209.75 50.1797 208.52H50.2497C50.2848 208.777 50.3383 209.031 50.4097 209.28C50.6597 210.97 51.8397 212.35 52.9697 213.64C54.4377 215.418 56.0717 217.052 57.8497 218.52C59.343 219.73 61.0895 220.588 62.9597 221.03Z" fill="#50AE36"/>
<path d="M25.0391 221.8L24.9891 221.46L45.7691 212.84L46.2391 212.69C47.0467 215.616 48.2548 218.416 49.8291 221.01C51.2979 223.395 53.5773 225.17 56.2491 226.01L56.1191 226.42C51.3191 231.12 49.6591 238.5 44.2891 242.59C41.5091 244.72 37.9091 245.78 35.5891 248.4C32.8343 250.121 30.6683 252.639 29.3791 255.62C28.9272 255.593 28.4941 255.429 28.1371 255.151C27.78 254.872 27.5158 254.492 27.3791 254.06C27.1576 252.682 27.2152 251.274 27.5484 249.919C27.8817 248.563 28.4838 247.289 29.3191 246.17C30.9417 243.963 32.852 241.982 34.9991 240.28C27.2991 243.81 19.9391 247.28 12.5791 250.64C11.6153 251.143 10.5743 251.481 9.49914 251.64C8.95546 251.731 8.39787 251.687 7.87498 251.513C7.35209 251.339 6.87976 251.039 6.49914 250.64C11.291 245.633 16.8384 241.409 22.9391 238.12L8.46914 241.77C7.09967 242.193 5.67198 242.395 4.23914 242.37C3.52066 242.347 2.818 242.153 2.18877 241.805C1.55954 241.458 1.02164 240.966 0.619141 240.37C2.61914 239.217 4.68581 238.157 6.81914 237.19C5.29914 237.38 1.56914 237.13 1.15914 236.08C7.53054 232.392 14.3183 229.475 21.3791 227.39C19.4702 227.236 17.5496 227.313 15.6591 227.62C14.0605 229.463 11.8092 230.614 9.37914 230.83C8.8082 230.936 8.21971 230.895 7.66914 230.71C7.3984 230.614 7.16392 230.436 6.99754 230.202C6.83115 229.968 6.74094 229.688 6.73914 229.4C9.34914 226.97 11.8991 224.47 15.1191 223.25C18.3391 222.03 21.6591 222.26 25.0391 221.8Z" fill="white"/>
<path d="M162.239 10.2603C161.189 12.2603 159.189 13.3303 157.129 14.3803C155.881 14.95 154.68 15.6188 153.539 16.3803C151.96 17.6348 150.685 19.2299 149.809 21.0463C148.932 22.8627 148.478 24.8536 148.479 26.8703C148.414 30.9276 149.714 34.8892 152.169 38.1203C151.16 35.8175 150.794 33.2845 151.109 30.7903C152.136 33.5542 153.387 36.2297 154.849 38.7903C155.259 39.5203 155.689 40.2303 156.129 40.9403" stroke="#1D1D1B" stroke-linecap="round" stroke-linejoin="round"/>
<path d="M154.74 38.8901C155.32 43.2201 153.43 47.5401 150.88 51.0801C148.33 54.6201 145.1 57.6201 142.41 61.0801C140.01 64.1601 138 67.8001 138.04 71.7101C138.113 73.9246 138.84 76.0678 140.131 77.869C141.421 79.6702 143.216 81.0486 145.29 81.8301C143.79 79.6388 142.939 77.0694 142.833 74.4164C142.727 71.7634 143.37 69.1342 144.69 66.8301C144.386 70.5534 145.035 74.2927 146.577 77.6956C148.118 81.0985 150.501 84.0528 153.5 86.2801C153.79 86.4901 154.09 86.7001 154.4 86.8901C157.038 88.5627 160.002 89.6566 163.094 90.0996C166.186 90.5426 169.338 90.3247 172.34 89.4601C173.155 89.2273 173.953 88.94 174.73 88.6001" stroke="#1D1D1B" stroke-linecap="round" stroke-linejoin="round"/>
<path d="M174.43 90.43C174.63 89.83 174.8 89.23 174.95 88.62C175.613 85.9678 175.846 83.2262 175.64 80.5" stroke="#1D1D1B" stroke-linecap="round" stroke-linejoin="round"/>
<path d="M190.369 77.46C185.679 77.99 180.299 79.65 175.639 80.46C170.979 81.27 165.889 81.62 161.639 79.51C160.86 79.0298 160.192 78.3919 159.675 77.6376C159.158 76.8832 158.805 76.029 158.639 75.13C158.338 73.4146 158.158 71.6804 158.099 69.94C157.729 65.58 156.419 61.36 155.899 57.02C155.71 55.3601 155.676 53.6862 155.799 52.02C155.935 48.9341 156.925 45.9466 158.659 43.39L158.299 41.12V40.94C157.939 39.4805 157.758 37.983 157.759 36.48C157.758 35.7916 157.798 35.1037 157.879 34.42C158.164 31.5562 159.061 28.787 160.508 26.2994C161.956 23.8118 163.92 21.6637 166.269 20" stroke="#1D1D1B" stroke-linecap="round" stroke-linejoin="round"/>
<path d="M165.059 16.3901C166.399 17.0458 167.827 17.5039 169.299 17.7501C172.021 18.2193 174.819 17.9606 177.409 17.0001" stroke="#1D1D1B" stroke-linecap="round" stroke-linejoin="round"/>
<path d="M169.308 17.8701C168.512 18.8523 167.422 19.5533 166.198 19.8701C165.08 20.1966 163.93 20.4011 162.768 20.4801C160.358 20.7001 157.718 20.9101 155.958 22.5801C155.218 23.3717 154.682 24.3318 154.396 25.3772C154.11 26.4227 154.084 27.522 154.318 28.5801C154.826 30.695 155.811 32.6654 157.198 34.3401" stroke="#1D1D1B" stroke-linecap="round" stroke-linejoin="round"/>
<path d="M178.33 15.9603C179.875 13.0764 182.466 10.8936 185.57 9.8603C187.469 9.19617 189.452 8.80232 191.46 8.6903C192.68 8.6103 193.91 8.6003 195.13 8.6303" stroke="#1D1D1B" stroke-linecap="round" stroke-linejoin="round"/>
<path d="M191.439 8.38014C193.89 6.44842 196.965 5.48403 200.079 5.67014" stroke="#1D1D1B" stroke-linecap="round" stroke-linejoin="round"/>
<path d="M157.1 13.8802C159.541 8.8678 163.679 4.88214 168.78 2.63024C173.644 0.325753 179.186 -0.108499 184.35 1.41024" stroke="#1D1D1B" stroke-linecap="round" stroke-linejoin="round"/>
<path d="M180.658 2.2901C181.857 1.96291 183.081 1.73877 184.318 1.6201C189.999 1.20891 195.664 2.60934 200.498 5.6201" stroke="#1D1D1B" stroke-linecap="round" stroke-linejoin="round"/>
<path d="M177.408 17C177.991 20.9604 179.52 24.7222 181.864 27.9668C184.209 31.2114 187.301 33.8434 190.878 35.64H190.928" stroke="#1D1D1B" stroke-linecap="round" stroke-linejoin="round"/>
<path d="M190.239 34.3304C182.329 28.7804 180.699 25.3304 180.129 19.9404C183.509 24.7204 186.879 29.5004 190.239 34.3304Z" stroke="#1D1D1B" stroke-linecap="round" stroke-linejoin="round"/>
<path d="M190.819 35.7603C191.683 37.82 192.352 39.9559 192.819 42.1403C193.295 44.3292 194.158 46.4154 195.369 48.3003C195.987 49.234 196.806 50.0176 197.767 50.5938C198.727 51.17 199.804 51.5241 200.919 51.6303C202.101 51.6384 203.254 51.2626 204.204 50.5593C205.155 49.856 205.851 48.8632 206.189 47.7303C207.611 46.5717 209.434 46.025 211.259 46.2103C212.158 46.3112 213.016 46.6396 213.753 47.1645C214.489 47.6894 215.08 48.3935 215.469 49.2103C216.015 50.7436 216.033 52.4157 215.519 53.9603C214.863 56.5339 213.53 58.8851 211.659 60.7703C209.743 62.649 207.302 63.901 204.659 64.3603C204 64.5037 203.318 64.5037 202.659 64.3603C201.856 64.117 201.153 63.6184 200.659 62.9403C200.127 62.2391 199.746 61.4357 199.539 60.5803C199.588 62.1677 199.095 63.7246 198.142 64.9952C197.19 66.2658 195.833 67.1746 194.295 67.5724C192.758 67.9702 191.131 67.8333 189.681 67.1841C188.232 66.535 187.046 65.4122 186.319 64.0003C186.219 63.7903 186.129 63.5803 186.049 63.3603" stroke="#1D1D1B" stroke-linecap="round" stroke-linejoin="round"/>
<path d="M186.33 64.0103C186.675 66.2554 187.725 68.3325 189.33 69.9403C191.051 71.5329 193.098 72.7308 195.33 73.4503C193.381 74.3414 191.693 75.7189 190.43 77.4503C188.819 79.5931 187.927 82.19 187.88 84.8703C187.904 87.2784 188.596 89.6326 189.88 91.6702C191.164 93.7079 192.988 95.3489 195.15 96.4103C194.062 95.7547 193.19 94.794 192.642 93.6475C192.095 92.5009 191.896 91.2188 192.07 89.9603C192.242 90.8363 192.598 91.6656 193.116 92.3932C193.633 93.1209 194.299 93.73 195.07 94.1803C196.628 95.0614 198.315 95.6892 200.07 96.0403C202.812 96.839 205.667 97.1769 208.52 97.0403C209.829 96.9106 211.108 96.5731 212.31 96.0403C212.826 95.8176 213.321 95.5499 213.79 95.2403C214.614 94.7067 215.336 94.0292 215.92 93.2403" stroke="#1D1D1B" stroke-linecap="round" stroke-linejoin="round"/>
<path d="M213.93 95.5004C215.605 96.1959 217.343 96.7316 219.12 97.1004C219.985 97.2601 220.861 97.3603 221.74 97.4004C225.095 97.5455 228.432 96.8259 231.43 95.3104C232.806 94.6301 234.09 93.7765 235.25 92.7704C237.38 90.903 239.078 88.5936 240.225 86.003C241.371 83.4124 241.94 80.603 241.89 77.7704C241.89 77.6504 241.89 77.5404 241.89 77.4204" stroke="#1D1D1B" stroke-linecap="round" stroke-linejoin="round"/>
<path d="M228.109 41.52C228.272 43.6951 228.817 45.8244 229.719 47.81C230.678 49.9659 231.869 52.0112 233.269 53.91C235.909 57.6 239.009 60.91 241.419 64.79C243.833 68.51 245.385 72.7229 245.959 77.12C246.532 81.5218 245.729 85.9931 243.659 89.92C244.217 87.8897 244.349 85.7662 244.048 83.6825C243.747 81.5987 243.019 79.5995 241.909 77.81" stroke="#1D1D1B" stroke-linecap="round" stroke-linejoin="round"/>
<path d="M200.27 5.66016H200.53C209.85 6.74016 218.28 12.6602 223.35 20.5602C228.42 28.4602 230.35 38.3102 229.73 47.7702" stroke="#1D1D1B" stroke-linecap="round" stroke-linejoin="round"/>
<path d="M212.42 96.3504C212.016 97.8642 211.338 99.2911 210.42 100.56C209.534 101.816 208.462 102.929 207.24 103.86C206.663 104.306 206.059 104.713 205.43 105.08C203.631 106.121 201.696 106.905 199.68 107.41C199.4 107.49 199.11 107.56 198.83 107.62C196.878 108.066 194.882 108.294 192.88 108.3C190.547 108.296 188.227 107.959 185.99 107.3C184.261 106.794 182.606 106.061 181.07 105.12C180.526 104.79 180.002 104.43 179.5 104.04C177.919 102.826 176.542 101.367 175.42 99.7204C174.235 97.9992 173.372 96.0784 172.87 94.0504C172.534 92.6802 172.393 91.2698 172.45 89.8604" stroke="#1D1D1B" stroke-linecap="round" stroke-linejoin="round"/>
<path d="M154.349 86.9204C150.199 89.1404 145.549 90.2204 140.939 91.1704C136.329 92.1204 131.649 92.9704 127.319 94.8104C123.434 96.3248 120.06 98.912 117.589 102.27C117.245 102.758 116.931 103.265 116.649 103.79C102.833 123.275 90.912 144.036 81.0488 165.79C80.3822 167.297 79.7155 168.817 79.0488 170.35" stroke="#1D1D1B" stroke-linecap="round" stroke-linejoin="round"/>
<path d="M80.659 165.61C69.1542 178.088 59.029 191.771 50.459 206.42C50.2375 207.111 50.1759 207.843 50.279 208.56C50.3142 208.817 50.3676 209.071 50.439 209.32C50.689 211.01 51.869 212.39 52.999 213.68C54.467 215.458 56.1011 217.092 57.879 218.56C59.3673 219.752 61.1029 220.596 62.959 221.03C63.3618 221.112 63.7692 221.169 64.179 221.2C66.899 221.39 69.539 220.34 72.029 219.2C76.8747 217.15 81.4089 214.43 85.499 211.12C89.6035 207.779 92.6901 203.356 94.409 198.35" stroke="#1D1D1B" stroke-linecap="round" stroke-linejoin="round"/>
<path d="M89.5488 201.78C91.1288 200.58 92.6888 199.363 94.2288 198.13C105.314 189.236 115.505 179.282 124.659 168.41" stroke="#1D1D1B" stroke-linecap="round" stroke-linejoin="round"/>
<path d="M122.959 150.6C108.784 164.699 92.4442 176.437 74.5586 185.37" stroke="#1D1D1B" stroke-linecap="round" stroke-linejoin="round"/>
<path d="M67.0801 192.73C74.3001 194.82 82.0801 193.89 89.2301 191.47C96.3801 189.05 102.88 185.22 109.36 181.47" stroke="#1D1D1B" stroke-linecap="round" stroke-linejoin="round"/>
<path d="M50.209 208.57C48.849 209.8 47.479 211.03 46.209 212.45C46.209 212.53 46.209 212.61 46.289 212.69C47.0965 215.616 48.3046 218.416 49.879 221.01C51.3477 223.395 53.6271 225.17 56.299 226.01C56.6976 226.112 57.1016 226.192 57.509 226.25C59.0335 224.255 60.8866 222.534 62.989 221.16" stroke="#1D1D1B" stroke-linecap="round" stroke-linejoin="round"/>
<path d="M118.6 102.92C118.951 116.373 122.598 129.535 129.22 141.25" stroke="#1D1D1B" stroke-linecap="round" stroke-linejoin="round"/>
<path d="M117.729 129.05C119.225 134.255 122.3 138.867 126.529 142.25C127.129 142.73 127.749 143.18 128.389 143.6" stroke="#1D1D1B" stroke-linecap="round" stroke-linejoin="round"/>
<path d="M124.018 144.82C121.956 144.431 119.866 144.21 117.768 144.16C115.659 144.115 113.571 144.589 111.688 145.54C111.184 145.783 110.75 146.152 110.428 146.61C110.271 146.842 110.188 147.115 110.188 147.395C110.188 147.675 110.271 147.948 110.428 148.18C110.665 148.397 110.949 148.557 111.258 148.647C111.566 148.737 111.892 148.756 112.208 148.7C116.748 148.54 121.258 147.41 124.018 144.82Z" stroke="#1D1D1B" stroke-linecap="round" stroke-linejoin="round"/>
<path d="M128.03 145.88L124.85 168.44L121.66 191.01C121.056 194.436 120.805 197.914 120.91 201.39C121.025 204.892 122.212 208.274 124.31 211.08C124.462 211.276 124.626 211.463 124.8 211.64C125.379 212.279 126.03 212.85 126.74 213.34C128.676 214.735 131.058 215.365 133.43 215.11" stroke="#1D1D1B" stroke-linecap="round" stroke-linejoin="round"/>
<path d="M125.529 207.12C127.946 210.276 130.897 212.984 134.249 215.12C139.195 218.24 144.701 220.366 150.459 221.38C152.339 221.72 154.226 221.97 156.119 222.13C157.619 222.25 159.119 222.32 160.629 222.34C166.178 222.361 171.718 221.906 177.189 220.98L179.649 220.57" stroke="#1D1D1B" stroke-linecap="round" stroke-linejoin="round"/>
<path d="M168.289 219.12L179.659 220.52L181.579 220.76L197.129 222.76C200.155 223.211 203.209 223.449 206.269 223.47H207.139C207.749 223.47 208.369 223.4 208.979 223.32C210.052 223.215 211.115 223.027 212.159 222.76C213.766 222.361 215.306 221.727 216.729 220.88C219.794 218.951 222.192 216.127 223.599 212.79C224.984 209.117 225.663 205.215 225.599 201.29" stroke="#1D1D1B" stroke-linecap="round" stroke-linejoin="round"/>
<path d="M136.279 170.76C144.93 186.661 157.584 200.025 172.989 209.53" stroke="#1D1D1B" stroke-linecap="round" stroke-linejoin="round"/>
<path d="M132.289 193.2C140.709 201.92 151.182 208.387 162.749 212.01" stroke="#1D1D1B" stroke-linecap="round" stroke-linejoin="round"/>
<path d="M256.469 119.36C250.766 128.469 246.811 138.562 244.809 149.12" stroke="#1D1D1B" stroke-linecap="round" stroke-linejoin="round"/>
<path d="M241.889 155.93C248.727 150.262 253.493 142.486 255.439 133.82" stroke="#1D1D1B" stroke-linecap="round" stroke-linejoin="round"/>
<path d="M241.889 153.78C240.139 162.64 238.399 171.53 235.579 180.12C232.759 188.71 228.849 197.02 223.129 204.02" stroke="#1D1D1B" stroke-linecap="round" stroke-linejoin="round"/>
<path d="M256.51 154.67C253.996 164.199 250.026 173.283 244.74 181.6C239.46 189.904 233.676 197.876 227.42 205.47" stroke="#1D1D1B" stroke-linecap="round" stroke-linejoin="round"/>
<path d="M228.859 207.69C235.549 206.88 240.449 200.05 247.179 199.69" stroke="#1D1D1B" stroke-linecap="round" stroke-linejoin="round"/>
<path d="M225.158 212.74C228.77 211.057 232.8 210.48 236.74 211.081C240.679 211.682 244.353 213.436 247.298 216.12C248.605 217.236 249.523 218.738 249.918 220.41C250.019 220.922 250.019 221.449 249.918 221.96" stroke="#1D1D1B" stroke-linecap="round" stroke-linejoin="round"/>
<path d="M221.209 222.03C223.345 219.504 226.314 217.823 229.579 217.29C232.822 216.783 236.13 216.878 239.339 217.57C242.187 217.996 244.913 219.018 247.339 220.57C247.931 220.985 248.48 221.458 248.979 221.98C250.529 223.505 251.459 225.55 251.589 227.72" stroke="#1D1D1B" stroke-linecap="round" stroke-linejoin="round"/>
<path d="M231.439 95.3301C239.089 100.8 249.249 102.48 255.899 109.13C260.669 113.88 262.989 120.66 263.599 127.37C264.209 134.08 263.239 140.82 262.279 147.49C260.639 158.97 258.993 170.453 257.339 181.94C256.579 187.25 255.789 192.64 253.579 197.53C252.038 201.093 249.556 204.17 246.399 206.43C245.175 207.295 243.826 207.969 242.399 208.43" stroke="#1D1D1B" stroke-linecap="round" stroke-linejoin="round"/>
<path d="M246.59 206.71C247.791 208.961 248.256 211.532 247.92 214.06C248.975 214.675 249.794 215.626 250.245 216.761C250.697 217.895 250.755 219.149 250.41 220.32" stroke="#1D1D1B" stroke-linecap="round" stroke-linejoin="round"/>
<path d="M245.658 229.27C244.667 229.56 243.712 229.959 242.808 230.46C240.922 231.51 239.292 232.964 238.034 234.719C236.777 236.474 235.925 238.486 235.538 240.61C234.658 245.88 238.668 251.61 243.038 254.68" stroke="#1D1D1B" stroke-linecap="round" stroke-linejoin="round"/>
<path d="M247.579 238.79C247.164 237.623 246.866 236.417 246.689 235.19C246.614 234.494 246.634 233.791 246.749 233.1C246.924 232.167 247.357 231.3 247.999 230.6C248.719 229.846 249.536 229.19 250.429 228.65L251.699 227.82C254.124 226.235 256.653 224.816 259.269 223.57C259.56 223.508 259.853 223.462 260.149 223.43C263.489 223.1 267.059 224.75 270.409 223.54C270.552 224.814 270.284 226.1 269.644 227.211C269.003 228.321 268.024 229.197 266.849 229.71C265.665 230.196 264.396 230.436 263.117 230.415C261.838 230.395 260.576 230.114 259.409 229.59" stroke="#1D1D1B" stroke-linecap="round" stroke-linejoin="round"/>
<path d="M260.039 230.35C259.52 231.1 258.817 231.704 257.998 232.105C257.178 232.505 256.27 232.69 255.359 232.64" stroke="#1D1D1B" stroke-linecap="round" stroke-linejoin="round"/>
<path d="M264.899 231.9C265.349 234.9 263.629 237.9 261.189 239.72C258.648 241.402 255.733 242.432 252.699 242.72" stroke="#1D1D1B" stroke-linecap="round" stroke-linejoin="round"/>
<path d="M273.488 221.18C274.16 221.915 274.794 222.682 275.388 223.48C276.646 225.143 277.744 226.921 278.668 228.79C279.183 229.806 279.637 230.851 280.028 231.92C280.759 233.865 281.308 235.874 281.668 237.92V238.1" stroke="#1D1D1B" stroke-linecap="round" stroke-linejoin="round"/>
<path d="M244.42 247.67C248.077 248.691 251.863 249.179 255.66 249.12C258.568 249.09 261.463 248.731 264.29 248.05C270.79 246.5 276.83 242.61 281.75 238.05" stroke="#1D1D1B" stroke-linecap="round" stroke-linejoin="round"/>
<path d="M246.66 233.12C245.203 235.239 244.215 237.645 243.763 240.177C243.311 242.709 243.406 245.308 244.04 247.8C244.271 248.711 244.579 249.601 244.96 250.46C245.648 252.349 247.038 253.9 248.84 254.79C249.63 255.104 250.488 255.207 251.33 255.09C251.598 255.058 251.863 255.002 252.12 254.92C252.679 254.752 253.201 254.481 253.66 254.12C254.34 253.596 254.874 252.906 255.211 252.117C255.547 251.327 255.674 250.463 255.58 249.61" stroke="#1D1D1B" stroke-linecap="round" stroke-linejoin="round"/>
<path d="M242.908 230.71C244.512 230.351 246.163 230.25 247.798 230.41" stroke="#1D1D1B" stroke-linecap="round" stroke-linejoin="round"/>
<path d="M215.779 244.12C218.396 247.122 221.576 249.582 225.139 251.36C228.408 252.954 231.833 254.204 235.359 255.09C237.909 255.79 240.719 256.37 242.989 254.72C245.686 255.589 248.568 255.713 251.329 255.08C251.596 255.039 251.859 254.982 252.119 254.91" stroke="#1D1D1B" stroke-linecap="round" stroke-linejoin="round"/>
<path d="M260.09 223C262.26 220.69 265.5 219.82 268.41 218.56C271.819 217.012 274.951 214.914 277.68 212.35C283.66 211.596 289.526 210.118 295.15 207.95C295.42 210.89 293.42 213.69 290.86 215.17C288.3 216.65 285.27 217.07 282.35 217.47C280.435 219.621 278.254 221.52 275.86 223.12" stroke="#1D1D1B" stroke-linecap="round" stroke-linejoin="round"/>
<path d="M279.859 220.68C282.26 220.282 284.609 219.611 286.859 218.68C290.556 218.512 294.26 218.633 297.939 219.04C300.519 219.33 303.099 219.63 305.799 219.97C305.647 220.713 305.334 221.414 304.881 222.023C304.429 222.631 303.847 223.132 303.179 223.49L302.949 223.62C301.49 224.305 299.869 224.568 298.269 224.38C296.669 224.24 295.119 223.8 293.469 223.56C290.753 224.32 287.957 224.757 285.139 224.86C283.47 226.558 281.41 227.818 279.139 228.53" stroke="#1D1D1B" stroke-linecap="round" stroke-linejoin="round"/>
<path d="M280.359 231.8C281.901 231.464 283.415 231.012 284.889 230.45C286.189 229.98 287.479 229.45 288.799 228.8C292.999 225.99 298.919 227.42 303.279 224.8C303.611 224.608 303.912 224.365 304.169 224.08L303.329 223.66" stroke="#1D1D1B" stroke-linecap="round" stroke-linejoin="round"/>
<path d="M284.959 230.64C287.029 230.64 289.109 230.64 291.429 230.64C294.728 231.628 298.119 232.278 301.549 232.58C301.53 233.098 301.367 233.6 301.077 234.03C300.787 234.459 300.382 234.799 299.909 235.01C298.961 235.412 297.938 235.603 296.909 235.57C294.561 235.609 292.215 235.405 289.909 234.96" stroke="#1D1D1B" stroke-linecap="round" stroke-linejoin="round"/>
<path d="M289.659 235C287.278 236.51 284.601 237.492 281.809 237.88" stroke="#1D1D1B" stroke-linecap="round" stroke-linejoin="round"/>
<path d="M45.7683 212.84L24.9883 221.46" stroke="#1D1D1B" stroke-linecap="round" stroke-linejoin="round"/>
<path d="M26.5482 221.55C26.0482 221.65 25.5482 221.74 25.0382 221.8C21.6982 222.26 18.2482 222.12 15.1182 223.31C11.9882 224.5 9.3482 227.03 6.7382 229.46C6.74 229.748 6.83022 230.028 6.9966 230.262C7.16298 230.496 7.39746 230.674 7.6682 230.77C8.21877 230.955 8.80726 230.996 9.3782 230.89C11.8082 230.674 14.0595 229.523 15.6582 227.68C17.5486 227.373 19.4692 227.296 21.3782 227.45C14.3182 229.528 7.53053 232.439 1.1582 236.12C1.5682 237.12 5.2982 237.42 6.8182 237.23L7.1582 237.17" stroke="#1D1D1B" stroke-linecap="round" stroke-linejoin="round"/>
<path d="M20.8582 232.12C16.0597 233.438 11.3773 235.147 6.8582 237.23C4.72487 238.21 2.6582 239.277 0.658203 240.43C1.0607 241.026 1.59861 241.518 2.22784 241.865C2.85707 242.213 3.55971 242.406 4.2782 242.43C5.71104 242.455 7.13873 242.252 8.5082 241.83L22.9382 238.12L23.2482 238.04" stroke="#1D1D1B" stroke-linecap="round" stroke-linejoin="round"/>
<path d="M25.6598 236.8C24.7598 237.23 23.8698 237.69 22.9898 238.16C16.9046 241.446 11.371 245.664 6.58984 250.66C6.97046 251.059 7.44279 251.358 7.96568 251.533C8.48857 251.707 9.04616 251.751 9.58984 251.66C10.665 251.501 11.706 251.163 12.6698 250.66C20.0298 247.25 27.3898 243.83 35.0898 240.3C32.9427 242.002 31.0324 243.983 29.4098 246.19C28.5745 247.308 27.9724 248.583 27.6391 249.938C27.3059 251.294 27.2483 252.702 27.4698 254.08C27.6065 254.512 27.8707 254.892 28.2278 255.17C28.5848 255.449 29.0179 255.613 29.4698 255.64C30.759 252.659 32.925 250.141 35.6798 248.42C37.9998 245.8 41.5998 244.74 44.3798 242.61C49.7198 238.52 51.3798 231.11 56.2098 226.39" stroke="#1D1D1B" stroke-linecap="round" stroke-linejoin="round"/>
<path d="M28.7793 236.3C29.3636 235.314 30.1594 234.471 31.1093 233.83" stroke="#1D1D1B" stroke-linecap="round" stroke-linejoin="round"/>
<path d="M26.5485 228.48C25.6775 229.285 24.9741 230.253 24.4785 231.33" stroke="#1D1D1B" stroke-linecap="round" stroke-linejoin="round"/>
<path d="M23.5098 226.66L24.7698 225.39" stroke="#1D1D1B" stroke-linecap="round" stroke-linejoin="round"/>
<path d="M177.209 221.12C176.979 223.45 176.809 225.8 176.809 228.32C176.809 228.9 176.809 229.49 176.809 230.09C178.099 230.25 179.389 230.38 180.689 230.47C183.793 230.704 186.908 230.758 190.019 230.63H190.499C190.499 230.36 190.499 230.09 190.499 229.82C190.499 229.06 190.499 228.3 190.499 227.59C187.429 227.48 184.359 227.37 181.289 227.28C181.17 225.248 181.237 223.21 181.489 221.19" stroke="#1D1D1B" stroke-linecap="round" stroke-linejoin="round"/>
<path d="M190.659 223.12L190.839 225.23L183.149 225.32C182.971 224.551 183.041 223.746 183.349 223.02C185.839 223.12 188.289 223.17 190.659 223.12Z" stroke="#1D1D1B" stroke-linecap="round" stroke-linejoin="round"/>
<path d="M160.658 222.66C160.312 223.868 160.197 225.13 160.318 226.38C160.337 226.642 160.37 226.902 160.418 227.16L160.338 226.9" stroke="#1D1D1B" stroke-linecap="round" stroke-linejoin="round"/>
<path d="M156.099 222.33C156.019 223.359 156.019 224.392 156.099 225.42C156.099 225.83 156.099 226.23 156.199 226.63" stroke="#1D1D1B" stroke-linecap="round" stroke-linejoin="round"/>
<path d="M126.599 213.55C126.265 214.692 126.163 215.889 126.299 217.07C126.329 217.458 126.389 217.842 126.479 218.22C126.529 218.45 126.599 218.68 126.669 218.9" stroke="#1D1D1B" stroke-linecap="round" stroke-linejoin="round"/>
<path d="M124.54 211.9C123.825 213.757 123.655 215.78 124.05 217.73C124.114 218.068 124.198 218.402 124.3 218.73" stroke="#1D1D1B" stroke-linecap="round" stroke-linejoin="round"/>
<path d="M126.439 217.05C135.644 221.719 145.665 224.565 155.949 225.43" stroke="#1D1D1B" stroke-linecap="round" stroke-linejoin="round"/>
<path d="M160.76 226.32C165.805 227.352 170.919 228.02 176.06 228.32" stroke="#1D1D1B" stroke-linecap="round" stroke-linejoin="round"/>
<path d="M190.959 229.76C195.713 230.529 200.546 230.681 205.339 230.21" stroke="#1D1D1B" stroke-linecap="round" stroke-linejoin="round"/>
<path d="M206.269 223.89C206.507 226.047 206.261 228.23 205.549 230.28C205.457 230.572 205.35 230.859 205.229 231.14" stroke="#1D1D1B" stroke-linecap="round" stroke-linejoin="round"/>
<path d="M209.039 223.89C208.98 225.772 208.742 227.643 208.329 229.48C208.184 230.043 208.007 230.597 207.799 231.14" stroke="#1D1D1B" stroke-linecap="round" stroke-linejoin="round"/>
<path d="M208.35 229.48L211.51 229.19" stroke="#1D1D1B" stroke-linecap="round" stroke-linejoin="round"/>
<path d="M212.149 222.69C212.219 224.866 212.079 227.042 211.729 229.19" stroke="#1D1D1B" stroke-linecap="round" stroke-linejoin="round"/>
<path d="M123.729 217.79C113.389 231.438 106.215 247.216 102.729 263.98C99.2088 284.2 109.229 306.5 120.849 324.21" stroke="#1D1D1B" stroke-linecap="round" stroke-linejoin="round"/>
<path d="M182.969 291.61C183.306 291.889 183.608 292.208 183.869 292.56C184.635 293.647 185.101 294.916 185.219 296.24C185.363 297.423 185.363 298.618 185.219 299.8C185.219 300.09 185.139 300.4 185.089 300.74" stroke="#1D1D1B" stroke-linecap="round" stroke-linejoin="round"/>
<path d="M183.17 297.04C183.79 298.28 184.41 299.52 185.06 300.77C188.63 307.77 192.52 314.82 196.06 321.77L197.3 324.22" stroke="#1D1D1B" stroke-linecap="round" stroke-linejoin="round"/>
<path d="M141.549 234.51C158.13 249.632 171.998 267.484 182.549 287.29" stroke="#1D1D1B" stroke-linecap="round" stroke-linejoin="round"/>
<path d="M131.209 258.76C141.209 261.25 151.369 263.85 159.869 269.63C167.719 274.96 173.599 282.63 179.329 290.2" stroke="#1D1D1B" stroke-linecap="round" stroke-linejoin="round"/>
<path d="M146.369 281.41C156.317 282.492 166.063 284.969 175.319 288.77" stroke="#1D1D1B" stroke-linecap="round" stroke-linejoin="round"/>
<path d="M190.09 231.5C194.938 253.692 194.141 276.746 187.77 298.55" stroke="#1D1D1B" stroke-linecap="round" stroke-linejoin="round"/>
<path d="M180.658 231.72C186.244 251.336 187.923 271.858 185.598 292.12" stroke="#1D1D1B" stroke-linecap="round" stroke-linejoin="round"/>
<path d="M187.049 300.02C187.309 299.55 187.579 299.07 187.829 298.59C196.214 283.272 203.006 267.134 208.099 250.43" stroke="#1D1D1B" stroke-linecap="round" stroke-linejoin="round"/>
<path d="M188.818 302.21C193.941 298.861 198.595 294.846 202.658 290.27" stroke="#1D1D1B" stroke-linecap="round" stroke-linejoin="round"/>
<path d="M189.988 303.99C192.252 303.781 194.516 304.391 196.368 305.71V305.63" stroke="#1D1D1B" stroke-linecap="round" stroke-linejoin="round"/>
<path d="M196.229 321.67C202.969 307.1 209.759 292.4 213.509 276.78C216.213 266.117 216.979 255.054 215.769 244.12C215.157 239.071 213.955 234.11 212.189 229.34" stroke="#1D1D1B" stroke-linecap="round" stroke-linejoin="round"/>
<path d="M158.318 32.5501C159.013 32.5324 159.699 32.7001 160.307 33.0358C160.916 33.3714 161.423 33.8631 161.778 34.4601" stroke="#1D1D1B" stroke-width="0.5" stroke-linecap="round" stroke-linejoin="round"/>
<path d="M171.709 34.8004C172.622 33.9013 173.71 33.1995 174.906 32.7384C176.101 32.2774 177.379 32.0671 178.659 32.1204C181.211 32.2448 183.69 33.0193 185.859 34.3704" stroke="#1D1D1B" stroke-width="0.5" stroke-linecap="round" stroke-linejoin="round"/>
<path d="M172.658 42.5203C172.772 41.8243 173.086 41.1766 173.562 40.6563C174.038 40.136 174.655 39.7655 175.338 39.5903C176.51 39.4017 177.711 39.5544 178.798 40.0303C180.693 40.7042 182.489 41.6291 184.138 42.7803" stroke="#1D1D1B" stroke-linecap="round" stroke-linejoin="round"/>
<path d="M174.598 41.1201C174.248 41.9896 174.248 42.9607 174.598 43.8301C174.598 43.9301 174.698 44.0301 174.798 44.0501C174.898 44.0701 175.048 43.8101 175.028 43.6201C175.13 43.1961 175.145 42.7557 175.071 42.3258C174.997 41.896 174.836 41.4858 174.598 41.1201Z" stroke="#1D1D1B" stroke-width="0.5" stroke-linecap="round" stroke-linejoin="round"/>
<path d="M160.08 40.6704C159.862 41.0319 159.734 41.4407 159.708 41.862C159.682 42.2834 159.758 42.7048 159.93 43.0904C160.01 43.2604 160.19 43.4504 160.36 43.3704C160.415 43.3296 160.458 43.2745 160.485 43.2111C160.511 43.1477 160.52 43.0784 160.51 43.0104C160.565 42.2067 160.417 41.402 160.08 40.6704Z" stroke="#1D1D1B" stroke-width="0.5" stroke-linecap="round" stroke-linejoin="round"/>
<path d="M158.658 41.1203C158.88 40.6734 159.19 40.2755 159.568 39.9503C159.757 39.7875 159.98 39.6703 160.221 39.6079C160.462 39.5455 160.714 39.5394 160.958 39.5903C161.417 39.7547 161.814 40.0546 162.098 40.4503C162.839 41.3142 163.508 42.2373 164.098 43.2103" stroke="#1D1D1B" stroke-linecap="round" stroke-linejoin="round"/>
<path d="M163.38 36.77C164.138 37.6313 164.678 38.6627 164.953 39.7768C165.228 40.8908 165.23 42.0548 164.96 43.17C164.96 43.26 164.91 43.35 164.89 43.43C164.15 45.97 162.08 47.92 160.11 49.71C159.385 50.2922 158.763 50.9919 158.27 51.78C158.203 51.9063 158.169 52.0472 158.17 52.19C158.171 52.3272 158.199 52.4628 158.25 52.59C158.355 52.8499 158.504 53.0899 158.69 53.3C159.49 54.2789 160.442 55.123 161.51 55.8" stroke="#1D1D1B" stroke-width="0.5" stroke-linecap="round" stroke-linejoin="round"/>
<path d="M163.1 54.5303C163.447 54.5284 163.79 54.6079 164.1 54.7624C164.411 54.917 164.682 55.1423 164.89 55.4203" stroke="#1D1D1B" stroke-width="0.5" stroke-linecap="round" stroke-linejoin="round"/>
<path d="M166.51 56.5301C167.059 56.323 167.532 55.9538 167.866 55.4715C168.2 54.9893 168.379 54.4167 168.38 53.8301" stroke="#1D1D1B" stroke-width="0.5" stroke-linecap="round" stroke-linejoin="round"/>
<path d="M171.299 65.6601C168.996 63.4968 166.363 61.7145 163.499 60.3801C162.838 60.0696 162.119 59.9026 161.389 59.8901C161.02 59.891 160.658 59.9828 160.333 60.1572C160.009 60.3316 159.733 60.5834 159.529 60.8901C159.415 61.0519 159.345 61.2401 159.326 61.4367C159.306 61.6332 159.338 61.8315 159.417 62.0124C159.497 62.1932 159.621 62.3506 159.779 62.4693C159.937 62.588 160.123 62.6641 160.319 62.6901C160.599 62.6901 160.889 62.6901 161.169 62.7801C164.684 63.1598 168.109 64.1336 171.299 65.6601Z" stroke="#1D1D1B" stroke-width="0.5" stroke-linecap="round" stroke-linejoin="round"/>
<path d="M161.138 62.9902C161.003 63.6837 161.003 64.3967 161.138 65.0902" stroke="#1D1D1B" stroke-width="0.5" stroke-linecap="round" stroke-linejoin="round"/>
<path d="M160.279 65.1704H161.149L171.289 65.7304H171.409" stroke="#1D1D1B" stroke-width="0.5" stroke-linecap="round" stroke-linejoin="round"/>
<path d="M161.818 69.2202C163.218 69.9563 164.813 70.2328 166.378 70.0102" stroke="#1D1D1B" stroke-width="0.5" stroke-linecap="round" stroke-linejoin="round"/>
<path d="M164.279 90.6602C164.617 93.1978 165.289 95.6794 166.279 98.0402C167.3 100.539 168.645 102.892 170.279 105.04C171.935 107.208 173.88 109.139 176.059 110.78C176.709 111.27 177.369 111.72 178.059 112.15C180.159 113.464 182.417 114.505 184.779 115.25C188.074 116.284 191.518 116.757 194.969 116.65C197.834 116.567 200.67 116.065 203.389 115.16L203.619 115.08C206.181 114.188 208.608 112.947 210.829 111.39C212.872 109.954 214.732 108.275 216.369 106.39C218.693 103.736 220.525 100.688 221.779 97.3902" stroke="#1D1D1B" stroke-width="0.5" stroke-linecap="round" stroke-linejoin="round"/>
<path d="M210.658 100.7C212.426 102.689 214.305 104.576 216.288 106.35" stroke="#1D1D1B" stroke-width="0.5" stroke-linecap="round" stroke-linejoin="round"/>
<path d="M213.398 96.2305C215.792 97.4035 218.09 98.7645 220.268 100.3" stroke="#1D1D1B" stroke-width="0.5" stroke-linecap="round" stroke-linejoin="round"/>
<path d="M210.839 111.45L210.789 111.39L205.549 105.24" stroke="#1D1D1B" stroke-width="0.5" stroke-linecap="round" stroke-linejoin="round"/>
<path d="M203.53 114.92L199.75 107.59" stroke="#1D1D1B" stroke-width="0.5" stroke-linecap="round" stroke-linejoin="round"/>
<path d="M192.898 108.62C193.38 111.3 194.048 113.943 194.898 116.53" stroke="#1D1D1B" stroke-width="0.5" stroke-linecap="round" stroke-linejoin="round"/>
<path d="M185.929 107.67C185.559 110.12 185.179 112.57 184.809 115.02" stroke="#1D1D1B" stroke-width="0.5" stroke-linecap="round" stroke-linejoin="round"/>
<path d="M179.299 104.36L176.129 110.64" stroke="#1D1D1B" stroke-width="0.5" stroke-linecap="round" stroke-linejoin="round"/>
<path d="M175.479 99.7002L170.479 104.87" stroke="#1D1D1B" stroke-width="0.5" stroke-linecap="round" stroke-linejoin="round"/>
<path d="M172.398 94.2002C170.155 95.1474 168.076 96.4434 166.238 98.0402" stroke="#1D1D1B" stroke-width="0.5" stroke-linecap="round" stroke-linejoin="round"/>
<path d="M120.869 324.21H197.289" stroke="#1D1D1B" stroke-linecap="round" stroke-linejoin="round"/>
</svg>
