<svg width="217" height="285" viewBox="0 0 217 285" fill="none" xmlns="http://www.w3.org/2000/svg">
<path d="M169.521 255.18C169.634 255.692 169.887 256.163 170.251 256.54V256.59C171.891 259.95 173.421 263.38 174.821 266.85C175.201 269.52 175.891 269.85 176.261 272.66C176.591 275.16 176.831 277.96 175.261 279.95C174.001 281.57 171.901 282.19 169.851 282.59L169.531 280.77C169.781 270.98 168.341 266.67 165.441 257.31V257.18C165.76 257.303 166.105 257.338 166.441 257.28C166.934 257.136 167.379 256.863 167.731 256.49C168.271 256 168.791 255.49 169.271 254.95L169.521 255.18Z" fill="#E94D4F"/>
<path d="M134.461 113.12C133.888 105.849 132.316 98.6923 129.791 91.8502L130.291 91.6602C132.051 96.3802 133.628 101.157 135.021 105.99C145.126 141.094 145.747 178.248 136.821 213.67L136.461 213.58C131.661 200.67 128.661 187.12 125.661 173.63C124.261 167.27 122.851 160.77 123.661 154.31L124.201 151.99C128.394 146.24 131.374 139.697 132.961 132.76C134.196 127.58 134.767 122.264 134.661 116.94C134.661 115.67 134.571 114.41 134.461 113.12Z" fill="#D1D0D1"/>
<path d="M94.3704 106.38L92.1504 100.33L92.9104 100.05C95.197 106.292 97.9308 112.361 101.09 118.21C104.404 124.325 108.039 130.26 111.98 135.99C115.67 141.4 119.58 146.66 123.58 151.81L124.21 151.99L123.67 154.31C122.84 160.77 124.25 167.31 125.67 173.63C128.67 187.12 131.67 200.63 136.48 213.63L136.84 213.72C136.84 213.91 136.75 214.1 136.7 214.29L136.12 214.59C132.285 207.111 128.85 199.433 125.83 191.59C123.6 185.93 121.5 180.22 119.41 174.51L94.3704 106.38Z" fill="#D1D0D1"/>
<path d="M31.0506 126.85C30.9273 126.678 30.7523 126.549 30.551 126.482C30.3497 126.416 30.1324 126.415 29.9306 126.48C29.7306 126.549 29.5532 126.671 29.4175 126.833C29.2818 126.995 29.1929 127.191 29.1606 127.4C29.1316 127.608 29.1508 127.82 29.2167 128.019C29.2825 128.219 29.3934 128.4 29.5406 128.55L28.5406 128.82C28.8647 129.165 29.2935 129.394 29.7606 129.47C30.2289 129.53 30.7039 129.436 31.1148 129.204C31.5256 128.971 31.8504 128.612 32.0406 128.18C32.2082 127.778 32.2398 127.332 32.1306 126.91L31.0506 126.85ZM60.3506 109.73L60.9906 107.83L61.5106 108C62.0154 108.451 62.3653 109.049 62.5106 109.71C62.6207 110.278 62.6207 110.862 62.5106 111.43C62.2514 112.647 61.7919 113.813 61.1506 114.88C59.6706 117.72 58.224 120.577 56.8106 123.45C55.9206 125.24 55.0406 127.04 54.1906 128.85C52.4106 132.57 50.6906 136.313 49.0306 140.08C47.424 143.7 45.8673 147.343 44.3606 151.01C43.6206 152.82 42.8906 154.63 42.2106 156.46C40.9774 159.623 39.9093 162.847 39.0106 166.12C38.6106 167.59 38.2606 169.12 37.9606 170.58C37.8906 170.92 37.8306 171.25 37.7706 171.58L38.9906 171.81C40.0916 177.034 39.629 182.467 37.6606 187.43L39.8106 188.33C39.7506 188.51 39.6806 188.69 39.6106 188.86C38.3023 191.718 35.9416 193.96 33.0206 195.12C29.9559 196.317 26.7243 197.032 23.4406 197.24C20.1688 197.75 16.8361 197.73 13.5706 197.18C10.2642 196.387 7.26954 194.625 4.96977 192.12C2.67 189.616 1.16966 186.482 0.66064 183.12C0.430613 180.608 0.450711 178.079 0.720639 175.57C0.783429 173.391 1.09887 171.227 1.66064 169.12C2.20871 167.064 3.49813 165.283 5.28064 164.12C11.1721 140.599 20.3882 118.039 32.6506 97.1201H33.0006L33.5406 97.6701C36.7706 100.84 40.8506 103.03 44.8506 105.17C47.2865 106.551 49.8238 107.744 52.4406 108.74C54.1231 109.348 55.8782 109.731 57.6606 109.88C58.5586 109.965 59.4626 109.965 60.3606 109.88L60.3506 109.73Z" fill="#E94D4F"/>
<path d="M184.911 186.12C184.299 185.548 183.811 184.857 183.478 184.089C183.144 183.321 182.972 182.492 182.972 181.655C182.972 180.817 183.144 179.989 183.478 179.221C183.811 178.453 184.299 177.762 184.911 177.19L185.151 176.77C183.131 175.677 181.428 174.078 180.211 172.13L180.361 171.75C176.682 170.391 173.531 167.897 171.361 164.63C172.051 160.31 172.751 156 173.361 151.63C175.311 137.53 176.111 122.9 171.861 109.32L174.051 108.15C174.767 109.616 175.311 111.159 175.671 112.75C176.611 116.31 177.555 119.87 178.501 123.43C180.918 125.221 182.551 127.875 183.061 130.84C184.72 131.378 186.136 132.482 187.061 133.96C188.217 135.607 188.908 137.534 189.061 139.54V139.63C189.941 139.819 190.748 140.26 191.381 140.9C192.151 141.8 192.281 143.08 192.951 144.05C193.951 145.45 195.741 145.89 197.251 146.68C201.721 149.01 203.431 154.53 207.161 157.92C209.061 159.65 211.651 161.05 212.511 163.63C213.635 164.696 214.531 165.978 215.147 167.399C215.762 168.82 216.083 170.351 216.091 171.9C216.094 174.996 215.643 178.075 214.751 181.04C212.384 190.316 209.554 199.467 206.271 208.46C205.891 209.46 205.501 210.52 205.121 211.54C204.801 212.39 204.471 213.23 204.121 214.08C203.701 215.16 203.271 216.23 202.841 217.3C202.411 218.37 202.061 219.21 201.671 220.16C201.281 221.11 200.831 222.16 200.401 223.16C199.691 224.82 198.951 226.48 198.201 228.16L198.131 228.25C197.297 226.202 196.209 224.266 194.891 222.49C194.24 221.608 193.532 220.77 192.771 219.98C192.391 219.58 192.001 219.19 191.591 218.82C190.695 217.982 189.739 217.21 188.731 216.51C184.824 213.978 180.365 212.425 175.731 211.98C174.961 211.89 174.211 211.84 173.471 211.82C173.639 211.109 173.983 210.452 174.471 209.91C178.323 204.562 181.281 198.625 183.231 192.33C182.887 191.27 182.857 190.133 183.145 189.056C183.432 187.979 184.025 187.008 184.851 186.26L184.911 186.12ZM207.441 168.02C207.441 167.66 207.061 167.43 206.731 167.29C205.589 166.857 204.411 166.522 203.211 166.29C195.021 164.42 186.721 162.54 177.971 162.93C187.201 165.78 196.591 168.66 206.251 168.71C206.761 168.69 207.441 168.52 207.441 168.01V168.02Z" fill="#E94D4F"/>
<path d="M130.29 91.6902L129.79 91.8802C128.79 89.0002 127.56 86.1702 126.25 83.4002L126.64 83.2202C129.592 84.1175 132.266 85.7523 134.41 87.9702C136.62 90.1002 138.53 92.5202 140.64 94.7502C141.62 95.7835 142.643 96.7835 143.71 97.7502C147.452 101.064 151.66 103.81 156.2 105.9L150.2 110.33C148.481 109.482 146.845 108.478 145.31 107.33C144.159 106.335 142.869 105.513 141.48 104.89C140.778 104.592 140.007 104.496 139.254 104.615C138.501 104.733 137.796 105.061 137.22 105.56L135.05 105.99C133.637 101.184 132.05 96.4169 130.29 91.6902Z" fill="#E94D4F"/>
<path d="M206.731 167.28C207.061 167.42 207.441 167.65 207.441 168.01C207.441 168.37 206.761 168.69 206.251 168.69C196.591 168.64 187.201 165.76 177.971 162.91C186.721 162.52 195.021 164.4 203.211 166.27C204.411 166.506 205.588 166.844 206.731 167.28Z" fill="#E94D4F"/>
<path d="M198.15 228.23C197.4 229.171 196.334 229.811 195.15 230.03C193.694 230.067 192.263 229.636 191.07 228.8C192.27 226.8 193.45 224.7 194.65 222.65L194.91 222.47C196.228 224.246 197.316 226.181 198.15 228.23Z" fill="#1D1D1B"/>
<path d="M175.791 211.96V212.14L174.911 213.67L174.561 213.47C174.219 213.363 173.927 213.134 173.743 212.826C173.558 212.518 173.494 212.152 173.561 211.8C174.271 211.82 175.021 211.87 175.791 211.96Z" fill="#1D1D1B"/>
<path d="M150.17 110.33L156.17 105.9C151.63 103.809 147.422 101.063 143.68 97.7499L143.77 97.6499C149.498 99.7619 155.401 101.365 161.41 102.44C163.005 102.662 164.582 102.996 166.13 103.44C167.162 103.759 168.139 104.231 169.03 104.84L169.21 104.59C170.135 104.719 171.019 105.056 171.795 105.576C172.571 106.095 173.219 106.784 173.69 107.59C173.81 107.79 173.93 107.99 174.04 108.19L171.85 109.36C176.1 122.94 175.3 137.57 173.35 151.67C172.76 155.99 172.06 160.3 171.35 164.67C169.8 174.43 168.35 184.19 168.23 194.06C168.15 203.26 169.23 212.69 166.67 221.51V221.68C165.969 221.544 165.249 221.55 164.55 221.696C163.851 221.842 163.188 222.125 162.6 222.53C160.42 224.07 159.71 226.94 158.22 229.15C157.802 229.699 157.418 230.273 157.07 230.87C156.715 231.472 156.601 232.187 156.75 232.87C156.829 233.14 156.954 233.394 157.12 233.62L156.12 234.39C158.119 237.015 159.892 239.805 161.42 242.73L161.67 242.87C161.27 243.58 160.85 244.29 160.41 244.98C159.632 246.083 158.963 247.258 158.41 248.49C158.164 249.109 158.018 249.764 157.98 250.43C157.925 251.114 158.038 251.8 158.31 252.43C158.564 253.059 159.024 253.583 159.614 253.917C160.204 254.251 160.89 254.376 161.56 254.27C161.964 254.174 162.342 253.993 162.67 253.74L162.99 253.84C163.053 254.433 163.239 255.007 163.537 255.524C163.835 256.04 164.238 256.489 164.72 256.84C164.94 256.996 165.179 257.123 165.43 257.22V257.35C168.33 266.71 169.77 271.02 169.52 280.81L169.84 282.63L169.14 282.75C159.092 284.631 148.823 285.025 138.66 283.92C131.27 283.02 124.06 281.09 116.76 279.62C96.1703 275.45 76.0603 281.56 55.8903 275.62H55.6603C55.6238 248.714 58.108 221.863 63.0803 195.42C59.1104 189.049 56.3161 182.018 54.8303 174.66L54.3203 174.38L55.1103 173.51C57.7128 170.753 60.4564 168.133 63.3303 165.66L62.8303 164.55L63.4503 163.48C63.6103 162.17 63.7603 160.85 63.9003 159.53C64.6175 154.345 64.5737 149.082 63.7703 143.91C63.7703 143.73 63.7003 143.54 63.6603 143.36C62.3103 136.76 59.0203 130.63 57.9303 123.98L56.7803 123.41C58.187 120.53 59.6336 117.673 61.1203 114.84C61.7615 113.773 62.2211 112.607 62.4803 111.39C62.5904 110.822 62.5904 110.238 62.4803 109.67L62.9003 109.58C68.0541 108.559 73.0171 106.741 77.6103 104.19L77.9103 104.38C76.2825 107.253 74.1323 109.797 71.5703 111.88C73.9371 114.002 76.8691 115.392 80.0103 115.88V116.39C77.1973 118.158 74.248 119.7 71.1903 121C74.6703 130.58 81.5903 138.44 88.1903 146.25C100.645 161.074 112.296 176.556 123.09 192.63L125.83 191.55C128.85 199.393 132.285 207.071 136.12 214.55L136.7 214.25C136.7 214.06 136.8 213.87 136.84 213.68C145.766 178.258 145.145 141.104 135.04 106L137.21 105.57C137.786 105.07 138.491 104.743 139.244 104.624C139.997 104.506 140.769 104.601 141.47 104.9C142.859 105.523 144.149 106.345 145.3 107.34C146.829 108.483 148.459 109.484 150.17 110.33ZM131.46 227.44C131.518 226.997 131.471 226.546 131.323 226.124C131.175 225.702 130.931 225.321 130.61 225.01C130.287 224.704 129.902 224.47 129.481 224.323C129.061 224.177 128.614 224.121 128.17 224.16V225.16H128C127.564 225.204 127.151 225.381 126.818 225.667C126.486 225.953 126.249 226.335 126.14 226.76C126.109 226.901 126.092 227.045 126.09 227.19L125.09 227.14C125.036 227.792 125.204 228.444 125.567 228.988C125.931 229.533 126.467 229.939 127.09 230.14C127.721 230.318 128.39 230.317 129.02 230.137C129.651 229.957 130.219 229.605 130.66 229.12C131.088 228.652 131.367 228.067 131.46 227.44Z" fill="#E94D4F"/>
<path d="M165.661 229.42C166.257 229.597 166.878 229.678 167.501 229.66C166.301 232.77 165.091 235.89 163.671 238.9L163.331 238.74C162.831 237.42 162.331 236.1 161.821 234.74L161.391 234.67C161.607 234.52 161.811 234.353 162.001 234.17C163.428 232.844 164.515 231.194 165.171 229.36L165.661 229.42Z" fill="#E94D4F"/>
<path d="M163.37 238.74L163.71 238.9C163.1 240.22 162.43 241.53 161.71 242.8L161.46 242.66C159.932 239.735 158.159 236.945 156.16 234.32L157.16 233.55C157.451 233.94 157.806 234.278 158.21 234.55C158.792 235.02 159.522 235.268 160.27 235.25C160.698 235.187 161.103 235.018 161.45 234.76L161.88 234.83C162.37 236.12 162.87 237.42 163.37 238.74Z" fill="#E94D4F"/>
<path d="M126.13 227.21C126.132 227.065 126.148 226.921 126.18 226.78C126.288 226.355 126.525 225.973 126.858 225.687C127.19 225.401 127.603 225.224 128.04 225.18H128.21V224.18C128.653 224.141 129.1 224.197 129.521 224.343C129.942 224.49 130.326 224.724 130.65 225.03C130.971 225.341 131.215 225.722 131.363 226.144C131.51 226.566 131.557 227.017 131.5 227.46C131.391 228.085 131.099 228.662 130.66 229.12C130.226 229.614 129.663 229.976 129.034 230.167C128.405 230.358 127.735 230.369 127.1 230.2C126.477 229.999 125.94 229.593 125.577 229.049C125.214 228.504 125.046 227.852 125.1 227.2L126.13 227.21Z" fill="#E94D4F"/>
<path d="M125.81 191.56L123.07 192.64C112.275 176.566 100.625 161.084 88.1699 146.26C81.6099 138.45 74.6899 130.59 71.1699 121.01C74.2276 119.71 77.1769 118.168 79.9899 116.4C81.2524 115.579 82.4402 114.649 83.5399 113.62C84.9899 112.25 86.2499 110.69 87.7499 109.38C89.1974 107.987 91.0566 107.099 93.0499 106.85L94.3299 106.38L119.33 174.48C121.48 180.19 123.58 185.9 125.81 191.56Z" fill="#E94D4F"/>
<path d="M125.511 104.24L125.091 104.91L124.581 106.1C124.831 106.428 125.015 106.801 125.121 107.2C125.196 107.593 125.196 107.997 125.121 108.39C124.805 110.36 124.152 112.262 123.191 114.01C123.191 114.01 123.191 114.06 123.191 114.09L121.611 113.09C121.091 112.883 120.527 112.808 119.971 112.87C119.005 112.952 118.11 113.412 117.481 114.15C117.217 114.522 116.933 114.879 116.631 115.22C116.42 115.426 116.157 115.571 115.871 115.64C115.711 115.685 115.541 115.685 115.381 115.64C114.911 115.47 114.681 114.95 114.381 114.56C113.381 113.34 111.451 113.28 110.381 112.1C109.973 111.628 109.734 111.033 109.701 110.41C109.667 109.432 109.873 108.46 110.301 107.58C110.971 106.13 111.961 104.77 112.141 103.18L112.061 103.01C113.273 102.46 114.56 102.096 115.881 101.93L116.241 101.88C117.294 101.439 118.435 101.25 119.574 101.328C120.713 101.406 121.818 101.749 122.801 102.33C123.776 102.858 124.686 103.499 125.511 104.24Z" fill="#E94D4F"/>
<path d="M132.97 132.76C131.383 139.697 128.403 146.24 124.21 151.99L123.58 151.81C119.58 146.66 115.67 141.4 111.98 135.99L112.08 135.92C112.994 132.82 113.75 129.683 114.35 126.51L116.9 127.02C119.452 123.316 120.549 118.802 119.98 114.34L119.9 112.84C120.457 112.778 121.02 112.853 121.54 113.06L123.12 114.06C123.12 114.06 123.12 114.01 123.12 113.98L123.35 114.1C127.248 119.939 130.475 126.199 132.97 132.76Z" fill="#E94D4F"/>
<path d="M119.982 114.34C120.55 118.801 119.453 123.316 116.902 127.02L114.352 126.51C115.029 122.984 115.523 119.426 115.832 115.85V115.61C116.118 115.541 116.381 115.396 116.592 115.19C116.894 114.848 117.177 114.491 117.442 114.12C118.07 113.382 118.965 112.922 119.932 112.84L119.982 114.34Z" fill="#E94D4F"/>
<path d="M112.01 102.95L112.09 103.12C111.91 104.71 110.92 106.07 110.25 107.52C109.823 108.4 109.617 109.372 109.65 110.35H109.34C108.081 110.01 106.918 109.384 105.94 108.52L105.73 108.37L106.11 107.83C107.618 105.717 109.652 104.035 112.01 102.95Z" fill="#E94D4F"/>
<path d="M92.1498 100.33L94.3698 106.38L93.0898 106.85C91.0965 107.099 89.2373 107.987 87.7898 109.38C86.2898 110.69 85.0298 112.25 83.5798 113.62C82.4802 114.649 81.2923 115.579 80.0298 116.4V115.89C76.8886 115.402 73.9567 114.012 71.5898 111.89C74.1518 109.807 76.3021 107.263 77.9298 104.39L78.0998 104.11C79.8698 101.21 81.4298 98.1699 83.4498 95.4299C85.3768 92.8212 87.69 90.5215 90.3098 88.6099L90.6498 88.6699C90.5052 89.3904 90.4448 90.1254 90.4698 90.8599C90.6065 92.6916 90.9969 94.4955 91.6298 96.2199C92.0498 97.4999 92.4798 98.7599 92.9398 100.02L92.1498 100.33Z" fill="#E94D4F"/>
<path d="M53.901 139.79L51.241 141.05L49.041 140.05C50.701 136.283 52.421 132.54 54.201 128.82L54.661 129.12C54.901 137.06 57.541 140.99 60.661 144.5C60.7396 144.625 60.8449 144.731 60.9694 144.811C61.0939 144.89 61.2345 144.941 61.381 144.96C61.4799 144.948 61.5753 144.916 61.6617 144.866C61.7481 144.817 61.8238 144.75 61.8843 144.671C61.9448 144.592 61.9889 144.502 62.0141 144.405C62.0393 144.309 62.0451 144.208 62.031 144.11C62.022 144.007 61.9984 143.906 61.961 143.81L63.701 143.45C63.701 143.63 63.781 143.82 63.811 144C64.6144 149.172 64.6582 154.435 63.941 159.62L63.261 159.55C60.141 152.936 57.021 146.35 53.901 139.79Z" fill="#E94D4F"/>
<path d="M63.2604 159.5L63.9404 159.57C63.8004 160.89 63.6504 162.21 63.4904 163.52L62.8704 164.59C59.1304 165.21 55.3704 165.693 51.5904 166.04H48.8804C48.8015 157.647 49.5924 149.269 51.2404 141.04L53.9004 139.78C57.0204 146.36 60.1404 152.933 63.2604 159.5Z" fill="#E94D4F"/>
<path d="M63.6612 143.4L61.9212 143.76C61.8082 143.478 61.6531 143.215 61.4612 142.98C58.4034 138.792 56.102 134.101 54.6612 129.12L54.2012 128.9C55.0512 127.09 55.9312 125.29 56.8212 123.5L57.9712 124.07C59.0612 130.67 62.3512 136.8 63.6612 143.4Z" fill="#E94D4F"/>
<path d="M43.7816 183.18C43.4016 184.23 43.1716 185.34 42.7116 186.36C42.4753 187.01 42.0748 187.587 41.549 188.036C41.0232 188.484 40.3902 188.789 39.7116 188.92L39.5516 188.86C39.6216 188.69 39.6916 188.51 39.7516 188.33L37.6016 187.43C39.5774 182.48 40.0538 177.059 38.9716 171.84L37.7516 171.61C37.8116 171.27 37.8716 170.94 37.9416 170.61C38.2416 169.11 38.5916 167.61 38.9916 166.15L39.5016 166.28C39.7516 166.69 39.9916 167.09 40.2116 167.49C41.4129 169.946 41.9998 172.657 41.9216 175.39C41.7863 178.58 41.3341 181.749 40.5716 184.85C43.1916 181.85 44.1216 177.59 42.3616 172.25L44.2016 171.92C43.2427 167.043 43.1276 162.037 43.8616 157.12L42.2216 156.5C42.9016 154.67 43.6316 152.86 44.3716 151.05C45.8982 147.357 47.4549 143.713 49.0416 140.12L51.2416 141.12C49.5935 149.35 48.8027 157.728 48.8816 166.12H51.5916C55.3716 165.773 59.1316 165.29 62.8716 164.67L63.3716 165.78C60.4977 168.253 57.754 170.873 55.1516 173.63L54.3616 174.5C53.5993 175.392 52.763 176.219 51.8616 176.97C50.6747 177.973 49.2087 178.587 47.6616 178.73C47.529 179.739 47.1264 180.694 46.4963 181.493C45.8661 182.292 45.0318 182.906 44.0816 183.27L43.7816 183.18Z" fill="#E94D4F"/>
<path d="M62.0302 144.06C62.0442 144.158 62.0385 144.259 62.0133 144.355C61.9881 144.452 61.9439 144.542 61.8834 144.621C61.8229 144.7 61.7472 144.767 61.6608 144.816C61.5744 144.866 61.479 144.898 61.3802 144.91C61.2336 144.891 61.093 144.84 60.9686 144.761C60.8441 144.681 60.7387 144.575 60.6602 144.45C57.5402 140.94 54.9002 137.01 54.6602 129.07C56.1079 134.071 58.4231 138.78 61.5002 142.98C61.6921 143.215 61.8472 143.478 61.9602 143.76C61.9976 143.856 62.0211 143.957 62.0302 144.06Z" fill="#E94D4F"/>
<path d="M44.2198 171.91L42.3798 172.24C41.8247 170.585 41.1044 168.99 40.2298 167.48C40.0185 167.062 39.7814 166.658 39.5198 166.27L39.0098 166.14C39.911 162.86 40.9825 159.629 42.2198 156.46L43.8598 157.08C43.129 162.007 43.2508 167.024 44.2198 171.91Z" fill="#E94D4F"/>
<path d="M42.3805 172.24C44.1405 177.58 43.2105 181.87 40.5905 184.84C41.353 181.739 41.8052 178.57 41.9405 175.38C42.0187 172.647 41.4318 169.936 40.2305 167.48C41.1051 168.99 41.8254 170.585 42.3805 172.24Z" fill="#E94D4F"/>
<path d="M32.1408 126.91C32.2499 127.332 32.2183 127.778 32.0508 128.18C31.8605 128.612 31.5358 128.971 31.1249 129.203C30.7141 129.436 30.2391 129.529 29.7708 129.47C29.3037 129.393 28.8748 129.165 28.5508 128.82L29.5508 128.55C29.4035 128.4 29.2927 128.219 29.2268 128.019C29.1609 127.82 29.1417 127.608 29.1708 127.4C29.2031 127.191 29.2919 126.995 29.4276 126.833C29.5633 126.67 29.7408 126.548 29.9408 126.48C30.1426 126.415 30.3598 126.416 30.5611 126.482C30.7625 126.549 30.9374 126.677 31.0608 126.85L32.1408 126.91Z" fill="#E94D4F"/>
<path d="M89.291 72.0498C89.371 72.2598 89.451 72.4698 89.511 72.6798C89.9211 74.2019 90.2351 75.7483 90.451 77.3098C90.6638 79.0966 91.3547 80.7929 92.451 82.2198C93.9657 83.6818 95.9126 84.6149 98.001 84.8798C102.521 85.7398 107.161 85.3798 111.741 85.0198C113.306 84.9951 114.85 84.655 116.281 84.0198C117.799 83.1579 118.94 81.7598 119.481 80.0998C119.836 79.0997 120.035 78.0506 120.071 76.9898" stroke="#1D1D1B" stroke-linecap="round" stroke-linejoin="round"/>
<path d="M92.021 85.7402C91.3071 86.6051 90.8253 87.6375 90.621 88.7402C90.4764 89.4608 90.416 90.1957 90.441 90.9302C90.5777 92.762 90.9681 94.5659 91.601 96.2903C92.021 97.5703 92.451 98.8302 92.911 100.09C95.1976 106.332 97.9314 112.401 101.091 118.25C104.404 124.365 108.039 130.3 111.981 136.03C115.671 141.44 119.581 146.7 123.581 151.85" stroke="#1D1D1B" stroke-linecap="round" stroke-linejoin="round"/>
<path d="M125.161 81.1699C125.531 81.9099 125.901 82.6599 126.251 83.3999C127.561 86.1699 128.751 88.9999 129.791 91.8799C132.313 98.7126 133.885 105.859 134.461 113.12C134.571 114.38 134.631 115.64 134.651 116.91C134.764 122.233 134.199 127.549 132.971 132.73C131.384 139.667 128.403 146.21 124.211 151.96" stroke="#1D1D1B" stroke-linecap="round" stroke-linejoin="round"/>
<path d="M92.4102 89.4298L94.5302 90.9898L100.3 95.2498C102.537 97.1077 105.078 98.5658 107.81 99.5598C110.44 100.36 113.33 100.3 115.81 101.48C119.645 97.8009 122.649 93.3446 124.62 88.4099C124.96 87.5699 125.27 86.7098 125.54 85.8398" stroke="#1D1D1B" stroke-linecap="round" stroke-linejoin="round"/>
<path d="M125.801 72.73C125.355 75.5166 125.021 78.3233 124.801 81.15C124.615 83.5633 124.521 85.9767 124.521 88.39" stroke="#1D1D1B" stroke-linecap="round" stroke-linejoin="round"/>
<path d="M101.291 118.12C102.365 114.716 103.857 111.458 105.731 108.42L106.111 107.88C107.615 105.756 109.649 104.063 112.011 102.97C113.223 102.42 114.511 102.056 115.831 101.89L116.191 101.84C117.244 101.399 118.385 101.21 119.524 101.288C120.663 101.366 121.768 101.709 122.751 102.29C123.748 102.843 124.675 103.515 125.511 104.29C126.361 105.05 127.161 105.87 127.951 106.7L134.221 113.22" stroke="#1D1D1B" stroke-linecap="round" stroke-linejoin="round"/>
<path d="M105.941 108.55C106.919 109.414 108.082 110.04 109.341 110.38" stroke="#1D1D1B" stroke-linecap="round" stroke-linejoin="round"/>
<path d="M112.09 103.12C111.91 104.71 110.92 106.07 110.25 107.52C109.822 108.4 109.616 109.372 109.65 110.35C109.683 110.973 109.922 111.568 110.33 112.04C111.33 113.22 113.33 113.28 114.33 114.5C114.65 114.89 114.88 115.41 115.33 115.58C115.49 115.625 115.66 115.625 115.82 115.58C116.107 115.511 116.369 115.366 116.58 115.16C116.882 114.819 117.166 114.462 117.43 114.09C118.059 113.352 118.954 112.892 119.92 112.81C120.476 112.748 121.04 112.823 121.56 113.03" stroke="#1D1D1B" stroke-linecap="round" stroke-linejoin="round"/>
<path d="M123.121 114.12C123.121 114.12 123.121 114.07 123.121 114.04C124.083 112.291 124.736 110.39 125.051 108.42C125.126 108.027 125.126 107.623 125.051 107.23C124.945 106.831 124.762 106.458 124.511 106.13L125.021 104.94" stroke="#1D1D1B" stroke-linecap="round" stroke-linejoin="round"/>
<path d="M119.92 102.12L123.52 105.2" stroke="#1D1D1B" stroke-linecap="round" stroke-linejoin="round"/>
<path d="M119.98 114.34C120.549 118.801 119.452 123.316 116.9 127.02" stroke="#1D1D1B" stroke-linecap="round" stroke-linejoin="round"/>
<path d="M115.83 115.85C115.521 119.427 115.027 122.985 114.35 126.51C113.75 129.677 112.993 132.813 112.08 135.92" stroke="#1D1D1B" stroke-linecap="round" stroke-linejoin="round"/>
<path d="M123.391 114.12C127.272 119.952 130.485 126.201 132.971 132.75C133.021 132.87 133.071 132.98 133.111 133.1" stroke="#1D1D1B" stroke-linecap="round" stroke-linejoin="round"/>
<path d="M123.661 154.31C122.831 160.77 124.241 167.31 125.661 173.63C128.661 187.12 131.661 200.63 136.471 213.63" stroke="#1D1D1B" stroke-linecap="round" stroke-linejoin="round"/>
<path d="M62.8906 109.62C68.0444 108.599 73.0074 106.781 77.6006 104.23" stroke="#1D1D1B" stroke-linecap="round" stroke-linejoin="round"/>
<path d="M90.2805 88.6401C87.6607 90.5518 85.3475 92.8515 83.4205 95.4601C81.4205 98.2001 79.8405 101.24 78.0705 104.14L77.9005 104.42C76.2728 107.293 74.1225 109.837 71.5605 111.92C73.9274 114.042 76.8593 115.432 80.0005 115.92" stroke="#1D1D1B" stroke-linecap="round" stroke-linejoin="round"/>
<path d="M93.0909 106.85C91.0976 107.1 89.2384 107.987 87.7909 109.38C86.2909 110.69 85.0309 112.25 83.5809 113.62C82.4813 114.649 81.2934 115.579 80.0309 116.4C77.2179 118.168 74.2686 119.71 71.2109 121.01C74.6909 130.59 81.6109 138.45 88.2109 146.26C100.666 161.084 112.316 176.567 123.111 192.64" stroke="#1D1D1B" stroke-linecap="round" stroke-linejoin="round"/>
<path d="M90.9707 97.1201C91.3607 98.1901 91.7507 99.2501 92.1507 100.32L94.3707 106.37L119.371 174.47C121.461 180.18 123.561 185.89 125.791 191.55C128.811 199.394 132.246 207.071 136.081 214.55C137.651 217.55 139.311 220.55 141.081 223.44C148.431 243.27 150.891 255.44 152.391 276.57" stroke="#1D1D1B" stroke-linecap="round" stroke-linejoin="round"/>
<path d="M129.891 90.6099C130.031 90.9699 130.161 91.3299 130.291 91.6899C132.051 96.4099 133.627 101.187 135.021 106.02C145.125 141.124 145.746 178.278 136.821 213.7C136.821 213.89 136.731 214.08 136.681 214.27" stroke="#1D1D1B" stroke-linecap="round" stroke-linejoin="round"/>
<path d="M137.191 105.59C137.767 105.09 138.472 104.763 139.225 104.644C139.979 104.526 140.75 104.621 141.451 104.92C142.84 105.542 144.13 106.364 145.281 107.36C146.816 108.508 148.453 109.512 150.171 110.36C153.694 112.091 157.484 113.213 161.381 113.68C161.019 142.58 155.084 171.138 143.901 197.79" stroke="#1D1D1B" stroke-linecap="round" stroke-linejoin="round"/>
<path d="M126.66 83.2202C129.612 84.1175 132.286 85.7523 134.43 87.9702C136.64 90.1002 138.55 92.5202 140.66 94.7502C141.64 95.7835 142.663 96.7835 143.73 97.7502C147.472 101.064 151.68 103.81 156.22 105.9L150.22 110.33" stroke="#1D1D1B" stroke-linecap="round" stroke-linejoin="round"/>
<path d="M54.8711 174.7C56.3569 182.058 59.1512 189.09 63.1211 195.46C58.1354 221.902 55.6378 248.753 55.6611 275.66V275.93" stroke="#1D1D1B" stroke-linecap="round" stroke-linejoin="round"/>
<path d="M149.221 210.73C150.841 219.752 152.991 228.671 155.661 237.44" stroke="#1D1D1B" stroke-linecap="round" stroke-linejoin="round"/>
<path d="M154.24 231.93C154.9 232.71 155.54 233.51 156.16 234.32C158.159 236.946 159.932 239.736 161.46 242.66" stroke="#1D1D1B" stroke-linecap="round" stroke-linejoin="round"/>
<path d="M161.421 200.39C163.811 208.018 163.621 216.221 160.881 223.73" stroke="#1D1D1B" stroke-linecap="round" stroke-linejoin="round"/>
<path d="M171.881 109.36C176.131 122.94 175.331 137.57 173.381 151.67C172.791 155.99 172.091 160.3 171.381 164.67C169.831 174.43 168.381 184.19 168.261 194.06C168.181 203.26 169.261 212.69 166.701 221.51" stroke="#1D1D1B" stroke-linecap="round" stroke-linejoin="round"/>
<path d="M143.801 97.6099C149.529 99.7219 155.431 101.325 161.441 102.4C163.036 102.622 164.613 102.956 166.161 103.4C167.192 103.719 168.17 104.191 169.061 104.8C169.5 105.087 169.906 105.423 170.271 105.8" stroke="#1D1D1B" stroke-linecap="round" stroke-linejoin="round"/>
<path d="M179.901 128.67L178.521 123.47C177.581 119.903 176.628 116.343 175.661 112.79C175.3 111.199 174.757 109.655 174.041 108.19C173.931 107.99 173.811 107.79 173.691 107.59C173.219 106.784 172.571 106.095 171.795 105.576C171.019 105.056 170.136 104.719 169.211 104.59" stroke="#1D1D1B" stroke-linecap="round" stroke-linejoin="round"/>
<path d="M178.51 123.46C180.927 125.251 182.56 127.905 183.07 130.87C184.728 131.408 186.144 132.512 187.07 133.99C188.225 135.637 188.916 137.564 189.07 139.57" stroke="#1D1D1B" stroke-linecap="round" stroke-linejoin="round"/>
<path d="M177.93 134.91C181.161 136.909 184.659 138.441 188.32 139.46L189.06 139.67C189.94 139.859 190.746 140.301 191.38 140.94C192.15 141.84 192.28 143.12 192.95 144.09C193.95 145.49 195.74 145.93 197.25 146.72C201.72 149.05 203.43 154.57 207.16 157.96C209.06 159.69 211.65 161.09 212.51 163.67C213.633 164.736 214.53 166.018 215.145 167.439C215.76 168.86 216.082 170.391 216.09 171.94C216.092 175.036 215.641 178.115 214.75 181.08C212.382 190.356 209.552 199.507 206.27 208.5C205.89 209.5 205.5 210.56 205.12 211.58C204.8 212.43 204.47 213.27 204.12 214.12C203.7 215.2 203.27 216.27 202.84 217.34C202.41 218.41 202.06 219.25 201.67 220.2C201.28 221.15 200.83 222.2 200.4 223.2C199.69 224.86 198.95 226.52 198.2 228.2L198.13 228.29C197.379 229.232 196.314 229.871 195.13 230.09C193.673 230.128 192.243 229.697 191.05 228.86" stroke="#1D1D1B" stroke-linecap="round" stroke-linejoin="round"/>
<path d="M200.721 223.3C201.041 223.245 201.342 223.11 201.595 222.907C201.849 222.704 202.047 222.44 202.171 222.14C202.281 221.834 202.315 221.505 202.27 221.183C202.225 220.86 202.101 220.554 201.911 220.29" stroke="#1D1D1B" stroke-linecap="round" stroke-linejoin="round"/>
<path d="M203.25 217.5C203.595 217.426 203.915 217.263 204.177 217.026C204.439 216.789 204.633 216.486 204.74 216.15C204.855 215.809 204.876 215.443 204.8 215.091C204.724 214.739 204.555 214.414 204.31 214.15" stroke="#1D1D1B" stroke-linecap="round" stroke-linejoin="round"/>
<path d="M205.43 211.7C205.747 211.613 206.039 211.449 206.278 211.222C206.517 210.995 206.696 210.713 206.8 210.4C206.892 210.086 206.905 209.754 206.839 209.433C206.773 209.112 206.629 208.812 206.42 208.56" stroke="#1D1D1B" stroke-linecap="round" stroke-linejoin="round"/>
<path d="M173.531 211.8C174.271 211.8 175.021 211.87 175.791 211.96C180.425 212.404 184.884 213.958 188.791 216.49C189.799 217.19 190.755 217.962 191.651 218.8C192.061 219.17 192.451 219.56 192.831 219.96C193.591 220.75 194.3 221.588 194.951 222.47C196.269 224.246 197.357 226.181 198.191 228.23" stroke="#1D1D1B" stroke-linecap="round" stroke-linejoin="round"/>
<path d="M174.54 213.47C174.197 213.364 173.906 213.134 173.721 212.826C173.537 212.518 173.472 212.153 173.54 211.8C173.707 211.09 174.051 210.433 174.54 209.89C178.391 204.542 181.35 198.605 183.3 192.31C182.956 191.25 182.926 190.113 183.213 189.036C183.501 187.959 184.093 186.988 184.92 186.24" stroke="#1D1D1B" stroke-linecap="round" stroke-linejoin="round"/>
<path d="M171.271 164.43C171.311 164.496 171.355 164.559 171.401 164.62C173.571 167.888 176.723 170.381 180.401 171.74C182.092 172.376 183.869 172.753 185.671 172.86" stroke="#1D1D1B" stroke-linecap="round" stroke-linejoin="round"/>
<path d="M180.211 172.12C182.015 174.997 184.847 177.078 188.131 177.94" stroke="#1D1D1B" stroke-linecap="round" stroke-linejoin="round"/>
<path d="M184.91 177.18C184.298 177.752 183.81 178.443 183.476 179.211C183.143 179.979 182.971 180.808 182.971 181.645C182.971 182.483 183.143 183.311 183.476 184.079C183.81 184.847 184.298 185.539 184.91 186.11" stroke="#1D1D1B" stroke-linecap="round" stroke-linejoin="round"/>
<path d="M186.881 185.47C188.983 187.601 191.584 189.175 194.447 190.048C197.311 190.921 200.347 191.066 203.281 190.47" stroke="#1D1D1B" stroke-linecap="round" stroke-linejoin="round"/>
<path d="M186.75 178.12C187.435 179.233 188.361 180.178 189.46 180.886C190.559 181.594 191.803 182.046 193.1 182.21C195.709 182.512 198.349 182.05 200.7 180.88C203.031 179.705 205.202 178.236 207.16 176.51" stroke="#1D1D1B" stroke-linecap="round" stroke-linejoin="round"/>
<path d="M191.32 178.12C194.66 178.92 198.17 178.33 201.49 177.46C204.81 176.59 208.09 175.46 211.49 175.1" stroke="#1D1D1B" stroke-linecap="round" stroke-linejoin="round"/>
<path d="M174.75 165.53C179.789 168.182 185.227 169.993 190.85 170.89C196.471 171.786 202.159 172.185 207.85 172.08" stroke="#1D1D1B" stroke-linecap="round" stroke-linejoin="round"/>
<path d="M177.971 162.91C187.201 165.76 196.591 168.64 206.251 168.69C206.761 168.69 207.441 168.52 207.441 168.01C207.441 167.5 207.061 167.42 206.731 167.28C205.588 166.847 204.41 166.513 203.211 166.28C195.021 164.4 186.721 162.52 177.971 162.91Z" stroke="#1D1D1B" stroke-linecap="round" stroke-linejoin="round"/>
<path d="M175.73 156.06C186.779 156.113 197.664 158.728 207.53 163.7" stroke="#1D1D1B" stroke-linecap="round" stroke-linejoin="round"/>
<path d="M174.021 148.49L190.911 151.43" stroke="#1D1D1B" stroke-linecap="round" stroke-linejoin="round"/>
<path d="M174.66 141.86C180.097 144.292 185.804 146.071 191.66 147.16" stroke="#1D1D1B" stroke-linecap="round" stroke-linejoin="round"/>
<path d="M175.77 212.12L174.89 213.65C173.964 215.226 173.139 216.859 172.42 218.54L173.2 218.63C178.252 219.311 183.014 221.389 186.95 224.63C188.357 225.742 189.53 227.122 190.4 228.69C190.522 228.907 190.632 229.131 190.73 229.36L191.07 228.77C192.27 226.77 193.45 224.67 194.65 222.62" stroke="#1D1D1B" stroke-linecap="round" stroke-linejoin="round"/>
<path d="M32.6005 97.1201C20.3381 118.039 11.1219 140.599 5.23047 164.12C4.50047 166.99 3.84047 169.88 3.23047 172.77" stroke="#1D1D1B" stroke-linecap="round" stroke-linejoin="round"/>
<path d="M5.44016 163.97L5.23016 164.09C3.46048 165.269 2.18901 167.06 1.66016 169.12C1.11634 171.238 0.821022 173.413 0.780158 175.6C0.492242 178.096 0.452045 180.615 0.660157 183.12C1.18018 186.471 2.68544 189.592 4.9844 192.085C7.28336 194.578 10.2721 196.33 13.5702 197.12C16.8356 197.67 20.1683 197.69 23.4402 197.18C26.7206 196.991 29.9521 196.296 33.0202 195.12C35.9225 193.956 38.2672 191.722 39.5702 188.88C39.6402 188.71 39.7102 188.53 39.7702 188.35" stroke="#1D1D1B" stroke-linecap="round" stroke-linejoin="round"/>
<path d="M39.7305 188.92C40.4091 188.789 41.0421 188.484 41.5679 188.036C42.0937 187.587 42.4942 187.01 42.7305 186.36C43.1905 185.36 43.4205 184.23 43.8005 183.18C43.8905 182.94 43.9805 182.71 44.0805 182.48C44.4705 181.61 45.0205 180.81 45.3705 179.91C45.5764 179.476 45.6891 179.003 45.7011 178.523C45.7132 178.042 45.6244 177.564 45.4405 177.12" stroke="#1D1D1B" stroke-linecap="round" stroke-linejoin="round"/>
<path d="M44.041 183.27C44.9988 182.912 45.8413 182.3 46.4789 181.501C47.1164 180.701 47.525 179.744 47.661 178.73C49.2313 178.573 50.7133 177.929 51.901 176.89C52.8024 176.139 53.6388 175.312 54.401 174.42L55.191 173.55C57.7935 170.793 60.5372 168.173 63.411 165.7C63.9326 167.947 64.7321 170.121 65.791 172.17" stroke="#1D1D1B" stroke-linecap="round" stroke-linejoin="round"/>
<path d="M51.5898 166.04C55.3698 165.693 59.1298 165.21 62.8698 164.59" stroke="#1D1D1B" stroke-linecap="round" stroke-linejoin="round"/>
<path d="M61.5106 108C62.0154 108.451 62.3653 109.049 62.5106 109.71C62.6207 110.278 62.6207 110.862 62.5106 111.43C62.2514 112.647 61.7918 113.813 61.1506 114.88C59.6706 117.72 58.224 120.577 56.8106 123.45C55.9206 125.24 55.0406 127.04 54.1906 128.85C52.4106 132.57 50.6906 136.313 49.0306 140.08C47.424 143.7 45.8673 147.343 44.3606 151.01C43.6206 152.82 42.8906 154.63 42.2106 156.46C40.9774 159.622 39.9093 162.847 39.0106 166.12C38.6106 167.59 38.2606 169.12 37.9606 170.58C37.8906 170.92 37.8306 171.25 37.7706 171.58C37.2613 175.09 36.5569 178.569 35.6606 182C34.5406 185.71 32.5806 189.34 29.3906 191.54" stroke="#1D1D1B" stroke-linecap="round" stroke-linejoin="round"/>
<path d="M37.2012 188.44C37.3512 188.11 37.4912 187.77 37.6212 187.44C39.597 182.49 40.0734 177.069 38.9912 171.85" stroke="#1D1D1B" stroke-linecap="round" stroke-linejoin="round"/>
<path d="M40.2315 167.48C40.0202 167.062 39.7831 166.658 39.5215 166.27C39.7715 166.68 40.0115 167.12 40.2315 167.48ZM40.2315 167.48C41.4329 169.936 42.0197 172.647 41.9415 175.38C41.8062 178.57 41.354 181.739 40.5915 184.84C43.2115 181.84 44.1415 177.58 42.3815 172.24C41.8264 170.585 41.1061 168.99 40.2315 167.48Z" stroke="#1D1D1B" stroke-linecap="round" stroke-linejoin="round"/>
<path d="M43.8608 157.12C43.1301 162.048 43.2518 167.064 44.2208 171.95" stroke="#1D1D1B" stroke-linecap="round" stroke-linejoin="round"/>
<path d="M51.2404 141.05C49.5924 149.279 48.8015 157.657 48.8804 166.05C48.8804 167.45 48.8804 168.85 48.9804 170.25" stroke="#1D1D1B" stroke-linecap="round" stroke-linejoin="round"/>
<path d="M53.7207 139.42L53.9007 139.79C57.0207 146.363 60.1407 152.933 63.2607 159.5" stroke="#1D1D1B" stroke-linecap="round" stroke-linejoin="round"/>
<path d="M54.3711 153.92C56.6681 156.819 59.2884 159.446 62.1811 161.75" stroke="#1D1D1B" stroke-linecap="round" stroke-linejoin="round"/>
<path d="M57.9707 124.02C59.0607 130.67 62.3507 136.8 63.7007 143.4C63.7007 143.58 63.7807 143.77 63.8107 143.95C64.6141 149.123 64.6579 154.385 63.9407 159.57C63.8007 160.89 63.6507 162.21 63.4907 163.52" stroke="#1D1D1B" stroke-linecap="round" stroke-linejoin="round"/>
<path d="M54.6602 129.12C56.1079 134.122 58.4231 138.83 61.5002 143.03C61.6921 143.265 61.8472 143.528 61.9602 143.81C61.9976 143.906 62.0211 144.007 62.0302 144.11C62.0442 144.209 62.0385 144.309 62.0133 144.406C61.9881 144.502 61.9439 144.592 61.8834 144.671C61.8229 144.751 61.7472 144.817 61.6608 144.866C61.5744 144.916 61.479 144.948 61.3802 144.96C61.2336 144.941 61.093 144.89 60.9686 144.811C60.8441 144.731 60.7387 144.625 60.6602 144.5C57.5402 140.94 54.9002 137.01 54.6602 129.12Z" stroke="#1D1D1B" stroke-linecap="round" stroke-linejoin="round"/>
<path d="M32.9512 97.1201L33.4912 97.6701C36.7212 100.84 40.8012 103.03 44.8012 105.17C47.237 106.551 49.7743 107.744 52.3912 108.74C54.0896 109.352 55.8618 109.735 57.6612 109.88C58.5592 109.965 59.4632 109.965 60.3612 109.88H60.6412" stroke="#1D1D1B" stroke-linecap="round" stroke-linejoin="round"/>
<path d="M33.541 97.6001C34.951 93.7101 36.361 89.8201 37.821 85.8501C38.641 86.0301 39.461 86.2301 40.271 86.4501C44.4666 87.6816 48.5271 89.3333 52.391 91.3801C54.551 92.4801 56.751 93.7101 58.111 95.7001C59.1214 97.2499 59.6599 99.06 59.661 100.91C59.6878 101.524 59.6644 102.14 59.591 102.75C59.591 102.87 59.591 102.99 59.541 103.11C59.1576 105.411 58.5273 107.664 57.661 109.83" stroke="#1D1D1B" stroke-linecap="round" stroke-linejoin="round"/>
<path d="M61.8598 95.1201C62.3582 95.3803 62.7838 95.7608 63.0982 96.227C63.4125 96.6932 63.6055 97.2305 63.6598 97.7901C63.6696 97.9466 63.6696 98.1036 63.6598 98.2601C63.6304 99.5355 63.373 100.795 62.8998 101.98L60.8998 107.83L60.2598 109.73" stroke="#1D1D1B" stroke-linecap="round" stroke-linejoin="round"/>
<path d="M59.9297 103.17C60.2408 102.108 60.8395 101.153 61.6597 100.41C62.4964 99.6807 63.1768 98.7894 63.6597 97.79" stroke="#1D1D1B" stroke-linecap="round" stroke-linejoin="round"/>
<path d="M40.3911 86.0202C41.3911 84.0802 42.3311 82.1302 43.3911 80.1902C43.2895 79.3329 43.1121 78.4862 42.8611 77.6602C42.3711 75.8902 41.9811 74.1002 41.6011 72.3102C40.6745 68.0102 39.7478 63.7135 38.8211 59.4202C38.3882 58.0029 38.3262 56.4982 38.6411 55.0502C39.1498 53.8174 39.9092 52.7038 40.8711 51.7802C42.8122 49.564 44.5211 47.1547 45.9711 44.5902C46.6621 43.1795 47.4893 41.8398 48.4411 40.5902C49.5274 39.2677 51.0748 38.4064 52.7711 38.1802L53.8711 38.5102C56.6195 39.3519 59.2949 40.4154 61.8711 41.6902C62.8452 42.1561 63.6494 42.9148 64.1711 43.8602L64.4211 44.2402C64.8554 45.0532 65.4156 45.7924 66.0811 46.4302C66.6611 46.9302 67.4211 47.3502 67.5811 48.1002C67.6056 48.5198 67.4917 48.9359 67.2568 49.2845C67.022 49.6332 66.6792 49.8952 66.2811 50.0302C66.0847 50.1162 65.8804 50.1832 65.6711 50.2302C64.4405 50.4733 63.1635 50.2373 62.1011 49.5702L61.7711 49.3502C60.711 48.5433 59.8063 47.5505 59.1011 46.4202C58.9611 46.2302 58.8411 46.0402 58.7111 45.8502C57.5331 46.1864 56.2916 46.2344 55.0911 45.9902C53.9691 45.7857 52.9088 45.3273 51.9911 44.6502" stroke="#1D1D1B" stroke-linecap="round" stroke-linejoin="round"/>
<path d="M55.0506 46.21C54.0323 47.7295 52.6988 49.0119 51.1406 49.97" stroke="#1D1D1B" stroke-linecap="round" stroke-linejoin="round"/>
<path d="M46.7305 50.0099C48.1882 49.871 49.658 49.9282 51.1005 50.1799C52.474 50.4113 53.8162 50.8005 55.1005 51.3399C55.6335 51.573 56.1542 51.8334 56.6605 52.1199C56.9905 52.2999 57.3105 52.4999 57.6605 52.6999C58.5402 52.7558 59.405 52.9551 60.2205 53.2899C61.9819 54.0249 63.4708 55.2901 64.4805 56.9099C64.509 58.4376 64.2512 59.9571 63.7205 61.3899" stroke="#1D1D1B" stroke-linecap="round" stroke-linejoin="round"/>
<path d="M54.8809 62.8498C57.7488 62.131 60.7091 61.8511 63.6609 62.0198C64.3109 62.0198 64.9509 62.1098 65.5909 62.1798C65.9409 62.1798 66.3009 62.2698 66.6509 62.3298" stroke="#1D1D1B" stroke-linecap="round" stroke-linejoin="round"/>
<path d="M58.6007 46.8101C58.4721 47.7257 58.1484 48.603 57.6516 49.3828C57.1547 50.1626 56.4963 50.8266 55.7207 51.33" stroke="#1D1D1B" stroke-linecap="round" stroke-linejoin="round"/>
<path d="M62.09 49.8701C61.7258 50.8342 61.2018 51.73 60.54 52.5201L60.25 52.8501" stroke="#1D1D1B" stroke-linecap="round" stroke-linejoin="round"/>
<path d="M66.0112 50.5C66.0112 50.72 65.9312 50.94 65.8812 51.16C65.5216 52.6998 64.8019 54.1323 63.7812 55.34" stroke="#1D1D1B" stroke-linecap="round" stroke-linejoin="round"/>
<path d="M55.2302 54.25C55.4478 55.3414 55.4199 56.4676 55.1483 57.5469C54.8768 58.6262 54.3684 59.6315 53.6602 60.49" stroke="#1D1D1B" stroke-linecap="round" stroke-linejoin="round"/>
<path d="M45.3516 54.3101C47.8073 56.1025 49.9668 58.2687 51.7516 60.73C52.3816 61.53 52.9916 62.3501 53.5916 63.1601L53.9016 63.58L57.9016 68.9401C59.2005 70.5833 60.3485 72.3405 61.3316 74.1901C62.1399 75.8379 62.6833 77.6029 62.9416 79.42" stroke="#1D1D1B" stroke-linecap="round" stroke-linejoin="round"/>
<path d="M62.0209 86L60.8809 89.95" stroke="#1D1D1B" stroke-linecap="round" stroke-linejoin="round"/>
<path d="M45.5703 78.96C45.8462 80.2771 46.0101 81.6152 46.0603 82.96" stroke="#1D1D1B" stroke-linecap="round" stroke-linejoin="round"/>
<path d="M73.5402 48.21C72.0672 50.6646 71.3248 53.4883 71.4002 56.35C69.3648 58.0409 67.4471 59.8684 65.6602 61.82" stroke="#1D1D1B" stroke-linecap="round" stroke-linejoin="round"/>
<path d="M53.8906 38.5197C54.004 38.3007 54.1744 38.1163 54.3839 37.9861C54.5933 37.8558 54.834 37.7846 55.0806 37.7797C55.5706 37.7732 56.0589 37.8372 56.5306 37.9698L57.1606 38.0698C58.8964 38.2184 60.6396 38.2617 62.3806 38.1997C64.3428 38.1006 66.2917 38.573 67.9906 39.5597C68.82 40.1844 69.5991 40.8732 70.3206 41.6197C71.7093 42.8598 73.2855 43.8723 74.9906 44.6197L75.2506 44.7397C75.29 45.0184 75.29 45.3011 75.2506 45.5797C75.1909 46.3706 74.8377 47.1106 74.2605 47.6545C73.6833 48.1985 72.9236 48.507 72.1306 48.5197C71.3273 48.4831 70.5434 48.2606 69.8406 47.8697C68.2235 47.1925 66.7907 46.1402 65.6606 44.7997C65.3506 44.7997 64.9306 44.1797 64.6606 44.1697" stroke="#1D1D1B" stroke-linecap="round" stroke-linejoin="round"/>
<path d="M77.9199 44.1202C78.3499 44.0602 78.7099 43.9702 79.1399 43.8702L79.6299 43.7702V43.7202C79.5468 42.1452 80.0651 40.5975 81.0799 39.3902C82.2613 37.6901 83.836 36.3007 85.6699 35.3402C86.796 34.7303 88.0437 34.3788 89.3225 34.3109C90.6013 34.2431 91.8792 34.4608 93.0635 34.9481C94.2478 35.4354 95.3087 36.1801 96.1695 37.1283C97.0302 38.0765 97.6691 39.2044 98.0399 40.4302L98.1599 40.7802C98.9133 43.1566 98.7782 45.7258 97.7799 48.0102C97.2787 49.1475 96.5577 50.1747 95.6585 51.0327C94.7593 51.8907 93.6995 52.5628 92.5399 53.0102C91.3798 53.4399 90.1416 53.6185 88.9073 53.534C87.673 53.4495 86.4707 53.104 85.3799 52.5202C83.8178 51.6249 82.5285 50.3218 81.6499 48.7502C80.7184 47.2021 80.0431 45.5137 79.6499 43.7502" stroke="#1D1D1B" stroke-linecap="round" stroke-linejoin="round"/>
<path d="M98.1504 40.4098C98.6395 39.8342 99.255 39.3795 99.9489 39.0811C100.643 38.7828 101.396 38.6489 102.15 38.6898C103.649 38.7699 105.119 39.1365 106.48 39.7698" stroke="#1D1D1B" stroke-linecap="round" stroke-linejoin="round"/>
<path d="M125.511 40.6199C125.511 40.4199 125.511 40.2199 125.431 40.0299C125.187 38.7776 124.641 37.6038 123.841 36.6099C122.579 35.1685 120.946 34.0993 119.121 33.5177C117.295 32.9361 115.345 32.8643 113.481 33.3099C113.191 33.3669 112.903 33.4403 112.621 33.5299C111.502 33.8548 110.461 34.4034 109.56 35.1426C108.659 35.8817 107.918 36.7959 107.381 37.8299C107.01 38.4582 106.718 39.13 106.511 39.8299C106.367 40.2667 106.26 40.715 106.191 41.1699C106.035 42.4742 106.243 43.7963 106.791 44.9899C107.345 46.3639 108.166 47.6138 109.209 48.6663C110.251 49.7189 111.493 50.553 112.861 51.1199C114.242 51.6766 115.741 51.8768 117.219 51.702C118.698 51.5272 120.108 50.9832 121.321 50.1199C123.023 48.7041 124.266 46.814 124.891 44.6899C125.369 43.3885 125.579 42.0044 125.511 40.6199Z" stroke="#1D1D1B" stroke-linecap="round" stroke-linejoin="round"/>
<path d="M125.811 40.6099H128.081H128.431" stroke="#1D1D1B" stroke-linecap="round" stroke-linejoin="round"/>
<path d="M128.781 40.6602C129.598 42.2976 130.562 43.8573 131.661 45.3202" stroke="#1D1D1B" stroke-linecap="round" stroke-linejoin="round"/>
<path d="M87.1715 18.8501C85.076 19.5956 83.2606 20.9676 81.9715 22.7801C80.6929 24.5935 79.7605 26.6277 79.2215 28.7801C78.2398 32.4787 78.049 36.3427 78.6615 40.1201C78.8329 41.1903 79.07 42.249 79.3715 43.2901L78.9915 43.4501L78.8815 43.5001" stroke="#1D1D1B" stroke-linecap="round" stroke-linejoin="round"/>
<path d="M79.0812 43.6498C79.0322 43.5905 78.9887 43.5269 78.9512 43.4598C78.8415 43.257 78.7831 43.0304 78.7812 42.7998" stroke="#1D1D1B" stroke-linecap="round" stroke-linejoin="round"/>
<path d="M80.3204 8.99023C78.0129 10.1823 75.9154 11.7428 74.1104 13.6102C70.627 17.1453 68.2888 21.6475 67.4004 26.5302C68.1204 24.8023 69.2052 23.2502 70.5804 21.9802C70.1383 23.1747 69.8037 24.4063 69.5804 25.6602C69.0883 28.4889 69.1528 31.3863 69.7704 34.1902C69.7821 31.822 70.3872 29.4944 71.5304 27.4202C71.0916 29.3469 71.1294 31.3515 71.6404 33.2603C72.1587 35.1604 72.8275 37.0162 73.6404 38.8102" stroke="#1D1D1B" stroke-linecap="round" stroke-linejoin="round"/>
<path d="M73.8203 13.3201C74.5845 11.339 75.8049 9.56594 77.3825 8.1447C78.9601 6.72347 80.8505 5.69409 82.9003 5.1401C84.9085 4.57509 86.9999 4.36527 89.0803 4.5201C91.2291 4.67837 93.3458 5.13267 95.3703 5.87011" stroke="#1D1D1B" stroke-linecap="round" stroke-linejoin="round"/>
<path d="M89.1113 4.12011C91.0746 3.39753 93.172 3.11263 95.2569 3.28536C97.3418 3.45809 99.3637 4.08429 101.181 5.12011" stroke="#1D1D1B" stroke-linecap="round" stroke-linejoin="round"/>
<path d="M95.9512 3.11998C98.6461 1.36415 101.829 0.50973 105.041 0.679978C105.604 0.698584 106.165 0.752023 106.721 0.839981C108.882 1.1535 110.975 1.82967 112.911 2.83998C113.311 3.03998 113.711 3.25998 114.101 3.48998C115.28 4.13744 116.328 4.9988 117.191 6.02998C118.272 7.40464 118.808 9.12939 118.698 10.8746C118.587 12.6197 117.837 14.2629 116.591 15.49" stroke="#1D1D1B" stroke-linecap="round" stroke-linejoin="round"/>
<path d="M118.391 12.7602C119.865 11.7878 121.636 11.3664 123.391 11.5701C125.615 11.6863 127.733 12.5616 129.391 14.0501C130.203 14.7959 130.833 15.7187 131.232 16.747C131.631 17.7752 131.788 18.8815 131.691 19.9801" stroke="#1D1D1B" stroke-linecap="round" stroke-linejoin="round"/>
<path d="M127 14.3301C128.678 15.6635 130.081 17.3108 131.13 19.1801L131.64 19.9801C132.82 21.7217 133.847 23.5619 134.71 25.4801C135.755 27.7617 136.133 30.2926 135.8 32.7801C135.313 31.6207 134.505 30.6249 133.47 29.9101C134.708 32.3243 135.217 35.0462 134.937 37.7447C134.656 40.4432 133.598 43.002 131.89 45.1101" stroke="#1D1D1B" stroke-linecap="round" stroke-linejoin="round"/>
<path d="M116.26 15.9702H116.42C117.189 16.2088 117.925 16.5449 118.61 16.9702C120.216 18.0094 121.563 19.4014 122.55 21.0402C123.919 23.4472 124.93 26.0412 125.55 28.7402C126.595 32.6196 127.433 36.5518 128.06 40.5202C128.069 40.5798 128.069 40.6406 128.06 40.7002C128.62 44.1302 129.06 47.5702 129.3 51.0102C130.188 49.3007 130.943 47.5254 131.56 45.7002C131.61 45.5702 131.66 45.4302 131.7 45.2902C131.728 45.2252 131.751 45.1584 131.77 45.0902" stroke="#1D1D1B" stroke-linecap="round" stroke-linejoin="round"/>
<path d="M77.7402 60.8198C77.7956 61.8216 78.0861 62.7963 78.5882 63.6649C79.0902 64.5336 79.7898 65.2718 80.6302 65.8198C80.5826 66.7164 80.8433 67.6022 81.3691 68.33C81.8949 69.0577 82.6541 69.5835 83.5202 69.8198" stroke="#1D1D1B" stroke-linecap="round" stroke-linejoin="round"/>
<path d="M80.2303 48.7002C80.2477 51.2421 80.5837 53.7718 81.2303 56.2302C80.7603 55.6902 80.2903 55.1502 79.8403 54.5902C79.3903 54.0302 78.9803 53.5302 78.5703 52.9902" stroke="#1D1D1B" stroke-linecap="round" stroke-linejoin="round"/>
<path d="M81.1797 56.0498V56.1898C81.4197 57.4398 81.6697 58.6798 81.9097 59.9298C82.5497 63.1898 83.1997 66.4498 83.8397 69.7098C83.8397 69.8898 83.9097 70.0698 83.9497 70.2498C84.3175 72.7152 85.0242 75.1179 86.0497 77.3898C86.8527 79.0113 88.0706 80.3914 89.5797 81.3898C90.1575 81.7527 90.7837 82.0322 91.4397 82.2198" stroke="#1D1D1B" stroke-linecap="round" stroke-linejoin="round"/>
<path d="M89.541 81.52C90.5181 82.8322 91.4003 84.2123 92.181 85.65C93.1234 87.3438 93.9228 89.1133 94.571 90.94" stroke="#1D1D1B" stroke-linecap="round" stroke-linejoin="round"/>
<path d="M131.871 45.85C132.334 45.2918 132.868 44.7975 133.461 44.38C133.761 44.1774 134.099 44.0375 134.455 43.9688C134.811 43.9001 135.177 43.9039 135.531 43.98C136.821 44.34 137.381 45.83 137.691 47.13C138.251 49.44 138.611 52.02 137.411 54.07C136.683 55.0641 135.895 56.0126 135.051 56.91C134.158 58.2375 133.482 59.6993 133.051 61.24C132.616 62.7894 131.974 64.2728 131.141 65.65C130.723 66.3381 130.164 66.9294 129.5 67.3846C128.836 67.8398 128.083 68.1485 127.291 68.29" stroke="#1D1D1B" stroke-linecap="round" stroke-linejoin="round"/>
<path d="M129.821 52L129.761 52.22C129.244 54.0533 128.879 55.9264 128.671 57.82C128.251 61 128.061 64.23 127.381 67.37C127.321 67.66 127.251 67.96 127.181 68.25C126.807 69.7666 126.322 71.2539 125.731 72.7C124.611 75.4292 123.113 77.9875 121.281 80.3" stroke="#1D1D1B" stroke-linecap="round" stroke-linejoin="round"/>
<path d="M57.1797 37.9501C57.349 37.6367 57.5842 37.3636 57.869 37.1495C58.1538 36.9355 58.4815 36.7856 58.8297 36.7101C59.5262 36.5618 60.2423 36.528 60.9497 36.6101C62.4097 36.6901 63.8597 36.8301 65.3097 36.9701C66.661 37.0561 68.0007 37.2738 69.3097 37.6201C70.4197 37.9401 71.4697 38.4501 72.5897 38.7601C72.9184 38.8558 73.2523 38.9325 73.5897 38.9901C75.1351 39.2213 76.6974 39.3217 78.2597 39.2901C78.3464 39.5718 78.4132 39.8591 78.4597 40.1501C78.5446 40.6633 78.5446 41.1869 78.4597 41.7001C78.3433 42.5174 77.9433 43.2678 77.3297 43.8201C77.0185 44.0857 76.648 44.2725 76.2494 44.3647C75.8508 44.457 75.4359 44.452 75.0397 44.3501" stroke="#1D1D1B" stroke-linecap="round" stroke-linejoin="round"/>
<path d="M75.6602 45.6101C76.0415 45.2495 76.5153 45.0016 77.029 44.8939C77.5426 44.7862 78.0761 44.823 78.5702 45.0001C78.9527 45.2273 79.2722 45.5468 79.4993 45.9294C79.7264 46.312 79.8539 46.7455 79.8702 47.1901C80.0702 49.1901 78.9602 51.0101 78.4902 52.9401C78.397 53.3315 78.3335 53.7293 78.3002 54.1301C78.1802 55.8201 78.7902 57.6101 78.0802 59.2201C77.7633 59.7074 77.4922 60.223 77.2702 60.7602C75.7402 64.5102 76.3902 69.1702 74.2702 72.7602C73.3902 74.2702 72.0802 75.4801 71.0802 76.9201C70.1783 78.4153 69.3701 79.9649 68.6602 81.5601C67.9487 83.2176 66.7118 84.595 65.1402 85.4801C64.0302 88.4801 62.8702 91.8501 61.7302 95.1101C61.0302 97.1101 60.3302 99.0601 59.6602 100.91" stroke="#1D1D1B" stroke-linecap="round" stroke-linejoin="round"/>
<path d="M173.17 218.92C172.468 219.394 171.913 220.056 171.57 220.83C171.461 220.717 171.328 220.63 171.181 220.574C171.034 220.519 170.877 220.497 170.72 220.51C170.405 220.545 170.098 220.629 169.81 220.76L167.33 221.69C167.33 221.69 167.38 221.76 167.33 221.77" stroke="#1D1D1B" stroke-linecap="round" stroke-linejoin="round"/>
<path d="M168.261 222.12C167.975 221.957 167.669 221.833 167.351 221.75C167.139 221.667 166.917 221.614 166.691 221.59C165.99 221.454 165.27 221.46 164.571 221.606C163.872 221.752 163.209 222.035 162.621 222.44C160.441 223.98 159.731 226.85 158.241 229.06C157.822 229.609 157.438 230.183 157.091 230.78C156.736 231.382 156.622 232.097 156.771 232.78C156.849 233.05 156.975 233.304 157.141 233.53C157.432 233.92 157.787 234.258 158.191 234.53C158.773 235 159.503 235.248 160.251 235.23C160.679 235.167 161.085 234.998 161.431 234.74C161.648 234.59 161.852 234.423 162.041 234.24C163.468 232.914 164.555 231.264 165.211 229.43C165.431 228.819 165.599 228.19 165.711 227.55" stroke="#1D1D1B" stroke-linecap="round" stroke-linejoin="round"/>
<path d="M165.66 229.42C166.257 229.597 166.878 229.678 167.5 229.66H167.66" stroke="#1D1D1B" stroke-linecap="round" stroke-linejoin="round"/>
<path d="M169.98 223.73C170.491 224.879 170.58 226.172 170.23 227.38" stroke="#1D1D1B" stroke-linecap="round" stroke-linejoin="round"/>
<path d="M167.551 229.63C166.351 232.74 165.141 235.86 163.721 238.87C163.111 240.19 162.441 241.5 161.721 242.77C161.321 243.48 160.901 244.19 160.461 244.88C159.683 245.983 159.014 247.158 158.461 248.39C158.215 249.009 158.069 249.664 158.031 250.33C157.976 251.014 158.089 251.7 158.361 252.33C158.615 252.959 159.075 253.483 159.665 253.817C160.255 254.151 160.941 254.276 161.611 254.17C162.015 254.074 162.393 253.893 162.721 253.64C163.268 253.188 163.746 252.659 164.141 252.07C168.746 245.81 172.324 238.856 174.741 231.47" stroke="#1D1D1B" stroke-linecap="round" stroke-linejoin="round"/>
<path d="M163.031 253.78C163.093 254.373 163.28 254.947 163.578 255.464C163.876 255.981 164.279 256.429 164.761 256.78C164.981 256.936 165.22 257.063 165.471 257.16C165.789 257.283 166.135 257.318 166.471 257.26C166.964 257.115 167.409 256.843 167.761 256.47C168.301 255.98 168.821 255.47 169.301 254.93C171.767 252.328 173.703 249.271 175.001 245.93C176.181 242.93 176.851 239.65 178.481 236.83" stroke="#1D1D1B" stroke-linecap="round" stroke-linejoin="round"/>
<path d="M173.76 227.83C173.64 228.77 173.52 229.71 173.41 230.65" stroke="#1D1D1B" stroke-linecap="round" stroke-linejoin="round"/>
<path d="M178.58 231.59C178.852 232.681 178.768 233.83 178.34 234.87" stroke="#1D1D1B" stroke-linecap="round" stroke-linejoin="round"/>
<path d="M183.351 236.51C183.433 237.324 183.299 238.145 182.961 238.89" stroke="#1D1D1B" stroke-linecap="round" stroke-linejoin="round"/>
<path d="M169.521 255.18C169.634 255.692 169.887 256.163 170.251 256.54C170.646 256.951 171.16 257.227 171.722 257.326C172.283 257.424 172.86 257.342 173.371 257.09C174.205 256.588 174.894 255.878 175.371 255.03C179.141 249.5 183.521 244.25 185.881 238.03C187.081 234.83 187.821 231.27 190.251 228.85" stroke="#1D1D1B" stroke-linecap="round" stroke-linejoin="round"/>
<path d="M184.84 230.43C185.239 231.901 185.45 233.416 185.47 234.94" stroke="#1D1D1B" stroke-linecap="round" stroke-linejoin="round"/>
<path d="M111.33 222.85L132.63 222.49" stroke="#1D1D1B" stroke-linecap="round" stroke-linejoin="round"/>
<path d="M132.66 228.6C125.687 235.315 117.627 240.8 108.82 244.82" stroke="#1D1D1B" stroke-linecap="round" stroke-linejoin="round"/>
<path d="M132.082 233.05C129.654 238.589 126.554 243.808 122.852 248.59" stroke="#1D1D1B" stroke-linecap="round" stroke-linejoin="round"/>
<path d="M156.951 242.46C157.7 254.637 159.061 266.77 161.031 278.81" stroke="#1D1D1B" stroke-linecap="round" stroke-linejoin="round"/>
<path d="M165.43 257.31C168.33 266.67 169.77 270.98 169.52 280.77" stroke="#1D1D1B" stroke-linecap="round" stroke-linejoin="round"/>
<path d="M170.211 256.59C171.851 259.95 173.381 263.38 174.781 266.85C175.201 267.85 175.611 268.93 176.011 269.98" stroke="#1D1D1B" stroke-linecap="round" stroke-linejoin="round"/>
<path d="M161.861 234.78C162.371 236.1 162.861 237.42 163.371 238.78" stroke="#1D1D1B" stroke-linecap="round" stroke-linejoin="round"/>
<path d="M158.15 231.87L159.89 233C160.022 233.109 160.181 233.178 160.35 233.2C160.66 233.2 160.88 232.92 161.04 232.66C161.368 232.204 161.581 231.676 161.66 231.12C161.693 230.833 161.643 230.543 161.518 230.283C161.392 230.022 161.195 229.803 160.95 229.65C160.643 229.518 160.303 229.486 159.976 229.558C159.65 229.63 159.354 229.802 159.13 230.05C158.672 230.576 158.337 231.198 158.15 231.87Z" stroke="#1D1D1B" stroke-width="0.5" stroke-linecap="round" stroke-linejoin="round"/>
<path d="M159.09 250.42C159.841 251.282 160.718 252.027 161.69 252.63L162.76 251.3C162.982 251.05 163.164 250.766 163.3 250.46C163.433 250.078 163.438 249.664 163.314 249.279C163.189 248.894 162.942 248.561 162.61 248.33C162.264 248.117 161.866 248.004 161.46 248.004C161.054 248.004 160.656 248.117 160.31 248.33C159.955 248.557 159.659 248.864 159.447 249.228C159.235 249.591 159.113 250 159.09 250.42Z" stroke="#1D1D1B" stroke-width="0.5" stroke-linecap="round" stroke-linejoin="round"/>
<path d="M164.73 253.63L166.26 255.2C166.321 255.287 166.398 255.361 166.487 255.417C166.577 255.474 166.676 255.512 166.78 255.53C166.988 255.523 167.185 255.438 167.33 255.29C167.682 255.092 167.991 254.827 168.24 254.509C168.488 254.192 168.672 253.829 168.78 253.44C168.82 252.96 168.697 252.481 168.43 252.08C168.353 251.896 168.235 251.732 168.085 251.6C167.935 251.469 167.756 251.373 167.564 251.32C167.371 251.267 167.169 251.258 166.973 251.295C166.777 251.331 166.591 251.412 166.43 251.53C166.022 251.75 165.662 252.05 165.37 252.41C165.079 252.77 164.861 253.185 164.73 253.63Z" stroke="#1D1D1B" stroke-width="0.5" stroke-linecap="round" stroke-linejoin="round"/>
<path d="M172.77 252.74C172.289 252.98 171.892 253.36 171.63 253.83C171.507 254.068 171.443 254.332 171.443 254.6C171.443 254.868 171.507 255.132 171.63 255.37C171.755 255.608 171.952 255.799 172.193 255.918C172.434 256.036 172.706 256.076 172.97 256.03C173.444 255.852 173.843 255.516 174.1 255.08C174.337 254.819 174.496 254.497 174.56 254.15C174.559 253.954 174.512 253.761 174.421 253.587C174.331 253.413 174.2 253.263 174.04 253.15C173.676 252.872 173.228 252.727 172.77 252.74Z" stroke="#1D1D1B" stroke-width="0.5" stroke-linecap="round" stroke-linejoin="round"/>
<path d="M189.661 219.3C189.531 219.685 189.481 220.094 189.514 220.499C189.546 220.905 189.661 221.3 189.851 221.66C190.047 222.02 190.336 222.321 190.688 222.532C191.04 222.743 191.441 222.856 191.851 222.86C192.257 222.862 192.653 222.732 192.979 222.491C193.305 222.249 193.545 221.909 193.661 221.52" stroke="#1D1D1B" stroke-width="0.5" stroke-linecap="round" stroke-linejoin="round"/>
<path d="M191.31 219.12C191.177 219.162 191.058 219.239 190.965 219.343C190.872 219.446 190.808 219.573 190.78 219.71C190.699 219.937 190.671 220.178 190.697 220.417C190.723 220.656 190.803 220.886 190.93 221.09C191.071 221.284 191.277 221.421 191.51 221.476C191.743 221.531 191.988 221.5 192.2 221.39C192.4 221.252 192.542 221.046 192.6 220.81C192.662 220.586 192.682 220.352 192.66 220.12" stroke="#1D1D1B" stroke-width="0.5" stroke-linecap="round" stroke-linejoin="round"/>
<path d="M125.09 227.12C125.036 227.772 125.204 228.424 125.567 228.969C125.93 229.513 126.467 229.919 127.09 230.12C127.719 230.301 128.386 230.303 129.017 230.126C129.647 229.95 130.216 229.601 130.66 229.12C131.077 228.662 131.352 228.092 131.45 227.48C131.507 227.037 131.46 226.586 131.313 226.164C131.165 225.742 130.921 225.361 130.6 225.05C130.277 224.744 129.892 224.51 129.471 224.363C129.051 224.217 128.604 224.161 128.16 224.2" stroke="#1D1D1B" stroke-width="0.5" stroke-linecap="round" stroke-linejoin="round"/>
<path d="M127.131 229.05C126.821 228.855 126.566 228.583 126.391 228.261C126.215 227.939 126.126 227.577 126.131 227.21C126.133 227.066 126.15 226.921 126.181 226.78C126.29 226.355 126.526 225.973 126.859 225.687C127.192 225.401 127.604 225.224 128.041 225.18H128.211C128.621 225.187 129.021 225.311 129.363 225.538C129.705 225.765 129.975 226.085 130.141 226.46" stroke="#1D1D1B" stroke-width="0.5" stroke-linecap="round" stroke-linejoin="round"/>
<path d="M29.5416 128.55C29.3944 128.4 29.2835 128.219 29.2176 128.019C29.1517 127.82 29.1326 127.608 29.1616 127.4C29.1939 127.191 29.2827 126.995 29.4184 126.833C29.5541 126.67 29.7316 126.548 29.9316 126.48C30.1334 126.415 30.3506 126.416 30.552 126.482C30.7533 126.549 30.9282 126.677 31.0516 126.85" stroke="#1D1D1B" stroke-width="0.5" stroke-linecap="round" stroke-linejoin="round"/>
<path d="M27.9609 127.58C28.01 128.049 28.2182 128.486 28.5509 128.82C28.875 129.165 29.3038 129.394 29.7709 129.47C30.2392 129.53 30.7142 129.436 31.1251 129.204C31.5359 128.971 31.8607 128.612 32.0509 128.18C32.2185 127.778 32.2501 127.332 32.1409 126.91C32.0362 126.412 31.7558 125.969 31.3509 125.66" stroke="#1D1D1B" stroke-width="0.5" stroke-linecap="round" stroke-linejoin="round"/>
<path d="M30.9905 121.19C30.8153 121.509 30.7604 121.88 30.8356 122.236C30.9108 122.592 31.1113 122.909 31.4005 123.13C31.7057 123.333 32.064 123.441 32.4305 123.441C32.797 123.441 33.1553 123.333 33.4605 123.13C33.7557 122.921 33.9992 122.648 34.1726 122.331C34.3459 122.014 34.4444 121.661 34.4605 121.3C34.4878 121 34.4432 120.699 34.3305 120.42C34.2689 120.283 34.1792 120.161 34.0672 120.061C33.9552 119.961 33.8234 119.886 33.6805 119.84" stroke="#1D1D1B" stroke-width="0.5" stroke-linecap="round" stroke-linejoin="round"/>
<path d="M31.8803 122.39C31.78 122.209 31.7177 122.009 31.697 121.802C31.6764 121.596 31.6979 121.388 31.7603 121.19C31.8245 120.992 31.9446 120.817 32.1061 120.686C32.2675 120.555 32.4634 120.473 32.6703 120.45C32.8777 120.435 33.0836 120.496 33.248 120.624C33.4124 120.751 33.5237 120.935 33.5603 121.14" stroke="#1D1D1B" stroke-width="0.5" stroke-linecap="round" stroke-linejoin="round"/>
<path d="M32.3712 116.29C32.2117 116.648 32.1813 117.049 32.2853 117.427C32.3892 117.805 32.6211 118.134 32.9412 118.36C33.2739 118.566 33.6628 118.664 34.0536 118.639C34.4445 118.614 34.8177 118.467 35.1212 118.22C35.4147 117.963 35.6316 117.63 35.748 117.258C35.8645 116.885 35.876 116.488 35.7812 116.11C35.7396 115.877 35.6344 115.661 35.4774 115.484C35.3203 115.308 35.1174 115.178 34.8912 115.11" stroke="#1D1D1B" stroke-width="0.5" stroke-linecap="round" stroke-linejoin="round"/>
<path d="M33.4402 117.62C33.3244 117.466 33.2491 117.286 33.2212 117.096C33.1932 116.905 33.2135 116.711 33.2802 116.53C33.3605 116.357 33.489 116.21 33.6502 116.107C33.8115 116.004 33.9989 115.95 34.1902 115.95C34.3815 115.969 34.5596 116.057 34.6918 116.196C34.824 116.336 34.9015 116.518 34.9102 116.71" stroke="#1D1D1B" stroke-width="0.5" stroke-linecap="round" stroke-linejoin="round"/>
<path d="M82.6602 29.2798C82.9496 27.9712 83.5115 26.7384 84.3093 25.6615C85.107 24.5846 86.1227 23.6879 87.2902 23.0298" stroke="#1D1D1B" stroke-width="0.5" stroke-linecap="round" stroke-linejoin="round"/>
<path d="M83.8906 29.7998C85.7341 28.0391 88.1915 27.0668 90.7406 27.0898C93.2608 27.1341 95.7675 27.4696 98.2106 28.0898C99.6637 28.4562 101.169 28.5712 102.661 28.4298C104.661 28.1298 106.321 27.0098 108.101 26.1698C109.989 25.2436 112.049 24.7193 114.151 24.6298C116.273 24.5323 118.373 25.1062 120.151 26.2698" stroke="#1D1D1B" stroke-width="0.5" stroke-linecap="round" stroke-linejoin="round"/>
<path d="M100.241 32.7598C100.49 33.4878 100.571 34.263 100.478 35.0268C100.384 35.7906 100.119 36.5233 99.7012 37.1697" stroke="#1D1D1B" stroke-width="0.5" stroke-linecap="round" stroke-linejoin="round"/>
<path d="M103.02 31.4199C102.734 32.6077 102.768 33.8502 103.12 35.0203C103.471 36.1904 104.127 37.2463 105.02 38.0799" stroke="#1D1D1B" stroke-width="0.5" stroke-linecap="round" stroke-linejoin="round"/>
<path d="M107.121 34.6101C107.791 33.2387 108.791 32.0547 110.03 31.1638C111.269 30.273 112.71 29.703 114.224 29.5049C115.737 29.3068 117.276 29.4867 118.703 30.0286C120.13 30.5704 121.401 31.4573 122.401 32.6101" stroke="#1D1D1B" stroke-width="0.5" stroke-linecap="round" stroke-linejoin="round"/>
<path d="M99.2415 48.1201C99.2622 49.1612 99.0962 50.1976 98.7515 51.1801C98.5238 51.8887 98.3533 52.6143 98.2415 53.3501C98.2164 53.6429 98.2164 53.9373 98.2415 54.2301C98.244 54.6874 98.3392 55.1394 98.5214 55.5588C98.7036 55.9782 98.969 56.3562 99.3015 56.6701C99.399 56.7514 99.5026 56.8249 99.6115 56.8901" stroke="#1D1D1B" stroke-width="0.5" stroke-linecap="round" stroke-linejoin="round"/>
<path d="M82.4102 36.1999C83.2623 35.2236 84.331 34.4602 85.5308 33.9705C86.7306 33.4809 88.0283 33.2786 89.3202 33.3799C91.9018 33.6213 94.424 34.2975 96.7802 35.3799" stroke="#1D1D1B" stroke-width="0.5" stroke-linecap="round" stroke-linejoin="round"/>
<path d="M97.2199 53.29C96.4925 54.0388 95.8853 54.8956 95.4199 55.83C95.1912 56.297 95.0723 56.8101 95.0723 57.33C95.0723 57.85 95.1912 58.3631 95.4199 58.83C95.4751 58.9255 95.5386 59.0159 95.6099 59.1C95.9296 59.4995 96.3605 59.7952 96.8481 59.9501C97.3357 60.1049 97.8583 60.1119 98.3499 59.97" stroke="#1D1D1B" stroke-width="0.5" stroke-linecap="round" stroke-linejoin="round"/>
<path d="M96.9805 58.85C97.1057 58.6471 97.2831 58.4815 97.4942 58.3707C97.7053 58.2598 97.9423 58.2078 98.1805 58.22H98.3105C98.8286 58.2944 99.3276 58.4675 99.7805 58.73L101.26 59.47" stroke="#1D1D1B" stroke-width="0.5" stroke-linecap="round" stroke-linejoin="round"/>
<path d="M97.9297 58.5298C97.9924 58.7497 98.1227 58.9444 98.3022 59.0862C98.4817 59.2279 98.7012 59.3097 98.9297 59.3198" stroke="#1D1D1B" stroke-width="0.5" stroke-linecap="round" stroke-linejoin="round"/>
<path d="M104.66 59.2398C105.173 58.9571 105.656 58.622 106.1 58.2398C106.323 58.0438 106.594 57.9093 106.885 57.8497C107.176 57.7901 107.478 57.8074 107.76 57.8998C107.912 57.9732 108.044 58.0811 108.146 58.2148C108.249 58.3485 108.319 58.5043 108.35 58.6698C108.383 58.8351 108.374 59.0062 108.323 59.1671C108.273 59.3279 108.182 59.4733 108.06 59.5898" stroke="#1D1D1B" stroke-width="0.5" stroke-linecap="round" stroke-linejoin="round"/>
<path d="M109.46 59.95C109.898 59.6669 110.247 59.2665 110.468 58.7943C110.689 58.3222 110.773 57.7975 110.71 57.28C110.557 56.2458 110.129 55.2718 109.47 54.46C108.86 53.63 108.14 52.87 107.57 52" stroke="#1D1D1B" stroke-width="0.5" stroke-linecap="round" stroke-linejoin="round"/>
<path d="M87.3799 18.3701L87.0499 18.4701C84.2199 19.4101 81.2299 19.8001 78.3899 20.6901C75.5499 21.5801 72.4899 23.1801 70.9199 25.8501" stroke="#1D1D1B" stroke-width="0.5" stroke-linecap="round" stroke-linejoin="round"/>
<path d="M81.0107 21.46C77.3663 23.3501 74.3865 26.309 72.4707 29.94" stroke="#1D1D1B" stroke-width="0.5" stroke-linecap="round" stroke-linejoin="round"/>
<path d="M75.8105 28.1201C75.3832 30.2243 74.712 32.2714 73.8105 34.2201L73.9705 34.1501" stroke="#1D1D1B" stroke-width="0.5" stroke-linecap="round" stroke-linejoin="round"/>
<path d="M74.9609 15.36C77.7909 11.95 82.3709 10.47 86.7809 10.08C88.2986 9.89413 89.8368 9.96515 91.3309 10.2901C92.8361 10.6155 94.1761 11.4663 95.1109 12.69C95.567 13.3051 95.8502 14.0309 95.9311 14.7923C96.012 15.5537 95.8877 16.3229 95.5709 17.02" stroke="#1D1D1B" stroke-width="0.5" stroke-linecap="round" stroke-linejoin="round"/>
<path d="M101.041 17.1198C101.852 16.298 102.472 15.3071 102.856 14.2181C103.239 13.129 103.378 11.9686 103.261 10.8198" stroke="#1D1D1B" stroke-width="0.5" stroke-linecap="round" stroke-linejoin="round"/>
<path d="M106.451 2.8999C108.372 3.27783 110.234 3.90655 111.991 4.7699C113.759 5.64996 115.117 7.18028 115.781 9.03992C116.065 10.2392 116.043 11.4908 115.716 12.6792C115.39 13.8676 114.769 14.9546 113.911 15.8399" stroke="#1D1D1B" stroke-width="0.5" stroke-linecap="round" stroke-linejoin="round"/>
<path d="M114.24 10.5298C114.171 11.541 113.863 12.5215 113.342 13.3907C112.82 14.2598 112.1 14.9929 111.24 15.5298" stroke="#1D1D1B" stroke-width="0.5" stroke-linecap="round" stroke-linejoin="round"/>
<path d="M112.24 12.6699C111.539 13.8942 110.497 14.8879 109.24 15.5299" stroke="#1D1D1B" stroke-width="0.5" stroke-linecap="round" stroke-linejoin="round"/>
<path d="M109.92 13.7202L108.01 15.3002" stroke="#1D1D1B" stroke-width="0.5" stroke-linecap="round" stroke-linejoin="round"/>
<path d="M109.52 11.3799C108.63 13.2594 107.194 14.8274 105.4 15.8799" stroke="#1D1D1B" stroke-width="0.5" stroke-linecap="round" stroke-linejoin="round"/>
<path d="M104.85 14.2402C104.616 14.9561 104.207 15.6022 103.66 16.1202" stroke="#1D1D1B" stroke-width="0.5" stroke-linecap="round" stroke-linejoin="round"/>
<path d="M118.391 15.5598C119.679 14.8654 121.163 14.6259 122.604 14.88C124.045 15.1341 125.358 15.8668 126.331 16.9598" stroke="#1D1D1B" stroke-width="0.5" stroke-linecap="round" stroke-linejoin="round"/>
<path d="M119.891 16.7798C125.755 18.7342 130.643 22.8699 133.541 28.3298" stroke="#1D1D1B" stroke-width="0.5" stroke-linecap="round" stroke-linejoin="round"/>
<path d="M125.92 25.1201C128.578 27.9935 130.696 31.3237 132.17 34.9501" stroke="#1D1D1B" stroke-width="0.5" stroke-linecap="round" stroke-linejoin="round"/>
<path d="M126.74 28.2798C128.547 32.1398 130.354 35.9931 132.16 39.8398" stroke="#1D1D1B" stroke-width="0.5" stroke-linecap="round" stroke-linejoin="round"/>
<path d="M126.282 54.6499C123.909 57.6891 122.381 61.3008 121.852 65.1199" stroke="#1D1D1B" stroke-width="0.5" stroke-linecap="round" stroke-linejoin="round"/>
<path d="M110.83 57.48C111.59 62.69 116.83 66.41 117.51 71.62" stroke="#1D1D1B" stroke-width="0.5" stroke-linecap="round" stroke-linejoin="round"/>
<path d="M94.9707 59.8901C94.2707 63.0001 92.8507 65.8901 91.7507 68.8901C91.4271 69.6575 91.2475 70.4778 91.2207 71.3102C91.2327 71.6267 91.29 71.9398 91.3907 72.2401C91.5543 72.7402 91.8866 73.1679 92.3307 73.4501" stroke="#1D1D1B" stroke-width="0.5" stroke-linecap="round" stroke-linejoin="round"/>
<path d="M93.6602 71.3199C93.8964 71.4053 94.1475 71.4423 94.3983 71.4285C94.6491 71.4148 94.8946 71.3506 95.1202 71.2399C97.2702 70.4899 99.4302 69.7399 101.61 69.0999C102.058 69.2032 102.512 69.2767 102.97 69.3199C103.3 69.3199 103.62 69.3899 103.97 69.4099C105.363 68.9241 106.836 68.707 108.31 68.7699C110.494 69.0807 112.653 69.5486 114.77 70.1699" stroke="#1D1D1B" stroke-width="0.5" stroke-linecap="round" stroke-linejoin="round"/>
<path d="M99.6602 72.1201C103.015 72.5251 106.406 72.5251 109.76 72.1201" stroke="#1D1D1B" stroke-width="0.5" stroke-linecap="round" stroke-linejoin="round"/>
<path d="M102.51 62.1201C102.56 63.3901 102.61 64.6601 102.65 65.9301C102.642 66.2314 102.696 66.531 102.81 66.8101C102.901 66.9856 103.054 67.121 103.24 67.1901C103.338 67.2151 103.441 67.2151 103.54 67.1901" stroke="#1D1D1B" stroke-width="0.5" stroke-linecap="round" stroke-linejoin="round"/>
<path d="M129.881 52.2601C130.915 50.5019 132.225 48.9217 133.761 47.58C134.146 47.2196 134.63 46.9828 135.151 46.9H135.281C135.518 46.8962 135.748 46.9765 135.931 47.1266C136.114 47.2768 136.238 47.4871 136.281 47.72" stroke="#1D1D1B" stroke-width="0.5" stroke-linecap="round" stroke-linejoin="round"/>
<path d="M135.24 47.2402C135.624 48.8528 135.623 50.5329 135.237 52.145C134.851 53.757 134.092 55.2558 133.02 56.5202C132.898 56.7055 132.707 56.835 132.49 56.8802C132.348 56.8783 132.211 56.8276 132.102 56.7366C131.992 56.6456 131.918 56.5198 131.89 56.3802C131.845 56.1021 131.845 55.8184 131.89 55.5403C131.943 55.0689 131.88 54.5918 131.705 54.1507C131.531 53.7096 131.251 53.318 130.89 53.0103C131.195 53.8982 131.195 54.8623 130.89 55.7502C130.564 56.6312 129.955 57.3799 129.16 57.8802" stroke="#1D1D1B" stroke-width="0.5" stroke-linecap="round" stroke-linejoin="round"/>
<path d="M131.661 58.4302C131.345 60.2678 130.439 61.9526 129.081 63.2302C128.951 63.3502 128.701 63.4402 128.621 63.2802" stroke="#1D1D1B" stroke-width="0.5" stroke-linecap="round" stroke-linejoin="round"/>
<path d="M133.16 48.3701C133.36 48.3937 133.548 48.477 133.699 48.609C133.851 48.741 133.959 48.9156 134.01 49.1101C134.124 49.4925 134.158 49.8941 134.11 50.2901C134.114 51.4827 133.911 52.667 133.51 53.7901" stroke="#1D1D1B" stroke-width="0.5" stroke-linecap="round" stroke-linejoin="round"/>
<path d="M79.1504 60C79.6781 62.2065 80.9318 64.1716 82.7104 65.58L82.6004 65.46" stroke="#1D1D1B" stroke-width="0.5" stroke-linecap="round" stroke-linejoin="round"/>
<path d="M79.6607 54.7002C79.5465 55.693 79.6931 56.6983 80.0859 57.6172C80.4787 58.5361 81.1042 59.3367 81.9007 59.9402" stroke="#1D1D1B" stroke-width="0.5" stroke-linecap="round" stroke-linejoin="round"/>
<path d="M83.791 56.77C85.662 60.3048 87.0702 64.0657 87.981 67.96" stroke="#1D1D1B" stroke-width="0.5" stroke-linecap="round" stroke-linejoin="round"/>
<path d="M87.1914 43.63C87.9814 42.6144 89.142 41.9534 90.4186 41.7922C91.6952 41.631 92.9837 41.9826 94.0014 42.77" stroke="#1D1D1B" stroke-width="0.5" stroke-linecap="round" stroke-linejoin="round"/>
<path d="M94.6602 44.6099C94.3361 46.0042 93.8283 47.3492 93.1502 48.6099C92.8092 49.2384 92.3475 49.7934 91.7915 50.243C91.2355 50.6926 90.5961 51.028 89.9102 51.2299" stroke="#1D1D1B" stroke-width="0.5" stroke-linecap="round" stroke-linejoin="round"/>
<path d="M110.92 41.6102C111.323 41.1411 111.816 40.7572 112.37 40.481C112.924 40.2048 113.527 40.042 114.145 40.0019C114.762 39.9619 115.381 40.0455 115.966 40.2478C116.551 40.4501 117.089 40.7671 117.55 41.1802" stroke="#1D1D1B" stroke-width="0.5" stroke-linecap="round" stroke-linejoin="round"/>
<path d="M111.17 43.7598C111.595 45.4575 112.633 46.9381 114.084 47.9166C115.535 48.895 117.297 49.3022 119.03 49.0598" stroke="#1D1D1B" stroke-width="0.5" stroke-linecap="round" stroke-linejoin="round"/>
<path d="M90.9707 42.0098L91.1807 44.2097" stroke="#1D1D1B" stroke-linecap="round" stroke-linejoin="round"/>
<path d="M114.15 40.3999C114.15 41.0199 114.24 41.6399 114.28 42.2599" stroke="#1D1D1B" stroke-linecap="round" stroke-linejoin="round"/>
<path d="M131.431 186.29C131.259 186.849 131.281 187.449 131.493 187.994C131.706 188.539 132.096 188.995 132.601 189.29C133.128 189.559 133.725 189.657 134.31 189.569C134.895 189.481 135.437 189.212 135.861 188.8C136.393 188.249 136.693 187.516 136.701 186.75C136.702 186.415 136.636 186.084 136.507 185.775C136.379 185.466 136.19 185.185 135.951 184.95C135.711 184.718 135.417 184.55 135.096 184.461C134.775 184.372 134.436 184.365 134.111 184.44" stroke="#1D1D1B" stroke-width="0.5" stroke-linecap="round" stroke-linejoin="round"/>
<path d="M133.371 188.36C133.195 188.274 133.045 188.145 132.934 187.983C132.824 187.822 132.757 187.635 132.741 187.44C132.729 187.244 132.757 187.047 132.822 186.862C132.887 186.677 132.989 186.506 133.121 186.36C133.243 186.208 133.394 186.083 133.566 185.992C133.738 185.901 133.927 185.846 134.121 185.83C134.325 185.823 134.527 185.874 134.704 185.977C134.881 186.079 135.025 186.229 135.121 186.41" stroke="#1D1D1B" stroke-width="0.5" stroke-linecap="round" stroke-linejoin="round"/>
<path d="M129.66 164.12C129.501 164.08 129.352 164.005 129.224 163.901C129.097 163.797 128.994 163.666 128.923 163.518C128.851 163.369 128.814 163.207 128.813 163.042C128.811 162.878 128.846 162.715 128.915 162.566C128.984 162.416 129.085 162.283 129.211 162.177C129.336 162.071 129.484 161.994 129.643 161.952C129.802 161.909 129.969 161.902 130.131 161.931C130.293 161.96 130.446 162.025 130.58 162.12" stroke="#1D1D1B" stroke-width="0.5" stroke-linecap="round" stroke-linejoin="round"/>
<path d="M127.352 163.53C127.436 164.037 127.665 164.509 128.011 164.889C128.358 165.269 128.807 165.54 129.305 165.669C129.802 165.799 130.326 165.782 130.814 165.62C131.302 165.458 131.733 165.158 132.054 164.756C132.375 164.355 132.572 163.869 132.623 163.357C132.674 162.846 132.575 162.33 132.339 161.874C132.102 161.417 131.739 161.039 131.292 160.784C130.846 160.53 130.335 160.41 129.822 160.44" stroke="#1D1D1B" stroke-width="0.5" stroke-linecap="round" stroke-linejoin="round"/>
<path d="M103.281 88.3799L108.791 95.6899" stroke="#1D1D1B" stroke-width="0.5" stroke-linecap="round" stroke-linejoin="round"/>
<path d="M115.95 86.6899C114.908 88.197 114.408 90.0122 114.53 91.8399C114.66 93.652 114.995 95.4435 115.53 97.1799" stroke="#1D1D1B" stroke-width="0.5" stroke-linecap="round" stroke-linejoin="round"/>
</svg>
